<?xml version="1.0" encoding="UTF-8" standalone="no"?>
<!DOCTYPE svg PUBLIC "-//W3C//DTD SVG 1.1//EN"
 "http://www.w3.org/Graphics/SVG/1.1/DTD/svg11.dtd">
<!-- Generated by graphviz version 2.26.3 (20100126.1600)
 -->
<!-- Title: Struc Pages: 1 -->
<svg width="2998pt" height="690pt"
 viewBox="0.00 0.00 2998.00 690.00" xmlns="http://www.w3.org/2000/svg" xmlns:xlink="http://www.w3.org/1999/xlink">
<g id="graph1" class="graph" transform="scale(1 1) rotate(0) translate(4 686)">
<title>Struc</title>
<polygon fill="white" stroke="white" points="-4,5 -4,-686 2995,-686 2995,5 -4,5"/>
<!-- n1 -->
<g id="node1" class="node"><title>n1</title>
<ellipse fill="none" stroke="black" cx="73" cy="-647" rx="73.0388" ry="31.1127"/>
<text text-anchor="middle" x="73" y="-652.4" font-family="Times Roman,serif" font-size="14.00">&lt;?_G313&gt;</text>
<text text-anchor="middle" x="73" y="-634.4" font-family="Times Roman,serif" font-size="14.00">torsoposture</text>
</g>
<!-- n1&#45;&gt;n1 -->
<g id="edge2" class="edge"><title>n1&#45;&gt;n1</title>
<path fill="none" stroke="black" d="M141.259,-658.108C154.557,-656.818 164,-653.115 164,-647 164,-642.557 159.015,-639.387 151.189,-637.492"/>
<polygon fill="black" stroke="black" points="151.689,-634.027 141.259,-635.892 150.575,-640.938 151.689,-634.027"/>
<text text-anchor="middle" x="253.5" y="-643.4" font-family="Times Roman,serif" font-size="14.00"> static(torsodownposture)</text>
</g>
<!-- n2 -->
<g id="node2" class="node"><title>n2</title>
<ellipse fill="none" stroke="black" cx="1173" cy="-399" rx="67.1751" ry="31.1127"/>
<ellipse fill="none" stroke="black" cx="1173" cy="-399" rx="71.1751" ry="35.1127"/>
<text text-anchor="middle" x="1173" y="-404.4" font-family="Times Roman,serif" font-size="14.00">&lt;?_G241&gt;</text>
<text text-anchor="middle" x="1173" y="-386.4" font-family="Times Roman,serif" font-size="14.00">placingarea</text>
</g>
<!-- n2&#45;&gt;n2 -->
<g id="edge4" class="edge"><title>n2&#45;&gt;n2</title>
<path fill="none" stroke="black" d="M1240.53,-410.028C1253.13,-408.67 1262,-404.994 1262,-399 1262,-394.785 1257.61,-391.717 1250.63,-389.794"/>
<polygon fill="black" stroke="black" points="1250.99,-386.303 1240.53,-387.972 1249.75,-393.192 1250.99,-386.303"/>
<text text-anchor="middle" x="1344.5" y="-395.4" font-family="Times Roman,serif" font-size="14.00"> static(placingarearight)</text>
</g>
<!-- n17 -->
<g id="node17" class="node"><title>n17</title>
<ellipse fill="none" stroke="black" cx="1333" cy="-275" rx="65.9966" ry="31.1127"/>
<ellipse fill="none" stroke="black" cx="1333" cy="-275" rx="69.9683" ry="35.1127"/>
<text text-anchor="middle" x="1333" y="-280.4" font-family="Times Roman,serif" font-size="14.00">&lt;?_G226&gt;</text>
<text text-anchor="middle" x="1333" y="-262.4" font-family="Times Roman,serif" font-size="14.00">area</text>
</g>
<!-- n2&#45;&gt;n17 -->
<g id="edge34" class="edge"><title>n2&#45;&gt;n17</title>
<path fill="none" stroke="black" stroke-dasharray="5,2" d="M1211.32,-369.299C1234.08,-351.661 1263.08,-329.184 1287.07,-310.6"/>
<polygon fill="black" stroke="black" points="1289.23,-313.351 1294.99,-304.459 1284.94,-307.818 1289.23,-313.351"/>
<text text-anchor="middle" x="1323" y="-333.4" font-family="Times Roman,serif" font-size="14.00"> static(reachable)</text>
</g>
<!-- n3 -->
<g id="node3" class="node"><title>n3</title>
<ellipse fill="none" stroke="black" cx="2340" cy="-31" rx="73.0388" ry="31.1127"/>
<text text-anchor="middle" x="2340" y="-36.4" font-family="Times Roman,serif" font-size="14.00">&lt;?_G322&gt;</text>
<text text-anchor="middle" x="2340" y="-18.4" font-family="Times Roman,serif" font-size="14.00">torsoposture</text>
</g>
<!-- n3&#45;&gt;n3 -->
<g id="edge6" class="edge"><title>n3&#45;&gt;n3</title>
<path fill="none" stroke="black" d="M2409.04,-41.3168C2421.93,-40.0463 2431,-36.6074 2431,-31 2431,-27.0573 2426.51,-24.1866 2419.37,-22.3881"/>
<polygon fill="black" stroke="black" points="2419.48,-18.8586 2409.04,-20.6832 2418.34,-25.7651 2419.48,-18.8586"/>
<text text-anchor="middle" x="2510" y="-27.4" font-family="Times Roman,serif" font-size="14.00"> static(torsoupposture)</text>
</g>
<!-- n4 -->
<g id="node4" class="node"><title>n4</title>
<ellipse fill="none" stroke="black" cx="626" cy="-399" rx="67.1751" ry="31.1127"/>
<ellipse fill="none" stroke="black" cx="626" cy="-399" rx="71.1751" ry="35.1127"/>
<text text-anchor="middle" x="626" y="-404.4" font-family="Times Roman,serif" font-size="14.00">&lt;?_G247&gt;</text>
<text text-anchor="middle" x="626" y="-386.4" font-family="Times Roman,serif" font-size="14.00">placingarea</text>
</g>
<!-- n4&#45;&gt;n4 -->
<g id="edge8" class="edge"><title>n4&#45;&gt;n4</title>
<path fill="none" stroke="black" d="M693.527,-410.028C706.127,-408.67 715,-404.994 715,-399 715,-394.785 710.613,-391.717 703.629,-389.794"/>
<polygon fill="black" stroke="black" points="703.99,-386.303 693.527,-387.972 702.747,-393.192 703.99,-386.303"/>
<text text-anchor="middle" x="792" y="-395.4" font-family="Times Roman,serif" font-size="14.00"> static(placingarealeft)</text>
</g>
<!-- n4&#45;&gt;n17 -->
<g id="edge82" class="edge"><title>n4&#45;&gt;n17</title>
<path fill="none" stroke="black" stroke-dasharray="5,2" d="M690.227,-383.741C756.531,-368.329 863.104,-344.501 956,-328 1058.76,-309.747 1178.19,-293.846 1254.63,-284.341"/>
<polygon fill="black" stroke="black" points="1255.17,-287.801 1264.66,-283.1 1254.31,-280.854 1255.17,-287.801"/>
<text text-anchor="middle" x="1016" y="-333.4" font-family="Times Roman,serif" font-size="14.00"> static(reachable)</text>
</g>
<!-- n5 -->
<g id="node5" class="node"><title>n5</title>
<ellipse fill="none" stroke="black" cx="1533" cy="-647" rx="67.8823" ry="31.1127"/>
<text text-anchor="middle" x="1533" y="-652.4" font-family="Times Roman,serif" font-size="14.00">&lt;?_G303&gt;</text>
<text text-anchor="middle" x="1533" y="-634.4" font-family="Times Roman,serif" font-size="14.00">armposture</text>
</g>
<!-- n5&#45;&gt;n5 -->
<g id="edge10" class="edge"><title>n5&#45;&gt;n5</title>
<path fill="none" stroke="black" d="M1596.76,-658.182C1609.72,-656.964 1619,-653.236 1619,-647 1619,-642.518 1614.21,-639.332 1606.7,-637.442"/>
<polygon fill="black" stroke="black" points="1607.19,-633.976 1596.76,-635.818 1606.06,-640.885 1607.19,-633.976"/>
<text text-anchor="middle" x="1703" y="-643.4" font-family="Times Roman,serif" font-size="14.00"> static(armcarryposture)</text>
</g>
<!-- n6 -->
<g id="node6" class="node"><title>n6</title>
<ellipse fill="none" stroke="black" cx="427" cy="-647" rx="65.9683" ry="31.1127"/>
<text text-anchor="middle" x="427" y="-652.4" font-family="Times Roman,serif" font-size="14.00">&lt;?_G269&gt;</text>
<text text-anchor="middle" x="427" y="-634.4" font-family="Times Roman,serif" font-size="14.00">guest</text>
</g>
<!-- n7 -->
<g id="node7" class="node"><title>n7</title>
<ellipse fill="none" stroke="black" cx="1015" cy="-523" rx="65.9966" ry="31.1127"/>
<ellipse fill="none" stroke="black" cx="1015" cy="-523" rx="69.9683" ry="35.1127"/>
<text text-anchor="middle" x="1015" y="-528.4" font-family="Times Roman,serif" font-size="14.00">&lt;?_G255&gt;</text>
<text text-anchor="middle" x="1015" y="-510.4" font-family="Times Roman,serif" font-size="14.00">sittingarea</text>
</g>
<!-- n6&#45;&gt;n7 -->
<g id="edge38" class="edge"><title>n6&#45;&gt;n7</title>
<path fill="none" stroke="black" stroke-dasharray="5,2" d="M492.057,-640.762C590.001,-630.227 780.43,-605.285 936,-558 942.365,-556.066 948.895,-553.751 955.342,-551.246"/>
<polygon fill="black" stroke="black" points="956.741,-554.456 964.699,-547.462 954.116,-547.966 956.741,-554.456"/>
<text text-anchor="middle" x="902.5" y="-581.4" font-family="Times Roman,serif" font-size="14.00"> static(at)</text>
</g>
<!-- n7&#45;&gt;n2 -->
<g id="edge84" class="edge"><title>n7&#45;&gt;n2</title>
<path fill="none" stroke="black" stroke-dasharray="5,2" d="M1007.61,-487.865C1006.93,-475.499 1008.6,-462.163 1016,-452 1021.54,-444.391 1062.47,-430.705 1101.14,-419.147"/>
<polygon fill="black" stroke="black" points="1102.31,-422.452 1110.91,-416.259 1100.32,-415.74 1102.31,-422.452"/>
<text text-anchor="middle" x="1094" y="-457.4" font-family="Times Roman,serif" font-size="14.00"> static(hasplacingarea)</text>
</g>
<!-- n7&#45;&gt;n4 -->
<g id="edge68" class="edge"><title>n7&#45;&gt;n4</title>
<path fill="none" stroke="black" stroke-dasharray="5,2" d="M965.25,-498.287C955.723,-494.325 945.692,-490.66 936,-488 870.824,-470.113 850.15,-487.982 785,-470 774.726,-467.164 727.526,-445.909 687.198,-427.388"/>
<polygon fill="black" stroke="black" points="688.467,-424.119 677.92,-423.119 685.542,-430.478 688.467,-424.119"/>
<text text-anchor="middle" x="863" y="-457.4" font-family="Times Roman,serif" font-size="14.00"> static(hasplacingarea)</text>
</g>
<!-- n8 -->
<g id="node8" class="node"><title>n8</title>
<ellipse fill="none" stroke="black" cx="1271" cy="-647" rx="65.9966" ry="31.1127"/>
<ellipse fill="none" stroke="black" cx="1271" cy="-647" rx="69.9683" ry="35.1127"/>
<text text-anchor="middle" x="1271" y="-652.4" font-family="Times Roman,serif" font-size="14.00">&lt;?_G173&gt;</text>
<text text-anchor="middle" x="1271" y="-634.4" font-family="Times Roman,serif" font-size="14.00">table</text>
</g>
<!-- n8&#45;&gt;n2 -->
<g id="edge60" class="edge"><title>n8&#45;&gt;n2</title>
<path fill="none" stroke="black" stroke-dasharray="5,2" d="M1272.56,-611.727C1272.79,-570.607 1268.15,-501.922 1239,-452 1235.09,-445.307 1229.99,-439.123 1224.36,-433.522"/>
<polygon fill="black" stroke="black" points="1226.72,-430.936 1216.99,-426.744 1221.98,-436.089 1226.72,-430.936"/>
<text text-anchor="middle" x="1348" y="-519.4" font-family="Times Roman,serif" font-size="14.00"> static(hasplacingarea)</text>
</g>
<!-- n8&#45;&gt;n4 -->
<g id="edge54" class="edge"><title>n8&#45;&gt;n4</title>
<path fill="none" stroke="black" stroke-dasharray="5,2" d="M1201.2,-643.94C1023.18,-635.424 563.037,-608.673 518,-558 497.332,-534.746 504.727,-516.138 518,-488 529.024,-464.631 549.526,-445.319 569.73,-430.726"/>
<polygon fill="black" stroke="black" points="571.816,-433.539 578.039,-424.965 567.827,-427.787 571.816,-433.539"/>
<text text-anchor="middle" x="596" y="-519.4" font-family="Times Roman,serif" font-size="14.00"> static(hasplacingarea)</text>
</g>
<!-- n8&#45;&gt;n7 -->
<g id="edge78" class="edge"><title>n8&#45;&gt;n7</title>
<path fill="none" stroke="black" stroke-dasharray="5,2" d="M1207.4,-632.207C1175.84,-623.481 1137.78,-610.816 1106,-594 1088.81,-584.906 1071.58,-572.506 1056.81,-560.612"/>
<polygon fill="black" stroke="black" points="1058.82,-557.732 1048.87,-554.081 1054.37,-563.137 1058.82,-557.732"/>
<text text-anchor="middle" x="1181.5" y="-581.4" font-family="Times Roman,serif" font-size="14.00"> static(hassittingarea)</text>
</g>
<!-- n8&#45;&gt;n8 -->
<g id="edge12" class="edge"><title>n8&#45;&gt;n8</title>
<path fill="none" stroke="black" d="M1337.77,-658.028C1350.23,-656.67 1359,-652.994 1359,-647 1359,-642.785 1354.66,-639.717 1347.76,-637.794"/>
<polygon fill="black" stroke="black" points="1348.23,-634.324 1337.77,-635.972 1346.98,-641.21 1348.23,-634.324"/>
<text text-anchor="middle" x="1403" y="-643.4" font-family="Times Roman,serif" font-size="14.00"> static(table)</text>
</g>
<!-- n11 -->
<g id="node11" class="node"><title>n11</title>
<ellipse fill="none" stroke="black" cx="1972" cy="-151" rx="65.9966" ry="31.1127"/>
<ellipse fill="none" stroke="black" cx="1972" cy="-151" rx="69.9683" ry="35.1127"/>
<text text-anchor="middle" x="1972" y="-156.4" font-family="Times Roman,serif" font-size="14.00">&lt;?_G221&gt;</text>
<text text-anchor="middle" x="1972" y="-138.4" font-family="Times Roman,serif" font-size="14.00">area</text>
</g>
<!-- n8&#45;&gt;n11 -->
<g id="edge64" class="edge"><title>n8&#45;&gt;n11</title>
<path fill="none" stroke="black" stroke-dasharray="5,2" d="M1335.39,-633.25C1370.84,-626.076 1415.7,-617.644 1456,-612 1539.22,-600.347 2207,-607.028 2207,-523 2207,-523 2207,-523 2207,-275 2207,-202.673 2118.85,-172.428 2050.53,-159.848"/>
<polygon fill="black" stroke="black" points="2051.06,-156.387 2040.6,-158.117 2049.85,-163.283 2051.06,-156.387"/>
<text text-anchor="middle" x="2317" y="-395.4" font-family="Times Roman,serif" font-size="14.00"> static(haspremanipulationarea)</text>
</g>
<!-- n8&#45;&gt;n17 -->
<g id="edge40" class="edge"><title>n8&#45;&gt;n17</title>
<path fill="none" stroke="black" stroke-dasharray="5,2" d="M1331.7,-629.42C1366.75,-615.884 1408.1,-593.368 1430,-558 1452.71,-521.329 1453.94,-403.222 1436,-364 1425.63,-341.341 1406.33,-322.25 1387.22,-307.631"/>
<polygon fill="black" stroke="black" points="1389.2,-304.74 1379.06,-301.642 1385.05,-310.382 1389.2,-304.74"/>
<text text-anchor="middle" x="1548" y="-457.4" font-family="Times Roman,serif" font-size="14.00"> static(hasmanipulationarea)</text>
</g>
<!-- n9 -->
<g id="node9" class="node"><title>n9</title>
<ellipse fill="none" stroke="black" cx="1873" cy="-647" rx="67.8823" ry="31.1127"/>
<text text-anchor="middle" x="1873" y="-652.4" font-family="Times Roman,serif" font-size="14.00">&lt;?_G307&gt;</text>
<text text-anchor="middle" x="1873" y="-634.4" font-family="Times Roman,serif" font-size="14.00">armposture</text>
</g>
<!-- n9&#45;&gt;n9 -->
<g id="edge14" class="edge"><title>n9&#45;&gt;n9</title>
<path fill="none" stroke="black" d="M1936.76,-658.182C1949.72,-656.964 1959,-653.236 1959,-647 1959,-642.518 1954.21,-639.332 1946.7,-637.442"/>
<polygon fill="black" stroke="black" points="1947.19,-633.976 1936.76,-635.818 1946.06,-640.885 1947.19,-633.976"/>
<text text-anchor="middle" x="2046" y="-643.4" font-family="Times Roman,serif" font-size="14.00"> static(armtosideposture)</text>
</g>
<!-- n10 -->
<g id="node10" class="node"><title>n10</title>
<ellipse fill="none" stroke="black" cx="2219" cy="-647" rx="67.8823" ry="31.1127"/>
<text text-anchor="middle" x="2219" y="-652.4" font-family="Times Roman,serif" font-size="14.00">&lt;?_G302&gt;</text>
<text text-anchor="middle" x="2219" y="-634.4" font-family="Times Roman,serif" font-size="14.00">armposture</text>
</g>
<!-- n10&#45;&gt;n10 -->
<g id="edge16" class="edge"><title>n10&#45;&gt;n10</title>
<path fill="none" stroke="black" d="M2282.76,-658.182C2295.72,-656.964 2305,-653.236 2305,-647 2305,-642.518 2300.21,-639.332 2292.7,-637.442"/>
<polygon fill="black" stroke="black" points="2293.19,-633.976 2282.76,-635.818 2292.06,-640.885 2293.19,-633.976"/>
<text text-anchor="middle" x="2394" y="-643.4" font-family="Times Roman,serif" font-size="14.00"> static(armtuckedposture)</text>
</g>
<!-- n11&#45;&gt;n11 -->
<g id="edge18" class="edge"><title>n11&#45;&gt;n11</title>
<path fill="none" stroke="black" d="M2038.77,-162.028C2051.23,-160.67 2060,-156.994 2060,-151 2060,-146.785 2055.66,-143.717 2048.76,-141.794"/>
<polygon fill="black" stroke="black" points="2049.23,-138.324 2038.77,-139.972 2047.98,-145.21 2049.23,-138.324"/>
<text text-anchor="middle" x="2158" y="-147.4" font-family="Times Roman,serif" font-size="14.00"> static(premanipulationarea)</text>
</g>
<!-- n12 -->
<g id="node12" class="node"><title>n12</title>
<ellipse fill="none" stroke="black" cx="2761" cy="-151" rx="65.9683" ry="31.1127"/>
<text text-anchor="middle" x="2761" y="-156.4" font-family="Times Roman,serif" font-size="14.00">&lt;?_G204&gt;</text>
<text text-anchor="middle" x="2761" y="-138.4" font-family="Times Roman,serif" font-size="14.00">arm</text>
</g>
<!-- n12&#45;&gt;n12 -->
<g id="edge20" class="edge"><title>n12&#45;&gt;n12</title>
<path fill="none" stroke="black" d="M2822.53,-162.25C2835.58,-161.107 2845,-157.357 2845,-151 2845,-146.431 2840.13,-143.208 2832.55,-141.333"/>
<polygon fill="black" stroke="black" points="2832.96,-137.854 2822.53,-139.75 2831.86,-144.768 2832.96,-137.854"/>
<text text-anchor="middle" x="2901.5" y="-156.4" font-family="Times Roman,serif" font-size="14.00"> static(rightarm)</text>
<text text-anchor="middle" x="2901.5" y="-138.4" font-family="Times Roman,serif" font-size="14.00">init(armfree)</text>
</g>
<!-- n19 -->
<g id="node19" class="node"><title>n19</title>
<ellipse fill="none" stroke="black" cx="2707" cy="-31" rx="67.8823" ry="31.1127"/>
<text text-anchor="middle" x="2707" y="-36.4" font-family="Times Roman,serif" font-size="14.00">&lt;?_G306&gt;</text>
<text text-anchor="middle" x="2707" y="-18.4" font-family="Times Roman,serif" font-size="14.00">armposture</text>
</g>
<!-- n12&#45;&gt;n19 -->
<g id="edge46" class="edge"><title>n12&#45;&gt;n19</title>
<path fill="none" stroke="black" d="M2747.23,-120.408C2740.44,-105.316 2732.17,-86.9259 2724.89,-70.7572"/>
<polygon fill="black" stroke="black" points="2728.04,-69.2186 2720.74,-61.5357 2721.65,-72.0912 2728.04,-69.2186"/>
<text text-anchor="middle" x="2806" y="-85.4" font-family="Times Roman,serif" font-size="14.00"> init(hasarmposture)</text>
</g>
<!-- n13 -->
<g id="node13" class="node"><title>n13</title>
<ellipse fill="none" stroke="black" cx="1169" cy="-523" rx="65.9683" ry="31.1127"/>
<text text-anchor="middle" x="1169" y="-528.4" font-family="Times Roman,serif" font-size="14.00">&lt;?_G263&gt;</text>
<text text-anchor="middle" x="1169" y="-510.4" font-family="Times Roman,serif" font-size="14.00">object</text>
</g>
<!-- n13&#45;&gt;n2 -->
<g id="edge70" class="edge"><title>n13&#45;&gt;n2</title>
<path fill="none" stroke="black" stroke-dasharray="5,2" d="M1173.79,-491.96C1174.71,-484.767 1175.53,-477.131 1176,-470 1176.55,-461.685 1176.6,-452.816 1176.37,-444.264"/>
<polygon fill="black" stroke="black" points="1179.86,-443.905 1175.98,-434.047 1172.87,-444.174 1179.86,-443.905"/>
<text text-anchor="middle" x="1206" y="-457.4" font-family="Times Roman,serif" font-size="14.00"> end(on)</text>
</g>
<!-- n21 -->
<g id="node21" class="node"><title>n21</title>
<ellipse fill="none" stroke="black" cx="978" cy="-399" rx="67.1751" ry="31.1127"/>
<text text-anchor="middle" x="978" y="-404.4" font-family="Times Roman,serif" font-size="14.00">&lt;?_G238&gt;</text>
<text text-anchor="middle" x="978" y="-386.4" font-family="Times Roman,serif" font-size="14.00">placingarea</text>
</g>
<!-- n13&#45;&gt;n21 -->
<g id="edge62" class="edge"><title>n13&#45;&gt;n21</title>
<path fill="none" stroke="black" d="M1125.07,-499.726C1115.08,-495.223 1104.36,-490.983 1094,-488 1063.01,-479.073 971.342,-494.176 950,-470 941.766,-460.673 943.339,-448.636 948.633,-437.132"/>
<polygon fill="black" stroke="black" points="951.852,-438.538 953.56,-428.082 945.705,-435.191 951.852,-438.538"/>
<text text-anchor="middle" x="977.5" y="-457.4" font-family="Times Roman,serif" font-size="14.00"> init(on)</text>
</g>
<!-- n14 -->
<g id="node14" class="node"><title>n14</title>
<ellipse fill="none" stroke="black" cx="749" cy="-523" rx="65.9683" ry="31.1127"/>
<text text-anchor="middle" x="749" y="-528.4" font-family="Times Roman,serif" font-size="14.00">&lt;?_G267&gt;</text>
<text text-anchor="middle" x="749" y="-510.4" font-family="Times Roman,serif" font-size="14.00">object</text>
</g>
<!-- n14&#45;&gt;n4 -->
<g id="edge66" class="edge"><title>n14&#45;&gt;n4</title>
<path fill="none" stroke="black" stroke-dasharray="5,2" d="M702.069,-501.142C691.319,-496.508 679.857,-491.856 669,-488 640.753,-477.967 622.149,-493.858 604,-470 597.724,-461.75 597.553,-451.687 600.273,-441.76"/>
<polygon fill="black" stroke="black" points="603.567,-442.944 603.662,-432.349 596.981,-440.572 603.567,-442.944"/>
<text text-anchor="middle" x="633" y="-457.4" font-family="Times Roman,serif" font-size="14.00"> end(on)</text>
</g>
<!-- n14&#45;&gt;n14 -->
<g id="edge22" class="edge"><title>n14&#45;&gt;n14</title>
<path fill="none" stroke="black" d="M810.534,-534.25C823.579,-533.107 833,-529.357 833,-523 833,-518.431 828.133,-515.208 820.552,-513.333"/>
<polygon fill="black" stroke="black" points="820.957,-509.854 810.534,-511.75 819.865,-516.768 820.957,-509.854"/>
<text text-anchor="middle" x="880" y="-519.4" font-family="Times Roman,serif" font-size="14.00"> static(coffee)</text>
</g>
<!-- n14&#45;&gt;n21 -->
<g id="edge58" class="edge"><title>n14&#45;&gt;n21</title>
<path fill="none" stroke="black" d="M706.271,-499.277C686.694,-485.452 670.694,-467.702 685,-452 714.01,-420.159 835.915,-443.183 878,-434 891.032,-431.156 904.704,-427.115 917.609,-422.784"/>
<polygon fill="black" stroke="black" points="918.999,-426.007 927.305,-419.429 916.71,-419.391 918.999,-426.007"/>
<text text-anchor="middle" x="712.5" y="-457.4" font-family="Times Roman,serif" font-size="14.00"> init(on)</text>
</g>
<!-- n15 -->
<g id="node15" class="node"><title>n15</title>
<ellipse fill="none" stroke="black" cx="2340" cy="-151" rx="65.9683" ry="31.1127"/>
<text text-anchor="middle" x="2340" y="-156.4" font-family="Times Roman,serif" font-size="14.00">&lt;?_G188&gt;</text>
<text text-anchor="middle" x="2340" y="-138.4" font-family="Times Roman,serif" font-size="14.00">torso</text>
</g>
<!-- n15&#45;&gt;n3 -->
<g id="edge44" class="edge"><title>n15&#45;&gt;n3</title>
<path fill="none" stroke="black" d="M2340,-119.785C2340,-105.34 2340,-87.979 2340,-72.4547"/>
<polygon fill="black" stroke="black" points="2343.5,-72.059 2340,-62.059 2336.5,-72.0591 2343.5,-72.059"/>
<text text-anchor="middle" x="2415" y="-85.4" font-family="Times Roman,serif" font-size="14.00"> init(hastorsoposture)</text>
</g>
<!-- n16 -->
<g id="node16" class="node"><title>n16</title>
<ellipse fill="none" stroke="black" cx="2490" cy="-151" rx="65.9683" ry="31.1127"/>
<text text-anchor="middle" x="2490" y="-156.4" font-family="Times Roman,serif" font-size="14.00">&lt;?_G203&gt;</text>
<text text-anchor="middle" x="2490" y="-138.4" font-family="Times Roman,serif" font-size="14.00">arm</text>
</g>
<!-- n16&#45;&gt;n16 -->
<g id="edge24" class="edge"><title>n16&#45;&gt;n16</title>
<path fill="none" stroke="black" d="M2551.53,-162.25C2564.58,-161.107 2574,-157.357 2574,-151 2574,-146.431 2569.13,-143.208 2561.55,-141.333"/>
<polygon fill="black" stroke="black" points="2561.96,-137.854 2551.53,-139.75 2560.86,-144.768 2561.96,-137.854"/>
<text text-anchor="middle" x="2625.5" y="-156.4" font-family="Times Roman,serif" font-size="14.00"> static(leftarm)</text>
<text text-anchor="middle" x="2625.5" y="-138.4" font-family="Times Roman,serif" font-size="14.00">init(armfree)</text>
</g>
<!-- n16&#45;&gt;n19 -->
<g id="edge48" class="edge"><title>n16&#45;&gt;n19</title>
<path fill="none" stroke="black" d="M2521.61,-123.371C2538.93,-109.159 2561.25,-92.2885 2583,-80 2601.45,-69.5804 2622.55,-60.3481 2642.06,-52.7859"/>
<polygon fill="black" stroke="black" points="2643.38,-56.0288 2651.49,-49.2099 2640.9,-49.4837 2643.38,-56.0288"/>
<text text-anchor="middle" x="2654" y="-85.4" font-family="Times Roman,serif" font-size="14.00"> init(hasarmposture)</text>
</g>
<!-- n17&#45;&gt;n11 -->
<g id="edge36" class="edge"><title>n17&#45;&gt;n11</title>
<path fill="none" stroke="black" stroke-dasharray="5,2" d="M1398.38,-262.313C1517.77,-239.145 1770.38,-190.125 1896.73,-165.607"/>
<polygon fill="black" stroke="black" points="1897.56,-169.01 1906.71,-163.67 1896.23,-162.139 1897.56,-169.01"/>
<text text-anchor="middle" x="1801" y="-209.4" font-family="Times Roman,serif" font-size="14.00"> static(haspremanipulationarea)</text>
</g>
<!-- n17&#45;&gt;n17 -->
<g id="edge26" class="edge"><title>n17&#45;&gt;n17</title>
<path fill="none" stroke="black" d="M1399.77,-286.028C1412.23,-284.67 1421,-280.994 1421,-275 1421,-270.785 1416.66,-267.717 1409.76,-265.794"/>
<polygon fill="black" stroke="black" points="1410.23,-262.324 1399.77,-263.972 1408.98,-269.21 1410.23,-262.324"/>
<text text-anchor="middle" x="1508" y="-271.4" font-family="Times Roman,serif" font-size="14.00"> static(manipulationarea)</text>
</g>
<!-- n18 -->
<g id="node18" class="node"><title>n18</title>
<ellipse fill="none" stroke="black" cx="2422" cy="-275" rx="65.9683" ry="31.1127"/>
<text text-anchor="middle" x="2422" y="-280.4" font-family="Times Roman,serif" font-size="14.00">&lt;?_G191&gt;</text>
<text text-anchor="middle" x="2422" y="-262.4" font-family="Times Roman,serif" font-size="14.00">robot</text>
</g>
<!-- n18&#45;&gt;n11 -->
<g id="edge76" class="edge"><title>n18&#45;&gt;n11</title>
<path fill="none" stroke="black" stroke-dasharray="5,2" d="M2363.51,-260.187C2329.96,-250.876 2287.4,-237.668 2251,-222 2236.01,-215.548 2234.26,-209.777 2219,-204 2164.22,-183.264 2099.38,-169.739 2049.87,-161.545"/>
<polygon fill="black" stroke="black" points="2050.3,-158.068 2039.87,-159.926 2049.18,-164.978 2050.3,-158.068"/>
<text text-anchor="middle" x="2295.5" y="-209.4" font-family="Times Roman,serif" font-size="14.00"> init(robotat)</text>
</g>
<!-- n18&#45;&gt;n12 -->
<g id="edge80" class="edge"><title>n18&#45;&gt;n12</title>
<path fill="none" stroke="black" d="M2477.84,-258.363C2531.77,-241.782 2615.44,-214.711 2686,-186 2692.35,-183.417 2698.94,-180.581 2705.45,-177.676"/>
<polygon fill="black" stroke="black" points="2707.25,-180.706 2714.91,-173.393 2704.36,-174.329 2707.25,-180.706"/>
<text text-anchor="middle" x="2688" y="-209.4" font-family="Times Roman,serif" font-size="14.00"> static(hasarm)</text>
</g>
<!-- n18&#45;&gt;n15 -->
<g id="edge50" class="edge"><title>n18&#45;&gt;n15</title>
<path fill="none" stroke="black" d="M2379.75,-251.029C2369.16,-243.093 2358.88,-233.34 2352,-222 2346.6,-213.101 2343.45,-202.481 2341.65,-192.201"/>
<polygon fill="black" stroke="black" points="2345.09,-191.543 2340.26,-182.111 2338.15,-192.494 2345.09,-191.543"/>
<text text-anchor="middle" x="2408" y="-209.4" font-family="Times Roman,serif" font-size="14.00"> static(hastorso)</text>
</g>
<!-- n18&#45;&gt;n16 -->
<g id="edge56" class="edge"><title>n18&#45;&gt;n16</title>
<path fill="none" stroke="black" d="M2450.13,-246.93C2456.68,-239.306 2463.14,-230.731 2468,-222 2473.13,-212.781 2477.22,-202.209 2480.43,-192.09"/>
<polygon fill="black" stroke="black" points="2483.87,-192.768 2483.33,-182.187 2477.16,-190.796 2483.87,-192.768"/>
<text text-anchor="middle" x="2527" y="-209.4" font-family="Times Roman,serif" font-size="14.00"> static(hasarm)</text>
</g>
<!-- n19&#45;&gt;n19 -->
<g id="edge28" class="edge"><title>n19&#45;&gt;n19</title>
<path fill="none" stroke="black" d="M2771.13,-41.4263C2783.9,-40.2528 2793,-36.7773 2793,-31 2793,-26.9378 2788.5,-24.0136 2781.39,-22.2275"/>
<polygon fill="black" stroke="black" points="2781.56,-18.7102 2771.13,-20.5737 2780.45,-25.6209 2781.56,-18.7102"/>
<text text-anchor="middle" x="2891.5" y="-27.4" font-family="Times Roman,serif" font-size="14.00"> static(armunnamedposture)</text>
</g>
<!-- n20 -->
<g id="node20" class="node"><title>n20</title>
<ellipse fill="none" stroke="black" cx="1847" cy="-523" rx="65.9683" ry="31.1127"/>
<text text-anchor="middle" x="1847" y="-528.4" font-family="Times Roman,serif" font-size="14.00">&lt;?_G171&gt;</text>
<text text-anchor="middle" x="1847" y="-510.4" font-family="Times Roman,serif" font-size="14.00">table</text>
</g>
<!-- n20&#45;&gt;n11 -->
<g id="edge72" class="edge"><title>n20&#45;&gt;n11</title>
<path fill="none" stroke="black" stroke-dasharray="5,2" d="M1891.43,-499.796C1915.65,-484.581 1943.56,-462.267 1958,-434 1968.5,-413.446 1971.13,-270.935 1971.78,-196.326"/>
<polygon fill="black" stroke="black" points="1975.28,-196.296 1971.86,-186.269 1968.28,-196.241 1975.28,-196.296"/>
<text text-anchor="middle" x="2078" y="-333.4" font-family="Times Roman,serif" font-size="14.00"> static(haspremanipulationarea)</text>
</g>
<!-- n20&#45;&gt;n17 -->
<g id="edge52" class="edge"><title>n20&#45;&gt;n17</title>
<path fill="none" stroke="black" stroke-dasharray="5,2" d="M1848.04,-491.984C1846.88,-478.111 1843.06,-462.545 1833,-452 1809.93,-427.822 1791.93,-443.847 1760,-434 1690.25,-412.492 1499.16,-339.365 1397.92,-300.219"/>
<polygon fill="black" stroke="black" points="1399,-296.884 1388.41,-296.54 1396.48,-303.412 1399,-296.884"/>
<text text-anchor="middle" x="1859" y="-395.4" font-family="Times Roman,serif" font-size="14.00"> static(hasmanipulationarea)</text>
</g>
<!-- n20&#45;&gt;n20 -->
<g id="edge30" class="edge"><title>n20&#45;&gt;n20</title>
<path fill="none" stroke="black" d="M1908.53,-534.25C1921.58,-533.107 1931,-529.357 1931,-523 1931,-518.431 1926.13,-515.208 1918.55,-513.333"/>
<polygon fill="black" stroke="black" points="1918.96,-509.854 1908.53,-511.75 1917.86,-516.768 1918.96,-509.854"/>
<text text-anchor="middle" x="1984" y="-519.4" font-family="Times Roman,serif" font-size="14.00"> static(counter)</text>
</g>
<!-- n20&#45;&gt;n21 -->
<g id="edge74" class="edge"><title>n20&#45;&gt;n21</title>
<path fill="none" stroke="black" d="M1787.09,-509.981C1753.55,-501.322 1711.63,-488.168 1677,-470 1665.51,-463.97 1666.2,-456.427 1654,-452 1595.37,-430.729 1154.53,-444.167 1093,-434 1075.7,-431.142 1057.37,-426.39 1040.55,-421.296"/>
<polygon fill="black" stroke="black" points="1041.43,-417.903 1030.84,-418.268 1039.35,-424.586 1041.43,-417.903"/>
<text text-anchor="middle" x="1755" y="-457.4" font-family="Times Roman,serif" font-size="14.00"> static(hasplacingarea)</text>
</g>
<!-- n21&#45;&gt;n17 -->
<g id="edge42" class="edge"><title>n21&#45;&gt;n17</title>
<path fill="none" stroke="black" stroke-dasharray="5,2" d="M1020.1,-374.88C1047.79,-359.789 1085.22,-340.843 1120,-328 1164.42,-311.597 1215.9,-298.631 1257.12,-289.63"/>
<polygon fill="black" stroke="black" points="1258.06,-293.009 1267.1,-287.485 1256.58,-286.165 1258.06,-293.009"/>
<text text-anchor="middle" x="1180" y="-333.4" font-family="Times Roman,serif" font-size="14.00"> static(reachable)</text>
</g>
<!-- n22 -->
<g id="node22" class="node"><title>n22</title>
<ellipse fill="none" stroke="black" cx="2574" cy="-647" rx="73.0388" ry="31.1127"/>
<text text-anchor="middle" x="2574" y="-652.4" font-family="Times Roman,serif" font-size="14.00">&lt;?_G317&gt;</text>
<text text-anchor="middle" x="2574" y="-634.4" font-family="Times Roman,serif" font-size="14.00">torsoposture</text>
</g>
<!-- n22&#45;&gt;n22 -->
<g id="edge32" class="edge"><title>n22&#45;&gt;n22</title>
<path fill="none" stroke="black" d="M2642.26,-658.108C2655.56,-656.818 2665,-653.115 2665,-647 2665,-642.557 2660.02,-639.387 2652.19,-637.492"/>
<polygon fill="black" stroke="black" points="2652.69,-634.027 2642.26,-635.892 2651.58,-640.938 2652.69,-634.027"/>
<text text-anchor="middle" x="2758" y="-643.4" font-family="Times Roman,serif" font-size="14.00"> static(torsomiddleposture)</text>
</g>
</g>
</svg>
