<?xml version="1.0" encoding="UTF-8" standalone="no"?>
<!DOCTYPE svg PUBLIC "-//W3C//DTD SVG 1.1//EN"
 "http://www.w3.org/Graphics/SVG/1.1/DTD/svg11.dtd">
<!-- Generated by graphviz version 2.26.3 (20100126.1600)
 -->
<!-- Title: Struc Pages: 1 -->
<svg width="4810pt" height="650pt"
 viewBox="0.00 0.00 4810.00 650.00" xmlns="http://www.w3.org/2000/svg" xmlns:xlink="http://www.w3.org/1999/xlink">
<g id="graph1" class="graph" transform="scale(1 1) rotate(0) translate(4 646)">
<title>Struc</title>
<polygon fill="white" stroke="white" points="-4,5 -4,-646 4807,-646 4807,5 -4,5"/>
<!-- n1 -->
<g id="node1" class="node"><title>n1</title>
<ellipse fill="none" stroke="black" cx="572" cy="-611" rx="65.9683" ry="31.1127"/>
<text text-anchor="middle" x="572" y="-616.4" font-family="Times Roman,serif" font-size="14.00">&lt;?_G179&gt;</text>
<text text-anchor="middle" x="572" y="-598.4" font-family="Times Roman,serif" font-size="14.00">table</text>
</g>
<!-- n1&#45;&gt;n1 -->
<g id="edge2" class="edge"><title>n1&#45;&gt;n1</title>
<path fill="none" stroke="black" d="M634.275,-621.46C646.935,-620.321 656,-616.834 656,-611 656,-606.898 651.518,-603.956 644.457,-602.175"/>
<polygon fill="black" stroke="black" points="644.704,-598.67 634.275,-600.54 643.593,-605.582 644.704,-598.67"/>
<text text-anchor="middle" x="700" y="-607.4" font-family="Times Roman,serif" font-size="14.00"> static(table)</text>
</g>
<!-- n3 -->
<g id="node3" class="node"><title>n3</title>
<ellipse fill="none" stroke="black" cx="305" cy="-263" rx="65.9683" ry="31.1127"/>
<text text-anchor="middle" x="305" y="-268.4" font-family="Times Roman,serif" font-size="14.00">&lt;?_G244&gt;</text>
<text text-anchor="middle" x="305" y="-250.4" font-family="Times Roman,serif" font-size="14.00">area</text>
</g>
<!-- n1&#45;&gt;n3 -->
<g id="edge60" class="edge"><title>n1&#45;&gt;n3</title>
<path fill="none" stroke="black" d="M571.653,-579.88C570.651,-514.208 566.863,-365.997 553,-348 530.908,-319.319 440.504,-293.46 375.221,-277.992"/>
<polygon fill="black" stroke="black" points="375.912,-274.559 365.378,-275.692 374.32,-281.375 375.912,-274.559"/>
<text text-anchor="middle" x="667" y="-433.4" font-family="Times Roman,serif" font-size="14.00"> static(hasmanipulationarea)</text>
</g>
<!-- n6 -->
<g id="node6" class="node"><title>n6</title>
<ellipse fill="none" stroke="black" cx="1169" cy="-263" rx="65.9683" ry="31.1127"/>
<text text-anchor="middle" x="1169" y="-268.4" font-family="Times Roman,serif" font-size="14.00">&lt;?_G247&gt;</text>
<text text-anchor="middle" x="1169" y="-250.4" font-family="Times Roman,serif" font-size="14.00">area</text>
</g>
<!-- n1&#45;&gt;n6 -->
<g id="edge72" class="edge"><title>n1&#45;&gt;n6</title>
<path fill="none" stroke="black" d="M637.79,-607.258C795.463,-597.619 1184.72,-569.604 1223,-526 1249.1,-496.274 1232.92,-386.291 1223,-348 1218.61,-331.042 1209.38,-314.336 1199.77,-300.284"/>
<polygon fill="black" stroke="black" points="1202.45,-298.002 1193.79,-291.898 1196.75,-302.07 1202.45,-298.002"/>
<text text-anchor="middle" x="1336" y="-433.4" font-family="Times Roman,serif" font-size="14.00"> static(hasmanipulationarea)</text>
</g>
<!-- n8 -->
<g id="node8" class="node"><title>n8</title>
<ellipse fill="none" stroke="black" cx="964" cy="-379" rx="67.1751" ry="31.1127"/>
<text text-anchor="middle" x="964" y="-384.4" font-family="Times Roman,serif" font-size="14.00">&lt;?_G254&gt;</text>
<text text-anchor="middle" x="964" y="-366.4" font-family="Times Roman,serif" font-size="14.00">placingarea</text>
</g>
<!-- n1&#45;&gt;n8 -->
<g id="edge134" class="edge"><title>n1&#45;&gt;n8</title>
<path fill="none" stroke="black" d="M621.322,-590.164C722.471,-547.34 944.424,-452.858 950,-446 955.945,-438.687 959.551,-429.474 961.695,-420.241"/>
<polygon fill="black" stroke="black" points="965.157,-420.766 963.49,-410.303 958.268,-419.521 965.157,-420.766"/>
<text text-anchor="middle" x="990" y="-491.4" font-family="Times Roman,serif" font-size="14.00"> static(hasplacingarea)</text>
</g>
<!-- n11 -->
<g id="node11" class="node"><title>n11</title>
<ellipse fill="none" stroke="black" cx="1337" cy="-147" rx="65.9683" ry="31.1127"/>
<text text-anchor="middle" x="1337" y="-152.4" font-family="Times Roman,serif" font-size="14.00">&lt;?_G239&gt;</text>
<text text-anchor="middle" x="1337" y="-134.4" font-family="Times Roman,serif" font-size="14.00">area</text>
</g>
<!-- n1&#45;&gt;n11 -->
<g id="edge132" class="edge"><title>n1&#45;&gt;n11</title>
<path fill="none" stroke="black" d="M638.007,-609.261C843.003,-602.993 1455,-577.381 1455,-495 1455,-495 1455,-495 1455,-263 1455,-232.579 1459.85,-219.878 1441,-196 1431.21,-183.599 1417.53,-174.181 1403.3,-167.089"/>
<polygon fill="black" stroke="black" points="1404.46,-163.766 1393.91,-162.756 1401.52,-170.123 1404.46,-163.766"/>
<text text-anchor="middle" x="1565" y="-375.4" font-family="Times Roman,serif" font-size="14.00"> static(haspremanipulationarea)</text>
</g>
<!-- n17 -->
<g id="node17" class="node"><title>n17</title>
<ellipse fill="none" stroke="black" cx="442" cy="-495" rx="65.9683" ry="31.1127"/>
<text text-anchor="middle" x="442" y="-500.4" font-family="Times Roman,serif" font-size="14.00">&lt;?_G110&gt;</text>
<text text-anchor="middle" x="442" y="-482.4" font-family="Times Roman,serif" font-size="14.00">sittingarea</text>
</g>
<!-- n1&#45;&gt;n17 -->
<g id="edge74" class="edge"><title>n1&#45;&gt;n17</title>
<path fill="none" stroke="black" d="M509.653,-600.441C468.374,-592.034 419.599,-578.884 407,-562 400.071,-552.715 402.084,-541.866 407.694,-531.636"/>
<polygon fill="black" stroke="black" points="410.636,-533.532 413.136,-523.236 404.761,-529.726 410.636,-533.532"/>
<text text-anchor="middle" x="482.5" y="-549.4" font-family="Times Roman,serif" font-size="14.00"> static(hassittingarea)</text>
</g>
<!-- n23 -->
<g id="node23" class="node"><title>n23</title>
<ellipse fill="none" stroke="black" cx="152" cy="-147" rx="65.9683" ry="31.1127"/>
<text text-anchor="middle" x="152" y="-152.4" font-family="Times Roman,serif" font-size="14.00">&lt;?_G235&gt;</text>
<text text-anchor="middle" x="152" y="-134.4" font-family="Times Roman,serif" font-size="14.00">area</text>
</g>
<!-- n1&#45;&gt;n23 -->
<g id="edge112" class="edge"><title>n1&#45;&gt;n23</title>
<path fill="none" stroke="black" d="M510.572,-599.512C475.605,-593.215 430.942,-585.581 391,-580 302.937,-567.696 0,-583.918 0,-495 0,-495 0,-495 0,-263 0,-216.245 46.0111,-185.824 87.404,-167.917"/>
<polygon fill="black" stroke="black" points="88.7962,-171.128 96.6945,-164.067 86.1164,-164.662 88.7962,-171.128"/>
<text text-anchor="middle" x="110" y="-375.4" font-family="Times Roman,serif" font-size="14.00"> static(haspremanipulationarea)</text>
</g>
<!-- n33 -->
<g id="node33" class="node"><title>n33</title>
<ellipse fill="none" stroke="black" cx="305" cy="-379" rx="67.1751" ry="31.1127"/>
<text text-anchor="middle" x="305" y="-384.4" font-family="Times Roman,serif" font-size="14.00">&lt;?_G192&gt;</text>
<text text-anchor="middle" x="305" y="-366.4" font-family="Times Roman,serif" font-size="14.00">placingarea</text>
</g>
<!-- n1&#45;&gt;n33 -->
<g id="edge106" class="edge"><title>n1&#45;&gt;n33</title>
<path fill="none" stroke="black" d="M509.45,-600.741C443.528,-589.696 344.192,-572.326 307,-562 263.093,-549.81 236.955,-563.454 211,-526 195.304,-503.351 199.819,-489.185 211,-464 220.523,-442.551 238.429,-424.219 256.079,-410.131"/>
<polygon fill="black" stroke="black" points="258.326,-412.818 264.139,-403.96 254.071,-407.26 258.326,-412.818"/>
<text text-anchor="middle" x="289" y="-491.4" font-family="Times Roman,serif" font-size="14.00"> static(hasplacingarea)</text>
</g>
<!-- n2 -->
<g id="node2" class="node"><title>n2</title>
<ellipse fill="none" stroke="black" cx="1922" cy="-495" rx="65.9683" ry="31.1127"/>
<text text-anchor="middle" x="1922" y="-500.4" font-family="Times Roman,serif" font-size="14.00">&lt;?_G144&gt;</text>
<text text-anchor="middle" x="1922" y="-482.4" font-family="Times Roman,serif" font-size="14.00">table</text>
</g>
<!-- n2&#45;&gt;n2 -->
<g id="edge4" class="edge"><title>n2&#45;&gt;n2</title>
<path fill="none" stroke="black" d="M1984.28,-505.46C1996.93,-504.321 2006,-500.834 2006,-495 2006,-490.898 2001.52,-487.956 1994.46,-486.175"/>
<polygon fill="black" stroke="black" points="1994.7,-482.67 1984.28,-484.54 1993.59,-489.582 1994.7,-482.67"/>
<text text-anchor="middle" x="2059" y="-491.4" font-family="Times Roman,serif" font-size="14.00"> static(counter)</text>
</g>
<!-- n4 -->
<g id="node4" class="node"><title>n4</title>
<ellipse fill="none" stroke="black" cx="2030" cy="-147" rx="65.9683" ry="31.1127"/>
<text text-anchor="middle" x="2030" y="-152.4" font-family="Times Roman,serif" font-size="14.00">&lt;?_G196&gt;</text>
<text text-anchor="middle" x="2030" y="-134.4" font-family="Times Roman,serif" font-size="14.00">area</text>
</g>
<!-- n2&#45;&gt;n4 -->
<g id="edge84" class="edge"><title>n2&#45;&gt;n4</title>
<path fill="none" stroke="black" d="M1986.35,-487.413C2034.64,-477.998 2097.76,-456.954 2130,-410 2143.46,-390.394 2146.74,-216.083 2134,-196 2125.54,-182.658 2112.36,-172.882 2098.2,-165.742"/>
<polygon fill="black" stroke="black" points="2099.34,-162.414 2088.79,-161.42 2096.42,-168.775 2099.34,-162.414"/>
<text text-anchor="middle" x="2251" y="-317.4" font-family="Times Roman,serif" font-size="14.00"> static(haspremanipulationarea)</text>
</g>
<!-- n9 -->
<g id="node9" class="node"><title>n9</title>
<ellipse fill="none" stroke="black" cx="1760" cy="-379" rx="67.1751" ry="31.1127"/>
<text text-anchor="middle" x="1760" y="-384.4" font-family="Times Roman,serif" font-size="14.00">&lt;?_G183&gt;</text>
<text text-anchor="middle" x="1760" y="-366.4" font-family="Times Roman,serif" font-size="14.00">placingarea</text>
</g>
<!-- n2&#45;&gt;n9 -->
<g id="edge100" class="edge"><title>n2&#45;&gt;n9</title>
<path fill="none" stroke="black" d="M1859.14,-484.957C1816.34,-476.689 1765.16,-463.487 1752,-446 1746.31,-438.438 1745.01,-428.978 1745.89,-419.569"/>
<polygon fill="black" stroke="black" points="1749.38,-419.917 1747.6,-409.473 1742.48,-418.747 1749.38,-419.917"/>
<text text-anchor="middle" x="1830" y="-433.4" font-family="Times Roman,serif" font-size="14.00"> static(hasplacingarea)</text>
</g>
<!-- n12 -->
<g id="node12" class="node"><title>n12</title>
<ellipse fill="none" stroke="black" cx="1862" cy="-263" rx="65.9683" ry="31.1127"/>
<text text-anchor="middle" x="1862" y="-268.4" font-family="Times Roman,serif" font-size="14.00">&lt;?_G139&gt;</text>
<text text-anchor="middle" x="1862" y="-250.4" font-family="Times Roman,serif" font-size="14.00">area</text>
</g>
<!-- n2&#45;&gt;n12 -->
<g id="edge78" class="edge"><title>n2&#45;&gt;n12</title>
<path fill="none" stroke="black" d="M1925.69,-464.033C1928.84,-426.382 1929.91,-361.714 1908,-312 1905.91,-307.25 1903.15,-302.672 1900.03,-298.348"/>
<polygon fill="black" stroke="black" points="1902.63,-295.992 1893.65,-290.37 1897.16,-300.365 1902.63,-295.992"/>
<text text-anchor="middle" x="2027" y="-375.4" font-family="Times Roman,serif" font-size="14.00"> static(hasmanipulationarea)</text>
</g>
<!-- n3&#45;&gt;n3 -->
<g id="edge6" class="edge"><title>n3&#45;&gt;n3</title>
<path fill="none" stroke="black" d="M367.275,-273.46C379.935,-272.321 389,-268.834 389,-263 389,-258.898 384.518,-255.956 377.457,-254.175"/>
<polygon fill="black" stroke="black" points="377.704,-250.67 367.275,-252.54 376.593,-257.582 377.704,-250.67"/>
<text text-anchor="middle" x="476" y="-259.4" font-family="Times Roman,serif" font-size="14.00"> static(manipulationarea)</text>
</g>
<!-- n3&#45;&gt;n23 -->
<g id="edge110" class="edge"><title>n3&#45;&gt;n23</title>
<path fill="none" stroke="black" d="M269.899,-236.387C247.643,-219.514 218.699,-197.569 195.059,-179.646"/>
<polygon fill="black" stroke="black" points="197.021,-176.742 186.938,-173.489 192.792,-182.32 197.021,-176.742"/>
<text text-anchor="middle" x="348" y="-201.4" font-family="Times Roman,serif" font-size="14.00"> static(haspremanipulationarea)</text>
</g>
<!-- n4&#45;&gt;n4 -->
<g id="edge8" class="edge"><title>n4&#45;&gt;n4</title>
<path fill="none" stroke="black" d="M2092.28,-157.46C2104.93,-156.321 2114,-152.834 2114,-147 2114,-142.898 2109.52,-139.956 2102.46,-138.175"/>
<polygon fill="black" stroke="black" points="2102.7,-134.67 2092.28,-136.54 2101.59,-141.582 2102.7,-134.67"/>
<text text-anchor="middle" x="2212" y="-143.4" font-family="Times Roman,serif" font-size="14.00"> static(premanipulationarea)</text>
</g>
<!-- n5 -->
<g id="node5" class="node"><title>n5</title>
<ellipse fill="none" stroke="black" cx="1774" cy="-611" rx="67.8823" ry="31.1127"/>
<text text-anchor="middle" x="1774" y="-616.4" font-family="Times Roman,serif" font-size="14.00">&lt;?_G171&gt;</text>
<text text-anchor="middle" x="1774" y="-598.4" font-family="Times Roman,serif" font-size="14.00">armposture</text>
</g>
<!-- n5&#45;&gt;n5 -->
<g id="edge10" class="edge"><title>n5&#45;&gt;n5</title>
<path fill="none" stroke="black" d="M1838.13,-621.426C1850.9,-620.253 1860,-616.777 1860,-611 1860,-606.938 1855.5,-604.014 1848.39,-602.228"/>
<polygon fill="black" stroke="black" points="1848.56,-598.71 1838.13,-600.574 1847.45,-605.621 1848.56,-598.71"/>
<text text-anchor="middle" x="1947" y="-607.4" font-family="Times Roman,serif" font-size="14.00"> static(armtosideposture)</text>
</g>
<!-- n6&#45;&gt;n6 -->
<g id="edge12" class="edge"><title>n6&#45;&gt;n6</title>
<path fill="none" stroke="black" d="M1231.28,-273.46C1243.93,-272.321 1253,-268.834 1253,-263 1253,-258.898 1248.52,-255.956 1241.46,-254.175"/>
<polygon fill="black" stroke="black" points="1241.7,-250.67 1231.28,-252.54 1240.59,-257.582 1241.7,-250.67"/>
<text text-anchor="middle" x="1340" y="-259.4" font-family="Times Roman,serif" font-size="14.00"> static(manipulationarea)</text>
</g>
<!-- n6&#45;&gt;n11 -->
<g id="edge82" class="edge"><title>n6&#45;&gt;n11</title>
<path fill="none" stroke="black" d="M1187.2,-233.129C1196.13,-220.381 1207.81,-206.138 1221,-196 1236.06,-184.423 1254.27,-175.059 1271.75,-167.74"/>
<polygon fill="black" stroke="black" points="1273.38,-170.856 1281.36,-163.883 1270.77,-164.36 1273.38,-170.856"/>
<text text-anchor="middle" x="1331" y="-201.4" font-family="Times Roman,serif" font-size="14.00"> static(haspremanipulationarea)</text>
</g>
<!-- n7 -->
<g id="node7" class="node"><title>n7</title>
<ellipse fill="none" stroke="black" cx="3084" cy="-495" rx="65.9683" ry="31.1127"/>
<text text-anchor="middle" x="3084" y="-500.4" font-family="Times Roman,serif" font-size="14.00">&lt;?_G249&gt;</text>
<text text-anchor="middle" x="3084" y="-482.4" font-family="Times Roman,serif" font-size="14.00">sittingarea</text>
</g>
<!-- n24 -->
<g id="node24" class="node"><title>n24</title>
<ellipse fill="none" stroke="black" cx="2809" cy="-379" rx="67.1751" ry="31.1127"/>
<text text-anchor="middle" x="2809" y="-384.4" font-family="Times Roman,serif" font-size="14.00">&lt;?_G101&gt;</text>
<text text-anchor="middle" x="2809" y="-366.4" font-family="Times Roman,serif" font-size="14.00">placingarea</text>
</g>
<!-- n7&#45;&gt;n24 -->
<g id="edge102" class="edge"><title>n7&#45;&gt;n24</title>
<path fill="none" stroke="black" d="M3035.04,-474.174C3024.9,-470.391 3014.21,-466.772 3004,-464 2955.77,-450.9 2938.69,-466.243 2893,-446 2875.61,-438.294 2858.74,-426.095 2844.74,-414.205"/>
<polygon fill="black" stroke="black" points="2846.67,-411.243 2836.85,-407.277 2842.05,-416.504 2846.67,-411.243"/>
<text text-anchor="middle" x="2971" y="-433.4" font-family="Times Roman,serif" font-size="14.00"> static(hasplacingarea)</text>
</g>
<!-- n25 -->
<g id="node25" class="node"><title>n25</title>
<ellipse fill="none" stroke="black" cx="3144" cy="-379" rx="67.1751" ry="31.1127"/>
<text text-anchor="middle" x="3144" y="-384.4" font-family="Times Roman,serif" font-size="14.00">&lt;?_G251&gt;</text>
<text text-anchor="middle" x="3144" y="-366.4" font-family="Times Roman,serif" font-size="14.00">placingarea</text>
</g>
<!-- n7&#45;&gt;n25 -->
<g id="edge66" class="edge"><title>n7&#45;&gt;n25</title>
<path fill="none" stroke="black" d="M3060.69,-465.77C3053.97,-453.7 3050.1,-439.802 3057,-428 3062.89,-417.929 3071.69,-409.768 3081.47,-403.207"/>
<polygon fill="black" stroke="black" points="3083.55,-406.039 3090.26,-397.846 3079.9,-400.061 3083.55,-406.039"/>
<text text-anchor="middle" x="3135" y="-433.4" font-family="Times Roman,serif" font-size="14.00"> static(hasplacingarea)</text>
</g>
<!-- n8&#45;&gt;n6 -->
<g id="edge62" class="edge"><title>n8&#45;&gt;n6</title>
<path fill="none" stroke="black" d="M1006.48,-354.965C1038.77,-336.689 1083.35,-311.468 1117.65,-292.059"/>
<polygon fill="black" stroke="black" points="1119.6,-294.975 1126.58,-287.004 1116.15,-288.883 1119.6,-294.975"/>
<text text-anchor="middle" x="1139" y="-317.4" font-family="Times Roman,serif" font-size="14.00"> static(reachable)</text>
</g>
<!-- n8&#45;&gt;n8 -->
<g id="edge14" class="edge"><title>n8&#45;&gt;n8</title>
<path fill="none" stroke="black" d="M1027.39,-389.426C1040,-388.253 1049,-384.777 1049,-379 1049,-374.938 1044.55,-372.014 1037.53,-370.228"/>
<polygon fill="black" stroke="black" points="1037.82,-366.729 1027.39,-368.574 1036.69,-373.638 1037.82,-366.729"/>
<text text-anchor="middle" x="1131.5" y="-375.4" font-family="Times Roman,serif" font-size="14.00"> static(placingarearight)</text>
</g>
<!-- n9&#45;&gt;n12 -->
<g id="edge116" class="edge"><title>n9&#45;&gt;n12</title>
<path fill="none" stroke="black" d="M1768.56,-348.234C1772.98,-336.057 1779.32,-322.493 1788,-312 1794.06,-304.675 1801.49,-298.034 1809.29,-292.174"/>
<polygon fill="black" stroke="black" points="1811.7,-294.757 1817.84,-286.127 1807.66,-289.042 1811.7,-294.757"/>
<text text-anchor="middle" x="1848" y="-317.4" font-family="Times Roman,serif" font-size="14.00"> static(reachable)</text>
</g>
<!-- n10 -->
<g id="node10" class="node"><title>n10</title>
<ellipse fill="none" stroke="black" cx="1148" cy="-495" rx="65.9683" ry="31.1127"/>
<text text-anchor="middle" x="1148" y="-500.4" font-family="Times Roman,serif" font-size="14.00">&lt;?_G142&gt;</text>
<text text-anchor="middle" x="1148" y="-482.4" font-family="Times Roman,serif" font-size="14.00">object</text>
</g>
<!-- n10&#45;&gt;n8 -->
<g id="edge88" class="edge"><title>n10&#45;&gt;n8</title>
<path fill="none" stroke="black" d="M1108.53,-470.115C1080.37,-452.362 1042.33,-428.384 1012.35,-409.482"/>
<polygon fill="black" stroke="black" points="1014.05,-406.416 1003.72,-404.044 1010.32,-412.337 1014.05,-406.416"/>
<text text-anchor="middle" x="1097" y="-433.4" font-family="Times Roman,serif" font-size="14.00"> end(on)</text>
</g>
<!-- n10&#45;&gt;n9 -->
<g id="edge76" class="edge"><title>n10&#45;&gt;n9</title>
<path fill="none" stroke="black" d="M1213.07,-488.964C1314.1,-478.618 1514.21,-454.212 1679,-410 1686,-408.122 1693.23,-405.855 1700.36,-403.411"/>
<polygon fill="black" stroke="black" points="1701.73,-406.637 1709.98,-399.989 1699.38,-400.042 1701.73,-406.637"/>
<text text-anchor="middle" x="1621.5" y="-433.4" font-family="Times Roman,serif" font-size="14.00"> init(on)</text>
</g>
<!-- n11&#45;&gt;n11 -->
<g id="edge16" class="edge"><title>n11&#45;&gt;n11</title>
<path fill="none" stroke="black" d="M1399.28,-157.46C1411.93,-156.321 1421,-152.834 1421,-147 1421,-142.898 1416.52,-139.956 1409.46,-138.175"/>
<polygon fill="black" stroke="black" points="1409.7,-134.67 1399.28,-136.54 1408.59,-141.582 1409.7,-134.67"/>
<text text-anchor="middle" x="1519" y="-143.4" font-family="Times Roman,serif" font-size="14.00"> static(premanipulationarea)</text>
</g>
<!-- n12&#45;&gt;n4 -->
<g id="edge124" class="edge"><title>n12&#45;&gt;n4</title>
<path fill="none" stroke="black" d="M1880.2,-233.129C1889.13,-220.381 1900.81,-206.138 1914,-196 1929.06,-184.423 1947.27,-175.059 1964.75,-167.74"/>
<polygon fill="black" stroke="black" points="1966.38,-170.856 1974.36,-163.883 1963.77,-164.36 1966.38,-170.856"/>
<text text-anchor="middle" x="2024" y="-201.4" font-family="Times Roman,serif" font-size="14.00"> static(haspremanipulationarea)</text>
</g>
<!-- n12&#45;&gt;n12 -->
<g id="edge18" class="edge"><title>n12&#45;&gt;n12</title>
<path fill="none" stroke="black" d="M1924.28,-273.46C1936.93,-272.321 1946,-268.834 1946,-263 1946,-258.898 1941.52,-255.956 1934.46,-254.175"/>
<polygon fill="black" stroke="black" points="1934.7,-250.67 1924.28,-252.54 1933.59,-257.582 1934.7,-250.67"/>
<text text-anchor="middle" x="2033" y="-259.4" font-family="Times Roman,serif" font-size="14.00"> static(manipulationarea)</text>
</g>
<!-- n13 -->
<g id="node13" class="node"><title>n13</title>
<ellipse fill="none" stroke="black" cx="3317" cy="-611" rx="65.9683" ry="31.1127"/>
<text text-anchor="middle" x="3317" y="-616.4" font-family="Times Roman,serif" font-size="14.00">&lt;?_G105&gt;</text>
<text text-anchor="middle" x="3317" y="-598.4" font-family="Times Roman,serif" font-size="14.00">area</text>
</g>
<!-- n14 -->
<g id="node14" class="node"><title>n14</title>
<ellipse fill="none" stroke="black" cx="3968" cy="-147" rx="65.9683" ry="31.1127"/>
<text text-anchor="middle" x="3968" y="-152.4" font-family="Times Roman,serif" font-size="14.00">&lt;?_G131&gt;</text>
<text text-anchor="middle" x="3968" y="-134.4" font-family="Times Roman,serif" font-size="14.00">arm</text>
</g>
<!-- n14&#45;&gt;n14 -->
<g id="edge20" class="edge"><title>n14&#45;&gt;n14</title>
<path fill="none" stroke="black" d="M4030.28,-157.46C4042.93,-156.321 4052,-152.834 4052,-147 4052,-142.898 4047.52,-139.956 4040.46,-138.175"/>
<polygon fill="black" stroke="black" points="4040.7,-134.67 4030.28,-136.54 4039.59,-141.582 4040.7,-134.67"/>
<text text-anchor="middle" x="4108.5" y="-152.4" font-family="Times Roman,serif" font-size="14.00"> static(rightarm)</text>
<text text-anchor="middle" x="4108.5" y="-134.4" font-family="Times Roman,serif" font-size="14.00">init(armfree)</text>
</g>
<!-- n27 -->
<g id="node27" class="node"><title>n27</title>
<ellipse fill="none" stroke="black" cx="3846" cy="-31" rx="67.8823" ry="31.1127"/>
<text text-anchor="middle" x="3846" y="-36.4" font-family="Times Roman,serif" font-size="14.00">&lt;?_G163&gt;</text>
<text text-anchor="middle" x="3846" y="-18.4" font-family="Times Roman,serif" font-size="14.00">armposture</text>
</g>
<!-- n14&#45;&gt;n27 -->
<g id="edge58" class="edge"><title>n14&#45;&gt;n27</title>
<path fill="none" stroke="black" d="M3938.47,-118.92C3921.81,-103.079 3900.83,-83.1372 3883.08,-66.2523"/>
<polygon fill="black" stroke="black" points="3885.34,-63.578 3875.68,-59.2238 3880.52,-68.6509 3885.34,-63.578"/>
<text text-anchor="middle" x="3985" y="-85.4" font-family="Times Roman,serif" font-size="14.00"> init(hasarmposture)</text>
</g>
<!-- n15 -->
<g id="node15" class="node"><title>n15</title>
<ellipse fill="none" stroke="black" cx="3474" cy="-611" rx="73.0388" ry="31.1127"/>
<text text-anchor="middle" x="3474" y="-616.4" font-family="Times Roman,serif" font-size="14.00">&lt;?_G191&gt;</text>
<text text-anchor="middle" x="3474" y="-598.4" font-family="Times Roman,serif" font-size="14.00">torsoposture</text>
</g>
<!-- n15&#45;&gt;n15 -->
<g id="edge22" class="edge"><title>n15&#45;&gt;n15</title>
<path fill="none" stroke="black" d="M3543.04,-621.317C3555.93,-620.046 3565,-616.607 3565,-611 3565,-607.057 3560.51,-604.187 3553.37,-602.388"/>
<polygon fill="black" stroke="black" points="3553.48,-598.859 3543.04,-600.683 3552.34,-605.765 3553.48,-598.859"/>
<text text-anchor="middle" x="3654.5" y="-607.4" font-family="Times Roman,serif" font-size="14.00"> static(torsodownposture)</text>
</g>
<!-- n16 -->
<g id="node16" class="node"><title>n16</title>
<ellipse fill="none" stroke="black" cx="4249" cy="-147" rx="65.9683" ry="31.1127"/>
<text text-anchor="middle" x="4249" y="-152.4" font-family="Times Roman,serif" font-size="14.00">&lt;?_G176&gt;</text>
<text text-anchor="middle" x="4249" y="-134.4" font-family="Times Roman,serif" font-size="14.00">torso</text>
</g>
<!-- n20 -->
<g id="node20" class="node"><title>n20</title>
<ellipse fill="none" stroke="black" cx="4249" cy="-31" rx="73.0388" ry="31.1127"/>
<text text-anchor="middle" x="4249" y="-36.4" font-family="Times Roman,serif" font-size="14.00">&lt;?_G189&gt;</text>
<text text-anchor="middle" x="4249" y="-18.4" font-family="Times Roman,serif" font-size="14.00">torsoposture</text>
</g>
<!-- n16&#45;&gt;n20 -->
<g id="edge94" class="edge"><title>n16&#45;&gt;n20</title>
<path fill="none" stroke="black" d="M4249,-115.914C4249,-102.521 4249,-86.6686 4249,-72.3081"/>
<polygon fill="black" stroke="black" points="4252.5,-72.1716 4249,-62.1717 4245.5,-72.1717 4252.5,-72.1716"/>
<text text-anchor="middle" x="4324" y="-85.4" font-family="Times Roman,serif" font-size="14.00"> init(hastorsoposture)</text>
</g>
<!-- n17&#45;&gt;n8 -->
<g id="edge126" class="edge"><title>n17&#45;&gt;n8</title>
<path fill="none" stroke="black" d="M507.081,-489.279C589.051,-481.391 724.776,-465.868 771,-446 782.926,-440.874 782.441,-433.906 794,-428 824.481,-412.427 860.639,-401.127 891.755,-393.33"/>
<polygon fill="black" stroke="black" points="892.777,-396.684 901.667,-390.921 891.123,-389.882 892.777,-396.684"/>
<text text-anchor="middle" x="872" y="-433.4" font-family="Times Roman,serif" font-size="14.00"> static(hasplacingarea)</text>
</g>
<!-- n17&#45;&gt;n33 -->
<g id="edge54" class="edge"><title>n17&#45;&gt;n33</title>
<path fill="none" stroke="black" d="M409.88,-467.803C390.524,-451.415 365.709,-430.403 345.077,-412.934"/>
<polygon fill="black" stroke="black" points="347.287,-410.219 337.394,-406.428 342.764,-415.561 347.287,-410.219"/>
<text text-anchor="middle" x="460" y="-433.4" font-family="Times Roman,serif" font-size="14.00"> static(hasplacingarea)</text>
</g>
<!-- n18 -->
<g id="node18" class="node"><title>n18</title>
<ellipse fill="none" stroke="black" cx="3835" cy="-611" rx="73.0388" ry="31.1127"/>
<text text-anchor="middle" x="3835" y="-616.4" font-family="Times Roman,serif" font-size="14.00">&lt;?_G193&gt;</text>
<text text-anchor="middle" x="3835" y="-598.4" font-family="Times Roman,serif" font-size="14.00">torsoposture</text>
</g>
<!-- n18&#45;&gt;n18 -->
<g id="edge24" class="edge"><title>n18&#45;&gt;n18</title>
<path fill="none" stroke="black" d="M3904.04,-621.317C3916.93,-620.046 3926,-616.607 3926,-611 3926,-607.057 3921.51,-604.187 3914.37,-602.388"/>
<polygon fill="black" stroke="black" points="3914.48,-598.859 3904.04,-600.683 3913.34,-605.765 3914.48,-598.859"/>
<text text-anchor="middle" x="4019" y="-607.4" font-family="Times Roman,serif" font-size="14.00"> static(torsomiddleposture)</text>
</g>
<!-- n19 -->
<g id="node19" class="node"><title>n19</title>
<ellipse fill="none" stroke="black" cx="3333" cy="-263" rx="65.9683" ry="31.1127"/>
<text text-anchor="middle" x="3333" y="-268.4" font-family="Times Roman,serif" font-size="14.00">&lt;?_G241&gt;</text>
<text text-anchor="middle" x="3333" y="-250.4" font-family="Times Roman,serif" font-size="14.00">area</text>
</g>
<!-- n19&#45;&gt;n19 -->
<g id="edge26" class="edge"><title>n19&#45;&gt;n19</title>
<path fill="none" stroke="black" d="M3395.28,-273.46C3407.93,-272.321 3417,-268.834 3417,-263 3417,-258.898 3412.52,-255.956 3405.46,-254.175"/>
<polygon fill="black" stroke="black" points="3405.7,-250.67 3395.28,-252.54 3404.59,-257.582 3405.7,-250.67"/>
<text text-anchor="middle" x="3504" y="-259.4" font-family="Times Roman,serif" font-size="14.00"> static(manipulationarea)</text>
</g>
<!-- n32 -->
<g id="node32" class="node"><title>n32</title>
<ellipse fill="none" stroke="black" cx="3333" cy="-147" rx="65.9683" ry="31.1127"/>
<text text-anchor="middle" x="3333" y="-152.4" font-family="Times Roman,serif" font-size="14.00">&lt;?_G185&gt;</text>
<text text-anchor="middle" x="3333" y="-134.4" font-family="Times Roman,serif" font-size="14.00">area</text>
</g>
<!-- n19&#45;&gt;n32 -->
<g id="edge68" class="edge"><title>n19&#45;&gt;n32</title>
<path fill="none" stroke="black" d="M3333,-231.914C3333,-218.521 3333,-202.669 3333,-188.308"/>
<polygon fill="black" stroke="black" points="3336.5,-188.172 3333,-178.172 3329.5,-188.172 3336.5,-188.172"/>
<text text-anchor="middle" x="3443" y="-201.4" font-family="Times Roman,serif" font-size="14.00"> static(haspremanipulationarea)</text>
</g>
<!-- n20&#45;&gt;n20 -->
<g id="edge28" class="edge"><title>n20&#45;&gt;n20</title>
<path fill="none" stroke="black" d="M4318.04,-41.3168C4330.93,-40.0463 4340,-36.6074 4340,-31 4340,-27.0573 4335.51,-24.1866 4328.37,-22.3881"/>
<polygon fill="black" stroke="black" points="4328.48,-18.8586 4318.04,-20.6832 4327.34,-25.7651 4328.48,-18.8586"/>
<text text-anchor="middle" x="4419" y="-27.4" font-family="Times Roman,serif" font-size="14.00"> static(torsoupposture)</text>
</g>
<!-- n21 -->
<g id="node21" class="node"><title>n21</title>
<ellipse fill="none" stroke="black" cx="316" cy="-611" rx="65.9683" ry="31.1127"/>
<text text-anchor="middle" x="316" y="-616.4" font-family="Times Roman,serif" font-size="14.00">&lt;?_G107&gt;</text>
<text text-anchor="middle" x="316" y="-598.4" font-family="Times Roman,serif" font-size="14.00">guest</text>
</g>
<!-- n21&#45;&gt;n17 -->
<g id="edge56" class="edge"><title>n21&#45;&gt;n17</title>
<path fill="none" stroke="black" d="M309.44,-580.066C308.547,-567.864 309.843,-554.326 317,-544 317.271,-543.609 349.802,-530.863 381.604,-518.47"/>
<polygon fill="black" stroke="black" points="382.922,-521.713 390.97,-514.823 380.381,-515.191 382.922,-521.713"/>
<text text-anchor="middle" x="350.5" y="-549.4" font-family="Times Roman,serif" font-size="14.00"> static(at)</text>
</g>
<!-- n22 -->
<g id="node22" class="node"><title>n22</title>
<ellipse fill="none" stroke="black" cx="3697" cy="-147" rx="65.9683" ry="31.1127"/>
<text text-anchor="middle" x="3697" y="-152.4" font-family="Times Roman,serif" font-size="14.00">&lt;?_G133&gt;</text>
<text text-anchor="middle" x="3697" y="-134.4" font-family="Times Roman,serif" font-size="14.00">arm</text>
</g>
<!-- n22&#45;&gt;n22 -->
<g id="edge30" class="edge"><title>n22&#45;&gt;n22</title>
<path fill="none" stroke="black" d="M3759.28,-157.46C3771.93,-156.321 3781,-152.834 3781,-147 3781,-142.898 3776.52,-139.956 3769.46,-138.175"/>
<polygon fill="black" stroke="black" points="3769.7,-134.67 3759.28,-136.54 3768.59,-141.582 3769.7,-134.67"/>
<text text-anchor="middle" x="3832.5" y="-152.4" font-family="Times Roman,serif" font-size="14.00"> static(leftarm)</text>
<text text-anchor="middle" x="3832.5" y="-134.4" font-family="Times Roman,serif" font-size="14.00">init(armfree)</text>
</g>
<!-- n22&#45;&gt;n27 -->
<g id="edge96" class="edge"><title>n22&#45;&gt;n27</title>
<path fill="none" stroke="black" d="M3717.69,-117.383C3727.43,-104.832 3739.79,-90.6731 3753,-80 3763.41,-71.5897 3775.48,-63.9778 3787.41,-57.3968"/>
<polygon fill="black" stroke="black" points="3789.3,-60.3584 3796.48,-52.5691 3786.01,-54.1797 3789.3,-60.3584"/>
<text text-anchor="middle" x="3824" y="-85.4" font-family="Times Roman,serif" font-size="14.00"> init(hasarmposture)</text>
</g>
<!-- n23&#45;&gt;n23 -->
<g id="edge32" class="edge"><title>n23&#45;&gt;n23</title>
<path fill="none" stroke="black" d="M214.275,-157.46C226.935,-156.321 236,-152.834 236,-147 236,-142.898 231.518,-139.956 224.457,-138.175"/>
<polygon fill="black" stroke="black" points="224.704,-134.67 214.275,-136.54 223.593,-141.582 224.704,-134.67"/>
<text text-anchor="middle" x="334" y="-143.4" font-family="Times Roman,serif" font-size="14.00"> static(premanipulationarea)</text>
</g>
<!-- n24&#45;&gt;n24 -->
<g id="edge34" class="edge"><title>n24&#45;&gt;n24</title>
<path fill="none" stroke="black" d="M2872.39,-389.426C2885,-388.253 2894,-384.777 2894,-379 2894,-374.938 2889.55,-372.014 2882.53,-370.228"/>
<polygon fill="black" stroke="black" points="2882.82,-366.729 2872.39,-368.574 2881.69,-373.638 2882.82,-366.729"/>
<text text-anchor="middle" x="2976.5" y="-375.4" font-family="Times Roman,serif" font-size="14.00"> static(placingarearight)</text>
</g>
<!-- n30 -->
<g id="node30" class="node"><title>n30</title>
<ellipse fill="none" stroke="black" cx="2684" cy="-263" rx="65.9683" ry="31.1127"/>
<text text-anchor="middle" x="2684" y="-268.4" font-family="Times Roman,serif" font-size="14.00">&lt;?_G146&gt;</text>
<text text-anchor="middle" x="2684" y="-250.4" font-family="Times Roman,serif" font-size="14.00">area</text>
</g>
<!-- n24&#45;&gt;n30 -->
<g id="edge64" class="edge"><title>n24&#45;&gt;n30</title>
<path fill="none" stroke="black" d="M2779.06,-351.215C2761.87,-335.263 2740.12,-315.08 2721.77,-298.046"/>
<polygon fill="black" stroke="black" points="2723.84,-295.197 2714.13,-290.96 2719.08,-300.328 2723.84,-295.197"/>
<text text-anchor="middle" x="2813" y="-317.4" font-family="Times Roman,serif" font-size="14.00"> static(reachable)</text>
</g>
<!-- n25&#45;&gt;n19 -->
<g id="edge92" class="edge"><title>n25&#45;&gt;n19</title>
<path fill="none" stroke="black" d="M3184.55,-354.115C3213.67,-336.241 3253.07,-312.057 3283.96,-293.096"/>
<polygon fill="black" stroke="black" points="3286.15,-295.858 3292.85,-287.644 3282.49,-289.892 3286.15,-295.858"/>
<text text-anchor="middle" x="3309" y="-317.4" font-family="Times Roman,serif" font-size="14.00"> static(reachable)</text>
</g>
<!-- n25&#45;&gt;n25 -->
<g id="edge36" class="edge"><title>n25&#45;&gt;n25</title>
<path fill="none" stroke="black" d="M3207.39,-389.426C3220,-388.253 3229,-384.777 3229,-379 3229,-374.938 3224.55,-372.014 3217.53,-370.228"/>
<polygon fill="black" stroke="black" points="3217.82,-366.729 3207.39,-368.574 3216.69,-373.638 3217.82,-366.729"/>
<text text-anchor="middle" x="3306" y="-375.4" font-family="Times Roman,serif" font-size="14.00"> static(placingarealeft)</text>
</g>
<!-- n26 -->
<g id="node26" class="node"><title>n26</title>
<ellipse fill="none" stroke="black" cx="4198" cy="-611" rx="67.8823" ry="31.1127"/>
<text text-anchor="middle" x="4198" y="-616.4" font-family="Times Roman,serif" font-size="14.00">&lt;?_G168&gt;</text>
<text text-anchor="middle" x="4198" y="-598.4" font-family="Times Roman,serif" font-size="14.00">armposture</text>
</g>
<!-- n26&#45;&gt;n26 -->
<g id="edge38" class="edge"><title>n26&#45;&gt;n26</title>
<path fill="none" stroke="black" d="M4262.13,-621.426C4274.9,-620.253 4284,-616.777 4284,-611 4284,-606.938 4279.5,-604.014 4272.39,-602.228"/>
<polygon fill="black" stroke="black" points="4272.56,-598.71 4262.13,-600.574 4271.45,-605.621 4272.56,-598.71"/>
<text text-anchor="middle" x="4368" y="-607.4" font-family="Times Roman,serif" font-size="14.00"> static(armcarryposture)</text>
</g>
<!-- n27&#45;&gt;n27 -->
<g id="edge40" class="edge"><title>n27&#45;&gt;n27</title>
<path fill="none" stroke="black" d="M3910.13,-41.4263C3922.9,-40.2528 3932,-36.7773 3932,-31 3932,-26.9378 3927.5,-24.0136 3920.39,-22.2275"/>
<polygon fill="black" stroke="black" points="3920.56,-18.7102 3910.13,-20.5737 3919.45,-25.6209 3920.56,-18.7102"/>
<text text-anchor="middle" x="4030.5" y="-27.4" font-family="Times Roman,serif" font-size="14.00"> static(armunnamedposture)</text>
</g>
<!-- n28 -->
<g id="node28" class="node"><title>n28</title>
<ellipse fill="none" stroke="black" cx="3061" cy="-611" rx="65.9683" ry="31.1127"/>
<text text-anchor="middle" x="3061" y="-616.4" font-family="Times Roman,serif" font-size="14.00">&lt;?_G174&gt;</text>
<text text-anchor="middle" x="3061" y="-598.4" font-family="Times Roman,serif" font-size="14.00">table</text>
</g>
<!-- n28&#45;&gt;n7 -->
<g id="edge104" class="edge"><title>n28&#45;&gt;n7</title>
<path fill="none" stroke="black" d="M3058.86,-580.009C3058.75,-568.573 3059.43,-555.584 3062,-544 3062.68,-540.957 3063.55,-537.874 3064.56,-534.813"/>
<polygon fill="black" stroke="black" points="3067.93,-535.777 3068.17,-525.185 3061.38,-533.322 3067.93,-535.777"/>
<text text-anchor="middle" x="3137.5" y="-549.4" font-family="Times Roman,serif" font-size="14.00"> static(hassittingarea)</text>
</g>
<!-- n28&#45;&gt;n19 -->
<g id="edge86" class="edge"><title>n28&#45;&gt;n19</title>
<path fill="none" stroke="black" d="M3122.7,-599.565C3214.75,-581.885 3379.12,-547.696 3396,-526 3405.82,-513.375 3404.1,-393.491 3392,-348 3387.33,-330.441 3377.14,-313.488 3366.52,-299.403"/>
<polygon fill="black" stroke="black" points="3369.19,-297.145 3360.25,-291.459 3363.7,-301.479 3369.19,-297.145"/>
<text text-anchor="middle" x="3501" y="-433.4" font-family="Times Roman,serif" font-size="14.00"> static(hasmanipulationarea)</text>
</g>
<!-- n28&#45;&gt;n24 -->
<g id="edge128" class="edge"><title>n28&#45;&gt;n24</title>
<path fill="none" stroke="black" d="M2998.31,-601.18C2951.58,-590.574 2889.73,-569.018 2853,-526 2823.95,-491.975 2843.98,-470.5 2830,-428 2829.03,-425.062 2827.96,-422.055 2826.83,-419.049"/>
<polygon fill="black" stroke="black" points="2829.99,-417.534 2823.05,-409.529 2823.49,-420.115 2829.99,-417.534"/>
<text text-anchor="middle" x="2931" y="-491.4" font-family="Times Roman,serif" font-size="14.00"> static(hasplacingarea)</text>
</g>
<!-- n28&#45;&gt;n25 -->
<g id="edge98" class="edge"><title>n28&#45;&gt;n25</title>
<path fill="none" stroke="black" d="M3122.16,-598.936C3159.38,-590.211 3201.86,-577.296 3213,-562 3248.06,-513.859 3240.32,-480.917 3213,-428 3209.12,-420.493 3203.51,-413.887 3197.13,-408.155"/>
<polygon fill="black" stroke="black" points="3199.32,-405.422 3189.35,-401.826 3194.9,-410.852 3199.32,-405.422"/>
<text text-anchor="middle" x="3314" y="-491.4" font-family="Times Roman,serif" font-size="14.00"> static(hasplacingarea)</text>
</g>
<!-- n28&#45;&gt;n28 -->
<g id="edge42" class="edge"><title>n28&#45;&gt;n28</title>
<path fill="none" stroke="black" d="M3123.28,-621.46C3135.93,-620.321 3145,-616.834 3145,-611 3145,-606.898 3140.52,-603.956 3133.46,-602.175"/>
<polygon fill="black" stroke="black" points="3133.7,-598.67 3123.28,-600.54 3132.59,-605.582 3133.7,-598.67"/>
<text text-anchor="middle" x="3189" y="-607.4" font-family="Times Roman,serif" font-size="14.00"> static(table)</text>
</g>
<!-- n29 -->
<g id="node29" class="node"><title>n29</title>
<ellipse fill="none" stroke="black" cx="2684" cy="-147" rx="65.9683" ry="31.1127"/>
<text text-anchor="middle" x="2684" y="-152.4" font-family="Times Roman,serif" font-size="14.00">&lt;?_G105&gt;</text>
<text text-anchor="middle" x="2684" y="-134.4" font-family="Times Roman,serif" font-size="14.00">area</text>
</g>
<!-- n28&#45;&gt;n29 -->
<g id="edge122" class="edge"><title>n28&#45;&gt;n29</title>
<path fill="none" stroke="black" d="M2995.37,-606.626C2825.22,-594.41 2383,-556.725 2383,-495 2383,-495 2383,-495 2383,-263 2383,-214.13 2522.89,-177.981 2611.94,-159.92"/>
<polygon fill="black" stroke="black" points="2612.88,-163.303 2622,-157.913 2611.51,-156.438 2612.88,-163.303"/>
<text text-anchor="middle" x="2493" y="-375.4" font-family="Times Roman,serif" font-size="14.00"> static(haspremanipulationarea)</text>
</g>
<!-- n28&#45;&gt;n30 -->
<g id="edge90" class="edge"><title>n28&#45;&gt;n30</title>
<path fill="none" stroke="black" d="M2999.74,-598.896C2961.07,-590.434 2910.41,-577.827 2867,-562 2756.07,-521.554 2690.67,-546.071 2628,-446 2599.47,-400.448 2629.36,-339.393 2655.23,-300.617"/>
<polygon fill="black" stroke="black" points="2658.22,-302.441 2661,-292.218 2652.45,-298.476 2658.22,-302.441"/>
<text text-anchor="middle" x="2727" y="-433.4" font-family="Times Roman,serif" font-size="14.00"> static(hasmanipulationarea)</text>
</g>
<!-- n28&#45;&gt;n32 -->
<g id="edge130" class="edge"><title>n28&#45;&gt;n32</title>
<path fill="none" stroke="black" d="M3123.19,-600.362C3199.37,-587.297 3320.96,-566.329 3342,-562 3468.18,-536.034 3624,-623.822 3624,-495 3624,-495 3624,-495 3624,-263 3624,-220.888 3594.81,-214.552 3557,-196 3510.32,-173.093 3452.96,-160.805 3407.97,-154.264"/>
<polygon fill="black" stroke="black" points="3408.37,-150.786 3397.98,-152.876 3407.41,-157.719 3408.37,-150.786"/>
<text text-anchor="middle" x="3734" y="-375.4" font-family="Times Roman,serif" font-size="14.00"> static(haspremanipulationarea)</text>
</g>
<!-- n29&#45;&gt;n29 -->
<g id="edge44" class="edge"><title>n29&#45;&gt;n29</title>
<path fill="none" stroke="black" d="M2746.28,-157.46C2758.93,-156.321 2768,-152.834 2768,-147 2768,-142.898 2763.52,-139.956 2756.46,-138.175"/>
<polygon fill="black" stroke="black" points="2756.7,-134.67 2746.28,-136.54 2755.59,-141.582 2756.7,-134.67"/>
<text text-anchor="middle" x="2866" y="-143.4" font-family="Times Roman,serif" font-size="14.00"> static(premanipulationarea)</text>
</g>
<!-- n30&#45;&gt;n29 -->
<g id="edge80" class="edge"><title>n30&#45;&gt;n29</title>
<path fill="none" stroke="black" d="M2684,-231.914C2684,-218.521 2684,-202.669 2684,-188.308"/>
<polygon fill="black" stroke="black" points="2687.5,-188.172 2684,-178.172 2680.5,-188.172 2687.5,-188.172"/>
<text text-anchor="middle" x="2794" y="-201.4" font-family="Times Roman,serif" font-size="14.00"> static(haspremanipulationarea)</text>
</g>
<!-- n30&#45;&gt;n30 -->
<g id="edge46" class="edge"><title>n30&#45;&gt;n30</title>
<path fill="none" stroke="black" d="M2746.28,-273.46C2758.93,-272.321 2768,-268.834 2768,-263 2768,-258.898 2763.52,-255.956 2756.46,-254.175"/>
<polygon fill="black" stroke="black" points="2756.7,-250.67 2746.28,-252.54 2755.59,-257.582 2756.7,-250.67"/>
<text text-anchor="middle" x="2855" y="-259.4" font-family="Times Roman,serif" font-size="14.00"> static(manipulationarea)</text>
</g>
<!-- n31 -->
<g id="node31" class="node"><title>n31</title>
<ellipse fill="none" stroke="black" cx="3895" cy="-263" rx="65.9683" ry="31.1127"/>
<text text-anchor="middle" x="3895" y="-268.4" font-family="Times Roman,serif" font-size="14.00">&lt;?_G137&gt;</text>
<text text-anchor="middle" x="3895" y="-250.4" font-family="Times Roman,serif" font-size="14.00">robot</text>
</g>
<!-- n31&#45;&gt;n14 -->
<g id="edge108" class="edge"><title>n31&#45;&gt;n14</title>
<path fill="none" stroke="black" d="M3919.51,-234.181C3924.56,-227.72 3929.65,-220.77 3934,-214 3939.55,-205.357 3944.9,-195.691 3949.66,-186.45"/>
<polygon fill="black" stroke="black" points="3952.84,-187.912 3954.19,-177.404 3946.58,-184.774 3952.84,-187.912"/>
<text text-anchor="middle" x="3996" y="-201.4" font-family="Times Roman,serif" font-size="14.00"> static(hasarm)</text>
</g>
<!-- n31&#45;&gt;n16 -->
<g id="edge120" class="edge"><title>n31&#45;&gt;n16</title>
<path fill="none" stroke="black" d="M3952.17,-247.327C4008.93,-231.357 4098.2,-205.14 4174,-178 4179.44,-176.053 4185.06,-173.934 4190.66,-171.749"/>
<polygon fill="black" stroke="black" points="4192.04,-174.968 4200.04,-168.027 4189.46,-168.461 4192.04,-174.968"/>
<text text-anchor="middle" x="4177" y="-201.4" font-family="Times Roman,serif" font-size="14.00"> static(hastorso)</text>
</g>
<!-- n31&#45;&gt;n22 -->
<g id="edge70" class="edge"><title>n31&#45;&gt;n22</title>
<path fill="none" stroke="black" d="M3856.24,-237.877C3836.08,-225.028 3810.93,-209.331 3788,-196 3775.89,-188.96 3762.71,-181.657 3750.23,-174.907"/>
<polygon fill="black" stroke="black" points="3751.76,-171.755 3741.29,-170.101 3748.44,-177.92 3751.76,-171.755"/>
<text text-anchor="middle" x="3869" y="-201.4" font-family="Times Roman,serif" font-size="14.00"> static(hasarm)</text>
</g>
<!-- n31&#45;&gt;n29 -->
<g id="edge118" class="edge"><title>n31&#45;&gt;n29</title>
<path fill="none" stroke="black" d="M3836.18,-248.744C3769.07,-233.085 3655.82,-208.505 3557,-196 3537.34,-193.512 2968.73,-162.471 2759.94,-151.121"/>
<polygon fill="black" stroke="black" points="2759.85,-147.611 2749.67,-150.563 2759.47,-154.601 2759.85,-147.611"/>
<text text-anchor="middle" x="3713.5" y="-201.4" font-family="Times Roman,serif" font-size="14.00"> init(robotat)</text>
</g>
<!-- n32&#45;&gt;n32 -->
<g id="edge48" class="edge"><title>n32&#45;&gt;n32</title>
<path fill="none" stroke="black" d="M3395.28,-157.46C3407.93,-156.321 3417,-152.834 3417,-147 3417,-142.898 3412.52,-139.956 3405.46,-138.175"/>
<polygon fill="black" stroke="black" points="3405.7,-134.67 3395.28,-136.54 3404.59,-141.582 3405.7,-134.67"/>
<text text-anchor="middle" x="3515" y="-143.4" font-family="Times Roman,serif" font-size="14.00"> static(premanipulationarea)</text>
</g>
<!-- n33&#45;&gt;n3 -->
<g id="edge114" class="edge"><title>n33&#45;&gt;n3</title>
<path fill="none" stroke="black" d="M305,-347.914C305,-334.521 305,-318.669 305,-304.308"/>
<polygon fill="black" stroke="black" points="308.5,-304.172 305,-294.172 301.5,-304.172 308.5,-304.172"/>
<text text-anchor="middle" x="365" y="-317.4" font-family="Times Roman,serif" font-size="14.00"> static(reachable)</text>
</g>
<!-- n33&#45;&gt;n33 -->
<g id="edge50" class="edge"><title>n33&#45;&gt;n33</title>
<path fill="none" stroke="black" d="M368.389,-389.426C381.004,-388.253 390,-384.777 390,-379 390,-374.938 385.553,-372.014 378.527,-370.228"/>
<polygon fill="black" stroke="black" points="378.822,-366.729 368.389,-368.574 377.695,-373.638 378.822,-366.729"/>
<text text-anchor="middle" x="467" y="-375.4" font-family="Times Roman,serif" font-size="14.00"> static(placingarealeft)</text>
</g>
<!-- n34 -->
<g id="node34" class="node"><title>n34</title>
<ellipse fill="none" stroke="black" cx="4538" cy="-611" rx="67.8823" ry="31.1127"/>
<text text-anchor="middle" x="4538" y="-616.4" font-family="Times Roman,serif" font-size="14.00">&lt;?_G167&gt;</text>
<text text-anchor="middle" x="4538" y="-598.4" font-family="Times Roman,serif" font-size="14.00">armposture</text>
</g>
<!-- n34&#45;&gt;n34 -->
<g id="edge52" class="edge"><title>n34&#45;&gt;n34</title>
<path fill="none" stroke="black" d="M4602.13,-621.426C4614.9,-620.253 4624,-616.777 4624,-611 4624,-606.938 4619.5,-604.014 4612.39,-602.228"/>
<polygon fill="black" stroke="black" points="4612.56,-598.71 4602.13,-600.574 4611.45,-605.621 4612.56,-598.71"/>
<text text-anchor="middle" x="4713" y="-607.4" font-family="Times Roman,serif" font-size="14.00"> static(armtuckedposture)</text>
</g>
</g>
</svg>
