<?xml version="1.0" encoding="UTF-8" standalone="no"?>
<!DOCTYPE svg PUBLIC "-//W3C//DTD SVG 1.1//EN"
 "http://www.w3.org/Graphics/SVG/1.1/DTD/svg11.dtd">
<!-- Generated by graphviz version 2.26.3 (20100126.1600)
 -->
<!-- Title: Struc Pages: 1 -->
<svg width="5530pt" height="534pt"
 viewBox="0.00 0.00 5530.00 534.00" xmlns="http://www.w3.org/2000/svg" xmlns:xlink="http://www.w3.org/1999/xlink">
<g id="graph1" class="graph" transform="scale(1 1) rotate(0) translate(4 530)">
<title>Struc</title>
<polygon fill="white" stroke="white" points="-4,5 -4,-530 5527,-530 5527,5 -4,5"/>
<!-- n1 -->
<g id="node1" class="node"><title>n1</title>
<ellipse fill="none" stroke="black" cx="743" cy="-495" rx="65.9683" ry="31.1127"/>
<text text-anchor="middle" x="743" y="-500.4" font-family="Times Roman,serif" font-size="14.00">&lt;?_G184&gt;</text>
<text text-anchor="middle" x="743" y="-482.4" font-family="Times Roman,serif" font-size="14.00">table</text>
</g>
<!-- n1&#45;&gt;n1 -->
<g id="edge2" class="edge"><title>n1&#45;&gt;n1</title>
<path fill="none" stroke="black" d="M805.275,-505.46C817.935,-504.321 827,-500.834 827,-495 827,-490.898 822.518,-487.956 815.457,-486.175"/>
<polygon fill="black" stroke="black" points="815.704,-482.67 805.275,-484.54 814.593,-489.582 815.704,-482.67"/>
<text text-anchor="middle" x="871" y="-491.4" font-family="Times Roman,serif" font-size="14.00"> static(table)</text>
</g>
<!-- n3 -->
<g id="node3" class="node"><title>n3</title>
<ellipse fill="none" stroke="black" cx="994" cy="-147" rx="65.9683" ry="31.1127"/>
<text text-anchor="middle" x="994" y="-152.4" font-family="Times Roman,serif" font-size="14.00">&lt;?_G234&gt;</text>
<text text-anchor="middle" x="994" y="-134.4" font-family="Times Roman,serif" font-size="14.00">area</text>
</g>
<!-- n1&#45;&gt;n3 -->
<g id="edge64" class="edge"><title>n1&#45;&gt;n3</title>
<path fill="none" stroke="black" d="M754.551,-464.409C756.566,-458.366 758.495,-452.028 760,-446 767.302,-416.757 759.052,-332.659 781,-312 811.722,-283.083 939.186,-322.819 970,-294 998.204,-267.622 1001.67,-221.995 999.661,-188.554"/>
<polygon fill="black" stroke="black" points="1003.12,-187.858 998.841,-178.164 996.139,-188.409 1003.12,-187.858"/>
<text text-anchor="middle" x="880" y="-317.4" font-family="Times Roman,serif" font-size="14.00"> static(hasmanipulationarea)</text>
</g>
<!-- n6 -->
<g id="node6" class="node"><title>n6</title>
<ellipse fill="none" stroke="black" cx="248" cy="-147" rx="65.9683" ry="31.1127"/>
<text text-anchor="middle" x="248" y="-152.4" font-family="Times Roman,serif" font-size="14.00">&lt;?_G237&gt;</text>
<text text-anchor="middle" x="248" y="-134.4" font-family="Times Roman,serif" font-size="14.00">area</text>
</g>
<!-- n1&#45;&gt;n6 -->
<g id="edge78" class="edge"><title>n1&#45;&gt;n6</title>
<path fill="none" stroke="black" d="M682.065,-482.622C565.314,-457.589 317.03,-397.553 265,-330 233.924,-289.654 234.99,-228.483 240.198,-188.137"/>
<polygon fill="black" stroke="black" points="243.682,-188.497 241.634,-178.102 236.753,-187.505 243.682,-188.497"/>
<text text-anchor="middle" x="364" y="-317.4" font-family="Times Roman,serif" font-size="14.00"> static(hasmanipulationarea)</text>
</g>
<!-- n9 -->
<g id="node9" class="node"><title>n9</title>
<ellipse fill="none" stroke="black" cx="460" cy="-263" rx="67.1751" ry="31.1127"/>
<text text-anchor="middle" x="460" y="-268.4" font-family="Times Roman,serif" font-size="14.00">&lt;?_G245&gt;</text>
<text text-anchor="middle" x="460" y="-250.4" font-family="Times Roman,serif" font-size="14.00">placingarea</text>
</g>
<!-- n1&#45;&gt;n9 -->
<g id="edge140" class="edge"><title>n1&#45;&gt;n9</title>
<path fill="none" stroke="black" d="M687.911,-477.779C624.866,-454.926 524.022,-408.091 475,-330 470.119,-322.225 466.817,-313.064 464.586,-304.055"/>
<polygon fill="black" stroke="black" points="467.964,-303.104 462.495,-294.03 461.111,-304.534 467.964,-303.104"/>
<text text-anchor="middle" x="633" y="-375.4" font-family="Times Roman,serif" font-size="14.00"> static(hasplacingarea)</text>
</g>
<!-- n12 -->
<g id="node12" class="node"><title>n12</title>
<ellipse fill="none" stroke="black" cx="71" cy="-31" rx="65.9683" ry="31.1127"/>
<text text-anchor="middle" x="71" y="-36.4" font-family="Times Roman,serif" font-size="14.00">&lt;?_G229&gt;</text>
<text text-anchor="middle" x="71" y="-18.4" font-family="Times Roman,serif" font-size="14.00">area</text>
</g>
<!-- n1&#45;&gt;n12 -->
<g id="edge138" class="edge"><title>n1&#45;&gt;n12</title>
<path fill="none" stroke="black" d="M677.39,-491.622C495.816,-481.405 0,-447.256 0,-379 0,-379 0,-379 0,-147 0,-117.06 17.419,-88.3205 35.0011,-66.9374"/>
<polygon fill="black" stroke="black" points="37.8569,-68.9839 41.7117,-59.1152 32.5441,-64.4261 37.8569,-68.9839"/>
<text text-anchor="middle" x="110" y="-259.4" font-family="Times Roman,serif" font-size="14.00"> static(haspremanipulationarea)</text>
</g>
<!-- n18 -->
<g id="node18" class="node"><title>n18</title>
<ellipse fill="none" stroke="black" cx="890" cy="-379" rx="65.9683" ry="31.1127"/>
<text text-anchor="middle" x="890" y="-384.4" font-family="Times Roman,serif" font-size="14.00">&lt;?_G255&gt;</text>
<text text-anchor="middle" x="890" y="-366.4" font-family="Times Roman,serif" font-size="14.00">sittingarea</text>
</g>
<!-- n1&#45;&gt;n18 -->
<g id="edge80" class="edge"><title>n1&#45;&gt;n18</title>
<path fill="none" stroke="black" d="M774.002,-467.44C791.21,-452.26 810.925,-435.093 820,-428 827.547,-422.102 835.74,-416.061 843.774,-410.326"/>
<polygon fill="black" stroke="black" points="845.904,-413.106 852.053,-404.478 841.866,-407.388 845.904,-413.106"/>
<text text-anchor="middle" x="895.5" y="-433.4" font-family="Times Roman,serif" font-size="14.00"> static(hassittingarea)</text>
</g>
<!-- n24 -->
<g id="node24" class="node"><title>n24</title>
<ellipse fill="none" stroke="black" cx="808" cy="-31" rx="65.9683" ry="31.1127"/>
<text text-anchor="middle" x="808" y="-36.4" font-family="Times Roman,serif" font-size="14.00">&lt;?_G225&gt;</text>
<text text-anchor="middle" x="808" y="-18.4" font-family="Times Roman,serif" font-size="14.00">area</text>
</g>
<!-- n1&#45;&gt;n24 -->
<g id="edge116" class="edge"><title>n1&#45;&gt;n24</title>
<path fill="none" stroke="black" d="M744.238,-463.988C745.064,-440.627 746,-407.808 746,-379 746,-379 746,-379 746,-147 746,-118.173 761.077,-89.5678 776.361,-67.9763"/>
<polygon fill="black" stroke="black" points="779.3,-69.8883 782.424,-59.7645 773.669,-65.7305 779.3,-69.8883"/>
<text text-anchor="middle" x="856" y="-259.4" font-family="Times Roman,serif" font-size="14.00"> static(haspremanipulationarea)</text>
</g>
<!-- n34 -->
<g id="node34" class="node"><title>n34</title>
<ellipse fill="none" stroke="black" cx="1110" cy="-263" rx="67.1751" ry="31.1127"/>
<text text-anchor="middle" x="1110" y="-268.4" font-family="Times Roman,serif" font-size="14.00">&lt;?_G247&gt;</text>
<text text-anchor="middle" x="1110" y="-250.4" font-family="Times Roman,serif" font-size="14.00">placingarea</text>
</g>
<!-- n1&#45;&gt;n34 -->
<g id="edge112" class="edge"><title>n1&#45;&gt;n34</title>
<path fill="none" stroke="black" d="M804.903,-483.844C839.826,-477.69 884.293,-470.085 924,-464 982.962,-454.964 999.614,-462.277 1057,-446 1094.9,-435.25 1111.96,-439.565 1138,-410 1167.64,-376.347 1179.77,-353.17 1162,-312 1159.67,-306.601 1156.42,-301.522 1152.67,-296.828"/>
<polygon fill="black" stroke="black" points="1155.23,-294.44 1145.96,-289.306 1150,-299.099 1155.23,-294.44"/>
<text text-anchor="middle" x="1249" y="-375.4" font-family="Times Roman,serif" font-size="14.00"> static(hasplacingarea)</text>
</g>
<!-- n2 -->
<g id="node2" class="node"><title>n2</title>
<ellipse fill="none" stroke="black" cx="1678" cy="-379" rx="65.9683" ry="31.1127"/>
<text text-anchor="middle" x="1678" y="-384.4" font-family="Times Roman,serif" font-size="14.00">&lt;?_G171&gt;</text>
<text text-anchor="middle" x="1678" y="-366.4" font-family="Times Roman,serif" font-size="14.00">table</text>
</g>
<!-- n2&#45;&gt;n2 -->
<g id="edge4" class="edge"><title>n2&#45;&gt;n2</title>
<path fill="none" stroke="black" d="M1740.28,-389.46C1752.93,-388.321 1762,-384.834 1762,-379 1762,-374.898 1757.52,-371.956 1750.46,-370.175"/>
<polygon fill="black" stroke="black" points="1750.7,-366.67 1740.28,-368.54 1749.59,-373.582 1750.7,-366.67"/>
<text text-anchor="middle" x="1815" y="-375.4" font-family="Times Roman,serif" font-size="14.00"> static(counter)</text>
</g>
<!-- n4 -->
<g id="node4" class="node"><title>n4</title>
<ellipse fill="none" stroke="black" cx="1859" cy="-31" rx="65.9683" ry="31.1127"/>
<text text-anchor="middle" x="1859" y="-36.4" font-family="Times Roman,serif" font-size="14.00">&lt;?_G231&gt;</text>
<text text-anchor="middle" x="1859" y="-18.4" font-family="Times Roman,serif" font-size="14.00">area</text>
</g>
<!-- n2&#45;&gt;n4 -->
<g id="edge92" class="edge"><title>n2&#45;&gt;n4</title>
<path fill="none" stroke="black" d="M1741.82,-370.351C1787.95,-360.397 1847.19,-339.145 1877,-294 1921.72,-226.265 1895.84,-126.156 1875.72,-71.0376"/>
<polygon fill="black" stroke="black" points="1878.97,-69.7397 1872.17,-61.6128 1872.42,-72.2048 1878.97,-69.7397"/>
<text text-anchor="middle" x="2012" y="-201.4" font-family="Times Roman,serif" font-size="14.00"> static(haspremanipulationarea)</text>
</g>
<!-- n10 -->
<g id="node10" class="node"><title>n10</title>
<ellipse fill="none" stroke="black" cx="1455" cy="-263" rx="67.1751" ry="31.1127"/>
<text text-anchor="middle" x="1455" y="-268.4" font-family="Times Roman,serif" font-size="14.00">&lt;?_G238&gt;</text>
<text text-anchor="middle" x="1455" y="-250.4" font-family="Times Roman,serif" font-size="14.00">placingarea</text>
</g>
<!-- n2&#45;&gt;n10 -->
<g id="edge106" class="edge"><title>n2&#45;&gt;n10</title>
<path fill="none" stroke="black" d="M1630.16,-357.344C1621.26,-353.856 1611.94,-350.557 1603,-348 1556.21,-334.62 1535.19,-357.431 1495,-330 1485.05,-323.208 1477.18,-313.047 1471.15,-302.679"/>
<polygon fill="black" stroke="black" points="1474.11,-300.781 1466.33,-293.594 1467.93,-304.066 1474.11,-300.781"/>
<text text-anchor="middle" x="1573" y="-317.4" font-family="Times Roman,serif" font-size="14.00"> static(hasplacingarea)</text>
</g>
<!-- n13 -->
<g id="node13" class="node"><title>n13</title>
<ellipse fill="none" stroke="black" cx="1605" cy="-147" rx="65.9683" ry="31.1127"/>
<text text-anchor="middle" x="1605" y="-152.4" font-family="Times Roman,serif" font-size="14.00">&lt;?_G230&gt;</text>
<text text-anchor="middle" x="1605" y="-134.4" font-family="Times Roman,serif" font-size="14.00">area</text>
</g>
<!-- n2&#45;&gt;n13 -->
<g id="edge86" class="edge"><title>n2&#45;&gt;n13</title>
<path fill="none" stroke="black" d="M1678.95,-347.895C1678.89,-310.106 1674.82,-245.301 1651,-196 1648.74,-191.327 1645.88,-186.798 1642.69,-182.504"/>
<polygon fill="black" stroke="black" points="1645.26,-180.111 1636.23,-174.562 1639.83,-184.529 1645.26,-180.111"/>
<text text-anchor="middle" x="1775" y="-259.4" font-family="Times Roman,serif" font-size="14.00"> static(hasmanipulationarea)</text>
</g>
<!-- n3&#45;&gt;n3 -->
<g id="edge6" class="edge"><title>n3&#45;&gt;n3</title>
<path fill="none" stroke="black" d="M1056.28,-157.46C1068.93,-156.321 1078,-152.834 1078,-147 1078,-142.898 1073.52,-139.956 1066.46,-138.175"/>
<polygon fill="black" stroke="black" points="1066.7,-134.67 1056.28,-136.54 1065.59,-141.582 1066.7,-134.67"/>
<text text-anchor="middle" x="1165" y="-143.4" font-family="Times Roman,serif" font-size="14.00"> static(manipulationarea)</text>
</g>
<!-- n3&#45;&gt;n24 -->
<g id="edge114" class="edge"><title>n3&#45;&gt;n24</title>
<path fill="none" stroke="black" d="M954.098,-122.115C925.535,-104.301 886.922,-80.2204 856.566,-61.2887"/>
<polygon fill="black" stroke="black" points="858.173,-58.1658 847.836,-55.8438 854.469,-64.1054 858.173,-58.1658"/>
<text text-anchor="middle" x="1023" y="-85.4" font-family="Times Roman,serif" font-size="14.00"> static(haspremanipulationarea)</text>
</g>
<!-- n4&#45;&gt;n4 -->
<g id="edge8" class="edge"><title>n4&#45;&gt;n4</title>
<path fill="none" stroke="black" d="M1921.28,-41.4602C1933.93,-40.3207 1943,-36.834 1943,-31 1943,-26.898 1938.52,-23.9564 1931.46,-22.1753"/>
<polygon fill="black" stroke="black" points="1931.7,-18.6702 1921.28,-20.5398 1930.59,-25.5816 1931.7,-18.6702"/>
<text text-anchor="middle" x="2041" y="-27.4" font-family="Times Roman,serif" font-size="14.00"> static(premanipulationarea)</text>
</g>
<!-- n5 -->
<g id="node5" class="node"><title>n5</title>
<ellipse fill="none" stroke="black" cx="1885" cy="-495" rx="67.8823" ry="31.1127"/>
<text text-anchor="middle" x="1885" y="-500.4" font-family="Times Roman,serif" font-size="14.00">&lt;?_G302&gt;</text>
<text text-anchor="middle" x="1885" y="-482.4" font-family="Times Roman,serif" font-size="14.00">armposture</text>
</g>
<!-- n5&#45;&gt;n5 -->
<g id="edge10" class="edge"><title>n5&#45;&gt;n5</title>
<path fill="none" stroke="black" d="M1949.13,-505.426C1961.9,-504.253 1971,-500.777 1971,-495 1971,-490.938 1966.5,-488.014 1959.39,-486.228"/>
<polygon fill="black" stroke="black" points="1959.56,-482.71 1949.13,-484.574 1958.45,-489.621 1959.56,-482.71"/>
<text text-anchor="middle" x="2060" y="-491.4" font-family="Times Roman,serif" font-size="14.00"> static(armtuckedposture)</text>
</g>
<!-- n6&#45;&gt;n6 -->
<g id="edge12" class="edge"><title>n6&#45;&gt;n6</title>
<path fill="none" stroke="black" d="M310.275,-157.46C322.935,-156.321 332,-152.834 332,-147 332,-142.898 327.518,-139.956 320.457,-138.175"/>
<polygon fill="black" stroke="black" points="320.704,-134.67 310.275,-136.54 319.593,-141.582 320.704,-134.67"/>
<text text-anchor="middle" x="419" y="-143.4" font-family="Times Roman,serif" font-size="14.00"> static(manipulationarea)</text>
</g>
<!-- n6&#45;&gt;n12 -->
<g id="edge90" class="edge"><title>n6&#45;&gt;n12</title>
<path fill="none" stroke="black" d="M209.157,-121.543C182.32,-103.955 146.476,-80.4642 118.023,-61.8172"/>
<polygon fill="black" stroke="black" points="119.731,-58.7517 109.448,-56.1976 115.893,-64.6064 119.731,-58.7517"/>
<text text-anchor="middle" x="281" y="-85.4" font-family="Times Roman,serif" font-size="14.00"> static(haspremanipulationarea)</text>
</g>
<!-- n7 -->
<g id="node7" class="node"><title>n7</title>
<ellipse fill="none" stroke="black" cx="2891" cy="-379" rx="65.9683" ry="31.1127"/>
<text text-anchor="middle" x="2891" y="-384.4" font-family="Times Roman,serif" font-size="14.00">&lt;?_G253&gt;</text>
<text text-anchor="middle" x="2891" y="-366.4" font-family="Times Roman,serif" font-size="14.00">sittingarea</text>
</g>
<!-- n25 -->
<g id="node25" class="node"><title>n25</title>
<ellipse fill="none" stroke="black" cx="2633" cy="-263" rx="67.1751" ry="31.1127"/>
<text text-anchor="middle" x="2633" y="-268.4" font-family="Times Roman,serif" font-size="14.00">&lt;?_G241&gt;</text>
<text text-anchor="middle" x="2633" y="-250.4" font-family="Times Roman,serif" font-size="14.00">placingarea</text>
</g>
<!-- n7&#45;&gt;n25 -->
<g id="edge108" class="edge"><title>n7&#45;&gt;n25</title>
<path fill="none" stroke="black" d="M2841.55,-358.24C2831.54,-354.497 2821.02,-350.876 2811,-348 2770.11,-336.268 2755.64,-347.78 2717,-330 2699.86,-322.113 2683.15,-309.999 2669.21,-298.229"/>
<polygon fill="black" stroke="black" points="2671.17,-295.302 2661.34,-291.374 2666.58,-300.581 2671.17,-295.302"/>
<text text-anchor="middle" x="2795" y="-317.4" font-family="Times Roman,serif" font-size="14.00"> static(hasplacingarea)</text>
</g>
<!-- n26 -->
<g id="node26" class="node"><title>n26</title>
<ellipse fill="none" stroke="black" cx="2968" cy="-263" rx="67.1751" ry="31.1127"/>
<text text-anchor="middle" x="2968" y="-268.4" font-family="Times Roman,serif" font-size="14.00">&lt;?_G244&gt;</text>
<text text-anchor="middle" x="2968" y="-250.4" font-family="Times Roman,serif" font-size="14.00">placingarea</text>
</g>
<!-- n7&#45;&gt;n26 -->
<g id="edge72" class="edge"><title>n7&#45;&gt;n26</title>
<path fill="none" stroke="black" d="M2878.33,-348.371C2875.36,-336.352 2874.65,-322.864 2881,-312 2886.89,-301.929 2895.69,-293.768 2905.47,-287.207"/>
<polygon fill="black" stroke="black" points="2907.55,-290.039 2914.26,-281.846 2903.9,-284.061 2907.55,-290.039"/>
<text text-anchor="middle" x="2959" y="-317.4" font-family="Times Roman,serif" font-size="14.00"> static(hasplacingarea)</text>
</g>
<!-- n8 -->
<g id="node8" class="node"><title>n8</title>
<ellipse fill="none" stroke="black" cx="4458" cy="-263" rx="73.0388" ry="31.1127"/>
<text text-anchor="middle" x="4458" y="-268.4" font-family="Times Roman,serif" font-size="14.00">&lt;?_G322&gt;</text>
<text text-anchor="middle" x="4458" y="-250.4" font-family="Times Roman,serif" font-size="14.00">torsoposture</text>
</g>
<!-- n8&#45;&gt;n8 -->
<g id="edge14" class="edge"><title>n8&#45;&gt;n8</title>
<path fill="none" stroke="black" d="M4527.04,-273.317C4539.93,-272.046 4549,-268.607 4549,-263 4549,-259.057 4544.51,-256.187 4537.37,-254.388"/>
<polygon fill="black" stroke="black" points="4537.48,-250.859 4527.04,-252.683 4536.34,-257.765 4537.48,-250.859"/>
<text text-anchor="middle" x="4628" y="-259.4" font-family="Times Roman,serif" font-size="14.00"> static(torsoupposture)</text>
</g>
<!-- n9&#45;&gt;n6 -->
<g id="edge68" class="edge"><title>n9&#45;&gt;n6</title>
<path fill="none" stroke="black" d="M416.587,-239.246C382.749,-220.731 335.655,-194.962 299.84,-175.365"/>
<polygon fill="black" stroke="black" points="301.445,-172.254 290.992,-170.524 298.085,-178.395 301.445,-172.254"/>
<text text-anchor="middle" x="427" y="-201.4" font-family="Times Roman,serif" font-size="14.00"> static(reachable)</text>
</g>
<!-- n9&#45;&gt;n9 -->
<g id="edge16" class="edge"><title>n9&#45;&gt;n9</title>
<path fill="none" stroke="black" d="M523.389,-273.426C536.004,-272.253 545,-268.777 545,-263 545,-258.938 540.553,-256.014 533.527,-254.228"/>
<polygon fill="black" stroke="black" points="533.822,-250.729 523.389,-252.574 532.695,-257.638 533.822,-250.729"/>
<text text-anchor="middle" x="627.5" y="-259.4" font-family="Times Roman,serif" font-size="14.00"> static(placingarearight)</text>
</g>
<!-- n10&#45;&gt;n13 -->
<g id="edge120" class="edge"><title>n10&#45;&gt;n13</title>
<path fill="none" stroke="black" d="M1484.88,-234.953C1498.56,-222.558 1515.22,-208.087 1531,-196 1539.07,-189.816 1547.9,-183.563 1556.56,-177.689"/>
<polygon fill="black" stroke="black" points="1558.76,-180.426 1565.13,-171.957 1554.87,-174.608 1558.76,-180.426"/>
<text text-anchor="middle" x="1591" y="-201.4" font-family="Times Roman,serif" font-size="14.00"> static(reachable)</text>
</g>
<!-- n11 -->
<g id="node11" class="node"><title>n11</title>
<ellipse fill="none" stroke="black" cx="1063" cy="-379" rx="65.9683" ry="31.1127"/>
<text text-anchor="middle" x="1063" y="-384.4" font-family="Times Roman,serif" font-size="14.00">&lt;?_G263&gt;</text>
<text text-anchor="middle" x="1063" y="-366.4" font-family="Times Roman,serif" font-size="14.00">object</text>
</g>
<!-- n11&#45;&gt;n9 -->
<g id="edge96" class="edge"><title>n11&#45;&gt;n9</title>
<path fill="none" stroke="black" d="M1010.69,-359.932C996.084,-355.3 980.077,-350.862 965,-348 850.765,-326.313 818.001,-352.887 704,-330 679.61,-325.103 674.843,-319.096 651,-312 611.261,-300.173 566.373,-288.57 530.102,-279.625"/>
<polygon fill="black" stroke="black" points="530.658,-276.158 520.112,-277.175 528.99,-282.956 530.658,-276.158"/>
<text text-anchor="middle" x="733" y="-317.4" font-family="Times Roman,serif" font-size="14.00"> end(on)</text>
</g>
<!-- n11&#45;&gt;n10 -->
<g id="edge82" class="edge"><title>n11&#45;&gt;n10</title>
<path fill="none" stroke="black" d="M1114.43,-359.393C1127.21,-355.103 1140.98,-350.964 1154,-348 1219.47,-333.093 1239.26,-347.814 1304,-330 1322.85,-324.814 1364.44,-306.153 1399.21,-289.838"/>
<polygon fill="black" stroke="black" points="1400.79,-292.962 1408.34,-285.532 1397.81,-286.63 1400.79,-292.962"/>
<text text-anchor="middle" x="1376.5" y="-317.4" font-family="Times Roman,serif" font-size="14.00"> init(on)</text>
</g>
<!-- n12&#45;&gt;n12 -->
<g id="edge18" class="edge"><title>n12&#45;&gt;n12</title>
<path fill="none" stroke="black" d="M133.275,-41.4602C145.935,-40.3207 155,-36.834 155,-31 155,-26.898 150.518,-23.9564 143.457,-22.1753"/>
<polygon fill="black" stroke="black" points="143.704,-18.6702 133.275,-20.5398 142.593,-25.5816 143.704,-18.6702"/>
<text text-anchor="middle" x="253" y="-27.4" font-family="Times Roman,serif" font-size="14.00"> static(premanipulationarea)</text>
</g>
<!-- n13&#45;&gt;n4 -->
<g id="edge124" class="edge"><title>n13&#45;&gt;n4</title>
<path fill="none" stroke="black" d="M1622.01,-116.787C1630.85,-103.655 1642.78,-89.1999 1657,-80 1678.43,-66.1283 1737.89,-52.621 1786.78,-43.3133"/>
<polygon fill="black" stroke="black" points="1787.54,-46.7327 1796.72,-41.4506 1786.25,-39.8525 1787.54,-46.7327"/>
<text text-anchor="middle" x="1767" y="-85.4" font-family="Times Roman,serif" font-size="14.00"> static(haspremanipulationarea)</text>
</g>
<!-- n13&#45;&gt;n13 -->
<g id="edge20" class="edge"><title>n13&#45;&gt;n13</title>
<path fill="none" stroke="black" d="M1667.28,-157.46C1679.93,-156.321 1689,-152.834 1689,-147 1689,-142.898 1684.52,-139.956 1677.46,-138.175"/>
<polygon fill="black" stroke="black" points="1677.7,-134.67 1667.28,-136.54 1676.59,-141.582 1677.7,-134.67"/>
<text text-anchor="middle" x="1776" y="-143.4" font-family="Times Roman,serif" font-size="14.00"> static(manipulationarea)</text>
</g>
<!-- n14 -->
<g id="node14" class="node"><title>n14</title>
<ellipse fill="none" stroke="black" cx="3542" cy="-379" rx="65.9683" ry="31.1127"/>
<text text-anchor="middle" x="3542" y="-384.4" font-family="Times Roman,serif" font-size="14.00">&lt;?_G218&gt;</text>
<text text-anchor="middle" x="3542" y="-366.4" font-family="Times Roman,serif" font-size="14.00">area</text>
</g>
<!-- n14&#45;&gt;n14 -->
<g id="edge22" class="edge"><title>n14&#45;&gt;n14</title>
<path fill="none" stroke="black" d="M3604.28,-389.46C3616.93,-388.321 3626,-384.834 3626,-379 3626,-374.898 3621.52,-371.956 3614.46,-370.175"/>
<polygon fill="black" stroke="black" points="3614.7,-366.67 3604.28,-368.54 3613.59,-373.582 3614.7,-366.67"/>
<text text-anchor="middle" x="3724" y="-375.4" font-family="Times Roman,serif" font-size="14.00"> static(premanipulationarea)</text>
</g>
<!-- n15 -->
<g id="node15" class="node"><title>n15</title>
<ellipse fill="none" stroke="black" cx="3906" cy="-379" rx="65.9683" ry="31.1127"/>
<text text-anchor="middle" x="3906" y="-384.4" font-family="Times Roman,serif" font-size="14.00">&lt;?_G203&gt;</text>
<text text-anchor="middle" x="3906" y="-366.4" font-family="Times Roman,serif" font-size="14.00">arm</text>
</g>
<!-- n15&#45;&gt;n15 -->
<g id="edge24" class="edge"><title>n15&#45;&gt;n15</title>
<path fill="none" stroke="black" d="M3968.28,-389.46C3980.93,-388.321 3990,-384.834 3990,-379 3990,-374.898 3985.52,-371.956 3978.46,-370.175"/>
<polygon fill="black" stroke="black" points="3978.7,-366.67 3968.28,-368.54 3977.59,-373.582 3978.7,-366.67"/>
<text text-anchor="middle" x="4041.5" y="-384.4" font-family="Times Roman,serif" font-size="14.00"> static(leftarm)</text>
<text text-anchor="middle" x="4041.5" y="-366.4" font-family="Times Roman,serif" font-size="14.00">init(armfree)</text>
</g>
<!-- n16 -->
<g id="node16" class="node"><title>n16</title>
<ellipse fill="none" stroke="black" cx="4010" cy="-263" rx="67.8823" ry="31.1127"/>
<text text-anchor="middle" x="4010" y="-268.4" font-family="Times Roman,serif" font-size="14.00">&lt;?_G306&gt;</text>
<text text-anchor="middle" x="4010" y="-250.4" font-family="Times Roman,serif" font-size="14.00">armposture</text>
</g>
<!-- n15&#45;&gt;n16 -->
<g id="edge76" class="edge"><title>n15&#45;&gt;n16</title>
<path fill="none" stroke="black" d="M3931.71,-350.326C3945.46,-334.989 3962.54,-315.94 3977.23,-299.55"/>
<polygon fill="black" stroke="black" points="3980.16,-301.528 3984.23,-291.746 3974.95,-296.856 3980.16,-301.528"/>
<text text-anchor="middle" x="4035" y="-317.4" font-family="Times Roman,serif" font-size="14.00"> init(hasarmposture)</text>
</g>
<!-- n16&#45;&gt;n16 -->
<g id="edge26" class="edge"><title>n16&#45;&gt;n16</title>
<path fill="none" stroke="black" d="M4074.13,-273.426C4086.9,-272.253 4096,-268.777 4096,-263 4096,-258.938 4091.5,-256.014 4084.39,-254.228"/>
<polygon fill="black" stroke="black" points="4084.56,-250.71 4074.13,-252.574 4083.45,-257.621 4084.56,-250.71"/>
<text text-anchor="middle" x="4194.5" y="-259.4" font-family="Times Roman,serif" font-size="14.00"> static(armunnamedposture)</text>
</g>
<!-- n17 -->
<g id="node17" class="node"><title>n17</title>
<ellipse fill="none" stroke="black" cx="4177" cy="-379" rx="65.9683" ry="31.1127"/>
<text text-anchor="middle" x="4177" y="-384.4" font-family="Times Roman,serif" font-size="14.00">&lt;?_G204&gt;</text>
<text text-anchor="middle" x="4177" y="-366.4" font-family="Times Roman,serif" font-size="14.00">arm</text>
</g>
<!-- n17&#45;&gt;n16 -->
<g id="edge66" class="edge"><title>n17&#45;&gt;n16</title>
<path fill="none" stroke="black" d="M4151.65,-350.142C4139.56,-337.444 4124.39,-322.959 4109,-312 4096.82,-303.323 4082.86,-295.385 4069.36,-288.541"/>
<polygon fill="black" stroke="black" points="4070.62,-285.261 4060.1,-283.982 4067.53,-291.541 4070.62,-285.261"/>
<text text-anchor="middle" x="4200" y="-317.4" font-family="Times Roman,serif" font-size="14.00"> init(hasarmposture)</text>
</g>
<!-- n17&#45;&gt;n17 -->
<g id="edge28" class="edge"><title>n17&#45;&gt;n17</title>
<path fill="none" stroke="black" d="M4239.28,-389.46C4251.93,-388.321 4261,-384.834 4261,-379 4261,-374.898 4256.52,-371.956 4249.46,-370.175"/>
<polygon fill="black" stroke="black" points="4249.7,-366.67 4239.28,-368.54 4248.59,-373.582 4249.7,-366.67"/>
<text text-anchor="middle" x="4317.5" y="-384.4" font-family="Times Roman,serif" font-size="14.00"> static(rightarm)</text>
<text text-anchor="middle" x="4317.5" y="-366.4" font-family="Times Roman,serif" font-size="14.00">init(armfree)</text>
</g>
<!-- n18&#45;&gt;n9 -->
<g id="edge126" class="edge"><title>n18&#45;&gt;n9</title>
<path fill="none" stroke="black" d="M825.683,-371.792C715.496,-359.338 501.734,-334.671 495,-330 485.505,-323.415 478.402,-313.434 473.167,-303.172"/>
<polygon fill="black" stroke="black" points="476.207,-301.402 468.871,-293.758 469.839,-304.309 476.207,-301.402"/>
<text text-anchor="middle" x="573" y="-317.4" font-family="Times Roman,serif" font-size="14.00"> static(hasplacingarea)</text>
</g>
<!-- n18&#45;&gt;n34 -->
<g id="edge60" class="edge"><title>n18&#45;&gt;n34</title>
<path fill="none" stroke="black" d="M936.339,-356.661C951.538,-348.791 968.293,-339.52 983,-330 993.897,-322.946 994.949,-318.809 1006,-312 1020.07,-303.33 1035.92,-295.142 1050.93,-288.031"/>
<polygon fill="black" stroke="black" points="1052.55,-291.138 1060.14,-283.748 1049.6,-284.791 1052.55,-291.138"/>
<text text-anchor="middle" x="1084" y="-317.4" font-family="Times Roman,serif" font-size="14.00"> static(hasplacingarea)</text>
</g>
<!-- n19 -->
<g id="node19" class="node"><title>n19</title>
<ellipse fill="none" stroke="black" cx="4198" cy="-495" rx="73.0388" ry="31.1127"/>
<text text-anchor="middle" x="4198" y="-500.4" font-family="Times Roman,serif" font-size="14.00">&lt;?_G313&gt;</text>
<text text-anchor="middle" x="4198" y="-482.4" font-family="Times Roman,serif" font-size="14.00">torsoposture</text>
</g>
<!-- n19&#45;&gt;n19 -->
<g id="edge30" class="edge"><title>n19&#45;&gt;n19</title>
<path fill="none" stroke="black" d="M4267.04,-505.317C4279.93,-504.046 4289,-500.607 4289,-495 4289,-491.057 4284.51,-488.187 4277.37,-486.388"/>
<polygon fill="black" stroke="black" points="4277.48,-482.859 4267.04,-484.683 4276.34,-489.765 4277.48,-482.859"/>
<text text-anchor="middle" x="4378.5" y="-491.4" font-family="Times Roman,serif" font-size="14.00"> static(torsodownposture)</text>
</g>
<!-- n20 -->
<g id="node20" class="node"><title>n20</title>
<ellipse fill="none" stroke="black" cx="3162" cy="-147" rx="65.9683" ry="31.1127"/>
<text text-anchor="middle" x="3162" y="-152.4" font-family="Times Roman,serif" font-size="14.00">&lt;?_G219&gt;</text>
<text text-anchor="middle" x="3162" y="-134.4" font-family="Times Roman,serif" font-size="14.00">area</text>
</g>
<!-- n20&#45;&gt;n20 -->
<g id="edge32" class="edge"><title>n20&#45;&gt;n20</title>
<path fill="none" stroke="black" d="M3224.28,-157.46C3236.93,-156.321 3246,-152.834 3246,-147 3246,-142.898 3241.52,-139.956 3234.46,-138.175"/>
<polygon fill="black" stroke="black" points="3234.7,-134.67 3224.28,-136.54 3233.59,-141.582 3234.7,-134.67"/>
<text text-anchor="middle" x="3333" y="-143.4" font-family="Times Roman,serif" font-size="14.00"> static(manipulationarea)</text>
</g>
<!-- n33 -->
<g id="node33" class="node"><title>n33</title>
<ellipse fill="none" stroke="black" cx="3330" cy="-31" rx="65.9683" ry="31.1127"/>
<text text-anchor="middle" x="3330" y="-36.4" font-family="Times Roman,serif" font-size="14.00">&lt;?_G221&gt;</text>
<text text-anchor="middle" x="3330" y="-18.4" font-family="Times Roman,serif" font-size="14.00">area</text>
</g>
<!-- n20&#45;&gt;n33 -->
<g id="edge74" class="edge"><title>n20&#45;&gt;n33</title>
<path fill="none" stroke="black" d="M3180.2,-117.129C3189.13,-104.381 3200.81,-90.1385 3214,-80 3229.06,-68.4229 3247.27,-59.0591 3264.75,-51.7401"/>
<polygon fill="black" stroke="black" points="3266.38,-54.8561 3274.36,-47.8833 3263.77,-48.3598 3266.38,-54.8561"/>
<text text-anchor="middle" x="3324" y="-85.4" font-family="Times Roman,serif" font-size="14.00"> static(haspremanipulationarea)</text>
</g>
<!-- n21 -->
<g id="node21" class="node"><title>n21</title>
<ellipse fill="none" stroke="black" cx="4559" cy="-495" rx="73.0388" ry="31.1127"/>
<text text-anchor="middle" x="4559" y="-500.4" font-family="Times Roman,serif" font-size="14.00">&lt;?_G317&gt;</text>
<text text-anchor="middle" x="4559" y="-482.4" font-family="Times Roman,serif" font-size="14.00">torsoposture</text>
</g>
<!-- n21&#45;&gt;n21 -->
<g id="edge34" class="edge"><title>n21&#45;&gt;n21</title>
<path fill="none" stroke="black" d="M4628.04,-505.317C4640.93,-504.046 4650,-500.607 4650,-495 4650,-491.057 4645.51,-488.187 4638.37,-486.388"/>
<polygon fill="black" stroke="black" points="4638.48,-482.859 4628.04,-484.683 4637.34,-489.765 4638.48,-482.859"/>
<text text-anchor="middle" x="4743" y="-491.4" font-family="Times Roman,serif" font-size="14.00"> static(torsomiddleposture)</text>
</g>
<!-- n22 -->
<g id="node22" class="node"><title>n22</title>
<ellipse fill="none" stroke="black" cx="1416" cy="-379" rx="65.9683" ry="31.1127"/>
<text text-anchor="middle" x="1416" y="-384.4" font-family="Times Roman,serif" font-size="14.00">&lt;?_G267&gt;</text>
<text text-anchor="middle" x="1416" y="-366.4" font-family="Times Roman,serif" font-size="14.00">object</text>
</g>
<!-- n22&#45;&gt;n10 -->
<g id="edge58" class="edge"><title>n22&#45;&gt;n10</title>
<path fill="none" stroke="black" d="M1412.4,-347.927C1412.1,-336.362 1413.03,-323.307 1417,-312 1418.42,-307.943 1420.33,-303.959 1422.53,-300.124"/>
<polygon fill="black" stroke="black" points="1425.62,-301.782 1428.11,-291.483 1419.74,-297.983 1425.62,-301.782"/>
<text text-anchor="middle" x="1444.5" y="-317.4" font-family="Times Roman,serif" font-size="14.00"> init(on)</text>
</g>
<!-- n22&#45;&gt;n22 -->
<g id="edge36" class="edge"><title>n22&#45;&gt;n22</title>
<path fill="none" stroke="black" d="M1478.28,-389.46C1490.93,-388.321 1500,-384.834 1500,-379 1500,-374.898 1495.52,-371.956 1488.46,-370.175"/>
<polygon fill="black" stroke="black" points="1488.7,-366.67 1478.28,-368.54 1487.59,-373.582 1488.7,-366.67"/>
<text text-anchor="middle" x="1547" y="-375.4" font-family="Times Roman,serif" font-size="14.00"> static(coffee)</text>
</g>
<!-- n22&#45;&gt;n34 -->
<g id="edge98" class="edge"><title>n22&#45;&gt;n34</title>
<path fill="none" stroke="black" d="M1366.53,-358.305C1356.53,-354.556 1346.01,-350.917 1336,-348 1296.84,-336.588 1284.62,-343.125 1246,-330 1216.81,-320.082 1185.87,-305.216 1160.88,-292.005"/>
<polygon fill="black" stroke="black" points="1162.43,-288.862 1151.96,-287.225 1159.12,-295.033 1162.43,-288.862"/>
<text text-anchor="middle" x="1275" y="-317.4" font-family="Times Roman,serif" font-size="14.00"> end(on)</text>
</g>
<!-- n23 -->
<g id="node23" class="node"><title>n23</title>
<ellipse fill="none" stroke="black" cx="999" cy="-495" rx="65.9683" ry="31.1127"/>
<text text-anchor="middle" x="999" y="-500.4" font-family="Times Roman,serif" font-size="14.00">&lt;?_G269&gt;</text>
<text text-anchor="middle" x="999" y="-482.4" font-family="Times Roman,serif" font-size="14.00">guest</text>
</g>
<!-- n23&#45;&gt;n18 -->
<g id="edge84" class="edge"><title>n23&#45;&gt;n18</title>
<path fill="none" stroke="black" d="M992.788,-463.981C989.163,-451.766 983.555,-438.241 975,-428 967.568,-419.102 958.079,-411.472 948.153,-405.065"/>
<polygon fill="black" stroke="black" points="949.726,-401.926 939.358,-399.748 946.105,-407.917 949.726,-401.926"/>
<text text-anchor="middle" x="1019.5" y="-433.4" font-family="Times Roman,serif" font-size="14.00"> static(at)</text>
</g>
<!-- n24&#45;&gt;n24 -->
<g id="edge38" class="edge"><title>n24&#45;&gt;n24</title>
<path fill="none" stroke="black" d="M870.275,-41.4602C882.935,-40.3207 892,-36.834 892,-31 892,-26.898 887.518,-23.9564 880.457,-22.1753"/>
<polygon fill="black" stroke="black" points="880.704,-18.6702 870.275,-20.5398 879.593,-25.5816 880.704,-18.6702"/>
<text text-anchor="middle" x="990" y="-27.4" font-family="Times Roman,serif" font-size="14.00"> static(premanipulationarea)</text>
</g>
<!-- n25&#45;&gt;n25 -->
<g id="edge40" class="edge"><title>n25&#45;&gt;n25</title>
<path fill="none" stroke="black" d="M2696.39,-273.426C2709,-272.253 2718,-268.777 2718,-263 2718,-258.938 2713.55,-256.014 2706.53,-254.228"/>
<polygon fill="black" stroke="black" points="2706.82,-250.729 2696.39,-252.574 2705.69,-257.638 2706.82,-250.729"/>
<text text-anchor="middle" x="2800.5" y="-259.4" font-family="Times Roman,serif" font-size="14.00"> static(placingarearight)</text>
</g>
<!-- n31 -->
<g id="node31" class="node"><title>n31</title>
<ellipse fill="none" stroke="black" cx="2438" cy="-147" rx="65.9683" ry="31.1127"/>
<text text-anchor="middle" x="2438" y="-152.4" font-family="Times Roman,serif" font-size="14.00">&lt;?_G226&gt;</text>
<text text-anchor="middle" x="2438" y="-134.4" font-family="Times Roman,serif" font-size="14.00">area</text>
</g>
<!-- n25&#45;&gt;n31 -->
<g id="edge70" class="edge"><title>n25&#45;&gt;n31</title>
<path fill="none" stroke="black" d="M2591.65,-238.399C2561.3,-220.345 2519.93,-195.74 2487.77,-176.607"/>
<polygon fill="black" stroke="black" points="2489.34,-173.471 2478.96,-171.366 2485.77,-179.487 2489.34,-173.471"/>
<text text-anchor="middle" x="2608" y="-201.4" font-family="Times Roman,serif" font-size="14.00"> static(reachable)</text>
</g>
<!-- n26&#45;&gt;n20 -->
<g id="edge102" class="edge"><title>n26&#45;&gt;n20</title>
<path fill="none" stroke="black" d="M3009.14,-238.399C3039.24,-220.406 3080.21,-195.906 3112.16,-176.801"/>
<polygon fill="black" stroke="black" points="3114.13,-179.701 3120.92,-171.565 3110.54,-173.693 3114.13,-179.701"/>
<text text-anchor="middle" x="3137" y="-201.4" font-family="Times Roman,serif" font-size="14.00"> static(reachable)</text>
</g>
<!-- n26&#45;&gt;n26 -->
<g id="edge42" class="edge"><title>n26&#45;&gt;n26</title>
<path fill="none" stroke="black" d="M3031.39,-273.426C3044,-272.253 3053,-268.777 3053,-263 3053,-258.938 3048.55,-256.014 3041.53,-254.228"/>
<polygon fill="black" stroke="black" points="3041.82,-250.729 3031.39,-252.574 3040.69,-257.638 3041.82,-250.729"/>
<text text-anchor="middle" x="3130" y="-259.4" font-family="Times Roman,serif" font-size="14.00"> static(placingarealeft)</text>
</g>
<!-- n27 -->
<g id="node27" class="node"><title>n27</title>
<ellipse fill="none" stroke="black" cx="4922" cy="-495" rx="67.8823" ry="31.1127"/>
<text text-anchor="middle" x="4922" y="-500.4" font-family="Times Roman,serif" font-size="14.00">&lt;?_G307&gt;</text>
<text text-anchor="middle" x="4922" y="-482.4" font-family="Times Roman,serif" font-size="14.00">armposture</text>
</g>
<!-- n27&#45;&gt;n27 -->
<g id="edge44" class="edge"><title>n27&#45;&gt;n27</title>
<path fill="none" stroke="black" d="M4986.13,-505.426C4998.9,-504.253 5008,-500.777 5008,-495 5008,-490.938 5003.5,-488.014 4996.39,-486.228"/>
<polygon fill="black" stroke="black" points="4996.56,-482.71 4986.13,-484.574 4995.45,-489.621 4996.56,-482.71"/>
<text text-anchor="middle" x="5095" y="-491.4" font-family="Times Roman,serif" font-size="14.00"> static(armtosideposture)</text>
</g>
<!-- n28 -->
<g id="node28" class="node"><title>n28</title>
<ellipse fill="none" stroke="black" cx="5268" cy="-495" rx="67.8823" ry="31.1127"/>
<text text-anchor="middle" x="5268" y="-500.4" font-family="Times Roman,serif" font-size="14.00">&lt;?_G303&gt;</text>
<text text-anchor="middle" x="5268" y="-482.4" font-family="Times Roman,serif" font-size="14.00">armposture</text>
</g>
<!-- n28&#45;&gt;n28 -->
<g id="edge46" class="edge"><title>n28&#45;&gt;n28</title>
<path fill="none" stroke="black" d="M5332.13,-505.426C5344.9,-504.253 5354,-500.777 5354,-495 5354,-490.938 5349.5,-488.014 5342.39,-486.228"/>
<polygon fill="black" stroke="black" points="5342.56,-482.71 5332.13,-484.574 5341.45,-489.621 5342.56,-482.71"/>
<text text-anchor="middle" x="5438" y="-491.4" font-family="Times Roman,serif" font-size="14.00"> static(armcarryposture)</text>
</g>
<!-- n29 -->
<g id="node29" class="node"><title>n29</title>
<ellipse fill="none" stroke="black" cx="2885" cy="-495" rx="65.9683" ry="31.1127"/>
<text text-anchor="middle" x="2885" y="-500.4" font-family="Times Roman,serif" font-size="14.00">&lt;?_G173&gt;</text>
<text text-anchor="middle" x="2885" y="-482.4" font-family="Times Roman,serif" font-size="14.00">table</text>
</g>
<!-- n29&#45;&gt;n7 -->
<g id="edge110" class="edge"><title>n29&#45;&gt;n7</title>
<path fill="none" stroke="black" d="M2884.9,-463.958C2885.02,-452.633 2885.32,-439.73 2886,-428 2886.15,-425.46 2886.33,-422.849 2886.53,-420.218"/>
<polygon fill="black" stroke="black" points="2890.04,-420.339 2887.42,-410.073 2883.06,-419.731 2890.04,-420.339"/>
<text text-anchor="middle" x="2961.5" y="-433.4" font-family="Times Roman,serif" font-size="14.00"> static(hassittingarea)</text>
</g>
<!-- n29&#45;&gt;n20 -->
<g id="edge94" class="edge"><title>n29&#45;&gt;n20</title>
<path fill="none" stroke="black" d="M2949.67,-487.997C3037.67,-476.982 3188.01,-452.375 3221,-410 3237.93,-388.257 3221.59,-375.549 3221,-348 3219.53,-279.878 3235.65,-254.668 3201,-196 3198.67,-192.049 3196.04,-188.069 3193.29,-184.177"/>
<polygon fill="black" stroke="black" points="3195.87,-181.791 3187.11,-175.843 3190.25,-185.96 3195.87,-181.791"/>
<text text-anchor="middle" x="3320" y="-317.4" font-family="Times Roman,serif" font-size="14.00"> static(hasmanipulationarea)</text>
</g>
<!-- n29&#45;&gt;n25 -->
<g id="edge128" class="edge"><title>n29&#45;&gt;n25</title>
<path fill="none" stroke="black" d="M2820.58,-487.851C2769.32,-478.65 2699.81,-457.682 2660,-410 2653.24,-401.897 2644.16,-344.71 2638.45,-304.107"/>
<polygon fill="black" stroke="black" points="2641.91,-303.606 2637.07,-294.182 2634.98,-304.568 2641.91,-303.606"/>
<text text-anchor="middle" x="2738" y="-375.4" font-family="Times Roman,serif" font-size="14.00"> static(hasplacingarea)</text>
</g>
<!-- n29&#45;&gt;n26 -->
<g id="edge104" class="edge"><title>n29&#45;&gt;n26</title>
<path fill="none" stroke="black" d="M2946.16,-482.936C2983.38,-474.211 3025.86,-461.296 3037,-446 3072.06,-397.859 3064.32,-364.917 3037,-312 3033.12,-304.493 3027.51,-297.887 3021.13,-292.155"/>
<polygon fill="black" stroke="black" points="3023.32,-289.422 3013.35,-285.826 3018.9,-294.852 3023.32,-289.422"/>
<text text-anchor="middle" x="3139" y="-375.4" font-family="Times Roman,serif" font-size="14.00"> static(hasplacingarea)</text>
</g>
<!-- n29&#45;&gt;n29 -->
<g id="edge48" class="edge"><title>n29&#45;&gt;n29</title>
<path fill="none" stroke="black" d="M2947.28,-505.46C2959.93,-504.321 2969,-500.834 2969,-495 2969,-490.898 2964.52,-487.956 2957.46,-486.175"/>
<polygon fill="black" stroke="black" points="2957.7,-482.67 2947.28,-484.54 2956.59,-489.582 2957.7,-482.67"/>
<text text-anchor="middle" x="3013" y="-491.4" font-family="Times Roman,serif" font-size="14.00"> static(table)</text>
</g>
<!-- n30 -->
<g id="node30" class="node"><title>n30</title>
<ellipse fill="none" stroke="black" cx="2277" cy="-31" rx="65.9683" ry="31.1127"/>
<text text-anchor="middle" x="2277" y="-36.4" font-family="Times Roman,serif" font-size="14.00">&lt;?_G224&gt;</text>
<text text-anchor="middle" x="2277" y="-18.4" font-family="Times Roman,serif" font-size="14.00">area</text>
</g>
<!-- n29&#45;&gt;n30 -->
<g id="edge122" class="edge"><title>n29&#45;&gt;n30</title>
<path fill="none" stroke="black" d="M2819.3,-490.899C2646.06,-479.211 2190,-442.42 2190,-379 2190,-379 2190,-379 2190,-147 2190,-114.432 2212.22,-85.1551 2234.2,-64.1612"/>
<polygon fill="black" stroke="black" points="2236.61,-66.7035 2241.61,-57.3662 2231.88,-61.5433 2236.61,-66.7035"/>
<text text-anchor="middle" x="2300" y="-259.4" font-family="Times Roman,serif" font-size="14.00"> static(haspremanipulationarea)</text>
</g>
<!-- n29&#45;&gt;n31 -->
<g id="edge100" class="edge"><title>n29&#45;&gt;n31</title>
<path fill="none" stroke="black" d="M2822.99,-484.117C2781.09,-475.863 2724.89,-463.027 2677,-446 2565.75,-406.445 2500.67,-430.071 2438,-330 2411.24,-287.27 2417.66,-227.199 2426.4,-187.703"/>
<polygon fill="black" stroke="black" points="2429.83,-188.418 2428.72,-177.882 2423.01,-186.811 2429.83,-188.418"/>
<text text-anchor="middle" x="2537" y="-317.4" font-family="Times Roman,serif" font-size="14.00"> static(hasmanipulationarea)</text>
</g>
<!-- n29&#45;&gt;n33 -->
<g id="edge136" class="edge"><title>n29&#45;&gt;n33</title>
<path fill="none" stroke="black" d="M2949.58,-488.421C3097.47,-472.485 3448,-429.397 3448,-379 3448,-379 3448,-379 3448,-147 3448,-116.579 3452.85,-103.878 3434,-80 3424.21,-67.5986 3410.53,-58.1814 3396.3,-51.0888"/>
<polygon fill="black" stroke="black" points="3397.46,-47.7663 3386.91,-46.7556 3394.52,-54.1226 3397.46,-47.7663"/>
<text text-anchor="middle" x="3558" y="-259.4" font-family="Times Roman,serif" font-size="14.00"> static(haspremanipulationarea)</text>
</g>
<!-- n30&#45;&gt;n30 -->
<g id="edge50" class="edge"><title>n30&#45;&gt;n30</title>
<path fill="none" stroke="black" d="M2339.28,-41.4602C2351.93,-40.3207 2361,-36.834 2361,-31 2361,-26.898 2356.52,-23.9564 2349.46,-22.1753"/>
<polygon fill="black" stroke="black" points="2349.7,-18.6702 2339.28,-20.5398 2348.59,-25.5816 2349.7,-18.6702"/>
<text text-anchor="middle" x="2459" y="-27.4" font-family="Times Roman,serif" font-size="14.00"> static(premanipulationarea)</text>
</g>
<!-- n31&#45;&gt;n30 -->
<g id="edge88" class="edge"><title>n31&#45;&gt;n30</title>
<path fill="none" stroke="black" d="M2401.87,-120.967C2378.13,-103.863 2346.9,-81.3656 2321.62,-63.1467"/>
<polygon fill="black" stroke="black" points="2323.45,-60.1522 2313.29,-57.1462 2319.36,-65.8317 2323.45,-60.1522"/>
<text text-anchor="middle" x="2478" y="-85.4" font-family="Times Roman,serif" font-size="14.00"> static(haspremanipulationarea)</text>
</g>
<!-- n31&#45;&gt;n31 -->
<g id="edge52" class="edge"><title>n31&#45;&gt;n31</title>
<path fill="none" stroke="black" d="M2500.28,-157.46C2512.93,-156.321 2522,-152.834 2522,-147 2522,-142.898 2517.52,-139.956 2510.46,-138.175"/>
<polygon fill="black" stroke="black" points="2510.7,-134.67 2500.28,-136.54 2509.59,-141.582 2510.7,-134.67"/>
<text text-anchor="middle" x="2609" y="-143.4" font-family="Times Roman,serif" font-size="14.00"> static(manipulationarea)</text>
</g>
<!-- n32 -->
<g id="node32" class="node"><title>n32</title>
<ellipse fill="none" stroke="black" cx="4458" cy="-379" rx="65.9683" ry="31.1127"/>
<text text-anchor="middle" x="4458" y="-384.4" font-family="Times Roman,serif" font-size="14.00">&lt;?_G188&gt;</text>
<text text-anchor="middle" x="4458" y="-366.4" font-family="Times Roman,serif" font-size="14.00">torso</text>
</g>
<!-- n32&#45;&gt;n8 -->
<g id="edge142" class="edge"><title>n32&#45;&gt;n8</title>
<path fill="none" stroke="black" d="M4458,-347.914C4458,-334.521 4458,-318.669 4458,-304.308"/>
<polygon fill="black" stroke="black" points="4461.5,-304.172 4458,-294.172 4454.5,-304.172 4461.5,-304.172"/>
<text text-anchor="middle" x="4533" y="-317.4" font-family="Times Roman,serif" font-size="14.00"> init(hastorsoposture)</text>
</g>
<!-- n33&#45;&gt;n33 -->
<g id="edge54" class="edge"><title>n33&#45;&gt;n33</title>
<path fill="none" stroke="black" d="M3392.28,-41.4602C3404.93,-40.3207 3414,-36.834 3414,-31 3414,-26.898 3409.52,-23.9564 3402.46,-22.1753"/>
<polygon fill="black" stroke="black" points="3402.7,-18.6702 3392.28,-20.5398 3401.59,-25.5816 3402.7,-18.6702"/>
<text text-anchor="middle" x="3512" y="-27.4" font-family="Times Roman,serif" font-size="14.00"> static(premanipulationarea)</text>
</g>
<!-- n34&#45;&gt;n3 -->
<g id="edge118" class="edge"><title>n34&#45;&gt;n3</title>
<path fill="none" stroke="black" d="M1081.62,-234.623C1065.92,-218.919 1046.25,-199.253 1029.53,-182.534"/>
<polygon fill="black" stroke="black" points="1031.63,-179.68 1022.08,-175.084 1026.68,-184.63 1031.63,-179.68"/>
<text text-anchor="middle" x="1119" y="-201.4" font-family="Times Roman,serif" font-size="14.00"> static(reachable)</text>
</g>
<!-- n34&#45;&gt;n34 -->
<g id="edge56" class="edge"><title>n34&#45;&gt;n34</title>
<path fill="none" stroke="black" d="M1173.39,-273.426C1186,-272.253 1195,-268.777 1195,-263 1195,-258.938 1190.55,-256.014 1183.53,-254.228"/>
<polygon fill="black" stroke="black" points="1183.82,-250.729 1173.39,-252.574 1182.69,-257.638 1183.82,-250.729"/>
<text text-anchor="middle" x="1272" y="-259.4" font-family="Times Roman,serif" font-size="14.00"> static(placingarealeft)</text>
</g>
<!-- n35 -->
<g id="node35" class="node"><title>n35</title>
<ellipse fill="none" stroke="black" cx="4041" cy="-495" rx="65.9683" ry="31.1127"/>
<text text-anchor="middle" x="4041" y="-500.4" font-family="Times Roman,serif" font-size="14.00">&lt;?_G191&gt;</text>
<text text-anchor="middle" x="4041" y="-482.4" font-family="Times Roman,serif" font-size="14.00">robot</text>
</g>
<!-- n35&#45;&gt;n14 -->
<g id="edge132" class="edge"><title>n35&#45;&gt;n14</title>
<path fill="none" stroke="black" d="M3981.8,-481.238C3889.08,-459.683 3710.02,-418.059 3611.38,-395.129"/>
<polygon fill="black" stroke="black" points="3612.04,-391.69 3601.51,-392.834 3610.46,-398.508 3612.04,-391.69"/>
<text text-anchor="middle" x="3865.5" y="-433.4" font-family="Times Roman,serif" font-size="14.00"> init(robotat)</text>
</g>
<!-- n35&#45;&gt;n15 -->
<g id="edge134" class="edge"><title>n35&#45;&gt;n15</title>
<path fill="none" stroke="black" d="M4009.01,-467.51C3990.01,-451.185 3965.76,-430.353 3945.57,-413.001"/>
<polygon fill="black" stroke="black" points="3947.63,-410.156 3937.76,-406.293 3943.07,-415.465 3947.63,-410.156"/>
<text text-anchor="middle" x="4033" y="-433.4" font-family="Times Roman,serif" font-size="14.00"> static(hasarm)</text>
</g>
<!-- n35&#45;&gt;n17 -->
<g id="edge130" class="edge"><title>n35&#45;&gt;n17</title>
<path fill="none" stroke="black" d="M4072.89,-467.803C4092.1,-451.415 4116.73,-430.403 4137.22,-412.934"/>
<polygon fill="black" stroke="black" points="4139.51,-415.581 4144.84,-406.428 4134.96,-410.255 4139.51,-415.581"/>
<text text-anchor="middle" x="4169" y="-433.4" font-family="Times Roman,serif" font-size="14.00"> static(hasarm)</text>
</g>
<!-- n35&#45;&gt;n32 -->
<g id="edge62" class="edge"><title>n35&#45;&gt;n32</title>
<path fill="none" stroke="black" d="M4088.84,-473.333C4097.74,-469.846 4107.06,-466.55 4116,-464 4163.22,-450.534 4176.82,-455.458 4225,-446 4295.67,-432.126 4314.37,-431.833 4383,-410 4388.59,-408.222 4394.35,-406.201 4400.07,-404.065"/>
<polygon fill="black" stroke="black" points="4401.55,-407.245 4409.62,-400.383 4399.03,-400.713 4401.55,-407.245"/>
<text text-anchor="middle" x="4374" y="-433.4" font-family="Times Roman,serif" font-size="14.00"> static(hastorso)</text>
</g>
</g>
</svg>
