<?xml version="1.0" encoding="UTF-8" standalone="no"?>
<!DOCTYPE svg PUBLIC "-//W3C//DTD SVG 1.1//EN"
 "http://www.w3.org/Graphics/SVG/1.1/DTD/svg11.dtd">
<!-- Generated by graphviz version 2.26.3 (20100126.1600)
 -->
<!-- Title: Struc Pages: 1 -->
<svg width="3673pt" height="690pt"
 viewBox="0.00 0.00 3673.00 690.00" xmlns="http://www.w3.org/2000/svg" xmlns:xlink="http://www.w3.org/1999/xlink">
<g id="graph1" class="graph" transform="scale(1 1) rotate(0) translate(4 686)">
<title>Struc</title>
<polygon fill="white" stroke="white" points="-4,5 -4,-686 3670,-686 3670,5 -4,5"/>
<!-- n1 -->
<g id="node1" class="node"><title>n1</title>
<ellipse fill="none" stroke="black" cx="73" cy="-31" rx="73.0388" ry="31.1127"/>
<text text-anchor="middle" x="73" y="-36.4" font-family="Times Roman,serif" font-size="14.00">&lt;?_G189&gt;</text>
<text text-anchor="middle" x="73" y="-18.4" font-family="Times Roman,serif" font-size="14.00">torsoposture</text>
</g>
<!-- n1&#45;&gt;n1 -->
<g id="edge2" class="edge"><title>n1&#45;&gt;n1</title>
<path fill="none" stroke="black" d="M142.045,-41.3168C154.927,-40.0463 164,-36.6074 164,-31 164,-27.0573 159.515,-24.1866 152.373,-22.3881"/>
<polygon fill="black" stroke="black" points="152.481,-18.8586 142.045,-20.6832 151.341,-25.7651 152.481,-18.8586"/>
<text text-anchor="middle" x="243" y="-27.4" font-family="Times Roman,serif" font-size="14.00"> static(torsoupposture)</text>
</g>
<!-- n2 -->
<g id="node2" class="node"><title>n2</title>
<ellipse fill="none" stroke="black" cx="1157" cy="-523" rx="65.9683" ry="31.1127"/>
<text text-anchor="middle" x="1157" y="-528.4" font-family="Times Roman,serif" font-size="14.00">&lt;?_G142&gt;</text>
<text text-anchor="middle" x="1157" y="-510.4" font-family="Times Roman,serif" font-size="14.00">object</text>
</g>
<!-- n3 -->
<g id="node3" class="node"><title>n3</title>
<ellipse fill="none" stroke="black" cx="1158" cy="-399" rx="67.1751" ry="31.1127"/>
<text text-anchor="middle" x="1158" y="-404.4" font-family="Times Roman,serif" font-size="14.00">&lt;?_G183&gt;</text>
<text text-anchor="middle" x="1158" y="-386.4" font-family="Times Roman,serif" font-size="14.00">placingarea</text>
</g>
<!-- n2&#45;&gt;n3 -->
<g id="edge74" class="edge"><title>n2&#45;&gt;n3</title>
<path fill="none" stroke="black" d="M1111.95,-500.128C1093.65,-487.504 1078.74,-470.623 1088,-452 1092.29,-443.38 1098.72,-435.787 1105.97,-429.239"/>
<polygon fill="black" stroke="black" points="1108.61,-431.601 1114.11,-422.546 1104.17,-426.195 1108.61,-431.601"/>
<text text-anchor="middle" x="1115.5" y="-457.4" font-family="Times Roman,serif" font-size="14.00"> init(on)</text>
</g>
<!-- n7 -->
<g id="node7" class="node"><title>n7</title>
<ellipse fill="none" stroke="black" cx="1314" cy="-399" rx="67.1751" ry="31.1127"/>
<ellipse fill="none" stroke="black" cx="1314" cy="-399" rx="71.1751" ry="35.1127"/>
<text text-anchor="middle" x="1314" y="-404.4" font-family="Times Roman,serif" font-size="14.00">&lt;?_G101&gt;</text>
<text text-anchor="middle" x="1314" y="-386.4" font-family="Times Roman,serif" font-size="14.00">placingarea</text>
</g>
<!-- n2&#45;&gt;n7 -->
<g id="edge76" class="edge"><title>n2&#45;&gt;n7</title>
<path fill="none" stroke="black" stroke-dasharray="5,2" d="M1161.2,-491.747C1164.51,-477.991 1170.43,-462.588 1181,-452 1198.58,-434.397 1210.81,-442.994 1234,-434 1239.84,-431.734 1245.89,-429.287 1251.91,-426.777"/>
<polygon fill="black" stroke="black" points="1253.48,-429.912 1261.33,-422.797 1250.76,-423.464 1253.48,-429.912"/>
<text text-anchor="middle" x="1210" y="-457.4" font-family="Times Roman,serif" font-size="14.00"> end(on)</text>
</g>
<!-- n20 -->
<g id="node20" class="node"><title>n20</title>
<ellipse fill="none" stroke="black" cx="1235" cy="-275" rx="65.9966" ry="31.1127"/>
<ellipse fill="none" stroke="black" cx="1235" cy="-275" rx="69.9683" ry="35.1127"/>
<text text-anchor="middle" x="1235" y="-280.4" font-family="Times Roman,serif" font-size="14.00">&lt;?_G146&gt;</text>
<text text-anchor="middle" x="1235" y="-262.4" font-family="Times Roman,serif" font-size="14.00">area</text>
</g>
<!-- n3&#45;&gt;n20 -->
<g id="edge78" class="edge"><title>n3&#45;&gt;n20</title>
<path fill="none" stroke="black" stroke-dasharray="5,2" d="M1157.4,-367.651C1158.38,-354.657 1161.19,-339.878 1168,-328 1171.94,-321.125 1177.16,-314.811 1182.95,-309.123"/>
<polygon fill="black" stroke="black" points="1185.46,-311.565 1190.53,-302.258 1180.76,-306.376 1185.46,-311.565"/>
<text text-anchor="middle" x="1228" y="-333.4" font-family="Times Roman,serif" font-size="14.00"> static(reachable)</text>
</g>
<!-- n4 -->
<g id="node4" class="node"><title>n4</title>
<ellipse fill="none" stroke="black" cx="1836" cy="-647" rx="67.8823" ry="31.1127"/>
<text text-anchor="middle" x="1836" y="-652.4" font-family="Times Roman,serif" font-size="14.00">&lt;?_G168&gt;</text>
<text text-anchor="middle" x="1836" y="-634.4" font-family="Times Roman,serif" font-size="14.00">armposture</text>
</g>
<!-- n4&#45;&gt;n4 -->
<g id="edge4" class="edge"><title>n4&#45;&gt;n4</title>
<path fill="none" stroke="black" d="M1899.76,-658.182C1912.72,-656.964 1922,-653.236 1922,-647 1922,-642.518 1917.21,-639.332 1909.7,-637.442"/>
<polygon fill="black" stroke="black" points="1910.19,-633.976 1899.76,-635.818 1909.06,-640.885 1910.19,-633.976"/>
<text text-anchor="middle" x="2006" y="-643.4" font-family="Times Roman,serif" font-size="14.00"> static(armcarryposture)</text>
</g>
<!-- n5 -->
<g id="node5" class="node"><title>n5</title>
<ellipse fill="none" stroke="black" cx="286" cy="-275" rx="65.9683" ry="31.1127"/>
<text text-anchor="middle" x="286" y="-280.4" font-family="Times Roman,serif" font-size="14.00">&lt;?_G137&gt;</text>
<text text-anchor="middle" x="286" y="-262.4" font-family="Times Roman,serif" font-size="14.00">robot</text>
</g>
<!-- n14 -->
<g id="node14" class="node"><title>n14</title>
<ellipse fill="none" stroke="black" cx="494" cy="-151" rx="65.9683" ry="31.1127"/>
<text text-anchor="middle" x="494" y="-156.4" font-family="Times Roman,serif" font-size="14.00">&lt;?_G131&gt;</text>
<text text-anchor="middle" x="494" y="-138.4" font-family="Times Roman,serif" font-size="14.00">arm</text>
</g>
<!-- n5&#45;&gt;n14 -->
<g id="edge56" class="edge"><title>n5&#45;&gt;n14</title>
<path fill="none" stroke="black" d="M309.689,-245.944C324.06,-228.978 341.42,-209.796 351,-204 377.748,-187.816 389.608,-196.652 419,-186 425.687,-183.576 432.592,-180.782 439.381,-177.85"/>
<polygon fill="black" stroke="black" points="440.814,-181.043 448.535,-173.788 437.975,-174.645 440.814,-181.043"/>
<text text-anchor="middle" x="403" y="-209.4" font-family="Times Roman,serif" font-size="14.00"> static(hasarm)</text>
</g>
<!-- n15 -->
<g id="node15" class="node"><title>n15</title>
<ellipse fill="none" stroke="black" cx="223" cy="-151" rx="65.9683" ry="31.1127"/>
<text text-anchor="middle" x="223" y="-156.4" font-family="Times Roman,serif" font-size="14.00">&lt;?_G133&gt;</text>
<text text-anchor="middle" x="223" y="-138.4" font-family="Times Roman,serif" font-size="14.00">arm</text>
</g>
<!-- n5&#45;&gt;n15 -->
<g id="edge32" class="edge"><title>n5&#45;&gt;n15</title>
<path fill="none" stroke="black" d="M246.489,-249.957C237.466,-242.176 229.054,-232.768 224,-222 219.724,-212.889 218.074,-202.368 217.809,-192.264"/>
<polygon fill="black" stroke="black" points="221.314,-192.018 217.983,-181.961 214.315,-191.9 221.314,-192.018"/>
<text text-anchor="middle" x="276" y="-209.4" font-family="Times Roman,serif" font-size="14.00"> static(hasarm)</text>
</g>
<!-- n18 -->
<g id="node18" class="node"><title>n18</title>
<ellipse fill="none" stroke="black" cx="791" cy="-151" rx="65.9966" ry="31.1127"/>
<ellipse fill="none" stroke="black" cx="791" cy="-151" rx="69.9683" ry="35.1127"/>
<text text-anchor="middle" x="791" y="-156.4" font-family="Times Roman,serif" font-size="14.00">&lt;?_G185&gt;</text>
<text text-anchor="middle" x="791" y="-138.4" font-family="Times Roman,serif" font-size="14.00">area</text>
</g>
<!-- n5&#45;&gt;n18 -->
<g id="edge68" class="edge"><title>n5&#45;&gt;n18</title>
<path fill="none" stroke="black" stroke-dasharray="5,2" d="M345.949,-261.825C379.23,-253.148 420.706,-240.028 455,-222 466.49,-215.96 465.91,-208.724 478,-204 570.203,-167.975 603.484,-207.993 700,-186 709.531,-183.828 719.393,-180.855 728.951,-177.553"/>
<polygon fill="black" stroke="black" points="730.16,-180.838 738.385,-174.158 727.79,-174.251 730.16,-180.838"/>
<text text-anchor="middle" x="522.5" y="-209.4" font-family="Times Roman,serif" font-size="14.00"> init(robotat)</text>
</g>
<!-- n19 -->
<g id="node19" class="node"><title>n19</title>
<ellipse fill="none" stroke="black" cx="73" cy="-151" rx="65.9683" ry="31.1127"/>
<text text-anchor="middle" x="73" y="-156.4" font-family="Times Roman,serif" font-size="14.00">&lt;?_G176&gt;</text>
<text text-anchor="middle" x="73" y="-138.4" font-family="Times Roman,serif" font-size="14.00">torso</text>
</g>
<!-- n5&#45;&gt;n19 -->
<g id="edge72" class="edge"><title>n5&#45;&gt;n19</title>
<path fill="none" stroke="black" d="M224.992,-263.044C179.479,-253.077 122.165,-237.972 104,-222 94.8596,-213.963 88.3077,-202.736 83.6564,-191.579"/>
<polygon fill="black" stroke="black" points="86.8118,-190.023 80.0408,-181.874 80.2522,-192.467 86.8118,-190.023"/>
<text text-anchor="middle" x="160" y="-209.4" font-family="Times Roman,serif" font-size="14.00"> static(hastorso)</text>
</g>
<!-- n6 -->
<g id="node6" class="node"><title>n6</title>
<ellipse fill="none" stroke="black" cx="1657" cy="-399" rx="67.1751" ry="31.1127"/>
<ellipse fill="none" stroke="black" cx="1657" cy="-399" rx="71.1751" ry="35.1127"/>
<text text-anchor="middle" x="1657" y="-404.4" font-family="Times Roman,serif" font-size="14.00">&lt;?_G192&gt;</text>
<text text-anchor="middle" x="1657" y="-386.4" font-family="Times Roman,serif" font-size="14.00">placingarea</text>
</g>
<!-- n6&#45;&gt;n6 -->
<g id="edge6" class="edge"><title>n6&#45;&gt;n6</title>
<path fill="none" stroke="black" d="M1724.53,-410.028C1737.13,-408.67 1746,-404.994 1746,-399 1746,-394.785 1741.61,-391.717 1734.63,-389.794"/>
<polygon fill="black" stroke="black" points="1734.99,-386.303 1724.53,-387.972 1733.75,-393.192 1734.99,-386.303"/>
<text text-anchor="middle" x="1823" y="-395.4" font-family="Times Roman,serif" font-size="14.00"> static(placingarealeft)</text>
</g>
<!-- n6&#45;&gt;n20 -->
<g id="edge46" class="edge"><title>n6&#45;&gt;n20</title>
<path fill="none" stroke="black" stroke-dasharray="5,2" d="M1604.97,-374.828C1595.75,-370.952 1586.17,-367.176 1577,-364 1486.66,-332.702 1379.57,-306.529 1309.61,-290.839"/>
<polygon fill="black" stroke="black" points="1310.08,-287.359 1299.56,-288.601 1308.56,-294.191 1310.08,-287.359"/>
<text text-anchor="middle" x="1572" y="-333.4" font-family="Times Roman,serif" font-size="14.00"> static(reachable)</text>
</g>
<!-- n7&#45;&gt;n7 -->
<g id="edge8" class="edge"><title>n7&#45;&gt;n7</title>
<path fill="none" stroke="black" d="M1381.53,-410.028C1394.13,-408.67 1403,-404.994 1403,-399 1403,-394.785 1398.61,-391.717 1391.63,-389.794"/>
<polygon fill="black" stroke="black" points="1391.99,-386.303 1381.53,-387.972 1390.75,-393.192 1391.99,-386.303"/>
<text text-anchor="middle" x="1485.5" y="-395.4" font-family="Times Roman,serif" font-size="14.00"> static(placingarearight)</text>
</g>
<!-- n7&#45;&gt;n20 -->
<g id="edge60" class="edge"><title>n7&#45;&gt;n20</title>
<path fill="none" stroke="black" stroke-dasharray="5,2" d="M1304.55,-364.001C1300.47,-352.053 1294.99,-338.954 1288,-328 1284.77,-322.941 1280.98,-317.985 1276.95,-313.258"/>
<polygon fill="black" stroke="black" points="1279.27,-310.611 1269.97,-305.542 1274.08,-315.307 1279.27,-310.611"/>
<text text-anchor="middle" x="1356" y="-333.4" font-family="Times Roman,serif" font-size="14.00"> static(reachable)</text>
</g>
<!-- n8 -->
<g id="node8" class="node"><title>n8</title>
<ellipse fill="none" stroke="black" cx="875" cy="-523" rx="65.9683" ry="31.1127"/>
<text text-anchor="middle" x="875" y="-528.4" font-family="Times Roman,serif" font-size="14.00">&lt;?_G144&gt;</text>
<text text-anchor="middle" x="875" y="-510.4" font-family="Times Roman,serif" font-size="14.00">table</text>
</g>
<!-- n8&#45;&gt;n3 -->
<g id="edge64" class="edge"><title>n8&#45;&gt;n3</title>
<path fill="none" stroke="black" d="M888.976,-492.384C897.304,-477.713 909.331,-461.341 925,-452 983.433,-417.167 1011.31,-451.677 1077,-434 1085.38,-431.744 1094.02,-428.772 1102.4,-425.511"/>
<polygon fill="black" stroke="black" points="1103.76,-428.734 1111.71,-421.729 1101.13,-422.248 1103.76,-428.734"/>
<text text-anchor="middle" x="1003" y="-457.4" font-family="Times Roman,serif" font-size="14.00"> static(hasplacingarea)</text>
</g>
<!-- n8&#45;&gt;n8 -->
<g id="edge10" class="edge"><title>n8&#45;&gt;n8</title>
<path fill="none" stroke="black" d="M936.534,-534.25C949.579,-533.107 959,-529.357 959,-523 959,-518.431 954.133,-515.208 946.552,-513.333"/>
<polygon fill="black" stroke="black" points="946.957,-509.854 936.534,-511.75 945.865,-516.768 946.957,-509.854"/>
<text text-anchor="middle" x="1012" y="-519.4" font-family="Times Roman,serif" font-size="14.00"> static(counter)</text>
</g>
<!-- n8&#45;&gt;n18 -->
<g id="edge38" class="edge"><title>n8&#45;&gt;n18</title>
<path fill="none" stroke="black" stroke-dasharray="5,2" d="M858.539,-492.742C840.736,-458.331 813.261,-399.912 801,-346 789.545,-295.63 788.184,-236.134 788.959,-196.222"/>
<polygon fill="black" stroke="black" points="792.463,-196.096 789.212,-186.012 785.465,-195.922 792.463,-196.096"/>
<text text-anchor="middle" x="911" y="-333.4" font-family="Times Roman,serif" font-size="14.00"> static(haspremanipulationarea)</text>
</g>
<!-- n8&#45;&gt;n20 -->
<g id="edge70" class="edge"><title>n8&#45;&gt;n20</title>
<path fill="none" stroke="black" stroke-dasharray="5,2" d="M866.374,-492.235C858.425,-456.527 852.144,-398.183 884,-364 905.536,-340.892 994.219,-353.094 1025,-346 1074.82,-334.518 1129.49,-315.833 1170.55,-300.512"/>
<polygon fill="black" stroke="black" points="1172.03,-303.696 1180.16,-296.898 1169.57,-297.144 1172.03,-303.696"/>
<text text-anchor="middle" x="983" y="-395.4" font-family="Times Roman,serif" font-size="14.00"> static(hasmanipulationarea)</text>
</g>
<!-- n9 -->
<g id="node9" class="node"><title>n9</title>
<ellipse fill="none" stroke="black" cx="440" cy="-31" rx="67.8823" ry="31.1127"/>
<text text-anchor="middle" x="440" y="-36.4" font-family="Times Roman,serif" font-size="14.00">&lt;?_G163&gt;</text>
<text text-anchor="middle" x="440" y="-18.4" font-family="Times Roman,serif" font-size="14.00">armposture</text>
</g>
<!-- n9&#45;&gt;n9 -->
<g id="edge12" class="edge"><title>n9&#45;&gt;n9</title>
<path fill="none" stroke="black" d="M504.134,-41.4263C516.898,-40.2528 526,-36.7773 526,-31 526,-26.9378 521.5,-24.0136 514.392,-22.2275"/>
<polygon fill="black" stroke="black" points="514.564,-18.7102 504.134,-20.5737 513.45,-25.6209 514.564,-18.7102"/>
<text text-anchor="middle" x="624.5" y="-27.4" font-family="Times Roman,serif" font-size="14.00"> static(armunnamedposture)</text>
</g>
<!-- n10 -->
<g id="node10" class="node"><title>n10</title>
<ellipse fill="none" stroke="black" cx="1352" cy="-523" rx="65.9966" ry="31.1127"/>
<ellipse fill="none" stroke="black" cx="1352" cy="-523" rx="69.9683" ry="35.1127"/>
<text text-anchor="middle" x="1352" y="-528.4" font-family="Times Roman,serif" font-size="14.00">&lt;?_G110&gt;</text>
<text text-anchor="middle" x="1352" y="-510.4" font-family="Times Roman,serif" font-size="14.00">sittingarea</text>
</g>
<!-- n10&#45;&gt;n6 -->
<g id="edge54" class="edge"><title>n10&#45;&gt;n6</title>
<path fill="none" stroke="black" stroke-dasharray="5,2" d="M1407.7,-501.605C1453.37,-483.91 1519.61,-457.897 1577,-434 1582.79,-431.591 1588.79,-429.047 1594.79,-426.475"/>
<polygon fill="black" stroke="black" points="1596.39,-429.598 1604.18,-422.424 1593.62,-423.17 1596.39,-429.598"/>
<text text-anchor="middle" x="1605" y="-457.4" font-family="Times Roman,serif" font-size="14.00"> static(hasplacingarea)</text>
</g>
<!-- n10&#45;&gt;n7 -->
<g id="edge36" class="edge"><title>n10&#45;&gt;n7</title>
<path fill="none" stroke="black" stroke-dasharray="5,2" d="M1290.88,-505.701C1273.71,-497.713 1257.01,-486.26 1247,-470 1238.53,-456.245 1245.66,-442.892 1257.93,-431.548"/>
<polygon fill="black" stroke="black" points="1260.22,-434.195 1265.68,-425.113 1255.75,-428.811 1260.22,-434.195"/>
<text text-anchor="middle" x="1325" y="-457.4" font-family="Times Roman,serif" font-size="14.00"> static(hasplacingarea)</text>
</g>
<!-- n11 -->
<g id="node11" class="node"><title>n11</title>
<ellipse fill="none" stroke="black" cx="1574" cy="-647" rx="65.9966" ry="31.1127"/>
<ellipse fill="none" stroke="black" cx="1574" cy="-647" rx="69.9683" ry="35.1127"/>
<text text-anchor="middle" x="1574" y="-652.4" font-family="Times Roman,serif" font-size="14.00">&lt;?_G174&gt;</text>
<text text-anchor="middle" x="1574" y="-634.4" font-family="Times Roman,serif" font-size="14.00">table</text>
</g>
<!-- n11&#45;&gt;n6 -->
<g id="edge34" class="edge"><title>n11&#45;&gt;n6</title>
<path fill="none" stroke="black" stroke-dasharray="5,2" d="M1635.28,-630.042C1670.86,-616.7 1712.73,-594.168 1734,-558 1749.77,-531.182 1744.86,-517.154 1734,-488 1726.89,-468.924 1713.66,-451.216 1700.13,-436.7"/>
<polygon fill="black" stroke="black" points="1702.54,-434.155 1693.07,-429.41 1697.52,-439.027 1702.54,-434.155"/>
<text text-anchor="middle" x="1822" y="-519.4" font-family="Times Roman,serif" font-size="14.00"> static(hasplacingarea)</text>
</g>
<!-- n11&#45;&gt;n7 -->
<g id="edge58" class="edge"><title>n11&#45;&gt;n7</title>
<path fill="none" stroke="black" stroke-dasharray="5,2" d="M1569.85,-611.826C1566.99,-579.314 1565.12,-529.854 1574,-488 1577.4,-471.967 1592.4,-464.664 1582,-452 1558.61,-423.533 1464.91,-410.098 1394.85,-403.934"/>
<polygon fill="black" stroke="black" points="1394.95,-400.431 1384.69,-403.077 1394.36,-407.406 1394.95,-400.431"/>
<text text-anchor="middle" x="1652" y="-519.4" font-family="Times Roman,serif" font-size="14.00"> static(hasplacingarea)</text>
</g>
<!-- n11&#45;&gt;n10 -->
<g id="edge66" class="edge"><title>n11&#45;&gt;n10</title>
<path fill="none" stroke="black" stroke-dasharray="5,2" d="M1507.75,-635.044C1475.91,-627.063 1438.37,-614.207 1409,-594 1397.69,-586.218 1387.49,-575.544 1378.95,-564.835"/>
<polygon fill="black" stroke="black" points="1381.6,-562.528 1372.76,-556.687 1376.02,-566.765 1381.6,-562.528"/>
<text text-anchor="middle" x="1484.5" y="-581.4" font-family="Times Roman,serif" font-size="14.00"> static(hassittingarea)</text>
</g>
<!-- n11&#45;&gt;n11 -->
<g id="edge14" class="edge"><title>n11&#45;&gt;n11</title>
<path fill="none" stroke="black" d="M1640.77,-658.028C1653.23,-656.67 1662,-652.994 1662,-647 1662,-642.785 1657.66,-639.717 1650.76,-637.794"/>
<polygon fill="black" stroke="black" points="1651.23,-634.324 1640.77,-635.972 1649.98,-641.21 1651.23,-634.324"/>
<text text-anchor="middle" x="1706" y="-643.4" font-family="Times Roman,serif" font-size="14.00"> static(table)</text>
</g>
<!-- n11&#45;&gt;n18 -->
<g id="edge42" class="edge"><title>n11&#45;&gt;n18</title>
<path fill="none" stroke="black" stroke-dasharray="5,2" d="M1503.78,-645.616C1277.33,-640.233 581,-616.111 581,-523 581,-523 581,-523 581,-275 581,-240.97 663.8,-200.785 725.416,-175.592"/>
<polygon fill="black" stroke="black" points="726.762,-178.823 734.724,-171.834 724.141,-172.333 726.762,-178.823"/>
<text text-anchor="middle" x="691" y="-395.4" font-family="Times Roman,serif" font-size="14.00"> static(haspremanipulationarea)</text>
</g>
<!-- n11&#45;&gt;n20 -->
<g id="edge40" class="edge"><title>n11&#45;&gt;n20</title>
<path fill="none" stroke="black" stroke-dasharray="5,2" d="M1639.2,-633.723C1730.53,-614.488 1887.31,-578.895 1904,-558 1957.82,-490.601 1965.86,-428.858 1909,-364 1870.3,-319.859 1484.74,-290.576 1314.77,-279.715"/>
<polygon fill="black" stroke="black" points="1314.83,-276.212 1304.63,-279.073 1314.39,-283.198 1314.83,-276.212"/>
<text text-anchor="middle" x="2047" y="-457.4" font-family="Times Roman,serif" font-size="14.00"> static(hasmanipulationarea)</text>
</g>
<!-- n12 -->
<g id="node12" class="node"><title>n12</title>
<ellipse fill="none" stroke="black" cx="2176" cy="-647" rx="67.8823" ry="31.1127"/>
<text text-anchor="middle" x="2176" y="-652.4" font-family="Times Roman,serif" font-size="14.00">&lt;?_G171&gt;</text>
<text text-anchor="middle" x="2176" y="-634.4" font-family="Times Roman,serif" font-size="14.00">armposture</text>
</g>
<!-- n12&#45;&gt;n12 -->
<g id="edge16" class="edge"><title>n12&#45;&gt;n12</title>
<path fill="none" stroke="black" d="M2239.76,-658.182C2252.72,-656.964 2262,-653.236 2262,-647 2262,-642.518 2257.21,-639.332 2249.7,-637.442"/>
<polygon fill="black" stroke="black" points="2250.19,-633.976 2239.76,-635.818 2249.06,-640.885 2250.19,-633.976"/>
<text text-anchor="middle" x="2349" y="-643.4" font-family="Times Roman,serif" font-size="14.00"> static(armtosideposture)</text>
</g>
<!-- n13 -->
<g id="node13" class="node"><title>n13</title>
<ellipse fill="none" stroke="black" cx="2527" cy="-647" rx="73.0388" ry="31.1127"/>
<text text-anchor="middle" x="2527" y="-652.4" font-family="Times Roman,serif" font-size="14.00">&lt;?_G193&gt;</text>
<text text-anchor="middle" x="2527" y="-634.4" font-family="Times Roman,serif" font-size="14.00">torsoposture</text>
</g>
<!-- n13&#45;&gt;n13 -->
<g id="edge18" class="edge"><title>n13&#45;&gt;n13</title>
<path fill="none" stroke="black" d="M2595.26,-658.108C2608.56,-656.818 2618,-653.115 2618,-647 2618,-642.557 2613.02,-639.387 2605.19,-637.492"/>
<polygon fill="black" stroke="black" points="2605.69,-634.027 2595.26,-635.892 2604.58,-640.938 2605.69,-634.027"/>
<text text-anchor="middle" x="2711" y="-643.4" font-family="Times Roman,serif" font-size="14.00"> static(torsomiddleposture)</text>
</g>
<!-- n14&#45;&gt;n9 -->
<g id="edge48" class="edge"><title>n14&#45;&gt;n9</title>
<path fill="none" stroke="black" d="M480.234,-120.408C473.442,-105.316 465.167,-86.9259 457.891,-70.7572"/>
<polygon fill="black" stroke="black" points="461.036,-69.2186 453.741,-61.5357 454.653,-72.0912 461.036,-69.2186"/>
<text text-anchor="middle" x="540" y="-85.4" font-family="Times Roman,serif" font-size="14.00"> init(hasarmposture)</text>
</g>
<!-- n14&#45;&gt;n14 -->
<g id="edge20" class="edge"><title>n14&#45;&gt;n14</title>
<path fill="none" stroke="black" d="M555.534,-162.25C568.579,-161.107 578,-157.357 578,-151 578,-146.431 573.133,-143.208 565.552,-141.333"/>
<polygon fill="black" stroke="black" points="565.957,-137.854 555.534,-139.75 564.865,-144.768 565.957,-137.854"/>
<text text-anchor="middle" x="634.5" y="-156.4" font-family="Times Roman,serif" font-size="14.00"> static(rightarm)</text>
<text text-anchor="middle" x="634.5" y="-138.4" font-family="Times Roman,serif" font-size="14.00">init(armfree)</text>
</g>
<!-- n15&#45;&gt;n9 -->
<g id="edge52" class="edge"><title>n15&#45;&gt;n9</title>
<path fill="none" stroke="black" d="M254.579,-123.764C272.16,-109.493 294.905,-92.4465 317,-80 335.33,-69.6748 356.275,-60.4694 375.622,-52.9028"/>
<polygon fill="black" stroke="black" points="376.886,-56.1668 384.973,-49.3223 374.382,-49.6297 376.886,-56.1668"/>
<text text-anchor="middle" x="388" y="-85.4" font-family="Times Roman,serif" font-size="14.00"> init(hasarmposture)</text>
</g>
<!-- n15&#45;&gt;n15 -->
<g id="edge22" class="edge"><title>n15&#45;&gt;n15</title>
<path fill="none" stroke="black" d="M284.534,-162.25C297.579,-161.107 307,-157.357 307,-151 307,-146.431 302.133,-143.208 294.552,-141.333"/>
<polygon fill="black" stroke="black" points="294.957,-137.854 284.534,-139.75 293.865,-144.768 294.957,-137.854"/>
<text text-anchor="middle" x="358.5" y="-156.4" font-family="Times Roman,serif" font-size="14.00"> static(leftarm)</text>
<text text-anchor="middle" x="358.5" y="-138.4" font-family="Times Roman,serif" font-size="14.00">init(armfree)</text>
</g>
<!-- n16 -->
<g id="node16" class="node"><title>n16</title>
<ellipse fill="none" stroke="black" cx="2890" cy="-647" rx="67.8823" ry="31.1127"/>
<text text-anchor="middle" x="2890" y="-652.4" font-family="Times Roman,serif" font-size="14.00">&lt;?_G167&gt;</text>
<text text-anchor="middle" x="2890" y="-634.4" font-family="Times Roman,serif" font-size="14.00">armposture</text>
</g>
<!-- n16&#45;&gt;n16 -->
<g id="edge24" class="edge"><title>n16&#45;&gt;n16</title>
<path fill="none" stroke="black" d="M2953.76,-658.182C2966.72,-656.964 2976,-653.236 2976,-647 2976,-642.518 2971.21,-639.332 2963.7,-637.442"/>
<polygon fill="black" stroke="black" points="2964.19,-633.976 2953.76,-635.818 2963.06,-640.885 2964.19,-633.976"/>
<text text-anchor="middle" x="3065" y="-643.4" font-family="Times Roman,serif" font-size="14.00"> static(armtuckedposture)</text>
</g>
<!-- n17 -->
<g id="node17" class="node"><title>n17</title>
<ellipse fill="none" stroke="black" cx="3245" cy="-647" rx="73.0388" ry="31.1127"/>
<text text-anchor="middle" x="3245" y="-652.4" font-family="Times Roman,serif" font-size="14.00">&lt;?_G191&gt;</text>
<text text-anchor="middle" x="3245" y="-634.4" font-family="Times Roman,serif" font-size="14.00">torsoposture</text>
</g>
<!-- n17&#45;&gt;n17 -->
<g id="edge26" class="edge"><title>n17&#45;&gt;n17</title>
<path fill="none" stroke="black" d="M3313.26,-658.108C3326.56,-656.818 3336,-653.115 3336,-647 3336,-642.557 3331.02,-639.387 3323.19,-637.492"/>
<polygon fill="black" stroke="black" points="3323.69,-634.027 3313.26,-635.892 3322.58,-640.938 3323.69,-634.027"/>
<text text-anchor="middle" x="3425.5" y="-643.4" font-family="Times Roman,serif" font-size="14.00"> static(torsodownposture)</text>
</g>
<!-- n18&#45;&gt;n18 -->
<g id="edge28" class="edge"><title>n18&#45;&gt;n18</title>
<path fill="none" stroke="black" d="M857.768,-162.028C870.226,-160.67 879,-156.994 879,-151 879,-146.785 874.662,-143.717 867.756,-141.794"/>
<polygon fill="black" stroke="black" points="868.234,-138.324 857.768,-139.972 866.978,-145.21 868.234,-138.324"/>
<text text-anchor="middle" x="977" y="-147.4" font-family="Times Roman,serif" font-size="14.00"> static(premanipulationarea)</text>
</g>
<!-- n19&#45;&gt;n1 -->
<g id="edge62" class="edge"><title>n19&#45;&gt;n1</title>
<path fill="none" stroke="black" d="M73,-119.785C73,-105.34 73,-87.979 73,-72.4547"/>
<polygon fill="black" stroke="black" points="76.5001,-72.059 73,-62.059 69.5001,-72.0591 76.5001,-72.059"/>
<text text-anchor="middle" x="148" y="-85.4" font-family="Times Roman,serif" font-size="14.00"> init(hastorsoposture)</text>
</g>
<!-- n20&#45;&gt;n18 -->
<g id="edge50" class="edge"><title>n20&#45;&gt;n18</title>
<path fill="none" stroke="black" stroke-dasharray="5,2" d="M1173.73,-257.889C1092.18,-235.114 948.273,-194.923 862.058,-170.845"/>
<polygon fill="black" stroke="black" points="862.927,-167.454 852.354,-168.135 861.044,-174.196 862.927,-167.454"/>
<text text-anchor="middle" x="1149" y="-209.4" font-family="Times Roman,serif" font-size="14.00"> static(haspremanipulationarea)</text>
</g>
<!-- n20&#45;&gt;n20 -->
<g id="edge30" class="edge"><title>n20&#45;&gt;n20</title>
<path fill="none" stroke="black" d="M1301.77,-286.028C1314.23,-284.67 1323,-280.994 1323,-275 1323,-270.785 1318.66,-267.717 1311.76,-265.794"/>
<polygon fill="black" stroke="black" points="1312.23,-262.324 1301.77,-263.972 1310.98,-269.21 1312.23,-262.324"/>
<text text-anchor="middle" x="1410" y="-271.4" font-family="Times Roman,serif" font-size="14.00"> static(manipulationarea)</text>
</g>
<!-- n21 -->
<g id="node21" class="node"><title>n21</title>
<ellipse fill="none" stroke="black" cx="3599" cy="-647" rx="65.9683" ry="31.1127"/>
<text text-anchor="middle" x="3599" y="-652.4" font-family="Times Roman,serif" font-size="14.00">&lt;?_G105&gt;</text>
<text text-anchor="middle" x="3599" y="-634.4" font-family="Times Roman,serif" font-size="14.00">area</text>
</g>
<!-- n22 -->
<g id="node22" class="node"><title>n22</title>
<ellipse fill="none" stroke="black" cx="499" cy="-647" rx="65.9683" ry="31.1127"/>
<text text-anchor="middle" x="499" y="-652.4" font-family="Times Roman,serif" font-size="14.00">&lt;?_G107&gt;</text>
<text text-anchor="middle" x="499" y="-634.4" font-family="Times Roman,serif" font-size="14.00">guest</text>
</g>
<!-- n22&#45;&gt;n10 -->
<g id="edge44" class="edge"><title>n22&#45;&gt;n10</title>
<path fill="none" stroke="black" stroke-dasharray="5,2" d="M564.537,-642.643C693.43,-633.283 988.537,-607.938 1232,-558 1248.88,-554.537 1266.84,-549.855 1283.58,-545.042"/>
<polygon fill="black" stroke="black" points="1284.66,-548.372 1293.27,-542.202 1282.69,-541.654 1284.66,-548.372"/>
<text text-anchor="middle" x="1166.5" y="-581.4" font-family="Times Roman,serif" font-size="14.00"> static(at)</text>
</g>
</g>
</svg>
