<?xml version="1.0" encoding="UTF-8" standalone="no"?>
<!DOCTYPE svg PUBLIC "-//W3C//DTD SVG 1.1//EN"
 "http://www.w3.org/Graphics/SVG/1.1/DTD/svg11.dtd">
<!-- Generated by graphviz version 2.38.0 (20140413.2041)
 -->
<!-- Title: Struc Pages: 1 -->
<svg width="3800pt" height="376pt"
 viewBox="0.00 0.00 3799.88 375.96" xmlns="http://www.w3.org/2000/svg" xmlns:xlink="http://www.w3.org/1999/xlink">
<g id="graph0" class="graph" transform="scale(1 1) rotate(0) translate(4 371.96)">
<title>Struc</title>
<polygon fill="white" stroke="none" points="-4,4 -4,-371.96 3795.88,-371.96 3795.88,4 -4,4"/>
<!-- n1 -->
<g id="node1" class="node"><title>n1</title>
<ellipse fill="none" stroke="black" cx="1635.88" cy="-341.09" rx="56.6372" ry="26.7407"/>
<text text-anchor="middle" x="1635.88" y="-344.89" font-family="Times,serif" font-size="14.00">&lt;camera0&gt;</text>
<text text-anchor="middle" x="1635.88" y="-329.89" font-family="Times,serif" font-size="14.00">camera</text>
</g>
<!-- n5 -->
<g id="node5" class="node"><title>n5</title>
<ellipse fill="none" stroke="black" cx="1918.88" cy="-236.35" rx="48.1667" ry="26.7407"/>
<text text-anchor="middle" x="1918.88" y="-240.15" font-family="Times,serif" font-size="14.00">&lt;rover0&gt;</text>
<text text-anchor="middle" x="1918.88" y="-225.15" font-family="Times,serif" font-size="14.00">rover</text>
</g>
<!-- n1&#45;&gt;n5 -->
<g id="edge11" class="edge"><title>n1&#45;&gt;n5</title>
<path fill="none" stroke="black" d="M1683.15,-326.27C1710.65,-318.007 1745.9,-307.039 1776.88,-296.22 1815.14,-282.859 1824.53,-278.934 1861.88,-263.22 1865.55,-261.676 1869.34,-260.044 1873.14,-258.381"/>
<polygon fill="black" stroke="black" points="1874.8,-261.47 1882.53,-254.215 1871.97,-255.071 1874.8,-261.47"/>
<text text-anchor="middle" x="1865.38" y="-285.02" font-family="Times,serif" font-size="14.00"> static(on_board)</text>
</g>
<!-- n6 -->
<g id="node6" class="node"><title>n6</title>
<ellipse fill="none" stroke="black" cx="553.882" cy="-131.61" rx="56.6372" ry="26.7407"/>
<text text-anchor="middle" x="553.882" y="-135.41" font-family="Times,serif" font-size="14.00">&lt;high_res&gt;</text>
<text text-anchor="middle" x="553.882" y="-120.41" font-family="Times,serif" font-size="14.00">mode</text>
</g>
<!-- n1&#45;&gt;n6 -->
<g id="edge5" class="edge"><title>n1&#45;&gt;n6</title>
<path fill="none" stroke="black" d="M1579.91,-336.593C1368.93,-323.318 632.606,-276.156 611.882,-263.22 580.54,-243.656 584.185,-225.546 569.882,-191.48 566.832,-184.215 564.203,-176.2 562.009,-168.486"/>
<polygon fill="black" stroke="black" points="565.332,-167.366 559.375,-158.605 558.569,-169.169 565.332,-167.366"/>
<text text-anchor="middle" x="655.882" y="-232.65" font-family="Times,serif" font-size="14.00"> static(supports)</text>
</g>
<!-- n15 -->
<g id="node15" class="node"><title>n15</title>
<ellipse fill="none" stroke="black" cx="1635.88" cy="-236.35" rx="62.8651" ry="26.7407"/>
<text text-anchor="middle" x="1635.88" y="-240.15" font-family="Times,serif" font-size="14.00">&lt;objective8&gt;</text>
<text text-anchor="middle" x="1635.88" y="-225.15" font-family="Times,serif" font-size="14.00">objective</text>
</g>
<!-- n1&#45;&gt;n15 -->
<g id="edge22" class="edge"><title>n1&#45;&gt;n15</title>
<path fill="none" stroke="black" d="M1635.88,-314.165C1635.88,-301.875 1635.88,-286.987 1635.88,-273.602"/>
<polygon fill="black" stroke="black" points="1639.38,-273.268 1635.88,-263.268 1632.38,-273.268 1639.38,-273.268"/>
<text text-anchor="middle" x="1704.38" y="-285.02" font-family="Times,serif" font-size="14.00"> static(calibration_target)</text>
</g>
<!-- n2 -->
<g id="node2" class="node"><title>n2</title>
<ellipse fill="none" stroke="black" cx="2837.88" cy="-236.35" rx="51.7379" ry="26.7407"/>
<text text-anchor="middle" x="2837.88" y="-240.15" font-family="Times,serif" font-size="14.00">&lt;general&gt;</text>
<text text-anchor="middle" x="2837.88" y="-225.15" font-family="Times,serif" font-size="14.00">lander</text>
</g>
<!-- n2&#45;&gt;n2 -->
<g id="edge1" class="edge"><title>n2&#45;&gt;n2</title>
<path fill="none" stroke="black" d="M2886.36,-245.966C2898.46,-245.294 2907.5,-242.089 2907.5,-236.35 2907.5,-232.405 2903.23,-229.657 2896.62,-228.107"/>
<polygon fill="black" stroke="black" points="2896.74,-224.59 2886.36,-226.734 2895.81,-231.529 2896.74,-224.59"/>
<text text-anchor="middle" x="2958" y="-232.65" font-family="Times,serif" font-size="14.00"> init(channel_free)</text>
</g>
<!-- n9 -->
<g id="node9" class="node"><title>n9</title>
<ellipse fill="none" stroke="black" cx="2180.88" cy="-131.61" rx="63.7795" ry="26.7407"/>
<text text-anchor="middle" x="2180.88" y="-135.41" font-family="Times,serif" font-size="14.00">&lt;waypoint0&gt;</text>
<text text-anchor="middle" x="2180.88" y="-120.41" font-family="Times,serif" font-size="14.00">waypoint</text>
</g>
<!-- n2&#45;&gt;n9 -->
<g id="edge10" class="edge"><title>n2&#45;&gt;n9</title>
<path fill="none" stroke="black" d="M2816.64,-211.667C2803.64,-198.867 2785.89,-184.149 2766.88,-176.48 2675.94,-139.788 2391.13,-133.465 2254.9,-132.59"/>
<polygon fill="black" stroke="black" points="2254.58,-129.089 2244.56,-132.533 2254.54,-136.089 2254.58,-129.089"/>
<text text-anchor="middle" x="2839.88" y="-180.28" font-family="Times,serif" font-size="14.00"> static(at_lander)</text>
</g>
<!-- n3 -->
<g id="node3" class="node"><title>n3</title>
<ellipse fill="none" stroke="black" cx="1203.88" cy="-236.35" rx="62.8651" ry="26.7407"/>
<text text-anchor="middle" x="1203.88" y="-240.15" font-family="Times,serif" font-size="14.00">&lt;objective1&gt;</text>
<text text-anchor="middle" x="1203.88" y="-225.15" font-family="Times,serif" font-size="14.00">objective</text>
</g>
<!-- n3&#45;&gt;n9 -->
<g id="edge26" class="edge"><title>n3&#45;&gt;n9</title>
<path fill="none" stroke="black" d="M1248.72,-217.438C1257.61,-214.401 1266.96,-211.562 1275.88,-209.48 1344.71,-193.423 1364.92,-206.972 1433.88,-191.48 1454.04,-186.951 1457.59,-180.339 1477.88,-176.48 1644.42,-144.817 1689.7,-169.27 1858.88,-158.48 1944.82,-153 2043.5,-144.788 2108.72,-139.092"/>
<polygon fill="black" stroke="black" points="2109.24,-142.56 2118.9,-138.2 2108.63,-135.587 2109.24,-142.56"/>
<text text-anchor="middle" x="1533.88" y="-180.28" font-family="Times,serif" font-size="14.00"> static(visible_from)</text>
</g>
<!-- n20 -->
<g id="node20" class="node"><title>n20</title>
<ellipse fill="none" stroke="black" cx="2079.88" cy="-26.8701" rx="63.7795" ry="26.7407"/>
<text text-anchor="middle" x="2079.88" y="-30.6701" font-family="Times,serif" font-size="14.00">&lt;waypoint1&gt;</text>
<text text-anchor="middle" x="2079.88" y="-15.6701" font-family="Times,serif" font-size="14.00">waypoint</text>
</g>
<!-- n3&#45;&gt;n20 -->
<g id="edge35" class="edge"><title>n3&#45;&gt;n20</title>
<path fill="none" stroke="black" d="M1249.15,-217.456C1257.92,-214.455 1267.11,-211.625 1275.88,-209.48 1333.83,-195.317 1355.05,-217.171 1408.88,-191.48 1459.6,-167.277 1450.33,-129.29 1500.88,-104.74 1588.56,-62.1599 1871.06,-40.1821 2006.34,-31.8759"/>
<polygon fill="black" stroke="black" points="2006.84,-35.3523 2016.61,-31.2544 2006.42,-28.3651 2006.84,-35.3523"/>
<text text-anchor="middle" x="1556.88" y="-127.91" font-family="Times,serif" font-size="14.00"> static(visible_from)</text>
</g>
<!-- n4 -->
<g id="node4" class="node"><title>n4</title>
<ellipse fill="none" stroke="black" cx="67.8823" cy="-236.35" rx="67.7647" ry="26.7407"/>
<text text-anchor="middle" x="67.8823" y="-240.15" font-family="Times,serif" font-size="14.00">&lt;objective17&gt;</text>
<text text-anchor="middle" x="67.8823" y="-225.15" font-family="Times,serif" font-size="14.00">objective</text>
</g>
<!-- n4&#45;&gt;n6 -->
<g id="edge27" class="edge"><title>n4&#45;&gt;n6</title>
<path fill="none" stroke="black" d="M61.21,-209.581C59.8482,-198.068 60.8103,-185.166 68.8823,-176.48 82.9439,-161.349 358.258,-143.75 487.693,-136.272"/>
<polygon fill="black" stroke="black" points="488.097,-139.754 497.88,-135.687 487.696,-132.766 488.097,-139.754"/>
<text text-anchor="middle" x="160.882" y="-180.28" font-family="Times,serif" font-size="14.00"> end(communicated_image_data)</text>
</g>
<!-- n4&#45;&gt;n9 -->
<g id="edge14" class="edge"><title>n4&#45;&gt;n9</title>
<path fill="none" stroke="black" d="M125.892,-222.335C146.923,-217.884 170.909,-213.116 192.882,-209.48 309.977,-190.104 339.472,-184.588 457.882,-176.48 1079.15,-133.939 1236.84,-187.431 1858.88,-158.48 1945.16,-154.465 2044.17,-145.917 2109.36,-139.745"/>
<polygon fill="black" stroke="black" points="2109.91,-143.209 2119.53,-138.775 2109.24,-136.24 2109.91,-143.209"/>
<text text-anchor="middle" x="513.882" y="-180.28" font-family="Times,serif" font-size="14.00"> static(visible_from)</text>
</g>
<!-- n4&#45;&gt;n20 -->
<g id="edge28" class="edge"><title>n4&#45;&gt;n20</title>
<path fill="none" stroke="black" d="M55.3477,-209.921C51.6992,-198.617 50.4373,-185.792 57.8823,-176.48 148.359,-63.3181 232.286,-124.022 375.882,-104.74 698.234,-61.4545 1721.96,-35.8558 2006.11,-29.4605"/>
<polygon fill="black" stroke="black" points="2006.38,-32.9554 2016.3,-29.2322 2006.23,-25.9571 2006.38,-32.9554"/>
<text text-anchor="middle" x="431.882" y="-127.91" font-family="Times,serif" font-size="14.00"> static(visible_from)</text>
</g>
<!-- n5&#45;&gt;n5 -->
<g id="edge2" class="edge"><title>n5&#45;&gt;n5</title>
<path fill="none" stroke="black" d="M1963.98,-246.015C1975.92,-245.462 1984.97,-242.241 1984.97,-236.35 1984.97,-232.3 1980.69,-229.512 1974.14,-227.986"/>
<polygon fill="black" stroke="black" points="1974.34,-224.483 1963.98,-226.686 1973.45,-231.427 1974.34,-224.483"/>
<text text-anchor="middle" x="2078.47" y="-247.65" font-family="Times,serif" font-size="14.00"> static(equipped_for_imaging)</text>
<text text-anchor="middle" x="2078.47" y="-232.65" font-family="Times,serif" font-size="14.00">init(available)</text>
<text text-anchor="middle" x="2078.47" y="-217.65" font-family="Times,serif" font-size="14.00">static(equipped_for_soil_analysis)</text>
</g>
<!-- n5&#45;&gt;n9 -->
<g id="edge40" class="edge"><title>n5&#45;&gt;n9</title>
<path fill="none" stroke="black" d="M1966.43,-232.164C2027.87,-227.136 2130.34,-215.373 2158.88,-191.48 2165.99,-185.527 2170.81,-177.036 2174.07,-168.349"/>
<polygon fill="black" stroke="black" points="2177.48,-169.172 2177.13,-158.583 2170.8,-167.08 2177.48,-169.172"/>
<text text-anchor="middle" x="2191.38" y="-180.28" font-family="Times,serif" font-size="14.00"> init(at)</text>
</g>
<!-- n7 -->
<g id="node7" class="node"><title>n7</title>
<ellipse fill="none" stroke="black" cx="1059.88" cy="-236.35" rx="62.8651" ry="26.7407"/>
<text text-anchor="middle" x="1059.88" y="-240.15" font-family="Times,serif" font-size="14.00">&lt;objective7&gt;</text>
<text text-anchor="middle" x="1059.88" y="-225.15" font-family="Times,serif" font-size="14.00">objective</text>
</g>
<!-- n7&#45;&gt;n9 -->
<g id="edge31" class="edge"><title>n7&#45;&gt;n9</title>
<path fill="none" stroke="black" d="M1105.13,-217.396C1113.9,-214.401 1123.1,-211.588 1131.88,-209.48 1193.74,-194.636 1211.9,-205.817 1273.88,-191.48 1294.01,-186.824 1297.56,-180.198 1317.88,-176.48 1436.21,-154.838 1738.79,-165.299 1858.88,-158.48 1944.98,-153.592 2043.83,-145.242 2109.04,-139.353"/>
<polygon fill="black" stroke="black" points="2109.57,-142.819 2119.21,-138.43 2108.94,-135.848 2109.57,-142.819"/>
<text text-anchor="middle" x="1373.88" y="-180.28" font-family="Times,serif" font-size="14.00"> static(visible_from)</text>
</g>
<!-- n7&#45;&gt;n20 -->
<g id="edge19" class="edge"><title>n7&#45;&gt;n20</title>
<path fill="none" stroke="black" d="M1105.18,-217.585C1113.94,-214.572 1123.13,-211.704 1131.88,-209.48 1182.87,-196.525 1202.14,-215.637 1248.88,-191.48 1296.56,-166.839 1285.15,-129.276 1332.88,-104.74 1449.15,-44.9707 1841.7,-31.6716 2006.29,-28.7146"/>
<polygon fill="black" stroke="black" points="2006.39,-32.2136 2016.33,-28.5422 2006.27,-25.2146 2006.39,-32.2136"/>
<text text-anchor="middle" x="1388.88" y="-127.91" font-family="Times,serif" font-size="14.00"> static(visible_from)</text>
</g>
<!-- n8 -->
<g id="node8" class="node"><title>n8</title>
<ellipse fill="none" stroke="black" cx="3094.88" cy="-236.35" rx="67.7647" ry="26.7407"/>
<text text-anchor="middle" x="3094.88" y="-240.15" font-family="Times,serif" font-size="14.00">&lt;objective15&gt;</text>
<text text-anchor="middle" x="3094.88" y="-225.15" font-family="Times,serif" font-size="14.00">objective</text>
</g>
<!-- n8&#45;&gt;n9 -->
<g id="edge23" class="edge"><title>n8&#45;&gt;n9</title>
<path fill="none" stroke="black" d="M3045.94,-217.617C3004.88,-203.637 2944.38,-185.11 2889.88,-176.48 2660.4,-140.139 2384.69,-133.527 2255.09,-132.569"/>
<polygon fill="black" stroke="black" points="2254.9,-129.068 2244.88,-132.504 2254.86,-136.068 2254.9,-129.068"/>
<text text-anchor="middle" x="3014.88" y="-180.28" font-family="Times,serif" font-size="14.00"> static(visible_from)</text>
</g>
<!-- n9&#45;&gt;n20 -->
<g id="edge30" class="edge"><title>n9&#45;&gt;n20</title>
<path fill="none" stroke="black" d="M2175.49,-104.771C2172.16,-93.6493 2166.93,-81.0841 2158.88,-71.7401 2151.98,-63.7212 2143.23,-56.8825 2134.09,-51.1588"/>
<polygon fill="black" stroke="black" points="2135.65,-48.0189 2125.25,-46.0107 2132.13,-54.0678 2135.65,-48.0189"/>
<text text-anchor="middle" x="2207.88" y="-75.5401" font-family="Times,serif" font-size="14.00"> static(visible)</text>
</g>
<!-- n10 -->
<g id="node10" class="node"><title>n10</title>
<ellipse fill="none" stroke="black" cx="1784.88" cy="-236.35" rx="67.7647" ry="26.7407"/>
<text text-anchor="middle" x="1784.88" y="-240.15" font-family="Times,serif" font-size="14.00">&lt;objective14&gt;</text>
<text text-anchor="middle" x="1784.88" y="-225.15" font-family="Times,serif" font-size="14.00">objective</text>
</g>
<!-- n10&#45;&gt;n9 -->
<g id="edge13" class="edge"><title>n10&#45;&gt;n9</title>
<path fill="none" stroke="black" d="M1833.32,-217.333C1842.7,-214.343 1852.52,-211.549 1861.88,-209.48 1932.62,-193.855 1956.86,-218.987 2023.88,-191.48 2033.84,-187.395 2033.38,-181.525 2042.88,-176.48 2065.62,-164.41 2092.24,-154.977 2116.01,-148.003"/>
<polygon fill="black" stroke="black" points="2116.99,-151.362 2125.65,-145.26 2115.08,-144.63 2116.99,-151.362"/>
<text text-anchor="middle" x="2098.88" y="-180.28" font-family="Times,serif" font-size="14.00"> static(visible_from)</text>
</g>
<!-- n11 -->
<g id="node11" class="node"><title>n11</title>
<ellipse fill="none" stroke="black" cx="771.882" cy="-236.35" rx="62.8651" ry="26.7407"/>
<text text-anchor="middle" x="771.882" y="-240.15" font-family="Times,serif" font-size="14.00">&lt;objective2&gt;</text>
<text text-anchor="middle" x="771.882" y="-225.15" font-family="Times,serif" font-size="14.00">objective</text>
</g>
<!-- n11&#45;&gt;n6 -->
<g id="edge36" class="edge"><title>n11&#45;&gt;n6</title>
<path fill="none" stroke="black" d="M724.993,-218.291C715.132,-215.073 704.732,-211.947 694.882,-209.48 648.103,-197.765 627.495,-218.982 587.882,-191.48 579.229,-185.473 572.477,-176.499 567.352,-167.357"/>
<polygon fill="black" stroke="black" points="570.392,-165.611 562.76,-158.263 564.143,-168.767 570.392,-165.611"/>
<text text-anchor="middle" x="679.882" y="-180.28" font-family="Times,serif" font-size="14.00"> end(communicated_image_data)</text>
</g>
<!-- n11&#45;&gt;n9 -->
<g id="edge17" class="edge"><title>n11&#45;&gt;n9</title>
<path fill="none" stroke="black" d="M773.56,-209.353C775.787,-197.345 780.614,-184.089 790.882,-176.48 814.721,-158.815 1829.25,-159.919 1858.88,-158.48 1945.02,-154.298 2043.86,-145.806 2109.06,-139.691"/>
<polygon fill="black" stroke="black" points="2109.6,-143.155 2119.23,-138.731 2108.94,-136.186 2109.6,-143.155"/>
<text text-anchor="middle" x="846.882" y="-180.28" font-family="Times,serif" font-size="14.00"> static(visible_from)</text>
</g>
<!-- n12 -->
<g id="node12" class="node"><title>n12</title>
<ellipse fill="none" stroke="black" cx="385.882" cy="-341.09" rx="56.6372" ry="26.7407"/>
<text text-anchor="middle" x="385.882" y="-344.89" font-family="Times,serif" font-size="14.00">&lt;camera1&gt;</text>
<text text-anchor="middle" x="385.882" y="-329.89" font-family="Times,serif" font-size="14.00">camera</text>
</g>
<!-- n12&#45;&gt;n5 -->
<g id="edge34" class="edge"><title>n12&#45;&gt;n5</title>
<path fill="none" stroke="black" d="M442.024,-337.237C710.751,-323.568 1853.08,-265.365 1861.88,-263.22 1866.28,-262.149 1870.75,-260.743 1875.16,-259.138"/>
<polygon fill="black" stroke="black" points="1876.66,-262.309 1884.65,-255.361 1874.07,-255.805 1876.66,-262.309"/>
<text text-anchor="middle" x="1547.38" y="-285.02" font-family="Times,serif" font-size="14.00"> static(on_board)</text>
</g>
<!-- n12&#45;&gt;n6 -->
<g id="edge46" class="edge"><title>n12&#45;&gt;n6</title>
<path fill="none" stroke="black" d="M371.244,-315.017C356.99,-286.958 340.367,-241.27 361.882,-209.48 370.029,-197.443 444.683,-169.88 498.452,-151.247"/>
<polygon fill="black" stroke="black" points="499.914,-154.445 508.228,-147.878 497.633,-147.827 499.914,-154.445"/>
<text text-anchor="middle" x="405.882" y="-232.65" font-family="Times,serif" font-size="14.00"> static(supports)</text>
</g>
<!-- n12&#45;&gt;n15 -->
<g id="edge7" class="edge"><title>n12&#45;&gt;n15</title>
<path fill="none" stroke="black" d="M425.844,-321.654C441.371,-314.165 459.167,-305.175 474.882,-296.22 485.486,-290.178 486.214,-284.796 497.882,-281.22 611.144,-246.508 1447.35,-284.535 1563.88,-263.22 1569.97,-262.107 1576.23,-260.542 1582.39,-258.726"/>
<polygon fill="black" stroke="black" points="1583.48,-262.052 1591.96,-255.696 1581.37,-255.378 1583.48,-262.052"/>
<text text-anchor="middle" x="566.382" y="-285.02" font-family="Times,serif" font-size="14.00"> static(calibration_target)</text>
</g>
<!-- n18 -->
<g id="node18" class="node"><title>n18</title>
<ellipse fill="none" stroke="black" cx="249.882" cy="-236.35" rx="48.1667" ry="26.7407"/>
<text text-anchor="middle" x="249.882" y="-240.15" font-family="Times,serif" font-size="14.00">&lt;colour&gt;</text>
<text text-anchor="middle" x="249.882" y="-225.15" font-family="Times,serif" font-size="14.00">mode</text>
</g>
<!-- n12&#45;&gt;n18 -->
<g id="edge44" class="edge"><title>n12&#45;&gt;n18</title>
<path fill="none" stroke="black" d="M329.712,-336.724C301.294,-331.85 269.053,-320.79 250.882,-296.22 246.053,-289.69 244.125,-281.543 243.763,-273.411"/>
<polygon fill="black" stroke="black" points="247.266,-273.334 244.04,-263.242 240.269,-273.143 247.266,-273.334"/>
<text text-anchor="middle" x="294.882" y="-285.02" font-family="Times,serif" font-size="14.00"> static(supports)</text>
</g>
<!-- n24 -->
<g id="node24" class="node"><title>n24</title>
<ellipse fill="none" stroke="black" cx="512.882" cy="-236.35" rx="53.9813" ry="26.7407"/>
<text text-anchor="middle" x="512.882" y="-240.15" font-family="Times,serif" font-size="14.00">&lt;low_res&gt;</text>
<text text-anchor="middle" x="512.882" y="-225.15" font-family="Times,serif" font-size="14.00">mode</text>
</g>
<!-- n12&#45;&gt;n24 -->
<g id="edge38" class="edge"><title>n12&#45;&gt;n24</title>
<path fill="none" stroke="black" d="M379.983,-314.155C378.945,-303.015 379.952,-290.461 386.882,-281.22 403.075,-259.627 419.368,-272.023 444.882,-263.22 450.39,-261.32 456.12,-259.265 461.814,-257.172"/>
<polygon fill="black" stroke="black" points="463.166,-260.404 471.317,-253.635 460.724,-253.843 463.166,-260.404"/>
<text text-anchor="middle" x="430.882" y="-285.02" font-family="Times,serif" font-size="14.00"> static(supports)</text>
</g>
<!-- n13 -->
<g id="node13" class="node"><title>n13</title>
<ellipse fill="none" stroke="black" cx="915.882" cy="-236.35" rx="62.8651" ry="26.7407"/>
<text text-anchor="middle" x="915.882" y="-240.15" font-family="Times,serif" font-size="14.00">&lt;objective4&gt;</text>
<text text-anchor="middle" x="915.882" y="-225.15" font-family="Times,serif" font-size="14.00">objective</text>
</g>
<!-- n13&#45;&gt;n6 -->
<g id="edge37" class="edge"><title>n13&#45;&gt;n6</title>
<path fill="none" stroke="black" d="M918.466,-209.29C918.135,-197.712 915.481,-184.841 906.882,-176.48 867.393,-138.084 711.552,-131.896 620.675,-131.674"/>
<polygon fill="black" stroke="black" points="620.468,-128.174 610.468,-131.673 620.467,-135.174 620.468,-128.174"/>
<text text-anchor="middle" x="1007.88" y="-180.28" font-family="Times,serif" font-size="14.00"> end(communicated_image_data)</text>
</g>
<!-- n13&#45;&gt;n9 -->
<g id="edge43" class="edge"><title>n13&#45;&gt;n9</title>
<path fill="none" stroke="black" d="M961.18,-217.594C969.947,-214.58 979.13,-211.71 987.882,-209.48 1038.44,-196.601 1052.88,-202.481 1103.88,-191.48 1128.23,-186.228 1133.25,-180.161 1157.88,-176.48 1312,-153.454 1703.27,-166.723 1858.88,-158.48 1945,-153.918 2043.84,-145.503 2109.05,-139.509"/>
<polygon fill="black" stroke="black" points="2109.58,-142.975 2119.22,-138.569 2108.94,-136.004 2109.58,-142.975"/>
<text text-anchor="middle" x="1213.88" y="-180.28" font-family="Times,serif" font-size="14.00"> static(visible_from)</text>
</g>
<!-- n14 -->
<g id="node14" class="node"><title>n14</title>
<ellipse fill="none" stroke="black" cx="1347.88" cy="-236.35" rx="62.8651" ry="26.7407"/>
<text text-anchor="middle" x="1347.88" y="-240.15" font-family="Times,serif" font-size="14.00">&lt;objective0&gt;</text>
<text text-anchor="middle" x="1347.88" y="-225.15" font-family="Times,serif" font-size="14.00">objective</text>
</g>
<!-- n14&#45;&gt;n9 -->
<g id="edge20" class="edge"><title>n14&#45;&gt;n9</title>
<path fill="none" stroke="black" d="M1392.71,-217.364C1401.6,-214.334 1410.95,-211.516 1419.88,-209.48 1495.69,-192.21 1517.94,-208.129 1593.88,-191.48 1614.06,-187.056 1617.65,-180.678 1637.88,-176.48 1639.31,-176.184 1960.96,-150.295 2108.47,-138.432"/>
<polygon fill="black" stroke="black" points="2109.1,-141.893 2118.79,-137.602 2108.54,-134.915 2109.1,-141.893"/>
<text text-anchor="middle" x="1696.88" y="-180.28" font-family="Times,serif" font-size="14.00"> static(visible_from)</text>
</g>
<!-- n14&#45;&gt;n20 -->
<g id="edge21" class="edge"><title>n14&#45;&gt;n20</title>
<path fill="none" stroke="black" d="M1392.73,-217.487C1401.62,-214.446 1410.96,-211.593 1419.88,-209.48 1484.79,-194.106 1507.23,-216.95 1568.88,-191.48 1626.75,-167.574 1622.88,-130.646 1679.88,-104.74 1787.11,-56.0069 1924.12,-38.1478 2006.78,-31.6172"/>
<polygon fill="black" stroke="black" points="2007.12,-35.1012 2016.83,-30.8577 2006.6,-28.1211 2007.12,-35.1012"/>
<text text-anchor="middle" x="1735.88" y="-127.91" font-family="Times,serif" font-size="14.00"> static(visible_from)</text>
</g>
<!-- n15&#45;&gt;n9 -->
<g id="edge42" class="edge"><title>n15&#45;&gt;n9</title>
<path fill="none" stroke="black" d="M1680.7,-217.336C1689.59,-214.308 1698.94,-211.498 1707.88,-209.48 1786.74,-191.678 1813.92,-221.744 1888.88,-191.48 1898.86,-187.453 1898.03,-180.806 1907.88,-176.48 1971.5,-148.542 2050.45,-138.172 2107.06,-134.435"/>
<polygon fill="black" stroke="black" points="2107.59,-137.91 2117.36,-133.812 2107.17,-130.922 2107.59,-137.91"/>
<text text-anchor="middle" x="1963.88" y="-180.28" font-family="Times,serif" font-size="14.00"> static(visible_from)</text>
</g>
<!-- n16 -->
<g id="node16" class="node"><title>n16</title>
<ellipse fill="none" stroke="black" cx="1918.88" cy="-341.09" rx="67.3507" ry="26.7407"/>
<text text-anchor="middle" x="1918.88" y="-344.89" font-family="Times,serif" font-size="14.00">&lt;rover0store&gt;</text>
<text text-anchor="middle" x="1918.88" y="-329.89" font-family="Times,serif" font-size="14.00">store</text>
</g>
<!-- n16&#45;&gt;n5 -->
<g id="edge29" class="edge"><title>n16&#45;&gt;n5</title>
<path fill="none" stroke="black" d="M1918.88,-314.165C1918.88,-301.875 1918.88,-286.987 1918.88,-273.602"/>
<polygon fill="black" stroke="black" points="1922.38,-273.268 1918.88,-263.268 1915.38,-273.268 1922.38,-273.268"/>
<text text-anchor="middle" x="1961.88" y="-285.02" font-family="Times,serif" font-size="14.00"> static(store_of)</text>
</g>
<!-- n16&#45;&gt;n16 -->
<g id="edge3" class="edge"><title>n16&#45;&gt;n16</title>
<path fill="none" stroke="black" d="M1982.03,-350.468C1994.87,-349.447 2004.06,-346.321 2004.06,-341.09 2004.06,-337.413 1999.51,-334.775 1992.35,-333.179"/>
<polygon fill="black" stroke="black" points="1992.42,-329.653 1982.03,-331.712 1991.44,-336.584 1992.42,-329.653"/>
<text text-anchor="middle" x="2037.06" y="-337.39" font-family="Times,serif" font-size="14.00"> init(empty)</text>
</g>
<!-- n17 -->
<g id="node17" class="node"><title>n17</title>
<ellipse fill="none" stroke="black" cx="2257.88" cy="-236.35" rx="67.7647" ry="26.7407"/>
<text text-anchor="middle" x="2257.88" y="-240.15" font-family="Times,serif" font-size="14.00">&lt;objective13&gt;</text>
<text text-anchor="middle" x="2257.88" y="-225.15" font-family="Times,serif" font-size="14.00">objective</text>
</g>
<!-- n17&#45;&gt;n9 -->
<g id="edge47" class="edge"><title>n17&#45;&gt;n9</title>
<path fill="none" stroke="black" d="M2246.07,-209.702C2240.6,-198.986 2233.61,-186.682 2225.88,-176.48 2222.59,-172.131 2218.87,-167.807 2215.01,-163.664"/>
<polygon fill="black" stroke="black" points="2217.46,-161.164 2207.97,-156.437 2212.44,-166.045 2217.46,-161.164"/>
<text text-anchor="middle" x="2291.88" y="-180.28" font-family="Times,serif" font-size="14.00"> static(visible_from)</text>
</g>
<!-- n19 -->
<g id="node19" class="node"><title>n19</title>
<ellipse fill="none" stroke="black" cx="2406.88" cy="-236.35" rx="62.8651" ry="26.7407"/>
<text text-anchor="middle" x="2406.88" y="-240.15" font-family="Times,serif" font-size="14.00">&lt;objective9&gt;</text>
<text text-anchor="middle" x="2406.88" y="-225.15" font-family="Times,serif" font-size="14.00">objective</text>
</g>
<!-- n19&#45;&gt;n9 -->
<g id="edge8" class="edge"><title>n19&#45;&gt;n9</title>
<path fill="none" stroke="black" d="M2389.03,-210.408C2379.31,-198.512 2366.32,-185.041 2351.88,-176.48 2321.67,-158.565 2284.24,-147.899 2252.11,-141.581"/>
<polygon fill="black" stroke="black" points="2252.35,-138.066 2241.88,-139.678 2251.07,-144.948 2252.35,-138.066"/>
<text text-anchor="middle" x="2427.88" y="-180.28" font-family="Times,serif" font-size="14.00"> static(visible_from)</text>
</g>
<!-- n20&#45;&gt;n9 -->
<g id="edge41" class="edge"><title>n20&#45;&gt;n9</title>
<path fill="none" stroke="black" d="M2072.09,-53.7297C2070.33,-64.7274 2070.55,-77.1894 2076.88,-86.7401 2085.68,-100.001 2099.36,-109.263 2113.95,-115.729"/>
<polygon fill="black" stroke="black" points="2113.03,-119.132 2123.62,-119.588 2115.62,-112.631 2113.03,-119.132"/>
<text text-anchor="middle" x="2115.88" y="-75.5401" font-family="Times,serif" font-size="14.00"> static(visible)</text>
</g>
<!-- n20&#45;&gt;n20 -->
<g id="edge4" class="edge"><title>n20&#45;&gt;n20</title>
<path fill="none" stroke="black" d="M2139.69,-36.3053C2152.37,-35.3472 2161.52,-32.2021 2161.52,-26.8701 2161.52,-23.121 2157,-20.4531 2149.9,-18.8664"/>
<polygon fill="black" stroke="black" points="2150.08,-15.3569 2139.69,-17.4349 2149.1,-22.2891 2150.08,-15.3569"/>
<text text-anchor="middle" x="2220.52" y="-23.1701" font-family="Times,serif" font-size="14.00"> init(at_rock_sample)</text>
</g>
<!-- n21 -->
<g id="node21" class="node"><title>n21</title>
<ellipse fill="none" stroke="black" cx="1491.88" cy="-236.35" rx="62.8651" ry="26.7407"/>
<text text-anchor="middle" x="1491.88" y="-240.15" font-family="Times,serif" font-size="14.00">&lt;objective3&gt;</text>
<text text-anchor="middle" x="1491.88" y="-225.15" font-family="Times,serif" font-size="14.00">objective</text>
</g>
<!-- n21&#45;&gt;n9 -->
<g id="edge45" class="edge"><title>n21&#45;&gt;n9</title>
<path fill="none" stroke="black" d="M1536.69,-217.303C1545.58,-214.278 1554.94,-211.478 1563.88,-209.48 1646.67,-190.994 1675.15,-223.051 1753.88,-191.48 1763.87,-187.476 1762.92,-180.548 1772.88,-176.48 1803.11,-164.135 1999.3,-146.972 2108.24,-138.223"/>
<polygon fill="black" stroke="black" points="2108.81,-141.689 2118.5,-137.403 2108.25,-134.711 2108.81,-141.689"/>
<text text-anchor="middle" x="1828.88" y="-180.28" font-family="Times,serif" font-size="14.00"> static(visible_from)</text>
</g>
<!-- n21&#45;&gt;n20 -->
<g id="edge15" class="edge"><title>n21&#45;&gt;n20</title>
<path fill="none" stroke="black" d="M1536.72,-217.404C1545.61,-214.37 1554.95,-211.541 1563.88,-209.48 1635.76,-192.893 1658.41,-213.297 1728.88,-191.48 1742.37,-187.305 1744.24,-182.767 1756.88,-176.48 1850.98,-129.681 1962.79,-79.3973 2027.12,-50.9649"/>
<polygon fill="black" stroke="black" points="2028.91,-54.0016 2036.65,-46.7624 2026.09,-47.5974 2028.91,-54.0016"/>
<text text-anchor="middle" x="1964.88" y="-127.91" font-family="Times,serif" font-size="14.00"> static(visible_from)</text>
</g>
<!-- n22 -->
<g id="node22" class="node"><title>n22</title>
<ellipse fill="none" stroke="black" cx="2550.88" cy="-236.35" rx="62.8651" ry="26.7407"/>
<text text-anchor="middle" x="2550.88" y="-240.15" font-family="Times,serif" font-size="14.00">&lt;objective5&gt;</text>
<text text-anchor="middle" x="2550.88" y="-225.15" font-family="Times,serif" font-size="14.00">objective</text>
</g>
<!-- n22&#45;&gt;n9 -->
<g id="edge24" class="edge"><title>n22&#45;&gt;n9</title>
<path fill="none" stroke="black" d="M2530.98,-210.633C2519.68,-198.336 2504.49,-184.435 2487.88,-176.48 2447.63,-157.197 2330.73,-144.49 2253.36,-137.929"/>
<polygon fill="black" stroke="black" points="2253.45,-134.424 2243.19,-137.082 2252.87,-141.4 2253.45,-134.424"/>
<text text-anchor="middle" x="2565.88" y="-180.28" font-family="Times,serif" font-size="14.00"> static(visible_from)</text>
</g>
<!-- n23 -->
<g id="node23" class="node"><title>n23</title>
<ellipse fill="none" stroke="black" cx="3248.88" cy="-236.35" rx="67.7647" ry="26.7407"/>
<text text-anchor="middle" x="3248.88" y="-240.15" font-family="Times,serif" font-size="14.00">&lt;objective16&gt;</text>
<text text-anchor="middle" x="3248.88" y="-225.15" font-family="Times,serif" font-size="14.00">objective</text>
</g>
<!-- n23&#45;&gt;n9 -->
<g id="edge6" class="edge"><title>n23&#45;&gt;n9</title>
<path fill="none" stroke="black" d="M3199.39,-217.957C3190.29,-214.976 3180.84,-212.025 3171.88,-209.48 3138.08,-199.873 3127.2,-205.288 3094.88,-191.48 3083.66,-186.685 3083.49,-180.244 3071.88,-176.48 2995.23,-151.625 2454.27,-138.187 2254.65,-134.031"/>
<polygon fill="black" stroke="black" points="2254.62,-130.53 2244.55,-133.823 2254.48,-137.528 2254.62,-130.53"/>
<text text-anchor="middle" x="3150.88" y="-180.28" font-family="Times,serif" font-size="14.00"> static(visible_from)</text>
</g>
<!-- n23&#45;&gt;n20 -->
<g id="edge33" class="edge"><title>n23&#45;&gt;n20</title>
<path fill="none" stroke="black" d="M3236.85,-209.73C3229.83,-197.661 3219.8,-184.24 3206.88,-176.48 3027.88,-68.9096 2374.58,-37.6305 2153.55,-30.0204"/>
<polygon fill="black" stroke="black" points="2153.47,-26.5157 2143.35,-29.6757 2153.23,-33.5117 2153.47,-26.5157"/>
<text text-anchor="middle" x="3220.88" y="-127.91" font-family="Times,serif" font-size="14.00"> static(visible_from)</text>
</g>
<!-- n25 -->
<g id="node25" class="node"><title>n25</title>
<ellipse fill="none" stroke="black" cx="3551.88" cy="-236.35" rx="62.8651" ry="26.7407"/>
<text text-anchor="middle" x="3551.88" y="-240.15" font-family="Times,serif" font-size="14.00">&lt;objective6&gt;</text>
<text text-anchor="middle" x="3551.88" y="-225.15" font-family="Times,serif" font-size="14.00">objective</text>
</g>
<!-- n25&#45;&gt;n9 -->
<g id="edge25" class="edge"><title>n25&#45;&gt;n9</title>
<path fill="none" stroke="black" d="M3505.58,-218.138C3497.07,-215.139 3488.24,-212.134 3479.88,-209.48 3451.31,-200.406 3443.53,-200.32 3414.88,-191.48 3395.14,-185.387 3391.2,-180.234 3370.88,-176.48 3261.65,-156.299 2497.15,-139.084 2254.56,-134.078"/>
<polygon fill="black" stroke="black" points="2254.5,-130.576 2244.43,-133.87 2254.36,-137.575 2254.5,-130.576"/>
<text text-anchor="middle" x="3470.88" y="-180.28" font-family="Times,serif" font-size="14.00"> static(visible_from)</text>
</g>
<!-- n25&#45;&gt;n20 -->
<g id="edge18" class="edge"><title>n25&#45;&gt;n20</title>
<path fill="none" stroke="black" d="M3543.91,-209.429C3532.66,-177.997 3508.82,-126.526 3467.88,-104.74 3351.6,-42.854 2424.19,-30.6157 2153.69,-28.3537"/>
<polygon fill="black" stroke="black" points="2153.61,-24.853 2143.59,-28.2713 2153.56,-31.8528 2153.61,-24.853"/>
<text text-anchor="middle" x="3575.88" y="-127.91" font-family="Times,serif" font-size="14.00"> static(visible_from)</text>
</g>
<!-- n26 -->
<g id="node26" class="node"><title>n26</title>
<ellipse fill="none" stroke="black" cx="2699.88" cy="-236.35" rx="67.7647" ry="26.7407"/>
<text text-anchor="middle" x="2699.88" y="-240.15" font-family="Times,serif" font-size="14.00">&lt;objective11&gt;</text>
<text text-anchor="middle" x="2699.88" y="-225.15" font-family="Times,serif" font-size="14.00">objective</text>
</g>
<!-- n26&#45;&gt;n9 -->
<g id="edge12" class="edge"><title>n26&#45;&gt;n9</title>
<path fill="none" stroke="black" d="M2676.52,-210.937C2662.99,-198.406 2644.9,-184.19 2625.88,-176.48 2560.45,-149.957 2363.37,-138.977 2254.73,-134.843"/>
<polygon fill="black" stroke="black" points="2254.63,-131.337 2244.5,-134.464 2254.37,-138.332 2254.63,-131.337"/>
<text text-anchor="middle" x="2706.88" y="-180.28" font-family="Times,serif" font-size="14.00"> static(visible_from)</text>
</g>
<!-- n27 -->
<g id="node27" class="node"><title>n27</title>
<ellipse fill="none" stroke="black" cx="3700.88" cy="-236.35" rx="67.7647" ry="26.7407"/>
<text text-anchor="middle" x="3700.88" y="-240.15" font-family="Times,serif" font-size="14.00">&lt;objective10&gt;</text>
<text text-anchor="middle" x="3700.88" y="-225.15" font-family="Times,serif" font-size="14.00">objective</text>
</g>
<!-- n27&#45;&gt;n9 -->
<g id="edge9" class="edge"><title>n27&#45;&gt;n9</title>
<path fill="none" stroke="black" d="M3650.95,-217.96C3601.36,-200.703 3532.45,-176.771 3530.88,-176.48 3467.85,-164.819 2527.36,-141.067 2254.54,-134.391"/>
<polygon fill="black" stroke="black" points="2254.43,-130.888 2244.35,-134.142 2254.26,-137.886 2254.43,-130.888"/>
<text text-anchor="middle" x="3629.88" y="-180.28" font-family="Times,serif" font-size="14.00"> static(visible_from)</text>
</g>
<!-- n27&#45;&gt;n20 -->
<g id="edge39" class="edge"><title>n27&#45;&gt;n20</title>
<path fill="none" stroke="black" d="M3696.51,-209.314C3689.7,-178.021 3673.21,-126.952 3635.88,-104.74 3531.23,-42.4694 3485.29,-81.1614 3363.88,-71.7401 2904.82,-36.1178 2351.21,-29.4193 2154.03,-28.1608"/>
<polygon fill="black" stroke="black" points="2153.81,-24.6595 2143.79,-28.0983 2153.76,-31.6594 2153.81,-24.6595"/>
<text text-anchor="middle" x="3735.88" y="-127.91" font-family="Times,serif" font-size="14.00"> static(visible_from)</text>
</g>
<!-- n28 -->
<g id="node28" class="node"><title>n28</title>
<ellipse fill="none" stroke="black" cx="3402.88" cy="-236.35" rx="67.7647" ry="26.7407"/>
<text text-anchor="middle" x="3402.88" y="-240.15" font-family="Times,serif" font-size="14.00">&lt;objective12&gt;</text>
<text text-anchor="middle" x="3402.88" y="-225.15" font-family="Times,serif" font-size="14.00">objective</text>
</g>
<!-- n28&#45;&gt;n9 -->
<g id="edge32" class="edge"><title>n28&#45;&gt;n9</title>
<path fill="none" stroke="black" d="M3352.94,-217.958C3343.97,-215.01 3334.68,-212.068 3325.88,-209.48 3294.65,-200.29 3286.09,-200.74 3254.88,-191.48 3235.07,-185.604 3231.19,-180.292 3210.88,-176.48 3027.3,-142.018 2458.36,-134.589 2254.5,-133.02"/>
<polygon fill="black" stroke="black" points="2254.52,-129.52 2244.49,-132.946 2254.46,-136.52 2254.52,-129.52"/>
<text text-anchor="middle" x="3310.88" y="-180.28" font-family="Times,serif" font-size="14.00"> static(visible_from)</text>
</g>
<!-- n28&#45;&gt;n20 -->
<g id="edge16" class="edge"><title>n28&#45;&gt;n20</title>
<path fill="none" stroke="black" d="M3389.68,-209.773C3383.49,-198.95 3375.57,-186.546 3366.88,-176.48 3334.35,-138.804 3327.05,-123.343 3280.88,-104.74 3176.58,-62.7124 2398.36,-37.0089 2153.45,-29.8957"/>
<polygon fill="black" stroke="black" points="2153.33,-26.3908 2143.23,-29.6007 2153.12,-33.3879 2153.33,-26.3908"/>
<text text-anchor="middle" x="3407.88" y="-127.91" font-family="Times,serif" font-size="14.00"> static(visible_from)</text>
</g>
</g>
</svg>
