<?xml version="1.0" encoding="UTF-8" standalone="no"?>
<!DOCTYPE svg PUBLIC "-//W3C//DTD SVG 1.1//EN"
 "http://www.w3.org/Graphics/SVG/1.1/DTD/svg11.dtd">
<!-- Generated by graphviz version 2.38.0 (20140413.2041)
 -->
<!-- Title: Struc Pages: 1 -->
<svg width="933pt" height="400pt"
 viewBox="0.00 0.00 933.18 399.96" xmlns="http://www.w3.org/2000/svg" xmlns:xlink="http://www.w3.org/1999/xlink">
<g id="graph0" class="graph" transform="scale(1 1) rotate(0) translate(4 395.96)">
<title>Struc</title>
<polygon fill="white" stroke="none" points="-4,4 -4,-395.96 929.175,-395.96 929.175,4 -4,4"/>
<!-- n1 -->
<g id="node1" class="node"><title>n1</title>
<ellipse fill="none" stroke="black" cx="404.175" cy="-135.61" rx="63.7795" ry="26.7407"/>
<text text-anchor="middle" x="404.175" y="-139.41" font-family="Times,serif" font-size="14.00">&lt;waypoint0&gt;</text>
<text text-anchor="middle" x="404.175" y="-124.41" font-family="Times,serif" font-size="14.00">waypoint</text>
</g>
<!-- n3 -->
<g id="node3" class="node"><title>n3</title>
<ellipse fill="none" stroke="black" cx="505.175" cy="-26.8701" rx="63.7795" ry="26.7407"/>
<text text-anchor="middle" x="505.175" y="-30.6701" font-family="Times,serif" font-size="14.00">&lt;waypoint1&gt;</text>
<text text-anchor="middle" x="505.175" y="-15.6701" font-family="Times,serif" font-size="14.00">waypoint</text>
</g>
<!-- n1&#45;&gt;n3 -->
<g id="edge7" class="edge"><title>n1&#45;&gt;n3</title>
<path fill="none" stroke="black" d="M447.08,-115.545C460.071,-108.089 473.456,-98.4723 483.175,-86.7401 488.778,-79.9763 493.033,-71.6452 496.233,-63.4012"/>
<polygon fill="black" stroke="black" points="499.571,-64.4575 499.523,-53.8627 492.954,-62.1749 499.571,-64.4575"/>
<text text-anchor="middle" x="532.175" y="-75.5401" font-family="Times,serif" font-size="14.00"> static(visible)</text>
</g>
<!-- n2 -->
<g id="node2" class="node"><title>n2</title>
<ellipse fill="none" stroke="black" cx="646.175" cy="-248.35" rx="62.8691" ry="26.7574"/>
<ellipse fill="none" stroke="black" cx="646.175" cy="-248.35" rx="66.8651" ry="30.7407"/>
<text text-anchor="middle" x="646.175" y="-252.15" font-family="Times,serif" font-size="14.00">&lt;objective1&gt;</text>
<text text-anchor="middle" x="646.175" y="-237.15" font-family="Times,serif" font-size="14.00">objective</text>
</g>
<!-- n2&#45;&gt;n1 -->
<g id="edge11" class="edge"><title>n2&#45;&gt;n1</title>
<path fill="none" stroke="black" d="M597.467,-227.079C588.468,-223.657 579.096,-220.304 570.175,-217.48 537.905,-207.266 527.094,-213.252 496.175,-199.48 493.204,-198.157 467.966,-180.874 444.675,-164.764"/>
<polygon fill="black" stroke="black" points="446.441,-161.73 436.227,-158.914 442.455,-167.485 446.441,-161.73"/>
<text text-anchor="middle" x="552.175" y="-188.28" font-family="Times,serif" font-size="14.00"> static(visible_from)</text>
</g>
<!-- n2&#45;&gt;n3 -->
<g id="edge9" class="edge"><title>n2&#45;&gt;n3</title>
<path fill="none" stroke="black" stroke-dasharray="5,2" d="M640.072,-217.365C631.184,-179.836 611.615,-115.216 575.175,-71.7401 569.48,-64.9458 562.455,-58.8749 555.073,-53.5742"/>
<polygon fill="black" stroke="black" points="556.56,-50.3581 546.302,-47.7082 552.668,-56.1768 556.56,-50.3581"/>
<text text-anchor="middle" x="681.175" y="-131.91" font-family="Times,serif" font-size="14.00"> static(visible_from)</text>
</g>
<!-- n7 -->
<g id="node7" class="node"><title>n7</title>
<ellipse fill="none" stroke="black" cx="829.175" cy="-135.61" rx="48.1603" ry="26.7574"/>
<ellipse fill="none" stroke="black" cx="829.175" cy="-135.61" rx="52.1667" ry="30.7407"/>
<text text-anchor="middle" x="829.175" y="-139.41" font-family="Times,serif" font-size="14.00">&lt;colour&gt;</text>
<text text-anchor="middle" x="829.175" y="-124.41" font-family="Times,serif" font-size="14.00">mode</text>
</g>
<!-- n2&#45;&gt;n7 -->
<g id="edge5" class="edge"><title>n2&#45;&gt;n7</title>
<path fill="none" stroke="black" stroke-dasharray="5,2" d="M644.125,-217.314C644.925,-205.709 647.985,-193.163 656.175,-184.48 681.778,-157.338 702.181,-176.311 738.175,-166.48 750.326,-163.162 763.253,-159.192 775.434,-155.246"/>
<polygon fill="black" stroke="black" points="776.605,-158.546 785.014,-152.1 774.421,-151.895 776.605,-158.546"/>
<text text-anchor="middle" x="748.175" y="-188.28" font-family="Times,serif" font-size="14.00"> end(communicated_image_data)</text>
</g>
<!-- n3&#45;&gt;n1 -->
<g id="edge13" class="edge"><title>n3&#45;&gt;n1</title>
<path fill="none" stroke="black" d="M447.908,-38.8917C429.884,-45.3512 411.901,-55.5746 401.175,-71.7401 395.94,-79.6305 394.593,-89.3829 395.101,-98.8327"/>
<polygon fill="black" stroke="black" points="391.637,-99.3445 396.285,-108.865 398.589,-98.5241 391.637,-99.3445"/>
<text text-anchor="middle" x="440.175" y="-75.5401" font-family="Times,serif" font-size="14.00"> static(visible)</text>
</g>
<!-- n3&#45;&gt;n3 -->
<g id="edge1" class="edge"><title>n3&#45;&gt;n3</title>
<path fill="none" stroke="black" d="M564.98,-36.3053C577.659,-35.3472 586.815,-32.2021 586.815,-26.8701 586.815,-23.121 582.288,-20.4531 575.193,-18.8664"/>
<polygon fill="black" stroke="black" points="575.369,-15.3569 564.98,-17.4349 574.397,-22.2891 575.369,-15.3569"/>
<text text-anchor="middle" x="645.815" y="-23.1701" font-family="Times,serif" font-size="14.00"> init(at_rock_sample)</text>
</g>
<!-- n4 -->
<g id="node4" class="node"><title>n4</title>
<ellipse fill="none" stroke="black" cx="390.175" cy="-248.35" rx="51.7379" ry="26.7407"/>
<text text-anchor="middle" x="390.175" y="-252.15" font-family="Times,serif" font-size="14.00">&lt;general&gt;</text>
<text text-anchor="middle" x="390.175" y="-237.15" font-family="Times,serif" font-size="14.00">lander</text>
</g>
<!-- n4&#45;&gt;n1 -->
<g id="edge6" class="edge"><title>n4&#45;&gt;n1</title>
<path fill="none" stroke="black" d="M382.298,-221.787C379.837,-210.302 378.408,-196.629 381.175,-184.48 382.17,-180.114 383.614,-175.682 385.303,-171.366"/>
<polygon fill="black" stroke="black" points="388.522,-172.739 389.308,-162.174 382.105,-169.943 388.522,-172.739"/>
<text text-anchor="middle" x="427.175" y="-188.28" font-family="Times,serif" font-size="14.00"> static(at_lander)</text>
</g>
<!-- n4&#45;&gt;n4 -->
<g id="edge2" class="edge"><title>n4&#45;&gt;n4</title>
<path fill="none" stroke="black" d="M438.007,-258.742C450.428,-258.103 459.794,-254.639 459.794,-248.35 459.794,-243.928 455.164,-240.903 448.097,-239.274"/>
<polygon fill="black" stroke="black" points="448.376,-235.781 438.007,-237.959 447.471,-242.723 448.376,-235.781"/>
<text text-anchor="middle" x="510.294" y="-244.65" font-family="Times,serif" font-size="14.00"> init(channel_free)</text>
</g>
<!-- n5 -->
<g id="node5" class="node"><title>n5</title>
<ellipse fill="none" stroke="black" cx="646.175" cy="-361.09" rx="56.6326" ry="26.7574"/>
<ellipse fill="none" stroke="black" cx="646.175" cy="-361.09" rx="60.6372" ry="30.7407"/>
<text text-anchor="middle" x="646.175" y="-364.89" font-family="Times,serif" font-size="14.00">&lt;camera1&gt;</text>
<text text-anchor="middle" x="646.175" y="-349.89" font-family="Times,serif" font-size="14.00">camera</text>
</g>
<!-- n5&#45;&gt;n2 -->
<g id="edge14" class="edge"><title>n5&#45;&gt;n2</title>
<path fill="none" stroke="black" stroke-dasharray="5,2" d="M646.175,-330.123C646.175,-317.689 646.175,-303.073 646.175,-289.717"/>
<polygon fill="black" stroke="black" points="649.675,-289.342 646.175,-279.342 642.675,-289.342 649.675,-289.342"/>
<text text-anchor="middle" x="714.675" y="-301.02" font-family="Times,serif" font-size="14.00"> static(calibration_target)</text>
</g>
<!-- n6 -->
<g id="node6" class="node"><title>n6</title>
<ellipse fill="none" stroke="black" cx="67.1751" cy="-248.35" rx="48.1667" ry="26.7407"/>
<text text-anchor="middle" x="67.1751" y="-252.15" font-family="Times,serif" font-size="14.00">&lt;rover0&gt;</text>
<text text-anchor="middle" x="67.1751" y="-237.15" font-family="Times,serif" font-size="14.00">rover</text>
</g>
<!-- n5&#45;&gt;n6 -->
<g id="edge12" class="edge"><title>n5&#45;&gt;n6</title>
<path fill="none" stroke="black" d="M590.132,-349.372C479.085,-328.132 232.338,-280.94 122.159,-259.867"/>
<polygon fill="black" stroke="black" points="122.728,-256.412 112.248,-257.971 121.413,-263.287 122.728,-256.412"/>
<text text-anchor="middle" x="438.675" y="-301.02" font-family="Times,serif" font-size="14.00"> static(on_board)</text>
</g>
<!-- n5&#45;&gt;n7 -->
<g id="edge8" class="edge"><title>n5&#45;&gt;n7</title>
<path fill="none" stroke="black" stroke-dasharray="5,2" d="M704.041,-351.333C731.887,-344.604 764.141,-332.806 787.175,-312.22 828.459,-275.326 828.107,-253.516 840.175,-199.48 841.854,-191.961 841.81,-183.888 840.854,-176.118"/>
<polygon fill="black" stroke="black" points="844.284,-175.411 839.142,-166.148 837.385,-176.596 844.284,-175.411"/>
<text text-anchor="middle" x="881.175" y="-244.65" font-family="Times,serif" font-size="14.00"> static(supports)</text>
</g>
<!-- n6&#45;&gt;n1 -->
<g id="edge10" class="edge"><title>n6&#45;&gt;n1</title>
<path fill="none" stroke="black" d="M107.825,-233.992C166.976,-214.555 277.118,-178.362 345.19,-155.993"/>
<polygon fill="black" stroke="black" points="346.509,-159.244 354.917,-152.797 344.324,-152.594 346.509,-159.244"/>
<text text-anchor="middle" x="276.675" y="-188.28" font-family="Times,serif" font-size="14.00"> init(at)</text>
</g>
<!-- n6&#45;&gt;n6 -->
<g id="edge3" class="edge"><title>n6&#45;&gt;n6</title>
<path fill="none" stroke="black" d="M111.65,-258.786C123.898,-258.282 133.258,-254.803 133.258,-248.35 133.258,-243.813 128.631,-240.746 121.625,-239.15"/>
<polygon fill="black" stroke="black" points="122.004,-235.67 111.65,-237.914 121.144,-242.617 122.004,-235.67"/>
<text text-anchor="middle" x="226.758" y="-259.65" font-family="Times,serif" font-size="14.00"> static(equipped_for_imaging)</text>
<text text-anchor="middle" x="226.758" y="-244.65" font-family="Times,serif" font-size="14.00">init(available)</text>
<text text-anchor="middle" x="226.758" y="-229.65" font-family="Times,serif" font-size="14.00">static(equipped_for_soil_analysis)</text>
</g>
<!-- n8 -->
<g id="node8" class="node"><title>n8</title>
<ellipse fill="none" stroke="black" cx="67.1751" cy="-361.09" rx="67.3507" ry="26.7407"/>
<text text-anchor="middle" x="67.1751" y="-364.89" font-family="Times,serif" font-size="14.00">&lt;rover0store&gt;</text>
<text text-anchor="middle" x="67.1751" y="-349.89" font-family="Times,serif" font-size="14.00">store</text>
</g>
<!-- n8&#45;&gt;n6 -->
<g id="edge15" class="edge"><title>n8&#45;&gt;n6</title>
<path fill="none" stroke="black" d="M67.1751,-334.127C67.1751,-319.653 67.1751,-301.403 67.1751,-285.546"/>
<polygon fill="black" stroke="black" points="70.6752,-285.535 67.1751,-275.535 63.6752,-285.535 70.6752,-285.535"/>
<text text-anchor="middle" x="110.175" y="-301.02" font-family="Times,serif" font-size="14.00"> static(store_of)</text>
</g>
<!-- n8&#45;&gt;n8 -->
<g id="edge4" class="edge"><title>n8&#45;&gt;n8</title>
<path fill="none" stroke="black" d="M129.57,-371.251C142.798,-370.22 152.35,-366.833 152.35,-361.09 152.35,-356.918 147.308,-353.99 139.476,-352.304"/>
<polygon fill="black" stroke="black" points="139.956,-348.837 129.57,-350.929 138.994,-355.771 139.956,-348.837"/>
<text text-anchor="middle" x="185.35" y="-357.39" font-family="Times,serif" font-size="14.00"> init(empty)</text>
</g>
</g>
</svg>
