<?xml version="1.0" encoding="UTF-8" standalone="no"?>
<!DOCTYPE svg PUBLIC "-//W3C//DTD SVG 1.1//EN"
 "http://www.w3.org/Graphics/SVG/1.1/DTD/svg11.dtd">
<!-- Generated by graphviz version 2.38.0 (20140413.2041)
 -->
<!-- Title: Struc Pages: 1 -->
<svg width="2503pt" height="376pt"
 viewBox="0.00 0.00 2502.93 375.96" xmlns="http://www.w3.org/2000/svg" xmlns:xlink="http://www.w3.org/1999/xlink">
<g id="graph0" class="graph" transform="scale(1 1) rotate(0) translate(4 371.96)">
<title>Struc</title>
<polygon fill="white" stroke="none" points="-4,4 -4,-371.96 2498.93,-371.96 2498.93,4 -4,4"/>
<!-- n1 -->
<g id="node1" class="node"><title>n1</title>
<ellipse fill="none" stroke="black" cx="1084.93" cy="-236.35" rx="51.7379" ry="26.7407"/>
<text text-anchor="middle" x="1084.93" y="-240.15" font-family="Times,serif" font-size="14.00">&lt;general&gt;</text>
<text text-anchor="middle" x="1084.93" y="-225.15" font-family="Times,serif" font-size="14.00">lander</text>
</g>
<!-- n1&#45;&gt;n1 -->
<g id="edge1" class="edge"><title>n1&#45;&gt;n1</title>
<path fill="none" stroke="black" d="M1133.41,-245.966C1145.51,-245.294 1154.55,-242.089 1154.55,-236.35 1154.55,-232.405 1150.28,-229.657 1143.67,-228.107"/>
<polygon fill="black" stroke="black" points="1143.79,-224.59 1133.41,-226.734 1142.86,-231.529 1143.79,-224.59"/>
<text text-anchor="middle" x="1205.05" y="-232.65" font-family="Times,serif" font-size="14.00"> init(channel_free)</text>
</g>
<!-- n6 -->
<g id="node6" class="node"><title>n6</title>
<ellipse fill="none" stroke="black" cx="975.933" cy="-131.61" rx="63.7795" ry="26.7407"/>
<text text-anchor="middle" x="975.933" y="-135.41" font-family="Times,serif" font-size="14.00">&lt;waypoint0&gt;</text>
<text text-anchor="middle" x="975.933" y="-120.41" font-family="Times,serif" font-size="14.00">waypoint</text>
</g>
<!-- n1&#45;&gt;n6 -->
<g id="edge23" class="edge"><title>n1&#45;&gt;n6</title>
<path fill="none" stroke="black" d="M1047.79,-217.585C1040.04,-214.458 1031.83,-211.547 1023.93,-209.48 988.89,-200.313 886.089,-218.47 861.933,-191.48 842.311,-169.558 873.283,-154.586 907.866,-145.228"/>
<polygon fill="black" stroke="black" points="908.846,-148.59 917.676,-142.736 907.123,-141.805 908.846,-148.59"/>
<text text-anchor="middle" x="907.933" y="-180.28" font-family="Times,serif" font-size="14.00"> static(at_lander)</text>
</g>
<!-- n2 -->
<g id="node2" class="node"><title>n2</title>
<ellipse fill="none" stroke="black" cx="1507.93" cy="-236.35" rx="62.8651" ry="26.7407"/>
<text text-anchor="middle" x="1507.93" y="-240.15" font-family="Times,serif" font-size="14.00">&lt;objective0&gt;</text>
<text text-anchor="middle" x="1507.93" y="-225.15" font-family="Times,serif" font-size="14.00">objective</text>
</g>
<!-- n5 -->
<g id="node5" class="node"><title>n5</title>
<ellipse fill="none" stroke="black" cx="1076.93" cy="-26.8701" rx="63.7795" ry="26.7407"/>
<text text-anchor="middle" x="1076.93" y="-30.6701" font-family="Times,serif" font-size="14.00">&lt;waypoint1&gt;</text>
<text text-anchor="middle" x="1076.93" y="-15.6701" font-family="Times,serif" font-size="14.00">waypoint</text>
</g>
<!-- n2&#45;&gt;n5 -->
<g id="edge27" class="edge"><title>n2&#45;&gt;n5</title>
<path fill="none" stroke="black" d="M1507.17,-209.336C1505.58,-198.046 1501.93,-185.397 1493.93,-176.48 1404.33,-76.5502 1242.92,-43.8021 1149.37,-33.0799"/>
<polygon fill="black" stroke="black" points="1149.74,-29.5998 1139.42,-31.9934 1148.98,-36.5585 1149.74,-29.5998"/>
<text text-anchor="middle" x="1531.93" y="-127.91" font-family="Times,serif" font-size="14.00"> static(visible_from)</text>
</g>
<!-- n2&#45;&gt;n6 -->
<g id="edge26" class="edge"><title>n2&#45;&gt;n6</title>
<path fill="none" stroke="black" d="M1457.46,-220.134C1442.02,-216.029 1424.9,-212.025 1408.93,-209.48 1343.64,-199.072 1174.71,-212.231 1111.93,-191.48 1100.35,-187.65 1099.79,-182.052 1088.93,-176.48 1071.71,-167.644 1052.28,-159.495 1034.45,-152.679"/>
<polygon fill="black" stroke="black" points="1035.32,-149.269 1024.73,-149.034 1032.87,-155.823 1035.32,-149.269"/>
<text text-anchor="middle" x="1167.93" y="-180.28" font-family="Times,serif" font-size="14.00"> static(visible_from)</text>
</g>
<!-- n14 -->
<g id="node14" class="node"><title>n14</title>
<ellipse fill="none" stroke="black" cx="1747.93" cy="-131.61" rx="53.9813" ry="26.7407"/>
<text text-anchor="middle" x="1747.93" y="-135.41" font-family="Times,serif" font-size="14.00">&lt;low_res&gt;</text>
<text text-anchor="middle" x="1747.93" y="-120.41" font-family="Times,serif" font-size="14.00">mode</text>
</g>
<!-- n2&#45;&gt;n14 -->
<g id="edge22" class="edge"><title>n2&#45;&gt;n14</title>
<path fill="none" stroke="black" d="M1566.67,-226.534C1627.02,-217.003 1713.83,-201.795 1725.93,-191.48 1732.99,-185.463 1737.79,-176.951 1741.05,-168.264"/>
<polygon fill="black" stroke="black" points="1744.45,-169.095 1744.11,-158.506 1737.78,-166.998 1744.45,-169.095"/>
<text text-anchor="middle" x="1829.93" y="-180.28" font-family="Times,serif" font-size="14.00"> end(communicated_image_data)</text>
</g>
<!-- n3 -->
<g id="node3" class="node"><title>n3</title>
<ellipse fill="none" stroke="black" cx="62.9325" cy="-236.35" rx="62.8651" ry="26.7407"/>
<text text-anchor="middle" x="62.9325" y="-240.15" font-family="Times,serif" font-size="14.00">&lt;objective3&gt;</text>
<text text-anchor="middle" x="62.9325" y="-225.15" font-family="Times,serif" font-size="14.00">objective</text>
</g>
<!-- n4 -->
<g id="node4" class="node"><title>n4</title>
<ellipse fill="none" stroke="black" cx="274.933" cy="-131.61" rx="56.6372" ry="26.7407"/>
<text text-anchor="middle" x="274.933" y="-135.41" font-family="Times,serif" font-size="14.00">&lt;high_res&gt;</text>
<text text-anchor="middle" x="274.933" y="-120.41" font-family="Times,serif" font-size="14.00">mode</text>
</g>
<!-- n3&#45;&gt;n4 -->
<g id="edge18" class="edge"><title>n3&#45;&gt;n4</title>
<path fill="none" stroke="black" d="M56.656,-209.391C55.4914,-198.113 56.5024,-185.457 63.9325,-176.48 65.156,-175.002 151.525,-157.39 213.369,-144.937"/>
<polygon fill="black" stroke="black" points="214.337,-148.313 223.451,-142.909 212.957,-141.45 214.337,-148.313"/>
<text text-anchor="middle" x="157.933" y="-180.28" font-family="Times,serif" font-size="14.00"> end(communicated_image_data)</text>
</g>
<!-- n3&#45;&gt;n5 -->
<g id="edge30" class="edge"><title>n3&#45;&gt;n5</title>
<path fill="none" stroke="black" d="M54.3363,-209.572C52.07,-199.176 50.9818,-187.142 53.9325,-176.48 63.8472,-140.654 65.3301,-124.314 96.9325,-104.74 173.392,-57.3822 788.408,-35.8954 1003.21,-29.7841"/>
<polygon fill="black" stroke="black" points="1003.54,-33.2762 1013.44,-29.4961 1003.35,-26.279 1003.54,-33.2762"/>
<text text-anchor="middle" x="152.933" y="-127.91" font-family="Times,serif" font-size="14.00"> static(visible_from)</text>
</g>
<!-- n3&#45;&gt;n6 -->
<g id="edge16" class="edge"><title>n3&#45;&gt;n6</title>
<path fill="none" stroke="black" d="M120.984,-225.71C155.465,-220.273 200.098,-213.738 239.933,-209.48 357.313,-196.935 390.314,-219.731 504.933,-191.48 520.969,-187.528 522.962,-180.691 538.933,-176.48 663.578,-143.619 814.172,-135.028 902.085,-132.982"/>
<polygon fill="black" stroke="black" points="902.303,-136.479 912.228,-132.769 902.156,-129.48 902.303,-136.479"/>
<text text-anchor="middle" x="594.933" y="-180.28" font-family="Times,serif" font-size="14.00"> static(visible_from)</text>
</g>
<!-- n5&#45;&gt;n5 -->
<g id="edge2" class="edge"><title>n5&#45;&gt;n5</title>
<path fill="none" stroke="black" d="M1136.74,-36.3053C1149.42,-35.3472 1158.57,-32.2021 1158.57,-26.8701 1158.57,-23.121 1154.05,-20.4531 1146.95,-18.8664"/>
<polygon fill="black" stroke="black" points="1147.13,-15.3569 1136.74,-17.4349 1146.15,-22.2891 1147.13,-15.3569"/>
<text text-anchor="middle" x="1217.57" y="-23.1701" font-family="Times,serif" font-size="14.00"> init(at_rock_sample)</text>
</g>
<!-- n5&#45;&gt;n6 -->
<g id="edge14" class="edge"><title>n5&#45;&gt;n6</title>
<path fill="none" stroke="black" d="M1019.67,-38.8917C1001.64,-45.3512 983.658,-55.5746 972.933,-71.7401 968.477,-78.4555 967.046,-86.6101 967.201,-94.683"/>
<polygon fill="black" stroke="black" points="963.727,-95.1176 968.138,-104.751 970.697,-94.4694 963.727,-95.1176"/>
<text text-anchor="middle" x="1011.93" y="-75.5401" font-family="Times,serif" font-size="14.00"> static(visible)</text>
</g>
<!-- n6&#45;&gt;n5 -->
<g id="edge7" class="edge"><title>n6&#45;&gt;n5</title>
<path fill="none" stroke="black" d="M1021.3,-112.47C1033.5,-105.848 1045.82,-97.3218 1054.93,-86.7401 1060.71,-80.0241 1065.04,-71.6441 1068.26,-63.3318"/>
<polygon fill="black" stroke="black" points="1071.62,-64.3033 1071.54,-53.7088 1065,-62.0437 1071.62,-64.3033"/>
<text text-anchor="middle" x="1103.93" y="-75.5401" font-family="Times,serif" font-size="14.00"> static(visible)</text>
</g>
<!-- n7 -->
<g id="node7" class="node"><title>n7</title>
<ellipse fill="none" stroke="black" cx="684.933" cy="-341.09" rx="56.6372" ry="26.7407"/>
<text text-anchor="middle" x="684.933" y="-344.89" font-family="Times,serif" font-size="14.00">&lt;camera0&gt;</text>
<text text-anchor="middle" x="684.933" y="-329.89" font-family="Times,serif" font-size="14.00">camera</text>
</g>
<!-- n7&#45;&gt;n4 -->
<g id="edge11" class="edge"><title>n7&#45;&gt;n4</title>
<path fill="none" stroke="black" d="M628.221,-338.62C525.703,-334.571 316.388,-319.449 275.933,-263.22 256.353,-236.007 259.055,-196.664 264.833,-168.278"/>
<polygon fill="black" stroke="black" points="268.284,-168.883 267.065,-158.359 261.455,-167.346 268.284,-168.883"/>
<text text-anchor="middle" x="319.933" y="-232.65" font-family="Times,serif" font-size="14.00"> static(supports)</text>
</g>
<!-- n9 -->
<g id="node9" class="node"><title>n9</title>
<ellipse fill="none" stroke="black" cx="1336.93" cy="-236.35" rx="62.8651" ry="26.7407"/>
<text text-anchor="middle" x="1336.93" y="-240.15" font-family="Times,serif" font-size="14.00">&lt;objective2&gt;</text>
<text text-anchor="middle" x="1336.93" y="-225.15" font-family="Times,serif" font-size="14.00">objective</text>
</g>
<!-- n7&#45;&gt;n9 -->
<g id="edge15" class="edge"><title>n7&#45;&gt;n9</title>
<path fill="none" stroke="black" d="M725.129,-321.939C733.504,-318.842 742.386,-316.041 750.933,-314.22 920.208,-278.158 968.906,-322.764 1139.93,-296.22 1165.39,-292.269 1171.02,-287.806 1195.93,-281.22 1226.57,-273.12 1234.66,-272.588 1264.93,-263.22 1270.17,-261.601 1275.58,-259.832 1280.99,-258.003"/>
<polygon fill="black" stroke="black" points="1282.35,-261.236 1290.66,-254.666 1280.07,-254.618 1282.35,-261.236"/>
<text text-anchor="middle" x="1264.43" y="-285.02" font-family="Times,serif" font-size="14.00"> static(calibration_target)</text>
</g>
<!-- n13 -->
<g id="node13" class="node"><title>n13</title>
<ellipse fill="none" stroke="black" cx="761.933" cy="-236.35" rx="48.1667" ry="26.7407"/>
<text text-anchor="middle" x="761.933" y="-240.15" font-family="Times,serif" font-size="14.00">&lt;rover0&gt;</text>
<text text-anchor="middle" x="761.933" y="-225.15" font-family="Times,serif" font-size="14.00">rover</text>
</g>
<!-- n7&#45;&gt;n13 -->
<g id="edge28" class="edge"><title>n7&#45;&gt;n13</title>
<path fill="none" stroke="black" d="M686.465,-314.095C688.127,-303.198 691.434,-290.851 697.933,-281.22 703.245,-273.348 710.485,-266.485 718.188,-260.671"/>
<polygon fill="black" stroke="black" points="720.45,-263.362 726.659,-254.777 716.452,-257.616 720.45,-263.362"/>
<text text-anchor="middle" x="744.433" y="-285.02" font-family="Times,serif" font-size="14.00"> static(on_board)</text>
</g>
<!-- n8 -->
<g id="node8" class="node"><title>n8</title>
<ellipse fill="none" stroke="black" cx="1336.93" cy="-341.09" rx="56.6372" ry="26.7407"/>
<text text-anchor="middle" x="1336.93" y="-344.89" font-family="Times,serif" font-size="14.00">&lt;camera1&gt;</text>
<text text-anchor="middle" x="1336.93" y="-329.89" font-family="Times,serif" font-size="14.00">camera</text>
</g>
<!-- n8&#45;&gt;n4 -->
<g id="edge13" class="edge"><title>n8&#45;&gt;n4</title>
<path fill="none" stroke="black" d="M1281.48,-335.754C1212.48,-330.412 1091.04,-321.191 986.933,-314.22 746.403,-298.116 672.917,-347.153 446.933,-263.22 405.736,-247.92 403.943,-227.658 363.933,-209.48 337.42,-197.435 322.891,-210.607 300.933,-191.48 293.756,-185.229 288.476,-176.619 284.626,-167.913"/>
<polygon fill="black" stroke="black" points="287.868,-166.591 280.987,-158.534 281.342,-169.123 287.868,-166.591"/>
<text text-anchor="middle" x="490.933" y="-232.65" font-family="Times,serif" font-size="14.00"> static(supports)</text>
</g>
<!-- n8&#45;&gt;n9 -->
<g id="edge20" class="edge"><title>n8&#45;&gt;n9</title>
<path fill="none" stroke="black" d="M1336.93,-314.165C1336.93,-301.875 1336.93,-286.987 1336.93,-273.602"/>
<polygon fill="black" stroke="black" points="1340.43,-273.268 1336.93,-263.268 1333.43,-273.268 1340.43,-273.268"/>
<text text-anchor="middle" x="1405.43" y="-285.02" font-family="Times,serif" font-size="14.00"> static(calibration_target)</text>
</g>
<!-- n8&#45;&gt;n13 -->
<g id="edge24" class="edge"><title>n8&#45;&gt;n13</title>
<path fill="none" stroke="black" d="M1283.08,-332.823C1224.74,-324.746 1129.01,-310.895 1046.93,-296.22 966.233,-281.792 873.339,-262.004 816.128,-249.447"/>
<polygon fill="black" stroke="black" points="816.738,-245.997 806.219,-247.266 815.233,-252.834 816.738,-245.997"/>
<text text-anchor="middle" x="1093.43" y="-285.02" font-family="Times,serif" font-size="14.00"> static(on_board)</text>
</g>
<!-- n8&#45;&gt;n14 -->
<g id="edge5" class="edge"><title>n8&#45;&gt;n14</title>
<path fill="none" stroke="black" d="M1393.61,-339.175C1486.41,-335.932 1675.1,-321.955 1821.93,-263.22 1874.07,-242.365 1899.83,-241.197 1925.93,-191.48 1929.03,-185.578 1930.04,-181.728 1925.93,-176.48 1911.61,-158.196 1855.75,-146.5 1810.38,-139.824"/>
<polygon fill="black" stroke="black" points="1810.68,-136.331 1800.29,-138.394 1809.7,-143.262 1810.68,-136.331"/>
<text text-anchor="middle" x="1958.93" y="-232.65" font-family="Times,serif" font-size="14.00"> static(supports)</text>
</g>
<!-- n16 -->
<g id="node16" class="node"><title>n16</title>
<ellipse fill="none" stroke="black" cx="2178.93" cy="-131.61" rx="48.1667" ry="26.7407"/>
<text text-anchor="middle" x="2178.93" y="-135.41" font-family="Times,serif" font-size="14.00">&lt;colour&gt;</text>
<text text-anchor="middle" x="2178.93" y="-120.41" font-family="Times,serif" font-size="14.00">mode</text>
</g>
<!-- n8&#45;&gt;n16 -->
<g id="edge19" class="edge"><title>n8&#45;&gt;n16</title>
<path fill="none" stroke="black" d="M1393.74,-339.826C1510.79,-337.93 1786.34,-326.474 2006.93,-263.22 2081.07,-241.963 2115.9,-251.008 2164.93,-191.48 2170.3,-184.966 2173.68,-176.743 2175.78,-168.525"/>
<polygon fill="black" stroke="black" points="2179.23,-169.112 2177.77,-158.618 2172.37,-167.733 2179.23,-169.112"/>
<text text-anchor="middle" x="2191.93" y="-232.65" font-family="Times,serif" font-size="14.00"> static(supports)</text>
</g>
<!-- n9&#45;&gt;n6 -->
<g id="edge8" class="edge"><title>n9&#45;&gt;n6</title>
<path fill="none" stroke="black" d="M1292.56,-217.204C1283.55,-214.147 1274.04,-211.361 1264.93,-209.48 1233.53,-202.995 999.083,-214.661 976.933,-191.48 971.109,-185.386 968.933,-177.108 968.66,-168.687"/>
<polygon fill="black" stroke="black" points="972.166,-168.638 969.153,-158.481 965.174,-168.3 972.166,-168.638"/>
<text text-anchor="middle" x="1032.93" y="-180.28" font-family="Times,serif" font-size="14.00"> static(visible_from)</text>
</g>
<!-- n9&#45;&gt;n14 -->
<g id="edge9" class="edge"><title>n9&#45;&gt;n14</title>
<path fill="none" stroke="black" d="M1389.47,-221.449C1428.02,-211.156 1476.97,-197.856 1496.93,-191.48 1515.42,-185.576 1519.28,-181.811 1537.93,-176.48 1538.4,-176.347 1626.82,-157.886 1688.76,-144.958"/>
<polygon fill="black" stroke="black" points="1689.77,-148.323 1698.84,-142.854 1688.34,-141.471 1689.77,-148.323"/>
<text text-anchor="middle" x="1631.93" y="-180.28" font-family="Times,serif" font-size="14.00"> end(communicated_image_data)</text>
</g>
<!-- n10 -->
<g id="node10" class="node"><title>n10</title>
<ellipse fill="none" stroke="black" cx="826.933" cy="-341.09" rx="67.3507" ry="26.7407"/>
<text text-anchor="middle" x="826.933" y="-344.89" font-family="Times,serif" font-size="14.00">&lt;rover0store&gt;</text>
<text text-anchor="middle" x="826.933" y="-329.89" font-family="Times,serif" font-size="14.00">store</text>
</g>
<!-- n10&#45;&gt;n10 -->
<g id="edge3" class="edge"><title>n10&#45;&gt;n10</title>
<path fill="none" stroke="black" d="M890.079,-350.468C902.916,-349.447 912.108,-346.321 912.108,-341.09 912.108,-337.413 907.563,-334.775 900.403,-333.179"/>
<polygon fill="black" stroke="black" points="900.472,-329.653 890.079,-331.712 899.487,-336.584 900.472,-329.653"/>
<text text-anchor="middle" x="945.108" y="-337.39" font-family="Times,serif" font-size="14.00"> init(empty)</text>
</g>
<!-- n10&#45;&gt;n13 -->
<g id="edge6" class="edge"><title>n10&#45;&gt;n13</title>
<path fill="none" stroke="black" d="M814.179,-314.7C808.609,-304.142 801.79,-291.886 794.933,-281.22 792.489,-277.42 789.819,-273.523 787.09,-269.695"/>
<polygon fill="black" stroke="black" points="789.816,-267.494 781.086,-261.49 784.167,-271.627 789.816,-267.494"/>
<text text-anchor="middle" x="846.933" y="-285.02" font-family="Times,serif" font-size="14.00"> static(store_of)</text>
</g>
<!-- n11 -->
<g id="node11" class="node"><title>n11</title>
<ellipse fill="none" stroke="black" cx="1749.93" cy="-236.35" rx="62.8651" ry="26.7407"/>
<text text-anchor="middle" x="1749.93" y="-240.15" font-family="Times,serif" font-size="14.00">&lt;objective5&gt;</text>
<text text-anchor="middle" x="1749.93" y="-225.15" font-family="Times,serif" font-size="14.00">objective</text>
</g>
<!-- n11&#45;&gt;n6 -->
<g id="edge31" class="edge"><title>n11&#45;&gt;n6</title>
<path fill="none" stroke="black" d="M1692.28,-225.155C1659.45,-219.707 1617.5,-213.345 1579.93,-209.48 1506.21,-201.897 1317.37,-214.507 1246.93,-191.48 1235.33,-187.688 1235.28,-180.967 1223.93,-176.48 1167.44,-154.147 1099.23,-143.133 1048.65,-137.731"/>
<polygon fill="black" stroke="black" points="1048.76,-134.224 1038.46,-136.692 1048.05,-141.188 1048.76,-134.224"/>
<text text-anchor="middle" x="1302.93" y="-180.28" font-family="Times,serif" font-size="14.00"> static(visible_from)</text>
</g>
<!-- n11&#45;&gt;n16 -->
<g id="edge12" class="edge"><title>n11&#45;&gt;n16</title>
<path fill="none" stroke="black" d="M1803.93,-222.216C1838.79,-213.656 1885.1,-202.135 1925.93,-191.48 1950.45,-185.082 1956.33,-182.556 1980.93,-176.48 2029.3,-164.533 2084.7,-152.39 2124.57,-143.917"/>
<polygon fill="black" stroke="black" points="2125.3,-147.34 2134.36,-141.844 2123.85,-140.492 2125.3,-147.34"/>
<text text-anchor="middle" x="2072.93" y="-180.28" font-family="Times,serif" font-size="14.00"> end(communicated_image_data)</text>
</g>
<!-- n12 -->
<g id="node12" class="node"><title>n12</title>
<ellipse fill="none" stroke="black" cx="606.933" cy="-236.35" rx="62.8651" ry="26.7407"/>
<text text-anchor="middle" x="606.933" y="-240.15" font-family="Times,serif" font-size="14.00">&lt;objective4&gt;</text>
<text text-anchor="middle" x="606.933" y="-225.15" font-family="Times,serif" font-size="14.00">objective</text>
</g>
<!-- n12&#45;&gt;n4 -->
<g id="edge29" class="edge"><title>n12&#45;&gt;n4</title>
<path fill="none" stroke="black" d="M551.873,-223.252C529.069,-218.517 502.302,-213.314 477.933,-209.48 443.242,-204.023 351.567,-208.649 320.933,-191.48 310.256,-185.497 301.2,-175.926 294.021,-166.225"/>
<polygon fill="black" stroke="black" points="296.749,-164.015 288.202,-157.754 290.98,-167.979 296.749,-164.015"/>
<text text-anchor="middle" x="412.933" y="-180.28" font-family="Times,serif" font-size="14.00"> end(communicated_image_data)</text>
</g>
<!-- n12&#45;&gt;n6 -->
<g id="edge25" class="edge"><title>n12&#45;&gt;n6</title>
<path fill="none" stroke="black" d="M629.631,-210.982C642.572,-198.627 659.796,-184.562 677.933,-176.48 749.648,-144.521 839.746,-134.96 901.996,-132.516"/>
<polygon fill="black" stroke="black" points="902.251,-136.01 912.126,-132.172 902.013,-129.014 902.251,-136.01"/>
<text text-anchor="middle" x="733.933" y="-180.28" font-family="Times,serif" font-size="14.00"> static(visible_from)</text>
</g>
<!-- n13&#45;&gt;n6 -->
<g id="edge32" class="edge"><title>n13&#45;&gt;n6</title>
<path fill="none" stroke="black" d="M777.126,-210.727C785.683,-198.765 797.371,-185.139 810.933,-176.48 838.989,-158.566 874.184,-147.926 904.854,-141.627"/>
<polygon fill="black" stroke="black" points="905.911,-144.987 915.065,-139.652 904.582,-138.114 905.911,-144.987"/>
<text text-anchor="middle" x="831.433" y="-180.28" font-family="Times,serif" font-size="14.00"> init(at)</text>
</g>
<!-- n13&#45;&gt;n13 -->
<g id="edge4" class="edge"><title>n13&#45;&gt;n13</title>
<path fill="none" stroke="black" d="M807.027,-246.015C818.97,-245.462 828.016,-242.241 828.016,-236.35 828.016,-232.3 823.74,-229.512 817.187,-227.986"/>
<polygon fill="black" stroke="black" points="817.391,-224.483 807.027,-226.686 816.502,-231.427 817.391,-224.483"/>
<text text-anchor="middle" x="921.516" y="-247.65" font-family="Times,serif" font-size="14.00"> static(equipped_for_imaging)</text>
<text text-anchor="middle" x="921.516" y="-232.65" font-family="Times,serif" font-size="14.00">init(available)</text>
<text text-anchor="middle" x="921.516" y="-217.65" font-family="Times,serif" font-size="14.00">static(equipped_for_soil_analysis)</text>
</g>
<!-- n15 -->
<g id="node15" class="node"><title>n15</title>
<ellipse fill="none" stroke="black" cx="2347.93" cy="-236.35" rx="62.8651" ry="26.7407"/>
<text text-anchor="middle" x="2347.93" y="-240.15" font-family="Times,serif" font-size="14.00">&lt;objective1&gt;</text>
<text text-anchor="middle" x="2347.93" y="-225.15" font-family="Times,serif" font-size="14.00">objective</text>
</g>
<!-- n15&#45;&gt;n5 -->
<g id="edge10" class="edge"><title>n15&#45;&gt;n5</title>
<path fill="none" stroke="black" d="M2382.75,-213.946C2395.73,-203.177 2405.48,-189.641 2396.93,-176.48 2354.28,-110.774 2311.97,-123.567 2235.93,-104.74 2028.79,-53.4553 1372.01,-34.4288 1150.61,-29.3748"/>
<polygon fill="black" stroke="black" points="1150.48,-25.871 1140.4,-29.1446 1150.32,-32.8692 1150.48,-25.871"/>
<text text-anchor="middle" x="2438.93" y="-127.91" font-family="Times,serif" font-size="14.00"> static(visible_from)</text>
</g>
<!-- n15&#45;&gt;n6 -->
<g id="edge21" class="edge"><title>n15&#45;&gt;n6</title>
<path fill="none" stroke="black" d="M2302.51,-217.558C2292.28,-214.263 2281.35,-211.292 2270.93,-209.48 2173.49,-192.535 1475.15,-221.589 1380.93,-191.48 1369.66,-187.878 1370.02,-180.607 1358.93,-176.48 1303.78,-155.959 1143.69,-142.931 1048.85,-136.784"/>
<polygon fill="black" stroke="black" points="1048.95,-133.284 1038.75,-136.14 1048.5,-140.269 1048.95,-133.284"/>
<text text-anchor="middle" x="1436.93" y="-180.28" font-family="Times,serif" font-size="14.00"> static(visible_from)</text>
</g>
<!-- n15&#45;&gt;n16 -->
<g id="edge17" class="edge"><title>n15&#45;&gt;n16</title>
<path fill="none" stroke="black" d="M2299.52,-218.894C2290.05,-215.73 2280.19,-212.472 2270.93,-209.48 2245.25,-201.182 2234.02,-208.325 2212.93,-191.48 2204.84,-185.017 2198.3,-176.067 2193.2,-167.096"/>
<polygon fill="black" stroke="black" points="2196.3,-165.463 2188.58,-158.208 2190.09,-168.694 2196.3,-165.463"/>
<text text-anchor="middle" x="2304.93" y="-180.28" font-family="Times,serif" font-size="14.00"> end(communicated_image_data)</text>
</g>
</g>
</svg>
