<?xml version="1.0" encoding="UTF-8" standalone="no"?>
<!DOCTYPE svg PUBLIC "-//W3C//DTD SVG 1.1//EN"
 "http://www.w3.org/Graphics/SVG/1.1/DTD/svg11.dtd">
<!-- Generated by graphviz version 2.38.0 (20140413.2041)
 -->
<!-- Title: Struc Pages: 1 -->
<svg width="936pt" height="400pt"
 viewBox="0.00 0.00 936.18 399.96" xmlns="http://www.w3.org/2000/svg" xmlns:xlink="http://www.w3.org/1999/xlink">
<g id="graph0" class="graph" transform="scale(1 1) rotate(0) translate(4 395.96)">
<title>Struc</title>
<polygon fill="white" stroke="none" points="-4,4 -4,-395.96 932.175,-395.96 932.175,4 -4,4"/>
<!-- n1 -->
<g id="node1" class="node"><title>n1</title>
<ellipse fill="none" stroke="black" cx="67.1751" cy="-361.09" rx="67.3507" ry="26.7407"/>
<text text-anchor="middle" x="67.1751" y="-364.89" font-family="Times,serif" font-size="14.00">&lt;rover0store&gt;</text>
<text text-anchor="middle" x="67.1751" y="-349.89" font-family="Times,serif" font-size="14.00">store</text>
</g>
<!-- n1&#45;&gt;n1 -->
<g id="edge1" class="edge"><title>n1&#45;&gt;n1</title>
<path fill="none" stroke="black" d="M129.57,-371.251C142.798,-370.22 152.35,-366.833 152.35,-361.09 152.35,-356.918 147.308,-353.99 139.476,-352.304"/>
<polygon fill="black" stroke="black" points="139.956,-348.837 129.57,-350.929 138.994,-355.771 139.956,-348.837"/>
<text text-anchor="middle" x="185.35" y="-357.39" font-family="Times,serif" font-size="14.00"> init(empty)</text>
</g>
<!-- n6 -->
<g id="node6" class="node"><title>n6</title>
<ellipse fill="none" stroke="black" cx="67.1751" cy="-248.35" rx="48.1667" ry="26.7407"/>
<text text-anchor="middle" x="67.1751" y="-252.15" font-family="Times,serif" font-size="14.00">&lt;rover0&gt;</text>
<text text-anchor="middle" x="67.1751" y="-237.15" font-family="Times,serif" font-size="14.00">rover</text>
</g>
<!-- n1&#45;&gt;n6 -->
<g id="edge15" class="edge"><title>n1&#45;&gt;n6</title>
<path fill="none" stroke="black" d="M67.1751,-334.127C67.1751,-319.653 67.1751,-301.403 67.1751,-285.546"/>
<polygon fill="black" stroke="black" points="70.6752,-285.535 67.1751,-275.535 63.6752,-285.535 70.6752,-285.535"/>
<text text-anchor="middle" x="110.175" y="-301.02" font-family="Times,serif" font-size="14.00"> static(store_of)</text>
</g>
<!-- n2 -->
<g id="node2" class="node"><title>n2</title>
<ellipse fill="none" stroke="black" cx="390.175" cy="-248.35" rx="51.7379" ry="26.7407"/>
<text text-anchor="middle" x="390.175" y="-252.15" font-family="Times,serif" font-size="14.00">&lt;general&gt;</text>
<text text-anchor="middle" x="390.175" y="-237.15" font-family="Times,serif" font-size="14.00">lander</text>
</g>
<!-- n2&#45;&gt;n2 -->
<g id="edge2" class="edge"><title>n2&#45;&gt;n2</title>
<path fill="none" stroke="black" d="M438.007,-258.742C450.428,-258.103 459.794,-254.639 459.794,-248.35 459.794,-243.928 455.164,-240.903 448.097,-239.274"/>
<polygon fill="black" stroke="black" points="448.376,-235.781 438.007,-237.959 447.471,-242.723 448.376,-235.781"/>
<text text-anchor="middle" x="510.294" y="-244.65" font-family="Times,serif" font-size="14.00"> init(channel_free)</text>
</g>
<!-- n7 -->
<g id="node7" class="node"><title>n7</title>
<ellipse fill="none" stroke="black" cx="407.175" cy="-135.61" rx="63.7795" ry="26.7407"/>
<text text-anchor="middle" x="407.175" y="-139.41" font-family="Times,serif" font-size="14.00">&lt;waypoint0&gt;</text>
<text text-anchor="middle" x="407.175" y="-124.41" font-family="Times,serif" font-size="14.00">waypoint</text>
</g>
<!-- n2&#45;&gt;n7 -->
<g id="edge7" class="edge"><title>n2&#45;&gt;n7</title>
<path fill="none" stroke="black" d="M384.027,-221.417C382.255,-209.984 381.448,-196.454 384.175,-184.48 385.17,-180.114 386.614,-175.682 388.303,-171.366"/>
<polygon fill="black" stroke="black" points="391.522,-172.739 392.308,-162.174 385.105,-169.943 391.522,-172.739"/>
<text text-anchor="middle" x="430.175" y="-188.28" font-family="Times,serif" font-size="14.00"> static(at_lander)</text>
</g>
<!-- n3 -->
<g id="node3" class="node"><title>n3</title>
<ellipse fill="none" stroke="black" cx="836.175" cy="-135.61" rx="56.6326" ry="26.7574"/>
<ellipse fill="none" stroke="black" cx="836.175" cy="-135.61" rx="60.6372" ry="30.7407"/>
<text text-anchor="middle" x="836.175" y="-139.41" font-family="Times,serif" font-size="14.00">&lt;high_res&gt;</text>
<text text-anchor="middle" x="836.175" y="-124.41" font-family="Times,serif" font-size="14.00">mode</text>
</g>
<!-- n4 -->
<g id="node4" class="node"><title>n4</title>
<ellipse fill="none" stroke="black" cx="651.175" cy="-248.35" rx="67.7712" ry="26.7574"/>
<ellipse fill="none" stroke="black" cx="651.175" cy="-248.35" rx="71.7647" ry="30.7407"/>
<text text-anchor="middle" x="651.175" y="-252.15" font-family="Times,serif" font-size="14.00">&lt;objective14&gt;</text>
<text text-anchor="middle" x="651.175" y="-237.15" font-family="Times,serif" font-size="14.00">objective</text>
</g>
<!-- n4&#45;&gt;n3 -->
<g id="edge10" class="edge"><title>n4&#45;&gt;n3</title>
<path fill="none" stroke="black" stroke-dasharray="5,2" d="M648.065,-217.401C648.48,-205.81 651.157,-193.25 659.175,-184.48 684.352,-156.942 705.12,-176.085 741.175,-166.48 752.661,-163.42 764.829,-159.85 776.485,-156.263"/>
<polygon fill="black" stroke="black" points="777.623,-159.575 786.129,-153.258 775.54,-152.892 777.623,-159.575"/>
<text text-anchor="middle" x="751.175" y="-188.28" font-family="Times,serif" font-size="14.00"> end(communicated_image_data)</text>
</g>
<!-- n4&#45;&gt;n7 -->
<g id="edge8" class="edge"><title>n4&#45;&gt;n7</title>
<path fill="none" stroke="black" d="M598.728,-227.1C589.282,-223.713 579.48,-220.367 570.175,-217.48 539.083,-207.835 528.848,-212.87 499.175,-199.48 496.211,-198.143 470.972,-180.86 447.679,-164.754"/>
<polygon fill="black" stroke="black" points="449.445,-161.72 439.23,-158.906 445.46,-167.475 449.445,-161.72"/>
<text text-anchor="middle" x="555.175" y="-188.28" font-family="Times,serif" font-size="14.00"> static(visible_from)</text>
</g>
<!-- n8 -->
<g id="node8" class="node"><title>n8</title>
<ellipse fill="none" stroke="black" cx="508.175" cy="-26.8701" rx="63.7795" ry="26.7407"/>
<text text-anchor="middle" x="508.175" y="-30.6701" font-family="Times,serif" font-size="14.00">&lt;waypoint1&gt;</text>
<text text-anchor="middle" x="508.175" y="-15.6701" font-family="Times,serif" font-size="14.00">waypoint</text>
</g>
<!-- n4&#45;&gt;n8 -->
<g id="edge12" class="edge"><title>n4&#45;&gt;n8</title>
<path fill="none" stroke="black" stroke-dasharray="5,2" d="M644.687,-217.364C635.326,-179.833 614.973,-115.211 578.175,-71.7401 572.255,-64.7462 564.929,-58.5107 557.269,-53.0908"/>
<polygon fill="black" stroke="black" points="559.146,-50.1359 548.876,-47.5323 555.281,-55.9721 559.146,-50.1359"/>
<text text-anchor="middle" x="685.175" y="-131.91" font-family="Times,serif" font-size="14.00"> static(visible_from)</text>
</g>
<!-- n5 -->
<g id="node5" class="node"><title>n5</title>
<ellipse fill="none" stroke="black" cx="651.175" cy="-361.09" rx="56.6326" ry="26.7574"/>
<ellipse fill="none" stroke="black" cx="651.175" cy="-361.09" rx="60.6372" ry="30.7407"/>
<text text-anchor="middle" x="651.175" y="-364.89" font-family="Times,serif" font-size="14.00">&lt;camera1&gt;</text>
<text text-anchor="middle" x="651.175" y="-349.89" font-family="Times,serif" font-size="14.00">camera</text>
</g>
<!-- n5&#45;&gt;n3 -->
<g id="edge5" class="edge"><title>n5&#45;&gt;n3</title>
<path fill="none" stroke="black" stroke-dasharray="5,2" d="M708.82,-351.56C736.779,-344.882 769.196,-333.061 792.175,-312.22 832.912,-275.275 831.581,-253.239 843.175,-199.48 844.751,-192.173 844.994,-184.308 844.502,-176.697"/>
<polygon fill="black" stroke="black" points="847.961,-176.13 843.431,-166.553 841,-176.865 847.961,-176.13"/>
<text text-anchor="middle" x="884.175" y="-244.65" font-family="Times,serif" font-size="14.00"> static(supports)</text>
</g>
<!-- n5&#45;&gt;n4 -->
<g id="edge13" class="edge"><title>n5&#45;&gt;n4</title>
<path fill="none" stroke="black" stroke-dasharray="5,2" d="M651.175,-330.123C651.175,-317.689 651.175,-303.073 651.175,-289.717"/>
<polygon fill="black" stroke="black" points="654.675,-289.342 651.175,-279.342 647.675,-289.342 654.675,-289.342"/>
<text text-anchor="middle" x="719.675" y="-301.02" font-family="Times,serif" font-size="14.00"> static(calibration_target)</text>
</g>
<!-- n5&#45;&gt;n6 -->
<g id="edge11" class="edge"><title>n5&#45;&gt;n6</title>
<path fill="none" stroke="black" d="M594.914,-349.422C482.918,-328.185 233.328,-280.857 122.284,-259.8"/>
<polygon fill="black" stroke="black" points="122.774,-256.331 112.297,-257.906 121.47,-263.208 122.774,-256.331"/>
<text text-anchor="middle" x="440.675" y="-301.02" font-family="Times,serif" font-size="14.00"> static(on_board)</text>
</g>
<!-- n6&#45;&gt;n6 -->
<g id="edge3" class="edge"><title>n6&#45;&gt;n6</title>
<path fill="none" stroke="black" d="M111.65,-258.786C123.898,-258.282 133.258,-254.803 133.258,-248.35 133.258,-243.813 128.631,-240.746 121.625,-239.15"/>
<polygon fill="black" stroke="black" points="122.004,-235.67 111.65,-237.914 121.144,-242.617 122.004,-235.67"/>
<text text-anchor="middle" x="226.758" y="-259.65" font-family="Times,serif" font-size="14.00"> static(equipped_for_imaging)</text>
<text text-anchor="middle" x="226.758" y="-244.65" font-family="Times,serif" font-size="14.00">init(available)</text>
<text text-anchor="middle" x="226.758" y="-229.65" font-family="Times,serif" font-size="14.00">static(equipped_for_soil_analysis)</text>
</g>
<!-- n6&#45;&gt;n7 -->
<g id="edge6" class="edge"><title>n6&#45;&gt;n7</title>
<path fill="none" stroke="black" d="M108.187,-233.992C167.948,-214.528 279.3,-178.26 347.955,-155.899"/>
<polygon fill="black" stroke="black" points="349.339,-159.129 357.763,-152.704 347.171,-152.473 349.339,-159.129"/>
<text text-anchor="middle" x="278.675" y="-188.28" font-family="Times,serif" font-size="14.00"> init(at)</text>
</g>
<!-- n7&#45;&gt;n8 -->
<g id="edge9" class="edge"><title>n7&#45;&gt;n8</title>
<path fill="none" stroke="black" d="M401.486,-108.54C400.288,-96.423 401.105,-82.3768 408.175,-71.7401 416.446,-59.2968 429.103,-50.3571 442.66,-43.9432"/>
<polygon fill="black" stroke="black" points="444.324,-47.0388 452.147,-39.8944 441.576,-40.6006 444.324,-47.0388"/>
<text text-anchor="middle" x="447.175" y="-75.5401" font-family="Times,serif" font-size="14.00"> static(visible)</text>
</g>
<!-- n8&#45;&gt;n7 -->
<g id="edge14" class="edge"><title>n8&#45;&gt;n7</title>
<path fill="none" stroke="black" d="M502.523,-53.8627C499.156,-64.8852 493.971,-77.3296 486.175,-86.7401 478.658,-95.8142 468.948,-103.623 458.923,-110.145"/>
<polygon fill="black" stroke="black" points="456.791,-107.347 450.08,-115.545 460.439,-113.321 456.791,-107.347"/>
<text text-anchor="middle" x="535.175" y="-75.5401" font-family="Times,serif" font-size="14.00"> static(visible)</text>
</g>
<!-- n8&#45;&gt;n8 -->
<g id="edge4" class="edge"><title>n8&#45;&gt;n8</title>
<path fill="none" stroke="black" d="M567.98,-36.3053C580.659,-35.3472 589.815,-32.2021 589.815,-26.8701 589.815,-23.121 585.288,-20.4531 578.193,-18.8664"/>
<polygon fill="black" stroke="black" points="578.369,-15.3569 567.98,-17.4349 577.397,-22.2891 578.369,-15.3569"/>
<text text-anchor="middle" x="648.815" y="-23.1701" font-family="Times,serif" font-size="14.00"> init(at_rock_sample)</text>
</g>
</g>
</svg>
