<?xml version="1.0" encoding="UTF-8" standalone="no"?>
<!DOCTYPE svg PUBLIC "-//W3C//DTD SVG 1.1//EN"
 "http://www.w3.org/Graphics/SVG/1.1/DTD/svg11.dtd">
<!-- Generated by graphviz version 2.38.0 (20140413.2041)
 -->
<!-- Title: Struc Pages: 1 -->
<svg width="4992pt" height="271pt"
 viewBox="0.00 0.00 4992.11 271.22" xmlns="http://www.w3.org/2000/svg" xmlns:xlink="http://www.w3.org/1999/xlink">
<g id="graph0" class="graph" transform="scale(1 1) rotate(0) translate(4 267.22)">
<title>Struc</title>
<polygon fill="white" stroke="none" points="-4,4 -4,-267.22 4988.11,-267.22 4988.11,4 -4,4"/>
<!-- n1 -->
<g id="node1" class="node"><title>n1</title>
<ellipse fill="none" stroke="black" cx="781.933" cy="-236.35" rx="62.8651" ry="26.7407"/>
<text text-anchor="middle" x="781.933" y="-240.15" font-family="Times,serif" font-size="14.00">&lt;objective0&gt;</text>
<text text-anchor="middle" x="781.933" y="-225.15" font-family="Times,serif" font-size="14.00">objective</text>
</g>
<!-- n4 -->
<g id="node4" class="node"><title>n4</title>
<ellipse fill="none" stroke="black" cx="1224.93" cy="-131.61" rx="63.7795" ry="26.7407"/>
<text text-anchor="middle" x="1224.93" y="-135.41" font-family="Times,serif" font-size="14.00">&lt;waypoint1&gt;</text>
<text text-anchor="middle" x="1224.93" y="-120.41" font-family="Times,serif" font-size="14.00">waypoint</text>
</g>
<!-- n1&#45;&gt;n4 -->
<g id="edge49" class="edge"><title>n1&#45;&gt;n4</title>
<path fill="none" stroke="black" d="M796.838,-210.13C805.648,-197.691 818.004,-183.814 832.933,-176.48 896.659,-145.173 1082.32,-172.48 1151.93,-158.48 1157.99,-157.262 1164.22,-155.649 1170.37,-153.82"/>
<polygon fill="black" stroke="black" points="1171.46,-157.148 1179.94,-150.796 1169.35,-150.474 1171.46,-157.148"/>
<text text-anchor="middle" x="888.933" y="-180.28" font-family="Times,serif" font-size="14.00"> static(visible_from)</text>
</g>
<!-- n21 -->
<g id="node21" class="node"><title>n21</title>
<ellipse fill="none" stroke="black" cx="2473.93" cy="-131.61" rx="56.6372" ry="26.7407"/>
<text text-anchor="middle" x="2473.93" y="-135.41" font-family="Times,serif" font-size="14.00">&lt;high_res&gt;</text>
<text text-anchor="middle" x="2473.93" y="-120.41" font-family="Times,serif" font-size="14.00">mode</text>
</g>
<!-- n1&#45;&gt;n21 -->
<g id="edge47" class="edge"><title>n1&#45;&gt;n21</title>
<path fill="none" stroke="black" d="M828.793,-218.292C840.45,-214.733 853.022,-211.463 864.933,-209.48 1007.25,-185.791 1372.34,-219.189 1513.93,-191.48 1532.57,-187.834 1535.3,-180.144 1553.93,-176.48 1686.34,-150.437 2026.2,-166.041 2160.93,-158.48 2246.67,-153.669 2345.37,-144.987 2408.64,-139.018"/>
<polygon fill="black" stroke="black" points="2409.24,-142.476 2418.87,-138.047 2408.58,-135.508 2409.24,-142.476"/>
<text text-anchor="middle" x="1645.93" y="-180.28" font-family="Times,serif" font-size="14.00"> end(communicated_image_data)</text>
</g>
<!-- n22 -->
<g id="node22" class="node"><title>n22</title>
<ellipse fill="none" stroke="black" cx="1848.93" cy="-26.8701" rx="63.7795" ry="26.7407"/>
<text text-anchor="middle" x="1848.93" y="-30.6701" font-family="Times,serif" font-size="14.00">&lt;waypoint0&gt;</text>
<text text-anchor="middle" x="1848.93" y="-15.6701" font-family="Times,serif" font-size="14.00">waypoint</text>
</g>
<!-- n1&#45;&gt;n22 -->
<g id="edge48" class="edge"><title>n1&#45;&gt;n22</title>
<path fill="none" stroke="black" d="M729.576,-221.324C710.884,-216.832 689.588,-212.297 669.933,-209.48 600.917,-199.591 313.386,-230.113 357.933,-176.48 362.997,-170.383 911.059,-72.6564 918.933,-71.7401 1236.09,-34.83 1617.53,-28.761 1775.2,-27.914"/>
<polygon fill="black" stroke="black" points="1775.28,-31.4138 1785.26,-27.8655 1775.24,-24.4139 1775.28,-31.4138"/>
<text text-anchor="middle" x="793.933" y="-127.91" font-family="Times,serif" font-size="14.00"> static(visible_from)</text>
</g>
<!-- n2 -->
<g id="node2" class="node"><title>n2</title>
<ellipse fill="none" stroke="black" cx="364.933" cy="-236.35" rx="62.8651" ry="26.7407"/>
<text text-anchor="middle" x="364.933" y="-240.15" font-family="Times,serif" font-size="14.00">&lt;objective3&gt;</text>
<text text-anchor="middle" x="364.933" y="-225.15" font-family="Times,serif" font-size="14.00">objective</text>
</g>
<!-- n2&#45;&gt;n4 -->
<g id="edge25" class="edge"><title>n2&#45;&gt;n4</title>
<path fill="none" stroke="black" d="M411.786,-218.336C455.983,-202.597 519.183,-180.976 544.933,-176.48 810.806,-130.056 886.647,-208.156 1151.93,-158.48 1158.09,-157.327 1164.43,-155.737 1170.67,-153.907"/>
<polygon fill="black" stroke="black" points="1171.87,-157.197 1180.36,-150.861 1169.78,-150.519 1171.87,-157.197"/>
<text text-anchor="middle" x="600.933" y="-180.28" font-family="Times,serif" font-size="14.00"> static(visible_from)</text>
</g>
<!-- n2&#45;&gt;n22 -->
<g id="edge15" class="edge"><title>n2&#45;&gt;n22</title>
<path fill="none" stroke="black" d="M307.5,-225.169C269.598,-215.146 222.701,-195.681 198.933,-158.48 186.073,-138.353 183.532,-122.997 198.933,-104.74 250.38,-43.7489 1459.86,-30.7051 1774.62,-28.3396"/>
<polygon fill="black" stroke="black" points="1775.02,-31.8368 1784.99,-28.263 1774.97,-24.837 1775.02,-31.8368"/>
<text text-anchor="middle" x="254.933" y="-127.91" font-family="Times,serif" font-size="14.00"> static(visible_from)</text>
</g>
<!-- n3 -->
<g id="node3" class="node"><title>n3</title>
<ellipse fill="none" stroke="black" cx="1344.93" cy="-236.35" rx="67.7647" ry="26.7407"/>
<text text-anchor="middle" x="1344.93" y="-240.15" font-family="Times,serif" font-size="14.00">&lt;objective16&gt;</text>
<text text-anchor="middle" x="1344.93" y="-225.15" font-family="Times,serif" font-size="14.00">objective</text>
</g>
<!-- n3&#45;&gt;n4 -->
<g id="edge8" class="edge"><title>n3&#45;&gt;n4</title>
<path fill="none" stroke="black" d="M1277.21,-233.86C1206.68,-230.707 1103.02,-221.022 1077.93,-191.48 1073.62,-186.398 1073.81,-181.722 1077.93,-176.48 1098.85,-149.868 1119.49,-168.146 1151.93,-158.48 1157.25,-156.896 1162.75,-155.151 1168.23,-153.338"/>
<polygon fill="black" stroke="black" points="1169.69,-156.539 1178.04,-150.021 1167.45,-149.908 1169.69,-156.539"/>
<text text-anchor="middle" x="1133.93" y="-180.28" font-family="Times,serif" font-size="14.00"> static(visible_from)</text>
</g>
<!-- n3&#45;&gt;n21 -->
<g id="edge27" class="edge"><title>n3&#45;&gt;n21</title>
<path fill="none" stroke="black" d="M1392.43,-217.011C1402.06,-213.97 1412.22,-211.239 1421.93,-209.48 1537.24,-188.601 1838.91,-231.795 1948.93,-191.48 1959.03,-187.779 1957.93,-180.445 1967.93,-176.48 1973,-174.471 2272.46,-149.365 2408.25,-138.062"/>
<polygon fill="black" stroke="black" points="2408.84,-141.525 2418.52,-137.208 2408.26,-134.549 2408.84,-141.525"/>
<text text-anchor="middle" x="2060.93" y="-180.28" font-family="Times,serif" font-size="14.00"> end(communicated_image_data)</text>
</g>
<!-- n3&#45;&gt;n22 -->
<g id="edge30" class="edge"><title>n3&#45;&gt;n22</title>
<path fill="none" stroke="black" d="M1396.05,-218.585C1424.7,-208.713 1455.57,-197.091 1459.93,-191.48 1483.74,-160.837 1443.7,-133.337 1469.93,-104.74 1510.31,-60.7193 1677.69,-40.7549 1775.99,-32.6733"/>
<polygon fill="black" stroke="black" points="1776.47,-36.1462 1786.16,-31.8594 1775.91,-29.1685 1776.47,-36.1462"/>
<text text-anchor="middle" x="1525.93" y="-127.91" font-family="Times,serif" font-size="14.00"> static(visible_from)</text>
</g>
<!-- n4&#45;&gt;n4 -->
<g id="edge1" class="edge"><title>n4&#45;&gt;n4</title>
<path fill="none" stroke="black" d="M1284.74,-141.045C1297.42,-140.087 1306.57,-136.942 1306.57,-131.61 1306.57,-127.861 1302.05,-125.193 1294.95,-123.607"/>
<polygon fill="black" stroke="black" points="1295.13,-120.097 1284.74,-122.175 1294.15,-127.029 1295.13,-120.097"/>
<text text-anchor="middle" x="1365.57" y="-127.91" font-family="Times,serif" font-size="14.00"> init(at_rock_sample)</text>
</g>
<!-- n4&#45;&gt;n22 -->
<g id="edge12" class="edge"><title>n4&#45;&gt;n22</title>
<path fill="none" stroke="black" d="M1228.16,-104.764C1231.06,-92.7928 1236.54,-79.5248 1246.93,-71.7401 1288.31,-40.7435 1623.62,-31.4663 1775.11,-28.8422"/>
<polygon fill="black" stroke="black" points="1775.32,-32.3393 1785.26,-28.6717 1775.2,-25.3403 1775.32,-32.3393"/>
<text text-anchor="middle" x="1285.93" y="-75.5401" font-family="Times,serif" font-size="14.00"> static(visible)</text>
</g>
<!-- n5 -->
<g id="node5" class="node"><title>n5</title>
<ellipse fill="none" stroke="black" cx="4556.93" cy="-236.35" rx="56.6372" ry="26.7407"/>
<text text-anchor="middle" x="4556.93" y="-240.15" font-family="Times,serif" font-size="14.00">&lt;camera0&gt;</text>
<text text-anchor="middle" x="4556.93" y="-225.15" font-family="Times,serif" font-size="14.00">camera</text>
</g>
<!-- n17 -->
<g id="node17" class="node"><title>n17</title>
<ellipse fill="none" stroke="black" cx="4169.93" cy="-131.61" rx="62.8651" ry="26.7407"/>
<text text-anchor="middle" x="4169.93" y="-135.41" font-family="Times,serif" font-size="14.00">&lt;objective8&gt;</text>
<text text-anchor="middle" x="4169.93" y="-120.41" font-family="Times,serif" font-size="14.00">objective</text>
</g>
<!-- n5&#45;&gt;n17 -->
<g id="edge13" class="edge"><title>n5&#45;&gt;n17</title>
<path fill="none" stroke="black" d="M4553.47,-209.411C4550.52,-197.568 4545.05,-184.439 4534.93,-176.48 4491.05,-141.97 4336.69,-134.139 4243.34,-132.64"/>
<polygon fill="black" stroke="black" points="4243.16,-129.137 4233.11,-132.497 4243.06,-136.137 4243.16,-129.137"/>
<text text-anchor="middle" x="4615.43" y="-180.28" font-family="Times,serif" font-size="14.00"> static(calibration_target)</text>
</g>
<!-- n5&#45;&gt;n21 -->
<g id="edge37" class="edge"><title>n5&#45;&gt;n21</title>
<path fill="none" stroke="black" d="M4502.77,-228.097C4455.71,-221.068 4386,-208.903 4326.93,-191.48 4309.91,-186.46 4307.33,-179.971 4289.93,-176.48 4109.52,-140.281 2817.27,-174.21 2633.93,-158.48 2601.33,-155.683 2565.33,-150.089 2535.75,-144.816"/>
<polygon fill="black" stroke="black" points="2536.03,-141.311 2525.57,-142.97 2534.79,-148.198 2536.03,-141.311"/>
<text text-anchor="middle" x="4370.93" y="-180.28" font-family="Times,serif" font-size="14.00"> static(supports)</text>
</g>
<!-- n28 -->
<g id="node28" class="node"><title>n28</title>
<ellipse fill="none" stroke="black" cx="4578.93" cy="-131.61" rx="48.1667" ry="26.7407"/>
<text text-anchor="middle" x="4578.93" y="-135.41" font-family="Times,serif" font-size="14.00">&lt;rover0&gt;</text>
<text text-anchor="middle" x="4578.93" y="-120.41" font-family="Times,serif" font-size="14.00">rover</text>
</g>
<!-- n5&#45;&gt;n28 -->
<g id="edge24" class="edge"><title>n5&#45;&gt;n28</title>
<path fill="none" stroke="black" d="M4613.08,-232.681C4642.51,-228.074 4676.23,-217.047 4694.93,-191.48 4714.39,-164.875 4673.95,-149.47 4635.59,-141.143"/>
<polygon fill="black" stroke="black" points="4635.9,-137.634 4625.4,-139.078 4634.51,-144.495 4635.9,-137.634"/>
<text text-anchor="middle" x="4747.43" y="-180.28" font-family="Times,serif" font-size="14.00"> static(on_board)</text>
</g>
<!-- n6 -->
<g id="node6" class="node"><title>n6</title>
<ellipse fill="none" stroke="black" cx="941.933" cy="-236.35" rx="67.7647" ry="26.7407"/>
<text text-anchor="middle" x="941.933" y="-240.15" font-family="Times,serif" font-size="14.00">&lt;objective17&gt;</text>
<text text-anchor="middle" x="941.933" y="-225.15" font-family="Times,serif" font-size="14.00">objective</text>
</g>
<!-- n6&#45;&gt;n4 -->
<g id="edge16" class="edge"><title>n6&#45;&gt;n4</title>
<path fill="none" stroke="black" d="M942.996,-209.45C944.894,-197.617 949.262,-184.484 958.933,-176.48 992.117,-149.017 1109.87,-167.745 1151.93,-158.48 1157.74,-157.202 1163.71,-155.594 1169.63,-153.808"/>
<polygon fill="black" stroke="black" points="1171.03,-157.036 1179.49,-150.661 1168.9,-150.368 1171.03,-157.036"/>
<text text-anchor="middle" x="1014.93" y="-180.28" font-family="Times,serif" font-size="14.00"> static(visible_from)</text>
</g>
<!-- n6&#45;&gt;n21 -->
<g id="edge53" class="edge"><title>n6&#45;&gt;n21</title>
<path fill="none" stroke="black" d="M1007.75,-229.326C1073.56,-223.492 1177.67,-214.773 1267.93,-209.48 1320.55,-206.395 1692.48,-209.707 1741.93,-191.48 1752.03,-187.759 1750.85,-180.236 1760.93,-176.48 1802.62,-160.948 2116.53,-161.313 2160.93,-158.48 2246.63,-153.013 2345.34,-144.482 2408.62,-138.726"/>
<polygon fill="black" stroke="black" points="2409.21,-142.187 2418.85,-137.791 2408.57,-135.216 2409.21,-142.187"/>
<text text-anchor="middle" x="1852.93" y="-180.28" font-family="Times,serif" font-size="14.00"> end(communicated_image_data)</text>
</g>
<!-- n6&#45;&gt;n22 -->
<g id="edge51" class="edge"><title>n6&#45;&gt;n22</title>
<path fill="none" stroke="black" d="M921.269,-210.575C906.872,-192.693 889.613,-169.784 885.933,-158.48 878.537,-135.769 870.397,-122.881 885.933,-104.74 943.425,-37.6064 1559.18,-28.9118 1774.84,-27.9344"/>
<polygon fill="black" stroke="black" points="1775.12,-31.4333 1785.11,-27.8923 1775.1,-24.4334 1775.12,-31.4333"/>
<text text-anchor="middle" x="941.933" y="-127.91" font-family="Times,serif" font-size="14.00"> static(visible_from)</text>
</g>
<!-- n7 -->
<g id="node7" class="node"><title>n7</title>
<ellipse fill="none" stroke="black" cx="1074.93" cy="-131.61" rx="67.7647" ry="26.7407"/>
<text text-anchor="middle" x="1074.93" y="-135.41" font-family="Times,serif" font-size="14.00">&lt;objective15&gt;</text>
<text text-anchor="middle" x="1074.93" y="-120.41" font-family="Times,serif" font-size="14.00">objective</text>
</g>
<!-- n7&#45;&gt;n22 -->
<g id="edge19" class="edge"><title>n7&#45;&gt;n22</title>
<path fill="none" stroke="black" d="M1087.63,-105.168C1095.21,-92.83 1106.08,-79.1143 1119.93,-71.7401 1176.72,-41.513 1601.67,-31.6402 1775.33,-28.8467"/>
<polygon fill="black" stroke="black" points="1775.46,-32.3452 1785.4,-28.6881 1775.35,-25.3461 1775.46,-32.3452"/>
<text text-anchor="middle" x="1175.93" y="-75.5401" font-family="Times,serif" font-size="14.00"> static(visible_from)</text>
</g>
<!-- n8 -->
<g id="node8" class="node"><title>n8</title>
<ellipse fill="none" stroke="black" cx="62.9325" cy="-236.35" rx="62.8651" ry="26.7407"/>
<text text-anchor="middle" x="62.9325" y="-240.15" font-family="Times,serif" font-size="14.00">&lt;objective7&gt;</text>
<text text-anchor="middle" x="62.9325" y="-225.15" font-family="Times,serif" font-size="14.00">objective</text>
</g>
<!-- n8&#45;&gt;n4 -->
<g id="edge21" class="edge"><title>n8&#45;&gt;n4</title>
<path fill="none" stroke="black" d="M116.996,-222.448C179.256,-208.236 284.811,-186.121 376.933,-176.48 548.265,-158.549 982.506,-189.643 1151.93,-158.48 1158.09,-157.347 1164.43,-155.769 1170.68,-153.946"/>
<polygon fill="black" stroke="black" points="1171.88,-157.238 1180.37,-150.909 1169.78,-150.558 1171.88,-157.238"/>
<text text-anchor="middle" x="432.933" y="-180.28" font-family="Times,serif" font-size="14.00"> static(visible_from)</text>
</g>
<!-- n8&#45;&gt;n22 -->
<g id="edge40" class="edge"><title>n8&#45;&gt;n22</title>
<path fill="none" stroke="black" d="M56.5392,-209.452C51.0017,-180.203 47.4052,-133.014 72.9325,-104.74 128.317,-43.3982 173.725,-80.2352 255.933,-71.7401 556.34,-40.697 1502.92,-30.6957 1775.07,-28.424"/>
<polygon fill="black" stroke="black" points="1775.27,-31.9226 1785.24,-28.3402 1775.21,-24.9229 1775.27,-31.9226"/>
<text text-anchor="middle" x="128.933" y="-127.91" font-family="Times,serif" font-size="14.00"> static(visible_from)</text>
</g>
<!-- n9 -->
<g id="node9" class="node"><title>n9</title>
<ellipse fill="none" stroke="black" cx="2762.93" cy="-236.35" rx="62.8651" ry="26.7407"/>
<text text-anchor="middle" x="2762.93" y="-240.15" font-family="Times,serif" font-size="14.00">&lt;objective2&gt;</text>
<text text-anchor="middle" x="2762.93" y="-225.15" font-family="Times,serif" font-size="14.00">objective</text>
</g>
<!-- n9&#45;&gt;n21 -->
<g id="edge10" class="edge"><title>n9&#45;&gt;n21</title>
<path fill="none" stroke="black" d="M2705.1,-225.301C2671.46,-218.272 2628.77,-207.28 2592.93,-191.48 2581.77,-186.557 2580.62,-182.366 2569.93,-176.48 2555.71,-168.65 2539.84,-160.986 2525.15,-154.31"/>
<polygon fill="black" stroke="black" points="2526.26,-150.972 2515.71,-150.074 2523.4,-157.359 2526.26,-150.972"/>
<text text-anchor="middle" x="2684.93" y="-180.28" font-family="Times,serif" font-size="14.00"> end(communicated_image_data)</text>
</g>
<!-- n9&#45;&gt;n22 -->
<g id="edge7" class="edge"><title>n9&#45;&gt;n22</title>
<path fill="none" stroke="black" d="M2822.75,-227.898C2871.88,-222.038 2943.31,-214.116 3005.93,-209.48 3029.83,-207.711 3420.34,-208.776 3436.93,-191.48 3441.55,-186.669 3441.59,-181.249 3436.93,-176.48 3406.95,-145.793 2706.85,-167.619 2664.93,-158.48 2605.85,-145.598 2598.4,-120.193 2539.93,-104.74 2320.36,-46.7029 2050.28,-32.4532 1922.54,-28.9766"/>
<polygon fill="black" stroke="black" points="1922.57,-25.4762 1912.48,-28.7172 1922.39,-32.4739 1922.57,-25.4762"/>
<text text-anchor="middle" x="2720.93" y="-127.91" font-family="Times,serif" font-size="14.00"> static(visible_from)</text>
</g>
<!-- n10 -->
<g id="node10" class="node"><title>n10</title>
<ellipse fill="none" stroke="black" cx="4832.93" cy="-236.35" rx="67.3507" ry="26.7407"/>
<text text-anchor="middle" x="4832.93" y="-240.15" font-family="Times,serif" font-size="14.00">&lt;rover0store&gt;</text>
<text text-anchor="middle" x="4832.93" y="-225.15" font-family="Times,serif" font-size="14.00">store</text>
</g>
<!-- n10&#45;&gt;n10 -->
<g id="edge2" class="edge"><title>n10&#45;&gt;n10</title>
<path fill="none" stroke="black" d="M4896.08,-245.728C4908.92,-244.707 4918.11,-241.581 4918.11,-236.35 4918.11,-232.673 4913.56,-230.035 4906.4,-228.438"/>
<polygon fill="black" stroke="black" points="4906.47,-224.913 4896.08,-226.972 4905.49,-231.844 4906.47,-224.913"/>
<text text-anchor="middle" x="4951.11" y="-232.65" font-family="Times,serif" font-size="14.00"> init(empty)</text>
</g>
<!-- n10&#45;&gt;n28 -->
<g id="edge33" class="edge"><title>n10&#45;&gt;n28</title>
<path fill="none" stroke="black" d="M4823.37,-209.54C4817.71,-197.729 4809.38,-184.587 4797.93,-176.48 4772.38,-158.393 4691.96,-145.671 4636.03,-138.741"/>
<polygon fill="black" stroke="black" points="4636.24,-135.241 4625.89,-137.514 4635.4,-142.19 4636.24,-135.241"/>
<text text-anchor="middle" x="4855.93" y="-180.28" font-family="Times,serif" font-size="14.00"> static(store_of)</text>
</g>
<!-- n11 -->
<g id="node11" class="node"><title>n11</title>
<ellipse fill="none" stroke="black" cx="1653.93" cy="-131.61" rx="62.8651" ry="26.7407"/>
<text text-anchor="middle" x="1653.93" y="-135.41" font-family="Times,serif" font-size="14.00">&lt;objective5&gt;</text>
<text text-anchor="middle" x="1653.93" y="-120.41" font-family="Times,serif" font-size="14.00">objective</text>
</g>
<!-- n11&#45;&gt;n22 -->
<g id="edge52" class="edge"><title>n11&#45;&gt;n22</title>
<path fill="none" stroke="black" d="M1639.55,-105.214C1635.2,-93.9177 1633.35,-81.0885 1640.93,-71.7401 1657.94,-50.7705 1723.46,-39.4401 1776.47,-33.5806"/>
<polygon fill="black" stroke="black" points="1776.98,-37.0471 1786.55,-32.5147 1776.24,-30.0859 1776.98,-37.0471"/>
<text text-anchor="middle" x="1696.93" y="-75.5401" font-family="Times,serif" font-size="14.00"> static(visible_from)</text>
</g>
<!-- n12 -->
<g id="node12" class="node"><title>n12</title>
<ellipse fill="none" stroke="black" cx="3500.93" cy="-236.35" rx="62.8651" ry="26.7407"/>
<text text-anchor="middle" x="3500.93" y="-240.15" font-family="Times,serif" font-size="14.00">&lt;objective6&gt;</text>
<text text-anchor="middle" x="3500.93" y="-225.15" font-family="Times,serif" font-size="14.00">objective</text>
</g>
<!-- n12&#45;&gt;n4 -->
<g id="edge26" class="edge"><title>n12&#45;&gt;n4</title>
<path fill="none" stroke="black" d="M3438.9,-230.836C3309.89,-221.317 3022.9,-199.41 3002.93,-191.48 2992.93,-187.509 2994.08,-180.068 2983.93,-176.48 2903.01,-147.856 1524.58,-164.14 1438.93,-158.48 1390.46,-155.278 1336.13,-148.672 1294.34,-142.938"/>
<polygon fill="black" stroke="black" points="1294.66,-139.448 1284.27,-141.54 1293.69,-146.382 1294.66,-139.448"/>
<text text-anchor="middle" x="3058.93" y="-180.28" font-family="Times,serif" font-size="14.00"> static(visible_from)</text>
</g>
<!-- n15 -->
<g id="node15" class="node"><title>n15</title>
<ellipse fill="none" stroke="black" cx="3838.93" cy="-131.61" rx="53.9813" ry="26.7407"/>
<text text-anchor="middle" x="3838.93" y="-135.41" font-family="Times,serif" font-size="14.00">&lt;low_res&gt;</text>
<text text-anchor="middle" x="3838.93" y="-120.41" font-family="Times,serif" font-size="14.00">mode</text>
</g>
<!-- n12&#45;&gt;n15 -->
<g id="edge41" class="edge"><title>n12&#45;&gt;n15</title>
<path fill="none" stroke="black" d="M3515.72,-209.976C3524.33,-197.656 3536.37,-183.937 3550.93,-176.48 3595.58,-153.618 3727.15,-170.147 3775.93,-158.48 3780.91,-157.29 3786,-155.764 3791.03,-154.048"/>
<polygon fill="black" stroke="black" points="3792.39,-157.279 3800.57,-150.555 3789.98,-150.706 3792.39,-157.279"/>
<text text-anchor="middle" x="3642.93" y="-180.28" font-family="Times,serif" font-size="14.00"> end(communicated_image_data)</text>
</g>
<!-- n19 -->
<g id="node19" class="node"><title>n19</title>
<ellipse fill="none" stroke="black" cx="3999.93" cy="-131.61" rx="48.1667" ry="26.7407"/>
<text text-anchor="middle" x="3999.93" y="-135.41" font-family="Times,serif" font-size="14.00">&lt;colour&gt;</text>
<text text-anchor="middle" x="3999.93" y="-120.41" font-family="Times,serif" font-size="14.00">mode</text>
</g>
<!-- n12&#45;&gt;n19 -->
<g id="edge39" class="edge"><title>n12&#45;&gt;n19</title>
<path fill="none" stroke="black" d="M3562.86,-231.021C3644.46,-224.646 3783.1,-211.303 3829.93,-191.48 3839.84,-187.286 3839.37,-181.406 3848.93,-176.48 3857.96,-171.833 3907.47,-157.777 3947.37,-146.814"/>
<polygon fill="black" stroke="black" points="3948.3,-150.189 3957.02,-144.172 3946.45,-143.438 3948.3,-150.189"/>
<text text-anchor="middle" x="3940.93" y="-180.28" font-family="Times,serif" font-size="14.00"> end(communicated_image_data)</text>
</g>
<!-- n12&#45;&gt;n21 -->
<g id="edge9" class="edge"><title>n12&#45;&gt;n21</title>
<path fill="none" stroke="black" d="M3437.96,-236.176C3364.67,-235.224 3241.03,-227.627 3141.93,-191.48 3130.47,-187.298 3130.56,-180.174 3118.93,-176.48 3016.14,-143.836 2741.26,-169.108 2633.93,-158.48 2601.37,-155.256 2565.38,-149.623 2535.79,-144.434"/>
<polygon fill="black" stroke="black" points="2536.06,-140.929 2525.6,-142.622 2534.83,-147.82 2536.06,-140.929"/>
<text text-anchor="middle" x="3233.93" y="-180.28" font-family="Times,serif" font-size="14.00"> end(communicated_image_data)</text>
</g>
<!-- n12&#45;&gt;n22 -->
<g id="edge11" class="edge"><title>n12&#45;&gt;n22</title>
<path fill="none" stroke="black" d="M3502.43,-209.45C3502.68,-180.64 3498.71,-134.274 3473.93,-104.74 3448.42,-74.3294 3429.81,-79.7604 3390.93,-71.7401 3246.65,-41.9764 2211.26,-30.968 1923.16,-28.4621"/>
<polygon fill="black" stroke="black" points="1922.85,-24.9595 1912.82,-28.3731 1922.79,-31.9592 1922.85,-24.9595"/>
<text text-anchor="middle" x="3553.93" y="-127.91" font-family="Times,serif" font-size="14.00"> static(visible_from)</text>
</g>
<!-- n13 -->
<g id="node13" class="node"><title>n13</title>
<ellipse fill="none" stroke="black" cx="1945.93" cy="-131.61" rx="62.8651" ry="26.7407"/>
<text text-anchor="middle" x="1945.93" y="-135.41" font-family="Times,serif" font-size="14.00">&lt;objective9&gt;</text>
<text text-anchor="middle" x="1945.93" y="-120.41" font-family="Times,serif" font-size="14.00">objective</text>
</g>
<!-- n13&#45;&gt;n22 -->
<g id="edge54" class="edge"><title>n13&#45;&gt;n22</title>
<path fill="none" stroke="black" d="M1923.19,-106.522C1910.03,-92.5824 1893.3,-74.8668 1879.06,-59.7794"/>
<polygon fill="black" stroke="black" points="1881.28,-57.0316 1871.87,-52.1631 1876.19,-61.8372 1881.28,-57.0316"/>
<text text-anchor="middle" x="1959.93" y="-75.5401" font-family="Times,serif" font-size="14.00"> static(visible_from)</text>
</g>
<!-- n14 -->
<g id="node14" class="node"><title>n14</title>
<ellipse fill="none" stroke="black" cx="1498.93" cy="-236.35" rx="67.7647" ry="26.7407"/>
<text text-anchor="middle" x="1498.93" y="-240.15" font-family="Times,serif" font-size="14.00">&lt;objective10&gt;</text>
<text text-anchor="middle" x="1498.93" y="-225.15" font-family="Times,serif" font-size="14.00">objective</text>
</g>
<!-- n14&#45;&gt;n4 -->
<g id="edge18" class="edge"><title>n14&#45;&gt;n4</title>
<path fill="none" stroke="black" d="M1450.95,-217.276C1441.44,-214.254 1431.46,-211.461 1421.93,-209.48 1399.11,-204.735 1228.69,-208.654 1212.93,-191.48 1206.94,-184.947 1206.25,-176.261 1208,-167.573"/>
<polygon fill="black" stroke="black" points="1211.39,-168.459 1210.86,-157.877 1204.67,-166.476 1211.39,-168.459"/>
<text text-anchor="middle" x="1268.93" y="-180.28" font-family="Times,serif" font-size="14.00"> static(visible_from)</text>
</g>
<!-- n14&#45;&gt;n21 -->
<g id="edge22" class="edge"><title>n14&#45;&gt;n21</title>
<path fill="none" stroke="black" d="M1546.42,-216.987C1556.06,-213.948 1566.22,-211.224 1575.93,-209.48 1639.39,-198.091 2095.36,-213.568 2155.93,-191.48 2166.04,-187.795 2165.05,-180.739 2174.93,-176.48 2250.12,-144.069 2344.76,-134.871 2407.19,-132.629"/>
<polygon fill="black" stroke="black" points="2407.42,-136.124 2417.3,-132.317 2407.2,-129.127 2407.42,-136.124"/>
<text text-anchor="middle" x="2266.93" y="-180.28" font-family="Times,serif" font-size="14.00"> end(communicated_image_data)</text>
</g>
<!-- n14&#45;&gt;n22 -->
<g id="edge23" class="edge"><title>n14&#45;&gt;n22</title>
<path fill="none" stroke="black" d="M1506.68,-209.359C1511.64,-197.351 1519.37,-184.095 1530.93,-176.48 1603.62,-128.603 1651.12,-202.952 1725.93,-158.48 1750.64,-143.791 1743,-126.378 1761.93,-104.74 1776.87,-87.6616 1795.5,-70.7382 1811.68,-57.1363"/>
<polygon fill="black" stroke="black" points="1813.93,-59.8152 1819.4,-50.7397 1809.46,-54.4252 1813.93,-59.8152"/>
<text text-anchor="middle" x="1817.93" y="-127.91" font-family="Times,serif" font-size="14.00"> static(visible_from)</text>
</g>
<!-- n16 -->
<g id="node16" class="node"><title>n16</title>
<ellipse fill="none" stroke="black" cx="1647.93" cy="-236.35" rx="62.8651" ry="26.7407"/>
<text text-anchor="middle" x="1647.93" y="-240.15" font-family="Times,serif" font-size="14.00">&lt;objective1&gt;</text>
<text text-anchor="middle" x="1647.93" y="-225.15" font-family="Times,serif" font-size="14.00">objective</text>
</g>
<!-- n16&#45;&gt;n4 -->
<g id="edge35" class="edge"><title>n16&#45;&gt;n4</title>
<path fill="none" stroke="black" d="M1603.11,-217.348C1594.22,-214.319 1584.87,-211.506 1575.93,-209.48 1498.38,-191.906 1475.63,-208.397 1397.93,-191.48 1357.3,-182.634 1312.93,-167.415 1279.3,-154.668"/>
<polygon fill="black" stroke="black" points="1280.26,-151.287 1269.67,-150.974 1277.75,-157.823 1280.26,-151.287"/>
<text text-anchor="middle" x="1453.93" y="-180.28" font-family="Times,serif" font-size="14.00"> static(visible_from)</text>
</g>
<!-- n16&#45;&gt;n21 -->
<g id="edge43" class="edge"><title>n16&#45;&gt;n21</title>
<path fill="none" stroke="black" d="M1710.77,-233.642C1873.99,-228.9 2302.92,-214.399 2362.93,-191.48 2372.98,-187.642 2372.8,-182.164 2381.93,-176.48 2394.75,-168.505 2409.24,-160.973 2422.87,-154.474"/>
<polygon fill="black" stroke="black" points="2424.55,-157.551 2432.13,-150.148 2421.59,-151.208 2424.55,-157.551"/>
<text text-anchor="middle" x="2473.93" y="-180.28" font-family="Times,serif" font-size="14.00"> end(communicated_image_data)</text>
</g>
<!-- n16&#45;&gt;n22 -->
<g id="edge44" class="edge"><title>n16&#45;&gt;n22</title>
<path fill="none" stroke="black" d="M1601.26,-218.089C1572.19,-207.117 1539.94,-194.437 1537.93,-191.48 1534.19,-185.962 1533.31,-181.282 1537.93,-176.48 1574.96,-138.041 1980.38,-196.4 2017.93,-158.48 2045.07,-131.082 2043.57,-102.207 2019.93,-71.7401 2007.31,-55.4652 1960.8,-44.1864 1919.46,-37.144"/>
<polygon fill="black" stroke="black" points="1919.8,-33.6528 1909.37,-35.488 1918.67,-40.5605 1919.8,-33.6528"/>
<text text-anchor="middle" x="2094.93" y="-127.91" font-family="Times,serif" font-size="14.00"> static(visible_from)</text>
</g>
<!-- n17&#45;&gt;n22 -->
<g id="edge36" class="edge"><title>n17&#45;&gt;n22</title>
<path fill="none" stroke="black" d="M4117.05,-116.953C4098.18,-112.494 4076.71,-107.886 4056.93,-104.74 3896.51,-79.2234 3855.11,-81.0103 3692.93,-71.7401 3005.5,-32.4455 2171.97,-28.2107 1922.72,-27.8619"/>
<polygon fill="black" stroke="black" points="1922.7,-24.3619 1912.69,-27.8495 1922.69,-31.3619 1922.7,-24.3619"/>
<text text-anchor="middle" x="3981.93" y="-75.5401" font-family="Times,serif" font-size="14.00"> static(visible_from)</text>
</g>
<!-- n18 -->
<g id="node18" class="node"><title>n18</title>
<ellipse fill="none" stroke="black" cx="2853.93" cy="-131.61" rx="67.7647" ry="26.7407"/>
<text text-anchor="middle" x="2853.93" y="-135.41" font-family="Times,serif" font-size="14.00">&lt;objective11&gt;</text>
<text text-anchor="middle" x="2853.93" y="-120.41" font-family="Times,serif" font-size="14.00">objective</text>
</g>
<!-- n18&#45;&gt;n22 -->
<g id="edge31" class="edge"><title>n18&#45;&gt;n22</title>
<path fill="none" stroke="black" d="M2807.13,-111.956C2770.44,-98.2399 2717.77,-80.5194 2669.93,-71.7401 2527.72,-45.6389 2096.43,-33.3749 1922.66,-29.3936"/>
<polygon fill="black" stroke="black" points="1922.66,-25.8929 1912.59,-29.1655 1922.51,-32.8911 1922.66,-25.8929"/>
<text text-anchor="middle" x="2787.93" y="-75.5401" font-family="Times,serif" font-size="14.00"> static(visible_from)</text>
</g>
<!-- n20 -->
<g id="node20" class="node"><title>n20</title>
<ellipse fill="none" stroke="black" cx="2991.93" cy="-131.61" rx="51.7379" ry="26.7407"/>
<text text-anchor="middle" x="2991.93" y="-135.41" font-family="Times,serif" font-size="14.00">&lt;general&gt;</text>
<text text-anchor="middle" x="2991.93" y="-120.41" font-family="Times,serif" font-size="14.00">lander</text>
</g>
<!-- n20&#45;&gt;n20 -->
<g id="edge3" class="edge"><title>n20&#45;&gt;n20</title>
<path fill="none" stroke="black" d="M3040.41,-141.226C3052.51,-140.554 3061.55,-137.348 3061.55,-131.61 3061.55,-127.665 3057.28,-124.917 3050.67,-123.367"/>
<polygon fill="black" stroke="black" points="3050.79,-119.85 3040.41,-121.994 3049.86,-126.789 3050.79,-119.85"/>
<text text-anchor="middle" x="3112.05" y="-127.91" font-family="Times,serif" font-size="14.00"> init(channel_free)</text>
</g>
<!-- n20&#45;&gt;n22 -->
<g id="edge45" class="edge"><title>n20&#45;&gt;n22</title>
<path fill="none" stroke="black" d="M2956.38,-111.921C2927.9,-97.9904 2886.49,-80.0048 2847.93,-71.7401 2671.49,-33.9195 2122.84,-28.5944 1922.84,-27.9286"/>
<polygon fill="black" stroke="black" points="1922.73,-24.4284 1912.72,-27.898 1922.71,-31.4284 1922.73,-24.4284"/>
<text text-anchor="middle" x="2943.93" y="-75.5401" font-family="Times,serif" font-size="14.00"> static(at_lander)</text>
</g>
<!-- n22&#45;&gt;n4 -->
<g id="edge34" class="edge"><title>n22&#45;&gt;n4</title>
<path fill="none" stroke="black" d="M1785.05,-27.7313C1692.13,-28.8663 1514.85,-36.0918 1368.93,-71.7401 1350.83,-76.1637 1310.38,-92.93 1276.96,-107.444"/>
<polygon fill="black" stroke="black" points="1275.5,-104.259 1267.74,-111.466 1278.3,-110.675 1275.5,-104.259"/>
<text text-anchor="middle" x="1407.93" y="-75.5401" font-family="Times,serif" font-size="14.00"> static(visible)</text>
</g>
<!-- n23 -->
<g id="node23" class="node"><title>n23</title>
<ellipse fill="none" stroke="black" cx="592.933" cy="-236.35" rx="67.7647" ry="26.7407"/>
<text text-anchor="middle" x="592.933" y="-240.15" font-family="Times,serif" font-size="14.00">&lt;objective12&gt;</text>
<text text-anchor="middle" x="592.933" y="-225.15" font-family="Times,serif" font-size="14.00">objective</text>
</g>
<!-- n23&#45;&gt;n4 -->
<g id="edge14" class="edge"><title>n23&#45;&gt;n4</title>
<path fill="none" stroke="black" d="M624.407,-212.272C644.171,-199.162 670.792,-183.921 696.933,-176.48 794.257,-148.777 1052.56,-177.597 1151.93,-158.48 1158.08,-157.297 1164.42,-155.687 1170.66,-153.845"/>
<polygon fill="black" stroke="black" points="1171.87,-157.134 1180.35,-150.789 1169.76,-150.458 1171.87,-157.134"/>
<text text-anchor="middle" x="752.933" y="-180.28" font-family="Times,serif" font-size="14.00"> static(visible_from)</text>
</g>
<!-- n23&#45;&gt;n22 -->
<g id="edge42" class="edge"><title>n23&#45;&gt;n22</title>
<path fill="none" stroke="black" d="M531.31,-224.831C460.586,-212.669 353.758,-193.99 349.933,-191.48 316.68,-169.661 300.736,-133.76 327.933,-104.74 377.907,-51.4142 1476.39,-32.858 1774.73,-28.7921"/>
<polygon fill="black" stroke="black" points="1775.05,-32.2882 1785.01,-28.6535 1774.96,-25.2888 1775.05,-32.2882"/>
<text text-anchor="middle" x="383.933" y="-127.91" font-family="Times,serif" font-size="14.00"> static(visible_from)</text>
</g>
<!-- n24 -->
<g id="node24" class="node"><title>n24</title>
<ellipse fill="none" stroke="black" cx="3396.93" cy="-131.61" rx="67.7647" ry="26.7407"/>
<text text-anchor="middle" x="3396.93" y="-135.41" font-family="Times,serif" font-size="14.00">&lt;objective13&gt;</text>
<text text-anchor="middle" x="3396.93" y="-120.41" font-family="Times,serif" font-size="14.00">objective</text>
</g>
<!-- n24&#45;&gt;n22 -->
<g id="edge29" class="edge"><title>n24&#45;&gt;n22</title>
<path fill="none" stroke="black" d="M3350.56,-111.813C3313.88,-97.9219 3261.02,-80.0397 3212.93,-71.7401 2961.9,-28.4158 2170.19,-26.9214 1923.25,-27.5525"/>
<polygon fill="black" stroke="black" points="1922.94,-24.0532 1912.95,-27.5809 1922.96,-31.0532 1922.94,-24.0532"/>
<text text-anchor="middle" x="3330.93" y="-75.5401" font-family="Times,serif" font-size="14.00"> static(visible_from)</text>
</g>
<!-- n25 -->
<g id="node25" class="node"><title>n25</title>
<ellipse fill="none" stroke="black" cx="4058.93" cy="-236.35" rx="56.6372" ry="26.7407"/>
<text text-anchor="middle" x="4058.93" y="-240.15" font-family="Times,serif" font-size="14.00">&lt;camera1&gt;</text>
<text text-anchor="middle" x="4058.93" y="-225.15" font-family="Times,serif" font-size="14.00">camera</text>
</g>
<!-- n25&#45;&gt;n15 -->
<g id="edge5" class="edge"><title>n25&#45;&gt;n15</title>
<path fill="none" stroke="black" d="M4002.09,-236.024C3920.15,-235.642 3775.01,-229.445 3741.93,-191.48 3737.55,-186.453 3738.32,-182.082 3741.93,-176.48 3743.49,-174.064 3766.47,-163.625 3789.67,-153.537"/>
<polygon fill="black" stroke="black" points="3791.08,-156.74 3798.86,-149.558 3788.3,-150.316 3791.08,-156.74"/>
<text text-anchor="middle" x="3786.93" y="-180.28" font-family="Times,serif" font-size="14.00"> static(supports)</text>
</g>
<!-- n25&#45;&gt;n17 -->
<g id="edge6" class="edge"><title>n25&#45;&gt;n17</title>
<path fill="none" stroke="black" d="M4099.9,-217.729C4112.79,-210.842 4126.39,-202.034 4136.93,-191.48 4143.94,-184.465 4149.92,-175.657 4154.78,-167.006"/>
<polygon fill="black" stroke="black" points="4157.89,-168.611 4159.45,-158.131 4151.7,-165.354 4157.89,-168.611"/>
<text text-anchor="middle" x="4217.43" y="-180.28" font-family="Times,serif" font-size="14.00"> static(calibration_target)</text>
</g>
<!-- n25&#45;&gt;n19 -->
<g id="edge17" class="edge"><title>n25&#45;&gt;n19</title>
<path fill="none" stroke="black" d="M4051.44,-209.565C4047.82,-198.943 4042.94,-186.747 4036.93,-176.48 4034.36,-172.078 4031.33,-167.682 4028.14,-163.466"/>
<polygon fill="black" stroke="black" points="4030.85,-161.251 4021.87,-155.626 4025.39,-165.622 4030.85,-161.251"/>
<text text-anchor="middle" x="4088.93" y="-180.28" font-family="Times,serif" font-size="14.00"> static(supports)</text>
</g>
<!-- n25&#45;&gt;n21 -->
<g id="edge38" class="edge"><title>n25&#45;&gt;n21</title>
<path fill="none" stroke="black" d="M4002.6,-232.463C3893.85,-226.644 3647.48,-212.264 3440.93,-191.48 3389.65,-186.32 3377.32,-180.489 3325.93,-176.48 3019.2,-152.552 2940.26,-187.098 2633.93,-158.48 2601.35,-155.436 2565.36,-149.82 2535.77,-144.596"/>
<polygon fill="black" stroke="black" points="2536.05,-141.09 2525.59,-142.769 2534.81,-147.98 2536.05,-141.09"/>
<text text-anchor="middle" x="3484.93" y="-180.28" font-family="Times,serif" font-size="14.00"> static(supports)</text>
</g>
<!-- n25&#45;&gt;n28 -->
<g id="edge20" class="edge"><title>n25&#45;&gt;n28</title>
<path fill="none" stroke="black" d="M4114.95,-232.223C4201.99,-226.745 4365.32,-213.819 4418.93,-191.48 4428.86,-187.342 4428.41,-181.496 4437.93,-176.48 4464.98,-162.227 4497.43,-151.732 4524.38,-144.588"/>
<polygon fill="black" stroke="black" points="4525.6,-147.889 4534.41,-142.013 4523.86,-141.109 4525.6,-147.889"/>
<text text-anchor="middle" x="4484.43" y="-180.28" font-family="Times,serif" font-size="14.00"> static(on_board)</text>
</g>
<!-- n26 -->
<g id="node26" class="node"><title>n26</title>
<ellipse fill="none" stroke="black" cx="3077.93" cy="-236.35" rx="62.8651" ry="26.7407"/>
<text text-anchor="middle" x="3077.93" y="-240.15" font-family="Times,serif" font-size="14.00">&lt;objective4&gt;</text>
<text text-anchor="middle" x="3077.93" y="-225.15" font-family="Times,serif" font-size="14.00">objective</text>
</g>
<!-- n26&#45;&gt;n21 -->
<g id="edge50" class="edge"><title>n26&#45;&gt;n21</title>
<path fill="none" stroke="black" d="M3015.27,-232.949C2957.62,-229.017 2870.62,-218.67 2799.93,-191.48 2788.54,-187.099 2788.39,-180.683 2776.93,-176.48 2716.79,-154.421 2697.34,-167.594 2633.93,-158.48 2601.79,-153.861 2566.12,-148.149 2536.63,-143.269"/>
<polygon fill="black" stroke="black" points="2536.91,-139.768 2526.47,-141.581 2535.76,-146.673 2536.91,-139.768"/>
<text text-anchor="middle" x="2891.93" y="-180.28" font-family="Times,serif" font-size="14.00"> end(communicated_image_data)</text>
</g>
<!-- n26&#45;&gt;n22 -->
<g id="edge46" class="edge"><title>n26&#45;&gt;n22</title>
<path fill="none" stroke="black" d="M3140.92,-234.904C3258.65,-232.971 3496.45,-223.308 3452.93,-176.48 3415.77,-136.489 3255.12,-185.934 3207.93,-158.48 3183.08,-144.023 3195.95,-120.541 3171.93,-104.74 3104.72,-60.5162 3073.9,-80.6371 2993.93,-71.7401 2785.08,-48.5032 2141.11,-33.7409 1922.45,-29.2917"/>
<polygon fill="black" stroke="black" points="1922.43,-25.7907 1912.37,-29.0876 1922.29,-32.7893 1922.43,-25.7907"/>
<text text-anchor="middle" x="3263.93" y="-127.91" font-family="Times,serif" font-size="14.00"> static(visible_from)</text>
</g>
<!-- n27 -->
<g id="node27" class="node"><title>n27</title>
<ellipse fill="none" stroke="black" cx="3698.93" cy="-131.61" rx="67.7647" ry="26.7407"/>
<text text-anchor="middle" x="3698.93" y="-135.41" font-family="Times,serif" font-size="14.00">&lt;objective14&gt;</text>
<text text-anchor="middle" x="3698.93" y="-120.41" font-family="Times,serif" font-size="14.00">objective</text>
</g>
<!-- n27&#45;&gt;n22 -->
<g id="edge32" class="edge"><title>n27&#45;&gt;n22</title>
<path fill="none" stroke="black" d="M3652.57,-111.735C3615.91,-97.8009 3563.05,-79.8996 3514.93,-71.7401 3356.97,-44.9513 2225.15,-31.6774 1922.95,-28.586"/>
<polygon fill="black" stroke="black" points="1922.59,-25.0823 1912.55,-28.4804 1922.52,-32.0819 1922.59,-25.0823"/>
<text text-anchor="middle" x="3632.93" y="-75.5401" font-family="Times,serif" font-size="14.00"> static(visible_from)</text>
</g>
<!-- n28&#45;&gt;n22 -->
<g id="edge28" class="edge"><title>n28&#45;&gt;n22</title>
<path fill="none" stroke="black" d="M4532.72,-124.138C4439.93,-111.452 4224.2,-83.5306 4041.93,-71.7401 3616.31,-44.208 2256.45,-31.2686 1923.19,-28.4644"/>
<polygon fill="black" stroke="black" points="1922.73,-24.9605 1912.7,-28.3766 1922.67,-31.9602 1922.73,-24.9605"/>
<text text-anchor="middle" x="4240.43" y="-75.5401" font-family="Times,serif" font-size="14.00"> init(at)</text>
</g>
<!-- n28&#45;&gt;n28 -->
<g id="edge4" class="edge"><title>n28&#45;&gt;n28</title>
<path fill="none" stroke="black" d="M4624.03,-141.274C4635.97,-140.722 4645.02,-137.501 4645.02,-131.61 4645.02,-127.56 4640.74,-124.772 4634.19,-123.246"/>
<polygon fill="black" stroke="black" points="4634.39,-119.743 4624.03,-121.946 4633.5,-126.687 4634.39,-119.743"/>
<text text-anchor="middle" x="4738.52" y="-142.91" font-family="Times,serif" font-size="14.00"> static(equipped_for_imaging)</text>
<text text-anchor="middle" x="4738.52" y="-127.91" font-family="Times,serif" font-size="14.00">init(available)</text>
<text text-anchor="middle" x="4738.52" y="-112.91" font-family="Times,serif" font-size="14.00">static(equipped_for_soil_analysis)</text>
</g>
</g>
</svg>
