<?xml version="1.0" encoding="UTF-8" standalone="no"?>
<!DOCTYPE svg PUBLIC "-//W3C//DTD SVG 1.1//EN"
 "http://www.w3.org/Graphics/SVG/1.1/DTD/svg11.dtd">
<!-- Generated by graphviz version 2.38.0 (20140413.2041)
 -->
<!-- Title: Struc Pages: 1 -->
<svg width="899pt" height="400pt"
 viewBox="0.00 0.00 898.62 399.96" xmlns="http://www.w3.org/2000/svg" xmlns:xlink="http://www.w3.org/1999/xlink">
<g id="graph0" class="graph" transform="scale(1 1) rotate(0) translate(4 395.96)">
<title>Struc</title>
<polygon fill="white" stroke="none" points="-4,4 -4,-395.96 894.619,-395.96 894.619,4 -4,4"/>
<!-- n1 -->
<g id="node1" class="node"><title>n1</title>
<ellipse fill="none" stroke="black" cx="288.619" cy="-361.09" rx="67.3507" ry="26.7407"/>
<text text-anchor="middle" x="288.619" y="-364.89" font-family="Times,serif" font-size="14.00">&lt;rover0store&gt;</text>
<text text-anchor="middle" x="288.619" y="-349.89" font-family="Times,serif" font-size="14.00">store</text>
</g>
<!-- n1&#45;&gt;n1 -->
<g id="edge1" class="edge"><title>n1&#45;&gt;n1</title>
<path fill="none" stroke="black" d="M351.013,-371.251C364.241,-370.22 373.794,-366.833 373.794,-361.09 373.794,-356.918 368.751,-353.99 360.92,-352.304"/>
<polygon fill="black" stroke="black" points="361.399,-348.837 351.013,-350.929 360.437,-355.771 361.399,-348.837"/>
<text text-anchor="middle" x="406.794" y="-357.39" font-family="Times,serif" font-size="14.00"> init(empty)</text>
</g>
<!-- n6 -->
<g id="node6" class="node"><title>n6</title>
<ellipse fill="none" stroke="black" cx="288.619" cy="-248.35" rx="48.1667" ry="26.7407"/>
<text text-anchor="middle" x="288.619" y="-252.15" font-family="Times,serif" font-size="14.00">&lt;rover0&gt;</text>
<text text-anchor="middle" x="288.619" y="-237.15" font-family="Times,serif" font-size="14.00">rover</text>
</g>
<!-- n1&#45;&gt;n6 -->
<g id="edge15" class="edge"><title>n1&#45;&gt;n6</title>
<path fill="none" stroke="black" d="M288.619,-334.127C288.619,-319.653 288.619,-301.403 288.619,-285.546"/>
<polygon fill="black" stroke="black" points="292.119,-285.535 288.619,-275.535 285.119,-285.535 292.119,-285.535"/>
<text text-anchor="middle" x="331.619" y="-301.02" font-family="Times,serif" font-size="14.00"> static(store_of)</text>
</g>
<!-- n2 -->
<g id="node2" class="node"><title>n2</title>
<ellipse fill="none" stroke="black" cx="51.6188" cy="-248.35" rx="51.7379" ry="26.7407"/>
<text text-anchor="middle" x="51.6188" y="-252.15" font-family="Times,serif" font-size="14.00">&lt;general&gt;</text>
<text text-anchor="middle" x="51.6188" y="-237.15" font-family="Times,serif" font-size="14.00">lander</text>
</g>
<!-- n2&#45;&gt;n2 -->
<g id="edge2" class="edge"><title>n2&#45;&gt;n2</title>
<path fill="none" stroke="black" d="M99.4508,-258.742C111.872,-258.103 121.238,-254.639 121.238,-248.35 121.238,-243.928 116.607,-240.903 109.54,-239.274"/>
<polygon fill="black" stroke="black" points="109.82,-235.781 99.4508,-237.959 108.914,-242.723 109.82,-235.781"/>
<text text-anchor="middle" x="171.738" y="-244.65" font-family="Times,serif" font-size="14.00"> init(channel_free)</text>
</g>
<!-- n7 -->
<g id="node7" class="node"><title>n7</title>
<ellipse fill="none" stroke="black" cx="356.619" cy="-135.61" rx="63.7795" ry="26.7407"/>
<text text-anchor="middle" x="356.619" y="-139.41" font-family="Times,serif" font-size="14.00">&lt;waypoint0&gt;</text>
<text text-anchor="middle" x="356.619" y="-124.41" font-family="Times,serif" font-size="14.00">waypoint</text>
</g>
<!-- n2&#45;&gt;n7 -->
<g id="edge8" class="edge"><title>n2&#45;&gt;n7</title>
<path fill="none" stroke="black" d="M93.0446,-231.998C127.651,-219.203 178.31,-200.54 222.619,-184.48 247.727,-175.38 275.525,-165.429 299.264,-156.969"/>
<polygon fill="black" stroke="black" points="300.581,-160.215 308.827,-153.563 298.232,-153.621 300.581,-160.215"/>
<text text-anchor="middle" x="268.619" y="-188.28" font-family="Times,serif" font-size="14.00"> static(at_lander)</text>
</g>
<!-- n3 -->
<g id="node3" class="node"><title>n3</title>
<ellipse fill="none" stroke="black" cx="795.619" cy="-135.61" rx="56.6326" ry="26.7574"/>
<ellipse fill="none" stroke="black" cx="795.619" cy="-135.61" rx="60.6372" ry="30.7407"/>
<text text-anchor="middle" x="795.619" y="-139.41" font-family="Times,serif" font-size="14.00">&lt;high_res&gt;</text>
<text text-anchor="middle" x="795.619" y="-124.41" font-family="Times,serif" font-size="14.00">mode</text>
</g>
<!-- n4 -->
<g id="node4" class="node"><title>n4</title>
<ellipse fill="none" stroke="black" cx="631.619" cy="-361.09" rx="56.6326" ry="26.7574"/>
<ellipse fill="none" stroke="black" cx="631.619" cy="-361.09" rx="60.6372" ry="30.7407"/>
<text text-anchor="middle" x="631.619" y="-364.89" font-family="Times,serif" font-size="14.00">&lt;camera1&gt;</text>
<text text-anchor="middle" x="631.619" y="-349.89" font-family="Times,serif" font-size="14.00">camera</text>
</g>
<!-- n4&#45;&gt;n3 -->
<g id="edge11" class="edge"><title>n4&#45;&gt;n3</title>
<path fill="none" stroke="black" stroke-dasharray="5,2" d="M690.895,-353.992C719.626,-347.944 752.24,-335.952 772.619,-312.22 804.615,-274.96 805.638,-215.832 801.882,-176.629"/>
<polygon fill="black" stroke="black" points="805.354,-176.183 800.78,-166.627 798.397,-176.95 805.354,-176.183"/>
<text text-anchor="middle" x="846.619" y="-244.65" font-family="Times,serif" font-size="14.00"> static(supports)</text>
</g>
<!-- n4&#45;&gt;n6 -->
<g id="edge6" class="edge"><title>n4&#45;&gt;n6</title>
<path fill="none" stroke="black" d="M581.008,-343.75C516.046,-322.777 403.999,-286.602 339.099,-265.648"/>
<polygon fill="black" stroke="black" points="340.082,-262.288 329.49,-262.546 337.931,-268.949 340.082,-262.288"/>
<text text-anchor="middle" x="528.119" y="-301.02" font-family="Times,serif" font-size="14.00"> static(on_board)</text>
</g>
<!-- n8 -->
<g id="node8" class="node"><title>n8</title>
<ellipse fill="none" stroke="black" cx="631.619" cy="-248.35" rx="67.7712" ry="26.7574"/>
<ellipse fill="none" stroke="black" cx="631.619" cy="-248.35" rx="71.7647" ry="30.7407"/>
<text text-anchor="middle" x="631.619" y="-252.15" font-family="Times,serif" font-size="14.00">&lt;objective12&gt;</text>
<text text-anchor="middle" x="631.619" y="-237.15" font-family="Times,serif" font-size="14.00">objective</text>
</g>
<!-- n4&#45;&gt;n8 -->
<g id="edge13" class="edge"><title>n4&#45;&gt;n8</title>
<path fill="none" stroke="black" stroke-dasharray="5,2" d="M631.619,-330.123C631.619,-317.689 631.619,-303.073 631.619,-289.717"/>
<polygon fill="black" stroke="black" points="635.119,-289.342 631.619,-279.342 628.119,-289.342 635.119,-289.342"/>
<text text-anchor="middle" x="700.119" y="-301.02" font-family="Times,serif" font-size="14.00"> static(calibration_target)</text>
</g>
<!-- n5 -->
<g id="node5" class="node"><title>n5</title>
<ellipse fill="none" stroke="black" cx="457.619" cy="-26.8701" rx="63.7795" ry="26.7407"/>
<text text-anchor="middle" x="457.619" y="-30.6701" font-family="Times,serif" font-size="14.00">&lt;waypoint1&gt;</text>
<text text-anchor="middle" x="457.619" y="-15.6701" font-family="Times,serif" font-size="14.00">waypoint</text>
</g>
<!-- n5&#45;&gt;n5 -->
<g id="edge3" class="edge"><title>n5&#45;&gt;n5</title>
<path fill="none" stroke="black" d="M517.423,-36.3053C530.102,-35.3472 539.258,-32.2021 539.258,-26.8701 539.258,-23.121 534.732,-20.4531 527.637,-18.8664"/>
<polygon fill="black" stroke="black" points="527.812,-15.3569 517.423,-17.4349 526.841,-22.2891 527.812,-15.3569"/>
<text text-anchor="middle" x="598.258" y="-23.1701" font-family="Times,serif" font-size="14.00"> init(at_rock_sample)</text>
</g>
<!-- n5&#45;&gt;n7 -->
<g id="edge10" class="edge"><title>n5&#45;&gt;n7</title>
<path fill="none" stroke="black" d="M451.967,-53.8627C448.6,-64.8852 443.415,-77.3296 435.619,-86.7401 428.102,-95.8142 418.392,-103.623 408.367,-110.145"/>
<polygon fill="black" stroke="black" points="406.234,-107.347 399.523,-115.545 409.882,-113.321 406.234,-107.347"/>
<text text-anchor="middle" x="484.619" y="-75.5401" font-family="Times,serif" font-size="14.00"> static(visible)</text>
</g>
<!-- n6&#45;&gt;n6 -->
<g id="edge4" class="edge"><title>n6&#45;&gt;n6</title>
<path fill="none" stroke="black" d="M333.093,-258.786C345.342,-258.282 354.702,-254.803 354.702,-248.35 354.702,-243.813 350.075,-240.746 343.069,-239.15"/>
<polygon fill="black" stroke="black" points="343.448,-235.67 333.093,-237.914 342.587,-242.617 343.448,-235.67"/>
<text text-anchor="middle" x="448.202" y="-259.65" font-family="Times,serif" font-size="14.00"> static(equipped_for_imaging)</text>
<text text-anchor="middle" x="448.202" y="-244.65" font-family="Times,serif" font-size="14.00">init(available)</text>
<text text-anchor="middle" x="448.202" y="-229.65" font-family="Times,serif" font-size="14.00">static(equipped_for_soil_analysis)</text>
</g>
<!-- n6&#45;&gt;n7 -->
<g id="edge5" class="edge"><title>n6&#45;&gt;n7</title>
<path fill="none" stroke="black" d="M303.71,-222.773C313.086,-207.504 325.275,-187.654 335.59,-170.856"/>
<polygon fill="black" stroke="black" points="338.848,-172.239 341.098,-161.886 332.883,-168.576 338.848,-172.239"/>
<text text-anchor="middle" x="348.119" y="-188.28" font-family="Times,serif" font-size="14.00"> init(at)</text>
</g>
<!-- n7&#45;&gt;n5 -->
<g id="edge9" class="edge"><title>n7&#45;&gt;n5</title>
<path fill="none" stroke="black" d="M350.93,-108.54C349.732,-96.423 350.549,-82.3768 357.619,-71.7401 365.89,-59.2968 378.546,-50.3571 392.104,-43.9432"/>
<polygon fill="black" stroke="black" points="393.767,-47.0388 401.591,-39.8944 391.019,-40.6006 393.767,-47.0388"/>
<text text-anchor="middle" x="396.619" y="-75.5401" font-family="Times,serif" font-size="14.00"> static(visible)</text>
</g>
<!-- n8&#45;&gt;n3 -->
<g id="edge12" class="edge"><title>n8&#45;&gt;n3</title>
<path fill="none" stroke="black" stroke-dasharray="5,2" d="M609.893,-218.866C603.867,-207.371 600.851,-194.487 608.619,-184.48 608.869,-184.158 678.079,-166.497 732.218,-152.721"/>
<polygon fill="black" stroke="black" points="733.303,-156.057 742.132,-150.199 731.577,-149.273 733.303,-156.057"/>
<text text-anchor="middle" x="701.619" y="-188.28" font-family="Times,serif" font-size="14.00"> end(communicated_image_data)</text>
</g>
<!-- n8&#45;&gt;n5 -->
<g id="edge7" class="edge"><title>n8&#45;&gt;n5</title>
<path fill="none" stroke="black" stroke-dasharray="5,2" d="M612.506,-218.402C608.514,-212.199 604.378,-205.654 600.619,-199.48 566.612,-143.629 572.907,-118.908 527.619,-71.7401 521.199,-65.0543 513.56,-58.9484 505.726,-53.5556"/>
<polygon fill="black" stroke="black" points="507.485,-50.5239 497.197,-47.9901 503.659,-56.3862 507.485,-50.5239"/>
<text text-anchor="middle" x="639.619" y="-131.91" font-family="Times,serif" font-size="14.00"> static(visible_from)</text>
</g>
<!-- n8&#45;&gt;n7 -->
<g id="edge14" class="edge"><title>n8&#45;&gt;n7</title>
<path fill="none" stroke="black" d="M580.252,-226.678C570.518,-223.256 560.338,-220.006 550.619,-217.48 500.549,-204.467 482.987,-220.278 435.619,-199.48 418.177,-191.822 401.308,-179.337 387.668,-167.502"/>
<polygon fill="black" stroke="black" points="389.811,-164.723 380.03,-160.651 385.137,-169.934 389.811,-164.723"/>
<text text-anchor="middle" x="491.619" y="-188.28" font-family="Times,serif" font-size="14.00"> static(visible_from)</text>
</g>
</g>
</svg>
