<?xml version="1.0" encoding="UTF-8" standalone="no"?>
<!DOCTYPE svg PUBLIC "-//W3C//DTD SVG 1.1//EN"
 "http://www.w3.org/Graphics/SVG/1.1/DTD/svg11.dtd">
<!-- Generated by graphviz version 2.38.0 (20140413.2041)
 -->
<!-- Title: Struc Pages: 1 -->
<svg width="3876pt" height="376pt"
 viewBox="0.00 0.00 3875.98 375.96" xmlns="http://www.w3.org/2000/svg" xmlns:xlink="http://www.w3.org/1999/xlink">
<g id="graph0" class="graph" transform="scale(1 1) rotate(0) translate(4 371.96)">
<title>Struc</title>
<polygon fill="white" stroke="none" points="-4,4 -4,-371.96 3871.98,-371.96 3871.98,4 -4,4"/>
<!-- n1 -->
<g id="node1" class="node"><title>n1</title>
<ellipse fill="none" stroke="black" cx="1185.98" cy="-341.09" rx="56.6372" ry="26.7407"/>
<text text-anchor="middle" x="1185.98" y="-344.89" font-family="Times,serif" font-size="14.00">&lt;camera2&gt;</text>
<text text-anchor="middle" x="1185.98" y="-329.89" font-family="Times,serif" font-size="14.00">camera</text>
</g>
<!-- n15 -->
<g id="node15" class="node"><title>n15</title>
<ellipse fill="none" stroke="black" cx="161.98" cy="-131.61" rx="53.9813" ry="26.7407"/>
<text text-anchor="middle" x="161.98" y="-135.41" font-family="Times,serif" font-size="14.00">&lt;low_res&gt;</text>
<text text-anchor="middle" x="161.98" y="-120.41" font-family="Times,serif" font-size="14.00">mode</text>
</g>
<!-- n1&#45;&gt;n15 -->
<g id="edge42" class="edge"><title>n1&#45;&gt;n15</title>
<path fill="none" stroke="black" d="M1129.37,-339.953C936.358,-339.148 305.042,-333.647 105.98,-296.22 61.6395,-287.884 36.1889,-299.944 9.97973,-263.22 -3.89509,-243.779 -2.53065,-229.826 9.97973,-209.48 30.2802,-176.465 69.6346,-157.107 103.212,-146.075"/>
<polygon fill="black" stroke="black" points="104.451,-149.355 112.963,-143.047 102.375,-142.67 104.451,-149.355"/>
<text text-anchor="middle" x="53.9797" y="-232.65" font-family="Times,serif" font-size="14.00"> static(supports)</text>
</g>
<!-- n24 -->
<g id="node24" class="node"><title>n24</title>
<ellipse fill="none" stroke="black" cx="1185.98" cy="-236.35" rx="67.7647" ry="26.7407"/>
<text text-anchor="middle" x="1185.98" y="-240.15" font-family="Times,serif" font-size="14.00">&lt;objective11&gt;</text>
<text text-anchor="middle" x="1185.98" y="-225.15" font-family="Times,serif" font-size="14.00">objective</text>
</g>
<!-- n1&#45;&gt;n24 -->
<g id="edge49" class="edge"><title>n1&#45;&gt;n24</title>
<path fill="none" stroke="black" d="M1185.98,-314.165C1185.98,-301.875 1185.98,-286.987 1185.98,-273.602"/>
<polygon fill="black" stroke="black" points="1189.48,-273.268 1185.98,-263.268 1182.48,-273.268 1189.48,-273.268"/>
<text text-anchor="middle" x="1254.48" y="-285.02" font-family="Times,serif" font-size="14.00"> static(calibration_target)</text>
</g>
<!-- n28 -->
<g id="node28" class="node"><title>n28</title>
<ellipse fill="none" stroke="black" cx="1560.98" cy="-236.35" rx="48.1667" ry="26.7407"/>
<text text-anchor="middle" x="1560.98" y="-240.15" font-family="Times,serif" font-size="14.00">&lt;rover0&gt;</text>
<text text-anchor="middle" x="1560.98" y="-225.15" font-family="Times,serif" font-size="14.00">rover</text>
</g>
<!-- n1&#45;&gt;n28 -->
<g id="edge6" class="edge"><title>n1&#45;&gt;n28</title>
<path fill="none" stroke="black" d="M1238.34,-330.591C1302.08,-318.309 1412.55,-294.703 1503.98,-263.22 1507.97,-261.847 1512.06,-260.296 1516.12,-258.651"/>
<polygon fill="black" stroke="black" points="1517.67,-261.8 1525.52,-254.687 1514.95,-255.35 1517.67,-261.8"/>
<text text-anchor="middle" x="1491.48" y="-285.02" font-family="Times,serif" font-size="14.00"> static(on_board)</text>
</g>
<!-- n2 -->
<g id="node2" class="node"><title>n2</title>
<ellipse fill="none" stroke="black" cx="882.98" cy="-236.35" rx="62.8651" ry="26.7407"/>
<text text-anchor="middle" x="882.98" y="-240.15" font-family="Times,serif" font-size="14.00">&lt;objective1&gt;</text>
<text text-anchor="middle" x="882.98" y="-225.15" font-family="Times,serif" font-size="14.00">objective</text>
</g>
<!-- n4 -->
<g id="node4" class="node"><title>n4</title>
<ellipse fill="none" stroke="black" cx="1786.98" cy="-26.8701" rx="63.7795" ry="26.7407"/>
<text text-anchor="middle" x="1786.98" y="-30.6701" font-family="Times,serif" font-size="14.00">&lt;waypoint1&gt;</text>
<text text-anchor="middle" x="1786.98" y="-15.6701" font-family="Times,serif" font-size="14.00">waypoint</text>
</g>
<!-- n2&#45;&gt;n4 -->
<g id="edge24" class="edge"><title>n2&#45;&gt;n4</title>
<path fill="none" stroke="black" d="M920.376,-214.603C950.475,-197.932 988.082,-177.174 989.98,-176.48 1009.03,-169.518 1328.04,-108.482 1347.98,-104.74 1478.74,-80.1948 1631.89,-53.9441 1718.36,-39.3516"/>
<polygon fill="black" stroke="black" points="1719.04,-42.7875 1728.32,-37.6739 1717.87,-35.8849 1719.04,-42.7875"/>
<text text-anchor="middle" x="1403.98" y="-127.91" font-family="Times,serif" font-size="14.00"> static(visible_from)</text>
</g>
<!-- n22 -->
<g id="node22" class="node"><title>n22</title>
<ellipse fill="none" stroke="black" cx="1887.98" cy="-131.61" rx="63.7795" ry="26.7407"/>
<text text-anchor="middle" x="1887.98" y="-135.41" font-family="Times,serif" font-size="14.00">&lt;waypoint0&gt;</text>
<text text-anchor="middle" x="1887.98" y="-120.41" font-family="Times,serif" font-size="14.00">waypoint</text>
</g>
<!-- n2&#45;&gt;n22 -->
<g id="edge13" class="edge"><title>n2&#45;&gt;n22</title>
<path fill="none" stroke="black" d="M927.349,-217.183C936.361,-214.128 945.872,-211.348 954.98,-209.48 1086.7,-182.472 1125.04,-217.408 1256.98,-191.48 1277.25,-187.496 1280.74,-180.617 1300.98,-176.48 1313.43,-173.936 1660.98,-148.856 1815.32,-137.8"/>
<polygon fill="black" stroke="black" points="1815.93,-141.266 1825.65,-137.06 1815.43,-134.283 1815.93,-141.266"/>
<text text-anchor="middle" x="1358.98" y="-180.28" font-family="Times,serif" font-size="14.00"> static(visible_from)</text>
</g>
<!-- n3 -->
<g id="node3" class="node"><title>n3</title>
<ellipse fill="none" stroke="black" cx="1031.98" cy="-236.35" rx="67.7647" ry="26.7407"/>
<text text-anchor="middle" x="1031.98" y="-240.15" font-family="Times,serif" font-size="14.00">&lt;objective14&gt;</text>
<text text-anchor="middle" x="1031.98" y="-225.15" font-family="Times,serif" font-size="14.00">objective</text>
</g>
<!-- n3&#45;&gt;n4 -->
<g id="edge9" class="edge"><title>n3&#45;&gt;n4</title>
<path fill="none" stroke="black" d="M1079.93,-217.105C1089.44,-214.098 1099.43,-211.354 1108.98,-209.48 1232.65,-185.205 1270.78,-226.027 1391.98,-191.48 1405.56,-187.61 1407.2,-182.472 1419.98,-176.48 1527.8,-125.947 1657.74,-75.7584 1730.5,-48.5849"/>
<polygon fill="black" stroke="black" points="1731.8,-51.8365 1739.95,-45.0661 1729.35,-45.2768 1731.8,-51.8365"/>
<text text-anchor="middle" x="1641.98" y="-127.91" font-family="Times,serif" font-size="14.00"> static(visible_from)</text>
</g>
<!-- n3&#45;&gt;n22 -->
<g id="edge28" class="edge"><title>n3&#45;&gt;n22</title>
<path fill="none" stroke="black" d="M1079.92,-217.066C1089.43,-214.062 1099.43,-211.33 1108.98,-209.48 1176.29,-196.448 1352.89,-215.846 1416.98,-191.48 1427.04,-187.657 1426,-180.496 1435.98,-176.48 1470.23,-162.701 1696.3,-145.602 1815.18,-137.417"/>
<polygon fill="black" stroke="black" points="1815.56,-140.899 1825.29,-136.724 1815.08,-133.915 1815.56,-140.899"/>
<text text-anchor="middle" x="1491.98" y="-180.28" font-family="Times,serif" font-size="14.00"> static(visible_from)</text>
</g>
<!-- n4&#45;&gt;n4 -->
<g id="edge1" class="edge"><title>n4&#45;&gt;n4</title>
<path fill="none" stroke="black" d="M1846.78,-36.3053C1859.46,-35.3472 1868.62,-32.2021 1868.62,-26.8701 1868.62,-23.121 1864.09,-20.4531 1857,-18.8664"/>
<polygon fill="black" stroke="black" points="1857.17,-15.3569 1846.78,-17.4349 1856.2,-22.2891 1857.17,-15.3569"/>
<text text-anchor="middle" x="1927.62" y="-23.1701" font-family="Times,serif" font-size="14.00"> init(at_rock_sample)</text>
</g>
<!-- n4&#45;&gt;n22 -->
<g id="edge11" class="edge"><title>n4&#45;&gt;n22</title>
<path fill="none" stroke="black" d="M1781.55,-53.7484C1780.65,-64.7496 1781.64,-77.2091 1787.98,-86.7401 1796.26,-99.179 1808.92,-108.117 1822.47,-114.531"/>
<polygon fill="black" stroke="black" points="1821.39,-117.873 1831.96,-118.579 1824.14,-111.435 1821.39,-117.873"/>
<text text-anchor="middle" x="1826.98" y="-75.5401" font-family="Times,serif" font-size="14.00"> static(visible)</text>
</g>
<!-- n5 -->
<g id="node5" class="node"><title>n5</title>
<ellipse fill="none" stroke="black" cx="3674.98" cy="-341.09" rx="56.6372" ry="26.7407"/>
<text text-anchor="middle" x="3674.98" y="-344.89" font-family="Times,serif" font-size="14.00">&lt;camera0&gt;</text>
<text text-anchor="middle" x="3674.98" y="-329.89" font-family="Times,serif" font-size="14.00">camera</text>
</g>
<!-- n13 -->
<g id="node13" class="node"><title>n13</title>
<ellipse fill="none" stroke="black" cx="2748.98" cy="-236.35" rx="62.8651" ry="26.7407"/>
<text text-anchor="middle" x="2748.98" y="-240.15" font-family="Times,serif" font-size="14.00">&lt;objective7&gt;</text>
<text text-anchor="middle" x="2748.98" y="-225.15" font-family="Times,serif" font-size="14.00">objective</text>
</g>
<!-- n5&#45;&gt;n13 -->
<g id="edge34" class="edge"><title>n5&#45;&gt;n13</title>
<path fill="none" stroke="black" d="M3623.54,-329.617C3553.75,-315.888 3425.04,-292.259 3313.98,-281.22 3204.89,-270.377 2928.62,-284.002 2820.98,-263.22 2815.13,-262.091 2809.12,-260.564 2803.19,-258.812"/>
<polygon fill="black" stroke="black" points="2803.91,-255.368 2793.32,-255.684 2801.79,-262.041 2803.91,-255.368"/>
<text text-anchor="middle" x="3492.48" y="-285.02" font-family="Times,serif" font-size="14.00"> static(calibration_target)</text>
</g>
<!-- n21 -->
<g id="node21" class="node"><title>n21</title>
<ellipse fill="none" stroke="black" cx="3652.98" cy="-131.61" rx="56.6372" ry="26.7407"/>
<text text-anchor="middle" x="3652.98" y="-135.41" font-family="Times,serif" font-size="14.00">&lt;high_res&gt;</text>
<text text-anchor="middle" x="3652.98" y="-120.41" font-family="Times,serif" font-size="14.00">mode</text>
</g>
<!-- n5&#45;&gt;n21 -->
<g id="edge36" class="edge"><title>n5&#45;&gt;n21</title>
<path fill="none" stroke="black" d="M3710.55,-320.072C3730.43,-306.768 3753.46,-287.322 3764.98,-263.22 3781.61,-228.429 3788.81,-208.269 3766.98,-176.48 3755.32,-159.506 3736.11,-149.097 3716.75,-142.715"/>
<polygon fill="black" stroke="black" points="3717.54,-139.299 3706.96,-139.812 3715.55,-146.01 3717.54,-139.299"/>
<text text-anchor="middle" x="3823.98" y="-232.65" font-family="Times,serif" font-size="14.00"> static(supports)</text>
</g>
<!-- n5&#45;&gt;n28 -->
<g id="edge23" class="edge"><title>n5&#45;&gt;n28</title>
<path fill="none" stroke="black" d="M3619.62,-335C3488.73,-323.194 3149.8,-293.986 2865.98,-281.22 2402.82,-260.388 2285.83,-290.021 1822.98,-263.22 1752.18,-259.121 1670.96,-250.488 1617.96,-244.322"/>
<polygon fill="black" stroke="black" points="1618.08,-240.813 1607.74,-243.124 1617.27,-247.766 1618.08,-240.813"/>
<text text-anchor="middle" x="3157.48" y="-285.02" font-family="Times,serif" font-size="14.00"> static(on_board)</text>
</g>
<!-- n6 -->
<g id="node6" class="node"><title>n6</title>
<ellipse fill="none" stroke="black" cx="3195.98" cy="-236.35" rx="67.7647" ry="26.7407"/>
<text text-anchor="middle" x="3195.98" y="-240.15" font-family="Times,serif" font-size="14.00">&lt;objective15&gt;</text>
<text text-anchor="middle" x="3195.98" y="-225.15" font-family="Times,serif" font-size="14.00">objective</text>
</g>
<!-- n6&#45;&gt;n4 -->
<g id="edge15" class="edge"><title>n6&#45;&gt;n4</title>
<path fill="none" stroke="black" d="M3193.79,-209.393C3193.79,-198.859 3194.95,-186.773 3198.98,-176.48 3202.77,-166.782 3210.43,-168.272 3213.98,-158.48 3222.11,-136.022 3229.96,-122.49 3213.98,-104.74 3168.32,-54.0298 2146.98,-33.7037 1860.87,-28.9929"/>
<polygon fill="black" stroke="black" points="1860.66,-25.4891 1850.61,-28.8254 1860.55,-32.4882 1860.66,-25.4891"/>
<text text-anchor="middle" x="3279.98" y="-127.91" font-family="Times,serif" font-size="14.00"> static(visible_from)</text>
</g>
<!-- n6&#45;&gt;n21 -->
<g id="edge48" class="edge"><title>n6&#45;&gt;n21</title>
<path fill="none" stroke="black" d="M3197.07,-209.477C3198.97,-197.65 3203.33,-184.514 3212.98,-176.48 3216.54,-173.511 3465.75,-149.999 3587.49,-138.671"/>
<polygon fill="black" stroke="black" points="3588.17,-142.123 3597.8,-137.712 3587.52,-135.153 3588.17,-142.123"/>
<text text-anchor="middle" x="3305.98" y="-180.28" font-family="Times,serif" font-size="14.00"> end(communicated_image_data)</text>
</g>
<!-- n6&#45;&gt;n22 -->
<g id="edge46" class="edge"><title>n6&#45;&gt;n22</title>
<path fill="none" stroke="black" d="M3146.51,-217.881C3137.41,-214.908 3127.95,-211.979 3118.98,-209.48 3086.52,-200.435 3004.39,-180.846 2970.98,-176.48 2775.12,-150.887 2172.17,-137.767 1961.53,-133.874"/>
<polygon fill="black" stroke="black" points="1961.56,-130.374 1951.5,-133.69 1961.43,-137.373 1961.56,-130.374"/>
<text text-anchor="middle" x="3101.98" y="-180.28" font-family="Times,serif" font-size="14.00"> static(visible_from)</text>
</g>
<!-- n7 -->
<g id="node7" class="node"><title>n7</title>
<ellipse fill="none" stroke="black" cx="2053.98" cy="-236.35" rx="67.7647" ry="26.7407"/>
<text text-anchor="middle" x="2053.98" y="-240.15" font-family="Times,serif" font-size="14.00">&lt;objective13&gt;</text>
<text text-anchor="middle" x="2053.98" y="-225.15" font-family="Times,serif" font-size="14.00">objective</text>
</g>
<!-- n7&#45;&gt;n22 -->
<g id="edge18" class="edge"><title>n7&#45;&gt;n22</title>
<path fill="none" stroke="black" d="M2035.78,-210.213C2026.43,-198.701 2014.22,-185.619 2000.98,-176.48 1985.49,-165.789 1967.03,-157.214 1949.57,-150.581"/>
<polygon fill="black" stroke="black" points="1950.59,-147.228 1939.99,-147.094 1948.19,-153.805 1950.59,-147.228"/>
<text text-anchor="middle" x="2073.98" y="-180.28" font-family="Times,serif" font-size="14.00"> static(visible_from)</text>
</g>
<!-- n8 -->
<g id="node8" class="node"><title>n8</title>
<ellipse fill="none" stroke="black" cx="594.98" cy="-236.35" rx="62.8651" ry="26.7407"/>
<text text-anchor="middle" x="594.98" y="-240.15" font-family="Times,serif" font-size="14.00">&lt;objective5&gt;</text>
<text text-anchor="middle" x="594.98" y="-225.15" font-family="Times,serif" font-size="14.00">objective</text>
</g>
<!-- n8&#45;&gt;n4 -->
<g id="edge21" class="edge"><title>n8&#45;&gt;n4</title>
<path fill="none" stroke="black" d="M641.701,-218.203C666.27,-208.891 693.6,-197.984 704.98,-191.48 759.642,-160.238 759.229,-129.818 816.98,-104.74 977.755,-34.924 1515.26,-27.7848 1713.08,-27.5848"/>
<polygon fill="black" stroke="black" points="1713.09,-31.0848 1723.09,-27.5803 1713.09,-24.0848 1713.09,-31.0848"/>
<text text-anchor="middle" x="872.98" y="-127.91" font-family="Times,serif" font-size="14.00"> static(visible_from)</text>
</g>
<!-- n8&#45;&gt;n15 -->
<g id="edge45" class="edge"><title>n8&#45;&gt;n15</title>
<path fill="none" stroke="black" d="M544.724,-219.845C531.55,-216.116 517.301,-212.378 503.98,-209.48 452.141,-198.205 435.543,-210.399 385.98,-191.48 374.578,-187.128 374.237,-181.192 362.98,-176.48 318.33,-157.792 264.628,-146.596 223.968,-140.197"/>
<polygon fill="black" stroke="black" points="224.338,-136.713 213.926,-138.672 223.287,-143.634 224.338,-136.713"/>
<text text-anchor="middle" x="477.98" y="-180.28" font-family="Times,serif" font-size="14.00"> end(communicated_image_data)</text>
</g>
<!-- n8&#45;&gt;n22 -->
<g id="edge38" class="edge"><title>n8&#45;&gt;n22</title>
<path fill="none" stroke="black" d="M639.371,-217.287C648.381,-214.224 657.885,-211.413 666.98,-209.48 772.909,-186.964 802.393,-203.85 909.98,-191.48 952.881,-186.548 962.99,-180.574 1005.98,-176.48 1234.42,-154.728 1292.83,-170.572 1521.98,-158.48 1624.05,-153.095 1741.95,-144.297 1815.74,-138.481"/>
<polygon fill="black" stroke="black" points="1816.16,-141.958 1825.85,-137.68 1815.61,-134.98 1816.16,-141.958"/>
<text text-anchor="middle" x="1061.98" y="-180.28" font-family="Times,serif" font-size="14.00"> static(visible_from)</text>
</g>
<!-- n9 -->
<g id="node9" class="node"><title>n9</title>
<ellipse fill="none" stroke="black" cx="2202.98" cy="-236.35" rx="62.8651" ry="26.7407"/>
<text text-anchor="middle" x="2202.98" y="-240.15" font-family="Times,serif" font-size="14.00">&lt;objective0&gt;</text>
<text text-anchor="middle" x="2202.98" y="-225.15" font-family="Times,serif" font-size="14.00">objective</text>
</g>
<!-- n9&#45;&gt;n22 -->
<g id="edge8" class="edge"><title>n9&#45;&gt;n22</title>
<path fill="none" stroke="black" d="M2180.64,-210.892C2168.1,-198.668 2151.49,-184.755 2133.98,-176.48 2079.67,-150.819 2012.15,-140.082 1961.59,-135.633"/>
<polygon fill="black" stroke="black" points="1961.64,-132.126 1951.39,-134.8 1961.07,-139.103 1961.64,-132.126"/>
<text text-anchor="middle" x="2213.98" y="-180.28" font-family="Times,serif" font-size="14.00"> static(visible_from)</text>
</g>
<!-- n10 -->
<g id="node10" class="node"><title>n10</title>
<ellipse fill="none" stroke="black" cx="1560.98" cy="-341.09" rx="67.3507" ry="26.7407"/>
<text text-anchor="middle" x="1560.98" y="-344.89" font-family="Times,serif" font-size="14.00">&lt;rover0store&gt;</text>
<text text-anchor="middle" x="1560.98" y="-329.89" font-family="Times,serif" font-size="14.00">store</text>
</g>
<!-- n10&#45;&gt;n10 -->
<g id="edge2" class="edge"><title>n10&#45;&gt;n10</title>
<path fill="none" stroke="black" d="M1624.13,-350.468C1636.96,-349.447 1646.15,-346.321 1646.15,-341.09 1646.15,-337.413 1641.61,-334.775 1634.45,-333.179"/>
<polygon fill="black" stroke="black" points="1634.52,-329.653 1624.13,-331.712 1633.53,-336.584 1634.52,-329.653"/>
<text text-anchor="middle" x="1679.15" y="-337.39" font-family="Times,serif" font-size="14.00"> init(empty)</text>
</g>
<!-- n10&#45;&gt;n28 -->
<g id="edge32" class="edge"><title>n10&#45;&gt;n28</title>
<path fill="none" stroke="black" d="M1560.98,-314.165C1560.98,-301.875 1560.98,-286.987 1560.98,-273.602"/>
<polygon fill="black" stroke="black" points="1564.48,-273.268 1560.98,-263.268 1557.48,-273.268 1564.48,-273.268"/>
<text text-anchor="middle" x="1603.98" y="-285.02" font-family="Times,serif" font-size="14.00"> static(store_of)</text>
</g>
<!-- n11 -->
<g id="node11" class="node"><title>n11</title>
<ellipse fill="none" stroke="black" cx="2346.98" cy="-236.35" rx="62.8651" ry="26.7407"/>
<text text-anchor="middle" x="2346.98" y="-240.15" font-family="Times,serif" font-size="14.00">&lt;objective3&gt;</text>
<text text-anchor="middle" x="2346.98" y="-225.15" font-family="Times,serif" font-size="14.00">objective</text>
</g>
<!-- n11&#45;&gt;n22 -->
<g id="edge47" class="edge"><title>n11&#45;&gt;n22</title>
<path fill="none" stroke="black" d="M2318.45,-212.054C2299.25,-196.583 2276.47,-178.714 2270.98,-176.48 2216.48,-154.296 2056.14,-141.889 1961.08,-136.295"/>
<polygon fill="black" stroke="black" points="1961.15,-132.793 1950.96,-135.71 1960.74,-139.781 1961.15,-132.793"/>
<text text-anchor="middle" x="2347.98" y="-180.28" font-family="Times,serif" font-size="14.00"> static(visible_from)</text>
</g>
<!-- n12 -->
<g id="node12" class="node"><title>n12</title>
<ellipse fill="none" stroke="black" cx="738.98" cy="-236.35" rx="62.8651" ry="26.7407"/>
<text text-anchor="middle" x="738.98" y="-240.15" font-family="Times,serif" font-size="14.00">&lt;objective4&gt;</text>
<text text-anchor="middle" x="738.98" y="-225.15" font-family="Times,serif" font-size="14.00">objective</text>
</g>
<!-- n12&#45;&gt;n4 -->
<g id="edge25" class="edge"><title>n12&#45;&gt;n4</title>
<path fill="none" stroke="black" d="M784.712,-217.643C793.358,-214.661 802.385,-211.789 810.98,-209.48 854.17,-197.88 873.313,-217.084 909.98,-191.48 946.646,-165.877 923.234,-128.724 960.98,-104.74 1023.76,-64.8518 1523.06,-39.2847 1713.52,-30.8992"/>
<polygon fill="black" stroke="black" points="1713.88,-34.387 1723.71,-30.4538 1713.57,-27.3937 1713.88,-34.387"/>
<text text-anchor="middle" x="1016.98" y="-127.91" font-family="Times,serif" font-size="14.00"> static(visible_from)</text>
</g>
<!-- n12&#45;&gt;n15 -->
<g id="edge40" class="edge"><title>n12&#45;&gt;n15</title>
<path fill="none" stroke="black" d="M731.825,-209.622C727.085,-197.525 719.55,-184.113 707.98,-176.48 668.572,-150.484 361.775,-138.421 226.123,-134.318"/>
<polygon fill="black" stroke="black" points="225.976,-130.812 215.877,-134.013 225.768,-137.809 225.976,-130.812"/>
<text text-anchor="middle" x="813.98" y="-180.28" font-family="Times,serif" font-size="14.00"> end(communicated_image_data)</text>
</g>
<!-- n12&#45;&gt;n22 -->
<g id="edge10" class="edge"><title>n12&#45;&gt;n22</title>
<path fill="none" stroke="black" d="M783.347,-217.17C792.359,-214.117 801.87,-211.34 810.98,-209.48 878.808,-195.634 1057.27,-216.065 1121.98,-191.48 1132.04,-187.659 1130.9,-180.248 1140.98,-176.48 1180.68,-161.64 1479.67,-160.974 1521.98,-158.48 1624.01,-152.465 1741.92,-143.827 1815.72,-138.217"/>
<polygon fill="black" stroke="black" points="1816.13,-141.696 1825.84,-137.447 1815.6,-134.717 1816.13,-141.696"/>
<text text-anchor="middle" x="1196.98" y="-180.28" font-family="Times,serif" font-size="14.00"> static(visible_from)</text>
</g>
<!-- n13&#45;&gt;n22 -->
<g id="edge51" class="edge"><title>n13&#45;&gt;n22</title>
<path fill="none" stroke="black" d="M2703.67,-217.622C2694.91,-214.606 2685.73,-211.728 2676.98,-209.48 2627.72,-196.827 2611.43,-209.772 2563.98,-191.48 2552.59,-187.091 2552.55,-180.348 2540.98,-176.48 2435.54,-141.247 2109.77,-134.245 1962.1,-132.901"/>
<polygon fill="black" stroke="black" points="1961.81,-129.398 1951.78,-132.814 1961.75,-136.398 1961.81,-129.398"/>
<text text-anchor="middle" x="2619.98" y="-180.28" font-family="Times,serif" font-size="14.00"> static(visible_from)</text>
</g>
<!-- n14 -->
<g id="node14" class="node"><title>n14</title>
<ellipse fill="none" stroke="black" cx="3046.98" cy="-236.35" rx="62.8651" ry="26.7407"/>
<text text-anchor="middle" x="3046.98" y="-240.15" font-family="Times,serif" font-size="14.00">&lt;objective8&gt;</text>
<text text-anchor="middle" x="3046.98" y="-225.15" font-family="Times,serif" font-size="14.00">objective</text>
</g>
<!-- n14&#45;&gt;n4 -->
<g id="edge17" class="edge"><title>n14&#45;&gt;n4</title>
<path fill="none" stroke="black" d="M3086.81,-215.412C3101.16,-205.265 3112.41,-191.826 3105.98,-176.48 3088.39,-134.53 3074.53,-123.254 3032.98,-104.74 2926.07,-57.1071 2112.48,-35.1291 1860.88,-29.4246"/>
<polygon fill="black" stroke="black" points="1860.82,-25.9225 1850.75,-29.1967 1860.67,-32.9207 1860.82,-25.9225"/>
<text text-anchor="middle" x="3153.98" y="-127.91" font-family="Times,serif" font-size="14.00"> static(visible_from)</text>
</g>
<!-- n14&#45;&gt;n22 -->
<g id="edge22" class="edge"><title>n14&#45;&gt;n22</title>
<path fill="none" stroke="black" d="M3001.68,-217.594C2992.92,-214.58 2983.73,-211.71 2974.98,-209.48 2924.42,-196.601 2909.8,-203.294 2858.98,-191.48 2837.21,-186.419 2832.99,-180.376 2810.98,-176.48 2648.4,-147.703 2150.54,-136.841 1961.68,-133.689"/>
<polygon fill="black" stroke="black" points="1961.63,-130.187 1951.57,-133.522 1961.51,-137.186 1961.63,-130.187"/>
<text text-anchor="middle" x="2914.98" y="-180.28" font-family="Times,serif" font-size="14.00"> static(visible_from)</text>
</g>
<!-- n16 -->
<g id="node16" class="node"><title>n16</title>
<ellipse fill="none" stroke="black" cx="1814.98" cy="-341.09" rx="56.6372" ry="26.7407"/>
<text text-anchor="middle" x="1814.98" y="-344.89" font-family="Times,serif" font-size="14.00">&lt;camera3&gt;</text>
<text text-anchor="middle" x="1814.98" y="-329.89" font-family="Times,serif" font-size="14.00">camera</text>
</g>
<!-- n16&#45;&gt;n15 -->
<g id="edge19" class="edge"><title>n16&#45;&gt;n15</title>
<path fill="none" stroke="black" d="M1769.1,-324.932C1753.95,-320.612 1736.9,-316.469 1720.98,-314.22 1556.93,-291.049 393.226,-324.509 229.98,-296.22 185.525,-288.517 160.189,-299.944 133.98,-263.22 111.585,-231.841 123.176,-213.487 133.98,-176.48 135.029,-172.886 136.472,-169.306 138.154,-165.83"/>
<polygon fill="black" stroke="black" points="141.297,-167.379 143.058,-156.932 135.166,-164 141.297,-167.379"/>
<text text-anchor="middle" x="177.98" y="-232.65" font-family="Times,serif" font-size="14.00"> static(supports)</text>
</g>
<!-- n19 -->
<g id="node19" class="node"><title>n19</title>
<ellipse fill="none" stroke="black" cx="2619.98" cy="-236.35" rx="48.1667" ry="26.7407"/>
<text text-anchor="middle" x="2619.98" y="-240.15" font-family="Times,serif" font-size="14.00">&lt;colour&gt;</text>
<text text-anchor="middle" x="2619.98" y="-225.15" font-family="Times,serif" font-size="14.00">mode</text>
</g>
<!-- n16&#45;&gt;n19 -->
<g id="edge14" class="edge"><title>n16&#45;&gt;n19</title>
<path fill="none" stroke="black" d="M1871.94,-340.448C1998.53,-339.906 2311.9,-331.153 2562.98,-263.22 2567.29,-262.055 2571.68,-260.599 2576.01,-258.974"/>
<polygon fill="black" stroke="black" points="2577.41,-262.186 2585.37,-255.197 2574.79,-255.695 2577.41,-262.186"/>
<text text-anchor="middle" x="2527.98" y="-285.02" font-family="Times,serif" font-size="14.00"> static(supports)</text>
</g>
<!-- n27 -->
<g id="node27" class="node"><title>n27</title>
<ellipse fill="none" stroke="black" cx="1899.98" cy="-236.35" rx="67.7647" ry="26.7407"/>
<text text-anchor="middle" x="1899.98" y="-240.15" font-family="Times,serif" font-size="14.00">&lt;objective12&gt;</text>
<text text-anchor="middle" x="1899.98" y="-225.15" font-family="Times,serif" font-size="14.00">objective</text>
</g>
<!-- n16&#45;&gt;n27 -->
<g id="edge50" class="edge"><title>n16&#45;&gt;n27</title>
<path fill="none" stroke="black" d="M1835.12,-315.742C1846.39,-302.124 1860.59,-284.964 1872.82,-270.173"/>
<polygon fill="black" stroke="black" points="1875.71,-272.173 1879.39,-262.237 1870.32,-267.711 1875.71,-272.173"/>
<text text-anchor="middle" x="1931.48" y="-285.02" font-family="Times,serif" font-size="14.00"> static(calibration_target)</text>
</g>
<!-- n16&#45;&gt;n28 -->
<g id="edge7" class="edge"><title>n16&#45;&gt;n28</title>
<path fill="none" stroke="black" d="M1772.75,-323.01C1727.48,-304.7 1655.77,-275.693 1608.55,-256.591"/>
<polygon fill="black" stroke="black" points="1609.73,-253.296 1599.15,-252.79 1607.11,-259.785 1609.73,-253.296"/>
<text text-anchor="middle" x="1750.48" y="-285.02" font-family="Times,serif" font-size="14.00"> static(on_board)</text>
</g>
<!-- n17 -->
<g id="node17" class="node"><title>n17</title>
<ellipse fill="none" stroke="black" cx="2490.98" cy="-236.35" rx="62.8651" ry="26.7407"/>
<text text-anchor="middle" x="2490.98" y="-240.15" font-family="Times,serif" font-size="14.00">&lt;objective6&gt;</text>
<text text-anchor="middle" x="2490.98" y="-225.15" font-family="Times,serif" font-size="14.00">objective</text>
</g>
<!-- n17&#45;&gt;n22 -->
<g id="edge35" class="edge"><title>n17&#45;&gt;n22</title>
<path fill="none" stroke="black" d="M2459.56,-213.028C2436.65,-196.842 2409.08,-177.596 2405.98,-176.48 2326.26,-147.822 2084.92,-137.604 1961.85,-134.192"/>
<polygon fill="black" stroke="black" points="1961.85,-130.691 1951.76,-133.92 1961.66,-137.688 1961.85,-130.691"/>
<text text-anchor="middle" x="2482.98" y="-180.28" font-family="Times,serif" font-size="14.00"> static(visible_from)</text>
</g>
<!-- n18 -->
<g id="node18" class="node"><title>n18</title>
<ellipse fill="none" stroke="black" cx="3486.98" cy="-236.35" rx="62.8651" ry="26.7407"/>
<text text-anchor="middle" x="3486.98" y="-240.15" font-family="Times,serif" font-size="14.00">&lt;objective9&gt;</text>
<text text-anchor="middle" x="3486.98" y="-225.15" font-family="Times,serif" font-size="14.00">objective</text>
</g>
<!-- n18&#45;&gt;n21 -->
<g id="edge31" class="edge"><title>n18&#45;&gt;n21</title>
<path fill="none" stroke="black" d="M3511.09,-211.394C3523.51,-199.887 3539.31,-186.464 3554.98,-176.48 3568.91,-167.605 3584.94,-159.618 3599.94,-152.968"/>
<polygon fill="black" stroke="black" points="3601.33,-156.181 3609.13,-149.004 3598.56,-149.754 3601.33,-156.181"/>
<text text-anchor="middle" x="3646.98" y="-180.28" font-family="Times,serif" font-size="14.00"> end(communicated_image_data)</text>
</g>
<!-- n18&#45;&gt;n22 -->
<g id="edge29" class="edge"><title>n18&#45;&gt;n22</title>
<path fill="none" stroke="black" d="M3452.97,-213.651C3442.08,-206.634 3429.98,-198.78 3418.98,-191.48 3409.12,-184.939 3408.24,-180.133 3396.98,-176.48 3379.72,-170.881 2262.66,-142.129 1961.88,-134.481"/>
<polygon fill="black" stroke="black" points="1961.61,-130.973 1951.52,-134.218 1961.43,-137.971 1961.61,-130.973"/>
<text text-anchor="middle" x="3474.98" y="-180.28" font-family="Times,serif" font-size="14.00"> static(visible_from)</text>
</g>
<!-- n20 -->
<g id="node20" class="node"><title>n20</title>
<ellipse fill="none" stroke="black" cx="1323.98" cy="-236.35" rx="51.7379" ry="26.7407"/>
<text text-anchor="middle" x="1323.98" y="-240.15" font-family="Times,serif" font-size="14.00">&lt;general&gt;</text>
<text text-anchor="middle" x="1323.98" y="-225.15" font-family="Times,serif" font-size="14.00">lander</text>
</g>
<!-- n20&#45;&gt;n20 -->
<g id="edge3" class="edge"><title>n20&#45;&gt;n20</title>
<path fill="none" stroke="black" d="M1372.46,-245.966C1384.56,-245.294 1393.6,-242.089 1393.6,-236.35 1393.6,-232.405 1389.32,-229.657 1382.72,-228.107"/>
<polygon fill="black" stroke="black" points="1382.83,-224.59 1372.46,-226.734 1381.9,-231.529 1382.83,-224.59"/>
<text text-anchor="middle" x="1444.1" y="-232.65" font-family="Times,serif" font-size="14.00"> init(channel_free)</text>
</g>
<!-- n20&#45;&gt;n22 -->
<g id="edge43" class="edge"><title>n20&#45;&gt;n22</title>
<path fill="none" stroke="black" d="M1373.18,-227.674C1409.31,-222.183 1459.63,-214.846 1503.98,-209.48 1585.11,-199.665 1611.18,-222.034 1686.98,-191.48 1696.96,-187.458 1696.3,-181.183 1705.98,-176.48 1740.83,-159.54 1782.7,-148.863 1817.49,-142.29"/>
<polygon fill="black" stroke="black" points="1818.35,-145.69 1827.57,-140.462 1817.1,-138.803 1818.35,-145.69"/>
<text text-anchor="middle" x="1751.98" y="-180.28" font-family="Times,serif" font-size="14.00"> static(at_lander)</text>
</g>
<!-- n22&#45;&gt;n4 -->
<g id="edge33" class="edge"><title>n22&#45;&gt;n4</title>
<path fill="none" stroke="black" d="M1882.58,-104.771C1879.25,-93.6493 1874.02,-81.0841 1865.98,-71.7401 1859.08,-63.7212 1850.33,-56.8825 1841.18,-51.1588"/>
<polygon fill="black" stroke="black" points="1842.75,-48.0189 1832.34,-46.0107 1839.22,-54.0678 1842.75,-48.0189"/>
<text text-anchor="middle" x="1914.98" y="-75.5401" font-family="Times,serif" font-size="14.00"> static(visible)</text>
</g>
<!-- n23 -->
<g id="node23" class="node"><title>n23</title>
<ellipse fill="none" stroke="black" cx="2897.98" cy="-236.35" rx="67.7647" ry="26.7407"/>
<text text-anchor="middle" x="2897.98" y="-240.15" font-family="Times,serif" font-size="14.00">&lt;objective10&gt;</text>
<text text-anchor="middle" x="2897.98" y="-225.15" font-family="Times,serif" font-size="14.00">objective</text>
</g>
<!-- n23&#45;&gt;n4 -->
<g id="edge12" class="edge"><title>n23&#45;&gt;n4</title>
<path fill="none" stroke="black" d="M2933.08,-213.218C2946.54,-202.038 2956.43,-188.36 2945.98,-176.48 2873.85,-94.5143 2103.4,-45.3104 1860.14,-31.7319"/>
<polygon fill="black" stroke="black" points="1860.16,-28.2281 1849.99,-31.1689 1859.78,-35.2174 1860.16,-28.2281"/>
<text text-anchor="middle" x="2972.98" y="-127.91" font-family="Times,serif" font-size="14.00"> static(visible_from)</text>
</g>
<!-- n23&#45;&gt;n22 -->
<g id="edge41" class="edge"><title>n23&#45;&gt;n22</title>
<path fill="none" stroke="black" d="M2849.07,-217.471C2839.82,-214.505 2830.17,-211.683 2820.98,-209.48 2767.68,-196.702 2750.23,-210.901 2698.98,-191.48 2687.57,-187.156 2687.58,-180.282 2675.98,-176.48 2544.72,-133.453 2131.39,-130.989 1961.75,-131.884"/>
<polygon fill="black" stroke="black" points="1961.64,-128.384 1951.66,-131.942 1961.68,-135.384 1961.64,-128.384"/>
<text text-anchor="middle" x="2754.98" y="-180.28" font-family="Times,serif" font-size="14.00"> static(visible_from)</text>
</g>
<!-- n24&#45;&gt;n22 -->
<g id="edge27" class="edge"><title>n24&#45;&gt;n22</title>
<path fill="none" stroke="black" d="M1233.93,-217.095C1243.43,-214.089 1253.43,-211.348 1262.98,-209.48 1326.13,-197.128 1491.88,-214.464 1551.98,-191.48 1562.03,-187.637 1561.08,-180.699 1570.98,-176.48 1613.74,-158.253 1736.05,-145.11 1815.64,-138.192"/>
<polygon fill="black" stroke="black" points="1815.94,-141.679 1825.61,-137.339 1815.35,-134.705 1815.94,-141.679"/>
<text text-anchor="middle" x="1626.98" y="-180.28" font-family="Times,serif" font-size="14.00"> static(visible_from)</text>
</g>
<!-- n25 -->
<g id="node25" class="node"><title>n25</title>
<ellipse fill="none" stroke="black" cx="2619.98" cy="-341.09" rx="56.6372" ry="26.7407"/>
<text text-anchor="middle" x="2619.98" y="-344.89" font-family="Times,serif" font-size="14.00">&lt;camera1&gt;</text>
<text text-anchor="middle" x="2619.98" y="-329.89" font-family="Times,serif" font-size="14.00">camera</text>
</g>
<!-- n25&#45;&gt;n13 -->
<g id="edge39" class="edge"><title>n25&#45;&gt;n13</title>
<path fill="none" stroke="black" d="M2665.17,-324.592C2681.15,-317.623 2698.5,-308.221 2711.98,-296.22 2719.76,-289.298 2726.49,-280.358 2732.01,-271.545"/>
<polygon fill="black" stroke="black" points="2735.07,-273.25 2737.11,-262.854 2729.03,-269.707 2735.07,-273.25"/>
<text text-anchor="middle" x="2793.48" y="-285.02" font-family="Times,serif" font-size="14.00"> static(calibration_target)</text>
</g>
<!-- n25&#45;&gt;n15 -->
<g id="edge5" class="edge"><title>n25&#45;&gt;n15</title>
<path fill="none" stroke="black" d="M2563.43,-337.932C2439.71,-333.25 2135.69,-321.958 1880.98,-314.22 1791.59,-311.505 353.315,-300.408 271.98,-263.22 242.31,-249.655 249.557,-226.91 221.98,-209.48 199.523,-195.286 181.224,-212.501 164.98,-191.48 160.008,-185.046 157.833,-176.936 157.198,-168.808"/>
<polygon fill="black" stroke="black" points="160.697,-168.604 157.123,-158.63 153.697,-168.656 160.697,-168.604"/>
<text text-anchor="middle" x="315.98" y="-232.65" font-family="Times,serif" font-size="14.00"> static(supports)</text>
</g>
<!-- n25&#45;&gt;n19 -->
<g id="edge16" class="edge"><title>n25&#45;&gt;n19</title>
<path fill="none" stroke="black" d="M2619.98,-314.165C2619.98,-301.875 2619.98,-286.987 2619.98,-273.602"/>
<polygon fill="black" stroke="black" points="2623.48,-273.268 2619.98,-263.268 2616.48,-273.268 2623.48,-273.268"/>
<text text-anchor="middle" x="2663.98" y="-285.02" font-family="Times,serif" font-size="14.00"> static(supports)</text>
</g>
<!-- n25&#45;&gt;n21 -->
<g id="edge37" class="edge"><title>n25&#45;&gt;n21</title>
<path fill="none" stroke="black" d="M2675.95,-336.275C2780.52,-329.067 3012.64,-312.689 3207.98,-296.22 3364.11,-283.057 3407.85,-304.58 3558.98,-263.22 3613.01,-248.435 3620.43,-228.865 3672.98,-209.48 3701.51,-198.958 3720.52,-215.643 3738.98,-191.48 3752.31,-174.026 3733.66,-159.888 3710.37,-149.846"/>
<polygon fill="black" stroke="black" points="3711.49,-146.527 3700.91,-146.065 3708.9,-153.027 3711.49,-146.527"/>
<text text-anchor="middle" x="3717.98" y="-232.65" font-family="Times,serif" font-size="14.00"> static(supports)</text>
</g>
<!-- n25&#45;&gt;n28 -->
<g id="edge20" class="edge"><title>n25&#45;&gt;n28</title>
<path fill="none" stroke="black" d="M2564.9,-334.821C2435.45,-322.429 2101.76,-290.428 1822.98,-263.22 1752.61,-256.353 1671.62,-248.339 1618.54,-243.072"/>
<polygon fill="black" stroke="black" points="1618.6,-239.561 1608.31,-242.056 1617.91,-246.527 1618.6,-239.561"/>
<text text-anchor="middle" x="2198.48" y="-285.02" font-family="Times,serif" font-size="14.00"> static(on_board)</text>
</g>
<!-- n26 -->
<g id="node26" class="node"><title>n26</title>
<ellipse fill="none" stroke="black" cx="431.98" cy="-236.35" rx="62.8651" ry="26.7407"/>
<text text-anchor="middle" x="431.98" y="-240.15" font-family="Times,serif" font-size="14.00">&lt;objective2&gt;</text>
<text text-anchor="middle" x="431.98" y="-225.15" font-family="Times,serif" font-size="14.00">objective</text>
</g>
<!-- n26&#45;&gt;n15 -->
<g id="edge52" class="edge"><title>n26&#45;&gt;n15</title>
<path fill="none" stroke="black" d="M381.489,-220.23C366.906,-216.277 350.9,-212.329 335.98,-209.48 301.486,-202.893 205.796,-214.155 178.98,-191.48 172.074,-185.641 167.88,-177.189 165.359,-168.502"/>
<polygon fill="black" stroke="black" points="168.769,-167.715 163.167,-158.722 161.939,-169.246 168.769,-167.715"/>
<text text-anchor="middle" x="270.98" y="-180.28" font-family="Times,serif" font-size="14.00"> end(communicated_image_data)</text>
</g>
<!-- n26&#45;&gt;n22 -->
<g id="edge44" class="edge"><title>n26&#45;&gt;n22</title>
<path fill="none" stroke="black" d="M483.323,-220.716C515.782,-211.141 554.44,-199.046 569.98,-191.48 580.62,-186.3 580.706,-180.078 591.98,-176.48 641.21,-160.771 1470.36,-160.803 1521.98,-158.48 1624.09,-153.887 1741.98,-144.888 1815.76,-138.812"/>
<polygon fill="black" stroke="black" points="1816.19,-142.288 1825.87,-137.974 1815.61,-135.312 1816.19,-142.288"/>
<text text-anchor="middle" x="647.98" y="-180.28" font-family="Times,serif" font-size="14.00"> static(visible_from)</text>
</g>
<!-- n27&#45;&gt;n22 -->
<g id="edge30" class="edge"><title>n27&#45;&gt;n22</title>
<path fill="none" stroke="black" d="M1892.47,-209.559C1891.05,-203.666 1889.76,-197.396 1888.98,-191.48 1888,-184.095 1887.5,-176.144 1887.29,-168.548"/>
<polygon fill="black" stroke="black" points="1890.78,-168.446 1887.15,-158.495 1883.78,-168.543 1890.78,-168.446"/>
<text text-anchor="middle" x="1944.98" y="-180.28" font-family="Times,serif" font-size="14.00"> static(visible_from)</text>
</g>
<!-- n28&#45;&gt;n22 -->
<g id="edge26" class="edge"><title>n28&#45;&gt;n22</title>
<path fill="none" stroke="black" d="M1608.82,-232.548C1658.68,-228.291 1738.26,-217.684 1801.98,-191.48 1819.61,-184.232 1837.29,-172.982 1851.99,-162.251"/>
<polygon fill="black" stroke="black" points="1854.39,-164.829 1860.28,-156.027 1850.18,-159.231 1854.39,-164.829"/>
<text text-anchor="middle" x="1850.48" y="-180.28" font-family="Times,serif" font-size="14.00"> init(at)</text>
</g>
<!-- n28&#45;&gt;n28 -->
<g id="edge4" class="edge"><title>n28&#45;&gt;n28</title>
<path fill="none" stroke="black" d="M1606.07,-246.015C1618.02,-245.462 1627.06,-242.241 1627.06,-236.35 1627.06,-232.3 1622.79,-229.512 1616.23,-227.986"/>
<polygon fill="black" stroke="black" points="1616.44,-224.483 1606.07,-226.686 1615.55,-231.427 1616.44,-224.483"/>
<text text-anchor="middle" x="1720.56" y="-247.65" font-family="Times,serif" font-size="14.00"> static(equipped_for_imaging)</text>
<text text-anchor="middle" x="1720.56" y="-232.65" font-family="Times,serif" font-size="14.00">init(available)</text>
<text text-anchor="middle" x="1720.56" y="-217.65" font-family="Times,serif" font-size="14.00">static(equipped_for_soil_analysis)</text>
</g>
</g>
</svg>
