<?xml version="1.0" encoding="UTF-8" standalone="no"?>
<!DOCTYPE svg PUBLIC "-//W3C//DTD SVG 1.1//EN"
 "http://www.w3.org/Graphics/SVG/1.1/DTD/svg11.dtd">
<!-- Generated by graphviz version 2.38.0 (20140413.2041)
 -->
<!-- Title: Struc Pages: 1 -->
<svg width="887pt" height="295pt"
 viewBox="0.00 0.00 887.36 295.22" xmlns="http://www.w3.org/2000/svg" xmlns:xlink="http://www.w3.org/1999/xlink">
<g id="graph0" class="graph" transform="scale(1 1) rotate(0) translate(4 291.22)">
<title>Struc</title>
<polygon fill="white" stroke="none" points="-4,4 -4,-291.22 883.359,-291.22 883.359,4 -4,4"/>
<!-- n1 -->
<g id="node1" class="node"><title>n1</title>
<ellipse fill="none" stroke="black" cx="57.7401" cy="-30.8701" rx="53.9645" ry="26.7574"/>
<ellipse fill="none" stroke="black" cx="57.7401" cy="-30.8701" rx="57.9812" ry="30.7407"/>
<text text-anchor="middle" x="57.7401" y="-34.6701" font-family="Times,serif" font-size="14.00">&lt;low_res&gt;</text>
<text text-anchor="middle" x="57.7401" y="-19.6701" font-family="Times,serif" font-size="14.00">mode</text>
</g>
<!-- n2 -->
<g id="node2" class="node"><title>n2</title>
<ellipse fill="none" stroke="black" cx="708.74" cy="-143.61" rx="51.7379" ry="26.7407"/>
<text text-anchor="middle" x="708.74" y="-147.41" font-family="Times,serif" font-size="14.00">&lt;general&gt;</text>
<text text-anchor="middle" x="708.74" y="-132.41" font-family="Times,serif" font-size="14.00">lander</text>
</g>
<!-- n2&#45;&gt;n2 -->
<g id="edge1" class="edge"><title>n2&#45;&gt;n2</title>
<path fill="none" stroke="black" d="M756.572,-154.002C768.993,-153.363 778.359,-149.899 778.359,-143.61 778.359,-139.188 773.729,-136.163 766.662,-134.534"/>
<polygon fill="black" stroke="black" points="766.941,-131.041 756.572,-133.218 766.036,-137.982 766.941,-131.041"/>
<text text-anchor="middle" x="828.859" y="-139.91" font-family="Times,serif" font-size="14.00"> init(channel_free)</text>
</g>
<!-- n5 -->
<g id="node5" class="node"><title>n5</title>
<ellipse fill="none" stroke="black" cx="415.74" cy="-30.8701" rx="63.7712" ry="26.7574"/>
<ellipse fill="none" stroke="black" cx="415.74" cy="-30.8701" rx="67.7795" ry="30.7407"/>
<text text-anchor="middle" x="415.74" y="-34.6701" font-family="Times,serif" font-size="14.00">&lt;waypoint1&gt;</text>
<text text-anchor="middle" x="415.74" y="-19.6701" font-family="Times,serif" font-size="14.00">waypoint</text>
</g>
<!-- n2&#45;&gt;n5 -->
<g id="edge7" class="edge"><title>n2&#45;&gt;n5</title>
<path fill="none" stroke="black" stroke-dasharray="5,2" d="M672.943,-124.194C664.747,-120.227 656.01,-116.192 647.74,-112.74 592.248,-89.58 527.52,-67.404 480.555,-52.1514"/>
<polygon fill="black" stroke="black" points="481.405,-48.7478 470.813,-49.0039 479.253,-55.4088 481.405,-48.7478"/>
<text text-anchor="middle" x="643.74" y="-83.5401" font-family="Times,serif" font-size="14.00"> static(at_lander)</text>
</g>
<!-- n3 -->
<g id="node3" class="node"><title>n3</title>
<ellipse fill="none" stroke="black" cx="167.74" cy="-256.35" rx="56.6326" ry="26.7574"/>
<ellipse fill="none" stroke="black" cx="167.74" cy="-256.35" rx="60.6372" ry="30.7407"/>
<text text-anchor="middle" x="167.74" y="-260.15" font-family="Times,serif" font-size="14.00">&lt;camera1&gt;</text>
<text text-anchor="middle" x="167.74" y="-245.15" font-family="Times,serif" font-size="14.00">camera</text>
</g>
<!-- n3&#45;&gt;n1 -->
<g id="edge4" class="edge"><title>n3&#45;&gt;n1</title>
<path fill="none" stroke="black" stroke-dasharray="5,2" d="M121.062,-236.621C94.9857,-223.451 64.7919,-203.043 49.7401,-174.48 32.9659,-142.649 37.7765,-101.087 45.0926,-71.0515"/>
<polygon fill="black" stroke="black" points="48.4887,-71.8989 47.6422,-61.3379 41.718,-70.1217 48.4887,-71.8989"/>
<text text-anchor="middle" x="93.7401" y="-139.91" font-family="Times,serif" font-size="14.00"> static(supports)</text>
</g>
<!-- n4 -->
<g id="node4" class="node"><title>n4</title>
<ellipse fill="none" stroke="black" cx="218.74" cy="-143.61" rx="67.7712" ry="26.7574"/>
<ellipse fill="none" stroke="black" cx="218.74" cy="-143.61" rx="71.7647" ry="30.7407"/>
<text text-anchor="middle" x="218.74" y="-147.41" font-family="Times,serif" font-size="14.00">&lt;objective12&gt;</text>
<text text-anchor="middle" x="218.74" y="-132.41" font-family="Times,serif" font-size="14.00">objective</text>
</g>
<!-- n3&#45;&gt;n4 -->
<g id="edge11" class="edge"><title>n3&#45;&gt;n4</title>
<path fill="none" stroke="black" stroke-dasharray="5,2" d="M163.555,-225.548C163.223,-214.739 164.286,-202.685 168.74,-192.48 170.933,-187.455 173.933,-182.7 177.382,-178.28"/>
<polygon fill="black" stroke="black" points="180.061,-180.533 183.998,-170.697 174.786,-175.931 180.061,-180.533"/>
<text text-anchor="middle" x="237.24" y="-196.28" font-family="Times,serif" font-size="14.00"> static(calibration_target)</text>
</g>
<!-- n6 -->
<g id="node6" class="node"><title>n6</title>
<ellipse fill="none" stroke="black" cx="385.74" cy="-143.61" rx="48.1667" ry="26.7407"/>
<text text-anchor="middle" x="385.74" y="-147.41" font-family="Times,serif" font-size="14.00">&lt;rover0&gt;</text>
<text text-anchor="middle" x="385.74" y="-132.41" font-family="Times,serif" font-size="14.00">rover</text>
</g>
<!-- n3&#45;&gt;n6 -->
<g id="edge12" class="edge"><title>n3&#45;&gt;n6</title>
<path fill="none" stroke="black" d="M220.934,-241.451C247.327,-233.435 279.162,-222.038 305.74,-207.48 315.176,-202.312 316.286,-199.135 324.74,-192.48 333.077,-185.918 342.062,-178.859 350.506,-172.232"/>
<polygon fill="black" stroke="black" points="352.691,-174.967 358.398,-166.04 348.37,-169.459 352.691,-174.967"/>
<text text-anchor="middle" x="371.24" y="-196.28" font-family="Times,serif" font-size="14.00"> static(on_board)</text>
</g>
<!-- n4&#45;&gt;n1 -->
<g id="edge10" class="edge"><title>n4&#45;&gt;n1</title>
<path fill="none" stroke="black" stroke-dasharray="5,2" d="M164.239,-123.374C153.804,-119.777 142.95,-116.097 132.74,-112.74 107.099,-104.311 93.4706,-114.174 74.7401,-94.7401 68.6492,-88.4206 64.689,-80.153 62.1275,-71.6997"/>
<polygon fill="black" stroke="black" points="65.4831,-70.6863 59.719,-61.7967 58.6814,-72.3406 65.4831,-70.6863"/>
<text text-anchor="middle" x="166.74" y="-83.5401" font-family="Times,serif" font-size="14.00"> end(communicated_image_data)</text>
</g>
<!-- n4&#45;&gt;n5 -->
<g id="edge9" class="edge"><title>n4&#45;&gt;n5</title>
<path fill="none" stroke="black" stroke-dasharray="5,2" d="M242.842,-114.472C254.266,-102.489 268.693,-89.1385 283.74,-79.7401 303.373,-67.4773 326.602,-57.7254 348.059,-50.3089"/>
<polygon fill="black" stroke="black" points="349.397,-53.5522 357.774,-47.065 347.18,-46.9126 349.397,-53.5522"/>
<text text-anchor="middle" x="339.74" y="-83.5401" font-family="Times,serif" font-size="14.00"> static(visible_from)</text>
</g>
<!-- n5&#45;&gt;n5 -->
<g id="edge8" class="edge"><title>n5&#45;&gt;n5</title>
<path fill="none" stroke="black" stroke-dasharray="5,2" d="M479.978,-40.9029C492.493,-39.7378 501.38,-36.3935 501.38,-30.8701 501.38,-26.9864 496.986,-24.1801 490.027,-22.4511"/>
<polygon fill="black" stroke="black" points="490.407,-18.9673 479.978,-20.8373 489.297,-25.8787 490.407,-18.9673"/>
<text text-anchor="middle" x="540.38" y="-27.1701" font-family="Times,serif" font-size="14.00"> static(visible)</text>
</g>
<!-- n6&#45;&gt;n5 -->
<g id="edge5" class="edge"><title>n6&#45;&gt;n5</title>
<path fill="none" stroke="black" stroke-dasharray="5,2" d="M392.698,-116.926C396.327,-103.532 400.846,-86.848 404.919,-71.8131"/>
<polygon fill="black" stroke="black" points="408.415,-72.2958 407.651,-61.7285 401.658,-70.4654 408.415,-72.2958"/>
<text text-anchor="middle" x="423.24" y="-83.5401" font-family="Times,serif" font-size="14.00"> init(at)</text>
</g>
<!-- n6&#45;&gt;n6 -->
<g id="edge2" class="edge"><title>n6&#45;&gt;n6</title>
<path fill="none" stroke="black" d="M430.215,-154.046C442.463,-153.542 451.823,-150.063 451.823,-143.61 451.823,-139.073 447.196,-136.006 440.19,-134.41"/>
<polygon fill="black" stroke="black" points="440.569,-130.93 430.215,-133.174 439.708,-137.877 440.569,-130.93"/>
<text text-anchor="middle" x="545.323" y="-154.91" font-family="Times,serif" font-size="14.00"> static(equipped_for_imaging)</text>
<text text-anchor="middle" x="545.323" y="-139.91" font-family="Times,serif" font-size="14.00">init(available)</text>
<text text-anchor="middle" x="545.323" y="-124.91" font-family="Times,serif" font-size="14.00">static(equipped_for_soil_analysis)</text>
</g>
<!-- n7 -->
<g id="node7" class="node"><title>n7</title>
<ellipse fill="none" stroke="black" cx="443.74" cy="-256.35" rx="67.3507" ry="26.7407"/>
<text text-anchor="middle" x="443.74" y="-260.15" font-family="Times,serif" font-size="14.00">&lt;rover0store&gt;</text>
<text text-anchor="middle" x="443.74" y="-245.15" font-family="Times,serif" font-size="14.00">store</text>
</g>
<!-- n7&#45;&gt;n6 -->
<g id="edge6" class="edge"><title>n7&#45;&gt;n6</title>
<path fill="none" stroke="black" d="M436.677,-229.511C432.995,-217.847 427.953,-204.108 421.74,-192.48 418.915,-187.192 415.536,-181.858 411.996,-176.767"/>
<polygon fill="black" stroke="black" points="414.675,-174.499 405.957,-168.478 409.017,-178.622 414.675,-174.499"/>
<text text-anchor="middle" x="471.74" y="-196.28" font-family="Times,serif" font-size="14.00"> static(store_of)</text>
</g>
<!-- n7&#45;&gt;n7 -->
<g id="edge3" class="edge"><title>n7&#45;&gt;n7</title>
<path fill="none" stroke="black" d="M506.135,-266.511C519.363,-265.479 528.915,-262.092 528.915,-256.35 528.915,-252.178 523.873,-249.249 516.041,-247.564"/>
<polygon fill="black" stroke="black" points="516.521,-244.097 506.135,-246.189 515.559,-251.031 516.521,-244.097"/>
<text text-anchor="middle" x="561.915" y="-252.65" font-family="Times,serif" font-size="14.00"> init(empty)</text>
</g>
</g>
</svg>
