<?xml version="1.0" encoding="UTF-8" standalone="no"?>
<!DOCTYPE svg PUBLIC "-//W3C//DTD SVG 1.1//EN"
 "http://www.w3.org/Graphics/SVG/1.1/DTD/svg11.dtd">
<!-- Generated by graphviz version 2.38.0 (20140413.2041)
 -->
<!-- Title: Struc Pages: 1 -->
<svg width="3720pt" height="376pt"
 viewBox="0.00 0.00 3719.93 375.96" xmlns="http://www.w3.org/2000/svg" xmlns:xlink="http://www.w3.org/1999/xlink">
<g id="graph0" class="graph" transform="scale(1 1) rotate(0) translate(4 371.96)">
<title>Struc</title>
<polygon fill="white" stroke="none" points="-4,4 -4,-371.96 3715.93,-371.96 3715.93,4 -4,4"/>
<!-- n1 -->
<g id="node1" class="node"><title>n1</title>
<ellipse fill="none" stroke="black" cx="2303.93" cy="-341.09" rx="56.6372" ry="26.7407"/>
<text text-anchor="middle" x="2303.93" y="-344.89" font-family="Times,serif" font-size="14.00">&lt;camera0&gt;</text>
<text text-anchor="middle" x="2303.93" y="-329.89" font-family="Times,serif" font-size="14.00">camera</text>
</g>
<!-- n4 -->
<g id="node4" class="node"><title>n4</title>
<ellipse fill="none" stroke="black" cx="2441.93" cy="-236.35" rx="48.1667" ry="26.7407"/>
<text text-anchor="middle" x="2441.93" y="-240.15" font-family="Times,serif" font-size="14.00">&lt;rover0&gt;</text>
<text text-anchor="middle" x="2441.93" y="-225.15" font-family="Times,serif" font-size="14.00">rover</text>
</g>
<!-- n1&#45;&gt;n4 -->
<g id="edge12" class="edge"><title>n1&#45;&gt;n4</title>
<path fill="none" stroke="black" d="M2297.72,-314.187C2296.57,-302.92 2297.58,-290.258 2304.93,-281.22 2327.94,-252.956 2350.38,-274.812 2384.93,-263.22 2388.93,-261.879 2393.03,-260.349 2397.1,-258.72"/>
<polygon fill="black" stroke="black" points="2398.63,-261.872 2406.5,-254.778 2395.93,-255.417 2398.63,-261.872"/>
<text text-anchor="middle" x="2351.43" y="-285.02" font-family="Times,serif" font-size="14.00"> static(on_board)</text>
</g>
<!-- n5 -->
<g id="node5" class="node"><title>n5</title>
<ellipse fill="none" stroke="black" cx="286.933" cy="-131.61" rx="56.6372" ry="26.7407"/>
<text text-anchor="middle" x="286.933" y="-135.41" font-family="Times,serif" font-size="14.00">&lt;high_res&gt;</text>
<text text-anchor="middle" x="286.933" y="-120.41" font-family="Times,serif" font-size="14.00">mode</text>
</g>
<!-- n1&#45;&gt;n5 -->
<g id="edge4" class="edge"><title>n1&#45;&gt;n5</title>
<path fill="none" stroke="black" d="M2247.43,-338.337C1968.49,-329.566 748.702,-289.819 672.933,-263.22 634.58,-249.757 637.195,-223.197 598.933,-209.48 567.707,-198.286 326.329,-212.82 300.933,-191.48 294.037,-185.686 290.19,-177.17 288.123,-168.405"/>
<polygon fill="black" stroke="black" points="291.574,-167.824 286.477,-158.535 284.669,-168.975 291.574,-167.824"/>
<text text-anchor="middle" x="716.933" y="-232.65" font-family="Times,serif" font-size="14.00"> static(supports)</text>
</g>
<!-- n6 -->
<g id="node6" class="node"><title>n6</title>
<ellipse fill="none" stroke="black" cx="3468.93" cy="-236.35" rx="62.8651" ry="26.7407"/>
<text text-anchor="middle" x="3468.93" y="-240.15" font-family="Times,serif" font-size="14.00">&lt;objective7&gt;</text>
<text text-anchor="middle" x="3468.93" y="-225.15" font-family="Times,serif" font-size="14.00">objective</text>
</g>
<!-- n1&#45;&gt;n6 -->
<g id="edge5" class="edge"><title>n1&#45;&gt;n6</title>
<path fill="none" stroke="black" d="M2346.19,-322.874C2362.77,-315.482 2381.68,-306.239 2397.93,-296.22 2407.09,-290.574 2406.8,-284.842 2416.93,-281.22 2519.48,-244.56 3289.82,-282.895 3396.93,-263.22 3403.02,-262.102 3409.28,-260.534 3415.44,-258.717"/>
<polygon fill="black" stroke="black" points="3416.53,-262.042 3425.01,-255.685 3414.42,-255.369 3416.53,-262.042"/>
<text text-anchor="middle" x="2485.43" y="-285.02" font-family="Times,serif" font-size="14.00"> static(calibration_target)</text>
</g>
<!-- n2 -->
<g id="node2" class="node"><title>n2</title>
<ellipse fill="none" stroke="black" cx="2764.93" cy="-236.35" rx="51.7379" ry="26.7407"/>
<text text-anchor="middle" x="2764.93" y="-240.15" font-family="Times,serif" font-size="14.00">&lt;general&gt;</text>
<text text-anchor="middle" x="2764.93" y="-225.15" font-family="Times,serif" font-size="14.00">lander</text>
</g>
<!-- n2&#45;&gt;n2 -->
<g id="edge1" class="edge"><title>n2&#45;&gt;n2</title>
<path fill="none" stroke="black" d="M2813.41,-245.966C2825.51,-245.294 2834.55,-242.089 2834.55,-236.35 2834.55,-232.405 2830.28,-229.657 2823.67,-228.107"/>
<polygon fill="black" stroke="black" points="2823.79,-224.59 2813.41,-226.734 2822.86,-231.529 2823.79,-224.59"/>
<text text-anchor="middle" x="2885.05" y="-232.65" font-family="Times,serif" font-size="14.00"> init(channel_free)</text>
</g>
<!-- n8 -->
<g id="node8" class="node"><title>n8</title>
<ellipse fill="none" stroke="black" cx="2023.93" cy="-131.61" rx="63.7795" ry="26.7407"/>
<text text-anchor="middle" x="2023.93" y="-135.41" font-family="Times,serif" font-size="14.00">&lt;waypoint0&gt;</text>
<text text-anchor="middle" x="2023.93" y="-120.41" font-family="Times,serif" font-size="14.00">waypoint</text>
</g>
<!-- n2&#45;&gt;n8 -->
<g id="edge11" class="edge"><title>n2&#45;&gt;n8</title>
<path fill="none" stroke="black" d="M2727.81,-217.491C2720.07,-214.371 2711.85,-211.487 2703.93,-209.48 2622.57,-188.854 2598.57,-206.209 2515.93,-191.48 2490.14,-186.884 2484.71,-181.142 2458.93,-176.48 2332.84,-153.676 2183.88,-141.871 2097.05,-136.474"/>
<polygon fill="black" stroke="black" points="2097.23,-132.979 2087.04,-135.863 2096.8,-139.966 2097.23,-132.979"/>
<text text-anchor="middle" x="2561.93" y="-180.28" font-family="Times,serif" font-size="14.00"> static(at_lander)</text>
</g>
<!-- n3 -->
<g id="node3" class="node"><title>n3</title>
<ellipse fill="none" stroke="black" cx="62.9325" cy="-236.35" rx="62.8651" ry="26.7407"/>
<text text-anchor="middle" x="62.9325" y="-240.15" font-family="Times,serif" font-size="14.00">&lt;objective1&gt;</text>
<text text-anchor="middle" x="62.9325" y="-225.15" font-family="Times,serif" font-size="14.00">objective</text>
</g>
<!-- n3&#45;&gt;n5 -->
<g id="edge15" class="edge"><title>n3&#45;&gt;n5</title>
<path fill="none" stroke="black" d="M56.6115,-209.354C55.438,-198.069 56.4543,-185.417 63.9325,-176.48 66.5576,-173.343 159.406,-155.853 224.454,-143.927"/>
<polygon fill="black" stroke="black" points="225.431,-147.306 234.638,-142.064 224.171,-140.421 225.431,-147.306"/>
<text text-anchor="middle" x="156.933" y="-180.28" font-family="Times,serif" font-size="14.00"> end(communicated_image_data)</text>
</g>
<!-- n3&#45;&gt;n8 -->
<g id="edge26" class="edge"><title>n3&#45;&gt;n8</title>
<path fill="none" stroke="black" d="M117.407,-222.823C155.398,-214.073 207.264,-202.104 252.933,-191.48 281.388,-184.861 287.943,-180.102 316.933,-176.48 533.067,-149.477 1079.2,-164.353 1296.93,-158.48 1536.01,-152.031 1819.2,-140.967 1950.41,-135.645"/>
<polygon fill="black" stroke="black" points="1950.89,-139.128 1960.74,-135.225 1950.6,-132.134 1950.89,-139.128"/>
<text text-anchor="middle" x="372.933" y="-180.28" font-family="Times,serif" font-size="14.00"> static(visible_from)</text>
</g>
<!-- n19 -->
<g id="node19" class="node"><title>n19</title>
<ellipse fill="none" stroke="black" cx="2022.93" cy="-26.8701" rx="63.7795" ry="26.7407"/>
<text text-anchor="middle" x="2022.93" y="-30.6701" font-family="Times,serif" font-size="14.00">&lt;waypoint1&gt;</text>
<text text-anchor="middle" x="2022.93" y="-15.6701" font-family="Times,serif" font-size="14.00">waypoint</text>
</g>
<!-- n3&#45;&gt;n19 -->
<g id="edge33" class="edge"><title>n3&#45;&gt;n19</title>
<path fill="none" stroke="black" d="M53.7897,-209.676C51.3867,-199.185 50.3454,-187.055 53.9325,-176.48 66.8388,-138.433 73.2671,-123.237 108.933,-104.74 191.977,-61.672 1608.03,-34.9222 1949.35,-29.0815"/>
<polygon fill="black" stroke="black" points="1949.43,-32.5807 1959.37,-28.9107 1949.32,-25.5817 1949.43,-32.5807"/>
<text text-anchor="middle" x="164.933" y="-127.91" font-family="Times,serif" font-size="14.00"> static(visible_from)</text>
</g>
<!-- n4&#45;&gt;n4 -->
<g id="edge2" class="edge"><title>n4&#45;&gt;n4</title>
<path fill="none" stroke="black" d="M2487.03,-246.015C2498.97,-245.462 2508.02,-242.241 2508.02,-236.35 2508.02,-232.3 2503.74,-229.512 2497.19,-227.986"/>
<polygon fill="black" stroke="black" points="2497.39,-224.483 2487.03,-226.686 2496.5,-231.427 2497.39,-224.483"/>
<text text-anchor="middle" x="2601.52" y="-247.65" font-family="Times,serif" font-size="14.00"> static(equipped_for_imaging)</text>
<text text-anchor="middle" x="2601.52" y="-232.65" font-family="Times,serif" font-size="14.00">init(available)</text>
<text text-anchor="middle" x="2601.52" y="-217.65" font-family="Times,serif" font-size="14.00">static(equipped_for_soil_analysis)</text>
</g>
<!-- n4&#45;&gt;n8 -->
<g id="edge37" class="edge"><title>n4&#45;&gt;n8</title>
<path fill="none" stroke="black" d="M2428.65,-210.225C2420.82,-197.973 2409.72,-184.239 2395.93,-176.48 2346.42,-148.628 2191.25,-138.359 2097.68,-134.646"/>
<polygon fill="black" stroke="black" points="2097.55,-131.139 2087.42,-134.256 2097.28,-138.134 2097.55,-131.139"/>
<text text-anchor="middle" x="2434.43" y="-180.28" font-family="Times,serif" font-size="14.00"> init(at)</text>
</g>
<!-- n6&#45;&gt;n8 -->
<g id="edge29" class="edge"><title>n6&#45;&gt;n8</title>
<path fill="none" stroke="black" d="M3424.14,-217.24C3415.24,-214.221 3405.89,-211.439 3396.93,-209.48 3229.59,-172.879 3183.87,-187.611 3012.93,-176.48 2671.2,-154.227 2262.3,-140.038 2097.81,-134.841"/>
<polygon fill="black" stroke="black" points="2097.44,-131.328 2087.33,-134.512 2097.22,-138.324 2097.44,-131.328"/>
<text text-anchor="middle" x="3350.93" y="-180.28" font-family="Times,serif" font-size="14.00"> static(visible_from)</text>
</g>
<!-- n6&#45;&gt;n19 -->
<g id="edge20" class="edge"><title>n6&#45;&gt;n19</title>
<path fill="none" stroke="black" d="M3463.34,-209.447C3455.32,-179.031 3437.42,-129.588 3401.93,-104.74 3305.43,-37.1739 3256.34,-81.396 3138.93,-71.7401 2747,-39.5074 2275.63,-30.812 2096.68,-28.5902"/>
<polygon fill="black" stroke="black" points="2096.63,-25.0894 2086.59,-28.468 2096.55,-32.0889 2096.63,-25.0894"/>
<text text-anchor="middle" x="3500.93" y="-127.91" font-family="Times,serif" font-size="14.00"> static(visible_from)</text>
</g>
<!-- n7 -->
<g id="node7" class="node"><title>n7</title>
<ellipse fill="none" stroke="black" cx="3021.93" cy="-236.35" rx="67.7647" ry="26.7407"/>
<text text-anchor="middle" x="3021.93" y="-240.15" font-family="Times,serif" font-size="14.00">&lt;objective15&gt;</text>
<text text-anchor="middle" x="3021.93" y="-225.15" font-family="Times,serif" font-size="14.00">objective</text>
</g>
<!-- n7&#45;&gt;n8 -->
<g id="edge23" class="edge"><title>n7&#45;&gt;n8</title>
<path fill="none" stroke="black" d="M2973.99,-217.058C2964.48,-214.054 2954.49,-211.325 2944.93,-209.48 2876.31,-196.233 2697.33,-213.306 2630.93,-191.48 2619.34,-187.669 2619.49,-180.394 2607.93,-176.48 2515.48,-145.18 2233.21,-136.153 2097.85,-133.596"/>
<polygon fill="black" stroke="black" points="2097.64,-130.092 2087.58,-133.409 2097.51,-137.091 2097.64,-130.092"/>
<text text-anchor="middle" x="2686.93" y="-180.28" font-family="Times,serif" font-size="14.00"> static(visible_from)</text>
</g>
<!-- n8&#45;&gt;n19 -->
<g id="edge28" class="edge"><title>n8&#45;&gt;n19</title>
<path fill="none" stroke="black" d="M1990.68,-108.613C1983.9,-102.409 1977.7,-95.0504 1973.93,-86.7401 1969.09,-76.0466 1973.41,-65.7275 1981.16,-56.7963"/>
<polygon fill="black" stroke="black" points="1983.73,-59.1789 1988.34,-49.6428 1978.79,-54.2186 1983.73,-59.1789"/>
<text text-anchor="middle" x="2012.93" y="-75.5401" font-family="Times,serif" font-size="14.00"> static(visible)</text>
</g>
<!-- n9 -->
<g id="node9" class="node"><title>n9</title>
<ellipse fill="none" stroke="black" cx="1279.93" cy="-236.35" rx="67.7647" ry="26.7407"/>
<text text-anchor="middle" x="1279.93" y="-240.15" font-family="Times,serif" font-size="14.00">&lt;objective14&gt;</text>
<text text-anchor="middle" x="1279.93" y="-225.15" font-family="Times,serif" font-size="14.00">objective</text>
</g>
<!-- n9&#45;&gt;n8 -->
<g id="edge14" class="edge"><title>n9&#45;&gt;n8</title>
<path fill="none" stroke="black" d="M1304.71,-210.992C1319.26,-198.312 1338.71,-183.934 1358.93,-176.48 1465.59,-137.168 1800.27,-132.358 1950.11,-132.247"/>
<polygon fill="black" stroke="black" points="1950.15,-135.747 1960.15,-132.246 1950.14,-128.747 1950.15,-135.747"/>
<text text-anchor="middle" x="1414.93" y="-180.28" font-family="Times,serif" font-size="14.00"> static(visible_from)</text>
</g>
<!-- n10 -->
<g id="node10" class="node"><title>n10</title>
<ellipse fill="none" stroke="black" cx="1572.93" cy="-236.35" rx="62.8651" ry="26.7407"/>
<text text-anchor="middle" x="1572.93" y="-240.15" font-family="Times,serif" font-size="14.00">&lt;objective2&gt;</text>
<text text-anchor="middle" x="1572.93" y="-225.15" font-family="Times,serif" font-size="14.00">objective</text>
</g>
<!-- n10&#45;&gt;n8 -->
<g id="edge18" class="edge"><title>n10&#45;&gt;n8</title>
<path fill="none" stroke="black" d="M1593.62,-210.741C1605.53,-198.315 1621.56,-184.259 1638.93,-176.48 1692.99,-152.28 1854.83,-140.616 1950.61,-135.692"/>
<polygon fill="black" stroke="black" points="1950.99,-139.177 1960.8,-135.18 1950.64,-132.185 1950.99,-139.177"/>
<text text-anchor="middle" x="1694.93" y="-180.28" font-family="Times,serif" font-size="14.00"> static(visible_from)</text>
</g>
<!-- n11 -->
<g id="node11" class="node"><title>n11</title>
<ellipse fill="none" stroke="black" cx="532.933" cy="-341.09" rx="56.6372" ry="26.7407"/>
<text text-anchor="middle" x="532.933" y="-344.89" font-family="Times,serif" font-size="14.00">&lt;camera1&gt;</text>
<text text-anchor="middle" x="532.933" y="-329.89" font-family="Times,serif" font-size="14.00">camera</text>
</g>
<!-- n11&#45;&gt;n4 -->
<g id="edge32" class="edge"><title>n11&#45;&gt;n4</title>
<path fill="none" stroke="black" d="M589.359,-338.357C890.242,-329.037 2295.52,-284.512 2384.93,-263.22 2389.33,-262.172 2393.81,-260.781 2398.22,-259.186"/>
<polygon fill="black" stroke="black" points="2399.71,-262.361 2407.72,-255.423 2397.13,-255.853 2399.71,-262.361"/>
<text text-anchor="middle" x="2162.43" y="-285.02" font-family="Times,serif" font-size="14.00"> static(on_board)</text>
</g>
<!-- n11&#45;&gt;n5 -->
<g id="edge43" class="edge"><title>n11&#45;&gt;n5</title>
<path fill="none" stroke="black" d="M479.491,-332.044C410.395,-320.423 295.935,-296.612 270.933,-263.22 250.478,-235.902 259.344,-195.991 270.276,-167.487"/>
<polygon fill="black" stroke="black" points="273.643,-168.5 274.184,-157.919 267.163,-165.853 273.643,-168.5"/>
<text text-anchor="middle" x="314.933" y="-232.65" font-family="Times,serif" font-size="14.00"> static(supports)</text>
</g>
<!-- n14 -->
<g id="node14" class="node"><title>n14</title>
<ellipse fill="none" stroke="black" cx="1428.93" cy="-236.35" rx="62.8651" ry="26.7407"/>
<text text-anchor="middle" x="1428.93" y="-240.15" font-family="Times,serif" font-size="14.00">&lt;objective8&gt;</text>
<text text-anchor="middle" x="1428.93" y="-225.15" font-family="Times,serif" font-size="14.00">objective</text>
</g>
<!-- n11&#45;&gt;n14 -->
<g id="edge7" class="edge"><title>n11&#45;&gt;n14</title>
<path fill="none" stroke="black" d="M589.64,-339.688C724.378,-337.679 1073.64,-326.268 1356.93,-263.22 1362.66,-261.945 1368.56,-260.339 1374.4,-258.554"/>
<polygon fill="black" stroke="black" points="1375.69,-261.816 1384.12,-255.408 1373.53,-255.155 1375.69,-261.816"/>
<text text-anchor="middle" x="1315.43" y="-285.02" font-family="Times,serif" font-size="14.00"> static(calibration_target)</text>
</g>
<!-- n17 -->
<g id="node17" class="node"><title>n17</title>
<ellipse fill="none" stroke="black" cx="541.933" cy="-236.35" rx="48.1667" ry="26.7407"/>
<text text-anchor="middle" x="541.933" y="-240.15" font-family="Times,serif" font-size="14.00">&lt;colour&gt;</text>
<text text-anchor="middle" x="541.933" y="-225.15" font-family="Times,serif" font-size="14.00">mode</text>
</g>
<!-- n11&#45;&gt;n17 -->
<g id="edge41" class="edge"><title>n11&#45;&gt;n17</title>
<path fill="none" stroke="black" d="M532.462,-313.955C532.517,-303.724 532.875,-291.901 533.933,-281.22 534.186,-278.659 534.509,-276.022 534.878,-273.374"/>
<polygon fill="black" stroke="black" points="538.377,-273.658 536.489,-263.232 531.464,-272.56 538.377,-273.658"/>
<text text-anchor="middle" x="577.933" y="-285.02" font-family="Times,serif" font-size="14.00"> static(supports)</text>
</g>
<!-- n23 -->
<g id="node23" class="node"><title>n23</title>
<ellipse fill="none" stroke="black" cx="421.933" cy="-236.35" rx="53.9813" ry="26.7407"/>
<text text-anchor="middle" x="421.933" y="-240.15" font-family="Times,serif" font-size="14.00">&lt;low_res&gt;</text>
<text text-anchor="middle" x="421.933" y="-225.15" font-family="Times,serif" font-size="14.00">mode</text>
</g>
<!-- n11&#45;&gt;n23 -->
<g id="edge35" class="edge"><title>n11&#45;&gt;n23</title>
<path fill="none" stroke="black" d="M485.54,-326.108C469.507,-319.334 452.704,-309.668 440.933,-296.22 435.187,-289.657 431.175,-281.333 428.375,-273.025"/>
<polygon fill="black" stroke="black" points="431.732,-272.036 425.613,-263.388 425.003,-273.965 431.732,-272.036"/>
<text text-anchor="middle" x="484.933" y="-285.02" font-family="Times,serif" font-size="14.00"> static(supports)</text>
</g>
<!-- n12 -->
<g id="node12" class="node"><title>n12</title>
<ellipse fill="none" stroke="black" cx="1716.93" cy="-236.35" rx="62.8651" ry="26.7407"/>
<text text-anchor="middle" x="1716.93" y="-240.15" font-family="Times,serif" font-size="14.00">&lt;objective4&gt;</text>
<text text-anchor="middle" x="1716.93" y="-225.15" font-family="Times,serif" font-size="14.00">objective</text>
</g>
<!-- n12&#45;&gt;n8 -->
<g id="edge40" class="edge"><title>n12&#45;&gt;n8</title>
<path fill="none" stroke="black" d="M1734.83,-210.531C1744.94,-198.363 1758.6,-184.612 1773.93,-176.48 1828.5,-147.543 1898.25,-137.142 1950.2,-133.654"/>
<polygon fill="black" stroke="black" points="1950.58,-137.138 1960.35,-133.045 1950.16,-130.15 1950.58,-137.138"/>
<text text-anchor="middle" x="1829.93" y="-180.28" font-family="Times,serif" font-size="14.00"> static(visible_from)</text>
</g>
<!-- n13 -->
<g id="node13" class="node"><title>n13</title>
<ellipse fill="none" stroke="black" cx="832.933" cy="-236.35" rx="62.8651" ry="26.7407"/>
<text text-anchor="middle" x="832.933" y="-240.15" font-family="Times,serif" font-size="14.00">&lt;objective0&gt;</text>
<text text-anchor="middle" x="832.933" y="-225.15" font-family="Times,serif" font-size="14.00">objective</text>
</g>
<!-- n13&#45;&gt;n5 -->
<g id="edge8" class="edge"><title>n13&#45;&gt;n5</title>
<path fill="none" stroke="black" d="M783.025,-219.881C768.311,-215.871 752.09,-211.982 736.933,-209.48 613.459,-189.098 574.688,-230.958 455.933,-191.48 444.352,-187.63 444,-181.622 432.933,-176.48 405.676,-163.818 373.873,-153.757 346.921,-146.481"/>
<polygon fill="black" stroke="black" points="347.789,-143.091 337.228,-143.927 346.006,-149.86 347.789,-143.091"/>
<text text-anchor="middle" x="547.933" y="-180.28" font-family="Times,serif" font-size="14.00"> end(communicated_image_data)</text>
</g>
<!-- n13&#45;&gt;n8 -->
<g id="edge21" class="edge"><title>n13&#45;&gt;n8</title>
<path fill="none" stroke="black" d="M861.107,-211.977C878.605,-198.938 902.216,-183.872 925.933,-176.48 938.186,-172.661 1706.33,-144.241 1950.37,-135.297"/>
<polygon fill="black" stroke="black" points="1950.69,-138.787 1960.56,-134.923 1950.43,-131.792 1950.69,-138.787"/>
<text text-anchor="middle" x="984.933" y="-180.28" font-family="Times,serif" font-size="14.00"> static(visible_from)</text>
</g>
<!-- n13&#45;&gt;n19 -->
<g id="edge22" class="edge"><title>n13&#45;&gt;n19</title>
<path fill="none" stroke="black" d="M844.328,-209.805C859.414,-179.259 889.08,-129.201 930.933,-104.74 1018.4,-53.6208 1717.71,-34.3295 1948.98,-29.3098"/>
<polygon fill="black" stroke="black" points="1949.38,-32.802 1959.3,-29.0884 1949.23,-25.8036 1949.38,-32.802"/>
<text text-anchor="middle" x="986.933" y="-127.91" font-family="Times,serif" font-size="14.00"> static(visible_from)</text>
</g>
<!-- n14&#45;&gt;n8 -->
<g id="edge39" class="edge"><title>n14&#45;&gt;n8</title>
<path fill="none" stroke="black" d="M1451.19,-211.13C1464.34,-198.493 1482.07,-184.112 1500.93,-176.48 1580.42,-144.314 1825.71,-135.732 1950.05,-133.443"/>
<polygon fill="black" stroke="black" points="1950.31,-136.939 1960.25,-133.264 1950.19,-129.94 1950.31,-136.939"/>
<text text-anchor="middle" x="1556.93" y="-180.28" font-family="Times,serif" font-size="14.00"> static(visible_from)</text>
</g>
<!-- n15 -->
<g id="node15" class="node"><title>n15</title>
<ellipse fill="none" stroke="black" cx="2579.93" cy="-341.09" rx="67.3507" ry="26.7407"/>
<text text-anchor="middle" x="2579.93" y="-344.89" font-family="Times,serif" font-size="14.00">&lt;rover0store&gt;</text>
<text text-anchor="middle" x="2579.93" y="-329.89" font-family="Times,serif" font-size="14.00">store</text>
</g>
<!-- n15&#45;&gt;n4 -->
<g id="edge27" class="edge"><title>n15&#45;&gt;n4</title>
<path fill="none" stroke="black" d="M2575.32,-314.277C2572.13,-302.893 2566.79,-290.11 2557.93,-281.22 2541.67,-264.891 2518.72,-254.547 2497.53,-248.038"/>
<polygon fill="black" stroke="black" points="2498.2,-244.59 2487.62,-245.226 2496.29,-251.324 2498.2,-244.59"/>
<text text-anchor="middle" x="2610.93" y="-285.02" font-family="Times,serif" font-size="14.00"> static(store_of)</text>
</g>
<!-- n15&#45;&gt;n15 -->
<g id="edge3" class="edge"><title>n15&#45;&gt;n15</title>
<path fill="none" stroke="black" d="M2643.08,-350.468C2655.92,-349.447 2665.11,-346.321 2665.11,-341.09 2665.11,-337.413 2660.56,-334.775 2653.4,-333.179"/>
<polygon fill="black" stroke="black" points="2653.47,-329.653 2643.08,-331.712 2652.49,-336.584 2653.47,-329.653"/>
<text text-anchor="middle" x="2698.11" y="-337.39" font-family="Times,serif" font-size="14.00"> init(empty)</text>
</g>
<!-- n16 -->
<g id="node16" class="node"><title>n16</title>
<ellipse fill="none" stroke="black" cx="1865.93" cy="-236.35" rx="67.7647" ry="26.7407"/>
<text text-anchor="middle" x="1865.93" y="-240.15" font-family="Times,serif" font-size="14.00">&lt;objective13&gt;</text>
<text text-anchor="middle" x="1865.93" y="-225.15" font-family="Times,serif" font-size="14.00">objective</text>
</g>
<!-- n16&#45;&gt;n8 -->
<g id="edge44" class="edge"><title>n16&#45;&gt;n8</title>
<path fill="none" stroke="black" d="M1877.25,-209.676C1883.41,-198.183 1892.03,-185.272 1902.93,-176.48 1918.93,-163.579 1939.04,-154.286 1958.26,-147.673"/>
<polygon fill="black" stroke="black" points="1959.46,-150.961 1967.9,-144.546 1957.3,-144.303 1959.46,-150.961"/>
<text text-anchor="middle" x="1958.93" y="-180.28" font-family="Times,serif" font-size="14.00"> static(visible_from)</text>
</g>
<!-- n18 -->
<g id="node18" class="node"><title>n18</title>
<ellipse fill="none" stroke="black" cx="2014.93" cy="-236.35" rx="62.8651" ry="26.7407"/>
<text text-anchor="middle" x="2014.93" y="-240.15" font-family="Times,serif" font-size="14.00">&lt;objective9&gt;</text>
<text text-anchor="middle" x="2014.93" y="-225.15" font-family="Times,serif" font-size="14.00">objective</text>
</g>
<!-- n18&#45;&gt;n8 -->
<g id="edge9" class="edge"><title>n18&#45;&gt;n8</title>
<path fill="none" stroke="black" d="M2017.2,-209.425C2018.28,-197.135 2019.58,-182.247 2020.76,-168.862"/>
<polygon fill="black" stroke="black" points="2024.28,-168.795 2021.66,-158.528 2017.3,-168.184 2024.28,-168.795"/>
<text text-anchor="middle" x="2076.93" y="-180.28" font-family="Times,serif" font-size="14.00"> static(visible_from)</text>
</g>
<!-- n19&#45;&gt;n8 -->
<g id="edge38" class="edge"><title>n19&#45;&gt;n8</title>
<path fill="none" stroke="black" d="M2042.82,-52.5809C2046.57,-58.5291 2049.93,-65.0951 2051.93,-71.7401 2054.46,-80.1534 2052.88,-88.8773 2049.45,-96.9498"/>
<polygon fill="black" stroke="black" points="2046.22,-95.582 2044.72,-106.069 2052.43,-98.8097 2046.22,-95.582"/>
<text text-anchor="middle" x="2092.93" y="-75.5401" font-family="Times,serif" font-size="14.00"> static(visible)</text>
</g>
<!-- n20 -->
<g id="node20" class="node"><title>n20</title>
<ellipse fill="none" stroke="black" cx="976.933" cy="-236.35" rx="62.8651" ry="26.7407"/>
<text text-anchor="middle" x="976.933" y="-240.15" font-family="Times,serif" font-size="14.00">&lt;objective3&gt;</text>
<text text-anchor="middle" x="976.933" y="-225.15" font-family="Times,serif" font-size="14.00">objective</text>
</g>
<!-- n20&#45;&gt;n5 -->
<g id="edge34" class="edge"><title>n20&#45;&gt;n5</title>
<path fill="none" stroke="black" d="M932.141,-217.219C923.247,-214.201 913.889,-211.425 904.933,-209.48 810.361,-188.942 782.915,-210.025 687.933,-191.48 665.996,-187.197 661.777,-181.211 639.933,-176.48 541.128,-155.083 424.344,-143.113 352.976,-137.262"/>
<polygon fill="black" stroke="black" points="353.031,-133.755 342.783,-136.443 352.47,-140.733 353.031,-133.755"/>
<text text-anchor="middle" x="779.933" y="-180.28" font-family="Times,serif" font-size="14.00"> end(communicated_image_data)</text>
</g>
<!-- n20&#45;&gt;n8 -->
<g id="edge42" class="edge"><title>n20&#45;&gt;n8</title>
<path fill="none" stroke="black" d="M1006.65,-212.632C1025.65,-199.478 1051.44,-184.064 1076.93,-176.48 1118.55,-164.099 1735.15,-142.317 1950.43,-135.048"/>
<polygon fill="black" stroke="black" points="1950.8,-138.538 1960.68,-134.703 1950.56,-131.542 1950.8,-138.538"/>
<text text-anchor="middle" x="1132.93" y="-180.28" font-family="Times,serif" font-size="14.00"> static(visible_from)</text>
</g>
<!-- n20&#45;&gt;n19 -->
<g id="edge16" class="edge"><title>n20&#45;&gt;n19</title>
<path fill="none" stroke="black" d="M996.021,-210.485C1021.54,-179.389 1070,-127.48 1124.93,-104.74 1273.46,-43.2582 1762.05,-30.9499 1949.14,-28.4864"/>
<polygon fill="black" stroke="black" points="1949.21,-31.986 1959.16,-28.3601 1949.12,-24.9865 1949.21,-31.986"/>
<text text-anchor="middle" x="1180.93" y="-127.91" font-family="Times,serif" font-size="14.00"> static(visible_from)</text>
</g>
<!-- n21 -->
<g id="node21" class="node"><title>n21</title>
<ellipse fill="none" stroke="black" cx="2158.93" cy="-236.35" rx="62.8651" ry="26.7407"/>
<text text-anchor="middle" x="2158.93" y="-240.15" font-family="Times,serif" font-size="14.00">&lt;objective5&gt;</text>
<text text-anchor="middle" x="2158.93" y="-225.15" font-family="Times,serif" font-size="14.00">objective</text>
</g>
<!-- n21&#45;&gt;n8 -->
<g id="edge24" class="edge"><title>n21&#45;&gt;n8</title>
<path fill="none" stroke="black" d="M2154.2,-209.275C2150.99,-197.973 2145.67,-185.331 2136.93,-176.48 2124.02,-163.403 2106.77,-154.143 2089.64,-147.617"/>
<polygon fill="black" stroke="black" points="2090.76,-144.301 2080.16,-144.266 2088.42,-150.9 2090.76,-144.301"/>
<text text-anchor="middle" x="2202.93" y="-180.28" font-family="Times,serif" font-size="14.00"> static(visible_from)</text>
</g>
<!-- n22 -->
<g id="node22" class="node"><title>n22</title>
<ellipse fill="none" stroke="black" cx="1125.93" cy="-236.35" rx="67.7647" ry="26.7407"/>
<text text-anchor="middle" x="1125.93" y="-240.15" font-family="Times,serif" font-size="14.00">&lt;objective16&gt;</text>
<text text-anchor="middle" x="1125.93" y="-225.15" font-family="Times,serif" font-size="14.00">objective</text>
</g>
<!-- n22&#45;&gt;n8 -->
<g id="edge6" class="edge"><title>n22&#45;&gt;n8</title>
<path fill="none" stroke="black" d="M1159.65,-212.902C1184.5,-196.383 1214.12,-176.749 1214.93,-176.48 1283.58,-153.786 1763.83,-139.246 1950.23,-134.402"/>
<polygon fill="black" stroke="black" points="1950.57,-137.895 1960.48,-134.138 1950.39,-130.897 1950.57,-137.895"/>
<text text-anchor="middle" x="1270.93" y="-180.28" font-family="Times,serif" font-size="14.00"> static(visible_from)</text>
</g>
<!-- n22&#45;&gt;n19 -->
<g id="edge31" class="edge"><title>n22&#45;&gt;n19</title>
<path fill="none" stroke="black" d="M1148.28,-210.899C1160.81,-198.678 1177.43,-184.764 1194.93,-176.48 1452.77,-54.4746 1799.14,-32.1323 1948.87,-28.3958"/>
<polygon fill="black" stroke="black" points="1949.39,-31.8849 1959.31,-28.1578 1949.23,-24.8867 1949.39,-31.8849"/>
<text text-anchor="middle" x="1442.93" y="-127.91" font-family="Times,serif" font-size="14.00"> static(visible_from)</text>
</g>
<!-- n24 -->
<g id="node24" class="node"><title>n24</title>
<ellipse fill="none" stroke="black" cx="3170.93" cy="-236.35" rx="62.8651" ry="26.7407"/>
<text text-anchor="middle" x="3170.93" y="-240.15" font-family="Times,serif" font-size="14.00">&lt;objective6&gt;</text>
<text text-anchor="middle" x="3170.93" y="-225.15" font-family="Times,serif" font-size="14.00">objective</text>
</g>
<!-- n24&#45;&gt;n8 -->
<g id="edge25" class="edge"><title>n24&#45;&gt;n8</title>
<path fill="none" stroke="black" d="M3126.57,-217.143C3117.56,-214.092 3108.05,-211.323 3098.93,-209.48 3026.29,-194.796 2836.37,-214.507 2765.93,-191.48 2754.33,-187.688 2754.52,-180.313 2742.93,-176.48 2624.86,-137.429 2256.29,-132.577 2097.7,-132.355"/>
<polygon fill="black" stroke="black" points="2097.57,-128.855 2087.57,-132.347 2097.56,-135.855 2097.57,-128.855"/>
<text text-anchor="middle" x="2821.93" y="-180.28" font-family="Times,serif" font-size="14.00"> static(visible_from)</text>
</g>
<!-- n24&#45;&gt;n19 -->
<g id="edge19" class="edge"><title>n24&#45;&gt;n19</title>
<path fill="none" stroke="black" d="M3166.97,-209.437C3163.81,-197.6 3158.12,-184.468 3147.93,-176.48 2983.67,-47.7152 2320.63,-30.2967 2097,-28.1171"/>
<polygon fill="black" stroke="black" points="2096.72,-24.6145 2086.69,-28.0244 2096.66,-31.6142 2096.72,-24.6145"/>
<text text-anchor="middle" x="3173.93" y="-127.91" font-family="Times,serif" font-size="14.00"> static(visible_from)</text>
</g>
<!-- n25 -->
<g id="node25" class="node"><title>n25</title>
<ellipse fill="none" stroke="black" cx="2307.93" cy="-236.35" rx="67.7647" ry="26.7407"/>
<text text-anchor="middle" x="2307.93" y="-240.15" font-family="Times,serif" font-size="14.00">&lt;objective11&gt;</text>
<text text-anchor="middle" x="2307.93" y="-225.15" font-family="Times,serif" font-size="14.00">objective</text>
</g>
<!-- n25&#45;&gt;n8 -->
<g id="edge13" class="edge"><title>n25&#45;&gt;n8</title>
<path fill="none" stroke="black" d="M2294.47,-209.989C2286.8,-197.987 2276.09,-184.547 2262.93,-176.48 2235.43,-159.627 2155.52,-147.255 2095.62,-140.024"/>
<polygon fill="black" stroke="black" points="2095.78,-136.519 2085.44,-138.821 2094.96,-143.471 2095.78,-136.519"/>
<text text-anchor="middle" x="2335.93" y="-180.28" font-family="Times,serif" font-size="14.00"> static(visible_from)</text>
</g>
<!-- n26 -->
<g id="node26" class="node"><title>n26</title>
<ellipse fill="none" stroke="black" cx="3319.93" cy="-236.35" rx="67.7647" ry="26.7407"/>
<text text-anchor="middle" x="3319.93" y="-240.15" font-family="Times,serif" font-size="14.00">&lt;objective10&gt;</text>
<text text-anchor="middle" x="3319.93" y="-225.15" font-family="Times,serif" font-size="14.00">objective</text>
</g>
<!-- n26&#45;&gt;n8 -->
<g id="edge10" class="edge"><title>n26&#45;&gt;n8</title>
<path fill="none" stroke="black" d="M3272.41,-217.152C3262.78,-214.1 3252.63,-211.329 3242.93,-209.48 3168.17,-195.23 2973.29,-215.076 2900.93,-191.48 2889.33,-187.696 2889.54,-180.257 2877.93,-176.48 2804.86,-152.701 2291.37,-138.69 2097.66,-134.201"/>
<polygon fill="black" stroke="black" points="2097.65,-130.7 2087.57,-133.969 2097.49,-137.698 2097.65,-130.7"/>
<text text-anchor="middle" x="2956.93" y="-180.28" font-family="Times,serif" font-size="14.00"> static(visible_from)</text>
</g>
<!-- n26&#45;&gt;n19 -->
<g id="edge36" class="edge"><title>n26&#45;&gt;n19</title>
<path fill="none" stroke="black" d="M3310.98,-209.567C3298.8,-178.782 3273.83,-128.481 3233.93,-104.74 3136.39,-46.6929 2344.72,-31.9003 2096.85,-28.6739"/>
<polygon fill="black" stroke="black" points="2096.55,-25.1699 2086.51,-28.5419 2096.46,-32.1694 2096.55,-25.1699"/>
<text text-anchor="middle" x="3341.93" y="-127.91" font-family="Times,serif" font-size="14.00"> static(visible_from)</text>
</g>
<!-- n27 -->
<g id="node27" class="node"><title>n27</title>
<ellipse fill="none" stroke="black" cx="3617.93" cy="-236.35" rx="67.7647" ry="26.7407"/>
<text text-anchor="middle" x="3617.93" y="-240.15" font-family="Times,serif" font-size="14.00">&lt;objective12&gt;</text>
<text text-anchor="middle" x="3617.93" y="-225.15" font-family="Times,serif" font-size="14.00">objective</text>
</g>
<!-- n27&#45;&gt;n8 -->
<g id="edge30" class="edge"><title>n27&#45;&gt;n8</title>
<path fill="none" stroke="black" d="M3569.4,-217.455C3527.96,-203.173 3466.43,-184.307 3410.93,-176.48 3280.88,-158.138 2365.94,-139.212 2097.69,-134.006"/>
<polygon fill="black" stroke="black" points="2097.73,-130.506 2087.66,-133.812 2097.59,-137.505 2097.73,-130.506"/>
<text text-anchor="middle" x="3536.93" y="-180.28" font-family="Times,serif" font-size="14.00"> static(visible_from)</text>
</g>
<!-- n27&#45;&gt;n19 -->
<g id="edge17" class="edge"><title>n27&#45;&gt;n19</title>
<path fill="none" stroke="black" d="M3614.68,-209.454C3609.32,-178.801 3595.52,-128.881 3560.93,-104.74 3454.19,-30.248 3399.74,-81.3689 3269.93,-71.7401 2825.3,-38.7578 2289.58,-30.4529 2096.64,-28.4643"/>
<polygon fill="black" stroke="black" points="2096.65,-24.9643 2086.62,-28.3635 2096.58,-31.9639 2096.65,-24.9643"/>
<text text-anchor="middle" x="3655.93" y="-127.91" font-family="Times,serif" font-size="14.00"> static(visible_from)</text>
</g>
</g>
</svg>
