<?xml version="1.0" encoding="UTF-8" standalone="no"?>
<!DOCTYPE svg PUBLIC "-//W3C//DTD SVG 1.1//EN"
 "http://www.w3.org/Graphics/SVG/1.1/DTD/svg11.dtd">
<!-- Generated by graphviz version 2.38.0 (20140413.2041)
 -->
<!-- Title: Struc Pages: 1 -->
<svg width="3665pt" height="376pt"
 viewBox="0.00 0.00 3665.06 375.96" xmlns="http://www.w3.org/2000/svg" xmlns:xlink="http://www.w3.org/1999/xlink">
<g id="graph0" class="graph" transform="scale(1 1) rotate(0) translate(4 371.96)">
<title>Struc</title>
<polygon fill="white" stroke="none" points="-4,4 -4,-371.96 3661.06,-371.96 3661.06,4 -4,4"/>
<!-- n1 -->
<g id="node1" class="node"><title>n1</title>
<ellipse fill="none" stroke="black" cx="1573.88" cy="-341.09" rx="56.6372" ry="26.7407"/>
<text text-anchor="middle" x="1573.88" y="-344.89" font-family="Times,serif" font-size="14.00">&lt;camera2&gt;</text>
<text text-anchor="middle" x="1573.88" y="-329.89" font-family="Times,serif" font-size="14.00">camera</text>
</g>
<!-- n14 -->
<g id="node14" class="node"><title>n14</title>
<ellipse fill="none" stroke="black" cx="1732.88" cy="-131.61" rx="53.9813" ry="26.7407"/>
<text text-anchor="middle" x="1732.88" y="-135.41" font-family="Times,serif" font-size="14.00">&lt;low_res&gt;</text>
<text text-anchor="middle" x="1732.88" y="-120.41" font-family="Times,serif" font-size="14.00">mode</text>
</g>
<!-- n1&#45;&gt;n14 -->
<g id="edge39" class="edge"><title>n1&#45;&gt;n14</title>
<path fill="none" stroke="black" d="M1573.7,-314C1574.86,-278.534 1582.1,-215.109 1616.88,-176.48 1621.52,-171.328 1650.86,-160.253 1678.87,-150.521"/>
<polygon fill="black" stroke="black" points="1680.36,-153.709 1688.68,-147.146 1678.08,-147.09 1680.36,-153.709"/>
<text text-anchor="middle" x="1639.88" y="-232.65" font-family="Times,serif" font-size="14.00"> static(supports)</text>
</g>
<!-- n22 -->
<g id="node22" class="node"><title>n22</title>
<ellipse fill="none" stroke="black" cx="1256.88" cy="-236.35" rx="67.7647" ry="26.7407"/>
<text text-anchor="middle" x="1256.88" y="-240.15" font-family="Times,serif" font-size="14.00">&lt;objective11&gt;</text>
<text text-anchor="middle" x="1256.88" y="-225.15" font-family="Times,serif" font-size="14.00">objective</text>
</g>
<!-- n1&#45;&gt;n22 -->
<g id="edge14" class="edge"><title>n1&#45;&gt;n22</title>
<path fill="none" stroke="black" d="M1525.72,-326.868C1495.96,-318.507 1457.05,-307.232 1422.88,-296.22 1386.75,-284.575 1346.62,-270.378 1314.87,-258.844"/>
<polygon fill="black" stroke="black" points="1315.89,-255.492 1305.3,-255.356 1313.49,-262.069 1315.89,-255.492"/>
<text text-anchor="middle" x="1491.38" y="-285.02" font-family="Times,serif" font-size="14.00"> static(calibration_target)</text>
</g>
<!-- n27 -->
<g id="node27" class="node"><title>n27</title>
<ellipse fill="none" stroke="black" cx="3235.88" cy="-131.61" rx="48.1667" ry="26.7407"/>
<text text-anchor="middle" x="3235.88" y="-135.41" font-family="Times,serif" font-size="14.00">&lt;rover0&gt;</text>
<text text-anchor="middle" x="3235.88" y="-120.41" font-family="Times,serif" font-size="14.00">rover</text>
</g>
<!-- n1&#45;&gt;n27 -->
<g id="edge6" class="edge"><title>n1&#45;&gt;n27</title>
<path fill="none" stroke="black" d="M1630.76,-339.716C1874.53,-337.737 2832.06,-326.038 3125.88,-263.22 3211.72,-244.869 3260.36,-263.947 3309.88,-191.48 3321.1,-175.069 3305.15,-161.012 3285.22,-150.754"/>
<polygon fill="black" stroke="black" points="3286.73,-147.593 3276.19,-146.455 3283.72,-153.913 3286.73,-147.593"/>
<text text-anchor="middle" x="3342.38" y="-232.65" font-family="Times,serif" font-size="14.00"> static(on_board)</text>
</g>
<!-- n2 -->
<g id="node2" class="node"><title>n2</title>
<ellipse fill="none" stroke="black" cx="388.882" cy="-236.35" rx="62.8651" ry="26.7407"/>
<text text-anchor="middle" x="388.882" y="-240.15" font-family="Times,serif" font-size="14.00">&lt;objective2&gt;</text>
<text text-anchor="middle" x="388.882" y="-225.15" font-family="Times,serif" font-size="14.00">objective</text>
</g>
<!-- n4 -->
<g id="node4" class="node"><title>n4</title>
<ellipse fill="none" stroke="black" cx="864.882" cy="-131.61" rx="63.7795" ry="26.7407"/>
<text text-anchor="middle" x="864.882" y="-135.41" font-family="Times,serif" font-size="14.00">&lt;waypoint1&gt;</text>
<text text-anchor="middle" x="864.882" y="-120.41" font-family="Times,serif" font-size="14.00">waypoint</text>
</g>
<!-- n2&#45;&gt;n4 -->
<g id="edge22" class="edge"><title>n2&#45;&gt;n4</title>
<path fill="none" stroke="black" d="M437.946,-219.437C448.166,-216.136 458.873,-212.686 468.882,-209.48 515.064,-194.686 525.305,-185.859 572.882,-176.48 668.7,-157.592 696.393,-178.962 791.882,-158.48 797.922,-157.185 804.144,-155.521 810.29,-153.664"/>
<polygon fill="black" stroke="black" points="811.386,-156.988 819.846,-150.609 809.255,-150.32 811.386,-156.988"/>
<text text-anchor="middle" x="628.882" y="-180.28" font-family="Times,serif" font-size="14.00"> static(visible_from)</text>
</g>
<!-- n21 -->
<g id="node21" class="node"><title>n21</title>
<ellipse fill="none" stroke="black" cx="1338.88" cy="-26.8701" rx="63.7795" ry="26.7407"/>
<text text-anchor="middle" x="1338.88" y="-30.6701" font-family="Times,serif" font-size="14.00">&lt;waypoint0&gt;</text>
<text text-anchor="middle" x="1338.88" y="-15.6701" font-family="Times,serif" font-size="14.00">waypoint</text>
</g>
<!-- n2&#45;&gt;n21 -->
<g id="edge13" class="edge"><title>n2&#45;&gt;n21</title>
<path fill="none" stroke="black" d="M382.14,-209.612C376.198,-180.512 371.92,-133.461 396.882,-104.74 453.476,-39.6268 1052.82,-29.618 1264.97,-28.1195"/>
<polygon fill="black" stroke="black" points="1265.1,-31.6188 1275.08,-28.0525 1265.05,-24.6189 1265.1,-31.6188"/>
<text text-anchor="middle" x="452.882" y="-127.91" font-family="Times,serif" font-size="14.00"> static(visible_from)</text>
</g>
<!-- n3 -->
<g id="node3" class="node"><title>n3</title>
<ellipse fill="none" stroke="black" cx="67.8823" cy="-236.35" rx="67.7647" ry="26.7407"/>
<text text-anchor="middle" x="67.8823" y="-240.15" font-family="Times,serif" font-size="14.00">&lt;objective15&gt;</text>
<text text-anchor="middle" x="67.8823" y="-225.15" font-family="Times,serif" font-size="14.00">objective</text>
</g>
<!-- n3&#45;&gt;n4 -->
<g id="edge8" class="edge"><title>n3&#45;&gt;n4</title>
<path fill="none" stroke="black" d="M110.601,-215.357C142.225,-201.624 186.772,-184.482 227.882,-176.48 474.057,-128.565 545.425,-204.919 791.882,-158.48 798.039,-157.32 804.373,-155.725 810.615,-153.893"/>
<polygon fill="black" stroke="black" points="811.821,-157.183 820.311,-150.845 809.722,-150.505 811.821,-157.183"/>
<text text-anchor="middle" x="283.882" y="-180.28" font-family="Times,serif" font-size="14.00"> static(visible_from)</text>
</g>
<!-- n3&#45;&gt;n21 -->
<g id="edge26" class="edge"><title>n3&#45;&gt;n21</title>
<path fill="none" stroke="black" d="M70.018,-209.265C73.9172,-179.384 84.9136,-131.159 115.882,-104.74 173.773,-55.3545 208.316,-80.6801 283.882,-71.7401 650.056,-28.4194 1092.11,-26.0909 1264.75,-27.0823"/>
<polygon fill="black" stroke="black" points="1264.97,-30.5837 1274.99,-27.1469 1265.01,-23.5838 1264.97,-30.5837"/>
<text text-anchor="middle" x="171.882" y="-127.91" font-family="Times,serif" font-size="14.00"> static(visible_from)</text>
</g>
<!-- n4&#45;&gt;n21 -->
<g id="edge10" class="edge"><title>n4&#45;&gt;n21</title>
<path fill="none" stroke="black" d="M849.647,-105.414C844.801,-93.8885 842.589,-80.8123 850.882,-71.7401 878.229,-41.8252 1135.34,-32.1373 1264.94,-29.1397"/>
<polygon fill="black" stroke="black" points="1265.26,-32.6334 1275.18,-28.9106 1265.11,-25.6352 1265.26,-32.6334"/>
<text text-anchor="middle" x="889.882" y="-75.5401" font-family="Times,serif" font-size="14.00"> static(visible)</text>
</g>
<!-- n5 -->
<g id="node5" class="node"><title>n5</title>
<ellipse fill="none" stroke="black" cx="3059.88" cy="-236.35" rx="56.6372" ry="26.7407"/>
<text text-anchor="middle" x="3059.88" y="-240.15" font-family="Times,serif" font-size="14.00">&lt;camera0&gt;</text>
<text text-anchor="middle" x="3059.88" y="-225.15" font-family="Times,serif" font-size="14.00">camera</text>
</g>
<!-- n16 -->
<g id="node16" class="node"><title>n16</title>
<ellipse fill="none" stroke="black" cx="3106.88" cy="-131.61" rx="62.8651" ry="26.7407"/>
<text text-anchor="middle" x="3106.88" y="-135.41" font-family="Times,serif" font-size="14.00">&lt;objective7&gt;</text>
<text text-anchor="middle" x="3106.88" y="-120.41" font-family="Times,serif" font-size="14.00">objective</text>
</g>
<!-- n5&#45;&gt;n16 -->
<g id="edge11" class="edge"><title>n5&#45;&gt;n16</title>
<path fill="none" stroke="black" d="M3056.07,-209.504C3055.56,-198.873 3056.41,-186.685 3060.88,-176.48 3062.99,-171.676 3065.9,-167.143 3069.24,-162.947"/>
<polygon fill="black" stroke="black" points="3072.02,-165.087 3076.1,-155.309 3066.82,-160.408 3072.02,-165.087"/>
<text text-anchor="middle" x="3129.38" y="-180.28" font-family="Times,serif" font-size="14.00"> static(calibration_target)</text>
</g>
<!-- n20 -->
<g id="node20" class="node"><title>n20</title>
<ellipse fill="none" stroke="black" cx="2403.88" cy="-131.61" rx="56.6372" ry="26.7407"/>
<text text-anchor="middle" x="2403.88" y="-135.41" font-family="Times,serif" font-size="14.00">&lt;high_res&gt;</text>
<text text-anchor="middle" x="2403.88" y="-120.41" font-family="Times,serif" font-size="14.00">mode</text>
</g>
<!-- n5&#45;&gt;n20 -->
<g id="edge33" class="edge"><title>n5&#45;&gt;n20</title>
<path fill="none" stroke="black" d="M3003.75,-232.826C2910.71,-228.015 2728.96,-215.775 2669.88,-191.48 2659.93,-187.388 2660.86,-180.505 2650.88,-176.48 2575.5,-146.071 2547.86,-177.697 2468.88,-158.48 2463.92,-157.273 2458.83,-155.764 2453.8,-154.086"/>
<polygon fill="black" stroke="black" points="2454.82,-150.734 2444.23,-150.684 2452.48,-157.33 2454.82,-150.734"/>
<text text-anchor="middle" x="2713.88" y="-180.28" font-family="Times,serif" font-size="14.00"> static(supports)</text>
</g>
<!-- n5&#45;&gt;n27 -->
<g id="edge21" class="edge"><title>n5&#45;&gt;n27</title>
<path fill="none" stroke="black" d="M3113.37,-227.261C3140.77,-221.033 3173.42,-210.184 3197.88,-191.48 3206.52,-184.874 3213.77,-175.7 3219.53,-166.558"/>
<polygon fill="black" stroke="black" points="3222.57,-168.287 3224.6,-157.888 3216.53,-164.752 3222.57,-168.287"/>
<text text-anchor="middle" x="3259.38" y="-180.28" font-family="Times,serif" font-size="14.00"> static(on_board)</text>
</g>
<!-- n6 -->
<g id="node6" class="node"><title>n6</title>
<ellipse fill="none" stroke="black" cx="714.882" cy="-131.61" rx="67.7647" ry="26.7407"/>
<text text-anchor="middle" x="714.882" y="-135.41" font-family="Times,serif" font-size="14.00">&lt;objective14&gt;</text>
<text text-anchor="middle" x="714.882" y="-120.41" font-family="Times,serif" font-size="14.00">objective</text>
</g>
<!-- n6&#45;&gt;n21 -->
<g id="edge17" class="edge"><title>n6&#45;&gt;n21</title>
<path fill="none" stroke="black" d="M714.938,-104.694C716.404,-92.857 720.336,-79.7254 729.882,-71.7401 770.094,-38.1023 1111.84,-30.255 1265.07,-28.4256"/>
<polygon fill="black" stroke="black" points="1265.37,-31.9225 1275.33,-28.3088 1265.29,-24.923 1265.37,-31.9225"/>
<text text-anchor="middle" x="785.882" y="-75.5401" font-family="Times,serif" font-size="14.00"> static(visible_from)</text>
</g>
<!-- n7 -->
<g id="node7" class="node"><title>n7</title>
<ellipse fill="none" stroke="black" cx="221.882" cy="-236.35" rx="62.8651" ry="26.7407"/>
<text text-anchor="middle" x="221.882" y="-240.15" font-family="Times,serif" font-size="14.00">&lt;objective6&gt;</text>
<text text-anchor="middle" x="221.882" y="-225.15" font-family="Times,serif" font-size="14.00">objective</text>
</g>
<!-- n7&#45;&gt;n4 -->
<g id="edge19" class="edge"><title>n7&#45;&gt;n4</title>
<path fill="none" stroke="black" d="M266.53,-217.309C303.069,-203.447 356.44,-185.238 404.882,-176.48 574.321,-145.847 622.911,-191.595 791.882,-158.48 797.944,-157.292 804.18,-155.698 810.334,-153.881"/>
<polygon fill="black" stroke="black" points="811.412,-157.211 819.899,-150.869 809.31,-150.534 811.412,-157.211"/>
<text text-anchor="middle" x="460.882" y="-180.28" font-family="Times,serif" font-size="14.00"> static(visible_from)</text>
</g>
<!-- n7&#45;&gt;n21 -->
<g id="edge35" class="edge"><title>n7&#45;&gt;n21</title>
<path fill="none" stroke="black" d="M222.306,-209.384C224.267,-179.618 232.206,-131.501 261.882,-104.74 318.393,-53.7814 354.346,-80.9319 429.882,-71.7401 738.432,-34.1936 1109.57,-28.4466 1264.89,-27.7981"/>
<polygon fill="black" stroke="black" points="1265.26,-31.2968 1275.25,-27.7611 1265.23,-24.2969 1265.26,-31.2968"/>
<text text-anchor="middle" x="317.882" y="-127.91" font-family="Times,serif" font-size="14.00"> static(visible_from)</text>
</g>
<!-- n8 -->
<g id="node8" class="node"><title>n8</title>
<ellipse fill="none" stroke="black" cx="1009.88" cy="-131.61" rx="62.8651" ry="26.7407"/>
<text text-anchor="middle" x="1009.88" y="-135.41" font-family="Times,serif" font-size="14.00">&lt;objective1&gt;</text>
<text text-anchor="middle" x="1009.88" y="-120.41" font-family="Times,serif" font-size="14.00">objective</text>
</g>
<!-- n8&#45;&gt;n21 -->
<g id="edge7" class="edge"><title>n8&#45;&gt;n21</title>
<path fill="none" stroke="black" d="M1022.41,-105.097C1029.64,-93.056 1039.9,-79.6277 1052.88,-71.7401 1087.73,-50.5614 1193.42,-38.6004 1266.07,-32.6839"/>
<polygon fill="black" stroke="black" points="1266.4,-36.1688 1276.09,-31.8888 1265.85,-29.1907 1266.4,-36.1688"/>
<text text-anchor="middle" x="1108.88" y="-75.5401" font-family="Times,serif" font-size="14.00"> static(visible_from)</text>
</g>
<!-- n9 -->
<g id="node9" class="node"><title>n9</title>
<ellipse fill="none" stroke="black" cx="3505.88" cy="-236.35" rx="67.3507" ry="26.7407"/>
<text text-anchor="middle" x="3505.88" y="-240.15" font-family="Times,serif" font-size="14.00">&lt;rover0store&gt;</text>
<text text-anchor="middle" x="3505.88" y="-225.15" font-family="Times,serif" font-size="14.00">store</text>
</g>
<!-- n9&#45;&gt;n9 -->
<g id="edge1" class="edge"><title>n9&#45;&gt;n9</title>
<path fill="none" stroke="black" d="M3569.03,-245.728C3581.87,-244.707 3591.06,-241.581 3591.06,-236.35 3591.06,-232.673 3586.51,-230.035 3579.35,-228.438"/>
<polygon fill="black" stroke="black" points="3579.42,-224.913 3569.03,-226.972 3578.44,-231.844 3579.42,-224.913"/>
<text text-anchor="middle" x="3624.06" y="-232.65" font-family="Times,serif" font-size="14.00"> init(empty)</text>
</g>
<!-- n9&#45;&gt;n27 -->
<g id="edge29" class="edge"><title>n9&#45;&gt;n27</title>
<path fill="none" stroke="black" d="M3458.23,-217.219C3409.41,-198.641 3333.87,-169.898 3284.65,-151.167"/>
<polygon fill="black" stroke="black" points="3285.76,-147.845 3275.17,-147.56 3283.27,-154.387 3285.76,-147.845"/>
<text text-anchor="middle" x="3429.88" y="-180.28" font-family="Times,serif" font-size="14.00"> static(store_of)</text>
</g>
<!-- n10 -->
<g id="node10" class="node"><title>n10</title>
<ellipse fill="none" stroke="black" cx="1994.88" cy="-236.35" rx="62.8651" ry="26.7407"/>
<text text-anchor="middle" x="1994.88" y="-240.15" font-family="Times,serif" font-size="14.00">&lt;objective4&gt;</text>
<text text-anchor="middle" x="1994.88" y="-225.15" font-family="Times,serif" font-size="14.00">objective</text>
</g>
<!-- n10&#45;&gt;n20 -->
<g id="edge42" class="edge"><title>n10&#45;&gt;n20</title>
<path fill="none" stroke="black" d="M2048.56,-222.312C2099.7,-210.023 2178.88,-191.327 2247.88,-176.48 2288.19,-167.807 2299.34,-170.152 2338.88,-158.48 2343.52,-157.112 2348.28,-155.545 2353.02,-153.873"/>
<polygon fill="black" stroke="black" points="2354.49,-157.061 2362.67,-150.325 2352.08,-150.491 2354.49,-157.061"/>
<text text-anchor="middle" x="2339.88" y="-180.28" font-family="Times,serif" font-size="14.00"> end(communicated_image_data)</text>
</g>
<!-- n10&#45;&gt;n21 -->
<g id="edge43" class="edge"><title>n10&#45;&gt;n21</title>
<path fill="none" stroke="black" d="M1964.77,-212.572C1947.44,-200.386 1924.81,-185.977 1902.88,-176.48 1873.01,-163.541 1858.48,-177.247 1831.88,-158.48 1808.39,-141.907 1820.03,-120.341 1795.88,-104.74 1733.63,-64.5188 1524.26,-42.3752 1411.79,-33.1221"/>
<polygon fill="black" stroke="black" points="1411.79,-29.6113 1401.55,-32.293 1411.23,-36.5885 1411.79,-29.6113"/>
<text text-anchor="middle" x="1887.88" y="-127.91" font-family="Times,serif" font-size="14.00"> static(visible_from)</text>
</g>
<!-- n11 -->
<g id="node11" class="node"><title>n11</title>
<ellipse fill="none" stroke="black" cx="540.882" cy="-236.35" rx="62.8651" ry="26.7407"/>
<text text-anchor="middle" x="540.882" y="-240.15" font-family="Times,serif" font-size="14.00">&lt;objective5&gt;</text>
<text text-anchor="middle" x="540.882" y="-225.15" font-family="Times,serif" font-size="14.00">objective</text>
</g>
<!-- n11&#45;&gt;n4 -->
<g id="edge23" class="edge"><title>n11&#45;&gt;n4</title>
<path fill="none" stroke="black" d="M592.045,-220.39C642.912,-205.349 723.072,-181.198 791.882,-158.48 797.069,-156.768 802.448,-154.947 807.828,-153.096"/>
<polygon fill="black" stroke="black" points="809.172,-156.335 817.47,-149.748 806.876,-149.722 809.172,-156.335"/>
<text text-anchor="middle" x="793.882" y="-180.28" font-family="Times,serif" font-size="14.00"> static(visible_from)</text>
</g>
<!-- n11&#45;&gt;n21 -->
<g id="edge9" class="edge"><title>n11&#45;&gt;n21</title>
<path fill="none" stroke="black" d="M527.92,-209.804C515.287,-180.882 501.27,-133.995 525.882,-104.74 573.018,-48.7124 1073.46,-33.0527 1264.94,-29.0944"/>
<polygon fill="black" stroke="black" points="1265.26,-32.5886 1275.19,-28.8876 1265.12,-25.5901 1265.26,-32.5886"/>
<text text-anchor="middle" x="581.882" y="-127.91" font-family="Times,serif" font-size="14.00"> static(visible_from)</text>
</g>
<!-- n12 -->
<g id="node12" class="node"><title>n12</title>
<ellipse fill="none" stroke="black" cx="1449.88" cy="-131.61" rx="62.8651" ry="26.7407"/>
<text text-anchor="middle" x="1449.88" y="-135.41" font-family="Times,serif" font-size="14.00">&lt;objective8&gt;</text>
<text text-anchor="middle" x="1449.88" y="-120.41" font-family="Times,serif" font-size="14.00">objective</text>
</g>
<!-- n12&#45;&gt;n21 -->
<g id="edge44" class="edge"><title>n12&#45;&gt;n21</title>
<path fill="none" stroke="black" d="M1424.14,-106.781C1408.59,-92.3878 1388.61,-73.8987 1371.91,-58.4358"/>
<polygon fill="black" stroke="black" points="1374.2,-55.7939 1364.49,-51.5697 1369.45,-60.9311 1374.2,-55.7939"/>
<text text-anchor="middle" x="1457.88" y="-75.5401" font-family="Times,serif" font-size="14.00"> static(visible_from)</text>
</g>
<!-- n13 -->
<g id="node13" class="node"><title>n13</title>
<ellipse fill="none" stroke="black" cx="1006.88" cy="-236.35" rx="62.8651" ry="26.7407"/>
<text text-anchor="middle" x="1006.88" y="-240.15" font-family="Times,serif" font-size="14.00">&lt;objective9&gt;</text>
<text text-anchor="middle" x="1006.88" y="-225.15" font-family="Times,serif" font-size="14.00">objective</text>
</g>
<!-- n13&#45;&gt;n4 -->
<g id="edge16" class="edge"><title>n13&#45;&gt;n4</title>
<path fill="none" stroke="black" d="M975.72,-212.804C954.726,-197.614 926.862,-177.454 904.324,-161.147"/>
<polygon fill="black" stroke="black" points="906.126,-158.131 895.972,-155.104 902.022,-163.802 906.126,-158.131"/>
<text text-anchor="middle" x="1000.88" y="-180.28" font-family="Times,serif" font-size="14.00"> static(visible_from)</text>
</g>
<!-- n13&#45;&gt;n21 -->
<g id="edge20" class="edge"><title>n13&#45;&gt;n21</title>
<path fill="none" stroke="black" d="M1036.77,-212.509C1044.82,-205.971 1053.38,-198.663 1060.88,-191.48 1098.12,-155.835 1095.48,-134.061 1137.88,-104.74 1179.42,-76.0168 1233.12,-56.1955 1274.57,-43.8831"/>
<polygon fill="black" stroke="black" points="1275.66,-47.2116 1284.29,-41.066 1273.71,-40.4883 1275.66,-47.2116"/>
<text text-anchor="middle" x="1193.88" y="-127.91" font-family="Times,serif" font-size="14.00"> static(visible_from)</text>
</g>
<!-- n15 -->
<g id="node15" class="node"><title>n15</title>
<ellipse fill="none" stroke="black" cx="1474.88" cy="-236.35" rx="62.8651" ry="26.7407"/>
<text text-anchor="middle" x="1474.88" y="-240.15" font-family="Times,serif" font-size="14.00">&lt;objective0&gt;</text>
<text text-anchor="middle" x="1474.88" y="-225.15" font-family="Times,serif" font-size="14.00">objective</text>
</g>
<!-- n15&#45;&gt;n4 -->
<g id="edge31" class="edge"><title>n15&#45;&gt;n4</title>
<path fill="none" stroke="black" d="M1424.2,-220.299C1375.4,-206.469 1299.27,-186.625 1231.88,-176.48 1102.43,-156.993 1066.16,-184.599 937.882,-158.48 931.83,-157.248 925.599,-155.625 919.448,-153.791"/>
<polygon fill="black" stroke="black" points="920.477,-150.445 909.887,-150.761 918.363,-157.118 920.477,-150.445"/>
<text text-anchor="middle" x="1362.88" y="-180.28" font-family="Times,serif" font-size="14.00"> static(visible_from)</text>
</g>
<!-- n15&#45;&gt;n20 -->
<g id="edge37" class="edge"><title>n15&#45;&gt;n20</title>
<path fill="none" stroke="black" d="M1522.41,-218.591C1566.28,-204.085 1633.55,-184.252 1693.88,-176.48 1836.1,-158.159 2198.45,-187.437 2338.88,-158.48 2344.16,-157.392 2349.56,-155.903 2354.89,-154.186"/>
<polygon fill="black" stroke="black" points="2356.05,-157.486 2364.34,-150.886 2353.75,-150.878 2356.05,-157.486"/>
<text text-anchor="middle" x="1785.88" y="-180.28" font-family="Times,serif" font-size="14.00"> end(communicated_image_data)</text>
</g>
<!-- n15&#45;&gt;n21 -->
<g id="edge38" class="edge"><title>n15&#45;&gt;n21</title>
<path fill="none" stroke="black" d="M1493.68,-210.524C1517.84,-175.39 1552.76,-111.071 1517.88,-71.7401 1503.36,-55.3619 1453.21,-43.9582 1409.68,-36.8907"/>
<polygon fill="black" stroke="black" points="1410.07,-33.409 1399.65,-35.3178 1408.99,-40.3246 1410.07,-33.409"/>
<text text-anchor="middle" x="1588.88" y="-127.91" font-family="Times,serif" font-size="14.00"> static(visible_from)</text>
</g>
<!-- n16&#45;&gt;n21 -->
<g id="edge32" class="edge"><title>n16&#45;&gt;n21</title>
<path fill="none" stroke="black" d="M3061.15,-112.886C3052.51,-109.905 3043.48,-107.038 3034.88,-104.74 2954.62,-83.2848 2933.52,-80.3018 2850.88,-71.7401 2567.18,-42.3475 1676.3,-31.2494 1412.92,-28.5616"/>
<polygon fill="black" stroke="black" points="1412.74,-25.0597 1402.7,-28.4584 1412.67,-32.0594 1412.74,-25.0597"/>
<text text-anchor="middle" x="3015.88" y="-75.5401" font-family="Times,serif" font-size="14.00"> static(visible_from)</text>
</g>
<!-- n17 -->
<g id="node17" class="node"><title>n17</title>
<ellipse fill="none" stroke="black" cx="2020.88" cy="-131.61" rx="67.7647" ry="26.7407"/>
<text text-anchor="middle" x="2020.88" y="-135.41" font-family="Times,serif" font-size="14.00">&lt;objective10&gt;</text>
<text text-anchor="middle" x="2020.88" y="-120.41" font-family="Times,serif" font-size="14.00">objective</text>
</g>
<!-- n17&#45;&gt;n21 -->
<g id="edge27" class="edge"><title>n17&#45;&gt;n21</title>
<path fill="none" stroke="black" d="M1973.61,-112.281C1936.89,-98.8325 1884.39,-81.3097 1836.88,-71.7401 1688.14,-41.7812 1510.32,-32.2813 1412.49,-29.2689"/>
<polygon fill="black" stroke="black" points="1412.51,-25.768 1402.41,-28.9728 1412.31,-32.7649 1412.51,-25.768"/>
<text text-anchor="middle" x="1949.88" y="-75.5401" font-family="Times,serif" font-size="14.00"> static(visible_from)</text>
</g>
<!-- n18 -->
<g id="node18" class="node"><title>n18</title>
<ellipse fill="none" stroke="black" cx="2977.88" cy="-131.61" rx="48.1667" ry="26.7407"/>
<text text-anchor="middle" x="2977.88" y="-135.41" font-family="Times,serif" font-size="14.00">&lt;colour&gt;</text>
<text text-anchor="middle" x="2977.88" y="-120.41" font-family="Times,serif" font-size="14.00">mode</text>
</g>
<!-- n19 -->
<g id="node19" class="node"><title>n19</title>
<ellipse fill="none" stroke="black" cx="2158.88" cy="-131.61" rx="51.7379" ry="26.7407"/>
<text text-anchor="middle" x="2158.88" y="-135.41" font-family="Times,serif" font-size="14.00">&lt;general&gt;</text>
<text text-anchor="middle" x="2158.88" y="-120.41" font-family="Times,serif" font-size="14.00">lander</text>
</g>
<!-- n19&#45;&gt;n19 -->
<g id="edge2" class="edge"><title>n19&#45;&gt;n19</title>
<path fill="none" stroke="black" d="M2207.36,-141.226C2219.46,-140.554 2228.5,-137.348 2228.5,-131.61 2228.5,-127.665 2224.23,-124.917 2217.62,-123.367"/>
<polygon fill="black" stroke="black" points="2217.74,-119.85 2207.36,-121.994 2216.81,-126.789 2217.74,-119.85"/>
<text text-anchor="middle" x="2279" y="-127.91" font-family="Times,serif" font-size="14.00"> init(channel_free)</text>
</g>
<!-- n19&#45;&gt;n21 -->
<g id="edge40" class="edge"><title>n19&#45;&gt;n21</title>
<path fill="none" stroke="black" d="M2122.59,-112.361C2093.05,-98.4783 2049.85,-80.3444 2009.88,-71.7401 1897.69,-47.5893 1562.05,-34.6585 1412.36,-29.9586"/>
<polygon fill="black" stroke="black" points="1412.44,-26.4596 1402.34,-29.6476 1412.22,-33.4562 1412.44,-26.4596"/>
<text text-anchor="middle" x="2106.88" y="-75.5401" font-family="Times,serif" font-size="14.00"> static(at_lander)</text>
</g>
<!-- n21&#45;&gt;n4 -->
<g id="edge30" class="edge"><title>n21&#45;&gt;n4</title>
<path fill="none" stroke="black" d="M1275.96,-31.5248C1182.64,-37.5412 1012.39,-50.9744 954.882,-71.7401 949.262,-73.7693 926.76,-88.4885 905.664,-102.7"/>
<polygon fill="black" stroke="black" points="903.703,-99.8002 897.38,-108.301 907.624,-105.599 903.703,-99.8002"/>
<text text-anchor="middle" x="993.882" y="-75.5401" font-family="Times,serif" font-size="14.00"> static(visible)</text>
</g>
<!-- n22&#45;&gt;n4 -->
<g id="edge12" class="edge"><title>n22&#45;&gt;n4</title>
<path fill="none" stroke="black" d="M1206.66,-218.045C1167.38,-205.053 1111.17,-187.65 1060.88,-176.48 1006.95,-164.502 991.509,-171.771 937.882,-158.48 932.197,-157.071 926.333,-155.393 920.515,-153.577"/>
<polygon fill="black" stroke="black" points="921.4,-150.184 910.808,-150.415 919.232,-156.84 921.4,-150.184"/>
<text text-anchor="middle" x="1171.88" y="-180.28" font-family="Times,serif" font-size="14.00"> static(visible_from)</text>
</g>
<!-- n22&#45;&gt;n21 -->
<g id="edge36" class="edge"><title>n22&#45;&gt;n21</title>
<path fill="none" stroke="black" d="M1253.66,-209.34C1251.4,-182.065 1251.02,-138.552 1265.88,-104.74 1273.76,-86.8284 1287.68,-70.5365 1301.27,-57.6082"/>
<polygon fill="black" stroke="black" points="1303.72,-60.1102 1308.75,-50.7829 1299,-54.9407 1303.72,-60.1102"/>
<text text-anchor="middle" x="1321.88" y="-127.91" font-family="Times,serif" font-size="14.00"> static(visible_from)</text>
</g>
<!-- n23 -->
<g id="node23" class="node"><title>n23</title>
<ellipse fill="none" stroke="black" cx="2545.88" cy="-131.61" rx="67.7647" ry="26.7407"/>
<text text-anchor="middle" x="2545.88" y="-135.41" font-family="Times,serif" font-size="14.00">&lt;objective12&gt;</text>
<text text-anchor="middle" x="2545.88" y="-120.41" font-family="Times,serif" font-size="14.00">objective</text>
</g>
<!-- n23&#45;&gt;n21 -->
<g id="edge25" class="edge"><title>n23&#45;&gt;n21</title>
<path fill="none" stroke="black" d="M2497.69,-112.41C2488.55,-109.475 2479,-106.747 2469.88,-104.74 2333.27,-74.6824 2296.32,-82.8227 2156.88,-71.7401 1882.68,-49.9473 1555.9,-36.0431 1412.49,-30.5468"/>
<polygon fill="black" stroke="black" points="1412.2,-27.0333 1402.07,-30.15 1411.93,-34.0282 1412.2,-27.0333"/>
<text text-anchor="middle" x="2424.88" y="-75.5401" font-family="Times,serif" font-size="14.00"> static(visible_from)</text>
</g>
<!-- n24 -->
<g id="node24" class="node"><title>n24</title>
<ellipse fill="none" stroke="black" cx="2561.88" cy="-236.35" rx="56.6372" ry="26.7407"/>
<text text-anchor="middle" x="2561.88" y="-240.15" font-family="Times,serif" font-size="14.00">&lt;camera1&gt;</text>
<text text-anchor="middle" x="2561.88" y="-225.15" font-family="Times,serif" font-size="14.00">camera</text>
</g>
<!-- n24&#45;&gt;n14 -->
<g id="edge4" class="edge"><title>n24&#45;&gt;n14</title>
<path fill="none" stroke="black" d="M2505.14,-234.899C2377.48,-232.744 2058.66,-220.975 1800.88,-158.48 1794.84,-157.015 1788.61,-155.158 1782.48,-153.112"/>
<polygon fill="black" stroke="black" points="1783.58,-149.788 1772.99,-149.773 1781.26,-156.392 1783.58,-149.788"/>
<text text-anchor="middle" x="2009.88" y="-180.28" font-family="Times,serif" font-size="14.00"> static(supports)</text>
</g>
<!-- n24&#45;&gt;n16 -->
<g id="edge5" class="edge"><title>n24&#45;&gt;n16</title>
<path fill="none" stroke="black" d="M2616.55,-228.805C2657.69,-222.596 2714.84,-211.2 2761.88,-191.48 2773.14,-186.762 2773.32,-180.376 2784.88,-176.48 2890.45,-140.921 2925.89,-181.529 3034.88,-158.48 3040.71,-157.248 3046.7,-155.653 3052.63,-153.862"/>
<polygon fill="black" stroke="black" points="3054.05,-157.083 3062.49,-150.689 3051.9,-150.419 3054.05,-157.083"/>
<text text-anchor="middle" x="2853.38" y="-180.28" font-family="Times,serif" font-size="14.00"> static(calibration_target)</text>
</g>
<!-- n24&#45;&gt;n18 -->
<g id="edge15" class="edge"><title>n24&#45;&gt;n18</title>
<path fill="none" stroke="black" d="M2555.06,-209.435C2553.66,-197.889 2554.64,-185.003 2562.88,-176.48 2590.57,-147.853 2882.18,-167.876 2920.88,-158.48 2925.28,-157.413 2929.75,-156.009 2934.16,-154.406"/>
<polygon fill="black" stroke="black" points="2935.66,-157.578 2943.66,-150.632 2933.07,-151.073 2935.66,-157.578"/>
<text text-anchor="middle" x="2606.88" y="-180.28" font-family="Times,serif" font-size="14.00"> static(supports)</text>
</g>
<!-- n24&#45;&gt;n20 -->
<g id="edge34" class="edge"><title>n24&#45;&gt;n20</title>
<path fill="none" stroke="black" d="M2513.7,-222.067C2493.4,-215.024 2470.28,-204.983 2451.88,-191.48 2442.18,-184.359 2433.29,-174.833 2425.88,-165.523"/>
<polygon fill="black" stroke="black" points="2428.59,-163.307 2419.75,-157.461 2423.02,-167.541 2428.59,-163.307"/>
<text text-anchor="middle" x="2495.88" y="-180.28" font-family="Times,serif" font-size="14.00"> static(supports)</text>
</g>
<!-- n24&#45;&gt;n27 -->
<g id="edge18" class="edge"><title>n24&#45;&gt;n27</title>
<path fill="none" stroke="black" d="M2618.16,-232.775C2689.68,-228.531 2816.5,-217.742 2921.88,-191.48 2939.9,-186.99 2942.78,-180.62 2960.88,-176.48 3055.66,-154.811 3084.79,-182.93 3178.88,-158.48 3183.2,-157.358 3187.6,-155.931 3191.94,-154.325"/>
<polygon fill="black" stroke="black" points="3193.32,-157.542 3201.3,-150.574 3190.72,-151.044 3193.32,-157.542"/>
<text text-anchor="middle" x="3007.38" y="-180.28" font-family="Times,serif" font-size="14.00"> static(on_board)</text>
</g>
<!-- n25 -->
<g id="node25" class="node"><title>n25</title>
<ellipse fill="none" stroke="black" cx="2694.88" cy="-131.61" rx="62.8651" ry="26.7407"/>
<text text-anchor="middle" x="2694.88" y="-135.41" font-family="Times,serif" font-size="14.00">&lt;objective3&gt;</text>
<text text-anchor="middle" x="2694.88" y="-120.41" font-family="Times,serif" font-size="14.00">objective</text>
</g>
<!-- n25&#45;&gt;n21 -->
<g id="edge41" class="edge"><title>n25&#45;&gt;n21</title>
<path fill="none" stroke="black" d="M2648.65,-113.152C2640.14,-110.179 2631.28,-107.245 2622.88,-104.74 2562.45,-86.7174 2547.36,-80.321 2484.88,-71.7401 2276.51,-43.1214 1631.55,-31.8603 1412.53,-28.7988"/>
<polygon fill="black" stroke="black" points="1412.47,-25.2978 1402.42,-28.6592 1412.37,-32.2971 1412.47,-25.2978"/>
<text text-anchor="middle" x="2617.88" y="-75.5401" font-family="Times,serif" font-size="14.00"> static(visible_from)</text>
</g>
<!-- n26 -->
<g id="node26" class="node"><title>n26</title>
<ellipse fill="none" stroke="black" cx="2843.88" cy="-131.61" rx="67.7647" ry="26.7407"/>
<text text-anchor="middle" x="2843.88" y="-135.41" font-family="Times,serif" font-size="14.00">&lt;objective13&gt;</text>
<text text-anchor="middle" x="2843.88" y="-120.41" font-family="Times,serif" font-size="14.00">objective</text>
</g>
<!-- n26&#45;&gt;n21 -->
<g id="edge28" class="edge"><title>n26&#45;&gt;n21</title>
<path fill="none" stroke="black" d="M2800.17,-110.927C2767.28,-97.1557 2720.7,-79.8314 2677.88,-71.7401 2432.44,-25.356 1656.26,-25.9238 1412.72,-27.3086"/>
<polygon fill="black" stroke="black" points="1412.54,-23.8095 1402.56,-27.3686 1412.58,-30.8094 1412.54,-23.8095"/>
<text text-anchor="middle" x="2790.88" y="-75.5401" font-family="Times,serif" font-size="14.00"> static(visible_from)</text>
</g>
<!-- n27&#45;&gt;n21 -->
<g id="edge24" class="edge"><title>n27&#45;&gt;n21</title>
<path fill="none" stroke="black" d="M3200.39,-113.216C3168.65,-98.7212 3120.39,-79.2722 3075.88,-71.7401 2910.64,-43.7744 1723.37,-31.303 1412.98,-28.499"/>
<polygon fill="black" stroke="black" points="1412.77,-24.9972 1402.74,-28.4072 1412.71,-31.9969 1412.77,-24.9972"/>
<text text-anchor="middle" x="3151.38" y="-75.5401" font-family="Times,serif" font-size="14.00"> init(at)</text>
</g>
<!-- n27&#45;&gt;n27 -->
<g id="edge3" class="edge"><title>n27&#45;&gt;n27</title>
<path fill="none" stroke="black" d="M3280.98,-141.274C3292.92,-140.722 3301.97,-137.501 3301.97,-131.61 3301.97,-127.56 3297.69,-124.772 3291.14,-123.246"/>
<polygon fill="black" stroke="black" points="3291.34,-119.743 3280.98,-121.946 3290.45,-126.687 3291.34,-119.743"/>
<text text-anchor="middle" x="3395.47" y="-142.91" font-family="Times,serif" font-size="14.00"> static(equipped_for_imaging)</text>
<text text-anchor="middle" x="3395.47" y="-127.91" font-family="Times,serif" font-size="14.00">init(available)</text>
<text text-anchor="middle" x="3395.47" y="-112.91" font-family="Times,serif" font-size="14.00">static(equipped_for_soil_analysis)</text>
</g>
</g>
</svg>
