<?xml version="1.0" encoding="UTF-8" standalone="no"?>
<!DOCTYPE svg PUBLIC "-//W3C//DTD SVG 1.1//EN"
 "http://www.w3.org/Graphics/SVG/1.1/DTD/svg11.dtd">
<!-- Generated by graphviz version 2.38.0 (20140413.2041)
 -->
<!-- Title: Struc Pages: 1 -->
<svg width="862pt" height="295pt"
 viewBox="0.00 0.00 861.65 295.22" xmlns="http://www.w3.org/2000/svg" xmlns:xlink="http://www.w3.org/1999/xlink">
<g id="graph0" class="graph" transform="scale(1 1) rotate(0) translate(4 291.22)">
<title>Struc</title>
<polygon fill="white" stroke="none" points="-4,4 -4,-291.22 857.652,-291.22 857.652,4 -4,4"/>
<!-- n1 -->
<g id="node1" class="node"><title>n1</title>
<ellipse fill="none" stroke="black" cx="60.5685" cy="-30.8701" rx="56.6326" ry="26.7574"/>
<ellipse fill="none" stroke="black" cx="60.5685" cy="-30.8701" rx="60.6372" ry="30.7407"/>
<text text-anchor="middle" x="60.5685" y="-34.6701" font-family="Times,serif" font-size="14.00">&lt;high_res&gt;</text>
<text text-anchor="middle" x="60.5685" y="-19.6701" font-family="Times,serif" font-size="14.00">mode</text>
</g>
<!-- n2 -->
<g id="node2" class="node"><title>n2</title>
<ellipse fill="none" stroke="black" cx="221.569" cy="-256.35" rx="56.6326" ry="26.7574"/>
<ellipse fill="none" stroke="black" cx="221.569" cy="-256.35" rx="60.6372" ry="30.7407"/>
<text text-anchor="middle" x="221.569" y="-260.15" font-family="Times,serif" font-size="14.00">&lt;camera1&gt;</text>
<text text-anchor="middle" x="221.569" y="-245.15" font-family="Times,serif" font-size="14.00">camera</text>
</g>
<!-- n2&#45;&gt;n1 -->
<g id="edge12" class="edge"><title>n2&#45;&gt;n1</title>
<path fill="none" stroke="black" stroke-dasharray="5,2" d="M165.112,-244.658C126.148,-234.02 77.1036,-213.42 52.5685,-174.48 33.2691,-143.85 38.5844,-101.774 46.7159,-71.2693"/>
<polygon fill="black" stroke="black" points="50.1536,-71.9788 49.5501,-61.4012 43.4256,-70.0464 50.1536,-71.9788"/>
<text text-anchor="middle" x="96.5685" y="-139.91" font-family="Times,serif" font-size="14.00"> static(supports)</text>
</g>
<!-- n3 -->
<g id="node3" class="node"><title>n3</title>
<ellipse fill="none" stroke="black" cx="600.569" cy="-143.61" rx="48.1667" ry="26.7407"/>
<text text-anchor="middle" x="600.569" y="-147.41" font-family="Times,serif" font-size="14.00">&lt;rover0&gt;</text>
<text text-anchor="middle" x="600.569" y="-132.41" font-family="Times,serif" font-size="14.00">rover</text>
</g>
<!-- n2&#45;&gt;n3 -->
<g id="edge9" class="edge"><title>n2&#45;&gt;n3</title>
<path fill="none" stroke="black" d="M278.36,-245.318C343.678,-232.817 453.497,-208.834 543.569,-174.48 548.467,-172.612 553.484,-170.425 558.413,-168.099"/>
<polygon fill="black" stroke="black" points="560.308,-171.067 567.726,-163.502 557.21,-164.79 560.308,-171.067"/>
<text text-anchor="middle" x="539.069" y="-196.28" font-family="Times,serif" font-size="14.00"> static(on_board)</text>
</g>
<!-- n5 -->
<g id="node5" class="node"><title>n5</title>
<ellipse fill="none" stroke="black" cx="221.569" cy="-143.61" rx="67.7712" ry="26.7574"/>
<ellipse fill="none" stroke="black" cx="221.569" cy="-143.61" rx="71.7647" ry="30.7407"/>
<text text-anchor="middle" x="221.569" y="-147.41" font-family="Times,serif" font-size="14.00">&lt;objective12&gt;</text>
<text text-anchor="middle" x="221.569" y="-132.41" font-family="Times,serif" font-size="14.00">objective</text>
</g>
<!-- n2&#45;&gt;n5 -->
<g id="edge4" class="edge"><title>n2&#45;&gt;n5</title>
<path fill="none" stroke="black" stroke-dasharray="5,2" d="M221.569,-225.382C221.569,-212.949 221.569,-198.333 221.569,-184.977"/>
<polygon fill="black" stroke="black" points="225.069,-184.602 221.569,-174.602 218.069,-184.602 225.069,-184.602"/>
<text text-anchor="middle" x="290.069" y="-196.28" font-family="Times,serif" font-size="14.00"> static(calibration_target)</text>
</g>
<!-- n3&#45;&gt;n3 -->
<g id="edge1" class="edge"><title>n3&#45;&gt;n3</title>
<path fill="none" stroke="black" d="M645.043,-154.046C657.292,-153.542 666.652,-150.063 666.652,-143.61 666.652,-139.073 662.024,-136.006 655.019,-134.41"/>
<polygon fill="black" stroke="black" points="655.397,-130.93 645.043,-133.174 654.537,-137.877 655.397,-130.93"/>
<text text-anchor="middle" x="760.152" y="-154.91" font-family="Times,serif" font-size="14.00"> static(equipped_for_imaging)</text>
<text text-anchor="middle" x="760.152" y="-139.91" font-family="Times,serif" font-size="14.00">init(available)</text>
<text text-anchor="middle" x="760.152" y="-124.91" font-family="Times,serif" font-size="14.00">static(equipped_for_soil_analysis)</text>
</g>
<!-- n7 -->
<g id="node7" class="node"><title>n7</title>
<ellipse fill="none" stroke="black" cx="418.569" cy="-30.8701" rx="63.7712" ry="26.7574"/>
<ellipse fill="none" stroke="black" cx="418.569" cy="-30.8701" rx="67.7795" ry="30.7407"/>
<text text-anchor="middle" x="418.569" y="-34.6701" font-family="Times,serif" font-size="14.00">&lt;waypoint0&gt;</text>
<text text-anchor="middle" x="418.569" y="-19.6701" font-family="Times,serif" font-size="14.00">waypoint</text>
</g>
<!-- n3&#45;&gt;n7 -->
<g id="edge8" class="edge"><title>n3&#45;&gt;n7</title>
<path fill="none" stroke="black" stroke-dasharray="5,2" d="M569.292,-122.883C549.399,-110.401 523.055,-93.9877 499.569,-79.7401 489.421,-73.5846 478.51,-67.0672 468.084,-60.8892"/>
<polygon fill="black" stroke="black" points="469.858,-57.8721 459.469,-55.7948 466.295,-63.8975 469.858,-57.8721"/>
<text text-anchor="middle" x="543.069" y="-83.5401" font-family="Times,serif" font-size="14.00"> init(at)</text>
</g>
<!-- n4 -->
<g id="node4" class="node"><title>n4</title>
<ellipse fill="none" stroke="black" cx="363.569" cy="-143.61" rx="51.7379" ry="26.7407"/>
<text text-anchor="middle" x="363.569" y="-147.41" font-family="Times,serif" font-size="14.00">&lt;general&gt;</text>
<text text-anchor="middle" x="363.569" y="-132.41" font-family="Times,serif" font-size="14.00">lander</text>
</g>
<!-- n4&#45;&gt;n4 -->
<g id="edge2" class="edge"><title>n4&#45;&gt;n4</title>
<path fill="none" stroke="black" d="M411.401,-154.002C423.821,-153.363 433.187,-149.899 433.187,-143.61 433.187,-139.188 428.557,-136.163 421.49,-134.534"/>
<polygon fill="black" stroke="black" points="421.769,-131.041 411.401,-133.218 420.864,-137.982 421.769,-131.041"/>
<text text-anchor="middle" x="483.687" y="-139.91" font-family="Times,serif" font-size="14.00"> init(channel_free)</text>
</g>
<!-- n4&#45;&gt;n7 -->
<g id="edge11" class="edge"><title>n4&#45;&gt;n7</title>
<path fill="none" stroke="black" stroke-dasharray="5,2" d="M382.353,-118.053C387.388,-110.791 392.545,-102.659 396.569,-94.7401 400.33,-87.3373 403.712,-79.1412 406.631,-71.1791"/>
<polygon fill="black" stroke="black" points="409.966,-72.247 409.958,-61.6522 403.357,-69.9394 409.966,-72.247"/>
<text text-anchor="middle" x="449.569" y="-83.5401" font-family="Times,serif" font-size="14.00"> static(at_lander)</text>
</g>
<!-- n5&#45;&gt;n1 -->
<g id="edge5" class="edge"><title>n5&#45;&gt;n1</title>
<path fill="none" stroke="black" stroke-dasharray="5,2" d="M167.068,-123.374C156.633,-119.777 145.779,-116.097 135.569,-112.74 109.928,-104.311 96.2991,-114.174 77.5685,-94.7401 71.4776,-88.4206 67.5175,-80.153 64.9559,-71.6997"/>
<polygon fill="black" stroke="black" points="68.3115,-70.6863 62.5474,-61.7967 61.5098,-72.3406 68.3115,-70.6863"/>
<text text-anchor="middle" x="169.569" y="-83.5401" font-family="Times,serif" font-size="14.00"> end(communicated_image_data)</text>
</g>
<!-- n5&#45;&gt;n7 -->
<g id="edge10" class="edge"><title>n5&#45;&gt;n7</title>
<path fill="none" stroke="black" stroke-dasharray="5,2" d="M243.221,-113.973C253.453,-102.039 266.504,-88.8647 280.569,-79.7401 301.324,-66.2745 326.302,-56.1198 349.271,-48.7082"/>
<polygon fill="black" stroke="black" points="350.459,-52.0041 358.973,-45.6981 348.385,-45.3185 350.459,-52.0041"/>
<text text-anchor="middle" x="336.569" y="-83.5401" font-family="Times,serif" font-size="14.00"> static(visible_from)</text>
</g>
<!-- n6 -->
<g id="node6" class="node"><title>n6</title>
<ellipse fill="none" stroke="black" cx="600.569" cy="-256.35" rx="67.3507" ry="26.7407"/>
<text text-anchor="middle" x="600.569" y="-260.15" font-family="Times,serif" font-size="14.00">&lt;rover0store&gt;</text>
<text text-anchor="middle" x="600.569" y="-245.15" font-family="Times,serif" font-size="14.00">store</text>
</g>
<!-- n6&#45;&gt;n3 -->
<g id="edge7" class="edge"><title>n6&#45;&gt;n3</title>
<path fill="none" stroke="black" d="M600.569,-229.387C600.569,-214.913 600.569,-196.662 600.569,-180.806"/>
<polygon fill="black" stroke="black" points="604.069,-180.795 600.569,-170.795 597.069,-180.795 604.069,-180.795"/>
<text text-anchor="middle" x="643.569" y="-196.28" font-family="Times,serif" font-size="14.00"> static(store_of)</text>
</g>
<!-- n6&#45;&gt;n6 -->
<g id="edge3" class="edge"><title>n6&#45;&gt;n6</title>
<path fill="none" stroke="black" d="M662.963,-266.511C676.191,-265.479 685.744,-262.092 685.744,-256.35 685.744,-252.178 680.701,-249.249 672.87,-247.564"/>
<polygon fill="black" stroke="black" points="673.349,-244.097 662.963,-246.189 672.387,-251.031 673.349,-244.097"/>
<text text-anchor="middle" x="718.744" y="-252.65" font-family="Times,serif" font-size="14.00"> init(empty)</text>
</g>
<!-- n7&#45;&gt;n7 -->
<g id="edge6" class="edge"><title>n7&#45;&gt;n7</title>
<path fill="none" stroke="black" stroke-dasharray="5,2" d="M482.807,-40.9029C495.321,-39.7378 504.208,-36.3935 504.208,-30.8701 504.208,-26.9864 499.815,-24.1801 492.856,-22.4511"/>
<polygon fill="black" stroke="black" points="493.235,-18.9673 482.807,-20.8373 492.125,-25.8787 493.235,-18.9673"/>
<text text-anchor="middle" x="543.208" y="-27.1701" font-family="Times,serif" font-size="14.00"> static(visible)</text>
</g>
</g>
</svg>
