<?xml version="1.0" encoding="UTF-8" standalone="no"?>
<!DOCTYPE svg PUBLIC "-//W3C//DTD SVG 1.1//EN"
 "http://www.w3.org/Graphics/SVG/1.1/DTD/svg11.dtd">
<!-- Generated by graphviz version 2.38.0 (20140413.2041)
 -->
<!-- Title: Struc Pages: 1 -->
<svg width="3726pt" height="376pt"
 viewBox="0.00 0.00 3726.35 375.96" xmlns="http://www.w3.org/2000/svg" xmlns:xlink="http://www.w3.org/1999/xlink">
<g id="graph0" class="graph" transform="scale(1 1) rotate(0) translate(4 371.96)">
<title>Struc</title>
<polygon fill="white" stroke="none" points="-4,4 -4,-371.96 3722.35,-371.96 3722.35,4 -4,4"/>
<!-- n1 -->
<g id="node1" class="node"><title>n1</title>
<ellipse fill="none" stroke="black" cx="2229.35" cy="-341.09" rx="56.6372" ry="26.7407"/>
<text text-anchor="middle" x="2229.35" y="-344.89" font-family="Times,serif" font-size="14.00">&lt;camera2&gt;</text>
<text text-anchor="middle" x="2229.35" y="-329.89" font-family="Times,serif" font-size="14.00">camera</text>
</g>
<!-- n14 -->
<g id="node14" class="node"><title>n14</title>
<ellipse fill="none" stroke="black" cx="2074.35" cy="-236.35" rx="53.9813" ry="26.7407"/>
<text text-anchor="middle" x="2074.35" y="-240.15" font-family="Times,serif" font-size="14.00">&lt;low_res&gt;</text>
<text text-anchor="middle" x="2074.35" y="-225.15" font-family="Times,serif" font-size="14.00">mode</text>
</g>
<!-- n1&#45;&gt;n14 -->
<g id="edge42" class="edge"><title>n1&#45;&gt;n14</title>
<path fill="none" stroke="black" d="M2180.72,-327.349C2160.13,-320.383 2136.71,-310.252 2118.35,-296.22 2109.27,-289.279 2101.16,-279.987 2094.44,-270.84"/>
<polygon fill="black" stroke="black" points="2097.27,-268.768 2088.69,-262.552 2091.52,-272.762 2097.27,-268.768"/>
<text text-anchor="middle" x="2162.35" y="-285.02" font-family="Times,serif" font-size="14.00"> static(supports)</text>
</g>
<!-- n23 -->
<g id="node23" class="node"><title>n23</title>
<ellipse fill="none" stroke="black" cx="3032.35" cy="-236.35" rx="67.7647" ry="26.7407"/>
<text text-anchor="middle" x="3032.35" y="-240.15" font-family="Times,serif" font-size="14.00">&lt;objective11&gt;</text>
<text text-anchor="middle" x="3032.35" y="-225.15" font-family="Times,serif" font-size="14.00">objective</text>
</g>
<!-- n1&#45;&gt;n23 -->
<g id="edge47" class="edge"><title>n1&#45;&gt;n23</title>
<path fill="none" stroke="black" d="M2286.13,-339.433C2403.49,-337.411 2668.76,-329.218 2752.35,-296.22 2762.36,-292.27 2761.37,-285.24 2771.35,-281.22 2847.57,-250.521 2875,-280.415 2955.35,-263.22 2961.5,-261.903 2967.85,-260.26 2974.14,-258.443"/>
<polygon fill="black" stroke="black" points="2975.38,-261.723 2983.93,-255.467 2973.35,-255.025 2975.38,-261.723"/>
<text text-anchor="middle" x="2839.85" y="-285.02" font-family="Times,serif" font-size="14.00"> static(calibration_target)</text>
</g>
<!-- n27 -->
<g id="node27" class="node"><title>n27</title>
<ellipse fill="none" stroke="black" cx="2194.35" cy="-236.35" rx="48.1667" ry="26.7407"/>
<text text-anchor="middle" x="2194.35" y="-240.15" font-family="Times,serif" font-size="14.00">&lt;rover0&gt;</text>
<text text-anchor="middle" x="2194.35" y="-225.15" font-family="Times,serif" font-size="14.00">rover</text>
</g>
<!-- n1&#45;&gt;n27 -->
<g id="edge5" class="edge"><title>n1&#45;&gt;n27</title>
<path fill="none" stroke="black" d="M2220.61,-314.43C2216.31,-301.803 2211.05,-286.385 2206.38,-272.666"/>
<polygon fill="black" stroke="black" points="2209.64,-271.377 2203.1,-263.04 2203.01,-273.634 2209.64,-271.377"/>
<text text-anchor="middle" x="2260.85" y="-285.02" font-family="Times,serif" font-size="14.00"> static(on_board)</text>
</g>
<!-- n2 -->
<g id="node2" class="node"><title>n2</title>
<ellipse fill="none" stroke="black" cx="290.35" cy="-236.35" rx="62.8651" ry="26.7407"/>
<text text-anchor="middle" x="290.35" y="-240.15" font-family="Times,serif" font-size="14.00">&lt;objective1&gt;</text>
<text text-anchor="middle" x="290.35" y="-225.15" font-family="Times,serif" font-size="14.00">objective</text>
</g>
<!-- n4 -->
<g id="node4" class="node"><title>n4</title>
<ellipse fill="none" stroke="black" cx="1300.35" cy="-26.8701" rx="63.7795" ry="26.7407"/>
<text text-anchor="middle" x="1300.35" y="-30.6701" font-family="Times,serif" font-size="14.00">&lt;waypoint1&gt;</text>
<text text-anchor="middle" x="1300.35" y="-15.6701" font-family="Times,serif" font-size="14.00">waypoint</text>
</g>
<!-- n2&#45;&gt;n4 -->
<g id="edge25" class="edge"><title>n2&#45;&gt;n4</title>
<path fill="none" stroke="black" d="M245.724,-217.138C238.004,-214.344 230.001,-211.667 222.35,-209.48 129.585,-182.969 69.7478,-235.277 11.3497,-158.48 -3.1076,-139.468 -4.26581,-122.813 11.3497,-104.74 51.3054,-58.4968 958.655,-35.2556 1226.54,-29.3859"/>
<polygon fill="black" stroke="black" points="1227,-32.8766 1236.93,-29.1599 1226.85,-25.8783 1227,-32.8766"/>
<text text-anchor="middle" x="67.3497" y="-127.91" font-family="Times,serif" font-size="14.00"> static(visible_from)</text>
</g>
<!-- n20 -->
<g id="node20" class="node"><title>n20</title>
<ellipse fill="none" stroke="black" cx="361.35" cy="-131.61" rx="56.6372" ry="26.7407"/>
<text text-anchor="middle" x="361.35" y="-135.41" font-family="Times,serif" font-size="14.00">&lt;high_res&gt;</text>
<text text-anchor="middle" x="361.35" y="-120.41" font-family="Times,serif" font-size="14.00">mode</text>
</g>
<!-- n2&#45;&gt;n20 -->
<g id="edge15" class="edge"><title>n2&#45;&gt;n20</title>
<path fill="none" stroke="black" d="M241.938,-218.894C232.471,-215.73 222.609,-212.472 213.35,-209.48 187.666,-201.182 171.359,-213.211 155.35,-191.48 151.395,-186.113 151.155,-181.662 155.35,-176.48 159.978,-170.763 240.203,-154.895 299.145,-143.9"/>
<polygon fill="black" stroke="black" points="299.95,-147.31 309.143,-142.043 298.672,-140.428 299.95,-147.31"/>
<text text-anchor="middle" x="247.35" y="-180.28" font-family="Times,serif" font-size="14.00"> end(communicated_image_data)</text>
</g>
<!-- n21 -->
<g id="node21" class="node"><title>n21</title>
<ellipse fill="none" stroke="black" cx="1795.35" cy="-131.61" rx="63.7795" ry="26.7407"/>
<text text-anchor="middle" x="1795.35" y="-135.41" font-family="Times,serif" font-size="14.00">&lt;waypoint0&gt;</text>
<text text-anchor="middle" x="1795.35" y="-120.41" font-family="Times,serif" font-size="14.00">waypoint</text>
</g>
<!-- n2&#45;&gt;n21 -->
<g id="edge13" class="edge"><title>n2&#45;&gt;n21</title>
<path fill="none" stroke="black" d="M335.161,-217.31C344.053,-214.284 353.406,-211.482 362.35,-209.48 444.261,-191.146 468.567,-210.38 550.35,-191.48 568.849,-187.205 571.722,-180.153 590.35,-176.48 718.608,-151.19 1047.71,-163.219 1178.35,-158.48 1374.91,-151.351 1606.63,-141.153 1722.16,-135.947"/>
<polygon fill="black" stroke="black" points="1722.46,-139.437 1732.3,-135.489 1722.15,-132.444 1722.46,-139.437"/>
<text text-anchor="middle" x="646.35" y="-180.28" font-family="Times,serif" font-size="14.00"> static(visible_from)</text>
</g>
<!-- n3 -->
<g id="node3" class="node"><title>n3</title>
<ellipse fill="none" stroke="black" cx="439.35" cy="-236.35" rx="67.7647" ry="26.7407"/>
<text text-anchor="middle" x="439.35" y="-240.15" font-family="Times,serif" font-size="14.00">&lt;objective14&gt;</text>
<text text-anchor="middle" x="439.35" y="-225.15" font-family="Times,serif" font-size="14.00">objective</text>
</g>
<!-- n3&#45;&gt;n4 -->
<g id="edge8" class="edge"><title>n3&#45;&gt;n4</title>
<path fill="none" stroke="black" d="M391.369,-217.261C381.865,-214.24 371.878,-211.452 362.35,-209.48 338.983,-204.646 164.5,-209.046 148.35,-191.48 124.132,-165.14 104.067,-158.147 183.35,-104.74 269.528,-46.6881 990.994,-31.9843 1226.39,-28.7149"/>
<polygon fill="black" stroke="black" points="1226.61,-32.2124 1236.57,-28.5766 1226.52,-25.213 1226.61,-32.2124"/>
<text text-anchor="middle" x="239.35" y="-127.91" font-family="Times,serif" font-size="14.00"> static(visible_from)</text>
</g>
<!-- n3&#45;&gt;n20 -->
<g id="edge27" class="edge"><title>n3&#45;&gt;n20</title>
<path fill="none" stroke="black" d="M390.703,-217.607C379.493,-211.144 368.938,-202.598 362.35,-191.48 358.328,-184.693 356.64,-176.648 356.245,-168.719"/>
<polygon fill="black" stroke="black" points="359.747,-168.526 356.381,-158.48 352.748,-168.432 359.747,-168.526"/>
<text text-anchor="middle" x="454.35" y="-180.28" font-family="Times,serif" font-size="14.00"> end(communicated_image_data)</text>
</g>
<!-- n3&#45;&gt;n21 -->
<g id="edge30" class="edge"><title>n3&#45;&gt;n21</title>
<path fill="none" stroke="black" d="M492.974,-219.784C507.593,-215.967 523.497,-212.201 538.35,-209.48 612.215,-195.95 636.824,-219.857 706.35,-191.48 716.311,-187.415 715.258,-180.21 725.35,-176.48 772.599,-159.018 1128.02,-160.535 1178.35,-158.48 1374.88,-150.456 1606.61,-140.646 1722.15,-135.731"/>
<polygon fill="black" stroke="black" points="1722.45,-139.222 1732.29,-135.3 1722.15,-132.228 1722.45,-139.222"/>
<text text-anchor="middle" x="781.35" y="-180.28" font-family="Times,serif" font-size="14.00"> static(visible_from)</text>
</g>
<!-- n4&#45;&gt;n21 -->
<g id="edge10" class="edge"><title>n4&#45;&gt;n21</title>
<path fill="none" stroke="black" d="M1356.6,-39.5447C1448.68,-58.6563 1631.13,-96.526 1729.25,-116.89"/>
<polygon fill="black" stroke="black" points="1728.55,-120.319 1739.05,-118.925 1729.97,-113.465 1728.55,-120.319"/>
<text text-anchor="middle" x="1617.35" y="-75.5401" font-family="Times,serif" font-size="14.00"> static(visible)</text>
</g>
<!-- n5 -->
<g id="node5" class="node"><title>n5</title>
<ellipse fill="none" stroke="black" cx="408.35" cy="-341.09" rx="56.6372" ry="26.7407"/>
<text text-anchor="middle" x="408.35" y="-344.89" font-family="Times,serif" font-size="14.00">&lt;camera0&gt;</text>
<text text-anchor="middle" x="408.35" y="-329.89" font-family="Times,serif" font-size="14.00">camera</text>
</g>
<!-- n16 -->
<g id="node16" class="node"><title>n16</title>
<ellipse fill="none" stroke="black" cx="1205.35" cy="-236.35" rx="62.8651" ry="26.7407"/>
<text text-anchor="middle" x="1205.35" y="-240.15" font-family="Times,serif" font-size="14.00">&lt;objective6&gt;</text>
<text text-anchor="middle" x="1205.35" y="-225.15" font-family="Times,serif" font-size="14.00">objective</text>
</g>
<!-- n5&#45;&gt;n16 -->
<g id="edge11" class="edge"><title>n5&#45;&gt;n16</title>
<path fill="none" stroke="black" d="M464.325,-336.108C581.851,-327.248 862.672,-303.45 1095.35,-263.22 1110.73,-260.561 1127.18,-257.055 1142.54,-253.487"/>
<polygon fill="black" stroke="black" points="1143.53,-256.849 1152.46,-251.14 1141.92,-250.036 1143.53,-256.849"/>
<text text-anchor="middle" x="1033.85" y="-285.02" font-family="Times,serif" font-size="14.00"> static(calibration_target)</text>
</g>
<!-- n5&#45;&gt;n20 -->
<g id="edge36" class="edge"><title>n5&#45;&gt;n20</title>
<path fill="none" stroke="black" d="M354.169,-332.908C281.198,-321.995 157.339,-298.685 130.35,-263.22 106.506,-231.889 116.705,-199.907 148.35,-176.48 160.433,-167.534 239.941,-152.737 298.291,-142.833"/>
<polygon fill="black" stroke="black" points="298.909,-146.278 308.189,-141.165 297.746,-139.376 298.909,-146.278"/>
<text text-anchor="middle" x="174.35" y="-232.65" font-family="Times,serif" font-size="14.00"> static(supports)</text>
</g>
<!-- n5&#45;&gt;n27 -->
<g id="edge24" class="edge"><title>n5&#45;&gt;n27</title>
<path fill="none" stroke="black" d="M464.793,-338.262C598.252,-333.95 943.722,-322.861 1232.35,-314.22 1302.57,-312.118 1798.32,-320.202 1864.35,-296.22 1874.46,-292.548 1873.32,-285.106 1883.35,-281.22 1988.88,-240.346 2027.65,-291.044 2137.35,-263.22 2141.73,-262.108 2146.2,-260.674 2150.6,-259.051"/>
<polygon fill="black" stroke="black" points="2152.11,-262.218 2160.09,-255.251 2149.51,-255.72 2152.11,-262.218"/>
<text text-anchor="middle" x="1929.85" y="-285.02" font-family="Times,serif" font-size="14.00"> static(on_board)</text>
</g>
<!-- n6 -->
<g id="node6" class="node"><title>n6</title>
<ellipse fill="none" stroke="black" cx="1502.35" cy="-236.35" rx="67.7647" ry="26.7407"/>
<text text-anchor="middle" x="1502.35" y="-240.15" font-family="Times,serif" font-size="14.00">&lt;objective13&gt;</text>
<text text-anchor="middle" x="1502.35" y="-225.15" font-family="Times,serif" font-size="14.00">objective</text>
</g>
<!-- n6&#45;&gt;n21 -->
<g id="edge18" class="edge"><title>n6&#45;&gt;n21</title>
<path fill="none" stroke="black" d="M1517.89,-209.96C1526.55,-197.95 1538.41,-184.513 1552.35,-176.48 1603.87,-146.8 1670.89,-136.403 1721.49,-133.107"/>
<polygon fill="black" stroke="black" points="1721.93,-136.588 1731.71,-132.523 1721.53,-129.599 1721.93,-136.588"/>
<text text-anchor="middle" x="1608.35" y="-180.28" font-family="Times,serif" font-size="14.00"> static(visible_from)</text>
</g>
<!-- n7 -->
<g id="node7" class="node"><title>n7</title>
<ellipse fill="none" stroke="black" cx="3483.35" cy="-236.35" rx="62.8651" ry="26.7407"/>
<text text-anchor="middle" x="3483.35" y="-240.15" font-family="Times,serif" font-size="14.00">&lt;objective5&gt;</text>
<text text-anchor="middle" x="3483.35" y="-225.15" font-family="Times,serif" font-size="14.00">objective</text>
</g>
<!-- n7&#45;&gt;n4 -->
<g id="edge21" class="edge"><title>n7&#45;&gt;n4</title>
<path fill="none" stroke="black" d="M3478.78,-209.403C3475.27,-197.407 3469.11,-184.147 3458.35,-176.48 3285.33,-53.2288 1732.39,-31.7562 1373.94,-28.4307"/>
<polygon fill="black" stroke="black" points="1373.97,-24.9309 1363.93,-28.3398 1373.9,-31.9306 1373.97,-24.9309"/>
<text text-anchor="middle" x="3466.35" y="-127.91" font-family="Times,serif" font-size="14.00"> static(visible_from)</text>
</g>
<!-- n7&#45;&gt;n21 -->
<g id="edge38" class="edge"><title>n7&#45;&gt;n21</title>
<path fill="none" stroke="black" d="M3437.05,-218.138C3428.54,-215.139 3419.7,-212.134 3411.35,-209.48 3382.78,-200.406 3374,-203.063 3346.35,-191.48 3334.05,-186.325 3333.19,-180.116 3320.35,-176.48 3180.25,-136.796 2155.54,-132.918 1869.39,-132.614"/>
<polygon fill="black" stroke="black" points="1869.12,-129.114 1859.12,-132.604 1869.12,-136.114 1869.12,-129.114"/>
<text text-anchor="middle" x="3402.35" y="-180.28" font-family="Times,serif" font-size="14.00"> static(visible_from)</text>
</g>
<!-- n8 -->
<g id="node8" class="node"><title>n8</title>
<ellipse fill="none" stroke="black" cx="1795.35" cy="-236.35" rx="62.8651" ry="26.7407"/>
<text text-anchor="middle" x="1795.35" y="-240.15" font-family="Times,serif" font-size="14.00">&lt;objective0&gt;</text>
<text text-anchor="middle" x="1795.35" y="-225.15" font-family="Times,serif" font-size="14.00">objective</text>
</g>
<!-- n8&#45;&gt;n21 -->
<g id="edge7" class="edge"><title>n8&#45;&gt;n21</title>
<path fill="none" stroke="black" d="M1795.35,-209.425C1795.35,-197.135 1795.35,-182.247 1795.35,-168.862"/>
<polygon fill="black" stroke="black" points="1798.85,-168.528 1795.35,-158.528 1791.85,-168.528 1798.85,-168.528"/>
<text text-anchor="middle" x="1851.35" y="-180.28" font-family="Times,serif" font-size="14.00"> static(visible_from)</text>
</g>
<!-- n9 -->
<g id="node9" class="node"><title>n9</title>
<ellipse fill="none" stroke="black" cx="2868.35" cy="-341.09" rx="67.3507" ry="26.7407"/>
<text text-anchor="middle" x="2868.35" y="-344.89" font-family="Times,serif" font-size="14.00">&lt;rover0store&gt;</text>
<text text-anchor="middle" x="2868.35" y="-329.89" font-family="Times,serif" font-size="14.00">store</text>
</g>
<!-- n9&#45;&gt;n9 -->
<g id="edge1" class="edge"><title>n9&#45;&gt;n9</title>
<path fill="none" stroke="black" d="M2931.5,-350.468C2944.33,-349.447 2953.52,-346.321 2953.52,-341.09 2953.52,-337.413 2948.98,-334.775 2941.82,-333.179"/>
<polygon fill="black" stroke="black" points="2941.89,-329.653 2931.5,-331.712 2940.9,-336.584 2941.89,-329.653"/>
<text text-anchor="middle" x="2986.52" y="-337.39" font-family="Times,serif" font-size="14.00"> init(empty)</text>
</g>
<!-- n9&#45;&gt;n27 -->
<g id="edge33" class="edge"><title>n9&#45;&gt;n27</title>
<path fill="none" stroke="black" d="M2901.08,-317.529C2913.8,-306.111 2923.05,-292.351 2912.35,-281.22 2894.78,-262.943 2481.64,-264.967 2456.35,-263.22 2385.6,-258.335 2304.37,-249.869 2251.35,-243.957"/>
<polygon fill="black" stroke="black" points="2251.46,-240.447 2241.13,-242.81 2250.68,-247.404 2251.46,-240.447"/>
<text text-anchor="middle" x="2960.35" y="-285.02" font-family="Times,serif" font-size="14.00"> static(store_of)</text>
</g>
<!-- n10 -->
<g id="node10" class="node"><title>n10</title>
<ellipse fill="none" stroke="black" cx="1939.35" cy="-236.35" rx="62.8651" ry="26.7407"/>
<text text-anchor="middle" x="1939.35" y="-240.15" font-family="Times,serif" font-size="14.00">&lt;objective3&gt;</text>
<text text-anchor="middle" x="1939.35" y="-225.15" font-family="Times,serif" font-size="14.00">objective</text>
</g>
<!-- n10&#45;&gt;n21 -->
<g id="edge46" class="edge"><title>n10&#45;&gt;n21</title>
<path fill="none" stroke="black" d="M1931.94,-209.47C1927.55,-198.072 1920.92,-185.297 1911.35,-176.48 1897.32,-163.559 1879.1,-154.327 1861.29,-147.778"/>
<polygon fill="black" stroke="black" points="1862.05,-144.341 1851.46,-144.41 1859.78,-150.963 1862.05,-144.341"/>
<text text-anchor="middle" x="1979.35" y="-180.28" font-family="Times,serif" font-size="14.00"> static(visible_from)</text>
</g>
<!-- n11 -->
<g id="node11" class="node"><title>n11</title>
<ellipse fill="none" stroke="black" cx="1304.35" cy="-341.09" rx="62.8651" ry="26.7407"/>
<text text-anchor="middle" x="1304.35" y="-344.89" font-family="Times,serif" font-size="14.00">&lt;objective4&gt;</text>
<text text-anchor="middle" x="1304.35" y="-329.89" font-family="Times,serif" font-size="14.00">objective</text>
</g>
<!-- n11&#45;&gt;n4 -->
<g id="edge26" class="edge"><title>n11&#45;&gt;n4</title>
<path fill="none" stroke="black" d="M1246.08,-330.612C1206.92,-320.885 1158.1,-301.482 1133.35,-263.22 1120.38,-243.166 1118.56,-228.237 1133.35,-209.48 1154.57,-182.56 1181,-212.145 1208.35,-191.48 1251.07,-159.201 1276.85,-100.954 1289.84,-63.3736"/>
<polygon fill="black" stroke="black" points="1293.18,-64.4208 1293.02,-53.8272 1286.54,-62.2098 1293.18,-64.4208"/>
<text text-anchor="middle" x="1282.35" y="-180.28" font-family="Times,serif" font-size="14.00"> static(visible_from)</text>
</g>
<!-- n11&#45;&gt;n14 -->
<g id="edge40" class="edge"><title>n11&#45;&gt;n14</title>
<path fill="none" stroke="black" d="M1338.85,-318.425C1362.28,-304.966 1394.5,-288.827 1425.35,-281.22 1551.84,-250.029 1883.93,-290.401 2011.35,-263.22 2016.42,-262.138 2021.61,-260.667 2026.72,-258.972"/>
<polygon fill="black" stroke="black" points="2028.18,-262.165 2036.4,-255.48 2025.81,-255.58 2028.18,-262.165"/>
<text text-anchor="middle" x="1517.35" y="-285.02" font-family="Times,serif" font-size="14.00"> end(communicated_image_data)</text>
</g>
<!-- n11&#45;&gt;n21 -->
<g id="edge9" class="edge"><title>n11&#45;&gt;n21</title>
<path fill="none" stroke="black" d="M1297.43,-314.161C1291.28,-284.659 1286.89,-237.014 1313.35,-209.48 1338.91,-182.885 1442.16,-198.618 1478.35,-191.48 1501.95,-186.825 1506.89,-181.787 1530.35,-176.48 1595.83,-161.668 1671.48,-149.641 1725.14,-141.951"/>
<polygon fill="black" stroke="black" points="1725.83,-145.389 1735.23,-140.519 1724.84,-138.459 1725.83,-145.389"/>
<text text-anchor="middle" x="1369.35" y="-232.65" font-family="Times,serif" font-size="14.00"> static(visible_from)</text>
</g>
<!-- n12 -->
<g id="node12" class="node"><title>n12</title>
<ellipse fill="none" stroke="black" cx="1651.35" cy="-236.35" rx="62.8651" ry="26.7407"/>
<text text-anchor="middle" x="1651.35" y="-240.15" font-family="Times,serif" font-size="14.00">&lt;objective7&gt;</text>
<text text-anchor="middle" x="1651.35" y="-225.15" font-family="Times,serif" font-size="14.00">objective</text>
</g>
<!-- n12&#45;&gt;n21 -->
<g id="edge48" class="edge"><title>n12&#45;&gt;n21</title>
<path fill="none" stroke="black" d="M1658.76,-209.47C1663.15,-198.072 1669.78,-185.297 1679.35,-176.48 1693.38,-163.559 1711.59,-154.327 1729.41,-147.778"/>
<polygon fill="black" stroke="black" points="1730.92,-150.963 1739.24,-144.41 1728.65,-144.341 1730.92,-150.963"/>
<text text-anchor="middle" x="1735.35" y="-180.28" font-family="Times,serif" font-size="14.00"> static(visible_from)</text>
</g>
<!-- n13 -->
<g id="node13" class="node"><title>n13</title>
<ellipse fill="none" stroke="black" cx="1023.35" cy="-236.35" rx="62.8651" ry="26.7407"/>
<text text-anchor="middle" x="1023.35" y="-240.15" font-family="Times,serif" font-size="14.00">&lt;objective8&gt;</text>
<text text-anchor="middle" x="1023.35" y="-225.15" font-family="Times,serif" font-size="14.00">objective</text>
</g>
<!-- n13&#45;&gt;n4 -->
<g id="edge17" class="edge"><title>n13&#45;&gt;n4</title>
<path fill="none" stroke="black" d="M1037.92,-209.981C1058.63,-174.217 1095.1,-112.448 1104.35,-104.74 1141.83,-73.504 1193.52,-53.9422 1234.41,-42.373"/>
<polygon fill="black" stroke="black" points="1235.56,-45.6855 1244.29,-39.6722 1233.72,-38.9333 1235.56,-45.6855"/>
<text text-anchor="middle" x="1160.35" y="-127.91" font-family="Times,serif" font-size="14.00"> static(visible_from)</text>
</g>
<!-- n13&#45;&gt;n20 -->
<g id="edge22" class="edge"><title>n13&#45;&gt;n20</title>
<path fill="none" stroke="black" d="M967.062,-224.288C935.964,-217.083 897.112,-206.251 864.35,-191.48 853.224,-186.464 852.877,-180.487 841.35,-176.48 766.808,-150.571 541.551,-139.026 428.125,-134.743"/>
<polygon fill="black" stroke="black" points="427.959,-131.235 417.837,-134.363 427.701,-138.23 427.959,-131.235"/>
<text text-anchor="middle" x="956.35" y="-180.28" font-family="Times,serif" font-size="14.00"> end(communicated_image_data)</text>
</g>
<!-- n13&#45;&gt;n21 -->
<g id="edge23" class="edge"><title>n13&#45;&gt;n21</title>
<path fill="none" stroke="black" d="M1049.27,-211.633C1065.78,-197.096 1085.95,-180.52 1096.35,-176.48 1153.45,-154.289 1553.84,-139.849 1721.64,-134.709"/>
<polygon fill="black" stroke="black" points="1721.98,-138.201 1731.86,-134.399 1721.76,-131.204 1721.98,-138.201"/>
<text text-anchor="middle" x="1152.35" y="-180.28" font-family="Times,serif" font-size="14.00"> static(visible_from)</text>
</g>
<!-- n15 -->
<g id="node15" class="node"><title>n15</title>
<ellipse fill="none" stroke="black" cx="3243.35" cy="-341.09" rx="56.6372" ry="26.7407"/>
<text text-anchor="middle" x="3243.35" y="-344.89" font-family="Times,serif" font-size="14.00">&lt;camera3&gt;</text>
<text text-anchor="middle" x="3243.35" y="-329.89" font-family="Times,serif" font-size="14.00">camera</text>
</g>
<!-- n15&#45;&gt;n14 -->
<g id="edge19" class="edge"><title>n15&#45;&gt;n14</title>
<path fill="none" stroke="black" d="M3201.92,-322.533C3192.37,-319.18 3182.14,-316.126 3172.35,-314.22 3060.6,-292.464 2767.23,-335.442 2660.35,-296.22 2650.25,-292.514 2651.45,-284.93 2641.35,-281.22 2536.15,-242.581 2246.9,-286.875 2137.35,-263.22 2132.28,-262.125 2127.1,-260.646 2121.99,-258.946"/>
<polygon fill="black" stroke="black" points="2122.9,-255.554 2112.31,-255.448 2120.52,-262.138 2122.9,-255.554"/>
<text text-anchor="middle" x="2704.35" y="-285.02" font-family="Times,serif" font-size="14.00"> static(supports)</text>
</g>
<!-- n18 -->
<g id="node18" class="node"><title>n18</title>
<ellipse fill="none" stroke="black" cx="2657.35" cy="-236.35" rx="48.1667" ry="26.7407"/>
<text text-anchor="middle" x="2657.35" y="-240.15" font-family="Times,serif" font-size="14.00">&lt;colour&gt;</text>
<text text-anchor="middle" x="2657.35" y="-225.15" font-family="Times,serif" font-size="14.00">mode</text>
</g>
<!-- n15&#45;&gt;n18 -->
<g id="edge14" class="edge"><title>n15&#45;&gt;n18</title>
<path fill="none" stroke="black" d="M3242.95,-313.981C3241.31,-302.098 3237.14,-288.984 3227.35,-281.22 3182.65,-245.791 2769.88,-276.255 2714.35,-263.22 2709.95,-262.187 2705.47,-260.805 2701.05,-259.216"/>
<polygon fill="black" stroke="black" points="2702.14,-255.882 2691.55,-255.461 2699.57,-262.392 2702.14,-255.882"/>
<text text-anchor="middle" x="3282.35" y="-285.02" font-family="Times,serif" font-size="14.00"> static(supports)</text>
</g>
<!-- n15&#45;&gt;n23 -->
<g id="edge44" class="edge"><title>n15&#45;&gt;n23</title>
<path fill="none" stroke="black" d="M3292.87,-327.936C3324.87,-317.813 3357.3,-301.753 3338.35,-281.22 3321.42,-262.871 3138.86,-268.007 3114.35,-263.22 3106.83,-261.752 3099.03,-259.832 3091.36,-257.701"/>
<polygon fill="black" stroke="black" points="3092.33,-254.338 3081.75,-254.907 3090.38,-261.06 3092.33,-254.338"/>
<text text-anchor="middle" x="3412.85" y="-285.02" font-family="Times,serif" font-size="14.00"> static(calibration_target)</text>
</g>
<!-- n15&#45;&gt;n27 -->
<g id="edge6" class="edge"><title>n15&#45;&gt;n27</title>
<path fill="none" stroke="black" d="M3200.51,-323.296C3191.31,-320.021 3181.57,-316.806 3172.35,-314.22 3100.34,-294.027 3081.64,-289.804 3007.35,-281.22 2763.95,-253.099 2700.84,-279.267 2456.35,-263.22 2385.58,-258.576 2304.36,-250.058 2251.34,-244.069"/>
<polygon fill="black" stroke="black" points="2251.46,-240.559 2241.13,-242.906 2250.67,-247.514 2251.46,-240.559"/>
<text text-anchor="middle" x="3148.85" y="-285.02" font-family="Times,serif" font-size="14.00"> static(on_board)</text>
</g>
<!-- n16&#45;&gt;n21 -->
<g id="edge35" class="edge"><title>n16&#45;&gt;n21</title>
<path fill="none" stroke="black" d="M1253.32,-218.928C1262.91,-215.729 1272.94,-212.45 1282.35,-209.48 1309.31,-200.978 1317.68,-203.326 1343.35,-191.48 1354.43,-186.366 1354.84,-180.549 1366.35,-176.48 1430.05,-153.955 1617.17,-141.385 1722.02,-135.93"/>
<polygon fill="black" stroke="black" points="1722.41,-139.415 1732.21,-135.408 1722.05,-132.424 1722.41,-139.415"/>
<text text-anchor="middle" x="1422.35" y="-180.28" font-family="Times,serif" font-size="14.00"> static(visible_from)</text>
</g>
<!-- n17 -->
<g id="node17" class="node"><title>n17</title>
<ellipse fill="none" stroke="black" cx="2528.35" cy="-236.35" rx="62.8651" ry="26.7407"/>
<text text-anchor="middle" x="2528.35" y="-240.15" font-family="Times,serif" font-size="14.00">&lt;objective9&gt;</text>
<text text-anchor="middle" x="2528.35" y="-225.15" font-family="Times,serif" font-size="14.00">objective</text>
</g>
<!-- n17&#45;&gt;n21 -->
<g id="edge31" class="edge"><title>n17&#45;&gt;n21</title>
<path fill="none" stroke="black" d="M2483.5,-217.455C2474.62,-214.417 2465.27,-211.573 2456.35,-209.48 2246.57,-160.282 1991.62,-141.969 1868.66,-135.652"/>
<polygon fill="black" stroke="black" points="1868.76,-132.153 1858.6,-135.148 1868.41,-139.145 1868.76,-132.153"/>
<text text-anchor="middle" x="2424.35" y="-180.28" font-family="Times,serif" font-size="14.00"> static(visible_from)</text>
</g>
<!-- n19 -->
<g id="node19" class="node"><title>n19</title>
<ellipse fill="none" stroke="black" cx="2775.35" cy="-236.35" rx="51.7379" ry="26.7407"/>
<text text-anchor="middle" x="2775.35" y="-240.15" font-family="Times,serif" font-size="14.00">&lt;general&gt;</text>
<text text-anchor="middle" x="2775.35" y="-225.15" font-family="Times,serif" font-size="14.00">lander</text>
</g>
<!-- n19&#45;&gt;n19 -->
<g id="edge2" class="edge"><title>n19&#45;&gt;n19</title>
<path fill="none" stroke="black" d="M2823.83,-245.966C2835.93,-245.294 2844.97,-242.089 2844.97,-236.35 2844.97,-232.405 2840.69,-229.657 2834.09,-228.107"/>
<polygon fill="black" stroke="black" points="2834.2,-224.59 2823.83,-226.734 2833.27,-231.529 2834.2,-224.59"/>
<text text-anchor="middle" x="2895.47" y="-232.65" font-family="Times,serif" font-size="14.00"> init(channel_free)</text>
</g>
<!-- n19&#45;&gt;n21 -->
<g id="edge43" class="edge"><title>n19&#45;&gt;n21</title>
<path fill="none" stroke="black" d="M2737.82,-217.649C2730.18,-214.556 2722.11,-211.642 2714.35,-209.48 2614.87,-181.755 2587.07,-187.103 2484.35,-176.48 2260.83,-153.365 1995.17,-140.578 1868.97,-135.388"/>
<polygon fill="black" stroke="black" points="1868.79,-131.879 1858.66,-134.969 1868.51,-138.873 1868.79,-131.879"/>
<text text-anchor="middle" x="2682.35" y="-180.28" font-family="Times,serif" font-size="14.00"> static(at_lander)</text>
</g>
<!-- n21&#45;&gt;n4 -->
<g id="edge34" class="edge"><title>n21&#45;&gt;n4</title>
<path fill="none" stroke="black" d="M1732.04,-128.35C1659.49,-124.509 1537.55,-114.21 1436.35,-86.7401 1406.05,-78.5164 1373.74,-64.7584 1348.22,-52.6099"/>
<polygon fill="black" stroke="black" points="1349.67,-49.4217 1339.14,-48.2201 1346.62,-55.7238 1349.67,-49.4217"/>
<text text-anchor="middle" x="1475.35" y="-75.5401" font-family="Times,serif" font-size="14.00"> static(visible)</text>
</g>
<!-- n22 -->
<g id="node22" class="node"><title>n22</title>
<ellipse fill="none" stroke="black" cx="3632.35" cy="-236.35" rx="67.7647" ry="26.7407"/>
<text text-anchor="middle" x="3632.35" y="-240.15" font-family="Times,serif" font-size="14.00">&lt;objective10&gt;</text>
<text text-anchor="middle" x="3632.35" y="-225.15" font-family="Times,serif" font-size="14.00">objective</text>
</g>
<!-- n22&#45;&gt;n4 -->
<g id="edge12" class="edge"><title>n22&#45;&gt;n4</title>
<path fill="none" stroke="black" d="M3629.98,-209.235C3628.06,-198.44 3624.6,-186.203 3618.35,-176.48 3590.33,-132.855 3574.95,-122.8 3526.35,-104.74 3246.88,-0.899506 3154.27,-83.2753 2856.35,-71.7401 2286.16,-49.6624 1598.02,-34.1596 1374.39,-29.405"/>
<polygon fill="black" stroke="black" points="1374.17,-25.8996 1364.1,-29.1867 1374.02,-32.898 1374.17,-25.8996"/>
<text text-anchor="middle" x="3662.35" y="-127.91" font-family="Times,serif" font-size="14.00"> static(visible_from)</text>
</g>
<!-- n22&#45;&gt;n21 -->
<g id="edge41" class="edge"><title>n22&#45;&gt;n21</title>
<path fill="none" stroke="black" d="M3582.42,-217.959C3532.83,-200.7 3463.92,-176.766 3462.35,-176.48 3304.62,-147.804 2171.88,-135.909 1869.43,-133.223"/>
<polygon fill="black" stroke="black" points="1869.05,-129.72 1859.02,-133.132 1868.99,-136.72 1869.05,-129.72"/>
<text text-anchor="middle" x="3561.35" y="-180.28" font-family="Times,serif" font-size="14.00"> static(visible_from)</text>
</g>
<!-- n23&#45;&gt;n21 -->
<g id="edge29" class="edge"><title>n23&#45;&gt;n21</title>
<path fill="none" stroke="black" d="M2983.44,-217.474C2974.19,-214.508 2964.54,-211.685 2955.35,-209.48 2857.93,-186.101 2832.07,-186.169 2732.35,-176.48 2411.97,-145.353 2027.73,-136.14 1869.24,-133.557"/>
<polygon fill="black" stroke="black" points="1869.18,-130.056 1859.13,-133.396 1869.07,-137.055 1869.18,-130.056"/>
<text text-anchor="middle" x="2923.35" y="-180.28" font-family="Times,serif" font-size="14.00"> static(visible_from)</text>
</g>
<!-- n24 -->
<g id="node24" class="node"><title>n24</title>
<ellipse fill="none" stroke="black" cx="1775.35" cy="-341.09" rx="56.6372" ry="26.7407"/>
<text text-anchor="middle" x="1775.35" y="-344.89" font-family="Times,serif" font-size="14.00">&lt;camera1&gt;</text>
<text text-anchor="middle" x="1775.35" y="-329.89" font-family="Times,serif" font-size="14.00">camera</text>
</g>
<!-- n24&#45;&gt;n12 -->
<g id="edge39" class="edge"><title>n24&#45;&gt;n12</title>
<path fill="none" stroke="black" d="M1721.6,-332.329C1680.67,-325.189 1629.23,-313.136 1616.35,-296.22 1609.9,-287.746 1612.25,-277.994 1618.03,-268.897"/>
<polygon fill="black" stroke="black" points="1620.92,-270.873 1624.15,-260.781 1615.33,-266.659 1620.92,-270.873"/>
<text text-anchor="middle" x="1684.85" y="-285.02" font-family="Times,serif" font-size="14.00"> static(calibration_target)</text>
</g>
<!-- n24&#45;&gt;n14 -->
<g id="edge4" class="edge"><title>n24&#45;&gt;n14</title>
<path fill="none" stroke="black" d="M1768.62,-314.271C1767.25,-302.747 1768.22,-289.85 1776.35,-281.22 1794.31,-262.161 1985.87,-269.268 2011.35,-263.22 2016.33,-262.039 2021.42,-260.518 2026.45,-258.806"/>
<polygon fill="black" stroke="black" points="2027.81,-262.037 2036,-255.317 2025.4,-255.463 2027.81,-262.037"/>
<text text-anchor="middle" x="1820.35" y="-285.02" font-family="Times,serif" font-size="14.00"> static(supports)</text>
</g>
<!-- n24&#45;&gt;n18 -->
<g id="edge16" class="edge"><title>n24&#45;&gt;n18</title>
<path fill="none" stroke="black" d="M1831.23,-336.055C1906.61,-330.683 2045.07,-321.064 2163.35,-314.22 2244.87,-309.504 2452.67,-321.398 2530.35,-296.22 2541.96,-292.457 2542.48,-286.767 2553.35,-281.22 2573.27,-271.054 2579.71,-271.847 2600.35,-263.22 2604.02,-261.685 2607.81,-260.059 2611.61,-258.4"/>
<polygon fill="black" stroke="black" points="2613.28,-261.49 2621,-254.24 2610.44,-255.089 2613.28,-261.49"/>
<text text-anchor="middle" x="2597.35" y="-285.02" font-family="Times,serif" font-size="14.00"> static(supports)</text>
</g>
<!-- n24&#45;&gt;n20 -->
<g id="edge37" class="edge"><title>n24&#45;&gt;n20</title>
<path fill="none" stroke="black" d="M1719.43,-336.55C1547.74,-325.496 1029.82,-290.718 863.35,-263.22 732.776,-241.652 697.853,-239.037 574.35,-191.48 561.175,-186.407 559.551,-181.484 546.35,-176.48 506.851,-161.508 460.614,-150.542 424.245,-143.319"/>
<polygon fill="black" stroke="black" points="424.747,-139.851 414.263,-141.38 423.412,-146.722 424.747,-139.851"/>
<text text-anchor="middle" x="907.35" y="-232.65" font-family="Times,serif" font-size="14.00"> static(supports)</text>
</g>
<!-- n24&#45;&gt;n27 -->
<g id="edge20" class="edge"><title>n24&#45;&gt;n27</title>
<path fill="none" stroke="black" d="M1829.68,-332.956C1871.73,-326.372 1930.94,-314.76 1980.35,-296.22 1993.2,-291.398 1994.33,-285.569 2007.35,-281.22 2062.67,-262.742 2081.32,-279.442 2137.35,-263.22 2141.63,-261.98 2146.01,-260.472 2150.34,-258.814"/>
<polygon fill="black" stroke="black" points="2151.75,-262.018 2159.68,-254.993 2149.1,-255.539 2151.75,-262.018"/>
<text text-anchor="middle" x="2053.85" y="-285.02" font-family="Times,serif" font-size="14.00"> static(on_board)</text>
</g>
<!-- n25 -->
<g id="node25" class="node"><title>n25</title>
<ellipse fill="none" stroke="black" cx="3100.35" cy="-341.09" rx="62.8651" ry="26.7407"/>
<text text-anchor="middle" x="3100.35" y="-344.89" font-family="Times,serif" font-size="14.00">&lt;objective2&gt;</text>
<text text-anchor="middle" x="3100.35" y="-329.89" font-family="Times,serif" font-size="14.00">objective</text>
</g>
<!-- n25&#45;&gt;n14 -->
<g id="edge49" class="edge"><title>n25&#45;&gt;n14</title>
<path fill="none" stroke="black" d="M3056.41,-321.813C3047.28,-318.725 3037.62,-315.96 3028.35,-314.22 2878.47,-286.081 2490.53,-332.239 2342.35,-296.22 2327.48,-292.605 2326.07,-285.404 2311.35,-281.22 2236.56,-259.969 2212.75,-282.181 2137.35,-263.22 2132.46,-261.99 2127.45,-260.452 2122.49,-258.742"/>
<polygon fill="black" stroke="black" points="2123.68,-255.448 2113.08,-255.279 2121.26,-262.017 2123.68,-255.448"/>
<text text-anchor="middle" x="2434.35" y="-285.02" font-family="Times,serif" font-size="14.00"> end(communicated_image_data)</text>
</g>
<!-- n25&#45;&gt;n21 -->
<g id="edge45" class="edge"><title>n25&#45;&gt;n21</title>
<path fill="none" stroke="black" d="M3106.07,-314.152C3112.78,-280.793 3121.54,-225.269 3109.35,-209.48 3073.98,-163.654 3040.62,-184.932 2983.35,-176.48 2766.8,-144.52 2093.5,-135.404 1869.02,-133.218"/>
<polygon fill="black" stroke="black" points="1869.03,-129.718 1859,-133.122 1868.96,-136.718 1869.03,-129.718"/>
<text text-anchor="middle" x="3172.35" y="-232.65" font-family="Times,serif" font-size="14.00"> static(visible_from)</text>
</g>
<!-- n26 -->
<g id="node26" class="node"><title>n26</title>
<ellipse fill="none" stroke="black" cx="3334.35" cy="-236.35" rx="67.7647" ry="26.7407"/>
<text text-anchor="middle" x="3334.35" y="-240.15" font-family="Times,serif" font-size="14.00">&lt;objective12&gt;</text>
<text text-anchor="middle" x="3334.35" y="-225.15" font-family="Times,serif" font-size="14.00">objective</text>
</g>
<!-- n26&#45;&gt;n21 -->
<g id="edge32" class="edge"><title>n26&#45;&gt;n21</title>
<path fill="none" stroke="black" d="M3284.72,-217.758C3239.62,-202.087 3176.29,-180.961 3150.35,-176.48 2901.12,-133.44 2115.39,-131.746 1869.6,-132.312"/>
<polygon fill="black" stroke="black" points="1869.33,-128.812 1859.34,-132.337 1869.35,-135.812 1869.33,-128.812"/>
<text text-anchor="middle" x="3260.35" y="-180.28" font-family="Times,serif" font-size="14.00"> static(visible_from)</text>
</g>
<!-- n27&#45;&gt;n21 -->
<g id="edge28" class="edge"><title>n27&#45;&gt;n21</title>
<path fill="none" stroke="black" d="M2158.4,-218.37C2151.47,-215.285 2144.22,-212.19 2137.35,-209.48 2094.59,-192.628 2083.86,-187.911 2039.35,-176.48 1981.46,-161.614 1914.57,-149.967 1865.49,-142.421"/>
<polygon fill="black" stroke="black" points="1865.7,-138.914 1855.29,-140.874 1864.65,-145.835 1865.7,-138.914"/>
<text text-anchor="middle" x="2109.85" y="-180.28" font-family="Times,serif" font-size="14.00"> init(at)</text>
</g>
<!-- n27&#45;&gt;n27 -->
<g id="edge3" class="edge"><title>n27&#45;&gt;n27</title>
<path fill="none" stroke="black" d="M2239.44,-246.015C2251.39,-245.462 2260.43,-242.241 2260.43,-236.35 2260.43,-232.3 2256.16,-229.512 2249.6,-227.986"/>
<polygon fill="black" stroke="black" points="2249.81,-224.483 2239.44,-226.686 2248.92,-231.427 2249.81,-224.483"/>
<text text-anchor="middle" x="2353.93" y="-247.65" font-family="Times,serif" font-size="14.00"> static(equipped_for_imaging)</text>
<text text-anchor="middle" x="2353.93" y="-232.65" font-family="Times,serif" font-size="14.00">init(available)</text>
<text text-anchor="middle" x="2353.93" y="-217.65" font-family="Times,serif" font-size="14.00">static(equipped_for_soil_analysis)</text>
</g>
</g>
</svg>
