<?xml version="1.0" encoding="UTF-8" standalone="no"?>
<!DOCTYPE svg PUBLIC "-//W3C//DTD SVG 1.1//EN"
 "http://www.w3.org/Graphics/SVG/1.1/DTD/svg11.dtd">
<!-- Generated by graphviz version 2.38.0 (20140413.2041)
 -->
<!-- Title: Struc Pages: 1 -->
<svg width="941pt" height="295pt"
 viewBox="0.00 0.00 941.18 295.22" xmlns="http://www.w3.org/2000/svg" xmlns:xlink="http://www.w3.org/1999/xlink">
<g id="graph0" class="graph" transform="scale(1 1) rotate(0) translate(4 291.22)">
<title>Struc</title>
<polygon fill="white" stroke="none" points="-4,4 -4,-291.22 937.175,-291.22 937.175,4 -4,4"/>
<!-- n1 -->
<g id="node1" class="node"><title>n1</title>
<ellipse fill="none" stroke="black" cx="390.175" cy="-143.61" rx="51.7379" ry="26.7407"/>
<text text-anchor="middle" x="390.175" y="-147.41" font-family="Times,serif" font-size="14.00">&lt;general&gt;</text>
<text text-anchor="middle" x="390.175" y="-132.41" font-family="Times,serif" font-size="14.00">lander</text>
</g>
<!-- n1&#45;&gt;n1 -->
<g id="edge1" class="edge"><title>n1&#45;&gt;n1</title>
<path fill="none" stroke="black" d="M438.007,-154.002C450.428,-153.363 459.794,-149.899 459.794,-143.61 459.794,-139.188 455.164,-136.163 448.097,-134.534"/>
<polygon fill="black" stroke="black" points="448.376,-131.041 438.007,-133.218 447.471,-137.982 448.376,-131.041"/>
<text text-anchor="middle" x="510.294" y="-139.91" font-family="Times,serif" font-size="14.00"> init(channel_free)</text>
</g>
<!-- n5 -->
<g id="node5" class="node"><title>n5</title>
<ellipse fill="none" stroke="black" cx="390.175" cy="-30.8701" rx="63.7712" ry="26.7574"/>
<ellipse fill="none" stroke="black" cx="390.175" cy="-30.8701" rx="67.7795" ry="30.7407"/>
<text text-anchor="middle" x="390.175" y="-34.6701" font-family="Times,serif" font-size="14.00">&lt;waypoint0&gt;</text>
<text text-anchor="middle" x="390.175" y="-19.6701" font-family="Times,serif" font-size="14.00">waypoint</text>
</g>
<!-- n1&#45;&gt;n5 -->
<g id="edge5" class="edge"><title>n1&#45;&gt;n5</title>
<path fill="none" stroke="black" stroke-dasharray="5,2" d="M390.175,-116.647C390.175,-103.477 390.175,-87.1815 390.175,-72.4069"/>
<polygon fill="black" stroke="black" points="393.675,-71.984 390.175,-61.984 386.675,-71.984 393.675,-71.984"/>
<text text-anchor="middle" x="436.175" y="-83.5401" font-family="Times,serif" font-size="14.00"> static(at_lander)</text>
</g>
<!-- n2 -->
<g id="node2" class="node"><title>n2</title>
<ellipse fill="none" stroke="black" cx="651.175" cy="-256.35" rx="56.6326" ry="26.7574"/>
<ellipse fill="none" stroke="black" cx="651.175" cy="-256.35" rx="60.6372" ry="30.7407"/>
<text text-anchor="middle" x="651.175" y="-260.15" font-family="Times,serif" font-size="14.00">&lt;camera1&gt;</text>
<text text-anchor="middle" x="651.175" y="-245.15" font-family="Times,serif" font-size="14.00">camera</text>
</g>
<!-- n3 -->
<g id="node3" class="node"><title>n3</title>
<ellipse fill="none" stroke="black" cx="651.175" cy="-143.61" rx="67.7712" ry="26.7574"/>
<ellipse fill="none" stroke="black" cx="651.175" cy="-143.61" rx="71.7647" ry="30.7407"/>
<text text-anchor="middle" x="651.175" y="-147.41" font-family="Times,serif" font-size="14.00">&lt;objective13&gt;</text>
<text text-anchor="middle" x="651.175" y="-132.41" font-family="Times,serif" font-size="14.00">objective</text>
</g>
<!-- n2&#45;&gt;n3 -->
<g id="edge10" class="edge"><title>n2&#45;&gt;n3</title>
<path fill="none" stroke="black" stroke-dasharray="5,2" d="M651.175,-225.382C651.175,-212.949 651.175,-198.333 651.175,-184.977"/>
<polygon fill="black" stroke="black" points="654.675,-184.602 651.175,-174.602 647.675,-184.602 654.675,-184.602"/>
<text text-anchor="middle" x="719.675" y="-196.28" font-family="Times,serif" font-size="14.00"> static(calibration_target)</text>
</g>
<!-- n4 -->
<g id="node4" class="node"><title>n4</title>
<ellipse fill="none" stroke="black" cx="67.1751" cy="-143.61" rx="48.1667" ry="26.7407"/>
<text text-anchor="middle" x="67.1751" y="-147.41" font-family="Times,serif" font-size="14.00">&lt;rover0&gt;</text>
<text text-anchor="middle" x="67.1751" y="-132.41" font-family="Times,serif" font-size="14.00">rover</text>
</g>
<!-- n2&#45;&gt;n4 -->
<g id="edge9" class="edge"><title>n2&#45;&gt;n4</title>
<path fill="none" stroke="black" d="M594.914,-244.682C482.918,-223.445 233.328,-176.117 122.284,-155.06"/>
<polygon fill="black" stroke="black" points="122.774,-151.591 112.297,-153.166 121.47,-158.468 122.774,-151.591"/>
<text text-anchor="middle" x="440.675" y="-196.28" font-family="Times,serif" font-size="14.00"> static(on_board)</text>
</g>
<!-- n6 -->
<g id="node6" class="node"><title>n6</title>
<ellipse fill="none" stroke="black" cx="747.175" cy="-30.8701" rx="56.6326" ry="26.7574"/>
<ellipse fill="none" stroke="black" cx="747.175" cy="-30.8701" rx="60.6372" ry="30.7407"/>
<text text-anchor="middle" x="747.175" y="-34.6701" font-family="Times,serif" font-size="14.00">&lt;high_res&gt;</text>
<text text-anchor="middle" x="747.175" y="-19.6701" font-family="Times,serif" font-size="14.00">mode</text>
</g>
<!-- n2&#45;&gt;n6 -->
<g id="edge6" class="edge"><title>n2&#45;&gt;n6</title>
<path fill="none" stroke="black" stroke-dasharray="5,2" d="M709.505,-247.546C737.638,-241.053 770.005,-229.179 792.175,-207.48 834.788,-165.774 863.392,-131.142 833.175,-79.7401 826.752,-68.8139 816.832,-60.2006 805.98,-53.4771"/>
<polygon fill="black" stroke="black" points="807.555,-50.3474 797.126,-48.4821 804.116,-56.4441 807.555,-50.3474"/>
<text text-anchor="middle" x="889.175" y="-139.91" font-family="Times,serif" font-size="14.00"> static(supports)</text>
</g>
<!-- n3&#45;&gt;n5 -->
<g id="edge4" class="edge"><title>n3&#45;&gt;n5</title>
<path fill="none" stroke="black" stroke-dasharray="5,2" d="M597.785,-122.827C575.794,-114.464 550.137,-104.43 527.175,-94.7401 499.916,-83.2369 470.014,-69.6321 445.12,-58.0255"/>
<polygon fill="black" stroke="black" points="446.381,-54.7514 435.84,-53.6835 443.414,-61.0917 446.381,-54.7514"/>
<text text-anchor="middle" x="583.175" y="-83.5401" font-family="Times,serif" font-size="14.00"> static(visible_from)</text>
</g>
<!-- n3&#45;&gt;n6 -->
<g id="edge8" class="edge"><title>n3&#45;&gt;n6</title>
<path fill="none" stroke="black" stroke-dasharray="5,2" d="M643.535,-112.626C642.362,-101.556 643.16,-89.3734 649.175,-79.7401 657.443,-66.4993 670.55,-56.822 684.52,-49.7863"/>
<polygon fill="black" stroke="black" points="686.156,-52.8866 693.784,-45.5334 683.236,-46.525 686.156,-52.8866"/>
<text text-anchor="middle" x="741.175" y="-83.5401" font-family="Times,serif" font-size="14.00"> end(communicated_image_data)</text>
</g>
<!-- n4&#45;&gt;n4 -->
<g id="edge2" class="edge"><title>n4&#45;&gt;n4</title>
<path fill="none" stroke="black" d="M111.65,-154.046C123.898,-153.542 133.258,-150.063 133.258,-143.61 133.258,-139.073 128.631,-136.006 121.625,-134.41"/>
<polygon fill="black" stroke="black" points="122.004,-130.93 111.65,-133.174 121.144,-137.877 122.004,-130.93"/>
<text text-anchor="middle" x="226.758" y="-154.91" font-family="Times,serif" font-size="14.00"> static(equipped_for_imaging)</text>
<text text-anchor="middle" x="226.758" y="-139.91" font-family="Times,serif" font-size="14.00">init(available)</text>
<text text-anchor="middle" x="226.758" y="-124.91" font-family="Times,serif" font-size="14.00">static(equipped_for_soil_analysis)</text>
</g>
<!-- n4&#45;&gt;n5 -->
<g id="edge12" class="edge"><title>n4&#45;&gt;n5</title>
<path fill="none" stroke="black" stroke-dasharray="5,2" d="M107.43,-128.809C162.604,-109.893 262.268,-75.7229 327.321,-53.4197"/>
<polygon fill="black" stroke="black" points="328.73,-56.6364 337.055,-50.0824 326.46,-50.0148 328.73,-56.6364"/>
<text text-anchor="middle" x="268.675" y="-83.5401" font-family="Times,serif" font-size="14.00"> init(at)</text>
</g>
<!-- n5&#45;&gt;n5 -->
<g id="edge11" class="edge"><title>n5&#45;&gt;n5</title>
<path fill="none" stroke="black" stroke-dasharray="5,2" d="M454.413,-40.9029C466.928,-39.7378 475.815,-36.3935 475.815,-30.8701 475.815,-26.9864 471.421,-24.1801 464.462,-22.4511"/>
<polygon fill="black" stroke="black" points="464.842,-18.9673 454.413,-20.8373 463.732,-25.8787 464.842,-18.9673"/>
<text text-anchor="middle" x="514.815" y="-27.1701" font-family="Times,serif" font-size="14.00"> static(visible)</text>
</g>
<!-- n7 -->
<g id="node7" class="node"><title>n7</title>
<ellipse fill="none" stroke="black" cx="67.1751" cy="-256.35" rx="67.3507" ry="26.7407"/>
<text text-anchor="middle" x="67.1751" y="-260.15" font-family="Times,serif" font-size="14.00">&lt;rover0store&gt;</text>
<text text-anchor="middle" x="67.1751" y="-245.15" font-family="Times,serif" font-size="14.00">store</text>
</g>
<!-- n7&#45;&gt;n4 -->
<g id="edge7" class="edge"><title>n7&#45;&gt;n4</title>
<path fill="none" stroke="black" d="M67.1751,-229.387C67.1751,-214.913 67.1751,-196.662 67.1751,-180.806"/>
<polygon fill="black" stroke="black" points="70.6752,-180.795 67.1751,-170.795 63.6752,-180.795 70.6752,-180.795"/>
<text text-anchor="middle" x="110.175" y="-196.28" font-family="Times,serif" font-size="14.00"> static(store_of)</text>
</g>
<!-- n7&#45;&gt;n7 -->
<g id="edge3" class="edge"><title>n7&#45;&gt;n7</title>
<path fill="none" stroke="black" d="M129.57,-266.511C142.798,-265.479 152.35,-262.092 152.35,-256.35 152.35,-252.178 147.308,-249.249 139.476,-247.564"/>
<polygon fill="black" stroke="black" points="139.956,-244.097 129.57,-246.189 138.994,-251.031 139.956,-244.097"/>
<text text-anchor="middle" x="185.35" y="-252.65" font-family="Times,serif" font-size="14.00"> init(empty)</text>
</g>
</g>
</svg>
