<?xml version="1.0" encoding="UTF-8" standalone="no"?>
<!DOCTYPE svg PUBLIC "-//W3C//DTD SVG 1.1//EN"
 "http://www.w3.org/Graphics/SVG/1.1/DTD/svg11.dtd">
<!-- Generated by graphviz version 2.38.0 (20140413.2041)
 -->
<!-- Title: Struc Pages: 1 -->
<svg width="4922pt" height="376pt"
 viewBox="0.00 0.00 4922.06 375.96" xmlns="http://www.w3.org/2000/svg" xmlns:xlink="http://www.w3.org/1999/xlink">
<g id="graph0" class="graph" transform="scale(1 1) rotate(0) translate(4 371.96)">
<title>Struc</title>
<polygon fill="white" stroke="none" points="-4,4 -4,-371.96 4918.06,-371.96 4918.06,4 -4,4"/>
<!-- n1 -->
<g id="node1" class="node"><title>n1</title>
<ellipse fill="none" stroke="black" cx="972.882" cy="-341.09" rx="56.6372" ry="26.7407"/>
<text text-anchor="middle" x="972.882" y="-344.89" font-family="Times,serif" font-size="14.00">&lt;camera2&gt;</text>
<text text-anchor="middle" x="972.882" y="-329.89" font-family="Times,serif" font-size="14.00">camera</text>
</g>
<!-- n13 -->
<g id="node13" class="node"><title>n13</title>
<ellipse fill="none" stroke="black" cx="563.882" cy="-131.61" rx="53.9813" ry="26.7407"/>
<text text-anchor="middle" x="563.882" y="-135.41" font-family="Times,serif" font-size="14.00">&lt;low_res&gt;</text>
<text text-anchor="middle" x="563.882" y="-120.41" font-family="Times,serif" font-size="14.00">mode</text>
</g>
<!-- n1&#45;&gt;n13 -->
<g id="edge46" class="edge"><title>n1&#45;&gt;n13</title>
<path fill="none" stroke="black" d="M917.177,-336.283C849.933,-329.637 735.258,-311.612 649.882,-263.22 611.127,-241.253 601.988,-230.156 579.882,-191.48 575.854,-184.433 572.804,-176.329 570.507,-168.432"/>
<polygon fill="black" stroke="black" points="573.868,-167.447 567.984,-158.637 567.089,-169.194 573.868,-167.447"/>
<text text-anchor="middle" x="693.882" y="-232.65" font-family="Times,serif" font-size="14.00"> static(supports)</text>
</g>
<!-- n21 -->
<g id="node21" class="node"><title>n21</title>
<ellipse fill="none" stroke="black" cx="972.882" cy="-236.35" rx="67.7647" ry="26.7407"/>
<text text-anchor="middle" x="972.882" y="-240.15" font-family="Times,serif" font-size="14.00">&lt;objective11&gt;</text>
<text text-anchor="middle" x="972.882" y="-225.15" font-family="Times,serif" font-size="14.00">objective</text>
</g>
<!-- n1&#45;&gt;n21 -->
<g id="edge17" class="edge"><title>n1&#45;&gt;n21</title>
<path fill="none" stroke="black" d="M972.882,-314.165C972.882,-301.875 972.882,-286.987 972.882,-273.602"/>
<polygon fill="black" stroke="black" points="976.382,-273.268 972.882,-263.268 969.382,-273.268 976.382,-273.268"/>
<text text-anchor="middle" x="1041.38" y="-285.02" font-family="Times,serif" font-size="14.00"> static(calibration_target)</text>
</g>
<!-- n26 -->
<g id="node26" class="node"><title>n26</title>
<ellipse fill="none" stroke="black" cx="4596.88" cy="-131.61" rx="48.1667" ry="26.7407"/>
<text text-anchor="middle" x="4596.88" y="-135.41" font-family="Times,serif" font-size="14.00">&lt;rover0&gt;</text>
<text text-anchor="middle" x="4596.88" y="-120.41" font-family="Times,serif" font-size="14.00">rover</text>
</g>
<!-- n1&#45;&gt;n26 -->
<g id="edge6" class="edge"><title>n1&#45;&gt;n26</title>
<path fill="none" stroke="black" d="M1029.48,-339.495C1452.5,-334.955 4108.41,-304.858 4271.88,-263.22 4323.07,-250.183 4327.24,-224.482 4377.88,-209.48 4449.88,-188.153 4479.34,-226.278 4545.88,-191.48 4557.61,-185.349 4567.82,-175.305 4575.96,-165.235"/>
<polygon fill="black" stroke="black" points="4578.78,-167.309 4582.04,-157.227 4573.21,-163.077 4578.78,-167.309"/>
<text text-anchor="middle" x="4424.38" y="-232.65" font-family="Times,serif" font-size="14.00"> static(on_board)</text>
</g>
<!-- n2 -->
<g id="node2" class="node"><title>n2</title>
<ellipse fill="none" stroke="black" cx="2398.88" cy="-236.35" rx="62.8651" ry="26.7407"/>
<text text-anchor="middle" x="2398.88" y="-240.15" font-family="Times,serif" font-size="14.00">&lt;objective2&gt;</text>
<text text-anchor="middle" x="2398.88" y="-225.15" font-family="Times,serif" font-size="14.00">objective</text>
</g>
<!-- n3 -->
<g id="node3" class="node"><title>n3</title>
<ellipse fill="none" stroke="black" cx="1351.88" cy="-131.61" rx="63.7795" ry="26.7407"/>
<text text-anchor="middle" x="1351.88" y="-135.41" font-family="Times,serif" font-size="14.00">&lt;waypoint1&gt;</text>
<text text-anchor="middle" x="1351.88" y="-120.41" font-family="Times,serif" font-size="14.00">waypoint</text>
</g>
<!-- n2&#45;&gt;n3 -->
<g id="edge27" class="edge"><title>n2&#45;&gt;n3</title>
<path fill="none" stroke="black" d="M2336.22,-233.353C2130.64,-226.686 1487.36,-204.859 1444.88,-191.48 1424.71,-185.125 1404.59,-173.257 1388.25,-161.834"/>
<polygon fill="black" stroke="black" points="1390.23,-158.945 1380.07,-155.932 1386.13,-164.622 1390.23,-158.945"/>
<text text-anchor="middle" x="1500.88" y="-180.28" font-family="Times,serif" font-size="14.00"> static(visible_from)</text>
</g>
<!-- n19 -->
<g id="node19" class="node"><title>n19</title>
<ellipse fill="none" stroke="black" cx="2646.88" cy="-131.61" rx="56.6372" ry="26.7407"/>
<text text-anchor="middle" x="2646.88" y="-135.41" font-family="Times,serif" font-size="14.00">&lt;high_res&gt;</text>
<text text-anchor="middle" x="2646.88" y="-120.41" font-family="Times,serif" font-size="14.00">mode</text>
</g>
<!-- n2&#45;&gt;n19 -->
<g id="edge16" class="edge"><title>n2&#45;&gt;n19</title>
<path fill="none" stroke="black" d="M2461.74,-234.714C2536.08,-232.472 2653.24,-223.749 2680.88,-191.48 2688.01,-183.16 2685.5,-173.135 2679.4,-163.735"/>
<polygon fill="black" stroke="black" points="2682.12,-161.526 2673.27,-155.693 2676.55,-165.769 2682.12,-161.526"/>
<text text-anchor="middle" x="2777.88" y="-180.28" font-family="Times,serif" font-size="14.00"> end(communicated_image_data)</text>
</g>
<!-- n20 -->
<g id="node20" class="node"><title>n20</title>
<ellipse fill="none" stroke="black" cx="2275.88" cy="-26.8701" rx="63.7795" ry="26.7407"/>
<text text-anchor="middle" x="2275.88" y="-30.6701" font-family="Times,serif" font-size="14.00">&lt;waypoint0&gt;</text>
<text text-anchor="middle" x="2275.88" y="-15.6701" font-family="Times,serif" font-size="14.00">waypoint</text>
</g>
<!-- n2&#45;&gt;n20 -->
<g id="edge15" class="edge"><title>n2&#45;&gt;n20</title>
<path fill="none" stroke="black" d="M2398.81,-209.339C2397.4,-197.772 2393.7,-184.896 2384.88,-176.48 2353.8,-146.804 2319.02,-190.065 2289.88,-158.48 2266.81,-133.476 2265.88,-93.2607 2269.11,-64.0536"/>
<polygon fill="black" stroke="black" points="2272.62,-64.2116 2270.46,-53.8397 2265.68,-63.2961 2272.62,-64.2116"/>
<text text-anchor="middle" x="2345.88" y="-127.91" font-family="Times,serif" font-size="14.00"> static(visible_from)</text>
</g>
<!-- n3&#45;&gt;n20 -->
<g id="edge12" class="edge"><title>n3&#45;&gt;n20</title>
<path fill="none" stroke="black" d="M1390.37,-109.953C1403.35,-102.796 1417.85,-94.5954 1430.88,-86.7401 1441.33,-80.4404 1442.28,-75.5282 1453.88,-71.7401 1523.87,-48.8858 2013.87,-34.3977 2202.3,-29.6167"/>
<polygon fill="black" stroke="black" points="2202.48,-33.1133 2212.39,-29.3626 2202.3,-26.1155 2202.48,-33.1133"/>
<text text-anchor="middle" x="1492.88" y="-75.5401" font-family="Times,serif" font-size="14.00"> static(visible)</text>
</g>
<!-- n4 -->
<g id="node4" class="node"><title>n4</title>
<ellipse fill="none" stroke="black" cx="3195.88" cy="-341.09" rx="56.6372" ry="26.7407"/>
<text text-anchor="middle" x="3195.88" y="-344.89" font-family="Times,serif" font-size="14.00">&lt;camera0&gt;</text>
<text text-anchor="middle" x="3195.88" y="-329.89" font-family="Times,serif" font-size="14.00">camera</text>
</g>
<!-- n6 -->
<g id="node6" class="node"><title>n6</title>
<ellipse fill="none" stroke="black" cx="3018.88" cy="-236.35" rx="62.8651" ry="26.7407"/>
<text text-anchor="middle" x="3018.88" y="-240.15" font-family="Times,serif" font-size="14.00">&lt;objective6&gt;</text>
<text text-anchor="middle" x="3018.88" y="-225.15" font-family="Times,serif" font-size="14.00">objective</text>
</g>
<!-- n4&#45;&gt;n6 -->
<g id="edge22" class="edge"><title>n4&#45;&gt;n6</title>
<path fill="none" stroke="black" d="M3140.47,-335.474C3109.22,-330.283 3071.28,-319.32 3044.88,-296.22 3037.72,-289.953 3032.44,-281.338 3028.59,-272.631"/>
<polygon fill="black" stroke="black" points="3031.84,-271.31 3024.95,-263.255 3025.31,-273.844 3031.84,-271.31"/>
<text text-anchor="middle" x="3113.38" y="-285.02" font-family="Times,serif" font-size="14.00"> static(calibration_target)</text>
</g>
<!-- n4&#45;&gt;n19 -->
<g id="edge38" class="edge"><title>n4&#45;&gt;n19</title>
<path fill="none" stroke="black" d="M3192.72,-314.115C3190.67,-303.463 3187.33,-291.295 3181.88,-281.22 3151.43,-224.865 3141.08,-203.242 3082.88,-176.48 3007.89,-141.994 2792.55,-175.98 2711.88,-158.48 2706.82,-157.382 2701.64,-155.931 2696.52,-154.276"/>
<polygon fill="black" stroke="black" points="2697.4,-150.875 2686.8,-150.881 2695.09,-157.483 2697.4,-150.875"/>
<text text-anchor="middle" x="3214.88" y="-232.65" font-family="Times,serif" font-size="14.00"> static(supports)</text>
</g>
<!-- n4&#45;&gt;n26 -->
<g id="edge26" class="edge"><title>n4&#45;&gt;n26</title>
<path fill="none" stroke="black" d="M3252.22,-338.607C3484.23,-332.24 4359.08,-305.611 4474.88,-263.22 4524.9,-244.911 4537.7,-233.148 4570.88,-191.48 4576.55,-184.368 4581.24,-175.829 4585,-167.488"/>
<polygon fill="black" stroke="black" points="4588.24,-168.82 4588.86,-158.243 4581.78,-166.124 4588.24,-168.82"/>
<text text-anchor="middle" x="4601.38" y="-232.65" font-family="Times,serif" font-size="14.00"> static(on_board)</text>
</g>
<!-- n5 -->
<g id="node5" class="node"><title>n5</title>
<ellipse fill="none" stroke="black" cx="4194.88" cy="-236.35" rx="67.7647" ry="26.7407"/>
<text text-anchor="middle" x="4194.88" y="-240.15" font-family="Times,serif" font-size="14.00">&lt;objective14&gt;</text>
<text text-anchor="middle" x="4194.88" y="-225.15" font-family="Times,serif" font-size="14.00">objective</text>
</g>
<!-- n17 -->
<g id="node17" class="node"><title>n17</title>
<ellipse fill="none" stroke="black" cx="4031.88" cy="-131.61" rx="48.1667" ry="26.7407"/>
<text text-anchor="middle" x="4031.88" y="-135.41" font-family="Times,serif" font-size="14.00">&lt;colour&gt;</text>
<text text-anchor="middle" x="4031.88" y="-120.41" font-family="Times,serif" font-size="14.00">mode</text>
</g>
<!-- n5&#45;&gt;n17 -->
<g id="edge40" class="edge"><title>n5&#45;&gt;n17</title>
<path fill="none" stroke="black" d="M4190.51,-209.292C4187.37,-197.856 4182,-185.101 4172.88,-176.48 4150.4,-155.225 4117.78,-144.26 4089.58,-138.608"/>
<polygon fill="black" stroke="black" points="4089.88,-135.105 4079.42,-136.756 4088.63,-141.992 4089.88,-135.105"/>
<text text-anchor="middle" x="4274.88" y="-180.28" font-family="Times,serif" font-size="14.00"> end(communicated_image_data)</text>
</g>
<!-- n5&#45;&gt;n19 -->
<g id="edge13" class="edge"><title>n5&#45;&gt;n19</title>
<path fill="none" stroke="black" d="M4129.02,-229.479C4086.34,-223.802 4030.44,-212.766 3984.88,-191.48 3975.13,-186.926 3976.02,-180.082 3965.88,-176.48 3900.23,-153.158 2780.21,-172.088 2711.88,-158.48 2706.6,-157.428 2701.19,-155.963 2695.86,-154.26"/>
<polygon fill="black" stroke="black" points="2697,-150.95 2686.41,-150.976 2694.7,-157.562 2697,-150.95"/>
<text text-anchor="middle" x="4076.88" y="-180.28" font-family="Times,serif" font-size="14.00"> end(communicated_image_data)</text>
</g>
<!-- n5&#45;&gt;n20 -->
<g id="edge20" class="edge"><title>n5&#45;&gt;n20</title>
<path fill="none" stroke="black" d="M4259.21,-227.408C4307.14,-220.264 4367.37,-208.294 4385.88,-191.48 4414.65,-165.352 4423.49,-133.064 4396.88,-104.74 4325.38,-28.6157 2716.43,-27.0374 2349.79,-27.6701"/>
<polygon fill="black" stroke="black" points="2349.55,-24.1704 2339.56,-27.6889 2349.56,-31.1704 2349.55,-24.1704"/>
<text text-anchor="middle" x="4467.88" y="-127.91" font-family="Times,serif" font-size="14.00"> static(visible_from)</text>
</g>
<!-- n6&#45;&gt;n3 -->
<g id="edge23" class="edge"><title>n6&#45;&gt;n3</title>
<path fill="none" stroke="black" d="M2960.45,-226.263C2922.02,-220.606 2870.56,-213.639 2824.88,-209.48 2743.56,-202.077 2535.56,-216.658 2457.88,-191.48 2446.27,-187.717 2446.55,-180.073 2434.88,-176.48 2338.13,-146.674 1624.76,-167.027 1523.88,-158.48 1489.26,-155.547 1451.02,-150.026 1419.41,-144.834"/>
<polygon fill="black" stroke="black" points="1419.83,-141.356 1409.39,-143.164 1418.68,-148.261 1419.83,-141.356"/>
<text text-anchor="middle" x="2513.88" y="-180.28" font-family="Times,serif" font-size="14.00"> static(visible_from)</text>
</g>
<!-- n6&#45;&gt;n20 -->
<g id="edge41" class="edge"><title>n6&#45;&gt;n20</title>
<path fill="none" stroke="black" d="M3054.41,-214.146C3064.17,-207.511 3074.38,-199.745 3082.88,-191.48 3111.56,-163.593 3132.75,-135.25 3106.88,-104.74 3058.36,-47.503 2544.16,-32.5631 2349.76,-28.9461"/>
<polygon fill="black" stroke="black" points="2349.7,-25.4445 2339.64,-28.7626 2349.57,-32.4433 2349.7,-25.4445"/>
<text text-anchor="middle" x="3173.88" y="-127.91" font-family="Times,serif" font-size="14.00"> static(visible_from)</text>
</g>
<!-- n7 -->
<g id="node7" class="node"><title>n7</title>
<ellipse fill="none" stroke="black" cx="2752.88" cy="-236.35" rx="62.8651" ry="26.7407"/>
<text text-anchor="middle" x="2752.88" y="-240.15" font-family="Times,serif" font-size="14.00">&lt;objective1&gt;</text>
<text text-anchor="middle" x="2752.88" y="-225.15" font-family="Times,serif" font-size="14.00">objective</text>
</g>
<!-- n7&#45;&gt;n19 -->
<g id="edge9" class="edge"><title>n7&#45;&gt;n19</title>
<path fill="none" stroke="black" d="M2813.59,-228.53C2860.76,-220.873 2914.1,-205.516 2887.88,-176.48 2861.53,-147.3 2750.07,-167.839 2711.88,-158.48 2706.92,-157.265 2701.84,-155.75 2696.8,-154.068"/>
<polygon fill="black" stroke="black" points="2697.83,-150.717 2687.23,-150.662 2695.48,-157.312 2697.83,-150.717"/>
<text text-anchor="middle" x="2986.88" y="-180.28" font-family="Times,serif" font-size="14.00"> end(communicated_image_data)</text>
</g>
<!-- n7&#45;&gt;n20 -->
<g id="edge7" class="edge"><title>n7&#45;&gt;n20</title>
<path fill="none" stroke="black" d="M2690.06,-233.84C2609.65,-230.702 2476.17,-221.064 2437.88,-191.48 2404.85,-165.959 2429.03,-136.443 2401.88,-104.74 2382.21,-81.7725 2353.9,-63.6454 2329.1,-50.7765"/>
<polygon fill="black" stroke="black" points="2330.65,-47.638 2320.14,-46.274 2327.5,-53.8923 2330.65,-47.638"/>
<text text-anchor="middle" x="2474.88" y="-127.91" font-family="Times,serif" font-size="14.00"> static(visible_from)</text>
</g>
<!-- n8 -->
<g id="node8" class="node"><title>n8</title>
<ellipse fill="none" stroke="black" cx="4762.88" cy="-236.35" rx="67.3507" ry="26.7407"/>
<text text-anchor="middle" x="4762.88" y="-240.15" font-family="Times,serif" font-size="14.00">&lt;rover0store&gt;</text>
<text text-anchor="middle" x="4762.88" y="-225.15" font-family="Times,serif" font-size="14.00">store</text>
</g>
<!-- n8&#45;&gt;n8 -->
<g id="edge1" class="edge"><title>n8&#45;&gt;n8</title>
<path fill="none" stroke="black" d="M4826.03,-245.728C4838.87,-244.707 4848.06,-241.581 4848.06,-236.35 4848.06,-232.673 4843.51,-230.035 4836.35,-228.438"/>
<polygon fill="black" stroke="black" points="4836.42,-224.913 4826.03,-226.972 4835.44,-231.844 4836.42,-224.913"/>
<text text-anchor="middle" x="4881.06" y="-232.65" font-family="Times,serif" font-size="14.00"> init(empty)</text>
</g>
<!-- n8&#45;&gt;n26 -->
<g id="edge34" class="edge"><title>n8&#45;&gt;n26</title>
<path fill="none" stroke="black" d="M4727.27,-213.31C4700.71,-196.87 4664.41,-174.403 4636.85,-157.349"/>
<polygon fill="black" stroke="black" points="4638.58,-154.303 4628.24,-152.016 4634.9,-160.255 4638.58,-154.303"/>
<text text-anchor="middle" x="4731.88" y="-180.28" font-family="Times,serif" font-size="14.00"> static(store_of)</text>
</g>
<!-- n9 -->
<g id="node9" class="node"><title>n9</title>
<ellipse fill="none" stroke="black" cx="1206.88" cy="-131.61" rx="62.8651" ry="26.7407"/>
<text text-anchor="middle" x="1206.88" y="-135.41" font-family="Times,serif" font-size="14.00">&lt;objective4&gt;</text>
<text text-anchor="middle" x="1206.88" y="-120.41" font-family="Times,serif" font-size="14.00">objective</text>
</g>
<!-- n9&#45;&gt;n20 -->
<g id="edge50" class="edge"><title>n9&#45;&gt;n20</title>
<path fill="none" stroke="black" d="M1209.1,-104.689C1211.55,-92.6992 1216.6,-79.4374 1226.88,-71.7401 1265.84,-42.5799 1969.92,-31.5407 2202.21,-28.6827"/>
<polygon fill="black" stroke="black" points="2202.3,-32.182 2212.25,-28.5606 2202.21,-25.1825 2202.3,-32.182"/>
<text text-anchor="middle" x="1282.88" y="-75.5401" font-family="Times,serif" font-size="14.00"> static(visible_from)</text>
</g>
<!-- n10 -->
<g id="node10" class="node"><title>n10</title>
<ellipse fill="none" stroke="black" cx="809.882" cy="-236.35" rx="62.8651" ry="26.7407"/>
<text text-anchor="middle" x="809.882" y="-240.15" font-family="Times,serif" font-size="14.00">&lt;objective5&gt;</text>
<text text-anchor="middle" x="809.882" y="-225.15" font-family="Times,serif" font-size="14.00">objective</text>
</g>
<!-- n10&#45;&gt;n3 -->
<g id="edge28" class="edge"><title>n10&#45;&gt;n3</title>
<path fill="none" stroke="black" d="M836.703,-212.042C853.397,-199.026 875.99,-183.961 898.882,-176.48 979.239,-150.219 1195.93,-174.774 1278.88,-158.48 1284.94,-157.29 1291.18,-155.693 1297.33,-153.875"/>
<polygon fill="black" stroke="black" points="1298.41,-157.205 1306.9,-150.862 1296.31,-150.529 1298.41,-157.205"/>
<text text-anchor="middle" x="954.882" y="-180.28" font-family="Times,serif" font-size="14.00"> static(visible_from)</text>
</g>
<!-- n10&#45;&gt;n13 -->
<g id="edge42" class="edge"><title>n10&#45;&gt;n13</title>
<path fill="none" stroke="black" d="M751.727,-225.83C693.357,-215.876 610.336,-200.476 597.882,-191.48 589.415,-185.364 582.739,-176.441 577.627,-167.383"/>
<polygon fill="black" stroke="black" points="580.694,-165.692 573.028,-158.378 574.46,-168.876 580.694,-165.692"/>
<text text-anchor="middle" x="689.882" y="-180.28" font-family="Times,serif" font-size="14.00"> end(communicated_image_data)</text>
</g>
<!-- n10&#45;&gt;n19 -->
<g id="edge8" class="edge"><title>n10&#45;&gt;n19</title>
<path fill="none" stroke="black" d="M857.561,-218.504C869.891,-214.843 883.253,-211.473 895.882,-209.48 991.169,-194.448 1673.09,-224.06 1763.88,-191.48 1774.01,-187.847 1772.76,-180.129 1782.88,-176.48 1862.03,-147.944 2456.46,-169.429 2539.88,-158.48 2556.2,-156.338 2573.65,-152.71 2589.62,-148.837"/>
<polygon fill="black" stroke="black" points="2590.5,-152.225 2599.35,-146.405 2588.8,-145.434 2590.5,-152.225"/>
<text text-anchor="middle" x="1874.88" y="-180.28" font-family="Times,serif" font-size="14.00"> end(communicated_image_data)</text>
</g>
<!-- n10&#45;&gt;n20 -->
<g id="edge10" class="edge"><title>n10&#45;&gt;n20</title>
<path fill="none" stroke="black" d="M803.303,-209.35C799.053,-197.642 792.308,-184.644 781.882,-176.48 750.451,-151.869 719.124,-189.408 693.882,-158.48 678.78,-139.976 678.531,-123.038 693.882,-104.74 742.922,-46.2885 1896.38,-31.4079 2202.09,-28.4851"/>
<polygon fill="black" stroke="black" points="2202.21,-31.9842 2212.17,-28.3901 2202.14,-24.9845 2202.21,-31.9842"/>
<text text-anchor="middle" x="749.882" y="-127.91" font-family="Times,serif" font-size="14.00"> static(visible_from)</text>
</g>
<!-- n11 -->
<g id="node11" class="node"><title>n11</title>
<ellipse fill="none" stroke="black" cx="3950.88" cy="-236.35" rx="62.8651" ry="26.7407"/>
<text text-anchor="middle" x="3950.88" y="-240.15" font-family="Times,serif" font-size="14.00">&lt;objective8&gt;</text>
<text text-anchor="middle" x="3950.88" y="-225.15" font-family="Times,serif" font-size="14.00">objective</text>
</g>
<!-- n11&#45;&gt;n19 -->
<g id="edge51" class="edge"><title>n11&#45;&gt;n19</title>
<path fill="none" stroke="black" d="M3893.51,-225.271C3861.12,-219.895 3819.84,-213.564 3782.88,-209.48 3664.67,-196.418 3630.2,-224.299 3515.88,-191.48 3502.31,-187.585 3501.53,-180.075 3487.88,-176.48 3321.08,-132.553 2880.9,-192.916 2711.88,-158.48 2706.6,-157.404 2701.2,-155.924 2695.87,-154.212"/>
<polygon fill="black" stroke="black" points="2697.01,-150.903 2686.42,-150.917 2694.71,-157.513 2697.01,-150.903"/>
<text text-anchor="middle" x="3607.88" y="-180.28" font-family="Times,serif" font-size="14.00"> end(communicated_image_data)</text>
</g>
<!-- n11&#45;&gt;n20 -->
<g id="edge52" class="edge"><title>n11&#45;&gt;n20</title>
<path fill="none" stroke="black" d="M4008.3,-225.255C4040.44,-219.907 4081.29,-213.609 4117.88,-209.48 4174.22,-203.123 4406.63,-220.488 4370.88,-176.48 4346.26,-146.171 4322.84,-167.647 4284.88,-158.48 4197.08,-137.276 4177.85,-120.34 4088.88,-104.74 3746.37,-44.6844 2646.4,-31.0428 2350.03,-28.4249"/>
<polygon fill="black" stroke="black" points="2349.86,-24.9234 2339.83,-28.3364 2349.8,-31.9232 2349.86,-24.9234"/>
<text text-anchor="middle" x="4340.88" y="-127.91" font-family="Times,serif" font-size="14.00"> static(visible_from)</text>
</g>
<!-- n12 -->
<g id="node12" class="node"><title>n12</title>
<ellipse fill="none" stroke="black" cx="1545.88" cy="-236.35" rx="62.8651" ry="26.7407"/>
<text text-anchor="middle" x="1545.88" y="-240.15" font-family="Times,serif" font-size="14.00">&lt;objective9&gt;</text>
<text text-anchor="middle" x="1545.88" y="-225.15" font-family="Times,serif" font-size="14.00">objective</text>
</g>
<!-- n12&#45;&gt;n3 -->
<g id="edge19" class="edge"><title>n12&#45;&gt;n3</title>
<path fill="none" stroke="black" d="M1483.09,-233.794C1414.11,-230.603 1309.77,-220.903 1284.88,-191.48 1274.25,-178.912 1284,-166.63 1299.04,-156.564"/>
<polygon fill="black" stroke="black" points="1301.12,-159.397 1307.85,-151.212 1297.49,-153.416 1301.12,-159.397"/>
<text text-anchor="middle" x="1340.88" y="-180.28" font-family="Times,serif" font-size="14.00"> static(visible_from)</text>
</g>
<!-- n12&#45;&gt;n19 -->
<g id="edge24" class="edge"><title>n12&#45;&gt;n19</title>
<path fill="none" stroke="black" d="M1608.96,-233.755C1722.99,-230.253 1970.84,-219.809 2177.88,-191.48 2210.7,-186.99 2218.05,-180.854 2250.88,-176.48 2378.45,-159.487 2412.63,-177.675 2539.88,-158.48 2555.93,-156.06 2573.1,-152.4 2588.88,-148.588"/>
<polygon fill="black" stroke="black" points="2590.17,-151.876 2599.03,-146.073 2588.48,-145.081 2590.17,-151.876"/>
<text text-anchor="middle" x="2342.88" y="-180.28" font-family="Times,serif" font-size="14.00"> end(communicated_image_data)</text>
</g>
<!-- n12&#45;&gt;n20 -->
<g id="edge25" class="edge"><title>n12&#45;&gt;n20</title>
<path fill="none" stroke="black" d="M1546.02,-209.407C1547.45,-197.856 1551.14,-184.972 1559.88,-176.48 1651.26,-87.6951 2039.5,-46.7779 2202.92,-33.2464"/>
<polygon fill="black" stroke="black" points="2203.67,-36.6968 2213.35,-32.3945 2203.1,-29.72 2203.67,-36.6968"/>
<text text-anchor="middle" x="1781.88" y="-127.91" font-family="Times,serif" font-size="14.00"> static(visible_from)</text>
</g>
<!-- n14 -->
<g id="node14" class="node"><title>n14</title>
<ellipse fill="none" stroke="black" cx="1148.88" cy="-236.35" rx="62.8651" ry="26.7407"/>
<text text-anchor="middle" x="1148.88" y="-240.15" font-family="Times,serif" font-size="14.00">&lt;objective0&gt;</text>
<text text-anchor="middle" x="1148.88" y="-225.15" font-family="Times,serif" font-size="14.00">objective</text>
</g>
<!-- n14&#45;&gt;n3 -->
<g id="edge36" class="edge"><title>n14&#45;&gt;n3</title>
<path fill="none" stroke="black" d="M1149.75,-209.447C1151.52,-197.761 1155.66,-184.753 1164.88,-176.48 1203.07,-142.235 1229.16,-171.1 1278.88,-158.48 1284.56,-157.039 1290.42,-155.339 1296.23,-153.511"/>
<polygon fill="black" stroke="black" points="1297.52,-156.772 1305.94,-150.334 1295.34,-150.119 1297.52,-156.772"/>
<text text-anchor="middle" x="1220.88" y="-180.28" font-family="Times,serif" font-size="14.00"> static(visible_from)</text>
</g>
<!-- n14&#45;&gt;n19 -->
<g id="edge44" class="edge"><title>n14&#45;&gt;n19</title>
<path fill="none" stroke="black" d="M1209.93,-229.699C1275.2,-223.842 1381.78,-214.812 1473.88,-209.48 1529.05,-206.287 1919.02,-210.545 1970.88,-191.48 1980.98,-187.768 1979.78,-180.174 1989.88,-176.48 2047.31,-155.485 2479.29,-166.708 2539.88,-158.48 2556.19,-156.265 2573.64,-152.613 2589.61,-148.74"/>
<polygon fill="black" stroke="black" points="2590.49,-152.129 2599.34,-146.312 2588.79,-145.338 2590.49,-152.129"/>
<text text-anchor="middle" x="2081.88" y="-180.28" font-family="Times,serif" font-size="14.00"> end(communicated_image_data)</text>
</g>
<!-- n14&#45;&gt;n20 -->
<g id="edge45" class="edge"><title>n14&#45;&gt;n20</title>
<path fill="none" stroke="black" d="M1098.1,-220.424C1082.72,-216.354 1065.71,-212.296 1049.88,-209.48 1009,-202.208 891.796,-222.226 863.882,-191.48 859.401,-186.544 859.771,-181.728 863.882,-176.48 884.489,-150.175 906.106,-171.497 936.882,-158.48 978.393,-140.923 980.791,-120.857 1022.88,-104.74 1102.51,-74.2479 1127.1,-80.8496 1211.88,-71.7401 1582.26,-31.9453 2028.72,-27.6163 2202.07,-27.5772"/>
<polygon fill="black" stroke="black" points="2202.1,-31.0771 2212.1,-27.5797 2202.11,-24.0771 2202.1,-31.0771"/>
<text text-anchor="middle" x="1078.88" y="-127.91" font-family="Times,serif" font-size="14.00"> static(visible_from)</text>
</g>
<!-- n15 -->
<g id="node15" class="node"><title>n15</title>
<ellipse fill="none" stroke="black" cx="3693.88" cy="-131.61" rx="62.8651" ry="26.7407"/>
<text text-anchor="middle" x="3693.88" y="-135.41" font-family="Times,serif" font-size="14.00">&lt;objective7&gt;</text>
<text text-anchor="middle" x="3693.88" y="-120.41" font-family="Times,serif" font-size="14.00">objective</text>
</g>
<!-- n15&#45;&gt;n20 -->
<g id="edge37" class="edge"><title>n15&#45;&gt;n20</title>
<path fill="none" stroke="black" d="M3647.06,-113.456C3606.39,-99.4264 3545.59,-80.5227 3490.88,-71.7401 3269.34,-36.1751 2577.76,-29.4251 2349.68,-28.1586"/>
<polygon fill="black" stroke="black" points="2349.51,-24.6578 2339.49,-28.104 2349.47,-31.6577 2349.51,-24.6578"/>
<text text-anchor="middle" x="3614.88" y="-75.5401" font-family="Times,serif" font-size="14.00"> static(visible_from)</text>
</g>
<!-- n16 -->
<g id="node16" class="node"><title>n16</title>
<ellipse fill="none" stroke="black" cx="2788.88" cy="-131.61" rx="67.7647" ry="26.7407"/>
<text text-anchor="middle" x="2788.88" y="-135.41" font-family="Times,serif" font-size="14.00">&lt;objective10&gt;</text>
<text text-anchor="middle" x="2788.88" y="-120.41" font-family="Times,serif" font-size="14.00">objective</text>
</g>
<!-- n16&#45;&gt;n20 -->
<g id="edge32" class="edge"><title>n16&#45;&gt;n20</title>
<path fill="none" stroke="black" d="M2740.16,-112.789C2731.16,-109.853 2721.79,-107.026 2712.88,-104.74 2585.3,-72.0129 2433.2,-48.712 2346.25,-36.8449"/>
<polygon fill="black" stroke="black" points="2346.61,-33.3621 2336.23,-35.4892 2345.67,-40.2989 2346.61,-33.3621"/>
<text text-anchor="middle" x="2686.88" y="-75.5401" font-family="Times,serif" font-size="14.00"> static(visible_from)</text>
</g>
<!-- n18 -->
<g id="node18" class="node"><title>n18</title>
<ellipse fill="none" stroke="black" cx="2926.88" cy="-131.61" rx="51.7379" ry="26.7407"/>
<text text-anchor="middle" x="2926.88" y="-135.41" font-family="Times,serif" font-size="14.00">&lt;general&gt;</text>
<text text-anchor="middle" x="2926.88" y="-120.41" font-family="Times,serif" font-size="14.00">lander</text>
</g>
<!-- n18&#45;&gt;n18 -->
<g id="edge2" class="edge"><title>n18&#45;&gt;n18</title>
<path fill="none" stroke="black" d="M2975.36,-141.226C2987.46,-140.554 2996.5,-137.348 2996.5,-131.61 2996.5,-127.665 2992.23,-124.917 2985.62,-123.367"/>
<polygon fill="black" stroke="black" points="2985.74,-119.85 2975.36,-121.994 2984.81,-126.789 2985.74,-119.85"/>
<text text-anchor="middle" x="3047" y="-127.91" font-family="Times,serif" font-size="14.00"> init(channel_free)</text>
</g>
<!-- n18&#45;&gt;n20 -->
<g id="edge47" class="edge"><title>n18&#45;&gt;n20</title>
<path fill="none" stroke="black" d="M2888.46,-113.417C2881.03,-110.351 2873.27,-107.318 2865.88,-104.74 2814.06,-86.6537 2800.86,-81.6576 2746.88,-71.7401 2607.72,-46.1728 2442.53,-35.149 2349.39,-30.6733"/>
<polygon fill="black" stroke="black" points="2349.37,-27.1689 2339.22,-30.1972 2349.05,-34.1613 2349.37,-27.1689"/>
<text text-anchor="middle" x="2857.88" y="-75.5401" font-family="Times,serif" font-size="14.00"> static(at_lander)</text>
</g>
<!-- n20&#45;&gt;n3 -->
<g id="edge35" class="edge"><title>n20&#45;&gt;n3</title>
<path fill="none" stroke="black" d="M2212.33,-28.4985C2007.89,-30.828 1378.66,-40.5161 1348.88,-71.7401 1342.99,-77.9144 1341.26,-86.3113 1341.6,-94.8281"/>
<polygon fill="black" stroke="black" points="1338.12,-95.259 1342.82,-104.755 1345.07,-94.4021 1338.12,-95.259"/>
<text text-anchor="middle" x="1387.88" y="-75.5401" font-family="Times,serif" font-size="14.00"> static(visible)</text>
</g>
<!-- n21&#45;&gt;n3 -->
<g id="edge14" class="edge"><title>n21&#45;&gt;n3</title>
<path fill="none" stroke="black" d="M993.451,-210.472C1005.33,-197.967 1021.36,-183.923 1038.88,-176.48 1088.11,-155.574 1226.55,-169.51 1278.88,-158.48 1284.93,-157.206 1291.15,-155.557 1297.3,-153.707"/>
<polygon fill="black" stroke="black" points="1298.39,-157.032 1306.86,-150.661 1296.27,-150.363 1298.39,-157.032"/>
<text text-anchor="middle" x="1094.88" y="-180.28" font-family="Times,serif" font-size="14.00"> static(visible_from)</text>
</g>
<!-- n21&#45;&gt;n20 -->
<g id="edge43" class="edge"><title>n21&#45;&gt;n20</title>
<path fill="none" stroke="black" d="M919.221,-219.834C898.89,-212.75 876.043,-203.274 856.882,-191.48 821.337,-169.601 793.311,-136.078 820.882,-104.74 866.916,-52.4179 1912.16,-33.2107 2201.97,-28.8807"/>
<polygon fill="black" stroke="black" points="2202.42,-32.3746 2212.37,-28.727 2202.32,-25.3753 2202.42,-32.3746"/>
<text text-anchor="middle" x="876.882" y="-127.91" font-family="Times,serif" font-size="14.00"> static(visible_from)</text>
</g>
<!-- n22 -->
<g id="node22" class="node"><title>n22</title>
<ellipse fill="none" stroke="black" cx="3427.88" cy="-236.35" rx="67.7647" ry="26.7407"/>
<text text-anchor="middle" x="3427.88" y="-240.15" font-family="Times,serif" font-size="14.00">&lt;objective12&gt;</text>
<text text-anchor="middle" x="3427.88" y="-225.15" font-family="Times,serif" font-size="14.00">objective</text>
</g>
<!-- n22&#45;&gt;n19 -->
<g id="edge30" class="edge"><title>n22&#45;&gt;n19</title>
<path fill="none" stroke="black" d="M3363.74,-227.343C3310.76,-220.06 3233.84,-207.933 3167.88,-191.48 3147.43,-186.378 3143.61,-180.312 3122.88,-176.48 2943.09,-143.25 2890.66,-196.823 2711.88,-158.48 2706.82,-157.394 2701.63,-155.951 2696.52,-154.301"/>
<polygon fill="black" stroke="black" points="2697.39,-150.9 2686.8,-150.912 2695.09,-157.509 2697.39,-150.9"/>
<text text-anchor="middle" x="3259.88" y="-180.28" font-family="Times,serif" font-size="14.00"> end(communicated_image_data)</text>
</g>
<!-- n22&#45;&gt;n20 -->
<g id="edge31" class="edge"><title>n22&#45;&gt;n20</title>
<path fill="none" stroke="black" d="M3455.41,-211.475C3464.74,-200.499 3470.98,-187.5 3462.88,-176.48 3399.74,-90.5268 3337.43,-130.296 3233.88,-104.74 3154.49,-85.147 3134.08,-81.3967 3052.88,-71.7401 2795.68,-41.1525 2487.98,-31.7747 2349.63,-28.9936"/>
<polygon fill="black" stroke="black" points="2349.63,-25.493 2339.57,-28.7969 2349.5,-32.4917 2349.63,-25.493"/>
<text text-anchor="middle" x="3501.88" y="-127.91" font-family="Times,serif" font-size="14.00"> static(visible_from)</text>
</g>
<!-- n23 -->
<g id="node23" class="node"><title>n23</title>
<ellipse fill="none" stroke="black" cx="3716.88" cy="-236.35" rx="56.6372" ry="26.7407"/>
<text text-anchor="middle" x="3716.88" y="-240.15" font-family="Times,serif" font-size="14.00">&lt;camera1&gt;</text>
<text text-anchor="middle" x="3716.88" y="-225.15" font-family="Times,serif" font-size="14.00">camera</text>
</g>
<!-- n23&#45;&gt;n13 -->
<g id="edge4" class="edge"><title>n23&#45;&gt;n13</title>
<path fill="none" stroke="black" d="M3663.44,-227.301C3620.66,-221.227 3559.07,-213.309 3504.88,-209.48 3454.11,-205.893 2636.8,-208.645 2588.88,-191.48 2578.75,-187.852 2580.03,-180.056 2569.88,-176.48 2469.33,-141.042 756.314,-174.329 650.882,-158.48 639.553,-156.777 627.642,-153.955 616.393,-150.787"/>
<polygon fill="black" stroke="black" points="617.291,-147.402 606.71,-147.933 615.312,-154.117 617.291,-147.402"/>
<text text-anchor="middle" x="2632.88" y="-180.28" font-family="Times,serif" font-size="14.00"> static(supports)</text>
</g>
<!-- n23&#45;&gt;n15 -->
<g id="edge5" class="edge"><title>n23&#45;&gt;n15</title>
<path fill="none" stroke="black" d="M3711.08,-209.425C3708.3,-197.014 3704.93,-181.952 3701.91,-168.464"/>
<polygon fill="black" stroke="black" points="3705.28,-167.521 3699.68,-158.528 3698.45,-169.051 3705.28,-167.521"/>
<text text-anchor="middle" x="3774.38" y="-180.28" font-family="Times,serif" font-size="14.00"> static(calibration_target)</text>
</g>
<!-- n23&#45;&gt;n17 -->
<g id="edge18" class="edge"><title>n23&#45;&gt;n17</title>
<path fill="none" stroke="black" d="M3763.73,-221.108C3788.69,-213.127 3819.76,-202.567 3846.88,-191.48 3861.05,-185.689 3863.58,-181.931 3877.88,-176.48 3910.56,-164.029 3948.3,-153.222 3978.24,-145.45"/>
<polygon fill="black" stroke="black" points="3979.26,-148.803 3988.08,-142.933 3977.52,-142.021 3979.26,-148.803"/>
<text text-anchor="middle" x="3921.88" y="-180.28" font-family="Times,serif" font-size="14.00"> static(supports)</text>
</g>
<!-- n23&#45;&gt;n19 -->
<g id="edge39" class="edge"><title>n23&#45;&gt;n19</title>
<path fill="none" stroke="black" d="M3662.24,-228.896C3585.19,-219.606 3448.61,-202.387 3399.88,-191.48 3378.07,-186.598 3373.93,-180.162 3351.88,-176.48 3211.55,-153.04 2851.23,-187.227 2711.88,-158.48 2706.6,-157.391 2701.2,-155.903 2695.88,-154.185"/>
<polygon fill="black" stroke="black" points="2697.02,-150.876 2686.42,-150.885 2694.71,-157.485 2697.02,-150.876"/>
<text text-anchor="middle" x="3443.88" y="-180.28" font-family="Times,serif" font-size="14.00"> static(supports)</text>
</g>
<!-- n23&#45;&gt;n26 -->
<g id="edge21" class="edge"><title>n23&#45;&gt;n26</title>
<path fill="none" stroke="black" d="M3768.84,-225.402C3800.52,-219.749 3841.89,-213.097 3878.88,-209.48 4096.66,-188.188 4153.58,-217.147 4370.88,-191.48 4389.34,-189.3 4517.11,-163.919 4534.88,-158.48 4540.11,-156.881 4545.5,-154.999 4550.82,-152.993"/>
<polygon fill="black" stroke="black" points="4552.24,-156.195 4560.27,-149.282 4549.69,-149.68 4552.24,-156.195"/>
<text text-anchor="middle" x="4499.38" y="-180.28" font-family="Times,serif" font-size="14.00"> static(on_board)</text>
</g>
<!-- n24 -->
<g id="node24" class="node"><title>n24</title>
<ellipse fill="none" stroke="black" cx="364.882" cy="-236.35" rx="62.8651" ry="26.7407"/>
<text text-anchor="middle" x="364.882" y="-240.15" font-family="Times,serif" font-size="14.00">&lt;objective3&gt;</text>
<text text-anchor="middle" x="364.882" y="-225.15" font-family="Times,serif" font-size="14.00">objective</text>
</g>
<!-- n24&#45;&gt;n13 -->
<g id="edge53" class="edge"><title>n24&#45;&gt;n13</title>
<path fill="none" stroke="black" d="M358.66,-209.436C357.506,-198.167 358.511,-185.506 365.882,-176.48 382.847,-155.709 449.74,-144.123 501.129,-138.147"/>
<polygon fill="black" stroke="black" points="501.63,-141.612 511.18,-137.025 500.854,-134.656 501.63,-141.612"/>
<text text-anchor="middle" x="457.882" y="-180.28" font-family="Times,serif" font-size="14.00"> end(communicated_image_data)</text>
</g>
<!-- n24&#45;&gt;n19 -->
<g id="edge49" class="edge"><title>n24&#45;&gt;n19</title>
<path fill="none" stroke="black" d="M422.065,-225.105C456.629,-219.384 501.644,-212.764 541.882,-209.48 598.093,-204.893 1503.77,-210.448 1556.88,-191.48 1567.01,-187.862 1565.75,-180.103 1575.88,-176.48 1676.75,-140.403 2433.63,-172.15 2539.88,-158.48 2556.29,-156.37 2573.83,-152.73 2589.86,-148.836"/>
<polygon fill="black" stroke="black" points="2590.78,-152.215 2599.63,-146.39 2589.08,-145.425 2590.78,-152.215"/>
<text text-anchor="middle" x="1667.88" y="-180.28" font-family="Times,serif" font-size="14.00"> end(communicated_image_data)</text>
</g>
<!-- n24&#45;&gt;n20 -->
<g id="edge48" class="edge"><title>n24&#45;&gt;n20</title>
<path fill="none" stroke="black" d="M302.792,-231.944C243.201,-227.222 159.319,-216.266 138.882,-191.48 134.641,-186.337 134.871,-181.805 138.882,-176.48 208.44,-84.1547 275.269,-126.052 388.882,-104.74 745.954,-37.7584 1898.87,-29.1396 2202.2,-28.0327"/>
<polygon fill="black" stroke="black" points="2202.21,-31.5328 2212.2,-27.9978 2202.19,-24.5328 2202.21,-31.5328"/>
<text text-anchor="middle" x="444.882" y="-127.91" font-family="Times,serif" font-size="14.00"> static(visible_from)</text>
</g>
<!-- n25 -->
<g id="node25" class="node"><title>n25</title>
<ellipse fill="none" stroke="black" cx="67.8823" cy="-236.35" rx="67.7647" ry="26.7407"/>
<text text-anchor="middle" x="67.8823" y="-240.15" font-family="Times,serif" font-size="14.00">&lt;objective13&gt;</text>
<text text-anchor="middle" x="67.8823" y="-225.15" font-family="Times,serif" font-size="14.00">objective</text>
</g>
<!-- n25&#45;&gt;n13 -->
<g id="edge11" class="edge"><title>n25&#45;&gt;n13</title>
<path fill="none" stroke="black" d="M100.016,-212.646C119.805,-199.843 146.223,-184.792 171.882,-176.48 231.439,-157.188 405.882,-143.075 500.725,-136.584"/>
<polygon fill="black" stroke="black" points="501.025,-140.072 510.766,-135.905 500.553,-133.088 501.025,-140.072"/>
<text text-anchor="middle" x="263.882" y="-180.28" font-family="Times,serif" font-size="14.00"> end(communicated_image_data)</text>
</g>
<!-- n25&#45;&gt;n20 -->
<g id="edge33" class="edge"><title>n25&#45;&gt;n20</title>
<path fill="none" stroke="black" d="M51.1126,-210.276C33.9075,-181.134 13.1386,-133.39 39.8823,-104.74 185.496,51.2512 305.723,-81.7391 518.882,-71.7401 1170.92,-41.1539 1960.15,-31.0515 2201.95,-28.557"/>
<polygon fill="black" stroke="black" points="2202.06,-32.0561 2212.02,-28.4541 2201.99,-25.0564 2202.06,-32.0561"/>
<text text-anchor="middle" x="95.8823" y="-127.91" font-family="Times,serif" font-size="14.00"> static(visible_from)</text>
</g>
<!-- n26&#45;&gt;n20 -->
<g id="edge29" class="edge"><title>n26&#45;&gt;n20</title>
<path fill="none" stroke="black" d="M4561.09,-113.559C4528.52,-99.0728 4478.67,-79.4414 4432.88,-71.7401 4224.28,-36.6585 2704.28,-29.3303 2349.69,-28.092"/>
<polygon fill="black" stroke="black" points="2349.55,-24.5916 2339.54,-28.0571 2349.53,-31.5915 2349.55,-24.5916"/>
<text text-anchor="middle" x="4508.38" y="-75.5401" font-family="Times,serif" font-size="14.00"> init(at)</text>
</g>
<!-- n26&#45;&gt;n26 -->
<g id="edge3" class="edge"><title>n26&#45;&gt;n26</title>
<path fill="none" stroke="black" d="M4641.98,-141.274C4653.92,-140.722 4662.97,-137.501 4662.97,-131.61 4662.97,-127.56 4658.69,-124.772 4652.14,-123.246"/>
<polygon fill="black" stroke="black" points="4652.34,-119.743 4641.98,-121.946 4651.45,-126.687 4652.34,-119.743"/>
<text text-anchor="middle" x="4756.47" y="-142.91" font-family="Times,serif" font-size="14.00"> static(equipped_for_imaging)</text>
<text text-anchor="middle" x="4756.47" y="-127.91" font-family="Times,serif" font-size="14.00">init(available)</text>
<text text-anchor="middle" x="4756.47" y="-112.91" font-family="Times,serif" font-size="14.00">static(equipped_for_soil_analysis)</text>
</g>
</g>
</svg>
