<?xml version="1.0" encoding="UTF-8" standalone="no"?>
<!DOCTYPE svg PUBLIC "-//W3C//DTD SVG 1.1//EN"
 "http://www.w3.org/Graphics/SVG/1.1/DTD/svg11.dtd">
<!-- Generated by graphviz version 2.38.0 (20140413.2041)
 -->
<!-- Title: Struc Pages: 1 -->
<svg width="3398pt" height="376pt"
 viewBox="0.00 0.00 3397.93 375.96" xmlns="http://www.w3.org/2000/svg" xmlns:xlink="http://www.w3.org/1999/xlink">
<g id="graph0" class="graph" transform="scale(1 1) rotate(0) translate(4 371.96)">
<title>Struc</title>
<polygon fill="white" stroke="none" points="-4,4 -4,-371.96 3393.93,-371.96 3393.93,4 -4,4"/>
<!-- n1 -->
<g id="node1" class="node"><title>n1</title>
<ellipse fill="none" stroke="black" cx="605.933" cy="-236.35" rx="62.8651" ry="26.7407"/>
<text text-anchor="middle" x="605.933" y="-240.15" font-family="Times,serif" font-size="14.00">&lt;objective0&gt;</text>
<text text-anchor="middle" x="605.933" y="-225.15" font-family="Times,serif" font-size="14.00">objective</text>
</g>
<!-- n3 -->
<g id="node3" class="node"><title>n3</title>
<ellipse fill="none" stroke="black" cx="889.933" cy="-131.61" rx="63.7795" ry="26.7407"/>
<text text-anchor="middle" x="889.933" y="-135.41" font-family="Times,serif" font-size="14.00">&lt;waypoint1&gt;</text>
<text text-anchor="middle" x="889.933" y="-120.41" font-family="Times,serif" font-size="14.00">waypoint</text>
</g>
<!-- n1&#45;&gt;n3 -->
<g id="edge42" class="edge"><title>n1&#45;&gt;n3</title>
<path fill="none" stroke="black" d="M599.478,-209.511C598.222,-198.121 599.208,-185.341 606.933,-176.48 633.612,-145.877 741.43,-136.466 816.002,-133.663"/>
<polygon fill="black" stroke="black" points="816.418,-137.151 826.292,-133.31 816.177,-130.155 816.418,-137.151"/>
<text text-anchor="middle" x="662.933" y="-180.28" font-family="Times,serif" font-size="14.00"> static(visible_from)</text>
</g>
<!-- n19 -->
<g id="node19" class="node"><title>n19</title>
<ellipse fill="none" stroke="black" cx="1850.93" cy="-131.61" rx="56.6372" ry="26.7407"/>
<text text-anchor="middle" x="1850.93" y="-135.41" font-family="Times,serif" font-size="14.00">&lt;high_res&gt;</text>
<text text-anchor="middle" x="1850.93" y="-120.41" font-family="Times,serif" font-size="14.00">mode</text>
</g>
<!-- n1&#45;&gt;n19 -->
<g id="edge40" class="edge"><title>n1&#45;&gt;n19</title>
<path fill="none" stroke="black" d="M668.538,-232.74C720.23,-228.632 794.491,-218.146 853.933,-191.48 863.749,-187.077 862.804,-180.109 872.933,-176.48 968.347,-142.297 1685.53,-178.283 1784.93,-158.48 1790.36,-157.398 1795.93,-155.897 1801.4,-154.158"/>
<polygon fill="black" stroke="black" points="1802.81,-157.375 1811.13,-150.809 1800.53,-150.756 1802.81,-157.375"/>
<text text-anchor="middle" x="964.933" y="-180.28" font-family="Times,serif" font-size="14.00"> end(communicated_image_data)</text>
</g>
<!-- n20 -->
<g id="node20" class="node"><title>n20</title>
<ellipse fill="none" stroke="black" cx="1827.93" cy="-26.8701" rx="63.7795" ry="26.7407"/>
<text text-anchor="middle" x="1827.93" y="-30.6701" font-family="Times,serif" font-size="14.00">&lt;waypoint0&gt;</text>
<text text-anchor="middle" x="1827.93" y="-15.6701" font-family="Times,serif" font-size="14.00">waypoint</text>
</g>
<!-- n1&#45;&gt;n20 -->
<g id="edge41" class="edge"><title>n1&#45;&gt;n20</title>
<path fill="none" stroke="black" d="M544.684,-229.822C446.401,-220.656 263.449,-202.256 253.933,-191.48 249.52,-186.483 249.625,-181.568 253.933,-176.48 265.324,-163.024 862.401,-73.6057 879.933,-71.7401 1204.37,-37.2165 1594.13,-29.8534 1754.02,-28.289"/>
<polygon fill="black" stroke="black" points="1754.25,-31.7871 1764.21,-28.1941 1754.18,-24.7874 1754.25,-31.7871"/>
<text text-anchor="middle" x="721.933" y="-127.91" font-family="Times,serif" font-size="14.00"> static(visible_from)</text>
</g>
<!-- n2 -->
<g id="node2" class="node"><title>n2</title>
<ellipse fill="none" stroke="black" cx="263.933" cy="-236.35" rx="62.8651" ry="26.7407"/>
<text text-anchor="middle" x="263.933" y="-240.15" font-family="Times,serif" font-size="14.00">&lt;objective3&gt;</text>
<text text-anchor="middle" x="263.933" y="-225.15" font-family="Times,serif" font-size="14.00">objective</text>
</g>
<!-- n2&#45;&gt;n3 -->
<g id="edge21" class="edge"><title>n2&#45;&gt;n3</title>
<path fill="none" stroke="black" d="M257.182,-209.508C255.803,-197.978 256.773,-185.084 264.933,-176.48 269.64,-171.515 653.335,-147.236 817.132,-137.085"/>
<polygon fill="black" stroke="black" points="817.361,-140.578 827.126,-136.466 816.929,-133.591 817.361,-140.578"/>
<text text-anchor="middle" x="322.933" y="-180.28" font-family="Times,serif" font-size="14.00"> static(visible_from)</text>
</g>
<!-- n2&#45;&gt;n19 -->
<g id="edge11" class="edge"><title>n2&#45;&gt;n19</title>
<path fill="none" stroke="black" d="M309.667,-217.887C330.269,-209.945 354.871,-200.357 376.933,-191.48 393.013,-185.01 395.958,-179.991 412.933,-176.48 562.23,-145.601 1635.32,-187.773 1784.93,-158.48 1790.37,-157.416 1795.93,-155.927 1801.41,-154.195"/>
<polygon fill="black" stroke="black" points="1802.81,-157.413 1811.14,-150.854 1800.54,-150.793 1802.81,-157.413"/>
<text text-anchor="middle" x="504.933" y="-180.28" font-family="Times,serif" font-size="14.00"> end(communicated_image_data)</text>
</g>
<!-- n2&#45;&gt;n20 -->
<g id="edge10" class="edge"><title>n2&#45;&gt;n20</title>
<path fill="none" stroke="black" d="M242.729,-210.801C220.423,-181.943 192.115,-134.254 219.933,-104.74 273.181,-48.243 1445.68,-31.9077 1754.13,-28.5808"/>
<polygon fill="black" stroke="black" points="1754.34,-32.0789 1764.31,-28.4725 1754.27,-25.0793 1754.34,-32.0789"/>
<text text-anchor="middle" x="275.933" y="-127.91" font-family="Times,serif" font-size="14.00"> static(visible_from)</text>
</g>
<!-- n3&#45;&gt;n20 -->
<g id="edge7" class="edge"><title>n3&#45;&gt;n20</title>
<path fill="none" stroke="black" d="M883.093,-104.682C881.694,-93.1336 882.674,-80.2486 890.933,-71.7401 920.837,-40.9308 1537.52,-31.1095 1753.78,-28.6059"/>
<polygon fill="black" stroke="black" points="1754.12,-32.1024 1764.08,-28.4888 1754.04,-25.1029 1754.12,-32.1024"/>
<text text-anchor="middle" x="929.933" y="-75.5401" font-family="Times,serif" font-size="14.00"> static(visible)</text>
</g>
<!-- n4 -->
<g id="node4" class="node"><title>n4</title>
<ellipse fill="none" stroke="black" cx="2519.93" cy="-341.09" rx="56.6372" ry="26.7407"/>
<text text-anchor="middle" x="2519.93" y="-344.89" font-family="Times,serif" font-size="14.00">&lt;camera0&gt;</text>
<text text-anchor="middle" x="2519.93" y="-329.89" font-family="Times,serif" font-size="14.00">camera</text>
</g>
<!-- n6 -->
<g id="node6" class="node"><title>n6</title>
<ellipse fill="none" stroke="black" cx="2239.93" cy="-236.35" rx="62.8651" ry="26.7407"/>
<text text-anchor="middle" x="2239.93" y="-240.15" font-family="Times,serif" font-size="14.00">&lt;objective7&gt;</text>
<text text-anchor="middle" x="2239.93" y="-225.15" font-family="Times,serif" font-size="14.00">objective</text>
</g>
<!-- n4&#45;&gt;n6 -->
<g id="edge16" class="edge"><title>n4&#45;&gt;n6</title>
<path fill="none" stroke="black" d="M2463.54,-338.073C2394.32,-334.401 2282.48,-324.2 2252.93,-296.22 2246.6,-290.22 2243.01,-281.884 2241.05,-273.37"/>
<polygon fill="black" stroke="black" points="2244.49,-272.732 2239.43,-263.422 2237.58,-273.854 2244.49,-272.732"/>
<text text-anchor="middle" x="2321.43" y="-285.02" font-family="Times,serif" font-size="14.00"> static(calibration_target)</text>
</g>
<!-- n4&#45;&gt;n19 -->
<g id="edge31" class="edge"><title>n4&#45;&gt;n19</title>
<path fill="none" stroke="black" d="M2519.12,-314.12C2517.52,-302.839 2513.87,-290.184 2505.93,-281.22 2372.34,-130.438 2264.72,-202.313 2064.93,-176.48 2000.97,-168.21 1983.59,-173.76 1920.93,-158.48 1914.82,-156.99 1908.51,-155.134 1902.29,-153.105"/>
<polygon fill="black" stroke="black" points="1903.24,-149.729 1892.64,-149.801 1900.97,-156.352 1903.24,-149.729"/>
<text text-anchor="middle" x="2532.93" y="-232.65" font-family="Times,serif" font-size="14.00"> static(supports)</text>
</g>
<!-- n26 -->
<g id="node26" class="node"><title>n26</title>
<ellipse fill="none" stroke="black" cx="2827.93" cy="-236.35" rx="48.1667" ry="26.7407"/>
<text text-anchor="middle" x="2827.93" y="-240.15" font-family="Times,serif" font-size="14.00">&lt;rover0&gt;</text>
<text text-anchor="middle" x="2827.93" y="-225.15" font-family="Times,serif" font-size="14.00">rover</text>
</g>
<!-- n4&#45;&gt;n26 -->
<g id="edge20" class="edge"><title>n4&#45;&gt;n26</title>
<path fill="none" stroke="black" d="M2568.67,-327.174C2619.71,-313.185 2701.88,-289.341 2770.93,-263.22 2774.82,-261.75 2778.82,-260.141 2782.81,-258.468"/>
<polygon fill="black" stroke="black" points="2784.25,-261.659 2792.04,-254.484 2781.48,-255.232 2784.25,-261.659"/>
<text text-anchor="middle" x="2763.43" y="-285.02" font-family="Times,serif" font-size="14.00"> static(on_board)</text>
</g>
<!-- n5 -->
<g id="node5" class="node"><title>n5</title>
<ellipse fill="none" stroke="black" cx="2693.93" cy="-236.35" rx="67.7647" ry="26.7407"/>
<text text-anchor="middle" x="2693.93" y="-240.15" font-family="Times,serif" font-size="14.00">&lt;objective15&gt;</text>
<text text-anchor="middle" x="2693.93" y="-225.15" font-family="Times,serif" font-size="14.00">objective</text>
</g>
<!-- n5&#45;&gt;n19 -->
<g id="edge8" class="edge"><title>n5&#45;&gt;n19</title>
<path fill="none" stroke="black" d="M2651.22,-215.326C2619.6,-201.578 2575.05,-184.43 2533.93,-176.48 2266.76,-124.825 2189.18,-209.714 1921.93,-158.48 1915.35,-157.219 1908.57,-155.432 1901.94,-153.378"/>
<polygon fill="black" stroke="black" points="1902.95,-150.025 1892.35,-150.21 1900.75,-156.672 1902.95,-150.025"/>
<text text-anchor="middle" x="2680.93" y="-180.28" font-family="Times,serif" font-size="14.00"> end(communicated_image_data)</text>
</g>
<!-- n5&#45;&gt;n20 -->
<g id="edge14" class="edge"><title>n5&#45;&gt;n20</title>
<path fill="none" stroke="black" d="M2742.38,-217.383C2751.76,-214.389 2761.58,-211.579 2770.93,-209.48 2964.13,-166.14 3296.95,-279.526 3203.93,-104.74 3191.6,-81.5618 3179.91,-79.8216 3154.93,-71.7401 3035.83,-33.2109 2163.41,-28.4815 1901.85,-27.9327"/>
<polygon fill="black" stroke="black" points="1901.7,-24.4326 1891.7,-27.9129 1901.69,-31.4325 1901.7,-24.4326"/>
<text text-anchor="middle" x="3276.93" y="-127.91" font-family="Times,serif" font-size="14.00"> static(visible_from)</text>
</g>
<!-- n6&#45;&gt;n3 -->
<g id="edge17" class="edge"><title>n6&#45;&gt;n3</title>
<path fill="none" stroke="black" d="M2190.91,-219.289C2178.02,-215.567 2164.05,-211.972 2150.93,-209.48 1994.82,-179.836 1953.56,-185.769 1794.93,-176.48 1469.61,-157.43 1386.58,-186.77 1061.93,-158.48 1027.46,-155.476 989.382,-149.978 957.836,-144.82"/>
<polygon fill="black" stroke="black" points="958.275,-141.345 947.837,-143.161 957.129,-148.25 958.275,-141.345"/>
<text text-anchor="middle" x="2091.93" y="-180.28" font-family="Times,serif" font-size="14.00"> static(visible_from)</text>
</g>
<!-- n6&#45;&gt;n20 -->
<g id="edge34" class="edge"><title>n6&#45;&gt;n20</title>
<path fill="none" stroke="black" d="M2302,-231.422C2395.77,-224.047 2566.61,-204.509 2603.93,-158.48 2618.98,-139.928 2619.2,-123.104 2603.93,-104.74 2559.49,-51.2987 2086.96,-34.1306 1901.78,-29.43"/>
<polygon fill="black" stroke="black" points="1901.67,-25.9264 1891.59,-29.1767 1901.5,-32.9243 1901.67,-25.9264"/>
<text text-anchor="middle" x="2671.93" y="-127.91" font-family="Times,serif" font-size="14.00"> static(visible_from)</text>
</g>
<!-- n7 -->
<g id="node7" class="node"><title>n7</title>
<ellipse fill="none" stroke="black" cx="1276.93" cy="-131.61" rx="62.8651" ry="26.7407"/>
<text text-anchor="middle" x="1276.93" y="-135.41" font-family="Times,serif" font-size="14.00">&lt;objective2&gt;</text>
<text text-anchor="middle" x="1276.93" y="-120.41" font-family="Times,serif" font-size="14.00">objective</text>
</g>
<!-- n7&#45;&gt;n20 -->
<g id="edge5" class="edge"><title>n7&#45;&gt;n20</title>
<path fill="none" stroke="black" d="M1278.89,-104.597C1281.19,-92.737 1286,-79.6141 1295.93,-71.7401 1331.04,-43.898 1616.76,-33.0851 1754.38,-29.462"/>
<polygon fill="black" stroke="black" points="1754.52,-32.9597 1764.42,-29.2034 1754.34,-25.962 1754.52,-32.9597"/>
<text text-anchor="middle" x="1351.93" y="-75.5401" font-family="Times,serif" font-size="14.00"> static(visible_from)</text>
</g>
<!-- n8 -->
<g id="node8" class="node"><title>n8</title>
<ellipse fill="none" stroke="black" cx="2827.93" cy="-341.09" rx="67.3507" ry="26.7407"/>
<text text-anchor="middle" x="2827.93" y="-344.89" font-family="Times,serif" font-size="14.00">&lt;rover0store&gt;</text>
<text text-anchor="middle" x="2827.93" y="-329.89" font-family="Times,serif" font-size="14.00">store</text>
</g>
<!-- n8&#45;&gt;n8 -->
<g id="edge1" class="edge"><title>n8&#45;&gt;n8</title>
<path fill="none" stroke="black" d="M2891.08,-350.468C2903.92,-349.447 2913.11,-346.321 2913.11,-341.09 2913.11,-337.413 2908.56,-334.775 2901.4,-333.179"/>
<polygon fill="black" stroke="black" points="2901.47,-329.653 2891.08,-331.712 2900.49,-336.584 2901.47,-329.653"/>
<text text-anchor="middle" x="2946.11" y="-337.39" font-family="Times,serif" font-size="14.00"> init(empty)</text>
</g>
<!-- n8&#45;&gt;n26 -->
<g id="edge27" class="edge"><title>n8&#45;&gt;n26</title>
<path fill="none" stroke="black" d="M2827.93,-314.165C2827.93,-301.875 2827.93,-286.987 2827.93,-273.602"/>
<polygon fill="black" stroke="black" points="2831.43,-273.268 2827.93,-263.268 2824.43,-273.268 2831.43,-273.268"/>
<text text-anchor="middle" x="2870.93" y="-285.02" font-family="Times,serif" font-size="14.00"> static(store_of)</text>
</g>
<!-- n9 -->
<g id="node9" class="node"><title>n9</title>
<ellipse fill="none" stroke="black" cx="1420.93" cy="-131.61" rx="62.8651" ry="26.7407"/>
<text text-anchor="middle" x="1420.93" y="-135.41" font-family="Times,serif" font-size="14.00">&lt;objective5&gt;</text>
<text text-anchor="middle" x="1420.93" y="-120.41" font-family="Times,serif" font-size="14.00">objective</text>
</g>
<!-- n9&#45;&gt;n20 -->
<g id="edge43" class="edge"><title>n9&#45;&gt;n20</title>
<path fill="none" stroke="black" d="M1412.1,-104.97C1409.87,-93.4846 1410,-80.5695 1417.93,-71.7401 1439.94,-47.247 1642.13,-35.2991 1754.11,-30.5161"/>
<polygon fill="black" stroke="black" points="1754.48,-34.0037 1764.33,-30.0889 1754.19,-27.0098 1754.48,-34.0037"/>
<text text-anchor="middle" x="1473.93" y="-75.5401" font-family="Times,serif" font-size="14.00"> static(visible_from)</text>
</g>
<!-- n10 -->
<g id="node10" class="node"><title>n10</title>
<ellipse fill="none" stroke="black" cx="62.9325" cy="-236.35" rx="62.8651" ry="26.7407"/>
<text text-anchor="middle" x="62.9325" y="-240.15" font-family="Times,serif" font-size="14.00">&lt;objective6&gt;</text>
<text text-anchor="middle" x="62.9325" y="-225.15" font-family="Times,serif" font-size="14.00">objective</text>
</g>
<!-- n10&#45;&gt;n3 -->
<g id="edge22" class="edge"><title>n10&#45;&gt;n3</title>
<path fill="none" stroke="black" d="M86.9943,-211.509C101.598,-198.656 121.348,-183.939 141.933,-176.48 210.565,-151.612 397.057,-162.724 469.933,-158.48 591.752,-151.386 733.407,-142.536 817.151,-137.241"/>
<polygon fill="black" stroke="black" points="817.563,-140.722 827.322,-136.598 817.121,-133.736 817.563,-140.722"/>
<text text-anchor="middle" x="197.933" y="-180.28" font-family="Times,serif" font-size="14.00"> static(visible_from)</text>
</g>
<!-- n10&#45;&gt;n20 -->
<g id="edge6" class="edge"><title>n10&#45;&gt;n20</title>
<path fill="none" stroke="black" d="M61.0573,-209.434C60.4432,-179.715 64.4179,-131.643 92.9325,-104.74 156.867,-44.4188 200.456,-80.3458 287.933,-71.7401 577.532,-43.2503 1487.41,-31.4975 1753.9,-28.6123"/>
<polygon fill="black" stroke="black" points="1754.27,-32.1086 1764.23,-28.5014 1754.2,-25.109 1754.27,-32.1086"/>
<text text-anchor="middle" x="148.933" y="-127.91" font-family="Times,serif" font-size="14.00"> static(visible_from)</text>
</g>
<!-- n11 -->
<g id="node11" class="node"><title>n11</title>
<ellipse fill="none" stroke="black" cx="1712.93" cy="-131.61" rx="62.8651" ry="26.7407"/>
<text text-anchor="middle" x="1712.93" y="-135.41" font-family="Times,serif" font-size="14.00">&lt;objective9&gt;</text>
<text text-anchor="middle" x="1712.93" y="-120.41" font-family="Times,serif" font-size="14.00">objective</text>
</g>
<!-- n11&#45;&gt;n20 -->
<g id="edge44" class="edge"><title>n11&#45;&gt;n20</title>
<path fill="none" stroke="black" d="M1739.32,-107.04C1755.42,-92.6546 1776.18,-74.1078 1793.56,-58.582"/>
<polygon fill="black" stroke="black" points="1796.15,-60.9593 1801.27,-51.6868 1791.48,-55.7391 1796.15,-60.9593"/>
<text text-anchor="middle" x="1833.93" y="-75.5401" font-family="Times,serif" font-size="14.00"> static(visible_from)</text>
</g>
<!-- n12 -->
<g id="node12" class="node"><title>n12</title>
<ellipse fill="none" stroke="black" cx="1209.93" cy="-236.35" rx="67.7647" ry="26.7407"/>
<text text-anchor="middle" x="1209.93" y="-240.15" font-family="Times,serif" font-size="14.00">&lt;objective10&gt;</text>
<text text-anchor="middle" x="1209.93" y="-225.15" font-family="Times,serif" font-size="14.00">objective</text>
</g>
<!-- n12&#45;&gt;n3 -->
<g id="edge13" class="edge"><title>n12&#45;&gt;n3</title>
<path fill="none" stroke="black" d="M1142.23,-233.939C1019.02,-230.665 768.341,-220.48 741.933,-191.48 714.485,-161.339 767.73,-146.39 817.833,-139.131"/>
<polygon fill="black" stroke="black" points="818.349,-142.593 827.787,-137.78 817.407,-135.657 818.349,-142.593"/>
<text text-anchor="middle" x="797.933" y="-180.28" font-family="Times,serif" font-size="14.00"> static(visible_from)</text>
</g>
<!-- n12&#45;&gt;n19 -->
<g id="edge18" class="edge"><title>n12&#45;&gt;n19</title>
<path fill="none" stroke="black" d="M1218.11,-209.63C1223.42,-197.378 1231.68,-183.825 1243.93,-176.48 1295.51,-145.55 1726.03,-170.63 1784.93,-158.48 1790.36,-157.361 1795.91,-155.837 1801.39,-154.083"/>
<polygon fill="black" stroke="black" points="1802.8,-157.297 1811.11,-150.718 1800.51,-150.682 1802.8,-157.297"/>
<text text-anchor="middle" x="1335.93" y="-180.28" font-family="Times,serif" font-size="14.00"> end(communicated_image_data)</text>
</g>
<!-- n12&#45;&gt;n20 -->
<g id="edge19" class="edge"><title>n12&#45;&gt;n20</title>
<path fill="none" stroke="black" d="M1209.91,-209.282C1208.51,-197.703 1204.81,-184.833 1195.93,-176.48 1162.09,-144.628 1122.83,-194.057 1092.93,-158.48 1077.57,-140.195 1077.57,-123.031 1092.93,-104.74 1134.99,-54.6522 1576.4,-35.586 1754.26,-29.9011"/>
<polygon fill="black" stroke="black" points="1754.44,-33.3976 1764.32,-29.585 1754.22,-26.401 1754.44,-33.3976"/>
<text text-anchor="middle" x="1148.93" y="-127.91" font-family="Times,serif" font-size="14.00"> static(visible_from)</text>
</g>
<!-- n13 -->
<g id="node13" class="node"><title>n13</title>
<ellipse fill="none" stroke="black" cx="1840.93" cy="-236.35" rx="53.9813" ry="26.7407"/>
<text text-anchor="middle" x="1840.93" y="-240.15" font-family="Times,serif" font-size="14.00">&lt;low_res&gt;</text>
<text text-anchor="middle" x="1840.93" y="-225.15" font-family="Times,serif" font-size="14.00">mode</text>
</g>
<!-- n14 -->
<g id="node14" class="node"><title>n14</title>
<ellipse fill="none" stroke="black" cx="1551.93" cy="-236.35" rx="62.8651" ry="26.7407"/>
<text text-anchor="middle" x="1551.93" y="-240.15" font-family="Times,serif" font-size="14.00">&lt;objective1&gt;</text>
<text text-anchor="middle" x="1551.93" y="-225.15" font-family="Times,serif" font-size="14.00">objective</text>
</g>
<!-- n14&#45;&gt;n3 -->
<g id="edge29" class="edge"><title>n14&#45;&gt;n3</title>
<path fill="none" stroke="black" d="M1490.74,-229.361C1372.43,-217.763 1123.08,-193.219 1113.93,-191.48 1089.88,-186.909 1084.57,-182.856 1060.93,-176.48 1025.53,-166.932 985.879,-156.728 953.675,-148.566"/>
<polygon fill="black" stroke="black" points="954.486,-145.161 943.933,-146.101 952.769,-151.947 954.486,-145.161"/>
<text text-anchor="middle" x="1169.93" y="-180.28" font-family="Times,serif" font-size="14.00"> static(visible_from)</text>
</g>
<!-- n14&#45;&gt;n19 -->
<g id="edge36" class="edge"><title>n14&#45;&gt;n19</title>
<path fill="none" stroke="black" d="M1570.14,-210.378C1580.61,-198.009 1594.86,-184.12 1610.93,-176.48 1681.15,-143.106 1709.38,-176.834 1784.93,-158.48 1790.16,-157.209 1795.54,-155.617 1800.85,-153.85"/>
<polygon fill="black" stroke="black" points="1802.03,-157.144 1810.3,-150.514 1799.7,-150.543 1802.03,-157.144"/>
<text text-anchor="middle" x="1702.93" y="-180.28" font-family="Times,serif" font-size="14.00"> end(communicated_image_data)</text>
</g>
<!-- n14&#45;&gt;n20 -->
<g id="edge37" class="edge"><title>n14&#45;&gt;n20</title>
<path fill="none" stroke="black" d="M1564.16,-209.895C1567.58,-198.972 1568.94,-186.457 1562.93,-176.48 1554.11,-161.832 1537.75,-173.128 1528.93,-158.48 1516.61,-138.018 1514.3,-123.615 1528.93,-104.74 1556.65,-68.9959 1677.79,-46.9703 1757.11,-36.1112"/>
<polygon fill="black" stroke="black" points="1757.61,-39.5767 1767.05,-34.779 1756.68,-32.6387 1757.61,-39.5767"/>
<text text-anchor="middle" x="1584.93" y="-127.91" font-family="Times,serif" font-size="14.00"> static(visible_from)</text>
</g>
<!-- n15 -->
<g id="node15" class="node"><title>n15</title>
<ellipse fill="none" stroke="black" cx="2136.93" cy="-131.61" rx="62.8651" ry="26.7407"/>
<text text-anchor="middle" x="2136.93" y="-135.41" font-family="Times,serif" font-size="14.00">&lt;objective8&gt;</text>
<text text-anchor="middle" x="2136.93" y="-120.41" font-family="Times,serif" font-size="14.00">objective</text>
</g>
<!-- n15&#45;&gt;n20 -->
<g id="edge30" class="edge"><title>n15&#45;&gt;n20</title>
<path fill="none" stroke="black" d="M2088.47,-114.295C2079.01,-111.119 2069.16,-107.82 2059.93,-104.74 2001.12,-85.1186 1933.87,-62.8551 1886.97,-47.3567"/>
<polygon fill="black" stroke="black" points="1887.88,-43.9694 1877.28,-44.1556 1885.68,-50.6161 1887.88,-43.9694"/>
<text text-anchor="middle" x="2058.93" y="-75.5401" font-family="Times,serif" font-size="14.00"> static(visible_from)</text>
</g>
<!-- n16 -->
<g id="node16" class="node"><title>n16</title>
<ellipse fill="none" stroke="black" cx="2285.93" cy="-131.61" rx="67.7647" ry="26.7407"/>
<text text-anchor="middle" x="2285.93" y="-135.41" font-family="Times,serif" font-size="14.00">&lt;objective11&gt;</text>
<text text-anchor="middle" x="2285.93" y="-120.41" font-family="Times,serif" font-size="14.00">objective</text>
</g>
<!-- n16&#45;&gt;n20 -->
<g id="edge25" class="edge"><title>n16&#45;&gt;n20</title>
<path fill="none" stroke="black" d="M2239.86,-111.714C2206.72,-98.7795 2160.69,-82.149 2118.93,-71.7401 2045.24,-53.3721 1959.01,-41.5437 1899.65,-34.8534"/>
<polygon fill="black" stroke="black" points="1899.95,-31.3653 1889.63,-33.7436 1899.18,-38.3228 1899.95,-31.3653"/>
<text text-anchor="middle" x="2226.93" y="-75.5401" font-family="Times,serif" font-size="14.00"> static(visible_from)</text>
</g>
<!-- n17 -->
<g id="node17" class="node"><title>n17</title>
<ellipse fill="none" stroke="black" cx="1960.93" cy="-236.35" rx="48.1667" ry="26.7407"/>
<text text-anchor="middle" x="1960.93" y="-240.15" font-family="Times,serif" font-size="14.00">&lt;colour&gt;</text>
<text text-anchor="middle" x="1960.93" y="-225.15" font-family="Times,serif" font-size="14.00">mode</text>
</g>
<!-- n18 -->
<g id="node18" class="node"><title>n18</title>
<ellipse fill="none" stroke="black" cx="2423.93" cy="-131.61" rx="51.7379" ry="26.7407"/>
<text text-anchor="middle" x="2423.93" y="-135.41" font-family="Times,serif" font-size="14.00">&lt;general&gt;</text>
<text text-anchor="middle" x="2423.93" y="-120.41" font-family="Times,serif" font-size="14.00">lander</text>
</g>
<!-- n18&#45;&gt;n18 -->
<g id="edge2" class="edge"><title>n18&#45;&gt;n18</title>
<path fill="none" stroke="black" d="M2472.41,-141.226C2484.51,-140.554 2493.55,-137.348 2493.55,-131.61 2493.55,-127.665 2489.28,-124.917 2482.67,-123.367"/>
<polygon fill="black" stroke="black" points="2482.79,-119.85 2472.41,-121.994 2481.86,-126.789 2482.79,-119.85"/>
<text text-anchor="middle" x="2544.05" y="-127.91" font-family="Times,serif" font-size="14.00"> init(channel_free)</text>
</g>
<!-- n18&#45;&gt;n20 -->
<g id="edge38" class="edge"><title>n18&#45;&gt;n20</title>
<path fill="none" stroke="black" d="M2388.66,-111.832C2361.61,-98.3337 2322.92,-80.9514 2286.93,-71.7401 2154.07,-37.7332 1993.46,-29.5953 1901.75,-27.9323"/>
<polygon fill="black" stroke="black" points="1901.79,-24.4326 1891.73,-27.7716 1901.68,-31.4317 1901.79,-24.4326"/>
<text text-anchor="middle" x="2375.93" y="-75.5401" font-family="Times,serif" font-size="14.00"> static(at_lander)</text>
</g>
<!-- n20&#45;&gt;n3 -->
<g id="edge28" class="edge"><title>n20&#45;&gt;n3</title>
<path fill="none" stroke="black" d="M1764.34,-29.3037C1581.79,-33.6853 1064.56,-48.0601 991.933,-71.7401 980.33,-75.523 979.385,-80.4404 968.933,-86.7401 958.852,-92.8157 947.895,-99.098 937.441,-104.944"/>
<polygon fill="black" stroke="black" points="935.463,-102.039 928.419,-109.953 938.86,-108.159 935.463,-102.039"/>
<text text-anchor="middle" x="1030.93" y="-75.5401" font-family="Times,serif" font-size="14.00"> static(visible)</text>
</g>
<!-- n21 -->
<g id="node21" class="node"><title>n21</title>
<ellipse fill="none" stroke="black" cx="1700.93" cy="-236.35" rx="67.7647" ry="26.7407"/>
<text text-anchor="middle" x="1700.93" y="-240.15" font-family="Times,serif" font-size="14.00">&lt;objective12&gt;</text>
<text text-anchor="middle" x="1700.93" y="-225.15" font-family="Times,serif" font-size="14.00">objective</text>
</g>
<!-- n21&#45;&gt;n3 -->
<g id="edge9" class="edge"><title>n21&#45;&gt;n3</title>
<path fill="none" stroke="black" d="M1652.48,-217.405C1643.1,-214.409 1633.29,-211.593 1623.93,-209.48 1558.87,-194.782 1540.11,-205.684 1474.93,-191.48 1453.51,-186.811 1449.51,-180.385 1427.93,-176.48 1267.67,-147.477 1223.99,-174.612 1061.93,-158.48 1027.5,-155.053 989.425,-149.51 957.873,-144.432"/>
<polygon fill="black" stroke="black" points="958.303,-140.956 947.87,-142.803 957.178,-147.865 958.303,-140.956"/>
<text text-anchor="middle" x="1530.93" y="-180.28" font-family="Times,serif" font-size="14.00"> static(visible_from)</text>
</g>
<!-- n21&#45;&gt;n20 -->
<g id="edge35" class="edge"><title>n21&#45;&gt;n20</title>
<path fill="none" stroke="black" d="M1749.38,-217.387C1758.76,-214.393 1768.58,-211.582 1777.93,-209.48 1811.12,-202.024 1907.34,-216.907 1929.93,-191.48 1966.84,-149.939 1933.66,-110.599 1893.93,-71.7401 1887.71,-65.6548 1880.54,-59.8985 1873.26,-54.6801"/>
<polygon fill="black" stroke="black" points="1874.94,-51.5902 1864.72,-48.8138 1870.98,-57.3603 1874.94,-51.5902"/>
<text text-anchor="middle" x="2002.93" y="-127.91" font-family="Times,serif" font-size="14.00"> static(visible_from)</text>
</g>
<!-- n22 -->
<g id="node22" class="node"><title>n22</title>
<ellipse fill="none" stroke="black" cx="2828.93" cy="-131.61" rx="67.7647" ry="26.7407"/>
<text text-anchor="middle" x="2828.93" y="-135.41" font-family="Times,serif" font-size="14.00">&lt;objective13&gt;</text>
<text text-anchor="middle" x="2828.93" y="-120.41" font-family="Times,serif" font-size="14.00">objective</text>
</g>
<!-- n22&#45;&gt;n20 -->
<g id="edge24" class="edge"><title>n22&#45;&gt;n20</title>
<path fill="none" stroke="black" d="M2782.13,-111.96C2745.44,-98.2453 2692.76,-80.5257 2644.93,-71.7401 2503.5,-45.763 2074.75,-33.435 1901.62,-29.415"/>
<polygon fill="black" stroke="black" points="1901.66,-25.9151 1891.58,-29.1846 1901.5,-32.9133 1901.66,-25.9151"/>
<text text-anchor="middle" x="2762.93" y="-75.5401" font-family="Times,serif" font-size="14.00"> static(visible_from)</text>
</g>
<!-- n23 -->
<g id="node23" class="node"><title>n23</title>
<ellipse fill="none" stroke="black" cx="2058.93" cy="-341.09" rx="56.6372" ry="26.7407"/>
<text text-anchor="middle" x="2058.93" y="-344.89" font-family="Times,serif" font-size="14.00">&lt;camera1&gt;</text>
<text text-anchor="middle" x="2058.93" y="-329.89" font-family="Times,serif" font-size="14.00">camera</text>
</g>
<!-- n23&#45;&gt;n6 -->
<g id="edge33" class="edge"><title>n23&#45;&gt;n6</title>
<path fill="none" stroke="black" d="M2068.53,-314.441C2074.06,-302.812 2082.1,-289.78 2092.93,-281.22 2094.78,-279.762 2139.4,-266.54 2179,-254.99"/>
<polygon fill="black" stroke="black" points="2180.04,-258.331 2188.66,-252.174 2178.08,-251.611 2180.04,-258.331"/>
<text text-anchor="middle" x="2162.43" y="-285.02" font-family="Times,serif" font-size="14.00"> static(calibration_target)</text>
</g>
<!-- n23&#45;&gt;n13 -->
<g id="edge4" class="edge"><title>n23&#45;&gt;n13</title>
<path fill="none" stroke="black" d="M2003.84,-334.117C1952.47,-327.481 1880.74,-315.139 1859.93,-296.22 1853.23,-290.132 1848.89,-281.671 1846.07,-273.061"/>
<polygon fill="black" stroke="black" points="1849.45,-272.155 1843.49,-263.394 1842.69,-273.958 1849.45,-272.155"/>
<text text-anchor="middle" x="1903.93" y="-285.02" font-family="Times,serif" font-size="14.00"> static(supports)</text>
</g>
<!-- n23&#45;&gt;n17 -->
<g id="edge12" class="edge"><title>n23&#45;&gt;n17</title>
<path fill="none" stroke="black" d="M2007.02,-330.313C1987.96,-323.937 1968.28,-313.447 1956.93,-296.22 1952.46,-289.422 1951.14,-281.174 1951.46,-273.029"/>
<polygon fill="black" stroke="black" points="1954.96,-273.219 1952.62,-262.886 1948.01,-272.423 1954.96,-273.219"/>
<text text-anchor="middle" x="2000.93" y="-285.02" font-family="Times,serif" font-size="14.00"> static(supports)</text>
</g>
<!-- n23&#45;&gt;n19 -->
<g id="edge32" class="edge"><title>n23&#45;&gt;n19</title>
<path fill="none" stroke="black" d="M2065.46,-314.365C2072.88,-278.442 2079.84,-213.505 2044.93,-176.48 2025.83,-156.221 1947.92,-165.344 1920.93,-158.48 1914.92,-156.95 1908.7,-155.087 1902.57,-153.069"/>
<polygon fill="black" stroke="black" points="1903.65,-149.737 1893.05,-149.795 1901.37,-156.356 1903.65,-149.737"/>
<text text-anchor="middle" x="2115.93" y="-232.65" font-family="Times,serif" font-size="14.00"> static(supports)</text>
</g>
<!-- n23&#45;&gt;n26 -->
<g id="edge15" class="edge"><title>n23&#45;&gt;n26</title>
<path fill="none" stroke="black" d="M2113.55,-333.557C2208.23,-322.309 2409.03,-298.8 2578.93,-281.22 2664.18,-272.399 2688.1,-285.235 2770.93,-263.22 2775.24,-262.075 2779.64,-260.631 2783.98,-259.015"/>
<polygon fill="black" stroke="black" points="2785.37,-262.229 2793.34,-255.249 2782.75,-255.735 2785.37,-262.229"/>
<text text-anchor="middle" x="2625.43" y="-285.02" font-family="Times,serif" font-size="14.00"> static(on_board)</text>
</g>
<!-- n24 -->
<g id="node24" class="node"><title>n24</title>
<ellipse fill="none" stroke="black" cx="2977.93" cy="-131.61" rx="62.8651" ry="26.7407"/>
<text text-anchor="middle" x="2977.93" y="-135.41" font-family="Times,serif" font-size="14.00">&lt;objective4&gt;</text>
<text text-anchor="middle" x="2977.93" y="-120.41" font-family="Times,serif" font-size="14.00">objective</text>
</g>
<!-- n24&#45;&gt;n20 -->
<g id="edge39" class="edge"><title>n24&#45;&gt;n20</title>
<path fill="none" stroke="black" d="M2937.23,-111.044C2906.58,-97.3324 2863.1,-80.0308 2822.93,-71.7401 2647.02,-35.4353 2101.28,-29.1634 1901.86,-28.0889"/>
<polygon fill="black" stroke="black" points="1901.8,-24.5886 1891.78,-28.0374 1901.76,-31.5885 1901.8,-24.5886"/>
<text text-anchor="middle" x="2931.93" y="-75.5401" font-family="Times,serif" font-size="14.00"> static(visible_from)</text>
</g>
<!-- n25 -->
<g id="node25" class="node"><title>n25</title>
<ellipse fill="none" stroke="black" cx="3126.93" cy="-131.61" rx="67.7647" ry="26.7407"/>
<text text-anchor="middle" x="3126.93" y="-135.41" font-family="Times,serif" font-size="14.00">&lt;objective14&gt;</text>
<text text-anchor="middle" x="3126.93" y="-120.41" font-family="Times,serif" font-size="14.00">objective</text>
</g>
<!-- n25&#45;&gt;n20 -->
<g id="edge26" class="edge"><title>n25&#45;&gt;n20</title>
<path fill="none" stroke="black" d="M3088.68,-109.328C3062.35,-95.8481 3026.08,-79.5364 2991.93,-71.7401 2886.3,-47.6254 2141.75,-33.1406 1902.07,-29.0627"/>
<polygon fill="black" stroke="black" points="1901.78,-25.5573 1891.72,-28.8877 1901.66,-32.5563 1901.78,-25.5573"/>
<text text-anchor="middle" x="3094.93" y="-75.5401" font-family="Times,serif" font-size="14.00"> static(visible_from)</text>
</g>
<!-- n26&#45;&gt;n20 -->
<g id="edge23" class="edge"><title>n26&#45;&gt;n20</title>
<path fill="none" stroke="black" d="M2875.63,-232.641C2950.13,-227.828 3098.37,-215.906 3221.93,-191.48 3274.1,-181.168 3304.94,-200.95 3336.93,-158.48 3351.3,-139.404 3351.9,-123.355 3336.93,-104.74 3294.16,-51.539 3254.67,-80.2106 3186.93,-71.7401 2935.09,-40.2453 2147.46,-30.7072 1901.84,-28.4612"/>
<polygon fill="black" stroke="black" points="1901.63,-24.9592 1891.6,-28.3688 1901.56,-31.9589 1901.63,-24.9592"/>
<text text-anchor="middle" x="3369.43" y="-127.91" font-family="Times,serif" font-size="14.00"> init(at)</text>
</g>
<!-- n26&#45;&gt;n26 -->
<g id="edge3" class="edge"><title>n26&#45;&gt;n26</title>
<path fill="none" stroke="black" d="M2873.03,-246.015C2884.97,-245.462 2894.02,-242.241 2894.02,-236.35 2894.02,-232.3 2889.74,-229.512 2883.19,-227.986"/>
<polygon fill="black" stroke="black" points="2883.39,-224.483 2873.03,-226.686 2882.5,-231.427 2883.39,-224.483"/>
<text text-anchor="middle" x="2987.52" y="-247.65" font-family="Times,serif" font-size="14.00"> static(equipped_for_imaging)</text>
<text text-anchor="middle" x="2987.52" y="-232.65" font-family="Times,serif" font-size="14.00">init(available)</text>
<text text-anchor="middle" x="2987.52" y="-217.65" font-family="Times,serif" font-size="14.00">static(equipped_for_soil_analysis)</text>
</g>
</g>
</svg>
