<?xml version="1.0" encoding="UTF-8" standalone="no"?>
<!DOCTYPE svg PUBLIC "-//W3C//DTD SVG 1.1//EN"
 "http://www.w3.org/Graphics/SVG/1.1/DTD/svg11.dtd">
<!-- Generated by graphviz version 2.38.0 (20140413.2041)
 -->
<!-- Title: Struc Pages: 1 -->
<svg width="3965pt" height="376pt"
 viewBox="0.00 0.00 3964.92 375.96" xmlns="http://www.w3.org/2000/svg" xmlns:xlink="http://www.w3.org/1999/xlink">
<g id="graph0" class="graph" transform="scale(1 1) rotate(0) translate(4 371.96)">
<title>Struc</title>
<polygon fill="white" stroke="none" points="-4,4 -4,-371.96 3960.92,-371.96 3960.92,4 -4,4"/>
<!-- n1 -->
<g id="node1" class="node"><title>n1</title>
<ellipse fill="none" stroke="black" cx="2235.74" cy="-341.09" rx="56.6372" ry="26.7407"/>
<text text-anchor="middle" x="2235.74" y="-344.89" font-family="Times,serif" font-size="14.00">&lt;camera2&gt;</text>
<text text-anchor="middle" x="2235.74" y="-329.89" font-family="Times,serif" font-size="14.00">camera</text>
</g>
<!-- n14 -->
<g id="node14" class="node"><title>n14</title>
<ellipse fill="none" stroke="black" cx="53.7401" cy="-131.61" rx="53.9813" ry="26.7407"/>
<text text-anchor="middle" x="53.7401" y="-135.41" font-family="Times,serif" font-size="14.00">&lt;low_res&gt;</text>
<text text-anchor="middle" x="53.7401" y="-120.41" font-family="Times,serif" font-size="14.00">mode</text>
</g>
<!-- n1&#45;&gt;n14 -->
<g id="edge42" class="edge"><title>n1&#45;&gt;n14</title>
<path fill="none" stroke="black" d="M2179.24,-339.512C1849.64,-335.954 186.46,-315.458 92.7401,-263.22 59.2306,-244.543 55.8878,-228.188 44.7401,-191.48 42.484,-184.051 42.3259,-175.915 43.2291,-168.126"/>
<polygon fill="black" stroke="black" points="46.6948,-168.623 44.9405,-158.175 39.7961,-167.437 46.6948,-168.623"/>
<text text-anchor="middle" x="136.74" y="-232.65" font-family="Times,serif" font-size="14.00"> static(supports)</text>
</g>
<!-- n22 -->
<g id="node22" class="node"><title>n22</title>
<ellipse fill="none" stroke="black" cx="2235.74" cy="-236.35" rx="67.7647" ry="26.7407"/>
<text text-anchor="middle" x="2235.74" y="-240.15" font-family="Times,serif" font-size="14.00">&lt;objective11&gt;</text>
<text text-anchor="middle" x="2235.74" y="-225.15" font-family="Times,serif" font-size="14.00">objective</text>
</g>
<!-- n1&#45;&gt;n22 -->
<g id="edge15" class="edge"><title>n1&#45;&gt;n22</title>
<path fill="none" stroke="black" d="M2235.74,-314.165C2235.74,-301.875 2235.74,-286.987 2235.74,-273.602"/>
<polygon fill="black" stroke="black" points="2239.24,-273.268 2235.74,-263.268 2232.24,-273.268 2239.24,-273.268"/>
<text text-anchor="middle" x="2304.24" y="-285.02" font-family="Times,serif" font-size="14.00"> static(calibration_target)</text>
</g>
<!-- n27 -->
<g id="node27" class="node"><title>n27</title>
<ellipse fill="none" stroke="black" cx="3599.74" cy="-131.61" rx="48.1667" ry="26.7407"/>
<text text-anchor="middle" x="3599.74" y="-135.41" font-family="Times,serif" font-size="14.00">&lt;rover0&gt;</text>
<text text-anchor="middle" x="3599.74" y="-120.41" font-family="Times,serif" font-size="14.00">rover</text>
</g>
<!-- n1&#45;&gt;n27 -->
<g id="edge6" class="edge"><title>n1&#45;&gt;n27</title>
<path fill="none" stroke="black" d="M2292.28,-339.229C2452.65,-336.104 2923.76,-322.188 3309.74,-263.22 3446.97,-242.255 3527.59,-300.333 3613.74,-191.48 3619.28,-184.478 3619.6,-175.634 3617.55,-166.945"/>
<polygon fill="black" stroke="black" points="3620.83,-165.715 3614.39,-157.306 3614.18,-167.899 3620.83,-165.715"/>
<text text-anchor="middle" x="3643.24" y="-232.65" font-family="Times,serif" font-size="14.00"> static(on_board)</text>
</g>
<!-- n2 -->
<g id="node2" class="node"><title>n2</title>
<ellipse fill="none" stroke="black" cx="517.74" cy="-236.35" rx="62.8651" ry="26.7407"/>
<text text-anchor="middle" x="517.74" y="-240.15" font-family="Times,serif" font-size="14.00">&lt;objective2&gt;</text>
<text text-anchor="middle" x="517.74" y="-225.15" font-family="Times,serif" font-size="14.00">objective</text>
</g>
<!-- n4 -->
<g id="node4" class="node"><title>n4</title>
<ellipse fill="none" stroke="black" cx="1628.74" cy="-131.61" rx="63.7795" ry="26.7407"/>
<text text-anchor="middle" x="1628.74" y="-135.41" font-family="Times,serif" font-size="14.00">&lt;waypoint1&gt;</text>
<text text-anchor="middle" x="1628.74" y="-120.41" font-family="Times,serif" font-size="14.00">waypoint</text>
</g>
<!-- n2&#45;&gt;n4 -->
<g id="edge23" class="edge"><title>n2&#45;&gt;n4</title>
<path fill="none" stroke="black" d="M574.603,-224.505C603.835,-219.274 640.09,-213.317 672.74,-209.48 730.701,-202.669 880.297,-212.499 934.74,-191.48 944.777,-187.605 943.63,-180.16 953.74,-176.48 1016.62,-153.591 1489.97,-170.805 1555.74,-158.48 1561.9,-157.326 1568.23,-155.736 1574.48,-153.905"/>
<polygon fill="black" stroke="black" points="1575.68,-157.195 1584.17,-150.86 1573.58,-150.517 1575.68,-157.195"/>
<text text-anchor="middle" x="1009.74" y="-180.28" font-family="Times,serif" font-size="14.00"> static(visible_from)</text>
</g>
<!-- n20 -->
<g id="node20" class="node"><title>n20</title>
<ellipse fill="none" stroke="black" cx="962.74" cy="-131.61" rx="56.6372" ry="26.7407"/>
<text text-anchor="middle" x="962.74" y="-135.41" font-family="Times,serif" font-size="14.00">&lt;high_res&gt;</text>
<text text-anchor="middle" x="962.74" y="-120.41" font-family="Times,serif" font-size="14.00">mode</text>
</g>
<!-- n2&#45;&gt;n20 -->
<g id="edge14" class="edge"><title>n2&#45;&gt;n20</title>
<path fill="none" stroke="black" d="M528.132,-209.71C534.492,-197.479 543.907,-183.921 556.74,-176.48 609.913,-145.652 771.801,-166.496 832.74,-158.48 855.79,-155.448 880.893,-150.781 902.839,-146.24"/>
<polygon fill="black" stroke="black" points="903.617,-149.653 912.682,-144.169 902.176,-142.803 903.617,-149.653"/>
<text text-anchor="middle" x="648.74" y="-180.28" font-family="Times,serif" font-size="14.00"> end(communicated_image_data)</text>
</g>
<!-- n21 -->
<g id="node21" class="node"><title>n21</title>
<ellipse fill="none" stroke="black" cx="1956.74" cy="-26.8701" rx="63.7795" ry="26.7407"/>
<text text-anchor="middle" x="1956.74" y="-30.6701" font-family="Times,serif" font-size="14.00">&lt;waypoint0&gt;</text>
<text text-anchor="middle" x="1956.74" y="-15.6701" font-family="Times,serif" font-size="14.00">waypoint</text>
</g>
<!-- n2&#45;&gt;n21 -->
<g id="edge13" class="edge"><title>n2&#45;&gt;n21</title>
<path fill="none" stroke="black" d="M456.33,-230.435C403.234,-224.759 332.317,-213.262 314.74,-191.48 310.553,-186.292 310.581,-181.69 314.74,-176.48 325.973,-162.412 613.06,-108.132 630.74,-104.74 723.527,-86.9383 746.711,-80.9446 840.74,-71.7401 1232.12,-33.4277 1703.82,-28.2857 1882.92,-27.8029"/>
<polygon fill="black" stroke="black" points="1883.03,-31.3028 1893.02,-27.7798 1883.01,-24.3028 1883.03,-31.3028"/>
<text text-anchor="middle" x="690.74" y="-127.91" font-family="Times,serif" font-size="14.00"> static(visible_from)</text>
</g>
<!-- n3 -->
<g id="node3" class="node"><title>n3</title>
<ellipse fill="none" stroke="black" cx="749.74" cy="-236.35" rx="67.7647" ry="26.7407"/>
<text text-anchor="middle" x="749.74" y="-240.15" font-family="Times,serif" font-size="14.00">&lt;objective15&gt;</text>
<text text-anchor="middle" x="749.74" y="-225.15" font-family="Times,serif" font-size="14.00">objective</text>
</g>
<!-- n3&#45;&gt;n4 -->
<g id="edge8" class="edge"><title>n3&#45;&gt;n4</title>
<path fill="none" stroke="black" d="M817.697,-235.694C919.572,-234.877 1117.37,-228.116 1280.74,-191.48 1299.27,-187.326 1302.2,-180.579 1320.74,-176.48 1423.02,-153.865 1453.26,-180.164 1555.74,-158.48 1561.78,-157.202 1568.01,-155.549 1574.15,-153.697"/>
<polygon fill="black" stroke="black" points="1575.25,-157.022 1583.71,-150.65 1573.12,-150.353 1575.25,-157.022"/>
<text text-anchor="middle" x="1376.74" y="-180.28" font-family="Times,serif" font-size="14.00"> static(visible_from)</text>
</g>
<!-- n3&#45;&gt;n20 -->
<g id="edge25" class="edge"><title>n3&#45;&gt;n20</title>
<path fill="none" stroke="black" d="M743.46,-209.388C742.294,-198.109 743.306,-185.454 750.74,-176.48 751.972,-174.994 838.999,-157.335 901.154,-144.881"/>
<polygon fill="black" stroke="black" points="902.166,-148.248 911.284,-142.853 900.792,-141.384 902.166,-148.248"/>
<text text-anchor="middle" x="844.74" y="-180.28" font-family="Times,serif" font-size="14.00"> end(communicated_image_data)</text>
</g>
<!-- n3&#45;&gt;n21 -->
<g id="edge28" class="edge"><title>n3&#45;&gt;n21</title>
<path fill="none" stroke="black" d="M741.089,-209.557C738.814,-199.159 737.735,-187.127 740.74,-176.48 750.9,-140.483 752.949,-124.447 784.74,-104.74 877.858,-47.0177 1640.62,-32.0362 1883.06,-28.7141"/>
<polygon fill="black" stroke="black" points="1883.23,-32.2123 1893.18,-28.5781 1883.13,-25.2129 1883.23,-32.2123"/>
<text text-anchor="middle" x="840.74" y="-127.91" font-family="Times,serif" font-size="14.00"> static(visible_from)</text>
</g>
<!-- n4&#45;&gt;n21 -->
<g id="edge10" class="edge"><title>n4&#45;&gt;n21</title>
<path fill="none" stroke="black" d="M1663.19,-108.82C1674.24,-101.798 1686.52,-93.9645 1697.74,-86.7401 1708,-80.1327 1709.41,-76.2764 1720.74,-71.7401 1773.38,-50.6619 1836.74,-39.5968 1884.55,-33.8553"/>
<polygon fill="black" stroke="black" points="1884.97,-37.3299 1894.5,-32.7092 1884.17,-30.3758 1884.97,-37.3299"/>
<text text-anchor="middle" x="1759.74" y="-75.5401" font-family="Times,serif" font-size="14.00"> static(visible)</text>
</g>
<!-- n5 -->
<g id="node5" class="node"><title>n5</title>
<ellipse fill="none" stroke="black" cx="3243.74" cy="-236.35" rx="56.6372" ry="26.7407"/>
<text text-anchor="middle" x="3243.74" y="-240.15" font-family="Times,serif" font-size="14.00">&lt;camera0&gt;</text>
<text text-anchor="middle" x="3243.74" y="-225.15" font-family="Times,serif" font-size="14.00">camera</text>
</g>
<!-- n16 -->
<g id="node16" class="node"><title>n16</title>
<ellipse fill="none" stroke="black" cx="3470.74" cy="-131.61" rx="62.8651" ry="26.7407"/>
<text text-anchor="middle" x="3470.74" y="-135.41" font-family="Times,serif" font-size="14.00">&lt;objective7&gt;</text>
<text text-anchor="middle" x="3470.74" y="-120.41" font-family="Times,serif" font-size="14.00">objective</text>
</g>
<!-- n5&#45;&gt;n16 -->
<g id="edge11" class="edge"><title>n5&#45;&gt;n16</title>
<path fill="none" stroke="black" d="M3237.14,-209.378C3235.85,-197.96 3236.85,-185.195 3244.74,-176.48 3267.86,-150.937 3365.2,-166.357 3398.74,-158.48 3404.46,-157.138 3410.34,-155.488 3416.18,-153.677"/>
<polygon fill="black" stroke="black" points="3417.48,-156.934 3425.89,-150.501 3415.3,-150.28 3417.48,-156.934"/>
<text text-anchor="middle" x="3313.24" y="-180.28" font-family="Times,serif" font-size="14.00"> static(calibration_target)</text>
</g>
<!-- n5&#45;&gt;n20 -->
<g id="edge36" class="edge"><title>n5&#45;&gt;n20</title>
<path fill="none" stroke="black" d="M3203.74,-217.173C3166.4,-200.276 3115.68,-177.547 3110.74,-176.48 3000.83,-152.731 1198.54,-170.521 1086.74,-158.48 1065.32,-156.173 1042.13,-151.843 1021.67,-147.376"/>
<polygon fill="black" stroke="black" points="1022.39,-143.95 1011.86,-145.181 1020.86,-150.781 1022.39,-143.95"/>
<text text-anchor="middle" x="3190.74" y="-180.28" font-family="Times,serif" font-size="14.00"> static(supports)</text>
</g>
<!-- n5&#45;&gt;n27 -->
<g id="edge22" class="edge"><title>n5&#45;&gt;n27</title>
<path fill="none" stroke="black" d="M3299.74,-232.208C3352.4,-227.754 3432.66,-217.056 3497.74,-191.48 3509.1,-187.016 3510.29,-182.78 3520.74,-176.48 3532.3,-169.511 3545.02,-162.269 3556.81,-155.726"/>
<polygon fill="black" stroke="black" points="3558.54,-158.768 3565.61,-150.875 3555.16,-152.638 3558.54,-158.768"/>
<text text-anchor="middle" x="3567.24" y="-180.28" font-family="Times,serif" font-size="14.00"> static(on_board)</text>
</g>
<!-- n6 -->
<g id="node6" class="node"><title>n6</title>
<ellipse fill="none" stroke="black" cx="1163.74" cy="-131.61" rx="67.7647" ry="26.7407"/>
<text text-anchor="middle" x="1163.74" y="-135.41" font-family="Times,serif" font-size="14.00">&lt;objective14&gt;</text>
<text text-anchor="middle" x="1163.74" y="-120.41" font-family="Times,serif" font-size="14.00">objective</text>
</g>
<!-- n6&#45;&gt;n21 -->
<g id="edge18" class="edge"><title>n6&#45;&gt;n21</title>
<path fill="none" stroke="black" d="M1156.93,-104.714C1155.54,-93.1722 1156.52,-80.2838 1164.74,-71.7401 1189.43,-46.0879 1691.15,-33.2506 1883.01,-29.265"/>
<polygon fill="black" stroke="black" points="1883.36,-32.7588 1893.29,-29.054 1883.22,-25.7603 1883.36,-32.7588"/>
<text text-anchor="middle" x="1220.74" y="-75.5401" font-family="Times,serif" font-size="14.00"> static(visible_from)</text>
</g>
<!-- n7 -->
<g id="node7" class="node"><title>n7</title>
<ellipse fill="none" stroke="black" cx="1644.74" cy="-236.35" rx="62.8651" ry="26.7407"/>
<text text-anchor="middle" x="1644.74" y="-240.15" font-family="Times,serif" font-size="14.00">&lt;objective6&gt;</text>
<text text-anchor="middle" x="1644.74" y="-225.15" font-family="Times,serif" font-size="14.00">objective</text>
</g>
<!-- n7&#45;&gt;n4 -->
<g id="edge20" class="edge"><title>n7&#45;&gt;n4</title>
<path fill="none" stroke="black" d="M1611.48,-213.353C1604.71,-207.15 1598.5,-199.791 1594.74,-191.48 1590.73,-182.623 1592.82,-173.37 1597.5,-164.893"/>
<polygon fill="black" stroke="black" points="1600.54,-166.651 1603.17,-156.389 1594.71,-162.768 1600.54,-166.651"/>
<text text-anchor="middle" x="1650.74" y="-180.28" font-family="Times,serif" font-size="14.00"> static(visible_from)</text>
</g>
<!-- n7&#45;&gt;n21 -->
<g id="edge38" class="edge"><title>n7&#45;&gt;n21</title>
<path fill="none" stroke="black" d="M1700.6,-223.785C1758.05,-211.762 1839.48,-194.304 1841.74,-191.48 1845.91,-186.279 1846.03,-181.58 1841.74,-176.48 1811.53,-140.593 1767.95,-194.367 1737.74,-158.48 1722.36,-140.208 1723.44,-123.87 1737.74,-104.74 1754.66,-82.1 1771.92,-95.6802 1798.74,-86.7401 1833.2,-75.2532 1871.37,-61.0726 1901.56,-49.5075"/>
<polygon fill="black" stroke="black" points="1902.99,-52.7076 1911.06,-45.8512 1900.47,-46.1741 1902.99,-52.7076"/>
<text text-anchor="middle" x="1793.74" y="-127.91" font-family="Times,serif" font-size="14.00"> static(visible_from)</text>
</g>
<!-- n8 -->
<g id="node8" class="node"><title>n8</title>
<ellipse fill="none" stroke="black" cx="1483.74" cy="-131.61" rx="62.8651" ry="26.7407"/>
<text text-anchor="middle" x="1483.74" y="-135.41" font-family="Times,serif" font-size="14.00">&lt;objective1&gt;</text>
<text text-anchor="middle" x="1483.74" y="-120.41" font-family="Times,serif" font-size="14.00">objective</text>
</g>
<!-- n8&#45;&gt;n21 -->
<g id="edge7" class="edge"><title>n8&#45;&gt;n21</title>
<path fill="none" stroke="black" d="M1482,-104.648C1482.69,-92.948 1485.76,-79.9461 1494.74,-71.7401 1522.76,-46.1346 1759.89,-34.4543 1883.07,-30.0731"/>
<polygon fill="black" stroke="black" points="1883.31,-33.5669 1893.18,-29.7207 1883.07,-26.5712 1883.31,-33.5669"/>
<text text-anchor="middle" x="1550.74" y="-75.5401" font-family="Times,serif" font-size="14.00"> static(visible_from)</text>
</g>
<!-- n9 -->
<g id="node9" class="node"><title>n9</title>
<ellipse fill="none" stroke="black" cx="3805.74" cy="-236.35" rx="67.3507" ry="26.7407"/>
<text text-anchor="middle" x="3805.74" y="-240.15" font-family="Times,serif" font-size="14.00">&lt;rover0store&gt;</text>
<text text-anchor="middle" x="3805.74" y="-225.15" font-family="Times,serif" font-size="14.00">store</text>
</g>
<!-- n9&#45;&gt;n9 -->
<g id="edge1" class="edge"><title>n9&#45;&gt;n9</title>
<path fill="none" stroke="black" d="M3868.89,-245.728C3881.72,-244.707 3890.92,-241.581 3890.92,-236.35 3890.92,-232.673 3886.37,-230.035 3879.21,-228.438"/>
<polygon fill="black" stroke="black" points="3879.28,-224.913 3868.89,-226.972 3878.29,-231.844 3879.28,-224.913"/>
<text text-anchor="middle" x="3923.92" y="-232.65" font-family="Times,serif" font-size="14.00"> init(empty)</text>
</g>
<!-- n9&#45;&gt;n27 -->
<g id="edge32" class="edge"><title>n9&#45;&gt;n27</title>
<path fill="none" stroke="black" d="M3764.55,-214.806C3729.73,-197.443 3679.97,-172.625 3644.25,-154.808"/>
<polygon fill="black" stroke="black" points="3645.54,-151.541 3635.03,-150.21 3642.42,-157.805 3645.54,-151.541"/>
<text text-anchor="middle" x="3758.74" y="-180.28" font-family="Times,serif" font-size="14.00"> static(store_of)</text>
</g>
<!-- n10 -->
<g id="node10" class="node"><title>n10</title>
<ellipse fill="none" stroke="black" cx="252.74" cy="-236.35" rx="62.8651" ry="26.7407"/>
<text text-anchor="middle" x="252.74" y="-240.15" font-family="Times,serif" font-size="14.00">&lt;objective4&gt;</text>
<text text-anchor="middle" x="252.74" y="-225.15" font-family="Times,serif" font-size="14.00">objective</text>
</g>
<!-- n10&#45;&gt;n14 -->
<g id="edge31" class="edge"><title>n10&#45;&gt;n14</title>
<path fill="none" stroke="black" d="M195.913,-224.54C139.037,-213.452 59.2989,-197.062 54.7401,-191.48 49.4995,-185.064 47.4769,-176.81 47.16,-168.524"/>
<polygon fill="black" stroke="black" points="50.6579,-168.643 47.5178,-158.524 43.6624,-168.393 50.6579,-168.643"/>
<text text-anchor="middle" x="146.74" y="-180.28" font-family="Times,serif" font-size="14.00"> end(communicated_image_data)</text>
</g>
<!-- n10&#45;&gt;n20 -->
<g id="edge45" class="edge"><title>n10&#45;&gt;n20</title>
<path fill="none" stroke="black" d="M282.765,-212.554C301.964,-199.37 328.013,-183.952 353.74,-176.48 456.033,-146.772 726.949,-170.914 832.74,-158.48 855.83,-155.766 880.941,-151.166 902.883,-146.59"/>
<polygon fill="black" stroke="black" points="903.67,-150.001 912.723,-144.496 902.213,-143.154 903.67,-150.001"/>
<text text-anchor="middle" x="445.74" y="-180.28" font-family="Times,serif" font-size="14.00"> end(communicated_image_data)</text>
</g>
<!-- n10&#45;&gt;n21 -->
<g id="edge46" class="edge"><title>n10&#45;&gt;n21</title>
<path fill="none" stroke="black" d="M249.616,-209.275C246.206,-175.472 242.91,-119.138 256.74,-104.74 313.842,-45.2938 1563.67,-31.0729 1882.99,-28.4048"/>
<polygon fill="black" stroke="black" points="1883.09,-31.9042 1893.06,-28.3219 1883.03,-24.9044 1883.09,-31.9042"/>
<text text-anchor="middle" x="312.74" y="-127.91" font-family="Times,serif" font-size="14.00"> static(visible_from)</text>
</g>
<!-- n11 -->
<g id="node11" class="node"><title>n11</title>
<ellipse fill="none" stroke="black" cx="1840.74" cy="-236.35" rx="62.8651" ry="26.7407"/>
<text text-anchor="middle" x="1840.74" y="-240.15" font-family="Times,serif" font-size="14.00">&lt;objective5&gt;</text>
<text text-anchor="middle" x="1840.74" y="-225.15" font-family="Times,serif" font-size="14.00">objective</text>
</g>
<!-- n11&#45;&gt;n4 -->
<g id="edge24" class="edge"><title>n11&#45;&gt;n4</title>
<path fill="none" stroke="black" d="M1799.86,-215.541C1765.26,-198.769 1715.53,-174.67 1678.59,-156.768"/>
<polygon fill="black" stroke="black" points="1680.02,-153.57 1669.49,-152.359 1676.96,-159.869 1680.02,-153.57"/>
<text text-anchor="middle" x="1803.74" y="-180.28" font-family="Times,serif" font-size="14.00"> static(visible_from)</text>
</g>
<!-- n11&#45;&gt;n21 -->
<g id="edge9" class="edge"><title>n11&#45;&gt;n21</title>
<path fill="none" stroke="black" d="M1887.67,-218.152C1896.91,-215.053 1906.58,-212.008 1915.74,-209.48 1953.38,-199.093 1976.4,-221.194 2001.74,-191.48 2019.02,-171.216 2017.73,-95.9997 2006.74,-71.7401 2004.39,-66.5462 2001.08,-61.7238 1997.28,-57.3229"/>
<polygon fill="black" stroke="black" points="1999.49,-54.5745 1990,-49.8673 1994.48,-59.4662 1999.49,-54.5745"/>
<text text-anchor="middle" x="2071.74" y="-127.91" font-family="Times,serif" font-size="14.00"> static(visible_from)</text>
</g>
<!-- n12 -->
<g id="node12" class="node"><title>n12</title>
<ellipse fill="none" stroke="black" cx="1921.74" cy="-131.61" rx="62.8651" ry="26.7407"/>
<text text-anchor="middle" x="1921.74" y="-135.41" font-family="Times,serif" font-size="14.00">&lt;objective8&gt;</text>
<text text-anchor="middle" x="1921.74" y="-120.41" font-family="Times,serif" font-size="14.00">objective</text>
</g>
<!-- n12&#45;&gt;n21 -->
<g id="edge47" class="edge"><title>n12&#45;&gt;n21</title>
<path fill="none" stroke="black" d="M1900.23,-106.302C1893.4,-95.5912 1888.95,-82.925 1894.74,-71.7401 1898.16,-65.138 1903.07,-59.3162 1908.67,-54.2512"/>
<polygon fill="black" stroke="black" points="1911.06,-56.8194 1916.64,-47.8112 1906.66,-51.3753 1911.06,-56.8194"/>
<text text-anchor="middle" x="1950.74" y="-75.5401" font-family="Times,serif" font-size="14.00"> static(visible_from)</text>
</g>
<!-- n13 -->
<g id="node13" class="node"><title>n13</title>
<ellipse fill="none" stroke="black" cx="1987.74" cy="-236.35" rx="62.8651" ry="26.7407"/>
<text text-anchor="middle" x="1987.74" y="-240.15" font-family="Times,serif" font-size="14.00">&lt;objective9&gt;</text>
<text text-anchor="middle" x="1987.74" y="-225.15" font-family="Times,serif" font-size="14.00">objective</text>
</g>
<!-- n13&#45;&gt;n4 -->
<g id="edge17" class="edge"><title>n13&#45;&gt;n4</title>
<path fill="none" stroke="black" d="M1951.55,-214.259C1927.46,-201.218 1894.67,-185.331 1863.74,-176.48 1796.22,-157.158 1775.32,-173.616 1706.74,-158.48 1699.75,-156.937 1692.5,-155.005 1685.36,-152.895"/>
<polygon fill="black" stroke="black" points="1686.33,-149.529 1675.74,-149.928 1684.26,-156.219 1686.33,-149.529"/>
<text text-anchor="middle" x="1958.74" y="-180.28" font-family="Times,serif" font-size="14.00"> static(visible_from)</text>
</g>
<!-- n13&#45;&gt;n21 -->
<g id="edge21" class="edge"><title>n13&#45;&gt;n21</title>
<path fill="none" stroke="black" d="M2047.86,-228.087C2092.38,-221.327 2147.67,-209.543 2161.74,-191.48 2165.84,-186.221 2162.85,-183.053 2161.74,-176.48 2156.11,-143.189 2159.79,-129.417 2136.74,-104.74 2106.72,-72.5966 2061.04,-53.3062 2023.21,-42.0887"/>
<polygon fill="black" stroke="black" points="2023.85,-38.6321 2013.28,-39.2715 2021.94,-45.3666 2023.85,-38.6321"/>
<text text-anchor="middle" x="2215.74" y="-127.91" font-family="Times,serif" font-size="14.00"> static(visible_from)</text>
</g>
<!-- n15 -->
<g id="node15" class="node"><title>n15</title>
<ellipse fill="none" stroke="black" cx="1290.74" cy="-236.35" rx="62.8651" ry="26.7407"/>
<text text-anchor="middle" x="1290.74" y="-240.15" font-family="Times,serif" font-size="14.00">&lt;objective0&gt;</text>
<text text-anchor="middle" x="1290.74" y="-225.15" font-family="Times,serif" font-size="14.00">objective</text>
</g>
<!-- n15&#45;&gt;n4 -->
<g id="edge34" class="edge"><title>n15&#45;&gt;n4</title>
<path fill="none" stroke="black" d="M1342.36,-220.754C1370.42,-212.591 1405.64,-201.97 1436.74,-191.48 1454.73,-185.412 1458.55,-181.935 1476.74,-176.48 1511.23,-166.135 1521.15,-168.512 1555.74,-158.48 1561.28,-156.873 1567.02,-155.077 1572.73,-153.201"/>
<polygon fill="black" stroke="black" points="1573.91,-156.496 1582.27,-149.988 1571.68,-149.862 1573.91,-156.496"/>
<text text-anchor="middle" x="1532.74" y="-180.28" font-family="Times,serif" font-size="14.00"> static(visible_from)</text>
</g>
<!-- n15&#45;&gt;n20 -->
<g id="edge40" class="edge"><title>n15&#45;&gt;n20</title>
<path fill="none" stroke="black" d="M1230.99,-227.843C1190.79,-221.424 1137.21,-210.174 1092.74,-191.48 1081.49,-186.751 1080.55,-182.154 1069.74,-176.48 1052.79,-167.581 1033.63,-159.226 1016.25,-152.243"/>
<polygon fill="black" stroke="black" points="1017.39,-148.93 1006.8,-148.511 1014.81,-155.441 1017.39,-148.93"/>
<text text-anchor="middle" x="1184.74" y="-180.28" font-family="Times,serif" font-size="14.00"> end(communicated_image_data)</text>
</g>
<!-- n15&#45;&gt;n21 -->
<g id="edge41" class="edge"><title>n15&#45;&gt;n21</title>
<path fill="none" stroke="black" d="M1284.12,-209.485C1278.33,-180.268 1274.35,-133.107 1299.74,-104.74 1338.15,-61.8289 1719.76,-38.9685 1883.14,-31.0834"/>
<polygon fill="black" stroke="black" points="1883.76,-34.558 1893.58,-30.5856 1883.42,-27.5659 1883.76,-34.558"/>
<text text-anchor="middle" x="1355.74" y="-127.91" font-family="Times,serif" font-size="14.00"> static(visible_from)</text>
</g>
<!-- n16&#45;&gt;n21 -->
<g id="edge35" class="edge"><title>n16&#45;&gt;n21</title>
<path fill="none" stroke="black" d="M3432.19,-110.156C3404.31,-96.4872 3365.26,-79.6195 3328.74,-71.7401 3201.87,-44.3691 2297.46,-31.8141 2030.65,-28.6793"/>
<polygon fill="black" stroke="black" points="2030.34,-25.1755 2020.3,-28.5587 2030.26,-32.1751 2030.34,-25.1755"/>
<text text-anchor="middle" x="3433.74" y="-75.5401" font-family="Times,serif" font-size="14.00"> static(visible_from)</text>
</g>
<!-- n17 -->
<g id="node17" class="node"><title>n17</title>
<ellipse fill="none" stroke="black" cx="2514.74" cy="-131.61" rx="67.7647" ry="26.7407"/>
<text text-anchor="middle" x="2514.74" y="-135.41" font-family="Times,serif" font-size="14.00">&lt;objective10&gt;</text>
<text text-anchor="middle" x="2514.74" y="-120.41" font-family="Times,serif" font-size="14.00">objective</text>
</g>
<!-- n17&#45;&gt;n21 -->
<g id="edge29" class="edge"><title>n17&#45;&gt;n21</title>
<path fill="none" stroke="black" d="M2466.62,-112.396C2429.9,-99.1887 2377.78,-81.9242 2330.74,-71.7401 2227.61,-49.4119 2105.85,-37.7999 2029.95,-32.2671"/>
<polygon fill="black" stroke="black" points="2029.77,-28.7458 2019.55,-31.5262 2029.28,-35.7281 2029.77,-28.7458"/>
<text text-anchor="middle" x="2443.74" y="-75.5401" font-family="Times,serif" font-size="14.00"> static(visible_from)</text>
</g>
<!-- n18 -->
<g id="node18" class="node"><title>n18</title>
<ellipse fill="none" stroke="black" cx="2889.74" cy="-131.61" rx="48.1667" ry="26.7407"/>
<text text-anchor="middle" x="2889.74" y="-135.41" font-family="Times,serif" font-size="14.00">&lt;colour&gt;</text>
<text text-anchor="middle" x="2889.74" y="-120.41" font-family="Times,serif" font-size="14.00">mode</text>
</g>
<!-- n19 -->
<g id="node19" class="node"><title>n19</title>
<ellipse fill="none" stroke="black" cx="2652.74" cy="-131.61" rx="51.7379" ry="26.7407"/>
<text text-anchor="middle" x="2652.74" y="-135.41" font-family="Times,serif" font-size="14.00">&lt;general&gt;</text>
<text text-anchor="middle" x="2652.74" y="-120.41" font-family="Times,serif" font-size="14.00">lander</text>
</g>
<!-- n19&#45;&gt;n19 -->
<g id="edge2" class="edge"><title>n19&#45;&gt;n19</title>
<path fill="none" stroke="black" d="M2701.22,-141.226C2713.32,-140.554 2722.36,-137.348 2722.36,-131.61 2722.36,-127.665 2718.08,-124.917 2711.48,-123.367"/>
<polygon fill="black" stroke="black" points="2711.59,-119.85 2701.22,-121.994 2710.67,-126.789 2711.59,-119.85"/>
<text text-anchor="middle" x="2772.86" y="-127.91" font-family="Times,serif" font-size="14.00"> init(channel_free)</text>
</g>
<!-- n19&#45;&gt;n21 -->
<g id="edge43" class="edge"><title>n19&#45;&gt;n21</title>
<path fill="none" stroke="black" d="M2616.41,-112.521C2586.85,-98.729 2543.65,-80.6388 2503.74,-71.7401 2337.71,-34.7169 2137.18,-27.9977 2031.05,-27.3207"/>
<polygon fill="black" stroke="black" points="2030.78,-23.8195 2020.77,-27.2722 2030.75,-30.8194 2030.78,-23.8195"/>
<text text-anchor="middle" x="2600.74" y="-75.5401" font-family="Times,serif" font-size="14.00"> static(at_lander)</text>
</g>
<!-- n21&#45;&gt;n4 -->
<g id="edge33" class="edge"><title>n21&#45;&gt;n4</title>
<path fill="none" stroke="black" d="M1893.77,-31.5354C1800.28,-37.6284 1633.78,-51.2356 1615.74,-71.7401 1609.91,-78.3639 1609.33,-87.0071 1611.18,-95.622"/>
<polygon fill="black" stroke="black" points="1607.85,-96.7011 1614.13,-105.228 1614.53,-94.6403 1607.85,-96.7011"/>
<text text-anchor="middle" x="1654.74" y="-75.5401" font-family="Times,serif" font-size="14.00"> static(visible)</text>
</g>
<!-- n22&#45;&gt;n4 -->
<g id="edge12" class="edge"><title>n22&#45;&gt;n4</title>
<path fill="none" stroke="black" d="M2180.82,-220.377C2117.21,-203.046 2020.8,-176.816 2018.74,-176.48 1881.65,-154.177 1843.17,-184.568 1706.74,-158.48 1699.61,-157.117 1692.23,-155.274 1684.99,-153.195"/>
<polygon fill="black" stroke="black" points="1685.82,-149.789 1675.23,-150.238 1683.79,-156.488 1685.82,-149.789"/>
<text text-anchor="middle" x="2128.74" y="-180.28" font-family="Times,serif" font-size="14.00"> static(visible_from)</text>
</g>
<!-- n22&#45;&gt;n21 -->
<g id="edge39" class="edge"><title>n22&#45;&gt;n21</title>
<path fill="none" stroke="black" d="M2303.35,-233.434C2364.59,-229.194 2440.7,-216.119 2408.74,-176.48 2385.05,-147.097 2358.54,-177.154 2325.74,-158.48 2297.39,-142.341 2303.91,-121.203 2275.74,-104.74 2198.9,-59.8284 2097.04,-41.1046 2029.32,-33.3317"/>
<polygon fill="black" stroke="black" points="2029.49,-29.8294 2019.17,-32.2191 2028.73,-36.7878 2029.49,-29.8294"/>
<text text-anchor="middle" x="2381.74" y="-127.91" font-family="Times,serif" font-size="14.00"> static(visible_from)</text>
</g>
<!-- n23 -->
<g id="node23" class="node"><title>n23</title>
<ellipse fill="none" stroke="black" cx="3023.74" cy="-131.61" rx="67.7647" ry="26.7407"/>
<text text-anchor="middle" x="3023.74" y="-135.41" font-family="Times,serif" font-size="14.00">&lt;objective12&gt;</text>
<text text-anchor="middle" x="3023.74" y="-120.41" font-family="Times,serif" font-size="14.00">objective</text>
</g>
<!-- n23&#45;&gt;n21 -->
<g id="edge27" class="edge"><title>n23&#45;&gt;n21</title>
<path fill="none" stroke="black" d="M2975.3,-112.596C2965.93,-109.606 2956.1,-106.81 2946.74,-104.74 2817.49,-76.166 2782.61,-83.2522 2650.74,-71.7401 2424.97,-52.0303 2157.13,-37.6369 2030.33,-31.3613"/>
<polygon fill="black" stroke="black" points="2030.13,-27.8475 2019.97,-30.8513 2029.79,-34.839 2030.13,-27.8475"/>
<text text-anchor="middle" x="2901.74" y="-75.5401" font-family="Times,serif" font-size="14.00"> static(visible_from)</text>
</g>
<!-- n24 -->
<g id="node24" class="node"><title>n24</title>
<ellipse fill="none" stroke="black" cx="2861.74" cy="-236.35" rx="56.6372" ry="26.7407"/>
<text text-anchor="middle" x="2861.74" y="-240.15" font-family="Times,serif" font-size="14.00">&lt;camera1&gt;</text>
<text text-anchor="middle" x="2861.74" y="-225.15" font-family="Times,serif" font-size="14.00">camera</text>
</g>
<!-- n24&#45;&gt;n14 -->
<g id="edge4" class="edge"><title>n24&#45;&gt;n14</title>
<path fill="none" stroke="black" d="M2805.44,-233.495C2656.71,-228.326 2260.93,-212.73 2205.74,-191.48 2195.7,-187.614 2196.89,-180.055 2186.74,-176.48 2135.49,-158.424 284.914,-162.669 230.74,-158.48 191.736,-155.464 148.26,-149.153 114.158,-143.519"/>
<polygon fill="black" stroke="black" points="114.332,-139.999 103.89,-141.797 113.174,-146.903 114.332,-139.999"/>
<text text-anchor="middle" x="2249.74" y="-180.28" font-family="Times,serif" font-size="14.00"> static(supports)</text>
</g>
<!-- n24&#45;&gt;n16 -->
<g id="edge5" class="edge"><title>n24&#45;&gt;n16</title>
<path fill="none" stroke="black" d="M2901.7,-216.914C2917.23,-209.425 2935.02,-200.435 2950.74,-191.48 2961.34,-185.438 2962.12,-180.205 2973.74,-176.48 3063.76,-147.633 3305.98,-176.67 3398.74,-158.48 3404.59,-157.334 3410.59,-155.796 3416.52,-154.038"/>
<polygon fill="black" stroke="black" points="3417.92,-157.265 3426.4,-150.902 3415.81,-150.594 3417.92,-157.265"/>
<text text-anchor="middle" x="3042.24" y="-180.28" font-family="Times,serif" font-size="14.00"> static(calibration_target)</text>
</g>
<!-- n24&#45;&gt;n18 -->
<g id="edge16" class="edge"><title>n24&#45;&gt;n18</title>
<path fill="none" stroke="black" d="M2859.24,-209.406C2858.99,-198.985 2859.67,-186.979 2862.74,-176.48 2863.81,-172.832 2865.26,-169.186 2866.95,-165.642"/>
<polygon fill="black" stroke="black" points="2870.18,-167.03 2871.85,-156.568 2864.02,-163.705 2870.18,-167.03"/>
<text text-anchor="middle" x="2906.74" y="-180.28" font-family="Times,serif" font-size="14.00"> static(supports)</text>
</g>
<!-- n24&#45;&gt;n20 -->
<g id="edge37" class="edge"><title>n24&#45;&gt;n20</title>
<path fill="none" stroke="black" d="M2807.82,-228.103C2707.59,-214.994 2485.69,-187.664 2297.74,-176.48 2029.07,-160.494 1354.25,-188.099 1086.74,-158.48 1065.33,-156.109 1042.14,-151.764 1021.68,-147.303"/>
<polygon fill="black" stroke="black" points="1022.39,-143.877 1011.87,-145.112 1020.87,-150.709 1022.39,-143.877"/>
<text text-anchor="middle" x="2528.74" y="-180.28" font-family="Times,serif" font-size="14.00"> static(supports)</text>
</g>
<!-- n24&#45;&gt;n27 -->
<g id="edge19" class="edge"><title>n24&#45;&gt;n27</title>
<path fill="none" stroke="black" d="M2917.55,-230.746C3051.25,-219.702 3379.06,-192.54 3381.74,-191.48 3391.75,-187.527 3390.82,-180.642 3400.74,-176.48 3459.4,-151.872 3481.53,-175.821 3542.74,-158.48 3547.03,-157.264 3551.41,-155.773 3555.74,-154.127"/>
<polygon fill="black" stroke="black" points="3557.15,-157.333 3565.09,-150.319 3554.51,-150.85 3557.15,-157.333"/>
<text text-anchor="middle" x="3447.24" y="-180.28" font-family="Times,serif" font-size="14.00"> static(on_board)</text>
</g>
<!-- n25 -->
<g id="node25" class="node"><title>n25</title>
<ellipse fill="none" stroke="black" cx="3172.74" cy="-131.61" rx="62.8651" ry="26.7407"/>
<text text-anchor="middle" x="3172.74" y="-135.41" font-family="Times,serif" font-size="14.00">&lt;objective3&gt;</text>
<text text-anchor="middle" x="3172.74" y="-120.41" font-family="Times,serif" font-size="14.00">objective</text>
</g>
<!-- n25&#45;&gt;n21 -->
<g id="edge44" class="edge"><title>n25&#45;&gt;n21</title>
<path fill="none" stroke="black" d="M3126.52,-113.141C3118,-110.168 3109.14,-107.239 3100.74,-104.74 3039.88,-86.6434 3024.63,-80.4972 2961.74,-71.7401 2781.84,-46.6888 2230.78,-33.3841 2030.49,-29.2761"/>
<polygon fill="black" stroke="black" points="2030.43,-25.7743 2020.36,-29.0701 2030.29,-32.7729 2030.43,-25.7743"/>
<text text-anchor="middle" x="3095.74" y="-75.5401" font-family="Times,serif" font-size="14.00"> static(visible_from)</text>
</g>
<!-- n26 -->
<g id="node26" class="node"><title>n26</title>
<ellipse fill="none" stroke="black" cx="3321.74" cy="-131.61" rx="67.7647" ry="26.7407"/>
<text text-anchor="middle" x="3321.74" y="-135.41" font-family="Times,serif" font-size="14.00">&lt;objective13&gt;</text>
<text text-anchor="middle" x="3321.74" y="-120.41" font-family="Times,serif" font-size="14.00">objective</text>
</g>
<!-- n26&#45;&gt;n21 -->
<g id="edge30" class="edge"><title>n26&#45;&gt;n21</title>
<path fill="none" stroke="black" d="M3278.02,-110.975C3245.13,-97.2282 3198.54,-79.9132 3155.74,-71.7401 2938.62,-30.2789 2257.4,-27.4116 2030.84,-27.6429"/>
<polygon fill="black" stroke="black" points="2030.71,-24.143 2020.72,-27.6557 2030.72,-31.143 2030.71,-24.143"/>
<text text-anchor="middle" x="3268.74" y="-75.5401" font-family="Times,serif" font-size="14.00"> static(visible_from)</text>
</g>
<!-- n27&#45;&gt;n21 -->
<g id="edge26" class="edge"><title>n27&#45;&gt;n21</title>
<path fill="none" stroke="black" d="M3571.24,-109.811C3550.78,-96.1717 3521.96,-79.4812 3493.74,-71.7401 3352.13,-32.8913 2318.51,-28.415 2030.85,-27.9241"/>
<polygon fill="black" stroke="black" points="2030.54,-24.4237 2020.53,-27.9076 2030.53,-31.4236 2030.54,-24.4237"/>
<text text-anchor="middle" x="3551.24" y="-75.5401" font-family="Times,serif" font-size="14.00"> init(at)</text>
</g>
<!-- n27&#45;&gt;n27 -->
<g id="edge3" class="edge"><title>n27&#45;&gt;n27</title>
<path fill="none" stroke="black" d="M3644.83,-141.274C3656.78,-140.722 3665.82,-137.501 3665.82,-131.61 3665.82,-127.56 3661.55,-124.772 3654.99,-123.246"/>
<polygon fill="black" stroke="black" points="3655.2,-119.743 3644.83,-121.946 3654.31,-126.687 3655.2,-119.743"/>
<text text-anchor="middle" x="3759.32" y="-142.91" font-family="Times,serif" font-size="14.00"> static(equipped_for_imaging)</text>
<text text-anchor="middle" x="3759.32" y="-127.91" font-family="Times,serif" font-size="14.00">init(available)</text>
<text text-anchor="middle" x="3759.32" y="-112.91" font-family="Times,serif" font-size="14.00">static(equipped_for_soil_analysis)</text>
</g>
</g>
</svg>
