<?xml version="1.0" encoding="UTF-8" standalone="no"?>
<!DOCTYPE svg PUBLIC "-//W3C//DTD SVG 1.1//EN"
 "http://www.w3.org/Graphics/SVG/1.1/DTD/svg11.dtd">
<!-- Generated by graphviz version 2.38.0 (20140413.2041)
 -->
<!-- Title: Struc Pages: 1 -->
<svg width="997pt" height="505pt"
 viewBox="0.00 0.00 996.82 504.70" xmlns="http://www.w3.org/2000/svg" xmlns:xlink="http://www.w3.org/1999/xlink">
<g id="graph0" class="graph" transform="scale(1 1) rotate(0) translate(4 500.701)">
<title>Struc</title>
<polygon fill="white" stroke="none" points="-4,4 -4,-500.701 992.823,-500.701 992.823,4 -4,4"/>
<!-- n1 -->
<g id="node1" class="node"><title>n1</title>
<ellipse fill="none" stroke="black" cx="467.74" cy="-353.09" rx="51.7379" ry="26.7407"/>
<text text-anchor="middle" x="467.74" y="-356.89" font-family="Times,serif" font-size="14.00">&lt;general&gt;</text>
<text text-anchor="middle" x="467.74" y="-341.89" font-family="Times,serif" font-size="14.00">lander</text>
</g>
<!-- n1&#45;&gt;n1 -->
<g id="edge1" class="edge"><title>n1&#45;&gt;n1</title>
<path fill="none" stroke="black" d="M515.572,-363.482C527.993,-362.843 537.359,-359.379 537.359,-353.09 537.359,-348.668 532.729,-345.643 525.662,-344.015"/>
<polygon fill="black" stroke="black" points="525.941,-340.521 515.572,-342.699 525.036,-347.463 525.941,-340.521"/>
<text text-anchor="middle" x="587.859" y="-349.39" font-family="Times,serif" font-size="14.00"> init(channel_free)</text>
</g>
<!-- n9 -->
<g id="node9" class="node"><title>n9</title>
<ellipse fill="none" stroke="black" cx="467.74" cy="-240.35" rx="63.7795" ry="26.7407"/>
<text text-anchor="middle" x="467.74" y="-244.15" font-family="Times,serif" font-size="14.00">&lt;waypoint0&gt;</text>
<text text-anchor="middle" x="467.74" y="-229.15" font-family="Times,serif" font-size="14.00">waypoint</text>
</g>
<!-- n1&#45;&gt;n9 -->
<g id="edge8" class="edge"><title>n1&#45;&gt;n9</title>
<path fill="none" stroke="black" d="M467.74,-326.127C467.74,-311.653 467.74,-293.403 467.74,-277.546"/>
<polygon fill="black" stroke="black" points="471.24,-277.535 467.74,-267.535 464.24,-277.535 471.24,-277.535"/>
<text text-anchor="middle" x="513.74" y="-293.02" font-family="Times,serif" font-size="14.00"> static(at_lander)</text>
</g>
<!-- n2 -->
<g id="node2" class="node"><title>n2</title>
<ellipse fill="none" stroke="black" cx="284.74" cy="-131.61" rx="63.7795" ry="26.7407"/>
<text text-anchor="middle" x="284.74" y="-135.41" font-family="Times,serif" font-size="14.00">&lt;waypoint1&gt;</text>
<text text-anchor="middle" x="284.74" y="-120.41" font-family="Times,serif" font-size="14.00">waypoint</text>
</g>
<!-- n2&#45;&gt;n2 -->
<g id="edge2" class="edge"><title>n2&#45;&gt;n2</title>
<path fill="none" stroke="black" d="M344.545,-141.045C357.224,-140.087 366.38,-136.942 366.38,-131.61 366.38,-127.861 361.853,-125.193 354.758,-123.607"/>
<polygon fill="black" stroke="black" points="354.934,-120.097 344.545,-122.175 353.962,-127.029 354.934,-120.097"/>
<text text-anchor="middle" x="425.38" y="-127.91" font-family="Times,serif" font-size="14.00"> init(at_rock_sample)</text>
</g>
<!-- n5 -->
<g id="node5" class="node"><title>n5</title>
<ellipse fill="none" stroke="black" cx="520.74" cy="-26.8701" rx="63.7795" ry="26.7407"/>
<text text-anchor="middle" x="520.74" y="-30.6701" font-family="Times,serif" font-size="14.00">&lt;waypoint2&gt;</text>
<text text-anchor="middle" x="520.74" y="-15.6701" font-family="Times,serif" font-size="14.00">waypoint</text>
</g>
<!-- n2&#45;&gt;n5 -->
<g id="edge7" class="edge"><title>n2&#45;&gt;n5</title>
<path fill="none" stroke="black" d="M293.476,-104.895C298.741,-93.106 306.621,-79.9564 317.74,-71.7401 354.844,-44.3237 405.569,-33.354 447.031,-29.2395"/>
<polygon fill="black" stroke="black" points="447.43,-32.7181 457.085,-28.3562 446.817,-25.7449 447.43,-32.7181"/>
<text text-anchor="middle" x="356.74" y="-75.5401" font-family="Times,serif" font-size="14.00"> static(visible)</text>
</g>
<!-- n2&#45;&gt;n9 -->
<g id="edge19" class="edge"><title>n2&#45;&gt;n9</title>
<path fill="none" stroke="black" d="M336.439,-147.307C357.28,-154.445 381.009,-164.176 400.74,-176.48 414.377,-184.984 427.657,-196.532 438.75,-207.411"/>
<polygon fill="black" stroke="black" points="436.534,-210.147 446.057,-214.79 441.507,-205.222 436.534,-210.147"/>
<text text-anchor="middle" x="460.74" y="-180.28" font-family="Times,serif" font-size="14.00"> static(visible)</text>
</g>
<!-- n3 -->
<g id="node3" class="node"><title>n3</title>
<ellipse fill="none" stroke="black" cx="273.74" cy="-353.09" rx="62.8691" ry="26.7574"/>
<ellipse fill="none" stroke="black" cx="273.74" cy="-353.09" rx="66.8651" ry="30.7407"/>
<text text-anchor="middle" x="273.74" y="-356.89" font-family="Times,serif" font-size="14.00">&lt;objective6&gt;</text>
<text text-anchor="middle" x="273.74" y="-341.89" font-family="Times,serif" font-size="14.00">objective</text>
</g>
<!-- n3&#45;&gt;n2 -->
<g id="edge15" class="edge"><title>n3&#45;&gt;n2</title>
<path fill="none" stroke="black" stroke-dasharray="5,2" d="M275.247,-322.033C277.248,-282.096 280.781,-211.611 282.926,-168.799"/>
<polygon fill="black" stroke="black" points="286.435,-168.71 283.44,-158.547 279.444,-168.359 286.435,-168.71"/>
<text text-anchor="middle" x="337.74" y="-236.65" font-family="Times,serif" font-size="14.00"> static(visible_from)</text>
</g>
<!-- n7 -->
<g id="node7" class="node"><title>n7</title>
<ellipse fill="none" stroke="black" cx="57.7401" cy="-240.35" rx="53.9645" ry="26.7574"/>
<ellipse fill="none" stroke="black" cx="57.7401" cy="-240.35" rx="57.9812" ry="30.7407"/>
<text text-anchor="middle" x="57.7401" y="-244.15" font-family="Times,serif" font-size="14.00">&lt;low_res&gt;</text>
<text text-anchor="middle" x="57.7401" y="-229.15" font-family="Times,serif" font-size="14.00">mode</text>
</g>
<!-- n3&#45;&gt;n7 -->
<g id="edge21" class="edge"><title>n3&#45;&gt;n7</title>
<path fill="none" stroke="black" stroke-dasharray="5,2" d="M213.773,-339.126C157.388,-326.701 80.8605,-309.132 75.7401,-304.22 69.2513,-297.996 65.0545,-289.606 62.3527,-280.986"/>
<polygon fill="black" stroke="black" points="65.7382,-280.097 59.895,-271.259 58.9515,-281.812 65.7382,-280.097"/>
<text text-anchor="middle" x="167.74" y="-293.02" font-family="Times,serif" font-size="14.00"> end(communicated_image_data)</text>
</g>
<!-- n3&#45;&gt;n9 -->
<g id="edge11" class="edge"><title>n3&#45;&gt;n9</title>
<path fill="none" stroke="black" d="M303,-325.162C317.044,-313.139 334.532,-299.416 351.74,-289.22 362.702,-282.725 387.865,-272.171 411.963,-262.624"/>
<polygon fill="black" stroke="black" points="413.441,-265.803 421.467,-258.887 410.88,-259.289 413.441,-265.803"/>
<text text-anchor="middle" x="407.74" y="-293.02" font-family="Times,serif" font-size="14.00"> static(visible_from)</text>
</g>
<!-- n4 -->
<g id="node4" class="node"><title>n4</title>
<ellipse fill="none" stroke="black" cx="727.74" cy="-465.831" rx="67.3507" ry="26.7407"/>
<text text-anchor="middle" x="727.74" y="-469.631" font-family="Times,serif" font-size="14.00">&lt;rover0store&gt;</text>
<text text-anchor="middle" x="727.74" y="-454.631" font-family="Times,serif" font-size="14.00">store</text>
</g>
<!-- n4&#45;&gt;n4 -->
<g id="edge3" class="edge"><title>n4&#45;&gt;n4</title>
<path fill="none" stroke="black" d="M790.135,-475.991C803.363,-474.96 812.915,-471.573 812.915,-465.831 812.915,-461.658 807.873,-458.73 800.041,-457.044"/>
<polygon fill="black" stroke="black" points="800.521,-453.577 790.135,-455.67 799.559,-460.511 800.521,-453.577"/>
<text text-anchor="middle" x="845.915" y="-462.131" font-family="Times,serif" font-size="14.00"> init(empty)</text>
</g>
<!-- n8 -->
<g id="node8" class="node"><title>n8</title>
<ellipse fill="none" stroke="black" cx="727.74" cy="-353.09" rx="48.1667" ry="26.7407"/>
<text text-anchor="middle" x="727.74" y="-356.89" font-family="Times,serif" font-size="14.00">&lt;rover0&gt;</text>
<text text-anchor="middle" x="727.74" y="-341.89" font-family="Times,serif" font-size="14.00">rover</text>
</g>
<!-- n4&#45;&gt;n8 -->
<g id="edge13" class="edge"><title>n4&#45;&gt;n8</title>
<path fill="none" stroke="black" d="M727.74,-438.867C727.74,-424.393 727.74,-406.143 727.74,-390.286"/>
<polygon fill="black" stroke="black" points="731.24,-390.275 727.74,-380.275 724.24,-390.275 731.24,-390.275"/>
<text text-anchor="middle" x="770.74" y="-405.76" font-family="Times,serif" font-size="14.00"> static(store_of)</text>
</g>
<!-- n5&#45;&gt;n2 -->
<g id="edge9" class="edge"><title>n5&#45;&gt;n2</title>
<path fill="none" stroke="black" d="M479.621,-47.5813C449.684,-61.8661 411.702,-79.8355 395.74,-86.7401 378.009,-94.4103 358.47,-102.312 340.792,-109.26"/>
<polygon fill="black" stroke="black" points="339.225,-106.114 331.185,-113.014 341.773,-112.634 339.225,-106.114"/>
<text text-anchor="middle" x="467.74" y="-75.5401" font-family="Times,serif" font-size="14.00"> static(visible)</text>
</g>
<!-- n5&#45;&gt;n5 -->
<g id="edge4" class="edge"><title>n5&#45;&gt;n5</title>
<path fill="none" stroke="black" d="M580.545,-36.3053C593.224,-35.3472 602.38,-32.2021 602.38,-26.8701 602.38,-23.121 597.853,-20.4531 590.758,-18.8664"/>
<polygon fill="black" stroke="black" points="590.934,-15.3569 580.545,-17.4349 589.962,-22.2891 590.934,-15.3569"/>
<text text-anchor="middle" x="686.88" y="-30.6701" font-family="Times,serif" font-size="14.00"> end(communicated_soil_data)</text>
<text text-anchor="middle" x="686.88" y="-15.6701" font-family="Times,serif" font-size="14.00">init(at_soil_sample)</text>
</g>
<!-- n5&#45;&gt;n9 -->
<g id="edge14" class="edge"><title>n5&#45;&gt;n9</title>
<path fill="none" stroke="black" d="M555.139,-49.7526C572.949,-63.2055 592.966,-82.1797 602.74,-104.74 612.235,-126.656 614.515,-137.7 602.74,-158.48 586.464,-187.204 555.473,-206.829 527.287,-219.546"/>
<polygon fill="black" stroke="black" points="525.666,-216.433 517.861,-223.597 528.43,-222.864 525.666,-216.433"/>
<text text-anchor="middle" x="649.74" y="-127.91" font-family="Times,serif" font-size="14.00"> static(visible)</text>
</g>
<!-- n6 -->
<g id="node6" class="node"><title>n6</title>
<ellipse fill="none" stroke="black" cx="273.74" cy="-465.831" rx="56.6326" ry="26.7574"/>
<ellipse fill="none" stroke="black" cx="273.74" cy="-465.831" rx="60.6372" ry="30.7407"/>
<text text-anchor="middle" x="273.74" y="-469.631" font-family="Times,serif" font-size="14.00">&lt;camera6&gt;</text>
<text text-anchor="middle" x="273.74" y="-454.631" font-family="Times,serif" font-size="14.00">camera</text>
</g>
<!-- n6&#45;&gt;n3 -->
<g id="edge17" class="edge"><title>n6&#45;&gt;n3</title>
<path fill="none" stroke="black" stroke-dasharray="5,2" d="M273.74,-434.863C273.74,-422.429 273.74,-407.813 273.74,-394.458"/>
<polygon fill="black" stroke="black" points="277.24,-394.082 273.74,-384.082 270.24,-394.082 277.24,-394.082"/>
<text text-anchor="middle" x="342.24" y="-405.76" font-family="Times,serif" font-size="14.00"> static(calibration_target)</text>
</g>
<!-- n6&#45;&gt;n7 -->
<g id="edge10" class="edge"><title>n6&#45;&gt;n7</title>
<path fill="none" stroke="black" stroke-dasharray="5,2" d="M223.303,-448.689C188.309,-435.547 142.315,-414.195 109.74,-383.96 79.5882,-355.975 75.1321,-343.448 62.7401,-304.22 60.4726,-297.042 59.0623,-289.185 58.2125,-281.532"/>
<polygon fill="black" stroke="black" points="61.6794,-280.984 57.373,-271.304 54.7028,-281.557 61.6794,-280.984"/>
<text text-anchor="middle" x="153.74" y="-349.39" font-family="Times,serif" font-size="14.00"> static(supports)</text>
</g>
<!-- n6&#45;&gt;n8 -->
<g id="edge12" class="edge"><title>n6&#45;&gt;n8</title>
<path fill="none" stroke="black" d="M330.77,-455.149C404.665,-442.003 537.136,-416.383 647.74,-383.96 658.306,-380.863 669.474,-377.049 680.006,-373.195"/>
<polygon fill="black" stroke="black" points="681.319,-376.441 689.463,-369.663 678.871,-369.883 681.319,-376.441"/>
<text text-anchor="middle" x="624.24" y="-405.76" font-family="Times,serif" font-size="14.00"> static(on_board)</text>
</g>
<!-- n8&#45;&gt;n5 -->
<g id="edge18" class="edge"><title>n8&#45;&gt;n5</title>
<path fill="none" stroke="black" d="M732.75,-326.348C740.847,-276.395 750.562,-165.863 692.74,-104.74 664.079,-74.4428 621.297,-55.2561 585.572,-43.6283"/>
<polygon fill="black" stroke="black" points="586.289,-40.1857 575.7,-40.5462 584.203,-46.8676 586.289,-40.1857"/>
<text text-anchor="middle" x="754.24" y="-180.28" font-family="Times,serif" font-size="14.00"> init(at)</text>
</g>
<!-- n8&#45;&gt;n8 -->
<g id="edge5" class="edge"><title>n8&#45;&gt;n8</title>
<path fill="none" stroke="black" d="M772.215,-363.526C784.463,-363.022 793.823,-359.544 793.823,-353.09 793.823,-348.553 789.196,-345.486 782.19,-343.89"/>
<polygon fill="black" stroke="black" points="782.569,-340.41 772.215,-342.654 781.708,-347.357 782.569,-340.41"/>
<text text-anchor="middle" x="891.323" y="-371.89" font-family="Times,serif" font-size="14.00"> static(equipped_for_rock_analysis)</text>
<text text-anchor="middle" x="891.323" y="-356.89" font-family="Times,serif" font-size="14.00">static(equipped_for_imaging)</text>
<text text-anchor="middle" x="891.323" y="-341.89" font-family="Times,serif" font-size="14.00">init(available)</text>
<text text-anchor="middle" x="891.323" y="-326.89" font-family="Times,serif" font-size="14.00">static(equipped_for_soil_analysis)</text>
</g>
<!-- n9&#45;&gt;n2 -->
<g id="edge16" class="edge"><title>n9&#45;&gt;n2</title>
<path fill="none" stroke="black" d="M422.653,-221.178C411.94,-217.113 400.497,-212.975 389.74,-209.48 360.415,-199.954 347.654,-209.646 322.74,-191.48 313.951,-185.071 306.665,-175.957 300.905,-166.809"/>
<polygon fill="black" stroke="black" points="303.903,-165.001 295.851,-158.115 297.851,-168.519 303.903,-165.001"/>
<text text-anchor="middle" x="361.74" y="-180.28" font-family="Times,serif" font-size="14.00"> static(visible)</text>
</g>
<!-- n9&#45;&gt;n5 -->
<g id="edge20" class="edge"><title>n9&#45;&gt;n5</title>
<path fill="none" stroke="black" d="M489.957,-215.07C495.336,-207.938 500.472,-199.804 503.74,-191.48 512.55,-169.045 517.133,-105.058 519.233,-64.0736"/>
<polygon fill="black" stroke="black" points="522.736,-64.0942 519.726,-53.9359 515.744,-63.754 522.736,-64.0942"/>
<text text-anchor="middle" x="555.74" y="-127.91" font-family="Times,serif" font-size="14.00"> static(visible)</text>
</g>
<!-- n9&#45;&gt;n9 -->
<g id="edge6" class="edge"><title>n9&#45;&gt;n9</title>
<path fill="none" stroke="black" d="M526.816,-250.568C539.872,-249.608 549.38,-246.202 549.38,-240.35 549.38,-236.144 544.468,-233.202 536.857,-231.523"/>
<polygon fill="black" stroke="black" points="537.202,-228.038 526.816,-230.133 536.242,-234.972 537.202,-228.038"/>
<text text-anchor="middle" x="636.38" y="-244.15" font-family="Times,serif" font-size="14.00"> end(communicated_rock_data)</text>
<text text-anchor="middle" x="636.38" y="-229.15" font-family="Times,serif" font-size="14.00">init(at_rock_sample)</text>
</g>
</g>
</svg>
