<?xml version="1.0" encoding="UTF-8" standalone="no"?>
<!DOCTYPE svg PUBLIC "-//W3C//DTD SVG 1.1//EN"
 "http://www.w3.org/Graphics/SVG/1.1/DTD/svg11.dtd">
<!-- Generated by graphviz version 2.38.0 (20140413.2041)
 -->
<!-- Title: Struc Pages: 1 -->
<svg width="4604pt" height="526pt"
 viewBox="0.00 0.00 4603.57 525.70" xmlns="http://www.w3.org/2000/svg" xmlns:xlink="http://www.w3.org/1999/xlink">
<g id="graph0" class="graph" transform="scale(1 1) rotate(0) translate(4 521.701)">
<title>Struc</title>
<polygon fill="white" stroke="none" points="-4,4 -4,-521.701 4599.57,-521.701 4599.57,4 -4,4"/>
<!-- n1 -->
<g id="node1" class="node"><title>n1</title>
<ellipse fill="none" stroke="black" cx="2487.57" cy="-236.35" rx="63.7795" ry="26.7407"/>
<text text-anchor="middle" x="2487.57" y="-240.15" font-family="Times,serif" font-size="14.00">&lt;waypoint2&gt;</text>
<text text-anchor="middle" x="2487.57" y="-225.15" font-family="Times,serif" font-size="14.00">waypoint</text>
</g>
<!-- n1&#45;&gt;n1 -->
<g id="edge1" class="edge"><title>n1&#45;&gt;n1</title>
<path fill="none" stroke="black" d="M2547.37,-245.785C2560.05,-244.827 2569.21,-241.682 2569.21,-236.35 2569.21,-232.601 2564.68,-229.933 2557.59,-228.347"/>
<polygon fill="black" stroke="black" points="2557.76,-224.837 2547.37,-226.915 2556.79,-231.769 2557.76,-224.837"/>
<text text-anchor="middle" x="2653.71" y="-240.15" font-family="Times,serif" font-size="14.00"> end(communicated_soil_data)</text>
<text text-anchor="middle" x="2653.71" y="-225.15" font-family="Times,serif" font-size="14.00">init(at_soil_sample)</text>
</g>
<!-- n10 -->
<g id="node10" class="node"><title>n10</title>
<ellipse fill="none" stroke="black" cx="3336.57" cy="-131.61" rx="63.7795" ry="26.7407"/>
<text text-anchor="middle" x="3336.57" y="-135.41" font-family="Times,serif" font-size="14.00">&lt;waypoint0&gt;</text>
<text text-anchor="middle" x="3336.57" y="-120.41" font-family="Times,serif" font-size="14.00">waypoint</text>
</g>
<!-- n1&#45;&gt;n10 -->
<g id="edge64" class="edge"><title>n1&#45;&gt;n10</title>
<path fill="none" stroke="black" d="M2543.9,-223.693C2571.84,-216.617 2605.52,-206.088 2633.57,-191.48 2643.11,-186.511 2642.52,-180.332 2652.57,-176.48 2762.2,-134.442 3109.26,-131.146 3262.56,-131.843"/>
<polygon fill="black" stroke="black" points="3262.79,-135.344 3272.81,-131.897 3262.83,-128.344 3262.79,-135.344"/>
<text text-anchor="middle" x="2691.57" y="-180.28" font-family="Times,serif" font-size="14.00"> static(visible)</text>
</g>
<!-- n22 -->
<g id="node22" class="node"><title>n22</title>
<ellipse fill="none" stroke="black" cx="3437.57" cy="-26.8701" rx="63.7795" ry="26.7407"/>
<text text-anchor="middle" x="3437.57" y="-30.6701" font-family="Times,serif" font-size="14.00">&lt;waypoint1&gt;</text>
<text text-anchor="middle" x="3437.57" y="-15.6701" font-family="Times,serif" font-size="14.00">waypoint</text>
</g>
<!-- n1&#45;&gt;n22 -->
<g id="edge23" class="edge"><title>n1&#45;&gt;n22</title>
<path fill="none" stroke="black" d="M2440.67,-217.962C2432.04,-214.981 2423.07,-212.028 2414.57,-209.48 2382.56,-199.888 2362.18,-217.786 2341.57,-191.48 2317.96,-161.346 2318.38,-161.09 2387.57,-104.74 2419.31,-78.8859 2433.49,-80.1116 2473.57,-71.7401 2643.24,-36.2964 3168.44,-29.4885 3363.57,-28.1809"/>
<polygon fill="black" stroke="black" points="3363.75,-31.68 3373.73,-28.1159 3363.7,-24.6801 3363.75,-31.68"/>
<text text-anchor="middle" x="2426.57" y="-127.91" font-family="Times,serif" font-size="14.00"> static(visible)</text>
</g>
<!-- n2 -->
<g id="node2" class="node"><title>n2</title>
<ellipse fill="none" stroke="black" cx="3620.57" cy="-236.35" rx="51.7379" ry="26.7407"/>
<text text-anchor="middle" x="3620.57" y="-240.15" font-family="Times,serif" font-size="14.00">&lt;general&gt;</text>
<text text-anchor="middle" x="3620.57" y="-225.15" font-family="Times,serif" font-size="14.00">lander</text>
</g>
<!-- n2&#45;&gt;n2 -->
<g id="edge2" class="edge"><title>n2&#45;&gt;n2</title>
<path fill="none" stroke="black" d="M3669.05,-245.966C3681.14,-245.294 3690.19,-242.089 3690.19,-236.35 3690.19,-232.405 3685.91,-229.657 3679.31,-228.107"/>
<polygon fill="black" stroke="black" points="3679.42,-224.59 3669.05,-226.734 3678.49,-231.529 3679.42,-224.59"/>
<text text-anchor="middle" x="3740.69" y="-232.65" font-family="Times,serif" font-size="14.00"> init(channel_free)</text>
</g>
<!-- n2&#45;&gt;n10 -->
<g id="edge14" class="edge"><title>n2&#45;&gt;n10</title>
<path fill="none" stroke="black" d="M3599.9,-211.621C3587.87,-199.297 3571.74,-185.061 3554.57,-176.48 3509.4,-153.903 3453.47,-142.945 3409.57,-137.626"/>
<polygon fill="black" stroke="black" points="3409.87,-134.138 3399.54,-136.483 3409.08,-141.093 3409.87,-134.138"/>
<text text-anchor="middle" x="3623.57" y="-180.28" font-family="Times,serif" font-size="14.00"> static(at_lander)</text>
</g>
<!-- n3 -->
<g id="node3" class="node"><title>n3</title>
<ellipse fill="none" stroke="black" cx="2886.57" cy="-490.831" rx="67.7647" ry="26.7407"/>
<text text-anchor="middle" x="2886.57" y="-494.631" font-family="Times,serif" font-size="14.00">&lt;objective12&gt;</text>
<text text-anchor="middle" x="2886.57" y="-479.631" font-family="Times,serif" font-size="14.00">objective</text>
</g>
<!-- n3&#45;&gt;n10 -->
<g id="edge24" class="edge"><title>n3&#45;&gt;n10</title>
<path fill="none" stroke="black" d="M2954.48,-489.438C3035.33,-487.452 3163.59,-478.999 3196.57,-445.96 3271.53,-370.849 3178.36,-302.426 3229.57,-209.48 3241.98,-186.955 3264.13,-169.388 3285.07,-156.768"/>
<polygon fill="black" stroke="black" points="3287.02,-159.686 3293.94,-151.663 3283.52,-153.619 3287.02,-159.686"/>
<text text-anchor="middle" x="3278.57" y="-304.39" font-family="Times,serif" font-size="14.00"> static(visible_from)</text>
</g>
<!-- n26 -->
<g id="node26" class="node"><title>n26</title>
<ellipse fill="none" stroke="black" cx="2438.57" cy="-382.96" rx="53.9813" ry="26.7407"/>
<text text-anchor="middle" x="2438.57" y="-386.76" font-family="Times,serif" font-size="14.00">&lt;low_res&gt;</text>
<text text-anchor="middle" x="2438.57" y="-371.76" font-family="Times,serif" font-size="14.00">mode</text>
</g>
<!-- n3&#45;&gt;n26 -->
<g id="edge60" class="edge"><title>n3&#45;&gt;n26</title>
<path fill="none" stroke="black" d="M2819.33,-487.057C2753.03,-482.853 2649.45,-472.314 2563.57,-445.96 2555.22,-443.398 2516.58,-424.035 2484.45,-407.621"/>
<polygon fill="black" stroke="black" points="2485.66,-404.306 2475.16,-402.865 2482.47,-410.537 2485.66,-404.306"/>
<text text-anchor="middle" x="2655.57" y="-434.76" font-family="Times,serif" font-size="14.00"> end(communicated_image_data)</text>
</g>
<!-- n4 -->
<g id="node4" class="node"><title>n4</title>
<ellipse fill="none" stroke="black" cx="56.5685" cy="-490.831" rx="56.6372" ry="26.7407"/>
<text text-anchor="middle" x="56.5685" y="-494.631" font-family="Times,serif" font-size="14.00">&lt;camera2&gt;</text>
<text text-anchor="middle" x="56.5685" y="-479.631" font-family="Times,serif" font-size="14.00">camera</text>
</g>
<!-- n6 -->
<g id="node6" class="node"><title>n6</title>
<ellipse fill="none" stroke="black" cx="382.569" cy="-382.96" rx="48.1667" ry="26.7407"/>
<text text-anchor="middle" x="382.569" y="-386.76" font-family="Times,serif" font-size="14.00">&lt;rover0&gt;</text>
<text text-anchor="middle" x="382.569" y="-371.76" font-family="Times,serif" font-size="14.00">rover</text>
</g>
<!-- n4&#45;&gt;n6 -->
<g id="edge15" class="edge"><title>n4&#45;&gt;n6</title>
<path fill="none" stroke="black" d="M62.879,-463.921C67.0849,-452.086 73.8698,-438.953 84.5685,-430.96 89.3944,-427.355 241.262,-404.648 326.283,-392.163"/>
<polygon fill="black" stroke="black" points="326.92,-395.607 336.306,-390.693 325.904,-388.681 326.92,-395.607"/>
<text text-anchor="middle" x="134.069" y="-434.76" font-family="Times,serif" font-size="14.00"> static(on_board)</text>
</g>
<!-- n13 -->
<g id="node13" class="node"><title>n13</title>
<ellipse fill="none" stroke="black" cx="2179.57" cy="-236.35" rx="67.7647" ry="26.7407"/>
<text text-anchor="middle" x="2179.57" y="-240.15" font-family="Times,serif" font-size="14.00">&lt;objective13&gt;</text>
<text text-anchor="middle" x="2179.57" y="-225.15" font-family="Times,serif" font-size="14.00">objective</text>
</g>
<!-- n4&#45;&gt;n13 -->
<g id="edge35" class="edge"><title>n4&#45;&gt;n13</title>
<path fill="none" stroke="black" d="M57.4856,-463.777C58.9311,-452.87 62.0526,-440.531 68.5685,-430.96 104.367,-378.38 128.54,-374.004 188.569,-352.96 496.22,-245.112 593.279,-302.841 918.569,-281.22 1365.97,-251.484 1904.09,-241.253 2101.83,-238.347"/>
<polygon fill="black" stroke="black" points="2101.88,-241.847 2111.83,-238.202 2101.78,-234.848 2101.88,-241.847"/>
<text text-anchor="middle" x="257.069" y="-379.26" font-family="Times,serif" font-size="14.00"> static(calibration_target)</text>
</g>
<!-- n20 -->
<g id="node20" class="node"><title>n20</title>
<ellipse fill="none" stroke="black" cx="1080.57" cy="-382.96" rx="48.1667" ry="26.7407"/>
<text text-anchor="middle" x="1080.57" y="-386.76" font-family="Times,serif" font-size="14.00">&lt;colour&gt;</text>
<text text-anchor="middle" x="1080.57" y="-371.76" font-family="Times,serif" font-size="14.00">mode</text>
</g>
<!-- n4&#45;&gt;n20 -->
<g id="edge48" class="edge"><title>n4&#45;&gt;n20</title>
<path fill="none" stroke="black" d="M96.385,-471.683C104.865,-468.543 113.885,-465.725 122.569,-463.96 194.242,-449.397 711.81,-470.89 780.569,-445.96 790.683,-442.293 789.732,-435.318 799.569,-430.96 871.988,-398.88 963.758,-388.543 1022.33,-385.301"/>
<polygon fill="black" stroke="black" points="1022.7,-388.787 1032.51,-384.79 1022.35,-381.795 1022.7,-388.787"/>
<text text-anchor="middle" x="843.569" y="-434.76" font-family="Times,serif" font-size="14.00"> static(supports)</text>
</g>
<!-- n5 -->
<g id="node5" class="node"><title>n5</title>
<ellipse fill="none" stroke="black" cx="4409.57" cy="-490.831" rx="67.7647" ry="26.7407"/>
<text text-anchor="middle" x="4409.57" y="-494.631" font-family="Times,serif" font-size="14.00">&lt;objective11&gt;</text>
<text text-anchor="middle" x="4409.57" y="-479.631" font-family="Times,serif" font-size="14.00">objective</text>
</g>
<!-- n7 -->
<g id="node7" class="node"><title>n7</title>
<ellipse fill="none" stroke="black" cx="3610.57" cy="-382.96" rx="56.6372" ry="26.7407"/>
<text text-anchor="middle" x="3610.57" y="-386.76" font-family="Times,serif" font-size="14.00">&lt;high_res&gt;</text>
<text text-anchor="middle" x="3610.57" y="-371.76" font-family="Times,serif" font-size="14.00">mode</text>
</g>
<!-- n5&#45;&gt;n7 -->
<g id="edge34" class="edge"><title>n5&#45;&gt;n7</title>
<path fill="none" stroke="black" d="M4350.53,-477.316C4311.1,-468.819 4258.13,-457.136 4211.57,-445.96 4185.68,-439.746 4179.81,-435.457 4153.57,-430.96 3983.38,-401.797 3779.91,-390.329 3677.09,-386.147"/>
<polygon fill="black" stroke="black" points="3676.98,-382.641 3666.85,-385.742 3676.71,-389.635 3676.98,-382.641"/>
<text text-anchor="middle" x="4303.57" y="-434.76" font-family="Times,serif" font-size="14.00"> end(communicated_image_data)</text>
</g>
<!-- n5&#45;&gt;n10 -->
<g id="edge22" class="edge"><title>n5&#45;&gt;n10</title>
<path fill="none" stroke="black" d="M4409.29,-463.688C4407.82,-452.234 4404.13,-439.488 4395.57,-430.96 4263,-298.855 4127.97,-456.4 3985.57,-334.96 3965.93,-318.214 3984.67,-296.077 3963.57,-281.22 3926.83,-255.355 3598.28,-286.025 3559.57,-263.22 3535.42,-248.995 3547.96,-227.585 3526.57,-209.48 3490.63,-179.073 3441.1,-159.565 3401.62,-147.812"/>
<polygon fill="black" stroke="black" points="3402.39,-144.391 3391.81,-144.988 3400.46,-151.118 3402.39,-144.391"/>
<text text-anchor="middle" x="4041.57" y="-304.39" font-family="Times,serif" font-size="14.00"> static(visible_from)</text>
</g>
<!-- n5&#45;&gt;n22 -->
<g id="edge36" class="edge"><title>n5&#45;&gt;n22</title>
<path fill="none" stroke="black" d="M4438.82,-466.123C4459.5,-446.532 4483.57,-416.701 4483.57,-383.96 4483.57,-383.96 4483.57,-383.96 4483.57,-130.61 4483.57,-32.8449 3750.49,-26.766 3511.74,-27.3786"/>
<polygon fill="black" stroke="black" points="3511.42,-23.8795 3501.43,-27.4101 3511.44,-30.8794 3511.42,-23.8795"/>
<text text-anchor="middle" x="4539.57" y="-232.65" font-family="Times,serif" font-size="14.00"> static(visible_from)</text>
</g>
<!-- n6&#45;&gt;n1 -->
<g id="edge58" class="edge"><title>n6&#45;&gt;n1</title>
<path fill="none" stroke="black" d="M429.21,-376.273C483.857,-369.789 577.163,-359.272 657.569,-352.96 1273.83,-304.587 1429.19,-312.263 2046.57,-281.22 2210.11,-272.997 2253.91,-294.906 2414.57,-263.22 2420.63,-262.025 2426.86,-260.426 2433.02,-258.606"/>
<polygon fill="black" stroke="black" points="2434.1,-261.936 2442.58,-255.591 2431.99,-255.26 2434.1,-261.936"/>
<text text-anchor="middle" x="2271.07" y="-304.39" font-family="Times,serif" font-size="14.00"> init(at)</text>
</g>
<!-- n6&#45;&gt;n6 -->
<g id="edge3" class="edge"><title>n6&#45;&gt;n6</title>
<path fill="none" stroke="black" d="M427.354,-393.011C439.45,-392.48 448.652,-389.13 448.652,-382.96 448.652,-378.719 444.302,-375.81 437.653,-374.233"/>
<polygon fill="black" stroke="black" points="437.718,-370.713 427.354,-372.91 436.826,-377.656 437.718,-370.713"/>
<text text-anchor="middle" x="546.152" y="-401.76" font-family="Times,serif" font-size="14.00"> static(equipped_for_rock_analysis)</text>
<text text-anchor="middle" x="546.152" y="-386.76" font-family="Times,serif" font-size="14.00">static(equipped_for_imaging)</text>
<text text-anchor="middle" x="546.152" y="-371.76" font-family="Times,serif" font-size="14.00">init(available)</text>
<text text-anchor="middle" x="546.152" y="-356.76" font-family="Times,serif" font-size="14.00">static(equipped_for_soil_analysis)</text>
</g>
<!-- n8 -->
<g id="node8" class="node"><title>n8</title>
<ellipse fill="none" stroke="black" cx="3910.57" cy="-236.35" rx="62.8651" ry="26.7407"/>
<text text-anchor="middle" x="3910.57" y="-240.15" font-family="Times,serif" font-size="14.00">&lt;objective1&gt;</text>
<text text-anchor="middle" x="3910.57" y="-225.15" font-family="Times,serif" font-size="14.00">objective</text>
</g>
<!-- n8&#45;&gt;n10 -->
<g id="edge42" class="edge"><title>n8&#45;&gt;n10</title>
<path fill="none" stroke="black" d="M3862.48,-218.98C3842.33,-211.49 3818.9,-201.951 3798.57,-191.48 3787.72,-185.892 3787.08,-180.536 3775.57,-176.48 3710.05,-153.394 3516.96,-140.998 3409.99,-135.734"/>
<polygon fill="black" stroke="black" points="3410.07,-132.234 3399.91,-135.247 3409.73,-139.226 3410.07,-132.234"/>
<text text-anchor="middle" x="3854.57" y="-180.28" font-family="Times,serif" font-size="14.00"> static(visible_from)</text>
</g>
<!-- n9 -->
<g id="node9" class="node"><title>n9</title>
<ellipse fill="none" stroke="black" cx="2159.57" cy="-308.09" rx="62.8651" ry="26.7407"/>
<text text-anchor="middle" x="2159.57" y="-311.89" font-family="Times,serif" font-size="14.00">&lt;objective9&gt;</text>
<text text-anchor="middle" x="2159.57" y="-296.89" font-family="Times,serif" font-size="14.00">objective</text>
</g>
<!-- n9&#45;&gt;n10 -->
<g id="edge30" class="edge"><title>n9&#45;&gt;n10</title>
<path fill="none" stroke="black" d="M2222.27,-305.305C2364.4,-300.848 2702.26,-287.782 2747.57,-263.22 2773.98,-248.903 2763.67,-226.287 2788.57,-209.48 2811.49,-194.008 2881.39,-181.574 2908.57,-176.48 3031.85,-153.376 3177.56,-141.706 3263.22,-136.411"/>
<polygon fill="black" stroke="black" points="3263.6,-139.895 3273.37,-135.797 3263.17,-132.908 3263.6,-139.895"/>
<text text-anchor="middle" x="2844.57" y="-232.65" font-family="Times,serif" font-size="14.00"> static(visible_from)</text>
</g>
<!-- n10&#45;&gt;n1 -->
<g id="edge18" class="edge"><title>n10&#45;&gt;n1</title>
<path fill="none" stroke="black" d="M3272.97,-133.457C3143.05,-135.833 2851.49,-144.648 2757.57,-176.48 2746.01,-180.397 2745.92,-186.989 2734.57,-191.48 2678.4,-213.709 2610.59,-224.728 2560.25,-230.16"/>
<polygon fill="black" stroke="black" points="2559.69,-226.699 2550.1,-231.205 2560.4,-233.662 2559.69,-226.699"/>
<text text-anchor="middle" x="2796.57" y="-180.28" font-family="Times,serif" font-size="14.00"> static(visible)</text>
</g>
<!-- n10&#45;&gt;n10 -->
<g id="edge4" class="edge"><title>n10&#45;&gt;n10</title>
<path fill="none" stroke="black" d="M3396.37,-141.045C3409.05,-140.087 3418.21,-136.942 3418.21,-131.61 3418.21,-127.861 3413.68,-125.193 3406.59,-123.607"/>
<polygon fill="black" stroke="black" points="3406.76,-120.097 3396.37,-122.175 3405.79,-127.029 3406.76,-120.097"/>
<text text-anchor="middle" x="3505.21" y="-135.41" font-family="Times,serif" font-size="14.00"> end(communicated_rock_data)</text>
<text text-anchor="middle" x="3505.21" y="-120.41" font-family="Times,serif" font-size="14.00">init(at_rock_sample)</text>
</g>
<!-- n10&#45;&gt;n22 -->
<g id="edge38" class="edge"><title>n10&#45;&gt;n22</title>
<path fill="none" stroke="black" d="M3381.93,-112.47C3394.14,-105.848 3406.46,-97.3218 3415.57,-86.7401 3421.35,-80.0241 3425.68,-71.6441 3428.89,-63.3318"/>
<polygon fill="black" stroke="black" points="3432.26,-64.3033 3432.17,-53.7088 3425.63,-62.0437 3432.26,-64.3033"/>
<text text-anchor="middle" x="3464.57" y="-75.5401" font-family="Times,serif" font-size="14.00"> static(visible)</text>
</g>
<!-- n11 -->
<g id="node11" class="node"><title>n11</title>
<ellipse fill="none" stroke="black" cx="2342.57" cy="-236.35" rx="62.8651" ry="26.7407"/>
<text text-anchor="middle" x="2342.57" y="-240.15" font-family="Times,serif" font-size="14.00">&lt;objective8&gt;</text>
<text text-anchor="middle" x="2342.57" y="-225.15" font-family="Times,serif" font-size="14.00">objective</text>
</g>
<!-- n11&#45;&gt;n10 -->
<g id="edge21" class="edge"><title>n11&#45;&gt;n10</title>
<path fill="none" stroke="black" d="M2389.29,-218.086C2397.67,-215.124 2406.36,-212.145 2414.57,-209.48 2441.86,-200.625 2449.3,-200.415 2476.57,-191.48 2495.01,-185.438 2498.56,-180.375 2517.57,-176.48 2658.87,-147.525 3089.43,-136.924 3262.95,-133.761"/>
<polygon fill="black" stroke="black" points="3263.07,-137.26 3273,-133.581 3262.94,-130.261 3263.07,-137.26"/>
<text text-anchor="middle" x="2573.57" y="-180.28" font-family="Times,serif" font-size="14.00"> static(visible_from)</text>
</g>
<!-- n12 -->
<g id="node12" class="node"><title>n12</title>
<ellipse fill="none" stroke="black" cx="3450.57" cy="-490.831" rx="56.6372" ry="26.7407"/>
<text text-anchor="middle" x="3450.57" y="-494.631" font-family="Times,serif" font-size="14.00">&lt;camera3&gt;</text>
<text text-anchor="middle" x="3450.57" y="-479.631" font-family="Times,serif" font-size="14.00">camera</text>
</g>
<!-- n12&#45;&gt;n6 -->
<g id="edge31" class="edge"><title>n12&#45;&gt;n6</title>
<path fill="none" stroke="black" d="M3394.51,-487.146C3236.27,-479.447 2795.7,-457.131 2766.57,-445.96 2756.52,-442.108 2757.71,-434.542 2747.57,-430.96 2702.41,-415.018 1071.44,-414.293 1023.57,-412.96 808.41,-406.972 552.885,-393.503 440.494,-387.257"/>
<polygon fill="black" stroke="black" points="440.572,-383.756 430.392,-386.694 440.182,-390.745 440.572,-383.756"/>
<text text-anchor="middle" x="2813.07" y="-434.76" font-family="Times,serif" font-size="14.00"> static(on_board)</text>
</g>
<!-- n12&#45;&gt;n7 -->
<g id="edge51" class="edge"><title>n12&#45;&gt;n7</title>
<path fill="none" stroke="black" d="M3505.61,-484.02C3533.62,-478.427 3566.34,-467.46 3588.57,-445.96 3595.88,-438.888 3600.77,-429.232 3604.03,-419.647"/>
<polygon fill="black" stroke="black" points="3607.46,-420.373 3606.88,-409.795 3600.74,-418.429 3607.46,-420.373"/>
<text text-anchor="middle" x="3644.57" y="-434.76" font-family="Times,serif" font-size="14.00"> static(supports)</text>
</g>
<!-- n25 -->
<g id="node25" class="node"><title>n25</title>
<ellipse fill="none" stroke="black" cx="3425.57" cy="-308.09" rx="67.7647" ry="26.7407"/>
<text text-anchor="middle" x="3425.57" y="-311.89" font-family="Times,serif" font-size="14.00">&lt;objective10&gt;</text>
<text text-anchor="middle" x="3425.57" y="-296.89" font-family="Times,serif" font-size="14.00">objective</text>
</g>
<!-- n12&#45;&gt;n25 -->
<g id="edge27" class="edge"><title>n12&#45;&gt;n25</title>
<path fill="none" stroke="black" d="M3446.99,-463.935C3442.68,-432.797 3435.43,-380.351 3430.57,-345.237"/>
<polygon fill="black" stroke="black" points="3433.98,-344.364 3429.14,-334.938 3427.05,-345.323 3433.98,-344.364"/>
<text text-anchor="middle" x="3513.07" y="-434.76" font-family="Times,serif" font-size="14.00"> static(calibration_target)</text>
</g>
<!-- n13&#45;&gt;n10 -->
<g id="edge43" class="edge"><title>n13&#45;&gt;n10</title>
<path fill="none" stroke="black" d="M2225.56,-216.575C2261.62,-202.793 2313.43,-185.043 2360.57,-176.48 2448.36,-160.533 3051.27,-141.161 3263.14,-134.77"/>
<polygon fill="black" stroke="black" points="3263.34,-138.265 3273.23,-134.466 3263.13,-131.269 3263.34,-138.265"/>
<text text-anchor="middle" x="2416.57" y="-180.28" font-family="Times,serif" font-size="14.00"> static(visible_from)</text>
</g>
<!-- n13&#45;&gt;n22 -->
<g id="edge10" class="edge"><title>n13&#45;&gt;n22</title>
<path fill="none" stroke="black" d="M2178.78,-209.327C2179.39,-179.507 2185.29,-131.338 2214.57,-104.74 2280.28,-45.0457 2323.28,-80.9872 2411.57,-71.7401 2766.92,-34.5228 3194.68,-28.6906 3363.7,-27.9127"/>
<polygon fill="black" stroke="black" points="3363.75,-31.4126 3373.73,-27.8711 3363.72,-24.4127 3363.75,-31.4126"/>
<text text-anchor="middle" x="2270.57" y="-127.91" font-family="Times,serif" font-size="14.00"> static(visible_from)</text>
</g>
<!-- n14 -->
<g id="node14" class="node"><title>n14</title>
<ellipse fill="none" stroke="black" cx="1172.57" cy="-490.831" rx="56.6372" ry="26.7407"/>
<text text-anchor="middle" x="1172.57" y="-494.631" font-family="Times,serif" font-size="14.00">&lt;camera0&gt;</text>
<text text-anchor="middle" x="1172.57" y="-479.631" font-family="Times,serif" font-size="14.00">camera</text>
</g>
<!-- n14&#45;&gt;n6 -->
<g id="edge45" class="edge"><title>n14&#45;&gt;n6</title>
<path fill="none" stroke="black" d="M1116.45,-486.69C940.855,-476.85 413.395,-447.198 411.569,-445.96 402.324,-439.698 395.959,-429.679 391.604,-419.505"/>
<polygon fill="black" stroke="black" points="394.773,-417.983 388.018,-409.821 388.209,-420.414 394.773,-417.983"/>
<text text-anchor="middle" x="458.069" y="-434.76" font-family="Times,serif" font-size="14.00"> static(on_board)</text>
</g>
<!-- n14&#45;&gt;n20 -->
<g id="edge61" class="edge"><title>n14&#45;&gt;n20</title>
<path fill="none" stroke="black" d="M1115.83,-488.586C1083.84,-484.603 1046.26,-473.723 1025.57,-445.96 1016.01,-433.133 1025.13,-419.753 1038.5,-408.72"/>
<polygon fill="black" stroke="black" points="1040.87,-411.322 1046.76,-402.518 1036.66,-405.725 1040.87,-411.322"/>
<text text-anchor="middle" x="1069.57" y="-434.76" font-family="Times,serif" font-size="14.00"> static(supports)</text>
</g>
<!-- n14&#45;&gt;n26 -->
<g id="edge54" class="edge"><title>n14&#45;&gt;n26</title>
<path fill="none" stroke="black" d="M1228.03,-485.239C1299.04,-479.506 1425.88,-469.749 1534.57,-463.96 1591.52,-460.927 1994.02,-465.608 2047.57,-445.96 2057.67,-442.254 2056.52,-434.795 2066.57,-430.96 2128.35,-407.395 2298.97,-427.051 2363.57,-412.96 2372.29,-411.058 2381.33,-408.297 2389.99,-405.225"/>
<polygon fill="black" stroke="black" points="2391.42,-408.427 2399.57,-401.654 2388.98,-401.868 2391.42,-408.427"/>
<text text-anchor="middle" x="2110.57" y="-434.76" font-family="Times,serif" font-size="14.00"> static(supports)</text>
</g>
<!-- n29 -->
<g id="node29" class="node"><title>n29</title>
<ellipse fill="none" stroke="black" cx="1909.57" cy="-382.96" rx="62.8651" ry="26.7407"/>
<text text-anchor="middle" x="1909.57" y="-386.76" font-family="Times,serif" font-size="14.00">&lt;objective4&gt;</text>
<text text-anchor="middle" x="1909.57" y="-371.76" font-family="Times,serif" font-size="14.00">objective</text>
</g>
<!-- n14&#45;&gt;n29 -->
<g id="edge39" class="edge"><title>n14&#45;&gt;n29</title>
<path fill="none" stroke="black" d="M1229.06,-488.101C1287.7,-484.716 1381.2,-474.809 1456.57,-445.96 1467.97,-441.598 1468.08,-435.069 1479.57,-430.96 1543.55,-408.082 1731.97,-394.062 1836.9,-387.81"/>
<polygon fill="black" stroke="black" points="1837.33,-391.291 1847.1,-387.211 1836.91,-384.303 1837.33,-391.291"/>
<text text-anchor="middle" x="1548.07" y="-434.76" font-family="Times,serif" font-size="14.00"> static(calibration_target)</text>
</g>
<!-- n15 -->
<g id="node15" class="node"><title>n15</title>
<ellipse fill="none" stroke="black" cx="1909.57" cy="-490.831" rx="56.6372" ry="26.7407"/>
<text text-anchor="middle" x="1909.57" y="-494.631" font-family="Times,serif" font-size="14.00">&lt;camera5&gt;</text>
<text text-anchor="middle" x="1909.57" y="-479.631" font-family="Times,serif" font-size="14.00">camera</text>
</g>
<!-- n15&#45;&gt;n6 -->
<g id="edge17" class="edge"><title>n15&#45;&gt;n6</title>
<path fill="none" stroke="black" d="M1855.13,-483.041C1805.94,-477.143 1731.51,-468.808 1666.57,-463.96 1573.63,-457.024 1336.31,-474.428 1247.57,-445.96 1235.95,-442.233 1236.17,-434.763 1224.57,-430.96 1187.38,-418.768 624.857,-394.152 440.551,-386.374"/>
<polygon fill="black" stroke="black" points="440.648,-382.875 430.509,-385.951 440.353,-389.868 440.648,-382.875"/>
<text text-anchor="middle" x="1294.07" y="-434.76" font-family="Times,serif" font-size="14.00"> static(on_board)</text>
</g>
<!-- n15&#45;&gt;n7 -->
<g id="edge53" class="edge"><title>n15&#45;&gt;n7</title>
<path fill="none" stroke="black" d="M1965.27,-485.516C2041.89,-479.736 2184.1,-469.56 2305.57,-463.96 2379.85,-460.536 2904.66,-471.29 2974.57,-445.96 2984.68,-442.296 2983.55,-434.873 2993.57,-430.96 3092.3,-392.422 3405.37,-385.37 3543.72,-384.162"/>
<polygon fill="black" stroke="black" points="3543.8,-387.662 3553.78,-384.082 3543.75,-380.662 3543.8,-387.662"/>
<text text-anchor="middle" x="3037.57" y="-434.76" font-family="Times,serif" font-size="14.00"> static(supports)</text>
</g>
<!-- n15&#45;&gt;n20 -->
<g id="edge41" class="edge"><title>n15&#45;&gt;n20</title>
<path fill="none" stroke="black" d="M1852.92,-489.029C1795.82,-486.357 1706.26,-476.983 1635.57,-445.96 1625.72,-441.637 1626.57,-434.93 1616.57,-430.96 1530.94,-396.97 1259.05,-387.456 1138.77,-384.88"/>
<polygon fill="black" stroke="black" points="1138.72,-381.378 1128.65,-384.672 1138.57,-388.377 1138.72,-381.378"/>
<text text-anchor="middle" x="1679.57" y="-434.76" font-family="Times,serif" font-size="14.00"> static(supports)</text>
</g>
<!-- n15&#45;&gt;n26 -->
<g id="edge50" class="edge"><title>n15&#45;&gt;n26</title>
<path fill="none" stroke="black" d="M1964.42,-484.197C2015.51,-478.011 2093.37,-466.165 2158.57,-445.96 2173.96,-441.192 2176.02,-435.187 2191.57,-430.96 2265.74,-410.796 2288.85,-430.978 2363.57,-412.96 2372.15,-410.892 2381.06,-408.077 2389.62,-405.01"/>
<polygon fill="black" stroke="black" points="2390.96,-408.246 2399.1,-401.467 2388.51,-401.689 2390.96,-408.246"/>
<text text-anchor="middle" x="2235.57" y="-434.76" font-family="Times,serif" font-size="14.00"> static(supports)</text>
</g>
<!-- n15&#45;&gt;n29 -->
<g id="edge59" class="edge"><title>n15&#45;&gt;n29</title>
<path fill="none" stroke="black" d="M1909.57,-463.932C1909.57,-450.73 1909.57,-434.462 1909.57,-420.052"/>
<polygon fill="black" stroke="black" points="1913.07,-419.959 1909.57,-409.959 1906.07,-419.959 1913.07,-419.959"/>
<text text-anchor="middle" x="1978.07" y="-434.76" font-family="Times,serif" font-size="14.00"> static(calibration_target)</text>
</g>
<!-- n16 -->
<g id="node16" class="node"><title>n16</title>
<ellipse fill="none" stroke="black" cx="1600.57" cy="-490.831" rx="56.6372" ry="26.7407"/>
<text text-anchor="middle" x="1600.57" y="-494.631" font-family="Times,serif" font-size="14.00">&lt;camera1&gt;</text>
<text text-anchor="middle" x="1600.57" y="-479.631" font-family="Times,serif" font-size="14.00">camera</text>
</g>
<!-- n16&#45;&gt;n6 -->
<g id="edge16" class="edge"><title>n16&#45;&gt;n6</title>
<path fill="none" stroke="black" d="M1545.11,-485.071C1474.12,-479.161 1347.29,-469.219 1238.57,-463.96 1159.64,-460.143 603.027,-469.435 527.569,-445.96 515.915,-442.335 515.434,-436.518 504.569,-430.96 481.773,-419.3 455.378,-408.79 432.982,-400.68"/>
<polygon fill="black" stroke="black" points="433.922,-397.3 423.327,-397.242 431.573,-403.894 433.922,-397.3"/>
<text text-anchor="middle" x="574.069" y="-434.76" font-family="Times,serif" font-size="14.00"> static(on_board)</text>
</g>
<!-- n16&#45;&gt;n7 -->
<g id="edge9" class="edge"><title>n16&#45;&gt;n7</title>
<path fill="none" stroke="black" d="M1654.5,-482.706C1703.67,-476.541 1778.36,-467.999 1843.57,-463.96 1900.14,-460.457 2810.19,-465.019 2863.57,-445.96 2873.7,-442.342 2872.52,-434.815 2882.57,-430.96 3002.13,-385.083 3387.09,-382.359 3543.53,-383.238"/>
<polygon fill="black" stroke="black" points="3543.92,-386.74 3553.95,-383.304 3543.97,-379.741 3543.92,-386.74"/>
<text text-anchor="middle" x="2926.57" y="-434.76" font-family="Times,serif" font-size="14.00"> static(supports)</text>
</g>
<!-- n17 -->
<g id="node17" class="node"><title>n17</title>
<ellipse fill="none" stroke="black" cx="2291.57" cy="-382.96" rx="62.8651" ry="26.7407"/>
<text text-anchor="middle" x="2291.57" y="-386.76" font-family="Times,serif" font-size="14.00">&lt;objective2&gt;</text>
<text text-anchor="middle" x="2291.57" y="-371.76" font-family="Times,serif" font-size="14.00">objective</text>
</g>
<!-- n16&#45;&gt;n17 -->
<g id="edge62" class="edge"><title>n16&#45;&gt;n17</title>
<path fill="none" stroke="black" d="M1645.6,-474.497C1669.91,-466.162 1700.42,-455.613 1727.57,-445.96 1745.85,-439.459 1749.62,-435.148 1768.57,-430.96 1861.33,-410.458 1886.94,-421.385 1981.57,-412.96 2063.55,-405.662 2157.69,-396.785 2220.51,-390.791"/>
<polygon fill="black" stroke="black" points="2221.08,-394.252 2230.7,-389.817 2220.42,-387.284 2221.08,-394.252"/>
<text text-anchor="middle" x="1837.07" y="-434.76" font-family="Times,serif" font-size="14.00"> static(calibration_target)</text>
</g>
<!-- n16&#45;&gt;n20 -->
<g id="edge29" class="edge"><title>n16&#45;&gt;n20</title>
<path fill="none" stroke="black" d="M1544.55,-486.813C1429.05,-480.263 1172.27,-463.884 1136.57,-445.96 1123.22,-439.258 1111.54,-427.912 1102.36,-416.745"/>
<polygon fill="black" stroke="black" points="1105.02,-414.466 1096.12,-408.714 1099.49,-418.759 1105.02,-414.466"/>
<text text-anchor="middle" x="1180.57" y="-434.76" font-family="Times,serif" font-size="14.00"> static(supports)</text>
</g>
<!-- n17&#45;&gt;n10 -->
<g id="edge57" class="edge"><title>n17&#45;&gt;n10</title>
<path fill="none" stroke="black" d="M2336.24,-363.761C2348.76,-359.427 2362.52,-355.365 2375.57,-352.96 2498.23,-330.354 2818.27,-374.495 2936.57,-334.96 2989.13,-317.394 2997.56,-300.506 3038.57,-263.22 3061.83,-242.07 3058.26,-226.696 3084.57,-209.48 3140.03,-173.186 3213.45,-153.35 3266.72,-142.969"/>
<polygon fill="black" stroke="black" points="3267.58,-146.369 3276.76,-141.078 3266.29,-139.49 3267.58,-146.369"/>
<text text-anchor="middle" x="3140.57" y="-232.65" font-family="Times,serif" font-size="14.00"> static(visible_from)</text>
</g>
<!-- n18 -->
<g id="node18" class="node"><title>n18</title>
<ellipse fill="none" stroke="black" cx="198.569" cy="-490.831" rx="67.3507" ry="26.7407"/>
<text text-anchor="middle" x="198.569" y="-494.631" font-family="Times,serif" font-size="14.00">&lt;rover0store&gt;</text>
<text text-anchor="middle" x="198.569" y="-479.631" font-family="Times,serif" font-size="14.00">store</text>
</g>
<!-- n18&#45;&gt;n6 -->
<g id="edge37" class="edge"><title>n18&#45;&gt;n6</title>
<path fill="none" stroke="black" d="M184.898,-464.499C180.808,-453.216 179.141,-440.38 186.569,-430.96 203.632,-409.322 273.888,-396.519 325.426,-389.87"/>
<polygon fill="black" stroke="black" points="325.971,-393.329 335.463,-388.621 325.107,-386.383 325.971,-393.329"/>
<text text-anchor="middle" x="229.569" y="-434.76" font-family="Times,serif" font-size="14.00"> static(store_of)</text>
</g>
<!-- n18&#45;&gt;n18 -->
<g id="edge5" class="edge"><title>n18&#45;&gt;n18</title>
<path fill="none" stroke="black" d="M261.715,-500.209C274.552,-499.187 283.744,-496.061 283.744,-490.831 283.744,-487.153 279.199,-484.516 272.039,-482.919"/>
<polygon fill="black" stroke="black" points="272.108,-479.393 261.715,-481.452 271.123,-486.324 272.108,-479.393"/>
<text text-anchor="middle" x="316.744" y="-487.131" font-family="Times,serif" font-size="14.00"> init(empty)</text>
</g>
<!-- n19 -->
<g id="node19" class="node"><title>n19</title>
<ellipse fill="none" stroke="black" cx="3820.57" cy="-490.831" rx="62.8651" ry="26.7407"/>
<text text-anchor="middle" x="3820.57" y="-494.631" font-family="Times,serif" font-size="14.00">&lt;objective7&gt;</text>
<text text-anchor="middle" x="3820.57" y="-479.631" font-family="Times,serif" font-size="14.00">objective</text>
</g>
<!-- n19&#45;&gt;n7 -->
<g id="edge19" class="edge"><title>n19&#45;&gt;n7</title>
<path fill="none" stroke="black" d="M3776.78,-471.176C3759.71,-463.658 3740.08,-454.707 3722.57,-445.96 3699.71,-434.541 3674.79,-420.872 3654.27,-409.278"/>
<polygon fill="black" stroke="black" points="3655.9,-406.176 3645.47,-404.281 3652.44,-412.263 3655.9,-406.176"/>
<text text-anchor="middle" x="3814.57" y="-434.76" font-family="Times,serif" font-size="14.00"> end(communicated_image_data)</text>
</g>
<!-- n19&#45;&gt;n10 -->
<g id="edge63" class="edge"><title>n19&#45;&gt;n10</title>
<path fill="none" stroke="black" d="M3871.77,-474.859C3885.43,-468.27 3898.6,-458.967 3906.57,-445.96 3910.05,-440.275 3908.28,-437.403 3906.57,-430.96 3893.92,-383.442 3873.1,-379.17 3851.57,-334.96 3825.21,-280.837 3845.85,-249.151 3800.57,-209.48 3743.64,-159.598 3525.79,-141.649 3409.98,-135.543"/>
<polygon fill="black" stroke="black" points="3409.94,-132.037 3399.77,-135.022 3409.58,-139.028 3409.94,-132.037"/>
<text text-anchor="middle" x="3907.57" y="-304.39" font-family="Times,serif" font-size="14.00"> static(visible_from)</text>
</g>
<!-- n19&#45;&gt;n20 -->
<g id="edge47" class="edge"><title>n19&#45;&gt;n20</title>
<path fill="none" stroke="black" d="M3759.46,-484.29C3698.09,-478.806 3600.81,-470.332 3516.57,-463.96 3456.16,-459.392 3302.03,-465.13 3244.57,-445.96 3232.99,-442.098 3233.24,-434.514 3221.57,-430.96 3148.01,-408.571 1914.44,-414.932 1837.57,-412.96 1576.69,-406.268 1265.44,-392.528 1138.63,-386.686"/>
<polygon fill="black" stroke="black" points="1138.53,-383.178 1128.38,-386.212 1138.21,-390.17 1138.53,-383.178"/>
<text text-anchor="middle" x="3336.57" y="-434.76" font-family="Times,serif" font-size="14.00"> end(communicated_image_data)</text>
</g>
<!-- n19&#45;&gt;n22 -->
<g id="edge52" class="edge"><title>n19&#45;&gt;n22</title>
<path fill="none" stroke="black" d="M3880.76,-482.82C3969.92,-472.251 4127.78,-452.75 4138.57,-445.96 4212.87,-399.201 4176.97,-333.411 4247.57,-281.22 4270.3,-264.417 4288.75,-283.375 4308.57,-263.22 4333.67,-237.692 4361.18,-131.656 4337.57,-104.74 4283.48,-43.0764 3716.68,-30.8607 3511.33,-28.4553"/>
<polygon fill="black" stroke="black" points="3511.28,-24.9546 3501.24,-28.3417 3511.2,-31.9542 3511.28,-24.9546"/>
<text text-anchor="middle" x="4390.57" y="-232.65" font-family="Times,serif" font-size="14.00"> static(visible_from)</text>
</g>
<!-- n21 -->
<g id="node21" class="node"><title>n21</title>
<ellipse fill="none" stroke="black" cx="4106.57" cy="-490.831" rx="62.8651" ry="26.7407"/>
<text text-anchor="middle" x="4106.57" y="-494.631" font-family="Times,serif" font-size="14.00">&lt;objective3&gt;</text>
<text text-anchor="middle" x="4106.57" y="-479.631" font-family="Times,serif" font-size="14.00">objective</text>
</g>
<!-- n21&#45;&gt;n7 -->
<g id="edge26" class="edge"><title>n21&#45;&gt;n7</title>
<path fill="none" stroke="black" d="M4058.33,-473.332C4018.95,-460.354 3961.67,-442.581 3910.57,-430.96 3830.39,-412.727 3736.54,-399.265 3675.45,-391.528"/>
<polygon fill="black" stroke="black" points="3675.55,-388.013 3665.19,-390.243 3674.68,-394.958 3675.55,-388.013"/>
<text text-anchor="middle" x="4057.57" y="-434.76" font-family="Times,serif" font-size="14.00"> end(communicated_image_data)</text>
</g>
<!-- n21&#45;&gt;n10 -->
<g id="edge12" class="edge"><title>n21&#45;&gt;n10</title>
<path fill="none" stroke="black" d="M4167.41,-483.855C4241.24,-475.978 4357.56,-461.312 4370.57,-445.96 4374.88,-440.875 4373.95,-436.708 4370.57,-430.96 4301.23,-313.001 4229.47,-329.845 4101.57,-281.22 4067.1,-268.115 4051.27,-283.646 4020.57,-263.22 3996.21,-247.019 4005.46,-227.687 3982.57,-209.48 3966.03,-196.33 3957.68,-200.481 3938.57,-191.48 3925.8,-185.466 3924.12,-180.437 3910.57,-176.48 3818.82,-149.695 3543.75,-138.445 3410.51,-134.469"/>
<polygon fill="black" stroke="black" points="3410.49,-130.967 3400.39,-134.173 3410.29,-137.964 3410.49,-130.967"/>
<text text-anchor="middle" x="4325.57" y="-304.39" font-family="Times,serif" font-size="14.00"> static(visible_from)</text>
</g>
<!-- n22&#45;&gt;n1 -->
<g id="edge46" class="edge"><title>n22&#45;&gt;n1</title>
<path fill="none" stroke="black" d="M3374.12,-29.0592C3184.81,-33.9276 2629.19,-58.2104 2501.57,-176.48 2495.14,-182.434 2491.42,-190.754 2489.32,-199.267"/>
<polygon fill="black" stroke="black" points="2485.85,-198.759 2487.53,-209.22 2492.74,-199.996 2485.85,-198.759"/>
<text text-anchor="middle" x="2697.57" y="-127.91" font-family="Times,serif" font-size="14.00"> static(visible)</text>
</g>
<!-- n22&#45;&gt;n10 -->
<g id="edge55" class="edge"><title>n22&#45;&gt;n10</title>
<path fill="none" stroke="black" d="M3380.3,-38.8917C3362.28,-45.3512 3344.29,-55.5746 3333.57,-71.7401 3329.11,-78.4555 3327.68,-86.6101 3327.84,-94.683"/>
<polygon fill="black" stroke="black" points="3324.36,-95.1176 3328.77,-104.751 3331.33,-94.4694 3324.36,-95.1176"/>
<text text-anchor="middle" x="3372.57" y="-75.5401" font-family="Times,serif" font-size="14.00"> static(visible)</text>
</g>
<!-- n22&#45;&gt;n22 -->
<g id="edge6" class="edge"><title>n22&#45;&gt;n22</title>
<path fill="none" stroke="black" d="M3497.37,-36.3053C3510.05,-35.3472 3519.21,-32.2021 3519.21,-26.8701 3519.21,-23.121 3514.68,-20.4531 3507.59,-18.8664"/>
<polygon fill="black" stroke="black" points="3507.76,-15.3569 3497.37,-17.4349 3506.79,-22.2891 3507.76,-15.3569"/>
<text text-anchor="middle" x="3578.21" y="-23.1701" font-family="Times,serif" font-size="14.00"> init(at_rock_sample)</text>
</g>
<!-- n23 -->
<g id="node23" class="node"><title>n23</title>
<ellipse fill="none" stroke="black" cx="2371.57" cy="-490.831" rx="56.6372" ry="26.7407"/>
<text text-anchor="middle" x="2371.57" y="-494.631" font-family="Times,serif" font-size="14.00">&lt;camera4&gt;</text>
<text text-anchor="middle" x="2371.57" y="-479.631" font-family="Times,serif" font-size="14.00">camera</text>
</g>
<!-- n23&#45;&gt;n6 -->
<g id="edge40" class="edge"><title>n23&#45;&gt;n6</title>
<path fill="none" stroke="black" d="M2315.86,-485.556C2239.25,-479.823 2097.04,-469.701 1975.57,-463.96 1907.17,-460.728 1423.92,-469.36 1359.57,-445.96 1349.46,-442.284 1350.64,-434.737 1340.57,-430.96 1329.97,-426.988 646.151,-395.852 440.465,-386.566"/>
<polygon fill="black" stroke="black" points="440.61,-383.069 430.462,-386.115 440.294,-390.062 440.61,-383.069"/>
<text text-anchor="middle" x="1406.07" y="-434.76" font-family="Times,serif" font-size="14.00"> static(on_board)</text>
</g>
<!-- n23&#45;&gt;n7 -->
<g id="edge49" class="edge"><title>n23&#45;&gt;n7</title>
<path fill="none" stroke="black" d="M2427.62,-486.567C2593.17,-476.905 3069.43,-448.932 3085.57,-445.96 3107.55,-441.912 3111.67,-435.413 3133.57,-430.96 3278.19,-401.561 3451.36,-390.339 3544.12,-386.218"/>
<polygon fill="black" stroke="black" points="3544.36,-389.711 3554.2,-385.784 3544.06,-382.718 3544.36,-389.711"/>
<text text-anchor="middle" x="3177.57" y="-434.76" font-family="Times,serif" font-size="14.00"> static(supports)</text>
</g>
<!-- n23&#45;&gt;n17 -->
<g id="edge28" class="edge"><title>n23&#45;&gt;n17</title>
<path fill="none" stroke="black" d="M2324.73,-475.754C2310.62,-469.08 2296.73,-459.502 2288.57,-445.96 2283.88,-438.181 2282.61,-428.804 2283,-419.724"/>
<polygon fill="black" stroke="black" points="2286.49,-420.015 2284.07,-409.7 2279.53,-419.274 2286.49,-420.015"/>
<text text-anchor="middle" x="2357.07" y="-434.76" font-family="Times,serif" font-size="14.00"> static(calibration_target)</text>
</g>
<!-- n23&#45;&gt;n26 -->
<g id="edge11" class="edge"><title>n23&#45;&gt;n26</title>
<path fill="none" stroke="black" d="M2407.02,-469.854C2415.69,-463.327 2424.04,-455.308 2429.57,-445.96 2434.14,-438.22 2436.7,-429.015 2438.07,-420.098"/>
<polygon fill="black" stroke="black" points="2441.58,-420.185 2439.18,-409.866 2434.62,-419.431 2441.58,-420.185"/>
<text text-anchor="middle" x="2480.57" y="-434.76" font-family="Times,serif" font-size="14.00"> static(supports)</text>
</g>
<!-- n24 -->
<g id="node24" class="node"><title>n24</title>
<ellipse fill="none" stroke="black" cx="642.569" cy="-490.831" rx="56.6372" ry="26.7407"/>
<text text-anchor="middle" x="642.569" y="-494.631" font-family="Times,serif" font-size="14.00">&lt;camera6&gt;</text>
<text text-anchor="middle" x="642.569" y="-479.631" font-family="Times,serif" font-size="14.00">camera</text>
</g>
<!-- n24&#45;&gt;n6 -->
<g id="edge7" class="edge"><title>n24&#45;&gt;n6</title>
<path fill="none" stroke="black" d="M587.17,-484.743C491.628,-475.704 305.105,-456.779 295.569,-445.96 279.112,-427.292 303.807,-411.161 331.037,-400.035"/>
<polygon fill="black" stroke="black" points="332.634,-403.171 340.71,-396.313 330.121,-396.638 332.634,-403.171"/>
<text text-anchor="middle" x="342.069" y="-434.76" font-family="Times,serif" font-size="14.00"> static(on_board)</text>
</g>
<!-- n24&#45;&gt;n9 -->
<g id="edge65" class="edge"><title>n24&#45;&gt;n9</title>
<path fill="none" stroke="black" d="M634.063,-464.22C631.97,-452.878 632.121,-440.073 639.569,-430.96 749.777,-296.116 850.443,-371.839 1023.57,-352.96 1141.66,-340.083 1975.97,-357.706 2092.57,-334.96 2097.36,-334.025 2102.26,-332.77 2107.12,-331.314"/>
<polygon fill="black" stroke="black" points="2108.57,-334.523 2116.98,-328.085 2106.39,-327.871 2108.57,-334.523"/>
<text text-anchor="middle" x="708.069" y="-434.76" font-family="Times,serif" font-size="14.00"> static(calibration_target)</text>
</g>
<!-- n24&#45;&gt;n20 -->
<g id="edge56" class="edge"><title>n24&#45;&gt;n20</title>
<path fill="none" stroke="black" d="M697.155,-483.297C748.058,-476.482 825.799,-464.218 891.569,-445.96 909.463,-440.993 913.032,-437.073 930.569,-430.96 962.956,-419.671 999.696,-408.138 1028.71,-399.322"/>
<polygon fill="black" stroke="black" points="1030.07,-402.567 1038.63,-396.322 1028.04,-395.867 1030.07,-402.567"/>
<text text-anchor="middle" x="974.569" y="-434.76" font-family="Times,serif" font-size="14.00"> static(supports)</text>
</g>
<!-- n25&#45;&gt;n10 -->
<g id="edge8" class="edge"><title>n25&#45;&gt;n10</title>
<path fill="none" stroke="black" d="M3418.66,-281.169C3409.08,-245.698 3392.29,-185.394 3386.57,-176.48 3383.37,-171.499 3379.45,-166.754 3375.23,-162.35"/>
<polygon fill="black" stroke="black" points="3377.53,-159.704 3367.9,-155.279 3372.66,-164.741 3377.53,-159.704"/>
<text text-anchor="middle" x="3469.57" y="-232.65" font-family="Times,serif" font-size="14.00"> static(visible_from)</text>
</g>
<!-- n27 -->
<g id="node27" class="node"><title>n27</title>
<ellipse fill="none" stroke="black" cx="3301.57" cy="-236.35" rx="62.8651" ry="26.7407"/>
<text text-anchor="middle" x="3301.57" y="-240.15" font-family="Times,serif" font-size="14.00">&lt;objective0&gt;</text>
<text text-anchor="middle" x="3301.57" y="-225.15" font-family="Times,serif" font-size="14.00">objective</text>
</g>
<!-- n27&#45;&gt;n10 -->
<g id="edge33" class="edge"><title>n27&#45;&gt;n10</title>
<path fill="none" stroke="black" d="M3280.06,-211.042C3273.23,-200.331 3268.78,-187.665 3274.57,-176.48 3277.98,-169.878 3282.9,-164.056 3288.5,-158.991"/>
<polygon fill="black" stroke="black" points="3290.89,-161.56 3296.46,-152.551 3286.49,-156.115 3290.89,-161.56"/>
<text text-anchor="middle" x="3330.57" y="-180.28" font-family="Times,serif" font-size="14.00"> static(visible_from)</text>
</g>
<!-- n28 -->
<g id="node28" class="node"><title>n28</title>
<ellipse fill="none" stroke="black" cx="4092.57" cy="-236.35" rx="62.8651" ry="26.7407"/>
<text text-anchor="middle" x="4092.57" y="-240.15" font-family="Times,serif" font-size="14.00">&lt;objective5&gt;</text>
<text text-anchor="middle" x="4092.57" y="-225.15" font-family="Times,serif" font-size="14.00">objective</text>
</g>
<!-- n28&#45;&gt;n10 -->
<g id="edge20" class="edge"><title>n28&#45;&gt;n10</title>
<path fill="none" stroke="black" d="M4044.14,-218.931C4034.68,-215.764 4024.82,-212.495 4015.57,-209.48 3990.31,-201.249 3982.58,-202.841 3958.57,-191.48 3947.54,-186.261 3947.13,-180.383 3935.57,-176.48 3840.27,-144.316 3548.42,-135.715 3410.39,-133.43"/>
<polygon fill="black" stroke="black" points="3410.38,-129.929 3400.32,-133.27 3410.26,-136.928 3410.38,-129.929"/>
<text text-anchor="middle" x="4014.57" y="-180.28" font-family="Times,serif" font-size="14.00"> static(visible_from)</text>
</g>
<!-- n28&#45;&gt;n22 -->
<g id="edge32" class="edge"><title>n28&#45;&gt;n22</title>
<path fill="none" stroke="black" d="M4088.55,-209.292C4085.48,-197.715 4080.07,-184.844 4070.57,-176.48 3986.95,-102.861 3655.95,-54.4191 3508.77,-36.096"/>
<polygon fill="black" stroke="black" points="3508.85,-32.5794 3498.5,-34.8289 3507.99,-39.5268 3508.85,-32.5794"/>
<text text-anchor="middle" x="4100.57" y="-127.91" font-family="Times,serif" font-size="14.00"> static(visible_from)</text>
</g>
<!-- n29&#45;&gt;n10 -->
<g id="edge13" class="edge"><title>n29&#45;&gt;n10</title>
<path fill="none" stroke="black" d="M1970.77,-376.347C2181.07,-356.836 2863.28,-291.611 2900.57,-263.22 2921.1,-247.586 2902.55,-225.767 2922.57,-209.48 2973.88,-167.737 3159.54,-146.597 3263.96,-137.791"/>
<polygon fill="black" stroke="black" points="3264.43,-141.264 3274.11,-136.952 3263.86,-134.288 3264.43,-141.264"/>
<text text-anchor="middle" x="2978.57" y="-232.65" font-family="Times,serif" font-size="14.00"> static(visible_from)</text>
</g>
<!-- n30 -->
<g id="node30" class="node"><title>n30</title>
<ellipse fill="none" stroke="black" cx="4236.57" cy="-236.35" rx="62.8651" ry="26.7407"/>
<text text-anchor="middle" x="4236.57" y="-240.15" font-family="Times,serif" font-size="14.00">&lt;objective6&gt;</text>
<text text-anchor="middle" x="4236.57" y="-225.15" font-family="Times,serif" font-size="14.00">objective</text>
</g>
<!-- n30&#45;&gt;n10 -->
<g id="edge44" class="edge"><title>n30&#45;&gt;n10</title>
<path fill="none" stroke="black" d="M4189.91,-218.02C4144.19,-201.1 4080.52,-177.711 4074.57,-176.48 3949.2,-150.548 3571.06,-138.391 3410.24,-134.288"/>
<polygon fill="black" stroke="black" points="3410.05,-130.783 3399.96,-134.03 3409.87,-137.78 3410.05,-130.783"/>
<text text-anchor="middle" x="4170.57" y="-180.28" font-family="Times,serif" font-size="14.00"> static(visible_from)</text>
</g>
<!-- n30&#45;&gt;n22 -->
<g id="edge25" class="edge"><title>n30&#45;&gt;n22</title>
<path fill="none" stroke="black" d="M4237.6,-209.444C4237.1,-198.803 4235.31,-186.624 4230.57,-176.48 4211.7,-136.125 4200.65,-124.189 4160.57,-104.74 4047.36,-49.8037 3671.97,-33.8123 3511.43,-29.4257"/>
<polygon fill="black" stroke="black" points="3511.26,-25.9201 3501.17,-29.1533 3511.07,-32.9176 3511.26,-25.9201"/>
<text text-anchor="middle" x="4277.57" y="-127.91" font-family="Times,serif" font-size="14.00"> static(visible_from)</text>
</g>
</g>
</svg>
