<?xml version="1.0" encoding="UTF-8" standalone="no"?>
<!DOCTYPE svg PUBLIC "-//W3C//DTD SVG 1.1//EN"
 "http://www.w3.org/Graphics/SVG/1.1/DTD/svg11.dtd">
<!-- Generated by graphviz version 2.38.0 (20140413.2041)
 -->
<!-- Title: Struc Pages: 1 -->
<svg width="1033pt" height="505pt"
 viewBox="0.00 0.00 1032.70 504.70" xmlns="http://www.w3.org/2000/svg" xmlns:xlink="http://www.w3.org/1999/xlink">
<g id="graph0" class="graph" transform="scale(1 1) rotate(0) translate(4 500.701)">
<title>Struc</title>
<polygon fill="white" stroke="none" points="-4,4 -4,-500.701 1028.7,-500.701 1028.7,4 -4,4"/>
<!-- n1 -->
<g id="node1" class="node"><title>n1</title>
<ellipse fill="none" stroke="black" cx="609.619" cy="-465.831" rx="56.6326" ry="26.7574"/>
<ellipse fill="none" stroke="black" cx="609.619" cy="-465.831" rx="60.6372" ry="30.7407"/>
<text text-anchor="middle" x="609.619" y="-469.631" font-family="Times,serif" font-size="14.00">&lt;camera0&gt;</text>
<text text-anchor="middle" x="609.619" y="-454.631" font-family="Times,serif" font-size="14.00">camera</text>
</g>
<!-- n2 -->
<g id="node2" class="node"><title>n2</title>
<ellipse fill="none" stroke="black" cx="568.619" cy="-240.35" rx="56.6326" ry="26.7574"/>
<ellipse fill="none" stroke="black" cx="568.619" cy="-240.35" rx="60.6372" ry="30.7407"/>
<text text-anchor="middle" x="568.619" y="-244.15" font-family="Times,serif" font-size="14.00">&lt;high_res&gt;</text>
<text text-anchor="middle" x="568.619" y="-229.15" font-family="Times,serif" font-size="14.00">mode</text>
</g>
<!-- n1&#45;&gt;n2 -->
<g id="edge20" class="edge"><title>n1&#45;&gt;n2</title>
<path fill="none" stroke="black" stroke-dasharray="5,2" d="M611.1,-434.897C611.986,-399.351 610.723,-338.652 595.619,-289.22 594.584,-285.833 593.281,-282.421 591.81,-279.063"/>
<polygon fill="black" stroke="black" points="594.828,-277.265 587.302,-269.808 588.535,-280.331 594.828,-277.265"/>
<text text-anchor="middle" x="654.619" y="-349.39" font-family="Times,serif" font-size="14.00"> static(supports)</text>
</g>
<!-- n3 -->
<g id="node3" class="node"><title>n3</title>
<ellipse fill="none" stroke="black" cx="763.619" cy="-353.09" rx="48.1667" ry="26.7407"/>
<text text-anchor="middle" x="763.619" y="-356.89" font-family="Times,serif" font-size="14.00">&lt;rover0&gt;</text>
<text text-anchor="middle" x="763.619" y="-341.89" font-family="Times,serif" font-size="14.00">rover</text>
</g>
<!-- n1&#45;&gt;n3 -->
<g id="edge13" class="edge"><title>n1&#45;&gt;n3</title>
<path fill="none" stroke="black" d="M631.199,-436.65C641.114,-424.938 653.564,-411.81 666.619,-401.96 669.078,-400.105 694.507,-387.572 718.709,-375.796"/>
<polygon fill="black" stroke="black" points="720.409,-378.862 727.874,-371.344 717.35,-372.565 720.409,-378.862"/>
<text text-anchor="middle" x="714.119" y="-405.76" font-family="Times,serif" font-size="14.00"> static(on_board)</text>
</g>
<!-- n6 -->
<g id="node6" class="node"><title>n6</title>
<ellipse fill="none" stroke="black" cx="393.619" cy="-353.09" rx="67.7712" ry="26.7574"/>
<ellipse fill="none" stroke="black" cx="393.619" cy="-353.09" rx="71.7647" ry="30.7407"/>
<text text-anchor="middle" x="393.619" y="-356.89" font-family="Times,serif" font-size="14.00">&lt;objective15&gt;</text>
<text text-anchor="middle" x="393.619" y="-341.89" font-family="Times,serif" font-size="14.00">objective</text>
</g>
<!-- n1&#45;&gt;n6 -->
<g id="edge8" class="edge"><title>n1&#45;&gt;n6</title>
<path fill="none" stroke="black" stroke-dasharray="5,2" d="M553.58,-453.617C523.955,-446.113 487.787,-434.36 458.619,-416.96 446.359,-409.647 434.608,-399.597 424.55,-389.677"/>
<polygon fill="black" stroke="black" points="427.04,-387.217 417.544,-382.518 422.037,-392.113 427.04,-387.217"/>
<text text-anchor="middle" x="527.119" y="-405.76" font-family="Times,serif" font-size="14.00"> static(calibration_target)</text>
</g>
<!-- n3&#45;&gt;n3 -->
<g id="edge1" class="edge"><title>n3&#45;&gt;n3</title>
<path fill="none" stroke="black" d="M808.093,-363.526C820.342,-363.022 829.702,-359.544 829.702,-353.09 829.702,-348.553 825.075,-345.486 818.069,-343.89"/>
<polygon fill="black" stroke="black" points="818.448,-340.41 808.093,-342.654 817.587,-347.357 818.448,-340.41"/>
<text text-anchor="middle" x="927.202" y="-371.89" font-family="Times,serif" font-size="14.00"> static(equipped_for_rock_analysis)</text>
<text text-anchor="middle" x="927.202" y="-356.89" font-family="Times,serif" font-size="14.00">static(equipped_for_imaging)</text>
<text text-anchor="middle" x="927.202" y="-341.89" font-family="Times,serif" font-size="14.00">init(available)</text>
<text text-anchor="middle" x="927.202" y="-326.89" font-family="Times,serif" font-size="14.00">static(equipped_for_soil_analysis)</text>
</g>
<!-- n9 -->
<g id="node9" class="node"><title>n9</title>
<ellipse fill="none" stroke="black" cx="710.619" cy="-240.35" rx="63.7795" ry="26.7407"/>
<text text-anchor="middle" x="710.619" y="-244.15" font-family="Times,serif" font-size="14.00">&lt;waypoint2&gt;</text>
<text text-anchor="middle" x="710.619" y="-229.15" font-family="Times,serif" font-size="14.00">waypoint</text>
</g>
<!-- n3&#45;&gt;n9 -->
<g id="edge21" class="edge"><title>n3&#45;&gt;n9</title>
<path fill="none" stroke="black" d="M751.592,-326.962C744.393,-311.919 735.137,-292.579 727.245,-276.089"/>
<polygon fill="black" stroke="black" points="730.255,-274.272 722.781,-266.763 723.941,-277.294 730.255,-274.272"/>
<text text-anchor="middle" x="760.119" y="-293.02" font-family="Times,serif" font-size="14.00"> init(at)</text>
</g>
<!-- n4 -->
<g id="node4" class="node"><title>n4</title>
<ellipse fill="none" stroke="black" cx="51.6188" cy="-131.61" rx="51.7379" ry="26.7407"/>
<text text-anchor="middle" x="51.6188" y="-135.41" font-family="Times,serif" font-size="14.00">&lt;general&gt;</text>
<text text-anchor="middle" x="51.6188" y="-120.41" font-family="Times,serif" font-size="14.00">lander</text>
</g>
<!-- n4&#45;&gt;n4 -->
<g id="edge2" class="edge"><title>n4&#45;&gt;n4</title>
<path fill="none" stroke="black" d="M100.096,-141.226C112.195,-140.554 121.238,-137.348 121.238,-131.61 121.238,-127.665 116.963,-124.917 110.361,-123.367"/>
<polygon fill="black" stroke="black" points="110.472,-119.85 100.096,-121.994 109.544,-126.789 110.472,-119.85"/>
<text text-anchor="middle" x="171.738" y="-127.91" font-family="Times,serif" font-size="14.00"> init(channel_free)</text>
</g>
<!-- n7 -->
<g id="node7" class="node"><title>n7</title>
<ellipse fill="none" stroke="black" cx="380.619" cy="-26.8701" rx="63.7795" ry="26.7407"/>
<text text-anchor="middle" x="380.619" y="-30.6701" font-family="Times,serif" font-size="14.00">&lt;waypoint0&gt;</text>
<text text-anchor="middle" x="380.619" y="-15.6701" font-family="Times,serif" font-size="14.00">waypoint</text>
</g>
<!-- n4&#45;&gt;n7 -->
<g id="edge11" class="edge"><title>n4&#45;&gt;n7</title>
<path fill="none" stroke="black" d="M79.8178,-108.752C97.5108,-96.0882 121.317,-80.8871 144.619,-71.7401 197.404,-51.0194 260.751,-39.9317 308.519,-34.0906"/>
<polygon fill="black" stroke="black" points="308.943,-37.565 318.466,-32.9223 308.126,-30.6128 308.943,-37.565"/>
<text text-anchor="middle" x="190.619" y="-75.5401" font-family="Times,serif" font-size="14.00"> static(at_lander)</text>
</g>
<!-- n5 -->
<g id="node5" class="node"><title>n5</title>
<ellipse fill="none" stroke="black" cx="377.619" cy="-131.61" rx="63.7795" ry="26.7407"/>
<text text-anchor="middle" x="377.619" y="-135.41" font-family="Times,serif" font-size="14.00">&lt;waypoint1&gt;</text>
<text text-anchor="middle" x="377.619" y="-120.41" font-family="Times,serif" font-size="14.00">waypoint</text>
</g>
<!-- n5&#45;&gt;n5 -->
<g id="edge3" class="edge"><title>n5&#45;&gt;n5</title>
<path fill="none" stroke="black" d="M437.423,-141.045C450.102,-140.087 459.258,-136.942 459.258,-131.61 459.258,-127.861 454.732,-125.193 447.637,-123.607"/>
<polygon fill="black" stroke="black" points="447.812,-120.097 437.423,-122.175 446.841,-127.029 447.812,-120.097"/>
<text text-anchor="middle" x="518.258" y="-127.91" font-family="Times,serif" font-size="14.00"> init(at_rock_sample)</text>
</g>
<!-- n5&#45;&gt;n7 -->
<g id="edge10" class="edge"><title>n5&#45;&gt;n7</title>
<path fill="none" stroke="black" d="M399.539,-106.147C403.676,-100.186 407.398,-93.5521 409.619,-86.7401 412.389,-78.2401 410.737,-69.4199 407.113,-61.2743"/>
<polygon fill="black" stroke="black" points="410.155,-59.5421 402.313,-52.4174 404,-62.8771 410.155,-59.5421"/>
<text text-anchor="middle" x="450.619" y="-75.5401" font-family="Times,serif" font-size="14.00"> static(visible)</text>
</g>
<!-- n5&#45;&gt;n9 -->
<g id="edge14" class="edge"><title>n5&#45;&gt;n9</title>
<path fill="none" stroke="black" d="M386.502,-158.415C392.059,-170.531 400.507,-183.938 412.619,-191.48 455.386,-218.111 589.638,-197.682 638.619,-209.48 645.674,-211.18 652.933,-213.478 660,-216.049"/>
<polygon fill="black" stroke="black" points="658.892,-219.373 669.482,-219.694 661.404,-212.839 658.892,-219.373"/>
<text text-anchor="middle" x="451.619" y="-180.28" font-family="Times,serif" font-size="14.00"> static(visible)</text>
</g>
<!-- n6&#45;&gt;n2 -->
<g id="edge16" class="edge"><title>n6&#45;&gt;n2</title>
<path fill="none" stroke="black" stroke-dasharray="5,2" d="M395.685,-322.088C397.996,-310.347 402.598,-297.692 411.619,-289.22 438.817,-263.677 457.946,-282.159 493.619,-271.22 500.101,-269.233 506.811,-266.929 513.432,-264.501"/>
<polygon fill="black" stroke="black" points="514.913,-267.683 523.032,-260.876 512.44,-261.135 514.913,-267.683"/>
<text text-anchor="middle" x="503.619" y="-293.02" font-family="Times,serif" font-size="14.00"> end(communicated_image_data)</text>
</g>
<!-- n6&#45;&gt;n5 -->
<g id="edge12" class="edge"><title>n6&#45;&gt;n5</title>
<path fill="none" stroke="black" stroke-dasharray="5,2" d="M390.872,-322.147C389.514,-306.906 387.896,-288.083 386.619,-271.22 383.987,-236.465 381.458,-196.771 379.755,-168.794"/>
<polygon fill="black" stroke="black" points="383.24,-168.45 379.144,-158.68 376.253,-168.873 383.24,-168.45"/>
<text text-anchor="middle" x="442.619" y="-236.65" font-family="Times,serif" font-size="14.00"> static(visible_from)</text>
</g>
<!-- n6&#45;&gt;n7 -->
<g id="edge19" class="edge"><title>n6&#45;&gt;n7</title>
<path fill="none" stroke="black" d="M361.992,-325.135C330.4,-295.933 283.85,-246.133 264.619,-191.48 245.751,-137.859 298.121,-86.0918 338.544,-55.62"/>
<polygon fill="black" stroke="black" points="340.712,-58.3707 346.702,-49.6316 336.569,-52.7279 340.712,-58.3707"/>
<text text-anchor="middle" x="320.619" y="-180.28" font-family="Times,serif" font-size="14.00"> static(visible_from)</text>
</g>
<!-- n7&#45;&gt;n5 -->
<g id="edge17" class="edge"><title>n7&#45;&gt;n5</title>
<path fill="none" stroke="black" d="M345.406,-49.5397C338.22,-55.7549 331.635,-63.2014 327.619,-71.7401 322.535,-82.5469 327.041,-92.9596 335.078,-101.944"/>
<polygon fill="black" stroke="black" points="332.901,-104.708 342.528,-109.133 337.762,-99.6706 332.901,-104.708"/>
<text text-anchor="middle" x="366.619" y="-75.5401" font-family="Times,serif" font-size="14.00"> static(visible)</text>
</g>
<!-- n7&#45;&gt;n7 -->
<g id="edge4" class="edge"><title>n7&#45;&gt;n7</title>
<path fill="none" stroke="black" d="M440.423,-36.3053C453.102,-35.3472 462.258,-32.2021 462.258,-26.8701 462.258,-23.121 457.732,-20.4531 450.637,-18.8664"/>
<polygon fill="black" stroke="black" points="450.812,-15.3569 440.423,-17.4349 449.841,-22.2891 450.812,-15.3569"/>
<text text-anchor="middle" x="549.258" y="-30.6701" font-family="Times,serif" font-size="14.00"> end(communicated_rock_data)</text>
<text text-anchor="middle" x="549.258" y="-15.6701" font-family="Times,serif" font-size="14.00">init(at_rock_sample)</text>
</g>
<!-- n7&#45;&gt;n9 -->
<g id="edge15" class="edge"><title>n7&#45;&gt;n9</title>
<path fill="none" stroke="black" d="M442.477,-33.5333C525.715,-42.6403 666.714,-63.819 695.619,-104.74 715.797,-133.306 717.592,-174.117 715.553,-203.302"/>
<polygon fill="black" stroke="black" points="712.047,-203.215 714.655,-213.484 719.02,-203.83 712.047,-203.215"/>
<text text-anchor="middle" x="753.619" y="-127.91" font-family="Times,serif" font-size="14.00"> static(visible)</text>
</g>
<!-- n8 -->
<g id="node8" class="node"><title>n8</title>
<ellipse fill="none" stroke="black" cx="763.619" cy="-465.831" rx="67.3507" ry="26.7407"/>
<text text-anchor="middle" x="763.619" y="-469.631" font-family="Times,serif" font-size="14.00">&lt;rover0store&gt;</text>
<text text-anchor="middle" x="763.619" y="-454.631" font-family="Times,serif" font-size="14.00">store</text>
</g>
<!-- n8&#45;&gt;n3 -->
<g id="edge9" class="edge"><title>n8&#45;&gt;n3</title>
<path fill="none" stroke="black" d="M763.619,-438.867C763.619,-424.393 763.619,-406.143 763.619,-390.286"/>
<polygon fill="black" stroke="black" points="767.119,-390.275 763.619,-380.275 760.119,-390.275 767.119,-390.275"/>
<text text-anchor="middle" x="806.619" y="-405.76" font-family="Times,serif" font-size="14.00"> static(store_of)</text>
</g>
<!-- n8&#45;&gt;n8 -->
<g id="edge5" class="edge"><title>n8&#45;&gt;n8</title>
<path fill="none" stroke="black" d="M826.013,-475.991C839.241,-474.96 848.794,-471.573 848.794,-465.831 848.794,-461.658 843.751,-458.73 835.92,-457.044"/>
<polygon fill="black" stroke="black" points="836.399,-453.577 826.013,-455.67 835.437,-460.511 836.399,-453.577"/>
<text text-anchor="middle" x="881.794" y="-462.131" font-family="Times,serif" font-size="14.00"> init(empty)</text>
</g>
<!-- n9&#45;&gt;n5 -->
<g id="edge7" class="edge"><title>n9&#45;&gt;n5</title>
<path fill="none" stroke="black" d="M668.578,-219.927C658.892,-216.012 648.523,-212.253 638.619,-209.48 587.955,-195.297 571.394,-208.522 521.619,-191.48 508.631,-187.034 507.08,-182.239 494.619,-176.48 475.835,-167.799 454.806,-159.497 435.813,-152.496"/>
<polygon fill="black" stroke="black" points="436.975,-149.195 426.381,-149.064 434.581,-155.773 436.975,-149.195"/>
<text text-anchor="middle" x="560.619" y="-180.28" font-family="Times,serif" font-size="14.00"> static(visible)</text>
</g>
<!-- n9&#45;&gt;n7 -->
<g id="edge18" class="edge"><title>n9&#45;&gt;n7</title>
<path fill="none" stroke="black" d="M677.511,-217.104C657.217,-202.26 631.743,-181.324 613.619,-158.48 597.005,-137.541 606.516,-122.589 586.619,-104.74 548.131,-70.2142 492.702,-50.7041 449.033,-39.9855"/>
<polygon fill="black" stroke="black" points="449.592,-36.5215 439.057,-37.6378 447.989,-43.3354 449.592,-36.5215"/>
<text text-anchor="middle" x="652.619" y="-127.91" font-family="Times,serif" font-size="14.00"> static(visible)</text>
</g>
<!-- n9&#45;&gt;n9 -->
<g id="edge6" class="edge"><title>n9&#45;&gt;n9</title>
<path fill="none" stroke="black" d="M769.695,-250.568C782.75,-249.608 792.258,-246.202 792.258,-240.35 792.258,-236.144 787.346,-233.202 779.736,-231.523"/>
<polygon fill="black" stroke="black" points="780.081,-228.038 769.695,-230.133 779.12,-234.972 780.081,-228.038"/>
<text text-anchor="middle" x="876.758" y="-244.15" font-family="Times,serif" font-size="14.00"> end(communicated_soil_data)</text>
<text text-anchor="middle" x="876.758" y="-229.15" font-family="Times,serif" font-size="14.00">init(at_soil_sample)</text>
</g>
</g>
</svg>
