<?xml version="1.0" encoding="UTF-8" standalone="no"?>
<!DOCTYPE svg PUBLIC "-//W3C//DTD SVG 1.1//EN"
 "http://www.w3.org/Graphics/SVG/1.1/DTD/svg11.dtd">
<!-- Generated by graphviz version 2.38.0 (20140413.2041)
 -->
<!-- Title: Struc Pages: 1 -->
<svg width="4312pt" height="487pt"
 viewBox="0.00 0.00 4312.13 486.96" xmlns="http://www.w3.org/2000/svg" xmlns:xlink="http://www.w3.org/1999/xlink">
<g id="graph0" class="graph" transform="scale(1 1) rotate(0) translate(4 482.96)">
<title>Struc</title>
<polygon fill="white" stroke="none" points="-4,4 -4,-482.96 4308.13,-482.96 4308.13,4 -4,4"/>
<!-- n1 -->
<g id="node1" class="node"><title>n1</title>
<ellipse fill="none" stroke="black" cx="2716.13" cy="-452.09" rx="56.6372" ry="26.7407"/>
<text text-anchor="middle" x="2716.13" y="-455.89" font-family="Times,serif" font-size="14.00">&lt;camera1&gt;</text>
<text text-anchor="middle" x="2716.13" y="-440.89" font-family="Times,serif" font-size="14.00">camera</text>
</g>
<!-- n13 -->
<g id="node13" class="node"><title>n13</title>
<ellipse fill="none" stroke="black" cx="2583.13" cy="-344.22" rx="62.8651" ry="26.7407"/>
<text text-anchor="middle" x="2583.13" y="-348.02" font-family="Times,serif" font-size="14.00">&lt;objective2&gt;</text>
<text text-anchor="middle" x="2583.13" y="-333.02" font-family="Times,serif" font-size="14.00">objective</text>
</g>
<!-- n1&#45;&gt;n13 -->
<g id="edge27" class="edge"><title>n1&#45;&gt;n13</title>
<path fill="none" stroke="black" d="M2667.35,-438.246C2647.28,-433.427 2623.72,-428.362 2602.13,-425.22 2572.05,-420.843 2349.91,-429.412 2329.13,-407.22 2324.58,-402.354 2324.66,-397.167 2329.13,-392.22 2355.64,-362.884 2467.64,-383.263 2506.13,-374.22 2514.04,-372.362 2522.24,-369.898 2530.2,-367.189"/>
<polygon fill="black" stroke="black" points="2531.52,-370.436 2539.77,-363.788 2529.17,-363.841 2531.52,-370.436"/>
<text text-anchor="middle" x="2397.63" y="-396.02" font-family="Times,serif" font-size="14.00"> static(calibration_target)</text>
</g>
<!-- n20 -->
<g id="node20" class="node"><title>n20</title>
<ellipse fill="none" stroke="black" cx="3274.13" cy="-236.35" rx="48.1667" ry="26.7407"/>
<text text-anchor="middle" x="3274.13" y="-240.15" font-family="Times,serif" font-size="14.00">&lt;colour&gt;</text>
<text text-anchor="middle" x="3274.13" y="-225.15" font-family="Times,serif" font-size="14.00">mode</text>
</g>
<!-- n1&#45;&gt;n20 -->
<g id="edge29" class="edge"><title>n1&#45;&gt;n20</title>
<path fill="none" stroke="black" d="M2760.65,-435.356C2774.59,-428.561 2788.97,-419.33 2799.13,-407.22 2827.06,-373.955 2797.12,-343.57 2829.13,-314.22 2884.84,-263.151 3109,-245.405 3216.31,-239.755"/>
<polygon fill="black" stroke="black" points="3216.52,-243.25 3226.33,-239.246 3216.16,-236.259 3216.52,-243.25"/>
<text text-anchor="middle" x="2873.13" y="-340.52" font-family="Times,serif" font-size="14.00"> static(supports)</text>
</g>
<!-- n22 -->
<g id="node22" class="node"><title>n22</title>
<ellipse fill="none" stroke="black" cx="2721.13" cy="-344.22" rx="56.6372" ry="26.7407"/>
<text text-anchor="middle" x="2721.13" y="-348.02" font-family="Times,serif" font-size="14.00">&lt;high_res&gt;</text>
<text text-anchor="middle" x="2721.13" y="-333.02" font-family="Times,serif" font-size="14.00">mode</text>
</g>
<!-- n1&#45;&gt;n22 -->
<g id="edge53" class="edge"><title>n1&#45;&gt;n22</title>
<path fill="none" stroke="black" d="M2662.32,-443.195C2623.21,-435.042 2580.32,-419.556 2600.13,-392.22 2615.23,-371.396 2631.11,-383.405 2655.13,-374.22 2660.6,-372.13 2666.27,-369.836 2671.89,-367.482"/>
<polygon fill="black" stroke="black" points="2673.43,-370.632 2681.26,-363.49 2670.68,-364.193 2673.43,-370.632"/>
<text text-anchor="middle" x="2644.13" y="-396.02" font-family="Times,serif" font-size="14.00"> static(supports)</text>
</g>
<!-- n30 -->
<g id="node30" class="node"><title>n30</title>
<ellipse fill="none" stroke="black" cx="3645.13" cy="-344.22" rx="48.1667" ry="26.7407"/>
<text text-anchor="middle" x="3645.13" y="-348.02" font-family="Times,serif" font-size="14.00">&lt;rover0&gt;</text>
<text text-anchor="middle" x="3645.13" y="-333.02" font-family="Times,serif" font-size="14.00">rover</text>
</g>
<!-- n1&#45;&gt;n30 -->
<g id="edge9" class="edge"><title>n1&#45;&gt;n30</title>
<path fill="none" stroke="black" d="M2772.83,-449.472C2876.62,-445.859 3092.86,-435.145 3162.13,-407.22 3172.11,-403.198 3171.05,-395.976 3181.13,-392.22 3264.72,-361.083 3495.45,-395.261 3582.13,-374.22 3588.82,-372.598 3595.65,-370.257 3602.24,-367.597"/>
<polygon fill="black" stroke="black" points="3603.88,-370.702 3611.67,-363.521 3601.1,-364.276 3603.88,-370.702"/>
<text text-anchor="middle" x="3227.63" y="-396.02" font-family="Times,serif" font-size="14.00"> static(on_board)</text>
</g>
<!-- n2 -->
<g id="node2" class="node"><title>n2</title>
<ellipse fill="none" stroke="black" cx="2536.13" cy="-452.09" rx="56.6372" ry="26.7407"/>
<text text-anchor="middle" x="2536.13" y="-455.89" font-family="Times,serif" font-size="14.00">&lt;camera4&gt;</text>
<text text-anchor="middle" x="2536.13" y="-440.89" font-family="Times,serif" font-size="14.00">camera</text>
</g>
<!-- n2&#45;&gt;n13 -->
<g id="edge23" class="edge"><title>n2&#45;&gt;n13</title>
<path fill="none" stroke="black" d="M2479.24,-450.493C2365.69,-448.319 2125.46,-438.29 2169.13,-392.22 2194.93,-365.007 2469.43,-381.919 2506.13,-374.22 2514.18,-372.531 2522.51,-370.135 2530.58,-367.435"/>
<polygon fill="black" stroke="black" points="2531.99,-370.647 2540.26,-364.017 2529.66,-364.046 2531.99,-370.647"/>
<text text-anchor="middle" x="2237.63" y="-396.02" font-family="Times,serif" font-size="14.00"> static(calibration_target)</text>
</g>
<!-- n16 -->
<g id="node16" class="node"><title>n16</title>
<ellipse fill="none" stroke="black" cx="2980.13" cy="-344.22" rx="53.9813" ry="26.7407"/>
<text text-anchor="middle" x="2980.13" y="-348.02" font-family="Times,serif" font-size="14.00">&lt;low_res&gt;</text>
<text text-anchor="middle" x="2980.13" y="-333.02" font-family="Times,serif" font-size="14.00">mode</text>
</g>
<!-- n2&#45;&gt;n16 -->
<g id="edge48" class="edge"><title>n2&#45;&gt;n16</title>
<path fill="none" stroke="black" d="M2584.13,-437.528C2614.08,-428.992 2653.41,-417.655 2688.13,-407.22 2709.54,-400.788 2714.25,-396.752 2736.13,-392.22 2810.53,-376.814 2832.32,-392.243 2906.13,-374.22 2914.42,-372.197 2923.02,-369.46 2931.29,-366.472"/>
<polygon fill="black" stroke="black" points="2932.71,-369.681 2940.83,-362.877 2930.23,-363.132 2932.71,-369.681"/>
<text text-anchor="middle" x="2780.13" y="-396.02" font-family="Times,serif" font-size="14.00"> static(supports)</text>
</g>
<!-- n2&#45;&gt;n22 -->
<g id="edge18" class="edge"><title>n2&#45;&gt;n22</title>
<path fill="none" stroke="black" d="M2510.79,-427.738C2501.32,-416.247 2494.86,-402.659 2504.13,-392.22 2526.57,-366.95 2622.53,-383.114 2655.13,-374.22 2661.23,-372.556 2667.5,-370.419 2673.62,-368.06"/>
<polygon fill="black" stroke="black" points="2675.15,-371.219 2683.09,-364.208 2672.51,-364.735 2675.15,-371.219"/>
<text text-anchor="middle" x="2548.13" y="-396.02" font-family="Times,serif" font-size="14.00"> static(supports)</text>
</g>
<!-- n2&#45;&gt;n30 -->
<g id="edge56" class="edge"><title>n2&#45;&gt;n30</title>
<path fill="none" stroke="black" d="M2584.91,-438.216C2604.98,-433.392 2628.54,-428.332 2650.13,-425.22 2712.94,-416.169 2875.87,-429.913 2935.13,-407.22 2945.18,-403.373 2944.02,-395.894 2954.13,-392.22 3019.74,-368.384 3514.17,-390.137 3582.13,-374.22 3588.83,-372.653 3595.67,-370.341 3602.26,-367.696"/>
<polygon fill="black" stroke="black" points="3603.9,-370.802 3611.7,-363.629 3601.13,-364.374 3603.9,-370.802"/>
<text text-anchor="middle" x="3000.63" y="-396.02" font-family="Times,serif" font-size="14.00"> static(on_board)</text>
</g>
<!-- n3 -->
<g id="node3" class="node"><title>n3</title>
<ellipse fill="none" stroke="black" cx="3123.13" cy="-344.22" rx="67.7647" ry="26.7407"/>
<text text-anchor="middle" x="3123.13" y="-348.02" font-family="Times,serif" font-size="14.00">&lt;objective12&gt;</text>
<text text-anchor="middle" x="3123.13" y="-333.02" font-family="Times,serif" font-size="14.00">objective</text>
</g>
<!-- n23 -->
<g id="node23" class="node"><title>n23</title>
<ellipse fill="none" stroke="black" cx="1535.13" cy="-236.35" rx="63.7795" ry="26.7407"/>
<text text-anchor="middle" x="1535.13" y="-240.15" font-family="Times,serif" font-size="14.00">&lt;waypoint0&gt;</text>
<text text-anchor="middle" x="1535.13" y="-225.15" font-family="Times,serif" font-size="14.00">waypoint</text>
</g>
<!-- n3&#45;&gt;n23 -->
<g id="edge36" class="edge"><title>n3&#45;&gt;n23</title>
<path fill="none" stroke="black" d="M3077.72,-323.989C3066.59,-320.056 3054.59,-316.444 3043.13,-314.22 2822.22,-271.354 2759.68,-329.545 2537.13,-296.22 2511.65,-292.405 2506.59,-285.173 2481.13,-281.22 2313.43,-255.183 1800.97,-242.61 1608.88,-238.718"/>
<polygon fill="black" stroke="black" points="1608.68,-235.213 1598.61,-238.512 1608.54,-242.212 1608.68,-235.213"/>
<text text-anchor="middle" x="2593.13" y="-285.02" font-family="Times,serif" font-size="14.00"> static(visible_from)</text>
</g>
<!-- n4 -->
<g id="node4" class="node"><title>n4</title>
<ellipse fill="none" stroke="black" cx="1434.13" cy="-131.61" rx="63.7795" ry="26.7407"/>
<text text-anchor="middle" x="1434.13" y="-135.41" font-family="Times,serif" font-size="14.00">&lt;waypoint1&gt;</text>
<text text-anchor="middle" x="1434.13" y="-120.41" font-family="Times,serif" font-size="14.00">waypoint</text>
</g>
<!-- n4&#45;&gt;n4 -->
<g id="edge1" class="edge"><title>n4&#45;&gt;n4</title>
<path fill="none" stroke="black" d="M1493.94,-141.045C1506.62,-140.087 1515.77,-136.942 1515.77,-131.61 1515.77,-127.861 1511.25,-125.193 1504.15,-123.607"/>
<polygon fill="black" stroke="black" points="1504.33,-120.097 1493.94,-122.175 1503.35,-127.029 1504.33,-120.097"/>
<text text-anchor="middle" x="1574.77" y="-127.91" font-family="Times,serif" font-size="14.00"> init(at_rock_sample)</text>
</g>
<!-- n5 -->
<g id="node5" class="node"><title>n5</title>
<ellipse fill="none" stroke="black" cx="2521.13" cy="-26.8701" rx="63.7795" ry="26.7407"/>
<text text-anchor="middle" x="2521.13" y="-30.6701" font-family="Times,serif" font-size="14.00">&lt;waypoint2&gt;</text>
<text text-anchor="middle" x="2521.13" y="-15.6701" font-family="Times,serif" font-size="14.00">waypoint</text>
</g>
<!-- n4&#45;&gt;n5 -->
<g id="edge31" class="edge"><title>n4&#45;&gt;n5</title>
<path fill="none" stroke="black" d="M1496.08,-124.755C1684.23,-106.972 2248.34,-53.6539 2449.17,-34.672"/>
<polygon fill="black" stroke="black" points="2449.68,-38.139 2459.31,-33.7134 2449.02,-31.17 2449.68,-38.139"/>
<text text-anchor="middle" x="2082.13" y="-75.5401" font-family="Times,serif" font-size="14.00"> static(visible)</text>
</g>
<!-- n4&#45;&gt;n23 -->
<g id="edge15" class="edge"><title>n4&#45;&gt;n23</title>
<path fill="none" stroke="black" d="M1479.5,-150.751C1491.7,-157.372 1504.02,-165.899 1513.13,-176.48 1518.91,-183.196 1523.24,-191.576 1526.46,-199.889"/>
<polygon fill="black" stroke="black" points="1523.2,-201.177 1529.74,-209.512 1529.82,-198.917 1523.2,-201.177"/>
<text text-anchor="middle" x="1562.13" y="-180.28" font-family="Times,serif" font-size="14.00"> static(visible)</text>
</g>
<!-- n5&#45;&gt;n4 -->
<g id="edge58" class="edge"><title>n5&#45;&gt;n4</title>
<path fill="none" stroke="black" d="M2462.95,-38.0878C2385.92,-51.2555 2245.75,-73.969 2125.13,-86.7401 1901.02,-110.47 1634.56,-122.972 1507.98,-127.964"/>
<polygon fill="black" stroke="black" points="1507.49,-124.48 1497.64,-128.367 1507.77,-131.475 1507.49,-124.48"/>
<text text-anchor="middle" x="2285.13" y="-75.5401" font-family="Times,serif" font-size="14.00"> static(visible)</text>
</g>
<!-- n5&#45;&gt;n5 -->
<g id="edge2" class="edge"><title>n5&#45;&gt;n5</title>
<path fill="none" stroke="black" d="M2580.94,-36.3053C2593.62,-35.3472 2602.77,-32.2021 2602.77,-26.8701 2602.77,-23.121 2598.25,-20.4531 2591.15,-18.8664"/>
<polygon fill="black" stroke="black" points="2591.33,-15.3569 2580.94,-17.4349 2590.35,-22.2891 2591.33,-15.3569"/>
<text text-anchor="middle" x="2687.27" y="-30.6701" font-family="Times,serif" font-size="14.00"> end(communicated_soil_data)</text>
<text text-anchor="middle" x="2687.27" y="-15.6701" font-family="Times,serif" font-size="14.00">init(at_soil_sample)</text>
</g>
<!-- n5&#45;&gt;n23 -->
<g id="edge39" class="edge"><title>n5&#45;&gt;n23</title>
<path fill="none" stroke="black" d="M2495.4,-51.6154C2460.47,-82.2601 2394.74,-134.483 2328.13,-158.48 2196.7,-205.83 1778.95,-226.317 1608.56,-232.853"/>
<polygon fill="black" stroke="black" points="1608.29,-229.36 1598.43,-233.236 1608.56,-236.355 1608.29,-229.36"/>
<text text-anchor="middle" x="2467.13" y="-127.91" font-family="Times,serif" font-size="14.00"> static(visible)</text>
</g>
<!-- n6 -->
<g id="node6" class="node"><title>n6</title>
<ellipse fill="none" stroke="black" cx="797.133" cy="-344.22" rx="67.7647" ry="26.7407"/>
<text text-anchor="middle" x="797.133" y="-348.02" font-family="Times,serif" font-size="14.00">&lt;objective13&gt;</text>
<text text-anchor="middle" x="797.133" y="-333.02" font-family="Times,serif" font-size="14.00">objective</text>
</g>
<!-- n6&#45;&gt;n23 -->
<g id="edge54" class="edge"><title>n6&#45;&gt;n23</title>
<path fill="none" stroke="black" d="M818.17,-318.533C831.309,-304.958 849.438,-289.278 869.133,-281.22 922.785,-259.27 1299.49,-244.831 1461.42,-239.572"/>
<polygon fill="black" stroke="black" points="1461.89,-243.059 1471.77,-239.239 1461.67,-236.062 1461.89,-243.059"/>
<text text-anchor="middle" x="925.133" y="-285.02" font-family="Times,serif" font-size="14.00"> static(visible_from)</text>
</g>
<!-- n7 -->
<g id="node7" class="node"><title>n7</title>
<ellipse fill="none" stroke="black" cx="951.133" cy="-344.22" rx="67.7647" ry="26.7407"/>
<text text-anchor="middle" x="951.133" y="-348.02" font-family="Times,serif" font-size="14.00">&lt;objective11&gt;</text>
<text text-anchor="middle" x="951.133" y="-333.02" font-family="Times,serif" font-size="14.00">objective</text>
</g>
<!-- n7&#45;&gt;n23 -->
<g id="edge21" class="edge"><title>n7&#45;&gt;n23</title>
<path fill="none" stroke="black" d="M965.966,-317.782C975.162,-304.495 988.249,-289.348 1004.13,-281.22 1082,-241.374 1334.63,-236.459 1461.3,-236.61"/>
<polygon fill="black" stroke="black" points="1461.3,-240.11 1471.31,-236.633 1461.32,-233.11 1461.3,-240.11"/>
<text text-anchor="middle" x="1060.13" y="-285.02" font-family="Times,serif" font-size="14.00"> static(visible_from)</text>
</g>
<!-- n8 -->
<g id="node8" class="node"><title>n8</title>
<ellipse fill="none" stroke="black" cx="2065.13" cy="-344.22" rx="62.8651" ry="26.7407"/>
<text text-anchor="middle" x="2065.13" y="-348.02" font-family="Times,serif" font-size="14.00">&lt;objective3&gt;</text>
<text text-anchor="middle" x="2065.13" y="-333.02" font-family="Times,serif" font-size="14.00">objective</text>
</g>
<!-- n8&#45;&gt;n23 -->
<g id="edge46" class="edge"><title>n8&#45;&gt;n23</title>
<path fill="none" stroke="black" d="M2025.69,-323.086C1996.47,-309.075 1955.27,-291.184 1917.13,-281.22 1812.21,-253.81 1686.62,-243.521 1608.84,-239.663"/>
<polygon fill="black" stroke="black" points="1608.82,-236.157 1598.66,-239.181 1608.49,-243.15 1608.82,-236.157"/>
<text text-anchor="middle" x="2020.13" y="-285.02" font-family="Times,serif" font-size="14.00"> static(visible_from)</text>
</g>
<!-- n9 -->
<g id="node9" class="node"><title>n9</title>
<ellipse fill="none" stroke="black" cx="3300.13" cy="-452.09" rx="56.6372" ry="26.7407"/>
<text text-anchor="middle" x="3300.13" y="-455.89" font-family="Times,serif" font-size="14.00">&lt;camera3&gt;</text>
<text text-anchor="middle" x="3300.13" y="-440.89" font-family="Times,serif" font-size="14.00">camera</text>
</g>
<!-- n9&#45;&gt;n3 -->
<g id="edge51" class="edge"><title>n9&#45;&gt;n3</title>
<path fill="none" stroke="black" d="M3296.11,-425.04C3293.03,-413.465 3287.62,-400.593 3278.13,-392.22 3252.1,-369.257 3235.37,-384.219 3202.13,-374.22 3195.01,-372.079 3187.61,-369.644 3180.3,-367.116"/>
<polygon fill="black" stroke="black" points="3181.04,-363.665 3170.45,-363.63 3178.71,-370.264 3181.04,-363.665"/>
<text text-anchor="middle" x="3357.63" y="-396.02" font-family="Times,serif" font-size="14.00"> static(calibration_target)</text>
</g>
<!-- n9&#45;&gt;n22 -->
<g id="edge12" class="edge"><title>n9&#45;&gt;n22</title>
<path fill="none" stroke="black" d="M3243.59,-448.976C3138.88,-444.509 2918.9,-432.383 2847.13,-407.22 2835.62,-403.182 2834.83,-398.103 2824.13,-392.22 2807.57,-383.107 2788.91,-374.206 2772.07,-366.646"/>
<polygon fill="black" stroke="black" points="2773.49,-363.445 2762.93,-362.59 2770.65,-369.844 2773.49,-363.445"/>
<text text-anchor="middle" x="2891.13" y="-396.02" font-family="Times,serif" font-size="14.00"> static(supports)</text>
</g>
<!-- n9&#45;&gt;n30 -->
<g id="edge30" class="edge"><title>n9&#45;&gt;n30</title>
<path fill="none" stroke="black" d="M3353.32,-442.823C3386.83,-437.659 3430.99,-430.929 3470.13,-425.22 3527.42,-416.866 3549.35,-436.762 3599.13,-407.22 3610.59,-400.42 3620.09,-389.55 3627.42,-378.798"/>
<polygon fill="black" stroke="black" points="3630.42,-380.598 3632.83,-370.28 3624.51,-376.845 3630.42,-380.598"/>
<text text-anchor="middle" x="3662.63" y="-396.02" font-family="Times,serif" font-size="14.00"> static(on_board)</text>
</g>
<!-- n10 -->
<g id="node10" class="node"><title>n10</title>
<ellipse fill="none" stroke="black" cx="3876.13" cy="-452.09" rx="67.3507" ry="26.7407"/>
<text text-anchor="middle" x="3876.13" y="-455.89" font-family="Times,serif" font-size="14.00">&lt;rover0store&gt;</text>
<text text-anchor="middle" x="3876.13" y="-440.89" font-family="Times,serif" font-size="14.00">store</text>
</g>
<!-- n10&#45;&gt;n10 -->
<g id="edge3" class="edge"><title>n10&#45;&gt;n10</title>
<path fill="none" stroke="black" d="M3939.28,-461.468C3952.12,-460.447 3961.31,-457.321 3961.31,-452.09 3961.31,-448.413 3956.76,-445.775 3949.6,-444.179"/>
<polygon fill="black" stroke="black" points="3949.67,-440.653 3939.28,-442.712 3948.69,-447.584 3949.67,-440.653"/>
<text text-anchor="middle" x="3994.31" y="-448.39" font-family="Times,serif" font-size="14.00"> init(empty)</text>
</g>
<!-- n10&#45;&gt;n30 -->
<g id="edge42" class="edge"><title>n10&#45;&gt;n30</title>
<path fill="none" stroke="black" d="M3866.43,-425.467C3860.75,-413.699 3852.43,-400.542 3841.13,-392.22 3801.18,-362.791 3745.35,-351.543 3703.49,-347.365"/>
<polygon fill="black" stroke="black" points="3703.71,-343.871 3693.44,-346.47 3703.09,-350.843 3703.71,-343.871"/>
<text text-anchor="middle" x="3898.13" y="-396.02" font-family="Times,serif" font-size="14.00"> static(store_of)</text>
</g>
<!-- n11 -->
<g id="node11" class="node"><title>n11</title>
<ellipse fill="none" stroke="black" cx="3992.13" cy="-344.22" rx="67.7647" ry="26.7407"/>
<text text-anchor="middle" x="3992.13" y="-348.02" font-family="Times,serif" font-size="14.00">&lt;objective16&gt;</text>
<text text-anchor="middle" x="3992.13" y="-333.02" font-family="Times,serif" font-size="14.00">objective</text>
</g>
<!-- n11&#45;&gt;n4 -->
<g id="edge10" class="edge"><title>n11&#45;&gt;n4</title>
<path fill="none" stroke="black" d="M3946.17,-324.346C3936.06,-320.636 3925.32,-317.028 3915.13,-314.22 3660.91,-244.182 3593.3,-237.873 3331.13,-209.48 2742.58,-145.74 2591.6,-183.329 2000.13,-158.48 1823.28,-151.051 1615.4,-141.284 1507.49,-136.136"/>
<polygon fill="black" stroke="black" points="1507.52,-132.634 1497.36,-135.653 1507.19,-139.626 1507.52,-132.634"/>
<text text-anchor="middle" x="3764.13" y="-232.65" font-family="Times,serif" font-size="14.00"> static(visible_from)</text>
</g>
<!-- n11&#45;&gt;n23 -->
<g id="edge26" class="edge"><title>n11&#45;&gt;n23</title>
<path fill="none" stroke="black" d="M3948.08,-323.74C3937.49,-319.869 3926.07,-316.346 3915.13,-314.22 3749.95,-282.113 3326.16,-305.173 3158.13,-296.22 3077.53,-291.926 3057.72,-285.783 2977.13,-281.22 2453.39,-251.572 1821.42,-241.072 1608.89,-238.234"/>
<polygon fill="black" stroke="black" points="1608.84,-234.733 1598.79,-238.1 1608.74,-241.732 1608.84,-234.733"/>
<text text-anchor="middle" x="3214.13" y="-285.02" font-family="Times,serif" font-size="14.00"> static(visible_from)</text>
</g>
<!-- n12 -->
<g id="node12" class="node"><title>n12</title>
<ellipse fill="none" stroke="black" cx="648.133" cy="-344.22" rx="62.8651" ry="26.7407"/>
<text text-anchor="middle" x="648.133" y="-348.02" font-family="Times,serif" font-size="14.00">&lt;objective1&gt;</text>
<text text-anchor="middle" x="648.133" y="-333.02" font-family="Times,serif" font-size="14.00">objective</text>
</g>
<!-- n12&#45;&gt;n23 -->
<g id="edge55" class="edge"><title>n12&#45;&gt;n23</title>
<path fill="none" stroke="black" d="M671.644,-319.06C686.671,-305.306 707.371,-289.259 729.133,-281.22 796.665,-256.275 1275.1,-243.11 1461.27,-238.887"/>
<polygon fill="black" stroke="black" points="1461.59,-242.38 1471.51,-238.657 1461.44,-235.382 1461.59,-242.38"/>
<text text-anchor="middle" x="785.133" y="-285.02" font-family="Times,serif" font-size="14.00"> static(visible_from)</text>
</g>
<!-- n13&#45;&gt;n23 -->
<g id="edge14" class="edge"><title>n13&#45;&gt;n23</title>
<path fill="none" stroke="black" d="M2539.32,-324.666C2528.62,-320.708 2517.09,-316.915 2506.13,-314.22 2491.51,-310.625 2252.13,-282.607 2237.13,-281.22 2008.35,-260.057 1736.65,-246.305 1608.71,-240.502"/>
<polygon fill="black" stroke="black" points="1608.78,-237.002 1598.63,-240.048 1608.47,-243.994 1608.78,-237.002"/>
<text text-anchor="middle" x="2421.13" y="-285.02" font-family="Times,serif" font-size="14.00"> static(visible_from)</text>
</g>
<!-- n14 -->
<g id="node14" class="node"><title>n14</title>
<ellipse fill="none" stroke="black" cx="3274.13" cy="-344.22" rx="62.8651" ry="26.7407"/>
<text text-anchor="middle" x="3274.13" y="-348.02" font-family="Times,serif" font-size="14.00">&lt;objective5&gt;</text>
<text text-anchor="middle" x="3274.13" y="-333.02" font-family="Times,serif" font-size="14.00">objective</text>
</g>
<!-- n14&#45;&gt;n20 -->
<g id="edge34" class="edge"><title>n14&#45;&gt;n20</title>
<path fill="none" stroke="black" d="M3274.13,-317.322C3274.13,-304.12 3274.13,-287.852 3274.13,-273.442"/>
<polygon fill="black" stroke="black" points="3277.63,-273.349 3274.13,-263.349 3270.63,-273.349 3277.63,-273.349"/>
<text text-anchor="middle" x="3366.13" y="-285.02" font-family="Times,serif" font-size="14.00"> end(communicated_image_data)</text>
</g>
<!-- n14&#45;&gt;n23 -->
<g id="edge57" class="edge"><title>n14&#45;&gt;n23</title>
<path fill="none" stroke="black" d="M3232.2,-324.115C3221.91,-320.177 3210.79,-316.531 3200.13,-314.22 3054.42,-282.615 3013.95,-305.385 2865.13,-296.22 2769.08,-290.305 2745.22,-286.448 2649.13,-281.22 2257.16,-259.897 1787.07,-244.825 1608.65,-239.483"/>
<polygon fill="black" stroke="black" points="1608.69,-235.983 1598.59,-239.183 1608.48,-242.98 1608.69,-235.983"/>
<text text-anchor="middle" x="2921.13" y="-285.02" font-family="Times,serif" font-size="14.00"> static(visible_from)</text>
</g>
<!-- n15 -->
<g id="node15" class="node"><title>n15</title>
<ellipse fill="none" stroke="black" cx="1100.13" cy="-344.22" rx="62.8651" ry="26.7407"/>
<text text-anchor="middle" x="1100.13" y="-348.02" font-family="Times,serif" font-size="14.00">&lt;objective6&gt;</text>
<text text-anchor="middle" x="1100.13" y="-333.02" font-family="Times,serif" font-size="14.00">objective</text>
</g>
<!-- n15&#45;&gt;n23 -->
<g id="edge32" class="edge"><title>n15&#45;&gt;n23</title>
<path fill="none" stroke="black" d="M1107.83,-317.513C1113.1,-304.489 1121.48,-289.678 1134.13,-281.22 1186.07,-246.517 1360.31,-238.876 1461.21,-237.433"/>
<polygon fill="black" stroke="black" points="1461.38,-240.931 1471.33,-237.305 1461.29,-233.931 1461.38,-240.931"/>
<text text-anchor="middle" x="1190.13" y="-285.02" font-family="Times,serif" font-size="14.00"> static(visible_from)</text>
</g>
<!-- n17 -->
<g id="node17" class="node"><title>n17</title>
<ellipse fill="none" stroke="black" cx="4102.13" cy="-452.09" rx="56.6372" ry="26.7407"/>
<text text-anchor="middle" x="4102.13" y="-455.89" font-family="Times,serif" font-size="14.00">&lt;camera2&gt;</text>
<text text-anchor="middle" x="4102.13" y="-440.89" font-family="Times,serif" font-size="14.00">camera</text>
</g>
<!-- n17&#45;&gt;n11 -->
<g id="edge20" class="edge"><title>n17&#45;&gt;n11</title>
<path fill="none" stroke="black" d="M4096.81,-425.19C4093.49,-414.056 4088.25,-401.498 4080.13,-392.22 4071.67,-382.553 4060.73,-374.542 4049.45,-368.04"/>
<polygon fill="black" stroke="black" points="4050.83,-364.811 4040.37,-363.145 4047.51,-370.972 4050.83,-364.811"/>
<text text-anchor="middle" x="4157.63" y="-396.02" font-family="Times,serif" font-size="14.00"> static(calibration_target)</text>
</g>
<!-- n17&#45;&gt;n20 -->
<g id="edge17" class="edge"><title>n17&#45;&gt;n20</title>
<path fill="none" stroke="black" d="M4157.27,-445.569C4200.4,-438.766 4250.01,-423.931 4230.13,-392.22 4103.63,-190.368 3786.14,-325.621 3383.13,-263.22 3364.58,-260.347 3344.51,-255.961 3326.72,-251.612"/>
<polygon fill="black" stroke="black" points="3327.08,-248.096 3316.53,-249.068 3325.38,-254.887 3327.08,-248.096"/>
<text text-anchor="middle" x="4260.13" y="-340.52" font-family="Times,serif" font-size="14.00"> static(supports)</text>
</g>
<!-- n17&#45;&gt;n30 -->
<g id="edge11" class="edge"><title>n17&#45;&gt;n30</title>
<path fill="none" stroke="black" d="M4059.64,-434.101C4051.84,-431.08 4043.76,-428.009 4036.13,-425.22 4012.77,-416.679 4006.49,-415.79 3983.13,-407.22 3966.09,-400.966 3962.65,-396.988 3945.13,-392.22 3862.42,-369.714 3763.76,-356.837 3702.77,-350.437"/>
<polygon fill="black" stroke="black" points="3702.88,-346.93 3692.57,-349.39 3702.17,-353.893 3702.88,-346.93"/>
<text text-anchor="middle" x="4029.63" y="-396.02" font-family="Times,serif" font-size="14.00"> static(on_board)</text>
</g>
<!-- n18 -->
<g id="node18" class="node"><title>n18</title>
<ellipse fill="none" stroke="black" cx="1244.13" cy="-344.22" rx="62.8651" ry="26.7407"/>
<text text-anchor="middle" x="1244.13" y="-348.02" font-family="Times,serif" font-size="14.00">&lt;objective4&gt;</text>
<text text-anchor="middle" x="1244.13" y="-333.02" font-family="Times,serif" font-size="14.00">objective</text>
</g>
<!-- n18&#45;&gt;n23 -->
<g id="edge45" class="edge"><title>n18&#45;&gt;n23</title>
<path fill="none" stroke="black" d="M1244.03,-317.264C1245.4,-304.659 1249.29,-290.31 1259.13,-281.22 1287.84,-254.713 1389.69,-244.194 1461.28,-240.039"/>
<polygon fill="black" stroke="black" points="1461.81,-243.515 1471.61,-239.471 1461.43,-236.525 1461.81,-243.515"/>
<text text-anchor="middle" x="1315.13" y="-285.02" font-family="Times,serif" font-size="14.00"> static(visible_from)</text>
</g>
<!-- n19 -->
<g id="node19" class="node"><title>n19</title>
<ellipse fill="none" stroke="black" cx="1536.13" cy="-344.22" rx="62.8651" ry="26.7407"/>
<text text-anchor="middle" x="1536.13" y="-348.02" font-family="Times,serif" font-size="14.00">&lt;objective7&gt;</text>
<text text-anchor="middle" x="1536.13" y="-333.02" font-family="Times,serif" font-size="14.00">objective</text>
</g>
<!-- n19&#45;&gt;n23 -->
<g id="edge37" class="edge"><title>n19&#45;&gt;n23</title>
<path fill="none" stroke="black" d="M1535.89,-317.322C1535.76,-304.12 1535.61,-287.852 1535.47,-273.442"/>
<polygon fill="black" stroke="black" points="1538.97,-273.315 1535.38,-263.349 1531.97,-273.381 1538.97,-273.315"/>
<text text-anchor="middle" x="1592.13" y="-285.02" font-family="Times,serif" font-size="14.00"> static(visible_from)</text>
</g>
<!-- n21 -->
<g id="node21" class="node"><title>n21</title>
<ellipse fill="none" stroke="black" cx="1669.13" cy="-344.22" rx="51.7379" ry="26.7407"/>
<text text-anchor="middle" x="1669.13" y="-348.02" font-family="Times,serif" font-size="14.00">&lt;general&gt;</text>
<text text-anchor="middle" x="1669.13" y="-333.02" font-family="Times,serif" font-size="14.00">lander</text>
</g>
<!-- n21&#45;&gt;n21 -->
<g id="edge4" class="edge"><title>n21&#45;&gt;n21</title>
<path fill="none" stroke="black" d="M1717.29,-354.224C1729.55,-353.567 1738.75,-350.232 1738.75,-344.22 1738.75,-339.993 1734.2,-337.09 1727.24,-335.51"/>
<polygon fill="black" stroke="black" points="1727.66,-332.035 1717.29,-334.216 1726.75,-338.976 1727.66,-332.035"/>
<text text-anchor="middle" x="1789.25" y="-340.52" font-family="Times,serif" font-size="14.00"> init(channel_free)</text>
</g>
<!-- n21&#45;&gt;n23 -->
<g id="edge50" class="edge"><title>n21&#45;&gt;n23</title>
<path fill="none" stroke="black" d="M1665.56,-317.35C1662.68,-305.074 1657.48,-290.99 1648.13,-281.22 1635.42,-267.944 1618.24,-258.621 1601.11,-252.098"/>
<polygon fill="black" stroke="black" points="1602.22,-248.779 1591.62,-248.755 1599.89,-255.381 1602.22,-248.779"/>
<text text-anchor="middle" x="1704.13" y="-285.02" font-family="Times,serif" font-size="14.00"> static(at_lander)</text>
</g>
<!-- n23&#45;&gt;n4 -->
<g id="edge43" class="edge"><title>n23&#45;&gt;n4</title>
<path fill="none" stroke="black" d="M1477.87,-224.329C1459.84,-217.869 1441.86,-207.646 1431.13,-191.48 1426.68,-184.765 1425.25,-176.61 1425.4,-168.537"/>
<polygon fill="black" stroke="black" points="1428.9,-168.751 1426.34,-158.47 1421.93,-168.103 1428.9,-168.751"/>
<text text-anchor="middle" x="1470.13" y="-180.28" font-family="Times,serif" font-size="14.00"> static(visible)</text>
</g>
<!-- n23&#45;&gt;n5 -->
<g id="edge8" class="edge"><title>n23&#45;&gt;n5</title>
<path fill="none" stroke="black" d="M1594.8,-226.486C1727.58,-206.257 2057.09,-153.259 2328.13,-86.7401 2373.73,-75.55 2424.48,-59.9414 2462.49,-47.6076"/>
<polygon fill="black" stroke="black" points="2463.95,-50.8154 2472.37,-44.3851 2461.77,-44.1609 2463.95,-50.8154"/>
<text text-anchor="middle" x="2285.13" y="-127.91" font-family="Times,serif" font-size="14.00"> static(visible)</text>
</g>
<!-- n23&#45;&gt;n23 -->
<g id="edge5" class="edge"><title>n23&#45;&gt;n23</title>
<path fill="none" stroke="black" d="M1594.94,-245.785C1607.62,-244.827 1616.77,-241.682 1616.77,-236.35 1616.77,-232.601 1612.25,-229.933 1605.15,-228.347"/>
<polygon fill="black" stroke="black" points="1605.33,-224.837 1594.94,-226.915 1604.35,-231.769 1605.33,-224.837"/>
<text text-anchor="middle" x="1703.77" y="-240.15" font-family="Times,serif" font-size="14.00"> end(communicated_rock_data)</text>
<text text-anchor="middle" x="1703.77" y="-225.15" font-family="Times,serif" font-size="14.00">init(at_rock_sample)</text>
</g>
<!-- n24 -->
<g id="node24" class="node"><title>n24</title>
<ellipse fill="none" stroke="black" cx="309.133" cy="-344.22" rx="62.8651" ry="26.7407"/>
<text text-anchor="middle" x="309.133" y="-348.02" font-family="Times,serif" font-size="14.00">&lt;objective8&gt;</text>
<text text-anchor="middle" x="309.133" y="-333.02" font-family="Times,serif" font-size="14.00">objective</text>
</g>
<!-- n24&#45;&gt;n4 -->
<g id="edge16" class="edge"><title>n24&#45;&gt;n4</title>
<path fill="none" stroke="black" d="M289.557,-318.505C268.608,-288.913 241.951,-239.585 270.133,-209.48 307.504,-169.56 1110.52,-142.279 1360.52,-134.729"/>
<polygon fill="black" stroke="black" points="1360.7,-138.226 1370.59,-134.427 1360.49,-131.229 1360.7,-138.226"/>
<text text-anchor="middle" x="326.133" y="-232.65" font-family="Times,serif" font-size="14.00"> static(visible_from)</text>
</g>
<!-- n24&#45;&gt;n23 -->
<g id="edge49" class="edge"><title>n24&#45;&gt;n23</title>
<path fill="none" stroke="black" d="M357.155,-326.617C378.732,-318.481 404.213,-307.918 426.133,-296.22 436.573,-290.649 436.897,-284.936 448.133,-281.22 543.554,-249.665 1231.77,-240.255 1461.04,-237.98"/>
<polygon fill="black" stroke="black" points="1461.32,-241.477 1471.28,-237.88 1461.25,-234.478 1461.32,-241.477"/>
<text text-anchor="middle" x="504.133" y="-285.02" font-family="Times,serif" font-size="14.00"> static(visible_from)</text>
</g>
<!-- n25 -->
<g id="node25" class="node"><title>n25</title>
<ellipse fill="none" stroke="black" cx="136.133" cy="-344.22" rx="62.8651" ry="26.7407"/>
<text text-anchor="middle" x="136.133" y="-348.02" font-family="Times,serif" font-size="14.00">&lt;objective9&gt;</text>
<text text-anchor="middle" x="136.133" y="-333.02" font-family="Times,serif" font-size="14.00">objective</text>
</g>
<!-- n25&#45;&gt;n4 -->
<g id="edge24" class="edge"><title>n25&#45;&gt;n4</title>
<path fill="none" stroke="black" d="M128.628,-317.278C121.728,-287.412 116.085,-238.725 142.133,-209.48 203.219,-140.894 254.749,-185.68 346.133,-176.48 726.264,-138.21 1184.28,-133.024 1360.3,-132.536"/>
<polygon fill="black" stroke="black" points="1360.49,-136.036 1370.48,-132.512 1360.47,-129.036 1360.49,-136.036"/>
<text text-anchor="middle" x="198.133" y="-232.65" font-family="Times,serif" font-size="14.00"> static(visible_from)</text>
</g>
<!-- n25&#45;&gt;n23 -->
<g id="edge35" class="edge"><title>n25&#45;&gt;n23</title>
<path fill="none" stroke="black" d="M178.37,-324.04C212.988,-309.338 263.674,-290.109 310.133,-281.22 422.692,-259.684 1213.13,-243.33 1460.99,-238.685"/>
<polygon fill="black" stroke="black" points="1461.39,-242.178 1471.33,-238.492 1461.26,-235.179 1461.39,-242.178"/>
<text text-anchor="middle" x="366.133" y="-285.02" font-family="Times,serif" font-size="14.00"> static(visible_from)</text>
</g>
<!-- n26 -->
<g id="node26" class="node"><title>n26</title>
<ellipse fill="none" stroke="black" cx="3536.13" cy="-452.09" rx="56.6372" ry="26.7407"/>
<text text-anchor="middle" x="3536.13" y="-455.89" font-family="Times,serif" font-size="14.00">&lt;camera0&gt;</text>
<text text-anchor="middle" x="3536.13" y="-440.89" font-family="Times,serif" font-size="14.00">camera</text>
</g>
<!-- n26&#45;&gt;n14 -->
<g id="edge47" class="edge"><title>n26&#45;&gt;n14</title>
<path fill="none" stroke="black" d="M3501.3,-430.684C3476.11,-416.133 3444.14,-398.14 3430.13,-392.22 3400.53,-379.713 3366.48,-369.05 3337.76,-361.058"/>
<polygon fill="black" stroke="black" points="3338.41,-357.607 3327.84,-358.344 3336.56,-364.359 3338.41,-357.607"/>
<text text-anchor="middle" x="3526.63" y="-396.02" font-family="Times,serif" font-size="14.00"> static(calibration_target)</text>
</g>
<!-- n26&#45;&gt;n16 -->
<g id="edge7" class="edge"><title>n26&#45;&gt;n16</title>
<path fill="none" stroke="black" d="M3483.45,-441.83C3449.96,-436.251 3405.61,-429.433 3366.13,-425.22 3301.49,-418.323 3135.8,-427.814 3074.13,-407.22 3073.73,-407.085 3045.59,-388.514 3020.21,-371.734"/>
<polygon fill="black" stroke="black" points="3022.02,-368.738 3011.75,-366.142 3018.16,-374.577 3022.02,-368.738"/>
<text text-anchor="middle" x="3118.13" y="-396.02" font-family="Times,serif" font-size="14.00"> static(supports)</text>
</g>
<!-- n26&#45;&gt;n20 -->
<g id="edge19" class="edge"><title>n26&#45;&gt;n20</title>
<path fill="none" stroke="black" d="M3575.82,-432.862C3594.55,-421.765 3610.39,-406.932 3598.13,-392.22 3569.79,-358.196 3534.5,-402.144 3500.13,-374.22 3465.48,-346.066 3496.18,-310.103 3462.13,-281.22 3434.67,-257.926 3418.21,-271.378 3383.13,-263.22 3365.16,-259.04 3345.54,-254.405 3327.96,-250.226"/>
<polygon fill="black" stroke="black" points="3328.41,-246.736 3317.87,-247.825 3326.79,-253.545 3328.41,-246.736"/>
<text text-anchor="middle" x="3544.13" y="-340.52" font-family="Times,serif" font-size="14.00"> static(supports)</text>
</g>
<!-- n26&#45;&gt;n30 -->
<g id="edge25" class="edge"><title>n26&#45;&gt;n30</title>
<path fill="none" stroke="black" d="M3591.72,-446.782C3645.31,-441.337 3720.9,-429.808 3739.13,-407.22 3755.97,-386.354 3727.78,-370.05 3697.99,-359.409"/>
<polygon fill="black" stroke="black" points="3698.9,-356.025 3688.31,-356.154 3696.67,-362.659 3698.9,-356.025"/>
<text text-anchor="middle" x="3790.63" y="-396.02" font-family="Times,serif" font-size="14.00"> static(on_board)</text>
</g>
<!-- n27 -->
<g id="node27" class="node"><title>n27</title>
<ellipse fill="none" stroke="black" cx="485.133" cy="-344.22" rx="67.7647" ry="26.7407"/>
<text text-anchor="middle" x="485.133" y="-348.02" font-family="Times,serif" font-size="14.00">&lt;objective14&gt;</text>
<text text-anchor="middle" x="485.133" y="-333.02" font-family="Times,serif" font-size="14.00">objective</text>
</g>
<!-- n27&#45;&gt;n4 -->
<g id="edge28" class="edge"><title>n27&#45;&gt;n4</title>
<path fill="none" stroke="black" d="M431.605,-327.545C415.445,-323.015 397.618,-318.219 381.133,-314.22 342.76,-304.912 319.065,-326.839 294.133,-296.22 289.923,-291.051 289.734,-286.23 294.133,-281.22 311.964,-260.914 1116,-168.552 1362.83,-140.629"/>
<polygon fill="black" stroke="black" points="1363.58,-144.068 1373.12,-139.467 1362.79,-137.112 1363.58,-144.068"/>
<text text-anchor="middle" x="835.133" y="-232.65" font-family="Times,serif" font-size="14.00"> static(visible_from)</text>
</g>
<!-- n27&#45;&gt;n23 -->
<g id="edge44" class="edge"><title>n27&#45;&gt;n23</title>
<path fill="none" stroke="black" d="M520.851,-321.153C549.534,-303.455 585.196,-281.509 586.133,-281.22 668.782,-255.801 1252.85,-242.589 1461.37,-238.641"/>
<polygon fill="black" stroke="black" points="1461.68,-242.136 1471.61,-238.449 1461.55,-235.138 1461.68,-242.136"/>
<text text-anchor="middle" x="642.133" y="-285.02" font-family="Times,serif" font-size="14.00"> static(visible_from)</text>
</g>
<!-- n28 -->
<g id="node28" class="node"><title>n28</title>
<ellipse fill="none" stroke="black" cx="1921.13" cy="-344.22" rx="62.8651" ry="26.7407"/>
<text text-anchor="middle" x="1921.13" y="-348.02" font-family="Times,serif" font-size="14.00">&lt;objective0&gt;</text>
<text text-anchor="middle" x="1921.13" y="-333.02" font-family="Times,serif" font-size="14.00">objective</text>
</g>
<!-- n28&#45;&gt;n23 -->
<g id="edge52" class="edge"><title>n28&#45;&gt;n23</title>
<path fill="none" stroke="black" d="M1876.71,-324.936C1867.62,-321.305 1858.09,-317.578 1849.13,-314.22 1807.28,-298.533 1797.26,-292.971 1754.13,-281.22 1704.33,-267.649 1647.1,-256.329 1603.63,-248.589"/>
<polygon fill="black" stroke="black" points="1604.19,-245.133 1593.74,-246.846 1602.98,-252.027 1604.19,-245.133"/>
<text text-anchor="middle" x="1857.13" y="-285.02" font-family="Times,serif" font-size="14.00"> static(visible_from)</text>
</g>
<!-- n29 -->
<g id="node29" class="node"><title>n29</title>
<ellipse fill="none" stroke="black" cx="1635.13" cy="-452.09" rx="67.7647" ry="26.7407"/>
<text text-anchor="middle" x="1635.13" y="-455.89" font-family="Times,serif" font-size="14.00">&lt;objective10&gt;</text>
<text text-anchor="middle" x="1635.13" y="-440.89" font-family="Times,serif" font-size="14.00">objective</text>
</g>
<!-- n29&#45;&gt;n4 -->
<g id="edge22" class="edge"><title>n29&#45;&gt;n4</title>
<path fill="none" stroke="black" d="M1566.89,-451.217C1282.12,-451.28 197.317,-446.721 64.1328,-374.22 26.6506,-353.816 21.2057,-336.845 8.13276,-296.22 -19.6538,-209.873 25.5206,-220.82 159.133,-176.48 272.845,-138.744 1105.19,-133.458 1360.12,-132.726"/>
<polygon fill="black" stroke="black" points="1360.4,-136.225 1370.39,-132.698 1360.38,-129.225 1360.4,-136.225"/>
<text text-anchor="middle" x="64.1328" y="-285.02" font-family="Times,serif" font-size="14.00"> static(visible_from)</text>
</g>
<!-- n29&#45;&gt;n20 -->
<g id="edge13" class="edge"><title>n29&#45;&gt;n20</title>
<path fill="none" stroke="black" d="M1692.47,-437.637C1753.87,-423.813 1854.31,-402.853 1942.13,-392.22 1980.68,-387.553 2257.85,-394.216 2291.13,-374.22 2317.79,-358.206 2301.89,-332.377 2327.13,-314.22 2354.84,-294.293 2443.32,-285.84 2477.13,-281.22 2751.52,-243.737 3083.19,-238.041 3215.5,-237.346"/>
<polygon fill="black" stroke="black" points="3215.83,-240.845 3225.81,-237.3 3215.8,-233.845 3215.83,-240.845"/>
<text text-anchor="middle" x="2419.13" y="-340.52" font-family="Times,serif" font-size="14.00"> end(communicated_image_data)</text>
</g>
<!-- n29&#45;&gt;n22 -->
<g id="edge40" class="edge"><title>n29&#45;&gt;n22</title>
<path fill="none" stroke="black" d="M1701.59,-446.156C1763.82,-440.447 1858.96,-428.912 1939.13,-407.22 1956.26,-402.586 1958.76,-395.847 1976.13,-392.22 2123.89,-361.371 2507.84,-407.197 2655.13,-374.22 2661.46,-372.803 2667.94,-370.77 2674.24,-368.429"/>
<polygon fill="black" stroke="black" points="2675.96,-371.508 2683.95,-364.542 2673.36,-365.01 2675.96,-371.508"/>
<text text-anchor="middle" x="2068.13" y="-396.02" font-family="Times,serif" font-size="14.00"> end(communicated_image_data)</text>
</g>
<!-- n29&#45;&gt;n23 -->
<g id="edge38" class="edge"><title>n29&#45;&gt;n23</title>
<path fill="none" stroke="black" d="M1571.33,-442.78C1496.3,-431.548 1378.61,-408.851 1352.13,-374.22 1335.94,-353.036 1337.37,-336.43 1352.13,-314.22 1366.36,-292.807 1426.18,-270.24 1473.61,-255.139"/>
<polygon fill="black" stroke="black" points="1474.72,-258.459 1483.21,-252.127 1472.62,-251.779 1474.72,-258.459"/>
<text text-anchor="middle" x="1408.13" y="-340.52" font-family="Times,serif" font-size="14.00"> static(visible_from)</text>
</g>
<!-- n30&#45;&gt;n5 -->
<g id="edge41" class="edge"><title>n30&#45;&gt;n5</title>
<path fill="none" stroke="black" d="M3639.48,-317.522C3631.28,-286.707 3612.98,-235.914 3577.13,-209.48 3419.51,-93.2556 2806.83,-45.3622 2594.26,-32.0201"/>
<polygon fill="black" stroke="black" points="2594.34,-28.5184 2584.14,-31.3922 2593.91,-35.5049 2594.34,-28.5184"/>
<text text-anchor="middle" x="3566.63" y="-180.28" font-family="Times,serif" font-size="14.00"> init(at)</text>
</g>
<!-- n30&#45;&gt;n30 -->
<g id="edge6" class="edge"><title>n30&#45;&gt;n30</title>
<path fill="none" stroke="black" d="M3689.92,-354.271C3702.01,-353.74 3711.22,-350.39 3711.22,-344.22 3711.22,-339.979 3706.87,-337.07 3700.22,-335.493"/>
<polygon fill="black" stroke="black" points="3700.28,-331.973 3689.92,-334.17 3699.39,-338.916 3700.28,-331.973"/>
<text text-anchor="middle" x="3808.72" y="-363.02" font-family="Times,serif" font-size="14.00"> static(equipped_for_rock_analysis)</text>
<text text-anchor="middle" x="3808.72" y="-348.02" font-family="Times,serif" font-size="14.00">static(equipped_for_imaging)</text>
<text text-anchor="middle" x="3808.72" y="-333.02" font-family="Times,serif" font-size="14.00">init(available)</text>
<text text-anchor="middle" x="3808.72" y="-318.02" font-family="Times,serif" font-size="14.00">static(equipped_for_soil_analysis)</text>
</g>
<!-- n31 -->
<g id="node31" class="node"><title>n31</title>
<ellipse fill="none" stroke="black" cx="2214.13" cy="-344.22" rx="67.7647" ry="26.7407"/>
<text text-anchor="middle" x="2214.13" y="-348.02" font-family="Times,serif" font-size="14.00">&lt;objective15&gt;</text>
<text text-anchor="middle" x="2214.13" y="-333.02" font-family="Times,serif" font-size="14.00">objective</text>
</g>
<!-- n31&#45;&gt;n23 -->
<g id="edge33" class="edge"><title>n31&#45;&gt;n23</title>
<path fill="none" stroke="black" d="M2176.78,-321.573C2150.61,-307.521 2114.35,-290.206 2080.13,-281.22 1993.09,-258.359 1736,-245.296 1608.51,-240.059"/>
<polygon fill="black" stroke="black" points="1608.58,-236.559 1598.45,-239.65 1608.3,-243.553 1608.58,-236.559"/>
<text text-anchor="middle" x="2179.13" y="-285.02" font-family="Times,serif" font-size="14.00"> static(visible_from)</text>
</g>
</g>
</svg>
