<?xml version="1.0" encoding="UTF-8" standalone="no"?>
<!DOCTYPE svg PUBLIC "-//W3C//DTD SVG 1.1//EN"
 "http://www.w3.org/Graphics/SVG/1.1/DTD/svg11.dtd">
<!-- Generated by graphviz version 2.38.0 (20140413.2041)
 -->
<!-- Title: Struc Pages: 1 -->
<svg width="807pt" height="505pt"
 viewBox="0.00 0.00 806.81 504.70" xmlns="http://www.w3.org/2000/svg" xmlns:xlink="http://www.w3.org/1999/xlink">
<g id="graph0" class="graph" transform="scale(1 1) rotate(0) translate(4 500.701)">
<title>Struc</title>
<polygon fill="white" stroke="none" points="-4,4 -4,-500.701 802.809,-500.701 802.809,4 -4,4"/>
<!-- n1 -->
<g id="node1" class="node"><title>n1</title>
<ellipse fill="none" stroke="black" cx="537.725" cy="-353.09" rx="48.1667" ry="26.7407"/>
<text text-anchor="middle" x="537.725" y="-356.89" font-family="Times,serif" font-size="14.00">&lt;rover0&gt;</text>
<text text-anchor="middle" x="537.725" y="-341.89" font-family="Times,serif" font-size="14.00">rover</text>
</g>
<!-- n1&#45;&gt;n1 -->
<g id="edge1" class="edge"><title>n1&#45;&gt;n1</title>
<path fill="none" stroke="black" d="M582.2,-363.526C594.448,-363.022 603.809,-359.544 603.809,-353.09 603.809,-348.553 599.181,-345.486 592.176,-343.89"/>
<polygon fill="black" stroke="black" points="592.554,-340.41 582.2,-342.654 591.694,-347.357 592.554,-340.41"/>
<text text-anchor="middle" x="701.309" y="-371.89" font-family="Times,serif" font-size="14.00"> static(equipped_for_rock_analysis)</text>
<text text-anchor="middle" x="701.309" y="-356.89" font-family="Times,serif" font-size="14.00">static(equipped_for_imaging)</text>
<text text-anchor="middle" x="701.309" y="-341.89" font-family="Times,serif" font-size="14.00">init(available)</text>
<text text-anchor="middle" x="701.309" y="-326.89" font-family="Times,serif" font-size="14.00">static(equipped_for_soil_analysis)</text>
</g>
<!-- n9 -->
<g id="node9" class="node"><title>n9</title>
<ellipse fill="none" stroke="black" cx="537.725" cy="-240.35" rx="63.7795" ry="26.7407"/>
<text text-anchor="middle" x="537.725" y="-244.15" font-family="Times,serif" font-size="14.00">&lt;waypoint2&gt;</text>
<text text-anchor="middle" x="537.725" y="-229.15" font-family="Times,serif" font-size="14.00">waypoint</text>
</g>
<!-- n1&#45;&gt;n9 -->
<g id="edge13" class="edge"><title>n1&#45;&gt;n9</title>
<path fill="none" stroke="black" d="M537.725,-326.127C537.725,-311.653 537.725,-293.403 537.725,-277.546"/>
<polygon fill="black" stroke="black" points="541.226,-277.535 537.725,-267.535 534.226,-277.535 541.226,-277.535"/>
<text text-anchor="middle" x="558.225" y="-293.02" font-family="Times,serif" font-size="14.00"> init(at)</text>
</g>
<!-- n2 -->
<g id="node2" class="node"><title>n2</title>
<ellipse fill="none" stroke="black" cx="358.725" cy="-240.35" rx="48.1603" ry="26.7574"/>
<ellipse fill="none" stroke="black" cx="358.725" cy="-240.35" rx="52.1667" ry="30.7407"/>
<text text-anchor="middle" x="358.725" y="-244.15" font-family="Times,serif" font-size="14.00">&lt;colour&gt;</text>
<text text-anchor="middle" x="358.725" y="-229.15" font-family="Times,serif" font-size="14.00">mode</text>
</g>
<!-- n3 -->
<g id="node3" class="node"><title>n3</title>
<ellipse fill="none" stroke="black" cx="383.725" cy="-465.831" rx="56.6326" ry="26.7574"/>
<ellipse fill="none" stroke="black" cx="383.725" cy="-465.831" rx="60.6372" ry="30.7407"/>
<text text-anchor="middle" x="383.725" y="-469.631" font-family="Times,serif" font-size="14.00">&lt;camera2&gt;</text>
<text text-anchor="middle" x="383.725" y="-454.631" font-family="Times,serif" font-size="14.00">camera</text>
</g>
<!-- n3&#45;&gt;n1 -->
<g id="edge18" class="edge"><title>n3&#45;&gt;n1</title>
<path fill="none" stroke="black" d="M405.305,-436.65C415.221,-424.938 427.671,-411.81 440.725,-401.96 443.185,-400.105 468.613,-387.572 492.816,-375.796"/>
<polygon fill="black" stroke="black" points="494.515,-378.862 501.981,-371.344 491.457,-372.565 494.515,-378.862"/>
<text text-anchor="middle" x="488.225" y="-405.76" font-family="Times,serif" font-size="14.00"> static(on_board)</text>
</g>
<!-- n3&#45;&gt;n2 -->
<g id="edge17" class="edge"><title>n3&#45;&gt;n2</title>
<path fill="none" stroke="black" stroke-dasharray="5,2" d="M382.671,-434.847C381.128,-399.763 377.542,-340.005 369.725,-289.22 369.314,-286.547 368.836,-283.801 368.313,-281.042"/>
<polygon fill="black" stroke="black" points="371.711,-280.188 366.27,-271.097 364.854,-281.597 371.711,-280.188"/>
<text text-anchor="middle" x="423.725" y="-349.39" font-family="Times,serif" font-size="14.00"> static(supports)</text>
</g>
<!-- n7 -->
<g id="node7" class="node"><title>n7</title>
<ellipse fill="none" stroke="black" cx="167.725" cy="-353.09" rx="62.8691" ry="26.7574"/>
<ellipse fill="none" stroke="black" cx="167.725" cy="-353.09" rx="66.8651" ry="30.7407"/>
<text text-anchor="middle" x="167.725" y="-356.89" font-family="Times,serif" font-size="14.00">&lt;objective7&gt;</text>
<text text-anchor="middle" x="167.725" y="-341.89" font-family="Times,serif" font-size="14.00">objective</text>
</g>
<!-- n3&#45;&gt;n7 -->
<g id="edge19" class="edge"><title>n3&#45;&gt;n7</title>
<path fill="none" stroke="black" stroke-dasharray="5,2" d="M327.687,-453.617C298.061,-446.113 261.894,-434.36 232.725,-416.96 220.357,-409.582 208.506,-399.419 198.39,-389.414"/>
<polygon fill="black" stroke="black" points="200.838,-386.911 191.349,-382.199 195.828,-391.8 200.838,-386.911"/>
<text text-anchor="middle" x="301.225" y="-405.76" font-family="Times,serif" font-size="14.00"> static(calibration_target)</text>
</g>
<!-- n4 -->
<g id="node4" class="node"><title>n4</title>
<ellipse fill="none" stroke="black" cx="329.725" cy="-131.61" rx="63.7795" ry="26.7407"/>
<text text-anchor="middle" x="329.725" y="-135.41" font-family="Times,serif" font-size="14.00">&lt;waypoint1&gt;</text>
<text text-anchor="middle" x="329.725" y="-120.41" font-family="Times,serif" font-size="14.00">waypoint</text>
</g>
<!-- n4&#45;&gt;n4 -->
<g id="edge2" class="edge"><title>n4&#45;&gt;n4</title>
<path fill="none" stroke="black" d="M389.53,-141.045C402.209,-140.087 411.365,-136.942 411.365,-131.61 411.365,-127.861 406.838,-125.193 399.743,-123.607"/>
<polygon fill="black" stroke="black" points="399.919,-120.097 389.53,-122.175 398.947,-127.029 399.919,-120.097"/>
<text text-anchor="middle" x="470.365" y="-127.91" font-family="Times,serif" font-size="14.00"> init(at_rock_sample)</text>
</g>
<!-- n6 -->
<g id="node6" class="node"><title>n6</title>
<ellipse fill="none" stroke="black" cx="328.725" cy="-26.8701" rx="63.7795" ry="26.7407"/>
<text text-anchor="middle" x="328.725" y="-30.6701" font-family="Times,serif" font-size="14.00">&lt;waypoint0&gt;</text>
<text text-anchor="middle" x="328.725" y="-15.6701" font-family="Times,serif" font-size="14.00">waypoint</text>
</g>
<!-- n4&#45;&gt;n6 -->
<g id="edge20" class="edge"><title>n4&#45;&gt;n6</title>
<path fill="none" stroke="black" d="M350.509,-106.069C356.811,-95.7522 361.245,-83.4456 357.725,-71.7401 356.664,-68.21 355.216,-64.7021 353.53,-61.2973"/>
<polygon fill="black" stroke="black" points="356.574,-59.5704 348.612,-52.5809 350.478,-63.0102 356.574,-59.5704"/>
<text text-anchor="middle" x="398.725" y="-75.5401" font-family="Times,serif" font-size="14.00"> static(visible)</text>
</g>
<!-- n4&#45;&gt;n9 -->
<g id="edge21" class="edge"><title>n4&#45;&gt;n9</title>
<path fill="none" stroke="black" d="M328.019,-158.641C328.671,-170.071 331.522,-182.83 339.725,-191.48 364.803,-217.925 384.279,-201.008 419.725,-209.48 437.422,-213.71 456.563,-218.474 474.175,-222.933"/>
<polygon fill="black" stroke="black" points="473.791,-226.447 484.345,-225.518 475.515,-219.663 473.791,-226.447"/>
<text text-anchor="middle" x="378.725" y="-180.28" font-family="Times,serif" font-size="14.00"> static(visible)</text>
</g>
<!-- n5 -->
<g id="node5" class="node"><title>n5</title>
<ellipse fill="none" stroke="black" cx="77.7254" cy="-131.61" rx="51.7379" ry="26.7407"/>
<text text-anchor="middle" x="77.7254" y="-135.41" font-family="Times,serif" font-size="14.00">&lt;general&gt;</text>
<text text-anchor="middle" x="77.7254" y="-120.41" font-family="Times,serif" font-size="14.00">lander</text>
</g>
<!-- n5&#45;&gt;n5 -->
<g id="edge3" class="edge"><title>n5&#45;&gt;n5</title>
<path fill="none" stroke="black" d="M126.203,-141.226C138.301,-140.554 147.344,-137.348 147.344,-131.61 147.344,-127.665 143.07,-124.917 136.467,-123.367"/>
<polygon fill="black" stroke="black" points="136.578,-119.85 126.203,-121.994 135.651,-126.789 136.578,-119.85"/>
<text text-anchor="middle" x="197.844" y="-127.91" font-family="Times,serif" font-size="14.00"> init(channel_free)</text>
</g>
<!-- n5&#45;&gt;n6 -->
<g id="edge12" class="edge"><title>n5&#45;&gt;n6</title>
<path fill="none" stroke="black" d="M109.553,-110.106C129.665,-97.7859 156.528,-82.4694 181.725,-71.7401 208.125,-60.4989 238.34,-50.9494 264.483,-43.6587"/>
<polygon fill="black" stroke="black" points="265.565,-46.9914 274.286,-40.9763 263.717,-40.2396 265.565,-46.9914"/>
<text text-anchor="middle" x="227.725" y="-75.5401" font-family="Times,serif" font-size="14.00"> static(at_lander)</text>
</g>
<!-- n6&#45;&gt;n4 -->
<g id="edge11" class="edge"><title>n6&#45;&gt;n4</title>
<path fill="none" stroke="black" d="M294.135,-49.6428C282.346,-59.9782 273.526,-73.0525 279.725,-86.7401 282.078,-91.9341 285.383,-96.7564 289.186,-101.157"/>
<polygon fill="black" stroke="black" points="286.978,-103.906 296.469,-108.613 291.985,-99.0141 286.978,-103.906"/>
<text text-anchor="middle" x="318.725" y="-75.5401" font-family="Times,serif" font-size="14.00"> static(visible)</text>
</g>
<!-- n6&#45;&gt;n6 -->
<g id="edge4" class="edge"><title>n6&#45;&gt;n6</title>
<path fill="none" stroke="black" d="M388.53,-36.3053C401.209,-35.3472 410.365,-32.2021 410.365,-26.8701 410.365,-23.121 405.838,-20.4531 398.743,-18.8664"/>
<polygon fill="black" stroke="black" points="398.919,-15.3569 388.53,-17.4349 397.947,-22.2891 398.919,-15.3569"/>
<text text-anchor="middle" x="497.365" y="-30.6701" font-family="Times,serif" font-size="14.00"> end(communicated_rock_data)</text>
<text text-anchor="middle" x="497.365" y="-15.6701" font-family="Times,serif" font-size="14.00">init(at_rock_sample)</text>
</g>
<!-- n6&#45;&gt;n9 -->
<g id="edge14" class="edge"><title>n6&#45;&gt;n9</title>
<path fill="none" stroke="black" d="M390.955,-32.8568C475.891,-41.2203 620.702,-61.5888 647.725,-104.74 660.402,-124.983 658.509,-137.169 647.725,-158.48 635.302,-183.033 611.526,-201.947 589.248,-215.289"/>
<polygon fill="black" stroke="black" points="587.423,-212.3 580.485,-220.307 590.902,-218.374 587.423,-212.3"/>
<text text-anchor="middle" x="695.725" y="-127.91" font-family="Times,serif" font-size="14.00"> static(visible)</text>
</g>
<!-- n7&#45;&gt;n2 -->
<g id="edge7" class="edge"><title>n7&#45;&gt;n2</title>
<path fill="none" stroke="black" stroke-dasharray="5,2" d="M169.791,-322.088C172.102,-310.347 176.705,-297.692 185.725,-289.22 212.924,-263.677 231.732,-281.051 267.725,-271.22 279.876,-267.902 292.804,-263.932 304.984,-259.986"/>
<polygon fill="black" stroke="black" points="306.155,-263.286 314.564,-256.841 303.971,-256.635 306.155,-263.286"/>
<text text-anchor="middle" x="277.725" y="-293.02" font-family="Times,serif" font-size="14.00"> end(communicated_image_data)</text>
</g>
<!-- n7&#45;&gt;n4 -->
<g id="edge8" class="edge"><title>n7&#45;&gt;n4</title>
<path fill="none" stroke="black" stroke-dasharray="5,2" d="M163.652,-322.056C161.09,-290.927 161.928,-242.316 185.725,-209.48 197.48,-193.261 240.164,-171.514 276.034,-155.29"/>
<polygon fill="black" stroke="black" points="277.756,-158.354 285.46,-151.081 274.902,-151.962 277.756,-158.354"/>
<text text-anchor="middle" x="241.725" y="-236.65" font-family="Times,serif" font-size="14.00"> static(visible_from)</text>
</g>
<!-- n7&#45;&gt;n6 -->
<g id="edge16" class="edge"><title>n7&#45;&gt;n6</title>
<path fill="none" stroke="black" d="M131.545,-326.635C70.1577,-280.367 -42.2587,-180.286 16.7254,-104.74 45.9748,-67.2782 174.51,-45.6304 257.204,-35.3414"/>
<polygon fill="black" stroke="black" points="257.797,-38.7951 267.301,-34.113 256.952,-31.8464 257.797,-38.7951"/>
<text text-anchor="middle" x="64.7254" y="-180.28" font-family="Times,serif" font-size="14.00"> static(visible_from)</text>
</g>
<!-- n8 -->
<g id="node8" class="node"><title>n8</title>
<ellipse fill="none" stroke="black" cx="537.725" cy="-465.831" rx="67.3507" ry="26.7407"/>
<text text-anchor="middle" x="537.725" y="-469.631" font-family="Times,serif" font-size="14.00">&lt;rover0store&gt;</text>
<text text-anchor="middle" x="537.725" y="-454.631" font-family="Times,serif" font-size="14.00">store</text>
</g>
<!-- n8&#45;&gt;n1 -->
<g id="edge10" class="edge"><title>n8&#45;&gt;n1</title>
<path fill="none" stroke="black" d="M537.725,-438.867C537.725,-424.393 537.725,-406.143 537.725,-390.286"/>
<polygon fill="black" stroke="black" points="541.226,-390.275 537.725,-380.275 534.226,-390.275 541.226,-390.275"/>
<text text-anchor="middle" x="580.725" y="-405.76" font-family="Times,serif" font-size="14.00"> static(store_of)</text>
</g>
<!-- n8&#45;&gt;n8 -->
<g id="edge5" class="edge"><title>n8&#45;&gt;n8</title>
<path fill="none" stroke="black" d="M600.12,-475.991C613.348,-474.96 622.901,-471.573 622.901,-465.831 622.901,-461.658 617.858,-458.73 610.026,-457.044"/>
<polygon fill="black" stroke="black" points="610.506,-453.577 600.12,-455.67 609.544,-460.511 610.506,-453.577"/>
<text text-anchor="middle" x="655.901" y="-462.131" font-family="Times,serif" font-size="14.00"> init(empty)</text>
</g>
<!-- n9&#45;&gt;n4 -->
<g id="edge9" class="edge"><title>n9&#45;&gt;n4</title>
<path fill="none" stroke="black" d="M500.372,-218.469C477.763,-205.99 448.264,-189.988 421.725,-176.48 408.528,-169.763 394.127,-162.749 380.721,-156.351"/>
<polygon fill="black" stroke="black" points="382.159,-153.159 371.625,-152.03 379.156,-159.482 382.159,-153.159"/>
<text text-anchor="middle" x="486.725" y="-180.28" font-family="Times,serif" font-size="14.00"> static(visible)</text>
</g>
<!-- n9&#45;&gt;n6 -->
<g id="edge15" class="edge"><title>n9&#45;&gt;n6</title>
<path fill="none" stroke="black" d="M546.11,-213.454C553.845,-184.267 561.082,-136.731 538.725,-104.74 507.893,-60.6208 448.866,-41.743 401.225,-33.7067"/>
<polygon fill="black" stroke="black" points="401.666,-30.2332 391.246,-32.1512 400.587,-37.1497 401.666,-30.2332"/>
<text text-anchor="middle" x="592.725" y="-127.91" font-family="Times,serif" font-size="14.00"> static(visible)</text>
</g>
<!-- n9&#45;&gt;n9 -->
<g id="edge6" class="edge"><title>n9&#45;&gt;n9</title>
<path fill="none" stroke="black" d="M596.802,-250.568C609.857,-249.608 619.365,-246.202 619.365,-240.35 619.365,-236.144 614.453,-233.202 606.843,-231.523"/>
<polygon fill="black" stroke="black" points="607.187,-228.038 596.802,-230.133 606.227,-234.972 607.187,-228.038"/>
<text text-anchor="middle" x="703.865" y="-244.15" font-family="Times,serif" font-size="14.00"> end(communicated_soil_data)</text>
<text text-anchor="middle" x="703.865" y="-229.15" font-family="Times,serif" font-size="14.00">init(at_soil_sample)</text>
</g>
</g>
</svg>
