<?xml version="1.0" encoding="UTF-8" standalone="no"?>
<!DOCTYPE svg PUBLIC "-//W3C//DTD SVG 1.1//EN"
 "http://www.w3.org/Graphics/SVG/1.1/DTD/svg11.dtd">
<!-- Generated by graphviz version 2.38.0 (20140413.2041)
 -->
<!-- Title: Struc Pages: 1 -->
<svg width="3562pt" height="487pt"
 viewBox="0.00 0.00 3562.08 486.96" xmlns="http://www.w3.org/2000/svg" xmlns:xlink="http://www.w3.org/1999/xlink">
<g id="graph0" class="graph" transform="scale(1 1) rotate(0) translate(4 482.96)">
<title>Struc</title>
<polygon fill="white" stroke="none" points="-4,4 -4,-482.96 3558.08,-482.96 3558.08,4 -4,4"/>
<!-- n1 -->
<g id="node1" class="node"><title>n1</title>
<ellipse fill="none" stroke="black" cx="979.084" cy="-344.22" rx="51.7379" ry="26.7407"/>
<text text-anchor="middle" x="979.084" y="-348.02" font-family="Times,serif" font-size="14.00">&lt;general&gt;</text>
<text text-anchor="middle" x="979.084" y="-333.02" font-family="Times,serif" font-size="14.00">lander</text>
</g>
<!-- n1&#45;&gt;n1 -->
<g id="edge1" class="edge"><title>n1&#45;&gt;n1</title>
<path fill="none" stroke="black" d="M1027.24,-354.224C1039.5,-353.567 1048.7,-350.232 1048.7,-344.22 1048.7,-339.993 1044.15,-337.09 1037.19,-335.51"/>
<polygon fill="black" stroke="black" points="1037.61,-332.035 1027.24,-334.216 1036.7,-338.976 1037.61,-332.035"/>
<text text-anchor="middle" x="1099.2" y="-340.52" font-family="Times,serif" font-size="14.00"> init(channel_free)</text>
</g>
<!-- n6 -->
<g id="node6" class="node"><title>n6</title>
<ellipse fill="none" stroke="black" cx="1057.08" cy="-236.35" rx="63.7795" ry="26.7407"/>
<text text-anchor="middle" x="1057.08" y="-240.15" font-family="Times,serif" font-size="14.00">&lt;waypoint0&gt;</text>
<text text-anchor="middle" x="1057.08" y="-225.15" font-family="Times,serif" font-size="14.00">waypoint</text>
</g>
<!-- n1&#45;&gt;n6 -->
<g id="edge41" class="edge"><title>n1&#45;&gt;n6</title>
<path fill="none" stroke="black" d="M969.831,-317.5C967.206,-305.685 966.583,-291.949 973.084,-281.22 979.018,-271.426 987.936,-263.714 997.776,-257.677"/>
<polygon fill="black" stroke="black" points="999.552,-260.694 1006.61,-252.792 996.164,-254.569 999.552,-260.694"/>
<text text-anchor="middle" x="1019.08" y="-285.02" font-family="Times,serif" font-size="14.00"> static(at_lander)</text>
</g>
<!-- n2 -->
<g id="node2" class="node"><title>n2</title>
<ellipse fill="none" stroke="black" cx="614.084" cy="-452.09" rx="56.6372" ry="26.7407"/>
<text text-anchor="middle" x="614.084" y="-455.89" font-family="Times,serif" font-size="14.00">&lt;camera1&gt;</text>
<text text-anchor="middle" x="614.084" y="-440.89" font-family="Times,serif" font-size="14.00">camera</text>
</g>
<!-- n4 -->
<g id="node4" class="node"><title>n4</title>
<ellipse fill="none" stroke="black" cx="157.084" cy="-236.35" rx="56.6372" ry="26.7407"/>
<text text-anchor="middle" x="157.084" y="-240.15" font-family="Times,serif" font-size="14.00">&lt;high_res&gt;</text>
<text text-anchor="middle" x="157.084" y="-225.15" font-family="Times,serif" font-size="14.00">mode</text>
</g>
<!-- n2&#45;&gt;n4 -->
<g id="edge45" class="edge"><title>n2&#45;&gt;n4</title>
<path fill="none" stroke="black" d="M557.533,-450.688C463.167,-449.02 268.064,-441.314 107.084,-407.22 62.9457,-397.872 37.2929,-410.944 11.0838,-374.22 -4.40721,-352.515 -2.69696,-337.05 11.0838,-314.22 29.8658,-283.105 65.8921,-263.951 97.4567,-252.544"/>
<polygon fill="black" stroke="black" points="98.7578,-255.798 107.085,-249.248 96.4907,-249.175 98.7578,-255.798"/>
<text text-anchor="middle" x="55.0838" y="-340.52" font-family="Times,serif" font-size="14.00"> static(supports)</text>
</g>
<!-- n13 -->
<g id="node13" class="node"><title>n13</title>
<ellipse fill="none" stroke="black" cx="290.084" cy="-344.22" rx="62.8651" ry="26.7407"/>
<text text-anchor="middle" x="290.084" y="-348.02" font-family="Times,serif" font-size="14.00">&lt;objective1&gt;</text>
<text text-anchor="middle" x="290.084" y="-333.02" font-family="Times,serif" font-size="14.00">objective</text>
</g>
<!-- n2&#45;&gt;n13 -->
<g id="edge35" class="edge"><title>n2&#45;&gt;n13</title>
<path fill="none" stroke="black" d="M557.297,-449.847C440.426,-446.698 181.669,-436.468 155.084,-407.22 150.6,-402.287 151.13,-397.588 155.084,-392.22 171.093,-370.49 187.554,-382.981 213.084,-374.22 220.144,-371.798 227.529,-369.156 234.813,-366.486"/>
<polygon fill="black" stroke="black" points="236.482,-369.6 244.644,-362.844 234.05,-363.036 236.482,-369.6"/>
<text text-anchor="middle" x="223.584" y="-396.02" font-family="Times,serif" font-size="14.00"> static(calibration_target)</text>
</g>
<!-- n17 -->
<g id="node17" class="node"><title>n17</title>
<ellipse fill="none" stroke="black" cx="3069.08" cy="-344.22" rx="48.1667" ry="26.7407"/>
<text text-anchor="middle" x="3069.08" y="-348.02" font-family="Times,serif" font-size="14.00">&lt;rover0&gt;</text>
<text text-anchor="middle" x="3069.08" y="-333.02" font-family="Times,serif" font-size="14.00">rover</text>
</g>
<!-- n2&#45;&gt;n17 -->
<g id="edge9" class="edge"><title>n2&#45;&gt;n17</title>
<path fill="none" stroke="black" d="M670.001,-447.699C765.93,-442.025 968.065,-430.689 1139.08,-425.22 1207.11,-423.045 2299.95,-430.014 2364.08,-407.22 2374.22,-403.617 2372.97,-395.9 2383.08,-392.22 2446.28,-369.222 2922,-386.708 2988.08,-374.22 2999.44,-372.075 3011.32,-368.579 3022.38,-364.744"/>
<polygon fill="black" stroke="black" points="3023.65,-368.009 3031.86,-361.312 3021.26,-361.427 3023.65,-368.009"/>
<text text-anchor="middle" x="2429.58" y="-396.02" font-family="Times,serif" font-size="14.00"> static(on_board)</text>
</g>
<!-- n23 -->
<g id="node23" class="node"><title>n23</title>
<ellipse fill="none" stroke="black" cx="2946.08" cy="-236.35" rx="48.1667" ry="26.7407"/>
<text text-anchor="middle" x="2946.08" y="-240.15" font-family="Times,serif" font-size="14.00">&lt;colour&gt;</text>
<text text-anchor="middle" x="2946.08" y="-225.15" font-family="Times,serif" font-size="14.00">mode</text>
</g>
<!-- n2&#45;&gt;n23 -->
<g id="edge23" class="edge"><title>n2&#45;&gt;n23</title>
<path fill="none" stroke="black" d="M670.013,-448.025C765.96,-442.835 968.121,-432.204 1139.08,-425.22 1150,-424.774 2701.7,-377.638 2712.08,-374.22 2756.7,-359.531 2754.81,-329.903 2799.08,-314.22 2848.04,-296.881 2996.8,-334.33 3032.08,-296.22 3048.41,-278.582 3024.64,-263.398 2997.98,-252.87"/>
<polygon fill="black" stroke="black" points="2999.09,-249.547 2988.5,-249.344 2996.65,-256.109 2999.09,-249.547"/>
<text text-anchor="middle" x="3007.08" y="-340.52" font-family="Times,serif" font-size="14.00"> static(supports)</text>
</g>
<!-- n3 -->
<g id="node3" class="node"><title>n3</title>
<ellipse fill="none" stroke="black" cx="1205.08" cy="-452.09" rx="56.6372" ry="26.7407"/>
<text text-anchor="middle" x="1205.08" y="-455.89" font-family="Times,serif" font-size="14.00">&lt;camera4&gt;</text>
<text text-anchor="middle" x="1205.08" y="-440.89" font-family="Times,serif" font-size="14.00">camera</text>
</g>
<!-- n3&#45;&gt;n4 -->
<g id="edge19" class="edge"><title>n3&#45;&gt;n4</title>
<path fill="none" stroke="black" d="M1149.15,-448.051C1053.21,-442.9 851.042,-432.324 680.084,-425.22 650.537,-423.993 173.254,-422.744 148.084,-407.22 105.033,-380.669 123.614,-313.612 140.63,-272.132"/>
<polygon fill="black" stroke="black" points="143.957,-273.255 144.66,-262.683 137.518,-270.509 143.957,-273.255"/>
<text text-anchor="middle" x="171.084" y="-340.52" font-family="Times,serif" font-size="14.00"> static(supports)</text>
</g>
<!-- n3&#45;&gt;n13 -->
<g id="edge21" class="edge"><title>n3&#45;&gt;n13</title>
<path fill="none" stroke="black" d="M1148.74,-448.313C953.095,-438.669 315.084,-407.22 315.084,-407.22 306.269,-400.949 300.559,-391.025 296.861,-380.94"/>
<polygon fill="black" stroke="black" points="300.19,-379.858 293.897,-371.335 293.502,-381.922 300.19,-379.858"/>
<text text-anchor="middle" x="383.584" y="-396.02" font-family="Times,serif" font-size="14.00"> static(calibration_target)</text>
</g>
<!-- n3&#45;&gt;n17 -->
<g id="edge47" class="edge"><title>n3&#45;&gt;n17</title>
<path fill="none" stroke="black" d="M1261.74,-449.621C1505.14,-443.248 2451.1,-417.844 2480.08,-407.22 2490.19,-403.518 2488.99,-395.935 2499.08,-392.22 2601.14,-354.674 2881.31,-394.789 2988.08,-374.22 2999.43,-372.035 3011.31,-368.523 3022.37,-364.686"/>
<polygon fill="black" stroke="black" points="3023.64,-367.951 3031.85,-361.255 3021.25,-361.369 3023.64,-367.951"/>
<text text-anchor="middle" x="2545.58" y="-396.02" font-family="Times,serif" font-size="14.00"> static(on_board)</text>
</g>
<!-- n19 -->
<g id="node19" class="node"><title>n19</title>
<ellipse fill="none" stroke="black" cx="2226.08" cy="-236.35" rx="53.9813" ry="26.7407"/>
<text text-anchor="middle" x="2226.08" y="-240.15" font-family="Times,serif" font-size="14.00">&lt;low_res&gt;</text>
<text text-anchor="middle" x="2226.08" y="-225.15" font-family="Times,serif" font-size="14.00">mode</text>
</g>
<!-- n3&#45;&gt;n19 -->
<g id="edge38" class="edge"><title>n3&#45;&gt;n19</title>
<path fill="none" stroke="black" d="M1261.14,-448.219C1419.67,-439.704 1868.98,-412.767 2011.08,-374.22 2090.53,-352.669 2114.35,-347.074 2179.08,-296.22 2188.3,-288.983 2196.82,-279.603 2204,-270.465"/>
<polygon fill="black" stroke="black" points="2206.99,-272.307 2210.2,-262.21 2201.4,-268.102 2206.99,-272.307"/>
<text text-anchor="middle" x="2200.08" y="-340.52" font-family="Times,serif" font-size="14.00"> static(supports)</text>
</g>
<!-- n5 -->
<g id="node5" class="node"><title>n5</title>
<ellipse fill="none" stroke="black" cx="1240.08" cy="-131.61" rx="63.7795" ry="26.7407"/>
<text text-anchor="middle" x="1240.08" y="-135.41" font-family="Times,serif" font-size="14.00">&lt;waypoint1&gt;</text>
<text text-anchor="middle" x="1240.08" y="-120.41" font-family="Times,serif" font-size="14.00">waypoint</text>
</g>
<!-- n5&#45;&gt;n5 -->
<g id="edge2" class="edge"><title>n5&#45;&gt;n5</title>
<path fill="none" stroke="black" d="M1299.89,-141.045C1312.57,-140.087 1321.72,-136.942 1321.72,-131.61 1321.72,-127.861 1317.2,-125.193 1310.1,-123.607"/>
<polygon fill="black" stroke="black" points="1310.28,-120.097 1299.89,-122.175 1309.31,-127.029 1310.28,-120.097"/>
<text text-anchor="middle" x="1380.72" y="-127.91" font-family="Times,serif" font-size="14.00"> init(at_rock_sample)</text>
</g>
<!-- n5&#45;&gt;n6 -->
<g id="edge15" class="edge"><title>n5&#45;&gt;n6</title>
<path fill="none" stroke="black" d="M1231.4,-158.281C1226.28,-169.915 1218.69,-182.945 1208.08,-191.48 1185.45,-209.7 1155.54,-220.353 1128.31,-226.582"/>
<polygon fill="black" stroke="black" points="1127.47,-223.181 1118.42,-228.682 1128.93,-230.029 1127.47,-223.181"/>
<text text-anchor="middle" x="1261.08" y="-180.28" font-family="Times,serif" font-size="14.00"> static(visible)</text>
</g>
<!-- n8 -->
<g id="node8" class="node"><title>n8</title>
<ellipse fill="none" stroke="black" cx="1139.08" cy="-26.8701" rx="63.7795" ry="26.7407"/>
<text text-anchor="middle" x="1139.08" y="-30.6701" font-family="Times,serif" font-size="14.00">&lt;waypoint2&gt;</text>
<text text-anchor="middle" x="1139.08" y="-15.6701" font-family="Times,serif" font-size="14.00">waypoint</text>
</g>
<!-- n5&#45;&gt;n8 -->
<g id="edge25" class="edge"><title>n5&#45;&gt;n8</title>
<path fill="none" stroke="black" d="M1234.69,-104.771C1231.36,-93.6493 1226.13,-81.0841 1218.08,-71.7401 1211.18,-63.7212 1202.43,-56.8825 1193.29,-51.1588"/>
<polygon fill="black" stroke="black" points="1194.85,-48.0189 1184.45,-46.0107 1191.33,-54.0678 1194.85,-48.0189"/>
<text text-anchor="middle" x="1267.08" y="-75.5401" font-family="Times,serif" font-size="14.00"> static(visible)</text>
</g>
<!-- n6&#45;&gt;n5 -->
<g id="edge32" class="edge"><title>n6&#45;&gt;n5</title>
<path fill="none" stroke="black" d="M1081.07,-211.342C1093.67,-199.684 1109.85,-186.144 1126.08,-176.48 1142.61,-166.643 1161.74,-158.269 1179.55,-151.557"/>
<polygon fill="black" stroke="black" points="1181.09,-154.72 1189.28,-148 1178.69,-148.145 1181.09,-154.72"/>
<text text-anchor="middle" x="1165.08" y="-180.28" font-family="Times,serif" font-size="14.00"> static(visible)</text>
</g>
<!-- n6&#45;&gt;n6 -->
<g id="edge3" class="edge"><title>n6&#45;&gt;n6</title>
<path fill="none" stroke="black" d="M1116.89,-245.785C1129.57,-244.827 1138.72,-241.682 1138.72,-236.35 1138.72,-232.601 1134.2,-229.933 1127.1,-228.347"/>
<polygon fill="black" stroke="black" points="1127.28,-224.837 1116.89,-226.915 1126.31,-231.769 1127.28,-224.837"/>
<text text-anchor="middle" x="1225.72" y="-240.15" font-family="Times,serif" font-size="14.00"> end(communicated_rock_data)</text>
<text text-anchor="middle" x="1225.72" y="-225.15" font-family="Times,serif" font-size="14.00">init(at_rock_sample)</text>
</g>
<!-- n6&#45;&gt;n8 -->
<g id="edge8" class="edge"><title>n6&#45;&gt;n8</title>
<path fill="none" stroke="black" d="M1024.73,-213.023C1008,-199.43 989.201,-180.465 980.084,-158.48 970.934,-136.418 967.392,-124.973 980.084,-104.74 1000.4,-72.353 1038.65,-53.279 1072.54,-42.2327"/>
<polygon fill="black" stroke="black" points="1073.9,-45.4767 1082.42,-39.1911 1071.84,-38.7861 1073.9,-45.4767"/>
<text text-anchor="middle" x="1019.08" y="-127.91" font-family="Times,serif" font-size="14.00"> static(visible)</text>
</g>
<!-- n7 -->
<g id="node7" class="node"><title>n7</title>
<ellipse fill="none" stroke="black" cx="1349.08" cy="-344.22" rx="62.8651" ry="26.7407"/>
<text text-anchor="middle" x="1349.08" y="-348.02" font-family="Times,serif" font-size="14.00">&lt;objective8&gt;</text>
<text text-anchor="middle" x="1349.08" y="-333.02" font-family="Times,serif" font-size="14.00">objective</text>
</g>
<!-- n7&#45;&gt;n4 -->
<g id="edge36" class="edge"><title>n7&#45;&gt;n4</title>
<path fill="none" stroke="black" d="M1291.94,-332.548C1254.34,-326.008 1203.96,-318.159 1159.08,-314.22 990.352,-299.412 564.894,-319.234 397.084,-296.22 370.278,-292.544 364.343,-287.74 338.084,-281.22 297.812,-271.221 252.432,-260.222 217.185,-251.739"/>
<polygon fill="black" stroke="black" points="217.599,-248.239 207.058,-249.304 215.962,-255.045 217.599,-248.239"/>
<text text-anchor="middle" x="489.084" y="-285.02" font-family="Times,serif" font-size="14.00"> end(communicated_image_data)</text>
</g>
<!-- n7&#45;&gt;n5 -->
<g id="edge16" class="edge"><title>n7&#45;&gt;n5</title>
<path fill="none" stroke="black" d="M1349.06,-317.246C1347.64,-281.227 1339.86,-216.086 1304.08,-176.48 1298.62,-170.435 1292.17,-164.799 1285.5,-159.714"/>
<polygon fill="black" stroke="black" points="1287.15,-156.59 1277,-153.581 1283.06,-162.268 1287.15,-156.59"/>
<text text-anchor="middle" x="1399.08" y="-232.65" font-family="Times,serif" font-size="14.00"> static(visible_from)</text>
</g>
<!-- n7&#45;&gt;n6 -->
<g id="edge39" class="edge"><title>n7&#45;&gt;n6</title>
<path fill="none" stroke="black" d="M1290.63,-334.022C1216.21,-322.119 1096.24,-302.197 1088.08,-296.22 1079.92,-290.243 1073.72,-281.466 1069.08,-272.504"/>
<polygon fill="black" stroke="black" points="1072.17,-270.831 1064.81,-263.207 1065.81,-273.755 1072.17,-270.831"/>
<text text-anchor="middle" x="1144.08" y="-285.02" font-family="Times,serif" font-size="14.00"> static(visible_from)</text>
</g>
<!-- n7&#45;&gt;n23 -->
<g id="edge12" class="edge"><title>n7&#45;&gt;n23</title>
<path fill="none" stroke="black" d="M1407.49,-334.078C1451.52,-327.529 1513.45,-319.045 1568.08,-314.22 1747.12,-298.408 1794.18,-321.803 1972.08,-296.22 1999.72,-292.246 2005.46,-285.242 2033.08,-281.22 2117.18,-268.978 2699.74,-246.509 2887.74,-239.498"/>
<polygon fill="black" stroke="black" points="2888.11,-242.987 2897.97,-239.117 2887.85,-235.992 2888.11,-242.987"/>
<text text-anchor="middle" x="2125.08" y="-285.02" font-family="Times,serif" font-size="14.00"> end(communicated_image_data)</text>
</g>
<!-- n8&#45;&gt;n5 -->
<g id="edge50" class="edge"><title>n8&#45;&gt;n5</title>
<path fill="none" stroke="black" d="M1131.29,-53.7297C1129.53,-64.7274 1129.75,-77.1894 1136.08,-86.7401 1141.77,-95.3037 1160.25,-104.214 1180.09,-111.75"/>
<polygon fill="black" stroke="black" points="1178.98,-115.071 1189.58,-115.22 1181.39,-108.497 1178.98,-115.071"/>
<text text-anchor="middle" x="1175.08" y="-75.5401" font-family="Times,serif" font-size="14.00"> static(visible)</text>
</g>
<!-- n8&#45;&gt;n6 -->
<g id="edge29" class="edge"><title>n8&#45;&gt;n6</title>
<path fill="none" stroke="black" d="M1119.91,-52.6208C1109.48,-67.1215 1097.11,-86.1849 1089.08,-104.74 1075.82,-135.382 1067.39,-172.55 1062.53,-199.389"/>
<polygon fill="black" stroke="black" points="1059.04,-199.042 1060.78,-209.492 1065.94,-200.236 1059.04,-199.042"/>
<text text-anchor="middle" x="1128.08" y="-127.91" font-family="Times,serif" font-size="14.00"> static(visible)</text>
</g>
<!-- n8&#45;&gt;n8 -->
<g id="edge4" class="edge"><title>n8&#45;&gt;n8</title>
<path fill="none" stroke="black" d="M1198.89,-36.3053C1211.57,-35.3472 1220.72,-32.2021 1220.72,-26.8701 1220.72,-23.121 1216.2,-20.4531 1209.1,-18.8664"/>
<polygon fill="black" stroke="black" points="1209.28,-15.3569 1198.89,-17.4349 1208.31,-22.2891 1209.28,-15.3569"/>
<text text-anchor="middle" x="1305.22" y="-30.6701" font-family="Times,serif" font-size="14.00"> end(communicated_soil_data)</text>
<text text-anchor="middle" x="1305.22" y="-15.6701" font-family="Times,serif" font-size="14.00">init(at_soil_sample)</text>
</g>
<!-- n9 -->
<g id="node9" class="node"><title>n9</title>
<ellipse fill="none" stroke="black" cx="3412.08" cy="-452.09" rx="56.6372" ry="26.7407"/>
<text text-anchor="middle" x="3412.08" y="-455.89" font-family="Times,serif" font-size="14.00">&lt;camera0&gt;</text>
<text text-anchor="middle" x="3412.08" y="-440.89" font-family="Times,serif" font-size="14.00">camera</text>
</g>
<!-- n14 -->
<g id="node14" class="node"><title>n14</title>
<ellipse fill="none" stroke="black" cx="1939.08" cy="-344.22" rx="62.8651" ry="26.7407"/>
<text text-anchor="middle" x="1939.08" y="-348.02" font-family="Times,serif" font-size="14.00">&lt;objective2&gt;</text>
<text text-anchor="middle" x="1939.08" y="-333.02" font-family="Times,serif" font-size="14.00">objective</text>
</g>
<!-- n9&#45;&gt;n14 -->
<g id="edge33" class="edge"><title>n9&#45;&gt;n14</title>
<path fill="none" stroke="black" d="M3371.89,-432.909C3363.52,-429.815 3354.63,-427.022 3346.08,-425.22 3158.92,-385.777 3103.69,-444.524 2916.08,-407.22 2897.05,-403.436 2894.14,-395.85 2875.08,-392.22 2721.35,-362.95 2327.14,-385.94 2171.08,-374.22 2115.95,-370.08 2053.82,-362.137 2007.73,-355.609"/>
<polygon fill="black" stroke="black" points="2007.96,-352.105 1997.56,-354.154 2006.97,-359.035 2007.96,-352.105"/>
<text text-anchor="middle" x="2984.58" y="-396.02" font-family="Times,serif" font-size="14.00"> static(calibration_target)</text>
</g>
<!-- n9&#45;&gt;n17 -->
<g id="edge22" class="edge"><title>n9&#45;&gt;n17</title>
<path fill="none" stroke="black" d="M3370.1,-434.054C3350.34,-425.992 3326.47,-416.186 3305.08,-407.22 3289.48,-400.677 3286.16,-397.501 3270.08,-392.22 3221.75,-376.347 3165.21,-363.624 3124.43,-355.44"/>
<polygon fill="black" stroke="black" points="3124.9,-351.966 3114.41,-353.458 3123.54,-358.833 3124.9,-351.966"/>
<text text-anchor="middle" x="3351.58" y="-396.02" font-family="Times,serif" font-size="14.00"> static(on_board)</text>
</g>
<!-- n9&#45;&gt;n19 -->
<g id="edge7" class="edge"><title>n9&#45;&gt;n19</title>
<path fill="none" stroke="black" d="M3410.5,-425.084C3408.73,-414.059 3405.17,-401.616 3398.08,-392.22 3388.26,-379.19 3377.09,-386.264 3366.08,-374.22 3346.35,-352.638 3362.74,-331.406 3339.08,-314.22 3296.4,-283.215 2520.01,-249.299 2289.86,-239.891"/>
<polygon fill="black" stroke="black" points="2289.78,-236.385 2279.64,-239.475 2289.49,-243.379 2289.78,-236.385"/>
<text text-anchor="middle" x="3410.08" y="-340.52" font-family="Times,serif" font-size="14.00"> static(supports)</text>
</g>
<!-- n9&#45;&gt;n23 -->
<g id="edge20" class="edge"><title>n9&#45;&gt;n23</title>
<path fill="none" stroke="black" d="M3432.33,-426.902C3453.78,-398.158 3481.56,-349.639 3458.08,-314.22 3437.29,-282.844 3416.55,-290.551 3380.08,-281.22 3248.73,-247.612 3088.84,-239.555 3004.57,-237.749"/>
<polygon fill="black" stroke="black" points="3004.49,-234.246 2994.42,-237.554 3004.35,-241.245 3004.49,-234.246"/>
<text text-anchor="middle" x="3510.08" y="-340.52" font-family="Times,serif" font-size="14.00"> static(supports)</text>
</g>
<!-- n10 -->
<g id="node10" class="node"><title>n10</title>
<ellipse fill="none" stroke="black" cx="2640.08" cy="-344.22" rx="62.8651" ry="26.7407"/>
<text text-anchor="middle" x="2640.08" y="-348.02" font-family="Times,serif" font-size="14.00">&lt;objective3&gt;</text>
<text text-anchor="middle" x="2640.08" y="-333.02" font-family="Times,serif" font-size="14.00">objective</text>
</g>
<!-- n10&#45;&gt;n6 -->
<g id="edge37" class="edge"><title>n10&#45;&gt;n6</title>
<path fill="none" stroke="black" d="M2582.57,-333.286C2541.36,-326.619 2484.48,-318.331 2434.08,-314.22 2347.13,-307.127 1731.17,-325.776 1649.08,-296.22 1638.96,-292.576 1640.14,-285.049 1630.08,-281.22 1567.05,-257.218 1394.33,-268.438 1327.08,-263.22 1259.71,-257.993 1183.03,-250.497 1128.65,-244.919"/>
<polygon fill="black" stroke="black" points="1128.73,-241.408 1118.42,-243.865 1128.01,-248.372 1128.73,-241.408"/>
<text text-anchor="middle" x="1705.08" y="-285.02" font-family="Times,serif" font-size="14.00"> static(visible_from)</text>
</g>
<!-- n10&#45;&gt;n19 -->
<g id="edge43" class="edge"><title>n10&#45;&gt;n19</title>
<path fill="none" stroke="black" d="M2637.28,-317.16C2634.51,-304.367 2629,-289.88 2618.08,-281.22 2568.73,-242.068 2387.83,-236.533 2289.97,-236.517"/>
<polygon fill="black" stroke="black" points="2289.9,-233.017 2279.9,-236.535 2289.91,-240.017 2289.9,-233.017"/>
<text text-anchor="middle" x="2722.08" y="-285.02" font-family="Times,serif" font-size="14.00"> end(communicated_image_data)</text>
</g>
<!-- n10&#45;&gt;n23 -->
<g id="edge17" class="edge"><title>n10&#45;&gt;n23</title>
<path fill="none" stroke="black" d="M2689.98,-327.773C2705.63,-323.152 2723.01,-318.249 2739.08,-314.22 2776.96,-304.724 2789,-311.143 2825.08,-296.22 2836.36,-291.557 2837.37,-287.065 2848.08,-281.22 2864.09,-272.489 2882.17,-264.026 2898.4,-256.901"/>
<polygon fill="black" stroke="black" points="2899.93,-260.053 2907.72,-252.868 2897.15,-253.629 2899.93,-260.053"/>
<text text-anchor="middle" x="2940.08" y="-285.02" font-family="Times,serif" font-size="14.00"> end(communicated_image_data)</text>
</g>
<!-- n11 -->
<g id="node11" class="node"><title>n11</title>
<ellipse fill="none" stroke="black" cx="2226.08" cy="-452.09" rx="56.6372" ry="26.7407"/>
<text text-anchor="middle" x="2226.08" y="-455.89" font-family="Times,serif" font-size="14.00">&lt;camera3&gt;</text>
<text text-anchor="middle" x="2226.08" y="-440.89" font-family="Times,serif" font-size="14.00">camera</text>
</g>
<!-- n11&#45;&gt;n4 -->
<g id="edge13" class="edge"><title>n11&#45;&gt;n4</title>
<path fill="none" stroke="black" d="M2169.68,-449.451C1865.94,-440.536 437.123,-397.421 398.084,-374.22 371.35,-358.333 388.148,-331.183 362.084,-314.22 307.656,-278.798 275.567,-324.449 217.084,-296.22 204.097,-289.952 192.197,-279.752 182.479,-269.589"/>
<polygon fill="black" stroke="black" points="184.804,-266.943 175.491,-261.891 179.621,-271.648 184.804,-266.943"/>
<text text-anchor="middle" x="442.084" y="-340.52" font-family="Times,serif" font-size="14.00"> static(supports)</text>
</g>
<!-- n11&#45;&gt;n17 -->
<g id="edge24" class="edge"><title>n11&#45;&gt;n17</title>
<path fill="none" stroke="black" d="M2281.98,-447.596C2370.75,-441.522 2539.68,-427.678 2596.08,-407.22 2607.56,-403.059 2607.47,-395.982 2619.08,-392.22 2697.18,-366.916 2907.56,-390.231 2988.08,-374.22 2999.19,-372.012 3010.82,-368.57 3021.69,-364.817"/>
<polygon fill="black" stroke="black" points="3023.2,-367.993 3031.42,-361.31 3020.83,-361.407 3023.2,-367.993"/>
<text text-anchor="middle" x="2665.58" y="-396.02" font-family="Times,serif" font-size="14.00"> static(on_board)</text>
</g>
<!-- n18 -->
<g id="node18" class="node"><title>n18</title>
<ellipse fill="none" stroke="black" cx="2362.08" cy="-344.22" rx="62.8651" ry="26.7407"/>
<text text-anchor="middle" x="2362.08" y="-348.02" font-family="Times,serif" font-size="14.00">&lt;objective6&gt;</text>
<text text-anchor="middle" x="2362.08" y="-333.02" font-family="Times,serif" font-size="14.00">objective</text>
</g>
<!-- n11&#45;&gt;n18 -->
<g id="edge44" class="edge"><title>n11&#45;&gt;n18</title>
<path fill="none" stroke="black" d="M2220.18,-425.155C2219.15,-414.015 2220.15,-401.461 2227.08,-392.22 2243.28,-370.627 2259.55,-382.981 2285.08,-374.22 2292.14,-371.798 2299.53,-369.156 2306.81,-366.486"/>
<polygon fill="black" stroke="black" points="2308.48,-369.6 2316.64,-362.844 2306.05,-363.036 2308.48,-369.6"/>
<text text-anchor="middle" x="2295.58" y="-396.02" font-family="Times,serif" font-size="14.00"> static(calibration_target)</text>
</g>
<!-- n12 -->
<g id="node12" class="node"><title>n12</title>
<ellipse fill="none" stroke="black" cx="3186.08" cy="-452.09" rx="67.3507" ry="26.7407"/>
<text text-anchor="middle" x="3186.08" y="-455.89" font-family="Times,serif" font-size="14.00">&lt;rover0store&gt;</text>
<text text-anchor="middle" x="3186.08" y="-440.89" font-family="Times,serif" font-size="14.00">store</text>
</g>
<!-- n12&#45;&gt;n12 -->
<g id="edge5" class="edge"><title>n12&#45;&gt;n12</title>
<path fill="none" stroke="black" d="M3249.23,-461.468C3262.07,-460.447 3271.26,-457.321 3271.26,-452.09 3271.26,-448.413 3266.71,-445.775 3259.55,-444.179"/>
<polygon fill="black" stroke="black" points="3259.62,-440.653 3249.23,-442.712 3258.64,-447.584 3259.62,-440.653"/>
<text text-anchor="middle" x="3304.26" y="-448.39" font-family="Times,serif" font-size="14.00"> init(empty)</text>
</g>
<!-- n12&#45;&gt;n17 -->
<g id="edge31" class="edge"><title>n12&#45;&gt;n17</title>
<path fill="none" stroke="black" d="M3185.42,-425.101C3183.94,-413.95 3180.54,-401.403 3173.08,-392.22 3160.27,-376.435 3141.02,-365.752 3122.55,-358.619"/>
<polygon fill="black" stroke="black" points="3123.6,-355.276 3113,-355.203 3121.24,-361.867 3123.6,-355.276"/>
<text text-anchor="middle" x="3223.08" y="-396.02" font-family="Times,serif" font-size="14.00"> static(store_of)</text>
</g>
<!-- n13&#45;&gt;n6 -->
<g id="edge46" class="edge"><title>n13&#45;&gt;n6</title>
<path fill="none" stroke="black" d="M248.775,-323.55C228.963,-311.571 212.243,-295.811 226.084,-281.22 251.951,-253.951 785.04,-242.025 983.497,-238.518"/>
<polygon fill="black" stroke="black" points="983.604,-242.017 993.541,-238.343 983.481,-235.018 983.604,-242.017"/>
<text text-anchor="middle" x="282.084" y="-285.02" font-family="Times,serif" font-size="14.00"> static(visible_from)</text>
</g>
<!-- n14&#45;&gt;n6 -->
<g id="edge14" class="edge"><title>n14&#45;&gt;n6</title>
<path fill="none" stroke="black" d="M1879.95,-334.473C1834.21,-327.998 1769.26,-319.429 1712.08,-314.22 1639.17,-307.577 1452.67,-318.994 1383.08,-296.22 1371.49,-292.424 1371.5,-285.529 1360.08,-281.22 1285.18,-252.955 1193.54,-242.764 1130.77,-239.163"/>
<polygon fill="black" stroke="black" points="1130.74,-235.656 1120.57,-238.621 1130.37,-242.646 1130.74,-235.656"/>
<text text-anchor="middle" x="1439.08" y="-285.02" font-family="Times,serif" font-size="14.00"> static(visible_from)</text>
</g>
<!-- n15 -->
<g id="node15" class="node"><title>n15</title>
<ellipse fill="none" stroke="black" cx="558.084" cy="-344.22" rx="62.8651" ry="26.7407"/>
<text text-anchor="middle" x="558.084" y="-348.02" font-family="Times,serif" font-size="14.00">&lt;objective5&gt;</text>
<text text-anchor="middle" x="558.084" y="-333.02" font-family="Times,serif" font-size="14.00">objective</text>
</g>
<!-- n15&#45;&gt;n6 -->
<g id="edge49" class="edge"><title>n15&#45;&gt;n6</title>
<path fill="none" stroke="black" d="M569.242,-317.635C576.374,-304.476 586.957,-289.5 601.084,-281.22 663.961,-244.366 870.533,-237.796 982.82,-237.037"/>
<polygon fill="black" stroke="black" points="983.073,-240.536 993.054,-236.983 983.035,-233.536 983.073,-240.536"/>
<text text-anchor="middle" x="657.084" y="-285.02" font-family="Times,serif" font-size="14.00"> static(visible_from)</text>
</g>
<!-- n16 -->
<g id="node16" class="node"><title>n16</title>
<ellipse fill="none" stroke="black" cx="702.084" cy="-344.22" rx="62.8651" ry="26.7407"/>
<text text-anchor="middle" x="702.084" y="-348.02" font-family="Times,serif" font-size="14.00">&lt;objective0&gt;</text>
<text text-anchor="middle" x="702.084" y="-333.02" font-family="Times,serif" font-size="14.00">objective</text>
</g>
<!-- n16&#45;&gt;n6 -->
<g id="edge42" class="edge"><title>n16&#45;&gt;n6</title>
<path fill="none" stroke="black" d="M707.468,-317.43C711.513,-304.547 718.432,-289.896 730.084,-281.22 768.951,-252.283 899.277,-242.433 983.193,-239.08"/>
<polygon fill="black" stroke="black" points="983.58,-242.568 993.441,-238.694 983.316,-235.573 983.58,-242.568"/>
<text text-anchor="middle" x="786.084" y="-285.02" font-family="Times,serif" font-size="14.00"> static(visible_from)</text>
</g>
<!-- n17&#45;&gt;n8 -->
<g id="edge30" class="edge"><title>n17&#45;&gt;n8</title>
<path fill="none" stroke="black" d="M3075.74,-317.364C3077.44,-305.912 3077.68,-292.509 3073.08,-281.22 3056.29,-239.96 3043.25,-228.753 3003.08,-209.48 2678.09,-53.5317 1517.71,-31.486 1212.87,-28.3783"/>
<polygon fill="black" stroke="black" points="1212.85,-24.878 1202.82,-28.2796 1212.78,-31.8777 1212.85,-24.878"/>
<text text-anchor="middle" x="2974.58" y="-180.28" font-family="Times,serif" font-size="14.00"> init(at)</text>
</g>
<!-- n17&#45;&gt;n17 -->
<g id="edge6" class="edge"><title>n17&#45;&gt;n17</title>
<path fill="none" stroke="black" d="M3113.87,-354.271C3125.96,-353.74 3135.17,-350.39 3135.17,-344.22 3135.17,-339.979 3130.82,-337.07 3124.17,-335.493"/>
<polygon fill="black" stroke="black" points="3124.23,-331.973 3113.87,-334.17 3123.34,-338.916 3124.23,-331.973"/>
<text text-anchor="middle" x="3232.67" y="-363.02" font-family="Times,serif" font-size="14.00"> static(equipped_for_rock_analysis)</text>
<text text-anchor="middle" x="3232.67" y="-348.02" font-family="Times,serif" font-size="14.00">static(equipped_for_imaging)</text>
<text text-anchor="middle" x="3232.67" y="-333.02" font-family="Times,serif" font-size="14.00">init(available)</text>
<text text-anchor="middle" x="3232.67" y="-318.02" font-family="Times,serif" font-size="14.00">static(equipped_for_soil_analysis)</text>
</g>
<!-- n18&#45;&gt;n6 -->
<g id="edge26" class="edge"><title>n18&#45;&gt;n6</title>
<path fill="none" stroke="black" d="M2319.66,-324.336C2308.61,-320.232 2296.58,-316.454 2285.08,-314.22 2201.4,-297.968 1599.5,-321.468 1518.08,-296.22 1506.43,-292.606 1506.59,-285.277 1495.08,-281.22 1490.81,-279.713 1251.83,-256.299 1128.73,-244.311"/>
<polygon fill="black" stroke="black" points="1128.92,-240.813 1118.63,-243.327 1128.24,-247.78 1128.92,-240.813"/>
<text text-anchor="middle" x="1574.08" y="-285.02" font-family="Times,serif" font-size="14.00"> static(visible_from)</text>
</g>
<!-- n18&#45;&gt;n19 -->
<g id="edge27" class="edge"><title>n18&#45;&gt;n19</title>
<path fill="none" stroke="black" d="M2316.64,-325.597C2306.31,-321.731 2295.35,-317.744 2285.08,-314.22 2259.55,-305.46 2243.28,-317.814 2227.08,-296.22 2222.21,-289.723 2220.27,-281.588 2219.9,-273.457"/>
<polygon fill="black" stroke="black" points="2223.41,-273.378 2220.18,-263.285 2216.41,-273.184 2223.41,-273.378"/>
<text text-anchor="middle" x="2319.08" y="-285.02" font-family="Times,serif" font-size="14.00"> end(communicated_image_data)</text>
</g>
<!-- n18&#45;&gt;n23 -->
<g id="edge40" class="edge"><title>n18&#45;&gt;n23</title>
<path fill="none" stroke="black" d="M2386.72,-319.325C2403.96,-302.853 2424.81,-283.524 2430.08,-281.22 2510.85,-245.919 2770.61,-238.958 2887.79,-237.634"/>
<polygon fill="black" stroke="black" points="2888.04,-241.131 2898,-237.528 2887.96,-234.132 2888.04,-241.131"/>
<text text-anchor="middle" x="2522.08" y="-285.02" font-family="Times,serif" font-size="14.00"> end(communicated_image_data)</text>
</g>
<!-- n20 -->
<g id="node20" class="node"><title>n20</title>
<ellipse fill="none" stroke="black" cx="2886.08" cy="-452.09" rx="56.6372" ry="26.7407"/>
<text text-anchor="middle" x="2886.08" y="-455.89" font-family="Times,serif" font-size="14.00">&lt;camera2&gt;</text>
<text text-anchor="middle" x="2886.08" y="-440.89" font-family="Times,serif" font-size="14.00">camera</text>
</g>
<!-- n20&#45;&gt;n7 -->
<g id="edge48" class="edge"><title>n20&#45;&gt;n7</title>
<path fill="none" stroke="black" d="M2835.1,-440.259C2805.18,-432.936 2767.09,-421.911 2735.08,-407.22 2723.99,-402.129 2723.75,-395.79 2712.08,-392.22 2651.3,-373.629 1631.47,-378.9 1568.08,-374.22 1517.27,-370.469 1460.22,-362.801 1417.09,-356.292"/>
<polygon fill="black" stroke="black" points="1417.41,-352.801 1406.99,-354.752 1416.35,-359.72 1417.41,-352.801"/>
<text text-anchor="middle" x="2803.58" y="-396.02" font-family="Times,serif" font-size="14.00"> static(calibration_target)</text>
</g>
<!-- n20&#45;&gt;n17 -->
<g id="edge11" class="edge"><title>n20&#45;&gt;n17</title>
<path fill="none" stroke="black" d="M2939.91,-443.648C2983.82,-436.464 3041.11,-424.177 3057.08,-407.22 3063.65,-400.245 3067.14,-390.807 3068.87,-381.401"/>
<polygon fill="black" stroke="black" points="3072.36,-381.682 3070.14,-371.324 3065.42,-380.811 3072.36,-381.682"/>
<text text-anchor="middle" x="3111.58" y="-396.02" font-family="Times,serif" font-size="14.00"> static(on_board)</text>
</g>
<!-- n20&#45;&gt;n23 -->
<g id="edge18" class="edge"><title>n20&#45;&gt;n23</title>
<path fill="none" stroke="black" d="M2885.23,-425.14C2885.74,-393.706 2891.83,-341.577 2924.08,-314.22 2969.58,-275.637 3017.84,-341.139 3057.08,-296.22 3078.03,-272.245 3039.01,-256.472 3001.59,-247.342"/>
<polygon fill="black" stroke="black" points="3002.18,-243.884 2991.65,-245.052 3000.61,-250.706 3002.18,-243.884"/>
<text text-anchor="middle" x="2968.08" y="-340.52" font-family="Times,serif" font-size="14.00"> static(supports)</text>
</g>
<!-- n21 -->
<g id="node21" class="node"><title>n21</title>
<ellipse fill="none" stroke="black" cx="1640.08" cy="-344.22" rx="62.8651" ry="26.7407"/>
<text text-anchor="middle" x="1640.08" y="-348.02" font-family="Times,serif" font-size="14.00">&lt;objective4&gt;</text>
<text text-anchor="middle" x="1640.08" y="-333.02" font-family="Times,serif" font-size="14.00">objective</text>
</g>
<!-- n21&#45;&gt;n6 -->
<g id="edge34" class="edge"><title>n21&#45;&gt;n6</title>
<path fill="none" stroke="black" d="M1580.65,-334.893C1536.63,-328.837 1475.17,-320.614 1421.08,-314.22 1344.31,-305.145 1323.8,-311.827 1248.08,-296.22 1226.19,-291.708 1221.43,-287.831 1200.08,-281.22 1173.04,-272.846 1143.09,-263.647 1117.62,-255.846"/>
<polygon fill="black" stroke="black" points="1118.32,-252.399 1107.73,-252.818 1116.27,-259.092 1118.32,-252.399"/>
<text text-anchor="middle" x="1304.08" y="-285.02" font-family="Times,serif" font-size="14.00"> static(visible_from)</text>
</g>
<!-- n21&#45;&gt;n19 -->
<g id="edge10" class="edge"><title>n21&#45;&gt;n19</title>
<path fill="none" stroke="black" d="M1689.52,-327.433C1712.94,-319.253 1740.99,-308.423 1765.08,-296.22 1775.97,-290.707 1776.57,-285.277 1788.08,-281.22 1855.48,-257.465 2058.17,-245.005 2162.5,-240.015"/>
<polygon fill="black" stroke="black" points="2162.76,-243.507 2172.59,-239.541 2162.44,-236.514 2162.76,-243.507"/>
<text text-anchor="middle" x="1880.08" y="-285.02" font-family="Times,serif" font-size="14.00"> end(communicated_image_data)</text>
</g>
<!-- n22 -->
<g id="node22" class="node"><title>n22</title>
<ellipse fill="none" stroke="black" cx="846.084" cy="-344.22" rx="62.8651" ry="26.7407"/>
<text text-anchor="middle" x="846.084" y="-348.02" font-family="Times,serif" font-size="14.00">&lt;objective7&gt;</text>
<text text-anchor="middle" x="846.084" y="-333.02" font-family="Times,serif" font-size="14.00">objective</text>
</g>
<!-- n22&#45;&gt;n6 -->
<g id="edge28" class="edge"><title>n22&#45;&gt;n6</title>
<path fill="none" stroke="black" d="M842.52,-317.167C842.312,-304.846 844.433,-290.777 853.084,-281.22 870.691,-261.77 933.679,-250.286 985.06,-243.98"/>
<polygon fill="black" stroke="black" points="985.643,-247.435 995.164,-242.787 984.823,-240.483 985.643,-247.435"/>
<text text-anchor="middle" x="909.084" y="-285.02" font-family="Times,serif" font-size="14.00"> static(visible_from)</text>
</g>
</g>
</svg>
