<?xml version="1.0" encoding="UTF-8" standalone="no"?>
<!DOCTYPE svg PUBLIC "-//W3C//DTD SVG 1.1//EN"
 "http://www.w3.org/Graphics/SVG/1.1/DTD/svg11.dtd">
<!-- Generated by graphviz version 2.38.0 (20140413.2041)
 -->
<!-- Title: Struc Pages: 1 -->
<svg width="1205pt" height="505pt"
 viewBox="0.00 0.00 1204.77 504.70" xmlns="http://www.w3.org/2000/svg" xmlns:xlink="http://www.w3.org/1999/xlink">
<g id="graph0" class="graph" transform="scale(1 1) rotate(0) translate(4 500.701)">
<title>Struc</title>
<polygon fill="white" stroke="none" points="-4,4 -4,-500.701 1200.77,-500.701 1200.77,4 -4,4"/>
<!-- n1 -->
<g id="node1" class="node"><title>n1</title>
<ellipse fill="none" stroke="black" cx="73.6832" cy="-240.35" rx="63.7795" ry="26.7407"/>
<text text-anchor="middle" x="73.6832" y="-244.15" font-family="Times,serif" font-size="14.00">&lt;waypoint1&gt;</text>
<text text-anchor="middle" x="73.6832" y="-229.15" font-family="Times,serif" font-size="14.00">waypoint</text>
</g>
<!-- n1&#45;&gt;n1 -->
<g id="edge1" class="edge"><title>n1&#45;&gt;n1</title>
<path fill="none" stroke="black" d="M132.759,-250.568C145.815,-249.608 155.323,-246.202 155.323,-240.35 155.323,-236.144 150.411,-233.202 142.8,-231.523"/>
<polygon fill="black" stroke="black" points="143.145,-228.038 132.759,-230.133 142.185,-234.972 143.145,-228.038"/>
<text text-anchor="middle" x="214.323" y="-236.65" font-family="Times,serif" font-size="14.00"> init(at_rock_sample)</text>
</g>
<!-- n3 -->
<g id="node3" class="node"><title>n3</title>
<ellipse fill="none" stroke="black" cx="267.683" cy="-131.61" rx="63.7795" ry="26.7407"/>
<text text-anchor="middle" x="267.683" y="-135.41" font-family="Times,serif" font-size="14.00">&lt;waypoint0&gt;</text>
<text text-anchor="middle" x="267.683" y="-120.41" font-family="Times,serif" font-size="14.00">waypoint</text>
</g>
<!-- n1&#45;&gt;n3 -->
<g id="edge17" class="edge"><title>n1&#45;&gt;n3</title>
<path fill="none" stroke="black" d="M95.3418,-214.936C107.835,-202.056 124.452,-186.824 141.683,-176.48 144.934,-174.529 177.829,-163.094 209.19,-152.389"/>
<polygon fill="black" stroke="black" points="210.502,-155.64 218.839,-149.102 208.244,-149.014 210.502,-155.64"/>
<text text-anchor="middle" x="181.683" y="-180.28" font-family="Times,serif" font-size="14.00"> static(visible)</text>
</g>
<!-- n5 -->
<g id="node5" class="node"><title>n5</title>
<ellipse fill="none" stroke="black" cx="166.683" cy="-26.8701" rx="63.7795" ry="26.7407"/>
<text text-anchor="middle" x="166.683" y="-30.6701" font-family="Times,serif" font-size="14.00">&lt;waypoint2&gt;</text>
<text text-anchor="middle" x="166.683" y="-15.6701" font-family="Times,serif" font-size="14.00">waypoint</text>
</g>
<!-- n1&#45;&gt;n5 -->
<g id="edge8" class="edge"><title>n1&#45;&gt;n5</title>
<path fill="none" stroke="black" d="M47.4115,-215.699C20.1325,-188.178 -15.5524,-141.782 7.68318,-104.74 27.9988,-72.353 66.2456,-53.279 100.136,-42.2327"/>
<polygon fill="black" stroke="black" points="101.495,-45.4767 110.024,-39.1911 99.4364,-38.7861 101.495,-45.4767"/>
<text text-anchor="middle" x="46.6832" y="-127.91" font-family="Times,serif" font-size="14.00"> static(visible)</text>
</g>
<!-- n2 -->
<g id="node2" class="node"><title>n2</title>
<ellipse fill="none" stroke="black" cx="756.683" cy="-240.35" rx="48.1603" ry="26.7574"/>
<ellipse fill="none" stroke="black" cx="756.683" cy="-240.35" rx="52.1667" ry="30.7407"/>
<text text-anchor="middle" x="756.683" y="-244.15" font-family="Times,serif" font-size="14.00">&lt;colour&gt;</text>
<text text-anchor="middle" x="756.683" y="-229.15" font-family="Times,serif" font-size="14.00">mode</text>
</g>
<!-- n3&#45;&gt;n1 -->
<g id="edge20" class="edge"><title>n3&#45;&gt;n1</title>
<path fill="none" stroke="black" d="M252.059,-157.808C243.711,-169.475 232.51,-182.671 219.683,-191.48 196.286,-207.549 167.115,-218.53 141.013,-225.877"/>
<polygon fill="black" stroke="black" points="139.928,-222.544 131.177,-228.517 141.743,-229.305 139.928,-222.544"/>
<text text-anchor="middle" x="276.683" y="-180.28" font-family="Times,serif" font-size="14.00"> static(visible)</text>
</g>
<!-- n3&#45;&gt;n3 -->
<g id="edge2" class="edge"><title>n3&#45;&gt;n3</title>
<path fill="none" stroke="black" d="M327.488,-141.045C340.167,-140.087 349.323,-136.942 349.323,-131.61 349.323,-127.861 344.796,-125.193 337.701,-123.607"/>
<polygon fill="black" stroke="black" points="337.877,-120.097 327.488,-122.175 336.905,-127.029 337.877,-120.097"/>
<text text-anchor="middle" x="436.323" y="-135.41" font-family="Times,serif" font-size="14.00"> end(communicated_rock_data)</text>
<text text-anchor="middle" x="436.323" y="-120.41" font-family="Times,serif" font-size="14.00">init(at_rock_sample)</text>
</g>
<!-- n3&#45;&gt;n5 -->
<g id="edge21" class="edge"><title>n3&#45;&gt;n5</title>
<path fill="none" stroke="black" d="M262.288,-104.771C258.956,-93.6493 253.727,-81.0841 245.683,-71.7401 238.78,-63.7212 230.031,-56.8825 220.888,-51.1588"/>
<polygon fill="black" stroke="black" points="222.451,-48.0189 212.048,-46.0107 218.928,-54.0678 222.451,-48.0189"/>
<text text-anchor="middle" x="294.683" y="-75.5401" font-family="Times,serif" font-size="14.00"> static(visible)</text>
</g>
<!-- n4 -->
<g id="node4" class="node"><title>n4</title>
<ellipse fill="none" stroke="black" cx="781.683" cy="-465.831" rx="56.6326" ry="26.7574"/>
<ellipse fill="none" stroke="black" cx="781.683" cy="-465.831" rx="60.6372" ry="30.7407"/>
<text text-anchor="middle" x="781.683" y="-469.631" font-family="Times,serif" font-size="14.00">&lt;camera2&gt;</text>
<text text-anchor="middle" x="781.683" y="-454.631" font-family="Times,serif" font-size="14.00">camera</text>
</g>
<!-- n4&#45;&gt;n2 -->
<g id="edge19" class="edge"><title>n4&#45;&gt;n2</title>
<path fill="none" stroke="black" stroke-dasharray="5,2" d="M780.628,-434.847C779.086,-399.763 775.499,-340.005 767.683,-289.22 767.272,-286.547 766.793,-283.801 766.271,-281.042"/>
<polygon fill="black" stroke="black" points="769.669,-280.188 764.228,-271.097 762.812,-281.597 769.669,-280.188"/>
<text text-anchor="middle" x="820.683" y="-349.39" font-family="Times,serif" font-size="14.00"> static(supports)</text>
</g>
<!-- n6 -->
<g id="node6" class="node"><title>n6</title>
<ellipse fill="none" stroke="black" cx="566.683" cy="-353.09" rx="62.8691" ry="26.7574"/>
<ellipse fill="none" stroke="black" cx="566.683" cy="-353.09" rx="66.8651" ry="30.7407"/>
<text text-anchor="middle" x="566.683" y="-356.89" font-family="Times,serif" font-size="14.00">&lt;objective5&gt;</text>
<text text-anchor="middle" x="566.683" y="-341.89" font-family="Times,serif" font-size="14.00">objective</text>
</g>
<!-- n4&#45;&gt;n6 -->
<g id="edge11" class="edge"><title>n4&#45;&gt;n6</title>
<path fill="none" stroke="black" stroke-dasharray="5,2" d="M725.59,-453.708C695.949,-446.23 659.784,-434.473 630.683,-416.96 618.441,-409.593 606.755,-399.433 596.798,-389.427"/>
<polygon fill="black" stroke="black" points="599.32,-387.001 589.87,-382.211 594.27,-391.849 599.32,-387.001"/>
<text text-anchor="middle" x="699.183" y="-405.76" font-family="Times,serif" font-size="14.00"> static(calibration_target)</text>
</g>
<!-- n7 -->
<g id="node7" class="node"><title>n7</title>
<ellipse fill="none" stroke="black" cx="935.683" cy="-353.09" rx="48.1667" ry="26.7407"/>
<text text-anchor="middle" x="935.683" y="-356.89" font-family="Times,serif" font-size="14.00">&lt;rover0&gt;</text>
<text text-anchor="middle" x="935.683" y="-341.89" font-family="Times,serif" font-size="14.00">rover</text>
</g>
<!-- n4&#45;&gt;n7 -->
<g id="edge16" class="edge"><title>n4&#45;&gt;n7</title>
<path fill="none" stroke="black" d="M803.263,-436.65C813.179,-424.938 825.629,-411.81 838.683,-401.96 841.142,-400.105 866.571,-387.572 890.773,-375.796"/>
<polygon fill="black" stroke="black" points="892.473,-378.862 899.939,-371.344 889.414,-372.565 892.473,-378.862"/>
<text text-anchor="middle" x="885.183" y="-405.76" font-family="Times,serif" font-size="14.00"> static(on_board)</text>
</g>
<!-- n5&#45;&gt;n1 -->
<g id="edge18" class="edge"><title>n5&#45;&gt;n1</title>
<path fill="none" stroke="black" d="M147.991,-52.84C137.722,-67.4115 125.349,-86.4726 116.683,-104.74 101.439,-136.876 89.6699,-175.785 82.3291,-203.49"/>
<polygon fill="black" stroke="black" points="78.85,-202.964 79.7345,-213.522 85.6271,-204.717 78.85,-202.964"/>
<text text-anchor="middle" x="155.683" y="-127.91" font-family="Times,serif" font-size="14.00"> static(visible)</text>
</g>
<!-- n5&#45;&gt;n3 -->
<g id="edge13" class="edge"><title>n5&#45;&gt;n3</title>
<path fill="none" stroke="black" d="M161.256,-53.7484C160.356,-64.7496 161.34,-77.2091 167.683,-86.7401 173.074,-94.8412 190.222,-103.5 208.83,-110.966"/>
<polygon fill="black" stroke="black" points="207.748,-114.3 218.337,-114.639 210.271,-107.77 207.748,-114.3"/>
<text text-anchor="middle" x="206.683" y="-75.5401" font-family="Times,serif" font-size="14.00"> static(visible)</text>
</g>
<!-- n5&#45;&gt;n5 -->
<g id="edge3" class="edge"><title>n5&#45;&gt;n5</title>
<path fill="none" stroke="black" d="M226.488,-36.3053C239.167,-35.3472 248.323,-32.2021 248.323,-26.8701 248.323,-23.121 243.796,-20.4531 236.701,-18.8664"/>
<polygon fill="black" stroke="black" points="236.877,-15.3569 226.488,-17.4349 235.905,-22.2891 236.877,-15.3569"/>
<text text-anchor="middle" x="332.823" y="-30.6701" font-family="Times,serif" font-size="14.00"> end(communicated_soil_data)</text>
<text text-anchor="middle" x="332.823" y="-15.6701" font-family="Times,serif" font-size="14.00">init(at_soil_sample)</text>
</g>
<!-- n6&#45;&gt;n1 -->
<g id="edge7" class="edge"><title>n6&#45;&gt;n1</title>
<path fill="none" stroke="black" stroke-dasharray="5,2" d="M507.216,-338.733C414.337,-317.87 235.519,-277.703 139.108,-256.046"/>
<polygon fill="black" stroke="black" points="139.714,-252.595 129.19,-253.818 138.179,-259.425 139.714,-252.595"/>
<text text-anchor="middle" x="406.683" y="-293.02" font-family="Times,serif" font-size="14.00"> static(visible_from)</text>
</g>
<!-- n6&#45;&gt;n2 -->
<g id="edge14" class="edge"><title>n6&#45;&gt;n2</title>
<path fill="none" stroke="black" stroke-dasharray="5,2" d="M568.237,-322.119C570.356,-310.383 574.762,-297.723 583.683,-289.22 610.692,-263.477 629.689,-281.051 665.683,-271.22 677.834,-267.902 690.761,-263.932 702.942,-259.986"/>
<polygon fill="black" stroke="black" points="704.113,-263.286 712.522,-256.841 701.929,-256.635 704.113,-263.286"/>
<text text-anchor="middle" x="675.683" y="-293.02" font-family="Times,serif" font-size="14.00"> end(communicated_image_data)</text>
</g>
<!-- n6&#45;&gt;n3 -->
<g id="edge10" class="edge"><title>n6&#45;&gt;n3</title>
<path fill="none" stroke="black" d="M565.222,-322.173C562.085,-290.216 552.387,-240.048 522.683,-209.48 475.261,-160.68 398.093,-142.583 341.05,-136.017"/>
<polygon fill="black" stroke="black" points="341.316,-132.525 331.003,-134.954 340.58,-139.487 341.316,-132.525"/>
<text text-anchor="middle" x="610.683" y="-236.65" font-family="Times,serif" font-size="14.00"> static(visible_from)</text>
</g>
<!-- n7&#45;&gt;n5 -->
<g id="edge9" class="edge"><title>n7&#45;&gt;n5</title>
<path fill="none" stroke="black" d="M920.997,-327.239C901.217,-295.743 863.194,-241.688 817.683,-209.48 636.539,-81.2863 367.732,-43.3845 239.658,-32.3305"/>
<polygon fill="black" stroke="black" points="239.823,-28.8322 229.567,-31.4902 239.242,-35.8081 239.823,-28.8322"/>
<text text-anchor="middle" x="809.183" y="-180.28" font-family="Times,serif" font-size="14.00"> init(at)</text>
</g>
<!-- n7&#45;&gt;n7 -->
<g id="edge4" class="edge"><title>n7&#45;&gt;n7</title>
<path fill="none" stroke="black" d="M980.158,-363.526C992.406,-363.022 1001.77,-359.544 1001.77,-353.09 1001.77,-348.553 997.139,-345.486 990.133,-343.89"/>
<polygon fill="black" stroke="black" points="990.512,-340.41 980.158,-342.654 989.652,-347.357 990.512,-340.41"/>
<text text-anchor="middle" x="1099.27" y="-371.89" font-family="Times,serif" font-size="14.00"> static(equipped_for_rock_analysis)</text>
<text text-anchor="middle" x="1099.27" y="-356.89" font-family="Times,serif" font-size="14.00">static(equipped_for_imaging)</text>
<text text-anchor="middle" x="1099.27" y="-341.89" font-family="Times,serif" font-size="14.00">init(available)</text>
<text text-anchor="middle" x="1099.27" y="-326.89" font-family="Times,serif" font-size="14.00">static(equipped_for_soil_analysis)</text>
</g>
<!-- n8 -->
<g id="node8" class="node"><title>n8</title>
<ellipse fill="none" stroke="black" cx="342.683" cy="-240.35" rx="51.7379" ry="26.7407"/>
<text text-anchor="middle" x="342.683" y="-244.15" font-family="Times,serif" font-size="14.00">&lt;general&gt;</text>
<text text-anchor="middle" x="342.683" y="-229.15" font-family="Times,serif" font-size="14.00">lander</text>
</g>
<!-- n8&#45;&gt;n3 -->
<g id="edge15" class="edge"><title>n8&#45;&gt;n3</title>
<path fill="none" stroke="black" d="M337.016,-213.386C333.581,-201.431 328.346,-187.491 320.683,-176.48 317.056,-171.269 312.651,-166.33 307.946,-161.776"/>
<polygon fill="black" stroke="black" points="310.146,-159.047 300.375,-154.951 305.459,-164.246 310.146,-159.047"/>
<text text-anchor="middle" x="375.683" y="-180.28" font-family="Times,serif" font-size="14.00"> static(at_lander)</text>
</g>
<!-- n8&#45;&gt;n8 -->
<g id="edge5" class="edge"><title>n8&#45;&gt;n8</title>
<path fill="none" stroke="black" d="M390.515,-250.742C402.936,-250.103 412.302,-246.639 412.302,-240.35 412.302,-235.928 407.672,-232.903 400.605,-231.274"/>
<polygon fill="black" stroke="black" points="400.884,-227.781 390.515,-229.959 399.979,-234.723 400.884,-227.781"/>
<text text-anchor="middle" x="462.802" y="-236.65" font-family="Times,serif" font-size="14.00"> init(channel_free)</text>
</g>
<!-- n9 -->
<g id="node9" class="node"><title>n9</title>
<ellipse fill="none" stroke="black" cx="935.683" cy="-465.831" rx="67.3507" ry="26.7407"/>
<text text-anchor="middle" x="935.683" y="-469.631" font-family="Times,serif" font-size="14.00">&lt;rover0store&gt;</text>
<text text-anchor="middle" x="935.683" y="-454.631" font-family="Times,serif" font-size="14.00">store</text>
</g>
<!-- n9&#45;&gt;n7 -->
<g id="edge12" class="edge"><title>n9&#45;&gt;n7</title>
<path fill="none" stroke="black" d="M935.683,-438.867C935.683,-424.393 935.683,-406.143 935.683,-390.286"/>
<polygon fill="black" stroke="black" points="939.183,-390.275 935.683,-380.275 932.183,-390.275 939.183,-390.275"/>
<text text-anchor="middle" x="978.683" y="-405.76" font-family="Times,serif" font-size="14.00"> static(store_of)</text>
</g>
<!-- n9&#45;&gt;n9 -->
<g id="edge6" class="edge"><title>n9&#45;&gt;n9</title>
<path fill="none" stroke="black" d="M998.078,-475.991C1011.31,-474.96 1020.86,-471.573 1020.86,-465.831 1020.86,-461.658 1015.82,-458.73 1007.98,-457.044"/>
<polygon fill="black" stroke="black" points="1008.46,-453.577 998.078,-455.67 1007.5,-460.511 1008.46,-453.577"/>
<text text-anchor="middle" x="1053.86" y="-462.131" font-family="Times,serif" font-size="14.00"> init(empty)</text>
</g>
</g>
</svg>
