<?xml version="1.0" encoding="UTF-8" standalone="no"?>
<!DOCTYPE svg PUBLIC "-//W3C//DTD SVG 1.1//EN"
 "http://www.w3.org/Graphics/SVG/1.1/DTD/svg11.dtd">
<!-- Generated by graphviz version 2.38.0 (20140413.2041)
 -->
<!-- Title: Struc Pages: 1 -->
<svg width="2899pt" height="487pt"
 viewBox="0.00 0.00 2899.01 486.96" xmlns="http://www.w3.org/2000/svg" xmlns:xlink="http://www.w3.org/1999/xlink">
<g id="graph0" class="graph" transform="scale(1 1) rotate(0) translate(4 482.96)">
<title>Struc</title>
<polygon fill="white" stroke="none" points="-4,4 -4,-482.96 2895.01,-482.96 2895.01,4 -4,4"/>
<!-- n1 -->
<g id="node1" class="node"><title>n1</title>
<ellipse fill="none" stroke="black" cx="1474.01" cy="-344.22" rx="51.7379" ry="26.7407"/>
<text text-anchor="middle" x="1474.01" y="-348.02" font-family="Times,serif" font-size="14.00">&lt;general&gt;</text>
<text text-anchor="middle" x="1474.01" y="-333.02" font-family="Times,serif" font-size="14.00">lander</text>
</g>
<!-- n1&#45;&gt;n1 -->
<g id="edge1" class="edge"><title>n1&#45;&gt;n1</title>
<path fill="none" stroke="black" d="M1522.17,-354.224C1534.43,-353.567 1543.63,-350.232 1543.63,-344.22 1543.63,-339.993 1539.08,-337.09 1532.12,-335.51"/>
<polygon fill="black" stroke="black" points="1532.54,-332.035 1522.17,-334.216 1531.63,-338.976 1532.54,-332.035"/>
<text text-anchor="middle" x="1594.13" y="-340.52" font-family="Times,serif" font-size="14.00"> init(channel_free)</text>
</g>
<!-- n6 -->
<g id="node6" class="node"><title>n6</title>
<ellipse fill="none" stroke="black" cx="1674.01" cy="-236.35" rx="63.7795" ry="26.7407"/>
<text text-anchor="middle" x="1674.01" y="-240.15" font-family="Times,serif" font-size="14.00">&lt;waypoint0&gt;</text>
<text text-anchor="middle" x="1674.01" y="-225.15" font-family="Times,serif" font-size="14.00">waypoint</text>
</g>
<!-- n1&#45;&gt;n6 -->
<g id="edge45" class="edge"><title>n1&#45;&gt;n6</title>
<path fill="none" stroke="black" d="M1522.61,-334.923C1559.86,-328.726 1612.6,-320.312 1659.01,-314.22 1696.68,-309.277 1803.6,-324.461 1829.01,-296.22 1857.86,-264.155 1799.84,-249.458 1746.75,-242.783"/>
<polygon fill="black" stroke="black" points="1746.91,-239.278 1736.57,-241.589 1746.1,-246.23 1746.91,-239.278"/>
<text text-anchor="middle" x="1883.01" y="-285.02" font-family="Times,serif" font-size="14.00"> static(at_lander)</text>
</g>
<!-- n2 -->
<g id="node2" class="node"><title>n2</title>
<ellipse fill="none" stroke="black" cx="1831.01" cy="-452.09" rx="56.6372" ry="26.7407"/>
<text text-anchor="middle" x="1831.01" y="-455.89" font-family="Times,serif" font-size="14.00">&lt;camera1&gt;</text>
<text text-anchor="middle" x="1831.01" y="-440.89" font-family="Times,serif" font-size="14.00">camera</text>
</g>
<!-- n4 -->
<g id="node4" class="node"><title>n4</title>
<ellipse fill="none" stroke="black" cx="2173.01" cy="-236.35" rx="56.6372" ry="26.7407"/>
<text text-anchor="middle" x="2173.01" y="-240.15" font-family="Times,serif" font-size="14.00">&lt;high_res&gt;</text>
<text text-anchor="middle" x="2173.01" y="-225.15" font-family="Times,serif" font-size="14.00">mode</text>
</g>
<!-- n2&#45;&gt;n4 -->
<g id="edge48" class="edge"><title>n2&#45;&gt;n4</title>
<path fill="none" stroke="black" d="M1881.92,-440.04C1914.91,-432.274 1958.55,-420.857 1996.01,-407.22 2010.77,-401.848 2012.85,-396.316 2028.01,-392.22 2071.31,-380.526 2190.33,-396.904 2229.01,-374.22 2256.87,-357.883 2249.06,-338.799 2270.01,-314.22 2277.56,-305.368 2284.42,-306.906 2289.01,-296.22 2291.65,-290.096 2292.8,-286.705 2289.01,-281.22 2276.97,-263.79 2257.05,-253.278 2237.08,-246.94"/>
<polygon fill="black" stroke="black" points="2237.89,-243.531 2227.31,-244.153 2235.97,-250.262 2237.89,-243.531"/>
<text text-anchor="middle" x="2314.01" y="-340.52" font-family="Times,serif" font-size="14.00"> static(supports)</text>
</g>
<!-- n9 -->
<g id="node9" class="node"><title>n9</title>
<ellipse fill="none" stroke="black" cx="413.013" cy="-344.22" rx="62.8651" ry="26.7407"/>
<text text-anchor="middle" x="413.013" y="-348.02" font-family="Times,serif" font-size="14.00">&lt;objective1&gt;</text>
<text text-anchor="middle" x="413.013" y="-333.02" font-family="Times,serif" font-size="14.00">objective</text>
</g>
<!-- n2&#45;&gt;n9 -->
<g id="edge31" class="edge"><title>n2&#45;&gt;n9</title>
<path fill="none" stroke="black" d="M1776.54,-444.261C1727.76,-438.378 1654.21,-430.088 1590.01,-425.22 1410.35,-411.598 1363.69,-430.441 1185.01,-407.22 1153.89,-403.176 1147.17,-396.021 1116.01,-392.22 977.869,-375.366 626.558,-401.114 490.013,-374.22 481.942,-372.631 473.606,-370.289 465.532,-367.614"/>
<polygon fill="black" stroke="black" points="466.445,-364.224 455.85,-364.213 464.125,-370.829 466.445,-364.224"/>
<text text-anchor="middle" x="1253.51" y="-396.02" font-family="Times,serif" font-size="14.00"> static(calibration_target)</text>
</g>
<!-- n16 -->
<g id="node16" class="node"><title>n16</title>
<ellipse fill="none" stroke="black" cx="1959.01" cy="-344.22" rx="48.1667" ry="26.7407"/>
<text text-anchor="middle" x="1959.01" y="-348.02" font-family="Times,serif" font-size="14.00">&lt;rover0&gt;</text>
<text text-anchor="middle" x="1959.01" y="-333.02" font-family="Times,serif" font-size="14.00">rover</text>
</g>
<!-- n2&#45;&gt;n16 -->
<g id="edge10" class="edge"><title>n2&#45;&gt;n16</title>
<path fill="none" stroke="black" d="M1858.47,-428.379C1877.93,-412.287 1904.16,-390.592 1924.95,-373.397"/>
<polygon fill="black" stroke="black" points="1927.44,-375.881 1932.91,-366.81 1922.97,-370.487 1927.44,-375.881"/>
<text text-anchor="middle" x="1945.51" y="-396.02" font-family="Times,serif" font-size="14.00"> static(on_board)</text>
</g>
<!-- n22 -->
<g id="node22" class="node"><title>n22</title>
<ellipse fill="none" stroke="black" cx="760.013" cy="-236.35" rx="48.1667" ry="26.7407"/>
<text text-anchor="middle" x="760.013" y="-240.15" font-family="Times,serif" font-size="14.00">&lt;colour&gt;</text>
<text text-anchor="middle" x="760.013" y="-225.15" font-family="Times,serif" font-size="14.00">mode</text>
</g>
<!-- n2&#45;&gt;n22 -->
<g id="edge24" class="edge"><title>n2&#45;&gt;n22</title>
<path fill="none" stroke="black" d="M1801.58,-428.88C1781.14,-413.949 1755.42,-396.28 1743.01,-392.22 1698.83,-377.76 1360.99,-403.657 1325.01,-374.22 1292.06,-347.259 1334.45,-308.798 1302.01,-281.22 1265.82,-250.449 951.424,-240.945 818.719,-238.288"/>
<polygon fill="black" stroke="black" points="818.413,-234.782 808.347,-238.087 818.277,-241.781 818.413,-234.782"/>
<text text-anchor="middle" x="1369.01" y="-340.52" font-family="Times,serif" font-size="14.00"> static(supports)</text>
</g>
<!-- n3 -->
<g id="node3" class="node"><title>n3</title>
<ellipse fill="none" stroke="black" cx="1524.01" cy="-452.09" rx="56.6372" ry="26.7407"/>
<text text-anchor="middle" x="1524.01" y="-455.89" font-family="Times,serif" font-size="14.00">&lt;camera4&gt;</text>
<text text-anchor="middle" x="1524.01" y="-440.89" font-family="Times,serif" font-size="14.00">camera</text>
</g>
<!-- n3&#45;&gt;n4 -->
<g id="edge18" class="edge"><title>n3&#45;&gt;n4</title>
<path fill="none" stroke="black" d="M1578.09,-443.598C1617.79,-436.974 1672.5,-425.472 1718.01,-407.22 1724.63,-404.568 1767.83,-379.109 1773.01,-374.22 1796.52,-352.066 1786.24,-330.701 1814.01,-314.22 1883.16,-273.195 1917.1,-319.652 1994.01,-296.22 2007.52,-292.106 2008.94,-286.552 2022.01,-281.22 2051.3,-269.277 2085,-259.16 2113.12,-251.661"/>
<polygon fill="black" stroke="black" points="2114.03,-255.04 2122.82,-249.119 2112.26,-248.269 2114.03,-255.04"/>
<text text-anchor="middle" x="1858.01" y="-340.52" font-family="Times,serif" font-size="14.00"> static(supports)</text>
</g>
<!-- n13 -->
<g id="node13" class="node"><title>n13</title>
<ellipse fill="none" stroke="black" cx="1217.01" cy="-344.22" rx="62.8651" ry="26.7407"/>
<text text-anchor="middle" x="1217.01" y="-348.02" font-family="Times,serif" font-size="14.00">&lt;objective0&gt;</text>
<text text-anchor="middle" x="1217.01" y="-333.02" font-family="Times,serif" font-size="14.00">objective</text>
</g>
<!-- n3&#45;&gt;n13 -->
<g id="edge21" class="edge"><title>n3&#45;&gt;n13</title>
<path fill="none" stroke="black" d="M1470.83,-442.523C1435.35,-435.668 1388.19,-424.332 1349.01,-407.22 1337.83,-402.336 1336.77,-397.991 1326.01,-392.22 1308.93,-383.053 1289.68,-374.277 1272.17,-366.841"/>
<polygon fill="black" stroke="black" points="1273.22,-363.486 1262.64,-362.854 1270.51,-369.943 1273.22,-363.486"/>
<text text-anchor="middle" x="1417.51" y="-396.02" font-family="Times,serif" font-size="14.00"> static(calibration_target)</text>
</g>
<!-- n3&#45;&gt;n16 -->
<g id="edge50" class="edge"><title>n3&#45;&gt;n16</title>
<path fill="none" stroke="black" d="M1576.92,-442.578C1622.17,-434.837 1688.85,-422.331 1746.01,-407.22 1766.39,-401.833 1770.56,-397.333 1791.01,-392.22 1837.37,-380.631 1851.4,-388.472 1897.01,-374.22 1903.12,-372.313 1909.39,-369.926 1915.5,-367.346"/>
<polygon fill="black" stroke="black" points="1917.19,-370.426 1924.91,-363.172 1914.35,-364.027 1917.19,-370.426"/>
<text text-anchor="middle" x="1837.51" y="-396.02" font-family="Times,serif" font-size="14.00"> static(on_board)</text>
</g>
<!-- n18 -->
<g id="node18" class="node"><title>n18</title>
<ellipse fill="none" stroke="black" cx="101.013" cy="-236.35" rx="53.9813" ry="26.7407"/>
<text text-anchor="middle" x="101.013" y="-240.15" font-family="Times,serif" font-size="14.00">&lt;low_res&gt;</text>
<text text-anchor="middle" x="101.013" y="-225.15" font-family="Times,serif" font-size="14.00">mode</text>
</g>
<!-- n3&#45;&gt;n18 -->
<g id="edge44" class="edge"><title>n3&#45;&gt;n18</title>
<path fill="none" stroke="black" d="M1470.34,-443.045C1430.52,-436.118 1375.35,-424.48 1329.01,-407.22 1315.78,-402.293 1314.66,-395.842 1301.01,-392.22 1265.29,-382.739 666.023,-395.791 636.013,-374.22 612.95,-357.643 636.755,-331.236 614.013,-314.22 564.978,-277.531 397.894,-313.062 339.013,-296.22 325.44,-292.338 324.28,-286.046 311.013,-281.22 262.569,-263.599 205.125,-252.208 162.573,-245.462"/>
<polygon fill="black" stroke="black" points="163.055,-241.995 152.638,-243.928 161.987,-248.913 163.055,-241.995"/>
<text text-anchor="middle" x="680.013" y="-340.52" font-family="Times,serif" font-size="14.00"> static(supports)</text>
</g>
<!-- n5 -->
<g id="node5" class="node"><title>n5</title>
<ellipse fill="none" stroke="black" cx="1470.01" cy="-131.61" rx="63.7795" ry="26.7407"/>
<text text-anchor="middle" x="1470.01" y="-135.41" font-family="Times,serif" font-size="14.00">&lt;waypoint1&gt;</text>
<text text-anchor="middle" x="1470.01" y="-120.41" font-family="Times,serif" font-size="14.00">waypoint</text>
</g>
<!-- n5&#45;&gt;n5 -->
<g id="edge2" class="edge"><title>n5&#45;&gt;n5</title>
<path fill="none" stroke="black" d="M1529.82,-141.045C1542.5,-140.087 1551.65,-136.942 1551.65,-131.61 1551.65,-127.861 1547.13,-125.193 1540.03,-123.607"/>
<polygon fill="black" stroke="black" points="1540.21,-120.097 1529.82,-122.175 1539.24,-127.029 1540.21,-120.097"/>
<text text-anchor="middle" x="1610.65" y="-127.91" font-family="Times,serif" font-size="14.00"> init(at_rock_sample)</text>
</g>
<!-- n5&#45;&gt;n6 -->
<g id="edge16" class="edge"><title>n5&#45;&gt;n6</title>
<path fill="none" stroke="black" d="M1479.02,-158.44C1484.32,-170.109 1492.15,-183.124 1503.01,-191.48 1531.09,-213.067 1568.65,-224.105 1601.43,-229.718"/>
<polygon fill="black" stroke="black" points="1601.01,-233.195 1611.43,-231.292 1602.09,-226.28 1601.01,-233.195"/>
<text text-anchor="middle" x="1542.01" y="-180.28" font-family="Times,serif" font-size="14.00"> static(visible)</text>
</g>
<!-- n7 -->
<g id="node7" class="node"><title>n7</title>
<ellipse fill="none" stroke="black" cx="1706.01" cy="-26.8701" rx="63.7795" ry="26.7407"/>
<text text-anchor="middle" x="1706.01" y="-30.6701" font-family="Times,serif" font-size="14.00">&lt;waypoint2&gt;</text>
<text text-anchor="middle" x="1706.01" y="-15.6701" font-family="Times,serif" font-size="14.00">waypoint</text>
</g>
<!-- n5&#45;&gt;n7 -->
<g id="edge26" class="edge"><title>n5&#45;&gt;n7</title>
<path fill="none" stroke="black" d="M1478.75,-104.895C1484.01,-93.106 1491.89,-79.9564 1503.01,-71.7401 1540.12,-44.3237 1590.84,-33.354 1632.3,-29.2395"/>
<polygon fill="black" stroke="black" points="1632.7,-32.7181 1642.36,-28.3562 1632.09,-25.7449 1632.7,-32.7181"/>
<text text-anchor="middle" x="1542.01" y="-75.5401" font-family="Times,serif" font-size="14.00"> static(visible)</text>
</g>
<!-- n6&#45;&gt;n5 -->
<g id="edge38" class="edge"><title>n6&#45;&gt;n5</title>
<path fill="none" stroke="black" d="M1641.76,-212.817C1624.25,-201.139 1601.96,-187.132 1581.01,-176.48 1564.1,-167.883 1545.09,-159.824 1527.65,-153.019"/>
<polygon fill="black" stroke="black" points="1528.73,-149.685 1518.14,-149.371 1526.22,-156.221 1528.73,-149.685"/>
<text text-anchor="middle" x="1647.01" y="-180.28" font-family="Times,serif" font-size="14.00"> static(visible)</text>
</g>
<!-- n6&#45;&gt;n6 -->
<g id="edge3" class="edge"><title>n6&#45;&gt;n6</title>
<path fill="none" stroke="black" d="M1733.82,-245.785C1746.5,-244.827 1755.65,-241.682 1755.65,-236.35 1755.65,-232.601 1751.13,-229.933 1744.03,-228.347"/>
<polygon fill="black" stroke="black" points="1744.21,-224.837 1733.82,-226.915 1743.24,-231.769 1744.21,-224.837"/>
<text text-anchor="middle" x="1842.65" y="-240.15" font-family="Times,serif" font-size="14.00"> end(communicated_rock_data)</text>
<text text-anchor="middle" x="1842.65" y="-225.15" font-family="Times,serif" font-size="14.00">init(at_rock_sample)</text>
</g>
<!-- n6&#45;&gt;n7 -->
<g id="edge8" class="edge"><title>n6&#45;&gt;n7</title>
<path fill="none" stroke="black" d="M1684.59,-209.695C1686.68,-203.795 1688.65,-197.488 1690.01,-191.48 1699.81,-148.413 1703.61,-97.628 1705.08,-64.1931"/>
<polygon fill="black" stroke="black" points="1708.59,-64.1089 1705.48,-53.9791 1701.59,-63.8339 1708.59,-64.1089"/>
<text text-anchor="middle" x="1742.01" y="-127.91" font-family="Times,serif" font-size="14.00"> static(visible)</text>
</g>
<!-- n7&#45;&gt;n5 -->
<g id="edge53" class="edge"><title>n7&#45;&gt;n5</title>
<path fill="none" stroke="black" d="M1664.89,-47.5813C1634.96,-61.8661 1596.97,-79.8355 1581.01,-86.7401 1563.28,-94.4103 1543.74,-102.312 1526.06,-109.26"/>
<polygon fill="black" stroke="black" points="1524.5,-106.114 1516.46,-113.014 1527.05,-112.634 1524.5,-106.114"/>
<text text-anchor="middle" x="1653.01" y="-75.5401" font-family="Times,serif" font-size="14.00"> static(visible)</text>
</g>
<!-- n7&#45;&gt;n6 -->
<g id="edge34" class="edge"><title>n7&#45;&gt;n6</title>
<path fill="none" stroke="black" d="M1739.18,-50.0213C1756.35,-63.5582 1775.63,-82.5269 1785.01,-104.74 1794.3,-126.744 1796.1,-137.323 1785.01,-158.48 1772.73,-181.931 1749.68,-199.652 1727.75,-212.134"/>
<polygon fill="black" stroke="black" points="1725.91,-209.152 1718.79,-216.996 1729.25,-215.306 1725.91,-209.152"/>
<text text-anchor="middle" x="1832.01" y="-127.91" font-family="Times,serif" font-size="14.00"> static(visible)</text>
</g>
<!-- n7&#45;&gt;n7 -->
<g id="edge4" class="edge"><title>n7&#45;&gt;n7</title>
<path fill="none" stroke="black" d="M1765.82,-36.3053C1778.5,-35.3472 1787.65,-32.2021 1787.65,-26.8701 1787.65,-23.121 1783.13,-20.4531 1776.03,-18.8664"/>
<polygon fill="black" stroke="black" points="1776.21,-15.3569 1765.82,-17.4349 1775.24,-22.2891 1776.21,-15.3569"/>
<text text-anchor="middle" x="1872.15" y="-30.6701" font-family="Times,serif" font-size="14.00"> end(communicated_soil_data)</text>
<text text-anchor="middle" x="1872.15" y="-15.6701" font-family="Times,serif" font-size="14.00">init(at_soil_sample)</text>
</g>
<!-- n8 -->
<g id="node8" class="node"><title>n8</title>
<ellipse fill="none" stroke="black" cx="198.013" cy="-452.09" rx="56.6372" ry="26.7407"/>
<text text-anchor="middle" x="198.013" y="-455.89" font-family="Times,serif" font-size="14.00">&lt;camera0&gt;</text>
<text text-anchor="middle" x="198.013" y="-440.89" font-family="Times,serif" font-size="14.00">camera</text>
</g>
<!-- n8&#45;&gt;n9 -->
<g id="edge41" class="edge"><title>n8&#45;&gt;n9</title>
<path fill="none" stroke="black" d="M211.509,-425.783C219.182,-413.794 229.89,-400.351 243.013,-392.22 278.802,-370.048 295.503,-385.68 336.013,-374.22 343.552,-372.088 351.394,-369.538 359.064,-366.848"/>
<polygon fill="black" stroke="black" points="360.435,-370.074 368.652,-363.385 358.058,-363.49 360.435,-370.074"/>
<text text-anchor="middle" x="311.513" y="-396.02" font-family="Times,serif" font-size="14.00"> static(calibration_target)</text>
</g>
<!-- n8&#45;&gt;n16 -->
<g id="edge22" class="edge"><title>n8&#45;&gt;n16</title>
<path fill="none" stroke="black" d="M253.041,-445.713C308.543,-440.337 396.701,-431.926 473.013,-425.22 652.475,-409.45 697.081,-401.148 877.013,-392.22 990.225,-386.603 1786.58,-399.794 1897.01,-374.22 1903.55,-372.707 1910.21,-370.452 1916.64,-367.855"/>
<polygon fill="black" stroke="black" points="1918.06,-371.054 1925.83,-363.853 1915.26,-364.636 1918.06,-371.054"/>
<text text-anchor="middle" x="923.513" y="-396.02" font-family="Times,serif" font-size="14.00"> static(on_board)</text>
</g>
<!-- n8&#45;&gt;n18 -->
<g id="edge7" class="edge"><title>n8&#45;&gt;n18</title>
<path fill="none" stroke="black" d="M143.175,-445.053C98.9757,-436.976 39.4989,-418.132 10.0131,-374.22 -4.85258,-352.082 -1.21689,-338.407 10.0131,-314.22 19.8178,-293.103 38.5974,-275.693 56.5622,-262.814"/>
<polygon fill="black" stroke="black" points="58.993,-265.392 65.2729,-256.859 55.0423,-259.613 58.993,-265.392"/>
<text text-anchor="middle" x="54.0131" y="-340.52" font-family="Times,serif" font-size="14.00"> static(supports)</text>
</g>
<!-- n8&#45;&gt;n22 -->
<g id="edge19" class="edge"><title>n8&#45;&gt;n22</title>
<path fill="none" stroke="black" d="M205.762,-425.233C216.669,-390.279 237.007,-330.446 253.013,-314.22 259.694,-307.448 322.733,-283.313 332.013,-281.22 494.783,-244.51 545.384,-304.668 707.013,-263.22 710.44,-262.342 713.906,-261.229 717.34,-259.962"/>
<polygon fill="black" stroke="black" points="718.951,-263.084 726.87,-256.045 716.29,-256.609 718.951,-263.084"/>
<text text-anchor="middle" x="297.013" y="-340.52" font-family="Times,serif" font-size="14.00"> static(supports)</text>
</g>
<!-- n9&#45;&gt;n6 -->
<g id="edge42" class="edge"><title>n9&#45;&gt;n6</title>
<path fill="none" stroke="black" d="M455.89,-324.426C466.823,-320.374 478.689,-316.598 490.013,-314.22 562.974,-298.903 755.266,-322.552 825.013,-296.22 835.079,-292.42 833.946,-285.016 844.013,-281.22 913.66,-254.962 1410.2,-242.533 1600.26,-238.698"/>
<polygon fill="black" stroke="black" points="1600.51,-242.194 1610.44,-238.495 1600.37,-235.196 1600.51,-242.194"/>
<text text-anchor="middle" x="900.013" y="-285.02" font-family="Times,serif" font-size="14.00"> static(visible_from)</text>
</g>
<!-- n9&#45;&gt;n18 -->
<g id="edge46" class="edge"><title>n9&#45;&gt;n18</title>
<path fill="none" stroke="black" d="M369.675,-324.531C358.857,-320.528 347.158,-316.748 336.013,-314.22 290.552,-303.908 164.942,-323.322 127.013,-296.22 118.984,-290.483 113.401,-281.698 109.531,-272.65"/>
<polygon fill="black" stroke="black" points="112.812,-271.431 106.087,-263.243 106.238,-273.837 112.812,-271.431"/>
<text text-anchor="middle" x="219.013" y="-285.02" font-family="Times,serif" font-size="14.00"> end(communicated_image_data)</text>
</g>
<!-- n10 -->
<g id="node10" class="node"><title>n10</title>
<ellipse fill="none" stroke="black" cx="2640.01" cy="-452.09" rx="56.6372" ry="26.7407"/>
<text text-anchor="middle" x="2640.01" y="-455.89" font-family="Times,serif" font-size="14.00">&lt;camera3&gt;</text>
<text text-anchor="middle" x="2640.01" y="-440.89" font-family="Times,serif" font-size="14.00">camera</text>
</g>
<!-- n10&#45;&gt;n4 -->
<g id="edge14" class="edge"><title>n10&#45;&gt;n4</title>
<path fill="none" stroke="black" d="M2696.16,-448.421C2725.59,-443.814 2759.31,-432.788 2778.01,-407.22 2793.78,-385.665 2829.7,-380.72 2765.01,-314.22 2728.78,-276.97 2385.96,-250.905 2239.18,-241.363"/>
<polygon fill="black" stroke="black" points="2239.16,-237.855 2228.96,-240.705 2238.71,-244.84 2239.16,-237.855"/>
<text text-anchor="middle" x="2847.01" y="-340.52" font-family="Times,serif" font-size="14.00"> static(supports)</text>
</g>
<!-- n10&#45;&gt;n16 -->
<g id="edge25" class="edge"><title>n10&#45;&gt;n16</title>
<path fill="none" stroke="black" d="M2586.86,-442.827C2460.68,-423.211 2144.04,-373.985 2015.03,-353.929"/>
<polygon fill="black" stroke="black" points="2015.39,-350.443 2004.97,-352.365 2014.31,-357.36 2015.39,-350.443"/>
<text text-anchor="middle" x="2387.51" y="-396.02" font-family="Times,serif" font-size="14.00"> static(on_board)</text>
</g>
<!-- n17 -->
<g id="node17" class="node"><title>n17</title>
<ellipse fill="none" stroke="black" cx="2693.01" cy="-344.22" rx="62.8651" ry="26.7407"/>
<text text-anchor="middle" x="2693.01" y="-348.02" font-family="Times,serif" font-size="14.00">&lt;objective4&gt;</text>
<text text-anchor="middle" x="2693.01" y="-333.02" font-family="Times,serif" font-size="14.00">objective</text>
</g>
<!-- n10&#45;&gt;n17 -->
<g id="edge47" class="edge"><title>n10&#45;&gt;n17</title>
<path fill="none" stroke="black" d="M2636.06,-425.184C2635.54,-414.543 2636.4,-402.365 2641.01,-392.22 2643.92,-385.819 2648.17,-379.912 2653,-374.604"/>
<polygon fill="black" stroke="black" points="2655.76,-376.791 2660.4,-367.267 2650.83,-371.818 2655.76,-376.791"/>
<text text-anchor="middle" x="2709.51" y="-396.02" font-family="Times,serif" font-size="14.00"> static(calibration_target)</text>
</g>
<!-- n11 -->
<g id="node11" class="node"><title>n11</title>
<ellipse fill="none" stroke="black" cx="2047.01" cy="-452.09" rx="67.3507" ry="26.7407"/>
<text text-anchor="middle" x="2047.01" y="-455.89" font-family="Times,serif" font-size="14.00">&lt;rover0store&gt;</text>
<text text-anchor="middle" x="2047.01" y="-440.89" font-family="Times,serif" font-size="14.00">store</text>
</g>
<!-- n11&#45;&gt;n11 -->
<g id="edge5" class="edge"><title>n11&#45;&gt;n11</title>
<path fill="none" stroke="black" d="M2110.16,-461.468C2123,-460.447 2132.19,-457.321 2132.19,-452.09 2132.19,-448.413 2127.64,-445.775 2120.48,-444.179"/>
<polygon fill="black" stroke="black" points="2120.55,-440.653 2110.16,-442.712 2119.57,-447.584 2120.55,-440.653"/>
<text text-anchor="middle" x="2165.19" y="-448.39" font-family="Times,serif" font-size="14.00"> init(empty)</text>
</g>
<!-- n11&#45;&gt;n16 -->
<g id="edge37" class="edge"><title>n11&#45;&gt;n16</title>
<path fill="none" stroke="black" d="M2029.2,-425.988C2021.42,-415.364 2012.02,-402.981 2003.01,-392.22 1998.48,-386.808 1993.51,-381.206 1988.59,-375.837"/>
<polygon fill="black" stroke="black" points="1990.84,-373.124 1981.47,-368.186 1985.72,-377.892 1990.84,-373.124"/>
<text text-anchor="middle" x="2058.01" y="-396.02" font-family="Times,serif" font-size="14.00"> static(store_of)</text>
</g>
<!-- n12 -->
<g id="node12" class="node"><title>n12</title>
<ellipse fill="none" stroke="black" cx="2380.01" cy="-452.09" rx="56.6372" ry="26.7407"/>
<text text-anchor="middle" x="2380.01" y="-455.89" font-family="Times,serif" font-size="14.00">&lt;camera6&gt;</text>
<text text-anchor="middle" x="2380.01" y="-440.89" font-family="Times,serif" font-size="14.00">camera</text>
</g>
<!-- n14 -->
<g id="node14" class="node"><title>n14</title>
<ellipse fill="none" stroke="black" cx="2549.01" cy="-344.22" rx="62.8651" ry="26.7407"/>
<text text-anchor="middle" x="2549.01" y="-348.02" font-family="Times,serif" font-size="14.00">&lt;objective3&gt;</text>
<text text-anchor="middle" x="2549.01" y="-333.02" font-family="Times,serif" font-size="14.00">objective</text>
</g>
<!-- n12&#45;&gt;n14 -->
<g id="edge23" class="edge"><title>n12&#45;&gt;n14</title>
<path fill="none" stroke="black" d="M2413.4,-430.174C2439.9,-413.572 2477.15,-390.239 2505.9,-372.226"/>
<polygon fill="black" stroke="black" points="2507.92,-375.095 2514.53,-366.82 2504.2,-369.163 2507.92,-375.095"/>
<text text-anchor="middle" x="2538.51" y="-396.02" font-family="Times,serif" font-size="14.00"> static(calibration_target)</text>
</g>
<!-- n12&#45;&gt;n16 -->
<g id="edge28" class="edge"><title>n12&#45;&gt;n16</title>
<path fill="none" stroke="black" d="M2326.93,-442.331C2281.52,-434.437 2214.57,-421.846 2157.01,-407.22 2129.01,-400.103 2058.33,-377.553 2009.47,-361.711"/>
<polygon fill="black" stroke="black" points="2010.3,-358.299 1999.7,-358.539 2008.13,-364.957 2010.3,-358.299"/>
<text text-anchor="middle" x="2203.51" y="-396.02" font-family="Times,serif" font-size="14.00"> static(on_board)</text>
</g>
<!-- n12&#45;&gt;n22 -->
<g id="edge40" class="edge"><title>n12&#45;&gt;n22</title>
<path fill="none" stroke="black" d="M2384.59,-425.04C2388.47,-393.505 2389.19,-341.271 2358.01,-314.22 2336.97,-295.958 1382.19,-302.364 1355.01,-296.22 1339.3,-292.669 1337.61,-285.242 1322.01,-281.22 1227.99,-256.986 942.094,-243.964 818.245,-239.332"/>
<polygon fill="black" stroke="black" points="818.314,-235.832 808.192,-238.961 818.056,-242.827 818.314,-235.832"/>
<text text-anchor="middle" x="2430.01" y="-340.52" font-family="Times,serif" font-size="14.00"> static(supports)</text>
</g>
<!-- n13&#45;&gt;n6 -->
<g id="edge15" class="edge"><title>n13&#45;&gt;n6</title>
<path fill="none" stroke="black" d="M1259.88,-324.357C1270.81,-320.306 1282.68,-316.548 1294.01,-314.22 1337.59,-305.269 1663.27,-328.378 1694.01,-296.22 1700.55,-289.387 1700.27,-280.34 1697.08,-271.392"/>
<polygon fill="black" stroke="black" points="1700.21,-269.829 1692.86,-262.202 1693.85,-272.75 1700.21,-269.829"/>
<text text-anchor="middle" x="1756.01" y="-285.02" font-family="Times,serif" font-size="14.00"> static(visible_from)</text>
</g>
<!-- n14&#45;&gt;n4 -->
<g id="edge51" class="edge"><title>n14&#45;&gt;n4</title>
<path fill="none" stroke="black" d="M2504.1,-325.372C2493.65,-321.476 2482.5,-317.533 2472.01,-314.22 2390.31,-288.417 2294.06,-264.867 2233.29,-250.816"/>
<polygon fill="black" stroke="black" points="2234.01,-247.39 2223.48,-248.559 2232.44,-254.212 2234.01,-247.39"/>
<text text-anchor="middle" x="2500.01" y="-285.02" font-family="Times,serif" font-size="14.00"> end(communicated_image_data)</text>
</g>
<!-- n14&#45;&gt;n6 -->
<g id="edge52" class="edge"><title>n14&#45;&gt;n6</title>
<path fill="none" stroke="black" d="M2506.16,-324.332C2495.22,-320.282 2483.35,-316.531 2472.01,-314.22 2284.59,-276.029 2232.33,-315.361 2042.01,-296.22 1985.22,-290.508 1831.89,-264.703 1742.08,-249.216"/>
<polygon fill="black" stroke="black" points="1742.44,-245.727 1731.99,-247.474 1741.25,-252.625 1742.44,-245.727"/>
<text text-anchor="middle" x="2098.01" y="-285.02" font-family="Times,serif" font-size="14.00"> static(visible_from)</text>
</g>
<!-- n15 -->
<g id="node15" class="node"><title>n15</title>
<ellipse fill="none" stroke="black" cx="539.013" cy="-452.09" rx="56.6372" ry="26.7407"/>
<text text-anchor="middle" x="539.013" y="-455.89" font-family="Times,serif" font-size="14.00">&lt;camera5&gt;</text>
<text text-anchor="middle" x="539.013" y="-440.89" font-family="Times,serif" font-size="14.00">camera</text>
</g>
<!-- n15&#45;&gt;n4 -->
<g id="edge49" class="edge"><title>n15&#45;&gt;n4</title>
<path fill="none" stroke="black" d="M594.602,-446.889C667.467,-441.462 799.264,-431.917 912.013,-425.22 1073.7,-415.616 1116.72,-436.587 1276.01,-407.22 1297.16,-403.322 1300.87,-396.169 1322.01,-392.22 1358.33,-385.436 1623.54,-395.112 1654.01,-374.22 1678.13,-357.684 1657.04,-330.963 1681.01,-314.22 1727.04,-282.075 1877.55,-304.939 1933.01,-296.22 1942.06,-294.798 2045.93,-269.054 2114.02,-252.085"/>
<polygon fill="black" stroke="black" points="2114.94,-255.464 2123.79,-249.649 2113.24,-248.672 2114.94,-255.464"/>
<text text-anchor="middle" x="1725.01" y="-340.52" font-family="Times,serif" font-size="14.00"> static(supports)</text>
</g>
<!-- n15&#45;&gt;n9 -->
<g id="edge29" class="edge"><title>n15&#45;&gt;n9</title>
<path fill="none" stroke="black" d="M485.962,-442.579C447.41,-435.185 399.979,-423.157 388.013,-407.22 381.611,-398.693 383.024,-388.301 387.467,-378.481"/>
<polygon fill="black" stroke="black" points="390.545,-380.148 392.263,-369.693 384.4,-376.795 390.545,-380.148"/>
<text text-anchor="middle" x="456.513" y="-396.02" font-family="Times,serif" font-size="14.00"> static(calibration_target)</text>
</g>
<!-- n15&#45;&gt;n16 -->
<g id="edge9" class="edge"><title>n15&#45;&gt;n16</title>
<path fill="none" stroke="black" d="M594.585,-446.576C667.431,-440.809 799.208,-430.899 912.013,-425.22 975.742,-422.012 1426.07,-429.09 1486.01,-407.22 1496.12,-403.533 1494.93,-395.981 1505.01,-392.22 1586.72,-361.739 1812.34,-395.092 1897.01,-374.22 1903.52,-372.615 1910.18,-370.308 1916.6,-367.687"/>
<polygon fill="black" stroke="black" points="1918.02,-370.882 1925.78,-363.667 1915.22,-364.469 1918.02,-370.882"/>
<text text-anchor="middle" x="1551.51" y="-396.02" font-family="Times,serif" font-size="14.00"> static(on_board)</text>
</g>
<!-- n15&#45;&gt;n18 -->
<g id="edge54" class="edge"><title>n15&#45;&gt;n18</title>
<path fill="none" stroke="black" d="M482.965,-448.401C383.148,-442.376 180.663,-424.172 134.013,-374.22 108.717,-347.134 101.81,-304.12 100.382,-273.547"/>
<polygon fill="black" stroke="black" points="103.873,-273.193 100.084,-263.299 96.8761,-273.396 103.873,-273.193"/>
<text text-anchor="middle" x="178.013" y="-340.52" font-family="Times,serif" font-size="14.00"> static(supports)</text>
</g>
<!-- n15&#45;&gt;n22 -->
<g id="edge32" class="edge"><title>n15&#45;&gt;n22</title>
<path fill="none" stroke="black" d="M532.587,-425.211C524.635,-390.537 513.576,-331.369 526.013,-314.22 549.42,-281.948 660.192,-275.829 698.013,-263.22 703.2,-261.491 708.566,-259.528 713.871,-257.474"/>
<polygon fill="black" stroke="black" points="715.313,-260.667 723.305,-253.711 712.72,-254.166 715.313,-260.667"/>
<text text-anchor="middle" x="570.013" y="-340.52" font-family="Times,serif" font-size="14.00"> static(supports)</text>
</g>
<!-- n16&#45;&gt;n7 -->
<g id="edge36" class="edge"><title>n16&#45;&gt;n7</title>
<path fill="none" stroke="black" d="M1958.19,-317.334C1956.62,-289.833 1952.08,-245.448 1939.01,-209.48 1920.39,-158.205 1915.86,-140.9 1875.01,-104.74 1844.13,-77.3998 1801.89,-58.185 1767.37,-45.8039"/>
<polygon fill="black" stroke="black" points="1768.45,-42.4733 1757.85,-42.4919 1766.15,-49.0844 1768.45,-42.4733"/>
<text text-anchor="middle" x="1953.51" y="-180.28" font-family="Times,serif" font-size="14.00"> init(at)</text>
</g>
<!-- n16&#45;&gt;n16 -->
<g id="edge6" class="edge"><title>n16&#45;&gt;n16</title>
<path fill="none" stroke="black" d="M2003.8,-354.271C2015.89,-353.74 2025.1,-350.39 2025.1,-344.22 2025.1,-339.979 2020.75,-337.07 2014.1,-335.493"/>
<polygon fill="black" stroke="black" points="2014.16,-331.973 2003.8,-334.17 2013.27,-338.916 2014.16,-331.973"/>
<text text-anchor="middle" x="2122.6" y="-363.02" font-family="Times,serif" font-size="14.00"> static(equipped_for_rock_analysis)</text>
<text text-anchor="middle" x="2122.6" y="-348.02" font-family="Times,serif" font-size="14.00">static(equipped_for_imaging)</text>
<text text-anchor="middle" x="2122.6" y="-333.02" font-family="Times,serif" font-size="14.00">init(available)</text>
<text text-anchor="middle" x="2122.6" y="-318.02" font-family="Times,serif" font-size="14.00">static(equipped_for_soil_analysis)</text>
</g>
<!-- n17&#45;&gt;n6 -->
<g id="edge27" class="edge"><title>n17&#45;&gt;n6</title>
<path fill="none" stroke="black" d="M2651.5,-323.763C2641.7,-319.942 2631.15,-316.436 2621.01,-314.22 2456.27,-278.213 2409.66,-314.422 2242.01,-296.22 2202.57,-291.938 2193.35,-286.363 2154.01,-281.22 2010.11,-262.409 1840.89,-248.951 1746.69,-242.227"/>
<polygon fill="black" stroke="black" points="1746.92,-238.734 1736.7,-241.519 1746.43,-245.717 1746.92,-238.734"/>
<text text-anchor="middle" x="2298.01" y="-285.02" font-family="Times,serif" font-size="14.00"> static(visible_from)</text>
</g>
<!-- n19 -->
<g id="node19" class="node"><title>n19</title>
<ellipse fill="none" stroke="black" cx="978.013" cy="-452.09" rx="56.6372" ry="26.7407"/>
<text text-anchor="middle" x="978.013" y="-455.89" font-family="Times,serif" font-size="14.00">&lt;camera2&gt;</text>
<text text-anchor="middle" x="978.013" y="-440.89" font-family="Times,serif" font-size="14.00">camera</text>
</g>
<!-- n19&#45;&gt;n16 -->
<g id="edge13" class="edge"><title>n19&#45;&gt;n16</title>
<path fill="none" stroke="black" d="M1034.23,-448.858C1166.44,-443.33 1494.02,-427.939 1602.01,-407.22 1623.55,-403.089 1627.48,-396.376 1649.01,-392.22 1757.52,-371.274 1790.07,-402.095 1897.01,-374.22 1903.28,-372.588 1909.68,-370.337 1915.88,-367.805"/>
<polygon fill="black" stroke="black" points="1917.65,-370.853 1925.41,-363.644 1914.85,-364.438 1917.65,-370.853"/>
<text text-anchor="middle" x="1695.51" y="-396.02" font-family="Times,serif" font-size="14.00"> static(on_board)</text>
</g>
<!-- n21 -->
<g id="node21" class="node"><title>n21</title>
<ellipse fill="none" stroke="black" cx="1073.01" cy="-344.22" rx="62.8651" ry="26.7407"/>
<text text-anchor="middle" x="1073.01" y="-348.02" font-family="Times,serif" font-size="14.00">&lt;objective5&gt;</text>
<text text-anchor="middle" x="1073.01" y="-333.02" font-family="Times,serif" font-size="14.00">objective</text>
</g>
<!-- n19&#45;&gt;n21 -->
<g id="edge43" class="edge"><title>n19&#45;&gt;n21</title>
<path fill="none" stroke="black" d="M972.792,-425.066C971.975,-414.164 972.966,-401.821 979.013,-392.22 984.043,-384.234 1000.36,-375.025 1018.02,-366.888"/>
<polygon fill="black" stroke="black" points="1019.62,-370.009 1027.33,-362.742 1016.77,-363.615 1019.62,-370.009"/>
<text text-anchor="middle" x="1047.51" y="-396.02" font-family="Times,serif" font-size="14.00"> static(calibration_target)</text>
</g>
<!-- n19&#45;&gt;n22 -->
<g id="edge17" class="edge"><title>n19&#45;&gt;n22</title>
<path fill="none" stroke="black" d="M923.113,-444.722C870.85,-437.712 796.879,-425.027 774.013,-407.22 737.631,-378.888 764.714,-342.139 728.013,-314.22 694.159,-288.466 661.116,-329.005 634.013,-296.22 629.765,-291.082 629.988,-286.534 634.013,-281.22 651.856,-257.668 670.105,-272.927 698.013,-263.22 703.108,-261.448 708.386,-259.472 713.614,-257.423"/>
<polygon fill="black" stroke="black" points="714.945,-260.66 722.92,-253.686 712.336,-254.165 714.945,-260.66"/>
<text text-anchor="middle" x="798.013" y="-340.52" font-family="Times,serif" font-size="14.00"> static(supports)</text>
</g>
<!-- n20 -->
<g id="node20" class="node"><title>n20</title>
<ellipse fill="none" stroke="black" cx="929.013" cy="-344.22" rx="62.8651" ry="26.7407"/>
<text text-anchor="middle" x="929.013" y="-348.02" font-family="Times,serif" font-size="14.00">&lt;objective2&gt;</text>
<text text-anchor="middle" x="929.013" y="-333.02" font-family="Times,serif" font-size="14.00">objective</text>
</g>
<!-- n20&#45;&gt;n6 -->
<g id="edge39" class="edge"><title>n20&#45;&gt;n6</title>
<path fill="none" stroke="black" d="M971.009,-324.062C980.697,-320.276 991.078,-316.709 1001.01,-314.22 1073,-296.187 1097.38,-321.891 1167.01,-296.22 1178.12,-292.127 1177.87,-285.215 1189.01,-281.22 1262.69,-254.799 1483.51,-243.648 1600.08,-239.499"/>
<polygon fill="black" stroke="black" points="1600.47,-242.988 1610.34,-239.143 1600.23,-235.992 1600.47,-242.988"/>
<text text-anchor="middle" x="1245.01" y="-285.02" font-family="Times,serif" font-size="14.00"> static(visible_from)</text>
</g>
<!-- n20&#45;&gt;n18 -->
<g id="edge11" class="edge"><title>n20&#45;&gt;n18</title>
<path fill="none" stroke="black" d="M886.161,-324.305C875.228,-320.256 863.355,-316.511 852.013,-314.22 647.98,-273.006 589.143,-331.572 384.013,-296.22 361.987,-292.424 357.703,-286.614 336.013,-281.22 277.664,-266.711 210.097,-254.574 162.432,-246.771"/>
<polygon fill="black" stroke="black" points="162.703,-243.27 152.272,-245.125 161.583,-250.18 162.703,-243.27"/>
<text text-anchor="middle" x="476.013" y="-285.02" font-family="Times,serif" font-size="14.00"> end(communicated_image_data)</text>
</g>
<!-- n20&#45;&gt;n22 -->
<g id="edge30" class="edge"><title>n20&#45;&gt;n22</title>
<path fill="none" stroke="black" d="M885.676,-324.525C874.858,-320.522 863.159,-316.744 852.013,-314.22 829.064,-309.025 656.928,-313.551 641.013,-296.22 636.504,-291.31 637.072,-286.598 641.013,-281.22 656.717,-259.792 673.063,-272.345 698.013,-263.22 703.079,-261.368 708.339,-259.34 713.556,-257.261"/>
<polygon fill="black" stroke="black" points="714.9,-260.493 722.851,-253.49 712.268,-254.006 714.9,-260.493"/>
<text text-anchor="middle" x="733.013" y="-285.02" font-family="Times,serif" font-size="14.00"> end(communicated_image_data)</text>
</g>
<!-- n21&#45;&gt;n4 -->
<g id="edge35" class="edge"><title>n21&#45;&gt;n4</title>
<path fill="none" stroke="black" d="M1114.53,-323.801C1124.33,-319.979 1134.88,-316.462 1145.01,-314.22 1219.32,-297.78 1415.8,-323.061 1487.01,-296.22 1497.08,-292.426 1495.92,-284.959 1506.01,-281.22 1551.16,-264.487 1891,-266.868 1939.01,-263.22 1996.54,-258.85 2061.76,-251.435 2108.71,-245.661"/>
<polygon fill="black" stroke="black" points="2109.24,-249.121 2118.74,-244.418 2108.38,-242.175 2109.24,-249.121"/>
<text text-anchor="middle" x="1598.01" y="-285.02" font-family="Times,serif" font-size="14.00"> end(communicated_image_data)</text>
</g>
<!-- n21&#45;&gt;n5 -->
<g id="edge20" class="edge"><title>n21&#45;&gt;n5</title>
<path fill="none" stroke="black" d="M1031.5,-323.774C1021.7,-319.953 1011.15,-316.444 1001.01,-314.22 921.256,-296.724 710.666,-324.356 634.013,-296.22 593.62,-281.394 561.943,-241.203 591.013,-209.48 644.959,-150.611 1194.1,-136.644 1396.03,-133.487"/>
<polygon fill="black" stroke="black" points="1396.3,-136.984 1406.24,-133.332 1396.19,-129.984 1396.3,-136.984"/>
<text text-anchor="middle" x="647.013" y="-232.65" font-family="Times,serif" font-size="14.00"> static(visible_from)</text>
</g>
<!-- n21&#45;&gt;n6 -->
<g id="edge33" class="edge"><title>n21&#45;&gt;n6</title>
<path fill="none" stroke="black" d="M1115.02,-324.091C1124.7,-320.304 1135.08,-316.729 1145.01,-314.22 1214.39,-296.692 1234.39,-307.731 1305.01,-296.22 1336.42,-291.102 1343.7,-286.866 1375.01,-281.22 1452.86,-267.183 1542.73,-254.463 1603.45,-246.378"/>
<polygon fill="black" stroke="black" points="1604.24,-249.805 1613.69,-245.022 1603.32,-242.865 1604.24,-249.805"/>
<text text-anchor="middle" x="1431.01" y="-285.02" font-family="Times,serif" font-size="14.00"> static(visible_from)</text>
</g>
<!-- n21&#45;&gt;n22 -->
<g id="edge12" class="edge"><title>n21&#45;&gt;n22</title>
<path fill="none" stroke="black" d="M1032.69,-323.214C1017,-315.157 998.986,-305.57 983.013,-296.22 972.481,-290.055 971.268,-285.938 960.013,-281.22 913.772,-261.838 857.773,-250.496 816.806,-244.219"/>
<polygon fill="black" stroke="black" points="817.133,-240.729 806.729,-242.73 816.11,-247.654 817.133,-240.729"/>
<text text-anchor="middle" x="1075.01" y="-285.02" font-family="Times,serif" font-size="14.00"> end(communicated_image_data)</text>
</g>
</g>
</svg>
