<?xml version="1.0" encoding="UTF-8" standalone="no"?>
<!DOCTYPE svg PUBLIC "-//W3C//DTD SVG 1.1//EN"
 "http://www.w3.org/Graphics/SVG/1.1/DTD/svg11.dtd">
<!-- Generated by graphviz version 2.38.0 (20140413.2041)
 -->
<!-- Title: Struc Pages: 1 -->
<svg width="973pt" height="505pt"
 viewBox="0.00 0.00 973.18 504.70" xmlns="http://www.w3.org/2000/svg" xmlns:xlink="http://www.w3.org/1999/xlink">
<g id="graph0" class="graph" transform="scale(1 1) rotate(0) translate(4 500.701)">
<title>Struc</title>
<polygon fill="white" stroke="none" points="-4,4 -4,-500.701 969.175,-500.701 969.175,4 -4,4"/>
<!-- n1 -->
<g id="node1" class="node"><title>n1</title>
<ellipse fill="none" stroke="black" cx="783.175" cy="-353.09" rx="67.7712" ry="26.7574"/>
<ellipse fill="none" stroke="black" cx="783.175" cy="-353.09" rx="71.7647" ry="30.7407"/>
<text text-anchor="middle" x="783.175" y="-356.89" font-family="Times,serif" font-size="14.00">&lt;objective14&gt;</text>
<text text-anchor="middle" x="783.175" y="-341.89" font-family="Times,serif" font-size="14.00">objective</text>
</g>
<!-- n3 -->
<g id="node3" class="node"><title>n3</title>
<ellipse fill="none" stroke="black" cx="567.175" cy="-240.35" rx="63.7795" ry="26.7407"/>
<text text-anchor="middle" x="567.175" y="-244.15" font-family="Times,serif" font-size="14.00">&lt;waypoint0&gt;</text>
<text text-anchor="middle" x="567.175" y="-229.15" font-family="Times,serif" font-size="14.00">waypoint</text>
</g>
<!-- n1&#45;&gt;n3 -->
<g id="edge9" class="edge"><title>n1&#45;&gt;n3</title>
<path fill="none" stroke="black" d="M758.664,-324.036C746.844,-311.925 731.844,-298.448 716.175,-289.22 690.737,-274.239 660.05,-263.351 633.153,-255.781"/>
<polygon fill="black" stroke="black" points="634,-252.384 623.432,-253.141 632.165,-259.14 634,-252.384"/>
<text text-anchor="middle" x="793.175" y="-293.02" font-family="Times,serif" font-size="14.00"> static(visible_from)</text>
</g>
<!-- n5 -->
<g id="node5" class="node"><title>n5</title>
<ellipse fill="none" stroke="black" cx="606.175" cy="-26.8701" rx="63.7795" ry="26.7407"/>
<text text-anchor="middle" x="606.175" y="-30.6701" font-family="Times,serif" font-size="14.00">&lt;waypoint1&gt;</text>
<text text-anchor="middle" x="606.175" y="-15.6701" font-family="Times,serif" font-size="14.00">waypoint</text>
</g>
<!-- n1&#45;&gt;n5 -->
<g id="edge7" class="edge"><title>n1&#45;&gt;n5</title>
<path fill="none" stroke="black" stroke-dasharray="5,2" d="M828.909,-329.08C837.862,-322.35 846.054,-314.088 851.175,-304.22 894.662,-220.425 846.766,-169.611 778.175,-104.74 747.766,-75.9799 704.779,-56.7647 669.388,-44.7385"/>
<polygon fill="black" stroke="black" points="670.217,-41.3269 659.625,-41.5351 668.035,-47.9781 670.217,-41.3269"/>
<text text-anchor="middle" x="909.175" y="-180.28" font-family="Times,serif" font-size="14.00"> static(visible_from)</text>
</g>
<!-- n8 -->
<g id="node8" class="node"><title>n8</title>
<ellipse fill="none" stroke="black" cx="388.175" cy="-240.35" rx="56.6326" ry="26.7574"/>
<ellipse fill="none" stroke="black" cx="388.175" cy="-240.35" rx="60.6372" ry="30.7407"/>
<text text-anchor="middle" x="388.175" y="-244.15" font-family="Times,serif" font-size="14.00">&lt;high_res&gt;</text>
<text text-anchor="middle" x="388.175" y="-229.15" font-family="Times,serif" font-size="14.00">mode</text>
</g>
<!-- n1&#45;&gt;n8 -->
<g id="edge19" class="edge"><title>n1&#45;&gt;n8</title>
<path fill="none" stroke="black" stroke-dasharray="5,2" d="M732.347,-331.154C722.472,-327.714 712.103,-324.526 702.175,-322.22 626.444,-304.633 600.21,-333.468 528.175,-304.22 518.207,-300.173 518.498,-294.59 509.175,-289.22 490.164,-278.272 468.165,-268.742 448.18,-261.129"/>
<polygon fill="black" stroke="black" points="449.146,-257.754 438.553,-257.548 446.706,-264.315 449.146,-257.754"/>
<text text-anchor="middle" x="620.175" y="-293.02" font-family="Times,serif" font-size="14.00"> end(communicated_image_data)</text>
</g>
<!-- n2 -->
<g id="node2" class="node"><title>n2</title>
<ellipse fill="none" stroke="black" cx="522.175" cy="-353.09" rx="51.7379" ry="26.7407"/>
<text text-anchor="middle" x="522.175" y="-356.89" font-family="Times,serif" font-size="14.00">&lt;general&gt;</text>
<text text-anchor="middle" x="522.175" y="-341.89" font-family="Times,serif" font-size="14.00">lander</text>
</g>
<!-- n2&#45;&gt;n2 -->
<g id="edge1" class="edge"><title>n2&#45;&gt;n2</title>
<path fill="none" stroke="black" d="M570.007,-363.482C582.428,-362.843 591.794,-359.379 591.794,-353.09 591.794,-348.668 587.164,-345.643 580.097,-344.015"/>
<polygon fill="black" stroke="black" points="580.376,-340.521 570.007,-342.699 579.471,-347.463 580.376,-340.521"/>
<text text-anchor="middle" x="642.294" y="-349.39" font-family="Times,serif" font-size="14.00"> init(channel_free)</text>
</g>
<!-- n2&#45;&gt;n3 -->
<g id="edge14" class="edge"><title>n2&#45;&gt;n3</title>
<path fill="none" stroke="black" d="M484.099,-334.872C454.158,-321.311 417.432,-304.619 417.175,-304.22 413.569,-298.613 413.242,-294.604 417.175,-289.22 422.713,-281.641 465.492,-268.413 503.954,-257.781"/>
<polygon fill="black" stroke="black" points="504.892,-261.153 513.615,-255.139 503.046,-254.401 504.892,-261.153"/>
<text text-anchor="middle" x="463.175" y="-293.02" font-family="Times,serif" font-size="14.00"> static(at_lander)</text>
</g>
<!-- n3&#45;&gt;n3 -->
<g id="edge2" class="edge"><title>n3&#45;&gt;n3</title>
<path fill="none" stroke="black" d="M626.251,-250.568C639.307,-249.608 648.815,-246.202 648.815,-240.35 648.815,-236.144 643.903,-233.202 636.292,-231.523"/>
<polygon fill="black" stroke="black" points="636.637,-228.038 626.251,-230.133 635.677,-234.972 636.637,-228.038"/>
<text text-anchor="middle" x="735.815" y="-244.15" font-family="Times,serif" font-size="14.00"> end(communicated_rock_data)</text>
<text text-anchor="middle" x="735.815" y="-229.15" font-family="Times,serif" font-size="14.00">init(at_rock_sample)</text>
</g>
<!-- n4 -->
<g id="node4" class="node"><title>n4</title>
<ellipse fill="none" stroke="black" cx="319.175" cy="-131.61" rx="63.7795" ry="26.7407"/>
<text text-anchor="middle" x="319.175" y="-135.41" font-family="Times,serif" font-size="14.00">&lt;waypoint2&gt;</text>
<text text-anchor="middle" x="319.175" y="-120.41" font-family="Times,serif" font-size="14.00">waypoint</text>
</g>
<!-- n3&#45;&gt;n4 -->
<g id="edge11" class="edge"><title>n3&#45;&gt;n4</title>
<path fill="none" stroke="black" d="M524.73,-220.234C496.572,-207.632 458.758,-190.861 425.175,-176.48 408.416,-169.304 390.09,-161.65 373.46,-154.779"/>
<polygon fill="black" stroke="black" points="374.468,-151.409 363.889,-150.833 371.8,-157.88 374.468,-151.409"/>
<text text-anchor="middle" x="496.175" y="-180.28" font-family="Times,serif" font-size="14.00"> static(visible)</text>
</g>
<!-- n3&#45;&gt;n5 -->
<g id="edge21" class="edge"><title>n3&#45;&gt;n5</title>
<path fill="none" stroke="black" d="M571.957,-213.419C578.891,-175.82 591.76,-106.035 599.588,-63.5906"/>
<polygon fill="black" stroke="black" points="603.043,-64.1516 601.415,-53.6827 596.159,-62.8821 603.043,-64.1516"/>
<text text-anchor="middle" x="631.175" y="-127.91" font-family="Times,serif" font-size="14.00"> static(visible)</text>
</g>
<!-- n4&#45;&gt;n3 -->
<g id="edge20" class="edge"><title>n4&#45;&gt;n3</title>
<path fill="none" stroke="black" d="M323.676,-158.442C327.066,-170.259 332.962,-183.398 343.175,-191.48 383.742,-223.585 407.593,-198.627 458.175,-209.48 473.834,-212.84 490.588,-217.094 506.147,-221.33"/>
<polygon fill="black" stroke="black" points="505.604,-224.811 516.175,-224.102 507.469,-218.064 505.604,-224.811"/>
<text text-anchor="middle" x="382.175" y="-180.28" font-family="Times,serif" font-size="14.00"> static(visible)</text>
</g>
<!-- n4&#45;&gt;n4 -->
<g id="edge3" class="edge"><title>n4&#45;&gt;n4</title>
<path fill="none" stroke="black" d="M378.98,-141.045C391.659,-140.087 400.815,-136.942 400.815,-131.61 400.815,-127.861 396.288,-125.193 389.193,-123.607"/>
<polygon fill="black" stroke="black" points="389.369,-120.097 378.98,-122.175 388.397,-127.029 389.369,-120.097"/>
<text text-anchor="middle" x="485.315" y="-135.41" font-family="Times,serif" font-size="14.00"> end(communicated_soil_data)</text>
<text text-anchor="middle" x="485.315" y="-120.41" font-family="Times,serif" font-size="14.00">init(at_soil_sample)</text>
</g>
<!-- n4&#45;&gt;n5 -->
<g id="edge10" class="edge"><title>n4&#45;&gt;n5</title>
<path fill="none" stroke="black" d="M366.567,-113.645C416.628,-95.724 495.569,-67.4649 549.038,-48.3241"/>
<polygon fill="black" stroke="black" points="550.477,-51.5263 558.713,-44.8607 548.118,-44.9359 550.477,-51.5263"/>
<text text-anchor="middle" x="519.175" y="-75.5401" font-family="Times,serif" font-size="14.00"> static(visible)</text>
</g>
<!-- n5&#45;&gt;n3 -->
<g id="edge18" class="edge"><title>n5&#45;&gt;n3</title>
<path fill="none" stroke="black" d="M640.574,-49.7526C658.384,-63.2055 678.401,-82.1797 688.175,-104.74 697.67,-126.656 699.433,-137.415 688.175,-158.48 674.121,-184.777 647.313,-204.014 622.495,-217.112"/>
<polygon fill="black" stroke="black" points="620.823,-214.035 613.469,-221.662 623.974,-220.286 620.823,-214.035"/>
<text text-anchor="middle" x="735.175" y="-127.91" font-family="Times,serif" font-size="14.00"> static(visible)</text>
</g>
<!-- n5&#45;&gt;n4 -->
<g id="edge12" class="edge"><title>n5&#45;&gt;n4</title>
<path fill="none" stroke="black" d="M544.756,-33.9097C483.305,-40.845 393.774,-53.644 364.175,-71.7401 353.988,-77.9681 345.273,-87.4181 338.301,-96.9353"/>
<polygon fill="black" stroke="black" points="335.381,-95.0054 332.63,-105.237 341.161,-98.9539 335.381,-95.0054"/>
<text text-anchor="middle" x="403.175" y="-75.5401" font-family="Times,serif" font-size="14.00"> static(visible)</text>
</g>
<!-- n5&#45;&gt;n5 -->
<g id="edge4" class="edge"><title>n5&#45;&gt;n5</title>
<path fill="none" stroke="black" d="M665.98,-36.3053C678.659,-35.3472 687.815,-32.2021 687.815,-26.8701 687.815,-23.121 683.288,-20.4531 676.193,-18.8664"/>
<polygon fill="black" stroke="black" points="676.369,-15.3569 665.98,-17.4349 675.397,-22.2891 676.369,-15.3569"/>
<text text-anchor="middle" x="746.815" y="-23.1701" font-family="Times,serif" font-size="14.00"> init(at_rock_sample)</text>
</g>
<!-- n6 -->
<g id="node6" class="node"><title>n6</title>
<ellipse fill="none" stroke="black" cx="67.1751" cy="-353.09" rx="48.1667" ry="26.7407"/>
<text text-anchor="middle" x="67.1751" y="-356.89" font-family="Times,serif" font-size="14.00">&lt;rover0&gt;</text>
<text text-anchor="middle" x="67.1751" y="-341.89" font-family="Times,serif" font-size="14.00">rover</text>
</g>
<!-- n6&#45;&gt;n4 -->
<g id="edge15" class="edge"><title>n6&#45;&gt;n4</title>
<path fill="none" stroke="black" d="M92.725,-329.838C138.19,-290.24 233.171,-207.516 284.491,-162.819"/>
<polygon fill="black" stroke="black" points="286.794,-165.454 292.037,-156.247 282.197,-160.175 286.794,-165.454"/>
<text text-anchor="middle" x="251.675" y="-236.65" font-family="Times,serif" font-size="14.00"> init(at)</text>
</g>
<!-- n6&#45;&gt;n6 -->
<g id="edge5" class="edge"><title>n6&#45;&gt;n6</title>
<path fill="none" stroke="black" d="M111.65,-363.526C123.898,-363.022 133.258,-359.544 133.258,-353.09 133.258,-348.553 128.631,-345.486 121.625,-343.89"/>
<polygon fill="black" stroke="black" points="122.004,-340.41 111.65,-342.654 121.144,-347.357 122.004,-340.41"/>
<text text-anchor="middle" x="230.758" y="-371.89" font-family="Times,serif" font-size="14.00"> static(equipped_for_rock_analysis)</text>
<text text-anchor="middle" x="230.758" y="-356.89" font-family="Times,serif" font-size="14.00">static(equipped_for_imaging)</text>
<text text-anchor="middle" x="230.758" y="-341.89" font-family="Times,serif" font-size="14.00">init(available)</text>
<text text-anchor="middle" x="230.758" y="-326.89" font-family="Times,serif" font-size="14.00">static(equipped_for_soil_analysis)</text>
</g>
<!-- n7 -->
<g id="node7" class="node"><title>n7</title>
<ellipse fill="none" stroke="black" cx="364.175" cy="-465.831" rx="56.6326" ry="26.7574"/>
<ellipse fill="none" stroke="black" cx="364.175" cy="-465.831" rx="60.6372" ry="30.7407"/>
<text text-anchor="middle" x="364.175" y="-469.631" font-family="Times,serif" font-size="14.00">&lt;camera5&gt;</text>
<text text-anchor="middle" x="364.175" y="-454.631" font-family="Times,serif" font-size="14.00">camera</text>
</g>
<!-- n7&#45;&gt;n1 -->
<g id="edge13" class="edge"><title>n7&#45;&gt;n1</title>
<path fill="none" stroke="black" stroke-dasharray="5,2" d="M420.042,-453.586C487.51,-439.522 604.15,-413.647 702.175,-383.96 708.294,-382.107 714.623,-380.042 720.921,-377.888"/>
<polygon fill="black" stroke="black" points="722.477,-381.052 730.76,-374.446 720.165,-374.444 722.477,-381.052"/>
<text text-anchor="middle" x="707.675" y="-405.76" font-family="Times,serif" font-size="14.00"> static(calibration_target)</text>
</g>
<!-- n7&#45;&gt;n6 -->
<g id="edge8" class="edge"><title>n7&#45;&gt;n6</title>
<path fill="none" stroke="black" d="M316.127,-446.915C261.146,-426.415 171.581,-393.019 116.196,-372.368"/>
<polygon fill="black" stroke="black" points="117.197,-369.006 106.604,-368.792 114.751,-375.565 117.197,-369.006"/>
<text text-anchor="middle" x="280.675" y="-405.76" font-family="Times,serif" font-size="14.00"> static(on_board)</text>
</g>
<!-- n7&#45;&gt;n8 -->
<g id="edge17" class="edge"><title>n7&#45;&gt;n8</title>
<path fill="none" stroke="black" stroke-dasharray="5,2" d="M365.014,-434.961C366.073,-406.04 368.373,-360.997 373.175,-322.22 374.837,-308.802 377.321,-294.246 379.793,-281.23"/>
<polygon fill="black" stroke="black" points="383.275,-281.658 381.756,-271.173 376.405,-280.317 383.275,-281.658"/>
<text text-anchor="middle" x="417.175" y="-349.39" font-family="Times,serif" font-size="14.00"> static(supports)</text>
</g>
<!-- n9 -->
<g id="node9" class="node"><title>n9</title>
<ellipse fill="none" stroke="black" cx="67.1751" cy="-465.831" rx="67.3507" ry="26.7407"/>
<text text-anchor="middle" x="67.1751" y="-469.631" font-family="Times,serif" font-size="14.00">&lt;rover0store&gt;</text>
<text text-anchor="middle" x="67.1751" y="-454.631" font-family="Times,serif" font-size="14.00">store</text>
</g>
<!-- n9&#45;&gt;n6 -->
<g id="edge16" class="edge"><title>n9&#45;&gt;n6</title>
<path fill="none" stroke="black" d="M67.1751,-438.867C67.1751,-424.393 67.1751,-406.143 67.1751,-390.286"/>
<polygon fill="black" stroke="black" points="70.6752,-390.275 67.1751,-380.275 63.6752,-390.275 70.6752,-390.275"/>
<text text-anchor="middle" x="110.175" y="-405.76" font-family="Times,serif" font-size="14.00"> static(store_of)</text>
</g>
<!-- n9&#45;&gt;n9 -->
<g id="edge6" class="edge"><title>n9&#45;&gt;n9</title>
<path fill="none" stroke="black" d="M129.57,-475.991C142.798,-474.96 152.35,-471.573 152.35,-465.831 152.35,-461.658 147.308,-458.73 139.476,-457.044"/>
<polygon fill="black" stroke="black" points="139.956,-453.577 129.57,-455.67 138.994,-460.511 139.956,-453.577"/>
<text text-anchor="middle" x="185.35" y="-462.131" font-family="Times,serif" font-size="14.00"> init(empty)</text>
</g>
</g>
</svg>
