<?xml version="1.0" encoding="UTF-8" standalone="no"?>
<!DOCTYPE svg PUBLIC "-//W3C//DTD SVG 1.1//EN"
 "http://www.w3.org/Graphics/SVG/1.1/DTD/svg11.dtd">
<!-- Generated by graphviz version 2.38.0 (20140413.2041)
 -->
<!-- Title: Struc Pages: 1 -->
<svg width="4356pt" height="487pt"
 viewBox="0.00 0.00 4355.75 486.96" xmlns="http://www.w3.org/2000/svg" xmlns:xlink="http://www.w3.org/1999/xlink">
<g id="graph0" class="graph" transform="scale(1 1) rotate(0) translate(4 482.96)">
<title>Struc</title>
<polygon fill="white" stroke="none" points="-4,4 -4,-482.96 4351.75,-482.96 4351.75,4 -4,4"/>
<!-- n1 -->
<g id="node1" class="node"><title>n1</title>
<ellipse fill="none" stroke="black" cx="1714.75" cy="-452.09" rx="56.6372" ry="26.7407"/>
<text text-anchor="middle" x="1714.75" y="-455.89" font-family="Times,serif" font-size="14.00">&lt;camera1&gt;</text>
<text text-anchor="middle" x="1714.75" y="-440.89" font-family="Times,serif" font-size="14.00">camera</text>
</g>
<!-- n8 -->
<g id="node8" class="node"><title>n8</title>
<ellipse fill="none" stroke="black" cx="2423.75" cy="-344.22" rx="62.8651" ry="26.7407"/>
<text text-anchor="middle" x="2423.75" y="-348.02" font-family="Times,serif" font-size="14.00">&lt;objective2&gt;</text>
<text text-anchor="middle" x="2423.75" y="-333.02" font-family="Times,serif" font-size="14.00">objective</text>
</g>
<!-- n1&#45;&gt;n8 -->
<g id="edge32" class="edge"><title>n1&#45;&gt;n8</title>
<path fill="none" stroke="black" d="M1769.92,-445.765C1814.81,-440.073 1879.11,-428.778 1931.75,-407.22 1943.04,-402.595 1943.13,-395.962 1954.75,-392.22 2038.81,-365.145 2265.45,-392.984 2351.75,-374.22 2358.56,-372.739 2365.56,-370.672 2372.4,-368.317"/>
<polygon fill="black" stroke="black" points="2374.07,-371.431 2382.25,-364.694 2371.65,-364.861 2374.07,-371.431"/>
<text text-anchor="middle" x="2023.25" y="-396.02" font-family="Times,serif" font-size="14.00"> static(calibration_target)</text>
</g>
<!-- n19 -->
<g id="node19" class="node"><title>n19</title>
<ellipse fill="none" stroke="black" cx="1344.75" cy="-344.22" rx="48.1667" ry="26.7407"/>
<text text-anchor="middle" x="1344.75" y="-348.02" font-family="Times,serif" font-size="14.00">&lt;colour&gt;</text>
<text text-anchor="middle" x="1344.75" y="-333.02" font-family="Times,serif" font-size="14.00">mode</text>
</g>
<!-- n1&#45;&gt;n19 -->
<g id="edge27" class="edge"><title>n1&#45;&gt;n19</title>
<path fill="none" stroke="black" d="M1658.64,-448.15C1605.16,-443.834 1523.17,-433.226 1456.75,-407.22 1445.39,-402.771 1444.27,-398.41 1433.75,-392.22 1419.42,-383.788 1403.45,-375.13 1389.03,-367.58"/>
<polygon fill="black" stroke="black" points="1390.3,-364.297 1379.82,-362.792 1387.08,-370.509 1390.3,-364.297"/>
<text text-anchor="middle" x="1500.75" y="-396.02" font-family="Times,serif" font-size="14.00"> static(supports)</text>
</g>
<!-- n21 -->
<g id="node21" class="node"><title>n21</title>
<ellipse fill="none" stroke="black" cx="2946.75" cy="-344.22" rx="56.6372" ry="26.7407"/>
<text text-anchor="middle" x="2946.75" y="-348.02" font-family="Times,serif" font-size="14.00">&lt;high_res&gt;</text>
<text text-anchor="middle" x="2946.75" y="-333.02" font-family="Times,serif" font-size="14.00">mode</text>
</g>
<!-- n1&#45;&gt;n21 -->
<g id="edge55" class="edge"><title>n1&#45;&gt;n21</title>
<path fill="none" stroke="black" d="M1771.16,-448.976C1949.35,-442.174 2490.53,-420.525 2525.75,-407.22 2535.82,-403.419 2534.68,-396.02 2544.75,-392.22 2614.71,-365.816 2808.01,-391.541 2880.75,-374.22 2886.98,-372.736 2893.36,-370.686 2899.58,-368.356"/>
<polygon fill="black" stroke="black" points="2901.2,-371.478 2909.17,-364.505 2898.59,-364.982 2901.2,-371.478"/>
<text text-anchor="middle" x="2588.75" y="-396.02" font-family="Times,serif" font-size="14.00"> static(supports)</text>
</g>
<!-- n29 -->
<g id="node29" class="node"><title>n29</title>
<ellipse fill="none" stroke="black" cx="724.751" cy="-344.22" rx="48.1667" ry="26.7407"/>
<text text-anchor="middle" x="724.751" y="-348.02" font-family="Times,serif" font-size="14.00">&lt;rover0&gt;</text>
<text text-anchor="middle" x="724.751" y="-333.02" font-family="Times,serif" font-size="14.00">rover</text>
</g>
<!-- n1&#45;&gt;n29 -->
<g id="edge10" class="edge"><title>n1&#45;&gt;n29</title>
<path fill="none" stroke="black" d="M1659.44,-446.277C1540.1,-435.838 1267.56,-411.696 1247.75,-407.22 1228.82,-402.944 1225.67,-396.53 1206.75,-392.22 1186.32,-387.566 905.304,-361.649 782.03,-350.415"/>
<polygon fill="black" stroke="black" points="782.293,-346.925 772.017,-349.503 781.658,-353.896 782.293,-346.925"/>
<text text-anchor="middle" x="1294.25" y="-396.02" font-family="Times,serif" font-size="14.00"> static(on_board)</text>
</g>
<!-- n2 -->
<g id="node2" class="node"><title>n2</title>
<ellipse fill="none" stroke="black" cx="2443.75" cy="-452.09" rx="56.6372" ry="26.7407"/>
<text text-anchor="middle" x="2443.75" y="-455.89" font-family="Times,serif" font-size="14.00">&lt;camera4&gt;</text>
<text text-anchor="middle" x="2443.75" y="-440.89" font-family="Times,serif" font-size="14.00">camera</text>
</g>
<!-- n2&#45;&gt;n8 -->
<g id="edge54" class="edge"><title>n2&#45;&gt;n8</title>
<path fill="none" stroke="black" d="M2500.45,-450.993C2570.99,-448.967 2677.49,-438.495 2636.75,-392.22 2615.88,-368.512 2526.32,-382.186 2495.75,-374.22 2489.09,-372.485 2482.23,-370.288 2475.5,-367.883"/>
<polygon fill="black" stroke="black" points="2476.37,-364.474 2465.78,-364.24 2473.92,-371.028 2476.37,-364.474"/>
<text text-anchor="middle" x="2714.25" y="-396.02" font-family="Times,serif" font-size="14.00"> static(calibration_target)</text>
</g>
<!-- n15 -->
<g id="node15" class="node"><title>n15</title>
<ellipse fill="none" stroke="black" cx="1113.75" cy="-344.22" rx="53.9813" ry="26.7407"/>
<text text-anchor="middle" x="1113.75" y="-348.02" font-family="Times,serif" font-size="14.00">&lt;low_res&gt;</text>
<text text-anchor="middle" x="1113.75" y="-333.02" font-family="Times,serif" font-size="14.00">mode</text>
</g>
<!-- n2&#45;&gt;n15 -->
<g id="edge50" class="edge"><title>n2&#45;&gt;n15</title>
<path fill="none" stroke="black" d="M2388.7,-445.494C2344.69,-439.676 2282.07,-428.347 2230.75,-407.22 2219.47,-402.575 2219.41,-395.812 2207.75,-392.22 2110.04,-362.13 1389.56,-383.65 1287.75,-374.22 1249.34,-370.663 1206.6,-363.584 1173.09,-357.312"/>
<polygon fill="black" stroke="black" points="1173.48,-353.823 1163,-355.396 1172.17,-360.7 1173.48,-353.823"/>
<text text-anchor="middle" x="2274.75" y="-396.02" font-family="Times,serif" font-size="14.00"> static(supports)</text>
</g>
<!-- n2&#45;&gt;n21 -->
<g id="edge18" class="edge"><title>n2&#45;&gt;n21</title>
<path fill="none" stroke="black" d="M2499.64,-447.568C2568.07,-442.428 2687.15,-430.796 2786.75,-407.22 2825.37,-398.079 2867.12,-381.662 2898.29,-368.017"/>
<polygon fill="black" stroke="black" points="2899.89,-371.138 2907.61,-363.883 2897.05,-364.74 2899.89,-371.138"/>
<text text-anchor="middle" x="2880.75" y="-396.02" font-family="Times,serif" font-size="14.00"> static(supports)</text>
</g>
<!-- n2&#45;&gt;n29 -->
<g id="edge60" class="edge"><title>n2&#45;&gt;n29</title>
<path fill="none" stroke="black" d="M2387.52,-449.083C2200.16,-442.29 1606.74,-419.881 1567.75,-407.22 1556.14,-403.451 1556.38,-395.91 1544.75,-392.22 1492.4,-375.613 1105.57,-377.655 1050.75,-374.22 956.28,-368.301 846.713,-357.806 781.702,-351.196"/>
<polygon fill="black" stroke="black" points="781.964,-347.705 771.66,-350.17 781.252,-354.668 781.964,-347.705"/>
<text text-anchor="middle" x="1614.25" y="-396.02" font-family="Times,serif" font-size="14.00"> static(on_board)</text>
</g>
<!-- n3 -->
<g id="node3" class="node"><title>n3</title>
<ellipse fill="none" stroke="black" cx="3088.75" cy="-344.22" rx="67.7647" ry="26.7407"/>
<text text-anchor="middle" x="3088.75" y="-348.02" font-family="Times,serif" font-size="14.00">&lt;objective11&gt;</text>
<text text-anchor="middle" x="3088.75" y="-333.02" font-family="Times,serif" font-size="14.00">objective</text>
</g>
<!-- n22 -->
<g id="node22" class="node"><title>n22</title>
<ellipse fill="none" stroke="black" cx="3065.75" cy="-236.35" rx="63.7795" ry="26.7407"/>
<text text-anchor="middle" x="3065.75" y="-240.15" font-family="Times,serif" font-size="14.00">&lt;waypoint0&gt;</text>
<text text-anchor="middle" x="3065.75" y="-225.15" font-family="Times,serif" font-size="14.00">waypoint</text>
</g>
<!-- n3&#45;&gt;n22 -->
<g id="edge37" class="edge"><title>n3&#45;&gt;n22</title>
<path fill="none" stroke="black" d="M3074.38,-317.573C3071.27,-310.827 3068.42,-303.418 3066.75,-296.22 3065.07,-288.963 3064.27,-281.067 3063.98,-273.484"/>
<polygon fill="black" stroke="black" points="3067.48,-273.386 3063.86,-263.427 3060.48,-273.465 3067.48,-273.386"/>
<text text-anchor="middle" x="3122.75" y="-285.02" font-family="Times,serif" font-size="14.00"> static(visible_from)</text>
</g>
<!-- n4 -->
<g id="node4" class="node"><title>n4</title>
<ellipse fill="none" stroke="black" cx="3301.75" cy="-131.61" rx="63.7795" ry="26.7407"/>
<text text-anchor="middle" x="3301.75" y="-135.41" font-family="Times,serif" font-size="14.00">&lt;waypoint1&gt;</text>
<text text-anchor="middle" x="3301.75" y="-120.41" font-family="Times,serif" font-size="14.00">waypoint</text>
</g>
<!-- n4&#45;&gt;n4 -->
<g id="edge1" class="edge"><title>n4&#45;&gt;n4</title>
<path fill="none" stroke="black" d="M3361.56,-141.045C3374.23,-140.087 3383.39,-136.942 3383.39,-131.61 3383.39,-127.861 3378.86,-125.193 3371.77,-123.607"/>
<polygon fill="black" stroke="black" points="3371.94,-120.097 3361.56,-122.175 3370.97,-127.029 3371.94,-120.097"/>
<text text-anchor="middle" x="3442.39" y="-127.91" font-family="Times,serif" font-size="14.00"> init(at_rock_sample)</text>
</g>
<!-- n5 -->
<g id="node5" class="node"><title>n5</title>
<ellipse fill="none" stroke="black" cx="3065.75" cy="-26.8701" rx="63.7795" ry="26.7407"/>
<text text-anchor="middle" x="3065.75" y="-30.6701" font-family="Times,serif" font-size="14.00">&lt;waypoint2&gt;</text>
<text text-anchor="middle" x="3065.75" y="-15.6701" font-family="Times,serif" font-size="14.00">waypoint</text>
</g>
<!-- n4&#45;&gt;n5 -->
<g id="edge29" class="edge"><title>n4&#45;&gt;n5</title>
<path fill="none" stroke="black" d="M3251.39,-115.08C3228.05,-107.376 3200.15,-97.4367 3175.75,-86.7401 3154,-77.204 3130.71,-65.0384 3111.18,-54.2445"/>
<polygon fill="black" stroke="black" points="3112.64,-51.0534 3102.2,-49.2353 3109.23,-57.1656 3112.64,-51.0534"/>
<text text-anchor="middle" x="3214.75" y="-75.5401" font-family="Times,serif" font-size="14.00"> static(visible)</text>
</g>
<!-- n4&#45;&gt;n22 -->
<g id="edge15" class="edge"><title>n4&#45;&gt;n22</title>
<path fill="none" stroke="black" d="M3247.12,-145.47C3219.64,-152.875 3186.22,-163.336 3157.75,-176.48 3139.59,-184.862 3120.78,-196.33 3104.94,-206.918"/>
<polygon fill="black" stroke="black" points="3102.76,-204.165 3096.46,-212.685 3106.7,-209.953 3102.76,-204.165"/>
<text text-anchor="middle" x="3196.75" y="-180.28" font-family="Times,serif" font-size="14.00"> static(visible)</text>
</g>
<!-- n5&#45;&gt;n4 -->
<g id="edge62" class="edge"><title>n5&#45;&gt;n4</title>
<path fill="none" stroke="black" d="M3128.49,-32.2315C3167.04,-37.3005 3216.08,-48.2261 3253.75,-71.7401 3264.05,-78.1668 3273.14,-87.5819 3280.57,-97.0059"/>
<polygon fill="black" stroke="black" points="3277.89,-99.2674 3286.66,-105.215 3283.52,-95.0977 3277.89,-99.2674"/>
<text text-anchor="middle" x="3310.75" y="-75.5401" font-family="Times,serif" font-size="14.00"> static(visible)</text>
</g>
<!-- n5&#45;&gt;n5 -->
<g id="edge2" class="edge"><title>n5&#45;&gt;n5</title>
<path fill="none" stroke="black" d="M3125.56,-36.3053C3138.23,-35.3472 3147.39,-32.2021 3147.39,-26.8701 3147.39,-23.121 3142.86,-20.4531 3135.77,-18.8664"/>
<polygon fill="black" stroke="black" points="3135.94,-15.3569 3125.56,-17.4349 3134.97,-22.2891 3135.94,-15.3569"/>
<text text-anchor="middle" x="3231.89" y="-30.6701" font-family="Times,serif" font-size="14.00"> end(communicated_soil_data)</text>
<text text-anchor="middle" x="3231.89" y="-15.6701" font-family="Times,serif" font-size="14.00">init(at_soil_sample)</text>
</g>
<!-- n5&#45;&gt;n22 -->
<g id="edge40" class="edge"><title>n5&#45;&gt;n22</title>
<path fill="none" stroke="black" d="M3065.75,-53.9342C3065.75,-90.5312 3065.75,-157.309 3065.75,-198.838"/>
<polygon fill="black" stroke="black" points="3062.25,-199.073 3065.75,-209.073 3069.25,-199.073 3062.25,-199.073"/>
<text text-anchor="middle" x="3104.75" y="-127.91" font-family="Times,serif" font-size="14.00"> static(visible)</text>
</g>
<!-- n6 -->
<g id="node6" class="node"><title>n6</title>
<ellipse fill="none" stroke="black" cx="3686.75" cy="-344.22" rx="67.7647" ry="26.7407"/>
<text text-anchor="middle" x="3686.75" y="-348.02" font-family="Times,serif" font-size="14.00">&lt;objective12&gt;</text>
<text text-anchor="middle" x="3686.75" y="-333.02" font-family="Times,serif" font-size="14.00">objective</text>
</g>
<!-- n6&#45;&gt;n4 -->
<g id="edge19" class="edge"><title>n6&#45;&gt;n4</title>
<path fill="none" stroke="black" d="M3639.52,-324.8C3628.25,-320.886 3616.18,-317.078 3604.75,-314.22 3552.86,-301.245 3534.18,-318.93 3485.75,-296.22 3451.18,-280.008 3375.24,-206.735 3332.52,-163.944"/>
<polygon fill="black" stroke="black" points="3334.98,-161.461 3325.45,-156.84 3330.02,-166.398 3334.98,-161.461"/>
<text text-anchor="middle" x="3493.75" y="-232.65" font-family="Times,serif" font-size="14.00"> static(visible_from)</text>
</g>
<!-- n6&#45;&gt;n22 -->
<g id="edge58" class="edge"><title>n6&#45;&gt;n22</title>
<path fill="none" stroke="black" d="M3640.54,-324.428C3629.02,-320.428 3616.58,-316.675 3604.75,-314.22 3491.77,-290.77 3455.15,-332.917 3345.75,-296.22 3334.18,-292.339 3334.11,-285.673 3322.75,-281.22 3263.39,-257.957 3191.54,-247.013 3138.93,-241.873"/>
<polygon fill="black" stroke="black" points="3138.95,-238.36 3128.67,-240.921 3138.3,-245.33 3138.95,-238.36"/>
<text text-anchor="middle" x="3401.75" y="-285.02" font-family="Times,serif" font-size="14.00"> static(visible_from)</text>
</g>
<!-- n7 -->
<g id="node7" class="node"><title>n7</title>
<ellipse fill="none" stroke="black" cx="1986.75" cy="-344.22" rx="67.7647" ry="26.7407"/>
<text text-anchor="middle" x="1986.75" y="-348.02" font-family="Times,serif" font-size="14.00">&lt;objective10&gt;</text>
<text text-anchor="middle" x="1986.75" y="-333.02" font-family="Times,serif" font-size="14.00">objective</text>
</g>
<!-- n7&#45;&gt;n22 -->
<g id="edge22" class="edge"><title>n7&#45;&gt;n22</title>
<path fill="none" stroke="black" d="M2024.04,-321.672C2050.84,-307.373 2088.34,-289.727 2123.75,-281.22 2287.98,-241.769 2799.39,-237.413 2991.67,-237.208"/>
<polygon fill="black" stroke="black" points="2991.96,-240.708 3001.95,-237.201 2991.95,-233.708 2991.96,-240.708"/>
<text text-anchor="middle" x="2179.75" y="-285.02" font-family="Times,serif" font-size="14.00"> static(visible_from)</text>
</g>
<!-- n8&#45;&gt;n22 -->
<g id="edge48" class="edge"><title>n8&#45;&gt;n22</title>
<path fill="none" stroke="black" d="M2467.14,-324.476C2476.48,-320.8 2486.37,-317.173 2495.75,-314.22 2668.25,-259.944 2881.93,-243.991 2992.21,-239.302"/>
<polygon fill="black" stroke="black" points="2992.39,-242.798 3002.24,-238.895 2992.1,-235.804 2992.39,-242.798"/>
<text text-anchor="middle" x="2673.75" y="-285.02" font-family="Times,serif" font-size="14.00"> static(visible_from)</text>
</g>
<!-- n9 -->
<g id="node9" class="node"><title>n9</title>
<ellipse fill="none" stroke="black" cx="2929.75" cy="-452.09" rx="56.6372" ry="26.7407"/>
<text text-anchor="middle" x="2929.75" y="-455.89" font-family="Times,serif" font-size="14.00">&lt;camera3&gt;</text>
<text text-anchor="middle" x="2929.75" y="-440.89" font-family="Times,serif" font-size="14.00">camera</text>
</g>
<!-- n9&#45;&gt;n3 -->
<g id="edge53" class="edge"><title>n9&#45;&gt;n3</title>
<path fill="none" stroke="black" d="M2970.89,-433.623C2986.4,-426.322 3003.88,-417.209 3018.75,-407.22 3032,-398.322 3045.4,-387.114 3056.87,-376.683"/>
<polygon fill="black" stroke="black" points="3059.53,-378.99 3064.49,-369.624 3054.77,-373.857 3059.53,-378.99"/>
<text text-anchor="middle" x="3106.25" y="-396.02" font-family="Times,serif" font-size="14.00"> static(calibration_target)</text>
</g>
<!-- n9&#45;&gt;n21 -->
<g id="edge13" class="edge"><title>n9&#45;&gt;n21</title>
<path fill="none" stroke="black" d="M2928.46,-425.136C2928.4,-414.823 2928.89,-402.895 2930.75,-392.22 2931.43,-388.32 2932.38,-384.305 2933.48,-380.344"/>
<polygon fill="black" stroke="black" points="2936.86,-381.288 2936.47,-370.701 2930.17,-379.217 2936.86,-381.288"/>
<text text-anchor="middle" x="2974.75" y="-396.02" font-family="Times,serif" font-size="14.00"> static(supports)</text>
</g>
<!-- n9&#45;&gt;n29 -->
<g id="edge28" class="edge"><title>n9&#45;&gt;n29</title>
<path fill="none" stroke="black" d="M2874.06,-447.368C2793.65,-442.059 2640.33,-432.187 2509.75,-425.22 2465.44,-422.856 2152.34,-422.716 2110.75,-407.22 2100.67,-403.464 2101.88,-395.837 2091.75,-392.22 2037.27,-372.779 1108.51,-377.285 1050.75,-374.22 956.227,-369.205 846.677,-358.437 781.683,-351.527"/>
<polygon fill="black" stroke="black" points="781.959,-348.036 771.644,-350.452 781.214,-354.997 781.959,-348.036"/>
<text text-anchor="middle" x="2157.25" y="-396.02" font-family="Times,serif" font-size="14.00"> static(on_board)</text>
</g>
<!-- n10 -->
<g id="node10" class="node"><title>n10</title>
<ellipse fill="none" stroke="black" cx="327.751" cy="-452.09" rx="67.3507" ry="26.7407"/>
<text text-anchor="middle" x="327.751" y="-455.89" font-family="Times,serif" font-size="14.00">&lt;rover0store&gt;</text>
<text text-anchor="middle" x="327.751" y="-440.89" font-family="Times,serif" font-size="14.00">store</text>
</g>
<!-- n10&#45;&gt;n10 -->
<g id="edge3" class="edge"><title>n10&#45;&gt;n10</title>
<path fill="none" stroke="black" d="M390.897,-461.468C403.734,-460.447 412.926,-457.321 412.926,-452.09 412.926,-448.413 408.381,-445.775 401.221,-444.179"/>
<polygon fill="black" stroke="black" points="401.29,-440.653 390.897,-442.712 400.306,-447.584 401.29,-440.653"/>
<text text-anchor="middle" x="445.926" y="-448.39" font-family="Times,serif" font-size="14.00"> init(empty)</text>
</g>
<!-- n10&#45;&gt;n29 -->
<g id="edge42" class="edge"><title>n10&#45;&gt;n29</title>
<path fill="none" stroke="black" d="M328.969,-425.016C330.918,-413.29 335.282,-400.299 344.751,-392.22 391.909,-351.984 572.05,-345.429 666.375,-344.835"/>
<polygon fill="black" stroke="black" points="666.624,-348.334 676.609,-344.792 666.595,-341.334 666.624,-348.334"/>
<text text-anchor="middle" x="387.751" y="-396.02" font-family="Times,serif" font-size="14.00"> static(store_of)</text>
</g>
<!-- n11 -->
<g id="node11" class="node"><title>n11</title>
<ellipse fill="none" stroke="black" cx="3835.75" cy="-344.22" rx="62.8651" ry="26.7407"/>
<text text-anchor="middle" x="3835.75" y="-348.02" font-family="Times,serif" font-size="14.00">&lt;objective0&gt;</text>
<text text-anchor="middle" x="3835.75" y="-333.02" font-family="Times,serif" font-size="14.00">objective</text>
</g>
<!-- n11&#45;&gt;n4 -->
<g id="edge56" class="edge"><title>n11&#45;&gt;n4</title>
<path fill="none" stroke="black" d="M3871.46,-321.755C3886.82,-309.843 3898.95,-294.744 3887.75,-281.22 3860.34,-248.126 3834.65,-272.75 3792.75,-263.22 3636.73,-227.738 3455.3,-176.965 3362.8,-150.384"/>
<polygon fill="black" stroke="black" points="3363.63,-146.98 3353.05,-147.577 3361.69,-153.707 3363.63,-146.98"/>
<text text-anchor="middle" x="3848.75" y="-232.65" font-family="Times,serif" font-size="14.00"> static(visible_from)</text>
</g>
<!-- n11&#45;&gt;n22 -->
<g id="edge59" class="edge"><title>n11&#45;&gt;n22</title>
<path fill="none" stroke="black" d="M3794.2,-323.927C3784.41,-320.099 3773.86,-316.548 3763.75,-314.22 3651.74,-288.432 3618.43,-318.956 3505.75,-296.22 3485.5,-292.134 3481.92,-285.718 3461.75,-281.22 3350.94,-256.506 3219.44,-245.449 3139.33,-240.696"/>
<polygon fill="black" stroke="black" points="3139.04,-237.174 3128.86,-240.094 3138.64,-244.162 3139.04,-237.174"/>
<text text-anchor="middle" x="3561.75" y="-285.02" font-family="Times,serif" font-size="14.00"> static(visible_from)</text>
</g>
<!-- n12 -->
<g id="node12" class="node"><title>n12</title>
<ellipse fill="none" stroke="black" cx="2135.75" cy="-344.22" rx="62.8651" ry="26.7407"/>
<text text-anchor="middle" x="2135.75" y="-348.02" font-family="Times,serif" font-size="14.00">&lt;objective1&gt;</text>
<text text-anchor="middle" x="2135.75" y="-333.02" font-family="Times,serif" font-size="14.00">objective</text>
</g>
<!-- n12&#45;&gt;n22 -->
<g id="edge14" class="edge"><title>n12&#45;&gt;n22</title>
<path fill="none" stroke="black" d="M2174.66,-322.878C2204.26,-308.47 2246.46,-290.174 2285.75,-281.22 2418.76,-250.909 2824.36,-241.146 2992.02,-238.354"/>
<polygon fill="black" stroke="black" points="2992.3,-241.85 3002.24,-238.188 2992.18,-234.851 2992.3,-241.85"/>
<text text-anchor="middle" x="2341.75" y="-285.02" font-family="Times,serif" font-size="14.00"> static(visible_from)</text>
</g>
<!-- n13 -->
<g id="node13" class="node"><title>n13</title>
<ellipse fill="none" stroke="black" cx="167.751" cy="-344.22" rx="62.8651" ry="26.7407"/>
<text text-anchor="middle" x="167.751" y="-348.02" font-family="Times,serif" font-size="14.00">&lt;objective4&gt;</text>
<text text-anchor="middle" x="167.751" y="-333.02" font-family="Times,serif" font-size="14.00">objective</text>
</g>
<!-- n13&#45;&gt;n22 -->
<g id="edge61" class="edge"><title>n13&#45;&gt;n22</title>
<path fill="none" stroke="black" d="M229.693,-339.111C324.149,-332.961 509.876,-321.328 667.751,-314.22 1584.29,-272.957 2698.87,-245.794 2992.19,-239.014"/>
<polygon fill="black" stroke="black" points="2992.36,-242.511 3002.27,-238.781 2992.2,-235.513 2992.36,-242.511"/>
<text text-anchor="middle" x="1515.75" y="-285.02" font-family="Times,serif" font-size="14.00"> static(visible_from)</text>
</g>
<!-- n14 -->
<g id="node14" class="node"><title>n14</title>
<ellipse fill="none" stroke="black" cx="2279.75" cy="-344.22" rx="62.8651" ry="26.7407"/>
<text text-anchor="middle" x="2279.75" y="-348.02" font-family="Times,serif" font-size="14.00">&lt;objective5&gt;</text>
<text text-anchor="middle" x="2279.75" y="-333.02" font-family="Times,serif" font-size="14.00">objective</text>
</g>
<!-- n14&#45;&gt;n22 -->
<g id="edge30" class="edge"><title>n14&#45;&gt;n22</title>
<path fill="none" stroke="black" d="M2322.15,-324.25C2357.2,-309.564 2408.66,-290.253 2455.75,-281.22 2646.55,-244.619 2876.23,-237.928 2991.74,-237.088"/>
<polygon fill="black" stroke="black" points="2991.91,-240.587 3001.88,-237.028 2991.86,-233.588 2991.91,-240.587"/>
<text text-anchor="middle" x="2511.75" y="-285.02" font-family="Times,serif" font-size="14.00"> static(visible_from)</text>
</g>
<!-- n16 -->
<g id="node16" class="node"><title>n16</title>
<ellipse fill="none" stroke="black" cx="1344.75" cy="-452.09" rx="56.6372" ry="26.7407"/>
<text text-anchor="middle" x="1344.75" y="-455.89" font-family="Times,serif" font-size="14.00">&lt;camera2&gt;</text>
<text text-anchor="middle" x="1344.75" y="-440.89" font-family="Times,serif" font-size="14.00">camera</text>
</g>
<!-- n16&#45;&gt;n19 -->
<g id="edge17" class="edge"><title>n16&#45;&gt;n19</title>
<path fill="none" stroke="black" d="M1344.75,-425.192C1344.75,-411.99 1344.75,-395.722 1344.75,-381.312"/>
<polygon fill="black" stroke="black" points="1348.25,-381.219 1344.75,-371.219 1341.25,-381.219 1348.25,-381.219"/>
<text text-anchor="middle" x="1388.75" y="-396.02" font-family="Times,serif" font-size="14.00"> static(supports)</text>
</g>
<!-- n16&#45;&gt;n29 -->
<g id="edge12" class="edge"><title>n16&#45;&gt;n29</title>
<path fill="none" stroke="black" d="M1288.94,-447.21C1214.38,-442.051 1078.14,-432.714 961.751,-425.22 929.091,-423.118 690.175,-431.059 667.751,-407.22 656.063,-394.795 666.866,-380.819 682.088,-369.285"/>
<polygon fill="black" stroke="black" points="684.17,-372.1 690.355,-363.498 680.155,-366.366 684.17,-372.1"/>
<text text-anchor="middle" x="714.251" y="-396.02" font-family="Times,serif" font-size="14.00"> static(on_board)</text>
</g>
<!-- n30 -->
<g id="node30" class="node"><title>n30</title>
<ellipse fill="none" stroke="black" cx="1832.75" cy="-344.22" rx="67.7647" ry="26.7407"/>
<text text-anchor="middle" x="1832.75" y="-348.02" font-family="Times,serif" font-size="14.00">&lt;objective14&gt;</text>
<text text-anchor="middle" x="1832.75" y="-333.02" font-family="Times,serif" font-size="14.00">objective</text>
</g>
<!-- n16&#45;&gt;n30 -->
<g id="edge26" class="edge"><title>n16&#45;&gt;n30</title>
<path fill="none" stroke="black" d="M1400.13,-446.404C1511.89,-436.808 1755.23,-415.159 1771.75,-407.22 1785.79,-400.472 1798.43,-389.09 1808.51,-377.907"/>
<polygon fill="black" stroke="black" points="1811.21,-380.128 1815.06,-370.256 1805.9,-375.573 1811.21,-380.128"/>
<text text-anchor="middle" x="1862.25" y="-396.02" font-family="Times,serif" font-size="14.00"> static(calibration_target)</text>
</g>
<!-- n17 -->
<g id="node17" class="node"><title>n17</title>
<ellipse fill="none" stroke="black" cx="3776.75" cy="-452.09" rx="62.8651" ry="26.7407"/>
<text text-anchor="middle" x="3776.75" y="-455.89" font-family="Times,serif" font-size="14.00">&lt;objective3&gt;</text>
<text text-anchor="middle" x="3776.75" y="-440.89" font-family="Times,serif" font-size="14.00">objective</text>
</g>
<!-- n17&#45;&gt;n21 -->
<g id="edge47" class="edge"><title>n17&#45;&gt;n21</title>
<path fill="none" stroke="black" d="M3736.09,-431.352C3705.45,-417.553 3661.98,-400.218 3621.75,-392.22 3488.74,-365.778 3143.96,-404.421 3011.75,-374.22 3005.58,-372.812 2999.29,-370.807 2993.15,-368.501"/>
<polygon fill="black" stroke="black" points="2994.28,-365.181 2983.7,-364.671 2991.65,-371.669 2994.28,-365.181"/>
<text text-anchor="middle" x="3766.75" y="-396.02" font-family="Times,serif" font-size="14.00"> end(communicated_image_data)</text>
</g>
<!-- n17&#45;&gt;n22 -->
<g id="edge46" class="edge"><title>n17&#45;&gt;n22</title>
<path fill="none" stroke="black" d="M3827.51,-435.925C3854.76,-425.316 3879.59,-409.913 3862.75,-392.22 3834.75,-362.81 3531.9,-396.186 3497.75,-374.22 3472.51,-357.983 3491.35,-331.426 3466.75,-314.22 3414.99,-278.007 3386.87,-312.221 3325.75,-296.22 3308.58,-291.726 3305.76,-286.289 3288.75,-281.22 3238.41,-266.214 3180.12,-254.952 3135.76,-247.597"/>
<polygon fill="black" stroke="black" points="3136.09,-244.105 3125.66,-245.95 3134.97,-251.014 3136.09,-244.105"/>
<text text-anchor="middle" x="3553.75" y="-340.52" font-family="Times,serif" font-size="14.00"> static(visible_from)</text>
</g>
<!-- n18 -->
<g id="node18" class="node"><title>n18</title>
<ellipse fill="none" stroke="black" cx="4123.75" cy="-344.22" rx="62.8651" ry="26.7407"/>
<text text-anchor="middle" x="4123.75" y="-348.02" font-family="Times,serif" font-size="14.00">&lt;objective6&gt;</text>
<text text-anchor="middle" x="4123.75" y="-333.02" font-family="Times,serif" font-size="14.00">objective</text>
</g>
<!-- n18&#45;&gt;n4 -->
<g id="edge23" class="edge"><title>n18&#45;&gt;n4</title>
<path fill="none" stroke="black" d="M4113.4,-317.648C4098.78,-282.821 4071.77,-223.22 4052.75,-209.48 3998.53,-170.306 3553.14,-144.725 3374.99,-135.971"/>
<polygon fill="black" stroke="black" points="3375.08,-132.471 3364.92,-135.48 3374.74,-139.463 3375.08,-132.471"/>
<text text-anchor="middle" x="4144.75" y="-232.65" font-family="Times,serif" font-size="14.00"> static(visible_from)</text>
</g>
<!-- n18&#45;&gt;n22 -->
<g id="edge38" class="edge"><title>n18&#45;&gt;n22</title>
<path fill="none" stroke="black" d="M4081.75,-324.076C4072.06,-320.289 4061.68,-316.719 4051.75,-314.22 3986.92,-297.914 3819.36,-286.871 3752.75,-281.22 3618.33,-269.817 3584.38,-271.754 3449.75,-263.22 3341.26,-256.343 3215.57,-247.759 3138.36,-242.414"/>
<polygon fill="black" stroke="black" points="3138.48,-238.914 3128.26,-241.715 3138,-245.897 3138.48,-238.914"/>
<text text-anchor="middle" x="3980.75" y="-285.02" font-family="Times,serif" font-size="14.00"> static(visible_from)</text>
</g>
<!-- n20 -->
<g id="node20" class="node"><title>n20</title>
<ellipse fill="none" stroke="black" cx="2556.75" cy="-344.22" rx="51.7379" ry="26.7407"/>
<text text-anchor="middle" x="2556.75" y="-348.02" font-family="Times,serif" font-size="14.00">&lt;general&gt;</text>
<text text-anchor="middle" x="2556.75" y="-333.02" font-family="Times,serif" font-size="14.00">lander</text>
</g>
<!-- n20&#45;&gt;n20 -->
<g id="edge4" class="edge"><title>n20&#45;&gt;n20</title>
<path fill="none" stroke="black" d="M2604.91,-354.224C2617.17,-353.567 2626.37,-350.232 2626.37,-344.22 2626.37,-339.993 2621.82,-337.09 2614.86,-335.51"/>
<polygon fill="black" stroke="black" points="2615.27,-332.035 2604.91,-334.216 2614.37,-338.976 2615.27,-332.035"/>
<text text-anchor="middle" x="2676.87" y="-340.52" font-family="Times,serif" font-size="14.00"> init(channel_free)</text>
</g>
<!-- n20&#45;&gt;n22 -->
<g id="edge52" class="edge"><title>n20&#45;&gt;n22</title>
<path fill="none" stroke="black" d="M2602.48,-331.568C2654.63,-318.475 2742.54,-296.992 2818.75,-281.22 2878.6,-268.834 2947.06,-256.845 2996.7,-248.539"/>
<polygon fill="black" stroke="black" points="2997.39,-251.972 3006.68,-246.876 2996.24,-245.067 2997.39,-251.972"/>
<text text-anchor="middle" x="2864.75" y="-285.02" font-family="Times,serif" font-size="14.00"> static(at_lander)</text>
</g>
<!-- n22&#45;&gt;n4 -->
<g id="edge43" class="edge"><title>n22&#45;&gt;n4</title>
<path fill="none" stroke="black" d="M3125.73,-227.048C3159.5,-220.653 3201.6,-209.714 3235.75,-191.48 3248.94,-184.438 3261.64,-174.237 3272.32,-164.298"/>
<polygon fill="black" stroke="black" points="3274.96,-166.62 3279.72,-157.157 3270.09,-161.584 3274.96,-166.62"/>
<text text-anchor="middle" x="3297.75" y="-180.28" font-family="Times,serif" font-size="14.00"> static(visible)</text>
</g>
<!-- n22&#45;&gt;n5 -->
<g id="edge8" class="edge"><title>n22&#45;&gt;n5</title>
<path fill="none" stroke="black" d="M3024.78,-215.621C3002.94,-202.691 2978.09,-183.526 2965.75,-158.48 2955.2,-137.054 2955.2,-126.166 2965.75,-104.74 2976.5,-82.923 2996.74,-65.5678 3016.22,-52.9093"/>
<polygon fill="black" stroke="black" points="3018.13,-55.8437 3024.78,-47.599 3014.44,-49.8946 3018.13,-55.8437"/>
<text text-anchor="middle" x="3004.75" y="-127.91" font-family="Times,serif" font-size="14.00"> static(visible)</text>
</g>
<!-- n22&#45;&gt;n22 -->
<g id="edge5" class="edge"><title>n22&#45;&gt;n22</title>
<path fill="none" stroke="black" d="M3125.56,-245.785C3138.23,-244.827 3147.39,-241.682 3147.39,-236.35 3147.39,-232.601 3142.86,-229.933 3135.77,-228.347"/>
<polygon fill="black" stroke="black" points="3135.94,-224.837 3125.56,-226.915 3134.97,-231.769 3135.94,-224.837"/>
<text text-anchor="middle" x="3234.39" y="-240.15" font-family="Times,serif" font-size="14.00"> end(communicated_rock_data)</text>
<text text-anchor="middle" x="3234.39" y="-225.15" font-family="Times,serif" font-size="14.00">init(at_rock_sample)</text>
</g>
<!-- n23 -->
<g id="node23" class="node"><title>n23</title>
<ellipse fill="none" stroke="black" cx="3979.75" cy="-344.22" rx="62.8651" ry="26.7407"/>
<text text-anchor="middle" x="3979.75" y="-348.02" font-family="Times,serif" font-size="14.00">&lt;objective7&gt;</text>
<text text-anchor="middle" x="3979.75" y="-333.02" font-family="Times,serif" font-size="14.00">objective</text>
</g>
<!-- n23&#45;&gt;n4 -->
<g id="edge16" class="edge"><title>n23&#45;&gt;n4</title>
<path fill="none" stroke="black" d="M3967.09,-317.853C3948.46,-280.992 3914.79,-216.252 3904.75,-209.48 3819.87,-152.244 3517.29,-137.611 3375.75,-133.881"/>
<polygon fill="black" stroke="black" points="3375.51,-130.374 3365.43,-133.621 3375.34,-137.372 3375.51,-130.374"/>
<text text-anchor="middle" x="3994.75" y="-232.65" font-family="Times,serif" font-size="14.00"> static(visible_from)</text>
</g>
<!-- n23&#45;&gt;n22 -->
<g id="edge51" class="edge"><title>n23&#45;&gt;n22</title>
<path fill="none" stroke="black" d="M3938.21,-323.91C3928.41,-320.083 3917.87,-316.536 3907.75,-314.22 3791.82,-287.673 3753.55,-333.928 3640.75,-296.22 3629.18,-292.351 3629.3,-285.159 3617.75,-281.22 3595.44,-273.613 3283.2,-251.905 3138.46,-242.173"/>
<polygon fill="black" stroke="black" points="3138.55,-238.671 3128.33,-241.493 3138.08,-245.655 3138.55,-238.671"/>
<text text-anchor="middle" x="3696.75" y="-285.02" font-family="Times,serif" font-size="14.00"> static(visible_from)</text>
</g>
<!-- n24 -->
<g id="node24" class="node"><title>n24</title>
<ellipse fill="none" stroke="black" cx="3531.75" cy="-452.09" rx="62.8651" ry="26.7407"/>
<text text-anchor="middle" x="3531.75" y="-455.89" font-family="Times,serif" font-size="14.00">&lt;objective8&gt;</text>
<text text-anchor="middle" x="3531.75" y="-440.89" font-family="Times,serif" font-size="14.00">objective</text>
</g>
<!-- n24&#45;&gt;n4 -->
<g id="edge24" class="edge"><title>n24&#45;&gt;n4</title>
<path fill="none" stroke="black" d="M3590.12,-441.695C3623.61,-436.471 3666.49,-430.066 3704.75,-425.22 3813.58,-411.438 4120.48,-454.023 4195.75,-374.22 4246.01,-320.931 4248.84,-264.733 4200.75,-209.48 4146.96,-147.679 3580.64,-135.551 3375.45,-133.182"/>
<polygon fill="black" stroke="black" points="3375.41,-129.681 3365.38,-133.07 3375.34,-136.681 3375.41,-129.681"/>
<text text-anchor="middle" x="4291.75" y="-285.02" font-family="Times,serif" font-size="14.00"> static(visible_from)</text>
</g>
<!-- n24&#45;&gt;n19 -->
<g id="edge11" class="edge"><title>n24&#45;&gt;n19</title>
<path fill="none" stroke="black" d="M3470.43,-445.806C3407.62,-439.597 3307.46,-427.483 3222.75,-407.22 3202.66,-402.414 3199.11,-395.728 3178.75,-392.22 3022.92,-365.375 1913.74,-380.788 1755.75,-374.22 1629.55,-368.974 1481.92,-357.169 1402.45,-350.348"/>
<polygon fill="black" stroke="black" points="1402.43,-346.833 1392.17,-349.461 1401.83,-353.808 1402.43,-346.833"/>
<text text-anchor="middle" x="3314.75" y="-396.02" font-family="Times,serif" font-size="14.00"> end(communicated_image_data)</text>
</g>
<!-- n24&#45;&gt;n21 -->
<g id="edge34" class="edge"><title>n24&#45;&gt;n21</title>
<path fill="none" stroke="black" d="M3487.13,-432.878C3470.13,-425.486 3450.77,-416.505 3433.75,-407.22 3423.04,-401.376 3422.37,-395.961 3410.75,-392.22 3326.27,-365.018 3098.12,-394.659 3011.75,-374.22 3005.6,-372.764 2999.3,-370.73 2993.17,-368.409"/>
<polygon fill="black" stroke="black" points="2994.3,-365.09 2983.72,-364.565 2991.67,-371.574 2994.3,-365.09"/>
<text text-anchor="middle" x="3525.75" y="-396.02" font-family="Times,serif" font-size="14.00"> end(communicated_image_data)</text>
</g>
<!-- n24&#45;&gt;n22 -->
<g id="edge35" class="edge"><title>n24&#45;&gt;n22</title>
<path fill="none" stroke="black" d="M3582.4,-436.032C3609.6,-425.467 3634.42,-410.072 3617.75,-392.22 3577.77,-349.406 3405.25,-403.905 3354.75,-374.22 3327.33,-358.104 3341.14,-333.376 3315.75,-314.22 3263.39,-274.718 3190.53,-255.32 3136.97,-245.916"/>
<polygon fill="black" stroke="black" points="3137.31,-242.424 3126.87,-244.219 3136.15,-249.327 3137.31,-242.424"/>
<text text-anchor="middle" x="3410.75" y="-340.52" font-family="Times,serif" font-size="14.00"> static(visible_from)</text>
</g>
<!-- n25 -->
<g id="node25" class="node"><title>n25</title>
<ellipse fill="none" stroke="black" cx="659.751" cy="-452.09" rx="56.6372" ry="26.7407"/>
<text text-anchor="middle" x="659.751" y="-455.89" font-family="Times,serif" font-size="14.00">&lt;camera0&gt;</text>
<text text-anchor="middle" x="659.751" y="-440.89" font-family="Times,serif" font-size="14.00">camera</text>
</g>
<!-- n25&#45;&gt;n13 -->
<g id="edge49" class="edge"><title>n25&#45;&gt;n13</title>
<path fill="none" stroke="black" d="M607.242,-441.636C573.275,-435.906 528.038,-428.995 487.751,-425.22 461.237,-422.736 27.224,-426.401 8.75073,-407.22 -22.7568,-374.507 40.4834,-358.74 96.297,-351.354"/>
<polygon fill="black" stroke="black" points="96.7582,-354.824 106.248,-350.113 95.8916,-347.878 96.7582,-354.824"/>
<text text-anchor="middle" x="77.2507" y="-396.02" font-family="Times,serif" font-size="14.00"> static(calibration_target)</text>
</g>
<!-- n25&#45;&gt;n15 -->
<g id="edge7" class="edge"><title>n25&#45;&gt;n15</title>
<path fill="none" stroke="black" d="M700.943,-433.556C741.458,-416.323 797.456,-392.546 798.751,-392.22 883.593,-370.909 908.466,-388.615 994.751,-374.22 1015.56,-370.748 1038.12,-365.61 1057.95,-360.62"/>
<polygon fill="black" stroke="black" points="1058.92,-363.984 1067.74,-358.112 1057.18,-357.202 1058.92,-363.984"/>
<text text-anchor="middle" x="842.751" y="-396.02" font-family="Times,serif" font-size="14.00"> static(supports)</text>
</g>
<!-- n25&#45;&gt;n19 -->
<g id="edge21" class="edge"><title>n25&#45;&gt;n19</title>
<path fill="none" stroke="black" d="M712.897,-442.508C746.383,-437.224 790.546,-430.478 829.751,-425.22 898.487,-416.002 920.658,-433.712 984.751,-407.22 994.694,-403.111 993.783,-396.271 1003.75,-392.22 1075.37,-363.118 1100.17,-384.801 1176.75,-374.22 1214.45,-369.011 1256.66,-361.719 1289.34,-355.75"/>
<polygon fill="black" stroke="black" points="1290.4,-359.114 1299.6,-353.863 1289.13,-352.23 1290.4,-359.114"/>
<text text-anchor="middle" x="1047.75" y="-396.02" font-family="Times,serif" font-size="14.00"> static(supports)</text>
</g>
<!-- n25&#45;&gt;n29 -->
<g id="edge25" class="edge"><title>n25&#45;&gt;n29</title>
<path fill="none" stroke="black" d="M605.56,-444.008C543.326,-435.322 448.382,-420.159 437.751,-407.22 433.518,-402.07 433.434,-397.301 437.751,-392.22 466.474,-358.41 591.006,-348.871 666.273,-346.213"/>
<polygon fill="black" stroke="black" points="666.669,-349.702 676.551,-345.882 666.444,-342.706 666.669,-349.702"/>
<text text-anchor="middle" x="484.251" y="-396.02" font-family="Times,serif" font-size="14.00"> static(on_board)</text>
</g>
<!-- n26 -->
<g id="node26" class="node"><title>n26</title>
<ellipse fill="none" stroke="black" cx="3132.75" cy="-452.09" rx="67.7647" ry="26.7407"/>
<text text-anchor="middle" x="3132.75" y="-455.89" font-family="Times,serif" font-size="14.00">&lt;objective13&gt;</text>
<text text-anchor="middle" x="3132.75" y="-440.89" font-family="Times,serif" font-size="14.00">objective</text>
</g>
<!-- n26&#45;&gt;n15 -->
<g id="edge20" class="edge"><title>n26&#45;&gt;n15</title>
<path fill="none" stroke="black" d="M3074.72,-438.015C3050.45,-433.099 3021.86,-428.025 2995.75,-425.22 2923.03,-417.41 2406.51,-432.149 2337.75,-407.22 2327.64,-403.553 2328.88,-395.837 2318.75,-392.22 2264.8,-372.961 1344.8,-379.444 1287.75,-374.22 1249.33,-370.703 1206.59,-363.625 1173.09,-357.343"/>
<polygon fill="black" stroke="black" points="1173.48,-353.855 1163,-355.424 1172.17,-360.731 1173.48,-353.855"/>
<text text-anchor="middle" x="2429.75" y="-396.02" font-family="Times,serif" font-size="14.00"> end(communicated_image_data)</text>
</g>
<!-- n26&#45;&gt;n22 -->
<g id="edge44" class="edge"><title>n26&#45;&gt;n22</title>
<path fill="none" stroke="black" d="M3164.1,-427.959C3170.05,-421.929 3175.45,-414.93 3178.75,-407.22 3200.79,-355.741 3210.38,-327.432 3178.75,-281.22 3168.37,-266.055 3151.92,-256.131 3134.75,-249.638"/>
<polygon fill="black" stroke="black" points="3135.77,-246.286 3125.18,-246.371 3133.51,-252.912 3135.77,-246.286"/>
<text text-anchor="middle" x="3255.75" y="-340.52" font-family="Times,serif" font-size="14.00"> static(visible_from)</text>
</g>
<!-- n27 -->
<g id="node27" class="node"><title>n27</title>
<ellipse fill="none" stroke="black" cx="895.751" cy="-452.09" rx="56.6372" ry="26.7407"/>
<text text-anchor="middle" x="895.751" y="-455.89" font-family="Times,serif" font-size="14.00">&lt;camera5&gt;</text>
<text text-anchor="middle" x="895.751" y="-440.89" font-family="Times,serif" font-size="14.00">camera</text>
</g>
<!-- n27&#45;&gt;n13 -->
<g id="edge45" class="edge"><title>n27&#45;&gt;n13</title>
<path fill="none" stroke="black" d="M843.486,-441.515C809.961,-435.776 765.435,-428.898 725.751,-425.22 696.304,-422.491 218.095,-424.01 193.751,-407.22 184.722,-400.993 178.818,-390.984 174.962,-380.808"/>
<polygon fill="black" stroke="black" points="178.242,-379.574 171.857,-371.119 171.576,-381.71 178.242,-379.574"/>
<text text-anchor="middle" x="262.251" y="-396.02" font-family="Times,serif" font-size="14.00"> static(calibration_target)</text>
</g>
<!-- n27&#45;&gt;n15 -->
<g id="edge63" class="edge"><title>n27&#45;&gt;n15</title>
<path fill="none" stroke="black" d="M889.41,-425.348C888.177,-413.979 889.15,-401.188 896.751,-392.22 911.067,-375.329 973.097,-378.844 994.751,-374.22 1015.12,-369.871 1037.32,-364.605 1056.98,-359.76"/>
<polygon fill="black" stroke="black" points="1057.83,-363.153 1066.7,-357.346 1056.15,-356.359 1057.83,-363.153"/>
<text text-anchor="middle" x="940.751" y="-396.02" font-family="Times,serif" font-size="14.00"> static(supports)</text>
</g>
<!-- n27&#45;&gt;n19 -->
<g id="edge33" class="edge"><title>n27&#45;&gt;n19</title>
<path fill="none" stroke="black" d="M950.419,-444.545C991.56,-438.337 1048.71,-426.94 1095.75,-407.22 1107.01,-402.503 1107.47,-396.877 1118.75,-392.22 1148.98,-379.743 1232.51,-364.073 1289.11,-354.352"/>
<polygon fill="black" stroke="black" points="1289.72,-357.798 1298.99,-352.667 1288.54,-350.897 1289.72,-357.798"/>
<text text-anchor="middle" x="1162.75" y="-396.02" font-family="Times,serif" font-size="14.00"> static(supports)</text>
</g>
<!-- n27&#45;&gt;n21 -->
<g id="edge57" class="edge"><title>n27&#45;&gt;n21</title>
<path fill="none" stroke="black" d="M951.546,-446.964C1026.09,-441.533 1162.31,-431.895 1278.75,-425.22 1321.17,-422.788 1620.95,-422.097 1660.75,-407.22 1670.83,-403.454 1669.61,-395.825 1679.75,-392.22 1742.62,-369.864 2815.55,-388.424 2880.75,-374.22 2887.09,-372.839 2893.57,-370.828 2899.87,-368.499"/>
<polygon fill="black" stroke="black" points="2901.59,-371.58 2909.58,-364.622 2899,-365.079 2901.59,-371.58"/>
<text text-anchor="middle" x="1723.75" y="-396.02" font-family="Times,serif" font-size="14.00"> static(supports)</text>
</g>
<!-- n27&#45;&gt;n29 -->
<g id="edge9" class="edge"><title>n27&#45;&gt;n29</title>
<path fill="none" stroke="black" d="M842.624,-442.353C809.147,-437.009 764.985,-430.256 725.751,-425.22 687.632,-420.328 579.472,-435.774 553.751,-407.22 518.013,-367.548 604.084,-353.235 666.646,-348.089"/>
<polygon fill="black" stroke="black" points="667.146,-351.561 676.851,-347.312 666.614,-344.581 667.146,-351.561"/>
<text text-anchor="middle" x="600.251" y="-396.02" font-family="Times,serif" font-size="14.00"> static(on_board)</text>
</g>
<!-- n28 -->
<g id="node28" class="node"><title>n28</title>
<ellipse fill="none" stroke="black" cx="2808.75" cy="-344.22" rx="62.8651" ry="26.7407"/>
<text text-anchor="middle" x="2808.75" y="-348.02" font-family="Times,serif" font-size="14.00">&lt;objective9&gt;</text>
<text text-anchor="middle" x="2808.75" y="-333.02" font-family="Times,serif" font-size="14.00">objective</text>
</g>
<!-- n28&#45;&gt;n22 -->
<g id="edge39" class="edge"><title>n28&#45;&gt;n22</title>
<path fill="none" stroke="black" d="M2850.44,-323.996C2878.14,-311.413 2915.41,-294.842 2948.75,-281.22 2968.16,-273.29 2989.6,-265.093 3008.76,-257.962"/>
<polygon fill="black" stroke="black" points="3010.09,-261.201 3018.26,-254.446 3007.66,-254.636 3010.09,-261.201"/>
<text text-anchor="middle" x="3004.75" y="-285.02" font-family="Times,serif" font-size="14.00"> static(visible_from)</text>
</g>
<!-- n29&#45;&gt;n5 -->
<g id="edge41" class="edge"><title>n29&#45;&gt;n5</title>
<path fill="none" stroke="black" d="M771.949,-338.518C835.317,-332.321 951.429,-321.37 1050.75,-314.22 1195.93,-303.77 1233.02,-311.667 1377.75,-296.22 1542.23,-278.666 2700.82,-88.1014 2996.96,-39.2352"/>
<polygon fill="black" stroke="black" points="2997.83,-42.6389 3007.13,-37.5571 2996.69,-35.7323 2997.83,-42.6389"/>
<text text-anchor="middle" x="2166.25" y="-180.28" font-family="Times,serif" font-size="14.00"> init(at)</text>
</g>
<!-- n29&#45;&gt;n29 -->
<g id="edge6" class="edge"><title>n29&#45;&gt;n29</title>
<path fill="none" stroke="black" d="M769.536,-354.271C781.632,-353.74 790.834,-350.39 790.834,-344.22 790.834,-339.979 786.485,-337.07 779.836,-335.493"/>
<polygon fill="black" stroke="black" points="779.9,-331.973 769.536,-334.17 779.008,-338.916 779.9,-331.973"/>
<text text-anchor="middle" x="888.334" y="-363.02" font-family="Times,serif" font-size="14.00"> static(equipped_for_rock_analysis)</text>
<text text-anchor="middle" x="888.334" y="-348.02" font-family="Times,serif" font-size="14.00">static(equipped_for_imaging)</text>
<text text-anchor="middle" x="888.334" y="-333.02" font-family="Times,serif" font-size="14.00">init(available)</text>
<text text-anchor="middle" x="888.334" y="-318.02" font-family="Times,serif" font-size="14.00">static(equipped_for_soil_analysis)</text>
</g>
<!-- n30&#45;&gt;n4 -->
<g id="edge36" class="edge"><title>n30&#45;&gt;n4</title>
<path fill="none" stroke="black" d="M1858.83,-319.11C1875.1,-305.556 1897.18,-289.7 1919.75,-281.22 2433.21,-88.3116 2604.1,-231.23 3147.75,-158.48 3176.11,-154.686 3207.25,-149.624 3234.07,-144.985"/>
<polygon fill="black" stroke="black" points="3234.87,-148.398 3244.12,-143.231 3233.66,-141.502 3234.87,-148.398"/>
<text text-anchor="middle" x="2207.75" y="-232.65" font-family="Times,serif" font-size="14.00"> static(visible_from)</text>
</g>
<!-- n30&#45;&gt;n22 -->
<g id="edge31" class="edge"><title>n30&#45;&gt;n22</title>
<path fill="none" stroke="black" d="M1868.84,-321.437C1894.58,-307.129 1930.56,-289.568 1964.75,-281.22 2063.76,-257.048 2760.84,-242.72 2991.7,-238.597"/>
<polygon fill="black" stroke="black" points="2992.07,-242.091 3002.01,-238.414 2991.95,-235.092 2992.07,-242.091"/>
<text text-anchor="middle" x="2020.75" y="-285.02" font-family="Times,serif" font-size="14.00"> static(visible_from)</text>
</g>
</g>
</svg>
