<?xml version="1.0" encoding="UTF-8" standalone="no"?>
<!DOCTYPE svg PUBLIC "-//W3C//DTD SVG 1.1//EN"
 "http://www.w3.org/Graphics/SVG/1.1/DTD/svg11.dtd">
<!-- Generated by graphviz version 2.38.0 (20140413.2041)
 -->
<!-- Title: Struc Pages: 1 -->
<svg width="878pt" height="400pt"
 viewBox="0.00 0.00 877.82 399.96" xmlns="http://www.w3.org/2000/svg" xmlns:xlink="http://www.w3.org/1999/xlink">
<g id="graph0" class="graph" transform="scale(1 1) rotate(0) translate(4 395.96)">
<title>Struc</title>
<polygon fill="white" stroke="none" points="-4,4 -4,-395.96 873.823,-395.96 873.823,4 -4,4"/>
<!-- n1 -->
<g id="node1" class="node"><title>n1</title>
<ellipse fill="none" stroke="black" cx="242.74" cy="-361.09" rx="56.6326" ry="26.7574"/>
<ellipse fill="none" stroke="black" cx="242.74" cy="-361.09" rx="60.6372" ry="30.7407"/>
<text text-anchor="middle" x="242.74" y="-364.89" font-family="Times,serif" font-size="14.00">&lt;camera2&gt;</text>
<text text-anchor="middle" x="242.74" y="-349.89" font-family="Times,serif" font-size="14.00">camera</text>
</g>
<!-- n3 -->
<g id="node3" class="node"><title>n3</title>
<ellipse fill="none" stroke="black" cx="57.7401" cy="-135.61" rx="53.9645" ry="26.7574"/>
<ellipse fill="none" stroke="black" cx="57.7401" cy="-135.61" rx="57.9812" ry="30.7407"/>
<text text-anchor="middle" x="57.7401" y="-139.41" font-family="Times,serif" font-size="14.00">&lt;low_res&gt;</text>
<text text-anchor="middle" x="57.7401" y="-124.41" font-family="Times,serif" font-size="14.00">mode</text>
</g>
<!-- n1&#45;&gt;n3 -->
<g id="edge10" class="edge"><title>n1&#45;&gt;n3</title>
<path fill="none" stroke="black" stroke-dasharray="5,2" d="M188.66,-346.803C152.194,-335.042 105.94,-314.168 78.7401,-279.22 56.2306,-250.299 52.6022,-207.798 53.619,-176.719"/>
<polygon fill="black" stroke="black" points="57.1185,-176.815 54.1214,-166.653 50.1272,-176.466 57.1185,-176.815"/>
<text text-anchor="middle" x="122.74" y="-244.65" font-family="Times,serif" font-size="14.00"> static(supports)</text>
</g>
<!-- n4 -->
<g id="node4" class="node"><title>n4</title>
<ellipse fill="none" stroke="black" cx="616.74" cy="-248.35" rx="48.1667" ry="26.7407"/>
<text text-anchor="middle" x="616.74" y="-252.15" font-family="Times,serif" font-size="14.00">&lt;rover0&gt;</text>
<text text-anchor="middle" x="616.74" y="-237.15" font-family="Times,serif" font-size="14.00">rover</text>
</g>
<!-- n1&#45;&gt;n4 -->
<g id="edge11" class="edge"><title>n1&#45;&gt;n4</title>
<path fill="none" stroke="black" d="M299.22,-349.823C363.585,-337.18 471.312,-313.136 559.74,-279.22 564.635,-277.343 569.65,-275.15 574.577,-272.821"/>
<polygon fill="black" stroke="black" points="576.474,-275.788 583.889,-268.221 573.373,-269.512 576.474,-275.788"/>
<text text-anchor="middle" x="547.24" y="-301.02" font-family="Times,serif" font-size="14.00"> static(on_board)</text>
</g>
<!-- n8 -->
<g id="node8" class="node"><title>n8</title>
<ellipse fill="none" stroke="black" cx="242.74" cy="-248.35" rx="62.8691" ry="26.7574"/>
<ellipse fill="none" stroke="black" cx="242.74" cy="-248.35" rx="66.8651" ry="30.7407"/>
<text text-anchor="middle" x="242.74" y="-252.15" font-family="Times,serif" font-size="14.00">&lt;objective7&gt;</text>
<text text-anchor="middle" x="242.74" y="-237.15" font-family="Times,serif" font-size="14.00">objective</text>
</g>
<!-- n1&#45;&gt;n8 -->
<g id="edge6" class="edge"><title>n1&#45;&gt;n8</title>
<path fill="none" stroke="black" stroke-dasharray="5,2" d="M242.74,-330.123C242.74,-317.689 242.74,-303.073 242.74,-289.717"/>
<polygon fill="black" stroke="black" points="246.24,-289.342 242.74,-279.342 239.24,-289.342 246.24,-289.342"/>
<text text-anchor="middle" x="311.24" y="-301.02" font-family="Times,serif" font-size="14.00"> static(calibration_target)</text>
</g>
<!-- n2 -->
<g id="node2" class="node"><title>n2</title>
<ellipse fill="none" stroke="black" cx="379.74" cy="-248.35" rx="51.7379" ry="26.7407"/>
<text text-anchor="middle" x="379.74" y="-252.15" font-family="Times,serif" font-size="14.00">&lt;general&gt;</text>
<text text-anchor="middle" x="379.74" y="-237.15" font-family="Times,serif" font-size="14.00">lander</text>
</g>
<!-- n2&#45;&gt;n2 -->
<g id="edge1" class="edge"><title>n2&#45;&gt;n2</title>
<path fill="none" stroke="black" d="M427.572,-258.742C439.993,-258.103 449.359,-254.639 449.359,-248.35 449.359,-243.928 444.729,-240.903 437.662,-239.274"/>
<polygon fill="black" stroke="black" points="437.941,-235.781 427.572,-237.959 437.036,-242.723 437.941,-235.781"/>
<text text-anchor="middle" x="499.859" y="-244.65" font-family="Times,serif" font-size="14.00"> init(channel_free)</text>
</g>
<!-- n6 -->
<g id="node6" class="node"><title>n6</title>
<ellipse fill="none" stroke="black" cx="466.74" cy="-135.61" rx="63.7795" ry="26.7407"/>
<text text-anchor="middle" x="466.74" y="-139.41" font-family="Times,serif" font-size="14.00">&lt;waypoint0&gt;</text>
<text text-anchor="middle" x="466.74" y="-124.41" font-family="Times,serif" font-size="14.00">waypoint</text>
</g>
<!-- n2&#45;&gt;n6 -->
<g id="edge16" class="edge"><title>n2&#45;&gt;n6</title>
<path fill="none" stroke="black" d="M405.176,-224.869C413.163,-217.208 421.721,-208.333 428.74,-199.48 435.705,-190.695 442.368,-180.53 448.114,-170.969"/>
<polygon fill="black" stroke="black" points="451.301,-172.452 453.323,-162.052 445.257,-168.921 451.301,-172.452"/>
<text text-anchor="middle" x="485.74" y="-188.28" font-family="Times,serif" font-size="14.00"> static(at_lander)</text>
</g>
<!-- n4&#45;&gt;n4 -->
<g id="edge2" class="edge"><title>n4&#45;&gt;n4</title>
<path fill="none" stroke="black" d="M661.215,-258.786C673.463,-258.282 682.823,-254.803 682.823,-248.35 682.823,-243.813 678.196,-240.746 671.19,-239.15"/>
<polygon fill="black" stroke="black" points="671.569,-235.67 661.215,-237.914 670.708,-242.617 671.569,-235.67"/>
<text text-anchor="middle" x="776.323" y="-259.65" font-family="Times,serif" font-size="14.00"> static(equipped_for_imaging)</text>
<text text-anchor="middle" x="776.323" y="-244.65" font-family="Times,serif" font-size="14.00">init(available)</text>
<text text-anchor="middle" x="776.323" y="-229.65" font-family="Times,serif" font-size="14.00">static(equipped_for_soil_analysis)</text>
</g>
<!-- n4&#45;&gt;n6 -->
<g id="edge9" class="edge"><title>n4&#45;&gt;n6</title>
<path fill="none" stroke="black" d="M589.648,-225.739C574.041,-213.437 553.964,-197.859 535.74,-184.48 526.832,-177.94 517.15,-171.077 507.934,-164.654"/>
<polygon fill="black" stroke="black" points="509.848,-161.723 499.636,-158.902 505.86,-167.476 509.848,-161.723"/>
<text text-anchor="middle" x="574.24" y="-188.28" font-family="Times,serif" font-size="14.00"> init(at)</text>
</g>
<!-- n5 -->
<g id="node5" class="node"><title>n5</title>
<ellipse fill="none" stroke="black" cx="365.74" cy="-26.8701" rx="63.7795" ry="26.7407"/>
<text text-anchor="middle" x="365.74" y="-30.6701" font-family="Times,serif" font-size="14.00">&lt;waypoint1&gt;</text>
<text text-anchor="middle" x="365.74" y="-15.6701" font-family="Times,serif" font-size="14.00">waypoint</text>
</g>
<!-- n5&#45;&gt;n5 -->
<g id="edge3" class="edge"><title>n5&#45;&gt;n5</title>
<path fill="none" stroke="black" d="M425.545,-36.3053C438.224,-35.3472 447.38,-32.2021 447.38,-26.8701 447.38,-23.121 442.853,-20.4531 435.758,-18.8664"/>
<polygon fill="black" stroke="black" points="435.934,-15.3569 425.545,-17.4349 434.962,-22.2891 435.934,-15.3569"/>
<text text-anchor="middle" x="531.88" y="-30.6701" font-family="Times,serif" font-size="14.00"> end(communicated_soil_data)</text>
<text text-anchor="middle" x="531.88" y="-15.6701" font-family="Times,serif" font-size="14.00">init(at_soil_sample)</text>
</g>
<!-- n5&#45;&gt;n6 -->
<g id="edge15" class="edge"><title>n5&#45;&gt;n6</title>
<path fill="none" stroke="black" d="M411.248,-45.8892C423.453,-52.5078 435.743,-61.0633 444.74,-71.7401 451.266,-79.4844 455.902,-89.288 459.177,-98.8355"/>
<polygon fill="black" stroke="black" points="455.882,-100.031 462.119,-108.595 462.584,-98.0106 455.882,-100.031"/>
<text text-anchor="middle" x="492.74" y="-75.5401" font-family="Times,serif" font-size="14.00"> static(visible)</text>
</g>
<!-- n6&#45;&gt;n5 -->
<g id="edge12" class="edge"><title>n6&#45;&gt;n5</title>
<path fill="none" stroke="black" d="M419.539,-117.564C396.85,-108.328 373.187,-96.7828 366.74,-86.7401 362.392,-79.9658 360.624,-71.7886 360.261,-63.7125"/>
<polygon fill="black" stroke="black" points="363.761,-63.7185 360.463,-53.6501 356.763,-63.5777 363.761,-63.7185"/>
<text text-anchor="middle" x="405.74" y="-75.5401" font-family="Times,serif" font-size="14.00"> static(visible)</text>
</g>
<!-- n6&#45;&gt;n6 -->
<g id="edge4" class="edge"><title>n6&#45;&gt;n6</title>
<path fill="none" stroke="black" d="M525.816,-145.828C538.872,-144.868 548.38,-141.462 548.38,-135.61 548.38,-131.404 543.468,-128.462 535.857,-126.783"/>
<polygon fill="black" stroke="black" points="536.202,-123.298 525.816,-125.393 535.242,-130.231 536.202,-123.298"/>
<text text-anchor="middle" x="607.38" y="-131.91" font-family="Times,serif" font-size="14.00"> init(at_rock_sample)</text>
</g>
<!-- n7 -->
<g id="node7" class="node"><title>n7</title>
<ellipse fill="none" stroke="black" cx="616.74" cy="-361.09" rx="67.3507" ry="26.7407"/>
<text text-anchor="middle" x="616.74" y="-364.89" font-family="Times,serif" font-size="14.00">&lt;rover0store&gt;</text>
<text text-anchor="middle" x="616.74" y="-349.89" font-family="Times,serif" font-size="14.00">store</text>
</g>
<!-- n7&#45;&gt;n4 -->
<g id="edge7" class="edge"><title>n7&#45;&gt;n4</title>
<path fill="none" stroke="black" d="M616.74,-334.127C616.74,-319.653 616.74,-301.403 616.74,-285.546"/>
<polygon fill="black" stroke="black" points="620.24,-285.535 616.74,-275.535 613.24,-285.535 620.24,-285.535"/>
<text text-anchor="middle" x="659.74" y="-301.02" font-family="Times,serif" font-size="14.00"> static(store_of)</text>
</g>
<!-- n7&#45;&gt;n7 -->
<g id="edge5" class="edge"><title>n7&#45;&gt;n7</title>
<path fill="none" stroke="black" d="M679.135,-371.251C692.363,-370.22 701.915,-366.833 701.915,-361.09 701.915,-356.918 696.873,-353.99 689.041,-352.304"/>
<polygon fill="black" stroke="black" points="689.521,-348.837 679.135,-350.929 688.559,-355.771 689.521,-348.837"/>
<text text-anchor="middle" x="734.915" y="-357.39" font-family="Times,serif" font-size="14.00"> init(empty)</text>
</g>
<!-- n8&#45;&gt;n3 -->
<g id="edge13" class="edge"><title>n8&#45;&gt;n3</title>
<path fill="none" stroke="black" stroke-dasharray="5,2" d="M185.888,-231.853C137.956,-218.679 76.8035,-201.572 74.7401,-199.48 68.5759,-193.232 64.5869,-184.993 62.0207,-176.544"/>
<polygon fill="black" stroke="black" points="65.3761,-175.529 59.6167,-166.637 58.5735,-177.18 65.3761,-175.529"/>
<text text-anchor="middle" x="166.74" y="-188.28" font-family="Times,serif" font-size="14.00"> end(communicated_image_data)</text>
</g>
<!-- n8&#45;&gt;n5 -->
<g id="edge8" class="edge"><title>n8&#45;&gt;n5</title>
<path fill="none" stroke="black" stroke-dasharray="5,2" d="M253.118,-217.595C255.077,-211.625 257.043,-205.375 258.74,-199.48 270.73,-157.842 259.689,-142.039 281.74,-104.74 292.62,-86.3369 309.299,-69.7639 324.935,-56.7591"/>
<polygon fill="black" stroke="black" points="327.379,-59.2856 332.981,-50.2929 322.993,-53.8293 327.379,-59.2856"/>
<text text-anchor="middle" x="337.74" y="-131.91" font-family="Times,serif" font-size="14.00"> static(visible_from)</text>
</g>
<!-- n8&#45;&gt;n6 -->
<g id="edge14" class="edge"><title>n8&#45;&gt;n6</title>
<path fill="none" stroke="black" d="M267.585,-219.391C280.006,-206.999 295.952,-193.267 312.74,-184.48 343.495,-168.384 355.569,-176.71 388.74,-166.48 396.523,-164.08 404.645,-161.295 412.583,-158.41"/>
<polygon fill="black" stroke="black" points="413.983,-161.624 422.139,-154.861 411.546,-155.062 413.983,-161.624"/>
<text text-anchor="middle" x="368.74" y="-188.28" font-family="Times,serif" font-size="14.00"> static(visible_from)</text>
</g>
</g>
</svg>
