<?xml version="1.0" encoding="UTF-8" standalone="no"?>
<!DOCTYPE svg PUBLIC "-//W3C//DTD SVG 1.1//EN"
 "http://www.w3.org/Graphics/SVG/1.1/DTD/svg11.dtd">
<!-- Generated by graphviz version 2.38.0 (20140413.2041)
 -->
<!-- Title: Struc Pages: 1 -->
<svg width="4986pt" height="376pt"
 viewBox="0.00 0.00 4986.17 375.96" xmlns="http://www.w3.org/2000/svg" xmlns:xlink="http://www.w3.org/1999/xlink">
<g id="graph0" class="graph" transform="scale(1 1) rotate(0) translate(4 371.96)">
<title>Struc</title>
<polygon fill="white" stroke="none" points="-4,4 -4,-371.96 4982.17,-371.96 4982.17,4 -4,4"/>
<!-- n1 -->
<g id="node1" class="node"><title>n1</title>
<ellipse fill="none" stroke="black" cx="4725.08" cy="-341.09" rx="67.3507" ry="26.7407"/>
<text text-anchor="middle" x="4725.08" y="-344.89" font-family="Times,serif" font-size="14.00">&lt;rover0store&gt;</text>
<text text-anchor="middle" x="4725.08" y="-329.89" font-family="Times,serif" font-size="14.00">store</text>
</g>
<!-- n1&#45;&gt;n1 -->
<g id="edge1" class="edge"><title>n1&#45;&gt;n1</title>
<path fill="none" stroke="black" d="M4788.23,-350.468C4801.07,-349.447 4810.26,-346.321 4810.26,-341.09 4810.26,-337.413 4805.71,-334.775 4798.55,-333.179"/>
<polygon fill="black" stroke="black" points="4798.62,-329.653 4788.23,-331.712 4797.64,-336.584 4798.62,-329.653"/>
<text text-anchor="middle" x="4843.26" y="-337.39" font-family="Times,serif" font-size="14.00"> init(empty)</text>
</g>
<!-- n8 -->
<g id="node8" class="node"><title>n8</title>
<ellipse fill="none" stroke="black" cx="4725.08" cy="-236.35" rx="48.1667" ry="26.7407"/>
<text text-anchor="middle" x="4725.08" y="-240.15" font-family="Times,serif" font-size="14.00">&lt;rover0&gt;</text>
<text text-anchor="middle" x="4725.08" y="-225.15" font-family="Times,serif" font-size="14.00">rover</text>
</g>
<!-- n1&#45;&gt;n8 -->
<g id="edge30" class="edge"><title>n1&#45;&gt;n8</title>
<path fill="none" stroke="black" d="M4725.08,-314.165C4725.08,-301.875 4725.08,-286.987 4725.08,-273.602"/>
<polygon fill="black" stroke="black" points="4728.58,-273.268 4725.08,-263.268 4721.58,-273.268 4728.58,-273.268"/>
<text text-anchor="middle" x="4768.08" y="-285.02" font-family="Times,serif" font-size="14.00"> static(store_of)</text>
</g>
<!-- n2 -->
<g id="node2" class="node"><title>n2</title>
<ellipse fill="none" stroke="black" cx="1403.08" cy="-341.09" rx="56.6372" ry="26.7407"/>
<text text-anchor="middle" x="1403.08" y="-344.89" font-family="Times,serif" font-size="14.00">&lt;camera0&gt;</text>
<text text-anchor="middle" x="1403.08" y="-329.89" font-family="Times,serif" font-size="14.00">camera</text>
</g>
<!-- n2&#45;&gt;n8 -->
<g id="edge11" class="edge"><title>n2&#45;&gt;n8</title>
<path fill="none" stroke="black" d="M1459.65,-337.981C1689.92,-329.474 2579.26,-297.363 3311.08,-281.22 3386.46,-279.558 4594.5,-279.649 4668.08,-263.22 4672.56,-262.221 4677.11,-260.848 4681.59,-259.252"/>
<polygon fill="black" stroke="black" points="4683.19,-262.381 4691.21,-255.459 4680.63,-255.868 4683.19,-262.381"/>
<text text-anchor="middle" x="3372.58" y="-285.02" font-family="Times,serif" font-size="14.00"> static(on_board)</text>
</g>
<!-- n11 -->
<g id="node11" class="node"><title>n11</title>
<ellipse fill="none" stroke="black" cx="2057.08" cy="-131.61" rx="56.6372" ry="26.7407"/>
<text text-anchor="middle" x="2057.08" y="-135.41" font-family="Times,serif" font-size="14.00">&lt;high_res&gt;</text>
<text text-anchor="middle" x="2057.08" y="-120.41" font-family="Times,serif" font-size="14.00">mode</text>
</g>
<!-- n2&#45;&gt;n11 -->
<g id="edge6" class="edge"><title>n2&#45;&gt;n11</title>
<path fill="none" stroke="black" d="M1396.25,-314.3C1388.35,-277.992 1380.7,-212.257 1417.08,-176.48 1457.28,-136.956 1834.24,-132.51 1990.12,-132.378"/>
<polygon fill="black" stroke="black" points="1990.51,-135.878 2000.5,-132.376 1990.5,-128.878 1990.51,-135.878"/>
<text text-anchor="middle" x="1441.08" y="-232.65" font-family="Times,serif" font-size="14.00"> static(supports)</text>
</g>
<!-- n15 -->
<g id="node15" class="node"><title>n15</title>
<ellipse fill="none" stroke="black" cx="476.083" cy="-236.35" rx="62.8651" ry="26.7407"/>
<text text-anchor="middle" x="476.083" y="-240.15" font-family="Times,serif" font-size="14.00">&lt;objective5&gt;</text>
<text text-anchor="middle" x="476.083" y="-225.15" font-family="Times,serif" font-size="14.00">objective</text>
</g>
<!-- n2&#45;&gt;n15 -->
<g id="edge15" class="edge"><title>n2&#45;&gt;n15</title>
<path fill="none" stroke="black" d="M1347.55,-335.045C1223.9,-323.659 916.573,-294.509 660.083,-263.22 621.904,-258.563 579.376,-252.632 544.831,-247.625"/>
<polygon fill="black" stroke="black" points="545.246,-244.148 534.846,-246.171 544.238,-251.075 545.246,-244.148"/>
<text text-anchor="middle" x="1014.58" y="-285.02" font-family="Times,serif" font-size="14.00"> static(calibration_target)</text>
</g>
<!-- n3 -->
<g id="node3" class="node"><title>n3</title>
<ellipse fill="none" stroke="black" cx="3990.08" cy="-236.35" rx="51.7379" ry="26.7407"/>
<text text-anchor="middle" x="3990.08" y="-240.15" font-family="Times,serif" font-size="14.00">&lt;general&gt;</text>
<text text-anchor="middle" x="3990.08" y="-225.15" font-family="Times,serif" font-size="14.00">lander</text>
</g>
<!-- n3&#45;&gt;n3 -->
<g id="edge2" class="edge"><title>n3&#45;&gt;n3</title>
<path fill="none" stroke="black" d="M4038.56,-245.966C4050.66,-245.294 4059.7,-242.089 4059.7,-236.35 4059.7,-232.405 4055.43,-229.657 4048.83,-228.107"/>
<polygon fill="black" stroke="black" points="4048.94,-224.59 4038.56,-226.734 4048.01,-231.529 4048.94,-224.59"/>
<text text-anchor="middle" x="4110.2" y="-232.65" font-family="Times,serif" font-size="14.00"> init(channel_free)</text>
</g>
<!-- n13 -->
<g id="node13" class="node"><title>n13</title>
<ellipse fill="none" stroke="black" cx="3171.08" cy="-131.61" rx="63.7795" ry="26.7407"/>
<text text-anchor="middle" x="3171.08" y="-135.41" font-family="Times,serif" font-size="14.00">&lt;waypoint0&gt;</text>
<text text-anchor="middle" x="3171.08" y="-120.41" font-family="Times,serif" font-size="14.00">waypoint</text>
</g>
<!-- n3&#45;&gt;n13 -->
<g id="edge12" class="edge"><title>n3&#45;&gt;n13</title>
<path fill="none" stroke="black" d="M3975.78,-210.446C3967.17,-197.933 3954.97,-183.889 3940.08,-176.48 3878.94,-146.049 3425.7,-136.249 3245.07,-133.532"/>
<polygon fill="black" stroke="black" points="3244.91,-130.03 3234.86,-133.382 3244.81,-137.029 3244.91,-130.03"/>
<text text-anchor="middle" x="4007.08" y="-180.28" font-family="Times,serif" font-size="14.00"> static(at_lander)</text>
</g>
<!-- n4 -->
<g id="node4" class="node"><title>n4</title>
<ellipse fill="none" stroke="black" cx="855.083" cy="-236.35" rx="62.8651" ry="26.7407"/>
<text text-anchor="middle" x="855.083" y="-240.15" font-family="Times,serif" font-size="14.00">&lt;objective0&gt;</text>
<text text-anchor="middle" x="855.083" y="-225.15" font-family="Times,serif" font-size="14.00">objective</text>
</g>
<!-- n5 -->
<g id="node5" class="node"><title>n5</title>
<ellipse fill="none" stroke="black" cx="189.083" cy="-131.61" rx="48.1667" ry="26.7407"/>
<text text-anchor="middle" x="189.083" y="-135.41" font-family="Times,serif" font-size="14.00">&lt;colour&gt;</text>
<text text-anchor="middle" x="189.083" y="-120.41" font-family="Times,serif" font-size="14.00">mode</text>
</g>
<!-- n4&#45;&gt;n5 -->
<g id="edge36" class="edge"><title>n4&#45;&gt;n5</title>
<path fill="none" stroke="black" d="M808.511,-218.098C797.376,-214.64 785.426,-211.463 774.083,-209.48 667.624,-190.868 391.745,-222.047 288.083,-191.48 265.502,-184.821 242.751,-171.836 224.764,-159.751"/>
<polygon fill="black" stroke="black" points="226.553,-156.733 216.338,-153.923 222.571,-162.49 226.553,-156.733"/>
<text text-anchor="middle" x="380.083" y="-180.28" font-family="Times,serif" font-size="14.00"> end(communicated_image_data)</text>
</g>
<!-- n7 -->
<g id="node7" class="node"><title>n7</title>
<ellipse fill="none" stroke="black" cx="2463.08" cy="-26.8701" rx="63.7795" ry="26.7407"/>
<text text-anchor="middle" x="2463.08" y="-30.6701" font-family="Times,serif" font-size="14.00">&lt;waypoint1&gt;</text>
<text text-anchor="middle" x="2463.08" y="-15.6701" font-family="Times,serif" font-size="14.00">waypoint</text>
</g>
<!-- n4&#45;&gt;n7 -->
<g id="edge35" class="edge"><title>n4&#45;&gt;n7</title>
<path fill="none" stroke="black" d="M809.892,-217.637C802.31,-214.816 794.498,-211.999 787.083,-209.48 728.317,-189.516 690.321,-210.895 657.083,-158.48 644.293,-138.309 641.535,-122.87 657.083,-104.74 714.336,-37.9822 2056.38,-29.1962 2389.01,-28.0435"/>
<polygon fill="black" stroke="black" points="2389.5,-31.542 2399.49,-28.0086 2389.48,-24.542 2389.5,-31.542"/>
<text text-anchor="middle" x="713.083" y="-127.91" font-family="Times,serif" font-size="14.00"> static(visible_from)</text>
</g>
<!-- n4&#45;&gt;n11 -->
<g id="edge18" class="edge"><title>n4&#45;&gt;n11</title>
<path fill="none" stroke="black" d="M891.432,-214.386C918.495,-199.2 953.363,-180.637 969.083,-176.48 1067.36,-150.496 1768.52,-137.207 1990.13,-133.623"/>
<polygon fill="black" stroke="black" points="1990.37,-137.119 2000.31,-133.459 1990.26,-130.12 1990.37,-137.119"/>
<text text-anchor="middle" x="1061.08" y="-180.28" font-family="Times,serif" font-size="14.00"> end(communicated_image_data)</text>
</g>
<!-- n4&#45;&gt;n13 -->
<g id="edge29" class="edge"><title>n4&#45;&gt;n13</title>
<path fill="none" stroke="black" d="M901.031,-217.881C912.03,-214.432 923.846,-211.314 935.083,-209.48 1026.87,-194.501 2521.39,-222.454 2609.08,-191.48 2619.23,-187.897 2618.07,-180.415 2628.08,-176.48 2711.54,-143.683 2969.26,-135.403 3097.31,-133.314"/>
<polygon fill="black" stroke="black" points="3097.48,-136.812 3107.43,-133.158 3097.37,-129.813 3097.48,-136.812"/>
<text text-anchor="middle" x="2684.08" y="-180.28" font-family="Times,serif" font-size="14.00"> static(visible_from)</text>
</g>
<!-- n6 -->
<g id="node6" class="node"><title>n6</title>
<ellipse fill="none" stroke="black" cx="3408.08" cy="-236.35" rx="62.8651" ry="26.7407"/>
<text text-anchor="middle" x="3408.08" y="-240.15" font-family="Times,serif" font-size="14.00">&lt;objective8&gt;</text>
<text text-anchor="middle" x="3408.08" y="-225.15" font-family="Times,serif" font-size="14.00">objective</text>
</g>
<!-- n6&#45;&gt;n11 -->
<g id="edge24" class="edge"><title>n6&#45;&gt;n11</title>
<path fill="none" stroke="black" d="M3364.1,-216.858C3346.3,-209.216 3325.62,-200.132 3307.08,-191.48 3293.58,-185.175 3291.55,-180.061 3277.08,-176.48 3186.89,-154.162 2533.9,-162.604 2441.08,-158.48 2329.36,-153.516 2199.58,-143.985 2123.11,-137.98"/>
<polygon fill="black" stroke="black" points="2122.93,-134.455 2112.68,-137.157 2122.38,-141.433 2122.93,-134.455"/>
<text text-anchor="middle" x="3399.08" y="-180.28" font-family="Times,serif" font-size="14.00"> end(communicated_image_data)</text>
</g>
<!-- n6&#45;&gt;n13 -->
<g id="edge9" class="edge"><title>n6&#45;&gt;n13</title>
<path fill="none" stroke="black" d="M3470.44,-232.323C3564.93,-226.58 3730.22,-211.401 3698.08,-176.48 3668.02,-143.814 3382.58,-135.466 3244.8,-133.337"/>
<polygon fill="black" stroke="black" points="3244.79,-129.837 3234.74,-133.189 3244.68,-136.836 3244.79,-129.837"/>
<text text-anchor="middle" x="3759.08" y="-180.28" font-family="Times,serif" font-size="14.00"> static(visible_from)</text>
</g>
<!-- n7&#45;&gt;n7 -->
<g id="edge3" class="edge"><title>n7&#45;&gt;n7</title>
<path fill="none" stroke="black" d="M2522.89,-36.3053C2535.57,-35.3472 2544.72,-32.2021 2544.72,-26.8701 2544.72,-23.121 2540.2,-20.4531 2533.1,-18.8664"/>
<polygon fill="black" stroke="black" points="2533.28,-15.3569 2522.89,-17.4349 2532.31,-22.2891 2533.28,-15.3569"/>
<text text-anchor="middle" x="2629.22" y="-30.6701" font-family="Times,serif" font-size="14.00"> end(communicated_soil_data)</text>
<text text-anchor="middle" x="2629.22" y="-15.6701" font-family="Times,serif" font-size="14.00">init(at_soil_sample)</text>
</g>
<!-- n7&#45;&gt;n13 -->
<g id="edge44" class="edge"><title>n7&#45;&gt;n13</title>
<path fill="none" stroke="black" d="M2519.53,-39.4808C2583.31,-52.3128 2690.33,-72.9813 2783.08,-86.7401 2892.82,-103.018 3020.82,-116.412 3098.88,-123.957"/>
<polygon fill="black" stroke="black" points="3098.8,-127.466 3109.09,-124.938 3099.47,-120.498 3098.8,-127.466"/>
<text text-anchor="middle" x="2822.08" y="-75.5401" font-family="Times,serif" font-size="14.00"> static(visible)</text>
</g>
<!-- n8&#45;&gt;n8 -->
<g id="edge4" class="edge"><title>n8&#45;&gt;n8</title>
<path fill="none" stroke="black" d="M4770.18,-246.015C4782.12,-245.462 4791.17,-242.241 4791.17,-236.35 4791.17,-232.3 4786.89,-229.512 4780.34,-227.986"/>
<polygon fill="black" stroke="black" points="4780.54,-224.483 4770.18,-226.686 4779.65,-231.427 4780.54,-224.483"/>
<text text-anchor="middle" x="4884.67" y="-247.65" font-family="Times,serif" font-size="14.00"> static(equipped_for_imaging)</text>
<text text-anchor="middle" x="4884.67" y="-232.65" font-family="Times,serif" font-size="14.00">init(available)</text>
<text text-anchor="middle" x="4884.67" y="-217.65" font-family="Times,serif" font-size="14.00">static(equipped_for_soil_analysis)</text>
</g>
<!-- n8&#45;&gt;n13 -->
<g id="edge42" class="edge"><title>n8&#45;&gt;n13</title>
<path fill="none" stroke="black" d="M4713.89,-210.077C4706.94,-197.623 4696.71,-183.749 4683.08,-176.48 4619.11,-142.353 3539.92,-134.458 3245.03,-132.934"/>
<polygon fill="black" stroke="black" points="3244.89,-129.433 3234.87,-132.882 3244.86,-136.433 3244.89,-129.433"/>
<text text-anchor="middle" x="4721.58" y="-180.28" font-family="Times,serif" font-size="14.00"> init(at)</text>
</g>
<!-- n9 -->
<g id="node9" class="node"><title>n9</title>
<ellipse fill="none" stroke="black" cx="1007.08" cy="-236.35" rx="62.8651" ry="26.7407"/>
<text text-anchor="middle" x="1007.08" y="-240.15" font-family="Times,serif" font-size="14.00">&lt;objective2&gt;</text>
<text text-anchor="middle" x="1007.08" y="-225.15" font-family="Times,serif" font-size="14.00">objective</text>
</g>
<!-- n9&#45;&gt;n7 -->
<g id="edge19" class="edge"><title>n9&#45;&gt;n7</title>
<path fill="none" stroke="black" d="M960.166,-218.282C949.415,-214.904 937.95,-211.716 927.083,-209.48 884.892,-200.801 763.093,-223.322 734.083,-191.48 729.594,-186.552 730.49,-182.096 734.083,-176.48 744.372,-160.4 758.188,-170.421 773.083,-158.48 796.524,-139.69 787.476,-118.688 814.083,-104.74 954.643,-31.0576 2086.45,-27.333 2388.96,-27.6674"/>
<polygon fill="black" stroke="black" points="2389.37,-31.1678 2399.37,-27.6809 2389.37,-24.1678 2389.37,-31.1678"/>
<text text-anchor="middle" x="870.083" y="-127.91" font-family="Times,serif" font-size="14.00"> static(visible_from)</text>
</g>
<!-- n9&#45;&gt;n11 -->
<g id="edge37" class="edge"><title>n9&#45;&gt;n11</title>
<path fill="none" stroke="black" d="M1055.78,-219.327C1066.4,-215.967 1077.59,-212.522 1088.08,-209.48 1118.52,-200.656 1128.1,-204.303 1157.08,-191.48 1168.24,-186.542 1168.48,-180.249 1180.08,-176.48 1256.3,-151.734 1798.91,-138.044 1990.39,-133.941"/>
<polygon fill="black" stroke="black" points="1990.67,-137.436 2000.59,-133.725 1990.52,-130.438 1990.67,-137.436"/>
<text text-anchor="middle" x="1272.08" y="-180.28" font-family="Times,serif" font-size="14.00"> end(communicated_image_data)</text>
</g>
<!-- n9&#45;&gt;n13 -->
<g id="edge49" class="edge"><title>n9&#45;&gt;n13</title>
<path fill="none" stroke="black" d="M1053.19,-218.015C1064.45,-214.513 1076.57,-211.338 1088.08,-209.48 1178.91,-194.822 2657.33,-222.126 2744.08,-191.48 2754.23,-187.897 2753.12,-180.548 2763.08,-176.48 2821.91,-152.459 2996.84,-140.614 3097.52,-135.639"/>
<polygon fill="black" stroke="black" points="3097.8,-139.129 3107.62,-135.151 3097.46,-132.138 3097.8,-139.129"/>
<text text-anchor="middle" x="2819.08" y="-180.28" font-family="Times,serif" font-size="14.00"> static(visible_from)</text>
</g>
<!-- n14 -->
<g id="node14" class="node"><title>n14</title>
<ellipse fill="none" stroke="black" cx="989.083" cy="-131.61" rx="53.9813" ry="26.7407"/>
<text text-anchor="middle" x="989.083" y="-135.41" font-family="Times,serif" font-size="14.00">&lt;low_res&gt;</text>
<text text-anchor="middle" x="989.083" y="-120.41" font-family="Times,serif" font-size="14.00">mode</text>
</g>
<!-- n9&#45;&gt;n14 -->
<g id="edge8" class="edge"><title>n9&#45;&gt;n14</title>
<path fill="none" stroke="black" d="M960.16,-218.31C949.409,-214.93 937.946,-211.734 927.083,-209.48 886.423,-201.042 768.997,-222.226 741.083,-191.48 736.602,-186.544 736.61,-181.423 741.083,-176.48 768.058,-146.674 881.957,-167.707 921.083,-158.48 927.215,-157.034 933.538,-155.17 939.746,-153.105"/>
<polygon fill="black" stroke="black" points="941.088,-156.343 949.362,-149.726 938.767,-149.739 941.088,-156.343"/>
<text text-anchor="middle" x="833.083" y="-180.28" font-family="Times,serif" font-size="14.00"> end(communicated_image_data)</text>
</g>
<!-- n10 -->
<g id="node10" class="node"><title>n10</title>
<ellipse fill="none" stroke="black" cx="4298.08" cy="-236.35" rx="62.8651" ry="26.7407"/>
<text text-anchor="middle" x="4298.08" y="-240.15" font-family="Times,serif" font-size="14.00">&lt;objective4&gt;</text>
<text text-anchor="middle" x="4298.08" y="-225.15" font-family="Times,serif" font-size="14.00">objective</text>
</g>
<!-- n10&#45;&gt;n13 -->
<g id="edge27" class="edge"><title>n10&#45;&gt;n13</title>
<path fill="none" stroke="black" d="M4301.47,-209.307C4301.45,-197.589 4299.02,-184.595 4290.08,-176.48 4251.4,-141.341 3488.16,-134.281 3244.9,-132.921"/>
<polygon fill="black" stroke="black" points="3244.76,-129.421 3234.74,-132.866 3244.72,-136.421 3244.76,-129.421"/>
<text text-anchor="middle" x="4355.08" y="-180.28" font-family="Times,serif" font-size="14.00"> static(visible_from)</text>
</g>
<!-- n12 -->
<g id="node12" class="node"><title>n12</title>
<ellipse fill="none" stroke="black" cx="2364.08" cy="-236.35" rx="62.8651" ry="26.7407"/>
<text text-anchor="middle" x="2364.08" y="-240.15" font-family="Times,serif" font-size="14.00">&lt;objective6&gt;</text>
<text text-anchor="middle" x="2364.08" y="-225.15" font-family="Times,serif" font-size="14.00">objective</text>
</g>
<!-- n12&#45;&gt;n7 -->
<g id="edge26" class="edge"><title>n12&#45;&gt;n7</title>
<path fill="none" stroke="black" d="M2414.02,-219.82C2427.51,-213.212 2440.68,-204.039 2449.08,-191.48 2474.41,-153.638 2473.58,-99.3227 2469.38,-63.8241"/>
<polygon fill="black" stroke="black" points="2472.85,-63.3461 2468.06,-53.8956 2465.91,-64.2701 2472.85,-63.3461"/>
<text text-anchor="middle" x="2528.08" y="-127.91" font-family="Times,serif" font-size="14.00"> static(visible_from)</text>
</g>
<!-- n12&#45;&gt;n11 -->
<g id="edge33" class="edge"><title>n12&#45;&gt;n11</title>
<path fill="none" stroke="black" d="M2319,-217.187C2301.83,-209.801 2282.26,-200.811 2265.08,-191.48 2254.36,-185.656 2253.3,-181.293 2242.08,-176.48 2203.4,-159.882 2157.36,-148.934 2120.88,-142.127"/>
<polygon fill="black" stroke="black" points="2121.32,-138.65 2110.86,-140.315 2120.08,-145.538 2121.32,-138.65"/>
<text text-anchor="middle" x="2357.08" y="-180.28" font-family="Times,serif" font-size="14.00"> end(communicated_image_data)</text>
</g>
<!-- n12&#45;&gt;n13 -->
<g id="edge32" class="edge"><title>n12&#45;&gt;n13</title>
<path fill="none" stroke="black" d="M2425.78,-230.612C2496.4,-225.242 2615.56,-216.344 2718.08,-209.48 2783.84,-205.079 2952.51,-214.973 3014.08,-191.48 3024.14,-187.645 3023.58,-181.525 3033.08,-176.48 3055.82,-164.41 3082.44,-154.977 3106.21,-148.003"/>
<polygon fill="black" stroke="black" points="3107.19,-151.362 3115.85,-145.26 3105.28,-144.63 3107.19,-151.362"/>
<text text-anchor="middle" x="3089.08" y="-180.28" font-family="Times,serif" font-size="14.00"> static(visible_from)</text>
</g>
<!-- n12&#45;&gt;n14 -->
<g id="edge20" class="edge"><title>n12&#45;&gt;n14</title>
<path fill="none" stroke="black" d="M2304.31,-227.559C2256.88,-221.67 2188.85,-213.873 2129.08,-209.48 2075.3,-205.527 1695.48,-207.802 1644.08,-191.48 1632.45,-187.786 1632.65,-180.361 1621.08,-176.48 1517.19,-141.635 1192.13,-134.456 1053.14,-132.985"/>
<polygon fill="black" stroke="black" points="1053.1,-129.484 1043.06,-132.885 1053.03,-136.484 1053.1,-129.484"/>
<text text-anchor="middle" x="1736.08" y="-180.28" font-family="Times,serif" font-size="14.00"> end(communicated_image_data)</text>
</g>
<!-- n13&#45;&gt;n7 -->
<g id="edge31" class="edge"><title>n13&#45;&gt;n7</title>
<path fill="none" stroke="black" d="M3115.48,-118.5C3054.34,-105.516 2953.09,-84.9847 2865.08,-71.7401 2750.24,-54.4557 2615.96,-41.1908 2535.31,-33.9681"/>
<polygon fill="black" stroke="black" points="2535.54,-30.4742 2525.27,-33.0746 2534.92,-37.4467 2535.54,-30.4742"/>
<text text-anchor="middle" x="2989.08" y="-75.5401" font-family="Times,serif" font-size="14.00"> static(visible)</text>
</g>
<!-- n13&#45;&gt;n13 -->
<g id="edge5" class="edge"><title>n13&#45;&gt;n13</title>
<path fill="none" stroke="black" d="M3230.89,-141.045C3243.57,-140.087 3252.72,-136.942 3252.72,-131.61 3252.72,-127.861 3248.2,-125.193 3241.1,-123.607"/>
<polygon fill="black" stroke="black" points="3241.28,-120.097 3230.89,-122.175 3240.31,-127.029 3241.28,-120.097"/>
<text text-anchor="middle" x="3311.72" y="-127.91" font-family="Times,serif" font-size="14.00"> init(at_rock_sample)</text>
</g>
<!-- n15&#45;&gt;n5 -->
<g id="edge22" class="edge"><title>n15&#45;&gt;n5</title>
<path fill="none" stroke="black" d="M413.277,-233.519C299.622,-229.552 69.2846,-218.27 45.0835,-191.48 3.39688,-145.335 9.61594,-195.551 127.083,-158.48 132.297,-156.835 137.68,-154.925 142.996,-152.902"/>
<polygon fill="black" stroke="black" points="144.425,-156.101 152.44,-149.172 141.854,-149.59 144.425,-156.101"/>
<text text-anchor="middle" x="137.083" y="-180.28" font-family="Times,serif" font-size="14.00"> end(communicated_image_data)</text>
</g>
<!-- n15&#45;&gt;n7 -->
<g id="edge25" class="edge"><title>n15&#45;&gt;n7</title>
<path fill="none" stroke="black" d="M416.391,-227.7C372.177,-222.186 310.433,-214.81 256.083,-209.48 230.682,-206.989 46.2699,-208.312 27.0835,-191.48 12.5663,-178.745 19.7208,-105.121 20.0835,-104.74 62.0149,-60.7492 1986.3,-33.9214 2389.48,-28.7777"/>
<polygon fill="black" stroke="black" points="2389.61,-32.2765 2399.57,-28.6496 2389.52,-25.277 2389.61,-32.2765"/>
<text text-anchor="middle" x="76.0835" y="-127.91" font-family="Times,serif" font-size="14.00"> static(visible_from)</text>
</g>
<!-- n15&#45;&gt;n13 -->
<g id="edge28" class="edge"><title>n15&#45;&gt;n13</title>
<path fill="none" stroke="black" d="M533.885,-225.263C570.028,-219.443 617.621,-212.665 660.083,-209.48 858.758,-194.58 2257.23,-228.012 2453.08,-191.48 2471.75,-187.999 2474.52,-180.47 2493.08,-176.48 2606.59,-152.086 2946.43,-139.268 3097.41,-134.647"/>
<polygon fill="black" stroke="black" points="3097.62,-138.142 3107.51,-134.341 3097.41,-131.146 3097.62,-138.142"/>
<text text-anchor="middle" x="2549.08" y="-180.28" font-family="Times,serif" font-size="14.00"> static(visible_from)</text>
</g>
<!-- n15&#45;&gt;n14 -->
<g id="edge16" class="edge"><title>n15&#45;&gt;n14</title>
<path fill="none" stroke="black" d="M472.705,-209.315C472.721,-197.598 475.159,-184.604 484.083,-176.48 520.021,-143.768 873.478,-168.247 921.083,-158.48 927.336,-157.198 933.769,-155.413 940.069,-153.375"/>
<polygon fill="black" stroke="black" points="941.509,-156.581 949.813,-150 939.218,-149.966 941.509,-156.581"/>
<text text-anchor="middle" x="576.083" y="-180.28" font-family="Times,serif" font-size="14.00"> end(communicated_image_data)</text>
</g>
<!-- n16 -->
<g id="node16" class="node"><title>n16</title>
<ellipse fill="none" stroke="black" cx="2057.08" cy="-236.35" rx="62.8651" ry="26.7407"/>
<text text-anchor="middle" x="2057.08" y="-240.15" font-family="Times,serif" font-size="14.00">&lt;objective1&gt;</text>
<text text-anchor="middle" x="2057.08" y="-225.15" font-family="Times,serif" font-size="14.00">objective</text>
</g>
<!-- n16&#45;&gt;n11 -->
<g id="edge38" class="edge"><title>n16&#45;&gt;n11</title>
<path fill="none" stroke="black" d="M2057.08,-209.425C2057.08,-197.135 2057.08,-182.247 2057.08,-168.862"/>
<polygon fill="black" stroke="black" points="2060.58,-168.528 2057.08,-158.528 2053.58,-168.528 2060.58,-168.528"/>
<text text-anchor="middle" x="2149.08" y="-180.28" font-family="Times,serif" font-size="14.00"> end(communicated_image_data)</text>
</g>
<!-- n16&#45;&gt;n13 -->
<g id="edge23" class="edge"><title>n16&#45;&gt;n13</title>
<path fill="none" stroke="black" d="M2116.85,-227.452C2164.28,-221.504 2232.31,-213.681 2292.08,-209.48 2357.18,-204.907 2817.77,-213.823 2879.08,-191.48 2889.19,-187.796 2888.23,-180.806 2898.08,-176.48 2961.7,-148.542 3040.65,-138.172 3097.26,-134.435"/>
<polygon fill="black" stroke="black" points="3097.79,-137.91 3107.56,-133.812 3097.37,-130.922 3097.79,-137.91"/>
<text text-anchor="middle" x="2954.08" y="-180.28" font-family="Times,serif" font-size="14.00"> static(visible_from)</text>
</g>
<!-- n16&#45;&gt;n14 -->
<g id="edge46" class="edge"><title>n16&#45;&gt;n14</title>
<path fill="none" stroke="black" d="M1994.29,-233.88C1881.97,-230.591 1639.5,-220.491 1437.08,-191.48 1406.02,-187.028 1399.04,-181.624 1368.08,-176.48 1257.47,-158.101 1127.41,-144.845 1052,-137.974"/>
<polygon fill="black" stroke="black" points="1052.01,-134.46 1041.73,-137.047 1051.38,-141.432 1052.01,-134.46"/>
<text text-anchor="middle" x="1529.08" y="-180.28" font-family="Times,serif" font-size="14.00"> end(communicated_image_data)</text>
</g>
<!-- n17 -->
<g id="node17" class="node"><title>n17</title>
<ellipse fill="none" stroke="black" cx="4447.08" cy="-236.35" rx="67.7647" ry="26.7407"/>
<text text-anchor="middle" x="4447.08" y="-240.15" font-family="Times,serif" font-size="14.00">&lt;objective10&gt;</text>
<text text-anchor="middle" x="4447.08" y="-225.15" font-family="Times,serif" font-size="14.00">objective</text>
</g>
<!-- n17&#45;&gt;n13 -->
<g id="edge17" class="edge"><title>n17&#45;&gt;n13</title>
<path fill="none" stroke="black" d="M4439.64,-209.378C4434.73,-197.219 4426.95,-183.825 4415.08,-176.48 4365.21,-145.623 3505.27,-135.552 3245.07,-133.204"/>
<polygon fill="black" stroke="black" points="3245,-129.703 3234.97,-133.114 3244.94,-136.703 3245,-129.703"/>
<text text-anchor="middle" x="4486.08" y="-180.28" font-family="Times,serif" font-size="14.00"> static(visible_from)</text>
</g>
<!-- n18 -->
<g id="node18" class="node"><title>n18</title>
<ellipse fill="none" stroke="black" cx="682.083" cy="-341.09" rx="56.6372" ry="26.7407"/>
<text text-anchor="middle" x="682.083" y="-344.89" font-family="Times,serif" font-size="14.00">&lt;camera1&gt;</text>
<text text-anchor="middle" x="682.083" y="-329.89" font-family="Times,serif" font-size="14.00">camera</text>
</g>
<!-- n18&#45;&gt;n5 -->
<g id="edge48" class="edge"><title>n18&#45;&gt;n5</title>
<path fill="none" stroke="black" d="M626.406,-336.207C481.955,-324.851 101.255,-286.315 27.0835,-191.48 -15.8362,-136.604 -23.7516,-202.949 127.083,-158.48 132.397,-156.914 137.874,-155.038 143.27,-153.021"/>
<polygon fill="black" stroke="black" points="144.805,-156.179 152.842,-149.276 142.254,-149.66 144.805,-156.179"/>
<text text-anchor="middle" x="208.083" y="-232.65" font-family="Times,serif" font-size="14.00"> static(supports)</text>
</g>
<!-- n18&#45;&gt;n8 -->
<g id="edge34" class="edge"><title>n18&#45;&gt;n8</title>
<path fill="none" stroke="black" d="M738.585,-337.59C852.017,-332.63 1115.57,-321.404 1337.08,-314.22 1915.19,-295.473 2059.76,-291.118 2638.08,-281.22 2750.85,-279.29 4557.96,-287.553 4668.08,-263.22 4672.56,-262.231 4677.11,-260.864 4681.59,-259.272"/>
<polygon fill="black" stroke="black" points="4683.19,-262.403 4691.22,-255.485 4680.63,-255.888 4683.19,-262.403"/>
<text text-anchor="middle" x="3472.58" y="-285.02" font-family="Times,serif" font-size="14.00"> static(on_board)</text>
</g>
<!-- n18&#45;&gt;n11 -->
<g id="edge51" class="edge"><title>n18&#45;&gt;n11</title>
<path fill="none" stroke="black" d="M736.373,-333.198C860.657,-317.257 1158.52,-278.072 1202.08,-263.22 1248.37,-247.443 1252.83,-227.993 1298.08,-209.48 1326.22,-197.969 1335.23,-201.076 1364.08,-191.48 1381.31,-185.75 1384.37,-180.468 1402.08,-176.48 1512.59,-151.604 1846.39,-138.91 1990.1,-134.477"/>
<polygon fill="black" stroke="black" points="1990.63,-137.963 2000.52,-134.16 1990.42,-130.966 1990.63,-137.963"/>
<text text-anchor="middle" x="1343.08" y="-232.65" font-family="Times,serif" font-size="14.00"> static(supports)</text>
</g>
<!-- n18&#45;&gt;n14 -->
<g id="edge41" class="edge"><title>n18&#45;&gt;n14</title>
<path fill="none" stroke="black" d="M679.16,-314.174C677.255,-286.59 677.751,-242.461 695.083,-209.48 705.646,-189.381 713.162,-185.304 734.083,-176.48 811.017,-144.034 839.782,-177.495 921.083,-158.48 927.218,-157.046 933.543,-155.188 939.751,-153.127"/>
<polygon fill="black" stroke="black" points="941.092,-156.366 949.368,-149.751 938.773,-149.761 941.092,-156.366"/>
<text text-anchor="middle" x="739.083" y="-232.65" font-family="Times,serif" font-size="14.00"> static(supports)</text>
</g>
<!-- n18&#45;&gt;n15 -->
<g id="edge50" class="edge"><title>n18&#45;&gt;n15</title>
<path fill="none" stroke="black" d="M628.911,-331.877C598.604,-325.484 560.854,-314.516 531.083,-296.22 519.894,-289.344 509.514,-279.592 500.854,-269.998"/>
<polygon fill="black" stroke="black" points="503.478,-267.682 494.295,-262.397 498.178,-272.255 503.478,-267.682"/>
<text text-anchor="middle" x="599.583" y="-285.02" font-family="Times,serif" font-size="14.00"> static(calibration_target)</text>
</g>
<!-- n19 -->
<g id="node19" class="node"><title>n19</title>
<ellipse fill="none" stroke="black" cx="3754.08" cy="-236.35" rx="62.8651" ry="26.7407"/>
<text text-anchor="middle" x="3754.08" y="-240.15" font-family="Times,serif" font-size="14.00">&lt;objective3&gt;</text>
<text text-anchor="middle" x="3754.08" y="-225.15" font-family="Times,serif" font-size="14.00">objective</text>
</g>
<!-- n19&#45;&gt;n11 -->
<g id="edge39" class="edge"><title>n19&#45;&gt;n11</title>
<path fill="none" stroke="black" d="M3691.71,-232.501C3640.89,-228.246 3568.26,-217.678 3510.08,-191.48 3500.27,-187.063 3501.22,-180.096 3491.08,-176.48 3436.13,-156.875 2499.37,-160.942 2441.08,-158.48 2329.35,-153.762 2199.57,-144.154 2123.11,-138.068"/>
<polygon fill="black" stroke="black" points="2122.93,-134.543 2112.68,-137.234 2122.37,-141.52 2122.93,-134.543"/>
<text text-anchor="middle" x="3602.08" y="-180.28" font-family="Times,serif" font-size="14.00"> end(communicated_image_data)</text>
</g>
<!-- n19&#45;&gt;n13 -->
<g id="edge47" class="edge"><title>n19&#45;&gt;n13</title>
<path fill="none" stroke="black" d="M3797.02,-216.332C3816.39,-205.206 3832.29,-190.607 3819.08,-176.48 3780.59,-135.293 3406.79,-131.684 3245.05,-132.076"/>
<polygon fill="black" stroke="black" points="3244.7,-128.577 3234.71,-132.108 3244.72,-135.577 3244.7,-128.577"/>
<text text-anchor="middle" x="3880.08" y="-180.28" font-family="Times,serif" font-size="14.00"> static(visible_from)</text>
</g>
<!-- n20 -->
<g id="node20" class="node"><title>n20</title>
<ellipse fill="none" stroke="black" cx="4596.08" cy="-236.35" rx="62.8651" ry="26.7407"/>
<text text-anchor="middle" x="4596.08" y="-240.15" font-family="Times,serif" font-size="14.00">&lt;objective9&gt;</text>
<text text-anchor="middle" x="4596.08" y="-225.15" font-family="Times,serif" font-size="14.00">objective</text>
</g>
<!-- n20&#45;&gt;n7 -->
<g id="edge43" class="edge"><title>n20&#45;&gt;n7</title>
<path fill="none" stroke="black" d="M4647.41,-220.721C4661.39,-214.125 4674.92,-204.732 4683.08,-191.48 4686.58,-185.803 4687.64,-181.349 4683.08,-176.48 4608.05,-96.2556 2913.24,-41.2568 2536.74,-30.0034"/>
<polygon fill="black" stroke="black" points="2536.61,-26.4981 2526.51,-29.6988 2536.4,-33.495 2536.61,-26.4981"/>
<text text-anchor="middle" x="4685.08" y="-127.91" font-family="Times,serif" font-size="14.00"> static(visible_from)</text>
</g>
<!-- n20&#45;&gt;n11 -->
<g id="edge7" class="edge"><title>n20&#45;&gt;n11</title>
<path fill="none" stroke="black" d="M4551.74,-217.061C4542.72,-214.016 4533.21,-211.271 4524.08,-209.48 4339.87,-173.329 4286.7,-225.493 4102.08,-191.48 4081.35,-187.661 4077.87,-179.973 4057.08,-176.48 3880,-146.73 2620.51,-165.518 2441.08,-158.48 2329.33,-154.097 2199.56,-144.387 2123.1,-138.189"/>
<polygon fill="black" stroke="black" points="2122.93,-134.663 2112.67,-137.338 2122.36,-141.64 2122.93,-134.663"/>
<text text-anchor="middle" x="4194.08" y="-180.28" font-family="Times,serif" font-size="14.00"> end(communicated_image_data)</text>
</g>
<!-- n20&#45;&gt;n13 -->
<g id="edge10" class="edge"><title>n20&#45;&gt;n13</title>
<path fill="none" stroke="black" d="M4581.65,-209.992C4573.06,-197.514 4560.94,-183.644 4546.08,-176.48 4487.18,-148.076 3522.29,-136.16 3245.04,-133.313"/>
<polygon fill="black" stroke="black" points="3244.72,-129.809 3234.69,-133.207 3244.65,-136.809 3244.72,-129.809"/>
<text text-anchor="middle" x="4623.08" y="-180.28" font-family="Times,serif" font-size="14.00"> static(visible_from)</text>
</g>
<!-- n21 -->
<g id="node21" class="node"><title>n21</title>
<ellipse fill="none" stroke="black" cx="3408.08" cy="-341.09" rx="56.6372" ry="26.7407"/>
<text text-anchor="middle" x="3408.08" y="-344.89" font-family="Times,serif" font-size="14.00">&lt;camera2&gt;</text>
<text text-anchor="middle" x="3408.08" y="-329.89" font-family="Times,serif" font-size="14.00">camera</text>
</g>
<!-- n21&#45;&gt;n6 -->
<g id="edge14" class="edge"><title>n21&#45;&gt;n6</title>
<path fill="none" stroke="black" d="M3408.08,-314.165C3408.08,-301.875 3408.08,-286.987 3408.08,-273.602"/>
<polygon fill="black" stroke="black" points="3411.58,-273.268 3408.08,-263.268 3404.58,-273.268 3411.58,-273.268"/>
<text text-anchor="middle" x="3476.58" y="-285.02" font-family="Times,serif" font-size="14.00"> static(calibration_target)</text>
</g>
<!-- n21&#45;&gt;n8 -->
<g id="edge13" class="edge"><title>n21&#45;&gt;n8</title>
<path fill="none" stroke="black" d="M3464.84,-339.363C3678.66,-336.2 4435.19,-321.078 4668.08,-263.22 4672.47,-262.13 4676.94,-260.71 4681.35,-259.097"/>
<polygon fill="black" stroke="black" points="4682.85,-262.266 4690.84,-255.309 4680.26,-255.764 4682.85,-262.266"/>
<text text-anchor="middle" x="4613.58" y="-285.02" font-family="Times,serif" font-size="14.00"> static(on_board)</text>
</g>
<!-- n21&#45;&gt;n14 -->
<g id="edge21" class="edge"><title>n21&#45;&gt;n14</title>
<path fill="none" stroke="black" d="M3351.65,-338.575C3001.05,-329.118 1134.89,-278.108 1110.08,-263.22 1086.44,-249.032 1101.92,-224.929 1079.08,-209.48 1032.23,-177.785 990.147,-234.215 953.083,-191.48 945.602,-182.854 948.682,-172.491 955.496,-162.88"/>
<polygon fill="black" stroke="black" points="958.297,-164.984 961.948,-155.038 952.891,-160.536 958.297,-164.984"/>
<text text-anchor="middle" x="1154.08" y="-232.65" font-family="Times,serif" font-size="14.00"> static(supports)</text>
</g>
<!-- n22 -->
<g id="node22" class="node"><title>n22</title>
<ellipse fill="none" stroke="black" cx="2790.08" cy="-236.35" rx="62.8651" ry="26.7407"/>
<text text-anchor="middle" x="2790.08" y="-240.15" font-family="Times,serif" font-size="14.00">&lt;objective7&gt;</text>
<text text-anchor="middle" x="2790.08" y="-225.15" font-family="Times,serif" font-size="14.00">objective</text>
</g>
<!-- n22&#45;&gt;n13 -->
<g id="edge45" class="edge"><title>n22&#45;&gt;n13</title>
<path fill="none" stroke="black" d="M2852.98,-235.317C2943.47,-234.018 3104.45,-226.651 3149.08,-191.48 3156.51,-185.628 3161.43,-176.993 3164.69,-168.128"/>
<polygon fill="black" stroke="black" points="3168.04,-169.127 3167.61,-158.541 3161.35,-167.085 3168.04,-169.127"/>
<text text-anchor="middle" x="3217.08" y="-180.28" font-family="Times,serif" font-size="14.00"> static(visible_from)</text>
</g>
<!-- n22&#45;&gt;n14 -->
<g id="edge40" class="edge"><title>n22&#45;&gt;n14</title>
<path fill="none" stroke="black" d="M2728.74,-230.096C2658.18,-224.233 2538.85,-214.864 2436.08,-209.48 2310.19,-202.885 1992.85,-215.441 1869.08,-191.48 1850.03,-187.792 1847.09,-180.363 1828.08,-176.48 1680.07,-146.248 1222.27,-136.218 1052.92,-133.49"/>
<polygon fill="black" stroke="black" points="1052.96,-129.991 1042.91,-133.332 1052.85,-136.99 1052.96,-129.991"/>
<text text-anchor="middle" x="1961.08" y="-180.28" font-family="Times,serif" font-size="14.00"> end(communicated_image_data)</text>
</g>
</g>
</svg>
