<?xml version="1.0" encoding="UTF-8" standalone="no"?>
<!DOCTYPE svg PUBLIC "-//W3C//DTD SVG 1.1//EN"
 "http://www.w3.org/Graphics/SVG/1.1/DTD/svg11.dtd">
<!-- Generated by graphviz version 2.38.0 (20140413.2041)
 -->
<!-- Title: Struc Pages: 1 -->
<svg width="4705pt" height="376pt"
 viewBox="0.00 0.00 4705.41 375.96" xmlns="http://www.w3.org/2000/svg" xmlns:xlink="http://www.w3.org/1999/xlink">
<g id="graph0" class="graph" transform="scale(1 1) rotate(0) translate(4 371.96)">
<title>Struc</title>
<polygon fill="white" stroke="none" points="-4,4 -4,-371.96 4701.41,-371.96 4701.41,4 -4,4"/>
<!-- n1 -->
<g id="node1" class="node"><title>n1</title>
<ellipse fill="none" stroke="black" cx="2010.41" cy="-236.35" rx="51.7379" ry="26.7407"/>
<text text-anchor="middle" x="2010.41" y="-240.15" font-family="Times,serif" font-size="14.00">&lt;general&gt;</text>
<text text-anchor="middle" x="2010.41" y="-225.15" font-family="Times,serif" font-size="14.00">lander</text>
</g>
<!-- n1&#45;&gt;n1 -->
<g id="edge1" class="edge"><title>n1&#45;&gt;n1</title>
<path fill="none" stroke="black" d="M2058.88,-245.966C2070.98,-245.294 2080.02,-242.089 2080.02,-236.35 2080.02,-232.405 2075.75,-229.657 2069.15,-228.107"/>
<polygon fill="black" stroke="black" points="2069.26,-224.59 2058.88,-226.734 2068.33,-231.529 2069.26,-224.59"/>
<text text-anchor="middle" x="2130.52" y="-232.65" font-family="Times,serif" font-size="14.00"> init(channel_free)</text>
</g>
<!-- n6 -->
<g id="node6" class="node"><title>n6</title>
<ellipse fill="none" stroke="black" cx="2399.41" cy="-131.61" rx="63.7795" ry="26.7407"/>
<text text-anchor="middle" x="2399.41" y="-135.41" font-family="Times,serif" font-size="14.00">&lt;waypoint0&gt;</text>
<text text-anchor="middle" x="2399.41" y="-120.41" font-family="Times,serif" font-size="14.00">waypoint</text>
</g>
<!-- n1&#45;&gt;n6 -->
<g id="edge44" class="edge"><title>n1&#45;&gt;n6</title>
<path fill="none" stroke="black" d="M2003.82,-209.662C2002.48,-198.166 2003.43,-185.256 2011.41,-176.48 2032.14,-153.667 2219.26,-141.126 2325.88,-135.776"/>
<polygon fill="black" stroke="black" points="2326.12,-139.268 2335.94,-135.281 2325.78,-132.277 2326.12,-139.268"/>
<text text-anchor="middle" x="2057.41" y="-180.28" font-family="Times,serif" font-size="14.00"> static(at_lander)</text>
</g>
<!-- n2 -->
<g id="node2" class="node"><title>n2</title>
<ellipse fill="none" stroke="black" cx="3200.41" cy="-341.09" rx="56.6372" ry="26.7407"/>
<text text-anchor="middle" x="3200.41" y="-344.89" font-family="Times,serif" font-size="14.00">&lt;camera2&gt;</text>
<text text-anchor="middle" x="3200.41" y="-329.89" font-family="Times,serif" font-size="14.00">camera</text>
</g>
<!-- n14 -->
<g id="node14" class="node"><title>n14</title>
<ellipse fill="none" stroke="black" cx="3637.41" cy="-236.35" rx="62.8651" ry="26.7407"/>
<text text-anchor="middle" x="3637.41" y="-240.15" font-family="Times,serif" font-size="14.00">&lt;objective8&gt;</text>
<text text-anchor="middle" x="3637.41" y="-225.15" font-family="Times,serif" font-size="14.00">objective</text>
</g>
<!-- n2&#45;&gt;n14 -->
<g id="edge23" class="edge"><title>n2&#45;&gt;n14</title>
<path fill="none" stroke="black" d="M3241.55,-322.615C3249.69,-319.54 3258.25,-316.576 3266.41,-314.22 3304.01,-303.366 3400.8,-287.656 3439.41,-281.22 3495.2,-271.918 3510.51,-276.855 3565.41,-263.22 3571.02,-261.826 3576.81,-260.157 3582.55,-258.347"/>
<polygon fill="black" stroke="black" points="3583.73,-261.645 3592.13,-255.192 3581.54,-254.996 3583.73,-261.645"/>
<text text-anchor="middle" x="3507.91" y="-285.02" font-family="Times,serif" font-size="14.00"> static(calibration_target)</text>
</g>
<!-- n16 -->
<g id="node16" class="node"><title>n16</title>
<ellipse fill="none" stroke="black" cx="3015.41" cy="-236.35" rx="48.1667" ry="26.7407"/>
<text text-anchor="middle" x="3015.41" y="-240.15" font-family="Times,serif" font-size="14.00">&lt;rover0&gt;</text>
<text text-anchor="middle" x="3015.41" y="-225.15" font-family="Times,serif" font-size="14.00">rover</text>
</g>
<!-- n2&#45;&gt;n16 -->
<g id="edge7" class="edge"><title>n2&#45;&gt;n16</title>
<path fill="none" stroke="black" d="M3164.3,-320.037C3133.64,-303.009 3089.61,-278.558 3057.38,-260.662"/>
<polygon fill="black" stroke="black" points="3059.07,-257.595 3048.63,-255.799 3055.67,-263.714 3059.07,-257.595"/>
<text text-anchor="middle" x="3165.91" y="-285.02" font-family="Times,serif" font-size="14.00"> static(on_board)</text>
</g>
<!-- n18 -->
<g id="node18" class="node"><title>n18</title>
<ellipse fill="none" stroke="black" cx="1293.41" cy="-131.61" rx="53.9813" ry="26.7407"/>
<text text-anchor="middle" x="1293.41" y="-135.41" font-family="Times,serif" font-size="14.00">&lt;low_res&gt;</text>
<text text-anchor="middle" x="1293.41" y="-120.41" font-family="Times,serif" font-size="14.00">mode</text>
</g>
<!-- n2&#45;&gt;n18 -->
<g id="edge43" class="edge"><title>n2&#45;&gt;n18</title>
<path fill="none" stroke="black" d="M3143.85,-339.751C2837.49,-337.668 1388.09,-324.585 1317.41,-263.22 1291.01,-240.304 1287.46,-198.716 1288.96,-168.613"/>
<polygon fill="black" stroke="black" points="1292.46,-168.714 1289.67,-158.494 1285.48,-168.224 1292.46,-168.714"/>
<text text-anchor="middle" x="1361.41" y="-232.65" font-family="Times,serif" font-size="14.00"> static(supports)</text>
</g>
<!-- n3 -->
<g id="node3" class="node"><title>n3</title>
<ellipse fill="none" stroke="black" cx="289.406" cy="-236.35" rx="62.8651" ry="26.7407"/>
<text text-anchor="middle" x="289.406" y="-240.15" font-family="Times,serif" font-size="14.00">&lt;objective2&gt;</text>
<text text-anchor="middle" x="289.406" y="-225.15" font-family="Times,serif" font-size="14.00">objective</text>
</g>
<!-- n5 -->
<g id="node5" class="node"><title>n5</title>
<ellipse fill="none" stroke="black" cx="2298.41" cy="-26.8701" rx="63.7795" ry="26.7407"/>
<text text-anchor="middle" x="2298.41" y="-30.6701" font-family="Times,serif" font-size="14.00">&lt;waypoint1&gt;</text>
<text text-anchor="middle" x="2298.41" y="-15.6701" font-family="Times,serif" font-size="14.00">waypoint</text>
</g>
<!-- n3&#45;&gt;n5 -->
<g id="edge22" class="edge"><title>n3&#45;&gt;n5</title>
<path fill="none" stroke="black" d="M244.234,-217.581C236.65,-214.766 228.832,-211.966 221.406,-209.48 194.197,-200.371 176.636,-214.424 159.406,-191.48 138.871,-164.135 129.248,-147.368 191.406,-104.74 276.901,-46.1075 1861.49,-31.0472 2224.67,-28.3595"/>
<polygon fill="black" stroke="black" points="2224.83,-31.8585 2234.8,-28.2854 2224.78,-24.8587 2224.83,-31.8585"/>
<text text-anchor="middle" x="247.406" y="-127.91" font-family="Times,serif" font-size="14.00"> static(visible_from)</text>
</g>
<!-- n3&#45;&gt;n6 -->
<g id="edge13" class="edge"><title>n3&#45;&gt;n6</title>
<path fill="none" stroke="black" d="M351.594,-231.805C525,-221.89 1001.75,-194.402 1009.41,-191.48 1019.46,-187.644 1018.3,-180.171 1028.41,-176.48 1059.1,-165.272 2045.41,-141.024 2325.76,-134.344"/>
<polygon fill="black" stroke="black" points="2325.91,-137.842 2335.82,-134.105 2325.74,-130.844 2325.91,-137.842"/>
<text text-anchor="middle" x="1084.41" y="-180.28" font-family="Times,serif" font-size="14.00"> static(visible_from)</text>
</g>
<!-- n3&#45;&gt;n18 -->
<g id="edge40" class="edge"><title>n3&#45;&gt;n18</title>
<path fill="none" stroke="black" d="M241.454,-218.948C207.437,-207.202 167.598,-193.171 166.406,-191.48 162.565,-186.032 161.741,-181.243 166.406,-176.48 183.203,-159.33 1006.44,-159.906 1030.41,-158.48 1099.46,-154.371 1178.41,-146.127 1231.64,-140.046"/>
<polygon fill="black" stroke="black" points="1232.07,-143.52 1241.6,-138.898 1231.27,-136.566 1232.07,-143.52"/>
<text text-anchor="middle" x="258.406" y="-180.28" font-family="Times,serif" font-size="14.00"> end(communicated_image_data)</text>
</g>
<!-- n4 -->
<g id="node4" class="node"><title>n4</title>
<ellipse fill="none" stroke="black" cx="4091.41" cy="-131.61" rx="56.6372" ry="26.7407"/>
<text text-anchor="middle" x="4091.41" y="-135.41" font-family="Times,serif" font-size="14.00">&lt;high_res&gt;</text>
<text text-anchor="middle" x="4091.41" y="-120.41" font-family="Times,serif" font-size="14.00">mode</text>
</g>
<!-- n5&#45;&gt;n5 -->
<g id="edge2" class="edge"><title>n5&#45;&gt;n5</title>
<path fill="none" stroke="black" d="M2358.21,-36.3053C2370.89,-35.3472 2380.05,-32.2021 2380.05,-26.8701 2380.05,-23.121 2375.52,-20.4531 2368.42,-18.8664"/>
<polygon fill="black" stroke="black" points="2368.6,-15.3569 2358.21,-17.4349 2367.63,-22.2891 2368.6,-15.3569"/>
<text text-anchor="middle" x="2464.55" y="-30.6701" font-family="Times,serif" font-size="14.00"> end(communicated_soil_data)</text>
<text text-anchor="middle" x="2464.55" y="-15.6701" font-family="Times,serif" font-size="14.00">init(at_soil_sample)</text>
</g>
<!-- n5&#45;&gt;n6 -->
<g id="edge12" class="edge"><title>n5&#45;&gt;n6</title>
<path fill="none" stroke="black" d="M2292.98,-53.7484C2292.08,-64.7496 2293.06,-77.2091 2299.41,-86.7401 2307.68,-99.179 2320.34,-108.117 2333.9,-114.531"/>
<polygon fill="black" stroke="black" points="2332.82,-117.873 2343.39,-118.579 2335.56,-111.435 2332.82,-117.873"/>
<text text-anchor="middle" x="2338.41" y="-75.5401" font-family="Times,serif" font-size="14.00"> static(visible)</text>
</g>
<!-- n6&#45;&gt;n5 -->
<g id="edge28" class="edge"><title>n6&#45;&gt;n5</title>
<path fill="none" stroke="black" d="M2394.01,-104.771C2390.68,-93.6493 2385.45,-81.0841 2377.41,-71.7401 2370.5,-63.7212 2361.75,-56.8825 2352.61,-51.1588"/>
<polygon fill="black" stroke="black" points="2354.17,-48.0189 2343.77,-46.0107 2350.65,-54.0678 2354.17,-48.0189"/>
<text text-anchor="middle" x="2426.41" y="-75.5401" font-family="Times,serif" font-size="14.00"> static(visible)</text>
</g>
<!-- n6&#45;&gt;n6 -->
<g id="edge3" class="edge"><title>n6&#45;&gt;n6</title>
<path fill="none" stroke="black" d="M2459.21,-141.045C2471.89,-140.087 2481.05,-136.942 2481.05,-131.61 2481.05,-127.861 2476.52,-125.193 2469.42,-123.607"/>
<polygon fill="black" stroke="black" points="2469.6,-120.097 2459.21,-122.175 2468.63,-127.029 2469.6,-120.097"/>
<text text-anchor="middle" x="2540.05" y="-127.91" font-family="Times,serif" font-size="14.00"> init(at_rock_sample)</text>
</g>
<!-- n7 -->
<g id="node7" class="node"><title>n7</title>
<ellipse fill="none" stroke="black" cx="3598.41" cy="-341.09" rx="56.6372" ry="26.7407"/>
<text text-anchor="middle" x="3598.41" y="-344.89" font-family="Times,serif" font-size="14.00">&lt;camera0&gt;</text>
<text text-anchor="middle" x="3598.41" y="-329.89" font-family="Times,serif" font-size="14.00">camera</text>
</g>
<!-- n7&#45;&gt;n4 -->
<g id="edge33" class="edge"><title>n7&#45;&gt;n4</title>
<path fill="none" stroke="black" d="M3654.85,-339.01C3826.76,-335.136 4341.73,-319.048 4498.41,-263.22 4551.65,-244.25 4577.02,-241.463 4603.41,-191.48 4606.52,-185.585 4607.91,-181.391 4603.41,-176.48 4573.89,-144.326 4290.29,-135.695 4158.33,-133.414"/>
<polygon fill="black" stroke="black" points="4158.01,-129.908 4147.95,-133.242 4157.89,-136.907 4158.01,-129.908"/>
<text text-anchor="middle" x="4636.41" y="-232.65" font-family="Times,serif" font-size="14.00"> static(supports)</text>
</g>
<!-- n13 -->
<g id="node13" class="node"><title>n13</title>
<ellipse fill="none" stroke="black" cx="824.406" cy="-236.35" rx="62.8651" ry="26.7407"/>
<text text-anchor="middle" x="824.406" y="-240.15" font-family="Times,serif" font-size="14.00">&lt;objective5&gt;</text>
<text text-anchor="middle" x="824.406" y="-225.15" font-family="Times,serif" font-size="14.00">objective</text>
</g>
<!-- n7&#45;&gt;n13 -->
<g id="edge39" class="edge"><title>n7&#45;&gt;n13</title>
<path fill="none" stroke="black" d="M3552.49,-325.31C3536.77,-320.899 3518.98,-316.607 3502.41,-314.22 3441.05,-305.384 1333.34,-265.72 1271.41,-263.22 1138.98,-257.876 984.67,-248.175 896.369,-242.292"/>
<polygon fill="black" stroke="black" points="896.407,-238.786 886.196,-241.611 895.94,-245.771 896.407,-238.786"/>
<text text-anchor="middle" x="2900.91" y="-285.02" font-family="Times,serif" font-size="14.00"> static(calibration_target)</text>
</g>
<!-- n7&#45;&gt;n16 -->
<g id="edge21" class="edge"><title>n7&#45;&gt;n16</title>
<path fill="none" stroke="black" d="M3595.22,-314.188C3592.33,-302.203 3586.85,-288.939 3576.41,-281.22 3549.64,-261.434 3310.58,-265.856 3277.41,-263.22 3206.71,-257.604 3125.47,-249.293 3072.43,-243.616"/>
<polygon fill="black" stroke="black" points="3072.53,-240.107 3062.21,-242.518 3071.78,-247.067 3072.53,-240.107"/>
<text text-anchor="middle" x="3634.91" y="-285.02" font-family="Times,serif" font-size="14.00"> static(on_board)</text>
</g>
<!-- n8 -->
<g id="node8" class="node"><title>n8</title>
<ellipse fill="none" stroke="black" cx="824.406" cy="-341.09" rx="56.6372" ry="26.7407"/>
<text text-anchor="middle" x="824.406" y="-344.89" font-family="Times,serif" font-size="14.00">&lt;camera1&gt;</text>
<text text-anchor="middle" x="824.406" y="-329.89" font-family="Times,serif" font-size="14.00">camera</text>
</g>
<!-- n8&#45;&gt;n4 -->
<g id="edge34" class="edge"><title>n8&#45;&gt;n4</title>
<path fill="none" stroke="black" d="M881.302,-339.918C1129.54,-338.959 2142.52,-332.878 2973.41,-296.22 3071.76,-291.881 3096.09,-286.274 3194.41,-281.22 3423.13,-269.464 3480.97,-279.681 3709.41,-263.22 3727.69,-261.903 4353.17,-205.128 4365.41,-191.48 4369.86,-186.517 4369.92,-181.39 4365.41,-176.48 4349.41,-159.071 4176.37,-164.1 4153.41,-158.48 4149.02,-157.406 4144.54,-156.065 4140.1,-154.562"/>
<polygon fill="black" stroke="black" points="4141.07,-151.193 4130.48,-151.054 4138.67,-157.769 4141.07,-151.193"/>
<text text-anchor="middle" x="4291.41" y="-232.65" font-family="Times,serif" font-size="14.00"> static(supports)</text>
</g>
<!-- n8&#45;&gt;n13 -->
<g id="edge29" class="edge"><title>n8&#45;&gt;n13</title>
<path fill="none" stroke="black" d="M824.406,-314.165C824.406,-301.875 824.406,-286.987 824.406,-273.602"/>
<polygon fill="black" stroke="black" points="827.906,-273.268 824.406,-263.268 820.906,-273.268 827.906,-273.268"/>
<text text-anchor="middle" x="892.906" y="-285.02" font-family="Times,serif" font-size="14.00"> static(calibration_target)</text>
</g>
<!-- n8&#45;&gt;n16 -->
<g id="edge17" class="edge"><title>n8&#45;&gt;n16</title>
<path fill="none" stroke="black" d="M871.175,-325.571C926.807,-308.326 1012.69,-281.797 1016.41,-281.22 1200.54,-252.614 2507.25,-271.687 2693.41,-263.22 2786.15,-259.002 2893.59,-249.422 2957.94,-243.179"/>
<polygon fill="black" stroke="black" points="2958.66,-246.624 2968.27,-242.168 2957.98,-239.658 2958.66,-246.624"/>
<text text-anchor="middle" x="1062.91" y="-285.02" font-family="Times,serif" font-size="14.00"> static(on_board)</text>
</g>
<!-- n8&#45;&gt;n18 -->
<g id="edge6" class="edge"><title>n8&#45;&gt;n18</title>
<path fill="none" stroke="black" d="M768.143,-338.091C610.265,-331.908 171.821,-310.586 129.406,-263.22 113.473,-245.427 120.793,-231.758 129.406,-209.48 136.554,-190.992 141.363,-184.686 159.406,-176.48 203.463,-156.444 982.092,-161.351 1030.41,-158.48 1099.46,-154.376 1178.41,-146.132 1231.64,-140.049"/>
<polygon fill="black" stroke="black" points="1232.07,-143.522 1241.6,-138.901 1231.27,-136.568 1232.07,-143.522"/>
<text text-anchor="middle" x="173.406" y="-232.65" font-family="Times,serif" font-size="14.00"> static(supports)</text>
</g>
<!-- n22 -->
<g id="node22" class="node"><title>n22</title>
<ellipse fill="none" stroke="black" cx="360.406" cy="-131.61" rx="48.1667" ry="26.7407"/>
<text text-anchor="middle" x="360.406" y="-135.41" font-family="Times,serif" font-size="14.00">&lt;colour&gt;</text>
<text text-anchor="middle" x="360.406" y="-120.41" font-family="Times,serif" font-size="14.00">mode</text>
</g>
<!-- n8&#45;&gt;n22 -->
<g id="edge15" class="edge"><title>n8&#45;&gt;n22</title>
<path fill="none" stroke="black" d="M767.879,-339.533C590.553,-337.148 54.3931,-324.854 10.4061,-263.22 -3.4687,-243.779 -3.4687,-228.921 10.4061,-209.48 63.9455,-134.462 120.584,-174.149 211.406,-158.48 242.284,-153.153 276.754,-147.17 304.757,-142.301"/>
<polygon fill="black" stroke="black" points="305.51,-145.723 314.762,-140.561 304.31,-138.826 305.51,-145.723"/>
<text text-anchor="middle" x="54.4061" y="-232.65" font-family="Times,serif" font-size="14.00"> static(supports)</text>
</g>
<!-- n9 -->
<g id="node9" class="node"><title>n9</title>
<ellipse fill="none" stroke="black" cx="3349.41" cy="-236.35" rx="62.8651" ry="26.7407"/>
<text text-anchor="middle" x="3349.41" y="-240.15" font-family="Times,serif" font-size="14.00">&lt;objective6&gt;</text>
<text text-anchor="middle" x="3349.41" y="-225.15" font-family="Times,serif" font-size="14.00">objective</text>
</g>
<!-- n9&#45;&gt;n4 -->
<g id="edge37" class="edge"><title>n9&#45;&gt;n4</title>
<path fill="none" stroke="black" d="M3394.21,-217.263C3403.1,-214.241 3412.46,-211.453 3421.41,-209.48 3509.43,-190.083 3538.24,-220.976 3623.41,-191.48 3634.94,-187.487 3634.89,-180.528 3646.41,-176.48 3714.52,-152.534 3918.57,-140.226 4025.06,-135.285"/>
<polygon fill="black" stroke="black" points="4025.23,-138.782 4035.06,-134.83 4024.91,-131.789 4025.23,-138.782"/>
<text text-anchor="middle" x="3738.41" y="-180.28" font-family="Times,serif" font-size="14.00"> end(communicated_image_data)</text>
</g>
<!-- n9&#45;&gt;n5 -->
<g id="edge18" class="edge"><title>n9&#45;&gt;n5</title>
<path fill="none" stroke="black" d="M3396.8,-218.493C3427.17,-207.465 3461.3,-194.55 3463.41,-191.48 3467.18,-185.984 3467.81,-181.484 3463.41,-176.48 3390.84,-94.0732 2615.57,-45.129 2371.52,-31.6789"/>
<polygon fill="black" stroke="black" points="2371.52,-28.1734 2361.34,-31.1213 2371.13,-35.1629 2371.52,-28.1734"/>
<text text-anchor="middle" x="3490.41" y="-127.91" font-family="Times,serif" font-size="14.00"> static(visible_from)</text>
</g>
<!-- n9&#45;&gt;n6 -->
<g id="edge36" class="edge"><title>n9&#45;&gt;n6</title>
<path fill="none" stroke="black" d="M3305.07,-217.026C3296.05,-213.985 3286.53,-211.249 3277.41,-209.48 3173.7,-189.385 2903.07,-223.492 2802.41,-191.48 2790.78,-187.782 2790.89,-180.624 2779.41,-176.48 2724.56,-156.682 2566.16,-143.403 2472.08,-137.015"/>
<polygon fill="black" stroke="black" points="2472.27,-133.52 2462.06,-136.344 2471.8,-140.505 2472.27,-133.52"/>
<text text-anchor="middle" x="2858.41" y="-180.28" font-family="Times,serif" font-size="14.00"> static(visible_from)</text>
</g>
<!-- n9&#45;&gt;n18 -->
<g id="edge46" class="edge"><title>n9&#45;&gt;n18</title>
<path fill="none" stroke="black" d="M3305.48,-216.997C3296.35,-213.915 3286.68,-211.172 3277.41,-209.48 3152.67,-186.736 2260.11,-219.299 2136.41,-191.48 2120.69,-187.946 2119.05,-180.316 2103.41,-176.48 1962.31,-141.897 1522.58,-134.563 1357.17,-133.018"/>
<polygon fill="black" stroke="black" points="1357.18,-129.518 1347.15,-132.929 1357.12,-136.518 1357.18,-129.518"/>
<text text-anchor="middle" x="2228.41" y="-180.28" font-family="Times,serif" font-size="14.00"> end(communicated_image_data)</text>
</g>
<!-- n10 -->
<g id="node10" class="node"><title>n10</title>
<ellipse fill="none" stroke="black" cx="2467.41" cy="-236.35" rx="62.8651" ry="26.7407"/>
<text text-anchor="middle" x="2467.41" y="-240.15" font-family="Times,serif" font-size="14.00">&lt;objective1&gt;</text>
<text text-anchor="middle" x="2467.41" y="-225.15" font-family="Times,serif" font-size="14.00">objective</text>
</g>
<!-- n10&#45;&gt;n4 -->
<g id="edge10" class="edge"><title>n10&#45;&gt;n4</title>
<path fill="none" stroke="black" d="M2511.35,-217.106C2520.48,-214.017 2530.14,-211.242 2539.41,-209.48 2602.96,-197.393 3060.62,-213.641 3121.41,-191.48 3131.51,-187.795 3130.31,-180.21 3140.41,-176.48 3187.66,-159.018 3543.09,-160.787 3593.41,-158.48 3748.19,-151.385 3929.96,-141.566 4025.33,-136.299"/>
<polygon fill="black" stroke="black" points="4025.61,-139.789 4035.4,-135.742 4025.23,-132.8 4025.61,-139.789"/>
<text text-anchor="middle" x="3232.41" y="-180.28" font-family="Times,serif" font-size="14.00"> end(communicated_image_data)</text>
</g>
<!-- n10&#45;&gt;n6 -->
<g id="edge9" class="edge"><title>n10&#45;&gt;n6</title>
<path fill="none" stroke="black" d="M2460.55,-209.522C2457.01,-198.775 2452.02,-186.497 2445.41,-176.48 2442.37,-171.875 2438.76,-167.395 2434.92,-163.167"/>
<polygon fill="black" stroke="black" points="2437.31,-160.604 2427.84,-155.857 2432.29,-165.475 2437.31,-160.604"/>
<text text-anchor="middle" x="2509.41" y="-180.28" font-family="Times,serif" font-size="14.00"> static(visible_from)</text>
</g>
<!-- n10&#45;&gt;n18 -->
<g id="edge30" class="edge"><title>n10&#45;&gt;n18</title>
<path fill="none" stroke="black" d="M2423.46,-217.108C2414.33,-214.018 2404.67,-211.243 2395.41,-209.48 2269.16,-185.458 1943.01,-218.641 1817.41,-191.48 1800.46,-187.817 1798.23,-180.638 1781.41,-176.48 1632.76,-139.753 1451.88,-132.985 1357.59,-132.203"/>
<polygon fill="black" stroke="black" points="1357.38,-128.702 1347.36,-132.139 1357.34,-135.702 1357.38,-128.702"/>
<text text-anchor="middle" x="1909.41" y="-180.28" font-family="Times,serif" font-size="14.00"> end(communicated_image_data)</text>
</g>
<!-- n11 -->
<g id="node11" class="node"><title>n11</title>
<ellipse fill="none" stroke="black" cx="3342.41" cy="-341.09" rx="67.3507" ry="26.7407"/>
<text text-anchor="middle" x="3342.41" y="-344.89" font-family="Times,serif" font-size="14.00">&lt;rover0store&gt;</text>
<text text-anchor="middle" x="3342.41" y="-329.89" font-family="Times,serif" font-size="14.00">store</text>
</g>
<!-- n11&#45;&gt;n11 -->
<g id="edge4" class="edge"><title>n11&#45;&gt;n11</title>
<path fill="none" stroke="black" d="M3405.55,-350.468C3418.39,-349.447 3427.58,-346.321 3427.58,-341.09 3427.58,-337.413 3423.04,-334.775 3415.88,-333.179"/>
<polygon fill="black" stroke="black" points="3415.95,-329.653 3405.55,-331.712 3414.96,-336.584 3415.95,-329.653"/>
<text text-anchor="middle" x="3460.58" y="-337.39" font-family="Times,serif" font-size="14.00"> init(empty)</text>
</g>
<!-- n11&#45;&gt;n16 -->
<g id="edge27" class="edge"><title>n11&#45;&gt;n16</title>
<path fill="none" stroke="black" d="M3303.33,-319.077C3278.91,-306.644 3246.48,-291.388 3216.41,-281.22 3168.68,-265.087 3112.53,-253.414 3071.72,-246.184"/>
<polygon fill="black" stroke="black" points="3072.15,-242.705 3061.7,-244.442 3070.95,-249.602 3072.15,-242.705"/>
<text text-anchor="middle" x="3295.41" y="-285.02" font-family="Times,serif" font-size="14.00"> static(store_of)</text>
</g>
<!-- n12 -->
<g id="node12" class="node"><title>n12</title>
<ellipse fill="none" stroke="black" cx="2323.41" cy="-236.35" rx="62.8651" ry="26.7407"/>
<text text-anchor="middle" x="2323.41" y="-240.15" font-family="Times,serif" font-size="14.00">&lt;objective4&gt;</text>
<text text-anchor="middle" x="2323.41" y="-225.15" font-family="Times,serif" font-size="14.00">objective</text>
</g>
<!-- n12&#45;&gt;n6 -->
<g id="edge48" class="edge"><title>n12&#45;&gt;n6</title>
<path fill="none" stroke="black" d="M2321.21,-209.406C2321.46,-198.518 2323.38,-186.164 2329.41,-176.48 2334.03,-169.039 2340.44,-162.651 2347.51,-157.237"/>
<polygon fill="black" stroke="black" points="2349.82,-159.895 2356.05,-151.325 2345.83,-154.139 2349.82,-159.895"/>
<text text-anchor="middle" x="2385.41" y="-180.28" font-family="Times,serif" font-size="14.00"> static(visible_from)</text>
</g>
<!-- n13&#45;&gt;n5 -->
<g id="edge24" class="edge"><title>n13&#45;&gt;n5</title>
<path fill="none" stroke="black" d="M801.443,-211.273C776.918,-182.656 745.159,-134.983 773.406,-104.74 823.45,-51.1606 1926.09,-32.7765 2224.51,-28.7729"/>
<polygon fill="black" stroke="black" points="2224.83,-32.2691 2234.78,-28.6365 2224.74,-25.2697 2224.83,-32.2691"/>
<text text-anchor="middle" x="829.406" y="-127.91" font-family="Times,serif" font-size="14.00"> static(visible_from)</text>
</g>
<!-- n13&#45;&gt;n6 -->
<g id="edge11" class="edge"><title>n13&#45;&gt;n6</title>
<path fill="none" stroke="black" d="M885.609,-229.618C950.35,-222.937 1055.26,-210.346 1144.41,-191.48 1167.94,-186.5 1172.65,-180.28 1196.41,-176.48 1415.53,-141.423 2098.93,-134.34 2325.56,-132.944"/>
<polygon fill="black" stroke="black" points="2325.7,-136.443 2335.68,-132.883 2325.66,-129.443 2325.7,-136.443"/>
<text text-anchor="middle" x="1252.41" y="-180.28" font-family="Times,serif" font-size="14.00"> static(visible_from)</text>
</g>
<!-- n13&#45;&gt;n18 -->
<g id="edge38" class="edge"><title>n13&#45;&gt;n18</title>
<path fill="none" stroke="black" d="M817.724,-209.572C816.36,-198.056 817.323,-185.155 825.406,-176.48 840.994,-159.751 1007.64,-160.599 1030.41,-158.48 1099.07,-152.089 1177.77,-144.284 1231.05,-138.929"/>
<polygon fill="black" stroke="black" points="1231.43,-142.409 1241.03,-137.925 1230.73,-135.444 1231.43,-142.409"/>
<text text-anchor="middle" x="917.406" y="-180.28" font-family="Times,serif" font-size="14.00"> end(communicated_image_data)</text>
</g>
<!-- n13&#45;&gt;n22 -->
<g id="edge35" class="edge"><title>n13&#45;&gt;n22</title>
<path fill="none" stroke="black" d="M761.699,-233.96C641.482,-230.649 388.072,-220.296 361.406,-191.48 355.681,-185.293 353.54,-176.983 353.269,-168.559"/>
<polygon fill="black" stroke="black" points="356.775,-168.518 353.751,-158.364 349.783,-168.188 356.775,-168.518"/>
<text text-anchor="middle" x="453.406" y="-180.28" font-family="Times,serif" font-size="14.00"> end(communicated_image_data)</text>
</g>
<!-- n14&#45;&gt;n4 -->
<g id="edge49" class="edge"><title>n14&#45;&gt;n4</title>
<path fill="none" stroke="black" d="M3698.31,-229.155C3753.81,-223.615 3838.07,-215.47 3911.41,-209.48 3940.38,-207.114 4152.57,-212.73 4172.41,-191.48 4186.79,-176.066 4169.37,-162.044 4147.04,-151.554"/>
<polygon fill="black" stroke="black" points="4148.17,-148.227 4137.6,-147.425 4145.36,-154.64 4148.17,-148.227"/>
<text text-anchor="middle" x="4269.41" y="-180.28" font-family="Times,serif" font-size="14.00"> end(communicated_image_data)</text>
</g>
<!-- n14&#45;&gt;n6 -->
<g id="edge50" class="edge"><title>n14&#45;&gt;n6</title>
<path fill="none" stroke="black" d="M3590.65,-218.212C3582.26,-215.236 3573.59,-212.22 3565.41,-209.48 3539.81,-200.915 3531.29,-204.054 3507.41,-191.48 3497.89,-186.468 3498.5,-180.213 3488.41,-176.48 3393.92,-141.53 2702.92,-134.369 2473.33,-132.95"/>
<polygon fill="black" stroke="black" points="2473.1,-129.448 2463.08,-132.888 2473.06,-136.448 2473.1,-129.448"/>
<text text-anchor="middle" x="3563.41" y="-180.28" font-family="Times,serif" font-size="14.00"> static(visible_from)</text>
</g>
<!-- n15 -->
<g id="node15" class="node"><title>n15</title>
<ellipse fill="none" stroke="black" cx="3493.41" cy="-236.35" rx="62.8651" ry="26.7407"/>
<text text-anchor="middle" x="3493.41" y="-240.15" font-family="Times,serif" font-size="14.00">&lt;objective3&gt;</text>
<text text-anchor="middle" x="3493.41" y="-225.15" font-family="Times,serif" font-size="14.00">objective</text>
</g>
<!-- n15&#45;&gt;n4 -->
<g id="edge47" class="edge"><title>n15&#45;&gt;n4</title>
<path fill="none" stroke="black" d="M3537.75,-217.078C3546.77,-214.032 3556.28,-211.281 3565.41,-209.48 3652.7,-192.243 3882.03,-222.544 3965.41,-191.48 3975.49,-187.724 3975.12,-181.907 3984.41,-176.48 4000.79,-166.91 4019.66,-158.428 4036.94,-151.534"/>
<polygon fill="black" stroke="black" points="4038.31,-154.758 4046.36,-147.87 4035.77,-148.235 4038.31,-154.758"/>
<text text-anchor="middle" x="4076.41" y="-180.28" font-family="Times,serif" font-size="14.00"> end(communicated_image_data)</text>
</g>
<!-- n15&#45;&gt;n6 -->
<g id="edge45" class="edge"><title>n15&#45;&gt;n6</title>
<path fill="none" stroke="black" d="M3447.07,-218.022C3402.58,-201.517 3340.42,-178.841 3328.41,-176.48 3165.25,-144.411 2663.31,-135.547 2473.31,-133.308"/>
<polygon fill="black" stroke="black" points="2473.19,-129.806 2463.15,-133.191 2473.11,-136.805 2473.19,-129.806"/>
<text text-anchor="middle" x="3429.41" y="-180.28" font-family="Times,serif" font-size="14.00"> static(visible_from)</text>
</g>
<!-- n16&#45;&gt;n6 -->
<g id="edge25" class="edge"><title>n16&#45;&gt;n6</title>
<path fill="none" stroke="black" d="M2968.07,-231.452C2912.3,-226.038 2817.23,-214.23 2738.41,-191.48 2722.15,-186.787 2719.7,-181.061 2703.41,-176.48 2626.09,-154.74 2534.52,-143.396 2472.23,-137.74"/>
<polygon fill="black" stroke="black" points="2472.38,-134.239 2462.11,-136.847 2471.77,-141.212 2472.38,-134.239"/>
<text text-anchor="middle" x="2758.91" y="-180.28" font-family="Times,serif" font-size="14.00"> init(at)</text>
</g>
<!-- n16&#45;&gt;n16 -->
<g id="edge5" class="edge"><title>n16&#45;&gt;n16</title>
<path fill="none" stroke="black" d="M3060.5,-246.015C3072.44,-245.462 3081.49,-242.241 3081.49,-236.35 3081.49,-232.3 3077.21,-229.512 3070.66,-227.986"/>
<polygon fill="black" stroke="black" points="3070.86,-224.483 3060.5,-226.686 3069.98,-231.427 3070.86,-224.483"/>
<text text-anchor="middle" x="3174.99" y="-247.65" font-family="Times,serif" font-size="14.00"> static(equipped_for_imaging)</text>
<text text-anchor="middle" x="3174.99" y="-232.65" font-family="Times,serif" font-size="14.00">init(available)</text>
<text text-anchor="middle" x="3174.99" y="-217.65" font-family="Times,serif" font-size="14.00">static(equipped_for_soil_analysis)</text>
</g>
<!-- n17 -->
<g id="node17" class="node"><title>n17</title>
<ellipse fill="none" stroke="black" cx="4426.41" cy="-236.35" rx="62.8651" ry="26.7407"/>
<text text-anchor="middle" x="4426.41" y="-240.15" font-family="Times,serif" font-size="14.00">&lt;objective9&gt;</text>
<text text-anchor="middle" x="4426.41" y="-225.15" font-family="Times,serif" font-size="14.00">objective</text>
</g>
<!-- n17&#45;&gt;n4 -->
<g id="edge19" class="edge"><title>n17&#45;&gt;n4</title>
<path fill="none" stroke="black" d="M4422.87,-209.497C4419.91,-197.675 4414.45,-184.538 4404.41,-176.48 4367.52,-146.882 4238.39,-137.253 4157.97,-134.121"/>
<polygon fill="black" stroke="black" points="4158.05,-130.621 4147.93,-133.753 4157.8,-137.617 4158.05,-130.621"/>
<text text-anchor="middle" x="4507.41" y="-180.28" font-family="Times,serif" font-size="14.00"> end(communicated_image_data)</text>
</g>
<!-- n17&#45;&gt;n5 -->
<g id="edge16" class="edge"><title>n17&#45;&gt;n5</title>
<path fill="none" stroke="black" d="M4470.61,-217.077C4478.45,-214.257 4486.6,-211.587 4494.41,-209.48 4543.27,-196.292 4636.23,-215.008 4603.41,-176.48 4473.2,-23.6566 4357.17,-124.865 4157.41,-104.74 3465.95,-35.0797 2623.73,-28.2133 2372.51,-27.796"/>
<polygon fill="black" stroke="black" points="2372.41,-24.296 2362.41,-27.7822 2372.4,-31.2959 2372.41,-24.296"/>
<text text-anchor="middle" x="4641.41" y="-127.91" font-family="Times,serif" font-size="14.00"> static(visible_from)</text>
</g>
<!-- n17&#45;&gt;n6 -->
<g id="edge20" class="edge"><title>n17&#45;&gt;n6</title>
<path fill="none" stroke="black" d="M4364.44,-231.614C4220.34,-222.794 3873.1,-200.725 3849.41,-191.48 3839.38,-187.569 3840.51,-180.164 3830.41,-176.48 3798.26,-164.764 2761.93,-140.729 2473.34,-134.25"/>
<polygon fill="black" stroke="black" points="2473.07,-130.743 2462.99,-134.018 2472.91,-137.741 2473.07,-130.743"/>
<text text-anchor="middle" x="3905.41" y="-180.28" font-family="Times,serif" font-size="14.00"> static(visible_from)</text>
</g>
<!-- n19 -->
<g id="node19" class="node"><title>n19</title>
<ellipse fill="none" stroke="black" cx="1477.41" cy="-236.35" rx="62.8651" ry="26.7407"/>
<text text-anchor="middle" x="1477.41" y="-240.15" font-family="Times,serif" font-size="14.00">&lt;objective0&gt;</text>
<text text-anchor="middle" x="1477.41" y="-225.15" font-family="Times,serif" font-size="14.00">objective</text>
</g>
<!-- n19&#45;&gt;n4 -->
<g id="edge41" class="edge"><title>n19&#45;&gt;n4</title>
<path fill="none" stroke="black" d="M1527.77,-220.214C1544.38,-215.894 1563.04,-211.747 1580.41,-209.48 1653.9,-199.888 2844.55,-216.26 2914.41,-191.48 2924.55,-187.883 2923.29,-180.147 2933.41,-176.48 3002.37,-151.478 3520.1,-161.383 3593.41,-158.48 3748.24,-152.348 3929.99,-142.145 4025.34,-136.561"/>
<polygon fill="black" stroke="black" points="4025.64,-140.05 4035.41,-135.97 4025.23,-133.062 4025.64,-140.05"/>
<text text-anchor="middle" x="3025.41" y="-180.28" font-family="Times,serif" font-size="14.00"> end(communicated_image_data)</text>
</g>
<!-- n19&#45;&gt;n5 -->
<g id="edge31" class="edge"><title>n19&#45;&gt;n5</title>
<path fill="none" stroke="black" d="M1428.71,-219.286C1414.87,-215.369 1399.67,-211.678 1385.41,-209.48 1354.04,-204.649 836.492,-214.273 814.406,-191.48 809.767,-186.692 810.269,-181.708 814.406,-176.48 817.098,-173.079 1114.12,-105.382 1118.41,-104.74 1533.39,-42.7006 2037.89,-30.7255 2224.46,-28.4186"/>
<polygon fill="black" stroke="black" points="2224.73,-31.9157 2234.69,-28.2979 2224.65,-24.9162 2224.73,-31.9157"/>
<text text-anchor="middle" x="1174.41" y="-127.91" font-family="Times,serif" font-size="14.00"> static(visible_from)</text>
</g>
<!-- n19&#45;&gt;n6 -->
<g id="edge42" class="edge"><title>n19&#45;&gt;n6</title>
<path fill="none" stroke="black" d="M1497.62,-210.61C1509.5,-197.98 1525.65,-183.773 1543.41,-176.48 1614.69,-147.195 2131.19,-136.578 2325.63,-133.593"/>
<polygon fill="black" stroke="black" points="2325.81,-137.091 2335.76,-133.44 2325.7,-130.092 2325.81,-137.091"/>
<text text-anchor="middle" x="1599.41" y="-180.28" font-family="Times,serif" font-size="14.00"> static(visible_from)</text>
</g>
<!-- n19&#45;&gt;n22 -->
<g id="edge14" class="edge"><title>n19&#45;&gt;n22</title>
<path fill="none" stroke="black" d="M1428.73,-219.204C1414.88,-215.286 1399.68,-211.615 1385.41,-209.48 1211.3,-183.447 767.124,-220.015 593.406,-191.48 571.351,-187.857 566.96,-182.396 545.406,-176.48 501.762,-164.502 451.801,-152.77 414.808,-144.457"/>
<polygon fill="black" stroke="black" points="415.257,-140.971 404.735,-142.206 413.73,-147.802 415.257,-140.971"/>
<text text-anchor="middle" x="685.406" y="-180.28" font-family="Times,serif" font-size="14.00"> end(communicated_image_data)</text>
</g>
<!-- n20 -->
<g id="node20" class="node"><title>n20</title>
<ellipse fill="none" stroke="black" cx="1652.41" cy="-236.35" rx="62.8651" ry="26.7407"/>
<text text-anchor="middle" x="1652.41" y="-240.15" font-family="Times,serif" font-size="14.00">&lt;objective7&gt;</text>
<text text-anchor="middle" x="1652.41" y="-225.15" font-family="Times,serif" font-size="14.00">objective</text>
</g>
<!-- n20&#45;&gt;n6 -->
<g id="edge32" class="edge"><title>n20&#45;&gt;n6</title>
<path fill="none" stroke="black" d="M1653.36,-209.31C1655.23,-197.444 1659.6,-184.323 1669.41,-176.48 1719.77,-136.183 2150.12,-132.218 2325.49,-132.296"/>
<polygon fill="black" stroke="black" points="2325.66,-135.796 2335.66,-132.306 2325.66,-128.796 2325.66,-135.796"/>
<text text-anchor="middle" x="1725.41" y="-180.28" font-family="Times,serif" font-size="14.00"> static(visible_from)</text>
</g>
<!-- n20&#45;&gt;n18 -->
<g id="edge8" class="edge"><title>n20&#45;&gt;n18</title>
<path fill="none" stroke="black" d="M1601.15,-220.704C1584.74,-216.493 1566.42,-212.286 1549.41,-209.48 1500.57,-201.424 1369.24,-217.938 1327.41,-191.48 1318.43,-185.802 1311.56,-176.84 1306.43,-167.605"/>
<polygon fill="black" stroke="black" points="1309.44,-165.797 1301.86,-158.391 1303.17,-168.905 1309.44,-165.797"/>
<text text-anchor="middle" x="1419.41" y="-180.28" font-family="Times,serif" font-size="14.00"> end(communicated_image_data)</text>
</g>
<!-- n21 -->
<g id="node21" class="node"><title>n21</title>
<ellipse fill="none" stroke="black" cx="2616.41" cy="-236.35" rx="67.7647" ry="26.7407"/>
<text text-anchor="middle" x="2616.41" y="-240.15" font-family="Times,serif" font-size="14.00">&lt;objective10&gt;</text>
<text text-anchor="middle" x="2616.41" y="-225.15" font-family="Times,serif" font-size="14.00">objective</text>
</g>
<!-- n21&#45;&gt;n6 -->
<g id="edge26" class="edge"><title>n21&#45;&gt;n6</title>
<path fill="none" stroke="black" d="M2601.65,-210.086C2593.54,-198.257 2582.47,-184.941 2569.41,-176.48 2540.2,-157.565 2503.25,-146.795 2471.25,-140.669"/>
<polygon fill="black" stroke="black" points="2471.52,-137.16 2461.06,-138.838 2470.28,-144.05 2471.52,-137.16"/>
<text text-anchor="middle" x="2643.41" y="-180.28" font-family="Times,serif" font-size="14.00"> static(visible_from)</text>
</g>
</g>
</svg>
