<?xml version="1.0" encoding="UTF-8" standalone="no"?>
<!DOCTYPE svg PUBLIC "-//W3C//DTD SVG 1.1//EN"
 "http://www.w3.org/Graphics/SVG/1.1/DTD/svg11.dtd">
<!-- Generated by graphviz version 2.38.0 (20140413.2041)
 -->
<!-- Title: Struc Pages: 1 -->
<svg width="1109pt" height="400pt"
 viewBox="0.00 0.00 1108.70 399.96" xmlns="http://www.w3.org/2000/svg" xmlns:xlink="http://www.w3.org/1999/xlink">
<g id="graph0" class="graph" transform="scale(1 1) rotate(0) translate(4 395.96)">
<title>Struc</title>
<polygon fill="white" stroke="none" points="-4,4 -4,-395.96 1104.7,-395.96 1104.7,4 -4,4"/>
<!-- n1 -->
<g id="node1" class="node"><title>n1</title>
<ellipse fill="none" stroke="black" cx="292.619" cy="-135.61" rx="48.1603" ry="26.7574"/>
<ellipse fill="none" stroke="black" cx="292.619" cy="-135.61" rx="52.1667" ry="30.7407"/>
<text text-anchor="middle" x="292.619" y="-139.41" font-family="Times,serif" font-size="14.00">&lt;colour&gt;</text>
<text text-anchor="middle" x="292.619" y="-124.41" font-family="Times,serif" font-size="14.00">mode</text>
</g>
<!-- n2 -->
<g id="node2" class="node"><title>n2</title>
<ellipse fill="none" stroke="black" cx="532.619" cy="-248.35" rx="62.8691" ry="26.7574"/>
<ellipse fill="none" stroke="black" cx="532.619" cy="-248.35" rx="66.8651" ry="30.7407"/>
<text text-anchor="middle" x="532.619" y="-252.15" font-family="Times,serif" font-size="14.00">&lt;objective9&gt;</text>
<text text-anchor="middle" x="532.619" y="-237.15" font-family="Times,serif" font-size="14.00">objective</text>
</g>
<!-- n2&#45;&gt;n1 -->
<g id="edge13" class="edge"><title>n2&#45;&gt;n1</title>
<path fill="none" stroke="black" stroke-dasharray="5,2" d="M472.243,-234.93C412.334,-222.401 328.577,-204.248 322.619,-199.48 314.839,-193.255 308.96,-184.526 304.564,-175.549"/>
<polygon fill="black" stroke="black" points="307.696,-173.976 300.501,-166.199 301.276,-176.765 307.696,-173.976"/>
<text text-anchor="middle" x="414.619" y="-188.28" font-family="Times,serif" font-size="14.00"> end(communicated_image_data)</text>
</g>
<!-- n3 -->
<g id="node3" class="node"><title>n3</title>
<ellipse fill="none" stroke="black" cx="426.619" cy="-135.61" rx="63.7795" ry="26.7407"/>
<text text-anchor="middle" x="426.619" y="-139.41" font-family="Times,serif" font-size="14.00">&lt;waypoint1&gt;</text>
<text text-anchor="middle" x="426.619" y="-124.41" font-family="Times,serif" font-size="14.00">waypoint</text>
</g>
<!-- n2&#45;&gt;n3 -->
<g id="edge7" class="edge"><title>n2&#45;&gt;n3</title>
<path fill="none" stroke="black" stroke-dasharray="5,2" d="M526.893,-217.59C523.586,-206.295 518.466,-193.897 510.619,-184.48 502.479,-174.712 491.802,-166.534 480.801,-159.859"/>
<polygon fill="black" stroke="black" points="482.375,-156.728 471.952,-154.827 478.915,-162.813 482.375,-156.728"/>
<text text-anchor="middle" x="575.619" y="-188.28" font-family="Times,serif" font-size="14.00"> static(visible_from)</text>
</g>
<!-- n5 -->
<g id="node5" class="node"><title>n5</title>
<ellipse fill="none" stroke="black" cx="527.619" cy="-26.8701" rx="63.7795" ry="26.7407"/>
<text text-anchor="middle" x="527.619" y="-30.6701" font-family="Times,serif" font-size="14.00">&lt;waypoint0&gt;</text>
<text text-anchor="middle" x="527.619" y="-15.6701" font-family="Times,serif" font-size="14.00">waypoint</text>
</g>
<!-- n2&#45;&gt;n5 -->
<g id="edge11" class="edge"><title>n2&#45;&gt;n5</title>
<path fill="none" stroke="black" d="M591.817,-233.717C626.608,-222.211 667.425,-201.761 686.619,-166.48 699.732,-142.376 701.2,-127.985 686.619,-104.74 666.303,-72.353 628.056,-53.279 594.166,-42.2327"/>
<polygon fill="black" stroke="black" points="594.866,-38.7861 584.278,-39.1911 592.807,-45.4767 594.866,-38.7861"/>
<text text-anchor="middle" x="753.619" y="-131.91" font-family="Times,serif" font-size="14.00"> static(visible_from)</text>
</g>
<!-- n3&#45;&gt;n3 -->
<g id="edge1" class="edge"><title>n3&#45;&gt;n3</title>
<path fill="none" stroke="black" d="M485.695,-145.828C498.75,-144.868 508.258,-141.462 508.258,-135.61 508.258,-131.404 503.346,-128.462 495.736,-126.783"/>
<polygon fill="black" stroke="black" points="496.081,-123.298 485.695,-125.393 495.12,-130.231 496.081,-123.298"/>
<text text-anchor="middle" x="592.758" y="-139.41" font-family="Times,serif" font-size="14.00"> end(communicated_soil_data)</text>
<text text-anchor="middle" x="592.758" y="-124.41" font-family="Times,serif" font-size="14.00">init(at_soil_sample)</text>
</g>
<!-- n3&#45;&gt;n5 -->
<g id="edge16" class="edge"><title>n3&#45;&gt;n5</title>
<path fill="none" stroke="black" d="M418.729,-108.865C416.57,-96.6815 416.49,-82.4845 423.619,-71.7401 432.417,-58.4793 446.1,-49.2171 460.682,-42.751"/>
<polygon fill="black" stroke="black" points="462.361,-45.8491 470.352,-38.8917 459.767,-39.3478 462.361,-45.8491"/>
<text text-anchor="middle" x="462.619" y="-75.5401" font-family="Times,serif" font-size="14.00"> static(visible)</text>
</g>
<!-- n4 -->
<g id="node4" class="node"><title>n4</title>
<ellipse fill="none" stroke="black" cx="532.619" cy="-361.09" rx="56.6326" ry="26.7574"/>
<ellipse fill="none" stroke="black" cx="532.619" cy="-361.09" rx="60.6372" ry="30.7407"/>
<text text-anchor="middle" x="532.619" y="-364.89" font-family="Times,serif" font-size="14.00">&lt;camera3&gt;</text>
<text text-anchor="middle" x="532.619" y="-349.89" font-family="Times,serif" font-size="14.00">camera</text>
</g>
<!-- n4&#45;&gt;n1 -->
<g id="edge6" class="edge"><title>n4&#45;&gt;n1</title>
<path fill="none" stroke="black" stroke-dasharray="5,2" d="M483.702,-342.771C449.211,-329.012 403.188,-307.405 368.619,-279.22 333.826,-250.853 325.74,-240.097 306.619,-199.48 303.236,-192.295 300.653,-184.259 298.686,-176.396"/>
<polygon fill="black" stroke="black" points="302.097,-175.608 296.51,-166.606 295.263,-177.127 302.097,-175.608"/>
<text text-anchor="middle" x="412.619" y="-244.65" font-family="Times,serif" font-size="14.00"> static(supports)</text>
</g>
<!-- n4&#45;&gt;n2 -->
<g id="edge15" class="edge"><title>n4&#45;&gt;n2</title>
<path fill="none" stroke="black" stroke-dasharray="5,2" d="M532.619,-330.123C532.619,-317.689 532.619,-303.073 532.619,-289.717"/>
<polygon fill="black" stroke="black" points="536.119,-289.342 532.619,-279.342 529.119,-289.342 536.119,-289.342"/>
<text text-anchor="middle" x="601.119" y="-301.02" font-family="Times,serif" font-size="14.00"> static(calibration_target)</text>
</g>
<!-- n8 -->
<g id="node8" class="node"><title>n8</title>
<ellipse fill="none" stroke="black" cx="847.619" cy="-248.35" rx="48.1667" ry="26.7407"/>
<text text-anchor="middle" x="847.619" y="-252.15" font-family="Times,serif" font-size="14.00">&lt;rover0&gt;</text>
<text text-anchor="middle" x="847.619" y="-237.15" font-family="Times,serif" font-size="14.00">rover</text>
</g>
<!-- n4&#45;&gt;n8 -->
<g id="edge9" class="edge"><title>n4&#45;&gt;n8</title>
<path fill="none" stroke="black" d="M582.62,-343.378C609.614,-334.289 643.488,-322.777 673.619,-312.22 715.873,-297.415 763.701,-280.093 798.505,-267.384"/>
<polygon fill="black" stroke="black" points="799.77,-270.648 807.961,-263.928 797.367,-264.074 799.77,-270.648"/>
<text text-anchor="middle" x="759.119" y="-301.02" font-family="Times,serif" font-size="14.00"> static(on_board)</text>
</g>
<!-- n5&#45;&gt;n3 -->
<g id="edge8" class="edge"><title>n5&#45;&gt;n3</title>
<path fill="none" stroke="black" d="M521.967,-53.8627C518.6,-64.8852 513.415,-77.3296 505.619,-86.7401 498.102,-95.8142 488.392,-103.623 478.367,-110.145"/>
<polygon fill="black" stroke="black" points="476.234,-107.347 469.523,-115.545 479.882,-113.321 476.234,-107.347"/>
<text text-anchor="middle" x="554.619" y="-75.5401" font-family="Times,serif" font-size="14.00"> static(visible)</text>
</g>
<!-- n5&#45;&gt;n5 -->
<g id="edge2" class="edge"><title>n5&#45;&gt;n5</title>
<path fill="none" stroke="black" d="M587.423,-36.3053C600.102,-35.3472 609.258,-32.2021 609.258,-26.8701 609.258,-23.121 604.732,-20.4531 597.637,-18.8664"/>
<polygon fill="black" stroke="black" points="597.812,-15.3569 587.423,-17.4349 596.841,-22.2891 597.812,-15.3569"/>
<text text-anchor="middle" x="668.258" y="-23.1701" font-family="Times,serif" font-size="14.00"> init(at_rock_sample)</text>
</g>
<!-- n6 -->
<g id="node6" class="node"><title>n6</title>
<ellipse fill="none" stroke="black" cx="847.619" cy="-361.09" rx="67.3507" ry="26.7407"/>
<text text-anchor="middle" x="847.619" y="-364.89" font-family="Times,serif" font-size="14.00">&lt;rover0store&gt;</text>
<text text-anchor="middle" x="847.619" y="-349.89" font-family="Times,serif" font-size="14.00">store</text>
</g>
<!-- n6&#45;&gt;n6 -->
<g id="edge3" class="edge"><title>n6&#45;&gt;n6</title>
<path fill="none" stroke="black" d="M910.013,-371.251C923.241,-370.22 932.794,-366.833 932.794,-361.09 932.794,-356.918 927.751,-353.99 919.92,-352.304"/>
<polygon fill="black" stroke="black" points="920.399,-348.837 910.013,-350.929 919.437,-355.771 920.399,-348.837"/>
<text text-anchor="middle" x="965.794" y="-357.39" font-family="Times,serif" font-size="14.00"> init(empty)</text>
</g>
<!-- n6&#45;&gt;n8 -->
<g id="edge14" class="edge"><title>n6&#45;&gt;n8</title>
<path fill="none" stroke="black" d="M847.619,-334.127C847.619,-319.653 847.619,-301.403 847.619,-285.546"/>
<polygon fill="black" stroke="black" points="851.119,-285.535 847.619,-275.535 844.119,-285.535 851.119,-285.535"/>
<text text-anchor="middle" x="890.619" y="-301.02" font-family="Times,serif" font-size="14.00"> static(store_of)</text>
</g>
<!-- n7 -->
<g id="node7" class="node"><title>n7</title>
<ellipse fill="none" stroke="black" cx="51.6188" cy="-135.61" rx="51.7379" ry="26.7407"/>
<text text-anchor="middle" x="51.6188" y="-139.41" font-family="Times,serif" font-size="14.00">&lt;general&gt;</text>
<text text-anchor="middle" x="51.6188" y="-124.41" font-family="Times,serif" font-size="14.00">lander</text>
</g>
<!-- n7&#45;&gt;n5 -->
<g id="edge10" class="edge"><title>n7&#45;&gt;n5</title>
<path fill="none" stroke="black" d="M98.0784,-123.577C152.009,-110.828 243.659,-89.3466 322.619,-71.7401 368.958,-61.4075 421.299,-50.2143 461.495,-41.7204"/>
<polygon fill="black" stroke="black" points="462.379,-45.1108 471.441,-39.6212 460.934,-38.2617 462.379,-45.1108"/>
<text text-anchor="middle" x="368.619" y="-75.5401" font-family="Times,serif" font-size="14.00"> static(at_lander)</text>
</g>
<!-- n7&#45;&gt;n7 -->
<g id="edge4" class="edge"><title>n7&#45;&gt;n7</title>
<path fill="none" stroke="black" d="M99.4508,-146.002C111.872,-145.363 121.238,-141.899 121.238,-135.61 121.238,-131.188 116.607,-128.163 109.54,-126.534"/>
<polygon fill="black" stroke="black" points="109.82,-123.041 99.4508,-125.218 108.914,-129.982 109.82,-123.041"/>
<text text-anchor="middle" x="171.738" y="-131.91" font-family="Times,serif" font-size="14.00"> init(channel_free)</text>
</g>
<!-- n8&#45;&gt;n5 -->
<g id="edge12" class="edge"><title>n8&#45;&gt;n5</title>
<path fill="none" stroke="black" d="M848.895,-221.226C848.962,-189.408 844.042,-136.043 813.619,-104.74 783.844,-74.1035 672.205,-50.8495 597.534,-38.3036"/>
<polygon fill="black" stroke="black" points="597.693,-34.7823 587.256,-36.6047 596.551,-41.6886 597.693,-34.7823"/>
<text text-anchor="middle" x="864.119" y="-131.91" font-family="Times,serif" font-size="14.00"> init(at)</text>
</g>
<!-- n8&#45;&gt;n8 -->
<g id="edge5" class="edge"><title>n8&#45;&gt;n8</title>
<path fill="none" stroke="black" d="M892.093,-258.786C904.342,-258.282 913.702,-254.803 913.702,-248.35 913.702,-243.813 909.075,-240.746 902.069,-239.15"/>
<polygon fill="black" stroke="black" points="902.448,-235.67 892.093,-237.914 901.587,-242.617 902.448,-235.67"/>
<text text-anchor="middle" x="1007.2" y="-259.65" font-family="Times,serif" font-size="14.00"> static(equipped_for_imaging)</text>
<text text-anchor="middle" x="1007.2" y="-244.65" font-family="Times,serif" font-size="14.00">init(available)</text>
<text text-anchor="middle" x="1007.2" y="-229.65" font-family="Times,serif" font-size="14.00">static(equipped_for_soil_analysis)</text>
</g>
</g>
</svg>
