<?xml version="1.0" encoding="UTF-8" standalone="no"?>
<!DOCTYPE svg PUBLIC "-//W3C//DTD SVG 1.1//EN"
 "http://www.w3.org/Graphics/SVG/1.1/DTD/svg11.dtd">
<!-- Generated by graphviz version 2.38.0 (20140413.2041)
 -->
<!-- Title: Struc Pages: 1 -->
<svg width="3269pt" height="376pt"
 viewBox="0.00 0.00 3268.93 375.96" xmlns="http://www.w3.org/2000/svg" xmlns:xlink="http://www.w3.org/1999/xlink">
<g id="graph0" class="graph" transform="scale(1 1) rotate(0) translate(4 371.96)">
<title>Struc</title>
<polygon fill="white" stroke="none" points="-4,4 -4,-371.96 3264.93,-371.96 3264.93,4 -4,4"/>
<!-- n1 -->
<g id="node1" class="node"><title>n1</title>
<ellipse fill="none" stroke="black" cx="780.933" cy="-236.35" rx="51.7379" ry="26.7407"/>
<text text-anchor="middle" x="780.933" y="-240.15" font-family="Times,serif" font-size="14.00">&lt;general&gt;</text>
<text text-anchor="middle" x="780.933" y="-225.15" font-family="Times,serif" font-size="14.00">lander</text>
</g>
<!-- n1&#45;&gt;n1 -->
<g id="edge1" class="edge"><title>n1&#45;&gt;n1</title>
<path fill="none" stroke="black" d="M829.41,-245.966C841.508,-245.294 850.551,-242.089 850.551,-236.35 850.551,-232.405 846.277,-229.657 839.674,-228.107"/>
<polygon fill="black" stroke="black" points="839.785,-224.59 829.41,-226.734 838.858,-231.529 839.785,-224.59"/>
<text text-anchor="middle" x="901.051" y="-232.65" font-family="Times,serif" font-size="14.00"> init(channel_free)</text>
</g>
<!-- n6 -->
<g id="node6" class="node"><title>n6</title>
<ellipse fill="none" stroke="black" cx="863.933" cy="-131.61" rx="63.7795" ry="26.7407"/>
<text text-anchor="middle" x="863.933" y="-135.41" font-family="Times,serif" font-size="14.00">&lt;waypoint0&gt;</text>
<text text-anchor="middle" x="863.933" y="-120.41" font-family="Times,serif" font-size="14.00">waypoint</text>
</g>
<!-- n1&#45;&gt;n6 -->
<g id="edge38" class="edge"><title>n1&#45;&gt;n6</title>
<path fill="none" stroke="black" d="M789.545,-209.809C793.987,-198.87 800.131,-186.366 807.933,-176.48 812.199,-171.074 817.265,-165.941 822.578,-161.22"/>
<polygon fill="black" stroke="black" points="825.052,-163.713 830.476,-154.612 820.56,-158.344 825.052,-163.713"/>
<text text-anchor="middle" x="853.933" y="-180.28" font-family="Times,serif" font-size="14.00"> static(at_lander)</text>
</g>
<!-- n2 -->
<g id="node2" class="node"><title>n2</title>
<ellipse fill="none" stroke="black" cx="2690.93" cy="-341.09" rx="56.6372" ry="26.7407"/>
<text text-anchor="middle" x="2690.93" y="-344.89" font-family="Times,serif" font-size="14.00">&lt;camera2&gt;</text>
<text text-anchor="middle" x="2690.93" y="-329.89" font-family="Times,serif" font-size="14.00">camera</text>
</g>
<!-- n14 -->
<g id="node14" class="node"><title>n14</title>
<ellipse fill="none" stroke="black" cx="2900.93" cy="-236.35" rx="62.8651" ry="26.7407"/>
<text text-anchor="middle" x="2900.93" y="-240.15" font-family="Times,serif" font-size="14.00">&lt;objective7&gt;</text>
<text text-anchor="middle" x="2900.93" y="-225.15" font-family="Times,serif" font-size="14.00">objective</text>
</g>
<!-- n2&#45;&gt;n14 -->
<g id="edge23" class="edge"><title>n2&#45;&gt;n14</title>
<path fill="none" stroke="black" d="M2699.86,-314.503C2705.29,-302.595 2713.45,-289.306 2724.93,-281.22 2761.5,-255.475 2780.62,-274.371 2823.93,-263.22 2830.54,-261.519 2837.4,-259.538 2844.18,-257.442"/>
<polygon fill="black" stroke="black" points="2845.55,-260.678 2854.02,-254.309 2843.43,-254.008 2845.55,-260.678"/>
<text text-anchor="middle" x="2793.43" y="-285.02" font-family="Times,serif" font-size="14.00"> static(calibration_target)</text>
</g>
<!-- n16 -->
<g id="node16" class="node"><title>n16</title>
<ellipse fill="none" stroke="black" cx="1926.93" cy="-236.35" rx="48.1667" ry="26.7407"/>
<text text-anchor="middle" x="1926.93" y="-240.15" font-family="Times,serif" font-size="14.00">&lt;rover0&gt;</text>
<text text-anchor="middle" x="1926.93" y="-225.15" font-family="Times,serif" font-size="14.00">rover</text>
</g>
<!-- n2&#45;&gt;n16 -->
<g id="edge7" class="edge"><title>n2&#45;&gt;n16</title>
<path fill="none" stroke="black" d="M2637.95,-331.395C2563.64,-319.34 2424.19,-297.229 2304.93,-281.22 2191.27,-265.962 2057.96,-251.226 1983.9,-243.319"/>
<polygon fill="black" stroke="black" points="1984.16,-239.828 1973.85,-242.249 1983.42,-246.788 1984.16,-239.828"/>
<text text-anchor="middle" x="2458.43" y="-285.02" font-family="Times,serif" font-size="14.00"> static(on_board)</text>
</g>
<!-- n18 -->
<g id="node18" class="node"><title>n18</title>
<ellipse fill="none" stroke="black" cx="2765.93" cy="-131.61" rx="53.9813" ry="26.7407"/>
<text text-anchor="middle" x="2765.93" y="-135.41" font-family="Times,serif" font-size="14.00">&lt;low_res&gt;</text>
<text text-anchor="middle" x="2765.93" y="-120.41" font-family="Times,serif" font-size="14.00">mode</text>
</g>
<!-- n2&#45;&gt;n18 -->
<g id="edge37" class="edge"><title>n2&#45;&gt;n18</title>
<path fill="none" stroke="black" d="M2697.32,-314.112C2700.03,-303.795 2703.38,-291.871 2706.93,-281.22 2720.1,-241.707 2738.1,-197.462 2750.74,-167.605"/>
<polygon fill="black" stroke="black" points="2754.11,-168.631 2754.81,-158.059 2747.67,-165.887 2754.11,-168.631"/>
<text text-anchor="middle" x="2777.93" y="-232.65" font-family="Times,serif" font-size="14.00"> static(supports)</text>
</g>
<!-- n3 -->
<g id="node3" class="node"><title>n3</title>
<ellipse fill="none" stroke="black" cx="283.933" cy="-236.35" rx="62.8651" ry="26.7407"/>
<text text-anchor="middle" x="283.933" y="-240.15" font-family="Times,serif" font-size="14.00">&lt;objective1&gt;</text>
<text text-anchor="middle" x="283.933" y="-225.15" font-family="Times,serif" font-size="14.00">objective</text>
</g>
<!-- n5 -->
<g id="node5" class="node"><title>n5</title>
<ellipse fill="none" stroke="black" cx="576.933" cy="-26.8701" rx="63.7795" ry="26.7407"/>
<text text-anchor="middle" x="576.933" y="-30.6701" font-family="Times,serif" font-size="14.00">&lt;waypoint1&gt;</text>
<text text-anchor="middle" x="576.933" y="-15.6701" font-family="Times,serif" font-size="14.00">waypoint</text>
</g>
<!-- n3&#45;&gt;n5 -->
<g id="edge22" class="edge"><title>n3&#45;&gt;n5</title>
<path fill="none" stroke="black" d="M242.708,-215.876C226.162,-205.274 213.074,-191.311 222.933,-176.48 285.693,-82.0673 421.322,-47.5097 505.288,-34.9481"/>
<polygon fill="black" stroke="black" points="505.859,-38.4021 515.263,-33.5227 504.869,-31.4725 505.859,-38.4021"/>
<text text-anchor="middle" x="352.933" y="-127.91" font-family="Times,serif" font-size="14.00"> static(visible_from)</text>
</g>
<!-- n3&#45;&gt;n6 -->
<g id="edge13" class="edge"><title>n3&#45;&gt;n6</title>
<path fill="none" stroke="black" d="M322.036,-214.783C348.453,-201.524 384.87,-185.187 418.933,-176.48 505.829,-154.267 530.667,-167.209 619.933,-158.48 678.117,-152.791 744.04,-145.767 792.684,-140.474"/>
<polygon fill="black" stroke="black" points="793.231,-143.935 802.792,-139.372 792.472,-136.976 793.231,-143.935"/>
<text text-anchor="middle" x="474.933" y="-180.28" font-family="Times,serif" font-size="14.00"> static(visible_from)</text>
</g>
<!-- n4 -->
<g id="node4" class="node"><title>n4</title>
<ellipse fill="none" stroke="black" cx="1837.93" cy="-131.61" rx="56.6372" ry="26.7407"/>
<text text-anchor="middle" x="1837.93" y="-135.41" font-family="Times,serif" font-size="14.00">&lt;high_res&gt;</text>
<text text-anchor="middle" x="1837.93" y="-120.41" font-family="Times,serif" font-size="14.00">mode</text>
</g>
<!-- n5&#45;&gt;n5 -->
<g id="edge2" class="edge"><title>n5&#45;&gt;n5</title>
<path fill="none" stroke="black" d="M636.737,-36.3053C649.416,-35.3472 658.572,-32.2021 658.572,-26.8701 658.572,-23.121 654.046,-20.4531 646.95,-18.8664"/>
<polygon fill="black" stroke="black" points="647.126,-15.3569 636.737,-17.4349 646.154,-22.2891 647.126,-15.3569"/>
<text text-anchor="middle" x="743.072" y="-30.6701" font-family="Times,serif" font-size="14.00"> end(communicated_soil_data)</text>
<text text-anchor="middle" x="743.072" y="-15.6701" font-family="Times,serif" font-size="14.00">init(at_soil_sample)</text>
</g>
<!-- n5&#45;&gt;n6 -->
<g id="edge12" class="edge"><title>n5&#45;&gt;n6</title>
<path fill="none" stroke="black" d="M630.978,-41.1253C661.038,-49.0052 698.934,-59.782 731.933,-71.7401 759.754,-81.8224 789.956,-95.1089 814.44,-106.508"/>
<polygon fill="black" stroke="black" points="812.988,-109.692 823.527,-110.773 815.962,-103.356 812.988,-109.692"/>
<text text-anchor="middle" x="807.933" y="-75.5401" font-family="Times,serif" font-size="14.00"> static(visible)</text>
</g>
<!-- n6&#45;&gt;n5 -->
<g id="edge28" class="edge"><title>n6&#45;&gt;n5</title>
<path fill="none" stroke="black" d="M801.519,-125.694C757.46,-120.374 697.961,-109.376 649.933,-86.7401 634.952,-79.6797 620.351,-68.9357 608.193,-58.5502"/>
<polygon fill="black" stroke="black" points="610.388,-55.8189 600.577,-51.8194 605.752,-61.0642 610.388,-55.8189"/>
<text text-anchor="middle" x="688.933" y="-75.5401" font-family="Times,serif" font-size="14.00"> static(visible)</text>
</g>
<!-- n6&#45;&gt;n6 -->
<g id="edge3" class="edge"><title>n6&#45;&gt;n6</title>
<path fill="none" stroke="black" d="M923.737,-141.045C936.416,-140.087 945.572,-136.942 945.572,-131.61 945.572,-127.861 941.046,-125.193 933.95,-123.607"/>
<polygon fill="black" stroke="black" points="934.126,-120.097 923.737,-122.175 933.154,-127.029 934.126,-120.097"/>
<text text-anchor="middle" x="1004.57" y="-127.91" font-family="Times,serif" font-size="14.00"> init(at_rock_sample)</text>
</g>
<!-- n7 -->
<g id="node7" class="node"><title>n7</title>
<ellipse fill="none" stroke="black" cx="1661.93" cy="-341.09" rx="56.6372" ry="26.7407"/>
<text text-anchor="middle" x="1661.93" y="-344.89" font-family="Times,serif" font-size="14.00">&lt;camera0&gt;</text>
<text text-anchor="middle" x="1661.93" y="-329.89" font-family="Times,serif" font-size="14.00">camera</text>
</g>
<!-- n7&#45;&gt;n4 -->
<g id="edge31" class="edge"><title>n7&#45;&gt;n4</title>
<path fill="none" stroke="black" d="M1646.77,-314.954C1631.74,-286.414 1614.12,-239.88 1637.93,-209.48 1658.54,-183.175 1679.74,-203.464 1710.93,-191.48 1724.11,-186.417 1726.25,-182.678 1738.93,-176.48 1754.46,-168.894 1771.6,-161.1 1787.19,-154.225"/>
<polygon fill="black" stroke="black" points="1788.92,-157.29 1796.67,-150.073 1786.11,-150.878 1788.92,-157.29"/>
<text text-anchor="middle" x="1681.93" y="-232.65" font-family="Times,serif" font-size="14.00"> static(supports)</text>
</g>
<!-- n13 -->
<g id="node13" class="node"><title>n13</title>
<ellipse fill="none" stroke="black" cx="1797.93" cy="-236.35" rx="62.8651" ry="26.7407"/>
<text text-anchor="middle" x="1797.93" y="-240.15" font-family="Times,serif" font-size="14.00">&lt;objective4&gt;</text>
<text text-anchor="middle" x="1797.93" y="-225.15" font-family="Times,serif" font-size="14.00">objective</text>
</g>
<!-- n7&#45;&gt;n13 -->
<g id="edge36" class="edge"><title>n7&#45;&gt;n13</title>
<path fill="none" stroke="black" d="M1656.03,-314.155C1655,-303.015 1656,-290.461 1662.93,-281.22 1679.13,-259.627 1695.25,-271.519 1720.93,-263.22 1727.01,-261.257 1733.34,-259.179 1739.66,-257.088"/>
<polygon fill="black" stroke="black" points="1741.14,-260.285 1749.52,-253.806 1738.93,-253.643 1741.14,-260.285"/>
<text text-anchor="middle" x="1731.43" y="-285.02" font-family="Times,serif" font-size="14.00"> static(calibration_target)</text>
</g>
<!-- n7&#45;&gt;n16 -->
<g id="edge21" class="edge"><title>n7&#45;&gt;n16</title>
<path fill="none" stroke="black" d="M1709.71,-326.524C1736.52,-318.509 1770.41,-307.702 1799.93,-296.22 1815.72,-290.08 1851.98,-273.168 1881.73,-259.038"/>
<polygon fill="black" stroke="black" points="1883.6,-262.024 1891.12,-254.566 1880.59,-255.704 1883.6,-262.024"/>
<text text-anchor="middle" x="1880.43" y="-285.02" font-family="Times,serif" font-size="14.00"> static(on_board)</text>
</g>
<!-- n8 -->
<g id="node8" class="node"><title>n8</title>
<ellipse fill="none" stroke="black" cx="2314.93" cy="-341.09" rx="56.6372" ry="26.7407"/>
<text text-anchor="middle" x="2314.93" y="-344.89" font-family="Times,serif" font-size="14.00">&lt;camera1&gt;</text>
<text text-anchor="middle" x="2314.93" y="-329.89" font-family="Times,serif" font-size="14.00">camera</text>
</g>
<!-- n8&#45;&gt;n4 -->
<g id="edge32" class="edge"><title>n8&#45;&gt;n4</title>
<path fill="none" stroke="black" d="M2314.65,-313.958C2313.17,-302.506 2309.48,-289.759 2300.93,-281.22 2276.38,-256.686 2253.45,-283.008 2224.93,-263.22 2201.31,-246.832 2213.36,-224.644 2188.93,-209.48 2136.76,-177.088 2111.83,-205.058 2051.93,-191.48 2030.96,-186.726 2026.57,-182.533 2005.93,-176.48 1970.02,-165.946 1929.43,-155.311 1897.14,-147.151"/>
<polygon fill="black" stroke="black" points="1897.95,-143.746 1887.4,-144.7 1896.24,-150.535 1897.95,-143.746"/>
<text text-anchor="middle" x="2268.93" y="-232.65" font-family="Times,serif" font-size="14.00"> static(supports)</text>
</g>
<!-- n8&#45;&gt;n13 -->
<g id="edge29" class="edge"><title>n8&#45;&gt;n13</title>
<path fill="none" stroke="black" d="M2259.91,-334.333C2192.29,-326.714 2081.87,-312.351 2043.93,-296.22 2033.71,-291.873 2034.25,-285.341 2023.93,-281.22 1959.94,-255.665 1937.02,-278.974 1869.93,-263.22 1864.22,-261.878 1858.33,-260.228 1852.5,-258.417"/>
<polygon fill="black" stroke="black" points="1853.37,-255.02 1842.78,-255.241 1851.2,-261.674 1853.37,-255.02"/>
<text text-anchor="middle" x="2112.43" y="-285.02" font-family="Times,serif" font-size="14.00"> static(calibration_target)</text>
</g>
<!-- n8&#45;&gt;n16 -->
<g id="edge18" class="edge"><title>n8&#45;&gt;n16</title>
<path fill="none" stroke="black" d="M2270.87,-324.19C2251.22,-316.551 2228.02,-306.767 2207.93,-296.22 2197.13,-290.547 2196.3,-285.67 2184.93,-281.22 2119.35,-255.545 2038.6,-244.878 1985.09,-240.458"/>
<polygon fill="black" stroke="black" points="1985.34,-236.967 1975.09,-239.679 1984.79,-243.946 1985.34,-236.967"/>
<text text-anchor="middle" x="2254.43" y="-285.02" font-family="Times,serif" font-size="14.00"> static(on_board)</text>
</g>
<!-- n8&#45;&gt;n18 -->
<g id="edge6" class="edge"><title>n8&#45;&gt;n18</title>
<path fill="none" stroke="black" d="M2368.78,-332.495C2423.28,-322.934 2508.35,-302.735 2571.93,-263.22 2599.64,-246.001 2593.64,-225.729 2621.93,-209.48 2653.53,-191.328 2669.65,-208.39 2701.93,-191.48 2715.28,-184.491 2727.94,-174.006 2738.43,-163.813"/>
<polygon fill="black" stroke="black" points="2741.12,-166.07 2745.66,-156.497 2736.14,-161.149 2741.12,-166.07"/>
<text text-anchor="middle" x="2665.93" y="-232.65" font-family="Times,serif" font-size="14.00"> static(supports)</text>
</g>
<!-- n22 -->
<g id="node22" class="node"><title>n22</title>
<ellipse fill="none" stroke="black" cx="2483.93" cy="-131.61" rx="48.1667" ry="26.7407"/>
<text text-anchor="middle" x="2483.93" y="-135.41" font-family="Times,serif" font-size="14.00">&lt;colour&gt;</text>
<text text-anchor="middle" x="2483.93" y="-120.41" font-family="Times,serif" font-size="14.00">mode</text>
</g>
<!-- n8&#45;&gt;n22 -->
<g id="edge15" class="edge"><title>n8&#45;&gt;n22</title>
<path fill="none" stroke="black" d="M2362.24,-326.194C2393.82,-314.468 2433.69,-294.493 2456.93,-263.22 2477.2,-235.95 2483.11,-197.024 2484.45,-168.768"/>
<polygon fill="black" stroke="black" points="2487.96,-168.609 2484.77,-158.507 2480.96,-168.396 2487.96,-168.609"/>
<text text-anchor="middle" x="2523.93" y="-232.65" font-family="Times,serif" font-size="14.00"> static(supports)</text>
</g>
<!-- n9 -->
<g id="node9" class="node"><title>n9</title>
<ellipse fill="none" stroke="black" cx="62.9325" cy="-236.35" rx="62.8651" ry="26.7407"/>
<text text-anchor="middle" x="62.9325" y="-240.15" font-family="Times,serif" font-size="14.00">&lt;objective5&gt;</text>
<text text-anchor="middle" x="62.9325" y="-225.15" font-family="Times,serif" font-size="14.00">objective</text>
</g>
<!-- n9&#45;&gt;n5 -->
<g id="edge19" class="edge"><title>n9&#45;&gt;n5</title>
<path fill="none" stroke="black" d="M66.9437,-209.523C73.054,-179.421 87.7088,-130.522 120.933,-104.74 179.44,-59.3372 390.447,-39.4518 503.764,-31.8851"/>
<polygon fill="black" stroke="black" points="504.333,-35.3555 514.084,-31.212 503.877,-28.3704 504.333,-35.3555"/>
<text text-anchor="middle" x="176.933" y="-127.91" font-family="Times,serif" font-size="14.00"> static(visible_from)</text>
</g>
<!-- n9&#45;&gt;n6 -->
<g id="edge35" class="edge"><title>n9&#45;&gt;n6</title>
<path fill="none" stroke="black" d="M109.389,-218.098C149.046,-204.209 207.911,-185.557 260.933,-176.48 418.398,-149.523 460.661,-170.907 619.933,-158.48 678.415,-153.917 744.582,-146.778 793.244,-141.154"/>
<polygon fill="black" stroke="black" points="793.824,-144.61 803.353,-139.978 793.016,-137.657 793.824,-144.61"/>
<text text-anchor="middle" x="316.933" y="-180.28" font-family="Times,serif" font-size="14.00"> static(visible_from)</text>
</g>
<!-- n10 -->
<g id="node10" class="node"><title>n10</title>
<ellipse fill="none" stroke="black" cx="1032.93" cy="-236.35" rx="62.8651" ry="26.7407"/>
<text text-anchor="middle" x="1032.93" y="-240.15" font-family="Times,serif" font-size="14.00">&lt;objective0&gt;</text>
<text text-anchor="middle" x="1032.93" y="-225.15" font-family="Times,serif" font-size="14.00">objective</text>
</g>
<!-- n10&#45;&gt;n6 -->
<g id="edge10" class="edge"><title>n10&#45;&gt;n6</title>
<path fill="none" stroke="black" d="M985.597,-218.624C960.997,-209.509 933.839,-198.656 922.933,-191.48 911.677,-184.075 900.804,-174.27 891.525,-164.789"/>
<polygon fill="black" stroke="black" points="893.862,-162.166 884.447,-157.307 888.777,-166.977 893.862,-162.166"/>
<text text-anchor="middle" x="978.933" y="-180.28" font-family="Times,serif" font-size="14.00"> static(visible_from)</text>
</g>
<!-- n11 -->
<g id="node11" class="node"><title>n11</title>
<ellipse fill="none" stroke="black" cx="1937.93" cy="-341.09" rx="67.3507" ry="26.7407"/>
<text text-anchor="middle" x="1937.93" y="-344.89" font-family="Times,serif" font-size="14.00">&lt;rover0store&gt;</text>
<text text-anchor="middle" x="1937.93" y="-329.89" font-family="Times,serif" font-size="14.00">store</text>
</g>
<!-- n11&#45;&gt;n11 -->
<g id="edge4" class="edge"><title>n11&#45;&gt;n11</title>
<path fill="none" stroke="black" d="M2001.08,-350.468C2013.92,-349.447 2023.11,-346.321 2023.11,-341.09 2023.11,-337.413 2018.56,-334.775 2011.4,-333.179"/>
<polygon fill="black" stroke="black" points="2011.47,-329.653 2001.08,-331.712 2010.49,-336.584 2011.47,-329.653"/>
<text text-anchor="middle" x="2056.11" y="-337.39" font-family="Times,serif" font-size="14.00"> init(empty)</text>
</g>
<!-- n11&#45;&gt;n16 -->
<g id="edge27" class="edge"><title>n11&#45;&gt;n16</title>
<path fill="none" stroke="black" d="M1935.16,-314.165C1933.84,-301.875 1932.25,-286.987 1930.81,-273.602"/>
<polygon fill="black" stroke="black" points="1934.25,-272.838 1929.71,-263.268 1927.29,-273.583 1934.25,-272.838"/>
<text text-anchor="middle" x="1976.93" y="-285.02" font-family="Times,serif" font-size="14.00"> static(store_of)</text>
</g>
<!-- n12 -->
<g id="node12" class="node"><title>n12</title>
<ellipse fill="none" stroke="black" cx="1423.93" cy="-236.35" rx="62.8651" ry="26.7407"/>
<text text-anchor="middle" x="1423.93" y="-240.15" font-family="Times,serif" font-size="14.00">&lt;objective3&gt;</text>
<text text-anchor="middle" x="1423.93" y="-225.15" font-family="Times,serif" font-size="14.00">objective</text>
</g>
<!-- n12&#45;&gt;n4 -->
<g id="edge41" class="edge"><title>n12&#45;&gt;n4</title>
<path fill="none" stroke="black" d="M1462.52,-214.962C1475.77,-207.757 1490.62,-199.458 1503.93,-191.48 1514.4,-185.208 1515.51,-180.768 1526.93,-176.48 1607.49,-146.246 1706.91,-136.617 1771.33,-133.678"/>
<polygon fill="black" stroke="black" points="1771.51,-137.173 1781.35,-133.261 1771.22,-130.179 1771.51,-137.173"/>
<text text-anchor="middle" x="1618.93" y="-180.28" font-family="Times,serif" font-size="14.00"> end(communicated_image_data)</text>
</g>
<!-- n12&#45;&gt;n6 -->
<g id="edge42" class="edge"><title>n12&#45;&gt;n6</title>
<path fill="none" stroke="black" d="M1364.97,-226.822C1307.18,-217.985 1223.46,-203.773 1192.93,-191.48 1181.61,-186.922 1181.35,-180.781 1169.93,-176.48 1094.05,-147.904 1001.15,-137.778 937.751,-134.277"/>
<polygon fill="black" stroke="black" points="937.61,-130.765 927.445,-133.752 937.254,-137.756 937.61,-130.765"/>
<text text-anchor="middle" x="1248.93" y="-180.28" font-family="Times,serif" font-size="14.00"> static(visible_from)</text>
</g>
<!-- n13&#45;&gt;n5 -->
<g id="edge24" class="edge"><title>n13&#45;&gt;n5</title>
<path fill="none" stroke="black" d="M1842.77,-217.423C1851.66,-214.388 1861.01,-211.553 1869.93,-209.48 1905,-201.338 2006.93,-218.314 2030.93,-191.48 2035.38,-186.511 2034.29,-182.238 2030.93,-176.48 1998.26,-120.491 1966.13,-123.031 1903.93,-104.74 1666.3,-34.855 894.116,-28.1217 650.958,-27.7692"/>
<polygon fill="black" stroke="black" points="650.814,-24.2692 640.81,-27.7578 650.807,-31.2692 650.814,-24.2692"/>
<text text-anchor="middle" x="2074.93" y="-127.91" font-family="Times,serif" font-size="14.00"> static(visible_from)</text>
</g>
<!-- n13&#45;&gt;n6 -->
<g id="edge11" class="edge"><title>n13&#45;&gt;n6</title>
<path fill="none" stroke="black" d="M1752.48,-217.757C1742.24,-214.451 1731.33,-211.425 1720.93,-209.48 1635,-193.403 1411.14,-218.303 1327.93,-191.48 1316.32,-187.736 1316.44,-180.533 1304.93,-176.48 1239.02,-153.274 1044.63,-140.913 937.257,-135.69"/>
<polygon fill="black" stroke="black" points="937.301,-132.188 927.145,-135.207 936.967,-139.18 937.301,-132.188"/>
<text text-anchor="middle" x="1383.93" y="-180.28" font-family="Times,serif" font-size="14.00"> static(visible_from)</text>
</g>
<!-- n13&#45;&gt;n22 -->
<g id="edge33" class="edge"><title>n13&#45;&gt;n22</title>
<path fill="none" stroke="black" d="M1842.75,-217.317C1851.64,-214.291 1860.99,-211.487 1869.93,-209.48 1950.97,-191.298 1977.56,-218.957 2055.93,-191.48 2067.45,-187.443 2067.44,-180.583 2078.93,-176.48 2141.35,-154.197 2329.45,-141.028 2425.75,-135.571"/>
<polygon fill="black" stroke="black" points="2426.11,-139.056 2435.9,-135.005 2425.72,-132.067 2426.11,-139.056"/>
<text text-anchor="middle" x="2170.93" y="-180.28" font-family="Times,serif" font-size="14.00"> end(communicated_image_data)</text>
</g>
<!-- n14&#45;&gt;n4 -->
<g id="edge43" class="edge"><title>n14&#45;&gt;n4</title>
<path fill="none" stroke="black" d="M2855.5,-217.663C2845.26,-214.362 2834.34,-211.362 2823.93,-209.48 2706.87,-188.315 2403.31,-224.178 2288.93,-191.48 2276.11,-187.813 2275.68,-180.411 2262.93,-176.48 2160.71,-144.965 2129.29,-169.893 2022.93,-158.48 1982.43,-154.134 1937.14,-147.825 1901.51,-142.526"/>
<polygon fill="black" stroke="black" points="1901.66,-139.01 1891.25,-140.989 1900.62,-145.932 1901.66,-139.01"/>
<text text-anchor="middle" x="2380.93" y="-180.28" font-family="Times,serif" font-size="14.00"> end(communicated_image_data)</text>
</g>
<!-- n14&#45;&gt;n6 -->
<g id="edge44" class="edge"><title>n14&#45;&gt;n6</title>
<path fill="none" stroke="black" d="M2855.51,-217.559C2845.28,-214.264 2834.35,-211.293 2823.93,-209.48 2630.35,-175.804 2135.07,-214.458 1939.93,-191.48 1908.76,-187.81 1902.06,-180.511 1870.93,-176.48 1690.44,-153.104 1138.43,-138.752 937.804,-134.193"/>
<polygon fill="black" stroke="black" points="937.738,-130.69 927.662,-133.964 937.58,-137.689 937.738,-130.69"/>
<text text-anchor="middle" x="1995.93" y="-180.28" font-family="Times,serif" font-size="14.00"> static(visible_from)</text>
</g>
<!-- n14&#45;&gt;n18 -->
<g id="edge39" class="edge"><title>n14&#45;&gt;n18</title>
<path fill="none" stroke="black" d="M2870.97,-212.549C2850.95,-197.31 2824.46,-177.152 2803.09,-160.891"/>
<polygon fill="black" stroke="black" points="2804.96,-157.914 2794.88,-154.643 2800.72,-163.484 2804.96,-157.914"/>
<text text-anchor="middle" x="2933.93" y="-180.28" font-family="Times,serif" font-size="14.00"> end(communicated_image_data)</text>
</g>
<!-- n15 -->
<g id="node15" class="node"><title>n15</title>
<ellipse fill="none" stroke="black" cx="1176.93" cy="-236.35" rx="62.8651" ry="26.7407"/>
<text text-anchor="middle" x="1176.93" y="-240.15" font-family="Times,serif" font-size="14.00">&lt;objective2&gt;</text>
<text text-anchor="middle" x="1176.93" y="-225.15" font-family="Times,serif" font-size="14.00">objective</text>
</g>
<!-- n15&#45;&gt;n6 -->
<g id="edge40" class="edge"><title>n15&#45;&gt;n6</title>
<path fill="none" stroke="black" d="M1129.9,-218.286C1098.17,-206.729 1061.45,-193.247 1057.93,-191.48 1047.03,-186.002 1046.1,-181.395 1034.93,-176.48 1002.4,-162.167 964.262,-151.82 932.264,-144.783"/>
<polygon fill="black" stroke="black" points="932.616,-141.279 922.106,-142.613 931.154,-148.125 932.616,-141.279"/>
<text text-anchor="middle" x="1113.93" y="-180.28" font-family="Times,serif" font-size="14.00"> static(visible_from)</text>
</g>
<!-- n16&#45;&gt;n6 -->
<g id="edge25" class="edge"><title>n16&#45;&gt;n6</title>
<path fill="none" stroke="black" d="M1892.72,-217.291C1885.38,-214.145 1877.54,-211.301 1869.93,-209.48 1781.02,-188.201 1544.62,-223.345 1458.93,-191.48 1448.85,-187.73 1449.95,-180.392 1439.93,-176.48 1350.47,-141.561 1072.51,-134.336 938.143,-132.912"/>
<polygon fill="black" stroke="black" points="937.974,-129.41 927.94,-132.812 937.905,-136.409 937.974,-129.41"/>
<text text-anchor="middle" x="1479.43" y="-180.28" font-family="Times,serif" font-size="14.00"> init(at)</text>
</g>
<!-- n16&#45;&gt;n16 -->
<g id="edge5" class="edge"><title>n16&#45;&gt;n16</title>
<path fill="none" stroke="black" d="M1972.03,-246.015C1983.97,-245.462 1993.02,-242.241 1993.02,-236.35 1993.02,-232.3 1988.74,-229.512 1982.19,-227.986"/>
<polygon fill="black" stroke="black" points="1982.39,-224.483 1972.03,-226.686 1981.5,-231.427 1982.39,-224.483"/>
<text text-anchor="middle" x="2086.52" y="-247.65" font-family="Times,serif" font-size="14.00"> static(equipped_for_imaging)</text>
<text text-anchor="middle" x="2086.52" y="-232.65" font-family="Times,serif" font-size="14.00">init(available)</text>
<text text-anchor="middle" x="2086.52" y="-217.65" font-family="Times,serif" font-size="14.00">static(equipped_for_soil_analysis)</text>
</g>
<!-- n17 -->
<g id="node17" class="node"><title>n17</title>
<ellipse fill="none" stroke="black" cx="503.933" cy="-236.35" rx="62.8651" ry="26.7407"/>
<text text-anchor="middle" x="503.933" y="-240.15" font-family="Times,serif" font-size="14.00">&lt;objective8&gt;</text>
<text text-anchor="middle" x="503.933" y="-225.15" font-family="Times,serif" font-size="14.00">objective</text>
</g>
<!-- n17&#45;&gt;n5 -->
<g id="edge16" class="edge"><title>n17&#45;&gt;n5</title>
<path fill="none" stroke="black" d="M513.03,-209.492C526.016,-172.584 549.907,-104.681 564.512,-63.1719"/>
<polygon fill="black" stroke="black" points="567.817,-64.3221 567.835,-53.7272 561.214,-61.9987 567.817,-64.3221"/>
<text text-anchor="middle" x="606.933" y="-127.91" font-family="Times,serif" font-size="14.00"> static(visible_from)</text>
</g>
<!-- n17&#45;&gt;n6 -->
<g id="edge20" class="edge"><title>n17&#45;&gt;n6</title>
<path fill="none" stroke="black" d="M518.714,-210.037C527.162,-197.893 538.877,-184.312 552.933,-176.48 573.444,-165.051 707.149,-149.141 792.438,-139.954"/>
<polygon fill="black" stroke="black" points="793.018,-143.412 802.589,-138.868 792.273,-136.452 793.018,-143.412"/>
<text text-anchor="middle" x="608.933" y="-180.28" font-family="Times,serif" font-size="14.00"> static(visible_from)</text>
</g>
<!-- n19 -->
<g id="node19" class="node"><title>n19</title>
<ellipse fill="none" stroke="black" cx="3075.93" cy="-341.09" rx="56.6372" ry="26.7407"/>
<text text-anchor="middle" x="3075.93" y="-344.89" font-family="Times,serif" font-size="14.00">&lt;camera3&gt;</text>
<text text-anchor="middle" x="3075.93" y="-329.89" font-family="Times,serif" font-size="14.00">camera</text>
</g>
<!-- n19&#45;&gt;n14 -->
<g id="edge34" class="edge"><title>n19&#45;&gt;n14</title>
<path fill="none" stroke="black" d="M3040.62,-319.908C3028.02,-312.58 3013.76,-304.151 3000.93,-296.22 2990.55,-289.804 2988.35,-287.577 2977.93,-281.22 2968.08,-275.208 2957.39,-268.952 2947.2,-263.111"/>
<polygon fill="black" stroke="black" points="2948.82,-260.01 2938.4,-258.102 2945.36,-266.093 2948.82,-260.01"/>
<text text-anchor="middle" x="3069.43" y="-285.02" font-family="Times,serif" font-size="14.00"> static(calibration_target)</text>
</g>
<!-- n19&#45;&gt;n16 -->
<g id="edge9" class="edge"><title>n19&#45;&gt;n16</title>
<path fill="none" stroke="black" d="M3020.83,-334.353C2980.54,-328.601 2925.41,-317.422 2880.93,-296.22 2871.22,-291.591 2872.05,-284.885 2861.93,-281.22 2792.12,-255.927 2268.04,-267.803 2193.93,-263.22 2121.23,-258.724 2037.69,-250.064 1983.7,-244.007"/>
<polygon fill="black" stroke="black" points="1983.97,-240.516 1973.64,-242.87 1983.18,-247.471 1983.97,-240.516"/>
<text text-anchor="middle" x="2927.43" y="-285.02" font-family="Times,serif" font-size="14.00"> static(on_board)</text>
</g>
<!-- n19&#45;&gt;n18 -->
<g id="edge17" class="edge"><title>n19&#45;&gt;n18</title>
<path fill="none" stroke="black" d="M3124.06,-326.919C3139.15,-320.273 3154.15,-310.481 3162.93,-296.22 3178.33,-271.209 3182.48,-251.789 3138.93,-209.48 3095.52,-167.305 2923.43,-146.139 2828.92,-137.502"/>
<polygon fill="black" stroke="black" points="2829.18,-134.012 2818.91,-136.608 2828.55,-140.984 2829.18,-134.012"/>
<text text-anchor="middle" x="3216.93" y="-232.65" font-family="Times,serif" font-size="14.00"> static(supports)</text>
</g>
<!-- n19&#45;&gt;n22 -->
<g id="edge14" class="edge"><title>n19&#45;&gt;n22</title>
<path fill="none" stroke="black" d="M3115.98,-321.666C3134.49,-310.618 3149.99,-295.901 3137.93,-281.22 3111.76,-249.365 3084.72,-279.718 3046.93,-263.22 3009.68,-246.955 3010.78,-224.307 2972.93,-209.48 2910,-184.827 2888.8,-201.282 2821.93,-191.48 2721.73,-176.793 2605.54,-155.647 2538.79,-143.101"/>
<polygon fill="black" stroke="black" points="2539.39,-139.652 2528.91,-141.239 2538.09,-146.53 2539.39,-139.652"/>
<text text-anchor="middle" x="3090.93" y="-232.65" font-family="Times,serif" font-size="14.00"> static(supports)</text>
</g>
<!-- n20 -->
<g id="node20" class="node"><title>n20</title>
<ellipse fill="none" stroke="black" cx="2384.93" cy="-236.35" rx="62.8651" ry="26.7407"/>
<text text-anchor="middle" x="2384.93" y="-240.15" font-family="Times,serif" font-size="14.00">&lt;objective6&gt;</text>
<text text-anchor="middle" x="2384.93" y="-225.15" font-family="Times,serif" font-size="14.00">objective</text>
</g>
<!-- n20&#45;&gt;n6 -->
<g id="edge30" class="edge"><title>n20&#45;&gt;n6</title>
<path fill="none" stroke="black" d="M2339.5,-217.656C2329.26,-214.355 2318.34,-211.358 2307.93,-209.48 2067.68,-166.146 1999.09,-235.346 1758.93,-191.48 1738.61,-187.768 1735.22,-180.383 1714.93,-176.48 1566.99,-148.023 1115.8,-137.078 937.524,-133.793"/>
<polygon fill="black" stroke="black" points="937.516,-130.292 927.454,-133.61 937.389,-137.291 937.516,-130.292"/>
<text text-anchor="middle" x="1814.93" y="-180.28" font-family="Times,serif" font-size="14.00"> static(visible_from)</text>
</g>
<!-- n20&#45;&gt;n18 -->
<g id="edge8" class="edge"><title>n20&#45;&gt;n18</title>
<path fill="none" stroke="black" d="M2423.84,-215.131C2449.86,-202.365 2485.2,-186.457 2517.93,-176.48 2579.75,-157.634 2652.87,-145.925 2703.62,-139.395"/>
<polygon fill="black" stroke="black" points="2704.29,-142.838 2713.78,-138.119 2703.42,-135.893 2704.29,-142.838"/>
<text text-anchor="middle" x="2609.93" y="-180.28" font-family="Times,serif" font-size="14.00"> end(communicated_image_data)</text>
</g>
<!-- n21 -->
<g id="node21" class="node"><title>n21</title>
<ellipse fill="none" stroke="black" cx="647.933" cy="-236.35" rx="62.8651" ry="26.7407"/>
<text text-anchor="middle" x="647.933" y="-240.15" font-family="Times,serif" font-size="14.00">&lt;objective9&gt;</text>
<text text-anchor="middle" x="647.933" y="-225.15" font-family="Times,serif" font-size="14.00">objective</text>
</g>
<!-- n21&#45;&gt;n6 -->
<g id="edge26" class="edge"><title>n21&#45;&gt;n6</title>
<path fill="none" stroke="black" d="M657.64,-209.739C663.328,-197.974 671.646,-184.815 682.933,-176.48 713.944,-153.578 755.331,-142.493 790.701,-137.185"/>
<polygon fill="black" stroke="black" points="791.552,-140.602 800.984,-135.777 790.602,-133.666 791.552,-140.602"/>
<text text-anchor="middle" x="738.933" y="-180.28" font-family="Times,serif" font-size="14.00"> static(visible_from)</text>
</g>
</g>
</svg>
