<?xml version="1.0" encoding="UTF-8" standalone="no"?>
<!DOCTYPE svg PUBLIC "-//W3C//DTD SVG 1.1//EN"
 "http://www.w3.org/Graphics/SVG/1.1/DTD/svg11.dtd">
<!-- Generated by graphviz version 2.38.0 (20140413.2041)
 -->
<!-- Title: Struc Pages: 1 -->
<svg width="911pt" height="400pt"
 viewBox="0.00 0.00 910.70 399.96" xmlns="http://www.w3.org/2000/svg" xmlns:xlink="http://www.w3.org/1999/xlink">
<g id="graph0" class="graph" transform="scale(1 1) rotate(0) translate(4 395.96)">
<title>Struc</title>
<polygon fill="white" stroke="none" points="-4,4 -4,-395.96 906.702,-395.96 906.702,4 -4,4"/>
<!-- n1 -->
<g id="node1" class="node"><title>n1</title>
<ellipse fill="none" stroke="black" cx="186.083" cy="-135.61" rx="63.7795" ry="26.7407"/>
<text text-anchor="middle" x="186.083" y="-139.41" font-family="Times,serif" font-size="14.00">&lt;waypoint1&gt;</text>
<text text-anchor="middle" x="186.083" y="-124.41" font-family="Times,serif" font-size="14.00">waypoint</text>
</g>
<!-- n1&#45;&gt;n1 -->
<g id="edge1" class="edge"><title>n1&#45;&gt;n1</title>
<path fill="none" stroke="black" d="M245.16,-145.828C258.215,-144.868 267.723,-141.462 267.723,-135.61 267.723,-131.404 262.811,-128.462 255.2,-126.783"/>
<polygon fill="black" stroke="black" points="255.545,-123.298 245.16,-125.393 254.585,-130.231 255.545,-123.298"/>
<text text-anchor="middle" x="352.223" y="-139.41" font-family="Times,serif" font-size="14.00"> end(communicated_soil_data)</text>
<text text-anchor="middle" x="352.223" y="-124.41" font-family="Times,serif" font-size="14.00">init(at_soil_sample)</text>
</g>
<!-- n3 -->
<g id="node3" class="node"><title>n3</title>
<ellipse fill="none" stroke="black" cx="473.083" cy="-26.8701" rx="63.7795" ry="26.7407"/>
<text text-anchor="middle" x="473.083" y="-30.6701" font-family="Times,serif" font-size="14.00">&lt;waypoint0&gt;</text>
<text text-anchor="middle" x="473.083" y="-15.6701" font-family="Times,serif" font-size="14.00">waypoint</text>
</g>
<!-- n1&#45;&gt;n3 -->
<g id="edge11" class="edge"><title>n1&#45;&gt;n3</title>
<path fill="none" stroke="black" d="M199.432,-109.12C207.663,-95.914 219.45,-80.7142 234.083,-71.7401 261.577,-54.8787 341.49,-42.5088 401.396,-35.2803"/>
<polygon fill="black" stroke="black" points="402.057,-38.7266 411.578,-34.0776 401.236,-31.7749 402.057,-38.7266"/>
<text text-anchor="middle" x="273.083" y="-75.5401" font-family="Times,serif" font-size="14.00"> static(visible)</text>
</g>
<!-- n2 -->
<g id="node2" class="node"><title>n2</title>
<ellipse fill="none" stroke="black" cx="52.0833" cy="-135.61" rx="48.1603" ry="26.7574"/>
<ellipse fill="none" stroke="black" cx="52.0833" cy="-135.61" rx="52.1667" ry="30.7407"/>
<text text-anchor="middle" x="52.0833" y="-139.41" font-family="Times,serif" font-size="14.00">&lt;colour&gt;</text>
<text text-anchor="middle" x="52.0833" y="-124.41" font-family="Times,serif" font-size="14.00">mode</text>
</g>
<!-- n3&#45;&gt;n1 -->
<g id="edge14" class="edge"><title>n3&#45;&gt;n1</title>
<path fill="none" stroke="black" d="M426.353,-45.2498C376.014,-63.9716 295.927,-93.7573 242.212,-113.735"/>
<polygon fill="black" stroke="black" points="240.986,-110.457 232.834,-117.223 243.426,-117.017 240.986,-110.457"/>
<text text-anchor="middle" x="395.083" y="-75.5401" font-family="Times,serif" font-size="14.00"> static(visible)</text>
</g>
<!-- n3&#45;&gt;n3 -->
<g id="edge2" class="edge"><title>n3&#45;&gt;n3</title>
<path fill="none" stroke="black" d="M532.888,-36.3053C545.567,-35.3472 554.723,-32.2021 554.723,-26.8701 554.723,-23.121 550.196,-20.4531 543.101,-18.8664"/>
<polygon fill="black" stroke="black" points="543.277,-15.3569 532.888,-17.4349 542.305,-22.2891 543.277,-15.3569"/>
<text text-anchor="middle" x="613.723" y="-23.1701" font-family="Times,serif" font-size="14.00"> init(at_rock_sample)</text>
</g>
<!-- n4 -->
<g id="node4" class="node"><title>n4</title>
<ellipse fill="none" stroke="black" cx="292.083" cy="-248.35" rx="67.7712" ry="26.7574"/>
<ellipse fill="none" stroke="black" cx="292.083" cy="-248.35" rx="71.7647" ry="30.7407"/>
<text text-anchor="middle" x="292.083" y="-252.15" font-family="Times,serif" font-size="14.00">&lt;objective11&gt;</text>
<text text-anchor="middle" x="292.083" y="-237.15" font-family="Times,serif" font-size="14.00">objective</text>
</g>
<!-- n4&#45;&gt;n1 -->
<g id="edge7" class="edge"><title>n4&#45;&gt;n1</title>
<path fill="none" stroke="black" stroke-dasharray="5,2" d="M286.263,-217.27C282.954,-206.061 277.856,-193.808 270.083,-184.48 261.944,-174.712 251.266,-166.534 240.266,-159.859"/>
<polygon fill="black" stroke="black" points="241.84,-156.728 231.417,-154.827 238.379,-162.813 241.84,-156.728"/>
<text text-anchor="middle" x="335.083" y="-188.28" font-family="Times,serif" font-size="14.00"> static(visible_from)</text>
</g>
<!-- n4&#45;&gt;n2 -->
<g id="edge13" class="edge"><title>n4&#45;&gt;n2</title>
<path fill="none" stroke="black" stroke-dasharray="5,2" d="M228.101,-234.175C168.494,-221.684 87.9227,-204.153 82.0833,-199.48 74.3039,-193.255 68.4247,-184.526 64.0282,-175.549"/>
<polygon fill="black" stroke="black" points="67.1608,-173.976 59.9659,-166.199 60.7406,-176.765 67.1608,-173.976"/>
<text text-anchor="middle" x="174.083" y="-188.28" font-family="Times,serif" font-size="14.00"> end(communicated_image_data)</text>
</g>
<!-- n4&#45;&gt;n3 -->
<g id="edge6" class="edge"><title>n4&#45;&gt;n3</title>
<path fill="none" stroke="black" d="M352.073,-231.218C385.333,-219.036 424.266,-198.754 446.083,-166.48 466.656,-136.047 472.396,-93.7558 473.619,-63.9122"/>
<polygon fill="black" stroke="black" points="477.117,-64.0031 473.88,-53.9152 470.12,-63.8204 477.117,-64.0031"/>
<text text-anchor="middle" x="526.083" y="-131.91" font-family="Times,serif" font-size="14.00"> static(visible_from)</text>
</g>
<!-- n5 -->
<g id="node5" class="node"><title>n5</title>
<ellipse fill="none" stroke="black" cx="292.083" cy="-361.09" rx="56.6326" ry="26.7574"/>
<ellipse fill="none" stroke="black" cx="292.083" cy="-361.09" rx="60.6372" ry="30.7407"/>
<text text-anchor="middle" x="292.083" y="-364.89" font-family="Times,serif" font-size="14.00">&lt;camera1&gt;</text>
<text text-anchor="middle" x="292.083" y="-349.89" font-family="Times,serif" font-size="14.00">camera</text>
</g>
<!-- n5&#45;&gt;n2 -->
<g id="edge15" class="edge"><title>n5&#45;&gt;n2</title>
<path fill="none" stroke="black" stroke-dasharray="5,2" d="M241.679,-343.644C205.912,-330.243 158.212,-308.704 123.083,-279.22 89.7152,-251.214 83.841,-239.26 66.0833,-199.48 62.8462,-192.229 60.3278,-184.162 58.3783,-176.291"/>
<polygon fill="black" stroke="black" points="61.7888,-175.504 56.2021,-166.502 54.9556,-177.023 61.7888,-175.504"/>
<text text-anchor="middle" x="167.083" y="-244.65" font-family="Times,serif" font-size="14.00"> static(supports)</text>
</g>
<!-- n5&#45;&gt;n4 -->
<g id="edge16" class="edge"><title>n5&#45;&gt;n4</title>
<path fill="none" stroke="black" stroke-dasharray="5,2" d="M292.083,-330.123C292.083,-317.689 292.083,-303.073 292.083,-289.717"/>
<polygon fill="black" stroke="black" points="295.583,-289.342 292.083,-279.342 288.583,-289.342 295.583,-289.342"/>
<text text-anchor="middle" x="360.583" y="-301.02" font-family="Times,serif" font-size="14.00"> static(calibration_target)</text>
</g>
<!-- n8 -->
<g id="node8" class="node"><title>n8</title>
<ellipse fill="none" stroke="black" cx="607.083" cy="-248.35" rx="48.1667" ry="26.7407"/>
<text text-anchor="middle" x="607.083" y="-252.15" font-family="Times,serif" font-size="14.00">&lt;rover0&gt;</text>
<text text-anchor="middle" x="607.083" y="-237.15" font-family="Times,serif" font-size="14.00">rover</text>
</g>
<!-- n5&#45;&gt;n8 -->
<g id="edge10" class="edge"><title>n5&#45;&gt;n8</title>
<path fill="none" stroke="black" d="M342.085,-343.378C369.078,-334.289 402.953,-322.777 433.083,-312.22 475.338,-297.415 523.166,-280.093 557.969,-267.384"/>
<polygon fill="black" stroke="black" points="559.234,-270.648 567.425,-263.928 556.831,-264.074 559.234,-270.648"/>
<text text-anchor="middle" x="518.583" y="-301.02" font-family="Times,serif" font-size="14.00"> static(on_board)</text>
</g>
<!-- n6 -->
<g id="node6" class="node"><title>n6</title>
<ellipse fill="none" stroke="black" cx="607.083" cy="-361.09" rx="67.3507" ry="26.7407"/>
<text text-anchor="middle" x="607.083" y="-364.89" font-family="Times,serif" font-size="14.00">&lt;rover0store&gt;</text>
<text text-anchor="middle" x="607.083" y="-349.89" font-family="Times,serif" font-size="14.00">store</text>
</g>
<!-- n6&#45;&gt;n6 -->
<g id="edge3" class="edge"><title>n6&#45;&gt;n6</title>
<path fill="none" stroke="black" d="M669.478,-371.251C682.706,-370.22 692.258,-366.833 692.258,-361.09 692.258,-356.918 687.216,-353.99 679.384,-352.304"/>
<polygon fill="black" stroke="black" points="679.864,-348.837 669.478,-350.929 678.902,-355.771 679.864,-348.837"/>
<text text-anchor="middle" x="725.258" y="-357.39" font-family="Times,serif" font-size="14.00"> init(empty)</text>
</g>
<!-- n6&#45;&gt;n8 -->
<g id="edge12" class="edge"><title>n6&#45;&gt;n8</title>
<path fill="none" stroke="black" d="M607.083,-334.127C607.083,-319.653 607.083,-301.403 607.083,-285.546"/>
<polygon fill="black" stroke="black" points="610.583,-285.535 607.083,-275.535 603.583,-285.535 610.583,-285.535"/>
<text text-anchor="middle" x="650.083" y="-301.02" font-family="Times,serif" font-size="14.00"> static(store_of)</text>
</g>
<!-- n7 -->
<g id="node7" class="node"><title>n7</title>
<ellipse fill="none" stroke="black" cx="732.083" cy="-135.61" rx="51.7379" ry="26.7407"/>
<text text-anchor="middle" x="732.083" y="-139.41" font-family="Times,serif" font-size="14.00">&lt;general&gt;</text>
<text text-anchor="middle" x="732.083" y="-124.41" font-family="Times,serif" font-size="14.00">lander</text>
</g>
<!-- n7&#45;&gt;n3 -->
<g id="edge9" class="edge"><title>n7&#45;&gt;n3</title>
<path fill="none" stroke="black" d="M703.722,-112.851C685.066,-99.4114 659.64,-82.6996 635.083,-71.7401 605.081,-58.3505 570.081,-48.2452 540.306,-41.1286"/>
<polygon fill="black" stroke="black" points="540.956,-37.6865 530.423,-38.8293 539.37,-44.5044 540.956,-37.6865"/>
<text text-anchor="middle" x="710.083" y="-75.5401" font-family="Times,serif" font-size="14.00"> static(at_lander)</text>
</g>
<!-- n7&#45;&gt;n7 -->
<g id="edge4" class="edge"><title>n7&#45;&gt;n7</title>
<path fill="none" stroke="black" d="M779.915,-146.002C792.336,-145.363 801.702,-141.899 801.702,-135.61 801.702,-131.188 797.072,-128.163 790.005,-126.534"/>
<polygon fill="black" stroke="black" points="790.284,-123.041 779.915,-125.218 789.379,-129.982 790.284,-123.041"/>
<text text-anchor="middle" x="852.202" y="-131.91" font-family="Times,serif" font-size="14.00"> init(channel_free)</text>
</g>
<!-- n8&#45;&gt;n3 -->
<g id="edge8" class="edge"><title>n8&#45;&gt;n3</title>
<path fill="none" stroke="black" d="M609.985,-221.279C612.042,-190.945 611.261,-140.466 589.083,-104.74 574.516,-81.274 549.825,-63.4364 526.958,-50.8801"/>
<polygon fill="black" stroke="black" points="528.456,-47.7135 517.976,-46.1582 525.199,-53.9095 528.456,-47.7135"/>
<text text-anchor="middle" x="629.583" y="-131.91" font-family="Times,serif" font-size="14.00"> init(at)</text>
</g>
<!-- n8&#45;&gt;n8 -->
<g id="edge5" class="edge"><title>n8&#45;&gt;n8</title>
<path fill="none" stroke="black" d="M651.558,-258.786C663.806,-258.282 673.167,-254.803 673.167,-248.35 673.167,-243.813 668.539,-240.746 661.534,-239.15"/>
<polygon fill="black" stroke="black" points="661.912,-235.67 651.558,-237.914 661.052,-242.617 661.912,-235.67"/>
<text text-anchor="middle" x="766.667" y="-259.65" font-family="Times,serif" font-size="14.00"> static(equipped_for_imaging)</text>
<text text-anchor="middle" x="766.667" y="-244.65" font-family="Times,serif" font-size="14.00">init(available)</text>
<text text-anchor="middle" x="766.667" y="-229.65" font-family="Times,serif" font-size="14.00">static(equipped_for_soil_analysis)</text>
</g>
</g>
</svg>
