<?xml version="1.0" encoding="UTF-8" standalone="no"?>
<!DOCTYPE svg PUBLIC "-//W3C//DTD SVG 1.1//EN"
 "http://www.w3.org/Graphics/SVG/1.1/DTD/svg11.dtd">
<!-- Generated by graphviz version 2.38.0 (20140413.2041)
 -->
<!-- Title: Struc Pages: 1 -->
<svg width="3780pt" height="376pt"
 viewBox="0.00 0.00 3779.93 375.96" xmlns="http://www.w3.org/2000/svg" xmlns:xlink="http://www.w3.org/1999/xlink">
<g id="graph0" class="graph" transform="scale(1 1) rotate(0) translate(4 371.96)">
<title>Struc</title>
<polygon fill="white" stroke="none" points="-4,4 -4,-371.96 3775.93,-371.96 3775.93,4 -4,4"/>
<!-- n1 -->
<g id="node1" class="node"><title>n1</title>
<ellipse fill="none" stroke="black" cx="1026.93" cy="-236.35" rx="51.7379" ry="26.7407"/>
<text text-anchor="middle" x="1026.93" y="-240.15" font-family="Times,serif" font-size="14.00">&lt;general&gt;</text>
<text text-anchor="middle" x="1026.93" y="-225.15" font-family="Times,serif" font-size="14.00">lander</text>
</g>
<!-- n1&#45;&gt;n1 -->
<g id="edge1" class="edge"><title>n1&#45;&gt;n1</title>
<path fill="none" stroke="black" d="M1075.41,-245.966C1087.51,-245.294 1096.55,-242.089 1096.55,-236.35 1096.55,-232.405 1092.28,-229.657 1085.67,-228.107"/>
<polygon fill="black" stroke="black" points="1085.79,-224.59 1075.41,-226.734 1084.86,-231.529 1085.79,-224.59"/>
<text text-anchor="middle" x="1147.05" y="-232.65" font-family="Times,serif" font-size="14.00"> init(channel_free)</text>
</g>
<!-- n6 -->
<g id="node6" class="node"><title>n6</title>
<ellipse fill="none" stroke="black" cx="1340.93" cy="-131.61" rx="63.7795" ry="26.7407"/>
<text text-anchor="middle" x="1340.93" y="-135.41" font-family="Times,serif" font-size="14.00">&lt;waypoint0&gt;</text>
<text text-anchor="middle" x="1340.93" y="-120.41" font-family="Times,serif" font-size="14.00">waypoint</text>
</g>
<!-- n1&#45;&gt;n6 -->
<g id="edge37" class="edge"><title>n1&#45;&gt;n6</title>
<path fill="none" stroke="black" d="M1026.81,-209.471C1028.16,-197.79 1031.87,-184.78 1040.93,-176.48 1073.07,-147.058 1189.12,-137.343 1267.1,-134.151"/>
<polygon fill="black" stroke="black" points="1267.51,-137.638 1277.37,-133.759 1267.24,-130.643 1267.51,-137.638"/>
<text text-anchor="middle" x="1086.93" y="-180.28" font-family="Times,serif" font-size="14.00"> static(at_lander)</text>
</g>
<!-- n2 -->
<g id="node2" class="node"><title>n2</title>
<ellipse fill="none" stroke="black" cx="574.933" cy="-236.35" rx="62.8651" ry="26.7407"/>
<text text-anchor="middle" x="574.933" y="-240.15" font-family="Times,serif" font-size="14.00">&lt;objective0&gt;</text>
<text text-anchor="middle" x="574.933" y="-225.15" font-family="Times,serif" font-size="14.00">objective</text>
</g>
<!-- n5 -->
<g id="node5" class="node"><title>n5</title>
<ellipse fill="none" stroke="black" cx="1339.93" cy="-26.8701" rx="63.7795" ry="26.7407"/>
<text text-anchor="middle" x="1339.93" y="-30.6701" font-family="Times,serif" font-size="14.00">&lt;waypoint1&gt;</text>
<text text-anchor="middle" x="1339.93" y="-15.6701" font-family="Times,serif" font-size="14.00">waypoint</text>
</g>
<!-- n2&#45;&gt;n5 -->
<g id="edge41" class="edge"><title>n2&#45;&gt;n5</title>
<path fill="none" stroke="black" d="M545.362,-212.451C534.372,-201.204 526.601,-187.695 535.933,-176.48 541.891,-169.32 1079.06,-73.9119 1271.94,-39.8504"/>
<polygon fill="black" stroke="black" points="1272.72,-43.2672 1281.96,-38.0819 1271.5,-36.3738 1272.72,-43.2672"/>
<text text-anchor="middle" x="956.933" y="-127.91" font-family="Times,serif" font-size="14.00"> static(visible_from)</text>
</g>
<!-- n2&#45;&gt;n6 -->
<g id="edge40" class="edge"><title>n2&#45;&gt;n6</title>
<path fill="none" stroke="black" d="M619.776,-217.449C628.665,-214.411 638.009,-211.569 646.933,-209.48 714.889,-193.575 738.422,-218.117 802.933,-191.48 812.877,-187.374 811.926,-180.434 821.933,-176.48 900.97,-145.249 1143.74,-136.23 1267.2,-133.641"/>
<polygon fill="black" stroke="black" points="1267.39,-137.138 1277.32,-133.438 1267.25,-130.14 1267.39,-137.138"/>
<text text-anchor="middle" x="877.933" y="-180.28" font-family="Times,serif" font-size="14.00"> static(visible_from)</text>
</g>
<!-- n3 -->
<g id="node3" class="node"><title>n3</title>
<ellipse fill="none" stroke="black" cx="430.933" cy="-236.35" rx="62.8651" ry="26.7407"/>
<text text-anchor="middle" x="430.933" y="-240.15" font-family="Times,serif" font-size="14.00">&lt;objective3&gt;</text>
<text text-anchor="middle" x="430.933" y="-225.15" font-family="Times,serif" font-size="14.00">objective</text>
</g>
<!-- n4 -->
<g id="node4" class="node"><title>n4</title>
<ellipse fill="none" stroke="black" cx="3016.93" cy="-131.61" rx="56.6372" ry="26.7407"/>
<text text-anchor="middle" x="3016.93" y="-135.41" font-family="Times,serif" font-size="14.00">&lt;high_res&gt;</text>
<text text-anchor="middle" x="3016.93" y="-120.41" font-family="Times,serif" font-size="14.00">mode</text>
</g>
<!-- n3&#45;&gt;n4 -->
<g id="edge12" class="edge"><title>n3&#45;&gt;n4</title>
<path fill="none" stroke="black" d="M474.851,-216.974C483.982,-213.894 493.652,-211.157 502.933,-209.48 580.789,-195.41 1851.48,-215.279 1926.93,-191.48 1938.22,-187.921 1937.69,-180.182 1948.93,-176.48 1999.1,-159.959 2371.16,-160.631 2423.93,-158.48 2614.95,-150.695 2840.53,-140.607 2950.27,-135.643"/>
<polygon fill="black" stroke="black" points="2950.69,-139.128 2960.52,-135.179 2950.37,-132.135 2950.69,-139.128"/>
<text text-anchor="middle" x="2040.93" y="-180.28" font-family="Times,serif" font-size="14.00"> end(communicated_image_data)</text>
</g>
<!-- n3&#45;&gt;n5 -->
<g id="edge21" class="edge"><title>n3&#45;&gt;n5</title>
<path fill="none" stroke="black" d="M461.311,-212.785C468.191,-206.51 474.932,-199.261 479.933,-191.48 501.76,-157.514 475.551,-130.144 506.933,-104.74 565.361,-57.4404 1074.15,-36.3684 1266.61,-30.039"/>
<polygon fill="black" stroke="black" points="1266.75,-33.5363 1276.63,-29.7133 1266.52,-26.54 1266.75,-33.5363"/>
<text text-anchor="middle" x="562.933" y="-127.91" font-family="Times,serif" font-size="14.00"> static(visible_from)</text>
</g>
<!-- n3&#45;&gt;n6 -->
<g id="edge11" class="edge"><title>n3&#45;&gt;n6</title>
<path fill="none" stroke="black" d="M475.765,-217.404C484.656,-214.37 494.002,-211.541 502.933,-209.48 574.812,-192.893 599.661,-219.422 667.933,-191.48 677.89,-187.405 676.893,-180.347 686.933,-176.48 790.896,-136.439 1118.41,-131.985 1266.69,-132.104"/>
<polygon fill="black" stroke="black" points="1267.05,-135.605 1277.06,-132.121 1267.06,-128.605 1267.05,-135.605"/>
<text text-anchor="middle" x="742.933" y="-180.28" font-family="Times,serif" font-size="14.00"> static(visible_from)</text>
</g>
<!-- n18 -->
<g id="node18" class="node"><title>n18</title>
<ellipse fill="none" stroke="black" cx="261.933" cy="-131.61" rx="53.9813" ry="26.7407"/>
<text text-anchor="middle" x="261.933" y="-135.41" font-family="Times,serif" font-size="14.00">&lt;low_res&gt;</text>
<text text-anchor="middle" x="261.933" y="-120.41" font-family="Times,serif" font-size="14.00">mode</text>
</g>
<!-- n3&#45;&gt;n18 -->
<g id="edge34" class="edge"><title>n3&#45;&gt;n18</title>
<path fill="none" stroke="black" d="M382.52,-218.894C373.054,-215.73 363.192,-212.472 353.933,-209.48 328.249,-201.182 317.021,-208.325 295.933,-191.48 287.84,-185.017 281.301,-176.067 276.201,-167.096"/>
<polygon fill="black" stroke="black" points="279.297,-165.463 271.576,-158.208 273.087,-168.694 279.297,-165.463"/>
<text text-anchor="middle" x="387.933" y="-180.28" font-family="Times,serif" font-size="14.00"> end(communicated_image_data)</text>
</g>
<!-- n5&#45;&gt;n5 -->
<g id="edge2" class="edge"><title>n5&#45;&gt;n5</title>
<path fill="none" stroke="black" d="M1399.74,-36.3053C1412.42,-35.3472 1421.57,-32.2021 1421.57,-26.8701 1421.57,-23.121 1417.05,-20.4531 1409.95,-18.8664"/>
<polygon fill="black" stroke="black" points="1410.13,-15.3569 1399.74,-17.4349 1409.15,-22.2891 1410.13,-15.3569"/>
<text text-anchor="middle" x="1506.07" y="-30.6701" font-family="Times,serif" font-size="14.00"> end(communicated_soil_data)</text>
<text text-anchor="middle" x="1506.07" y="-15.6701" font-family="Times,serif" font-size="14.00">init(at_soil_sample)</text>
</g>
<!-- n5&#45;&gt;n6 -->
<g id="edge10" class="edge"><title>n5&#45;&gt;n6</title>
<path fill="none" stroke="black" d="M1359.82,-52.5809C1363.57,-58.5291 1366.93,-65.0951 1368.93,-71.7401 1371.46,-80.1534 1369.88,-88.8773 1366.45,-96.9498"/>
<polygon fill="black" stroke="black" points="1363.22,-95.582 1361.72,-106.069 1369.43,-98.8097 1363.22,-95.582"/>
<text text-anchor="middle" x="1409.93" y="-75.5401" font-family="Times,serif" font-size="14.00"> static(visible)</text>
</g>
<!-- n6&#45;&gt;n5 -->
<g id="edge26" class="edge"><title>n6&#45;&gt;n5</title>
<path fill="none" stroke="black" d="M1305.35,-109.287C1297.92,-103.021 1291.09,-95.4652 1286.93,-86.7401 1281.62,-75.5704 1286.58,-64.9818 1295.25,-55.945"/>
<polygon fill="black" stroke="black" points="1297.81,-58.3514 1302.88,-49.0488 1293.12,-53.1588 1297.81,-58.3514"/>
<text text-anchor="middle" x="1325.93" y="-75.5401" font-family="Times,serif" font-size="14.00"> static(visible)</text>
</g>
<!-- n6&#45;&gt;n6 -->
<g id="edge3" class="edge"><title>n6&#45;&gt;n6</title>
<path fill="none" stroke="black" d="M1400.74,-141.045C1413.42,-140.087 1422.57,-136.942 1422.57,-131.61 1422.57,-127.861 1418.05,-125.193 1410.95,-123.607"/>
<polygon fill="black" stroke="black" points="1411.13,-120.097 1400.74,-122.175 1410.15,-127.029 1411.13,-120.097"/>
<text text-anchor="middle" x="1481.57" y="-127.91" font-family="Times,serif" font-size="14.00"> init(at_rock_sample)</text>
</g>
<!-- n7 -->
<g id="node7" class="node"><title>n7</title>
<ellipse fill="none" stroke="black" cx="2560.93" cy="-341.09" rx="56.6372" ry="26.7407"/>
<text text-anchor="middle" x="2560.93" y="-344.89" font-family="Times,serif" font-size="14.00">&lt;camera0&gt;</text>
<text text-anchor="middle" x="2560.93" y="-329.89" font-family="Times,serif" font-size="14.00">camera</text>
</g>
<!-- n7&#45;&gt;n4 -->
<g id="edge30" class="edge"><title>n7&#45;&gt;n4</title>
<path fill="none" stroke="black" d="M2571.71,-314.417C2577.08,-303.454 2584.29,-290.968 2592.93,-281.22 2629.47,-240.028 2641.99,-227.733 2693.93,-209.48 2726.38,-198.079 2976.58,-213.577 3002.93,-191.48 3009.83,-185.693 3013.68,-177.18 3015.75,-168.415"/>
<polygon fill="black" stroke="black" points="3019.2,-168.983 3017.4,-158.544 3012.3,-167.833 3019.2,-168.983"/>
<text text-anchor="middle" x="2738.93" y="-232.65" font-family="Times,serif" font-size="14.00"> static(supports)</text>
</g>
<!-- n12 -->
<g id="node12" class="node"><title>n12</title>
<ellipse fill="none" stroke="black" cx="2853.93" cy="-236.35" rx="62.8651" ry="26.7407"/>
<text text-anchor="middle" x="2853.93" y="-240.15" font-family="Times,serif" font-size="14.00">&lt;objective5&gt;</text>
<text text-anchor="middle" x="2853.93" y="-225.15" font-family="Times,serif" font-size="14.00">objective</text>
</g>
<!-- n7&#45;&gt;n12 -->
<g id="edge33" class="edge"><title>n7&#45;&gt;n12</title>
<path fill="none" stroke="black" d="M2613.13,-330.287C2643.37,-323.341 2681.54,-312.35 2712.93,-296.22 2722.5,-291.303 2722.53,-286.442 2731.93,-281.22 2750.79,-270.753 2772.62,-261.975 2792.56,-255.089"/>
<polygon fill="black" stroke="black" points="2793.81,-258.362 2802.18,-251.861 2791.58,-251.726 2793.81,-258.362"/>
<text text-anchor="middle" x="2800.43" y="-285.02" font-family="Times,serif" font-size="14.00"> static(calibration_target)</text>
</g>
<!-- n16 -->
<g id="node16" class="node"><title>n16</title>
<ellipse fill="none" stroke="black" cx="703.933" cy="-236.35" rx="48.1667" ry="26.7407"/>
<text text-anchor="middle" x="703.933" y="-240.15" font-family="Times,serif" font-size="14.00">&lt;rover0&gt;</text>
<text text-anchor="middle" x="703.933" y="-225.15" font-family="Times,serif" font-size="14.00">rover</text>
</g>
<!-- n7&#45;&gt;n16 -->
<g id="edge20" class="edge"><title>n7&#45;&gt;n16</title>
<path fill="none" stroke="black" d="M2504.36,-338.393C2298.14,-331.988 1567.29,-307.373 965.933,-263.22 895.205,-258.027 813.97,-249.626 760.944,-243.813"/>
<polygon fill="black" stroke="black" points="761.05,-240.304 750.726,-242.687 760.283,-247.262 761.05,-240.304"/>
<text text-anchor="middle" x="1538.43" y="-285.02" font-family="Times,serif" font-size="14.00"> static(on_board)</text>
</g>
<!-- n8 -->
<g id="node8" class="node"><title>n8</title>
<ellipse fill="none" stroke="black" cx="2894.93" cy="-341.09" rx="56.6372" ry="26.7407"/>
<text text-anchor="middle" x="2894.93" y="-344.89" font-family="Times,serif" font-size="14.00">&lt;camera1&gt;</text>
<text text-anchor="middle" x="2894.93" y="-329.89" font-family="Times,serif" font-size="14.00">camera</text>
</g>
<!-- n8&#45;&gt;n4 -->
<g id="edge31" class="edge"><title>n8&#45;&gt;n4</title>
<path fill="none" stroke="black" d="M2949.65,-333.717C3026.38,-321.465 3163.02,-286.751 3220.93,-191.48 3224.4,-185.784 3225.12,-181.666 3220.93,-176.48 3203.69,-155.135 3135.42,-143.69 3082.55,-137.903"/>
<polygon fill="black" stroke="black" points="3082.85,-134.415 3072.54,-136.853 3082.12,-141.377 3082.85,-134.415"/>
<text text-anchor="middle" x="3248.93" y="-232.65" font-family="Times,serif" font-size="14.00"> static(supports)</text>
</g>
<!-- n8&#45;&gt;n12 -->
<g id="edge18" class="edge"><title>n8&#45;&gt;n12</title>
<path fill="none" stroke="black" d="M2885.69,-314.481C2881.86,-304.109 2877.3,-292.048 2872.93,-281.22 2871.79,-278.386 2870.58,-275.46 2869.35,-272.527"/>
<polygon fill="black" stroke="black" points="2872.54,-271.072 2865.41,-263.239 2866.1,-273.812 2872.54,-271.072"/>
<text text-anchor="middle" x="2946.43" y="-285.02" font-family="Times,serif" font-size="14.00"> static(calibration_target)</text>
</g>
<!-- n8&#45;&gt;n16 -->
<g id="edge16" class="edge"><title>n8&#45;&gt;n16</title>
<path fill="none" stroke="black" d="M2838.34,-339.525C2780.25,-337.069 2688.38,-327.891 2615.93,-296.22 2606.07,-291.911 2607.08,-284.805 2596.93,-281.22 2554.21,-266.125 1011.17,-265.699 965.933,-263.22 895.121,-259.341 813.903,-250.661 760.905,-244.425"/>
<polygon fill="black" stroke="black" points="761.036,-240.916 750.693,-243.212 760.21,-247.867 761.036,-240.916"/>
<text text-anchor="middle" x="2662.43" y="-285.02" font-family="Times,serif" font-size="14.00"> static(on_board)</text>
</g>
<!-- n8&#45;&gt;n18 -->
<g id="edge6" class="edge"><title>n8&#45;&gt;n18</title>
<path fill="none" stroke="black" d="M2840.35,-333.782C2786.25,-327.775 2700.99,-318.967 2626.93,-314.22 2166.31,-284.697 2050.38,-291.706 1588.93,-281.22 1570.63,-280.804 284.23,-275.804 270.933,-263.22 245.975,-239.603 247.355,-198.332 252.67,-168.493"/>
<polygon fill="black" stroke="black" points="256.147,-168.956 254.677,-158.463 249.283,-167.582 256.147,-168.956"/>
<text text-anchor="middle" x="314.933" y="-232.65" font-family="Times,serif" font-size="14.00"> static(supports)</text>
</g>
<!-- n22 -->
<g id="node22" class="node"><title>n22</title>
<ellipse fill="none" stroke="black" cx="3685.93" cy="-131.61" rx="48.1667" ry="26.7407"/>
<text text-anchor="middle" x="3685.93" y="-135.41" font-family="Times,serif" font-size="14.00">&lt;colour&gt;</text>
<text text-anchor="middle" x="3685.93" y="-120.41" font-family="Times,serif" font-size="14.00">mode</text>
</g>
<!-- n8&#45;&gt;n22 -->
<g id="edge14" class="edge"><title>n8&#45;&gt;n22</title>
<path fill="none" stroke="black" d="M2951.21,-338.138C3062.1,-333.214 3315.98,-316.586 3521.93,-263.22 3604.1,-241.93 3651.51,-261.877 3698.93,-191.48 3703.77,-184.305 3704.12,-175.626 3702.39,-167.163"/>
<polygon fill="black" stroke="black" points="3705.71,-166.042 3699.54,-157.429 3698.99,-168.01 3705.71,-166.042"/>
<text text-anchor="middle" x="3727.93" y="-232.65" font-family="Times,serif" font-size="14.00"> static(supports)</text>
</g>
<!-- n9 -->
<g id="node9" class="node"><title>n9</title>
<ellipse fill="none" stroke="black" cx="62.9325" cy="-236.35" rx="62.8651" ry="26.7407"/>
<text text-anchor="middle" x="62.9325" y="-240.15" font-family="Times,serif" font-size="14.00">&lt;objective7&gt;</text>
<text text-anchor="middle" x="62.9325" y="-225.15" font-family="Times,serif" font-size="14.00">objective</text>
</g>
<!-- n9&#45;&gt;n5 -->
<g id="edge17" class="edge"><title>n9&#45;&gt;n5</title>
<path fill="none" stroke="black" d="M56.7263,-209.503C55.565,-203.614 54.5293,-197.359 53.9325,-191.48 49.7666,-150.444 53.0147,-128.211 86.9325,-104.74 183.823,-37.6923 1011.13,-29.0671 1265.7,-28.005"/>
<polygon fill="black" stroke="black" points="1265.97,-31.5041 1275.95,-27.965 1265.94,-24.5041 1265.97,-31.5041"/>
<text text-anchor="middle" x="142.933" y="-127.91" font-family="Times,serif" font-size="14.00"> static(visible_from)</text>
</g>
<!-- n9&#45;&gt;n6 -->
<g id="edge32" class="edge"><title>n9&#45;&gt;n6</title>
<path fill="none" stroke="black" d="M120.993,-225.796C155.477,-220.388 200.11,-213.854 239.933,-209.48 348.022,-197.61 376.34,-207.232 483.933,-191.48 514.555,-186.997 521.271,-180.686 551.933,-176.48 688.876,-157.695 1099.09,-141.301 1267.52,-135.174"/>
<polygon fill="black" stroke="black" points="1267.67,-138.671 1277.54,-134.811 1267.42,-131.675 1267.67,-138.671"/>
<text text-anchor="middle" x="607.933" y="-180.28" font-family="Times,serif" font-size="14.00"> static(visible_from)</text>
</g>
<!-- n9&#45;&gt;n18 -->
<g id="edge39" class="edge"><title>n9&#45;&gt;n18</title>
<path fill="none" stroke="black" d="M56.702,-209.429C55.5468,-198.159 56.5523,-185.498 63.9325,-176.48 87.5634,-147.605 109.501,-166.541 145.933,-158.48 164.631,-154.343 185.018,-149.805 203.412,-145.701"/>
<polygon fill="black" stroke="black" points="204.406,-149.066 213.403,-143.471 202.88,-142.234 204.406,-149.066"/>
<text text-anchor="middle" x="155.933" y="-180.28" font-family="Times,serif" font-size="14.00"> end(communicated_image_data)</text>
</g>
<!-- n10 -->
<g id="node10" class="node"><title>n10</title>
<ellipse fill="none" stroke="black" cx="1720.93" cy="-236.35" rx="62.8651" ry="26.7407"/>
<text text-anchor="middle" x="1720.93" y="-240.15" font-family="Times,serif" font-size="14.00">&lt;objective2&gt;</text>
<text text-anchor="middle" x="1720.93" y="-225.15" font-family="Times,serif" font-size="14.00">objective</text>
</g>
<!-- n10&#45;&gt;n6 -->
<g id="edge7" class="edge"><title>n10&#45;&gt;n6</title>
<path fill="none" stroke="black" d="M1675.22,-217.584C1666.57,-214.607 1657.54,-211.752 1648.93,-209.48 1603.58,-197.504 1588.59,-208.646 1544.93,-191.48 1533.57,-187.014 1533.14,-181.321 1521.93,-176.48 1486.41,-161.131 1444.54,-150.545 1410.02,-143.624"/>
<polygon fill="black" stroke="black" points="1410.51,-140.153 1400.03,-141.68 1409.18,-147.025 1410.51,-140.153"/>
<text text-anchor="middle" x="1600.93" y="-180.28" font-family="Times,serif" font-size="14.00"> static(visible_from)</text>
</g>
<!-- n11 -->
<g id="node11" class="node"><title>n11</title>
<ellipse fill="none" stroke="black" cx="703.933" cy="-341.09" rx="67.3507" ry="26.7407"/>
<text text-anchor="middle" x="703.933" y="-344.89" font-family="Times,serif" font-size="14.00">&lt;rover0store&gt;</text>
<text text-anchor="middle" x="703.933" y="-329.89" font-family="Times,serif" font-size="14.00">store</text>
</g>
<!-- n11&#45;&gt;n11 -->
<g id="edge4" class="edge"><title>n11&#45;&gt;n11</title>
<path fill="none" stroke="black" d="M767.079,-350.468C779.916,-349.447 789.108,-346.321 789.108,-341.09 789.108,-337.413 784.563,-334.775 777.403,-333.179"/>
<polygon fill="black" stroke="black" points="777.472,-329.653 767.079,-331.712 776.487,-336.584 777.472,-329.653"/>
<text text-anchor="middle" x="822.108" y="-337.39" font-family="Times,serif" font-size="14.00"> init(empty)</text>
</g>
<!-- n11&#45;&gt;n16 -->
<g id="edge25" class="edge"><title>n11&#45;&gt;n16</title>
<path fill="none" stroke="black" d="M703.933,-314.165C703.933,-301.875 703.933,-286.987 703.933,-273.602"/>
<polygon fill="black" stroke="black" points="707.433,-273.268 703.933,-263.268 700.433,-273.268 707.433,-273.268"/>
<text text-anchor="middle" x="746.933" y="-285.02" font-family="Times,serif" font-size="14.00"> static(store_of)</text>
</g>
<!-- n12&#45;&gt;n4 -->
<g id="edge42" class="edge"><title>n12&#45;&gt;n4</title>
<path fill="none" stroke="black" d="M2914.05,-228.087C2958.58,-221.327 3013.86,-209.543 3027.93,-191.48 3033.21,-184.701 3033.94,-176.162 3032.5,-167.707"/>
<polygon fill="black" stroke="black" points="3035.86,-166.727 3029.96,-157.93 3029.09,-168.489 3035.86,-166.727"/>
<text text-anchor="middle" x="3124.93" y="-180.28" font-family="Times,serif" font-size="14.00"> end(communicated_image_data)</text>
</g>
<!-- n12&#45;&gt;n6 -->
<g id="edge43" class="edge"><title>n12&#45;&gt;n6</title>
<path fill="none" stroke="black" d="M2797.11,-224.535C2766.87,-219.178 2729,-213.099 2694.93,-209.48 2536.95,-192.698 2493.62,-223.129 2337.93,-191.48 2318.92,-187.615 2315.96,-180.303 2296.93,-176.48 2211.48,-159.311 1623.83,-140.814 1414.66,-134.701"/>
<polygon fill="black" stroke="black" points="1414.49,-131.194 1404.39,-134.402 1414.28,-138.191 1414.49,-131.194"/>
<text text-anchor="middle" x="2393.93" y="-180.28" font-family="Times,serif" font-size="14.00"> static(visible_from)</text>
</g>
<!-- n13 -->
<g id="node13" class="node"><title>n13</title>
<ellipse fill="none" stroke="black" cx="2307.93" cy="-236.35" rx="62.8651" ry="26.7407"/>
<text text-anchor="middle" x="2307.93" y="-240.15" font-family="Times,serif" font-size="14.00">&lt;objective6&gt;</text>
<text text-anchor="middle" x="2307.93" y="-225.15" font-family="Times,serif" font-size="14.00">objective</text>
</g>
<!-- n13&#45;&gt;n4 -->
<g id="edge8" class="edge"><title>n13&#45;&gt;n4</title>
<path fill="none" stroke="black" d="M2368.9,-229.38C2424.22,-224.009 2508.02,-215.986 2580.93,-209.48 2676.44,-200.957 2705.24,-222.617 2795.93,-191.48 2807.48,-187.517 2807.68,-181.21 2818.93,-176.48 2861.63,-158.53 2912.73,-147.444 2952.32,-140.907"/>
<polygon fill="black" stroke="black" points="2953.06,-144.333 2962.38,-139.302 2951.96,-137.42 2953.06,-144.333"/>
<text text-anchor="middle" x="2910.93" y="-180.28" font-family="Times,serif" font-size="14.00"> end(communicated_image_data)</text>
</g>
<!-- n13&#45;&gt;n5 -->
<g id="edge22" class="edge"><title>n13&#45;&gt;n5</title>
<path fill="none" stroke="black" d="M2304.78,-209.371C2302.73,-198.718 2299.38,-186.551 2293.93,-176.48 2273.02,-137.844 2265.36,-124.125 2225.93,-104.74 2083.75,-34.8266 1600.05,-27.6069 1413.84,-27.4923"/>
<polygon fill="black" stroke="black" points="1413.6,-23.9922 1403.6,-27.493 1413.6,-30.9922 1413.6,-23.9922"/>
<text text-anchor="middle" x="2339.93" y="-127.91" font-family="Times,serif" font-size="14.00"> static(visible_from)</text>
</g>
<!-- n13&#45;&gt;n6 -->
<g id="edge9" class="edge"><title>n13&#45;&gt;n6</title>
<path fill="none" stroke="black" d="M2260.13,-218.714C2210.65,-201.526 2140.12,-177.104 2136.93,-176.48 1999.92,-149.659 1584.47,-137.865 1414.55,-134.072"/>
<polygon fill="black" stroke="black" points="1414.53,-130.571 1404.45,-133.849 1414.37,-137.569 1414.53,-130.571"/>
<text text-anchor="middle" x="2236.93" y="-180.28" font-family="Times,serif" font-size="14.00"> static(visible_from)</text>
</g>
<!-- n14 -->
<g id="node14" class="node"><title>n14</title>
<ellipse fill="none" stroke="black" cx="1278.93" cy="-236.35" rx="62.8651" ry="26.7407"/>
<text text-anchor="middle" x="1278.93" y="-240.15" font-family="Times,serif" font-size="14.00">&lt;objective9&gt;</text>
<text text-anchor="middle" x="1278.93" y="-225.15" font-family="Times,serif" font-size="14.00">objective</text>
</g>
<!-- n14&#45;&gt;n6 -->
<g id="edge44" class="edge"><title>n14&#45;&gt;n6</title>
<path fill="none" stroke="black" d="M1232.65,-218.084C1224.14,-215.091 1215.3,-212.102 1206.93,-209.48 1177.51,-200.259 1158.69,-215.948 1139.93,-191.48 1135.88,-186.19 1135.75,-181.673 1139.93,-176.48 1156.1,-156.399 1217.96,-145.014 1268.84,-138.905"/>
<polygon fill="black" stroke="black" points="1269.31,-142.373 1278.85,-137.752 1268.51,-135.419 1269.31,-142.373"/>
<text text-anchor="middle" x="1195.93" y="-180.28" font-family="Times,serif" font-size="14.00"> static(visible_from)</text>
</g>
<!-- n15 -->
<g id="node15" class="node"><title>n15</title>
<ellipse fill="none" stroke="black" cx="1422.93" cy="-236.35" rx="62.8651" ry="26.7407"/>
<text text-anchor="middle" x="1422.93" y="-240.15" font-family="Times,serif" font-size="14.00">&lt;objective4&gt;</text>
<text text-anchor="middle" x="1422.93" y="-225.15" font-family="Times,serif" font-size="14.00">objective</text>
</g>
<!-- n15&#45;&gt;n6 -->
<g id="edge38" class="edge"><title>n15&#45;&gt;n6</title>
<path fill="none" stroke="black" d="M1376.71,-217.877C1368.19,-214.905 1359.34,-211.976 1350.93,-209.48 1317.66,-199.596 1296.46,-218.707 1274.93,-191.48 1264.89,-178.778 1274.32,-166.55 1288.89,-156.561"/>
<polygon fill="black" stroke="black" points="1290.78,-159.508 1297.42,-151.254 1287.08,-153.565 1290.78,-159.508"/>
<text text-anchor="middle" x="1330.93" y="-180.28" font-family="Times,serif" font-size="14.00"> static(visible_from)</text>
</g>
<!-- n16&#45;&gt;n6 -->
<g id="edge23" class="edge"><title>n16&#45;&gt;n6</title>
<path fill="none" stroke="black" d="M749.993,-228.277C797.42,-220.629 873.313,-207.376 937.933,-191.48 960.049,-186.04 964.658,-181.232 986.933,-176.48 1083.05,-155.976 1196.03,-144.035 1268.04,-137.919"/>
<polygon fill="black" stroke="black" points="1268.68,-141.378 1278.36,-137.059 1268.1,-134.402 1268.68,-141.378"/>
<text text-anchor="middle" x="1007.43" y="-180.28" font-family="Times,serif" font-size="14.00"> init(at)</text>
</g>
<!-- n16&#45;&gt;n16 -->
<g id="edge5" class="edge"><title>n16&#45;&gt;n16</title>
<path fill="none" stroke="black" d="M749.027,-246.015C760.97,-245.462 770.016,-242.241 770.016,-236.35 770.016,-232.3 765.74,-229.512 759.187,-227.986"/>
<polygon fill="black" stroke="black" points="759.391,-224.483 749.027,-226.686 758.502,-231.427 759.391,-224.483"/>
<text text-anchor="middle" x="863.516" y="-247.65" font-family="Times,serif" font-size="14.00"> static(equipped_for_imaging)</text>
<text text-anchor="middle" x="863.516" y="-232.65" font-family="Times,serif" font-size="14.00">init(available)</text>
<text text-anchor="middle" x="863.516" y="-217.65" font-family="Times,serif" font-size="14.00">static(equipped_for_soil_analysis)</text>
</g>
<!-- n17 -->
<g id="node17" class="node"><title>n17</title>
<ellipse fill="none" stroke="black" cx="1906.93" cy="-236.35" rx="67.7647" ry="26.7407"/>
<text text-anchor="middle" x="1906.93" y="-240.15" font-family="Times,serif" font-size="14.00">&lt;objective10&gt;</text>
<text text-anchor="middle" x="1906.93" y="-225.15" font-family="Times,serif" font-size="14.00">objective</text>
</g>
<!-- n17&#45;&gt;n5 -->
<g id="edge15" class="edge"><title>n17&#45;&gt;n5</title>
<path fill="none" stroke="black" d="M1968.01,-224.515C2034.33,-212.608 2131.25,-194.731 2133.93,-191.48 2138.18,-186.338 2138.19,-181.61 2133.93,-176.48 2042.54,-66.3989 1592.44,-37.3882 1413.49,-30.1466"/>
<polygon fill="black" stroke="black" points="1413.51,-26.6447 1403.38,-29.749 1413.24,-33.6393 1413.51,-26.6447"/>
<text text-anchor="middle" x="2165.93" y="-127.91" font-family="Times,serif" font-size="14.00"> static(visible_from)</text>
</g>
<!-- n17&#45;&gt;n6 -->
<g id="edge19" class="edge"><title>n17&#45;&gt;n6</title>
<path fill="none" stroke="black" d="M1849.97,-221.657C1831.79,-217.494 1811.56,-213.074 1792.93,-209.48 1743,-199.848 1727.38,-209.772 1679.93,-191.48 1668.55,-187.091 1668.36,-180.756 1656.93,-176.48 1577.65,-146.826 1480.41,-136.943 1414.91,-133.794"/>
<polygon fill="black" stroke="black" points="1414.82,-130.287 1404.68,-133.344 1414.52,-137.28 1414.82,-130.287"/>
<text text-anchor="middle" x="1735.93" y="-180.28" font-family="Times,serif" font-size="14.00"> static(visible_from)</text>
</g>
<!-- n19 -->
<g id="node19" class="node"><title>n19</title>
<ellipse fill="none" stroke="black" cx="3449.93" cy="-236.35" rx="62.8651" ry="26.7407"/>
<text text-anchor="middle" x="3449.93" y="-240.15" font-family="Times,serif" font-size="14.00">&lt;objective1&gt;</text>
<text text-anchor="middle" x="3449.93" y="-225.15" font-family="Times,serif" font-size="14.00">objective</text>
</g>
<!-- n19&#45;&gt;n4 -->
<g id="edge35" class="edge"><title>n19&#45;&gt;n4</title>
<path fill="none" stroke="black" d="M3396.11,-222.126C3351.4,-210.987 3293.45,-196.144 3282.93,-191.48 3271.78,-186.533 3271.27,-180.987 3259.93,-176.48 3202.53,-153.671 3132.78,-142.64 3082.75,-137.355"/>
<polygon fill="black" stroke="black" points="3083,-133.863 3072.7,-136.342 3082.3,-140.827 3083,-133.863"/>
<text text-anchor="middle" x="3374.93" y="-180.28" font-family="Times,serif" font-size="14.00"> end(communicated_image_data)</text>
</g>
<!-- n19&#45;&gt;n5 -->
<g id="edge27" class="edge"><title>n19&#45;&gt;n5</title>
<path fill="none" stroke="black" d="M3466.7,-210.306C3472.07,-198.951 3474.82,-185.974 3466.93,-176.48 3356.01,-42.9147 3255.42,-124.556 3082.93,-104.74 2439.56,-30.8256 1655.08,-26.7559 1413.95,-27.4225"/>
<polygon fill="black" stroke="black" points="1413.88,-23.9226 1403.89,-27.4539 1413.91,-30.9225 1413.88,-23.9226"/>
<text text-anchor="middle" x="3503.93" y="-127.91" font-family="Times,serif" font-size="14.00"> static(visible_from)</text>
</g>
<!-- n19&#45;&gt;n6 -->
<g id="edge36" class="edge"><title>n19&#45;&gt;n6</title>
<path fill="none" stroke="black" d="M3398.5,-220.846C3380.44,-216.369 3359.93,-211.966 3340.93,-209.48 3268.08,-199.947 2749.01,-216.519 2679.93,-191.48 2669.82,-187.814 2671.04,-180.177 2660.93,-176.48 2660.01,-176.143 1693.05,-144.225 1414.93,-135.051"/>
<polygon fill="black" stroke="black" points="1414.66,-131.54 1404.55,-134.708 1414.43,-138.536 1414.66,-131.54"/>
<text text-anchor="middle" x="2735.93" y="-180.28" font-family="Times,serif" font-size="14.00"> static(visible_from)</text>
</g>
<!-- n19&#45;&gt;n22 -->
<g id="edge13" class="edge"><title>n19&#45;&gt;n22</title>
<path fill="none" stroke="black" d="M3471.15,-210.843C3482.89,-198.761 3498.42,-184.992 3514.93,-176.48 3548.1,-159.382 3560.78,-167.693 3596.93,-158.48 3609.24,-155.345 3622.41,-151.685 3634.75,-148.121"/>
<polygon fill="black" stroke="black" points="3635.81,-151.457 3644.43,-145.296 3633.85,-144.737 3635.81,-151.457"/>
<text text-anchor="middle" x="3606.93" y="-180.28" font-family="Times,serif" font-size="14.00"> end(communicated_image_data)</text>
</g>
<!-- n20 -->
<g id="node20" class="node"><title>n20</title>
<ellipse fill="none" stroke="black" cx="2127.93" cy="-236.35" rx="62.8651" ry="26.7407"/>
<text text-anchor="middle" x="2127.93" y="-240.15" font-family="Times,serif" font-size="14.00">&lt;objective8&gt;</text>
<text text-anchor="middle" x="2127.93" y="-225.15" font-family="Times,serif" font-size="14.00">objective</text>
</g>
<!-- n20&#45;&gt;n4 -->
<g id="edge29" class="edge"><title>n20&#45;&gt;n4</title>
<path fill="none" stroke="black" d="M2180.07,-221.162C2197.69,-216.821 2217.56,-212.421 2235.93,-209.48 2331.93,-194.112 2361.96,-222.996 2453.93,-191.48 2465.48,-187.524 2465.38,-180.429 2476.93,-176.48 2562.74,-147.138 2825.66,-137.109 2950.19,-133.946"/>
<polygon fill="black" stroke="black" points="2950.45,-137.441 2960.36,-133.695 2950.28,-130.443 2950.45,-137.441"/>
<text text-anchor="middle" x="2568.93" y="-180.28" font-family="Times,serif" font-size="14.00"> end(communicated_image_data)</text>
</g>
<!-- n20&#45;&gt;n6 -->
<g id="edge28" class="edge"><title>n20&#45;&gt;n6</title>
<path fill="none" stroke="black" d="M2071.66,-224.277C2045.12,-219.301 2012.97,-213.63 1983.93,-209.48 1909.16,-198.795 1886.09,-216.813 1814.93,-191.48 1803.44,-187.387 1803.45,-180.521 1791.93,-176.48 1724.25,-152.732 1524.12,-140.556 1414.6,-135.516"/>
<polygon fill="black" stroke="black" points="1414.44,-132.006 1404.29,-135.051 1414.13,-138.999 1414.44,-132.006"/>
<text text-anchor="middle" x="1870.93" y="-180.28" font-family="Times,serif" font-size="14.00"> static(visible_from)</text>
</g>
<!-- n21 -->
<g id="node21" class="node"><title>n21</title>
<ellipse fill="none" stroke="black" cx="1571.93" cy="-236.35" rx="67.7647" ry="26.7407"/>
<text text-anchor="middle" x="1571.93" y="-240.15" font-family="Times,serif" font-size="14.00">&lt;objective11&gt;</text>
<text text-anchor="middle" x="1571.93" y="-225.15" font-family="Times,serif" font-size="14.00">objective</text>
</g>
<!-- n21&#45;&gt;n6 -->
<g id="edge24" class="edge"><title>n21&#45;&gt;n6</title>
<path fill="none" stroke="black" d="M1522.49,-217.801C1513.38,-214.837 1503.91,-211.931 1494.93,-209.48 1457.68,-199.314 1444.58,-208.537 1409.93,-191.48 1401.89,-187.519 1387.34,-175.428 1373.67,-163.226"/>
<polygon fill="black" stroke="black" points="1375.98,-160.595 1366.21,-156.486 1371.29,-165.788 1375.98,-160.595"/>
<text text-anchor="middle" x="1465.93" y="-180.28" font-family="Times,serif" font-size="14.00"> static(visible_from)</text>
</g>
</g>
</svg>
