<?xml version="1.0" encoding="UTF-8" standalone="no"?>
<!DOCTYPE svg PUBLIC "-//W3C//DTD SVG 1.1//EN"
 "http://www.w3.org/Graphics/SVG/1.1/DTD/svg11.dtd">
<!-- Generated by graphviz version 2.38.0 (20140413.2041)
 -->
<!-- Title: Struc Pages: 1 -->
<svg width="1032pt" height="400pt"
 viewBox="0.00 0.00 1032.34 399.96" xmlns="http://www.w3.org/2000/svg" xmlns:xlink="http://www.w3.org/1999/xlink">
<g id="graph0" class="graph" transform="scale(1 1) rotate(0) translate(4 395.96)">
<title>Struc</title>
<polygon fill="white" stroke="none" points="-4,4 -4,-395.96 1028.34,-395.96 1028.34,4 -4,4"/>
<!-- n1 -->
<g id="node1" class="node"><title>n1</title>
<ellipse fill="none" stroke="black" cx="197.261" cy="-135.61" rx="63.7795" ry="26.7407"/>
<text text-anchor="middle" x="197.261" y="-139.41" font-family="Times,serif" font-size="14.00">&lt;waypoint1&gt;</text>
<text text-anchor="middle" x="197.261" y="-124.41" font-family="Times,serif" font-size="14.00">waypoint</text>
</g>
<!-- n1&#45;&gt;n1 -->
<g id="edge1" class="edge"><title>n1&#45;&gt;n1</title>
<path fill="none" stroke="black" d="M256.338,-145.828C269.393,-144.868 278.901,-141.462 278.901,-135.61 278.901,-131.404 273.989,-128.462 266.379,-126.783"/>
<polygon fill="black" stroke="black" points="266.723,-123.298 256.338,-125.393 265.763,-130.231 266.723,-123.298"/>
<text text-anchor="middle" x="363.401" y="-139.41" font-family="Times,serif" font-size="14.00"> end(communicated_soil_data)</text>
<text text-anchor="middle" x="363.401" y="-124.41" font-family="Times,serif" font-size="14.00">init(at_soil_sample)</text>
</g>
<!-- n8 -->
<g id="node8" class="node"><title>n8</title>
<ellipse fill="none" stroke="black" cx="298.261" cy="-26.8701" rx="63.7795" ry="26.7407"/>
<text text-anchor="middle" x="298.261" y="-30.6701" font-family="Times,serif" font-size="14.00">&lt;waypoint0&gt;</text>
<text text-anchor="middle" x="298.261" y="-15.6701" font-family="Times,serif" font-size="14.00">waypoint</text>
</g>
<!-- n1&#45;&gt;n8 -->
<g id="edge6" class="edge"><title>n1&#45;&gt;n8</title>
<path fill="none" stroke="black" d="M240.166,-115.545C253.158,-108.089 266.542,-98.4723 276.261,-86.7401 281.865,-79.9763 286.119,-71.6452 289.319,-63.4012"/>
<polygon fill="black" stroke="black" points="292.657,-64.4575 292.609,-53.8627 286.04,-62.1749 292.657,-64.4575"/>
<text text-anchor="middle" x="325.261" y="-75.5401" font-family="Times,serif" font-size="14.00"> static(visible)</text>
</g>
<!-- n2 -->
<g id="node2" class="node"><title>n2</title>
<ellipse fill="none" stroke="black" cx="771.261" cy="-248.35" rx="48.1667" ry="26.7407"/>
<text text-anchor="middle" x="771.261" y="-252.15" font-family="Times,serif" font-size="14.00">&lt;rover0&gt;</text>
<text text-anchor="middle" x="771.261" y="-237.15" font-family="Times,serif" font-size="14.00">rover</text>
</g>
<!-- n2&#45;&gt;n2 -->
<g id="edge2" class="edge"><title>n2&#45;&gt;n2</title>
<path fill="none" stroke="black" d="M815.736,-258.786C827.984,-258.282 837.345,-254.803 837.345,-248.35 837.345,-243.813 832.717,-240.746 825.712,-239.15"/>
<polygon fill="black" stroke="black" points="826.09,-235.67 815.736,-237.914 825.23,-242.617 826.09,-235.67"/>
<text text-anchor="middle" x="930.845" y="-259.65" font-family="Times,serif" font-size="14.00"> static(equipped_for_imaging)</text>
<text text-anchor="middle" x="930.845" y="-244.65" font-family="Times,serif" font-size="14.00">init(available)</text>
<text text-anchor="middle" x="930.845" y="-229.65" font-family="Times,serif" font-size="14.00">static(equipped_for_soil_analysis)</text>
</g>
<!-- n2&#45;&gt;n8 -->
<g id="edge10" class="edge"><title>n2&#45;&gt;n8</title>
<path fill="none" stroke="black" d="M794.111,-224.558C821.648,-194.328 860.656,-140.62 830.261,-104.74 772.575,-36.644 504.118,-27.3922 372.041,-27.0674"/>
<polygon fill="black" stroke="black" points="372.005,-23.5675 362.002,-27.0593 371.999,-30.5675 372.005,-23.5675"/>
<text text-anchor="middle" x="861.761" y="-131.91" font-family="Times,serif" font-size="14.00"> init(at)</text>
</g>
<!-- n3 -->
<g id="node3" class="node"><title>n3</title>
<ellipse fill="none" stroke="black" cx="531.261" cy="-361.09" rx="56.6326" ry="26.7574"/>
<ellipse fill="none" stroke="black" cx="531.261" cy="-361.09" rx="60.6372" ry="30.7407"/>
<text text-anchor="middle" x="531.261" y="-364.89" font-family="Times,serif" font-size="14.00">&lt;camera1&gt;</text>
<text text-anchor="middle" x="531.261" y="-349.89" font-family="Times,serif" font-size="14.00">camera</text>
</g>
<!-- n3&#45;&gt;n2 -->
<g id="edge16" class="edge"><title>n3&#45;&gt;n2</title>
<path fill="none" stroke="black" d="M575.281,-339.779C618.02,-320.058 682.603,-290.259 725.819,-270.318"/>
<polygon fill="black" stroke="black" points="727.356,-273.464 734.969,-266.096 724.423,-267.108 727.356,-273.464"/>
<text text-anchor="middle" x="711.761" y="-301.02" font-family="Times,serif" font-size="14.00"> static(on_board)</text>
</g>
<!-- n4 -->
<g id="node4" class="node"><title>n4</title>
<ellipse fill="none" stroke="black" cx="242.261" cy="-248.35" rx="62.8691" ry="26.7574"/>
<ellipse fill="none" stroke="black" cx="242.261" cy="-248.35" rx="66.8651" ry="30.7407"/>
<text text-anchor="middle" x="242.261" y="-252.15" font-family="Times,serif" font-size="14.00">&lt;objective0&gt;</text>
<text text-anchor="middle" x="242.261" y="-237.15" font-family="Times,serif" font-size="14.00">objective</text>
</g>
<!-- n3&#45;&gt;n4 -->
<g id="edge12" class="edge"><title>n3&#45;&gt;n4</title>
<path fill="none" stroke="black" stroke-dasharray="5,2" d="M479.012,-345.219C449.687,-336.452 412.602,-324.662 380.261,-312.22 352.03,-301.36 321.344,-287.585 296.092,-275.699"/>
<polygon fill="black" stroke="black" points="297.585,-272.533 287.049,-271.414 294.587,-278.859 297.585,-272.533"/>
<text text-anchor="middle" x="448.761" y="-301.02" font-family="Times,serif" font-size="14.00"> static(calibration_target)</text>
</g>
<!-- n7 -->
<g id="node7" class="node"><title>n7</title>
<ellipse fill="none" stroke="black" cx="523.261" cy="-135.61" rx="53.9645" ry="26.7574"/>
<ellipse fill="none" stroke="black" cx="523.261" cy="-135.61" rx="57.9812" ry="30.7407"/>
<text text-anchor="middle" x="523.261" y="-139.41" font-family="Times,serif" font-size="14.00">&lt;low_res&gt;</text>
<text text-anchor="middle" x="523.261" y="-124.41" font-family="Times,serif" font-size="14.00">mode</text>
</g>
<!-- n3&#45;&gt;n7 -->
<g id="edge9" class="edge"><title>n3&#45;&gt;n7</title>
<path fill="none" stroke="black" stroke-dasharray="5,2" d="M530.182,-329.951C528.765,-290.353 526.271,-220.696 524.696,-176.689"/>
<polygon fill="black" stroke="black" points="528.192,-176.497 524.336,-166.628 521.196,-176.747 528.192,-176.497"/>
<text text-anchor="middle" x="573.261" y="-244.65" font-family="Times,serif" font-size="14.00"> static(supports)</text>
</g>
<!-- n4&#45;&gt;n1 -->
<g id="edge14" class="edge"><title>n4&#45;&gt;n1</title>
<path fill="none" stroke="black" stroke-dasharray="5,2" d="M211.635,-220.671C206.205,-214.315 201.315,-207.134 198.261,-199.48 194.947,-191.172 193.652,-181.742 193.423,-172.759"/>
<polygon fill="black" stroke="black" points="196.926,-172.568 193.587,-162.513 189.927,-172.456 196.926,-172.568"/>
<text text-anchor="middle" x="254.261" y="-188.28" font-family="Times,serif" font-size="14.00"> static(visible_from)</text>
</g>
<!-- n4&#45;&gt;n7 -->
<g id="edge15" class="edge"><title>n4&#45;&gt;n7</title>
<path fill="none" stroke="black" stroke-dasharray="5,2" d="M277.933,-222.149C302.047,-205.205 330.067,-185.735 333.261,-184.48 385.093,-164.116 403.812,-182.115 457.261,-166.48 462.263,-165.017 467.375,-163.245 472.431,-161.302"/>
<polygon fill="black" stroke="black" points="474.095,-164.404 482.038,-157.392 471.457,-157.92 474.095,-164.404"/>
<text text-anchor="middle" x="425.261" y="-188.28" font-family="Times,serif" font-size="14.00"> end(communicated_image_data)</text>
</g>
<!-- n4&#45;&gt;n8 -->
<g id="edge11" class="edge"><title>n4&#45;&gt;n8</title>
<path fill="none" stroke="black" d="M175.764,-243.918C121.861,-237.211 49.0235,-218.375 12.2614,-166.48 -3.60053,-144.089 -4.43468,-126.516 12.2614,-104.74 38.3461,-70.7186 151.809,-48.4021 227.742,-36.9778"/>
<polygon fill="black" stroke="black" points="228.349,-40.4262 237.732,-35.5048 227.328,-33.5011 228.349,-40.4262"/>
<text text-anchor="middle" x="68.2614" y="-131.91" font-family="Times,serif" font-size="14.00"> static(visible_from)</text>
</g>
<!-- n5 -->
<g id="node5" class="node"><title>n5</title>
<ellipse fill="none" stroke="black" cx="650.261" cy="-135.61" rx="51.7379" ry="26.7407"/>
<text text-anchor="middle" x="650.261" y="-139.41" font-family="Times,serif" font-size="14.00">&lt;general&gt;</text>
<text text-anchor="middle" x="650.261" y="-124.41" font-family="Times,serif" font-size="14.00">lander</text>
</g>
<!-- n5&#45;&gt;n5 -->
<g id="edge3" class="edge"><title>n5&#45;&gt;n5</title>
<path fill="none" stroke="black" d="M698.093,-146.002C710.514,-145.363 719.88,-141.899 719.88,-135.61 719.88,-131.188 715.25,-128.163 708.183,-126.534"/>
<polygon fill="black" stroke="black" points="708.462,-123.041 698.093,-125.218 707.557,-129.982 708.462,-123.041"/>
<text text-anchor="middle" x="770.38" y="-131.91" font-family="Times,serif" font-size="14.00"> init(channel_free)</text>
</g>
<!-- n5&#45;&gt;n8 -->
<g id="edge8" class="edge"><title>n5&#45;&gt;n8</title>
<path fill="none" stroke="black" d="M615.263,-115.691C607.19,-111.75 598.539,-107.853 590.261,-104.74 515.003,-76.4416 425.109,-54.4591 365.13,-41.3823"/>
<polygon fill="black" stroke="black" points="365.543,-37.8909 355.03,-39.2027 364.067,-44.7334 365.543,-37.8909"/>
<text text-anchor="middle" x="582.261" y="-75.5401" font-family="Times,serif" font-size="14.00"> static(at_lander)</text>
</g>
<!-- n6 -->
<g id="node6" class="node"><title>n6</title>
<ellipse fill="none" stroke="black" cx="771.261" cy="-361.09" rx="67.3507" ry="26.7407"/>
<text text-anchor="middle" x="771.261" y="-364.89" font-family="Times,serif" font-size="14.00">&lt;rover0store&gt;</text>
<text text-anchor="middle" x="771.261" y="-349.89" font-family="Times,serif" font-size="14.00">store</text>
</g>
<!-- n6&#45;&gt;n2 -->
<g id="edge13" class="edge"><title>n6&#45;&gt;n2</title>
<path fill="none" stroke="black" d="M771.261,-334.127C771.261,-319.653 771.261,-301.403 771.261,-285.546"/>
<polygon fill="black" stroke="black" points="774.761,-285.535 771.261,-275.535 767.761,-285.535 774.761,-285.535"/>
<text text-anchor="middle" x="814.261" y="-301.02" font-family="Times,serif" font-size="14.00"> static(store_of)</text>
</g>
<!-- n6&#45;&gt;n6 -->
<g id="edge4" class="edge"><title>n6&#45;&gt;n6</title>
<path fill="none" stroke="black" d="M833.656,-371.251C846.884,-370.22 856.437,-366.833 856.437,-361.09 856.437,-356.918 851.394,-353.99 843.562,-352.304"/>
<polygon fill="black" stroke="black" points="844.042,-348.837 833.656,-350.929 843.08,-355.771 844.042,-348.837"/>
<text text-anchor="middle" x="889.437" y="-357.39" font-family="Times,serif" font-size="14.00"> init(empty)</text>
</g>
<!-- n8&#45;&gt;n1 -->
<g id="edge7" class="edge"><title>n8&#45;&gt;n1</title>
<path fill="none" stroke="black" d="M240.994,-38.8917C222.971,-45.3512 204.987,-55.5746 194.261,-71.7401 189.026,-79.6305 187.679,-89.3829 188.187,-98.8327"/>
<polygon fill="black" stroke="black" points="184.723,-99.3445 189.371,-108.865 191.675,-98.5241 184.723,-99.3445"/>
<text text-anchor="middle" x="233.261" y="-75.5401" font-family="Times,serif" font-size="14.00"> static(visible)</text>
</g>
<!-- n8&#45;&gt;n8 -->
<g id="edge5" class="edge"><title>n8&#45;&gt;n8</title>
<path fill="none" stroke="black" d="M358.066,-36.3053C370.745,-35.3472 379.901,-32.2021 379.901,-26.8701 379.901,-23.121 375.374,-20.4531 368.279,-18.8664"/>
<polygon fill="black" stroke="black" points="368.455,-15.3569 358.066,-17.4349 367.483,-22.2891 368.455,-15.3569"/>
<text text-anchor="middle" x="464.401" y="-38.1701" font-family="Times,serif" font-size="14.00"> end(communicated_soil_data)</text>
<text text-anchor="middle" x="464.401" y="-23.1701" font-family="Times,serif" font-size="14.00">init(at_soil_sample)</text>
<text text-anchor="middle" x="464.401" y="-8.17006" font-family="Times,serif" font-size="14.00">init(at_rock_sample)</text>
</g>
</g>
</svg>
