<?xml version="1.0" encoding="UTF-8" standalone="no"?>
<!DOCTYPE svg PUBLIC "-//W3C//DTD SVG 1.1//EN"
 "http://www.w3.org/Graphics/SVG/1.1/DTD/svg11.dtd">
<!-- Generated by graphviz version 2.38.0 (20140413.2041)
 -->
<!-- Title: Struc Pages: 1 -->
<svg width="4145pt" height="376pt"
 viewBox="0.00 0.00 4144.64 375.96" xmlns="http://www.w3.org/2000/svg" xmlns:xlink="http://www.w3.org/1999/xlink">
<g id="graph0" class="graph" transform="scale(1 1) rotate(0) translate(4 371.96)">
<title>Struc</title>
<polygon fill="white" stroke="none" points="-4,4 -4,-371.96 4140.64,-371.96 4140.64,4 -4,4"/>
<!-- n1 -->
<g id="node1" class="node"><title>n1</title>
<ellipse fill="none" stroke="black" cx="3883.55" cy="-341.09" rx="67.3507" ry="26.7407"/>
<text text-anchor="middle" x="3883.55" y="-344.89" font-family="Times,serif" font-size="14.00">&lt;rover0store&gt;</text>
<text text-anchor="middle" x="3883.55" y="-329.89" font-family="Times,serif" font-size="14.00">store</text>
</g>
<!-- n1&#45;&gt;n1 -->
<g id="edge1" class="edge"><title>n1&#45;&gt;n1</title>
<path fill="none" stroke="black" d="M3946.7,-350.468C3959.54,-349.447 3968.73,-346.321 3968.73,-341.09 3968.73,-337.413 3964.18,-334.775 3957.02,-333.179"/>
<polygon fill="black" stroke="black" points="3957.09,-329.653 3946.7,-331.712 3956.11,-336.584 3957.09,-329.653"/>
<text text-anchor="middle" x="4001.73" y="-337.39" font-family="Times,serif" font-size="14.00"> init(empty)</text>
</g>
<!-- n7 -->
<g id="node7" class="node"><title>n7</title>
<ellipse fill="none" stroke="black" cx="3883.55" cy="-236.35" rx="48.1667" ry="26.7407"/>
<text text-anchor="middle" x="3883.55" y="-240.15" font-family="Times,serif" font-size="14.00">&lt;rover0&gt;</text>
<text text-anchor="middle" x="3883.55" y="-225.15" font-family="Times,serif" font-size="14.00">rover</text>
</g>
<!-- n1&#45;&gt;n7 -->
<g id="edge26" class="edge"><title>n1&#45;&gt;n7</title>
<path fill="none" stroke="black" d="M3883.55,-314.165C3883.55,-301.875 3883.55,-286.987 3883.55,-273.602"/>
<polygon fill="black" stroke="black" points="3887.05,-273.268 3883.55,-263.268 3880.05,-273.268 3887.05,-273.268"/>
<text text-anchor="middle" x="3926.55" y="-285.02" font-family="Times,serif" font-size="14.00"> static(store_of)</text>
</g>
<!-- n2 -->
<g id="node2" class="node"><title>n2</title>
<ellipse fill="none" stroke="black" cx="2583.55" cy="-341.09" rx="56.6372" ry="26.7407"/>
<text text-anchor="middle" x="2583.55" y="-344.89" font-family="Times,serif" font-size="14.00">&lt;camera0&gt;</text>
<text text-anchor="middle" x="2583.55" y="-329.89" font-family="Times,serif" font-size="14.00">camera</text>
</g>
<!-- n2&#45;&gt;n7 -->
<g id="edge8" class="edge"><title>n2&#45;&gt;n7</title>
<path fill="none" stroke="black" d="M2640.27,-339.309C2852.19,-335.968 3597.07,-320.331 3826.55,-263.22 3830.94,-262.128 3835.41,-260.707 3839.82,-259.093"/>
<polygon fill="black" stroke="black" points="3841.32,-262.262 3849.31,-255.304 3838.73,-255.76 3841.32,-262.262"/>
<text text-anchor="middle" x="3773.05" y="-285.02" font-family="Times,serif" font-size="14.00"> static(on_board)</text>
</g>
<!-- n8 -->
<g id="node8" class="node"><title>n8</title>
<ellipse fill="none" stroke="black" cx="2583.55" cy="-236.35" rx="62.8651" ry="26.7407"/>
<text text-anchor="middle" x="2583.55" y="-240.15" font-family="Times,serif" font-size="14.00">&lt;objective3&gt;</text>
<text text-anchor="middle" x="2583.55" y="-225.15" font-family="Times,serif" font-size="14.00">objective</text>
</g>
<!-- n2&#45;&gt;n8 -->
<g id="edge10" class="edge"><title>n2&#45;&gt;n8</title>
<path fill="none" stroke="black" d="M2583.55,-314.165C2583.55,-301.875 2583.55,-286.987 2583.55,-273.602"/>
<polygon fill="black" stroke="black" points="2587.05,-273.268 2583.55,-263.268 2580.05,-273.268 2587.05,-273.268"/>
<text text-anchor="middle" x="2652.05" y="-285.02" font-family="Times,serif" font-size="14.00"> static(calibration_target)</text>
</g>
<!-- n10 -->
<g id="node10" class="node"><title>n10</title>
<ellipse fill="none" stroke="black" cx="1812.55" cy="-131.61" rx="56.6372" ry="26.7407"/>
<text text-anchor="middle" x="1812.55" y="-135.41" font-family="Times,serif" font-size="14.00">&lt;high_res&gt;</text>
<text text-anchor="middle" x="1812.55" y="-120.41" font-family="Times,serif" font-size="14.00">mode</text>
</g>
<!-- n2&#45;&gt;n10 -->
<g id="edge6" class="edge"><title>n2&#45;&gt;n10</title>
<path fill="none" stroke="black" d="M2526.92,-339.332C2393.28,-337.022 2066.68,-328.139 2029.55,-296.22 1988.11,-260.593 2040.23,-215.094 2001.55,-176.48 1984.08,-159.038 1924.66,-147.188 1877.05,-140.244"/>
<polygon fill="black" stroke="black" points="1877.48,-136.77 1867.09,-138.836 1876.5,-143.701 1877.48,-136.77"/>
<text text-anchor="middle" x="2061.55" y="-232.65" font-family="Times,serif" font-size="14.00"> static(supports)</text>
</g>
<!-- n3 -->
<g id="node3" class="node"><title>n3</title>
<ellipse fill="none" stroke="black" cx="3502.55" cy="-236.35" rx="51.7379" ry="26.7407"/>
<text text-anchor="middle" x="3502.55" y="-240.15" font-family="Times,serif" font-size="14.00">&lt;general&gt;</text>
<text text-anchor="middle" x="3502.55" y="-225.15" font-family="Times,serif" font-size="14.00">lander</text>
</g>
<!-- n3&#45;&gt;n3 -->
<g id="edge2" class="edge"><title>n3&#45;&gt;n3</title>
<path fill="none" stroke="black" d="M3551.03,-245.966C3563.13,-245.294 3572.17,-242.089 3572.17,-236.35 3572.17,-232.405 3567.9,-229.657 3561.3,-228.107"/>
<polygon fill="black" stroke="black" points="3561.41,-224.59 3551.03,-226.734 3560.48,-231.529 3561.41,-224.59"/>
<text text-anchor="middle" x="3622.67" y="-232.65" font-family="Times,serif" font-size="14.00"> init(channel_free)</text>
</g>
<!-- n12 -->
<g id="node12" class="node"><title>n12</title>
<ellipse fill="none" stroke="black" cx="3382.55" cy="-131.61" rx="63.7795" ry="26.7407"/>
<text text-anchor="middle" x="3382.55" y="-135.41" font-family="Times,serif" font-size="14.00">&lt;waypoint0&gt;</text>
<text text-anchor="middle" x="3382.55" y="-120.41" font-family="Times,serif" font-size="14.00">waypoint</text>
</g>
<!-- n3&#45;&gt;n12 -->
<g id="edge9" class="edge"><title>n3&#45;&gt;n12</title>
<path fill="none" stroke="black" d="M3551.72,-227.741C3592.32,-219.369 3639.91,-203.396 3617.55,-176.48 3597.21,-151.983 3516.81,-141.091 3455.67,-136.296"/>
<polygon fill="black" stroke="black" points="3455.88,-132.803 3445.65,-135.551 3455.36,-139.783 3455.88,-132.803"/>
<text text-anchor="middle" x="3669.55" y="-180.28" font-family="Times,serif" font-size="14.00"> static(at_lander)</text>
</g>
<!-- n4 -->
<g id="node4" class="node"><title>n4</title>
<ellipse fill="none" stroke="black" cx="927.554" cy="-236.35" rx="62.8651" ry="26.7407"/>
<text text-anchor="middle" x="927.554" y="-240.15" font-family="Times,serif" font-size="14.00">&lt;objective1&gt;</text>
<text text-anchor="middle" x="927.554" y="-225.15" font-family="Times,serif" font-size="14.00">objective</text>
</g>
<!-- n6 -->
<g id="node6" class="node"><title>n6</title>
<ellipse fill="none" stroke="black" cx="3188.55" cy="-26.8701" rx="63.7795" ry="26.7407"/>
<text text-anchor="middle" x="3188.55" y="-30.6701" font-family="Times,serif" font-size="14.00">&lt;waypoint1&gt;</text>
<text text-anchor="middle" x="3188.55" y="-15.6701" font-family="Times,serif" font-size="14.00">waypoint</text>
</g>
<!-- n4&#45;&gt;n6 -->
<g id="edge33" class="edge"><title>n4&#45;&gt;n6</title>
<path fill="none" stroke="black" d="M884.266,-216.579C876.185,-213.739 867.713,-211.191 859.554,-209.48 780.941,-192.997 571.72,-224.621 498.554,-191.48 461.123,-174.526 439.284,-135.478 466.554,-104.74 548.248,-12.6564 618.745,-80.1876 741.554,-71.7401 1220.2,-38.8158 2758.66,-29.8405 3114.57,-28.1824"/>
<polygon fill="black" stroke="black" points="3114.77,-31.6817 3124.76,-28.1355 3114.74,-24.6817 3114.77,-31.6817"/>
<text text-anchor="middle" x="522.554" y="-127.91" font-family="Times,serif" font-size="14.00"> static(visible_from)</text>
</g>
<!-- n4&#45;&gt;n10 -->
<g id="edge14" class="edge"><title>n4&#45;&gt;n10</title>
<path fill="none" stroke="black" d="M937.06,-209.671C943.001,-197.429 951.956,-183.873 964.554,-176.48 1031.19,-137.375 1557.38,-132.897 1745.76,-132.558"/>
<polygon fill="black" stroke="black" points="1745.81,-136.058 1755.81,-132.543 1745.8,-129.058 1745.81,-136.058"/>
<text text-anchor="middle" x="1056.55" y="-180.28" font-family="Times,serif" font-size="14.00"> end(communicated_image_data)</text>
</g>
<!-- n4&#45;&gt;n12 -->
<g id="edge25" class="edge"><title>n4&#45;&gt;n12</title>
<path fill="none" stroke="black" d="M987.1,-227.502C1036.01,-221.413 1107.14,-213.375 1169.55,-209.48 1224.57,-206.047 2109.65,-210.029 2161.55,-191.48 2171.68,-187.86 2170.42,-180.09 2180.55,-176.48 2239.39,-155.527 3242.98,-168.931 3304.55,-158.48 3311.89,-157.235 3319.47,-155.424 3326.9,-153.329"/>
<polygon fill="black" stroke="black" points="3327.97,-156.663 3336.54,-150.435 3325.95,-149.959 3327.97,-156.663"/>
<text text-anchor="middle" x="2236.55" y="-180.28" font-family="Times,serif" font-size="14.00"> static(visible_from)</text>
</g>
<!-- n13 -->
<g id="node13" class="node"><title>n13</title>
<ellipse fill="none" stroke="black" cx="186.554" cy="-131.61" rx="53.9813" ry="26.7407"/>
<text text-anchor="middle" x="186.554" y="-135.41" font-family="Times,serif" font-size="14.00">&lt;low_res&gt;</text>
<text text-anchor="middle" x="186.554" y="-120.41" font-family="Times,serif" font-size="14.00">mode</text>
</g>
<!-- n4&#45;&gt;n13 -->
<g id="edge29" class="edge"><title>n4&#45;&gt;n13</title>
<path fill="none" stroke="black" d="M875.516,-221.119C856.76,-216.579 835.342,-212.066 815.554,-209.48 755.256,-201.6 326.127,-211.058 268.554,-191.48 265.838,-190.557 244.442,-175.173 224.189,-160.364"/>
<polygon fill="black" stroke="black" points="226.07,-157.403 215.935,-154.316 221.932,-163.05 226.07,-157.403"/>
<text text-anchor="middle" x="360.554" y="-180.28" font-family="Times,serif" font-size="14.00"> end(communicated_image_data)</text>
</g>
<!-- n5 -->
<g id="node5" class="node"><title>n5</title>
<ellipse fill="none" stroke="black" cx="792.554" cy="-131.61" rx="48.1667" ry="26.7407"/>
<text text-anchor="middle" x="792.554" y="-135.41" font-family="Times,serif" font-size="14.00">&lt;colour&gt;</text>
<text text-anchor="middle" x="792.554" y="-120.41" font-family="Times,serif" font-size="14.00">mode</text>
</g>
<!-- n6&#45;&gt;n6 -->
<g id="edge3" class="edge"><title>n6&#45;&gt;n6</title>
<path fill="none" stroke="black" d="M3248.36,-36.3053C3261.04,-35.3472 3270.19,-32.2021 3270.19,-26.8701 3270.19,-23.121 3265.67,-20.4531 3258.57,-18.8664"/>
<polygon fill="black" stroke="black" points="3258.75,-15.3569 3248.36,-17.4349 3257.78,-22.2891 3258.75,-15.3569"/>
<text text-anchor="middle" x="3354.69" y="-30.6701" font-family="Times,serif" font-size="14.00"> end(communicated_soil_data)</text>
<text text-anchor="middle" x="3354.69" y="-15.6701" font-family="Times,serif" font-size="14.00">init(at_soil_sample)</text>
</g>
<!-- n6&#45;&gt;n12 -->
<g id="edge38" class="edge"><title>n6&#45;&gt;n12</title>
<path fill="none" stroke="black" d="M3203.75,-53.0973C3212.07,-64.9166 3223.37,-78.2353 3236.55,-86.7401 3262.83,-103.683 3274.59,-95.815 3304.55,-104.74 3310.98,-106.656 3317.68,-108.741 3324.34,-110.868"/>
<polygon fill="black" stroke="black" points="3323.43,-114.251 3334.02,-114 3325.58,-107.591 3323.43,-114.251"/>
<text text-anchor="middle" x="3275.55" y="-75.5401" font-family="Times,serif" font-size="14.00"> static(visible)</text>
</g>
<!-- n7&#45;&gt;n7 -->
<g id="edge4" class="edge"><title>n7&#45;&gt;n7</title>
<path fill="none" stroke="black" d="M3928.65,-246.015C3940.59,-245.462 3949.64,-242.241 3949.64,-236.35 3949.64,-232.3 3945.36,-229.512 3938.81,-227.986"/>
<polygon fill="black" stroke="black" points="3939.01,-224.483 3928.65,-226.686 3938.12,-231.427 3939.01,-224.483"/>
<text text-anchor="middle" x="4043.14" y="-247.65" font-family="Times,serif" font-size="14.00"> static(equipped_for_imaging)</text>
<text text-anchor="middle" x="4043.14" y="-232.65" font-family="Times,serif" font-size="14.00">init(available)</text>
<text text-anchor="middle" x="4043.14" y="-217.65" font-family="Times,serif" font-size="14.00">static(equipped_for_soil_analysis)</text>
</g>
<!-- n7&#45;&gt;n12 -->
<g id="edge37" class="edge"><title>n7&#45;&gt;n12</title>
<path fill="none" stroke="black" d="M3875.49,-209.65C3870.33,-197.561 3862.34,-184.146 3850.55,-176.48 3818.28,-155.49 3579.32,-141.609 3455.9,-135.76"/>
<polygon fill="black" stroke="black" points="3455.92,-132.258 3445.77,-135.286 3455.6,-139.25 3455.92,-132.258"/>
<text text-anchor="middle" x="3886.05" y="-180.28" font-family="Times,serif" font-size="14.00"> init(at)</text>
</g>
<!-- n8&#45;&gt;n6 -->
<g id="edge15" class="edge"><title>n8&#45;&gt;n6</title>
<path fill="none" stroke="black" d="M2644.04,-228.646C2697.51,-222.905 2777.64,-214.754 2847.55,-209.48 2866.42,-208.058 3174.49,-205.165 3187.55,-191.48 3196.13,-182.496 3193.45,-109.438 3190.9,-64.0382"/>
<polygon fill="black" stroke="black" points="3194.39,-63.754 3190.31,-53.9759 3187.4,-64.1635 3194.39,-63.754"/>
<text text-anchor="middle" x="3249.55" y="-127.91" font-family="Times,serif" font-size="14.00"> static(visible_from)</text>
</g>
<!-- n8&#45;&gt;n10 -->
<g id="edge34" class="edge"><title>n8&#45;&gt;n10</title>
<path fill="none" stroke="black" d="M2531.84,-221.015C2507.78,-213.532 2479.12,-203.435 2454.55,-191.48 2443.58,-186.141 2443.12,-180.369 2431.55,-176.48 2330.81,-142.61 2017.64,-134.889 1879.35,-133.13"/>
<polygon fill="black" stroke="black" points="1879.34,-129.629 1869.3,-133.008 1879.26,-136.629 1879.34,-129.629"/>
<text text-anchor="middle" x="2546.55" y="-180.28" font-family="Times,serif" font-size="14.00"> end(communicated_image_data)</text>
</g>
<!-- n8&#45;&gt;n12 -->
<g id="edge42" class="edge"><title>n8&#45;&gt;n12</title>
<path fill="none" stroke="black" d="M2644.04,-228.583C2697.5,-222.803 2777.63,-214.628 2847.55,-209.48 2928.54,-203.518 3136.51,-219.996 3212.55,-191.48 3222.63,-187.702 3221.89,-181.209 3231.55,-176.48 3261.57,-161.794 3272.45,-167.747 3304.55,-158.48 3311,-156.619 3317.71,-154.569 3324.37,-152.462"/>
<polygon fill="black" stroke="black" points="3325.61,-155.741 3334.06,-149.349 3323.46,-149.077 3325.61,-155.741"/>
<text text-anchor="middle" x="3287.55" y="-180.28" font-family="Times,serif" font-size="14.00"> static(visible_from)</text>
</g>
<!-- n9 -->
<g id="node9" class="node"><title>n9</title>
<ellipse fill="none" stroke="black" cx="2919.55" cy="-236.35" rx="62.8651" ry="26.7407"/>
<text text-anchor="middle" x="2919.55" y="-240.15" font-family="Times,serif" font-size="14.00">&lt;objective5&gt;</text>
<text text-anchor="middle" x="2919.55" y="-225.15" font-family="Times,serif" font-size="14.00">objective</text>
</g>
<!-- n9&#45;&gt;n10 -->
<g id="edge13" class="edge"><title>n9&#45;&gt;n10</title>
<path fill="none" stroke="black" d="M2868.78,-220.229C2846.16,-212.741 2819.51,-202.86 2796.55,-191.48 2785.62,-186.06 2785.17,-180.224 2773.55,-176.48 2689.18,-149.289 2083.79,-137.026 1879.6,-133.631"/>
<polygon fill="black" stroke="black" points="1879.38,-130.127 1869.32,-133.462 1879.26,-137.126 1879.38,-130.127"/>
<text text-anchor="middle" x="2888.55" y="-180.28" font-family="Times,serif" font-size="14.00"> end(communicated_image_data)</text>
</g>
<!-- n9&#45;&gt;n12 -->
<g id="edge23" class="edge"><title>n9&#45;&gt;n12</title>
<path fill="none" stroke="black" d="M2978.33,-226.698C3016.98,-221.22 3068.7,-214.289 3114.55,-209.48 3166.2,-204.063 3303.44,-218.879 3347.55,-191.48 3356.74,-185.776 3363.82,-176.695 3369.12,-167.357"/>
<polygon fill="black" stroke="black" points="3372.25,-168.926 3373.68,-158.427 3366.02,-165.744 3372.25,-168.926"/>
<text text-anchor="middle" x="3419.55" y="-180.28" font-family="Times,serif" font-size="14.00"> static(visible_from)</text>
</g>
<!-- n11 -->
<g id="node11" class="node"><title>n11</title>
<ellipse fill="none" stroke="black" cx="1241.55" cy="-236.35" rx="62.8651" ry="26.7407"/>
<text text-anchor="middle" x="1241.55" y="-240.15" font-family="Times,serif" font-size="14.00">&lt;objective7&gt;</text>
<text text-anchor="middle" x="1241.55" y="-225.15" font-family="Times,serif" font-size="14.00">objective</text>
</g>
<!-- n11&#45;&gt;n5 -->
<g id="edge11" class="edge"><title>n11&#45;&gt;n5</title>
<path fill="none" stroke="black" d="M1181.44,-228.379C1132.5,-222.836 1061.62,-215.105 999.554,-209.48 972.7,-207.047 775.899,-211.241 757.554,-191.48 749.574,-182.885 752.939,-172.175 760.091,-162.254"/>
<polygon fill="black" stroke="black" points="762.811,-164.457 766.495,-154.523 757.42,-159.992 762.811,-164.457"/>
<text text-anchor="middle" x="849.554" y="-180.28" font-family="Times,serif" font-size="14.00"> end(communicated_image_data)</text>
</g>
<!-- n11&#45;&gt;n6 -->
<g id="edge19" class="edge"><title>n11&#45;&gt;n6</title>
<path fill="none" stroke="black" d="M1181.49,-227.746C1132.59,-221.84 1061.72,-213.93 999.554,-209.48 972.161,-207.519 524.616,-211.25 505.554,-191.48 500.926,-186.681 501.411,-181.703 505.554,-176.48 527.394,-148.946 553.048,-177.574 582.554,-158.48 607.775,-142.159 596.831,-118.466 623.554,-104.74 737.158,-46.3862 2705.72,-30.8933 3114.57,-28.299"/>
<polygon fill="black" stroke="black" points="3114.81,-31.7976 3124.79,-28.2347 3114.77,-24.7977 3114.81,-31.7976"/>
<text text-anchor="middle" x="679.554" y="-127.91" font-family="Times,serif" font-size="14.00"> static(visible_from)</text>
</g>
<!-- n11&#45;&gt;n10 -->
<g id="edge30" class="edge"><title>n11&#45;&gt;n10</title>
<path fill="none" stroke="black" d="M1290.23,-219.181C1310.81,-211.693 1334.78,-202.099 1355.55,-191.48 1366.42,-185.925 1367.05,-180.542 1378.55,-176.48 1444.64,-153.153 1642.03,-140.625 1746.31,-135.474"/>
<polygon fill="black" stroke="black" points="1746.59,-138.965 1756.41,-134.984 1746.25,-131.973 1746.59,-138.965"/>
<text text-anchor="middle" x="1470.55" y="-180.28" font-family="Times,serif" font-size="14.00"> end(communicated_image_data)</text>
</g>
<!-- n11&#45;&gt;n12 -->
<g id="edge28" class="edge"><title>n11&#45;&gt;n12</title>
<path fill="none" stroke="black" d="M1302.36,-229.269C1365.38,-223.215 1466.76,-214.169 1554.55,-209.48 1636.9,-205.082 2218.98,-219.47 2296.55,-191.48 2306.67,-187.829 2305.42,-180.101 2315.55,-176.48 2419.05,-139.492 3196.22,-176.991 3304.55,-158.48 3311.89,-157.227 3319.47,-155.411 3326.9,-153.313"/>
<polygon fill="black" stroke="black" points="3327.96,-156.647 3336.53,-150.417 3325.95,-149.943 3327.96,-156.647"/>
<text text-anchor="middle" x="2371.55" y="-180.28" font-family="Times,serif" font-size="14.00"> static(visible_from)</text>
</g>
<!-- n12&#45;&gt;n6 -->
<g id="edge27" class="edge"><title>n12&#45;&gt;n6</title>
<path fill="none" stroke="black" d="M3360.76,-106.234C3349.18,-94.4819 3334.14,-80.9698 3318.55,-71.7401 3298.47,-59.8483 3274.71,-50.6325 3253.04,-43.7865"/>
<polygon fill="black" stroke="black" points="3253.83,-40.3698 3243.25,-40.8066 3251.79,-47.0666 3253.83,-40.3698"/>
<text text-anchor="middle" x="3377.55" y="-75.5401" font-family="Times,serif" font-size="14.00"> static(visible)</text>
</g>
<!-- n12&#45;&gt;n12 -->
<g id="edge5" class="edge"><title>n12&#45;&gt;n12</title>
<path fill="none" stroke="black" d="M3442.36,-141.045C3455.04,-140.087 3464.19,-136.942 3464.19,-131.61 3464.19,-127.861 3459.67,-125.193 3452.57,-123.607"/>
<polygon fill="black" stroke="black" points="3452.75,-120.097 3442.36,-122.175 3451.78,-127.029 3452.75,-120.097"/>
<text text-anchor="middle" x="3548.69" y="-142.91" font-family="Times,serif" font-size="14.00"> end(communicated_soil_data)</text>
<text text-anchor="middle" x="3548.69" y="-127.91" font-family="Times,serif" font-size="14.00">init(at_soil_sample)</text>
<text text-anchor="middle" x="3548.69" y="-112.91" font-family="Times,serif" font-size="14.00">init(at_rock_sample)</text>
</g>
<!-- n14 -->
<g id="node14" class="node"><title>n14</title>
<ellipse fill="none" stroke="black" cx="360.554" cy="-236.35" rx="62.8651" ry="26.7407"/>
<text text-anchor="middle" x="360.554" y="-240.15" font-family="Times,serif" font-size="14.00">&lt;objective6&gt;</text>
<text text-anchor="middle" x="360.554" y="-225.15" font-family="Times,serif" font-size="14.00">objective</text>
</g>
<!-- n14&#45;&gt;n5 -->
<g id="edge16" class="edge"><title>n14&#45;&gt;n5</title>
<path fill="none" stroke="black" d="M403.439,-216.634C436.233,-203.167 482.915,-185.798 525.554,-176.48 614.907,-156.954 641.745,-180.349 730.554,-158.48 736.004,-157.138 741.596,-155.386 747.084,-153.427"/>
<polygon fill="black" stroke="black" points="748.704,-156.555 756.797,-149.717 746.206,-150.015 748.704,-156.555"/>
<text text-anchor="middle" x="617.554" y="-180.28" font-family="Times,serif" font-size="14.00"> end(communicated_image_data)</text>
</g>
<!-- n14&#45;&gt;n6 -->
<g id="edge18" class="edge"><title>n14&#45;&gt;n6</title>
<path fill="none" stroke="black" d="M317.228,-216.752C309.151,-213.894 300.69,-211.296 292.554,-209.48 189.019,-186.381 153.644,-229.348 54.5536,-191.48 14.3604,-176.12 -17.7871,-136.213 11.5536,-104.74 66.2308,-46.0893 2642.84,-30.5642 3114.75,-28.2109"/>
<polygon fill="black" stroke="black" points="3114.86,-31.7105 3124.84,-28.1609 3114.83,-24.7105 3114.86,-31.7105"/>
<text text-anchor="middle" x="67.5536" y="-127.91" font-family="Times,serif" font-size="14.00"> static(visible_from)</text>
</g>
<!-- n14&#45;&gt;n12 -->
<g id="edge24" class="edge"><title>n14&#45;&gt;n12</title>
<path fill="none" stroke="black" d="M421.468,-229.581C489.632,-223.393 603.392,-213.866 701.554,-209.48 775.098,-206.194 1957.17,-216.096 2026.55,-191.48 2036.69,-187.883 2035.42,-180.081 2045.55,-176.48 2111.47,-153.067 3235.58,-170.127 3304.55,-158.48 3311.89,-157.242 3319.47,-155.434 3326.9,-153.341"/>
<polygon fill="black" stroke="black" points="3327.97,-156.675 3336.54,-150.448 3325.95,-149.97 3327.97,-156.675"/>
<text text-anchor="middle" x="2101.55" y="-180.28" font-family="Times,serif" font-size="14.00"> static(visible_from)</text>
</g>
<!-- n14&#45;&gt;n13 -->
<g id="edge12" class="edge"><title>n14&#45;&gt;n13</title>
<path fill="none" stroke="black" d="M298.796,-230.564C215.799,-223.495 76.8387,-209.172 61.5536,-191.48 57.1952,-186.436 57.6128,-181.857 61.5536,-176.48 77.2579,-155.052 93.4614,-167.207 118.554,-158.48 124.056,-156.566 129.784,-154.502 135.476,-152.404"/>
<polygon fill="black" stroke="black" points="136.83,-155.635 144.977,-148.862 134.384,-149.076 136.83,-155.635"/>
<text text-anchor="middle" x="153.554" y="-180.28" font-family="Times,serif" font-size="14.00"> end(communicated_image_data)</text>
</g>
<!-- n15 -->
<g id="node15" class="node"><title>n15</title>
<ellipse fill="none" stroke="black" cx="1745.55" cy="-236.35" rx="62.8651" ry="26.7407"/>
<text text-anchor="middle" x="1745.55" y="-240.15" font-family="Times,serif" font-size="14.00">&lt;objective2&gt;</text>
<text text-anchor="middle" x="1745.55" y="-225.15" font-family="Times,serif" font-size="14.00">objective</text>
</g>
<!-- n15&#45;&gt;n5 -->
<g id="edge31" class="edge"><title>n15&#45;&gt;n5</title>
<path fill="none" stroke="black" d="M1700.11,-217.681C1689.88,-214.379 1678.96,-211.374 1668.55,-209.48 1558.95,-189.533 1272.12,-229.901 1167.55,-191.48 1157.45,-187.77 1158.48,-180.625 1148.55,-176.48 1096.09,-154.581 937.383,-141.604 850.661,-135.962"/>
<polygon fill="black" stroke="black" points="850.656,-132.455 840.454,-135.31 850.21,-139.44 850.656,-132.455"/>
<text text-anchor="middle" x="1259.55" y="-180.28" font-family="Times,serif" font-size="14.00"> end(communicated_image_data)</text>
</g>
<!-- n15&#45;&gt;n10 -->
<g id="edge35" class="edge"><title>n15&#45;&gt;n10</title>
<path fill="none" stroke="black" d="M1697.14,-218.894C1687.67,-215.73 1677.81,-212.472 1668.55,-209.48 1642.87,-201.182 1626.56,-213.211 1610.55,-191.48 1606.6,-186.113 1606.37,-181.67 1610.55,-176.48 1627.5,-155.46 1694.31,-143.994 1746.51,-138.113"/>
<polygon fill="black" stroke="black" points="1747.17,-141.562 1756.74,-137.01 1746.42,-134.602 1747.17,-141.562"/>
<text text-anchor="middle" x="1702.55" y="-180.28" font-family="Times,serif" font-size="14.00"> end(communicated_image_data)</text>
</g>
<!-- n15&#45;&gt;n12 -->
<g id="edge17" class="edge"><title>n15&#45;&gt;n12</title>
<path fill="none" stroke="black" d="M1805.33,-227.827C1855.49,-221.823 1929.08,-213.736 1993.55,-209.48 2065.09,-204.758 2571.16,-215.936 2638.55,-191.48 2648.67,-187.81 2647.44,-180.15 2657.55,-176.48 2725.16,-151.952 3233.72,-170.933 3304.55,-158.48 3311.8,-157.206 3319.29,-155.396 3326.63,-153.317"/>
<polygon fill="black" stroke="black" points="3327.95,-156.575 3336.52,-150.341 3325.94,-149.873 3327.95,-156.575"/>
<text text-anchor="middle" x="2713.55" y="-180.28" font-family="Times,serif" font-size="14.00"> static(visible_from)</text>
</g>
<!-- n16 -->
<g id="node16" class="node"><title>n16</title>
<ellipse fill="none" stroke="black" cx="1576.55" cy="-341.09" rx="56.6372" ry="26.7407"/>
<text text-anchor="middle" x="1576.55" y="-344.89" font-family="Times,serif" font-size="14.00">&lt;camera1&gt;</text>
<text text-anchor="middle" x="1576.55" y="-329.89" font-family="Times,serif" font-size="14.00">camera</text>
</g>
<!-- n16&#45;&gt;n5 -->
<g id="edge41" class="edge"><title>n16&#45;&gt;n5</title>
<path fill="none" stroke="black" d="M1519.96,-338.437C1345.52,-332.835 824.468,-312.125 767.554,-263.22 737.691,-237.561 734.669,-212.931 749.554,-176.48 751.67,-171.297 754.727,-166.394 758.25,-161.875"/>
<polygon fill="black" stroke="black" points="761.035,-164.007 764.991,-154.178 755.769,-159.395 761.035,-164.007"/>
<text text-anchor="middle" x="811.554" y="-232.65" font-family="Times,serif" font-size="14.00"> static(supports)</text>
</g>
<!-- n16&#45;&gt;n7 -->
<g id="edge32" class="edge"><title>n16&#45;&gt;n7</title>
<path fill="none" stroke="black" d="M1632.92,-338.467C1976.07,-328.55 3771.49,-276.119 3826.55,-263.22 3830.96,-262.189 3835.44,-260.808 3839.85,-259.22"/>
<polygon fill="black" stroke="black" points="3841.34,-262.396 3849.35,-255.467 3838.76,-255.886 3841.34,-262.396"/>
<text text-anchor="middle" x="3470.05" y="-285.02" font-family="Times,serif" font-size="14.00"> static(on_board)</text>
</g>
<!-- n16&#45;&gt;n8 -->
<g id="edge40" class="edge"><title>n16&#45;&gt;n8</title>
<path fill="none" stroke="black" d="M1631.41,-334.494C1801.78,-317.111 2321.77,-264.059 2512.47,-244.602"/>
<polygon fill="black" stroke="black" points="2513.07,-248.06 2522.66,-243.563 2512.36,-241.096 2513.07,-248.06"/>
<text text-anchor="middle" x="2209.05" y="-285.02" font-family="Times,serif" font-size="14.00"> static(calibration_target)</text>
</g>
<!-- n16&#45;&gt;n10 -->
<g id="edge43" class="edge"><title>n16&#45;&gt;n10</title>
<path fill="none" stroke="black" d="M1571.38,-314.194C1565.55,-276.481 1561.73,-207.564 1603.55,-176.48 1626.13,-159.702 1695.35,-147.402 1748.01,-140.166"/>
<polygon fill="black" stroke="black" points="1748.52,-143.629 1757.96,-138.83 1747.59,-136.691 1748.52,-143.629"/>
<text text-anchor="middle" x="1622.55" y="-232.65" font-family="Times,serif" font-size="14.00"> static(supports)</text>
</g>
<!-- n16&#45;&gt;n13 -->
<g id="edge36" class="edge"><title>n16&#45;&gt;n13</title>
<path fill="none" stroke="black" d="M1520,-339.927C1294.06,-338.812 456.014,-330.157 200.554,-263.22 130.615,-244.895 92.7764,-252.85 54.5536,-191.48 51.0291,-185.821 50.528,-181.794 54.5536,-176.48 72.396,-152.927 90.4949,-167.743 118.554,-158.48 124.163,-156.629 129.992,-154.59 135.773,-152.495"/>
<polygon fill="black" stroke="black" points="137.241,-155.684 145.411,-148.938 134.818,-149.117 137.241,-155.684"/>
<text text-anchor="middle" x="244.554" y="-232.65" font-family="Times,serif" font-size="14.00"> static(supports)</text>
</g>
<!-- n17 -->
<g id="node17" class="node"><title>n17</title>
<ellipse fill="none" stroke="black" cx="3754.55" cy="-236.35" rx="62.8651" ry="26.7407"/>
<text text-anchor="middle" x="3754.55" y="-240.15" font-family="Times,serif" font-size="14.00">&lt;objective4&gt;</text>
<text text-anchor="middle" x="3754.55" y="-225.15" font-family="Times,serif" font-size="14.00">objective</text>
</g>
<!-- n17&#45;&gt;n12 -->
<g id="edge39" class="edge"><title>n17&#45;&gt;n12</title>
<path fill="none" stroke="black" d="M3745.37,-209.498C3739.77,-197.525 3731.37,-184.257 3719.55,-176.48 3677.58,-148.863 3542.28,-138.575 3456.42,-134.782"/>
<polygon fill="black" stroke="black" points="3456.34,-131.276 3446.2,-134.351 3456.05,-138.27 3456.34,-131.276"/>
<text text-anchor="middle" x="3790.55" y="-180.28" font-family="Times,serif" font-size="14.00"> static(visible_from)</text>
</g>
<!-- n18 -->
<g id="node18" class="node"><title>n18</title>
<ellipse fill="none" stroke="black" cx="3186.55" cy="-236.35" rx="62.8651" ry="26.7407"/>
<text text-anchor="middle" x="3186.55" y="-240.15" font-family="Times,serif" font-size="14.00">&lt;objective0&gt;</text>
<text text-anchor="middle" x="3186.55" y="-225.15" font-family="Times,serif" font-size="14.00">objective</text>
</g>
<!-- n18&#45;&gt;n5 -->
<g id="edge22" class="edge"><title>n18&#45;&gt;n5</title>
<path fill="none" stroke="black" d="M3128.29,-225.818C3089.63,-219.939 3037.7,-212.891 2991.55,-209.48 2864.22,-200.068 1968.62,-211.731 1842.55,-191.48 1820.49,-187.935 1816.57,-180.335 1794.55,-176.48 1611.39,-144.412 1036.37,-135.317 850.867,-133.183"/>
<polygon fill="black" stroke="black" points="850.808,-129.682 840.769,-133.069 850.729,-136.682 850.808,-129.682"/>
<text text-anchor="middle" x="1934.55" y="-180.28" font-family="Times,serif" font-size="14.00"> end(communicated_image_data)</text>
</g>
<!-- n18&#45;&gt;n6 -->
<g id="edge21" class="edge"><title>n18&#45;&gt;n6</title>
<path fill="none" stroke="black" d="M3246.74,-228.168C3298.36,-222.267 3374.75,-214.146 3441.55,-209.48 3467.56,-207.663 3892.47,-210.268 3910.55,-191.48 4003.79,-94.5958 3462.3,-46.7881 3261.36,-32.555"/>
<polygon fill="black" stroke="black" points="3261.41,-29.0502 3251.19,-31.843 3260.92,-36.0331 3261.41,-29.0502"/>
<text text-anchor="middle" x="3973.55" y="-127.91" font-family="Times,serif" font-size="14.00"> static(visible_from)</text>
</g>
<!-- n18&#45;&gt;n10 -->
<g id="edge7" class="edge"><title>n18&#45;&gt;n10</title>
<path fill="none" stroke="black" d="M3133.41,-221.877C3101.67,-213.602 3060.64,-202.505 3024.55,-191.48 3004.79,-185.444 3000.87,-180.241 2980.55,-176.48 2767.06,-136.958 2094.34,-132.856 1879.33,-132.574"/>
<polygon fill="black" stroke="black" points="1879.14,-129.074 1869.14,-132.563 1879.13,-136.074 1879.14,-129.074"/>
<text text-anchor="middle" x="3116.55" y="-180.28" font-family="Times,serif" font-size="14.00"> end(communicated_image_data)</text>
</g>
<!-- n18&#45;&gt;n12 -->
<g id="edge20" class="edge"><title>n18&#45;&gt;n12</title>
<path fill="none" stroke="black" d="M3248.04,-230.489C3330.25,-223.356 3467.45,-208.984 3482.55,-191.48 3498.93,-172.499 3475.76,-158.061 3447.62,-148.235"/>
<polygon fill="black" stroke="black" points="3448.53,-144.85 3437.93,-145.079 3446.36,-151.505 3448.53,-144.85"/>
<text text-anchor="middle" x="3544.55" y="-180.28" font-family="Times,serif" font-size="14.00"> static(visible_from)</text>
</g>
</g>
</svg>
