<?xml version="1.0" encoding="UTF-8" standalone="no"?>
<!DOCTYPE svg PUBLIC "-//W3C//DTD SVG 1.1//EN"
 "http://www.w3.org/Graphics/SVG/1.1/DTD/svg11.dtd">
<!-- Generated by graphviz version 2.38.0 (20140413.2041)
 -->
<!-- Title: Struc Pages: 1 -->
<svg width="6709pt" height="376pt"
 viewBox="0.00 0.00 6709.30 375.96" xmlns="http://www.w3.org/2000/svg" xmlns:xlink="http://www.w3.org/1999/xlink">
<g id="graph0" class="graph" transform="scale(1 1) rotate(0) translate(4 371.96)">
<title>Struc</title>
<polygon fill="white" stroke="none" points="-4,4 -4,-371.96 6705.3,-371.96 6705.3,4 -4,4"/>
<!-- n1 -->
<g id="node1" class="node"><title>n1</title>
<ellipse fill="none" stroke="black" cx="1179.3" cy="-341.09" rx="56.6372" ry="26.7407"/>
<text text-anchor="middle" x="1179.3" y="-344.89" font-family="Times,serif" font-size="14.00">&lt;camera2&gt;</text>
<text text-anchor="middle" x="1179.3" y="-329.89" font-family="Times,serif" font-size="14.00">camera</text>
</g>
<!-- n7 -->
<g id="node7" class="node"><title>n7</title>
<ellipse fill="none" stroke="black" cx="1179.3" cy="-236.35" rx="67.7647" ry="26.7407"/>
<text text-anchor="middle" x="1179.3" y="-240.15" font-family="Times,serif" font-size="14.00">&lt;objective14&gt;</text>
<text text-anchor="middle" x="1179.3" y="-225.15" font-family="Times,serif" font-size="14.00">objective</text>
</g>
<!-- n1&#45;&gt;n7 -->
<g id="edge6" class="edge"><title>n1&#45;&gt;n7</title>
<path fill="none" stroke="black" d="M1179.3,-314.165C1179.3,-301.875 1179.3,-286.987 1179.3,-273.602"/>
<polygon fill="black" stroke="black" points="1182.8,-273.268 1179.3,-263.268 1175.8,-273.268 1182.8,-273.268"/>
<text text-anchor="middle" x="1247.8" y="-285.02" font-family="Times,serif" font-size="14.00"> static(calibration_target)</text>
</g>
<!-- n15 -->
<g id="node15" class="node"><title>n15</title>
<ellipse fill="none" stroke="black" cx="656.302" cy="-131.61" rx="53.9813" ry="26.7407"/>
<text text-anchor="middle" x="656.302" y="-135.41" font-family="Times,serif" font-size="14.00">&lt;low_res&gt;</text>
<text text-anchor="middle" x="656.302" y="-120.41" font-family="Times,serif" font-size="14.00">mode</text>
</g>
<!-- n1&#45;&gt;n15 -->
<g id="edge60" class="edge"><title>n1&#45;&gt;n15</title>
<path fill="none" stroke="black" d="M1122.53,-339.994C913.332,-339.102 193.819,-331.086 119.302,-263.22 90.529,-237.015 80.9017,-205.075 107.302,-176.48 123.557,-158.875 451.056,-141.939 592.336,-135.421"/>
<polygon fill="black" stroke="black" points="592.756,-138.906 602.585,-134.951 592.435,-131.913 592.756,-138.906"/>
<text text-anchor="middle" x="163.302" y="-232.65" font-family="Times,serif" font-size="14.00"> static(supports)</text>
</g>
<!-- n29 -->
<g id="node29" class="node"><title>n29</title>
<ellipse fill="none" stroke="black" cx="5383.3" cy="-236.35" rx="48.1667" ry="26.7407"/>
<text text-anchor="middle" x="5383.3" y="-240.15" font-family="Times,serif" font-size="14.00">&lt;rover0&gt;</text>
<text text-anchor="middle" x="5383.3" y="-225.15" font-family="Times,serif" font-size="14.00">rover</text>
</g>
<!-- n1&#45;&gt;n29 -->
<g id="edge9" class="edge"><title>n1&#45;&gt;n29</title>
<path fill="none" stroke="black" d="M1235.27,-337.097C1427.12,-326.985 2075.87,-294.014 2612.3,-281.22 2687.67,-279.423 5252.67,-279.404 5326.3,-263.22 5330.78,-262.236 5335.33,-260.873 5339.81,-259.283"/>
<polygon fill="black" stroke="black" points="5341.41,-262.414 5349.44,-255.499 5338.85,-255.899 5341.41,-262.414"/>
<text text-anchor="middle" x="2679.8" y="-285.02" font-family="Times,serif" font-size="14.00"> static(on_board)</text>
</g>
<!-- n2 -->
<g id="node2" class="node"><title>n2</title>
<ellipse fill="none" stroke="black" cx="3866.3" cy="-236.35" rx="62.8651" ry="26.7407"/>
<text text-anchor="middle" x="3866.3" y="-240.15" font-family="Times,serif" font-size="14.00">&lt;objective2&gt;</text>
<text text-anchor="middle" x="3866.3" y="-225.15" font-family="Times,serif" font-size="14.00">objective</text>
</g>
<!-- n4 -->
<g id="node4" class="node"><title>n4</title>
<ellipse fill="none" stroke="black" cx="4697.3" cy="-26.8701" rx="63.7795" ry="26.7407"/>
<text text-anchor="middle" x="4697.3" y="-30.6701" font-family="Times,serif" font-size="14.00">&lt;waypoint1&gt;</text>
<text text-anchor="middle" x="4697.3" y="-15.6701" font-family="Times,serif" font-size="14.00">waypoint</text>
</g>
<!-- n2&#45;&gt;n4 -->
<g id="edge32" class="edge"><title>n2&#45;&gt;n4</title>
<path fill="none" stroke="black" d="M3867.31,-209.244C3869.12,-197.657 3873.25,-184.791 3882.3,-176.48 3990.5,-77.1093 4444.99,-41.6994 4624.21,-31.4481"/>
<polygon fill="black" stroke="black" points="4624.54,-34.9349 4634.33,-30.8792 4624.15,-27.946 4624.54,-34.9349"/>
<text text-anchor="middle" x="4107.3" y="-127.91" font-family="Times,serif" font-size="14.00"> static(visible_from)</text>
</g>
<!-- n21 -->
<g id="node21" class="node"><title>n21</title>
<ellipse fill="none" stroke="black" cx="2386.3" cy="-131.61" rx="56.6372" ry="26.7407"/>
<text text-anchor="middle" x="2386.3" y="-135.41" font-family="Times,serif" font-size="14.00">&lt;high_res&gt;</text>
<text text-anchor="middle" x="2386.3" y="-120.41" font-family="Times,serif" font-size="14.00">mode</text>
</g>
<!-- n2&#45;&gt;n21 -->
<g id="edge19" class="edge"><title>n2&#45;&gt;n21</title>
<path fill="none" stroke="black" d="M3808.95,-225.011C3759.87,-215.728 3693.29,-201.987 3668.3,-191.48 3657.05,-186.751 3656.94,-180.161 3645.3,-176.48 3531.53,-140.491 2696.75,-133.981 2452.97,-132.843"/>
<polygon fill="black" stroke="black" points="2452.85,-129.343 2442.83,-132.797 2452.82,-136.342 2452.85,-129.343"/>
<text text-anchor="middle" x="3760.3" y="-180.28" font-family="Times,serif" font-size="14.00"> end(communicated_image_data)</text>
</g>
<!-- n22 -->
<g id="node22" class="node"><title>n22</title>
<ellipse fill="none" stroke="black" cx="4698.3" cy="-131.61" rx="63.7795" ry="26.7407"/>
<text text-anchor="middle" x="4698.3" y="-135.41" font-family="Times,serif" font-size="14.00">&lt;waypoint0&gt;</text>
<text text-anchor="middle" x="4698.3" y="-120.41" font-family="Times,serif" font-size="14.00">waypoint</text>
</g>
<!-- n2&#45;&gt;n22 -->
<g id="edge18" class="edge"><title>n2&#45;&gt;n22</title>
<path fill="none" stroke="black" d="M3874.68,-209.437C3880.01,-197.294 3888.24,-183.895 3900.3,-176.48 3930.86,-157.701 4432.89,-140.632 4624.65,-134.766"/>
<polygon fill="black" stroke="black" points="4625.02,-138.256 4634.91,-134.454 4624.81,-131.26 4625.02,-138.256"/>
<text text-anchor="middle" x="3956.3" y="-180.28" font-family="Times,serif" font-size="14.00"> static(visible_from)</text>
</g>
<!-- n3 -->
<g id="node3" class="node"><title>n3</title>
<ellipse fill="none" stroke="black" cx="5876.3" cy="-236.35" rx="67.7647" ry="26.7407"/>
<text text-anchor="middle" x="5876.3" y="-240.15" font-family="Times,serif" font-size="14.00">&lt;objective15&gt;</text>
<text text-anchor="middle" x="5876.3" y="-225.15" font-family="Times,serif" font-size="14.00">objective</text>
</g>
<!-- n3&#45;&gt;n4 -->
<g id="edge13" class="edge"><title>n3&#45;&gt;n4</title>
<path fill="none" stroke="black" d="M5925.28,-217.721C5934.52,-214.731 5944.15,-211.836 5953.3,-209.48 5998.22,-197.916 6082.06,-212.06 6052.3,-176.48 6050.5,-174.321 5656.09,-105.133 5653.3,-104.74 5325.98,-58.6618 4931.44,-37.8225 4770.75,-30.7871"/>
<polygon fill="black" stroke="black" points="4770.65,-27.2795 4760.51,-30.3435 4770.35,-34.273 4770.65,-27.2795"/>
<text text-anchor="middle" x="6010.3" y="-127.91" font-family="Times,serif" font-size="14.00"> static(visible_from)</text>
</g>
<!-- n3&#45;&gt;n22 -->
<g id="edge37" class="edge"><title>n3&#45;&gt;n22</title>
<path fill="none" stroke="black" d="M5840.01,-213.447C5814.4,-198.446 5782.13,-180.554 5767.3,-176.48 5719.43,-163.329 5005.77,-141.542 4771.9,-134.719"/>
<polygon fill="black" stroke="black" points="4771.89,-131.218 4761.79,-134.425 4771.68,-138.215 4771.89,-131.218"/>
<text text-anchor="middle" x="5855.3" y="-180.28" font-family="Times,serif" font-size="14.00"> static(visible_from)</text>
</g>
<!-- n4&#45;&gt;n4 -->
<g id="edge1" class="edge"><title>n4&#45;&gt;n4</title>
<path fill="none" stroke="black" d="M4757.11,-36.3053C4769.79,-35.3472 4778.94,-32.2021 4778.94,-26.8701 4778.94,-23.121 4774.42,-20.4531 4767.32,-18.8664"/>
<polygon fill="black" stroke="black" points="4767.5,-15.3569 4757.11,-17.4349 4766.52,-22.2891 4767.5,-15.3569"/>
<text text-anchor="middle" x="4863.44" y="-30.6701" font-family="Times,serif" font-size="14.00"> end(communicated_soil_data)</text>
<text text-anchor="middle" x="4863.44" y="-15.6701" font-family="Times,serif" font-size="14.00">init(at_soil_sample)</text>
</g>
<!-- n4&#45;&gt;n22 -->
<g id="edge16" class="edge"><title>n4&#45;&gt;n22</title>
<path fill="none" stroke="black" d="M4662.71,-49.6428C4650.92,-59.9782 4642.1,-73.0525 4648.3,-86.7401 4650.65,-91.9341 4653.96,-96.7564 4657.76,-101.157"/>
<polygon fill="black" stroke="black" points="4655.55,-103.906 4665.05,-108.613 4660.56,-99.0141 4655.55,-103.906"/>
<text text-anchor="middle" x="4687.3" y="-75.5401" font-family="Times,serif" font-size="14.00"> static(visible)</text>
</g>
<!-- n5 -->
<g id="node5" class="node"><title>n5</title>
<ellipse fill="none" stroke="black" cx="2709.3" cy="-341.09" rx="56.6372" ry="26.7407"/>
<text text-anchor="middle" x="2709.3" y="-344.89" font-family="Times,serif" font-size="14.00">&lt;camera0&gt;</text>
<text text-anchor="middle" x="2709.3" y="-329.89" font-family="Times,serif" font-size="14.00">camera</text>
</g>
<!-- n13 -->
<g id="node13" class="node"><title>n13</title>
<ellipse fill="none" stroke="black" cx="2709.3" cy="-236.35" rx="62.8651" ry="26.7407"/>
<text text-anchor="middle" x="2709.3" y="-240.15" font-family="Times,serif" font-size="14.00">&lt;objective8&gt;</text>
<text text-anchor="middle" x="2709.3" y="-225.15" font-family="Times,serif" font-size="14.00">objective</text>
</g>
<!-- n5&#45;&gt;n13 -->
<g id="edge46" class="edge"><title>n5&#45;&gt;n13</title>
<path fill="none" stroke="black" d="M2709.3,-314.165C2709.3,-301.875 2709.3,-286.987 2709.3,-273.602"/>
<polygon fill="black" stroke="black" points="2712.8,-273.268 2709.3,-263.268 2705.8,-273.268 2712.8,-273.268"/>
<text text-anchor="middle" x="2777.8" y="-285.02" font-family="Times,serif" font-size="14.00"> static(calibration_target)</text>
</g>
<!-- n5&#45;&gt;n21 -->
<g id="edge50" class="edge"><title>n5&#45;&gt;n21</title>
<path fill="none" stroke="black" d="M2652.9,-338.424C2517.11,-334.037 2179.89,-320.783 2135.3,-296.22 2084.46,-268.216 2075.56,-246.574 2057.3,-191.48 2055.2,-185.152 2052.91,-181.496 2057.3,-176.48 2074.32,-157.042 2228.95,-143.309 2320.04,-136.827"/>
<polygon fill="black" stroke="black" points="2320.55,-140.3 2330.28,-136.11 2320.06,-133.317 2320.55,-140.3"/>
<text text-anchor="middle" x="2135.3" y="-232.65" font-family="Times,serif" font-size="14.00"> static(supports)</text>
</g>
<!-- n5&#45;&gt;n29 -->
<g id="edge31" class="edge"><title>n5&#45;&gt;n29</title>
<path fill="none" stroke="black" d="M2766.06,-339.767C3124.65,-337.544 5069.2,-322.799 5326.3,-263.22 5330.71,-262.199 5335.19,-260.826 5339.6,-259.243"/>
<polygon fill="black" stroke="black" points="5341.09,-262.42 5349.11,-255.495 5338.52,-255.908 5341.09,-262.42"/>
<text text-anchor="middle" x="5229.8" y="-285.02" font-family="Times,serif" font-size="14.00"> static(on_board)</text>
</g>
<!-- n6 -->
<g id="node6" class="node"><title>n6</title>
<ellipse fill="none" stroke="black" cx="6190.3" cy="-236.35" rx="67.7647" ry="26.7407"/>
<text text-anchor="middle" x="6190.3" y="-240.15" font-family="Times,serif" font-size="14.00">&lt;objective16&gt;</text>
<text text-anchor="middle" x="6190.3" y="-225.15" font-family="Times,serif" font-size="14.00">objective</text>
</g>
<!-- n6&#45;&gt;n4 -->
<g id="edge20" class="edge"><title>n6&#45;&gt;n4</title>
<path fill="none" stroke="black" d="M6245.44,-220.503C6259.7,-216.784 6275.05,-212.887 6289.3,-209.48 6326.01,-200.707 6348.61,-220.864 6372.3,-191.48 6376.49,-186.291 6376.56,-181.614 6372.3,-176.48 6344.89,-143.386 6317.44,-173.829 6277.3,-158.48 6234.14,-141.976 6231.89,-120.063 6188.3,-104.74 6083.82,-68.0121 6051.66,-81.0362 5941.3,-71.7401 5498.35,-34.4295 4964.09,-28.754 4771.22,-27.9642"/>
<polygon fill="black" stroke="black" points="4771.21,-24.4642 4761.2,-27.9263 4771.18,-31.4641 4771.21,-24.4642"/>
<text text-anchor="middle" x="6333.3" y="-127.91" font-family="Times,serif" font-size="14.00"> static(visible_from)</text>
</g>
<!-- n6&#45;&gt;n22 -->
<g id="edge64" class="edge"><title>n6&#45;&gt;n22</title>
<path fill="none" stroke="black" d="M6155.02,-213.252C6131.66,-199.89 6099.8,-184.022 6069.3,-176.48 6061.36,-174.516 5055.4,-143.555 4771.9,-134.863"/>
<polygon fill="black" stroke="black" points="4771.83,-131.359 4761.72,-134.551 4771.61,-138.356 4771.83,-131.359"/>
<text text-anchor="middle" x="6166.3" y="-180.28" font-family="Times,serif" font-size="14.00"> static(visible_from)</text>
</g>
<!-- n7&#45;&gt;n15 -->
<g id="edge40" class="edge"><title>n7&#45;&gt;n15</title>
<path fill="none" stroke="black" d="M1114.38,-228.31C1071.44,-222.124 1014.56,-210.96 967.302,-191.48 956.019,-186.829 955.704,-180.831 944.302,-176.48 870.598,-148.356 779.794,-138.217 720.089,-134.588"/>
<polygon fill="black" stroke="black" points="720.23,-131.09 710.048,-134.021 719.835,-138.079 720.23,-131.09"/>
<text text-anchor="middle" x="1059.3" y="-180.28" font-family="Times,serif" font-size="14.00"> end(communicated_image_data)</text>
</g>
<!-- n7&#45;&gt;n22 -->
<g id="edge24" class="edge"><title>n7&#45;&gt;n22</title>
<path fill="none" stroke="black" d="M1243.99,-228.146C1302.7,-221.951 1391.69,-213.41 1469.3,-209.48 1551.2,-205.334 2868,-218.847 2945.3,-191.48 2955.44,-187.89 2954.17,-180.098 2964.3,-176.48 3017.57,-157.458 3925.76,-160.002 3982.3,-158.48 4217.16,-152.161 4495.24,-141.084 4624.9,-135.709"/>
<polygon fill="black" stroke="black" points="4625.25,-139.198 4635.1,-135.285 4624.96,-132.204 4625.25,-139.198"/>
<text text-anchor="middle" x="3020.3" y="-180.28" font-family="Times,serif" font-size="14.00"> static(visible_from)</text>
</g>
<!-- n8 -->
<g id="node8" class="node"><title>n8</title>
<ellipse fill="none" stroke="black" cx="1769.3" cy="-236.35" rx="62.8651" ry="26.7407"/>
<text text-anchor="middle" x="1769.3" y="-240.15" font-family="Times,serif" font-size="14.00">&lt;objective6&gt;</text>
<text text-anchor="middle" x="1769.3" y="-225.15" font-family="Times,serif" font-size="14.00">objective</text>
</g>
<!-- n8&#45;&gt;n4 -->
<g id="edge26" class="edge"><title>n8&#45;&gt;n4</title>
<path fill="none" stroke="black" d="M1707.66,-230.794C1653.87,-224.523 1588.69,-209.917 1618.3,-176.48 1721.17,-60.3436 4164.64,-32.6644 4623.42,-28.4847"/>
<polygon fill="black" stroke="black" points="4623.6,-31.9833 4633.57,-28.3931 4623.54,-24.9836 4623.6,-31.9833"/>
<text text-anchor="middle" x="2109.3" y="-127.91" font-family="Times,serif" font-size="14.00"> static(visible_from)</text>
</g>
<!-- n8&#45;&gt;n15 -->
<g id="edge63" class="edge"><title>n8&#45;&gt;n15</title>
<path fill="none" stroke="black" d="M1712.98,-224.115C1685.95,-219.044 1653.04,-213.34 1623.3,-209.48 1527.33,-197.024 1501.04,-211.243 1406.3,-191.48 1386.08,-187.261 1382.57,-180.49 1362.3,-176.48 1240.46,-152.377 870.412,-138.975 720.445,-134.411"/>
<polygon fill="black" stroke="black" points="720.135,-130.9 710.034,-134.098 719.924,-137.897 720.135,-130.9"/>
<text text-anchor="middle" x="1498.3" y="-180.28" font-family="Times,serif" font-size="14.00"> end(communicated_image_data)</text>
</g>
<!-- n8&#45;&gt;n21 -->
<g id="edge54" class="edge"><title>n8&#45;&gt;n21</title>
<path fill="none" stroke="black" d="M1797.81,-212C1817,-196.501 1839.78,-178.623 1845.3,-176.48 1930.01,-143.627 2194.05,-135.376 2319.21,-133.304"/>
<polygon fill="black" stroke="black" points="2319.48,-136.801 2329.43,-133.144 2319.37,-129.801 2319.48,-136.801"/>
<text text-anchor="middle" x="1937.3" y="-180.28" font-family="Times,serif" font-size="14.00"> end(communicated_image_data)</text>
</g>
<!-- n8&#45;&gt;n22 -->
<g id="edge53" class="edge"><title>n8&#45;&gt;n22</title>
<path fill="none" stroke="black" d="M1829.01,-227.738C1880,-221.594 1955.34,-213.356 2021.3,-209.48 2087.53,-205.589 3152.8,-213.709 3215.3,-191.48 3225.44,-187.875 3224.18,-180.131 3234.3,-176.48 3273.4,-162.376 3940.75,-159.731 3982.3,-158.48 4217.14,-151.412 4495.23,-140.691 4624.89,-135.555"/>
<polygon fill="black" stroke="black" points="4625.24,-139.044 4635.1,-135.15 4624.97,-132.049 4625.24,-139.044"/>
<text text-anchor="middle" x="3290.3" y="-180.28" font-family="Times,serif" font-size="14.00"> static(visible_from)</text>
</g>
<!-- n9 -->
<g id="node9" class="node"><title>n9</title>
<ellipse fill="none" stroke="black" cx="4138.3" cy="-236.35" rx="62.8651" ry="26.7407"/>
<text text-anchor="middle" x="4138.3" y="-240.15" font-family="Times,serif" font-size="14.00">&lt;objective1&gt;</text>
<text text-anchor="middle" x="4138.3" y="-225.15" font-family="Times,serif" font-size="14.00">objective</text>
</g>
<!-- n9&#45;&gt;n21 -->
<g id="edge14" class="edge"><title>n9&#45;&gt;n21</title>
<path fill="none" stroke="black" d="M4090.07,-218.872C4071.18,-211.581 4049.68,-202.215 4031.3,-191.48 4022.01,-186.053 4022.42,-180.145 4012.3,-176.48 3938.01,-149.562 2750.45,-136.176 2453.3,-133.239"/>
<polygon fill="black" stroke="black" points="2453.14,-129.737 2443.11,-133.138 2453.07,-136.737 2453.14,-129.737"/>
<text text-anchor="middle" x="4123.3" y="-180.28" font-family="Times,serif" font-size="14.00"> end(communicated_image_data)</text>
</g>
<!-- n9&#45;&gt;n22 -->
<g id="edge11" class="edge"><title>n9&#45;&gt;n22</title>
<path fill="none" stroke="black" d="M4177.39,-215.009C4190.81,-207.808 4205.84,-199.5 4219.3,-191.48 4229.79,-185.236 4230.78,-180.515 4242.3,-176.48 4311,-152.419 4514.57,-140.338 4625.03,-135.406"/>
<polygon fill="black" stroke="black" points="4625.26,-138.9 4635.1,-134.965 4624.95,-131.906 4625.26,-138.9"/>
<text text-anchor="middle" x="4298.3" y="-180.28" font-family="Times,serif" font-size="14.00"> static(visible_from)</text>
</g>
<!-- n10 -->
<g id="node10" class="node"><title>n10</title>
<ellipse fill="none" stroke="black" cx="5453.3" cy="-341.09" rx="67.3507" ry="26.7407"/>
<text text-anchor="middle" x="5453.3" y="-344.89" font-family="Times,serif" font-size="14.00">&lt;rover0store&gt;</text>
<text text-anchor="middle" x="5453.3" y="-329.89" font-family="Times,serif" font-size="14.00">store</text>
</g>
<!-- n10&#45;&gt;n10 -->
<g id="edge2" class="edge"><title>n10&#45;&gt;n10</title>
<path fill="none" stroke="black" d="M5516.45,-350.468C5529.29,-349.447 5538.48,-346.321 5538.48,-341.09 5538.48,-337.413 5533.93,-334.775 5526.77,-333.179"/>
<polygon fill="black" stroke="black" points="5526.84,-329.653 5516.45,-331.712 5525.86,-336.584 5526.84,-329.653"/>
<text text-anchor="middle" x="5571.48" y="-337.39" font-family="Times,serif" font-size="14.00"> init(empty)</text>
</g>
<!-- n10&#45;&gt;n29 -->
<g id="edge42" class="edge"><title>n10&#45;&gt;n29</title>
<path fill="none" stroke="black" d="M5437.53,-314.962C5430.81,-304.446 5422.81,-292.151 5415.3,-281.22 5412.71,-277.446 5409.95,-273.525 5407.18,-269.649"/>
<polygon fill="black" stroke="black" points="5409.85,-267.367 5401.16,-261.309 5404.17,-271.465 5409.85,-267.367"/>
<text text-anchor="middle" x="5467.3" y="-285.02" font-family="Times,serif" font-size="14.00"> static(store_of)</text>
</g>
<!-- n11 -->
<g id="node11" class="node"><title>n11</title>
<ellipse fill="none" stroke="black" cx="5254.3" cy="-236.35" rx="62.8651" ry="26.7407"/>
<text text-anchor="middle" x="5254.3" y="-240.15" font-family="Times,serif" font-size="14.00">&lt;objective4&gt;</text>
<text text-anchor="middle" x="5254.3" y="-225.15" font-family="Times,serif" font-size="14.00">objective</text>
</g>
<!-- n11&#45;&gt;n22 -->
<g id="edge65" class="edge"><title>n11&#45;&gt;n22</title>
<path fill="none" stroke="black" d="M5234.46,-210.574C5222.97,-198.099 5207.42,-184.05 5190.3,-176.48 5117.33,-144.217 4890.5,-135.678 4772.04,-133.42"/>
<polygon fill="black" stroke="black" points="4772.02,-129.919 4761.96,-133.238 4771.89,-136.918 4772.02,-129.919"/>
<text text-anchor="middle" x="5268.3" y="-180.28" font-family="Times,serif" font-size="14.00"> static(visible_from)</text>
</g>
<!-- n12 -->
<g id="node12" class="node"><title>n12</title>
<ellipse fill="none" stroke="black" cx="279.302" cy="-236.35" rx="62.8651" ry="26.7407"/>
<text text-anchor="middle" x="279.302" y="-240.15" font-family="Times,serif" font-size="14.00">&lt;objective5&gt;</text>
<text text-anchor="middle" x="279.302" y="-225.15" font-family="Times,serif" font-size="14.00">objective</text>
</g>
<!-- n12&#45;&gt;n4 -->
<g id="edge33" class="edge"><title>n12&#45;&gt;n4</title>
<path fill="none" stroke="black" d="M235.103,-217.058C227.264,-214.24 219.11,-211.575 211.302,-209.48 122.703,-185.707 63.6926,-233.781 11.3024,-158.48 -2.3384,-138.874 -4.78822,-122.391 11.3024,-104.74 118.351,12.6906 208.611,-79.8853 367.302,-71.7401 1243.93,-26.7456 4124.25,-27.3344 4623.29,-27.7847"/>
<polygon fill="black" stroke="black" points="4623.6,-31.2848 4633.6,-27.7943 4623.61,-24.2849 4623.6,-31.2848"/>
<text text-anchor="middle" x="67.3024" y="-127.91" font-family="Times,serif" font-size="14.00"> static(visible_from)</text>
</g>
<!-- n12&#45;&gt;n15 -->
<g id="edge55" class="edge"><title>n12&#45;&gt;n15</title>
<path fill="none" stroke="black" d="M226.06,-222.006C178.52,-209.968 116.086,-193.801 114.302,-191.48 110.239,-186.195 109.782,-181.381 114.302,-176.48 130.323,-159.111 452.883,-142.073 592.641,-135.475"/>
<polygon fill="black" stroke="black" points="592.957,-138.964 602.782,-135 592.629,-131.972 592.957,-138.964"/>
<text text-anchor="middle" x="206.302" y="-180.28" font-family="Times,serif" font-size="14.00"> end(communicated_image_data)</text>
</g>
<!-- n12&#45;&gt;n21 -->
<g id="edge12" class="edge"><title>n12&#45;&gt;n21</title>
<path fill="none" stroke="black" d="M335.802,-224.174C360.218,-219.456 389.134,-214.016 415.302,-209.48 466.276,-200.645 482.893,-212.186 530.302,-191.48 540.162,-187.174 539.166,-180.087 549.302,-176.48 610.601,-154.67 1655.26,-160.243 1720.3,-158.48 1940.03,-152.525 2200.38,-141.163 2320.08,-135.697"/>
<polygon fill="black" stroke="black" points="2320.35,-139.189 2330.18,-135.235 2320.03,-132.196 2320.35,-139.189"/>
<text text-anchor="middle" x="641.302" y="-180.28" font-family="Times,serif" font-size="14.00"> end(communicated_image_data)</text>
</g>
<!-- n12&#45;&gt;n22 -->
<g id="edge15" class="edge"><title>n12&#45;&gt;n22</title>
<path fill="none" stroke="black" d="M333.572,-222.707C358.345,-217.536 388.154,-212.148 415.302,-209.48 477.781,-203.34 2616.08,-212.306 2675.3,-191.48 2685.45,-187.911 2684.16,-180.08 2694.3,-176.48 2761.74,-152.539 3910.76,-160.272 3982.3,-158.48 4217.18,-152.597 4495.24,-141.312 4624.9,-135.799"/>
<polygon fill="black" stroke="black" points="4625.26,-139.287 4635.1,-135.364 4624.96,-132.293 4625.26,-139.287"/>
<text text-anchor="middle" x="2750.3" y="-180.28" font-family="Times,serif" font-size="14.00"> static(visible_from)</text>
</g>
<!-- n13&#45;&gt;n21 -->
<g id="edge66" class="edge"><title>n13&#45;&gt;n21</title>
<path fill="none" stroke="black" d="M2648.3,-229.346C2603.57,-223.461 2542.04,-212.233 2491.3,-191.48 2480.01,-186.86 2478.8,-182.698 2468.3,-176.48 2457.01,-169.795 2444.62,-162.933 2432.98,-156.68"/>
<polygon fill="black" stroke="black" points="2434.3,-153.419 2423.83,-151.811 2431.01,-159.599 2434.3,-153.419"/>
<text text-anchor="middle" x="2583.3" y="-180.28" font-family="Times,serif" font-size="14.00"> end(communicated_image_data)</text>
</g>
<!-- n13&#45;&gt;n22 -->
<g id="edge67" class="edge"><title>n13&#45;&gt;n22</title>
<path fill="none" stroke="black" d="M2772.09,-233.999C2931.57,-230.215 3349.22,-218.007 3485.3,-191.48 3505.58,-187.527 3508.99,-180.241 3529.3,-176.48 3542.82,-173.978 4370.49,-144.298 4624.79,-135.227"/>
<polygon fill="black" stroke="black" points="4625.17,-138.716 4635.03,-134.862 4624.92,-131.721 4625.17,-138.716"/>
<text text-anchor="middle" x="3588.3" y="-180.28" font-family="Times,serif" font-size="14.00"> static(visible_from)</text>
</g>
<!-- n14 -->
<g id="node14" class="node"><title>n14</title>
<ellipse fill="none" stroke="black" cx="6025.3" cy="-236.35" rx="62.8651" ry="26.7407"/>
<text text-anchor="middle" x="6025.3" y="-240.15" font-family="Times,serif" font-size="14.00">&lt;objective9&gt;</text>
<text text-anchor="middle" x="6025.3" y="-225.15" font-family="Times,serif" font-size="14.00">objective</text>
</g>
<!-- n14&#45;&gt;n4 -->
<g id="edge23" class="edge"><title>n14&#45;&gt;n4</title>
<path fill="none" stroke="black" d="M6054.03,-212.316C6059.78,-206.195 6065.04,-199.133 6068.3,-191.48 6073.3,-179.752 6074.09,-109.803 6069.3,-104.74 6024.37,-57.2235 5049.69,-34.7078 4771.08,-29.2275"/>
<polygon fill="black" stroke="black" points="4771.14,-25.7281 4761.07,-29.0321 4771,-32.7268 4771.14,-25.7281"/>
<text text-anchor="middle" x="6128.3" y="-127.91" font-family="Times,serif" font-size="14.00"> static(visible_from)</text>
</g>
<!-- n14&#45;&gt;n22 -->
<g id="edge28" class="edge"><title>n14&#45;&gt;n22</title>
<path fill="none" stroke="black" d="M5993.26,-213.138C5972.15,-199.821 5943.32,-184.046 5915.3,-176.48 5887.59,-168.998 5030.67,-142.627 4771.7,-134.81"/>
<polygon fill="black" stroke="black" points="4771.75,-131.31 4761.65,-134.507 4771.54,-138.307 4771.75,-131.31"/>
<text text-anchor="middle" x="6009.3" y="-180.28" font-family="Times,serif" font-size="14.00"> static(visible_from)</text>
</g>
<!-- n16 -->
<g id="node16" class="node"><title>n16</title>
<ellipse fill="none" stroke="black" cx="5110.3" cy="-236.35" rx="62.8651" ry="26.7407"/>
<text text-anchor="middle" x="5110.3" y="-240.15" font-family="Times,serif" font-size="14.00">&lt;objective0&gt;</text>
<text text-anchor="middle" x="5110.3" y="-225.15" font-family="Times,serif" font-size="14.00">objective</text>
</g>
<!-- n16&#45;&gt;n4 -->
<g id="edge47" class="edge"><title>n16&#45;&gt;n4</title>
<path fill="none" stroke="black" d="M5154.65,-217.098C5163.67,-214.051 5173.18,-211.294 5182.3,-209.48 5223.32,-201.319 5529.44,-221.754 5558.3,-191.48 5562.9,-186.655 5562.6,-181.579 5558.3,-176.48 5457.62,-56.9268 4961.07,-33.5513 4771.26,-28.9808"/>
<polygon fill="black" stroke="black" points="4771.17,-25.4781 4761.1,-28.7472 4771.01,-32.4763 4771.17,-25.4781"/>
<text text-anchor="middle" x="5593.3" y="-127.91" font-family="Times,serif" font-size="14.00"> static(visible_from)</text>
</g>
<!-- n16&#45;&gt;n21 -->
<g id="edge58" class="edge"><title>n16&#45;&gt;n21</title>
<path fill="none" stroke="black" d="M5066.36,-217.078C5057.24,-213.991 5047.57,-211.224 5038.3,-209.48 4965.66,-195.811 4442.8,-216.664 4373.3,-191.48 4363.19,-187.815 4364.43,-180.122 4354.3,-176.48 4331.44,-168.256 2794.77,-139.999 2453.11,-133.813"/>
<polygon fill="black" stroke="black" points="2452.95,-130.31 2442.88,-133.628 2452.82,-137.308 2452.95,-130.31"/>
<text text-anchor="middle" x="4465.3" y="-180.28" font-family="Times,serif" font-size="14.00"> end(communicated_image_data)</text>
</g>
<!-- n16&#45;&gt;n22 -->
<g id="edge59" class="edge"><title>n16&#45;&gt;n22</title>
<path fill="none" stroke="black" d="M5093.37,-210.21C5083.71,-197.954 5070.51,-184.221 5055.3,-176.48 5007.21,-152.001 4861.33,-140.579 4771.62,-135.741"/>
<polygon fill="black" stroke="black" points="4771.68,-132.239 4761.51,-135.211 4771.31,-139.23 4771.68,-132.239"/>
<text text-anchor="middle" x="5130.3" y="-180.28" font-family="Times,serif" font-size="14.00"> static(visible_from)</text>
</g>
<!-- n17 -->
<g id="node17" class="node"><title>n17</title>
<ellipse fill="none" stroke="black" cx="2283.3" cy="-236.35" rx="62.8651" ry="26.7407"/>
<text text-anchor="middle" x="2283.3" y="-240.15" font-family="Times,serif" font-size="14.00">&lt;objective7&gt;</text>
<text text-anchor="middle" x="2283.3" y="-225.15" font-family="Times,serif" font-size="14.00">objective</text>
</g>
<!-- n17&#45;&gt;n15 -->
<g id="edge10" class="edge"><title>n17&#45;&gt;n15</title>
<path fill="none" stroke="black" d="M2228.17,-223.189C2189.74,-214.606 2137.31,-202.684 2091.3,-191.48 2065.43,-185.181 2059.67,-180.188 2033.3,-176.48 1882.95,-155.337 1502.06,-163.308 1350.3,-158.48 1118.16,-151.095 842.42,-140.176 720.142,-135.223"/>
<polygon fill="black" stroke="black" points="719.979,-131.714 709.846,-134.805 719.696,-138.708 719.979,-131.714"/>
<text text-anchor="middle" x="2183.3" y="-180.28" font-family="Times,serif" font-size="14.00"> end(communicated_image_data)</text>
</g>
<!-- n17&#45;&gt;n21 -->
<g id="edge49" class="edge"><title>n17&#45;&gt;n21</title>
<path fill="none" stroke="black" d="M2277.84,-209.45C2276.94,-198.445 2277.93,-185.988 2284.3,-176.48 2293.91,-162.161 2309.25,-152.492 2325.15,-145.972"/>
<polygon fill="black" stroke="black" points="2326.38,-149.248 2334.54,-142.486 2323.95,-142.686 2326.38,-149.248"/>
<text text-anchor="middle" x="2376.3" y="-180.28" font-family="Times,serif" font-size="14.00"> end(communicated_image_data)</text>
</g>
<!-- n17&#45;&gt;n22 -->
<g id="edge48" class="edge"><title>n17&#45;&gt;n22</title>
<path fill="none" stroke="black" d="M2344.64,-229.975C2415.19,-224.001 2534.52,-214.531 2637.3,-209.48 2716.45,-205.591 3275.77,-218.413 3350.3,-191.48 3360.42,-187.824 3359.19,-180.158 3369.3,-176.48 3433.34,-153.19 3914.2,-160.71 3982.3,-158.48 4217.12,-150.79 4495.21,-140.365 4624.89,-135.427"/>
<polygon fill="black" stroke="black" points="4625.23,-138.916 4635.09,-135.038 4624.97,-131.921 4625.23,-138.916"/>
<text text-anchor="middle" x="3425.3" y="-180.28" font-family="Times,serif" font-size="14.00"> static(visible_from)</text>
</g>
<!-- n18 -->
<g id="node18" class="node"><title>n18</title>
<ellipse fill="none" stroke="black" cx="5722.3" cy="-236.35" rx="67.7647" ry="26.7407"/>
<text text-anchor="middle" x="5722.3" y="-240.15" font-family="Times,serif" font-size="14.00">&lt;objective10&gt;</text>
<text text-anchor="middle" x="5722.3" y="-225.15" font-family="Times,serif" font-size="14.00">objective</text>
</g>
<!-- n18&#45;&gt;n22 -->
<g id="edge38" class="edge"><title>n18&#45;&gt;n22</title>
<path fill="none" stroke="black" d="M5689.94,-212.653C5669.31,-199.507 5641.44,-184.093 5614.3,-176.48 5456.63,-132.254 4960.87,-130.778 4772.19,-131.904"/>
<polygon fill="black" stroke="black" points="4772.07,-128.405 4762.1,-131.969 4772.12,-135.404 4772.07,-128.405"/>
<text text-anchor="middle" x="5707.3" y="-180.28" font-family="Times,serif" font-size="14.00"> static(visible_from)</text>
</g>
<!-- n19 -->
<g id="node19" class="node"><title>n19</title>
<ellipse fill="none" stroke="black" cx="6616.3" cy="-131.61" rx="48.1667" ry="26.7407"/>
<text text-anchor="middle" x="6616.3" y="-135.41" font-family="Times,serif" font-size="14.00">&lt;colour&gt;</text>
<text text-anchor="middle" x="6616.3" y="-120.41" font-family="Times,serif" font-size="14.00">mode</text>
</g>
<!-- n20 -->
<g id="node20" class="node"><title>n20</title>
<ellipse fill="none" stroke="black" cx="4406.3" cy="-236.35" rx="51.7379" ry="26.7407"/>
<text text-anchor="middle" x="4406.3" y="-240.15" font-family="Times,serif" font-size="14.00">&lt;general&gt;</text>
<text text-anchor="middle" x="4406.3" y="-225.15" font-family="Times,serif" font-size="14.00">lander</text>
</g>
<!-- n20&#45;&gt;n20 -->
<g id="edge3" class="edge"><title>n20&#45;&gt;n20</title>
<path fill="none" stroke="black" d="M4454.78,-245.966C4466.88,-245.294 4475.92,-242.089 4475.92,-236.35 4475.92,-232.405 4471.65,-229.657 4465.04,-228.107"/>
<polygon fill="black" stroke="black" points="4465.16,-224.59 4454.78,-226.734 4464.23,-231.529 4465.16,-224.59"/>
<text text-anchor="middle" x="4526.42" y="-232.65" font-family="Times,serif" font-size="14.00"> init(channel_free)</text>
</g>
<!-- n20&#45;&gt;n22 -->
<g id="edge61" class="edge"><title>n20&#45;&gt;n22</title>
<path fill="none" stroke="black" d="M4454.18,-226.004C4485.56,-218.873 4526.97,-207.522 4561.3,-191.48 4572.02,-186.47 4572.81,-181.96 4583.3,-176.48 4600.96,-167.254 4621.02,-158.928 4639.37,-152.072"/>
<polygon fill="black" stroke="black" points="4640.61,-155.346 4648.8,-148.623 4638.2,-148.773 4640.61,-155.346"/>
<text text-anchor="middle" x="4629.3" y="-180.28" font-family="Times,serif" font-size="14.00"> static(at_lander)</text>
</g>
<!-- n22&#45;&gt;n4 -->
<g id="edge43" class="edge"><title>n22&#45;&gt;n4</title>
<path fill="none" stroke="black" d="M4719.09,-106.069C4725.39,-95.7522 4729.82,-83.4456 4726.3,-71.7401 4725.24,-68.21 4723.79,-64.7021 4722.11,-61.2973"/>
<polygon fill="black" stroke="black" points="4725.15,-59.5704 4717.19,-52.5809 4719.05,-63.0102 4725.15,-59.5704"/>
<text text-anchor="middle" x="4767.3" y="-75.5401" font-family="Times,serif" font-size="14.00"> static(visible)</text>
</g>
<!-- n22&#45;&gt;n22 -->
<g id="edge4" class="edge"><title>n22&#45;&gt;n22</title>
<path fill="none" stroke="black" d="M4758.11,-141.045C4770.79,-140.087 4779.94,-136.942 4779.94,-131.61 4779.94,-127.861 4775.42,-125.193 4768.32,-123.607"/>
<polygon fill="black" stroke="black" points="4768.5,-120.097 4758.11,-122.175 4767.52,-127.029 4768.5,-120.097"/>
<text text-anchor="middle" x="4864.44" y="-142.91" font-family="Times,serif" font-size="14.00"> end(communicated_soil_data)</text>
<text text-anchor="middle" x="4864.44" y="-127.91" font-family="Times,serif" font-size="14.00">init(at_soil_sample)</text>
<text text-anchor="middle" x="4864.44" y="-112.91" font-family="Times,serif" font-size="14.00">init(at_rock_sample)</text>
</g>
<!-- n23 -->
<g id="node23" class="node"><title>n23</title>
<ellipse fill="none" stroke="black" cx="641.302" cy="-236.35" rx="67.7647" ry="26.7407"/>
<text text-anchor="middle" x="641.302" y="-240.15" font-family="Times,serif" font-size="14.00">&lt;objective11&gt;</text>
<text text-anchor="middle" x="641.302" y="-225.15" font-family="Times,serif" font-size="14.00">objective</text>
</g>
<!-- n23&#45;&gt;n4 -->
<g id="edge17" class="edge"><title>n23&#45;&gt;n4</title>
<path fill="none" stroke="black" d="M586.132,-220.48C568.143,-216.204 547.99,-212.015 529.302,-209.48 506.05,-206.326 123.538,-208.423 107.302,-191.48 102.69,-186.667 103.056,-181.619 107.302,-176.48 234.146,-22.9927 874.119,-85.6641 1465.3,-71.7401 2729.13,-41.9735 4271.46,-30.6233 4623.44,-28.3278"/>
<polygon fill="black" stroke="black" points="4623.53,-31.8274 4633.5,-28.2625 4623.48,-24.8275 4623.53,-31.8274"/>
<text text-anchor="middle" x="307.302" y="-127.91" font-family="Times,serif" font-size="14.00"> static(visible_from)</text>
</g>
<!-- n23&#45;&gt;n15 -->
<g id="edge8" class="edge"><title>n23&#45;&gt;n15</title>
<path fill="none" stroke="black" d="M585.468,-220.962C567.619,-216.764 547.716,-212.499 529.302,-209.48 488.978,-202.868 373.746,-221.756 346.302,-191.48 341.825,-186.541 341.931,-181.514 346.302,-176.48 377.491,-140.567 510.923,-133.254 592.223,-132.221"/>
<polygon fill="black" stroke="black" points="592.392,-135.72 602.357,-132.122 592.323,-128.72 592.392,-135.72"/>
<text text-anchor="middle" x="438.302" y="-180.28" font-family="Times,serif" font-size="14.00"> end(communicated_image_data)</text>
</g>
<!-- n23&#45;&gt;n21 -->
<g id="edge52" class="edge"><title>n23&#45;&gt;n21</title>
<path fill="none" stroke="black" d="M687.869,-216.761C703.958,-209.642 721.822,-200.939 737.302,-191.48 746.483,-185.871 746.172,-180.103 756.302,-176.48 806.738,-158.441 1666.76,-160.02 1720.3,-158.48 1940.02,-152.162 2200.38,-140.976 2320.08,-135.625"/>
<polygon fill="black" stroke="black" points="2320.35,-139.117 2330.18,-135.172 2320.03,-132.124 2320.35,-139.117"/>
<text text-anchor="middle" x="848.302" y="-180.28" font-family="Times,serif" font-size="14.00"> end(communicated_image_data)</text>
</g>
<!-- n23&#45;&gt;n22 -->
<g id="edge57" class="edge"><title>n23&#45;&gt;n22</title>
<path fill="none" stroke="black" d="M707.677,-230.674C797.217,-224.584 961.698,-214.164 1102.3,-209.48 1149.72,-207.901 2765.56,-207.277 2810.3,-191.48 2820.45,-187.898 2819.17,-180.088 2829.3,-176.48 2889.66,-154.998 3918.26,-160.137 3982.3,-158.48 4217.17,-152.404 4495.24,-141.211 4624.9,-135.759"/>
<polygon fill="black" stroke="black" points="4625.26,-139.247 4635.1,-135.329 4624.96,-132.254 4625.26,-139.247"/>
<text text-anchor="middle" x="2885.3" y="-180.28" font-family="Times,serif" font-size="14.00"> static(visible_from)</text>
</g>
<!-- n24 -->
<g id="node24" class="node"><title>n24</title>
<ellipse fill="none" stroke="black" cx="4663.3" cy="-236.35" rx="67.7647" ry="26.7407"/>
<text text-anchor="middle" x="4663.3" y="-240.15" font-family="Times,serif" font-size="14.00">&lt;objective12&gt;</text>
<text text-anchor="middle" x="4663.3" y="-225.15" font-family="Times,serif" font-size="14.00">objective</text>
</g>
<!-- n24&#45;&gt;n22 -->
<g id="edge35" class="edge"><title>n24&#45;&gt;n22</title>
<path fill="none" stroke="black" d="M4672.04,-209.69C4676.35,-197.063 4681.6,-181.645 4686.27,-167.925"/>
<polygon fill="black" stroke="black" points="4689.64,-168.894 4689.55,-158.3 4683.01,-166.637 4689.64,-168.894"/>
<text text-anchor="middle" x="4739.3" y="-180.28" font-family="Times,serif" font-size="14.00"> static(visible_from)</text>
</g>
<!-- n25 -->
<g id="node25" class="node"><title>n25</title>
<ellipse fill="none" stroke="black" cx="5311.3" cy="-341.09" rx="56.6372" ry="26.7407"/>
<text text-anchor="middle" x="5311.3" y="-344.89" font-family="Times,serif" font-size="14.00">&lt;camera1&gt;</text>
<text text-anchor="middle" x="5311.3" y="-329.89" font-family="Times,serif" font-size="14.00">camera</text>
</g>
<!-- n25&#45;&gt;n14 -->
<g id="edge56" class="edge"><title>n25&#45;&gt;n14</title>
<path fill="none" stroke="black" d="M5351.92,-322.088C5360.18,-319.02 5368.92,-316.192 5377.3,-314.22 5502.39,-284.808 5827.8,-290.84 5953.3,-263.22 5959.04,-261.958 5964.94,-260.361 5970.78,-258.581"/>
<polygon fill="black" stroke="black" points="5972.06,-261.844 5980.5,-255.442 5969.91,-255.183 5972.06,-261.844"/>
<text text-anchor="middle" x="5852.8" y="-285.02" font-family="Times,serif" font-size="14.00"> static(calibration_target)</text>
</g>
<!-- n25&#45;&gt;n15 -->
<g id="edge7" class="edge"><title>n25&#45;&gt;n15</title>
<path fill="none" stroke="black" d="M5254.45,-339.369C4975.93,-335.787 3727.68,-319.158 2705.3,-296.22 2467.49,-290.885 2408.13,-285.818 2170.3,-281.22 2076.2,-279.401 567.574,-286.186 476.302,-263.22 409.648,-246.449 374.887,-250.283 339.302,-191.48 335.851,-185.777 334.923,-181.507 339.302,-176.48 371.445,-139.583 509.446,-132.692 592.404,-131.983"/>
<polygon fill="black" stroke="black" points="592.506,-135.482 602.486,-131.925 592.466,-128.482 592.506,-135.482"/>
<text text-anchor="middle" x="520.302" y="-232.65" font-family="Times,serif" font-size="14.00"> static(supports)</text>
</g>
<!-- n25&#45;&gt;n19 -->
<g id="edge22" class="edge"><title>n25&#45;&gt;n19</title>
<path fill="none" stroke="black" d="M5351.13,-321.98C5359.61,-318.837 5368.62,-316.009 5377.3,-314.22 5496.64,-289.632 5803.6,-302.094 5925.3,-296.22 6155.72,-285.099 6217.97,-312.633 6443.3,-263.22 6529.85,-244.242 6579.18,-264.54 6629.3,-191.48 6634.2,-184.346 6634.58,-175.682 6632.84,-167.219"/>
<polygon fill="black" stroke="black" points="6636.16,-166.091 6629.99,-157.481 6629.44,-168.062 6636.16,-166.091"/>
<text text-anchor="middle" x="6657.3" y="-232.65" font-family="Times,serif" font-size="14.00"> static(supports)</text>
</g>
<!-- n25&#45;&gt;n21 -->
<g id="edge51" class="edge"><title>n25&#45;&gt;n21</title>
<path fill="none" stroke="black" d="M5254.5,-339.8C4985.88,-338.103 3849.98,-327.171 3706.3,-263.22 3656.71,-241.145 3670.03,-198.25 3620.3,-176.48 3513.34,-129.658 2694.66,-130.758 2453.15,-132.124"/>
<polygon fill="black" stroke="black" points="2453.09,-128.624 2443.11,-132.183 2453.13,-135.624 2453.09,-128.624"/>
<text text-anchor="middle" x="3750.3" y="-232.65" font-family="Times,serif" font-size="14.00"> static(supports)</text>
</g>
<!-- n25&#45;&gt;n29 -->
<g id="edge25" class="edge"><title>n25&#45;&gt;n29</title>
<path fill="none" stroke="black" d="M5309.77,-314.213C5310.25,-303.337 5312.35,-290.974 5318.3,-281.22 5323.3,-273.026 5330.48,-266.018 5338.25,-260.164"/>
<polygon fill="black" stroke="black" points="5340.58,-262.809 5346.84,-254.264 5336.62,-257.038 5340.58,-262.809"/>
<text text-anchor="middle" x="5364.8" y="-285.02" font-family="Times,serif" font-size="14.00"> static(on_board)</text>
</g>
<!-- n26 -->
<g id="node26" class="node"><title>n26</title>
<ellipse fill="none" stroke="black" cx="1546.3" cy="-236.35" rx="67.7647" ry="26.7407"/>
<text text-anchor="middle" x="1546.3" y="-240.15" font-family="Times,serif" font-size="14.00">&lt;objective17&gt;</text>
<text text-anchor="middle" x="1546.3" y="-225.15" font-family="Times,serif" font-size="14.00">objective</text>
</g>
<!-- n26&#45;&gt;n4 -->
<g id="edge27" class="edge"><title>n26&#45;&gt;n4</title>
<path fill="none" stroke="black" d="M1478.78,-232.991C1424.63,-228.294 1361.44,-214.774 1386.3,-176.48 1536.11,54.2825 1674.79,-92.284 2373.3,-71.7401 3258.85,-45.6953 4334.68,-32.0579 4623.19,-28.7014"/>
<polygon fill="black" stroke="black" points="4623.56,-32.1974 4633.52,-28.5817 4623.48,-25.1979 4623.56,-32.1974"/>
<text text-anchor="middle" x="1498.3" y="-127.91" font-family="Times,serif" font-size="14.00"> static(visible_from)</text>
</g>
<!-- n26&#45;&gt;n15 -->
<g id="edge21" class="edge"><title>n26&#45;&gt;n15</title>
<path fill="none" stroke="black" d="M1479.67,-231.159C1388.2,-224.781 1228.87,-211.254 1174.3,-191.48 1162.83,-187.323 1162.84,-180.471 1151.3,-176.48 1073.25,-149.47 835.047,-138.322 719.922,-134.419"/>
<polygon fill="black" stroke="black" points="719.952,-130.918 709.842,-134.085 719.721,-137.914 719.952,-130.918"/>
<text text-anchor="middle" x="1266.3" y="-180.28" font-family="Times,serif" font-size="14.00"> end(communicated_image_data)</text>
</g>
<!-- n26&#45;&gt;n21 -->
<g id="edge41" class="edge"><title>n26&#45;&gt;n21</title>
<path fill="none" stroke="black" d="M1574.24,-211.836C1591.31,-198.921 1614.23,-184.032 1637.3,-176.48 1762.98,-135.34 2160.46,-131.862 2319.54,-132.184"/>
<polygon fill="black" stroke="black" points="2319.66,-135.684 2329.67,-132.21 2319.68,-128.684 2319.66,-135.684"/>
<text text-anchor="middle" x="1729.3" y="-180.28" font-family="Times,serif" font-size="14.00"> end(communicated_image_data)</text>
</g>
<!-- n26&#45;&gt;n22 -->
<g id="edge44" class="edge"><title>n26&#45;&gt;n22</title>
<path fill="none" stroke="black" d="M1605.54,-222.991C1633.28,-217.774 1666.84,-212.27 1697.3,-209.48 1773.82,-202.471 3007.88,-217.153 3080.3,-191.48 3090.44,-187.886 3089.18,-180.112 3099.3,-176.48 3145.49,-159.917 3933.26,-159.866 3982.3,-158.48 4217.16,-151.844 4495.23,-140.917 4624.9,-135.644"/>
<polygon fill="black" stroke="black" points="4625.25,-139.132 4635.1,-135.228 4624.96,-132.138 4625.25,-139.132"/>
<text text-anchor="middle" x="3155.3" y="-180.28" font-family="Times,serif" font-size="14.00"> static(visible_from)</text>
</g>
<!-- n27 -->
<g id="node27" class="node"><title>n27</title>
<ellipse fill="none" stroke="black" cx="4812.3" cy="-236.35" rx="62.8651" ry="26.7407"/>
<text text-anchor="middle" x="4812.3" y="-240.15" font-family="Times,serif" font-size="14.00">&lt;objective3&gt;</text>
<text text-anchor="middle" x="4812.3" y="-225.15" font-family="Times,serif" font-size="14.00">objective</text>
</g>
<!-- n27&#45;&gt;n22 -->
<g id="edge62" class="edge"><title>n27&#45;&gt;n22</title>
<path fill="none" stroke="black" d="M4811.71,-209.309C4810.24,-198.148 4806.82,-185.608 4799.3,-176.48 4789.58,-164.68 4776.07,-155.971 4762.1,-149.573"/>
<polygon fill="black" stroke="black" points="4763.45,-146.347 4752.88,-145.694 4760.74,-152.799 4763.45,-146.347"/>
<text text-anchor="middle" x="4863.3" y="-180.28" font-family="Times,serif" font-size="14.00"> static(visible_from)</text>
</g>
<!-- n28 -->
<g id="node28" class="node"><title>n28</title>
<ellipse fill="none" stroke="black" cx="4961.3" cy="-236.35" rx="67.7647" ry="26.7407"/>
<text text-anchor="middle" x="4961.3" y="-240.15" font-family="Times,serif" font-size="14.00">&lt;objective13&gt;</text>
<text text-anchor="middle" x="4961.3" y="-225.15" font-family="Times,serif" font-size="14.00">objective</text>
</g>
<!-- n28&#45;&gt;n22 -->
<g id="edge39" class="edge"><title>n28&#45;&gt;n22</title>
<path fill="none" stroke="black" d="M4950.6,-209.788C4944.34,-197.886 4935.29,-184.595 4923.3,-176.48 4898.59,-159.749 4825.59,-147.563 4769.38,-140.34"/>
<polygon fill="black" stroke="black" points="4769.81,-136.867 4759.45,-139.093 4768.93,-143.812 4769.81,-136.867"/>
<text text-anchor="middle" x="4995.3" y="-180.28" font-family="Times,serif" font-size="14.00"> static(visible_from)</text>
</g>
<!-- n29&#45;&gt;n22 -->
<g id="edge34" class="edge"><title>n29&#45;&gt;n22</title>
<path fill="none" stroke="black" d="M5431.45,-234.108C5496.98,-230.832 5601.72,-219.006 5561.3,-176.48 5534.29,-148.059 4975.67,-136.799 4771.88,-133.626"/>
<polygon fill="black" stroke="black" points="4771.92,-130.127 4761.87,-133.473 4771.81,-137.126 4771.92,-130.127"/>
<text text-anchor="middle" x="5589.8" y="-180.28" font-family="Times,serif" font-size="14.00"> init(at)</text>
</g>
<!-- n29&#45;&gt;n29 -->
<g id="edge5" class="edge"><title>n29&#45;&gt;n29</title>
<path fill="none" stroke="black" d="M5428.4,-246.015C5440.34,-245.462 5449.39,-242.241 5449.39,-236.35 5449.39,-232.3 5445.11,-229.512 5438.56,-227.986"/>
<polygon fill="black" stroke="black" points="5438.76,-224.483 5428.4,-226.686 5437.87,-231.427 5438.76,-224.483"/>
<text text-anchor="middle" x="5542.89" y="-247.65" font-family="Times,serif" font-size="14.00"> static(equipped_for_imaging)</text>
<text text-anchor="middle" x="5542.89" y="-232.65" font-family="Times,serif" font-size="14.00">init(available)</text>
<text text-anchor="middle" x="5542.89" y="-217.65" font-family="Times,serif" font-size="14.00">static(equipped_for_soil_analysis)</text>
</g>
<!-- n30 -->
<g id="node30" class="node"><title>n30</title>
<ellipse fill="none" stroke="black" cx="6366.3" cy="-236.35" rx="67.7647" ry="26.7407"/>
<text text-anchor="middle" x="6366.3" y="-240.15" font-family="Times,serif" font-size="14.00">&lt;objective18&gt;</text>
<text text-anchor="middle" x="6366.3" y="-225.15" font-family="Times,serif" font-size="14.00">objective</text>
</g>
<!-- n30&#45;&gt;n4 -->
<g id="edge36" class="edge"><title>n30&#45;&gt;n4</title>
<path fill="none" stroke="black" d="M6381.67,-210.07C6397.17,-180.955 6415.39,-133.457 6389.3,-104.74 6334.17,-44.0475 5090.33,-30.7597 4771.32,-28.3457"/>
<polygon fill="black" stroke="black" points="4771.28,-24.8455 4761.26,-28.2709 4771.23,-31.8453 4771.28,-24.8455"/>
<text text-anchor="middle" x="6458.3" y="-127.91" font-family="Times,serif" font-size="14.00"> static(visible_from)</text>
</g>
<!-- n30&#45;&gt;n19 -->
<g id="edge45" class="edge"><title>n30&#45;&gt;n19</title>
<path fill="none" stroke="black" d="M6396.48,-211.9C6416.41,-196.589 6439.82,-178.984 6445.3,-176.48 6479.25,-160.985 6491.15,-167.693 6527.3,-158.48 6539.61,-155.345 6552.78,-151.685 6565.12,-148.121"/>
<polygon fill="black" stroke="black" points="6566.18,-151.457 6574.8,-145.296 6564.22,-144.737 6566.18,-151.457"/>
<text text-anchor="middle" x="6537.3" y="-180.28" font-family="Times,serif" font-size="14.00"> end(communicated_image_data)</text>
</g>
<!-- n30&#45;&gt;n21 -->
<g id="edge29" class="edge"><title>n30&#45;&gt;n21</title>
<path fill="none" stroke="black" d="M6313.85,-219.19C6298.95,-215.272 6282.61,-211.604 6267.3,-209.48 6070.48,-182.172 5569.11,-225.282 5373.3,-191.48 5352.53,-187.894 5349.09,-179.983 5328.3,-176.48 5247,-162.78 3926.74,-159.712 3844.3,-158.48 3307.54,-150.463 2659.67,-137.978 2453.02,-133.927"/>
<polygon fill="black" stroke="black" points="2453,-130.426 2442.93,-133.729 2452.86,-137.425 2453,-130.426"/>
<text text-anchor="middle" x="5465.3" y="-180.28" font-family="Times,serif" font-size="14.00"> end(communicated_image_data)</text>
</g>
<!-- n30&#45;&gt;n22 -->
<g id="edge30" class="edge"><title>n30&#45;&gt;n22</title>
<path fill="none" stroke="black" d="M6327.16,-214.245C6299.78,-200.656 6261.87,-184.148 6226.3,-176.48 6152.85,-160.645 5625.41,-160.62 5550.3,-158.48 5262.29,-150.273 4919.54,-139.586 4771.92,-134.938"/>
<polygon fill="black" stroke="black" points="4771.73,-131.431 4761.63,-134.614 4771.51,-138.427 4771.73,-131.431"/>
<text text-anchor="middle" x="6329.3" y="-180.28" font-family="Times,serif" font-size="14.00"> static(visible_from)</text>
</g>
</g>
</svg>
