<?xml version="1.0" encoding="UTF-8" standalone="no"?>
<!DOCTYPE svg PUBLIC "-//W3C//DTD SVG 1.1//EN"
 "http://www.w3.org/Graphics/SVG/1.1/DTD/svg11.dtd">
<!-- Generated by graphviz version 2.38.0 (20140413.2041)
 -->
<!-- Title: Struc Pages: 1 -->
<svg width="1138pt" height="400pt"
 viewBox="0.00 0.00 1137.79 399.96" xmlns="http://www.w3.org/2000/svg" xmlns:xlink="http://www.w3.org/1999/xlink">
<g id="graph0" class="graph" transform="scale(1 1) rotate(0) translate(4 395.96)">
<title>Struc</title>
<polygon fill="white" stroke="none" points="-4,4 -4,-395.96 1133.79,-395.96 1133.79,4 -4,4"/>
<!-- n1 -->
<g id="node1" class="node"><title>n1</title>
<ellipse fill="none" stroke="black" cx="356.175" cy="-135.61" rx="48.1603" ry="26.7574"/>
<ellipse fill="none" stroke="black" cx="356.175" cy="-135.61" rx="52.1667" ry="30.7407"/>
<text text-anchor="middle" x="356.175" y="-139.41" font-family="Times,serif" font-size="14.00">&lt;colour&gt;</text>
<text text-anchor="middle" x="356.175" y="-124.41" font-family="Times,serif" font-size="14.00">mode</text>
</g>
<!-- n2 -->
<g id="node2" class="node"><title>n2</title>
<ellipse fill="none" stroke="black" cx="67.1751" cy="-248.35" rx="48.1667" ry="26.7407"/>
<text text-anchor="middle" x="67.1751" y="-252.15" font-family="Times,serif" font-size="14.00">&lt;rover0&gt;</text>
<text text-anchor="middle" x="67.1751" y="-237.15" font-family="Times,serif" font-size="14.00">rover</text>
</g>
<!-- n2&#45;&gt;n2 -->
<g id="edge1" class="edge"><title>n2&#45;&gt;n2</title>
<path fill="none" stroke="black" d="M111.65,-258.786C123.898,-258.282 133.258,-254.803 133.258,-248.35 133.258,-243.813 128.631,-240.746 121.625,-239.15"/>
<polygon fill="black" stroke="black" points="122.004,-235.67 111.65,-237.914 121.144,-242.617 122.004,-235.67"/>
<text text-anchor="middle" x="226.758" y="-259.65" font-family="Times,serif" font-size="14.00"> static(equipped_for_imaging)</text>
<text text-anchor="middle" x="226.758" y="-244.65" font-family="Times,serif" font-size="14.00">init(available)</text>
<text text-anchor="middle" x="226.758" y="-229.65" font-family="Times,serif" font-size="14.00">static(equipped_for_soil_analysis)</text>
</g>
<!-- n8 -->
<g id="node8" class="node"><title>n8</title>
<ellipse fill="none" stroke="black" cx="591.175" cy="-26.8701" rx="63.7795" ry="26.7407"/>
<text text-anchor="middle" x="591.175" y="-30.6701" font-family="Times,serif" font-size="14.00">&lt;waypoint0&gt;</text>
<text text-anchor="middle" x="591.175" y="-15.6701" font-family="Times,serif" font-size="14.00">waypoint</text>
</g>
<!-- n2&#45;&gt;n8 -->
<g id="edge15" class="edge"><title>n2&#45;&gt;n8</title>
<path fill="none" stroke="black" d="M90.066,-224.551C123.297,-192.785 188.172,-135.644 254.175,-104.74 340.422,-64.3581 449.242,-44.5023 519.506,-35.2422"/>
<polygon fill="black" stroke="black" points="520.111,-38.6934 529.585,-33.9517 519.222,-31.7501 520.111,-38.6934"/>
<text text-anchor="middle" x="274.675" y="-131.91" font-family="Times,serif" font-size="14.00"> init(at)</text>
</g>
<!-- n3 -->
<g id="node3" class="node"><title>n3</title>
<ellipse fill="none" stroke="black" cx="67.1751" cy="-361.09" rx="67.3507" ry="26.7407"/>
<text text-anchor="middle" x="67.1751" y="-364.89" font-family="Times,serif" font-size="14.00">&lt;rover0store&gt;</text>
<text text-anchor="middle" x="67.1751" y="-349.89" font-family="Times,serif" font-size="14.00">store</text>
</g>
<!-- n3&#45;&gt;n2 -->
<g id="edge11" class="edge"><title>n3&#45;&gt;n2</title>
<path fill="none" stroke="black" d="M67.1751,-334.127C67.1751,-319.653 67.1751,-301.403 67.1751,-285.546"/>
<polygon fill="black" stroke="black" points="70.6752,-285.535 67.1751,-275.535 63.6752,-285.535 70.6752,-285.535"/>
<text text-anchor="middle" x="110.175" y="-301.02" font-family="Times,serif" font-size="14.00"> static(store_of)</text>
</g>
<!-- n3&#45;&gt;n3 -->
<g id="edge2" class="edge"><title>n3&#45;&gt;n3</title>
<path fill="none" stroke="black" d="M129.57,-371.251C142.798,-370.22 152.35,-366.833 152.35,-361.09 152.35,-356.918 147.308,-353.99 139.476,-352.304"/>
<polygon fill="black" stroke="black" points="139.956,-348.837 129.57,-350.929 138.994,-355.771 139.956,-348.837"/>
<text text-anchor="middle" x="185.35" y="-357.39" font-family="Times,serif" font-size="14.00"> init(empty)</text>
</g>
<!-- n4 -->
<g id="node4" class="node"><title>n4</title>
<ellipse fill="none" stroke="black" cx="562.175" cy="-248.35" rx="62.8691" ry="26.7574"/>
<ellipse fill="none" stroke="black" cx="562.175" cy="-248.35" rx="66.8651" ry="30.7407"/>
<text text-anchor="middle" x="562.175" y="-252.15" font-family="Times,serif" font-size="14.00">&lt;objective1&gt;</text>
<text text-anchor="middle" x="562.175" y="-237.15" font-family="Times,serif" font-size="14.00">objective</text>
</g>
<!-- n4&#45;&gt;n1 -->
<g id="edge13" class="edge"><title>n4&#45;&gt;n1</title>
<path fill="none" stroke="black" stroke-dasharray="5,2" d="M504.64,-232.304C454.216,-219.025 388.56,-201.471 386.175,-199.48 378.595,-193.153 372.799,-184.467 368.419,-175.571"/>
<polygon fill="black" stroke="black" points="371.579,-174.062 364.353,-166.314 365.17,-176.877 371.579,-174.062"/>
<text text-anchor="middle" x="478.175" y="-188.28" font-family="Times,serif" font-size="14.00"> end(communicated_image_data)</text>
</g>
<!-- n5 -->
<g id="node5" class="node"><title>n5</title>
<ellipse fill="none" stroke="black" cx="490.175" cy="-135.61" rx="63.7795" ry="26.7407"/>
<text text-anchor="middle" x="490.175" y="-139.41" font-family="Times,serif" font-size="14.00">&lt;waypoint1&gt;</text>
<text text-anchor="middle" x="490.175" y="-124.41" font-family="Times,serif" font-size="14.00">waypoint</text>
</g>
<!-- n4&#45;&gt;n5 -->
<g id="edge16" class="edge"><title>n4&#45;&gt;n5</title>
<path fill="none" stroke="black" stroke-dasharray="5,2" d="M575.894,-218.063C579.072,-206.957 580.037,-194.568 574.175,-184.48 567.853,-173.601 558.032,-164.989 547.302,-158.249"/>
<polygon fill="black" stroke="black" points="548.968,-155.17 538.551,-153.237 545.489,-161.244 548.968,-155.17"/>
<text text-anchor="middle" x="635.175" y="-188.28" font-family="Times,serif" font-size="14.00"> static(visible_from)</text>
</g>
<!-- n4&#45;&gt;n8 -->
<g id="edge6" class="edge"><title>n4&#45;&gt;n8</title>
<path fill="none" stroke="black" d="M626.493,-239.545C670.58,-230.323 725.404,-210.23 750.175,-166.48 763.695,-142.602 764.756,-127.985 750.175,-104.74 729.859,-72.353 691.613,-53.279 657.722,-42.2327"/>
<polygon fill="black" stroke="black" points="658.422,-38.7861 647.835,-39.1911 656.364,-45.4767 658.422,-38.7861"/>
<text text-anchor="middle" x="817.175" y="-131.91" font-family="Times,serif" font-size="14.00"> static(visible_from)</text>
</g>
<!-- n5&#45;&gt;n5 -->
<g id="edge3" class="edge"><title>n5&#45;&gt;n5</title>
<path fill="none" stroke="black" d="M549.251,-145.828C562.307,-144.868 571.815,-141.462 571.815,-135.61 571.815,-131.404 566.903,-128.462 559.292,-126.783"/>
<polygon fill="black" stroke="black" points="559.637,-123.298 549.251,-125.393 558.677,-130.231 559.637,-123.298"/>
<text text-anchor="middle" x="656.315" y="-139.41" font-family="Times,serif" font-size="14.00"> end(communicated_soil_data)</text>
<text text-anchor="middle" x="656.315" y="-124.41" font-family="Times,serif" font-size="14.00">init(at_soil_sample)</text>
</g>
<!-- n5&#45;&gt;n8 -->
<g id="edge9" class="edge"><title>n5&#45;&gt;n8</title>
<path fill="none" stroke="black" d="M484.486,-108.54C483.288,-96.423 484.105,-82.3768 491.175,-71.7401 499.446,-59.2968 512.103,-50.3571 525.66,-43.9432"/>
<polygon fill="black" stroke="black" points="527.324,-47.0388 535.147,-39.8944 524.576,-40.6006 527.324,-47.0388"/>
<text text-anchor="middle" x="530.175" y="-75.5401" font-family="Times,serif" font-size="14.00"> static(visible)</text>
</g>
<!-- n6 -->
<g id="node6" class="node"><title>n6</title>
<ellipse fill="none" stroke="black" cx="356.175" cy="-361.09" rx="56.6326" ry="26.7574"/>
<ellipse fill="none" stroke="black" cx="356.175" cy="-361.09" rx="60.6372" ry="30.7407"/>
<text text-anchor="middle" x="356.175" y="-364.89" font-family="Times,serif" font-size="14.00">&lt;camera1&gt;</text>
<text text-anchor="middle" x="356.175" y="-349.89" font-family="Times,serif" font-size="14.00">camera</text>
</g>
<!-- n6&#45;&gt;n1 -->
<g id="edge10" class="edge"><title>n6&#45;&gt;n1</title>
<path fill="none" stroke="black" stroke-dasharray="5,2" d="M356.175,-329.951C356.175,-290.353 356.175,-220.696 356.175,-176.689"/>
<polygon fill="black" stroke="black" points="359.675,-176.628 356.175,-166.628 352.675,-176.628 359.675,-176.628"/>
<text text-anchor="middle" x="400.175" y="-244.65" font-family="Times,serif" font-size="14.00"> static(supports)</text>
</g>
<!-- n6&#45;&gt;n2 -->
<g id="edge7" class="edge"><title>n6&#45;&gt;n2</title>
<path fill="none" stroke="black" d="M308.453,-341.804C255.176,-321.389 169.414,-288.527 115.781,-267.975"/>
<polygon fill="black" stroke="black" points="116.746,-264.597 106.156,-264.287 114.241,-271.133 116.746,-264.597"/>
<text text-anchor="middle" x="275.675" y="-301.02" font-family="Times,serif" font-size="14.00"> static(on_board)</text>
</g>
<!-- n6&#45;&gt;n4 -->
<g id="edge12" class="edge"><title>n6&#45;&gt;n4</title>
<path fill="none" stroke="black" stroke-dasharray="5,2" d="M396.874,-338.212C429.38,-320.737 475.148,-296.134 510.285,-277.245"/>
<polygon fill="black" stroke="black" points="512.282,-280.145 519.433,-272.327 508.968,-273.979 512.282,-280.145"/>
<text text-anchor="middle" x="540.675" y="-301.02" font-family="Times,serif" font-size="14.00"> static(calibration_target)</text>
</g>
<!-- n7 -->
<g id="node7" class="node"><title>n7</title>
<ellipse fill="none" stroke="black" cx="959.175" cy="-135.61" rx="51.7379" ry="26.7407"/>
<text text-anchor="middle" x="959.175" y="-139.41" font-family="Times,serif" font-size="14.00">&lt;general&gt;</text>
<text text-anchor="middle" x="959.175" y="-124.41" font-family="Times,serif" font-size="14.00">lander</text>
</g>
<!-- n7&#45;&gt;n7 -->
<g id="edge4" class="edge"><title>n7&#45;&gt;n7</title>
<path fill="none" stroke="black" d="M1007.01,-146.002C1019.43,-145.363 1028.79,-141.899 1028.79,-135.61 1028.79,-131.188 1024.16,-128.163 1017.1,-126.534"/>
<polygon fill="black" stroke="black" points="1017.38,-123.041 1007.01,-125.218 1016.47,-129.982 1017.38,-123.041"/>
<text text-anchor="middle" x="1079.29" y="-131.91" font-family="Times,serif" font-size="14.00"> init(channel_free)</text>
</g>
<!-- n7&#45;&gt;n8 -->
<g id="edge8" class="edge"><title>n7&#45;&gt;n8</title>
<path fill="none" stroke="black" d="M921.79,-116.813C912.524,-112.646 902.56,-108.369 893.175,-104.74 815.141,-74.5678 721.183,-52.7981 659.015,-40.2892"/>
<polygon fill="black" stroke="black" points="659.426,-36.8026 648.936,-38.2864 658.062,-43.6684 659.426,-36.8026"/>
<text text-anchor="middle" x="883.175" y="-75.5401" font-family="Times,serif" font-size="14.00"> static(at_lander)</text>
</g>
<!-- n8&#45;&gt;n5 -->
<g id="edge14" class="edge"><title>n8&#45;&gt;n5</title>
<path fill="none" stroke="black" d="M585.523,-53.8627C582.156,-64.8852 576.971,-77.3296 569.175,-86.7401 561.658,-95.8142 551.948,-103.623 541.923,-110.145"/>
<polygon fill="black" stroke="black" points="539.791,-107.347 533.08,-115.545 543.439,-113.321 539.791,-107.347"/>
<text text-anchor="middle" x="618.175" y="-75.5401" font-family="Times,serif" font-size="14.00"> static(visible)</text>
</g>
<!-- n8&#45;&gt;n8 -->
<g id="edge5" class="edge"><title>n8&#45;&gt;n8</title>
<path fill="none" stroke="black" d="M650.98,-36.3053C663.659,-35.3472 672.815,-32.2021 672.815,-26.8701 672.815,-23.121 668.288,-20.4531 661.193,-18.8664"/>
<polygon fill="black" stroke="black" points="661.369,-15.3569 650.98,-17.4349 660.397,-22.2891 661.369,-15.3569"/>
<text text-anchor="middle" x="757.315" y="-38.1701" font-family="Times,serif" font-size="14.00"> end(communicated_soil_data)</text>
<text text-anchor="middle" x="757.315" y="-23.1701" font-family="Times,serif" font-size="14.00">init(at_soil_sample)</text>
<text text-anchor="middle" x="757.315" y="-8.17006" font-family="Times,serif" font-size="14.00">init(at_rock_sample)</text>
</g>
</g>
</svg>
