<?xml version="1.0" encoding="UTF-8" standalone="no"?>
<!DOCTYPE svg PUBLIC "-//W3C//DTD SVG 1.1//EN"
 "http://www.w3.org/Graphics/SVG/1.1/DTD/svg11.dtd">
<!-- Generated by graphviz version 2.38.0 (20140413.2041)
 -->
<!-- Title: Struc Pages: 1 -->
<svg width="4317pt" height="376pt"
 viewBox="0.00 0.00 4317.29 375.96" xmlns="http://www.w3.org/2000/svg" xmlns:xlink="http://www.w3.org/1999/xlink">
<g id="graph0" class="graph" transform="scale(1 1) rotate(0) translate(4 371.96)">
<title>Struc</title>
<polygon fill="white" stroke="none" points="-4,4 -4,-371.96 4313.29,-371.96 4313.29,4 -4,4"/>
<!-- n1 -->
<g id="node1" class="node"><title>n1</title>
<ellipse fill="none" stroke="black" cx="3077.11" cy="-236.35" rx="51.7379" ry="26.7407"/>
<text text-anchor="middle" x="3077.11" y="-240.15" font-family="Times,serif" font-size="14.00">&lt;general&gt;</text>
<text text-anchor="middle" x="3077.11" y="-225.15" font-family="Times,serif" font-size="14.00">lander</text>
</g>
<!-- n1&#45;&gt;n1 -->
<g id="edge1" class="edge"><title>n1&#45;&gt;n1</title>
<path fill="none" stroke="black" d="M3125.59,-245.966C3137.69,-245.294 3146.73,-242.089 3146.73,-236.35 3146.73,-232.405 3142.46,-229.657 3135.86,-228.107"/>
<polygon fill="black" stroke="black" points="3135.97,-224.59 3125.59,-226.734 3135.04,-231.529 3135.97,-224.59"/>
<text text-anchor="middle" x="3197.23" y="-232.65" font-family="Times,serif" font-size="14.00"> init(channel_free)</text>
</g>
<!-- n6 -->
<g id="node6" class="node"><title>n6</title>
<ellipse fill="none" stroke="black" cx="2743.11" cy="-131.61" rx="63.7795" ry="26.7407"/>
<text text-anchor="middle" x="2743.11" y="-135.41" font-family="Times,serif" font-size="14.00">&lt;waypoint0&gt;</text>
<text text-anchor="middle" x="2743.11" y="-120.41" font-family="Times,serif" font-size="14.00">waypoint</text>
</g>
<!-- n1&#45;&gt;n6 -->
<g id="edge36" class="edge"><title>n1&#45;&gt;n6</title>
<path fill="none" stroke="black" d="M3073.58,-209.499C3070.61,-197.677 3065.15,-184.54 3055.11,-176.48 3019.42,-147.829 2897.08,-137.89 2816.61,-134.442"/>
<polygon fill="black" stroke="black" points="2816.66,-130.941 2806.53,-134.034 2816.38,-137.935 2816.66,-130.941"/>
<text text-anchor="middle" x="3113.11" y="-180.28" font-family="Times,serif" font-size="14.00"> static(at_lander)</text>
</g>
<!-- n2 -->
<g id="node2" class="node"><title>n2</title>
<ellipse fill="none" stroke="black" cx="1159.11" cy="-236.35" rx="62.8651" ry="26.7407"/>
<text text-anchor="middle" x="1159.11" y="-240.15" font-family="Times,serif" font-size="14.00">&lt;objective0&gt;</text>
<text text-anchor="middle" x="1159.11" y="-225.15" font-family="Times,serif" font-size="14.00">objective</text>
</g>
<!-- n4 -->
<g id="node4" class="node"><title>n4</title>
<ellipse fill="none" stroke="black" cx="480.114" cy="-131.61" rx="56.6372" ry="26.7407"/>
<text text-anchor="middle" x="480.114" y="-135.41" font-family="Times,serif" font-size="14.00">&lt;high_res&gt;</text>
<text text-anchor="middle" x="480.114" y="-120.41" font-family="Times,serif" font-size="14.00">mode</text>
</g>
<!-- n2&#45;&gt;n4 -->
<g id="edge39" class="edge"><title>n2&#45;&gt;n4</title>
<path fill="none" stroke="black" d="M1096.08,-235.178C939.903,-234.191 544.28,-228.068 498.114,-191.48 490.933,-185.789 486.543,-177.307 483.88,-168.542"/>
<polygon fill="black" stroke="black" points="487.251,-167.589 481.55,-158.659 480.438,-169.195 487.251,-167.589"/>
<text text-anchor="middle" x="590.114" y="-180.28" font-family="Times,serif" font-size="14.00"> end(communicated_image_data)</text>
</g>
<!-- n5 -->
<g id="node5" class="node"><title>n5</title>
<ellipse fill="none" stroke="black" cx="2642.11" cy="-26.8701" rx="63.7795" ry="26.7407"/>
<text text-anchor="middle" x="2642.11" y="-30.6701" font-family="Times,serif" font-size="14.00">&lt;waypoint1&gt;</text>
<text text-anchor="middle" x="2642.11" y="-15.6701" font-family="Times,serif" font-size="14.00">waypoint</text>
</g>
<!-- n2&#45;&gt;n5 -->
<g id="edge41" class="edge"><title>n2&#45;&gt;n5</title>
<path fill="none" stroke="black" d="M1131.85,-211.874C1122.2,-200.74 1115.62,-187.497 1124.11,-176.48 1200.72,-77.1364 1273.25,-124.643 1397.11,-104.74 1837.44,-33.9872 2375.02,-27.323 2568.42,-27.4222"/>
<polygon fill="black" stroke="black" points="2568.47,-30.9222 2578.47,-27.4337 2568.48,-23.9222 2568.47,-30.9222"/>
<text text-anchor="middle" x="1453.11" y="-127.91" font-family="Times,serif" font-size="14.00"> static(visible_from)</text>
</g>
<!-- n2&#45;&gt;n6 -->
<g id="edge40" class="edge"><title>n2&#45;&gt;n6</title>
<path fill="none" stroke="black" d="M1215.94,-224.74C1248.87,-219.085 1291.18,-212.656 1329.11,-209.48 1391.24,-204.279 2392.39,-212.397 2451.11,-191.48 2461.25,-187.87 2460.26,-180.806 2470.11,-176.48 2533.73,-148.542 2612.68,-138.172 2669.29,-134.435"/>
<polygon fill="black" stroke="black" points="2669.82,-137.91 2679.59,-133.812 2669.4,-130.922 2669.82,-137.91"/>
<text text-anchor="middle" x="2526.11" y="-180.28" font-family="Times,serif" font-size="14.00"> static(visible_from)</text>
</g>
<!-- n18 -->
<g id="node18" class="node"><title>n18</title>
<ellipse fill="none" stroke="black" cx="1566.11" cy="-131.61" rx="48.1667" ry="26.7407"/>
<text text-anchor="middle" x="1566.11" y="-135.41" font-family="Times,serif" font-size="14.00">&lt;colour&gt;</text>
<text text-anchor="middle" x="1566.11" y="-120.41" font-family="Times,serif" font-size="14.00">mode</text>
</g>
<!-- n2&#45;&gt;n18 -->
<g id="edge18" class="edge"><title>n2&#45;&gt;n18</title>
<path fill="none" stroke="black" d="M1216.6,-225.256C1250.04,-218.211 1292.48,-207.219 1328.11,-191.48 1339.28,-186.549 1339.82,-181.115 1351.11,-176.48 1402.28,-155.472 1464.57,-144.183 1508.9,-138.345"/>
<polygon fill="black" stroke="black" points="1509.44,-141.805 1518.92,-137.078 1508.56,-134.86 1509.44,-141.805"/>
<text text-anchor="middle" x="1443.11" y="-180.28" font-family="Times,serif" font-size="14.00"> end(communicated_image_data)</text>
</g>
<!-- n3 -->
<g id="node3" class="node"><title>n3</title>
<ellipse fill="none" stroke="black" cx="169.114" cy="-236.35" rx="62.8651" ry="26.7407"/>
<text text-anchor="middle" x="169.114" y="-240.15" font-family="Times,serif" font-size="14.00">&lt;objective3&gt;</text>
<text text-anchor="middle" x="169.114" y="-225.15" font-family="Times,serif" font-size="14.00">objective</text>
</g>
<!-- n3&#45;&gt;n4 -->
<g id="edge13" class="edge"><title>n3&#45;&gt;n4</title>
<path fill="none" stroke="black" d="M121.355,-218.825C100.7,-210.62 79.9141,-200.548 74.1138,-191.48 70.5214,-185.864 69.5569,-181.346 74.1138,-176.48 94.9686,-154.21 317.86,-162.422 348.114,-158.48 371.709,-155.406 397.434,-150.68 419.854,-146.105"/>
<polygon fill="black" stroke="black" points="420.823,-149.479 429.903,-144.02 419.401,-142.625 420.823,-149.479"/>
<text text-anchor="middle" x="166.114" y="-180.28" font-family="Times,serif" font-size="14.00"> end(communicated_image_data)</text>
</g>
<!-- n3&#45;&gt;n5 -->
<g id="edge20" class="edge"><title>n3&#45;&gt;n5</title>
<path fill="none" stroke="black" d="M122.678,-218.07C97.4173,-208.204 70.599,-196.773 67.1138,-191.48 39.7316,-149.896 48.8058,-148.464 134.114,-104.74 236.597,-52.2136 276.266,-80.2078 391.114,-71.7401 828.776,-39.4716 2230.53,-30.0585 2568.35,-28.2327"/>
<polygon fill="black" stroke="black" points="2568.53,-31.7319 2578.51,-28.1784 2568.49,-24.732 2568.53,-31.7319"/>
<text text-anchor="middle" x="190.114" y="-127.91" font-family="Times,serif" font-size="14.00"> static(visible_from)</text>
</g>
<!-- n3&#45;&gt;n6 -->
<g id="edge12" class="edge"><title>n3&#45;&gt;n6</title>
<path fill="none" stroke="black" d="M218.738,-219.692C234.087,-215.544 251.157,-211.627 267.114,-209.48 372.502,-195.3 2080.82,-226.827 2181.11,-191.48 2191.26,-187.904 2190.1,-180.415 2200.11,-176.48 2283.57,-143.683 2541.29,-135.403 2669.34,-133.314"/>
<polygon fill="black" stroke="black" points="2669.51,-136.812 2679.46,-133.158 2669.4,-129.813 2669.51,-136.812"/>
<text text-anchor="middle" x="2256.11" y="-180.28" font-family="Times,serif" font-size="14.00"> static(visible_from)</text>
</g>
<!-- n5&#45;&gt;n5 -->
<g id="edge2" class="edge"><title>n5&#45;&gt;n5</title>
<path fill="none" stroke="black" d="M2701.92,-36.3053C2714.6,-35.3472 2723.75,-32.2021 2723.75,-26.8701 2723.75,-23.121 2719.23,-20.4531 2712.13,-18.8664"/>
<polygon fill="black" stroke="black" points="2712.31,-15.3569 2701.92,-17.4349 2711.34,-22.2891 2712.31,-15.3569"/>
<text text-anchor="middle" x="2808.25" y="-30.6701" font-family="Times,serif" font-size="14.00"> end(communicated_soil_data)</text>
<text text-anchor="middle" x="2808.25" y="-15.6701" font-family="Times,serif" font-size="14.00">init(at_soil_sample)</text>
</g>
<!-- n5&#45;&gt;n6 -->
<g id="edge10" class="edge"><title>n5&#45;&gt;n6</title>
<path fill="none" stroke="black" d="M2687.48,-46.0107C2699.68,-52.632 2712,-61.1584 2721.11,-71.7401 2726.9,-78.4561 2731.22,-86.8362 2734.44,-95.1484"/>
<polygon fill="black" stroke="black" points="2731.18,-96.4365 2737.72,-104.771 2737.8,-94.1769 2731.18,-96.4365"/>
<text text-anchor="middle" x="2770.11" y="-75.5401" font-family="Times,serif" font-size="14.00"> static(visible)</text>
</g>
<!-- n6&#45;&gt;n5 -->
<g id="edge25" class="edge"><title>n6&#45;&gt;n5</title>
<path fill="none" stroke="black" d="M2685.85,-119.588C2667.82,-113.129 2649.84,-102.906 2639.11,-86.7401 2634.66,-80.0248 2633.23,-71.8701 2633.38,-63.7972"/>
<polygon fill="black" stroke="black" points="2636.88,-64.0108 2634.32,-53.7297 2629.91,-63.3626 2636.88,-64.0108"/>
<text text-anchor="middle" x="2678.11" y="-75.5401" font-family="Times,serif" font-size="14.00"> static(visible)</text>
</g>
<!-- n6&#45;&gt;n6 -->
<g id="edge3" class="edge"><title>n6&#45;&gt;n6</title>
<path fill="none" stroke="black" d="M2802.92,-141.045C2815.6,-140.087 2824.75,-136.942 2824.75,-131.61 2824.75,-127.861 2820.23,-125.193 2813.13,-123.607"/>
<polygon fill="black" stroke="black" points="2813.31,-120.097 2802.92,-122.175 2812.34,-127.029 2813.31,-120.097"/>
<text text-anchor="middle" x="2909.25" y="-142.91" font-family="Times,serif" font-size="14.00"> end(communicated_soil_data)</text>
<text text-anchor="middle" x="2909.25" y="-127.91" font-family="Times,serif" font-size="14.00">init(at_soil_sample)</text>
<text text-anchor="middle" x="2909.25" y="-112.91" font-family="Times,serif" font-size="14.00">init(at_rock_sample)</text>
</g>
<!-- n7 -->
<g id="node7" class="node"><title>n7</title>
<ellipse fill="none" stroke="black" cx="152.114" cy="-341.09" rx="56.6372" ry="26.7407"/>
<text text-anchor="middle" x="152.114" y="-344.89" font-family="Times,serif" font-size="14.00">&lt;camera0&gt;</text>
<text text-anchor="middle" x="152.114" y="-329.89" font-family="Times,serif" font-size="14.00">camera</text>
</g>
<!-- n7&#45;&gt;n3 -->
<g id="edge44" class="edge"><title>n7&#45;&gt;n3</title>
<path fill="none" stroke="black" d="M150.707,-314.114C150.627,-303.798 151.138,-291.874 153.114,-281.22 153.64,-278.381 154.33,-275.482 155.128,-272.595"/>
<polygon fill="black" stroke="black" points="158.506,-273.521 158.173,-262.932 151.829,-271.417 158.506,-273.521"/>
<text text-anchor="middle" x="221.614" y="-285.02" font-family="Times,serif" font-size="14.00"> static(calibration_target)</text>
</g>
<!-- n7&#45;&gt;n4 -->
<g id="edge28" class="edge"><title>n7&#45;&gt;n4</title>
<path fill="none" stroke="black" d="M102.758,-327.789C69.9381,-316.763 29.2882,-296.97 9.11384,-263.22 -3.14103,-242.719 -2.89362,-230.127 9.11384,-209.48 24.0239,-183.842 38.6994,-184.979 67.1138,-176.48 187.011,-140.619 224.005,-174.548 348.114,-158.48 371.712,-155.425 397.437,-150.704 419.857,-146.126"/>
<polygon fill="black" stroke="black" points="420.826,-149.5 429.906,-144.04 419.403,-142.646 420.826,-149.5"/>
<text text-anchor="middle" x="53.1138" y="-232.65" font-family="Times,serif" font-size="14.00"> static(supports)</text>
</g>
<!-- n15 -->
<g id="node15" class="node"><title>n15</title>
<ellipse fill="none" stroke="black" cx="2373.11" cy="-236.35" rx="48.1667" ry="26.7407"/>
<text text-anchor="middle" x="2373.11" y="-240.15" font-family="Times,serif" font-size="14.00">&lt;rover0&gt;</text>
<text text-anchor="middle" x="2373.11" y="-225.15" font-family="Times,serif" font-size="14.00">rover</text>
</g>
<!-- n7&#45;&gt;n15 -->
<g id="edge19" class="edge"><title>n7&#45;&gt;n15</title>
<path fill="none" stroke="black" d="M208.782,-338.381C490.01,-329.824 1737.68,-290.946 2125.11,-263.22 2190.96,-258.508 2266.36,-250.23 2316.56,-244.307"/>
<polygon fill="black" stroke="black" points="2317.05,-247.773 2326.57,-243.118 2316.23,-240.822 2317.05,-247.773"/>
<text text-anchor="middle" x="1844.61" y="-285.02" font-family="Times,serif" font-size="14.00"> static(on_board)</text>
</g>
<!-- n8 -->
<g id="node8" class="node"><title>n8</title>
<ellipse fill="none" stroke="black" cx="1549.11" cy="-341.09" rx="56.6372" ry="26.7407"/>
<text text-anchor="middle" x="1549.11" y="-344.89" font-family="Times,serif" font-size="14.00">&lt;camera1&gt;</text>
<text text-anchor="middle" x="1549.11" y="-329.89" font-family="Times,serif" font-size="14.00">camera</text>
</g>
<!-- n8&#45;&gt;n3 -->
<g id="edge37" class="edge"><title>n8&#45;&gt;n3</title>
<path fill="none" stroke="black" d="M1492.46,-339.863C1265.17,-338.708 426.21,-332.036 313.114,-296.22 301.479,-292.536 301.034,-286.67 290.114,-281.22 270.784,-271.574 248.797,-262.957 228.916,-255.967"/>
<polygon fill="black" stroke="black" points="229.941,-252.619 219.347,-252.67 227.66,-259.237 229.941,-252.619"/>
<text text-anchor="middle" x="381.614" y="-285.02" font-family="Times,serif" font-size="14.00"> static(calibration_target)</text>
</g>
<!-- n8&#45;&gt;n4 -->
<g id="edge29" class="edge"><title>n8&#45;&gt;n4</title>
<path fill="none" stroke="black" d="M1493.17,-336.361C1283.65,-321.855 553.785,-266.267 484.114,-191.48 478.405,-185.352 475.934,-177.134 475.216,-168.785"/>
<polygon fill="black" stroke="black" points="478.715,-168.632 475.109,-158.669 471.715,-168.706 478.715,-168.632"/>
<text text-anchor="middle" x="794.114" y="-232.65" font-family="Times,serif" font-size="14.00"> static(supports)</text>
</g>
<!-- n8&#45;&gt;n15 -->
<g id="edge16" class="edge"><title>n8&#45;&gt;n15</title>
<path fill="none" stroke="black" d="M1603.5,-333.31C1752.28,-314.759 2164.98,-263.301 2316.44,-244.417"/>
<polygon fill="black" stroke="black" points="2316.97,-247.878 2326.46,-243.168 2316.1,-240.932 2316.97,-247.878"/>
<text text-anchor="middle" x="2057.61" y="-285.02" font-family="Times,serif" font-size="14.00"> static(on_board)</text>
</g>
<!-- n16 -->
<g id="node16" class="node"><title>n16</title>
<ellipse fill="none" stroke="black" cx="3901.11" cy="-131.61" rx="53.9813" ry="26.7407"/>
<text text-anchor="middle" x="3901.11" y="-135.41" font-family="Times,serif" font-size="14.00">&lt;low_res&gt;</text>
<text text-anchor="middle" x="3901.11" y="-120.41" font-family="Times,serif" font-size="14.00">mode</text>
</g>
<!-- n8&#45;&gt;n16 -->
<g id="edge6" class="edge"><title>n8&#45;&gt;n16</title>
<path fill="none" stroke="black" d="M1605.8,-339.473C1942.64,-335.643 3674.27,-313.611 3905.11,-263.22 3985.64,-245.643 4030.48,-260.111 4076.11,-191.48 4117.88,-128.671 4125.69,-206.735 3960.11,-158.48 3956.3,-157.368 3952.4,-156.066 3948.53,-154.648"/>
<polygon fill="black" stroke="black" points="3949.57,-151.297 3938.98,-150.927 3947.03,-157.819 3949.57,-151.297"/>
<text text-anchor="middle" x="4107.11" y="-232.65" font-family="Times,serif" font-size="14.00"> static(supports)</text>
</g>
<!-- n8&#45;&gt;n18 -->
<g id="edge14" class="edge"><title>n8&#45;&gt;n18</title>
<path fill="none" stroke="black" d="M1550.64,-314.05C1552.25,-287.673 1554.98,-245.712 1558.11,-209.48 1559.26,-196.217 1560.72,-181.688 1562.08,-168.866"/>
<polygon fill="black" stroke="black" points="1565.6,-168.88 1563.19,-158.563 1558.64,-168.132 1565.6,-168.88"/>
<text text-anchor="middle" x="1602.11" y="-232.65" font-family="Times,serif" font-size="14.00"> static(supports)</text>
</g>
<!-- n9 -->
<g id="node9" class="node"><title>n9</title>
<ellipse fill="none" stroke="black" cx="339.114" cy="-236.35" rx="62.8651" ry="26.7407"/>
<text text-anchor="middle" x="339.114" y="-240.15" font-family="Times,serif" font-size="14.00">&lt;objective7&gt;</text>
<text text-anchor="middle" x="339.114" y="-225.15" font-family="Times,serif" font-size="14.00">objective</text>
</g>
<!-- n9&#45;&gt;n4 -->
<g id="edge32" class="edge"><title>n9&#45;&gt;n4</title>
<path fill="none" stroke="black" d="M292.734,-218.026C271.19,-207.346 252.94,-192.628 266.114,-176.48 267.349,-174.966 355.814,-157.194 418.601,-144.741"/>
<polygon fill="black" stroke="black" points="419.311,-148.169 428.44,-142.792 417.951,-141.302 419.311,-148.169"/>
<text text-anchor="middle" x="360.114" y="-180.28" font-family="Times,serif" font-size="14.00"> end(communicated_image_data)</text>
</g>
<!-- n9&#45;&gt;n5 -->
<g id="edge17" class="edge"><title>n9&#45;&gt;n5</title>
<path fill="none" stroke="black" d="M289.976,-219.312C277.407,-212.737 265.398,-203.709 258.114,-191.48 237.859,-157.475 250.624,-134.683 302.114,-104.74 402.275,-46.4918 2180.86,-31.0203 2568.09,-28.336"/>
<polygon fill="black" stroke="black" points="2568.35,-31.8344 2578.33,-28.2658 2568.3,-24.8345 2568.35,-31.8344"/>
<text text-anchor="middle" x="358.114" y="-127.91" font-family="Times,serif" font-size="14.00"> static(visible_from)</text>
</g>
<!-- n9&#45;&gt;n6 -->
<g id="edge31" class="edge"><title>n9&#45;&gt;n6</title>
<path fill="none" stroke="black" d="M389.475,-220.174C406.078,-215.852 424.741,-211.713 442.114,-209.48 545.38,-196.206 2217.92,-226.098 2316.11,-191.48 2326.26,-187.903 2325.15,-180.548 2335.11,-176.48 2393.94,-152.459 2568.87,-140.614 2669.55,-135.639"/>
<polygon fill="black" stroke="black" points="2669.83,-139.129 2679.65,-135.151 2669.49,-132.138 2669.83,-139.129"/>
<text text-anchor="middle" x="2391.11" y="-180.28" font-family="Times,serif" font-size="14.00"> static(visible_from)</text>
</g>
<!-- n9&#45;&gt;n18 -->
<g id="edge11" class="edge"><title>n9&#45;&gt;n18</title>
<path fill="none" stroke="black" d="M389.762,-220.289C406.3,-216.002 424.853,-211.855 442.114,-209.48 586.805,-189.572 955.662,-218.929 1099.11,-191.48 1118.17,-187.834 1121.21,-180.841 1140.11,-176.48 1269.17,-146.716 1424.88,-137.133 1507.67,-134.056"/>
<polygon fill="black" stroke="black" points="1508.01,-137.546 1517.88,-133.696 1507.77,-130.551 1508.01,-137.546"/>
<text text-anchor="middle" x="1232.11" y="-180.28" font-family="Times,serif" font-size="14.00"> end(communicated_image_data)</text>
</g>
<!-- n10 -->
<g id="node10" class="node"><title>n10</title>
<ellipse fill="none" stroke="black" cx="1718.11" cy="-236.35" rx="62.8651" ry="26.7407"/>
<text text-anchor="middle" x="1718.11" y="-240.15" font-family="Times,serif" font-size="14.00">&lt;objective2&gt;</text>
<text text-anchor="middle" x="1718.11" y="-225.15" font-family="Times,serif" font-size="14.00">objective</text>
</g>
<!-- n10&#45;&gt;n4 -->
<g id="edge8" class="edge"><title>n10&#45;&gt;n4</title>
<path fill="none" stroke="black" d="M1672.69,-217.593C1662.45,-214.296 1651.53,-211.315 1641.11,-209.48 1561.21,-195.403 988.344,-216.35 911.114,-191.48 899.849,-187.853 900.22,-180.567 889.114,-176.48 827.945,-153.969 646.058,-141.256 546.709,-135.813"/>
<polygon fill="black" stroke="black" points="546.654,-132.305 536.481,-135.263 546.278,-139.295 546.654,-132.305"/>
<text text-anchor="middle" x="1003.11" y="-180.28" font-family="Times,serif" font-size="14.00"> end(communicated_image_data)</text>
</g>
<!-- n10&#45;&gt;n6 -->
<g id="edge7" class="edge"><title>n10&#45;&gt;n6</title>
<path fill="none" stroke="black" d="M1778.07,-228.182C1831.32,-222.12 1911.28,-213.758 1981.11,-209.48 2022.16,-206.966 2687.61,-215.332 2721.11,-191.48 2728.88,-185.95 2733.91,-177.335 2737.16,-168.386"/>
<polygon fill="black" stroke="black" points="2740.56,-169.257 2740.04,-158.674 2733.84,-167.266 2740.56,-169.257"/>
<text text-anchor="middle" x="2790.11" y="-180.28" font-family="Times,serif" font-size="14.00"> static(visible_from)</text>
</g>
<!-- n10&#45;&gt;n18 -->
<g id="edge26" class="edge"><title>n10&#45;&gt;n18</title>
<path fill="none" stroke="black" d="M1669.7,-218.894C1660.23,-215.73 1650.37,-212.472 1641.11,-209.48 1615.43,-201.182 1602.01,-210.753 1583.11,-191.48 1576.96,-185.201 1573.01,-176.84 1570.47,-168.395"/>
<polygon fill="black" stroke="black" points="1573.85,-167.468 1568.11,-158.564 1567.05,-169.105 1573.85,-167.468"/>
<text text-anchor="middle" x="1675.11" y="-180.28" font-family="Times,serif" font-size="14.00"> end(communicated_image_data)</text>
</g>
<!-- n11 -->
<g id="node11" class="node"><title>n11</title>
<ellipse fill="none" stroke="black" cx="4158.11" cy="-341.09" rx="67.3507" ry="26.7407"/>
<text text-anchor="middle" x="4158.11" y="-344.89" font-family="Times,serif" font-size="14.00">&lt;rover0store&gt;</text>
<text text-anchor="middle" x="4158.11" y="-329.89" font-family="Times,serif" font-size="14.00">store</text>
</g>
<!-- n11&#45;&gt;n11 -->
<g id="edge4" class="edge"><title>n11&#45;&gt;n11</title>
<path fill="none" stroke="black" d="M4221.26,-350.468C4234.1,-349.447 4243.29,-346.321 4243.29,-341.09 4243.29,-337.413 4238.74,-334.775 4231.58,-333.179"/>
<polygon fill="black" stroke="black" points="4231.65,-329.653 4221.26,-331.712 4230.67,-336.584 4231.65,-329.653"/>
<text text-anchor="middle" x="4276.29" y="-337.39" font-family="Times,serif" font-size="14.00"> init(empty)</text>
</g>
<!-- n11&#45;&gt;n15 -->
<g id="edge24" class="edge"><title>n11&#45;&gt;n15</title>
<path fill="none" stroke="black" d="M4091.93,-336.281C3808.33,-319.957 2697.92,-256.045 2431.03,-240.684"/>
<polygon fill="black" stroke="black" points="2430.97,-237.175 2420.79,-240.094 2430.57,-244.163 2430.97,-237.175"/>
<text text-anchor="middle" x="3416.11" y="-285.02" font-family="Times,serif" font-size="14.00"> static(store_of)</text>
</g>
<!-- n12 -->
<g id="node12" class="node"><title>n12</title>
<ellipse fill="none" stroke="black" cx="1401.11" cy="-236.35" rx="62.8651" ry="26.7407"/>
<text text-anchor="middle" x="1401.11" y="-240.15" font-family="Times,serif" font-size="14.00">&lt;objective5&gt;</text>
<text text-anchor="middle" x="1401.11" y="-225.15" font-family="Times,serif" font-size="14.00">objective</text>
</g>
<!-- n12&#45;&gt;n4 -->
<g id="edge42" class="edge"><title>n12&#45;&gt;n4</title>
<path fill="none" stroke="black" d="M1343.88,-224.935C1311,-219.381 1268.87,-212.987 1231.11,-209.48 1172.89,-204.072 760.875,-209.1 705.114,-191.48 693.477,-187.803 693.374,-181.186 682.114,-176.48 638.158,-158.109 585.472,-146.994 544.929,-140.55"/>
<polygon fill="black" stroke="black" points="545.311,-137.068 534.896,-139.011 544.25,-143.987 545.311,-137.068"/>
<text text-anchor="middle" x="797.114" y="-180.28" font-family="Times,serif" font-size="14.00"> end(communicated_image_data)</text>
</g>
<!-- n12&#45;&gt;n6 -->
<g id="edge43" class="edge"><title>n12&#45;&gt;n6</title>
<path fill="none" stroke="black" d="M1454.72,-222.057C1476.97,-217.139 1503.14,-212.122 1527.11,-209.48 1585.6,-203.035 2530.69,-211.25 2586.11,-191.48 2596.25,-187.865 2595.61,-181.525 2605.11,-176.48 2627.85,-164.41 2654.48,-154.977 2678.24,-148.003"/>
<polygon fill="black" stroke="black" points="2679.22,-151.362 2687.88,-145.26 2677.31,-144.63 2679.22,-151.362"/>
<text text-anchor="middle" x="2661.11" y="-180.28" font-family="Times,serif" font-size="14.00"> static(visible_from)</text>
</g>
<!-- n13 -->
<g id="node13" class="node"><title>n13</title>
<ellipse fill="none" stroke="black" cx="3428.11" cy="-236.35" rx="62.8651" ry="26.7407"/>
<text text-anchor="middle" x="3428.11" y="-240.15" font-family="Times,serif" font-size="14.00">&lt;objective6&gt;</text>
<text text-anchor="middle" x="3428.11" y="-225.15" font-family="Times,serif" font-size="14.00">objective</text>
</g>
<!-- n13&#45;&gt;n5 -->
<g id="edge21" class="edge"><title>n13&#45;&gt;n5</title>
<path fill="none" stroke="black" d="M3478.52,-220.059C3504.29,-209.652 3527.33,-194.515 3512.11,-176.48 3410.18,-55.6575 2907.41,-33.0585 2716.15,-28.8373"/>
<polygon fill="black" stroke="black" points="2715.98,-25.3332 2705.91,-28.6225 2715.84,-32.3317 2715.98,-25.3332"/>
<text text-anchor="middle" x="3548.11" y="-127.91" font-family="Times,serif" font-size="14.00"> static(visible_from)</text>
</g>
<!-- n13&#45;&gt;n6 -->
<g id="edge9" class="edge"><title>n13&#45;&gt;n6</title>
<path fill="none" stroke="black" d="M3367.55,-228.765C3319.38,-222.412 3250.75,-210.843 3193.11,-191.48 3178.98,-186.733 3177.42,-180.655 3163.11,-176.48 3045.44,-142.149 2902.31,-133.95 2817.18,-132.392"/>
<polygon fill="black" stroke="black" points="2817.14,-128.891 2807.09,-132.233 2817.03,-135.89 2817.14,-128.891"/>
<text text-anchor="middle" x="3249.11" y="-180.28" font-family="Times,serif" font-size="14.00"> static(visible_from)</text>
</g>
<!-- n13&#45;&gt;n16 -->
<g id="edge33" class="edge"><title>n13&#45;&gt;n16</title>
<path fill="none" stroke="black" d="M3475.42,-218.626C3494.91,-211.144 3517.49,-201.706 3537.11,-191.48 3547.94,-185.842 3548.66,-180.698 3560.11,-176.48 3609.71,-158.21 3753.9,-144.222 3838.06,-137.335"/>
<polygon fill="black" stroke="black" points="3838.58,-140.805 3848.26,-136.511 3838.01,-133.828 3838.58,-140.805"/>
<text text-anchor="middle" x="3652.11" y="-180.28" font-family="Times,serif" font-size="14.00"> end(communicated_image_data)</text>
</g>
<!-- n13&#45;&gt;n18 -->
<g id="edge30" class="edge"><title>n13&#45;&gt;n18</title>
<path fill="none" stroke="black" d="M3370.95,-224.716C3337.83,-219.053 3295.27,-212.624 3257.11,-209.48 3187.34,-203.731 2064.07,-211.907 1997.11,-191.48 1985.44,-187.919 1985.61,-180.579 1974.11,-176.48 1911.15,-154.03 1721.25,-140.92 1624.35,-135.52"/>
<polygon fill="black" stroke="black" points="1624.32,-132.013 1614.14,-134.961 1623.94,-139.003 1624.32,-132.013"/>
<text text-anchor="middle" x="2089.11" y="-180.28" font-family="Times,serif" font-size="14.00"> end(communicated_image_data)</text>
</g>
<!-- n14 -->
<g id="node14" class="node"><title>n14</title>
<ellipse fill="none" stroke="black" cx="2053.11" cy="-236.35" rx="62.8651" ry="26.7407"/>
<text text-anchor="middle" x="2053.11" y="-240.15" font-family="Times,serif" font-size="14.00">&lt;objective4&gt;</text>
<text text-anchor="middle" x="2053.11" y="-225.15" font-family="Times,serif" font-size="14.00">objective</text>
</g>
<!-- n14&#45;&gt;n6 -->
<g id="edge38" class="edge"><title>n14&#45;&gt;n6</title>
<path fill="none" stroke="black" d="M2113.35,-228.306C2166.59,-222.347 2246.41,-214.065 2316.11,-209.48 2346.07,-207.51 2835.25,-213.056 2856.11,-191.48 2876.5,-170.406 2845.49,-155.374 2810.83,-145.776"/>
<polygon fill="black" stroke="black" points="2811.56,-142.349 2801,-143.212 2809.79,-149.122 2811.56,-142.349"/>
<text text-anchor="middle" x="2919.11" y="-180.28" font-family="Times,serif" font-size="14.00"> static(visible_from)</text>
</g>
<!-- n14&#45;&gt;n18 -->
<g id="edge22" class="edge"><title>n14&#45;&gt;n18</title>
<path fill="none" stroke="black" d="M1990.89,-232.184C1936.36,-227.739 1855.78,-217.071 1790.11,-191.48 1778.74,-187.049 1778.37,-181.192 1767.11,-176.48 1720.64,-157.029 1664.36,-145.695 1623.19,-139.437"/>
<polygon fill="black" stroke="black" points="1623.47,-135.94 1613.06,-137.954 1622.45,-142.866 1623.47,-135.94"/>
<text text-anchor="middle" x="1882.11" y="-180.28" font-family="Times,serif" font-size="14.00"> end(communicated_image_data)</text>
</g>
<!-- n15&#45;&gt;n6 -->
<g id="edge23" class="edge"><title>n15&#45;&gt;n6</title>
<path fill="none" stroke="black" d="M2421.58,-235.611C2560.49,-235.857 2952.58,-232.849 2991.11,-191.48 2995.66,-186.602 2995.4,-181.588 2991.11,-176.48 2969.15,-150.284 2881.47,-139.722 2816.57,-135.469"/>
<polygon fill="black" stroke="black" points="2816.55,-131.962 2806.36,-134.839 2816.12,-138.948 2816.55,-131.962"/>
<text text-anchor="middle" x="3015.61" y="-180.28" font-family="Times,serif" font-size="14.00"> init(at)</text>
</g>
<!-- n15&#45;&gt;n15 -->
<g id="edge5" class="edge"><title>n15&#45;&gt;n15</title>
<path fill="none" stroke="black" d="M2418.21,-246.015C2430.15,-245.462 2439.2,-242.241 2439.2,-236.35 2439.2,-232.3 2434.92,-229.512 2428.37,-227.986"/>
<polygon fill="black" stroke="black" points="2428.57,-224.483 2418.21,-226.686 2427.68,-231.427 2428.57,-224.483"/>
<text text-anchor="middle" x="2532.7" y="-247.65" font-family="Times,serif" font-size="14.00"> static(equipped_for_imaging)</text>
<text text-anchor="middle" x="2532.7" y="-232.65" font-family="Times,serif" font-size="14.00">init(available)</text>
<text text-anchor="middle" x="2532.7" y="-217.65" font-family="Times,serif" font-size="14.00">static(equipped_for_soil_analysis)</text>
</g>
<!-- n17 -->
<g id="node17" class="node"><title>n17</title>
<ellipse fill="none" stroke="black" cx="3833.11" cy="-236.35" rx="62.8651" ry="26.7407"/>
<text text-anchor="middle" x="3833.11" y="-240.15" font-family="Times,serif" font-size="14.00">&lt;objective1&gt;</text>
<text text-anchor="middle" x="3833.11" y="-225.15" font-family="Times,serif" font-size="14.00">objective</text>
</g>
<!-- n17&#45;&gt;n4 -->
<g id="edge34" class="edge"><title>n17&#45;&gt;n4</title>
<path fill="none" stroke="black" d="M3771.55,-230.595C3650.44,-221.118 3389.45,-200.055 3349.11,-191.48 3328.9,-187.184 3325.48,-179.942 3305.11,-176.48 3183.68,-155.844 1211.25,-161.599 1088.11,-158.48 890.956,-153.487 658.045,-142.02 546.355,-136.176"/>
<polygon fill="black" stroke="black" points="546.423,-132.675 536.254,-135.645 546.056,-139.665 546.423,-132.675"/>
<text text-anchor="middle" x="3441.11" y="-180.28" font-family="Times,serif" font-size="14.00"> end(communicated_image_data)</text>
</g>
<!-- n17&#45;&gt;n5 -->
<g id="edge27" class="edge"><title>n17&#45;&gt;n5</title>
<path fill="none" stroke="black" d="M3895.68,-232.895C3959.9,-228.904 4053.54,-218.496 4076.11,-191.48 4080.39,-186.365 4079.31,-182.329 4076.11,-176.48 4047.74,-124.619 4020.34,-122.992 3964.11,-104.74 3729.41,-28.5505 2958.76,-26.0859 2716.02,-27.2762"/>
<polygon fill="black" stroke="black" points="2715.87,-23.7768 2705.89,-27.3295 2715.91,-30.7767 2715.87,-23.7768"/>
<text text-anchor="middle" x="4121.11" y="-127.91" font-family="Times,serif" font-size="14.00"> static(visible_from)</text>
</g>
<!-- n17&#45;&gt;n6 -->
<g id="edge35" class="edge"><title>n17&#45;&gt;n6</title>
<path fill="none" stroke="black" d="M3797.37,-213.99C3786.23,-207.057 3774.02,-199.166 3763.11,-191.48 3754.32,-185.281 3754.2,-180.23 3744.11,-176.48 3722.41,-168.409 3044,-143.404 2816.59,-135.227"/>
<polygon fill="black" stroke="black" points="2816.55,-131.723 2806.43,-134.862 2816.3,-138.719 2816.55,-131.723"/>
<text text-anchor="middle" x="3819.11" y="-180.28" font-family="Times,serif" font-size="14.00"> static(visible_from)</text>
</g>
<!-- n17&#45;&gt;n16 -->
<g id="edge15" class="edge"><title>n17&#45;&gt;n16</title>
<path fill="none" stroke="black" d="M3861.55,-212.103C3867.93,-205.896 3874.25,-198.849 3879.11,-191.48 3883.81,-184.359 3887.7,-176.095 3890.82,-168.05"/>
<polygon fill="black" stroke="black" points="3894.19,-169.034 3894.26,-158.439 3887.59,-166.675 3894.19,-169.034"/>
<text text-anchor="middle" x="3980.11" y="-180.28" font-family="Times,serif" font-size="14.00"> end(communicated_image_data)</text>
</g>
</g>
</svg>
