<?xml version="1.0" encoding="UTF-8" standalone="no"?>
<!DOCTYPE svg PUBLIC "-//W3C//DTD SVG 1.1//EN"
 "http://www.w3.org/Graphics/SVG/1.1/DTD/svg11.dtd">
<!-- Generated by graphviz version 2.38.0 (20140413.2041)
 -->
<!-- Title: Struc Pages: 1 -->
<svg width="3966pt" height="376pt"
 viewBox="0.00 0.00 3966.41 375.96" xmlns="http://www.w3.org/2000/svg" xmlns:xlink="http://www.w3.org/1999/xlink">
<g id="graph0" class="graph" transform="scale(1 1) rotate(0) translate(4 371.96)">
<title>Struc</title>
<polygon fill="white" stroke="none" points="-4,4 -4,-371.96 3962.41,-371.96 3962.41,4 -4,4"/>
<!-- n1 -->
<g id="node1" class="node"><title>n1</title>
<ellipse fill="none" stroke="black" cx="1593.41" cy="-236.35" rx="51.7379" ry="26.7407"/>
<text text-anchor="middle" x="1593.41" y="-240.15" font-family="Times,serif" font-size="14.00">&lt;general&gt;</text>
<text text-anchor="middle" x="1593.41" y="-225.15" font-family="Times,serif" font-size="14.00">lander</text>
</g>
<!-- n1&#45;&gt;n1 -->
<g id="edge1" class="edge"><title>n1&#45;&gt;n1</title>
<path fill="none" stroke="black" d="M1641.88,-245.966C1653.98,-245.294 1663.02,-242.089 1663.02,-236.35 1663.02,-232.405 1658.75,-229.657 1652.15,-228.107"/>
<polygon fill="black" stroke="black" points="1652.26,-224.59 1641.88,-226.734 1651.33,-231.529 1652.26,-224.59"/>
<text text-anchor="middle" x="1713.52" y="-232.65" font-family="Times,serif" font-size="14.00"> init(channel_free)</text>
</g>
<!-- n6 -->
<g id="node6" class="node"><title>n6</title>
<ellipse fill="none" stroke="black" cx="1740.41" cy="-131.61" rx="63.7795" ry="26.7407"/>
<text text-anchor="middle" x="1740.41" y="-135.41" font-family="Times,serif" font-size="14.00">&lt;waypoint0&gt;</text>
<text text-anchor="middle" x="1740.41" y="-120.41" font-family="Times,serif" font-size="14.00">waypoint</text>
</g>
<!-- n1&#45;&gt;n6 -->
<g id="edge37" class="edge"><title>n1&#45;&gt;n6</title>
<path fill="none" stroke="black" d="M1595.5,-209.492C1597.66,-198.098 1601.95,-185.32 1610.41,-176.48 1626.26,-159.912 1648.57,-149.601 1670.24,-143.184"/>
<polygon fill="black" stroke="black" points="1671.39,-146.498 1680.12,-140.501 1669.56,-139.742 1671.39,-146.498"/>
<text text-anchor="middle" x="1656.41" y="-180.28" font-family="Times,serif" font-size="14.00"> static(at_lander)</text>
</g>
<!-- n2 -->
<g id="node2" class="node"><title>n2</title>
<ellipse fill="none" stroke="black" cx="3279.41" cy="-341.09" rx="56.6372" ry="26.7407"/>
<text text-anchor="middle" x="3279.41" y="-344.89" font-family="Times,serif" font-size="14.00">&lt;camera2&gt;</text>
<text text-anchor="middle" x="3279.41" y="-329.89" font-family="Times,serif" font-size="14.00">camera</text>
</g>
<!-- n13 -->
<g id="node13" class="node"><title>n13</title>
<ellipse fill="none" stroke="black" cx="3572.41" cy="-236.35" rx="62.8651" ry="26.7407"/>
<text text-anchor="middle" x="3572.41" y="-240.15" font-family="Times,serif" font-size="14.00">&lt;objective4&gt;</text>
<text text-anchor="middle" x="3572.41" y="-225.15" font-family="Times,serif" font-size="14.00">objective</text>
</g>
<!-- n2&#45;&gt;n13 -->
<g id="edge20" class="edge"><title>n2&#45;&gt;n13</title>
<path fill="none" stroke="black" d="M3329.88,-328.739C3360.64,-321.105 3400.44,-309.939 3434.41,-296.22 3447.5,-290.934 3449.61,-287.178 3462.41,-281.22 3479.71,-273.168 3498.92,-265.188 3516.39,-258.286"/>
<polygon fill="black" stroke="black" points="3517.85,-261.472 3525.89,-254.569 3515.3,-254.953 3517.85,-261.472"/>
<text text-anchor="middle" x="3530.91" y="-285.02" font-family="Times,serif" font-size="14.00"> static(calibration_target)</text>
</g>
<!-- n15 -->
<g id="node15" class="node"><title>n15</title>
<ellipse fill="none" stroke="black" cx="1862.41" cy="-236.35" rx="48.1667" ry="26.7407"/>
<text text-anchor="middle" x="1862.41" y="-240.15" font-family="Times,serif" font-size="14.00">&lt;rover0&gt;</text>
<text text-anchor="middle" x="1862.41" y="-225.15" font-family="Times,serif" font-size="14.00">rover</text>
</g>
<!-- n2&#45;&gt;n15 -->
<g id="edge7" class="edge"><title>n2&#45;&gt;n15</title>
<path fill="none" stroke="black" d="M3223.47,-337.003C3056.4,-327.647 2546.5,-298.096 2124.41,-263.22 2053.94,-257.398 1972.97,-249.167 1919.92,-243.563"/>
<polygon fill="black" stroke="black" points="1920.01,-240.053 1909.7,-242.479 1919.27,-247.014 1920.01,-240.053"/>
<text text-anchor="middle" x="2583.91" y="-285.02" font-family="Times,serif" font-size="14.00"> static(on_board)</text>
</g>
<!-- n16 -->
<g id="node16" class="node"><title>n16</title>
<ellipse fill="none" stroke="black" cx="3254.41" cy="-131.61" rx="53.9813" ry="26.7407"/>
<text text-anchor="middle" x="3254.41" y="-135.41" font-family="Times,serif" font-size="14.00">&lt;low_res&gt;</text>
<text text-anchor="middle" x="3254.41" y="-120.41" font-family="Times,serif" font-size="14.00">mode</text>
</g>
<!-- n2&#45;&gt;n16 -->
<g id="edge36" class="edge"><title>n2&#45;&gt;n16</title>
<path fill="none" stroke="black" d="M3278.47,-314.143C3277.01,-281.743 3273.46,-224.704 3265.41,-176.48 3264.96,-173.813 3264.44,-171.07 3263.86,-168.319"/>
<polygon fill="black" stroke="black" points="3267.25,-167.421 3261.61,-158.447 3260.42,-168.974 3267.25,-167.421"/>
<text text-anchor="middle" x="3319.41" y="-232.65" font-family="Times,serif" font-size="14.00"> static(supports)</text>
</g>
<!-- n3 -->
<g id="node3" class="node"><title>n3</title>
<ellipse fill="none" stroke="black" cx="2196.41" cy="-236.35" rx="62.8651" ry="26.7407"/>
<text text-anchor="middle" x="2196.41" y="-240.15" font-family="Times,serif" font-size="14.00">&lt;objective1&gt;</text>
<text text-anchor="middle" x="2196.41" y="-225.15" font-family="Times,serif" font-size="14.00">objective</text>
</g>
<!-- n4 -->
<g id="node4" class="node"><title>n4</title>
<ellipse fill="none" stroke="black" cx="495.406" cy="-131.61" rx="56.6372" ry="26.7407"/>
<text text-anchor="middle" x="495.406" y="-135.41" font-family="Times,serif" font-size="14.00">&lt;high_res&gt;</text>
<text text-anchor="middle" x="495.406" y="-120.41" font-family="Times,serif" font-size="14.00">mode</text>
</g>
<!-- n3&#45;&gt;n4 -->
<g id="edge15" class="edge"><title>n3&#45;&gt;n4</title>
<path fill="none" stroke="black" d="M2152.48,-217.003C2143.35,-213.921 2133.68,-211.176 2124.41,-209.48 2006.46,-187.918 1160.05,-226.604 1045.41,-191.48 1033.74,-187.905 1033.95,-180.44 1022.41,-176.48 939.079,-147.894 684.532,-137.513 562.297,-134.107"/>
<polygon fill="black" stroke="black" points="562.044,-130.599 551.953,-133.827 561.855,-137.597 562.044,-130.599"/>
<text text-anchor="middle" x="1137.41" y="-180.28" font-family="Times,serif" font-size="14.00"> end(communicated_image_data)</text>
</g>
<!-- n5 -->
<g id="node5" class="node"><title>n5</title>
<ellipse fill="none" stroke="black" cx="2106.41" cy="-26.8701" rx="63.7795" ry="26.7407"/>
<text text-anchor="middle" x="2106.41" y="-30.6701" font-family="Times,serif" font-size="14.00">&lt;waypoint1&gt;</text>
<text text-anchor="middle" x="2106.41" y="-15.6701" font-family="Times,serif" font-size="14.00">waypoint</text>
</g>
<!-- n3&#45;&gt;n5 -->
<g id="edge23" class="edge"><title>n3&#45;&gt;n5</title>
<path fill="none" stroke="black" d="M2150.07,-217.86C2138.57,-211.315 2127.52,-202.665 2120.41,-191.48 2096.08,-153.217 2096.58,-99.3471 2100.44,-64.0313"/>
<polygon fill="black" stroke="black" points="2103.96,-64.0603 2101.73,-53.7048 2097.02,-63.1965 2103.96,-64.0603"/>
<text text-anchor="middle" x="2162.41" y="-127.91" font-family="Times,serif" font-size="14.00"> static(visible_from)</text>
</g>
<!-- n3&#45;&gt;n6 -->
<g id="edge14" class="edge"><title>n3&#45;&gt;n6</title>
<path fill="none" stroke="black" d="M2152.05,-217.123C2143.04,-214.073 2133.52,-211.31 2124.41,-209.48 2086.12,-201.795 1806.58,-212.077 1773.41,-191.48 1764.45,-185.919 1757.71,-176.991 1752.74,-167.752"/>
<polygon fill="black" stroke="black" points="1755.8,-166.043 1748.34,-158.523 1749.48,-169.055 1755.8,-166.043"/>
<text text-anchor="middle" x="1829.41" y="-180.28" font-family="Times,serif" font-size="14.00"> static(visible_from)</text>
</g>
<!-- n3&#45;&gt;n16 -->
<g id="edge35" class="edge"><title>n3&#45;&gt;n16</title>
<path fill="none" stroke="black" d="M2227.45,-212.631C2247.26,-199.477 2274.09,-184.062 2300.41,-176.48 2321.81,-170.312 2980.13,-143.562 3190.47,-135.151"/>
<polygon fill="black" stroke="black" points="3190.88,-138.638 3200.73,-134.741 3190.6,-131.643 3190.88,-138.638"/>
<text text-anchor="middle" x="2395.41" y="-180.28" font-family="Times,serif" font-size="14.00"> end(communicated_image_data)</text>
</g>
<!-- n18 -->
<g id="node18" class="node"><title>n18</title>
<ellipse fill="none" stroke="black" cx="3511.41" cy="-131.61" rx="48.1667" ry="26.7407"/>
<text text-anchor="middle" x="3511.41" y="-135.41" font-family="Times,serif" font-size="14.00">&lt;colour&gt;</text>
<text text-anchor="middle" x="3511.41" y="-120.41" font-family="Times,serif" font-size="14.00">mode</text>
</g>
<!-- n3&#45;&gt;n18 -->
<g id="edge30" class="edge"><title>n3&#45;&gt;n18</title>
<path fill="none" stroke="black" d="M2255.48,-226.573C2296.36,-220.824 2352.08,-213.63 2401.41,-209.48 2448.5,-205.518 2782.09,-207.923 2826.41,-191.48 2836.49,-187.737 2835.31,-180.202 2845.41,-176.48 2894.65,-158.326 3265.11,-162.954 3317.41,-158.48 3364.18,-154.479 3416.97,-147.262 3455.66,-141.465"/>
<polygon fill="black" stroke="black" points="3456.32,-144.906 3465.68,-139.949 3455.27,-137.985 3456.32,-144.906"/>
<text text-anchor="middle" x="2937.41" y="-180.28" font-family="Times,serif" font-size="14.00"> end(communicated_image_data)</text>
</g>
<!-- n5&#45;&gt;n5 -->
<g id="edge2" class="edge"><title>n5&#45;&gt;n5</title>
<path fill="none" stroke="black" d="M2166.21,-36.3053C2178.89,-35.3472 2188.05,-32.2021 2188.05,-26.8701 2188.05,-23.121 2183.52,-20.4531 2176.42,-18.8664"/>
<polygon fill="black" stroke="black" points="2176.6,-15.3569 2166.21,-17.4349 2175.63,-22.2891 2176.6,-15.3569"/>
<text text-anchor="middle" x="2272.55" y="-30.6701" font-family="Times,serif" font-size="14.00"> end(communicated_soil_data)</text>
<text text-anchor="middle" x="2272.55" y="-15.6701" font-family="Times,serif" font-size="14.00">init(at_soil_sample)</text>
</g>
<!-- n5&#45;&gt;n6 -->
<g id="edge12" class="edge"><title>n5&#45;&gt;n6</title>
<path fill="none" stroke="black" d="M2046.03,-35.8971C1999.57,-42.9307 1934.11,-54.7132 1878.41,-71.7401 1848.23,-80.9628 1815.72,-94.6372 1789.84,-106.486"/>
<polygon fill="black" stroke="black" points="1788.22,-103.378 1780.61,-110.757 1791.16,-109.73 1788.22,-103.378"/>
<text text-anchor="middle" x="1917.41" y="-75.5401" font-family="Times,serif" font-size="14.00"> static(visible)</text>
</g>
<!-- n6&#45;&gt;n5 -->
<g id="edge27" class="edge"><title>n6&#45;&gt;n5</title>
<path fill="none" stroke="black" d="M1799.76,-121.416C1843.54,-113.946 1904.29,-102.131 1956.41,-86.7401 1989.67,-76.9154 2025.9,-62.7986 2054.42,-50.8516"/>
<polygon fill="black" stroke="black" points="2055.93,-54.0117 2063.78,-46.8926 2053.2,-47.5646 2055.93,-54.0117"/>
<text text-anchor="middle" x="2042.41" y="-75.5401" font-family="Times,serif" font-size="14.00"> static(visible)</text>
</g>
<!-- n6&#45;&gt;n6 -->
<g id="edge3" class="edge"><title>n6&#45;&gt;n6</title>
<path fill="none" stroke="black" d="M1800.21,-141.045C1812.89,-140.087 1822.05,-136.942 1822.05,-131.61 1822.05,-127.861 1817.52,-125.193 1810.42,-123.607"/>
<polygon fill="black" stroke="black" points="1810.6,-120.097 1800.21,-122.175 1809.63,-127.029 1810.6,-120.097"/>
<text text-anchor="middle" x="1906.55" y="-142.91" font-family="Times,serif" font-size="14.00"> end(communicated_soil_data)</text>
<text text-anchor="middle" x="1906.55" y="-127.91" font-family="Times,serif" font-size="14.00">init(at_soil_sample)</text>
<text text-anchor="middle" x="1906.55" y="-112.91" font-family="Times,serif" font-size="14.00">init(at_rock_sample)</text>
</g>
<!-- n7 -->
<g id="node7" class="node"><title>n7</title>
<ellipse fill="none" stroke="black" cx="1426.41" cy="-341.09" rx="56.6372" ry="26.7407"/>
<text text-anchor="middle" x="1426.41" y="-344.89" font-family="Times,serif" font-size="14.00">&lt;camera0&gt;</text>
<text text-anchor="middle" x="1426.41" y="-329.89" font-family="Times,serif" font-size="14.00">camera</text>
</g>
<!-- n7&#45;&gt;n4 -->
<g id="edge28" class="edge"><title>n7&#45;&gt;n4</title>
<path fill="none" stroke="black" d="M1369.78,-340.444C1150.12,-341.471 354.315,-341.885 106.406,-296.22 62.0355,-288.047 36.6152,-299.944 10.4061,-263.22 -3.4687,-243.779 -3.4687,-228.921 10.4061,-209.48 36.6152,-172.756 62.3932,-186.401 106.406,-176.48 217.921,-151.344 350.824,-140.3 428.871,-135.682"/>
<polygon fill="black" stroke="black" points="429.262,-139.165 439.045,-135.098 428.86,-132.176 429.262,-139.165"/>
<text text-anchor="middle" x="54.4061" y="-232.65" font-family="Times,serif" font-size="14.00"> static(supports)</text>
</g>
<!-- n14 -->
<g id="node14" class="node"><title>n14</title>
<ellipse fill="none" stroke="black" cx="1458.41" cy="-236.35" rx="62.8651" ry="26.7407"/>
<text text-anchor="middle" x="1458.41" y="-240.15" font-family="Times,serif" font-size="14.00">&lt;objective2&gt;</text>
<text text-anchor="middle" x="1458.41" y="-225.15" font-family="Times,serif" font-size="14.00">objective</text>
</g>
<!-- n7&#45;&gt;n14 -->
<g id="edge40" class="edge"><title>n7&#45;&gt;n14</title>
<path fill="none" stroke="black" d="M1423.57,-314.042C1423.27,-303.606 1424.01,-291.616 1427.41,-281.22 1428.58,-277.642 1430.15,-274.1 1431.97,-270.674"/>
<polygon fill="black" stroke="black" points="1435.08,-272.295 1437.25,-261.925 1429.08,-268.678 1435.08,-272.295"/>
<text text-anchor="middle" x="1495.91" y="-285.02" font-family="Times,serif" font-size="14.00"> static(calibration_target)</text>
</g>
<!-- n7&#45;&gt;n15 -->
<g id="edge22" class="edge"><title>n7&#45;&gt;n15</title>
<path fill="none" stroke="black" d="M1482.28,-336.375C1542.88,-331.309 1642,-319.989 1724.41,-296.22 1740.28,-291.643 1743.24,-287.764 1758.41,-281.22 1776.78,-273.294 1797.03,-264.713 1814.75,-257.26"/>
<polygon fill="black" stroke="black" points="1816.44,-260.346 1824.31,-253.246 1813.73,-253.892 1816.44,-260.346"/>
<text text-anchor="middle" x="1804.91" y="-285.02" font-family="Times,serif" font-size="14.00"> static(on_board)</text>
</g>
<!-- n8 -->
<g id="node8" class="node"><title>n8</title>
<ellipse fill="none" stroke="black" cx="1849.41" cy="-341.09" rx="56.6372" ry="26.7407"/>
<text text-anchor="middle" x="1849.41" y="-344.89" font-family="Times,serif" font-size="14.00">&lt;camera1&gt;</text>
<text text-anchor="middle" x="1849.41" y="-329.89" font-family="Times,serif" font-size="14.00">camera</text>
</g>
<!-- n8&#45;&gt;n4 -->
<g id="edge29" class="edge"><title>n8&#45;&gt;n4</title>
<path fill="none" stroke="black" d="M1793.79,-335.473C1723.6,-329.78 1599.13,-320.135 1492.41,-314.22 1418.69,-310.135 221.431,-310.118 164.406,-263.22 134.064,-238.267 121.423,-205.945 147.406,-176.48 165.695,-155.741 333.211,-142.347 428.995,-136.315"/>
<polygon fill="black" stroke="black" points="429.405,-139.797 439.169,-135.685 428.972,-132.81 429.405,-139.797"/>
<text text-anchor="middle" x="208.406" y="-232.65" font-family="Times,serif" font-size="14.00"> static(supports)</text>
</g>
<!-- n8&#45;&gt;n14 -->
<g id="edge45" class="edge"><title>n8&#45;&gt;n14</title>
<path fill="none" stroke="black" d="M1793.21,-337.347C1738.92,-333.172 1655.19,-322.658 1587.41,-296.22 1576.04,-291.786 1575.2,-286.912 1564.41,-281.22 1548.65,-272.913 1530.96,-265.055 1514.62,-258.347"/>
<polygon fill="black" stroke="black" points="1515.76,-255.032 1505.17,-254.535 1513.14,-261.524 1515.76,-255.032"/>
<text text-anchor="middle" x="1655.91" y="-285.02" font-family="Times,serif" font-size="14.00"> static(calibration_target)</text>
</g>
<!-- n8&#45;&gt;n15 -->
<g id="edge19" class="edge"><title>n8&#45;&gt;n15</title>
<path fill="none" stroke="black" d="M1852.69,-314.165C1854.26,-301.754 1856.16,-286.692 1857.87,-273.204"/>
<polygon fill="black" stroke="black" points="1861.34,-273.628 1859.13,-263.268 1854.4,-272.749 1861.34,-273.628"/>
<text text-anchor="middle" x="1903.91" y="-285.02" font-family="Times,serif" font-size="14.00"> static(on_board)</text>
</g>
<!-- n8&#45;&gt;n16 -->
<g id="edge6" class="edge"><title>n8&#45;&gt;n16</title>
<path fill="none" stroke="black" d="M1889.22,-321.927C1897.7,-318.789 1906.72,-315.975 1915.41,-314.22 2072.07,-282.578 2475.35,-311.873 2634.41,-296.22 2651.41,-294.547 3227.96,-203.177 3240.41,-191.48 3246.79,-185.483 3250.5,-177.147 3252.6,-168.633"/>
<polygon fill="black" stroke="black" points="3256.07,-169.148 3254.39,-158.686 3249.18,-167.907 3256.07,-169.148"/>
<text text-anchor="middle" x="3205.41" y="-232.65" font-family="Times,serif" font-size="14.00"> static(supports)</text>
</g>
<!-- n8&#45;&gt;n18 -->
<g id="edge17" class="edge"><title>n8&#45;&gt;n18</title>
<path fill="none" stroke="black" d="M1889.22,-321.914C1897.7,-318.776 1906.72,-315.966 1915.41,-314.22 2073.68,-282.419 3222.86,-335.098 3367.41,-263.22 3395.3,-249.35 3385.71,-225.528 3412.41,-209.48 3445.5,-189.587 3469.76,-218.445 3497.41,-191.48 3503.68,-185.364 3507.35,-176.987 3509.45,-168.471"/>
<polygon fill="black" stroke="black" points="3512.91,-169.002 3511.25,-158.537 3506.02,-167.751 3512.91,-169.002"/>
<text text-anchor="middle" x="3456.41" y="-232.65" font-family="Times,serif" font-size="14.00"> static(supports)</text>
</g>
<!-- n9 -->
<g id="node9" class="node"><title>n9</title>
<ellipse fill="none" stroke="black" cx="2473.41" cy="-236.35" rx="62.8651" ry="26.7407"/>
<text text-anchor="middle" x="2473.41" y="-240.15" font-family="Times,serif" font-size="14.00">&lt;objective5&gt;</text>
<text text-anchor="middle" x="2473.41" y="-225.15" font-family="Times,serif" font-size="14.00">objective</text>
</g>
<!-- n9&#45;&gt;n4 -->
<g id="edge33" class="edge"><title>n9&#45;&gt;n4</title>
<path fill="none" stroke="black" d="M2414.81,-226.26C2373.9,-220.33 2317.96,-213.051 2268.41,-209.48 2050.71,-193.794 1502.6,-221.467 1286.41,-191.48 1260.46,-187.881 1255.27,-180.615 1229.41,-176.48 985.78,-137.536 691.664,-132.39 562.146,-132.206"/>
<polygon fill="black" stroke="black" points="561.992,-128.706 551.99,-132.202 561.989,-135.706 561.992,-128.706"/>
<text text-anchor="middle" x="1378.41" y="-180.28" font-family="Times,serif" font-size="14.00"> end(communicated_image_data)</text>
</g>
<!-- n9&#45;&gt;n5 -->
<g id="edge21" class="edge"><title>n9&#45;&gt;n5</title>
<path fill="none" stroke="black" d="M2472.36,-209.243C2470.71,-198.069 2467.08,-185.538 2459.41,-176.48 2386.86,-90.8523 2256.53,-53.5359 2176.15,-38.048"/>
<polygon fill="black" stroke="black" points="2176.59,-34.5699 2166.12,-36.1785 2175.3,-41.4515 2176.59,-34.5699"/>
<text text-anchor="middle" x="2496.41" y="-127.91" font-family="Times,serif" font-size="14.00"> static(visible_from)</text>
</g>
<!-- n9&#45;&gt;n6 -->
<g id="edge32" class="edge"><title>n9&#45;&gt;n6</title>
<path fill="none" stroke="black" d="M2413.43,-227.749C2321.14,-216.011 2153.53,-194.503 2140.41,-191.48 2119.86,-186.749 2115.97,-181.129 2095.41,-176.48 1999.28,-154.747 1885.91,-143.101 1813.62,-137.387"/>
<polygon fill="black" stroke="black" points="1813.5,-133.867 1803.26,-136.586 1812.96,-140.846 1813.5,-133.867"/>
<text text-anchor="middle" x="2196.41" y="-180.28" font-family="Times,serif" font-size="14.00"> static(visible_from)</text>
</g>
<!-- n9&#45;&gt;n16 -->
<g id="edge41" class="edge"><title>n9&#45;&gt;n16</title>
<path fill="none" stroke="black" d="M2528.16,-222.874C2556.16,-215.512 2590.36,-204.973 2619.41,-191.48 2630.47,-186.338 2630.84,-180.374 2642.41,-176.48 2742.52,-142.777 3054.84,-134.964 3190.47,-133.155"/>
<polygon fill="black" stroke="black" points="3190.75,-136.652 3200.71,-133.025 3190.66,-129.652 3190.75,-136.652"/>
<text text-anchor="middle" x="2734.41" y="-180.28" font-family="Times,serif" font-size="14.00"> end(communicated_image_data)</text>
</g>
<!-- n9&#45;&gt;n18 -->
<g id="edge13" class="edge"><title>n9&#45;&gt;n18</title>
<path fill="none" stroke="black" d="M2535.71,-232.069C2639.27,-226.257 2853.27,-212.725 3033.41,-191.48 3075.86,-186.474 3086,-181.842 3128.41,-176.48 3212.12,-165.895 3233.57,-168.059 3317.41,-158.48 3363.89,-153.169 3416.5,-146.087 3455.19,-140.676"/>
<polygon fill="black" stroke="black" points="3455.8,-144.125 3465.21,-139.267 3454.82,-137.193 3455.8,-144.125"/>
<text text-anchor="middle" x="3220.41" y="-180.28" font-family="Times,serif" font-size="14.00"> end(communicated_image_data)</text>
</g>
<!-- n10 -->
<g id="node10" class="node"><title>n10</title>
<ellipse fill="none" stroke="black" cx="599.406" cy="-236.35" rx="62.8651" ry="26.7407"/>
<text text-anchor="middle" x="599.406" y="-240.15" font-family="Times,serif" font-size="14.00">&lt;objective0&gt;</text>
<text text-anchor="middle" x="599.406" y="-225.15" font-family="Times,serif" font-size="14.00">objective</text>
</g>
<!-- n10&#45;&gt;n4 -->
<g id="edge10" class="edge"><title>n10&#45;&gt;n4</title>
<path fill="none" stroke="black" d="M543.1,-224.196C525.171,-217.721 507.207,-207.522 496.406,-191.48 491.91,-184.803 490.086,-176.663 489.715,-168.592"/>
<polygon fill="black" stroke="black" points="493.215,-168.594 489.93,-158.521 486.217,-168.444 493.215,-168.594"/>
<text text-anchor="middle" x="588.406" y="-180.28" font-family="Times,serif" font-size="14.00"> end(communicated_image_data)</text>
</g>
<!-- n10&#45;&gt;n6 -->
<g id="edge9" class="edge"><title>n10&#45;&gt;n6</title>
<path fill="none" stroke="black" d="M639.338,-215.476C652.683,-208.377 667.45,-200.012 680.406,-191.48 689.392,-185.563 689.319,-180.222 699.406,-176.48 789.245,-143.156 1443.51,-134.942 1666.33,-133.101"/>
<polygon fill="black" stroke="black" points="1666.64,-136.598 1676.61,-133.018 1666.58,-129.599 1666.64,-136.598"/>
<text text-anchor="middle" x="755.406" y="-180.28" font-family="Times,serif" font-size="14.00"> static(visible_from)</text>
</g>
<!-- n11 -->
<g id="node11" class="node"><title>n11</title>
<ellipse fill="none" stroke="black" cx="1991.41" cy="-341.09" rx="67.3507" ry="26.7407"/>
<text text-anchor="middle" x="1991.41" y="-344.89" font-family="Times,serif" font-size="14.00">&lt;rover0store&gt;</text>
<text text-anchor="middle" x="1991.41" y="-329.89" font-family="Times,serif" font-size="14.00">store</text>
</g>
<!-- n11&#45;&gt;n11 -->
<g id="edge4" class="edge"><title>n11&#45;&gt;n11</title>
<path fill="none" stroke="black" d="M2054.55,-350.468C2067.39,-349.447 2076.58,-346.321 2076.58,-341.09 2076.58,-337.413 2072.04,-334.775 2064.88,-333.179"/>
<polygon fill="black" stroke="black" points="2064.95,-329.653 2054.55,-331.712 2063.96,-336.584 2064.95,-329.653"/>
<text text-anchor="middle" x="2109.58" y="-337.39" font-family="Times,serif" font-size="14.00"> init(empty)</text>
</g>
<!-- n11&#45;&gt;n15 -->
<g id="edge26" class="edge"><title>n11&#45;&gt;n15</title>
<path fill="none" stroke="black" d="M1979.53,-314.586C1973.3,-303.267 1964.78,-290.45 1954.41,-281.22 1942.26,-270.411 1926.99,-261.71 1912.39,-254.996"/>
<polygon fill="black" stroke="black" points="1913.5,-251.662 1902.93,-250.869 1910.7,-258.078 1913.5,-251.662"/>
<text text-anchor="middle" x="2010.41" y="-285.02" font-family="Times,serif" font-size="14.00"> static(store_of)</text>
</g>
<!-- n12 -->
<g id="node12" class="node"><title>n12</title>
<ellipse fill="none" stroke="black" cx="324.406" cy="-236.35" rx="62.8651" ry="26.7407"/>
<text text-anchor="middle" x="324.406" y="-240.15" font-family="Times,serif" font-size="14.00">&lt;objective3&gt;</text>
<text text-anchor="middle" x="324.406" y="-225.15" font-family="Times,serif" font-size="14.00">objective</text>
</g>
<!-- n12&#45;&gt;n4 -->
<g id="edge42" class="edge"><title>n12&#45;&gt;n4</title>
<path fill="none" stroke="black" d="M269.442,-222.864C221.179,-211.638 158.07,-196.209 154.406,-191.48 150.323,-186.21 150.003,-181.486 154.406,-176.48 172.236,-156.21 335.157,-142.681 429.201,-136.487"/>
<polygon fill="black" stroke="black" points="429.444,-139.979 439.196,-135.84 428.991,-132.994 429.444,-139.979"/>
<text text-anchor="middle" x="246.406" y="-180.28" font-family="Times,serif" font-size="14.00"> end(communicated_image_data)</text>
</g>
<!-- n12&#45;&gt;n6 -->
<g id="edge44" class="edge"><title>n12&#45;&gt;n6</title>
<path fill="none" stroke="black" d="M339.24,-209.983C348.03,-197.502 360.39,-183.633 375.406,-176.48 404.761,-162.498 1386.52,-140.257 1666.53,-134.185"/>
<polygon fill="black" stroke="black" points="1666.67,-137.683 1676.59,-133.968 1666.52,-130.685 1666.67,-137.683"/>
<text text-anchor="middle" x="431.406" y="-180.28" font-family="Times,serif" font-size="14.00"> static(visible_from)</text>
</g>
<!-- n13&#45;&gt;n5 -->
<g id="edge24" class="edge"><title>n13&#45;&gt;n5</title>
<path fill="none" stroke="black" d="M3635.08,-233.012C3688.98,-228.399 3754.41,-214.997 3729.41,-176.48 3686.75,-110.774 3644.58,-123.046 3568.41,-104.74 3300.6,-40.3788 2438.38,-29.8989 2180.16,-28.1981"/>
<polygon fill="black" stroke="black" points="2180.15,-24.6982 2170.13,-28.1346 2180.11,-31.698 2180.15,-24.6982"/>
<text text-anchor="middle" x="3771.41" y="-127.91" font-family="Times,serif" font-size="14.00"> static(visible_from)</text>
</g>
<!-- n13&#45;&gt;n6 -->
<g id="edge11" class="edge"><title>n13&#45;&gt;n6</title>
<path fill="none" stroke="black" d="M3526.99,-217.542C3516.75,-214.248 3505.83,-211.281 3495.41,-209.48 3386.78,-190.706 2607.22,-228.578 2503.41,-191.48 2493.27,-187.86 2494.49,-180.236 2484.41,-176.48 2442.72,-160.948 2128.82,-161.149 2084.41,-158.48 1990.39,-152.831 1882.06,-144.359 1812.49,-138.665"/>
<polygon fill="black" stroke="black" points="1812.77,-135.176 1802.51,-137.846 1812.19,-142.153 1812.77,-135.176"/>
<text text-anchor="middle" x="2559.41" y="-180.28" font-family="Times,serif" font-size="14.00"> static(visible_from)</text>
</g>
<!-- n13&#45;&gt;n16 -->
<g id="edge34" class="edge"><title>n13&#45;&gt;n16</title>
<path fill="none" stroke="black" d="M3526.01,-218.088C3516.02,-214.845 3505.45,-211.761 3495.41,-209.48 3431.65,-194.996 3411.07,-213.205 3349.41,-191.48 3328.84,-184.233 3308.01,-172 3291.13,-160.557"/>
<polygon fill="black" stroke="black" points="3292.88,-157.516 3282.68,-154.676 3288.89,-163.261 3292.88,-157.516"/>
<text text-anchor="middle" x="3441.41" y="-180.28" font-family="Times,serif" font-size="14.00"> end(communicated_image_data)</text>
</g>
<!-- n13&#45;&gt;n18 -->
<g id="edge31" class="edge"><title>n13&#45;&gt;n18</title>
<path fill="none" stroke="black" d="M3556.58,-209.906C3552.88,-203.884 3548.98,-197.472 3545.41,-191.48 3540.52,-183.291 3535.34,-174.409 3530.52,-166.086"/>
<polygon fill="black" stroke="black" points="3533.51,-164.25 3525.48,-157.333 3527.44,-167.745 3533.51,-164.25"/>
<text text-anchor="middle" x="3637.41" y="-180.28" font-family="Times,serif" font-size="14.00"> end(communicated_image_data)</text>
</g>
<!-- n14&#45;&gt;n4 -->
<g id="edge43" class="edge"><title>n14&#45;&gt;n4</title>
<path fill="none" stroke="black" d="M1395.53,-234.888C1259.17,-233.242 940.307,-225.733 838.406,-191.48 826.838,-187.592 826.84,-180.746 815.406,-176.48 731.873,-145.317 628.667,-135.941 562.445,-133.31"/>
<polygon fill="black" stroke="black" points="562.261,-129.801 552.143,-132.943 562.012,-136.797 562.261,-129.801"/>
<text text-anchor="middle" x="930.406" y="-180.28" font-family="Times,serif" font-size="14.00"> end(communicated_image_data)</text>
</g>
<!-- n14&#45;&gt;n6 -->
<g id="edge39" class="edge"><title>n14&#45;&gt;n6</title>
<path fill="none" stroke="black" d="M1464.77,-209.509C1468.99,-197.689 1475.77,-184.551 1486.41,-176.48 1514.28,-155.334 1602.89,-143.652 1667.62,-137.763"/>
<polygon fill="black" stroke="black" points="1668.14,-141.231 1677.79,-136.867 1667.52,-134.258 1668.14,-141.231"/>
<text text-anchor="middle" x="1542.41" y="-180.28" font-family="Times,serif" font-size="14.00"> static(visible_from)</text>
</g>
<!-- n14&#45;&gt;n16 -->
<g id="edge46" class="edge"><title>n14&#45;&gt;n16</title>
<path fill="none" stroke="black" d="M1503.24,-217.39C1512.73,-214.237 1522.79,-211.366 1532.41,-209.48 1609.48,-194.366 1810.96,-216.537 1885.41,-191.48 1896.62,-187.705 1896.14,-180.117 1907.41,-176.48 1979.54,-153.182 2513.64,-160.954 2589.41,-158.48 2810.23,-151.271 3072.21,-140.397 3190.65,-135.356"/>
<polygon fill="black" stroke="black" points="3191.13,-138.839 3200.97,-134.916 3190.83,-131.845 3191.13,-138.839"/>
<text text-anchor="middle" x="1999.41" y="-180.28" font-family="Times,serif" font-size="14.00"> end(communicated_image_data)</text>
</g>
<!-- n15&#45;&gt;n6 -->
<g id="edge25" class="edge"><title>n15&#45;&gt;n6</title>
<path fill="none" stroke="black" d="M1820.32,-223.036C1805.5,-218.721 1788.72,-213.86 1773.41,-209.48 1745,-201.356 1727.25,-215.033 1709.41,-191.48 1703.27,-183.386 1705.01,-173.91 1709.93,-164.954"/>
<polygon fill="black" stroke="black" points="1712.87,-166.859 1715.47,-156.59 1707.03,-162.992 1712.87,-166.859"/>
<text text-anchor="middle" x="1729.91" y="-180.28" font-family="Times,serif" font-size="14.00"> init(at)</text>
</g>
<!-- n15&#45;&gt;n15 -->
<g id="edge5" class="edge"><title>n15&#45;&gt;n15</title>
<path fill="none" stroke="black" d="M1907.5,-246.015C1919.44,-245.462 1928.49,-242.241 1928.49,-236.35 1928.49,-232.3 1924.21,-229.512 1917.66,-227.986"/>
<polygon fill="black" stroke="black" points="1917.86,-224.483 1907.5,-226.686 1916.98,-231.427 1917.86,-224.483"/>
<text text-anchor="middle" x="2021.99" y="-247.65" font-family="Times,serif" font-size="14.00"> static(equipped_for_imaging)</text>
<text text-anchor="middle" x="2021.99" y="-232.65" font-family="Times,serif" font-size="14.00">init(available)</text>
<text text-anchor="middle" x="2021.99" y="-217.65" font-family="Times,serif" font-size="14.00">static(equipped_for_soil_analysis)</text>
</g>
<!-- n17 -->
<g id="node17" class="node"><title>n17</title>
<ellipse fill="none" stroke="black" cx="3692.41" cy="-341.09" rx="56.6372" ry="26.7407"/>
<text text-anchor="middle" x="3692.41" y="-344.89" font-family="Times,serif" font-size="14.00">&lt;camera3&gt;</text>
<text text-anchor="middle" x="3692.41" y="-329.89" font-family="Times,serif" font-size="14.00">camera</text>
</g>
<!-- n17&#45;&gt;n13 -->
<g id="edge38" class="edge"><title>n17&#45;&gt;n13</title>
<path fill="none" stroke="black" d="M3653.85,-321.338C3641.52,-314.376 3628.26,-305.809 3617.41,-296.22 3609.08,-288.861 3601.25,-279.765 3594.52,-270.942"/>
<polygon fill="black" stroke="black" points="3597.17,-268.632 3588.44,-262.632 3591.52,-272.768 3597.17,-268.632"/>
<text text-anchor="middle" x="3685.91" y="-285.02" font-family="Times,serif" font-size="14.00"> static(calibration_target)</text>
</g>
<!-- n17&#45;&gt;n15 -->
<g id="edge8" class="edge"><title>n17&#45;&gt;n15</title>
<path fill="none" stroke="black" d="M3636.85,-335.466C3568.35,-329.876 3448.37,-320.447 3345.41,-314.22 3029.64,-295.126 2950.48,-294.133 2634.41,-281.22 2407.79,-271.962 2350.71,-278.371 2124.41,-263.22 2053.65,-258.483 1972.42,-249.985 1919.4,-244.025"/>
<polygon fill="black" stroke="black" points="1919.52,-240.516 1909.19,-242.869 1918.73,-247.472 1919.52,-240.516"/>
<text text-anchor="middle" x="3048.91" y="-285.02" font-family="Times,serif" font-size="14.00"> static(on_board)</text>
</g>
<!-- n17&#45;&gt;n16 -->
<g id="edge18" class="edge"><title>n17&#45;&gt;n16</title>
<path fill="none" stroke="black" d="M3730.9,-321.298C3740.28,-314.739 3749.13,-306.409 3754.41,-296.22 3763.41,-278.821 3782.87,-219.746 3733.41,-176.48 3710.02,-156.028 3485.33,-161.474 3454.41,-158.48 3407.76,-153.964 3355.22,-147.098 3315.7,-141.574"/>
<polygon fill="black" stroke="black" points="3316.08,-138.093 3305.69,-140.165 3315.1,-145.025 3316.08,-138.093"/>
<text text-anchor="middle" x="3810.41" y="-232.65" font-family="Times,serif" font-size="14.00"> static(supports)</text>
</g>
<!-- n17&#45;&gt;n18 -->
<g id="edge16" class="edge"><title>n17&#45;&gt;n18</title>
<path fill="none" stroke="black" d="M3745.6,-331.34C3784.72,-321.819 3835.28,-302.355 3860.41,-263.22 3873.31,-243.123 3873.6,-229.389 3860.41,-209.48 3839.61,-178.104 3818.58,-186.896 3782.41,-176.48 3710.19,-155.684 3624.12,-143.863 3568.66,-137.85"/>
<polygon fill="black" stroke="black" points="3568.98,-134.365 3558.67,-136.794 3568.25,-141.326 3568.98,-134.365"/>
<text text-anchor="middle" x="3914.41" y="-232.65" font-family="Times,serif" font-size="14.00"> static(supports)</text>
</g>
</g>
</svg>
