<?xml version="1.0" encoding="UTF-8" standalone="no"?>
<!DOCTYPE svg PUBLIC "-//W3C//DTD SVG 1.1//EN"
 "http://www.w3.org/Graphics/SVG/1.1/DTD/svg11.dtd">
<!-- Generated by graphviz version 2.38.0 (20140413.2041)
 -->
<!-- Title: Struc Pages: 1 -->
<svg width="4012pt" height="376pt"
 viewBox="0.00 0.00 4011.93 375.96" xmlns="http://www.w3.org/2000/svg" xmlns:xlink="http://www.w3.org/1999/xlink">
<g id="graph0" class="graph" transform="scale(1 1) rotate(0) translate(4 371.96)">
<title>Struc</title>
<polygon fill="white" stroke="none" points="-4,4 -4,-371.96 4007.93,-371.96 4007.93,4 -4,4"/>
<!-- n1 -->
<g id="node1" class="node"><title>n1</title>
<ellipse fill="none" stroke="black" cx="1432.93" cy="-341.09" rx="56.6372" ry="26.7407"/>
<text text-anchor="middle" x="1432.93" y="-344.89" font-family="Times,serif" font-size="14.00">&lt;camera2&gt;</text>
<text text-anchor="middle" x="1432.93" y="-329.89" font-family="Times,serif" font-size="14.00">camera</text>
</g>
<!-- n7 -->
<g id="node7" class="node"><title>n7</title>
<ellipse fill="none" stroke="black" cx="1900.93" cy="-236.35" rx="67.7647" ry="26.7407"/>
<text text-anchor="middle" x="1900.93" y="-240.15" font-family="Times,serif" font-size="14.00">&lt;objective13&gt;</text>
<text text-anchor="middle" x="1900.93" y="-225.15" font-family="Times,serif" font-size="14.00">objective</text>
</g>
<!-- n1&#45;&gt;n7 -->
<g id="edge6" class="edge"><title>n1&#45;&gt;n7</title>
<path fill="none" stroke="black" d="M1489.48,-339.884C1549.13,-337.773 1644.7,-328.919 1719.93,-296.22 1729.8,-291.932 1729.2,-285.8 1738.93,-281.22 1773.48,-264.968 1786.09,-273.245 1822.93,-263.22 1828.99,-261.573 1835.26,-259.729 1841.5,-257.803"/>
<polygon fill="black" stroke="black" points="1842.76,-261.076 1851.25,-254.728 1840.66,-254.4 1842.76,-261.076"/>
<text text-anchor="middle" x="1807.43" y="-285.02" font-family="Times,serif" font-size="14.00"> static(calibration_target)</text>
</g>
<!-- n15 -->
<g id="node15" class="node"><title>n15</title>
<ellipse fill="none" stroke="black" cx="575.933" cy="-131.61" rx="53.9813" ry="26.7407"/>
<text text-anchor="middle" x="575.933" y="-135.41" font-family="Times,serif" font-size="14.00">&lt;low_res&gt;</text>
<text text-anchor="middle" x="575.933" y="-120.41" font-family="Times,serif" font-size="14.00">mode</text>
</g>
<!-- n1&#45;&gt;n15 -->
<g id="edge52" class="edge"><title>n1&#45;&gt;n15</title>
<path fill="none" stroke="black" d="M1438.35,-314.334C1444.35,-277.759 1448.76,-211.351 1410.93,-176.48 1382.69,-150.438 829.988,-137.464 639.675,-133.756"/>
<polygon fill="black" stroke="black" points="639.609,-130.254 629.544,-133.561 639.474,-137.253 639.609,-130.254"/>
<text text-anchor="middle" x="1486.93" y="-232.65" font-family="Times,serif" font-size="14.00"> static(supports)</text>
</g>
<!-- n29 -->
<g id="node29" class="node"><title>n29</title>
<ellipse fill="none" stroke="black" cx="1143.93" cy="-236.35" rx="48.1667" ry="26.7407"/>
<text text-anchor="middle" x="1143.93" y="-240.15" font-family="Times,serif" font-size="14.00">&lt;rover0&gt;</text>
<text text-anchor="middle" x="1143.93" y="-225.15" font-family="Times,serif" font-size="14.00">rover</text>
</g>
<!-- n1&#45;&gt;n29 -->
<g id="edge8" class="edge"><title>n1&#45;&gt;n29</title>
<path fill="none" stroke="black" d="M1377.93,-334.286C1290.16,-324.76 1127.35,-305.901 1118.93,-296.22 1112.25,-288.539 1113.56,-278.807 1118,-269.48"/>
<polygon fill="black" stroke="black" points="1121.08,-271.15 1123.05,-260.741 1115.02,-267.646 1121.08,-271.15"/>
<text text-anchor="middle" x="1165.43" y="-285.02" font-family="Times,serif" font-size="14.00"> static(on_board)</text>
</g>
<!-- n2 -->
<g id="node2" class="node"><title>n2</title>
<ellipse fill="none" stroke="black" cx="1604.93" cy="-236.35" rx="62.8651" ry="26.7407"/>
<text text-anchor="middle" x="1604.93" y="-240.15" font-family="Times,serif" font-size="14.00">&lt;objective1&gt;</text>
<text text-anchor="middle" x="1604.93" y="-225.15" font-family="Times,serif" font-size="14.00">objective</text>
</g>
<!-- n4 -->
<g id="node4" class="node"><title>n4</title>
<ellipse fill="none" stroke="black" cx="2331.93" cy="-26.8701" rx="63.7795" ry="26.7407"/>
<text text-anchor="middle" x="2331.93" y="-30.6701" font-family="Times,serif" font-size="14.00">&lt;waypoint1&gt;</text>
<text text-anchor="middle" x="2331.93" y="-15.6701" font-family="Times,serif" font-size="14.00">waypoint</text>
</g>
<!-- n2&#45;&gt;n4 -->
<g id="edge32" class="edge"><title>n2&#45;&gt;n4</title>
<path fill="none" stroke="black" d="M1595.35,-209.699C1586.27,-180.457 1577.44,-133.058 1602.93,-104.74 1646.26,-56.6009 2081.65,-36.4142 2258.18,-30.1647"/>
<polygon fill="black" stroke="black" points="2258.54,-33.6542 2268.41,-29.8077 2258.3,-26.6585 2258.54,-33.6542"/>
<text text-anchor="middle" x="1658.93" y="-127.91" font-family="Times,serif" font-size="14.00"> static(visible_from)</text>
</g>
<!-- n22 -->
<g id="node22" class="node"><title>n22</title>
<ellipse fill="none" stroke="black" cx="2230.93" cy="-131.61" rx="63.7795" ry="26.7407"/>
<text text-anchor="middle" x="2230.93" y="-135.41" font-family="Times,serif" font-size="14.00">&lt;waypoint0&gt;</text>
<text text-anchor="middle" x="2230.93" y="-120.41" font-family="Times,serif" font-size="14.00">waypoint</text>
</g>
<!-- n2&#45;&gt;n22 -->
<g id="edge16" class="edge"><title>n2&#45;&gt;n22</title>
<path fill="none" stroke="black" d="M1652.37,-218.537C1677.77,-209.218 1706.19,-198.19 1717.93,-191.48 1727.27,-186.141 1726.93,-180.455 1736.93,-176.48 1775.01,-161.342 2029.57,-144.462 2157.63,-136.8"/>
<polygon fill="black" stroke="black" points="2157.98,-140.285 2167.75,-136.198 2157.56,-133.298 2157.98,-140.285"/>
<text text-anchor="middle" x="1792.93" y="-180.28" font-family="Times,serif" font-size="14.00"> static(visible_from)</text>
</g>
<!-- n3 -->
<g id="node3" class="node"><title>n3</title>
<ellipse fill="none" stroke="black" cx="211.933" cy="-236.35" rx="67.7647" ry="26.7407"/>
<text text-anchor="middle" x="211.933" y="-240.15" font-family="Times,serif" font-size="14.00">&lt;objective14&gt;</text>
<text text-anchor="middle" x="211.933" y="-225.15" font-family="Times,serif" font-size="14.00">objective</text>
</g>
<!-- n3&#45;&gt;n4 -->
<g id="edge12" class="edge"><title>n3&#45;&gt;n4</title>
<path fill="none" stroke="black" d="M245.406,-212.914C255.557,-206.068 266.722,-198.497 276.933,-191.48 332.364,-153.391 337.199,-126.222 400.933,-104.74 579.078,-44.6955 1925.41,-30.8681 2257.88,-28.3558"/>
<polygon fill="black" stroke="black" points="2258.38,-31.8523 2268.35,-28.2779 2258.32,-24.8525 2258.38,-31.8523"/>
<text text-anchor="middle" x="456.933" y="-127.91" font-family="Times,serif" font-size="14.00"> static(visible_from)</text>
</g>
<!-- n3&#45;&gt;n22 -->
<g id="edge38" class="edge"><title>n3&#45;&gt;n22</title>
<path fill="none" stroke="black" d="M260.817,-217.472C271.588,-214.226 283.037,-211.298 293.933,-209.48 451.801,-183.144 855.297,-212.713 1013.93,-191.48 1041.6,-187.776 1047.26,-180.157 1074.93,-176.48 1247.24,-153.591 1683.29,-166.48 1856.93,-158.48 1961.87,-153.646 2083.16,-144.623 2158.46,-138.616"/>
<polygon fill="black" stroke="black" points="2159.09,-142.077 2168.78,-137.789 2158.53,-135.099 2159.09,-142.077"/>
<text text-anchor="middle" x="1130.93" y="-180.28" font-family="Times,serif" font-size="14.00"> static(visible_from)</text>
</g>
<!-- n4&#45;&gt;n4 -->
<g id="edge1" class="edge"><title>n4&#45;&gt;n4</title>
<path fill="none" stroke="black" d="M2391.74,-36.3053C2404.42,-35.3472 2413.57,-32.2021 2413.57,-26.8701 2413.57,-23.121 2409.05,-20.4531 2401.95,-18.8664"/>
<polygon fill="black" stroke="black" points="2402.13,-15.3569 2391.74,-17.4349 2401.15,-22.2891 2402.13,-15.3569"/>
<text text-anchor="middle" x="2498.07" y="-30.6701" font-family="Times,serif" font-size="14.00"> end(communicated_soil_data)</text>
<text text-anchor="middle" x="2498.07" y="-15.6701" font-family="Times,serif" font-size="14.00">init(at_soil_sample)</text>
</g>
<!-- n4&#45;&gt;n22 -->
<g id="edge14" class="edge"><title>n4&#45;&gt;n22</title>
<path fill="none" stroke="black" d="M2275.91,-39.9007C2258.95,-46.4246 2242.12,-56.4307 2231.93,-71.7401 2227.47,-78.4416 2225.66,-86.5909 2225.29,-94.6631"/>
<polygon fill="black" stroke="black" points="2221.8,-94.8078 2225.51,-104.732 2228.79,-94.6603 2221.8,-94.8078"/>
<text text-anchor="middle" x="2270.93" y="-75.5401" font-family="Times,serif" font-size="14.00"> static(visible)</text>
</g>
<!-- n5 -->
<g id="node5" class="node"><title>n5</title>
<ellipse fill="none" stroke="black" cx="1901.93" cy="-341.09" rx="56.6372" ry="26.7407"/>
<text text-anchor="middle" x="1901.93" y="-344.89" font-family="Times,serif" font-size="14.00">&lt;camera0&gt;</text>
<text text-anchor="middle" x="1901.93" y="-329.89" font-family="Times,serif" font-size="14.00">camera</text>
</g>
<!-- n14 -->
<g id="node14" class="node"><title>n14</title>
<ellipse fill="none" stroke="black" cx="1750.93" cy="-236.35" rx="62.8651" ry="26.7407"/>
<text text-anchor="middle" x="1750.93" y="-240.15" font-family="Times,serif" font-size="14.00">&lt;objective8&gt;</text>
<text text-anchor="middle" x="1750.93" y="-225.15" font-family="Times,serif" font-size="14.00">objective</text>
</g>
<!-- n5&#45;&gt;n14 -->
<g id="edge27" class="edge"><title>n5&#45;&gt;n14</title>
<path fill="none" stroke="black" d="M1897.52,-314.071C1894.37,-302.643 1889.01,-289.883 1879.93,-281.22 1861.02,-263.17 1848.7,-271.588 1823.93,-263.22 1818.68,-261.445 1813.22,-259.57 1807.76,-257.674"/>
<polygon fill="black" stroke="black" points="1808.58,-254.252 1797.98,-254.255 1806.27,-260.859 1808.58,-254.252"/>
<text text-anchor="middle" x="1959.43" y="-285.02" font-family="Times,serif" font-size="14.00"> static(calibration_target)</text>
</g>
<!-- n21 -->
<g id="node21" class="node"><title>n21</title>
<ellipse fill="none" stroke="black" cx="2042.93" cy="-236.35" rx="56.6372" ry="26.7407"/>
<text text-anchor="middle" x="2042.93" y="-240.15" font-family="Times,serif" font-size="14.00">&lt;high_res&gt;</text>
<text text-anchor="middle" x="2042.93" y="-225.15" font-family="Times,serif" font-size="14.00">mode</text>
</g>
<!-- n5&#45;&gt;n21 -->
<g id="edge47" class="edge"><title>n5&#45;&gt;n21</title>
<path fill="none" stroke="black" d="M1958.37,-338.286C2024.11,-334.856 2126.84,-324.926 2150.93,-296.22 2155.22,-291.114 2154.66,-286.751 2150.93,-281.22 2149.13,-278.548 2122.39,-267.676 2095.98,-257.425"/>
<polygon fill="black" stroke="black" points="2096.89,-254.028 2086.3,-253.693 2094.37,-260.559 2096.89,-254.028"/>
<text text-anchor="middle" x="2198.93" y="-285.02" font-family="Times,serif" font-size="14.00"> static(supports)</text>
</g>
<!-- n5&#45;&gt;n29 -->
<g id="edge30" class="edge"><title>n5&#45;&gt;n29</title>
<path fill="none" stroke="black" d="M1845.34,-339.525C1787.25,-337.069 1695.38,-327.891 1622.93,-296.22 1613.07,-291.911 1613.92,-285.217 1603.93,-281.22 1563.94,-265.217 1453.81,-267.297 1410.93,-263.22 1338.63,-256.346 1255.34,-248.247 1201.27,-242.966"/>
<polygon fill="black" stroke="black" points="1201.49,-239.47 1191.19,-241.981 1200.81,-246.437 1201.49,-239.47"/>
<text text-anchor="middle" x="1669.43" y="-285.02" font-family="Times,serif" font-size="14.00"> static(on_board)</text>
</g>
<!-- n6 -->
<g id="node6" class="node"><title>n6</title>
<ellipse fill="none" stroke="black" cx="3462.93" cy="-236.35" rx="67.7647" ry="26.7407"/>
<text text-anchor="middle" x="3462.93" y="-240.15" font-family="Times,serif" font-size="14.00">&lt;objective15&gt;</text>
<text text-anchor="middle" x="3462.93" y="-225.15" font-family="Times,serif" font-size="14.00">objective</text>
</g>
<!-- n6&#45;&gt;n4 -->
<g id="edge18" class="edge"><title>n6&#45;&gt;n4</title>
<path fill="none" stroke="black" d="M3466.5,-209.32C3466.94,-198.775 3466.11,-186.7 3461.93,-176.48 3445.32,-135.811 3433.39,-124.059 3393.93,-104.74 3305.69,-61.5325 2631.53,-37.0732 2405.52,-30.0228"/>
<polygon fill="black" stroke="black" points="2405.52,-26.5214 2395.42,-29.7101 2405.31,-33.518 2405.52,-26.5214"/>
<text text-anchor="middle" x="3509.93" y="-127.91" font-family="Times,serif" font-size="14.00"> static(visible_from)</text>
</g>
<!-- n6&#45;&gt;n22 -->
<g id="edge56" class="edge"><title>n6&#45;&gt;n22</title>
<path fill="none" stroke="black" d="M3415,-217.035C3405.49,-214.034 3395.49,-211.311 3385.93,-209.48 3313.58,-195.624 3124.95,-214.381 3054.93,-191.48 3043.33,-187.686 3043.53,-180.276 3031.93,-176.48 2963.98,-154.238 2489.57,-139.449 2304.56,-134.469"/>
<polygon fill="black" stroke="black" points="2304.48,-130.966 2294.39,-134.198 2304.29,-137.963 2304.48,-130.966"/>
<text text-anchor="middle" x="3110.93" y="-180.28" font-family="Times,serif" font-size="14.00"> static(visible_from)</text>
</g>
<!-- n7&#45;&gt;n22 -->
<g id="edge22" class="edge"><title>n7&#45;&gt;n22</title>
<path fill="none" stroke="black" d="M1943.47,-215.078C1957.78,-207.95 1973.71,-199.668 1987.93,-191.48 1998.51,-185.39 1999.63,-181.09 2010.93,-176.48 2058.44,-157.099 2115.31,-146.047 2159.33,-139.885"/>
<polygon fill="black" stroke="black" points="2159.93,-143.336 2169.37,-138.533 2158.99,-136.399 2159.93,-143.336"/>
<text text-anchor="middle" x="2066.93" y="-180.28" font-family="Times,serif" font-size="14.00"> static(visible_from)</text>
</g>
<!-- n8 -->
<g id="node8" class="node"><title>n8</title>
<ellipse fill="none" stroke="black" cx="62.9325" cy="-236.35" rx="62.8651" ry="26.7407"/>
<text text-anchor="middle" x="62.9325" y="-240.15" font-family="Times,serif" font-size="14.00">&lt;objective5&gt;</text>
<text text-anchor="middle" x="62.9325" y="-225.15" font-family="Times,serif" font-size="14.00">objective</text>
</g>
<!-- n8&#45;&gt;n4 -->
<g id="edge25" class="edge"><title>n8&#45;&gt;n4</title>
<path fill="none" stroke="black" d="M72.5788,-209.495C77.5292,-198.499 84.3448,-186.036 92.9325,-176.48 131.947,-133.068 147.987,-124.43 202.933,-104.74 328.375,-59.7871 367.979,-80.6777 500.933,-71.7401 1182.37,-25.932 2009.27,-26.1092 2257.84,-27.3534"/>
<polygon fill="black" stroke="black" points="2258.17,-30.8551 2268.19,-27.4075 2258.21,-23.8552 2258.17,-30.8551"/>
<text text-anchor="middle" x="258.933" y="-127.91" font-family="Times,serif" font-size="14.00"> static(visible_from)</text>
</g>
<!-- n8&#45;&gt;n15 -->
<g id="edge55" class="edge"><title>n8&#45;&gt;n15</title>
<path fill="none" stroke="black" d="M79.4439,-210.135C89.0684,-197.697 102.373,-183.82 117.933,-176.48 176.129,-149.027 342.954,-165.355 406.933,-158.48 443.149,-154.588 483.479,-148.483 515.656,-143.181"/>
<polygon fill="black" stroke="black" points="516.512,-146.586 525.801,-141.491 515.362,-139.681 516.512,-146.586"/>
<text text-anchor="middle" x="209.933" y="-180.28" font-family="Times,serif" font-size="14.00"> end(communicated_image_data)</text>
</g>
<!-- n8&#45;&gt;n22 -->
<g id="edge49" class="edge"><title>n8&#45;&gt;n22</title>
<path fill="none" stroke="black" d="M107.74,-217.292C116.632,-214.268 125.986,-211.471 134.933,-209.48 154.213,-205.19 469.208,-177.528 488.933,-176.48 1096.13,-144.235 1249.39,-183.47 1856.93,-158.48 1961.9,-154.163 2083.18,-145.005 2158.47,-138.828"/>
<polygon fill="black" stroke="black" points="2159.11,-142.287 2168.79,-137.977 2158.53,-135.311 2159.11,-142.287"/>
<text text-anchor="middle" x="544.933" y="-180.28" font-family="Times,serif" font-size="14.00"> static(visible_from)</text>
</g>
<!-- n9 -->
<g id="node9" class="node"><title>n9</title>
<ellipse fill="none" stroke="black" cx="2476.93" cy="-236.35" rx="62.8651" ry="26.7407"/>
<text text-anchor="middle" x="2476.93" y="-240.15" font-family="Times,serif" font-size="14.00">&lt;objective0&gt;</text>
<text text-anchor="middle" x="2476.93" y="-225.15" font-family="Times,serif" font-size="14.00">objective</text>
</g>
<!-- n9&#45;&gt;n22 -->
<g id="edge11" class="edge"><title>n9&#45;&gt;n22</title>
<path fill="none" stroke="black" d="M2430.52,-218.164C2420.53,-214.915 2409.96,-211.811 2399.93,-209.48 2340.97,-195.778 2315.24,-225.147 2264.93,-191.48 2256.18,-185.621 2249.4,-176.692 2244.27,-167.546"/>
<polygon fill="black" stroke="black" points="2247.31,-165.796 2239.69,-158.433 2241.06,-168.94 2247.31,-165.796"/>
<text text-anchor="middle" x="2320.93" y="-180.28" font-family="Times,serif" font-size="14.00"> static(visible_from)</text>
</g>
<!-- n10 -->
<g id="node10" class="node"><title>n10</title>
<ellipse fill="none" stroke="black" cx="892.933" cy="-341.09" rx="67.3507" ry="26.7407"/>
<text text-anchor="middle" x="892.933" y="-344.89" font-family="Times,serif" font-size="14.00">&lt;rover0store&gt;</text>
<text text-anchor="middle" x="892.933" y="-329.89" font-family="Times,serif" font-size="14.00">store</text>
</g>
<!-- n10&#45;&gt;n10 -->
<g id="edge2" class="edge"><title>n10&#45;&gt;n10</title>
<path fill="none" stroke="black" d="M956.079,-350.468C968.916,-349.447 978.108,-346.321 978.108,-341.09 978.108,-337.413 973.563,-334.775 966.403,-333.179"/>
<polygon fill="black" stroke="black" points="966.472,-329.653 956.079,-331.712 965.487,-336.584 966.472,-329.653"/>
<text text-anchor="middle" x="1011.11" y="-337.39" font-family="Times,serif" font-size="14.00"> init(empty)</text>
</g>
<!-- n10&#45;&gt;n29 -->
<g id="edge43" class="edge"><title>n10&#45;&gt;n29</title>
<path fill="none" stroke="black" d="M894.502,-314.207C896.617,-302.377 901.202,-289.243 910.933,-281.22 940.415,-256.914 1044.91,-272.677 1081.93,-263.22 1087.37,-261.831 1092.96,-260.05 1098.44,-258.074"/>
<polygon fill="black" stroke="black" points="1100.07,-261.198 1108.15,-254.347 1097.56,-254.663 1100.07,-261.198"/>
<text text-anchor="middle" x="953.933" y="-285.02" font-family="Times,serif" font-size="14.00"> static(store_of)</text>
</g>
<!-- n11 -->
<g id="node11" class="node"><title>n11</title>
<ellipse fill="none" stroke="black" cx="722.933" cy="-236.35" rx="62.8651" ry="26.7407"/>
<text text-anchor="middle" x="722.933" y="-240.15" font-family="Times,serif" font-size="14.00">&lt;objective3&gt;</text>
<text text-anchor="middle" x="722.933" y="-225.15" font-family="Times,serif" font-size="14.00">objective</text>
</g>
<!-- n11&#45;&gt;n15 -->
<g id="edge41" class="edge"><title>n11&#45;&gt;n15</title>
<path fill="none" stroke="black" d="M672.62,-220.016C654.85,-213.085 635.447,-203.666 619.933,-191.48 610.944,-184.42 602.858,-175.093 596.144,-165.949"/>
<polygon fill="black" stroke="black" points="598.967,-163.878 590.378,-157.674 593.224,-167.88 598.967,-163.878"/>
<text text-anchor="middle" x="711.933" y="-180.28" font-family="Times,serif" font-size="14.00"> end(communicated_image_data)</text>
</g>
<!-- n11&#45;&gt;n22 -->
<g id="edge57" class="edge"><title>n11&#45;&gt;n22</title>
<path fill="none" stroke="black" d="M767.282,-217.081C776.295,-214.035 785.811,-211.283 794.933,-209.48 967.769,-175.311 1015.53,-208.075 1190.93,-191.48 1237.43,-187.081 1248.41,-180.567 1294.93,-176.48 1543.88,-154.609 1607.35,-171.105 1856.93,-158.48 1961.85,-153.173 2083.14,-144.274 2158.45,-138.422"/>
<polygon fill="black" stroke="black" points="2159.07,-141.885 2168.77,-137.618 2158.53,-134.906 2159.07,-141.885"/>
<text text-anchor="middle" x="1350.93" y="-180.28" font-family="Times,serif" font-size="14.00"> static(visible_from)</text>
</g>
<!-- n12 -->
<g id="node12" class="node"><title>n12</title>
<ellipse fill="none" stroke="black" cx="3611.93" cy="-236.35" rx="62.8651" ry="26.7407"/>
<text text-anchor="middle" x="3611.93" y="-240.15" font-family="Times,serif" font-size="14.00">&lt;objective4&gt;</text>
<text text-anchor="middle" x="3611.93" y="-225.15" font-family="Times,serif" font-size="14.00">objective</text>
</g>
<!-- n12&#45;&gt;n4 -->
<g id="edge33" class="edge"><title>n12&#45;&gt;n4</title>
<path fill="none" stroke="black" d="M3611.51,-209.427C3609.5,-179.233 3601.23,-130.243 3569.93,-104.74 3479.73,-31.2401 2659.43,-27.0552 2406.1,-27.5345"/>
<polygon fill="black" stroke="black" points="2405.89,-24.0348 2395.9,-27.5569 2405.91,-31.0348 2405.89,-24.0348"/>
<text text-anchor="middle" x="3657.93" y="-127.91" font-family="Times,serif" font-size="14.00"> static(visible_from)</text>
</g>
<!-- n12&#45;&gt;n22 -->
<g id="edge13" class="edge"><title>n12&#45;&gt;n22</title>
<path fill="none" stroke="black" d="M3567.57,-217.152C3558.56,-214.1 3549.04,-211.329 3539.93,-209.48 3398.15,-180.72 3357.28,-217.253 3214.93,-191.48 3192.94,-187.498 3188.94,-180.369 3166.93,-176.48 3001.76,-147.301 2495.39,-136.665 2304.65,-133.632"/>
<polygon fill="black" stroke="black" points="2304.5,-130.129 2294.44,-133.472 2304.39,-137.128 2304.5,-130.129"/>
<text text-anchor="middle" x="3270.93" y="-180.28" font-family="Times,serif" font-size="14.00"> static(visible_from)</text>
</g>
<!-- n13 -->
<g id="node13" class="node"><title>n13</title>
<ellipse fill="none" stroke="black" cx="744.933" cy="-341.09" rx="62.8651" ry="26.7407"/>
<text text-anchor="middle" x="744.933" y="-344.89" font-family="Times,serif" font-size="14.00">&lt;objective7&gt;</text>
<text text-anchor="middle" x="744.933" y="-329.89" font-family="Times,serif" font-size="14.00">objective</text>
</g>
<!-- n19 -->
<g id="node19" class="node"><title>n19</title>
<ellipse fill="none" stroke="black" cx="469.933" cy="-236.35" rx="48.1667" ry="26.7407"/>
<text text-anchor="middle" x="469.933" y="-240.15" font-family="Times,serif" font-size="14.00">&lt;colour&gt;</text>
<text text-anchor="middle" x="469.933" y="-225.15" font-family="Times,serif" font-size="14.00">mode</text>
</g>
<!-- n13&#45;&gt;n19 -->
<g id="edge31" class="edge"><title>n13&#45;&gt;n19</title>
<path fill="none" stroke="black" d="M682.492,-337.604C636.693,-333.477 574.317,-322.907 525.933,-296.22 513.945,-289.608 502.997,-279.548 494.025,-269.605"/>
<polygon fill="black" stroke="black" points="496.435,-267.039 487.27,-261.724 491.12,-271.594 496.435,-267.039"/>
<text text-anchor="middle" x="617.933" y="-285.02" font-family="Times,serif" font-size="14.00"> end(communicated_image_data)</text>
</g>
<!-- n13&#45;&gt;n21 -->
<g id="edge58" class="edge"><title>n13&#45;&gt;n21</title>
<path fill="none" stroke="black" d="M789.282,-321.822C798.295,-318.776 807.811,-316.024 816.933,-314.22 903.132,-297.174 1128.58,-324.026 1211.93,-296.22 1223.16,-292.475 1222.67,-284.845 1233.93,-281.22 1312.65,-255.892 1896.91,-279.769 1977.93,-263.22 1983.21,-262.142 1988.62,-260.66 1993.94,-258.947"/>
<polygon fill="black" stroke="black" points="1995.1,-262.247 2003.4,-255.651 1992.8,-255.637 1995.1,-262.247"/>
<text text-anchor="middle" x="1325.93" y="-285.02" font-family="Times,serif" font-size="14.00"> end(communicated_image_data)</text>
</g>
<!-- n13&#45;&gt;n22 -->
<g id="edge59" class="edge"><title>n13&#45;&gt;n22</title>
<path fill="none" stroke="black" d="M790.465,-322.433C846.836,-300.517 935.858,-265.701 938.933,-263.22 961.306,-245.168 949.759,-223.365 974.933,-209.48 1038.59,-174.371 1558.68,-210.145 1628.93,-191.48 1642.58,-187.855 1643.32,-180.216 1656.93,-176.48 1744.88,-152.344 1976.19,-167.6 2066.93,-158.48 2098.74,-155.283 2133.78,-150 2163.27,-145.038"/>
<polygon fill="black" stroke="black" points="2164.19,-148.432 2173.46,-143.301 2163.01,-141.532 2164.19,-148.432"/>
<text text-anchor="middle" x="1030.93" y="-232.65" font-family="Times,serif" font-size="14.00"> static(visible_from)</text>
</g>
<!-- n14&#45;&gt;n4 -->
<g id="edge21" class="edge"><title>n14&#45;&gt;n4</title>
<path fill="none" stroke="black" d="M1704.66,-217.931C1679.73,-208.08 1653.37,-196.716 1649.93,-191.48 1646.28,-185.906 1645.75,-181.672 1649.93,-176.48 1659.73,-164.322 2095.97,-75.3819 2265.52,-41.2007"/>
<polygon fill="black" stroke="black" points="2266.22,-44.6306 2275.33,-39.2242 2264.84,-37.7685 2266.22,-44.6306"/>
<text text-anchor="middle" x="2006.93" y="-127.91" font-family="Times,serif" font-size="14.00"> static(visible_from)</text>
</g>
<!-- n14&#45;&gt;n22 -->
<g id="edge28" class="edge"><title>n14&#45;&gt;n22</title>
<path fill="none" stroke="black" d="M1797.64,-218.274C1815.45,-210.992 1835.63,-201.789 1852.93,-191.48 1862.18,-185.974 1862,-180.62 1871.93,-176.48 1922.09,-155.573 2068.52,-142.883 2158.12,-136.856"/>
<polygon fill="black" stroke="black" points="2158.47,-140.341 2168.22,-136.189 2158.01,-133.356 2158.47,-140.341"/>
<text text-anchor="middle" x="1927.93" y="-180.28" font-family="Times,serif" font-size="14.00"> static(visible_from)</text>
</g>
<!-- n16 -->
<g id="node16" class="node"><title>n16</title>
<ellipse fill="none" stroke="black" cx="281.933" cy="-341.09" rx="56.6372" ry="26.7407"/>
<text text-anchor="middle" x="281.933" y="-344.89" font-family="Times,serif" font-size="14.00">&lt;camera3&gt;</text>
<text text-anchor="middle" x="281.933" y="-329.89" font-family="Times,serif" font-size="14.00">camera</text>
</g>
<!-- n16&#45;&gt;n3 -->
<g id="edge19" class="edge"><title>n16&#45;&gt;n3</title>
<path fill="none" stroke="black" d="M227.783,-333.162C184.166,-326.338 127.891,-314.292 113.933,-296.22 109.857,-290.944 110.307,-286.815 113.933,-281.22 118.872,-273.598 134.252,-265.421 151.408,-258.217"/>
<polygon fill="black" stroke="black" points="153.101,-261.309 161.067,-254.325 150.484,-254.816 153.101,-261.309"/>
<text text-anchor="middle" x="182.433" y="-285.02" font-family="Times,serif" font-size="14.00"> static(calibration_target)</text>
</g>
<!-- n16&#45;&gt;n15 -->
<g id="edge23" class="edge"><title>n16&#45;&gt;n15</title>
<path fill="none" stroke="black" d="M281.286,-314.024C281.54,-303.696 282.477,-291.787 284.933,-281.22 290.667,-256.545 310.088,-192.226 329.933,-176.48 337.19,-170.722 444.326,-153.11 514.795,-142.031"/>
<polygon fill="black" stroke="black" points="515.573,-145.452 524.91,-140.446 514.489,-138.537 515.573,-145.452"/>
<text text-anchor="middle" x="352.933" y="-232.65" font-family="Times,serif" font-size="14.00"> static(supports)</text>
</g>
<!-- n16&#45;&gt;n19 -->
<g id="edge17" class="edge"><title>n16&#45;&gt;n19</title>
<path fill="none" stroke="black" d="M283.298,-314.184C285.28,-302.497 289.63,-289.49 298.933,-281.22 335.63,-248.599 360.737,-276.765 407.933,-263.22 413.258,-261.692 418.741,-259.84 424.141,-257.838"/>
<polygon fill="black" stroke="black" points="425.67,-260.998 433.718,-254.107 423.129,-254.476 425.67,-260.998"/>
<text text-anchor="middle" x="342.933" y="-285.02" font-family="Times,serif" font-size="14.00"> static(supports)</text>
</g>
<!-- n16&#45;&gt;n29 -->
<g id="edge10" class="edge"><title>n16&#45;&gt;n29</title>
<path fill="none" stroke="black" d="M325.662,-323.89C344.834,-316.263 367.376,-306.572 386.933,-296.22 397.719,-290.511 398.282,-284.854 409.933,-281.22 552.544,-236.74 935.86,-294.513 1081.93,-263.22 1087.63,-262 1093.47,-260.27 1099.17,-258.276"/>
<polygon fill="black" stroke="black" points="1100.48,-261.524 1108.59,-254.715 1098,-254.976 1100.48,-261.524"/>
<text text-anchor="middle" x="456.433" y="-285.02" font-family="Times,serif" font-size="14.00"> static(on_board)</text>
</g>
<!-- n17 -->
<g id="node17" class="node"><title>n17</title>
<ellipse fill="none" stroke="black" cx="866.933" cy="-236.35" rx="62.8651" ry="26.7407"/>
<text text-anchor="middle" x="866.933" y="-240.15" font-family="Times,serif" font-size="14.00">&lt;objective6&gt;</text>
<text text-anchor="middle" x="866.933" y="-225.15" font-family="Times,serif" font-size="14.00">objective</text>
</g>
<!-- n17&#45;&gt;n15 -->
<g id="edge9" class="edge"><title>n17&#45;&gt;n15</title>
<path fill="none" stroke="black" d="M846.597,-210.656C835.279,-198.523 820.208,-184.764 803.933,-176.48 752.559,-150.332 687.433,-139.708 639.951,-135.423"/>
<polygon fill="black" stroke="black" points="640.052,-131.92 629.796,-134.579 639.472,-138.895 640.052,-131.92"/>
<text text-anchor="middle" x="917.933" y="-180.28" font-family="Times,serif" font-size="14.00"> end(communicated_image_data)</text>
</g>
<!-- n17&#45;&gt;n22 -->
<g id="edge46" class="edge"><title>n17&#45;&gt;n22</title>
<path fill="none" stroke="black" d="M912.376,-217.701C922.613,-214.398 933.529,-211.388 943.933,-209.48 1148.24,-172.023 1204.06,-210.056 1410.93,-191.48 1458.32,-187.225 1469.57,-181.076 1516.93,-176.48 1667.55,-161.865 1705.89,-167.702 1856.93,-158.48 1961.64,-152.088 2082.74,-143.491 2158.1,-137.998"/>
<polygon fill="black" stroke="black" points="2158.7,-141.464 2168.42,-137.245 2158.19,-134.482 2158.7,-141.464"/>
<text text-anchor="middle" x="1572.93" y="-180.28" font-family="Times,serif" font-size="14.00"> static(visible_from)</text>
</g>
<!-- n18 -->
<g id="node18" class="node"><title>n18</title>
<ellipse fill="none" stroke="black" cx="2620.93" cy="-236.35" rx="62.8651" ry="26.7407"/>
<text text-anchor="middle" x="2620.93" y="-240.15" font-family="Times,serif" font-size="14.00">&lt;objective9&gt;</text>
<text text-anchor="middle" x="2620.93" y="-225.15" font-family="Times,serif" font-size="14.00">objective</text>
</g>
<!-- n18&#45;&gt;n22 -->
<g id="edge39" class="edge"><title>n18&#45;&gt;n22</title>
<path fill="none" stroke="black" d="M2576.08,-217.487C2567.19,-214.446 2557.85,-211.593 2548.93,-209.48 2484.02,-194.106 2462.61,-214.294 2399.93,-191.48 2388.46,-187.306 2388,-181.622 2376.93,-176.48 2351.29,-164.565 2321.61,-154.954 2295.74,-147.799"/>
<polygon fill="black" stroke="black" points="2296.6,-144.405 2286.03,-145.178 2294.77,-151.163 2296.6,-144.405"/>
<text text-anchor="middle" x="2455.93" y="-180.28" font-family="Times,serif" font-size="14.00"> static(visible_from)</text>
</g>
<!-- n20 -->
<g id="node20" class="node"><title>n20</title>
<ellipse fill="none" stroke="black" cx="2753.93" cy="-236.35" rx="51.7379" ry="26.7407"/>
<text text-anchor="middle" x="2753.93" y="-240.15" font-family="Times,serif" font-size="14.00">&lt;general&gt;</text>
<text text-anchor="middle" x="2753.93" y="-225.15" font-family="Times,serif" font-size="14.00">lander</text>
</g>
<!-- n20&#45;&gt;n20 -->
<g id="edge3" class="edge"><title>n20&#45;&gt;n20</title>
<path fill="none" stroke="black" d="M2802.41,-245.966C2814.51,-245.294 2823.55,-242.089 2823.55,-236.35 2823.55,-232.405 2819.28,-229.657 2812.67,-228.107"/>
<polygon fill="black" stroke="black" points="2812.79,-224.59 2802.41,-226.734 2811.86,-231.529 2812.79,-224.59"/>
<text text-anchor="middle" x="2874.05" y="-232.65" font-family="Times,serif" font-size="14.00"> init(channel_free)</text>
</g>
<!-- n20&#45;&gt;n22 -->
<g id="edge53" class="edge"><title>n20&#45;&gt;n22</title>
<path fill="none" stroke="black" d="M2716.78,-217.602C2709.04,-214.474 2700.83,-211.558 2692.93,-209.48 2624.58,-191.497 2601.43,-215.427 2534.93,-191.48 2523.45,-187.345 2523.33,-180.852 2511.93,-176.48 2444.53,-150.616 2362.45,-139.985 2304.45,-135.625"/>
<polygon fill="black" stroke="black" points="2304.49,-132.119 2294.27,-134.905 2304,-139.102 2304.49,-132.119"/>
<text text-anchor="middle" x="2580.93" y="-180.28" font-family="Times,serif" font-size="14.00"> static(at_lander)</text>
</g>
<!-- n22&#45;&gt;n4 -->
<g id="edge44" class="edge"><title>n22&#45;&gt;n4</title>
<path fill="none" stroke="black" d="M2276.3,-112.47C2288.5,-105.848 2300.82,-97.3218 2309.93,-86.7401 2315.71,-80.0241 2320.04,-71.6441 2323.26,-63.3318"/>
<polygon fill="black" stroke="black" points="2326.62,-64.3033 2326.54,-53.7088 2320,-62.0437 2326.62,-64.3033"/>
<text text-anchor="middle" x="2358.93" y="-75.5401" font-family="Times,serif" font-size="14.00"> static(visible)</text>
</g>
<!-- n22&#45;&gt;n22 -->
<g id="edge4" class="edge"><title>n22&#45;&gt;n22</title>
<path fill="none" stroke="black" d="M2290.74,-141.045C2303.42,-140.087 2312.57,-136.942 2312.57,-131.61 2312.57,-127.861 2308.05,-125.193 2300.95,-123.607"/>
<polygon fill="black" stroke="black" points="2301.13,-120.097 2290.74,-122.175 2300.15,-127.029 2301.13,-120.097"/>
<text text-anchor="middle" x="2397.07" y="-142.91" font-family="Times,serif" font-size="14.00"> end(communicated_soil_data)</text>
<text text-anchor="middle" x="2397.07" y="-127.91" font-family="Times,serif" font-size="14.00">init(at_soil_sample)</text>
<text text-anchor="middle" x="2397.07" y="-112.91" font-family="Times,serif" font-size="14.00">init(at_rock_sample)</text>
</g>
<!-- n23 -->
<g id="node23" class="node"><title>n23</title>
<ellipse fill="none" stroke="black" cx="3760.93" cy="-236.35" rx="67.7647" ry="26.7407"/>
<text text-anchor="middle" x="3760.93" y="-240.15" font-family="Times,serif" font-size="14.00">&lt;objective10&gt;</text>
<text text-anchor="middle" x="3760.93" y="-225.15" font-family="Times,serif" font-size="14.00">objective</text>
</g>
<!-- n23&#45;&gt;n4 -->
<g id="edge15" class="edge"><title>n23&#45;&gt;n4</title>
<path fill="none" stroke="black" d="M3760.05,-209.412C3757.55,-179.44 3748.65,-130.898 3717.93,-104.74 3647,-44.3384 3603.65,-80.8221 3510.93,-71.7401 3094.53,-30.9528 2592.02,-27.3243 2405.91,-27.5236"/>
<polygon fill="black" stroke="black" points="2405.69,-24.0238 2395.7,-27.5387 2405.7,-31.0238 2405.69,-24.0238"/>
<text text-anchor="middle" x="3805.93" y="-127.91" font-family="Times,serif" font-size="14.00"> static(visible_from)</text>
</g>
<!-- n23&#45;&gt;n22 -->
<g id="edge51" class="edge"><title>n23&#45;&gt;n22</title>
<path fill="none" stroke="black" d="M3712.94,-217.324C3703.44,-214.297 3693.45,-211.491 3683.93,-209.48 3528.03,-176.552 3485.93,-187.004 3326.93,-176.48 2942.68,-151.048 2481.6,-138.421 2304.84,-134.238"/>
<polygon fill="black" stroke="black" points="2304.7,-130.734 2294.62,-133.998 2304.53,-137.732 2304.7,-130.734"/>
<text text-anchor="middle" x="3636.93" y="-180.28" font-family="Times,serif" font-size="14.00"> static(visible_from)</text>
</g>
<!-- n24 -->
<g id="node24" class="node"><title>n24</title>
<ellipse fill="none" stroke="black" cx="2382.93" cy="-341.09" rx="67.7647" ry="26.7407"/>
<text text-anchor="middle" x="2382.93" y="-344.89" font-family="Times,serif" font-size="14.00">&lt;objective11&gt;</text>
<text text-anchor="middle" x="2382.93" y="-329.89" font-family="Times,serif" font-size="14.00">objective</text>
</g>
<!-- n24&#45;&gt;n21 -->
<g id="edge35" class="edge"><title>n24&#45;&gt;n21</title>
<path fill="none" stroke="black" d="M2339.21,-320.451C2303.14,-304.372 2256.41,-283.86 2246.93,-281.22 2189.47,-265.223 2171.84,-277.513 2113.93,-263.22 2107.75,-261.694 2101.35,-259.815 2095.05,-257.774"/>
<polygon fill="black" stroke="black" points="2095.87,-254.354 2085.27,-254.458 2093.62,-260.983 2095.87,-254.354"/>
<text text-anchor="middle" x="2375.93" y="-285.02" font-family="Times,serif" font-size="14.00"> end(communicated_image_data)</text>
</g>
<!-- n24&#45;&gt;n22 -->
<g id="edge36" class="edge"><title>n24&#45;&gt;n22</title>
<path fill="none" stroke="black" d="M2435.77,-324.132C2462.14,-313.573 2485.28,-298.512 2468.93,-281.22 2420.16,-229.62 2198.7,-314.821 2149.93,-263.22 2120.92,-232.522 2158.76,-189.845 2191.87,-161.743"/>
<polygon fill="black" stroke="black" points="2194.22,-164.343 2199.71,-155.279 2189.77,-158.943 2194.22,-164.343"/>
<text text-anchor="middle" x="2205.93" y="-232.65" font-family="Times,serif" font-size="14.00"> static(visible_from)</text>
</g>
<!-- n25 -->
<g id="node25" class="node"><title>n25</title>
<ellipse fill="none" stroke="black" cx="1118.93" cy="-341.09" rx="56.6372" ry="26.7407"/>
<text text-anchor="middle" x="1118.93" y="-344.89" font-family="Times,serif" font-size="14.00">&lt;camera1&gt;</text>
<text text-anchor="middle" x="1118.93" y="-329.89" font-family="Times,serif" font-size="14.00">camera</text>
</g>
<!-- n25&#45;&gt;n14 -->
<g id="edge50" class="edge"><title>n25&#45;&gt;n14</title>
<path fill="none" stroke="black" d="M1174.22,-335.07C1235.39,-328.827 1336.6,-316.451 1421.93,-296.22 1442.45,-291.357 1446.29,-285.484 1466.93,-281.22 1558.67,-262.277 1585.33,-282.831 1676.93,-263.22 1683.13,-261.893 1689.53,-260.192 1695.84,-258.297"/>
<polygon fill="black" stroke="black" points="1697.18,-261.544 1705.65,-255.185 1695.06,-254.871 1697.18,-261.544"/>
<text text-anchor="middle" x="1535.43" y="-285.02" font-family="Times,serif" font-size="14.00"> static(calibration_target)</text>
</g>
<!-- n25&#45;&gt;n15 -->
<g id="edge7" class="edge"><title>n25&#45;&gt;n15</title>
<path fill="none" stroke="black" d="M1078.28,-322.264C1070.01,-319.182 1061.29,-316.303 1052.93,-314.22 985.21,-297.344 965.891,-306.986 896.933,-296.22 862.915,-290.91 855.061,-285.761 820.933,-281.22 792.447,-277.431 582.532,-284.235 562.933,-263.22 539.334,-237.918 548.301,-196.684 559.506,-167.317"/>
<polygon fill="black" stroke="black" points="562.829,-168.436 563.348,-157.853 556.344,-165.803 562.829,-168.436"/>
<text text-anchor="middle" x="606.933" y="-232.65" font-family="Times,serif" font-size="14.00"> static(supports)</text>
</g>
<!-- n25&#45;&gt;n19 -->
<g id="edge20" class="edge"><title>n25&#45;&gt;n19</title>
<path fill="none" stroke="black" d="M1078.72,-322.005C1070.35,-318.903 1061.47,-316.084 1052.93,-314.22 913.761,-283.847 868.28,-340.63 732.933,-296.22 721.337,-292.416 721.441,-285.283 709.933,-281.22 634.952,-254.753 609.014,-282.741 531.933,-263.22 526.491,-261.842 520.905,-260.068 515.42,-258.096"/>
<polygon fill="black" stroke="black" points="516.301,-254.685 505.71,-254.373 513.795,-261.221 516.301,-254.685"/>
<text text-anchor="middle" x="776.933" y="-285.02" font-family="Times,serif" font-size="14.00"> static(supports)</text>
</g>
<!-- n25&#45;&gt;n21 -->
<g id="edge48" class="edge"><title>n25&#45;&gt;n21</title>
<path fill="none" stroke="black" d="M1173.5,-333.179C1223.68,-327.114 1300.19,-318.598 1366.93,-314.22 1403.81,-311.801 2003.82,-320.214 2031.93,-296.22 2038.64,-290.495 2042.11,-282.102 2043.75,-273.437"/>
<polygon fill="black" stroke="black" points="2047.25,-273.619 2044.92,-263.284 2040.3,-272.816 2047.25,-273.619"/>
<text text-anchor="middle" x="2085.93" y="-285.02" font-family="Times,serif" font-size="14.00"> static(supports)</text>
</g>
<!-- n25&#45;&gt;n29 -->
<g id="edge24" class="edge"><title>n25&#45;&gt;n29</title>
<path fill="none" stroke="black" d="M1076.4,-323.215C1068.61,-320.182 1060.54,-317.078 1052.93,-314.22 1030.82,-305.91 1016.51,-315.544 1002.93,-296.22 999.099,-290.766 998.775,-286.432 1002.93,-281.22 1025.39,-253.07 1047.63,-274.194 1081.93,-263.22 1087.14,-261.554 1092.52,-259.631 1097.83,-257.601"/>
<polygon fill="black" stroke="black" points="1099.26,-260.798 1107.27,-253.862 1096.69,-254.289 1099.26,-260.798"/>
<text text-anchor="middle" x="1049.43" y="-285.02" font-family="Times,serif" font-size="14.00"> static(on_board)</text>
</g>
<!-- n26 -->
<g id="node26" class="node"><title>n26</title>
<ellipse fill="none" stroke="black" cx="2714.93" cy="-341.09" rx="67.7647" ry="26.7407"/>
<text text-anchor="middle" x="2714.93" y="-344.89" font-family="Times,serif" font-size="14.00">&lt;objective16&gt;</text>
<text text-anchor="middle" x="2714.93" y="-329.89" font-family="Times,serif" font-size="14.00">objective</text>
</g>
<!-- n26&#45;&gt;n4 -->
<g id="edge26" class="edge"><title>n26&#45;&gt;n4</title>
<path fill="none" stroke="black" d="M2783.05,-339.959C3013.86,-338.9 3756.52,-330.269 3837.93,-263.22 3893.14,-217.748 3913.08,-158.525 3865.93,-104.74 3817.29,-49.255 2705.67,-32.2486 2405.86,-28.6633"/>
<polygon fill="black" stroke="black" points="2405.58,-25.1598 2395.54,-28.5414 2405.5,-32.1594 2405.58,-25.1598"/>
<text text-anchor="middle" x="3947.93" y="-180.28" font-family="Times,serif" font-size="14.00"> static(visible_from)</text>
</g>
<!-- n26&#45;&gt;n21 -->
<g id="edge42" class="edge"><title>n26&#45;&gt;n21</title>
<path fill="none" stroke="black" d="M2654.75,-328.447C2615.3,-320.401 2562.74,-308.894 2516.93,-296.22 2496.61,-290.599 2492.65,-285.119 2471.93,-281.22 2315.37,-251.76 2270.07,-294.844 2113.93,-263.22 2107.37,-261.891 2100.6,-260.062 2093.96,-257.987"/>
<polygon fill="black" stroke="black" points="2094.98,-254.635 2084.38,-254.799 2092.76,-261.277 2094.98,-254.635"/>
<text text-anchor="middle" x="2608.93" y="-285.02" font-family="Times,serif" font-size="14.00"> end(communicated_image_data)</text>
</g>
<!-- n26&#45;&gt;n22 -->
<g id="edge45" class="edge"><title>n26&#45;&gt;n22</title>
<path fill="none" stroke="black" d="M2715.44,-314.098C2714.21,-302.243 2710.49,-289.118 2700.93,-281.22 2665.96,-252.311 2331.72,-286.777 2292.93,-263.22 2269.37,-248.906 2277.71,-232.097 2261.93,-209.48 2255.98,-200.939 2251.74,-200.717 2246.93,-191.48 2243.18,-184.281 2240.25,-176.115 2237.97,-168.208"/>
<polygon fill="black" stroke="black" points="2241.33,-167.221 2235.43,-158.422 2234.55,-168.981 2241.33,-167.221"/>
<text text-anchor="middle" x="2348.93" y="-232.65" font-family="Times,serif" font-size="14.00"> static(visible_from)</text>
</g>
<!-- n27 -->
<g id="node27" class="node"><title>n27</title>
<ellipse fill="none" stroke="black" cx="3005.93" cy="-236.35" rx="62.8651" ry="26.7407"/>
<text text-anchor="middle" x="3005.93" y="-240.15" font-family="Times,serif" font-size="14.00">&lt;objective2&gt;</text>
<text text-anchor="middle" x="3005.93" y="-225.15" font-family="Times,serif" font-size="14.00">objective</text>
</g>
<!-- n27&#45;&gt;n22 -->
<g id="edge54" class="edge"><title>n27&#45;&gt;n22</title>
<path fill="none" stroke="black" d="M2961.56,-217.21C2952.55,-214.153 2943.04,-211.365 2933.93,-209.48 2810.08,-183.843 2769.96,-231.337 2649.93,-191.48 2638.35,-187.634 2638.42,-180.597 2626.93,-176.48 2569.23,-155.801 2401.63,-142.729 2303.95,-136.641"/>
<polygon fill="black" stroke="black" points="2304.05,-133.141 2293.85,-136.021 2303.62,-140.128 2304.05,-133.141"/>
<text text-anchor="middle" x="2705.93" y="-180.28" font-family="Times,serif" font-size="14.00"> static(visible_from)</text>
</g>
<!-- n28 -->
<g id="node28" class="node"><title>n28</title>
<ellipse fill="none" stroke="black" cx="3154.93" cy="-236.35" rx="67.7647" ry="26.7407"/>
<text text-anchor="middle" x="3154.93" y="-240.15" font-family="Times,serif" font-size="14.00">&lt;objective12&gt;</text>
<text text-anchor="middle" x="3154.93" y="-225.15" font-family="Times,serif" font-size="14.00">objective</text>
</g>
<!-- n28&#45;&gt;n22 -->
<g id="edge40" class="edge"><title>n28&#45;&gt;n22</title>
<path fill="none" stroke="black" d="M3106.99,-217.089C3097.48,-214.083 3087.48,-211.344 3077.93,-209.48 2949.88,-184.489 2908.79,-232.475 2784.93,-191.48 2773.35,-187.646 2773.48,-180.437 2761.93,-176.48 2679.37,-148.186 2430.03,-137.768 2304.62,-134.246"/>
<polygon fill="black" stroke="black" points="2304.44,-130.739 2294.35,-133.965 2304.25,-137.737 2304.44,-130.739"/>
<text text-anchor="middle" x="2840.93" y="-180.28" font-family="Times,serif" font-size="14.00"> static(visible_from)</text>
</g>
<!-- n29&#45;&gt;n22 -->
<g id="edge34" class="edge"><title>n29&#45;&gt;n22</title>
<path fill="none" stroke="black" d="M1191.17,-230.447C1244.51,-224.987 1333.91,-216.064 1410.93,-209.48 1464.88,-204.869 1603.47,-211.117 1653.93,-191.48 1663.96,-187.578 1662.91,-180.405 1672.93,-176.48 1684.09,-172.11 2009.38,-148.426 2158.05,-137.788"/>
<polygon fill="black" stroke="black" points="2158.72,-141.25 2168.45,-137.045 2158.22,-134.267 2158.72,-141.25"/>
<text text-anchor="middle" x="1695.43" y="-180.28" font-family="Times,serif" font-size="14.00"> init(at)</text>
</g>
<!-- n29&#45;&gt;n29 -->
<g id="edge5" class="edge"><title>n29&#45;&gt;n29</title>
<path fill="none" stroke="black" d="M1189.03,-246.015C1200.97,-245.462 1210.02,-242.241 1210.02,-236.35 1210.02,-232.3 1205.74,-229.512 1199.19,-227.986"/>
<polygon fill="black" stroke="black" points="1199.39,-224.483 1189.03,-226.686 1198.5,-231.427 1199.39,-224.483"/>
<text text-anchor="middle" x="1303.52" y="-247.65" font-family="Times,serif" font-size="14.00"> static(equipped_for_imaging)</text>
<text text-anchor="middle" x="1303.52" y="-232.65" font-family="Times,serif" font-size="14.00">init(available)</text>
<text text-anchor="middle" x="1303.52" y="-217.65" font-family="Times,serif" font-size="14.00">static(equipped_for_soil_analysis)</text>
</g>
<!-- n30 -->
<g id="node30" class="node"><title>n30</title>
<ellipse fill="none" stroke="black" cx="3308.93" cy="-236.35" rx="67.7647" ry="26.7407"/>
<text text-anchor="middle" x="3308.93" y="-240.15" font-family="Times,serif" font-size="14.00">&lt;objective17&gt;</text>
<text text-anchor="middle" x="3308.93" y="-225.15" font-family="Times,serif" font-size="14.00">objective</text>
</g>
<!-- n30&#45;&gt;n4 -->
<g id="edge37" class="edge"><title>n30&#45;&gt;n4</title>
<path fill="none" stroke="black" d="M3312.39,-209.489C3312.45,-197.956 3310.23,-185.064 3301.93,-176.48 3178.2,-48.5064 2610.12,-30.4369 2405.58,-28.1167"/>
<polygon fill="black" stroke="black" points="2405.57,-24.6165 2395.54,-28.0122 2405.5,-31.6162 2405.57,-24.6165"/>
<text text-anchor="middle" x="3333.93" y="-127.91" font-family="Times,serif" font-size="14.00"> static(visible_from)</text>
</g>
<!-- n30&#45;&gt;n22 -->
<g id="edge29" class="edge"><title>n30&#45;&gt;n22</title>
<path fill="none" stroke="black" d="M3260.99,-217.06C3251.48,-214.057 3241.49,-211.326 3231.93,-209.48 3163.75,-196.304 2985.9,-213.179 2919.93,-191.48 2908.34,-187.667 2908.51,-180.341 2896.93,-176.48 2788.94,-140.472 2454.39,-133.894 2304.67,-132.782"/>
<polygon fill="black" stroke="black" points="2304.67,-129.282 2294.65,-132.714 2304.62,-136.282 2304.67,-129.282"/>
<text text-anchor="middle" x="2975.93" y="-180.28" font-family="Times,serif" font-size="14.00"> static(visible_from)</text>
</g>
</g>
</svg>
