<?xml version="1.0" encoding="UTF-8" standalone="no"?>
<!DOCTYPE svg PUBLIC "-//W3C//DTD SVG 1.1//EN"
 "http://www.w3.org/Graphics/SVG/1.1/DTD/svg11.dtd">
<!-- Generated by graphviz version 2.38.0 (20140413.2041)
 -->
<!-- Title: Struc Pages: 1 -->
<svg width="1119pt" height="511pt"
 viewBox="0.00 0.00 1119.18 510.96" xmlns="http://www.w3.org/2000/svg" xmlns:xlink="http://www.w3.org/1999/xlink">
<g id="graph0" class="graph" transform="scale(1 1) rotate(0) translate(4 506.96)">
<title>Struc</title>
<polygon fill="white" stroke="none" points="-4,4 -4,-506.96 1115.18,-506.96 1115.18,4 -4,4"/>
<!-- n1 -->
<g id="node1" class="node"><title>n1</title>
<ellipse fill="none" stroke="black" cx="790.175" cy="-246.61" rx="63.7795" ry="26.7407"/>
<text text-anchor="middle" x="790.175" y="-250.41" font-family="Times,serif" font-size="14.00">&lt;waypoint1&gt;</text>
<text text-anchor="middle" x="790.175" y="-235.41" font-family="Times,serif" font-size="14.00">waypoint</text>
</g>
<!-- n1&#45;&gt;n1 -->
<g id="edge1" class="edge"><title>n1&#45;&gt;n1</title>
<path fill="none" stroke="black" d="M849.251,-256.828C862.307,-255.868 871.815,-252.462 871.815,-246.61 871.815,-242.404 866.903,-239.462 859.292,-237.783"/>
<polygon fill="black" stroke="black" points="859.637,-234.298 849.251,-236.393 858.677,-241.231 859.637,-234.298"/>
<text text-anchor="middle" x="928.315" y="-242.91" font-family="Times,serif" font-size="14.00"> init(at_soil_sample)</text>
</g>
<!-- n6 -->
<g id="node6" class="node"><title>n6</title>
<ellipse fill="none" stroke="black" cx="536.175" cy="-137.87" rx="63.7795" ry="26.7407"/>
<text text-anchor="middle" x="536.175" y="-141.67" font-family="Times,serif" font-size="14.00">&lt;waypoint0&gt;</text>
<text text-anchor="middle" x="536.175" y="-126.67" font-family="Times,serif" font-size="14.00">waypoint</text>
</g>
<!-- n1&#45;&gt;n6 -->
<g id="edge13" class="edge"><title>n1&#45;&gt;n6</title>
<path fill="none" stroke="black" d="M745.613,-227.23C734.778,-223.128 723.149,-219.026 712.175,-215.74 676.431,-205.038 664.585,-212.167 630.175,-197.74 618.92,-193.021 617.478,-189.281 607.175,-182.74 598.369,-177.149 588.9,-171.233 579.839,-165.617"/>
<polygon fill="black" stroke="black" points="581.657,-162.626 571.311,-160.345 577.976,-168.581 581.657,-162.626"/>
<text text-anchor="middle" x="669.175" y="-186.54" font-family="Times,serif" font-size="14.00"> static(visible)</text>
</g>
<!-- n8 -->
<g id="node8" class="node"><title>n8</title>
<ellipse fill="none" stroke="black" cx="764.175" cy="-30" rx="63.7795" ry="26.7407"/>
<text text-anchor="middle" x="764.175" y="-33.8" font-family="Times,serif" font-size="14.00">&lt;waypoint2&gt;</text>
<text text-anchor="middle" x="764.175" y="-18.8" font-family="Times,serif" font-size="14.00">waypoint</text>
</g>
<!-- n1&#45;&gt;n8 -->
<g id="edge18" class="edge"><title>n1&#45;&gt;n8</title>
<path fill="none" stroke="black" d="M802.47,-219.81C805.234,-212.807 807.765,-205.117 809.175,-197.74 810.427,-191.192 809.772,-189.38 809.175,-182.74 804.94,-135.619 806.067,-122.562 790.175,-78 788.654,-73.7347 786.774,-69.3963 784.727,-65.166"/>
<polygon fill="black" stroke="black" points="787.761,-63.4147 780.051,-56.1484 781.547,-66.6371 787.761,-63.4147"/>
<text text-anchor="middle" x="847.175" y="-134.17" font-family="Times,serif" font-size="14.00"> static(visible)</text>
</g>
<!-- n2 -->
<g id="node2" class="node"><title>n2</title>
<ellipse fill="none" stroke="black" cx="67.1751" cy="-359.35" rx="48.1667" ry="26.7407"/>
<text text-anchor="middle" x="67.1751" y="-363.15" font-family="Times,serif" font-size="14.00">&lt;rover0&gt;</text>
<text text-anchor="middle" x="67.1751" y="-348.15" font-family="Times,serif" font-size="14.00">rover</text>
</g>
<!-- n2&#45;&gt;n2 -->
<g id="edge2" class="edge"><title>n2&#45;&gt;n2</title>
<path fill="none" stroke="black" d="M111.65,-369.786C123.898,-369.282 133.258,-365.803 133.258,-359.35 133.258,-354.813 128.631,-351.746 121.625,-350.15"/>
<polygon fill="black" stroke="black" points="122.004,-346.67 111.65,-348.914 121.144,-353.617 122.004,-346.67"/>
<text text-anchor="middle" x="230.758" y="-378.15" font-family="Times,serif" font-size="14.00"> static(equipped_for_rock_analysis)</text>
<text text-anchor="middle" x="230.758" y="-363.15" font-family="Times,serif" font-size="14.00">static(equipped_for_imaging)</text>
<text text-anchor="middle" x="230.758" y="-348.15" font-family="Times,serif" font-size="14.00">init(available)</text>
<text text-anchor="middle" x="230.758" y="-333.15" font-family="Times,serif" font-size="14.00">static(equipped_for_soil_analysis)</text>
</g>
<!-- n2&#45;&gt;n8 -->
<g id="edge9" class="edge"><title>n2&#45;&gt;n8</title>
<path fill="none" stroke="black" d="M83.5148,-333.976C105.56,-302.744 147.594,-248.71 195.175,-215.74 353.247,-106.211 580.325,-58.4779 693.893,-40.4481"/>
<polygon fill="black" stroke="black" points="694.518,-43.893 703.86,-38.8959 693.441,-36.9764 694.518,-43.893"/>
<text text-anchor="middle" x="268.675" y="-186.54" font-family="Times,serif" font-size="14.00"> init(at)</text>
</g>
<!-- n3 -->
<g id="node3" class="node"><title>n3</title>
<ellipse fill="none" stroke="black" cx="389.175" cy="-246.61" rx="51.7379" ry="26.7407"/>
<text text-anchor="middle" x="389.175" y="-250.41" font-family="Times,serif" font-size="14.00">&lt;general&gt;</text>
<text text-anchor="middle" x="389.175" y="-235.41" font-family="Times,serif" font-size="14.00">lander</text>
</g>
<!-- n3&#45;&gt;n3 -->
<g id="edge3" class="edge"><title>n3&#45;&gt;n3</title>
<path fill="none" stroke="black" d="M437.007,-257.002C449.428,-256.363 458.794,-252.899 458.794,-246.61 458.794,-242.188 454.164,-239.163 447.097,-237.534"/>
<polygon fill="black" stroke="black" points="447.376,-234.041 437.007,-236.218 446.471,-240.982 447.376,-234.041"/>
<text text-anchor="middle" x="509.294" y="-242.91" font-family="Times,serif" font-size="14.00"> init(channel_free)</text>
</g>
<!-- n3&#45;&gt;n6 -->
<g id="edge20" class="edge"><title>n3&#45;&gt;n6</title>
<path fill="none" stroke="black" d="M418.569,-224.266C440.979,-207.994 472.069,-185.419 496.655,-167.566"/>
<polygon fill="black" stroke="black" points="499.02,-170.174 505.056,-161.467 494.907,-164.51 499.02,-170.174"/>
<text text-anchor="middle" x="522.175" y="-186.54" font-family="Times,serif" font-size="14.00"> static(at_lander)</text>
</g>
<!-- n4 -->
<g id="node4" class="node"><title>n4</title>
<ellipse fill="none" stroke="black" cx="596.175" cy="-359.35" rx="62.8691" ry="26.7574"/>
<ellipse fill="none" stroke="black" cx="596.175" cy="-359.35" rx="66.8651" ry="30.7407"/>
<text text-anchor="middle" x="596.175" y="-363.15" font-family="Times,serif" font-size="14.00">&lt;objective5&gt;</text>
<text text-anchor="middle" x="596.175" y="-348.15" font-family="Times,serif" font-size="14.00">objective</text>
</g>
<!-- n4&#45;&gt;n1 -->
<g id="edge17" class="edge"><title>n4&#45;&gt;n1</title>
<path fill="none" stroke="black" stroke-dasharray="5,2" d="M637.318,-334.865C668.732,-316.933 712.005,-292.232 744.492,-273.687"/>
<polygon fill="black" stroke="black" points="746.4,-276.628 753.35,-268.631 742.93,-270.549 746.4,-276.628"/>
<text text-anchor="middle" x="761.175" y="-299.28" font-family="Times,serif" font-size="14.00"> static(visible_from)</text>
</g>
<!-- n4&#45;&gt;n6 -->
<g id="edge8" class="edge"><title>n4&#45;&gt;n6</title>
<path fill="none" stroke="black" d="M596.953,-328.443C596.817,-292.393 593.099,-230.684 572.175,-182.74 570.49,-178.88 568.364,-175.085 565.992,-171.443"/>
<polygon fill="black" stroke="black" points="568.782,-169.328 560.098,-163.258 563.101,-173.418 568.782,-169.328"/>
<text text-anchor="middle" x="651.175" y="-242.91" font-family="Times,serif" font-size="14.00"> static(visible_from)</text>
</g>
<!-- n7 -->
<g id="node7" class="node"><title>n7</title>
<ellipse fill="none" stroke="black" cx="262.175" cy="-246.61" rx="53.9645" ry="26.7574"/>
<ellipse fill="none" stroke="black" cx="262.175" cy="-246.61" rx="57.9812" ry="30.7407"/>
<text text-anchor="middle" x="262.175" y="-250.41" font-family="Times,serif" font-size="14.00">&lt;low_res&gt;</text>
<text text-anchor="middle" x="262.175" y="-235.41" font-family="Times,serif" font-size="14.00">mode</text>
</g>
<!-- n4&#45;&gt;n7 -->
<g id="edge10" class="edge"><title>n4&#45;&gt;n7</title>
<path fill="none" stroke="black" stroke-dasharray="5,2" d="M535.458,-346.036C486.745,-335.719 422.608,-321.029 398.175,-310.48 386.971,-305.643 386.046,-301.027 375.175,-295.48 355.251,-285.314 348.818,-286.095 328.175,-277.48 323.696,-275.611 319.067,-273.626 314.435,-271.603"/>
<polygon fill="black" stroke="black" points="315.534,-268.262 304.972,-267.423 312.705,-274.665 315.534,-268.262"/>
<text text-anchor="middle" x="490.175" y="-299.28" font-family="Times,serif" font-size="14.00"> end(communicated_image_data)</text>
</g>
<!-- n4&#45;&gt;n8 -->
<g id="edge11" class="edge"><title>n4&#45;&gt;n8</title>
<path fill="none" stroke="black" stroke-dasharray="5,2" d="M662.756,-354.706C764.968,-347.565 953.07,-327.777 994.175,-277.48 1013.05,-254.39 992.721,-125.557 981.175,-111 946.219,-66.9269 884.534,-47.1332 835.843,-38.2442"/>
<polygon fill="black" stroke="black" points="836.425,-34.7929 825.978,-36.5579 835.245,-41.6928 836.425,-34.7929"/>
<text text-anchor="middle" x="1055.18" y="-186.54" font-family="Times,serif" font-size="14.00"> static(visible_from)</text>
</g>
<!-- n5 -->
<g id="node5" class="node"><title>n5</title>
<ellipse fill="none" stroke="black" cx="364.175" cy="-472.09" rx="56.6326" ry="26.7574"/>
<ellipse fill="none" stroke="black" cx="364.175" cy="-472.09" rx="60.6372" ry="30.7407"/>
<text text-anchor="middle" x="364.175" y="-475.89" font-family="Times,serif" font-size="14.00">&lt;camera7&gt;</text>
<text text-anchor="middle" x="364.175" y="-460.89" font-family="Times,serif" font-size="14.00">camera</text>
</g>
<!-- n5&#45;&gt;n2 -->
<g id="edge21" class="edge"><title>n5&#45;&gt;n2</title>
<path fill="none" stroke="black" d="M316.127,-453.175C261.146,-432.675 171.581,-399.279 116.196,-378.628"/>
<polygon fill="black" stroke="black" points="117.197,-375.266 106.604,-375.052 114.751,-381.825 117.197,-375.266"/>
<text text-anchor="middle" x="280.675" y="-412.02" font-family="Times,serif" font-size="14.00"> static(on_board)</text>
</g>
<!-- n5&#45;&gt;n4 -->
<g id="edge22" class="edge"><title>n5&#45;&gt;n4</title>
<path fill="none" stroke="black" stroke-dasharray="5,2" d="M407.54,-450.391C445.381,-432.329 500.476,-406.03 541.363,-386.514"/>
<polygon fill="black" stroke="black" points="543.127,-389.55 550.644,-382.084 540.111,-383.233 543.127,-389.55"/>
<text text-anchor="middle" x="562.675" y="-412.02" font-family="Times,serif" font-size="14.00"> static(calibration_target)</text>
</g>
<!-- n5&#45;&gt;n7 -->
<g id="edge16" class="edge"><title>n5&#45;&gt;n7</title>
<path fill="none" stroke="black" stroke-dasharray="5,2" d="M363.296,-441.152C361.347,-411.182 355.342,-364.473 337.175,-328.48 328.148,-310.595 313.972,-293.822 300.364,-280.238"/>
<polygon fill="black" stroke="black" points="302.525,-277.459 292.899,-273.033 297.664,-282.496 302.525,-277.459"/>
<text text-anchor="middle" x="401.175" y="-355.65" font-family="Times,serif" font-size="14.00"> static(supports)</text>
</g>
<!-- n6&#45;&gt;n1 -->
<g id="edge15" class="edge"><title>n6&#45;&gt;n1</title>
<path fill="none" stroke="black" d="M595.561,-147.886C629.689,-154.547 672.689,-165.514 708.175,-182.74 718.041,-187.529 737.19,-202.086 754.502,-215.988"/>
<polygon fill="black" stroke="black" points="752.313,-218.719 762.287,-222.291 756.718,-213.278 752.313,-218.719"/>
<text text-anchor="middle" x="770.175" y="-186.54" font-family="Times,serif" font-size="14.00"> static(visible)</text>
</g>
<!-- n6&#45;&gt;n6 -->
<g id="edge4" class="edge"><title>n6&#45;&gt;n6</title>
<path fill="none" stroke="black" d="M595.98,-147.305C608.659,-146.347 617.815,-143.202 617.815,-137.87 617.815,-134.121 613.288,-131.453 606.193,-129.866"/>
<polygon fill="black" stroke="black" points="606.369,-126.357 595.98,-128.435 605.397,-133.289 606.369,-126.357"/>
<text text-anchor="middle" x="702.315" y="-141.67" font-family="Times,serif" font-size="14.00"> end(communicated_soil_data)</text>
<text text-anchor="middle" x="702.315" y="-126.67" font-family="Times,serif" font-size="14.00">init(at_soil_sample)</text>
</g>
<!-- n6&#45;&gt;n8 -->
<g id="edge7" class="edge"><title>n6&#45;&gt;n8</title>
<path fill="none" stroke="black" d="M559.932,-112.626C572.697,-100.764 589.26,-87.1135 606.175,-78 634.347,-62.8218 668.052,-51.9361 697.082,-44.4888"/>
<polygon fill="black" stroke="black" points="698.274,-47.7994 707.138,-41.9966 696.59,-41.0049 698.274,-47.7994"/>
<text text-anchor="middle" x="645.175" y="-81.8" font-family="Times,serif" font-size="14.00"> static(visible)</text>
</g>
<!-- n8&#45;&gt;n1 -->
<g id="edge19" class="edge"><title>n8&#45;&gt;n1</title>
<path fill="none" stroke="black" d="M811.99,-47.7413C840.215,-60.3852 873.576,-80.7984 890.175,-111 901.679,-131.931 900.465,-143.186 890.175,-164.74 879.192,-187.748 858.111,-206.321 838.125,-219.837"/>
<polygon fill="black" stroke="black" points="836.152,-216.945 829.66,-225.318 839.956,-222.821 836.152,-216.945"/>
<text text-anchor="middle" x="938.175" y="-134.17" font-family="Times,serif" font-size="14.00"> static(visible)</text>
</g>
<!-- n8&#45;&gt;n6 -->
<g id="edge12" class="edge"><title>n8&#45;&gt;n6</title>
<path fill="none" stroke="black" d="M738.48,-54.9123C723.565,-67.722 703.877,-82.8992 684.175,-93 658.799,-106.01 628.949,-115.784 602.728,-122.764"/>
<polygon fill="black" stroke="black" points="601.684,-119.419 592.874,-125.303 603.431,-126.197 601.684,-119.419"/>
<text text-anchor="middle" x="747.175" y="-81.8" font-family="Times,serif" font-size="14.00"> static(visible)</text>
</g>
<!-- n8&#45;&gt;n8 -->
<g id="edge5" class="edge"><title>n8&#45;&gt;n8</title>
<path fill="none" stroke="black" d="M823.617,-39.8259C836.483,-38.8651 845.815,-35.5898 845.815,-30 845.815,-26.0696 841.202,-23.2836 833.99,-21.6418"/>
<polygon fill="black" stroke="black" points="834.008,-18.1096 823.617,-20.1741 833.028,-25.0406 834.008,-18.1096"/>
<text text-anchor="middle" x="930.815" y="-48.8" font-family="Times,serif" font-size="14.00"> end(communicated_soil_data)</text>
<text text-anchor="middle" x="930.815" y="-33.8" font-family="Times,serif" font-size="14.00">init(at_soil_sample)</text>
<text text-anchor="middle" x="930.815" y="-18.8" font-family="Times,serif" font-size="14.00">end(communicated_rock_data)</text>
<text text-anchor="middle" x="930.815" y="-3.8" font-family="Times,serif" font-size="14.00">init(at_rock_sample)</text>
</g>
<!-- n9 -->
<g id="node9" class="node"><title>n9</title>
<ellipse fill="none" stroke="black" cx="67.1751" cy="-472.09" rx="67.3507" ry="26.7407"/>
<text text-anchor="middle" x="67.1751" y="-475.89" font-family="Times,serif" font-size="14.00">&lt;rover0store&gt;</text>
<text text-anchor="middle" x="67.1751" y="-460.89" font-family="Times,serif" font-size="14.00">store</text>
</g>
<!-- n9&#45;&gt;n2 -->
<g id="edge14" class="edge"><title>n9&#45;&gt;n2</title>
<path fill="none" stroke="black" d="M67.1751,-445.127C67.1751,-430.653 67.1751,-412.403 67.1751,-396.546"/>
<polygon fill="black" stroke="black" points="70.6752,-396.535 67.1751,-386.535 63.6752,-396.535 70.6752,-396.535"/>
<text text-anchor="middle" x="110.175" y="-412.02" font-family="Times,serif" font-size="14.00"> static(store_of)</text>
</g>
<!-- n9&#45;&gt;n9 -->
<g id="edge6" class="edge"><title>n9&#45;&gt;n9</title>
<path fill="none" stroke="black" d="M129.57,-482.251C142.798,-481.22 152.35,-477.833 152.35,-472.09 152.35,-467.918 147.308,-464.99 139.476,-463.304"/>
<polygon fill="black" stroke="black" points="139.956,-459.837 129.57,-461.929 138.994,-466.771 139.956,-459.837"/>
<text text-anchor="middle" x="185.35" y="-468.39" font-family="Times,serif" font-size="14.00"> init(empty)</text>
</g>
</g>
</svg>
