<?xml version="1.0" encoding="UTF-8" standalone="no"?>
<!DOCTYPE svg PUBLIC "-//W3C//DTD SVG 1.1//EN"
 "http://www.w3.org/Graphics/SVG/1.1/DTD/svg11.dtd">
<!-- Generated by graphviz version 2.38.0 (20140413.2041)
 -->
<!-- Title: Struc Pages: 1 -->
<svg width="6196pt" height="532pt"
 viewBox="0.00 0.00 6195.91 531.96" xmlns="http://www.w3.org/2000/svg" xmlns:xlink="http://www.w3.org/1999/xlink">
<g id="graph0" class="graph" transform="scale(1 1) rotate(0) translate(4 527.96)">
<title>Struc</title>
<polygon fill="white" stroke="none" points="-4,4 -4,-527.96 6191.91,-527.96 6191.91,4 -4,4"/>
<!-- n1 -->
<g id="node1" class="node"><title>n1</title>
<ellipse fill="none" stroke="black" cx="2618.91" cy="-239.48" rx="63.7795" ry="26.7407"/>
<text text-anchor="middle" x="2618.91" y="-243.28" font-family="Times,serif" font-size="14.00">&lt;waypoint2&gt;</text>
<text text-anchor="middle" x="2618.91" y="-228.28" font-family="Times,serif" font-size="14.00">waypoint</text>
</g>
<!-- n1&#45;&gt;n1 -->
<g id="edge1" class="edge"><title>n1&#45;&gt;n1</title>
<path fill="none" stroke="black" d="M2678.36,-249.306C2691.22,-248.345 2700.55,-245.07 2700.55,-239.48 2700.55,-235.55 2695.94,-232.764 2688.73,-231.122"/>
<polygon fill="black" stroke="black" points="2688.75,-227.59 2678.36,-229.654 2687.77,-234.521 2688.75,-227.59"/>
<text text-anchor="middle" x="2785.55" y="-258.28" font-family="Times,serif" font-size="14.00"> end(communicated_soil_data)</text>
<text text-anchor="middle" x="2785.55" y="-243.28" font-family="Times,serif" font-size="14.00">init(at_soil_sample)</text>
<text text-anchor="middle" x="2785.55" y="-228.28" font-family="Times,serif" font-size="14.00">end(communicated_rock_data)</text>
<text text-anchor="middle" x="2785.55" y="-213.28" font-family="Times,serif" font-size="14.00">init(at_rock_sample)</text>
</g>
<!-- n15 -->
<g id="node15" class="node"><title>n15</title>
<ellipse fill="none" stroke="black" cx="3422.91" cy="-131.61" rx="63.7795" ry="26.7407"/>
<text text-anchor="middle" x="3422.91" y="-135.41" font-family="Times,serif" font-size="14.00">&lt;waypoint0&gt;</text>
<text text-anchor="middle" x="3422.91" y="-120.41" font-family="Times,serif" font-size="14.00">waypoint</text>
</g>
<!-- n1&#45;&gt;n15 -->
<g id="edge105" class="edge"><title>n1&#45;&gt;n15</title>
<path fill="none" stroke="black" d="M2633.83,-213.202C2643.22,-199.79 2656.64,-184.469 2672.91,-176.48 2732.53,-147.214 3172.01,-136.748 3349.19,-133.691"/>
<polygon fill="black" stroke="black" points="3349.26,-137.191 3359.2,-133.522 3349.15,-130.192 3349.26,-137.191"/>
<text text-anchor="middle" x="2711.91" y="-180.28" font-family="Times,serif" font-size="14.00"> static(visible)</text>
</g>
<!-- n29 -->
<g id="node29" class="node"><title>n29</title>
<ellipse fill="none" stroke="black" cx="2330.91" cy="-26.8701" rx="63.7795" ry="26.7407"/>
<text text-anchor="middle" x="2330.91" y="-30.6701" font-family="Times,serif" font-size="14.00">&lt;waypoint1&gt;</text>
<text text-anchor="middle" x="2330.91" y="-15.6701" font-family="Times,serif" font-size="14.00">waypoint</text>
</g>
<!-- n1&#45;&gt;n29 -->
<g id="edge68" class="edge"><title>n1&#45;&gt;n29</title>
<path fill="none" stroke="black" d="M2572.95,-220.637C2562.48,-216.783 2551.36,-212.856 2540.91,-209.48 2459.76,-183.261 2413.77,-221.149 2355.91,-158.48 2332.62,-133.249 2327.96,-93.2484 2328.14,-64.1569"/>
<polygon fill="black" stroke="black" points="2331.64,-64.0662 2328.4,-53.9802 2324.64,-63.8876 2331.64,-64.0662"/>
<text text-anchor="middle" x="2394.91" y="-127.91" font-family="Times,serif" font-size="14.00"> static(visible)</text>
</g>
<!-- n2 -->
<g id="node2" class="node"><title>n2</title>
<ellipse fill="none" stroke="black" cx="3088.91" cy="-239.48" rx="51.7379" ry="26.7407"/>
<text text-anchor="middle" x="3088.91" y="-243.28" font-family="Times,serif" font-size="14.00">&lt;general&gt;</text>
<text text-anchor="middle" x="3088.91" y="-228.28" font-family="Times,serif" font-size="14.00">lander</text>
</g>
<!-- n2&#45;&gt;n2 -->
<g id="edge2" class="edge"><title>n2&#45;&gt;n2</title>
<path fill="none" stroke="black" d="M3137.07,-249.484C3149.33,-248.827 3158.53,-245.492 3158.53,-239.48 3158.53,-235.253 3153.98,-232.35 3147.02,-230.77"/>
<polygon fill="black" stroke="black" points="3147.44,-227.295 3137.07,-229.476 3146.54,-234.236 3147.44,-227.295"/>
<text text-anchor="middle" x="3209.03" y="-235.78" font-family="Times,serif" font-size="14.00"> init(channel_free)</text>
</g>
<!-- n2&#45;&gt;n15 -->
<g id="edge62" class="edge"><title>n2&#45;&gt;n15</title>
<path fill="none" stroke="black" d="M3129.76,-222.953C3164.83,-209.852 3216.88,-190.971 3262.91,-176.48 3294.51,-166.535 3330.01,-156.672 3359.52,-148.824"/>
<polygon fill="black" stroke="black" points="3360.52,-152.182 3369.29,-146.243 3358.73,-145.415 3360.52,-152.182"/>
<text text-anchor="middle" x="3308.91" y="-180.28" font-family="Times,serif" font-size="14.00"> static(at_lander)</text>
</g>
<!-- n3 -->
<g id="node3" class="node"><title>n3</title>
<ellipse fill="none" stroke="black" cx="1574.91" cy="-239.48" rx="67.7647" ry="26.7407"/>
<text text-anchor="middle" x="1574.91" y="-243.28" font-family="Times,serif" font-size="14.00">&lt;objective11&gt;</text>
<text text-anchor="middle" x="1574.91" y="-228.28" font-family="Times,serif" font-size="14.00">objective</text>
</g>
<!-- n3&#45;&gt;n15 -->
<g id="edge72" class="edge"><title>n3&#45;&gt;n15</title>
<path fill="none" stroke="black" d="M1619.9,-219.283C1630.26,-215.5 1641.34,-211.943 1651.91,-209.48 1731.94,-190.839 1755.6,-208.853 1835.91,-191.48 1856.11,-187.112 1859.58,-180.114 1879.91,-176.48 2037.47,-148.335 2439.93,-162.995 2599.91,-158.48 2876.74,-150.669 3205.89,-139.865 3349.65,-135.071"/>
<polygon fill="black" stroke="black" points="3349.8,-138.568 3359.68,-134.737 3349.56,-131.572 3349.8,-138.568"/>
<text text-anchor="middle" x="1935.91" y="-180.28" font-family="Times,serif" font-size="14.00"> static(visible_from)</text>
</g>
<!-- n3&#45;&gt;n29 -->
<g id="edge65" class="edge"><title>n3&#45;&gt;n29</title>
<path fill="none" stroke="black" d="M1620.37,-219.393C1630.61,-215.65 1641.52,-212.083 1651.91,-209.48 1711.49,-194.56 1731.28,-212.686 1788.91,-191.48 1855.5,-166.983 1857.04,-131.078 1922.91,-104.74 2034.87,-59.9786 2174.71,-40.8931 2258.2,-33.0403"/>
<polygon fill="black" stroke="black" points="2258.71,-36.5088 2268.35,-32.1153 2258.07,-29.5377 2258.71,-36.5088"/>
<text text-anchor="middle" x="1978.91" y="-127.91" font-family="Times,serif" font-size="14.00"> static(visible_from)</text>
</g>
<!-- n4 -->
<g id="node4" class="node"><title>n4</title>
<ellipse fill="none" stroke="black" cx="2951.91" cy="-497.09" rx="56.6372" ry="26.7407"/>
<text text-anchor="middle" x="2951.91" y="-500.89" font-family="Times,serif" font-size="14.00">&lt;camera2&gt;</text>
<text text-anchor="middle" x="2951.91" y="-485.89" font-family="Times,serif" font-size="14.00">camera</text>
</g>
<!-- n9 -->
<g id="node9" class="node"><title>n9</title>
<ellipse fill="none" stroke="black" cx="2713.91" cy="-389.22" rx="48.1667" ry="26.7407"/>
<text text-anchor="middle" x="2713.91" y="-393.02" font-family="Times,serif" font-size="14.00">&lt;rover0&gt;</text>
<text text-anchor="middle" x="2713.91" y="-378.02" font-family="Times,serif" font-size="14.00">rover</text>
</g>
<!-- n4&#45;&gt;n9 -->
<g id="edge15" class="edge"><title>n4&#45;&gt;n9</title>
<path fill="none" stroke="black" d="M2940.21,-470.726C2933.52,-458.873 2924.02,-445.566 2911.91,-437.22 2870.53,-408.693 2813.99,-397.358 2771.92,-392.916"/>
<polygon fill="black" stroke="black" points="2772.12,-389.419 2761.83,-391.952 2771.45,-396.387 2772.12,-389.419"/>
<text text-anchor="middle" x="2974.41" y="-441.02" font-family="Times,serif" font-size="14.00"> static(on_board)</text>
</g>
<!-- n26 -->
<g id="node26" class="node"><title>n26</title>
<ellipse fill="none" stroke="black" cx="1892.91" cy="-389.22" rx="48.1667" ry="26.7407"/>
<text text-anchor="middle" x="1892.91" y="-393.02" font-family="Times,serif" font-size="14.00">&lt;colour&gt;</text>
<text text-anchor="middle" x="1892.91" y="-378.02" font-family="Times,serif" font-size="14.00">mode</text>
</g>
<!-- n4&#45;&gt;n26 -->
<g id="edge41" class="edge"><title>n4&#45;&gt;n26</title>
<path fill="none" stroke="black" d="M2912.37,-477.845C2904.12,-474.755 2895.36,-471.981 2886.91,-470.22 2766.33,-445.07 2454.42,-472.425 2332.91,-452.22 2310.45,-448.485 2306.32,-441.317 2283.91,-437.22 2162.12,-414.949 2128.19,-438.694 2005.91,-419.22 1985.48,-415.965 1963.35,-410.688 1944.14,-405.522"/>
<polygon fill="black" stroke="black" points="1944.95,-402.116 1934.38,-402.841 1943.1,-408.866 1944.95,-402.116"/>
<text text-anchor="middle" x="2376.91" y="-441.02" font-family="Times,serif" font-size="14.00"> static(supports)</text>
</g>
<!-- n28 -->
<g id="node28" class="node"><title>n28</title>
<ellipse fill="none" stroke="black" cx="4060.91" cy="-314.35" rx="67.7647" ry="26.7407"/>
<text text-anchor="middle" x="4060.91" y="-318.15" font-family="Times,serif" font-size="14.00">&lt;objective25&gt;</text>
<text text-anchor="middle" x="4060.91" y="-303.15" font-family="Times,serif" font-size="14.00">objective</text>
</g>
<!-- n4&#45;&gt;n28 -->
<g id="edge88" class="edge"><title>n4&#45;&gt;n28</title>
<path fill="none" stroke="black" d="M3006.11,-488.98C3053.21,-482.041 3122.93,-469.927 3181.91,-452.22 3198.52,-447.237 3201.21,-441.83 3217.91,-437.22 3493.83,-361.103 3834.41,-330.42 3984.15,-319.98"/>
<polygon fill="black" stroke="black" points="3984.43,-323.469 3994.17,-319.292 3983.96,-316.485 3984.43,-323.469"/>
<text text-anchor="middle" x="3286.41" y="-441.02" font-family="Times,serif" font-size="14.00"> static(calibration_target)</text>
</g>
<!-- n5 -->
<g id="node5" class="node"><title>n5</title>
<ellipse fill="none" stroke="black" cx="3345.91" cy="-239.48" rx="67.7647" ry="26.7407"/>
<text text-anchor="middle" x="3345.91" y="-243.28" font-family="Times,serif" font-size="14.00">&lt;objective10&gt;</text>
<text text-anchor="middle" x="3345.91" y="-228.28" font-family="Times,serif" font-size="14.00">objective</text>
</g>
<!-- n5&#45;&gt;n15 -->
<g id="edge21" class="edge"><title>n5&#45;&gt;n15</title>
<path fill="none" stroke="black" d="M3350.62,-212.453C3353.63,-200.707 3358.43,-187.115 3365.91,-176.48 3369.88,-170.855 3374.77,-165.619 3380.02,-160.865"/>
<polygon fill="black" stroke="black" points="3382.48,-163.369 3387.88,-154.257 3377.97,-158.009 3382.48,-163.369"/>
<text text-anchor="middle" x="3421.91" y="-180.28" font-family="Times,serif" font-size="14.00"> static(visible_from)</text>
</g>
<!-- n6 -->
<g id="node6" class="node"><title>n6</title>
<ellipse fill="none" stroke="black" cx="3499.91" cy="-239.48" rx="67.7647" ry="26.7407"/>
<text text-anchor="middle" x="3499.91" y="-243.28" font-family="Times,serif" font-size="14.00">&lt;objective21&gt;</text>
<text text-anchor="middle" x="3499.91" y="-228.28" font-family="Times,serif" font-size="14.00">objective</text>
</g>
<!-- n6&#45;&gt;n15 -->
<g id="edge102" class="edge"><title>n6&#45;&gt;n15</title>
<path fill="none" stroke="black" d="M3494.18,-212.508C3490.75,-200.774 3485.54,-187.176 3477.91,-176.48 3474.01,-171 3469.24,-165.847 3464.15,-161.134"/>
<polygon fill="black" stroke="black" points="3466.4,-158.449 3456.54,-154.557 3461.82,-163.745 3466.4,-158.449"/>
<text text-anchor="middle" x="3542.91" y="-180.28" font-family="Times,serif" font-size="14.00"> static(visible_from)</text>
</g>
<!-- n7 -->
<g id="node7" class="node"><title>n7</title>
<ellipse fill="none" stroke="black" cx="1728.91" cy="-239.48" rx="67.7647" ry="26.7407"/>
<text text-anchor="middle" x="1728.91" y="-243.28" font-family="Times,serif" font-size="14.00">&lt;objective15&gt;</text>
<text text-anchor="middle" x="1728.91" y="-228.28" font-family="Times,serif" font-size="14.00">objective</text>
</g>
<!-- n7&#45;&gt;n15 -->
<g id="edge45" class="edge"><title>n7&#45;&gt;n15</title>
<path fill="none" stroke="black" d="M1775.61,-219.769C1787,-215.817 1799.27,-212.066 1810.91,-209.48 1891.56,-191.576 1914.95,-207.887 1995.91,-191.48 2017.82,-187.041 2021.88,-180.203 2043.91,-176.48 2047.97,-175.794 3063.77,-143.879 3349.13,-134.924"/>
<polygon fill="black" stroke="black" points="3349.49,-138.415 3359.38,-134.603 3349.27,-131.418 3349.49,-138.415"/>
<text text-anchor="middle" x="2106.91" y="-180.28" font-family="Times,serif" font-size="14.00"> static(visible_from)</text>
</g>
<!-- n7&#45;&gt;n29 -->
<g id="edge71" class="edge"><title>n7&#45;&gt;n29</title>
<path fill="none" stroke="black" d="M1775.63,-219.894C1787.03,-215.938 1799.29,-212.153 1810.91,-209.48 1880.66,-193.446 1902.59,-212.759 1970.91,-191.48 1984.39,-187.282 1986.24,-182.701 1998.91,-176.48 2095.9,-128.87 2211.54,-78.5224 2277.58,-50.3601"/>
<polygon fill="black" stroke="black" points="2279.12,-53.5061 2286.95,-46.369 2276.38,-47.0654 2279.12,-53.5061"/>
<text text-anchor="middle" x="2210.91" y="-127.91" font-family="Times,serif" font-size="14.00"> static(visible_from)</text>
</g>
<!-- n8 -->
<g id="node8" class="node"><title>n8</title>
<ellipse fill="none" stroke="black" cx="3060.91" cy="-389.22" rx="67.7647" ry="26.7407"/>
<text text-anchor="middle" x="3060.91" y="-393.02" font-family="Times,serif" font-size="14.00">&lt;objective20&gt;</text>
<text text-anchor="middle" x="3060.91" y="-378.02" font-family="Times,serif" font-size="14.00">objective</text>
</g>
<!-- n8&#45;&gt;n1 -->
<g id="edge60" class="edge"><title>n8&#45;&gt;n1</title>
<path fill="none" stroke="black" d="M3014.47,-369.436C3004.49,-365.762 2993.92,-362.147 2983.91,-359.22 2946.85,-348.384 2934.3,-356.687 2898.91,-341.22 2861.01,-324.651 2860.67,-304.385 2822.91,-287.48 2780.56,-268.518 2729.71,-256.779 2689.37,-249.775"/>
<polygon fill="black" stroke="black" points="2689.8,-246.298 2679.36,-248.095 2688.64,-253.201 2689.8,-246.298"/>
<text text-anchor="middle" x="2954.91" y="-310.65" font-family="Times,serif" font-size="14.00"> static(visible_from)</text>
</g>
<!-- n8&#45;&gt;n15 -->
<g id="edge74" class="edge"><title>n8&#45;&gt;n15</title>
<path fill="none" stroke="black" d="M3054.97,-362.089C3048.27,-338.838 3035.03,-305.764 3010.91,-287.48 2976.67,-261.519 2943.33,-302.575 2915.91,-269.48 2898.9,-248.944 2898.53,-229.7 2915.91,-209.48 2970.87,-145.562 3221.95,-134.145 3348.93,-132.532"/>
<polygon fill="black" stroke="black" points="3349,-136.031 3358.97,-132.421 3348.93,-129.032 3349,-136.031"/>
<text text-anchor="middle" x="2971.91" y="-235.78" font-family="Times,serif" font-size="14.00"> static(visible_from)</text>
</g>
<!-- n8&#45;&gt;n29 -->
<g id="edge25" class="edge"><title>n8&#45;&gt;n29</title>
<path fill="none" stroke="black" d="M3015.49,-368.982C3005.25,-365.248 2994.33,-361.723 2983.91,-359.22 2913.91,-342.402 2886.17,-375.615 2822.91,-341.22 2795.8,-326.474 2806.72,-300.89 2778.91,-287.48 2746.86,-272.021 1522.9,-294.82 1497.91,-269.48 1479.19,-250.492 1480.19,-229.408 1497.91,-209.48 1520.66,-183.898 1618.85,-203.468 1650.91,-191.48 1662,-187.336 1662.53,-182.153 1672.91,-176.48 1744.53,-137.365 1764.56,-130.726 1841.91,-104.74 1898.83,-85.6191 1913.89,-82.7464 1972.91,-71.7401 2071.04,-53.4421 2185.78,-40.9217 2258.39,-34.0785"/>
<polygon fill="black" stroke="black" points="2259.16,-37.5222 2268.79,-33.1101 2258.51,-30.5524 2259.16,-37.5222"/>
<text text-anchor="middle" x="1728.91" y="-180.28" font-family="Times,serif" font-size="14.00"> static(visible_from)</text>
</g>
<!-- n9&#45;&gt;n1 -->
<g id="edge100" class="edge"><title>n9&#45;&gt;n1</title>
<path fill="none" stroke="black" d="M2725.11,-362.95C2732.88,-341.209 2739.5,-309.897 2724.91,-287.48 2715.46,-272.951 2700.38,-262.878 2684.52,-255.908"/>
<polygon fill="black" stroke="black" points="2685.71,-252.616 2675.13,-252.153 2683.11,-259.116 2685.71,-252.616"/>
<text text-anchor="middle" x="2754.41" y="-310.65" font-family="Times,serif" font-size="14.00"> init(at)</text>
</g>
<!-- n9&#45;&gt;n9 -->
<g id="edge3" class="edge"><title>n9&#45;&gt;n9</title>
<path fill="none" stroke="black" d="M2758.7,-399.271C2770.8,-398.74 2780,-395.39 2780,-389.22 2780,-384.979 2775.65,-382.07 2769,-380.493"/>
<polygon fill="black" stroke="black" points="2769.06,-376.973 2758.7,-379.17 2768.17,-383.916 2769.06,-376.973"/>
<text text-anchor="middle" x="2877.5" y="-408.02" font-family="Times,serif" font-size="14.00"> static(equipped_for_rock_analysis)</text>
<text text-anchor="middle" x="2877.5" y="-393.02" font-family="Times,serif" font-size="14.00">static(equipped_for_imaging)</text>
<text text-anchor="middle" x="2877.5" y="-378.02" font-family="Times,serif" font-size="14.00">init(available)</text>
<text text-anchor="middle" x="2877.5" y="-363.02" font-family="Times,serif" font-size="14.00">static(equipped_for_soil_analysis)</text>
</g>
<!-- n10 -->
<g id="node10" class="node"><title>n10</title>
<ellipse fill="none" stroke="black" cx="5559.91" cy="-239.48" rx="67.7647" ry="26.7407"/>
<text text-anchor="middle" x="5559.91" y="-243.28" font-family="Times,serif" font-size="14.00">&lt;objective26&gt;</text>
<text text-anchor="middle" x="5559.91" y="-228.28" font-family="Times,serif" font-size="14.00">objective</text>
</g>
<!-- n10&#45;&gt;n15 -->
<g id="edge24" class="edge"><title>n10&#45;&gt;n15</title>
<path fill="none" stroke="black" d="M5515.42,-219.057C5504.94,-215.235 5493.68,-211.719 5482.91,-209.48 5404.27,-193.129 5198.31,-216.278 5121.91,-191.48 5110.31,-187.712 5110.57,-180.11 5098.91,-176.48 4944.87,-128.484 3800.34,-130.72 3496.69,-132.178"/>
<polygon fill="black" stroke="black" points="3496.65,-128.678 3486.67,-132.227 3496.69,-135.678 3496.65,-128.678"/>
<text text-anchor="middle" x="5177.91" y="-180.28" font-family="Times,serif" font-size="14.00"> static(visible_from)</text>
</g>
<!-- n10&#45;&gt;n29 -->
<g id="edge103" class="edge"><title>n10&#45;&gt;n29</title>
<path fill="none" stroke="black" d="M5554.03,-212.708C5545.38,-181.318 5525.96,-129.434 5487.91,-104.74 5322.68,2.51103 5242.7,-80.6686 5045.91,-71.7401 3998.8,-24.2318 2722.48,-26.1556 2405.04,-27.4822"/>
<polygon fill="black" stroke="black" points="2404.58,-23.984 2394.59,-27.5271 2404.61,-30.984 2404.58,-23.984"/>
<text text-anchor="middle" x="5588.91" y="-127.91" font-family="Times,serif" font-size="14.00"> static(visible_from)</text>
</g>
<!-- n11 -->
<g id="node11" class="node"><title>n11</title>
<ellipse fill="none" stroke="black" cx="545.915" cy="-389.22" rx="67.7647" ry="26.7407"/>
<text text-anchor="middle" x="545.915" y="-393.02" font-family="Times,serif" font-size="14.00">&lt;objective22&gt;</text>
<text text-anchor="middle" x="545.915" y="-378.02" font-family="Times,serif" font-size="14.00">objective</text>
</g>
<!-- n12 -->
<g id="node12" class="node"><title>n12</title>
<ellipse fill="none" stroke="black" cx="1203.91" cy="-239.48" rx="56.6372" ry="26.7407"/>
<text text-anchor="middle" x="1203.91" y="-243.28" font-family="Times,serif" font-size="14.00">&lt;high_res&gt;</text>
<text text-anchor="middle" x="1203.91" y="-228.28" font-family="Times,serif" font-size="14.00">mode</text>
</g>
<!-- n11&#45;&gt;n12 -->
<g id="edge49" class="edge"><title>n11&#45;&gt;n12</title>
<path fill="none" stroke="black" d="M551.032,-362.169C557.229,-338.289 570.211,-304.184 595.915,-287.48 635.453,-261.787 972.994,-274.158 1019.91,-269.48 1060.63,-265.421 1106.04,-258.292 1141.56,-252.118"/>
<polygon fill="black" stroke="black" points="1142.53,-255.5 1151.77,-250.321 1141.32,-248.606 1142.53,-255.5"/>
<text text-anchor="middle" x="687.915" y="-310.65" font-family="Times,serif" font-size="14.00"> end(communicated_image_data)</text>
</g>
<!-- n11&#45;&gt;n15 -->
<g id="edge40" class="edge"><title>n11&#45;&gt;n15</title>
<path fill="none" stroke="black" d="M542.324,-362.342C540.648,-340.797 541.418,-310.098 554.915,-287.48 600.774,-210.631 637.334,-202.649 722.915,-176.48 772.538,-161.306 2539.03,-159.537 2590.91,-158.48 2871.35,-152.77 3204.8,-140.848 3349.68,-135.415"/>
<polygon fill="black" stroke="black" points="3349.92,-138.909 3359.78,-135.036 3349.66,-131.914 3349.92,-138.909"/>
<text text-anchor="middle" x="687.915" y="-235.78" font-family="Times,serif" font-size="14.00"> static(visible_from)</text>
</g>
<!-- n11&#45;&gt;n29 -->
<g id="edge59" class="edge"><title>n11&#45;&gt;n29</title>
<path fill="none" stroke="black" d="M538.174,-362.316C526.645,-317.818 511.087,-226.801 558.915,-176.48 652.17,-78.3631 722.174,-131.26 854.915,-104.74 947.132,-86.3163 970.305,-80.7172 1063.91,-71.7401 1515.65,-28.4191 2061.61,-26.4226 2256.98,-27.286"/>
<polygon fill="black" stroke="black" points="2257.11,-30.7865 2267.13,-27.3348 2257.14,-23.7866 2257.11,-30.7865"/>
<text text-anchor="middle" x="614.915" y="-180.28" font-family="Times,serif" font-size="14.00"> static(visible_from)</text>
</g>
<!-- n37 -->
<g id="node37" class="node"><title>n37</title>
<ellipse fill="none" stroke="black" cx="243.915" cy="-239.48" rx="53.9813" ry="26.7407"/>
<text text-anchor="middle" x="243.915" y="-243.28" font-family="Times,serif" font-size="14.00">&lt;low_res&gt;</text>
<text text-anchor="middle" x="243.915" y="-228.28" font-family="Times,serif" font-size="14.00">mode</text>
</g>
<!-- n11&#45;&gt;n37 -->
<g id="edge106" class="edge"><title>n11&#45;&gt;n37</title>
<path fill="none" stroke="black" d="M499.212,-369.559C487.816,-365.606 475.552,-361.841 463.915,-359.22 425.992,-350.68 321.216,-364.271 289.915,-341.22 268.995,-325.815 277.739,-311.098 266.915,-287.48 265.033,-283.374 263.015,-279.09 260.984,-274.853"/>
<polygon fill="black" stroke="black" points="264.076,-273.209 256.566,-265.736 257.777,-276.261 264.076,-273.209"/>
<text text-anchor="middle" x="381.915" y="-310.65" font-family="Times,serif" font-size="14.00"> end(communicated_image_data)</text>
</g>
<!-- n13 -->
<g id="node13" class="node"><title>n13</title>
<ellipse fill="none" stroke="black" cx="3648.91" cy="-239.48" rx="62.8651" ry="26.7407"/>
<text text-anchor="middle" x="3648.91" y="-243.28" font-family="Times,serif" font-size="14.00">&lt;objective0&gt;</text>
<text text-anchor="middle" x="3648.91" y="-228.28" font-family="Times,serif" font-size="14.00">objective</text>
</g>
<!-- n13&#45;&gt;n15 -->
<g id="edge33" class="edge"><title>n13&#45;&gt;n15</title>
<path fill="none" stroke="black" d="M3635.69,-213.045C3627.81,-200.263 3616.65,-185.594 3602.91,-176.48 3571.2,-155.441 3530.35,-144.478 3495.59,-138.772"/>
<polygon fill="black" stroke="black" points="3495.9,-135.279 3485.48,-137.231 3494.84,-142.199 3495.9,-135.279"/>
<text text-anchor="middle" x="3674.91" y="-180.28" font-family="Times,serif" font-size="14.00"> static(visible_from)</text>
</g>
<!-- n14 -->
<g id="node14" class="node"><title>n14</title>
<ellipse fill="none" stroke="black" cx="1750.91" cy="-389.22" rx="62.8651" ry="26.7407"/>
<text text-anchor="middle" x="1750.91" y="-393.02" font-family="Times,serif" font-size="14.00">&lt;objective8&gt;</text>
<text text-anchor="middle" x="1750.91" y="-378.02" font-family="Times,serif" font-size="14.00">objective</text>
</g>
<!-- n14&#45;&gt;n15 -->
<g id="edge76" class="edge"><title>n14&#45;&gt;n15</title>
<path fill="none" stroke="black" d="M1796.75,-370.728C1809.3,-366.449 1823.01,-362.238 1835.91,-359.22 1895.71,-345.237 1918.47,-369.638 1972.91,-341.22 2001.57,-326.264 1994.08,-303.918 2021.91,-287.48 2051.43,-270.046 2068.27,-288.307 2096.91,-269.48 2124.77,-251.173 2113.49,-226.893 2141.91,-209.48 2160.19,-198.287 2310.61,-178.749 2331.91,-176.48 2529.89,-155.4 3137.54,-139.377 3349.25,-134.305"/>
<polygon fill="black" stroke="black" points="3349.41,-137.802 3359.33,-134.064 3349.25,-130.804 3349.41,-137.802"/>
<text text-anchor="middle" x="2198.91" y="-235.78" font-family="Times,serif" font-size="14.00"> static(visible_from)</text>
</g>
<!-- n15&#45;&gt;n1 -->
<g id="edge66" class="edge"><title>n15&#45;&gt;n1</title>
<path fill="none" stroke="black" d="M3359.26,-132.327C3247.88,-132.91 3010.84,-138.962 2814.91,-176.48 2766.44,-185.762 2713.15,-203.106 2674.38,-217.095"/>
<polygon fill="black" stroke="black" points="2673.05,-213.857 2664.85,-220.572 2675.45,-220.433 2673.05,-213.857"/>
<text text-anchor="middle" x="2853.91" y="-180.28" font-family="Times,serif" font-size="14.00"> static(visible)</text>
</g>
<!-- n15&#45;&gt;n15 -->
<g id="edge4" class="edge"><title>n15&#45;&gt;n15</title>
<path fill="none" stroke="black" d="M3482.72,-141.045C3495.4,-140.087 3504.55,-136.942 3504.55,-131.61 3504.55,-127.861 3500.03,-125.193 3492.93,-123.607"/>
<polygon fill="black" stroke="black" points="3493.11,-120.097 3482.72,-122.175 3492.14,-127.029 3493.11,-120.097"/>
<text text-anchor="middle" x="3589.05" y="-135.41" font-family="Times,serif" font-size="14.00"> end(communicated_soil_data)</text>
<text text-anchor="middle" x="3589.05" y="-120.41" font-family="Times,serif" font-size="14.00">init(at_soil_sample)</text>
</g>
<!-- n15&#45;&gt;n29 -->
<g id="edge29" class="edge"><title>n15&#45;&gt;n29</title>
<path fill="none" stroke="black" d="M3360.89,-125.129C3268.65,-116.948 3089.85,-100.98 2937.91,-86.7401 2744.26,-68.5913 2515.97,-46.1746 2402.47,-34.9609"/>
<polygon fill="black" stroke="black" points="2402.8,-31.4773 2392.51,-33.9767 2402.12,-38.4433 2402.8,-31.4773"/>
<text text-anchor="middle" x="2976.91" y="-75.5401" font-family="Times,serif" font-size="14.00"> static(visible)</text>
</g>
<!-- n16 -->
<g id="node16" class="node"><title>n16</title>
<ellipse fill="none" stroke="black" cx="3792.91" cy="-239.48" rx="62.8651" ry="26.7407"/>
<text text-anchor="middle" x="3792.91" y="-243.28" font-family="Times,serif" font-size="14.00">&lt;objective7&gt;</text>
<text text-anchor="middle" x="3792.91" y="-228.28" font-family="Times,serif" font-size="14.00">objective</text>
</g>
<!-- n16&#45;&gt;n15 -->
<g id="edge20" class="edge"><title>n16&#45;&gt;n15</title>
<path fill="none" stroke="black" d="M3775.98,-213.378C3765.7,-200.196 3751.39,-185.043 3734.91,-176.48 3694.56,-155.511 3574.99,-143.274 3496.14,-137.272"/>
<polygon fill="black" stroke="black" points="3496.01,-133.752 3485.78,-136.501 3495.49,-140.733 3496.01,-133.752"/>
<text text-anchor="middle" x="3811.91" y="-180.28" font-family="Times,serif" font-size="14.00"> static(visible_from)</text>
</g>
<!-- n17 -->
<g id="node17" class="node"><title>n17</title>
<ellipse fill="none" stroke="black" cx="2820.91" cy="-497.09" rx="56.6372" ry="26.7407"/>
<text text-anchor="middle" x="2820.91" y="-500.89" font-family="Times,serif" font-size="14.00">&lt;camera3&gt;</text>
<text text-anchor="middle" x="2820.91" y="-485.89" font-family="Times,serif" font-size="14.00">camera</text>
</g>
<!-- n17&#45;&gt;n8 -->
<g id="edge69" class="edge"><title>n17&#45;&gt;n8</title>
<path fill="none" stroke="black" d="M2861.31,-478.213C2869.34,-475.174 2877.8,-472.324 2885.91,-470.22 2946.21,-454.581 2973.04,-486.71 3024.91,-452.22 3034.68,-445.731 3042.13,-435.626 3047.65,-425.443"/>
<polygon fill="black" stroke="black" points="3050.93,-426.693 3052.18,-416.172 3044.64,-423.616 3050.93,-426.693"/>
<text text-anchor="middle" x="3109.41" y="-441.02" font-family="Times,serif" font-size="14.00"> static(calibration_target)</text>
</g>
<!-- n17&#45;&gt;n9 -->
<g id="edge77" class="edge"><title>n17&#45;&gt;n9</title>
<path fill="none" stroke="black" d="M2819.57,-470.228C2817.86,-459.101 2814.27,-446.539 2806.91,-437.22 2796.33,-423.814 2780.91,-413.904 2765.65,-406.735"/>
<polygon fill="black" stroke="black" points="2766.78,-403.41 2756.22,-402.618 2763.98,-409.826 2766.78,-403.41"/>
<text text-anchor="middle" x="2861.41" y="-441.02" font-family="Times,serif" font-size="14.00"> static(on_board)</text>
</g>
<!-- n17&#45;&gt;n12 -->
<g id="edge42" class="edge"><title>n17&#45;&gt;n12</title>
<path fill="none" stroke="black" d="M2765.79,-490.907C2700.32,-484.949 2587.76,-475.337 2490.91,-470.22 2417.88,-466.361 1903.6,-470.993 1832.91,-452.22 1819.27,-448.597 1818.55,-440.897 1804.91,-437.22 1749.96,-422.395 1336.65,-455.658 1292.91,-419.22 1246.85,-380.844 1295.84,-338.228 1263.91,-287.48 1259.26,-280.074 1253,-273.358 1246.28,-267.47"/>
<polygon fill="black" stroke="black" points="1248.22,-264.536 1238.26,-260.946 1243.81,-269.969 1248.22,-264.536"/>
<text text-anchor="middle" x="1336.91" y="-385.52" font-family="Times,serif" font-size="14.00"> static(supports)</text>
</g>
<!-- n18 -->
<g id="node18" class="node"><title>n18</title>
<ellipse fill="none" stroke="black" cx="5713.91" cy="-239.48" rx="67.7647" ry="26.7407"/>
<text text-anchor="middle" x="5713.91" y="-243.28" font-family="Times,serif" font-size="14.00">&lt;objective12&gt;</text>
<text text-anchor="middle" x="5713.91" y="-228.28" font-family="Times,serif" font-size="14.00">objective</text>
</g>
<!-- n18&#45;&gt;n15 -->
<g id="edge34" class="edge"><title>n18&#45;&gt;n15</title>
<path fill="none" stroke="black" d="M5668.95,-219.159C5658.6,-215.382 5647.51,-211.859 5636.91,-209.48 5461.57,-170.096 5413.37,-185.994 5233.91,-176.48 4560.12,-140.762 3743.74,-134.1 3497,-132.879"/>
<polygon fill="black" stroke="black" points="3496.74,-129.378 3486.72,-132.83 3496.71,-136.378 3496.74,-129.378"/>
<text text-anchor="middle" x="5592.91" y="-180.28" font-family="Times,serif" font-size="14.00"> static(visible_from)</text>
</g>
<!-- n18&#45;&gt;n29 -->
<g id="edge11" class="edge"><title>n18&#45;&gt;n29</title>
<path fill="none" stroke="black" d="M5701.34,-212.793C5682.36,-174.067 5648.53,-105.16 5647.91,-104.74 5507.2,-8.62201 5436.11,-80.3523 5265.91,-71.7401 4684.34,-42.3109 2802.09,-30.4636 2404.93,-28.2603"/>
<polygon fill="black" stroke="black" points="2404.73,-24.7593 2394.71,-28.204 2404.69,-31.7592 2404.73,-24.7593"/>
<text text-anchor="middle" x="5729.91" y="-127.91" font-family="Times,serif" font-size="14.00"> static(visible_from)</text>
</g>
<!-- n19 -->
<g id="node19" class="node"><title>n19</title>
<ellipse fill="none" stroke="black" cx="722.915" cy="-497.09" rx="56.6372" ry="26.7407"/>
<text text-anchor="middle" x="722.915" y="-500.89" font-family="Times,serif" font-size="14.00">&lt;camera0&gt;</text>
<text text-anchor="middle" x="722.915" y="-485.89" font-family="Times,serif" font-size="14.00">camera</text>
</g>
<!-- n19&#45;&gt;n9 -->
<g id="edge87" class="edge"><title>n19&#45;&gt;n9</title>
<path fill="none" stroke="black" d="M770.131,-482.085C787.786,-477.448 808.115,-472.815 826.915,-470.22 957.076,-452.259 1289.48,-479.947 1417.91,-452.22 1434.86,-448.563 1436.94,-440.747 1453.91,-437.22 1584.8,-410.023 2527.15,-451.36 2656.91,-419.22 2662.24,-417.902 2667.63,-416.014 2672.86,-413.824"/>
<polygon fill="black" stroke="black" points="2674.42,-416.958 2682.06,-409.615 2671.51,-410.592 2674.42,-416.958"/>
<text text-anchor="middle" x="1500.41" y="-441.02" font-family="Times,serif" font-size="14.00"> static(on_board)</text>
</g>
<!-- n19&#45;&gt;n14 -->
<g id="edge92" class="edge"><title>n19&#45;&gt;n14</title>
<path fill="none" stroke="black" d="M726.423,-469.972C729.48,-457.934 735.203,-444.688 745.915,-437.22 788.443,-407.572 1628.12,-429.576 1678.91,-419.22 1686,-417.777 1693.27,-415.666 1700.34,-413.23"/>
<polygon fill="black" stroke="black" points="1701.66,-416.477 1709.83,-409.739 1699.24,-409.907 1701.66,-416.477"/>
<text text-anchor="middle" x="814.415" y="-441.02" font-family="Times,serif" font-size="14.00"> static(calibration_target)</text>
</g>
<!-- n19&#45;&gt;n26 -->
<g id="edge55" class="edge"><title>n19&#45;&gt;n26</title>
<path fill="none" stroke="black" d="M770.741,-482.536C788.283,-478.005 808.381,-473.324 826.915,-470.22 916.684,-455.189 944.895,-481.969 1030.91,-452.22 1042.45,-448.232 1042.26,-440.834 1053.91,-437.22 1135.55,-411.91 1739.29,-436.877 1822.91,-419.22 1831.33,-417.443 1840.02,-414.681 1848.29,-411.553"/>
<polygon fill="black" stroke="black" points="1849.78,-414.724 1857.76,-407.75 1847.17,-408.228 1849.78,-414.724"/>
<text text-anchor="middle" x="1097.91" y="-441.02" font-family="Times,serif" font-size="14.00"> static(supports)</text>
</g>
<!-- n19&#45;&gt;n37 -->
<g id="edge94" class="edge"><title>n19&#45;&gt;n37</title>
<path fill="none" stroke="black" d="M667.993,-490.373C615,-484.927 532.503,-476.63 460.915,-470.22 361.436,-461.313 334.781,-472.157 236.915,-452.22 191.468,-442.962 165.034,-456.846 137.915,-419.22 101.374,-368.523 162.814,-304.599 206.369,-268.559"/>
<polygon fill="black" stroke="black" points="208.698,-271.177 214.266,-262.164 204.292,-265.737 208.698,-271.177"/>
<text text-anchor="middle" x="181.915" y="-385.52" font-family="Times,serif" font-size="14.00"> static(supports)</text>
</g>
<!-- n20 -->
<g id="node20" class="node"><title>n20</title>
<ellipse fill="none" stroke="black" cx="892.915" cy="-497.09" rx="56.6372" ry="26.7407"/>
<text text-anchor="middle" x="892.915" y="-500.89" font-family="Times,serif" font-size="14.00">&lt;camera5&gt;</text>
<text text-anchor="middle" x="892.915" y="-485.89" font-family="Times,serif" font-size="14.00">camera</text>
</g>
<!-- n20&#45;&gt;n9 -->
<g id="edge18" class="edge"><title>n20&#45;&gt;n9</title>
<path fill="none" stroke="black" d="M949.295,-493.605C1055.21,-488.946 1291.16,-478.611 1489.91,-470.22 1587.24,-466.112 1833.28,-475.348 1927.91,-452.22 1943.17,-448.491 1944.63,-440.833 1959.91,-437.22 2110.7,-401.584 2506.72,-457.287 2656.91,-419.22 2662.23,-417.873 2667.61,-415.967 2672.84,-413.768"/>
<polygon fill="black" stroke="black" points="2674.41,-416.899 2682.04,-409.549 2671.49,-410.536 2674.41,-416.899"/>
<text text-anchor="middle" x="2006.41" y="-441.02" font-family="Times,serif" font-size="14.00"> static(on_board)</text>
</g>
<!-- n20&#45;&gt;n12 -->
<g id="edge44" class="edge"><title>n20&#45;&gt;n12</title>
<path fill="none" stroke="black" d="M861.328,-474.556C848.423,-463.161 838.666,-449.106 848.915,-437.22 884.419,-396.044 925.268,-450.248 969.915,-419.22 1002.42,-396.63 994.212,-376.109 1012.91,-341.22 1025.64,-317.484 1020.07,-304.532 1040.91,-287.48 1068.38,-265.018 1106.09,-253.288 1138.32,-247.164"/>
<polygon fill="black" stroke="black" points="1139.33,-250.541 1148.57,-245.366 1138.12,-243.646 1139.33,-250.541"/>
<text text-anchor="middle" x="1048.91" y="-385.52" font-family="Times,serif" font-size="14.00"> static(supports)</text>
</g>
<!-- n20&#45;&gt;n14 -->
<g id="edge73" class="edge"><title>n20&#45;&gt;n14</title>
<path fill="none" stroke="black" d="M886.022,-470.372C884.55,-458.728 885.483,-445.702 893.915,-437.22 924.669,-406.283 1636.19,-428.011 1678.91,-419.22 1685.99,-417.764 1693.27,-415.645 1700.34,-413.206"/>
<polygon fill="black" stroke="black" points="1701.65,-416.452 1709.83,-409.712 1699.23,-409.883 1701.65,-416.452"/>
<text text-anchor="middle" x="962.415" y="-441.02" font-family="Times,serif" font-size="14.00"> static(calibration_target)</text>
</g>
<!-- n20&#45;&gt;n26 -->
<g id="edge32" class="edge"><title>n20&#45;&gt;n26</title>
<path fill="none" stroke="black" d="M949.213,-493.838C1125.73,-486.666 1658.73,-464.137 1693.91,-452.22 1705.12,-448.424 1704.94,-441.638 1715.91,-437.22 1760.65,-419.219 1776.57,-432.534 1822.91,-419.22 1831,-416.897 1839.42,-413.924 1847.5,-410.772"/>
<polygon fill="black" stroke="black" points="1848.82,-414.011 1856.78,-407.016 1846.2,-407.521 1848.82,-414.011"/>
<text text-anchor="middle" x="1759.91" y="-441.02" font-family="Times,serif" font-size="14.00"> static(supports)</text>
</g>
<!-- n20&#45;&gt;n37 -->
<g id="edge91" class="edge"><title>n20&#45;&gt;n37</title>
<path fill="none" stroke="black" d="M845.682,-482.2C828.026,-477.576 807.7,-472.921 788.915,-470.22 599.143,-442.941 546.316,-487.754 357.915,-452.22 313.579,-443.858 291.906,-452.926 261.915,-419.22 227.373,-380.4 230.168,-316.401 236.332,-276.44"/>
<polygon fill="black" stroke="black" points="239.823,-276.782 238.04,-266.338 232.922,-275.614 239.823,-276.782"/>
<text text-anchor="middle" x="305.915" y="-385.52" font-family="Times,serif" font-size="14.00"> static(supports)</text>
</g>
<!-- n21 -->
<g id="node21" class="node"><title>n21</title>
<ellipse fill="none" stroke="black" cx="2424.91" cy="-497.09" rx="56.6372" ry="26.7407"/>
<text text-anchor="middle" x="2424.91" y="-500.89" font-family="Times,serif" font-size="14.00">&lt;camera1&gt;</text>
<text text-anchor="middle" x="2424.91" y="-485.89" font-family="Times,serif" font-size="14.00">camera</text>
</g>
<!-- n21&#45;&gt;n9 -->
<g id="edge64" class="edge"><title>n21&#45;&gt;n9</title>
<path fill="none" stroke="black" d="M2481.11,-493.349C2549.5,-488.924 2659.72,-477.939 2690.91,-452.22 2699.02,-445.538 2704.27,-435.711 2707.67,-425.843"/>
<polygon fill="black" stroke="black" points="2711.08,-426.653 2710.49,-416.075 2704.35,-424.711 2711.08,-426.653"/>
<text text-anchor="middle" x="2749.41" y="-441.02" font-family="Times,serif" font-size="14.00"> static(on_board)</text>
</g>
<!-- n21&#45;&gt;n12 -->
<g id="edge10" class="edge"><title>n21&#45;&gt;n12</title>
<path fill="none" stroke="black" d="M2418.28,-470.255C2413.77,-458.131 2406.45,-444.727 2394.91,-437.22 2363.85,-417.015 2097.6,-429.208 2061.91,-419.22 2007.53,-404 2004.29,-374.468 1949.91,-359.22 1809.77,-319.92 1764.42,-375.321 1622.91,-341.22 1565.71,-327.435 1558.65,-303.079 1501.91,-287.48 1436.75,-269.563 1417.67,-280.028 1350.91,-269.48 1322.44,-264.98 1291.06,-258.941 1264.64,-253.538"/>
<polygon fill="black" stroke="black" points="1265.27,-250.095 1254.77,-251.503 1263.86,-256.951 1265.27,-250.095"/>
<text text-anchor="middle" x="2105.91" y="-385.52" font-family="Times,serif" font-size="14.00"> static(supports)</text>
</g>
<!-- n21&#45;&gt;n26 -->
<g id="edge27" class="edge"><title>n21&#45;&gt;n26</title>
<path fill="none" stroke="black" d="M2368.12,-496.572C2298.2,-495.445 2176.82,-487.836 2079.91,-452.22 2068.46,-448.011 2068.02,-442.291 2056.91,-437.22 2037.17,-428.201 1986.27,-414.102 1946.37,-403.697"/>
<polygon fill="black" stroke="black" points="1947.04,-400.256 1936.48,-401.136 1945.29,-407.032 1947.04,-400.256"/>
<text text-anchor="middle" x="2123.91" y="-441.02" font-family="Times,serif" font-size="14.00"> static(supports)</text>
</g>
<!-- n39 -->
<g id="node39" class="node"><title>n39</title>
<ellipse fill="none" stroke="black" cx="2424.91" cy="-389.22" rx="62.8651" ry="26.7407"/>
<text text-anchor="middle" x="2424.91" y="-393.02" font-family="Times,serif" font-size="14.00">&lt;objective4&gt;</text>
<text text-anchor="middle" x="2424.91" y="-378.02" font-family="Times,serif" font-size="14.00">objective</text>
</g>
<!-- n21&#45;&gt;n39 -->
<g id="edge43" class="edge"><title>n21&#45;&gt;n39</title>
<path fill="none" stroke="black" d="M2424.91,-470.192C2424.91,-456.99 2424.91,-440.722 2424.91,-426.312"/>
<polygon fill="black" stroke="black" points="2428.41,-426.219 2424.91,-416.219 2421.41,-426.219 2428.41,-426.219"/>
<text text-anchor="middle" x="2493.41" y="-441.02" font-family="Times,serif" font-size="14.00"> static(calibration_target)</text>
</g>
<!-- n22 -->
<g id="node22" class="node"><title>n22</title>
<ellipse fill="none" stroke="black" cx="3936.91" cy="-239.48" rx="62.8651" ry="26.7407"/>
<text text-anchor="middle" x="3936.91" y="-243.28" font-family="Times,serif" font-size="14.00">&lt;objective1&gt;</text>
<text text-anchor="middle" x="3936.91" y="-228.28" font-family="Times,serif" font-size="14.00">objective</text>
</g>
<!-- n22&#45;&gt;n15 -->
<g id="edge50" class="edge"><title>n22&#45;&gt;n15</title>
<path fill="none" stroke="black" d="M3918.03,-213.716C3906.31,-200.294 3890.06,-184.794 3871.91,-176.48 3806.92,-146.705 3606.3,-137.087 3496.54,-134.019"/>
<polygon fill="black" stroke="black" points="3496.62,-130.52 3486.53,-133.75 3496.43,-137.517 3496.62,-130.52"/>
<text text-anchor="middle" x="3950.91" y="-180.28" font-family="Times,serif" font-size="14.00"> static(visible_from)</text>
</g>
<!-- n23 -->
<g id="node23" class="node"><title>n23</title>
<ellipse fill="none" stroke="black" cx="5897.91" cy="-389.22" rx="67.7647" ry="26.7407"/>
<text text-anchor="middle" x="5897.91" y="-393.02" font-family="Times,serif" font-size="14.00">&lt;objective24&gt;</text>
<text text-anchor="middle" x="5897.91" y="-378.02" font-family="Times,serif" font-size="14.00">objective</text>
</g>
<!-- n23&#45;&gt;n1 -->
<g id="edge26" class="edge"><title>n23&#45;&gt;n1</title>
<path fill="none" stroke="black" d="M5833.62,-380.431C5665.02,-360.41 5196.09,-307.342 4803.91,-287.48 4378,-265.909 3310.64,-294.621 2884.91,-269.48 2818.15,-265.537 2742.35,-256.857 2688.79,-250.015"/>
<polygon fill="black" stroke="black" points="2689.09,-246.525 2678.72,-248.717 2688.2,-253.467 2689.09,-246.525"/>
<text text-anchor="middle" x="5510.91" y="-310.65" font-family="Times,serif" font-size="14.00"> static(visible_from)</text>
</g>
<!-- n23&#45;&gt;n15 -->
<g id="edge12" class="edge"><title>n23&#45;&gt;n15</title>
<path fill="none" stroke="black" d="M5830.33,-386.312C5655.68,-380.18 5194.5,-355.995 5072.91,-269.48 5048.46,-252.079 5066.86,-226.172 5041.91,-209.48 5002.99,-183.433 4878.51,-196.207 4831.91,-191.48 4774.93,-185.7 4761.03,-180.797 4703.91,-176.48 4245.86,-141.857 3693.58,-134.546 3496.88,-133.013"/>
<polygon fill="black" stroke="black" points="3496.69,-129.512 3486.66,-132.936 3496.64,-136.512 3496.69,-129.512"/>
<text text-anchor="middle" x="5128.91" y="-235.78" font-family="Times,serif" font-size="14.00"> static(visible_from)</text>
</g>
<!-- n23&#45;&gt;n29 -->
<g id="edge36" class="edge"><title>n23&#45;&gt;n29</title>
<path fill="none" stroke="black" d="M5937.66,-367.285C6001.7,-330.697 6115.98,-251.82 6068.91,-176.48 5996.31,-60.2569 5914.97,-88.1127 5778.91,-71.7401 5433.57,-30.1825 2873.44,-27.9237 2404.55,-27.8603"/>
<polygon fill="black" stroke="black" points="2404.52,-24.3604 2394.52,-27.8593 2404.52,-31.3604 2404.52,-24.3604"/>
<text text-anchor="middle" x="6131.91" y="-180.28" font-family="Times,serif" font-size="14.00"> static(visible_from)</text>
</g>
<!-- n24 -->
<g id="node24" class="node"><title>n24</title>
<ellipse fill="none" stroke="black" cx="3515.91" cy="-497.09" rx="67.3507" ry="26.7407"/>
<text text-anchor="middle" x="3515.91" y="-500.89" font-family="Times,serif" font-size="14.00">&lt;rover0store&gt;</text>
<text text-anchor="middle" x="3515.91" y="-485.89" font-family="Times,serif" font-size="14.00">store</text>
</g>
<!-- n24&#45;&gt;n9 -->
<g id="edge80" class="edge"><title>n24&#45;&gt;n9</title>
<path fill="none" stroke="black" d="M3501.87,-470.775C3493.48,-458.309 3481.59,-444.437 3466.91,-437.22 3418.72,-413.526 3037.48,-423.09 2983.91,-419.22 2910.14,-413.89 2825.39,-404.201 2770.82,-397.498"/>
<polygon fill="black" stroke="black" points="2771.01,-393.995 2760.65,-396.241 2770.15,-400.942 2771.01,-393.995"/>
<text text-anchor="middle" x="3529.91" y="-441.02" font-family="Times,serif" font-size="14.00"> static(store_of)</text>
</g>
<!-- n24&#45;&gt;n24 -->
<g id="edge5" class="edge"><title>n24&#45;&gt;n24</title>
<path fill="none" stroke="black" d="M3579.06,-506.468C3591.9,-505.447 3601.09,-502.321 3601.09,-497.09 3601.09,-493.413 3596.55,-490.775 3589.39,-489.179"/>
<polygon fill="black" stroke="black" points="3589.45,-485.653 3579.06,-487.712 3588.47,-492.584 3589.45,-485.653"/>
<text text-anchor="middle" x="3634.09" y="-493.39" font-family="Times,serif" font-size="14.00"> init(empty)</text>
</g>
<!-- n25 -->
<g id="node25" class="node"><title>n25</title>
<ellipse fill="none" stroke="black" cx="4080.91" cy="-239.48" rx="62.8651" ry="26.7407"/>
<text text-anchor="middle" x="4080.91" y="-243.28" font-family="Times,serif" font-size="14.00">&lt;objective6&gt;</text>
<text text-anchor="middle" x="4080.91" y="-228.28" font-family="Times,serif" font-size="14.00">objective</text>
</g>
<!-- n25&#45;&gt;n15 -->
<g id="edge57" class="edge"><title>n25&#45;&gt;n15</title>
<path fill="none" stroke="black" d="M4060.57,-213.86C4047.83,-200.309 4030.21,-184.629 4010.91,-176.48 3920.22,-138.169 3633.82,-132.663 3497.04,-132.293"/>
<polygon fill="black" stroke="black" points="3496.67,-128.792 3486.66,-132.274 3496.65,-135.792 3496.67,-128.792"/>
<text text-anchor="middle" x="4091.91" y="-180.28" font-family="Times,serif" font-size="14.00"> static(visible_from)</text>
</g>
<!-- n27 -->
<g id="node27" class="node"><title>n27</title>
<ellipse fill="none" stroke="black" cx="4224.91" cy="-239.48" rx="62.8651" ry="26.7407"/>
<text text-anchor="middle" x="4224.91" y="-243.28" font-family="Times,serif" font-size="14.00">&lt;objective2&gt;</text>
<text text-anchor="middle" x="4224.91" y="-228.28" font-family="Times,serif" font-size="14.00">objective</text>
</g>
<!-- n27&#45;&gt;n15 -->
<g id="edge61" class="edge"><title>n27&#45;&gt;n15</title>
<path fill="none" stroke="black" d="M4203.85,-214.064C4190.48,-200.402 4171.97,-184.54 4151.91,-176.48 4092.26,-152.507 3669.49,-138.982 3496.46,-134.399"/>
<polygon fill="black" stroke="black" points="3496.51,-130.899 3486.42,-134.135 3496.33,-137.897 3496.51,-130.899"/>
<text text-anchor="middle" x="4232.91" y="-180.28" font-family="Times,serif" font-size="14.00"> static(visible_from)</text>
</g>
<!-- n28&#45;&gt;n15 -->
<g id="edge56" class="edge"><title>n28&#45;&gt;n15</title>
<path fill="none" stroke="black" d="M4107.49,-294.661C4116.15,-291.812 4125.22,-289.24 4133.91,-287.48 4167.3,-280.725 4416.55,-294.26 4439.91,-269.48 4458.21,-250.078 4455.6,-231.044 4439.91,-209.48 4384.61,-133.463 3721.23,-130.667 3496.67,-131.923"/>
<polygon fill="black" stroke="black" points="3496.61,-128.423 3486.64,-131.984 3496.66,-135.423 3496.61,-128.423"/>
<text text-anchor="middle" x="4508.91" y="-235.78" font-family="Times,serif" font-size="14.00"> static(visible_from)</text>
</g>
<!-- n29&#45;&gt;n1 -->
<g id="edge39" class="edge"><title>n29&#45;&gt;n1</title>
<path fill="none" stroke="black" d="M2361.95,-50.5653C2414.79,-89.2082 2522.12,-167.695 2579.94,-209.975"/>
<polygon fill="black" stroke="black" points="2577.96,-212.864 2588.09,-215.941 2582.09,-207.213 2577.96,-212.864"/>
<text text-anchor="middle" x="2547.91" y="-127.91" font-family="Times,serif" font-size="14.00"> static(visible)</text>
</g>
<!-- n29&#45;&gt;n15 -->
<g id="edge47" class="edge"><title>n29&#45;&gt;n15</title>
<path fill="none" stroke="black" d="M2394.33,-30.2413C2515.4,-35.1428 2787.75,-47.971 3015.91,-71.7401 3135.43,-84.1905 3273.71,-105.715 3354.43,-119.001"/>
<polygon fill="black" stroke="black" points="3354.02,-122.482 3364.46,-120.659 3355.16,-115.575 3354.02,-122.482"/>
<text text-anchor="middle" x="3178.91" y="-75.5401" font-family="Times,serif" font-size="14.00"> static(visible)</text>
</g>
<!-- n29&#45;&gt;n29 -->
<g id="edge6" class="edge"><title>n29&#45;&gt;n29</title>
<path fill="none" stroke="black" d="M2390.72,-36.3053C2403.4,-35.3472 2412.55,-32.2021 2412.55,-26.8701 2412.55,-23.121 2408.03,-20.4531 2400.93,-18.8664"/>
<polygon fill="black" stroke="black" points="2401.11,-15.3569 2390.72,-17.4349 2400.14,-22.2891 2401.11,-15.3569"/>
<text text-anchor="middle" x="2469.05" y="-23.1701" font-family="Times,serif" font-size="14.00"> init(at_soil_sample)</text>
</g>
<!-- n30 -->
<g id="node30" class="node"><title>n30</title>
<ellipse fill="none" stroke="black" cx="5261.91" cy="-239.48" rx="67.7647" ry="26.7407"/>
<text text-anchor="middle" x="5261.91" y="-243.28" font-family="Times,serif" font-size="14.00">&lt;objective13&gt;</text>
<text text-anchor="middle" x="5261.91" y="-228.28" font-family="Times,serif" font-size="14.00">objective</text>
</g>
<!-- n30&#45;&gt;n15 -->
<g id="edge70" class="edge"><title>n30&#45;&gt;n15</title>
<path fill="none" stroke="black" d="M5215.73,-219.565C5204.21,-215.569 5191.76,-211.849 5179.91,-209.48 5108.33,-195.165 4921.29,-214.191 4851.91,-191.48 4840.32,-187.683 4840.56,-180.14 4828.91,-176.48 4701.76,-136.511 3768.93,-132.808 3497.07,-132.584"/>
<polygon fill="black" stroke="black" points="3496.92,-129.084 3486.92,-132.577 3496.91,-136.084 3496.92,-129.084"/>
<text text-anchor="middle" x="4907.91" y="-180.28" font-family="Times,serif" font-size="14.00"> static(visible_from)</text>
</g>
<!-- n30&#45;&gt;n29 -->
<g id="edge104" class="edge"><title>n30&#45;&gt;n29</title>
<path fill="none" stroke="black" d="M5309.73,-220.268C5336.49,-209.594 5365.23,-197.129 5368.91,-191.48 5372.56,-185.898 5373.51,-181.308 5368.91,-176.48 5342.49,-148.736 2865.33,-49.0867 2404.32,-30.7729"/>
<polygon fill="black" stroke="black" points="2404.26,-27.2678 2394.12,-30.3682 2403.98,-34.2623 2404.26,-27.2678"/>
<text text-anchor="middle" x="5243.91" y="-127.91" font-family="Times,serif" font-size="14.00"> static(visible_from)</text>
</g>
<!-- n31 -->
<g id="node31" class="node"><title>n31</title>
<ellipse fill="none" stroke="black" cx="2226.91" cy="-389.22" rx="67.7647" ry="26.7407"/>
<text text-anchor="middle" x="2226.91" y="-393.02" font-family="Times,serif" font-size="14.00">&lt;objective18&gt;</text>
<text text-anchor="middle" x="2226.91" y="-378.02" font-family="Times,serif" font-size="14.00">objective</text>
</g>
<!-- n31&#45;&gt;n1 -->
<g id="edge16" class="edge"><title>n31&#45;&gt;n1</title>
<path fill="none" stroke="black" d="M2243.81,-362.926C2261.43,-338.895 2291.41,-304.046 2326.91,-287.48 2413.41,-247.128 2447.77,-290.304 2540.91,-269.48 2548.93,-267.688 2557.24,-265.26 2565.31,-262.568"/>
<polygon fill="black" stroke="black" points="2566.72,-265.784 2575,-259.179 2564.4,-259.177 2566.72,-265.784"/>
<text text-anchor="middle" x="2382.91" y="-310.65" font-family="Times,serif" font-size="14.00"> static(visible_from)</text>
</g>
<!-- n31&#45;&gt;n12 -->
<g id="edge107" class="edge"><title>n31&#45;&gt;n12</title>
<path fill="none" stroke="black" d="M2175.15,-371.828C2157.77,-366.959 2138.16,-362.149 2119.91,-359.22 2083.11,-353.312 1815.47,-362.576 1784.91,-341.22 1763.62,-326.336 1783.28,-302.258 1761.91,-287.48 1724.32,-261.479 1396.3,-274.919 1350.91,-269.48 1322.06,-266.022 1290.39,-260.059 1263.86,-254.435"/>
<polygon fill="black" stroke="black" points="1264.47,-250.987 1253.96,-252.303 1263,-257.83 1264.47,-250.987"/>
<text text-anchor="middle" x="1876.91" y="-310.65" font-family="Times,serif" font-size="14.00"> end(communicated_image_data)</text>
</g>
<!-- n31&#45;&gt;n15 -->
<g id="edge82" class="edge"><title>n31&#45;&gt;n15</title>
<path fill="none" stroke="black" d="M2229.77,-362.359C2235.72,-322.207 2253.4,-245.728 2303.91,-209.48 2364.67,-165.878 2394.68,-185.557 2468.91,-176.48 2795.22,-136.58 3188.33,-132.17 3349.04,-132.21"/>
<polygon fill="black" stroke="black" points="3349.28,-135.71 3359.28,-132.218 3349.29,-128.71 3349.28,-135.71"/>
<text text-anchor="middle" x="2359.91" y="-235.78" font-family="Times,serif" font-size="14.00"> static(visible_from)</text>
</g>
<!-- n31&#45;&gt;n29 -->
<g id="edge53" class="edge"><title>n31&#45;&gt;n29</title>
<path fill="none" stroke="black" d="M2183.14,-368.668C2173.65,-365.046 2163.57,-361.646 2153.91,-359.22 2119.86,-350.663 2025.85,-361.116 1996.91,-341.22 1974.72,-325.962 1991.72,-301.811 1968.91,-287.48 1915.55,-253.94 1459.86,-294.283 1401.91,-269.48 1366.95,-254.516 1373.35,-229.339 1340.91,-209.48 1319.34,-196.269 1301.71,-212.003 1286.91,-191.48 1283.02,-186.072 1283.69,-182.316 1286.91,-176.48 1334.66,-90.0187 1386.47,-93.0194 1482.91,-71.7401 1629.43,-39.4159 2079.06,-30.7596 2257.16,-28.5695"/>
<polygon fill="black" stroke="black" points="2257.26,-32.0686 2267.22,-28.4491 2257.18,-25.0691 2257.26,-32.0686"/>
<text text-anchor="middle" x="1342.91" y="-180.28" font-family="Times,serif" font-size="14.00"> static(visible_from)</text>
</g>
<!-- n32 -->
<g id="node32" class="node"><title>n32</title>
<ellipse fill="none" stroke="black" cx="394.915" cy="-497.09" rx="56.6372" ry="26.7407"/>
<text text-anchor="middle" x="394.915" y="-500.89" font-family="Times,serif" font-size="14.00">&lt;camera4&gt;</text>
<text text-anchor="middle" x="394.915" y="-485.89" font-family="Times,serif" font-size="14.00">camera</text>
</g>
<!-- n32&#45;&gt;n9 -->
<g id="edge31" class="edge"><title>n32&#45;&gt;n9</title>
<path fill="none" stroke="black" d="M449.269,-489.595C502.195,-483.537 584.955,-474.771 656.915,-470.22 728.466,-465.695 1234.52,-476.676 1301.91,-452.22 1312.03,-448.55 1310.78,-440.817 1320.91,-437.22 1390.87,-412.404 2584.85,-437.013 2656.91,-419.22 2662.24,-417.906 2667.63,-416.02 2672.86,-413.832"/>
<polygon fill="black" stroke="black" points="2674.42,-416.966 2682.06,-409.625 2671.51,-410.6 2674.42,-416.966"/>
<text text-anchor="middle" x="1367.41" y="-441.02" font-family="Times,serif" font-size="14.00"> static(on_board)</text>
</g>
<!-- n32&#45;&gt;n12 -->
<g id="edge89" class="edge"><title>n32&#45;&gt;n12</title>
<path fill="none" stroke="black" d="M447.098,-486.677C512.96,-474.852 629.754,-454.069 729.915,-437.22 779.633,-428.857 800.159,-447.474 841.915,-419.22 867.671,-401.793 852.183,-376.684 877.915,-359.22 918.905,-331.4 947.779,-370.259 987.915,-341.22 1009.73,-325.433 994.767,-304.157 1015.91,-287.48 1050.35,-260.325 1098.46,-248.639 1137.39,-243.708"/>
<polygon fill="black" stroke="black" points="1138.05,-247.155 1147.59,-242.542 1137.26,-240.2 1138.05,-247.155"/>
<text text-anchor="middle" x="921.915" y="-385.52" font-family="Times,serif" font-size="14.00"> static(supports)</text>
</g>
<!-- n32&#45;&gt;n37 -->
<g id="edge13" class="edge"><title>n32&#45;&gt;n37</title>
<path fill="none" stroke="black" d="M338.582,-493.191C242.722,-486.95 54.3009,-468.568 13.9148,-419.22 -45.6827,-346.398 102.877,-285.005 188.475,-256.901"/>
<polygon fill="black" stroke="black" points="189.635,-260.204 198.076,-253.801 187.484,-253.543 189.635,-260.204"/>
<text text-anchor="middle" x="57.9148" y="-385.52" font-family="Times,serif" font-size="14.00"> static(supports)</text>
</g>
<!-- n32&#45;&gt;n39 -->
<g id="edge84" class="edge"><title>n32&#45;&gt;n39</title>
<path fill="none" stroke="black" d="M449.53,-489.713C502.474,-483.763 585.091,-475.095 656.915,-470.22 710.717,-466.569 1090.52,-468.542 1141.91,-452.22 1153.55,-448.526 1153.24,-440.79 1164.91,-437.22 1285.95,-400.197 2178.34,-435.066 2303.91,-419.22 2323.72,-416.722 2344.99,-412.249 2364.09,-407.553"/>
<polygon fill="black" stroke="black" points="2365.02,-410.928 2373.86,-405.086 2363.3,-404.141 2365.02,-410.928"/>
<text text-anchor="middle" x="1233.41" y="-441.02" font-family="Times,serif" font-size="14.00"> static(calibration_target)</text>
</g>
<!-- n33 -->
<g id="node33" class="node"><title>n33</title>
<ellipse fill="none" stroke="black" cx="3373.91" cy="-497.09" rx="56.6372" ry="26.7407"/>
<text text-anchor="middle" x="3373.91" y="-500.89" font-family="Times,serif" font-size="14.00">&lt;camera6&gt;</text>
<text text-anchor="middle" x="3373.91" y="-485.89" font-family="Times,serif" font-size="14.00">camera</text>
</g>
<!-- n33&#45;&gt;n9 -->
<g id="edge58" class="edge"><title>n33&#45;&gt;n9</title>
<path fill="none" stroke="black" d="M3373.94,-470.074C3372.5,-458.213 3368.56,-445.091 3358.91,-437.22 3326.6,-410.84 3025.5,-422.449 2983.91,-419.22 2910.17,-413.495 2825.41,-403.896 2770.83,-397.321"/>
<polygon fill="black" stroke="black" points="2771.01,-393.817 2760.66,-396.089 2770.17,-400.766 2771.01,-393.817"/>
<text text-anchor="middle" x="3416.41" y="-441.02" font-family="Times,serif" font-size="14.00"> static(on_board)</text>
</g>
<!-- n33&#45;&gt;n26 -->
<g id="edge97" class="edge"><title>n33&#45;&gt;n26</title>
<path fill="none" stroke="black" d="M3318.45,-491.549C3248.45,-485.935 3124.32,-476.371 3017.91,-470.22 2924.87,-464.842 2689.55,-473.901 2598.91,-452.22 2583.25,-448.473 2581.6,-440.883 2565.91,-437.22 2444.67,-408.91 2129.18,-436.801 2005.91,-419.22 1985.43,-416.298 1963.29,-411.088 1944.08,-405.882"/>
<polygon fill="black" stroke="black" points="1944.9,-402.478 1934.33,-403.172 1943.03,-409.222 1944.9,-402.478"/>
<text text-anchor="middle" x="2642.91" y="-441.02" font-family="Times,serif" font-size="14.00"> static(supports)</text>
</g>
<!-- n43 -->
<g id="node43" class="node"><title>n43</title>
<ellipse fill="none" stroke="black" cx="4126.91" cy="-389.22" rx="67.7647" ry="26.7407"/>
<text text-anchor="middle" x="4126.91" y="-393.02" font-family="Times,serif" font-size="14.00">&lt;objective17&gt;</text>
<text text-anchor="middle" x="4126.91" y="-378.02" font-family="Times,serif" font-size="14.00">objective</text>
</g>
<!-- n33&#45;&gt;n43 -->
<g id="edge48" class="edge"><title>n33&#45;&gt;n43</title>
<path fill="none" stroke="black" d="M3414.57,-478.245C3422.83,-475.164 3431.55,-472.292 3439.91,-470.22 3509.38,-453.016 3528.82,-460.401 3599.91,-452.22 3761.17,-433.664 3950.1,-411.281 4052.22,-399.129"/>
<polygon fill="black" stroke="black" points="4052.92,-402.571 4062.43,-397.914 4052.09,-395.62 4052.92,-402.571"/>
<text text-anchor="middle" x="3799.41" y="-441.02" font-family="Times,serif" font-size="14.00"> static(calibration_target)</text>
</g>
<!-- n34 -->
<g id="node34" class="node"><title>n34</title>
<ellipse fill="none" stroke="black" cx="4767.91" cy="-389.22" rx="67.7647" ry="26.7407"/>
<text text-anchor="middle" x="4767.91" y="-393.02" font-family="Times,serif" font-size="14.00">&lt;objective19&gt;</text>
<text text-anchor="middle" x="4767.91" y="-378.02" font-family="Times,serif" font-size="14.00">objective</text>
</g>
<!-- n34&#45;&gt;n1 -->
<g id="edge17" class="edge"><title>n34&#45;&gt;n1</title>
<path fill="none" stroke="black" d="M4700.99,-384.503C4614.64,-378.916 4460.03,-366.231 4329.91,-341.22 4242.89,-324.493 4225.62,-300.165 4137.91,-287.48 4000.11,-267.549 3023.89,-278.035 2884.91,-269.48 2818.27,-265.378 2742.61,-256.74 2689.06,-249.953"/>
<polygon fill="black" stroke="black" points="2689.36,-246.462 2678.99,-248.665 2688.47,-253.406 2689.36,-246.462"/>
<text text-anchor="middle" x="4385.91" y="-310.65" font-family="Times,serif" font-size="14.00"> static(visible_from)</text>
</g>
<!-- n34&#45;&gt;n15 -->
<g id="edge30" class="edge"><title>n34&#45;&gt;n15</title>
<path fill="none" stroke="black" d="M4771.77,-362.345C4775.98,-323.228 4777.37,-249.377 4735.91,-209.48 4690.99,-166.243 3766.74,-140.824 3496.51,-134.297"/>
<polygon fill="black" stroke="black" points="3496.49,-130.795 3486.41,-134.054 3496.32,-137.793 3496.49,-130.795"/>
<text text-anchor="middle" x="4823.91" y="-235.78" font-family="Times,serif" font-size="14.00"> static(visible_from)</text>
</g>
<!-- n34&#45;&gt;n29 -->
<g id="edge75" class="edge"><title>n34&#45;&gt;n29</title>
<path fill="none" stroke="black" d="M4819.58,-371.686C4837.26,-366.743 4857.28,-361.925 4875.91,-359.22 5181.7,-314.845 5265.75,-389.719 5570.91,-341.22 5681.29,-323.679 5737.43,-352.793 5811.91,-269.48 5836.32,-242.187 5836.71,-129.69 5809.91,-104.74 5737.24,-37.0608 5687.9,-79.7602 5588.91,-71.7401 5262.36,-45.2819 2858.67,-30.7833 2404.75,-28.2665"/>
<polygon fill="black" stroke="black" points="2404.73,-24.7664 2394.71,-28.211 2404.69,-31.7663 2404.73,-24.7664"/>
<text text-anchor="middle" x="5886.91" y="-180.28" font-family="Times,serif" font-size="14.00"> static(visible_from)</text>
</g>
<!-- n35 -->
<g id="node35" class="node"><title>n35</title>
<ellipse fill="none" stroke="black" cx="1601.91" cy="-389.22" rx="67.7647" ry="26.7407"/>
<text text-anchor="middle" x="1601.91" y="-393.02" font-family="Times,serif" font-size="14.00">&lt;objective14&gt;</text>
<text text-anchor="middle" x="1601.91" y="-378.02" font-family="Times,serif" font-size="14.00">objective</text>
</g>
<!-- n35&#45;&gt;n1 -->
<g id="edge46" class="edge"><title>n35&#45;&gt;n1</title>
<path fill="none" stroke="black" d="M1616.07,-362.563C1619.72,-355.69 1623.56,-348.222 1626.91,-341.22 1638.14,-317.789 1628.37,-302.006 1649.91,-287.48 1690.96,-259.799 2492.28,-278.737 2540.91,-269.48 2549.28,-267.888 2557.93,-265.492 2566.28,-262.747"/>
<polygon fill="black" stroke="black" points="2567.63,-265.983 2575.93,-259.39 2565.33,-259.372 2567.63,-265.983"/>
<text text-anchor="middle" x="1705.91" y="-310.65" font-family="Times,serif" font-size="14.00"> static(visible_from)</text>
</g>
<!-- n35&#45;&gt;n15 -->
<g id="edge38" class="edge"><title>n35&#45;&gt;n15</title>
<path fill="none" stroke="black" d="M1601.3,-362.246C1602.29,-338.766 1607.86,-305.243 1629.91,-287.48 1685.21,-242.944 1889.08,-307.711 1948.91,-269.48 1974.38,-253.207 1955.72,-226.176 1980.91,-209.48 2018.11,-184.828 2137.41,-201.404 2180.91,-191.48 2199.43,-187.258 2202.3,-180.208 2220.91,-176.48 2248.67,-170.923 3092.02,-143.298 3349.19,-134.982"/>
<polygon fill="black" stroke="black" points="3349.66,-138.469 3359.54,-134.648 3349.44,-131.473 3349.66,-138.469"/>
<text text-anchor="middle" x="2036.91" y="-235.78" font-family="Times,serif" font-size="14.00"> static(visible_from)</text>
</g>
<!-- n35&#45;&gt;n29 -->
<g id="edge7" class="edge"><title>n35&#45;&gt;n29</title>
<path fill="none" stroke="black" d="M1596.64,-362.414C1590.32,-338.71 1577.26,-304.728 1551.91,-287.48 1513.01,-261.002 1381.14,-293.903 1340.91,-269.48 1313.93,-253.098 1329.49,-226.51 1302.91,-209.48 1251.27,-176.388 1138.09,-229.505 1168.91,-176.48 1227,-76.5695 1292.95,-90.9491 1406.91,-71.7401 1569.9,-44.2675 2068.16,-32.6117 2257.16,-29.0987"/>
<polygon fill="black" stroke="black" points="2257.34,-32.5961 2267.28,-28.913 2257.21,-25.5972 2257.34,-32.5961"/>
<text text-anchor="middle" x="1224.91" y="-180.28" font-family="Times,serif" font-size="14.00"> static(visible_from)</text>
</g>
<!-- n35&#45;&gt;n37 -->
<g id="edge28" class="edge"><title>n35&#45;&gt;n37</title>
<path fill="none" stroke="black" d="M1557.43,-368.744C1546.95,-364.924 1535.69,-361.423 1524.91,-359.22 1342.73,-321.984 1287.53,-385.438 1106.91,-341.22 1052.12,-327.805 1046.73,-300.827 991.915,-287.48 895.97,-264.119 646.436,-276.171 547.915,-269.48 464.16,-263.792 367.714,-254.046 306.317,-247.438"/>
<polygon fill="black" stroke="black" points="306.341,-243.92 296.023,-246.324 305.588,-250.88 306.341,-243.92"/>
<text text-anchor="middle" x="1198.91" y="-310.65" font-family="Times,serif" font-size="14.00"> end(communicated_image_data)</text>
</g>
<!-- n36 -->
<g id="node36" class="node"><title>n36</title>
<ellipse fill="none" stroke="black" cx="5410.91" cy="-239.48" rx="62.8651" ry="26.7407"/>
<text text-anchor="middle" x="5410.91" y="-243.28" font-family="Times,serif" font-size="14.00">&lt;objective9&gt;</text>
<text text-anchor="middle" x="5410.91" y="-228.28" font-family="Times,serif" font-size="14.00">objective</text>
</g>
<!-- n36&#45;&gt;n15 -->
<g id="edge9" class="edge"><title>n36&#45;&gt;n15</title>
<path fill="none" stroke="black" d="M5369.4,-219.049C5359.6,-215.228 5349.05,-211.714 5338.91,-209.48 5262.43,-192.617 5061.4,-215.709 4986.91,-191.48 4975.31,-187.705 4975.56,-180.124 4963.91,-176.48 4823.41,-132.525 3786.04,-131.72 3497.31,-132.362"/>
<polygon fill="black" stroke="black" points="3496.94,-128.863 3486.95,-132.386 3496.96,-135.863 3496.94,-128.863"/>
<text text-anchor="middle" x="5042.91" y="-180.28" font-family="Times,serif" font-size="14.00"> static(visible_from)</text>
</g>
<!-- n36&#45;&gt;n29 -->
<g id="edge86" class="edge"><title>n36&#45;&gt;n29</title>
<path fill="none" stroke="black" d="M5403.05,-212.705C5398.77,-201.013 5392.73,-187.393 5384.91,-176.48 5356.91,-137.383 5348.66,-122.37 5303.91,-104.74 5165.02,-50.0134 2850.06,-31.427 2404.7,-28.3503"/>
<polygon fill="black" stroke="black" points="2404.56,-24.8493 2394.53,-28.2805 2404.51,-31.8491 2404.56,-24.8493"/>
<text text-anchor="middle" x="5427.91" y="-127.91" font-family="Times,serif" font-size="14.00"> static(visible_from)</text>
</g>
<!-- n38 -->
<g id="node38" class="node"><title>n38</title>
<ellipse fill="none" stroke="black" cx="1555.91" cy="-497.09" rx="56.6372" ry="26.7407"/>
<text text-anchor="middle" x="1555.91" y="-500.89" font-family="Times,serif" font-size="14.00">&lt;camera7&gt;</text>
<text text-anchor="middle" x="1555.91" y="-485.89" font-family="Times,serif" font-size="14.00">camera</text>
</g>
<!-- n38&#45;&gt;n9 -->
<g id="edge90" class="edge"><title>n38&#45;&gt;n9</title>
<path fill="none" stroke="black" d="M1612.73,-496.25C1744.55,-495.945 2067.6,-491.118 2167.91,-452.22 2177.95,-448.331 2176.82,-440.943 2186.91,-437.22 2284.98,-401.058 2555.76,-445.531 2656.91,-419.22 2662.22,-417.84 2667.6,-415.914 2672.83,-413.703"/>
<polygon fill="black" stroke="black" points="2674.4,-416.832 2682.02,-409.473 2671.48,-410.472 2674.4,-416.832"/>
<text text-anchor="middle" x="2233.41" y="-441.02" font-family="Times,serif" font-size="14.00"> static(on_board)</text>
</g>
<!-- n38&#45;&gt;n12 -->
<g id="edge83" class="edge"><title>n38&#45;&gt;n12</title>
<path fill="none" stroke="black" d="M1499.44,-494.489C1341.25,-489.729 903.879,-474.596 882.915,-452.22 878.357,-447.355 878.403,-442.128 882.915,-437.22 915.215,-402.089 1052.47,-436.608 1096.91,-419.22 1137.32,-403.413 1134.95,-378.291 1173.91,-359.22 1203.16,-344.911 1224.92,-366.913 1244.91,-341.22 1259.58,-322.37 1253.3,-309.845 1244.91,-287.48 1242.82,-281.894 1239.73,-276.536 1236.17,-271.566"/>
<polygon fill="black" stroke="black" points="1238.79,-269.237 1229.82,-263.596 1233.31,-273.599 1238.79,-269.237"/>
<text text-anchor="middle" x="1217.91" y="-385.52" font-family="Times,serif" font-size="14.00"> static(supports)</text>
</g>
<!-- n38&#45;&gt;n14 -->
<g id="edge35" class="edge"><title>n38&#45;&gt;n14</title>
<path fill="none" stroke="black" d="M1549.43,-470.225C1548.17,-458.83 1549.16,-446.053 1556.91,-437.22 1575,-416.629 1652.46,-426.39 1678.91,-419.22 1685.47,-417.444 1692.23,-415.243 1698.87,-412.854"/>
<polygon fill="black" stroke="black" points="1700.33,-416.042 1708.46,-409.246 1697.87,-409.49 1700.33,-416.042"/>
<text text-anchor="middle" x="1625.41" y="-441.02" font-family="Times,serif" font-size="14.00"> static(calibration_target)</text>
</g>
<!-- n38&#45;&gt;n26 -->
<g id="edge23" class="edge"><title>n38&#45;&gt;n26</title>
<path fill="none" stroke="black" d="M1612.04,-493.625C1664.51,-489.651 1744.14,-479.279 1807.91,-452.22 1826.93,-444.154 1845.72,-431.119 1860.79,-419.078"/>
<polygon fill="black" stroke="black" points="1863.25,-421.584 1868.75,-412.529 1858.81,-416.178 1863.25,-421.584"/>
<text text-anchor="middle" x="1879.91" y="-441.02" font-family="Times,serif" font-size="14.00"> static(supports)</text>
</g>
<!-- n38&#45;&gt;n37 -->
<g id="edge19" class="edge"><title>n38&#45;&gt;n37</title>
<path fill="none" stroke="black" d="M1499.43,-493.975C1271.29,-485.229 427.765,-450.867 380.915,-419.22 356.042,-402.419 373.671,-377.567 349.915,-359.22 321.071,-336.945 296.085,-366.584 269.915,-341.22 252.749,-324.583 246.383,-298.225 244.238,-276.642"/>
<polygon fill="black" stroke="black" points="247.716,-276.212 243.495,-266.494 240.735,-276.723 247.716,-276.212"/>
<text text-anchor="middle" x="424.915" y="-385.52" font-family="Times,serif" font-size="14.00"> static(supports)</text>
</g>
<!-- n39&#45;&gt;n1 -->
<g id="edge93" class="edge"><title>n39&#45;&gt;n1</title>
<path fill="none" stroke="black" d="M2432.78,-362.165C2440.98,-339.293 2456.03,-306.752 2479.91,-287.48 2501.91,-269.728 2514.1,-278.411 2540.91,-269.48 2548.24,-267.041 2555.91,-264.357 2563.45,-261.636"/>
<polygon fill="black" stroke="black" points="2564.71,-264.901 2572.91,-258.185 2562.31,-258.325 2564.71,-264.901"/>
<text text-anchor="middle" x="2535.91" y="-310.65" font-family="Times,serif" font-size="14.00"> static(visible_from)</text>
</g>
<!-- n39&#45;&gt;n15 -->
<g id="edge67" class="edge"><title>n39&#45;&gt;n15</title>
<path fill="none" stroke="black" d="M2422.37,-362.026C2418.68,-317.848 2414.28,-231.209 2433.91,-209.48 2494.93,-141.947 3129.56,-133.53 3348.86,-132.647"/>
<polygon fill="black" stroke="black" points="3349,-136.147 3358.98,-132.611 3348.97,-129.147 3349,-136.147"/>
<text text-anchor="middle" x="2489.91" y="-235.78" font-family="Times,serif" font-size="14.00"> static(visible_from)</text>
</g>
<!-- n39&#45;&gt;n29 -->
<g id="edge79" class="edge"><title>n39&#45;&gt;n29</title>
<path fill="none" stroke="black" d="M2365.76,-379.969C2336.94,-373.444 2303.33,-361.829 2278.91,-341.22 2258.33,-323.851 2273.79,-301.698 2250.91,-287.48 2212.03,-263.307 1463.28,-297.298 1426.91,-269.48 1398.21,-247.523 1409.08,-227.252 1403.91,-191.48 1393.15,-116.91 1454.11,-100.103 1523.91,-71.7401 1590.73,-44.5893 2070.81,-32.7521 2257.2,-29.1442"/>
<polygon fill="black" stroke="black" points="2257.52,-32.6388 2267.45,-28.9483 2257.38,-25.64 2257.52,-32.6388"/>
<text text-anchor="middle" x="1459.91" y="-180.28" font-family="Times,serif" font-size="14.00"> static(visible_from)</text>
</g>
<!-- n40 -->
<g id="node40" class="node"><title>n40</title>
<ellipse fill="none" stroke="black" cx="1452.91" cy="-389.22" rx="62.8651" ry="26.7407"/>
<text text-anchor="middle" x="1452.91" y="-393.02" font-family="Times,serif" font-size="14.00">&lt;objective3&gt;</text>
<text text-anchor="middle" x="1452.91" y="-378.02" font-family="Times,serif" font-size="14.00">objective</text>
</g>
<!-- n40&#45;&gt;n12 -->
<g id="edge8" class="edge"><title>n40&#45;&gt;n12</title>
<path fill="none" stroke="black" d="M1407.47,-370.597C1397.14,-366.731 1386.18,-362.744 1375.91,-359.22 1350.39,-350.46 1337.96,-359.293 1317.91,-341.22 1298.62,-323.824 1312.61,-306.503 1294.91,-287.48 1284.68,-276.478 1271.29,-267.619 1257.94,-260.686"/>
<polygon fill="black" stroke="black" points="1259.26,-257.438 1248.74,-256.191 1256.19,-263.727 1259.26,-257.438"/>
<text text-anchor="middle" x="1409.91" y="-310.65" font-family="Times,serif" font-size="14.00"> end(communicated_image_data)</text>
</g>
<!-- n40&#45;&gt;n15 -->
<g id="edge14" class="edge"><title>n40&#45;&gt;n15</title>
<path fill="none" stroke="black" d="M1496.87,-369.976C1519.7,-360.105 1544.89,-348.481 1554.91,-341.22 1581.34,-322.09 1575.62,-301.828 1604.91,-287.48 1645.19,-267.757 1769.38,-295.487 1805.91,-269.48 1829.74,-252.522 1808.81,-226.035 1832.91,-209.48 1862.54,-189.131 2121.31,-201.197 2155.91,-191.48 2169.51,-187.664 2170.28,-180.159 2183.91,-176.48 2212.16,-168.858 3086.52,-142.528 3349.08,-134.774"/>
<polygon fill="black" stroke="black" points="3349.38,-138.267 3359.27,-134.474 3349.17,-131.27 3349.38,-138.267"/>
<text text-anchor="middle" x="1888.91" y="-235.78" font-family="Times,serif" font-size="14.00"> static(visible_from)</text>
</g>
<!-- n40&#45;&gt;n29 -->
<g id="edge95" class="edge"><title>n40&#45;&gt;n29</title>
<path fill="none" stroke="black" d="M1486.25,-366.33C1494.17,-359.335 1501.58,-350.866 1505.91,-341.22 1515.71,-319.438 1522.04,-305.099 1505.91,-287.48 1475.34,-254.072 1340.84,-294.231 1302.91,-269.48 1277.43,-252.848 1295.46,-226.017 1269.91,-209.48 1228.36,-182.587 1081.47,-227.865 1047.91,-191.48 1043.4,-186.579 1044.53,-182.221 1047.91,-176.48 1108.53,-73.7967 1177.17,-90.5742 1294.91,-71.7401 1480.54,-42.0473 2052.81,-31.6043 2257.32,-28.7647"/>
<polygon fill="black" stroke="black" points="2257.41,-32.2639 2267.36,-28.6273 2257.31,-25.2645 2257.41,-32.2639"/>
<text text-anchor="middle" x="1103.91" y="-180.28" font-family="Times,serif" font-size="14.00"> static(visible_from)</text>
</g>
<!-- n41 -->
<g id="node41" class="node"><title>n41</title>
<ellipse fill="none" stroke="black" cx="2579.91" cy="-389.22" rx="67.7647" ry="26.7407"/>
<text text-anchor="middle" x="2579.91" y="-393.02" font-family="Times,serif" font-size="14.00">&lt;objective16&gt;</text>
<text text-anchor="middle" x="2579.91" y="-378.02" font-family="Times,serif" font-size="14.00">objective</text>
</g>
<!-- n41&#45;&gt;n1 -->
<g id="edge52" class="edge"><title>n41&#45;&gt;n1</title>
<path fill="none" stroke="black" d="M2589.2,-362.514C2591.54,-355.641 2593.94,-348.186 2595.91,-341.22 2601.97,-319.861 2607.55,-295.609 2611.69,-276.254"/>
<polygon fill="black" stroke="black" points="2615.14,-276.845 2613.78,-266.338 2608.29,-275.401 2615.14,-276.845"/>
<text text-anchor="middle" x="2664.91" y="-310.65" font-family="Times,serif" font-size="14.00"> static(visible_from)</text>
</g>
<!-- n41&#45;&gt;n12 -->
<g id="edge54" class="edge"><title>n41&#45;&gt;n12</title>
<path fill="none" stroke="black" d="M2533.61,-369.356C2521.83,-365.306 2509.06,-361.548 2496.91,-359.22 2404.73,-341.55 2165.53,-365.692 2074.91,-341.22 2025.45,-327.861 2022.45,-300.6 1972.91,-287.48 1855.56,-256.396 1547.91,-279.319 1426.91,-269.48 1372.94,-265.092 1312,-256.946 1267.48,-250.403"/>
<polygon fill="black" stroke="black" points="1267.79,-246.911 1257.38,-248.905 1266.76,-253.835 1267.79,-246.911"/>
<text text-anchor="middle" x="2166.91" y="-310.65" font-family="Times,serif" font-size="14.00"> end(communicated_image_data)</text>
</g>
<!-- n41&#45;&gt;n15 -->
<g id="edge51" class="edge"><title>n41&#45;&gt;n15</title>
<path fill="none" stroke="black" d="M2625.41,-369.256C2635.64,-365.506 2646.54,-361.906 2656.91,-359.22 2709.97,-345.483 2726.88,-358.451 2778.91,-341.22 2826.81,-325.358 2830.06,-300.105 2878.91,-287.48 2917.05,-277.624 4269.24,-297.511 4296.91,-269.48 4325.98,-240.041 4323.18,-204.689 4292.91,-176.48 4263.98,-149.513 3701.26,-137.323 3496.56,-133.768"/>
<polygon fill="black" stroke="black" points="3496.56,-130.268 3486.5,-133.595 3496.44,-137.267 3496.56,-130.268"/>
<text text-anchor="middle" x="4373.91" y="-235.78" font-family="Times,serif" font-size="14.00"> static(visible_from)</text>
</g>
<!-- n41&#45;&gt;n29 -->
<g id="edge101" class="edge"><title>n41&#45;&gt;n29</title>
<path fill="none" stroke="black" d="M2586.13,-362.205C2589.94,-339.034 2590.85,-306.012 2570.91,-287.48 2525.91,-245.637 1508.01,-313.286 1464.91,-269.48 1446.21,-250.471 1449.51,-231.249 1464.91,-209.48 1478.8,-189.858 1495.03,-203.386 1515.91,-191.48 1587.93,-150.422 1581.97,-102.575 1658.91,-71.7401 1713.27,-49.9567 2094.14,-35.3994 2257.16,-30.0998"/>
<polygon fill="black" stroke="black" points="2257.7,-33.5845 2267.58,-29.7641 2257.47,-26.5881 2257.7,-33.5845"/>
<text text-anchor="middle" x="1595.91" y="-180.28" font-family="Times,serif" font-size="14.00"> static(visible_from)</text>
</g>
<!-- n42 -->
<g id="node42" class="node"><title>n42</title>
<ellipse fill="none" stroke="black" cx="4952.91" cy="-389.22" rx="67.7647" ry="26.7407"/>
<text text-anchor="middle" x="4952.91" y="-393.02" font-family="Times,serif" font-size="14.00">&lt;objective23&gt;</text>
<text text-anchor="middle" x="4952.91" y="-378.02" font-family="Times,serif" font-size="14.00">objective</text>
</g>
<!-- n42&#45;&gt;n1 -->
<g id="edge96" class="edge"><title>n42&#45;&gt;n1</title>
<path fill="none" stroke="black" d="M4899.99,-372.364C4882.57,-367.589 4863.03,-362.698 4844.91,-359.22 4777.67,-346.308 4759.46,-352.428 4691.91,-341.22 4579.8,-322.618 4554.86,-300.143 4441.91,-287.48 4098.05,-248.927 3230.31,-290.256 2884.91,-269.48 2818.15,-265.465 2742.35,-256.794 2688.8,-249.973"/>
<polygon fill="black" stroke="black" points="2689.09,-246.483 2678.73,-248.68 2688.2,-253.426 2689.09,-246.483"/>
<text text-anchor="middle" x="4747.91" y="-310.65" font-family="Times,serif" font-size="14.00"> static(visible_from)</text>
</g>
<!-- n42&#45;&gt;n15 -->
<g id="edge99" class="edge"><title>n42&#45;&gt;n15</title>
<path fill="none" stroke="black" d="M4952.65,-362.113C4951.65,-341.256 4948.45,-311.623 4938.91,-287.48 4935.02,-277.617 4893.03,-214.899 4883.91,-209.48 4856.7,-193.303 4632.48,-178.905 4600.91,-176.48 4184.11,-144.468 3682.47,-135.611 3496.74,-133.339"/>
<polygon fill="black" stroke="black" points="3496.58,-129.837 3486.54,-133.217 3496.5,-136.836 3496.58,-129.837"/>
<text text-anchor="middle" x="4984.91" y="-235.78" font-family="Times,serif" font-size="14.00"> static(visible_from)</text>
</g>
<!-- n42&#45;&gt;n29 -->
<g id="edge63" class="edge"><title>n42&#45;&gt;n29</title>
<path fill="none" stroke="black" d="M5020.86,-387.512C5179.59,-385.281 5570.82,-376.287 5696.91,-341.22 5825.12,-305.568 6011.01,-293.092 5946.91,-176.48 5889.09,-71.2667 5817.03,-86.7724 5697.91,-71.7401 5361.45,-29.2783 2868.64,-27.7494 2405.02,-27.8351"/>
<polygon fill="black" stroke="black" points="2404.77,-24.3351 2394.77,-27.8374 2404.77,-31.3351 2404.77,-24.3351"/>
<text text-anchor="middle" x="6008.91" y="-180.28" font-family="Times,serif" font-size="14.00"> static(visible_from)</text>
</g>
<!-- n43&#45;&gt;n1 -->
<g id="edge85" class="edge"><title>n43&#45;&gt;n1</title>
<path fill="none" stroke="black" d="M4061.24,-382.251C3876.15,-365.362 3334.47,-315.473 2884.91,-269.48 2818.82,-262.718 2743.54,-254.459 2689.98,-248.487"/>
<polygon fill="black" stroke="black" points="2690.23,-244.993 2679.9,-247.362 2689.45,-251.95 2690.23,-244.993"/>
<text text-anchor="middle" x="3648.91" y="-310.65" font-family="Times,serif" font-size="14.00"> static(visible_from)</text>
</g>
<!-- n43&#45;&gt;n15 -->
<g id="edge98" class="edge"><title>n43&#45;&gt;n15</title>
<path fill="none" stroke="black" d="M4194.74,-386.509C4320.33,-382.635 4578.83,-371.088 4605.91,-341.22 4646.76,-296.166 4616.9,-246.839 4568.91,-209.48 4484.52,-143.781 3736.69,-134.212 3496.7,-132.836"/>
<polygon fill="black" stroke="black" points="3496.7,-129.336 3486.68,-132.782 3496.66,-136.336 3496.7,-129.336"/>
<text text-anchor="middle" x="4675.91" y="-235.78" font-family="Times,serif" font-size="14.00"> static(visible_from)</text>
</g>
<!-- n43&#45;&gt;n29 -->
<g id="edge78" class="edge"><title>n43&#45;&gt;n29</title>
<path fill="none" stroke="black" d="M4194.65,-386.219C4291.84,-382.373 4476.08,-371.44 4629.91,-341.22 4710.59,-325.373 4725.71,-300.297 4806.91,-287.48 4833.92,-283.218 5771.76,-288.987 5790.91,-269.48 5809.6,-250.452 5807.49,-230.373 5790.91,-209.48 5769.07,-181.946 5735.76,-219.015 5713.91,-191.48 5709.77,-186.257 5709.78,-181.709 5713.91,-176.48 5735.45,-149.253 5768.38,-185.707 5789.91,-158.48 5804.73,-139.746 5805.95,-122.44 5789.91,-104.74 5731.05,-39.7729 2901.33,-29.3677 2404.87,-28.0413"/>
<polygon fill="black" stroke="black" points="2404.62,-24.5407 2394.61,-28.0143 2404.6,-31.5407 2404.62,-24.5407"/>
<text text-anchor="middle" x="5769.91" y="-180.28" font-family="Times,serif" font-size="14.00"> static(visible_from)</text>
</g>
<!-- n44 -->
<g id="node44" class="node"><title>n44</title>
<ellipse fill="none" stroke="black" cx="769.915" cy="-389.22" rx="62.8651" ry="26.7407"/>
<text text-anchor="middle" x="769.915" y="-393.02" font-family="Times,serif" font-size="14.00">&lt;objective5&gt;</text>
<text text-anchor="middle" x="769.915" y="-378.02" font-family="Times,serif" font-size="14.00">objective</text>
</g>
<!-- n44&#45;&gt;n12 -->
<g id="edge81" class="edge"><title>n44&#45;&gt;n12</title>
<path fill="none" stroke="black" d="M777.041,-362.387C785.075,-334.151 797.81,-292.259 803.915,-287.48 841.841,-257.788 972.093,-275.234 1019.91,-269.48 1060.39,-264.611 1105.62,-257.506 1141.1,-251.547"/>
<polygon fill="black" stroke="black" points="1142.04,-254.938 1151.31,-249.819 1140.87,-248.037 1142.04,-254.938"/>
<text text-anchor="middle" x="895.915" y="-310.65" font-family="Times,serif" font-size="14.00"> end(communicated_image_data)</text>
</g>
<!-- n44&#45;&gt;n15 -->
<g id="edge37" class="edge"><title>n44&#45;&gt;n15</title>
<path fill="none" stroke="black" d="M766.423,-362.027C764.955,-339.695 766.654,-308.034 783.915,-287.48 856.588,-200.944 914.497,-228.347 1025.91,-209.48 1192.48,-181.276 1619.4,-219.969 1785.91,-191.48 1807.11,-187.854 1810.72,-180.107 1831.91,-176.48 1998.21,-148.026 2422.26,-163.102 2590.91,-158.48 2871.12,-150.801 3204.36,-139.907 3349.4,-135.078"/>
<polygon fill="black" stroke="black" points="3349.63,-138.572 3359.51,-134.741 3349.4,-131.576 3349.63,-138.572"/>
<text text-anchor="middle" x="1081.91" y="-235.78" font-family="Times,serif" font-size="14.00"> static(visible_from)</text>
</g>
<!-- n44&#45;&gt;n29 -->
<g id="edge22" class="edge"><title>n44&#45;&gt;n29</title>
<path fill="none" stroke="black" d="M765.302,-361.948C764.312,-355.213 763.414,-347.967 762.915,-341.22 758.449,-280.916 753.56,-251.634 796.915,-209.48 925.114,-84.8345 998.261,-99.3995 1174.91,-71.7401 1384.64,-38.9025 2036.25,-30.3828 2256.96,-28.4107"/>
<polygon fill="black" stroke="black" points="2257.17,-31.9091 2267.14,-28.3217 2257.11,-24.9094 2257.17,-31.9091"/>
<text text-anchor="middle" x="889.915" y="-180.28" font-family="Times,serif" font-size="14.00"> static(visible_from)</text>
</g>
</g>
</svg>
