<?xml version="1.0" encoding="UTF-8" standalone="no"?>
<!DOCTYPE svg PUBLIC "-//W3C//DTD SVG 1.1//EN"
 "http://www.w3.org/Graphics/SVG/1.1/DTD/svg11.dtd">
<!-- Generated by graphviz version 2.38.0 (20140413.2041)
 -->
<!-- Title: Struc Pages: 1 -->
<svg width="1176pt" height="511pt"
 viewBox="0.00 0.00 1175.81 510.96" xmlns="http://www.w3.org/2000/svg" xmlns:xlink="http://www.w3.org/1999/xlink">
<g id="graph0" class="graph" transform="scale(1 1) rotate(0) translate(4 506.96)">
<title>Struc</title>
<polygon fill="white" stroke="none" points="-4,4 -4,-506.96 1171.81,-506.96 1171.81,4 -4,4"/>
<!-- n1 -->
<g id="node1" class="node"><title>n1</title>
<ellipse fill="none" stroke="black" cx="917.175" cy="-359.35" rx="51.7379" ry="26.7407"/>
<text text-anchor="middle" x="917.175" y="-363.15" font-family="Times,serif" font-size="14.00">&lt;general&gt;</text>
<text text-anchor="middle" x="917.175" y="-348.15" font-family="Times,serif" font-size="14.00">lander</text>
</g>
<!-- n1&#45;&gt;n1 -->
<g id="edge1" class="edge"><title>n1&#45;&gt;n1</title>
<path fill="none" stroke="black" d="M965.007,-369.742C977.428,-369.103 986.794,-365.639 986.794,-359.35 986.794,-354.928 982.164,-351.903 975.097,-350.274"/>
<polygon fill="black" stroke="black" points="975.376,-346.781 965.007,-348.959 974.471,-353.723 975.376,-346.781"/>
<text text-anchor="middle" x="1037.29" y="-355.65" font-family="Times,serif" font-size="14.00"> init(channel_free)</text>
</g>
<!-- n9 -->
<g id="node9" class="node"><title>n9</title>
<ellipse fill="none" stroke="black" cx="917.175" cy="-246.61" rx="63.7795" ry="26.7407"/>
<text text-anchor="middle" x="917.175" y="-250.41" font-family="Times,serif" font-size="14.00">&lt;waypoint0&gt;</text>
<text text-anchor="middle" x="917.175" y="-235.41" font-family="Times,serif" font-size="14.00">waypoint</text>
</g>
<!-- n1&#45;&gt;n9 -->
<g id="edge7" class="edge"><title>n1&#45;&gt;n9</title>
<path fill="none" stroke="black" d="M917.175,-332.387C917.175,-317.913 917.175,-299.662 917.175,-283.806"/>
<polygon fill="black" stroke="black" points="920.675,-283.795 917.175,-273.795 913.675,-283.795 920.675,-283.795"/>
<text text-anchor="middle" x="963.175" y="-299.28" font-family="Times,serif" font-size="14.00"> static(at_lander)</text>
</g>
<!-- n2 -->
<g id="node2" class="node"><title>n2</title>
<ellipse fill="none" stroke="black" cx="596.175" cy="-359.35" rx="67.7712" ry="26.7574"/>
<ellipse fill="none" stroke="black" cx="596.175" cy="-359.35" rx="71.7647" ry="30.7407"/>
<text text-anchor="middle" x="596.175" y="-363.15" font-family="Times,serif" font-size="14.00">&lt;objective11&gt;</text>
<text text-anchor="middle" x="596.175" y="-348.15" font-family="Times,serif" font-size="14.00">objective</text>
</g>
<!-- n3 -->
<g id="node3" class="node"><title>n3</title>
<ellipse fill="none" stroke="black" cx="719.175" cy="-137.87" rx="63.7795" ry="26.7407"/>
<text text-anchor="middle" x="719.175" y="-141.67" font-family="Times,serif" font-size="14.00">&lt;waypoint1&gt;</text>
<text text-anchor="middle" x="719.175" y="-126.67" font-family="Times,serif" font-size="14.00">waypoint</text>
</g>
<!-- n2&#45;&gt;n3 -->
<g id="edge14" class="edge"><title>n2&#45;&gt;n3</title>
<path fill="none" stroke="black" stroke-dasharray="5,2" d="M621.942,-330.227C648.233,-299.874 688.077,-248.967 709.175,-197.74 712.14,-190.542 714.226,-182.501 715.693,-174.731"/>
<polygon fill="black" stroke="black" points="719.163,-175.195 717.288,-164.767 712.251,-174.088 719.163,-175.195"/>
<text text-anchor="middle" x="757.175" y="-242.91" font-family="Times,serif" font-size="14.00"> static(visible_from)</text>
</g>
<!-- n6 -->
<g id="node6" class="node"><title>n6</title>
<ellipse fill="none" stroke="black" cx="724.175" cy="-30" rx="63.7795" ry="26.7407"/>
<text text-anchor="middle" x="724.175" y="-33.8" font-family="Times,serif" font-size="14.00">&lt;waypoint2&gt;</text>
<text text-anchor="middle" x="724.175" y="-18.8" font-family="Times,serif" font-size="14.00">waypoint</text>
</g>
<!-- n2&#45;&gt;n6 -->
<g id="edge11" class="edge"><title>n2&#45;&gt;n6</title>
<path fill="none" stroke="black" stroke-dasharray="5,2" d="M590.076,-328.342C584.094,-292.722 577.892,-231.954 593.175,-182.74 609.929,-128.793 626.663,-119.326 665.175,-78 671.015,-71.7338 677.722,-65.6015 684.472,-59.9437"/>
<polygon fill="black" stroke="black" points="686.805,-62.5582 692.366,-53.5404 682.395,-57.1218 686.805,-62.5582"/>
<text text-anchor="middle" x="649.175" y="-186.54" font-family="Times,serif" font-size="14.00"> static(visible_from)</text>
</g>
<!-- n7 -->
<g id="node7" class="node"><title>n7</title>
<ellipse fill="none" stroke="black" cx="381.175" cy="-246.61" rx="56.6326" ry="26.7574"/>
<ellipse fill="none" stroke="black" cx="381.175" cy="-246.61" rx="60.6372" ry="30.7407"/>
<text text-anchor="middle" x="381.175" y="-250.41" font-family="Times,serif" font-size="14.00">&lt;high_res&gt;</text>
<text text-anchor="middle" x="381.175" y="-235.41" font-family="Times,serif" font-size="14.00">mode</text>
</g>
<!-- n2&#45;&gt;n7 -->
<g id="edge10" class="edge"><title>n2&#45;&gt;n7</title>
<path fill="none" stroke="black" stroke-dasharray="5,2" d="M532.743,-344.641C476.726,-332.283 403.156,-315.329 398.175,-310.48 391.828,-304.301 387.773,-296.016 385.203,-287.493"/>
<polygon fill="black" stroke="black" points="388.542,-286.405 382.818,-277.489 381.732,-288.028 388.542,-286.405"/>
<text text-anchor="middle" x="490.175" y="-299.28" font-family="Times,serif" font-size="14.00"> end(communicated_image_data)</text>
</g>
<!-- n2&#45;&gt;n9 -->
<g id="edge18" class="edge"><title>n2&#45;&gt;n9</title>
<path fill="none" stroke="black" d="M652.885,-340.266C702.29,-324.324 775.75,-300.166 839.175,-277.48 846.567,-274.836 854.321,-271.975 861.954,-269.106"/>
<polygon fill="black" stroke="black" points="863.407,-272.298 871.52,-265.484 860.929,-265.751 863.407,-272.298"/>
<text text-anchor="middle" x="843.175" y="-299.28" font-family="Times,serif" font-size="14.00"> static(visible_from)</text>
</g>
<!-- n3&#45;&gt;n3 -->
<g id="edge2" class="edge"><title>n3&#45;&gt;n3</title>
<path fill="none" stroke="black" d="M778.98,-147.305C791.659,-146.347 800.815,-143.202 800.815,-137.87 800.815,-134.121 796.288,-131.453 789.193,-129.866"/>
<polygon fill="black" stroke="black" points="789.369,-126.357 778.98,-128.435 788.397,-133.289 789.369,-126.357"/>
<text text-anchor="middle" x="857.315" y="-134.17" font-family="Times,serif" font-size="14.00"> init(at_soil_sample)</text>
</g>
<!-- n3&#45;&gt;n6 -->
<g id="edge8" class="edge"><title>n3&#45;&gt;n6</title>
<path fill="none" stroke="black" d="M742.448,-112.58C746.845,-106.61 750.804,-99.929 753.175,-93 756.435,-83.4713 754.359,-73.4566 750.121,-64.3221"/>
<polygon fill="black" stroke="black" points="753.171,-62.6034 745.281,-55.5314 747.038,-65.9796 753.171,-62.6034"/>
<text text-anchor="middle" x="794.175" y="-81.8" font-family="Times,serif" font-size="14.00"> static(visible)</text>
</g>
<!-- n3&#45;&gt;n9 -->
<g id="edge21" class="edge"><title>n3&#45;&gt;n9</title>
<path fill="none" stroke="black" d="M728.329,-164.627C733.79,-176.427 741.895,-189.572 753.175,-197.74 784.805,-220.642 801.711,-204.722 839.175,-215.74 846.988,-218.038 855.128,-220.765 863.074,-223.623"/>
<polygon fill="black" stroke="black" points="862.042,-226.973 872.636,-227.153 864.467,-220.406 862.042,-226.973"/>
<text text-anchor="middle" x="792.175" y="-186.54" font-family="Times,serif" font-size="14.00"> static(visible)</text>
</g>
<!-- n4 -->
<g id="node4" class="node"><title>n4</title>
<ellipse fill="none" stroke="black" cx="67.1751" cy="-472.09" rx="67.3507" ry="26.7407"/>
<text text-anchor="middle" x="67.1751" y="-475.89" font-family="Times,serif" font-size="14.00">&lt;rover0store&gt;</text>
<text text-anchor="middle" x="67.1751" y="-460.89" font-family="Times,serif" font-size="14.00">store</text>
</g>
<!-- n4&#45;&gt;n4 -->
<g id="edge3" class="edge"><title>n4&#45;&gt;n4</title>
<path fill="none" stroke="black" d="M129.57,-482.251C142.798,-481.22 152.35,-477.833 152.35,-472.09 152.35,-467.918 147.308,-464.99 139.476,-463.304"/>
<polygon fill="black" stroke="black" points="139.956,-459.837 129.57,-461.929 138.994,-466.771 139.956,-459.837"/>
<text text-anchor="middle" x="185.35" y="-468.39" font-family="Times,serif" font-size="14.00"> init(empty)</text>
</g>
<!-- n8 -->
<g id="node8" class="node"><title>n8</title>
<ellipse fill="none" stroke="black" cx="67.1751" cy="-359.35" rx="48.1667" ry="26.7407"/>
<text text-anchor="middle" x="67.1751" y="-363.15" font-family="Times,serif" font-size="14.00">&lt;rover0&gt;</text>
<text text-anchor="middle" x="67.1751" y="-348.15" font-family="Times,serif" font-size="14.00">rover</text>
</g>
<!-- n4&#45;&gt;n8 -->
<g id="edge15" class="edge"><title>n4&#45;&gt;n8</title>
<path fill="none" stroke="black" d="M67.1751,-445.127C67.1751,-430.653 67.1751,-412.403 67.1751,-396.546"/>
<polygon fill="black" stroke="black" points="70.6752,-396.535 67.1751,-386.535 63.6752,-396.535 70.6752,-396.535"/>
<text text-anchor="middle" x="110.175" y="-412.02" font-family="Times,serif" font-size="14.00"> static(store_of)</text>
</g>
<!-- n5 -->
<g id="node5" class="node"><title>n5</title>
<ellipse fill="none" stroke="black" cx="364.175" cy="-472.09" rx="56.6326" ry="26.7574"/>
<ellipse fill="none" stroke="black" cx="364.175" cy="-472.09" rx="60.6372" ry="30.7407"/>
<text text-anchor="middle" x="364.175" y="-475.89" font-family="Times,serif" font-size="14.00">&lt;camera5&gt;</text>
<text text-anchor="middle" x="364.175" y="-460.89" font-family="Times,serif" font-size="14.00">camera</text>
</g>
<!-- n5&#45;&gt;n2 -->
<g id="edge9" class="edge"><title>n5&#45;&gt;n2</title>
<path fill="none" stroke="black" stroke-dasharray="5,2" d="M407.54,-450.391C444.894,-432.561 499.062,-406.705 539.778,-387.27"/>
<polygon fill="black" stroke="black" points="541.517,-390.319 549.034,-382.852 538.501,-384.001 541.517,-390.319"/>
<text text-anchor="middle" x="562.675" y="-412.02" font-family="Times,serif" font-size="14.00"> static(calibration_target)</text>
</g>
<!-- n5&#45;&gt;n7 -->
<g id="edge17" class="edge"><title>n5&#45;&gt;n7</title>
<path fill="none" stroke="black" stroke-dasharray="5,2" d="M366.468,-440.951C369.48,-401.353 374.779,-331.696 378.126,-287.689"/>
<polygon fill="black" stroke="black" points="381.623,-287.865 378.892,-277.628 374.643,-287.334 381.623,-287.865"/>
<text text-anchor="middle" x="419.175" y="-355.65" font-family="Times,serif" font-size="14.00"> static(supports)</text>
</g>
<!-- n5&#45;&gt;n8 -->
<g id="edge20" class="edge"><title>n5&#45;&gt;n8</title>
<path fill="none" stroke="black" d="M316.127,-453.175C261.146,-432.675 171.581,-399.279 116.196,-378.628"/>
<polygon fill="black" stroke="black" points="117.197,-375.266 106.604,-375.052 114.751,-381.825 117.197,-375.266"/>
<text text-anchor="middle" x="280.675" y="-412.02" font-family="Times,serif" font-size="14.00"> static(on_board)</text>
</g>
<!-- n6&#45;&gt;n3 -->
<g id="edge22" class="edge"><title>n6&#45;&gt;n3</title>
<path fill="none" stroke="black" d="M690.84,-52.8906C682.918,-59.8851 675.514,-68.3542 671.175,-78 666.4,-88.6174 670.626,-98.9128 678.214,-107.846"/>
<polygon fill="black" stroke="black" points="675.747,-110.329 685.254,-115.006 680.739,-105.422 675.747,-110.329"/>
<text text-anchor="middle" x="710.175" y="-81.8" font-family="Times,serif" font-size="14.00"> static(visible)</text>
</g>
<!-- n6&#45;&gt;n6 -->
<g id="edge4" class="edge"><title>n6&#45;&gt;n6</title>
<path fill="none" stroke="black" d="M783.617,-39.8259C796.483,-38.8651 805.815,-35.5898 805.815,-30 805.815,-26.0696 801.202,-23.2836 793.99,-21.6418"/>
<polygon fill="black" stroke="black" points="794.008,-18.1096 783.617,-20.1741 793.028,-25.0406 794.008,-18.1096"/>
<text text-anchor="middle" x="890.815" y="-48.8" font-family="Times,serif" font-size="14.00"> end(communicated_soil_data)</text>
<text text-anchor="middle" x="890.815" y="-33.8" font-family="Times,serif" font-size="14.00">init(at_soil_sample)</text>
<text text-anchor="middle" x="890.815" y="-18.8" font-family="Times,serif" font-size="14.00">end(communicated_rock_data)</text>
<text text-anchor="middle" x="890.815" y="-3.8" font-family="Times,serif" font-size="14.00">init(at_rock_sample)</text>
</g>
<!-- n6&#45;&gt;n9 -->
<g id="edge19" class="edge"><title>n6&#45;&gt;n9</title>
<path fill="none" stroke="black" d="M784.649,-38.5337C862.822,-49.676 992.26,-73.3815 1020.18,-111 1034.41,-130.18 1030.62,-143.26 1020.18,-164.74 1008.78,-188.176 986.939,-206.838 966.291,-220.303"/>
<polygon fill="black" stroke="black" points="964.183,-217.493 957.549,-225.754 967.887,-223.433 964.183,-217.493"/>
<text text-anchor="middle" x="1069.18" y="-134.17" font-family="Times,serif" font-size="14.00"> static(visible)</text>
</g>
<!-- n8&#45;&gt;n6 -->
<g id="edge16" class="edge"><title>n8&#45;&gt;n6</title>
<path fill="none" stroke="black" d="M98.1522,-338.781C143.906,-310.216 232.625,-256.113 311.175,-215.74 437.047,-151.045 590.318,-85.9049 670.071,-52.9932"/>
<polygon fill="black" stroke="black" points="671.511,-56.1853 679.425,-49.1415 668.846,-49.7125 671.511,-56.1853"/>
<text text-anchor="middle" x="395.675" y="-186.54" font-family="Times,serif" font-size="14.00"> init(at)</text>
</g>
<!-- n8&#45;&gt;n8 -->
<g id="edge5" class="edge"><title>n8&#45;&gt;n8</title>
<path fill="none" stroke="black" d="M111.65,-369.786C123.898,-369.282 133.258,-365.803 133.258,-359.35 133.258,-354.813 128.631,-351.746 121.625,-350.15"/>
<polygon fill="black" stroke="black" points="122.004,-346.67 111.65,-348.914 121.144,-353.617 122.004,-346.67"/>
<text text-anchor="middle" x="230.758" y="-378.15" font-family="Times,serif" font-size="14.00"> static(equipped_for_rock_analysis)</text>
<text text-anchor="middle" x="230.758" y="-363.15" font-family="Times,serif" font-size="14.00">static(equipped_for_imaging)</text>
<text text-anchor="middle" x="230.758" y="-348.15" font-family="Times,serif" font-size="14.00">init(available)</text>
<text text-anchor="middle" x="230.758" y="-333.15" font-family="Times,serif" font-size="14.00">static(equipped_for_soil_analysis)</text>
</g>
<!-- n9&#45;&gt;n3 -->
<g id="edge13" class="edge"><title>n9&#45;&gt;n3</title>
<path fill="none" stroke="black" d="M888.683,-222.344C869.643,-207.077 846.148,-188.847 835.175,-182.74 817.712,-173.022 797.663,-164.583 779.198,-157.774"/>
<polygon fill="black" stroke="black" points="780.304,-154.452 769.709,-154.364 777.936,-161.04 780.304,-154.452"/>
<text text-anchor="middle" x="895.175" y="-186.54" font-family="Times,serif" font-size="14.00"> static(visible)</text>
</g>
<!-- n9&#45;&gt;n6 -->
<g id="edge12" class="edge"><title>n9&#45;&gt;n6</title>
<path fill="none" stroke="black" d="M929.47,-219.81C932.234,-212.807 934.765,-205.117 936.175,-197.74 941.758,-168.54 931.79,-121.568 923.175,-111 891.418,-72.0408 837.822,-51.9245 794.249,-41.6117"/>
<polygon fill="black" stroke="black" points="794.787,-38.1455 784.264,-39.3759 793.257,-44.9764 794.787,-38.1455"/>
<text text-anchor="middle" x="977.175" y="-134.17" font-family="Times,serif" font-size="14.00"> static(visible)</text>
</g>
<!-- n9&#45;&gt;n9 -->
<g id="edge6" class="edge"><title>n9&#45;&gt;n9</title>
<path fill="none" stroke="black" d="M976.251,-256.828C989.307,-255.868 998.815,-252.462 998.815,-246.61 998.815,-242.404 993.903,-239.462 986.292,-237.783"/>
<polygon fill="black" stroke="black" points="986.637,-234.298 976.251,-236.393 985.677,-241.231 986.637,-234.298"/>
<text text-anchor="middle" x="1083.31" y="-250.41" font-family="Times,serif" font-size="14.00"> end(communicated_soil_data)</text>
<text text-anchor="middle" x="1083.31" y="-235.41" font-family="Times,serif" font-size="14.00">init(at_soil_sample)</text>
</g>
</g>
</svg>
