<?xml version="1.0" encoding="UTF-8" standalone="no"?>
<!DOCTYPE svg PUBLIC "-//W3C//DTD SVG 1.1//EN"
 "http://www.w3.org/Graphics/SVG/1.1/DTD/svg11.dtd">
<!-- Generated by graphviz version 2.38.0 (20140413.2041)
 -->
<!-- Title: Struc Pages: 1 -->
<svg width="5459pt" height="675pt"
 viewBox="0.00 0.00 5459.00 675.44" xmlns="http://www.w3.org/2000/svg" xmlns:xlink="http://www.w3.org/1999/xlink">
<g id="graph0" class="graph" transform="scale(1 1) rotate(0) translate(4 671.441)">
<title>Struc</title>
<polygon fill="white" stroke="none" points="-4,4 -4,-671.441 5455,-671.441 5455,4 -4,4"/>
<!-- n1 -->
<g id="node1" class="node"><title>n1</title>
<ellipse fill="none" stroke="black" cx="2766" cy="-535.831" rx="56.6372" ry="26.7407"/>
<text text-anchor="middle" x="2766" y="-539.631" font-family="Times,serif" font-size="14.00">&lt;camera1&gt;</text>
<text text-anchor="middle" x="2766" y="-524.631" font-family="Times,serif" font-size="14.00">camera</text>
</g>
<!-- n25 -->
<g id="node25" class="node"><title>n25</title>
<ellipse fill="none" stroke="black" cx="2052" cy="-427.96" rx="48.1667" ry="26.7407"/>
<text text-anchor="middle" x="2052" y="-431.76" font-family="Times,serif" font-size="14.00">&lt;colour&gt;</text>
<text text-anchor="middle" x="2052" y="-416.76" font-family="Times,serif" font-size="14.00">mode</text>
</g>
<!-- n1&#45;&gt;n25 -->
<g id="edge28" class="edge"><title>n1&#45;&gt;n25</title>
<path fill="none" stroke="black" d="M2710.21,-531.19C2623.84,-525.666 2452.53,-515.156 2307,-508.96 2289.65,-508.222 1694.1,-503.417 1682,-490.96 1634.03,-441.59 1923.27,-474.854 1990,-457.96 1996.27,-456.372 2002.69,-454.147 2008.89,-451.627"/>
<polygon fill="black" stroke="black" points="2010.65,-454.677 2018.43,-447.476 2007.86,-448.259 2010.65,-454.677"/>
<text text-anchor="middle" x="1726" y="-479.76" font-family="Times,serif" font-size="14.00"> static(supports)</text>
</g>
<!-- n27 -->
<g id="node27" class="node"><title>n27</title>
<ellipse fill="none" stroke="black" cx="3064" cy="-427.96" rx="56.6372" ry="26.7407"/>
<text text-anchor="middle" x="3064" y="-431.76" font-family="Times,serif" font-size="14.00">&lt;high_res&gt;</text>
<text text-anchor="middle" x="3064" y="-416.76" font-family="Times,serif" font-size="14.00">mode</text>
</g>
<!-- n1&#45;&gt;n27 -->
<g id="edge102" class="edge"><title>n1&#45;&gt;n27</title>
<path fill="none" stroke="black" d="M2822.23,-532.128C2869.81,-527.975 2938.72,-517.474 2993,-490.96 3001.77,-486.679 3017.76,-472.939 3032.36,-459.479"/>
<polygon fill="black" stroke="black" points="3034.9,-461.899 3039.82,-452.517 3030.12,-456.782 3034.9,-461.899"/>
<text text-anchor="middle" x="3059" y="-479.76" font-family="Times,serif" font-size="14.00"> static(supports)</text>
</g>
<!-- n30 -->
<g id="node30" class="node"><title>n30</title>
<ellipse fill="none" stroke="black" cx="2868" cy="-427.96" rx="62.8651" ry="26.7407"/>
<text text-anchor="middle" x="2868" y="-431.76" font-family="Times,serif" font-size="14.00">&lt;objective4&gt;</text>
<text text-anchor="middle" x="2868" y="-416.76" font-family="Times,serif" font-size="14.00">objective</text>
</g>
<!-- n1&#45;&gt;n30 -->
<g id="edge69" class="edge"><title>n1&#45;&gt;n30</title>
<path fill="none" stroke="black" d="M2709.5,-532.976C2644.01,-529.498 2541.95,-519.521 2518,-490.96 2513.72,-485.852 2513.61,-480.978 2518,-475.96 2536.01,-455.375 2698.95,-440.652 2796.04,-433.62"/>
<polygon fill="black" stroke="black" points="2796.36,-437.106 2806.09,-432.903 2795.86,-430.124 2796.36,-437.106"/>
<text text-anchor="middle" x="2586.5" y="-479.76" font-family="Times,serif" font-size="14.00"> static(calibration_target)</text>
</g>
<!-- n39 -->
<g id="node39" class="node"><title>n39</title>
<ellipse fill="none" stroke="black" cx="3583" cy="-427.96" rx="48.1667" ry="26.7407"/>
<text text-anchor="middle" x="3583" y="-431.76" font-family="Times,serif" font-size="14.00">&lt;rover0&gt;</text>
<text text-anchor="middle" x="3583" y="-416.76" font-family="Times,serif" font-size="14.00">rover</text>
</g>
<!-- n1&#45;&gt;n39 -->
<g id="edge58" class="edge"><title>n1&#45;&gt;n39</title>
<path fill="none" stroke="black" d="M2821.66,-530.838C2899.7,-525.338 3046.11,-515.387 3171,-508.96 3196.6,-507.643 3614.23,-509.434 3632,-490.96 3642.73,-479.801 3634.48,-466.432 3621.9,-454.97"/>
<polygon fill="black" stroke="black" points="3624.02,-452.184 3614.1,-448.473 3619.54,-457.563 3624.02,-452.184"/>
<text text-anchor="middle" x="3683.5" y="-479.76" font-family="Times,serif" font-size="14.00"> static(on_board)</text>
</g>
<!-- n2 -->
<g id="node2" class="node"><title>n2</title>
<ellipse fill="none" stroke="black" cx="3590" cy="-535.831" rx="56.6372" ry="26.7407"/>
<text text-anchor="middle" x="3590" y="-539.631" font-family="Times,serif" font-size="14.00">&lt;camera4&gt;</text>
<text text-anchor="middle" x="3590" y="-524.631" font-family="Times,serif" font-size="14.00">camera</text>
</g>
<!-- n21 -->
<g id="node21" class="node"><title>n21</title>
<ellipse fill="none" stroke="black" cx="2172" cy="-427.96" rx="53.9813" ry="26.7407"/>
<text text-anchor="middle" x="2172" y="-431.76" font-family="Times,serif" font-size="14.00">&lt;low_res&gt;</text>
<text text-anchor="middle" x="2172" y="-416.76" font-family="Times,serif" font-size="14.00">mode</text>
</g>
<!-- n2&#45;&gt;n21 -->
<g id="edge97" class="edge"><title>n2&#45;&gt;n21</title>
<path fill="none" stroke="black" d="M3534.67,-529.857C3411.83,-518.786 3126.73,-492.926 3122,-490.96 3112.38,-486.962 3113.75,-479.607 3104,-475.96 3013.64,-442.183 2330.07,-479.303 2236,-457.96 2229.75,-456.544 2223.38,-454.488 2217.19,-452.116"/>
<polygon fill="black" stroke="black" points="2218.24,-448.763 2207.66,-448.173 2215.56,-455.231 2218.24,-448.763"/>
<text text-anchor="middle" x="3166" y="-479.76" font-family="Times,serif" font-size="14.00"> static(supports)</text>
</g>
<!-- n2&#45;&gt;n27 -->
<g id="edge16" class="edge"><title>n2&#45;&gt;n27</title>
<path fill="none" stroke="black" d="M3646.18,-532.51C3709.71,-528.005 3799.73,-514.775 3762,-475.96 3737.48,-450.733 3163.3,-465.777 3129,-457.96 3122.83,-456.555 3116.53,-454.552 3110.4,-452.247"/>
<polygon fill="black" stroke="black" points="3111.53,-448.927 3100.94,-448.419 3108.9,-455.416 3111.53,-448.927"/>
<text text-anchor="middle" x="3815" y="-479.76" font-family="Times,serif" font-size="14.00"> static(supports)</text>
</g>
<!-- n2&#45;&gt;n30 -->
<g id="edge32" class="edge"><title>n2&#45;&gt;n30</title>
<path fill="none" stroke="black" d="M3535.04,-529.2C3494.51,-523.49 3438.87,-512.316 3394,-490.96 3384.29,-486.337 3385.08,-479.73 3375,-475.96 3296.44,-446.571 3081.13,-469.132 2998,-457.96 2975.74,-454.969 2951.66,-450.074 2930.35,-445.149"/>
<polygon fill="black" stroke="black" points="2930.98,-441.703 2920.44,-442.815 2929.37,-448.516 2930.98,-441.703"/>
<text text-anchor="middle" x="3462.5" y="-479.76" font-family="Times,serif" font-size="14.00"> static(calibration_target)</text>
</g>
<!-- n2&#45;&gt;n39 -->
<g id="edge107" class="edge"><title>n2&#45;&gt;n39</title>
<path fill="none" stroke="black" d="M3646.8,-534.174C3773.37,-532.122 4069.84,-523.822 4100,-490.96 4104.51,-486.049 4104.54,-480.846 4100,-475.96 4081.65,-456.2 3884.85,-460.375 3858,-457.96 3782.6,-451.183 3695.75,-441.752 3640.16,-435.508"/>
<polygon fill="black" stroke="black" points="3640.49,-432.022 3630.16,-434.38 3639.7,-438.978 3640.49,-432.022"/>
<text text-anchor="middle" x="4150.5" y="-479.76" font-family="Times,serif" font-size="14.00"> static(on_board)</text>
</g>
<!-- n3 -->
<g id="node3" class="node"><title>n3</title>
<ellipse fill="none" stroke="black" cx="2468" cy="-427.96" rx="62.8651" ry="26.7407"/>
<text text-anchor="middle" x="2468" y="-431.76" font-family="Times,serif" font-size="14.00">&lt;objective8&gt;</text>
<text text-anchor="middle" x="2468" y="-416.76" font-family="Times,serif" font-size="14.00">objective</text>
</g>
<!-- n5 -->
<g id="node5" class="node"><title>n5</title>
<ellipse fill="none" stroke="black" cx="2829" cy="-281.35" rx="63.7795" ry="26.7407"/>
<text text-anchor="middle" x="2829" y="-285.15" font-family="Times,serif" font-size="14.00">&lt;waypoint1&gt;</text>
<text text-anchor="middle" x="2829" y="-270.15" font-family="Times,serif" font-size="14.00">waypoint</text>
</g>
<!-- n3&#45;&gt;n5 -->
<g id="edge12" class="edge"><title>n3&#45;&gt;n5</title>
<path fill="none" stroke="black" d="M2523.34,-415.14C2553.29,-407.485 2590.31,-395.932 2621,-379.96 2655.48,-362.015 2655.59,-344.298 2690,-326.22 2713.04,-314.118 2739.99,-304.66 2764.01,-297.675"/>
<polygon fill="black" stroke="black" points="2765.07,-301.011 2773.74,-294.928 2763.17,-294.274 2765.07,-301.011"/>
<text text-anchor="middle" x="2746" y="-349.39" font-family="Times,serif" font-size="14.00"> static(visible_from)</text>
</g>
<!-- n29 -->
<g id="node29" class="node"><title>n29</title>
<ellipse fill="none" stroke="black" cx="3025" cy="-26.8701" rx="63.7795" ry="26.7407"/>
<text text-anchor="middle" x="3025" y="-30.6701" font-family="Times,serif" font-size="14.00">&lt;waypoint0&gt;</text>
<text text-anchor="middle" x="3025" y="-15.6701" font-family="Times,serif" font-size="14.00">waypoint</text>
</g>
<!-- n3&#45;&gt;n29 -->
<g id="edge35" class="edge"><title>n3&#45;&gt;n29</title>
<path fill="none" stroke="black" d="M2461.24,-400.808C2447.79,-342.73 2423.64,-200.58 2481,-104.74 2495.84,-79.9516 2509.5,-80.5826 2537,-71.7401 2612.07,-47.6033 2834.37,-35.4174 2951.26,-30.532"/>
<polygon fill="black" stroke="black" points="2951.7,-34.0169 2961.55,-30.1095 2951.42,-27.0228 2951.7,-34.0169"/>
<text text-anchor="middle" x="2509" y="-205.91" font-family="Times,serif" font-size="14.00"> static(visible_from)</text>
</g>
<!-- n4 -->
<g id="node4" class="node"><title>n4</title>
<ellipse fill="none" stroke="black" cx="1324" cy="-427.96" rx="67.7647" ry="26.7407"/>
<text text-anchor="middle" x="1324" y="-431.76" font-family="Times,serif" font-size="14.00">&lt;objective25&gt;</text>
<text text-anchor="middle" x="1324" y="-416.76" font-family="Times,serif" font-size="14.00">objective</text>
</g>
<!-- n4&#45;&gt;n5 -->
<g id="edge67" class="edge"><title>n4&#45;&gt;n5</title>
<path fill="none" stroke="black" d="M1369.46,-407.866C1379.69,-404.123 1390.61,-400.559 1401,-397.96 1461.01,-382.961 1484.93,-410.005 1539,-379.96 1565.98,-364.966 1555.34,-339.923 1583,-326.22 1635.64,-300.145 2495.1,-286.745 2755.08,-283.275"/>
<polygon fill="black" stroke="black" points="2755.22,-286.774 2765.17,-283.141 2755.13,-279.774 2755.22,-286.774"/>
<text text-anchor="middle" x="1639" y="-349.39" font-family="Times,serif" font-size="14.00"> static(visible_from)</text>
</g>
<!-- n4&#45;&gt;n29 -->
<g id="edge92" class="edge"><title>n4&#45;&gt;n29</title>
<path fill="none" stroke="black" d="M1338.02,-401.239C1341.67,-394.366 1345.55,-386.915 1349,-379.96 1391.91,-293.485 1373.28,-252.502 1440,-182.74 1492.21,-128.153 1519.15,-128.061 1591,-104.74 1683.79,-74.6222 1710.87,-80.8456 1808,-71.7401 2239.74,-31.2657 2760.85,-27.4861 2951,-27.5832"/>
<polygon fill="black" stroke="black" points="2951.16,-31.0832 2961.16,-27.5922 2951.16,-24.0832 2951.16,-31.0832"/>
<text text-anchor="middle" x="1496" y="-205.91" font-family="Times,serif" font-size="14.00"> static(visible_from)</text>
</g>
<!-- n5&#45;&gt;n5 -->
<g id="edge1" class="edge"><title>n5&#45;&gt;n5</title>
<path fill="none" stroke="black" d="M2884.71,-294.36C2899.46,-293.617 2910.64,-289.28 2910.64,-281.35 2910.64,-275.341 2904.22,-271.395 2894.69,-269.513"/>
<polygon fill="black" stroke="black" points="2895.05,-266.031 2884.71,-268.341 2894.23,-272.983 2895.05,-266.031"/>
<text text-anchor="middle" x="2967.14" y="-277.65" font-family="Times,serif" font-size="14.00"> init(at_soil_sample)</text>
</g>
<!-- n7 -->
<g id="node7" class="node"><title>n7</title>
<ellipse fill="none" stroke="black" cx="3850" cy="-134.74" rx="63.7795" ry="26.7407"/>
<text text-anchor="middle" x="3850" y="-138.54" font-family="Times,serif" font-size="14.00">&lt;waypoint2&gt;</text>
<text text-anchor="middle" x="3850" y="-123.54" font-family="Times,serif" font-size="14.00">waypoint</text>
</g>
<!-- n5&#45;&gt;n7 -->
<g id="edge77" class="edge"><title>n5&#45;&gt;n7</title>
<path fill="none" stroke="black" d="M2892.81,-280.402C3063.55,-280.013 3521.72,-275.322 3577,-236.48 3598.26,-221.544 3579.74,-198.998 3600,-182.74 3626.89,-161.164 3713.99,-148.423 3777.84,-141.766"/>
<polygon fill="black" stroke="black" points="3778.28,-145.239 3787.88,-140.749 3777.57,-138.275 3778.28,-145.239"/>
<text text-anchor="middle" x="3639" y="-205.91" font-family="Times,serif" font-size="14.00"> static(visible)</text>
</g>
<!-- n5&#45;&gt;n29 -->
<g id="edge14" class="edge"><title>n5&#45;&gt;n29</title>
<path fill="none" stroke="black" d="M2873.38,-261.866C2912.48,-243.212 2967.77,-210.596 2998,-164.74 3017.83,-134.663 3023.73,-93.3342 3025.19,-63.9806"/>
<polygon fill="black" stroke="black" points="3028.7,-63.8669 3025.55,-53.7509 3021.7,-63.6228 3028.7,-63.8669"/>
<text text-anchor="middle" x="3060" y="-131.04" font-family="Times,serif" font-size="14.00"> static(visible)</text>
</g>
<!-- n6 -->
<g id="node6" class="node"><title>n6</title>
<ellipse fill="none" stroke="black" cx="4572" cy="-427.96" rx="67.7647" ry="26.7407"/>
<text text-anchor="middle" x="4572" y="-431.76" font-family="Times,serif" font-size="14.00">&lt;objective19&gt;</text>
<text text-anchor="middle" x="4572" y="-416.76" font-family="Times,serif" font-size="14.00">objective</text>
</g>
<!-- n6&#45;&gt;n5 -->
<g id="edge23" class="edge"><title>n6&#45;&gt;n5</title>
<path fill="none" stroke="black" d="M4526.29,-407.946C4514.65,-403.9 4502.03,-400.181 4490,-397.96 4411.96,-383.553 3851.08,-405.668 3776,-379.96 3737.88,-366.909 3740.95,-339.746 3703,-326.22 3665.6,-312.889 3106.23,-292.068 2902.5,-284.886"/>
<polygon fill="black" stroke="black" points="2902.61,-281.388 2892.49,-284.534 2902.36,-288.384 2902.61,-281.388"/>
<text text-anchor="middle" x="3832" y="-349.39" font-family="Times,serif" font-size="14.00"> static(visible_from)</text>
</g>
<!-- n6&#45;&gt;n7 -->
<g id="edge22" class="edge"><title>n6&#45;&gt;n7</title>
<path fill="none" stroke="black" d="M4574.94,-400.923C4575.96,-378.064 4573.38,-345.53 4554,-326.22 4521.08,-293.423 4484.62,-340.307 4451,-308.22 4409.67,-268.767 4466.54,-219.745 4423,-182.74 4396.54,-160.252 4145.6,-167.658 4111,-164.74 4046.37,-159.289 3972.97,-150.94 3920.5,-144.598"/>
<polygon fill="black" stroke="black" points="3920.65,-141.09 3910.3,-143.358 3919.8,-148.039 3920.65,-141.09"/>
<text text-anchor="middle" x="4507" y="-277.65" font-family="Times,serif" font-size="14.00"> static(visible_from)</text>
</g>
<!-- n6&#45;&gt;n29 -->
<g id="edge82" class="edge"><title>n6&#45;&gt;n29</title>
<path fill="none" stroke="black" d="M4619.86,-408.751C4699.67,-378.169 4851.94,-318.783 4859,-308.22 4872.27,-288.364 4873.97,-273.092 4859,-254.48 4835.62,-225.405 4813.16,-245.682 4777,-236.48 4522.27,-171.658 4468.5,-113.529 4209,-71.7401 3993.74,-37.0766 3323.08,-29.7389 3098.85,-28.2405"/>
<polygon fill="black" stroke="black" points="3098.86,-24.7406 3088.84,-28.1755 3098.81,-31.7404 3098.86,-24.7406"/>
<text text-anchor="middle" x="4833" y="-205.91" font-family="Times,serif" font-size="14.00"> static(visible_from)</text>
</g>
<!-- n7&#45;&gt;n5 -->
<g id="edge111" class="edge"><title>n7&#45;&gt;n5</title>
<path fill="none" stroke="black" d="M3786.21,-136.39C3696.31,-138.581 3538.46,-147.501 3495,-182.74 3475.32,-198.695 3496.18,-221.162 3476,-236.48 3431.25,-270.452 3062.9,-278.118 2902.82,-279.847"/>
<polygon fill="black" stroke="black" points="2902.54,-276.35 2892.58,-279.953 2902.62,-283.349 2902.54,-276.35"/>
<text text-anchor="middle" x="3534" y="-205.91" font-family="Times,serif" font-size="14.00"> static(visible)</text>
</g>
<!-- n7&#45;&gt;n7 -->
<g id="edge2" class="edge"><title>n7&#45;&gt;n7</title>
<path fill="none" stroke="black" d="M3909.44,-144.566C3922.31,-143.605 3931.64,-140.33 3931.64,-134.74 3931.64,-130.81 3927.03,-128.024 3919.81,-126.382"/>
<polygon fill="black" stroke="black" points="3919.83,-122.85 3909.44,-124.914 3918.85,-129.781 3919.83,-122.85"/>
<text text-anchor="middle" x="4016.64" y="-153.54" font-family="Times,serif" font-size="14.00"> end(communicated_soil_data)</text>
<text text-anchor="middle" x="4016.64" y="-138.54" font-family="Times,serif" font-size="14.00">init(at_soil_sample)</text>
<text text-anchor="middle" x="4016.64" y="-123.54" font-family="Times,serif" font-size="14.00">end(communicated_rock_data)</text>
<text text-anchor="middle" x="4016.64" y="-108.54" font-family="Times,serif" font-size="14.00">init(at_rock_sample)</text>
</g>
<!-- n7&#45;&gt;n29 -->
<g id="edge87" class="edge"><title>n7&#45;&gt;n29</title>
<path fill="none" stroke="black" d="M3845.74,-107.625C3842.19,-94.6508 3835.73,-80.0149 3824,-71.7401 3765.64,-30.5804 3285.6,-27.2375 3098.89,-27.516"/>
<polygon fill="black" stroke="black" points="3098.62,-24.0165 3088.62,-27.5355 3098.63,-31.0164 3098.62,-24.0165"/>
<text text-anchor="middle" x="3877" y="-75.5401" font-family="Times,serif" font-size="14.00"> static(visible)</text>
</g>
<!-- n8 -->
<g id="node8" class="node"><title>n8</title>
<ellipse fill="none" stroke="black" cx="463" cy="-353.09" rx="62.8651" ry="26.7407"/>
<text text-anchor="middle" x="463" y="-356.89" font-family="Times,serif" font-size="14.00">&lt;objective9&gt;</text>
<text text-anchor="middle" x="463" y="-341.89" font-family="Times,serif" font-size="14.00">objective</text>
</g>
<!-- n8&#45;&gt;n29 -->
<g id="edge106" class="edge"><title>n8&#45;&gt;n29</title>
<path fill="none" stroke="black" d="M470.749,-326.387C490.617,-266.013 549.868,-116.854 662,-71.7401 770.54,-28.0717 2561.79,-27.3932 2950.83,-27.7638"/>
<polygon fill="black" stroke="black" points="2951.11,-31.264 2961.11,-27.7741 2951.12,-24.264 2951.11,-31.264"/>
<text text-anchor="middle" x="594" y="-205.91" font-family="Times,serif" font-size="14.00"> static(visible_from)</text>
</g>
<!-- n9 -->
<g id="node9" class="node"><title>n9</title>
<ellipse fill="none" stroke="black" cx="1236" cy="-134.74" rx="62.8651" ry="26.7407"/>
<text text-anchor="middle" x="1236" y="-138.54" font-family="Times,serif" font-size="14.00">&lt;objective7&gt;</text>
<text text-anchor="middle" x="1236" y="-123.54" font-family="Times,serif" font-size="14.00">objective</text>
</g>
<!-- n9&#45;&gt;n29 -->
<g id="edge19" class="edge"><title>n9&#45;&gt;n29</title>
<path fill="none" stroke="black" d="M1224.12,-108.351C1220.14,-95.7415 1218.75,-81.2163 1228,-71.7401 1258.57,-40.4125 2616.59,-30.2966 2951.13,-28.2778"/>
<polygon fill="black" stroke="black" points="2951.21,-31.7775 2961.19,-28.2177 2951.17,-24.7776 2951.21,-31.7775"/>
<text text-anchor="middle" x="1284" y="-75.5401" font-family="Times,serif" font-size="14.00"> static(visible_from)</text>
</g>
<!-- n10 -->
<g id="node10" class="node"><title>n10</title>
<ellipse fill="none" stroke="black" cx="5289" cy="-535.831" rx="67.7647" ry="26.7407"/>
<text text-anchor="middle" x="5289" y="-539.631" font-family="Times,serif" font-size="14.00">&lt;objective15&gt;</text>
<text text-anchor="middle" x="5289" y="-524.631" font-family="Times,serif" font-size="14.00">objective</text>
</g>
<!-- n10&#45;&gt;n5 -->
<g id="edge71" class="edge"><title>n10&#45;&gt;n5</title>
<path fill="none" stroke="black" d="M5269.63,-509.894C5258.18,-497.205 5242.51,-483.004 5225,-475.96 5138.19,-441.032 4470.86,-490.165 4383,-457.96 4343.25,-443.389 4342.64,-423.674 4309,-397.96 4298.12,-389.646 4294.27,-389.016 4284,-379.96 4259.53,-358.382 4263.73,-339.662 4234,-326.22 4201.39,-311.473 3625.77,-309.328 3590,-308.22 3337.76,-300.408 3038.54,-289.861 2902.67,-285.003"/>
<polygon fill="black" stroke="black" points="2902.5,-281.495 2892.39,-284.635 2902.25,-288.49 2902.5,-281.495"/>
<text text-anchor="middle" x="4439" y="-424.26" font-family="Times,serif" font-size="14.00"> static(visible_from)</text>
</g>
<!-- n10&#45;&gt;n7 -->
<g id="edge75" class="edge"><title>n10&#45;&gt;n7</title>
<path fill="none" stroke="black" d="M5275.91,-509.192C5269.58,-498.235 5261.33,-485.744 5252,-475.96 5210.13,-432.067 5190.31,-431.848 5140,-397.96 5030.91,-324.483 4980.39,-333.878 4892,-236.48 4873.9,-216.537 4886.86,-196.982 4864,-182.74 4828.48,-160.612 4152.75,-167.553 4111,-164.74 4046.18,-160.372 3972.65,-151.882 3920.2,-145.211"/>
<polygon fill="black" stroke="black" points="3920.36,-141.703 3909.99,-143.903 3919.47,-148.647 3920.36,-141.703"/>
<text text-anchor="middle" x="5168" y="-349.39" font-family="Times,serif" font-size="14.00"> static(visible_from)</text>
</g>
<!-- n10&#45;&gt;n27 -->
<g id="edge38" class="edge"><title>n10&#45;&gt;n27</title>
<path fill="none" stroke="black" d="M5238.95,-517.463C5228.18,-514.227 5216.79,-511.173 5206,-508.96 5188.38,-505.35 4901.95,-476.97 4884,-475.96 4786.65,-470.484 3224.26,-478.758 3129,-457.96 3122.82,-456.611 3116.51,-454.642 3110.38,-452.355"/>
<polygon fill="black" stroke="black" points="3111.5,-449.034 3100.92,-448.543 3108.88,-455.527 3111.5,-449.034"/>
<text text-anchor="middle" x="5129" y="-479.76" font-family="Times,serif" font-size="14.00"> end(communicated_image_data)</text>
</g>
<!-- n10&#45;&gt;n29 -->
<g id="edge90" class="edge"><title>n10&#45;&gt;n29</title>
<path fill="none" stroke="black" d="M5308.47,-509.846C5322.51,-489.314 5339,-458.841 5339,-428.96 5339,-428.96 5339,-428.96 5339,-133.74 5339,-31.7258 5218.91,-86.706 5118,-71.7401 4915.41,-41.6937 3446.91,-30.5474 3098.84,-28.3125"/>
<polygon fill="black" stroke="black" points="3098.65,-24.8114 3088.63,-28.2475 3098.61,-31.8112 3098.65,-24.8114"/>
<text text-anchor="middle" x="5395" y="-277.65" font-family="Times,serif" font-size="14.00"> static(visible_from)</text>
</g>
<!-- n11 -->
<g id="node11" class="node"><title>n11</title>
<ellipse fill="none" stroke="black" cx="858" cy="-427.96" rx="67.7647" ry="26.7407"/>
<text text-anchor="middle" x="858" y="-431.76" font-family="Times,serif" font-size="14.00">&lt;objective27&gt;</text>
<text text-anchor="middle" x="858" y="-416.76" font-family="Times,serif" font-size="14.00">objective</text>
</g>
<!-- n11&#45;&gt;n5 -->
<g id="edge91" class="edge"><title>n11&#45;&gt;n5</title>
<path fill="none" stroke="black" d="M889.093,-403.961C924.343,-379.391 984.534,-341.874 1043,-326.22 1209.82,-281.556 2438.2,-281.402 2754.76,-282.117"/>
<polygon fill="black" stroke="black" points="2755.18,-285.618 2765.19,-282.142 2755.2,-278.618 2755.18,-285.618"/>
<text text-anchor="middle" x="1099" y="-349.39" font-family="Times,serif" font-size="14.00"> static(visible_from)</text>
</g>
<!-- n11&#45;&gt;n29 -->
<g id="edge27" class="edge"><title>n11&#45;&gt;n29</title>
<path fill="none" stroke="black" d="M807.443,-409.669C794.248,-402.595 781.607,-392.934 774,-379.96 761.919,-359.357 766.427,-348.873 774,-326.22 835.434,-142.449 936.826,-103.341 1128,-71.7401 1309.81,-41.6868 2623.05,-30.6545 2950.96,-28.3523"/>
<polygon fill="black" stroke="black" points="2951.31,-31.85 2961.29,-28.2803 2951.27,-24.8501 2951.31,-31.85"/>
<text text-anchor="middle" x="909" y="-205.91" font-family="Times,serif" font-size="14.00"> static(visible_from)</text>
</g>
<!-- n12 -->
<g id="node12" class="node"><title>n12</title>
<ellipse fill="none" stroke="black" cx="1459" cy="-535.831" rx="56.6372" ry="26.7407"/>
<text text-anchor="middle" x="1459" y="-539.631" font-family="Times,serif" font-size="14.00">&lt;camera8&gt;</text>
<text text-anchor="middle" x="1459" y="-524.631" font-family="Times,serif" font-size="14.00">camera</text>
</g>
<!-- n19 -->
<g id="node19" class="node"><title>n19</title>
<ellipse fill="none" stroke="black" cx="846" cy="-353.09" rx="62.8651" ry="26.7407"/>
<text text-anchor="middle" x="846" y="-356.89" font-family="Times,serif" font-size="14.00">&lt;objective1&gt;</text>
<text text-anchor="middle" x="846" y="-341.89" font-family="Times,serif" font-size="14.00">objective</text>
</g>
<!-- n12&#45;&gt;n19 -->
<g id="edge96" class="edge"><title>n12&#45;&gt;n19</title>
<path fill="none" stroke="black" d="M1403.22,-530.897C1328.35,-525.66 1191.18,-516.213 1074,-508.96 1056.34,-507.867 768.154,-503.821 756,-490.96 737.252,-471.121 713.995,-487.276 781,-397.96 785.883,-391.452 792.029,-385.591 798.581,-380.43"/>
<polygon fill="black" stroke="black" points="801.013,-382.989 807.035,-374.272 796.891,-377.331 801.013,-382.989"/>
<text text-anchor="middle" x="824.5" y="-479.76" font-family="Times,serif" font-size="14.00"> static(calibration_target)</text>
</g>
<!-- n12&#45;&gt;n21 -->
<g id="edge54" class="edge"><title>n12&#45;&gt;n21</title>
<path fill="none" stroke="black" d="M1459.8,-508.957C1461.61,-496.978 1465.99,-483.713 1476,-475.96 1503.81,-454.417 2074.74,-465.978 2109,-457.96 2115.08,-456.538 2121.28,-454.502 2127.3,-452.16"/>
<polygon fill="black" stroke="black" points="2128.71,-455.365 2136.58,-448.271 2126,-448.909 2128.71,-455.365"/>
<text text-anchor="middle" x="1520" y="-479.76" font-family="Times,serif" font-size="14.00"> static(supports)</text>
</g>
<!-- n12&#45;&gt;n25 -->
<g id="edge15" class="edge"><title>n12&#45;&gt;n25</title>
<path fill="none" stroke="black" d="M1402.62,-533.267C1297.87,-529.385 1087.32,-516.476 1127,-475.96 1143.78,-458.83 1966.65,-463.408 1990,-457.96 1996.53,-456.437 2003.2,-454.176 2009.62,-451.576"/>
<polygon fill="black" stroke="black" points="2011.04,-454.774 2018.81,-447.572 2008.24,-448.357 2011.04,-454.774"/>
<text text-anchor="middle" x="1171" y="-479.76" font-family="Times,serif" font-size="14.00"> static(supports)</text>
</g>
<!-- n12&#45;&gt;n27 -->
<g id="edge49" class="edge"><title>n12&#45;&gt;n27</title>
<path fill="none" stroke="black" d="M1515.14,-532.269C1614.01,-527.218 1814.96,-514.376 1881,-490.96 1892.5,-486.882 1892.33,-479.539 1904,-475.96 2014.07,-442.198 2825.75,-472.149 2940,-457.96 2961.97,-455.233 2985.72,-450.203 3006.5,-445.089"/>
<polygon fill="black" stroke="black" points="3007.6,-448.421 3016.44,-442.582 3005.88,-441.634 3007.6,-448.421"/>
<text text-anchor="middle" x="1948" y="-479.76" font-family="Times,serif" font-size="14.00"> static(supports)</text>
</g>
<!-- n12&#45;&gt;n39 -->
<g id="edge56" class="edge"><title>n12&#45;&gt;n39</title>
<path fill="none" stroke="black" d="M1515.44,-533.187C1702.46,-527.595 2294.84,-508.67 2379,-490.96 2397.17,-487.136 2399.77,-479.511 2418,-475.96 2529.81,-454.184 3329.79,-470.568 3443,-457.96 3471.96,-454.735 3503.81,-448.368 3529.8,-442.419"/>
<polygon fill="black" stroke="black" points="3530.88,-445.762 3539.82,-440.081 3529.29,-438.945 3530.88,-445.762"/>
<text text-anchor="middle" x="2464.5" y="-479.76" font-family="Times,serif" font-size="14.00"> static(on_board)</text>
</g>
<!-- n13 -->
<g id="node13" class="node"><title>n13</title>
<ellipse fill="none" stroke="black" cx="4609" cy="-535.831" rx="56.6372" ry="26.7407"/>
<text text-anchor="middle" x="4609" y="-539.631" font-family="Times,serif" font-size="14.00">&lt;camera3&gt;</text>
<text text-anchor="middle" x="4609" y="-524.631" font-family="Times,serif" font-size="14.00">camera</text>
</g>
<!-- n13&#45;&gt;n27 -->
<g id="edge13" class="edge"><title>n13&#45;&gt;n27</title>
<path fill="none" stroke="black" d="M4562.58,-520.316C4546.42,-515.868 4528.06,-511.485 4511,-508.96 4400.36,-492.585 4116.87,-516.59 4008,-490.96 3992.32,-487.269 3990.71,-479.538 3975,-475.96 3791.65,-434.199 3312.49,-499.082 3129,-457.96 3122.83,-456.577 3116.53,-454.588 3110.39,-452.29"/>
<polygon fill="black" stroke="black" points="3111.52,-448.97 3100.93,-448.467 3108.89,-455.46 3111.52,-448.97"/>
<text text-anchor="middle" x="4052" y="-479.76" font-family="Times,serif" font-size="14.00"> static(supports)</text>
</g>
<!-- n13&#45;&gt;n39 -->
<g id="edge76" class="edge"><title>n13&#45;&gt;n39</title>
<path fill="none" stroke="black" d="M4653.62,-519.297C4678.77,-508.254 4702.18,-492.498 4686,-475.96 4669.91,-459.517 3880.96,-459.418 3858,-457.96 3782.23,-453.15 3695.12,-443.215 3639.6,-436.323"/>
<polygon fill="black" stroke="black" points="3639.97,-432.842 3629.61,-435.073 3639.1,-439.788 3639.97,-432.842"/>
<text text-anchor="middle" x="4738.5" y="-479.76" font-family="Times,serif" font-size="14.00"> static(on_board)</text>
</g>
<!-- n43 -->
<g id="node43" class="node"><title>n43</title>
<ellipse fill="none" stroke="black" cx="5121" cy="-209.61" rx="67.7647" ry="26.7407"/>
<text text-anchor="middle" x="5121" y="-213.41" font-family="Times,serif" font-size="14.00">&lt;objective20&gt;</text>
<text text-anchor="middle" x="5121" y="-198.41" font-family="Times,serif" font-size="14.00">objective</text>
</g>
<!-- n13&#45;&gt;n43 -->
<g id="edge51" class="edge"><title>n13&#45;&gt;n43</title>
<path fill="none" stroke="black" d="M4649.26,-516.944C4657.63,-513.826 4666.49,-510.95 4675,-508.96 4800.72,-479.558 4869.36,-548.92 4961,-457.96 5031.06,-388.423 4985.3,-329.025 5050,-254.48 5055.73,-247.874 5062.71,-241.943 5070.03,-236.737"/>
<polygon fill="black" stroke="black" points="5072.33,-239.412 5078.72,-230.962 5068.45,-233.582 5072.33,-239.412"/>
<text text-anchor="middle" x="5067.5" y="-424.26" font-family="Times,serif" font-size="14.00"> static(calibration_target)</text>
</g>
<!-- n14 -->
<g id="node14" class="node"><title>n14</title>
<ellipse fill="none" stroke="black" cx="4751" cy="-535.831" rx="67.3507" ry="26.7407"/>
<text text-anchor="middle" x="4751" y="-539.631" font-family="Times,serif" font-size="14.00">&lt;rover0store&gt;</text>
<text text-anchor="middle" x="4751" y="-524.631" font-family="Times,serif" font-size="14.00">store</text>
</g>
<!-- n14&#45;&gt;n14 -->
<g id="edge3" class="edge"><title>n14&#45;&gt;n14</title>
<path fill="none" stroke="black" d="M4814.15,-545.209C4826.98,-544.187 4836.18,-541.061 4836.18,-535.831 4836.18,-532.153 4831.63,-529.516 4824.47,-527.919"/>
<polygon fill="black" stroke="black" points="4824.54,-524.393 4814.15,-526.452 4823.55,-531.324 4824.54,-524.393"/>
<text text-anchor="middle" x="4869.18" y="-532.131" font-family="Times,serif" font-size="14.00"> init(empty)</text>
</g>
<!-- n14&#45;&gt;n39 -->
<g id="edge89" class="edge"><title>n14&#45;&gt;n39</title>
<path fill="none" stroke="black" d="M4780.43,-511.463C4791.51,-499.969 4799.22,-486.382 4789,-475.96 4770.89,-457.495 3883.82,-459.568 3858,-457.96 3782.22,-453.241 3695.11,-443.284 3639.6,-436.363"/>
<polygon fill="black" stroke="black" points="3639.97,-432.882 3629.61,-435.108 3639.09,-439.827 3639.97,-432.882"/>
<text text-anchor="middle" x="4837" y="-479.76" font-family="Times,serif" font-size="14.00"> static(store_of)</text>
</g>
<!-- n15 -->
<g id="node15" class="node"><title>n15</title>
<ellipse fill="none" stroke="black" cx="239" cy="-535.831" rx="67.7647" ry="26.7407"/>
<text text-anchor="middle" x="239" y="-539.631" font-family="Times,serif" font-size="14.00">&lt;objective18&gt;</text>
<text text-anchor="middle" x="239" y="-524.631" font-family="Times,serif" font-size="14.00">objective</text>
</g>
<!-- n15&#45;&gt;n5 -->
<g id="edge73" class="edge"><title>n15&#45;&gt;n5</title>
<path fill="none" stroke="black" d="M233.058,-508.949C231.999,-497.267 233.367,-484.257 242,-475.96 274.046,-445.161 1802.81,-478.929 1842,-457.96 1870.48,-442.723 1855.34,-414.632 1883,-397.96 1913.27,-379.719 2005.98,-384.689 2041,-379.96 2194.35,-359.256 2231.5,-345.778 2385,-326.22 2515.64,-309.576 2668.59,-295.69 2756.6,-288.24"/>
<polygon fill="black" stroke="black" points="2757.07,-291.712 2766.74,-287.385 2756.48,-284.737 2757.07,-291.712"/>
<text text-anchor="middle" x="1941" y="-424.26" font-family="Times,serif" font-size="14.00"> static(visible_from)</text>
</g>
<!-- n15&#45;&gt;n7 -->
<g id="edge55" class="edge"><title>n15&#45;&gt;n7</title>
<path fill="none" stroke="black" d="M227.885,-509.07C224.902,-497.963 224.147,-485.388 231,-475.96 312.322,-364.094 397.399,-428.241 527,-379.96 738.131,-301.307 773.337,-228.241 994,-182.74 1131.77,-154.331 3385.49,-171.516 3526,-164.74 3613.28,-160.531 3713.41,-150.817 3778.97,-143.789"/>
<polygon fill="black" stroke="black" points="3779.63,-147.239 3789.19,-142.685 3778.88,-140.279 3779.63,-147.239"/>
<text text-anchor="middle" x="706" y="-349.39" font-family="Times,serif" font-size="14.00"> static(visible_from)</text>
</g>
<!-- n15&#45;&gt;n25 -->
<g id="edge61" class="edge"><title>n15&#45;&gt;n25</title>
<path fill="none" stroke="black" d="M240.198,-508.841C242.21,-496.835 246.816,-483.578 257,-475.96 295.55,-447.125 1943.06,-468.652 1990,-457.96 1996.54,-456.471 2003.21,-454.229 2009.63,-451.638"/>
<polygon fill="black" stroke="black" points="2011.05,-454.838 2018.83,-447.64 2008.26,-448.419 2011.05,-454.838"/>
<text text-anchor="middle" x="349" y="-479.76" font-family="Times,serif" font-size="14.00"> end(communicated_image_data)</text>
</g>
<!-- n15&#45;&gt;n29 -->
<g id="edge94" class="edge"><title>n15&#45;&gt;n29</title>
<path fill="none" stroke="black" d="M203.296,-512.781C177.801,-494.007 148,-464.468 148,-428.96 148,-428.96 148,-428.96 148,-133.74 148,-25.9669 521.516,-79.6274 629,-71.7401 1096.88,-37.4065 2599.91,-29.5188 2951.12,-28.1275"/>
<polygon fill="black" stroke="black" points="2951.18,-31.6273 2961.17,-28.0882 2951.16,-24.6274 2951.18,-31.6273"/>
<text text-anchor="middle" x="204" y="-277.65" font-family="Times,serif" font-size="14.00"> static(visible_from)</text>
</g>
<!-- n16 -->
<g id="node16" class="node"><title>n16</title>
<ellipse fill="none" stroke="black" cx="1170" cy="-427.96" rx="67.7647" ry="26.7407"/>
<text text-anchor="middle" x="1170" y="-431.76" font-family="Times,serif" font-size="14.00">&lt;objective12&gt;</text>
<text text-anchor="middle" x="1170" y="-416.76" font-family="Times,serif" font-size="14.00">objective</text>
</g>
<!-- n16&#45;&gt;n5 -->
<g id="edge9" class="edge"><title>n16&#45;&gt;n5</title>
<path fill="none" stroke="black" d="M1215.96,-408.065C1226.07,-404.355 1236.81,-400.754 1247,-397.96 1291.4,-385.796 1306.63,-397.946 1349,-379.96 1386.42,-364.08 1384.54,-339.378 1423,-326.22 1549.19,-283.048 2483.73,-281.611 2755.24,-282.118"/>
<polygon fill="black" stroke="black" points="2755.37,-285.618 2765.38,-282.139 2755.38,-278.618 2755.37,-285.618"/>
<text text-anchor="middle" x="1479" y="-349.39" font-family="Times,serif" font-size="14.00"> static(visible_from)</text>
</g>
<!-- n16&#45;&gt;n29 -->
<g id="edge24" class="edge"><title>n16&#45;&gt;n29</title>
<path fill="none" stroke="black" d="M1166.49,-400.852C1163.73,-380.505 1159.74,-351.55 1156,-326.22 1141.63,-228.775 1104.5,-183.239 1164,-104.74 1180.99,-82.3247 1191.02,-79.6862 1218,-71.7401 1302.27,-46.9232 2621.89,-31.9539 2951.06,-28.5941"/>
<polygon fill="black" stroke="black" points="2951.46,-32.0902 2961.43,-28.4887 2951.39,-25.0906 2951.46,-32.0902"/>
<text text-anchor="middle" x="1193" y="-205.91" font-family="Times,serif" font-size="14.00"> static(visible_from)</text>
</g>
<!-- n17 -->
<g id="node17" class="node"><title>n17</title>
<ellipse fill="none" stroke="black" cx="615" cy="-640.571" rx="56.6372" ry="26.7407"/>
<text text-anchor="middle" x="615" y="-644.371" font-family="Times,serif" font-size="14.00">&lt;camera6&gt;</text>
<text text-anchor="middle" x="615" y="-629.371" font-family="Times,serif" font-size="14.00">camera</text>
</g>
<!-- n17&#45;&gt;n15 -->
<g id="edge36" class="edge"><title>n17&#45;&gt;n15</title>
<path fill="none" stroke="black" d="M566.614,-626.349C499.608,-608.04 378.392,-574.919 303.678,-554.503"/>
<polygon fill="black" stroke="black" points="304.474,-551.093 293.905,-551.833 302.629,-557.845 304.474,-551.093"/>
<text text-anchor="middle" x="518.5" y="-584.501" font-family="Times,serif" font-size="14.00"> static(calibration_target)</text>
</g>
<!-- n17&#45;&gt;n25 -->
<g id="edge44" class="edge"><title>n17&#45;&gt;n25</title>
<path fill="none" stroke="black" d="M610.296,-613.499C605.31,-576.537 602.821,-509.656 642,-475.96 670.392,-451.542 1953.5,-466.331 1990,-457.96 1996.54,-456.461 2003.2,-454.214 2009.63,-451.621"/>
<polygon fill="black" stroke="black" points="2011.05,-454.82 2018.82,-447.621 2008.26,-448.401 2011.05,-454.82"/>
<text text-anchor="middle" x="663" y="-532.131" font-family="Times,serif" font-size="14.00"> static(supports)</text>
</g>
<!-- n17&#45;&gt;n39 -->
<g id="edge30" class="edge"><title>n17&#45;&gt;n39</title>
<path fill="none" stroke="black" d="M671.783,-639.655C1173.53,-640.267 4833.1,-642.006 4911,-562.701 4939.29,-533.896 4920.33,-493.567 4884,-475.96 4832.2,-450.859 3905.45,-461.595 3848,-457.96 3775.75,-453.389 3692.86,-443.577 3639.3,-436.636"/>
<polygon fill="black" stroke="black" points="3639.69,-433.157 3629.32,-435.332 3638.78,-440.098 3639.69,-433.157"/>
<text text-anchor="middle" x="4971.5" y="-532.131" font-family="Times,serif" font-size="14.00"> static(on_board)</text>
</g>
<!-- n18 -->
<g id="node18" class="node"><title>n18</title>
<ellipse fill="none" stroke="black" cx="3237" cy="-535.831" rx="56.6372" ry="26.7407"/>
<text text-anchor="middle" x="3237" y="-539.631" font-family="Times,serif" font-size="14.00">&lt;camera7&gt;</text>
<text text-anchor="middle" x="3237" y="-524.631" font-family="Times,serif" font-size="14.00">camera</text>
</g>
<!-- n18&#45;&gt;n3 -->
<g id="edge103" class="edge"><title>n18&#45;&gt;n3</title>
<path fill="none" stroke="black" d="M3233.87,-508.851C3231,-496.846 3225.51,-483.589 3215,-475.96 3196.15,-462.271 2819.25,-459.487 2796,-457.96 2707.33,-452.139 2605.42,-442.696 2539.03,-436.175"/>
<polygon fill="black" stroke="black" points="2538.99,-432.654 2528.69,-435.155 2538.3,-439.62 2538.99,-432.654"/>
<text text-anchor="middle" x="3295.5" y="-479.76" font-family="Times,serif" font-size="14.00"> static(calibration_target)</text>
</g>
<!-- n18&#45;&gt;n21 -->
<g id="edge95" class="edge"><title>n18&#45;&gt;n21</title>
<path fill="none" stroke="black" d="M3181.15,-531.359C3043.5,-522.685 2697.37,-500.105 2674,-490.96 2663.98,-487.04 2665.09,-479.706 2655,-475.96 2567.63,-443.513 2326.65,-479.587 2236,-457.96 2229.85,-456.493 2223.56,-454.43 2217.45,-452.074"/>
<polygon fill="black" stroke="black" points="2218.61,-448.766 2208.03,-448.173 2215.93,-455.233 2218.61,-448.766"/>
<text text-anchor="middle" x="2718" y="-479.76" font-family="Times,serif" font-size="14.00"> static(supports)</text>
</g>
<!-- n18&#45;&gt;n25 -->
<g id="edge93" class="edge"><title>n18&#45;&gt;n25</title>
<path fill="none" stroke="black" d="M3181.36,-530.455C3103.34,-524.507 2956.96,-514.031 2832,-508.96 2803.16,-507.79 1813.23,-511.547 1793,-490.96 1788.33,-486.206 1788.51,-480.884 1793,-475.96 1822.64,-443.493 1947.57,-469.445 1990,-457.96 1996.25,-456.27 2002.64,-453.985 2008.84,-451.437"/>
<polygon fill="black" stroke="black" points="2010.61,-454.481 2018.37,-447.262 2007.81,-448.07 2010.61,-454.481"/>
<text text-anchor="middle" x="1837" y="-479.76" font-family="Times,serif" font-size="14.00"> static(supports)</text>
</g>
<!-- n18&#45;&gt;n27 -->
<g id="edge60" class="edge"><title>n18&#45;&gt;n27</title>
<path fill="none" stroke="black" d="M3293.11,-532.328C3388.71,-527.055 3569.63,-512.162 3535,-475.96 3503.79,-443.331 3172.95,-468.342 3129,-457.96 3122.84,-456.506 3116.55,-454.474 3110.42,-452.153"/>
<polygon fill="black" stroke="black" points="3111.55,-448.834 3100.97,-448.311 3108.92,-455.319 3111.55,-448.834"/>
<text text-anchor="middle" x="3584" y="-479.76" font-family="Times,serif" font-size="14.00"> static(supports)</text>
</g>
<!-- n18&#45;&gt;n39 -->
<g id="edge104" class="edge"><title>n18&#45;&gt;n39</title>
<path fill="none" stroke="black" d="M3291.97,-529.244C3349.7,-523.525 3443.16,-514.687 3524,-508.96 3543.37,-507.589 3859.63,-505.038 3873,-490.96 3906.28,-455.923 3734.83,-438.933 3641,-432.362"/>
<polygon fill="black" stroke="black" points="3641,-428.855 3630.79,-431.667 3640.53,-435.838 3641,-428.855"/>
<text text-anchor="middle" x="3924.5" y="-479.76" font-family="Times,serif" font-size="14.00"> static(on_board)</text>
</g>
<!-- n19&#45;&gt;n29 -->
<g id="edge109" class="edge"><title>n19&#45;&gt;n29</title>
<path fill="none" stroke="black" d="M894.534,-335.977C904.889,-332.657 915.784,-329.251 926,-326.22 1072.54,-282.75 1142.6,-336.715 1258,-236.48 1277.61,-219.443 1264.39,-202.718 1281,-182.74 1290.22,-171.65 1296.85,-173.884 1308,-164.74 1353.21,-127.681 1347.3,-94.8367 1401,-71.7401 1472.93,-40.8003 2642.45,-30.5251 2950.9,-28.3465"/>
<polygon fill="black" stroke="black" points="2951.1,-31.8453 2961.08,-28.2754 2951.05,-24.8454 2951.1,-31.8453"/>
<text text-anchor="middle" x="1338" y="-205.91" font-family="Times,serif" font-size="14.00"> static(visible_from)</text>
</g>
<!-- n20 -->
<g id="node20" class="node"><title>n20</title>
<ellipse fill="none" stroke="black" cx="1627" cy="-427.96" rx="62.8651" ry="26.7407"/>
<text text-anchor="middle" x="1627" y="-431.76" font-family="Times,serif" font-size="14.00">&lt;objective2&gt;</text>
<text text-anchor="middle" x="1627" y="-416.76" font-family="Times,serif" font-size="14.00">objective</text>
</g>
<!-- n20&#45;&gt;n5 -->
<g id="edge18" class="edge"><title>n20&#45;&gt;n5</title>
<path fill="none" stroke="black" d="M1670.37,-408.393C1681.18,-404.387 1692.88,-400.574 1704,-397.96 1742.49,-388.917 1849.14,-403.377 1881,-379.96 1901.93,-364.573 1882.66,-341.037 1904,-326.22 1938.76,-302.088 2542.06,-287.976 2755.18,-283.726"/>
<polygon fill="black" stroke="black" points="2755.4,-287.222 2765.33,-283.525 2755.26,-280.223 2755.4,-287.222"/>
<text text-anchor="middle" x="1960" y="-349.39" font-family="Times,serif" font-size="14.00"> static(visible_from)</text>
</g>
<!-- n20&#45;&gt;n29 -->
<g id="edge29" class="edge"><title>n20&#45;&gt;n29</title>
<path fill="none" stroke="black" d="M1668.1,-407.505C1678.93,-400.371 1689.41,-391.219 1696,-379.96 1740.43,-304.026 1659.83,-252.831 1713,-182.74 1772.67,-104.083 1824.52,-125.721 1921,-104.74 2118.53,-61.7813 2737.26,-37.5074 2951.28,-30.2266"/>
<polygon fill="black" stroke="black" points="2951.59,-33.7182 2961.47,-29.8826 2951.35,-26.7222 2951.59,-33.7182"/>
<text text-anchor="middle" x="1769" y="-205.91" font-family="Times,serif" font-size="14.00"> static(visible_from)</text>
</g>
<!-- n22 -->
<g id="node22" class="node"><title>n22</title>
<ellipse fill="none" stroke="black" cx="4445" cy="-535.831" rx="56.6372" ry="26.7407"/>
<text text-anchor="middle" x="4445" y="-539.631" font-family="Times,serif" font-size="14.00">&lt;camera2&gt;</text>
<text text-anchor="middle" x="4445" y="-524.631" font-family="Times,serif" font-size="14.00">camera</text>
</g>
<!-- n22&#45;&gt;n25 -->
<g id="edge68" class="edge"><title>n22&#45;&gt;n25</title>
<path fill="none" stroke="black" d="M4388.56,-532.576C4259.1,-527.491 3930.72,-515.099 3656,-508.96 3614.01,-508.022 2184.1,-503.472 2144,-490.96 2122.39,-484.219 2101.24,-470.602 2084.67,-457.842"/>
<polygon fill="black" stroke="black" points="2086.45,-454.784 2076.45,-451.289 2082.09,-460.258 2086.45,-454.784"/>
<text text-anchor="middle" x="2188" y="-479.76" font-family="Times,serif" font-size="14.00"> static(supports)</text>
</g>
<!-- n22&#45;&gt;n39 -->
<g id="edge11" class="edge"><title>n22&#45;&gt;n39</title>
<path fill="none" stroke="black" d="M4441.9,-508.801C4439.04,-496.784 4433.55,-483.531 4423,-475.96 4397.49,-457.649 3889.33,-460.109 3858,-457.96 3782.25,-452.767 3695.14,-442.922 3639.61,-436.155"/>
<polygon fill="black" stroke="black" points="3639.97,-432.673 3629.62,-434.929 3639.12,-439.621 3639.97,-432.673"/>
<text text-anchor="middle" x="4481.5" y="-479.76" font-family="Times,serif" font-size="14.00"> static(on_board)</text>
</g>
<!-- n40 -->
<g id="node40" class="node"><title>n40</title>
<ellipse fill="none" stroke="black" cx="4078" cy="-427.96" rx="67.7647" ry="26.7407"/>
<text text-anchor="middle" x="4078" y="-431.76" font-family="Times,serif" font-size="14.00">&lt;objective26&gt;</text>
<text text-anchor="middle" x="4078" y="-416.76" font-family="Times,serif" font-size="14.00">objective</text>
</g>
<!-- n22&#45;&gt;n40 -->
<g id="edge78" class="edge"><title>n22&#45;&gt;n40</title>
<path fill="none" stroke="black" d="M4494.23,-522.405C4526.01,-512.14 4558.14,-496.021 4539,-475.96 4509.51,-445.058 4196.83,-466.594 4155,-457.96 4147.43,-456.397 4139.61,-454.198 4132,-451.702"/>
<polygon fill="black" stroke="black" points="4133.09,-448.376 4122.49,-448.407 4130.79,-454.99 4133.09,-448.376"/>
<text text-anchor="middle" x="4613.5" y="-479.76" font-family="Times,serif" font-size="14.00"> static(calibration_target)</text>
</g>
<!-- n23 -->
<g id="node23" class="node"><title>n23</title>
<ellipse fill="none" stroke="black" cx="2553" cy="-134.74" rx="62.8651" ry="26.7407"/>
<text text-anchor="middle" x="2553" y="-138.54" font-family="Times,serif" font-size="14.00">&lt;objective0&gt;</text>
<text text-anchor="middle" x="2553" y="-123.54" font-family="Times,serif" font-size="14.00">objective</text>
</g>
<!-- n23&#45;&gt;n29 -->
<g id="edge42" class="edge"><title>n23&#45;&gt;n29</title>
<path fill="none" stroke="black" d="M2542.31,-107.954C2539.02,-95.5486 2538.25,-81.3264 2547,-71.7401 2573.66,-42.5206 2823.69,-32.512 2951.1,-29.2907"/>
<polygon fill="black" stroke="black" points="2951.27,-32.7879 2961.18,-29.0437 2951.1,-25.79 2951.27,-32.7879"/>
<text text-anchor="middle" x="2603" y="-75.5401" font-family="Times,serif" font-size="14.00"> static(visible_from)</text>
</g>
<!-- n24 -->
<g id="node24" class="node"><title>n24</title>
<ellipse fill="none" stroke="black" cx="90" cy="-535.831" rx="62.8651" ry="26.7407"/>
<text text-anchor="middle" x="90" y="-539.631" font-family="Times,serif" font-size="14.00">&lt;objective3&gt;</text>
<text text-anchor="middle" x="90" y="-524.631" font-family="Times,serif" font-size="14.00">objective</text>
</g>
<!-- n24&#45;&gt;n5 -->
<g id="edge70" class="edge"><title>n24&#45;&gt;n5</title>
<path fill="none" stroke="black" d="M127.917,-514.302C155.595,-500.502 194.501,-483.507 231,-475.96 270.936,-467.703 1664.89,-480.313 1699,-457.96 1723.46,-441.933 1701.95,-414.592 1726,-397.96 1779.11,-361.238 1961.86,-415.142 2016,-379.96 2038.58,-365.286 2021.37,-340.825 2044,-326.22 2102.81,-288.263 2571.36,-282.968 2755.27,-282.362"/>
<polygon fill="black" stroke="black" points="2755.41,-285.862 2765.4,-282.333 2755.39,-278.862 2755.41,-285.862"/>
<text text-anchor="middle" x="1782" y="-424.26" font-family="Times,serif" font-size="14.00"> static(visible_from)</text>
</g>
<!-- n24&#45;&gt;n21 -->
<g id="edge65" class="edge"><title>n24&#45;&gt;n21</title>
<path fill="none" stroke="black" d="M133.934,-516.54C143.064,-513.454 152.73,-510.693 162,-508.96 322.603,-478.953 736.882,-523.455 897,-490.96 914.794,-487.349 917.189,-479.49 935,-475.96 1062.97,-450.599 1981.78,-486.859 2109,-457.96 2115.09,-456.578 2121.29,-454.566 2127.32,-452.236"/>
<polygon fill="black" stroke="black" points="2128.72,-455.443 2136.6,-448.358 2126.02,-448.985 2128.72,-455.443"/>
<text text-anchor="middle" x="1027" y="-479.76" font-family="Times,serif" font-size="14.00"> end(communicated_image_data)</text>
</g>
<!-- n24&#45;&gt;n29 -->
<g id="edge85" class="edge"><title>n24&#45;&gt;n29</title>
<path fill="none" stroke="black" d="M55.461,-513.265C30.0806,-494.47 0,-464.664 0,-428.96 0,-428.96 0,-428.96 0,-133.74 0,-47.4446 98.9517,-86.3589 184,-71.7401 463.405,-23.7138 2532,-26.5658 2951.08,-27.6472"/>
<polygon fill="black" stroke="black" points="2951.24,-31.1476 2961.25,-27.674 2951.26,-24.1476 2951.24,-31.1476"/>
<text text-anchor="middle" x="56" y="-277.65" font-family="Times,serif" font-size="14.00"> static(visible_from)</text>
</g>
<!-- n26 -->
<g id="node26" class="node"><title>n26</title>
<ellipse fill="none" stroke="black" cx="2818" cy="-134.74" rx="51.7379" ry="26.7407"/>
<text text-anchor="middle" x="2818" y="-138.54" font-family="Times,serif" font-size="14.00">&lt;general&gt;</text>
<text text-anchor="middle" x="2818" y="-123.54" font-family="Times,serif" font-size="14.00">lander</text>
</g>
<!-- n26&#45;&gt;n26 -->
<g id="edge4" class="edge"><title>n26&#45;&gt;n26</title>
<path fill="none" stroke="black" d="M2866.16,-144.744C2878.42,-144.086 2887.62,-140.752 2887.62,-134.74 2887.62,-130.513 2883.07,-127.61 2876.11,-126.03"/>
<polygon fill="black" stroke="black" points="2876.52,-122.555 2866.16,-124.736 2875.62,-129.496 2876.52,-122.555"/>
<text text-anchor="middle" x="2938.12" y="-131.04" font-family="Times,serif" font-size="14.00"> init(channel_free)</text>
</g>
<!-- n26&#45;&gt;n29 -->
<g id="edge50" class="edge"><title>n26&#45;&gt;n29</title>
<path fill="none" stroke="black" d="M2849.1,-112.875C2868.71,-100.174 2894.8,-84.0758 2919,-71.7401 2934.87,-63.6487 2952.59,-55.856 2968.93,-49.141"/>
<polygon fill="black" stroke="black" points="2970.41,-52.3166 2978.37,-45.3177 2967.79,-45.8288 2970.41,-52.3166"/>
<text text-anchor="middle" x="2965" y="-75.5401" font-family="Times,serif" font-size="14.00"> static(at_lander)</text>
</g>
<!-- n28 -->
<g id="node28" class="node"><title>n28</title>
<ellipse fill="none" stroke="black" cx="1013" cy="-427.96" rx="67.7647" ry="26.7407"/>
<text text-anchor="middle" x="1013" y="-431.76" font-family="Times,serif" font-size="14.00">&lt;objective14&gt;</text>
<text text-anchor="middle" x="1013" y="-416.76" font-family="Times,serif" font-size="14.00">objective</text>
</g>
<!-- n28&#45;&gt;n5 -->
<g id="edge101" class="edge"><title>n28&#45;&gt;n5</title>
<path fill="none" stroke="black" d="M1061.01,-408.839C1071.5,-405.081 1082.58,-401.264 1093,-397.96 1121.98,-388.772 1131.58,-393.108 1159,-379.96 1195.65,-362.384 1194.52,-339.307 1233,-326.22 1305.78,-301.472 2451.06,-286.671 2755.28,-283.163"/>
<polygon fill="black" stroke="black" points="2755.36,-286.662 2765.32,-283.047 2755.28,-279.662 2755.36,-286.662"/>
<text text-anchor="middle" x="1289" y="-349.39" font-family="Times,serif" font-size="14.00"> static(visible_from)</text>
</g>
<!-- n28&#45;&gt;n29 -->
<g id="edge108" class="edge"><title>n28&#45;&gt;n29</title>
<path fill="none" stroke="black" d="M1006.01,-401.167C994.842,-354.424 977.9,-253.967 1016,-182.74 1057.17,-105.779 1094.94,-98.5509 1178,-71.7401 1263.61,-44.1073 2617.86,-31.2133 2951.27,-28.4484"/>
<polygon fill="black" stroke="black" points="2951.33,-31.9481 2961.3,-28.3657 2951.27,-24.9484 2951.33,-31.9481"/>
<text text-anchor="middle" x="1072" y="-205.91" font-family="Times,serif" font-size="14.00"> static(visible_from)</text>
</g>
<!-- n29&#45;&gt;n5 -->
<g id="edge39" class="edge"><title>n29&#45;&gt;n5</title>
<path fill="none" stroke="black" d="M2962.65,-32.5785C2872.82,-40.8047 2713.89,-61.2418 2679,-104.74 2635.09,-159.478 2721.33,-221.449 2780.28,-255.181"/>
<polygon fill="black" stroke="black" points="2778.69,-258.301 2789.12,-260.147 2782.12,-252.198 2778.69,-258.301"/>
<text text-anchor="middle" x="2718" y="-131.04" font-family="Times,serif" font-size="14.00"> static(visible)</text>
</g>
<!-- n29&#45;&gt;n7 -->
<g id="edge57" class="edge"><title>n29&#45;&gt;n7</title>
<path fill="none" stroke="black" d="M3088.66,-28.8949C3235.99,-31.7551 3596.81,-41.6955 3714,-71.7401 3729.22,-75.6408 3731.73,-80.1723 3746,-86.7401 3762.85,-94.4968 3781.29,-102.866 3797.89,-110.363"/>
<polygon fill="black" stroke="black" points="3796.88,-113.745 3807.44,-114.665 3799.76,-107.364 3796.88,-113.745"/>
<text text-anchor="middle" x="3785" y="-75.5401" font-family="Times,serif" font-size="14.00"> static(visible)</text>
</g>
<!-- n29&#45;&gt;n29 -->
<g id="edge5" class="edge"><title>n29&#45;&gt;n29</title>
<path fill="none" stroke="black" d="M3084.8,-36.3053C3097.48,-35.3472 3106.64,-32.2021 3106.64,-26.8701 3106.64,-23.121 3102.11,-20.4531 3095.02,-18.8664"/>
<polygon fill="black" stroke="black" points="3095.19,-15.3569 3084.8,-17.4349 3094.22,-22.2891 3095.19,-15.3569"/>
<text text-anchor="middle" x="3191.14" y="-30.6701" font-family="Times,serif" font-size="14.00"> end(communicated_soil_data)</text>
<text text-anchor="middle" x="3191.14" y="-15.6701" font-family="Times,serif" font-size="14.00">init(at_soil_sample)</text>
</g>
<!-- n30&#45;&gt;n5 -->
<g id="edge66" class="edge"><title>n30&#45;&gt;n5</title>
<path fill="none" stroke="black" d="M2832.5,-405.751C2823.87,-398.714 2815.76,-390.053 2811,-379.96 2801.8,-360.45 2805.9,-336.681 2812.5,-317.483"/>
<polygon fill="black" stroke="black" points="2815.85,-318.499 2816.11,-307.908 2809.3,-316.025 2815.85,-318.499"/>
<text text-anchor="middle" x="2867" y="-349.39" font-family="Times,serif" font-size="14.00"> static(visible_from)</text>
</g>
<!-- n30&#45;&gt;n29 -->
<g id="edge98" class="edge"><title>n30&#45;&gt;n29</title>
<path fill="none" stroke="black" d="M2923.24,-414.952C2977.72,-402.855 3053.53,-385.246 3058,-379.96 3114.77,-312.845 3026.82,-257.538 3073,-182.74 3081.17,-169.51 3095.34,-178.271 3103,-164.74 3116.14,-141.535 3113.29,-129.34 3103,-104.74 3095.2,-86.0943 3080.42,-69.678 3065.81,-56.8552"/>
<polygon fill="black" stroke="black" points="3067.67,-53.8473 3057.76,-50.1098 3063.18,-59.2138 3067.67,-53.8473"/>
<text text-anchor="middle" x="3130" y="-205.91" font-family="Times,serif" font-size="14.00"> static(visible_from)</text>
</g>
<!-- n31 -->
<g id="node31" class="node"><title>n31</title>
<ellipse fill="none" stroke="black" cx="3366" cy="-427.96" rx="67.7647" ry="26.7407"/>
<text text-anchor="middle" x="3366" y="-431.76" font-family="Times,serif" font-size="14.00">&lt;objective17&gt;</text>
<text text-anchor="middle" x="3366" y="-416.76" font-family="Times,serif" font-size="14.00">objective</text>
</g>
<!-- n31&#45;&gt;n5 -->
<g id="edge79" class="edge"><title>n31&#45;&gt;n5</title>
<path fill="none" stroke="black" d="M3315.93,-409.684C3283.71,-398.325 3246.65,-384.714 3240,-379.96 3214.89,-362.003 3223.06,-341.07 3196,-326.22 3147,-299.331 2994.72,-288.723 2902.43,-284.689"/>
<polygon fill="black" stroke="black" points="2902.45,-281.187 2892.31,-284.262 2902.15,-288.18 2902.45,-281.187"/>
<text text-anchor="middle" x="3296" y="-349.39" font-family="Times,serif" font-size="14.00"> static(visible_from)</text>
</g>
<!-- n31&#45;&gt;n7 -->
<g id="edge47" class="edge"><title>n31&#45;&gt;n7</title>
<path fill="none" stroke="black" d="M3432.38,-422.277C3468.36,-416.771 3511.72,-404.994 3543,-379.96 3564.03,-363.131 3550.95,-344.203 3571,-326.22 3636.34,-267.614 3672.14,-283.449 3755,-254.48 3780.48,-245.572 3793.43,-255.072 3813,-236.48 3830.76,-219.605 3840.04,-193.49 3844.86,-172.077"/>
<polygon fill="black" stroke="black" points="3848.34,-172.499 3846.89,-162.005 3841.48,-171.117 3848.34,-172.499"/>
<text text-anchor="middle" x="3812" y="-277.65" font-family="Times,serif" font-size="14.00"> static(visible_from)</text>
</g>
<!-- n31&#45;&gt;n29 -->
<g id="edge64" class="edge"><title>n31&#45;&gt;n29</title>
<path fill="none" stroke="black" d="M3367.58,-400.864C3369.13,-352.742 3365.91,-248.908 3316,-182.74 3259.34,-107.619 3155.43,-65.1096 3088.33,-44.3084"/>
<polygon fill="black" stroke="black" points="3089.29,-40.943 3078.71,-41.3956 3087.26,-47.6428 3089.29,-40.943"/>
<text text-anchor="middle" x="3401" y="-205.91" font-family="Times,serif" font-size="14.00"> static(visible_from)</text>
</g>
<!-- n32 -->
<g id="node32" class="node"><title>n32</title>
<ellipse fill="none" stroke="black" cx="3454" cy="-134.74" rx="62.8651" ry="26.7407"/>
<text text-anchor="middle" x="3454" y="-138.54" font-family="Times,serif" font-size="14.00">&lt;objective5&gt;</text>
<text text-anchor="middle" x="3454" y="-123.54" font-family="Times,serif" font-size="14.00">objective</text>
</g>
<!-- n32&#45;&gt;n29 -->
<g id="edge83" class="edge"><title>n32&#45;&gt;n29</title>
<path fill="none" stroke="black" d="M3431,-109.483C3416.78,-96.0568 3397.38,-80.3812 3377,-71.7401 3328.25,-51.0765 3186.2,-38.38 3098.16,-32.2699"/>
<polygon fill="black" stroke="black" points="3098.18,-28.7634 3087.97,-31.5751 3097.71,-35.7472 3098.18,-28.7634"/>
<text text-anchor="middle" x="3459" y="-75.5401" font-family="Times,serif" font-size="14.00"> static(visible_from)</text>
</g>
<!-- n33 -->
<g id="node33" class="node"><title>n33</title>
<ellipse fill="none" stroke="black" cx="1008" cy="-535.831" rx="56.6372" ry="26.7407"/>
<text text-anchor="middle" x="1008" y="-539.631" font-family="Times,serif" font-size="14.00">&lt;camera0&gt;</text>
<text text-anchor="middle" x="1008" y="-524.631" font-family="Times,serif" font-size="14.00">camera</text>
</g>
<!-- n33&#45;&gt;n8 -->
<g id="edge53" class="edge"><title>n33&#45;&gt;n8</title>
<path fill="none" stroke="black" d="M952.318,-530.024C821.51,-518.727 505.54,-491.398 505,-490.96 475.221,-466.878 466.074,-422.202 463.511,-390.447"/>
<polygon fill="black" stroke="black" points="466.989,-389.984 462.873,-380.221 460.002,-390.42 466.989,-389.984"/>
<text text-anchor="middle" x="573.5" y="-479.76" font-family="Times,serif" font-size="14.00"> static(calibration_target)</text>
</g>
<!-- n33&#45;&gt;n21 -->
<g id="edge7" class="edge"><title>n33&#45;&gt;n21</title>
<path fill="none" stroke="black" d="M1060.9,-526.008C1103.07,-518.405 1163.4,-506.247 1215,-490.96 1232.81,-485.685 1235.78,-479.543 1254,-475.96 1440.47,-439.302 1923.8,-500.587 2109,-457.96 2115.08,-456.56 2121.29,-454.538 2127.31,-452.203"/>
<polygon fill="black" stroke="black" points="2128.72,-455.409 2136.59,-448.32 2126.01,-448.952 2128.72,-455.409"/>
<text text-anchor="middle" x="1298" y="-479.76" font-family="Times,serif" font-size="14.00"> static(supports)</text>
</g>
<!-- n33&#45;&gt;n25 -->
<g id="edge17" class="edge"><title>n33&#45;&gt;n25</title>
<path fill="none" stroke="black" d="M952.628,-529.988C854.396,-521.131 658.95,-502.2 649,-490.96 644.581,-485.969 644.318,-480.706 649,-475.96 675.165,-449.442 1953.69,-466.289 1990,-457.96 1996.54,-456.461 2003.2,-454.213 2009.63,-451.62"/>
<polygon fill="black" stroke="black" points="2011.05,-454.82 2018.82,-447.62 2008.25,-448.401 2011.05,-454.82"/>
<text text-anchor="middle" x="693" y="-479.76" font-family="Times,serif" font-size="14.00"> static(supports)</text>
</g>
<!-- n33&#45;&gt;n39 -->
<g id="edge72" class="edge"><title>n33&#45;&gt;n39</title>
<path fill="none" stroke="black" d="M1063.43,-530.458C1138.21,-524.708 1275.57,-514.668 1393,-508.96 1459.51,-505.728 1928.47,-510.89 1992,-490.96 2003.64,-487.308 2003.32,-479.512 2015,-475.96 2090.91,-452.874 3364.13,-466.546 3443,-457.96 3471.97,-454.807 3503.82,-448.445 3529.81,-442.482"/>
<polygon fill="black" stroke="black" points="3530.89,-445.824 3539.83,-440.137 3529.29,-439.008 3530.89,-445.824"/>
<text text-anchor="middle" x="2061.5" y="-479.76" font-family="Times,serif" font-size="14.00"> static(on_board)</text>
</g>
<!-- n34 -->
<g id="node34" class="node"><title>n34</title>
<ellipse fill="none" stroke="black" cx="5129" cy="-535.831" rx="67.7647" ry="26.7407"/>
<text text-anchor="middle" x="5129" y="-539.631" font-family="Times,serif" font-size="14.00">&lt;objective16&gt;</text>
<text text-anchor="middle" x="5129" y="-524.631" font-family="Times,serif" font-size="14.00">objective</text>
</g>
<!-- n34&#45;&gt;n5 -->
<g id="edge88" class="edge"><title>n34&#45;&gt;n5</title>
<path fill="none" stroke="black" d="M5074.48,-519.699C5034.75,-508.57 4986.32,-494.751 4977,-490.96 4963.92,-485.64 4962.66,-479.513 4949,-475.96 4892,-461.138 3940,-487.413 3889,-457.96 3862.07,-442.409 3879.74,-413.83 3853,-397.96 3810.73,-372.878 3456.13,-399.429 3411,-379.96 3379.62,-366.424 3387.09,-340.419 3356,-326.22 3277.31,-290.281 3028.89,-283.481 2903.27,-282.395"/>
<polygon fill="black" stroke="black" points="2903,-278.893 2892.98,-282.316 2902.95,-285.893 2903,-278.893"/>
<text text-anchor="middle" x="3945" y="-424.26" font-family="Times,serif" font-size="14.00"> static(visible_from)</text>
</g>
<!-- n34&#45;&gt;n7 -->
<g id="edge59" class="edge"><title>n34&#45;&gt;n7</title>
<path fill="none" stroke="black" d="M5178.26,-517.191C5201.52,-506.296 5221.19,-491.469 5206,-475.96 5172.41,-441.66 4382.58,-483.625 4342,-457.96 4309.24,-437.242 4318.24,-415.599 4303,-379.96 4279.71,-325.483 4300.02,-296.244 4258,-254.48 4168.06,-165.099 4014.98,-142.213 3924.08,-136.824"/>
<polygon fill="black" stroke="black" points="3924.03,-133.316 3913.86,-136.276 3923.66,-140.306 3924.03,-133.316"/>
<text text-anchor="middle" x="4359" y="-349.39" font-family="Times,serif" font-size="14.00"> static(visible_from)</text>
</g>
<!-- n34&#45;&gt;n21 -->
<g id="edge84" class="edge"><title>n34&#45;&gt;n21</title>
<path fill="none" stroke="black" d="M5077.28,-518.147C5063.67,-514.433 5048.9,-510.998 5035,-508.96 4859.06,-483.173 4408.58,-529.592 4235,-490.96 4218.88,-487.372 4217.15,-479.441 4201,-475.96 3987.56,-429.948 2449.21,-505.035 2236,-457.96 2229.75,-456.58 2223.37,-454.546 2217.17,-452.184"/>
<polygon fill="black" stroke="black" points="2218.22,-448.831 2207.64,-448.251 2215.55,-455.301 2218.22,-448.831"/>
<text text-anchor="middle" x="4327" y="-479.76" font-family="Times,serif" font-size="14.00"> end(communicated_image_data)</text>
</g>
<!-- n34&#45;&gt;n29 -->
<g id="edge21" class="edge"><title>n34&#45;&gt;n29</title>
<path fill="none" stroke="black" d="M5184.95,-520.408C5199.69,-513.854 5213.99,-504.432 5223,-490.96 5263.73,-430.076 5266.26,-388.683 5228,-326.22 5216.53,-307.502 5067.59,-251.933 5052,-236.48 5032.87,-217.52 5046.52,-197.504 5024,-182.74 4976.12,-151.356 4823.73,-172.425 4767,-164.74 4633.55,-146.665 4602.53,-128.629 4470,-104.74 4377.88,-88.1357 4355.17,-80.7489 4262,-71.7401 3822.51,-29.2434 3291.64,-26.703 3099.19,-27.3558"/>
<polygon fill="black" stroke="black" points="3098.9,-23.8568 3088.91,-27.3949 3098.93,-30.8568 3098.9,-23.8568"/>
<text text-anchor="middle" x="5257" y="-277.65" font-family="Times,serif" font-size="14.00"> static(visible_from)</text>
</g>
<!-- n35 -->
<g id="node35" class="node"><title>n35</title>
<ellipse fill="none" stroke="black" cx="1478" cy="-427.96" rx="67.7647" ry="26.7407"/>
<text text-anchor="middle" x="1478" y="-431.76" font-family="Times,serif" font-size="14.00">&lt;objective10&gt;</text>
<text text-anchor="middle" x="1478" y="-416.76" font-family="Times,serif" font-size="14.00">objective</text>
</g>
<!-- n35&#45;&gt;n5 -->
<g id="edge26" class="edge"><title>n35&#45;&gt;n5</title>
<path fill="none" stroke="black" d="M1523.45,-407.824C1533.68,-404.084 1544.6,-400.531 1555,-397.96 1617.61,-382.487 1639.69,-405.306 1699,-379.96 1733.78,-365.095 1729.63,-339.627 1765,-326.22 1856.83,-291.413 2529.24,-284.164 2755.18,-282.705"/>
<polygon fill="black" stroke="black" points="2755.3,-286.204 2765.28,-282.642 2755.26,-279.205 2755.3,-286.204"/>
<text text-anchor="middle" x="1821" y="-349.39" font-family="Times,serif" font-size="14.00"> static(visible_from)</text>
</g>
<!-- n35&#45;&gt;n29 -->
<g id="edge40" class="edge"><title>n35&#45;&gt;n29</title>
<path fill="none" stroke="black" d="M1513.03,-404.863C1521.69,-397.868 1530.15,-389.45 1536,-379.96 1583.06,-303.583 1524.79,-254.223 1579,-182.74 1623.69,-123.808 1655.29,-126.43 1726,-104.74 1957.42,-33.7528 2711.65,-27.7468 2951.24,-27.6738"/>
<polygon fill="black" stroke="black" points="2951.24,-31.1737 2961.24,-27.6741 2951.24,-24.1737 2951.24,-31.1737"/>
<text text-anchor="middle" x="1635" y="-205.91" font-family="Times,serif" font-size="14.00"> static(visible_from)</text>
</g>
<!-- n36 -->
<g id="node36" class="node"><title>n36</title>
<ellipse fill="none" stroke="black" cx="2241" cy="-535.831" rx="56.6372" ry="26.7407"/>
<text text-anchor="middle" x="2241" y="-539.631" font-family="Times,serif" font-size="14.00">&lt;camera5&gt;</text>
<text text-anchor="middle" x="2241" y="-524.631" font-family="Times,serif" font-size="14.00">camera</text>
</g>
<!-- n36&#45;&gt;n3 -->
<g id="edge62" class="edge"><title>n36&#45;&gt;n3</title>
<path fill="none" stroke="black" d="M2234.41,-508.875C2233.13,-497.46 2234.13,-484.694 2242,-475.96 2264.18,-451.347 2357.81,-465.787 2390,-457.96 2397.98,-456.019 2406.27,-453.509 2414.33,-450.779"/>
<polygon fill="black" stroke="black" points="2415.75,-453.99 2424.02,-447.363 2413.42,-447.389 2415.75,-453.99"/>
<text text-anchor="middle" x="2310.5" y="-479.76" font-family="Times,serif" font-size="14.00"> static(calibration_target)</text>
</g>
<!-- n36&#45;&gt;n21 -->
<g id="edge112" class="edge"><title>n36&#45;&gt;n21</title>
<path fill="none" stroke="black" d="M2184.37,-535.442C2030.35,-536.516 1612.51,-535.28 1571,-490.96 1566.44,-486.095 1566.37,-480.753 1571,-475.96 1591.79,-454.463 2079.9,-464.849 2109,-457.96 2115.07,-456.523 2121.27,-454.478 2127.29,-452.131"/>
<polygon fill="black" stroke="black" points="2128.7,-455.335 2136.57,-448.238 2126,-448.88 2128.7,-455.335"/>
<text text-anchor="middle" x="1615" y="-479.76" font-family="Times,serif" font-size="14.00"> static(supports)</text>
</g>
<!-- n36&#45;&gt;n25 -->
<g id="edge81" class="edge"><title>n36&#45;&gt;n25</title>
<path fill="none" stroke="black" d="M2184.54,-533.094C1990.71,-527.002 1363.46,-506.147 1349,-490.96 1344.4,-486.132 1344.35,-480.74 1349,-475.96 1373.83,-450.419 1955.34,-466.179 1990,-457.96 1996.53,-456.413 2003.19,-454.139 2009.61,-451.533"/>
<polygon fill="black" stroke="black" points="2011.03,-454.73 2018.8,-447.524 2008.23,-448.314 2011.03,-454.73"/>
<text text-anchor="middle" x="1393" y="-479.76" font-family="Times,serif" font-size="14.00"> static(supports)</text>
</g>
<!-- n36&#45;&gt;n27 -->
<g id="edge105" class="edge"><title>n36&#45;&gt;n27</title>
<path fill="none" stroke="black" d="M2297.78,-533.587C2415.16,-530.447 2680.68,-520.245 2766,-490.96 2777.54,-486.998 2777.53,-480.125 2789,-475.96 2852.53,-452.895 2873.44,-469.674 2940,-457.96 2961.43,-454.19 2984.7,-449.034 3005.24,-444.114"/>
<polygon fill="black" stroke="black" points="3006.19,-447.485 3015.08,-441.725 3004.54,-440.683 3006.19,-447.485"/>
<text text-anchor="middle" x="2833" y="-479.76" font-family="Times,serif" font-size="14.00"> static(supports)</text>
</g>
<!-- n36&#45;&gt;n39 -->
<g id="edge8" class="edge"><title>n36&#45;&gt;n39</title>
<path fill="none" stroke="black" d="M2297.13,-531.861C2447.56,-523.783 2850.17,-501.322 2877,-490.96 2887.04,-487.084 2885.9,-479.656 2896,-475.96 2953.11,-455.075 3382.62,-465.154 3443,-457.96 3471.94,-454.513 3503.78,-448.127 3529.78,-442.224"/>
<polygon fill="black" stroke="black" points="3530.85,-445.569 3539.8,-439.907 3529.27,-438.749 3530.85,-445.569"/>
<text text-anchor="middle" x="2942.5" y="-479.76" font-family="Times,serif" font-size="14.00"> static(on_board)</text>
</g>
<!-- n37 -->
<g id="node37" class="node"><title>n37</title>
<ellipse fill="none" stroke="black" cx="4183" cy="-134.74" rx="62.8651" ry="26.7407"/>
<text text-anchor="middle" x="4183" y="-138.54" font-family="Times,serif" font-size="14.00">&lt;objective6&gt;</text>
<text text-anchor="middle" x="4183" y="-123.54" font-family="Times,serif" font-size="14.00">objective</text>
</g>
<!-- n37&#45;&gt;n29 -->
<g id="edge86" class="edge"><title>n37&#45;&gt;n29</title>
<path fill="none" stroke="black" d="M4140.5,-114.894C4130.93,-111.137 4120.72,-107.504 4111,-104.74 4028.14,-81.1821 4005.63,-81.1999 3920,-71.7401 3616.56,-38.2164 3252.41,-30.3099 3098.94,-28.4453"/>
<polygon fill="black" stroke="black" points="3098.73,-24.9429 3088.69,-28.3262 3098.65,-31.9424 3098.73,-24.9429"/>
<text text-anchor="middle" x="4092" y="-75.5401" font-family="Times,serif" font-size="14.00"> static(visible_from)</text>
</g>
<!-- n38 -->
<g id="node38" class="node"><title>n38</title>
<ellipse fill="none" stroke="black" cx="4232" cy="-427.96" rx="67.7647" ry="26.7407"/>
<text text-anchor="middle" x="4232" y="-431.76" font-family="Times,serif" font-size="14.00">&lt;objective13&gt;</text>
<text text-anchor="middle" x="4232" y="-416.76" font-family="Times,serif" font-size="14.00">objective</text>
</g>
<!-- n38&#45;&gt;n5 -->
<g id="edge74" class="edge"><title>n38&#45;&gt;n5</title>
<path fill="none" stroke="black" d="M4187.53,-407.396C4177.05,-403.58 4165.79,-400.103 4155,-397.96 4124.25,-391.854 3616.89,-397.64 3591,-379.96 3569.55,-365.309 3589.25,-341.164 3568,-326.22 3514.53,-288.62 3079.31,-283.076 2902.88,-282.384"/>
<polygon fill="black" stroke="black" points="2902.66,-278.883 2892.65,-282.348 2902.64,-285.883 2902.66,-278.883"/>
<text text-anchor="middle" x="3647" y="-349.39" font-family="Times,serif" font-size="14.00"> static(visible_from)</text>
</g>
<!-- n38&#45;&gt;n7 -->
<g id="edge100" class="edge"><title>n38&#45;&gt;n7</title>
<path fill="none" stroke="black" d="M4213.28,-401.674C4195.67,-377.766 4168.7,-340.8 4146,-308.22 4129.57,-284.633 4131.9,-273.099 4110,-254.48 4051.41,-204.683 3968.5,-171.667 3912.17,-153.361"/>
<polygon fill="black" stroke="black" points="3912.91,-149.924 3902.32,-150.222 3910.79,-156.594 3912.91,-149.924"/>
<text text-anchor="middle" x="4202" y="-277.65" font-family="Times,serif" font-size="14.00"> static(visible_from)</text>
</g>
<!-- n38&#45;&gt;n29 -->
<g id="edge48" class="edge"><title>n38&#45;&gt;n29</title>
<path fill="none" stroke="black" d="M4244.22,-401.124C4270.28,-341.83 4323.56,-194.226 4255,-104.74 4225.77,-66.5811 4199.34,-80.0849 4152,-71.7401 3948.65,-35.8955 3315.45,-29.3362 3098.67,-28.1376"/>
<polygon fill="black" stroke="black" points="3098.68,-24.6377 3088.66,-28.0844 3098.65,-31.6376 3098.68,-24.6377"/>
<text text-anchor="middle" x="4345" y="-205.91" font-family="Times,serif" font-size="14.00"> static(visible_from)</text>
</g>
<!-- n39&#45;&gt;n7 -->
<g id="edge37" class="edge"><title>n39&#45;&gt;n7</title>
<path fill="none" stroke="black" d="M3630.85,-425.008C3697.05,-421.21 3811.43,-410.324 3838,-379.96 3888.58,-322.155 3873.65,-224.062 3860.56,-171.508"/>
<polygon fill="black" stroke="black" points="3863.89,-170.423 3857.98,-161.629 3857.12,-172.189 3863.89,-170.423"/>
<text text-anchor="middle" x="3894.5" y="-277.65" font-family="Times,serif" font-size="14.00"> init(at)</text>
</g>
<!-- n39&#45;&gt;n39 -->
<g id="edge6" class="edge"><title>n39&#45;&gt;n39</title>
<path fill="none" stroke="black" d="M3627.79,-438.011C3639.88,-437.48 3649.08,-434.13 3649.08,-427.96 3649.08,-423.719 3644.73,-420.81 3638.08,-419.233"/>
<polygon fill="black" stroke="black" points="3638.15,-415.713 3627.79,-417.91 3637.26,-422.656 3638.15,-415.713"/>
<text text-anchor="middle" x="3746.58" y="-446.76" font-family="Times,serif" font-size="14.00"> static(equipped_for_rock_analysis)</text>
<text text-anchor="middle" x="3746.58" y="-431.76" font-family="Times,serif" font-size="14.00">static(equipped_for_imaging)</text>
<text text-anchor="middle" x="3746.58" y="-416.76" font-family="Times,serif" font-size="14.00">init(available)</text>
<text text-anchor="middle" x="3746.58" y="-401.76" font-family="Times,serif" font-size="14.00">static(equipped_for_soil_analysis)</text>
</g>
<!-- n40&#45;&gt;n5 -->
<g id="edge99" class="edge"><title>n40&#45;&gt;n5</title>
<path fill="none" stroke="black" d="M4032.28,-408.015C4020.64,-403.966 4008.02,-400.23 3996,-397.96 3937.01,-386.822 3510.38,-405.397 3456,-379.96 3426.99,-366.391 3436.71,-340.4 3408,-326.22 3363.75,-304.371 3048.48,-290.281 2902.65,-284.862"/>
<polygon fill="black" stroke="black" points="2902.57,-281.357 2892.45,-284.487 2902.32,-288.353 2902.57,-281.357"/>
<text text-anchor="middle" x="3512" y="-349.39" font-family="Times,serif" font-size="14.00"> static(visible_from)</text>
</g>
<!-- n40&#45;&gt;n7 -->
<g id="edge52" class="edge"><title>n40&#45;&gt;n7</title>
<path fill="none" stroke="black" d="M4067.69,-400.973C4058.26,-379.362 4042.78,-348.627 4023,-326.22 4013.94,-315.956 4008.08,-317.481 3998,-308.22 3949.97,-264.118 3902.28,-205.082 3874.5,-168.77"/>
<polygon fill="black" stroke="black" points="3877.05,-166.34 3868.22,-160.494 3871.48,-170.574 3877.05,-166.34"/>
<text text-anchor="middle" x="4054" y="-277.65" font-family="Times,serif" font-size="14.00"> static(visible_from)</text>
</g>
<!-- n40&#45;&gt;n29 -->
<g id="edge110" class="edge"><title>n40&#45;&gt;n29</title>
<path fill="none" stroke="black" d="M4033.75,-407.572C4024.39,-403.983 4014.47,-400.555 4005,-397.96 3955.53,-384.409 3932.64,-409.912 3891,-379.96 3869.14,-364.235 3880.26,-346.893 3863,-326.22 3802.05,-253.232 3608.36,-104.258 3519,-71.7401 3443.72,-44.3456 3216.88,-33.5973 3098.58,-29.7696"/>
<polygon fill="black" stroke="black" points="3098.63,-26.2693 3088.52,-29.4523 3098.41,-33.2659 3098.63,-26.2693"/>
<text text-anchor="middle" x="3824" y="-205.91" font-family="Times,serif" font-size="14.00"> static(visible_from)</text>
</g>
<!-- n41 -->
<g id="node41" class="node"><title>n41</title>
<ellipse fill="none" stroke="black" cx="4726" cy="-427.96" rx="67.7647" ry="26.7407"/>
<text text-anchor="middle" x="4726" y="-431.76" font-family="Times,serif" font-size="14.00">&lt;objective23&gt;</text>
<text text-anchor="middle" x="4726" y="-416.76" font-family="Times,serif" font-size="14.00">objective</text>
</g>
<!-- n41&#45;&gt;n5 -->
<g id="edge10" class="edge"><title>n41&#45;&gt;n5</title>
<path fill="none" stroke="black" d="M4681.52,-407.442C4671.04,-403.624 4659.78,-400.134 4649,-397.96 4545.02,-376.995 4277.41,-391.855 4172,-379.96 4044.35,-365.556 4015.63,-340.86 3888,-326.22 3790.94,-315.087 3126.18,-292.236 2902.37,-284.77"/>
<polygon fill="black" stroke="black" points="2902.47,-281.271 2892.36,-284.436 2902.24,-288.267 2902.47,-281.271"/>
<text text-anchor="middle" x="4228" y="-349.39" font-family="Times,serif" font-size="14.00"> static(visible_from)</text>
</g>
<!-- n41&#45;&gt;n7 -->
<g id="edge41" class="edge"><title>n41&#45;&gt;n7</title>
<path fill="none" stroke="black" d="M4697.22,-403.402C4670.25,-380.572 4629.6,-344.21 4599,-308.22 4580.38,-286.318 4583.73,-274.396 4563,-254.48 4519.01,-212.224 4504.24,-200.874 4446,-182.74 4374.82,-160.576 4185.3,-170.859 4111,-164.74 4046.36,-159.417 3972.96,-151.054 3920.5,-144.674"/>
<polygon fill="black" stroke="black" points="3920.64,-141.166 3910.29,-143.426 3919.79,-148.114 3920.64,-141.166"/>
<text text-anchor="middle" x="4655" y="-277.65" font-family="Times,serif" font-size="14.00"> static(visible_from)</text>
</g>
<!-- n41&#45;&gt;n29 -->
<g id="edge25" class="edge"><title>n41&#45;&gt;n29</title>
<path fill="none" stroke="black" d="M4765.29,-406.014C4800.09,-385.519 4849.76,-351.16 4879,-308.22 4908.77,-264.5 4950.13,-100.892 4906,-71.7401 4867.64,-46.4047 3441.65,-31.699 3098.64,-28.5236"/>
<polygon fill="black" stroke="black" points="3098.61,-25.0232 3088.57,-28.4308 3098.54,-32.0229 3098.61,-25.0232"/>
<text text-anchor="middle" x="4977" y="-205.91" font-family="Times,serif" font-size="14.00"> static(visible_from)</text>
</g>
<!-- n42 -->
<g id="node42" class="node"><title>n42</title>
<ellipse fill="none" stroke="black" cx="4844" cy="-134.74" rx="67.7647" ry="26.7407"/>
<text text-anchor="middle" x="4844" y="-138.54" font-family="Times,serif" font-size="14.00">&lt;objective24&gt;</text>
<text text-anchor="middle" x="4844" y="-123.54" font-family="Times,serif" font-size="14.00">objective</text>
</g>
<!-- n42&#45;&gt;n29 -->
<g id="edge33" class="edge"><title>n42&#45;&gt;n29</title>
<path fill="none" stroke="black" d="M4820.23,-109.349C4805.03,-95.5102 4784.07,-79.4559 4762,-71.7401 4682.51,-43.9494 3419.82,-31.26 3098.78,-28.4735"/>
<polygon fill="black" stroke="black" points="3098.69,-24.9726 3088.66,-28.3862 3098.63,-31.9724 3098.69,-24.9726"/>
<text text-anchor="middle" x="4846" y="-75.5401" font-family="Times,serif" font-size="14.00"> static(visible_from)</text>
</g>
<!-- n43&#45;&gt;n29 -->
<g id="edge63" class="edge"><title>n43&#45;&gt;n29</title>
<path fill="none" stroke="black" d="M5100.64,-183.857C5071.92,-151.071 5016.05,-94.7164 4954,-71.7401 4865.61,-39.0086 3441.24,-29.9199 3098.67,-28.2026"/>
<polygon fill="black" stroke="black" points="3098.63,-24.7025 3088.61,-28.1528 3098.59,-31.7024 3098.63,-24.7025"/>
<text text-anchor="middle" x="5138" y="-131.04" font-family="Times,serif" font-size="14.00"> static(visible_from)</text>
</g>
<!-- n44 -->
<g id="node44" class="node"><title>n44</title>
<ellipse fill="none" stroke="black" cx="2313" cy="-427.96" rx="67.7647" ry="26.7407"/>
<text text-anchor="middle" x="2313" y="-431.76" font-family="Times,serif" font-size="14.00">&lt;objective21&gt;</text>
<text text-anchor="middle" x="2313" y="-416.76" font-family="Times,serif" font-size="14.00">objective</text>
</g>
<!-- n44&#45;&gt;n5 -->
<g id="edge43" class="edge"><title>n44&#45;&gt;n5</title>
<path fill="none" stroke="black" d="M2346.78,-404.551C2383.93,-381.053 2446.19,-344.988 2505,-326.22 2588.46,-299.589 2689.04,-289.124 2755.77,-285.011"/>
<polygon fill="black" stroke="black" points="2755.99,-288.504 2765.77,-284.427 2755.58,-281.516 2755.99,-288.504"/>
<text text-anchor="middle" x="2561" y="-349.39" font-family="Times,serif" font-size="14.00"> static(visible_from)</text>
</g>
<!-- n44&#45;&gt;n29 -->
<g id="edge20" class="edge"><title>n44&#45;&gt;n29</title>
<path fill="none" stroke="black" d="M2268.34,-407.587C2257.61,-403.712 2246.05,-400.16 2235,-397.96 2208.5,-392.686 1767.75,-399.416 1749,-379.96 1732.43,-362.762 1735.11,-345.651 1749,-326.22 1952.23,-41.9151 2150.91,-143.197 2493,-71.7401 2654.1,-38.0889 2847.7,-30.0142 2951.18,-28.2248"/>
<polygon fill="black" stroke="black" points="2951.27,-31.7239 2961.22,-28.0663 2951.16,-24.7248 2951.27,-31.7239"/>
<text text-anchor="middle" x="1947" y="-205.91" font-family="Times,serif" font-size="14.00"> static(visible_from)</text>
</g>
<!-- n45 -->
<g id="node45" class="node"><title>n45</title>
<ellipse fill="none" stroke="black" cx="4884" cy="-427.96" rx="67.7647" ry="26.7407"/>
<text text-anchor="middle" x="4884" y="-431.76" font-family="Times,serif" font-size="14.00">&lt;objective22&gt;</text>
<text text-anchor="middle" x="4884" y="-416.76" font-family="Times,serif" font-size="14.00">objective</text>
</g>
<!-- n45&#45;&gt;n5 -->
<g id="edge45" class="edge"><title>n45&#45;&gt;n5</title>
<path fill="none" stroke="black" d="M4836.43,-408.508C4825.55,-404.686 4813.96,-400.925 4803,-397.96 4635.41,-352.614 4591.7,-344.047 4419,-326.22 4229.74,-306.684 3753.19,-313.571 3563,-308.22 3321.08,-301.414 3034.4,-290.479 2902.32,-285.28"/>
<polygon fill="black" stroke="black" points="2902.45,-281.782 2892.32,-284.885 2902.17,-288.776 2902.45,-281.782"/>
<text text-anchor="middle" x="4788" y="-349.39" font-family="Times,serif" font-size="14.00"> static(visible_from)</text>
</g>
<!-- n45&#45;&gt;n7 -->
<g id="edge80" class="edge"><title>n45&#45;&gt;n7</title>
<path fill="none" stroke="black" d="M4865.13,-402.059C4835.88,-365.046 4776.15,-295.487 4711,-254.48 4630.02,-203.505 4601.92,-201.047 4508,-182.74 4334.64,-148.948 4287.09,-178.5 4111,-164.74 4046.34,-159.687 3972.94,-151.294 3920.48,-144.834"/>
<polygon fill="black" stroke="black" points="3920.64,-141.326 3910.28,-143.569 3919.77,-148.273 3920.64,-141.326"/>
<text text-anchor="middle" x="4835" y="-277.65" font-family="Times,serif" font-size="14.00"> static(visible_from)</text>
</g>
<!-- n45&#45;&gt;n29 -->
<g id="edge46" class="edge"><title>n45&#45;&gt;n29</title>
<path fill="none" stroke="black" d="M4927.17,-406.939C4974.73,-385.326 5053.82,-350.715 5124,-326.22 5151.9,-316.484 5169.35,-331.138 5188,-308.22 5202.29,-290.663 5212.74,-121.923 5198,-104.74 5128.21,-23.366 3470.94,-25.8822 3098.74,-27.4796"/>
<polygon fill="black" stroke="black" points="3098.61,-23.9801 3088.63,-27.5242 3098.64,-30.98 3098.61,-23.9801"/>
<text text-anchor="middle" x="5261" y="-205.91" font-family="Times,serif" font-size="14.00"> static(visible_from)</text>
</g>
<!-- n46 -->
<g id="node46" class="node"><title>n46</title>
<ellipse fill="none" stroke="black" cx="3206" cy="-427.96" rx="67.7647" ry="26.7407"/>
<text text-anchor="middle" x="3206" y="-431.76" font-family="Times,serif" font-size="14.00">&lt;objective11&gt;</text>
<text text-anchor="middle" x="3206" y="-416.76" font-family="Times,serif" font-size="14.00">objective</text>
</g>
<!-- n46&#45;&gt;n5 -->
<g id="edge34" class="edge"><title>n46&#45;&gt;n5</title>
<path fill="none" stroke="black" d="M3158.21,-408.568C3148.87,-405.016 3139.14,-401.348 3130,-397.96 3107.85,-389.75 3102.12,-388.241 3080,-379.96 3012.13,-354.55 2934.42,-324.124 2883.68,-304.073"/>
<polygon fill="black" stroke="black" points="2884.8,-300.753 2874.21,-300.33 2882.22,-307.262 2884.8,-300.753"/>
<text text-anchor="middle" x="3136" y="-349.39" font-family="Times,serif" font-size="14.00"> static(visible_from)</text>
</g>
<!-- n46&#45;&gt;n29 -->
<g id="edge31" class="edge"><title>n46&#45;&gt;n29</title>
<path fill="none" stroke="black" d="M3208.36,-400.96C3211.54,-355.155 3213.84,-257.821 3185,-182.74 3162.81,-124.988 3147.38,-112.685 3101,-71.7401 3093.12,-64.7869 3083.98,-58.3964 3074.81,-52.7699"/>
<polygon fill="black" stroke="black" points="3076.46,-49.6763 3066.07,-47.6162 3072.9,-55.7076 3076.46,-49.6763"/>
<text text-anchor="middle" x="3256" y="-205.91" font-family="Times,serif" font-size="14.00"> static(visible_from)</text>
</g>
</g>
</svg>
