<?xml version="1.0" encoding="UTF-8" standalone="no"?>
<!DOCTYPE svg PUBLIC "-//W3C//DTD SVG 1.1//EN"
 "http://www.w3.org/Graphics/SVG/1.1/DTD/svg11.dtd">
<!-- Generated by graphviz version 2.38.0 (20140413.2041)
 -->
<!-- Title: Struc Pages: 1 -->
<svg width="969pt" height="505pt"
 viewBox="0.00 0.00 968.62 504.70" xmlns="http://www.w3.org/2000/svg" xmlns:xlink="http://www.w3.org/1999/xlink">
<g id="graph0" class="graph" transform="scale(1 1) rotate(0) translate(4 500.701)">
<title>Struc</title>
<polygon fill="white" stroke="none" points="-4,4 -4,-500.701 964.619,-500.701 964.619,4 -4,4"/>
<!-- n1 -->
<g id="node1" class="node"><title>n1</title>
<ellipse fill="none" stroke="black" cx="639.619" cy="-465.831" rx="56.6326" ry="26.7574"/>
<ellipse fill="none" stroke="black" cx="639.619" cy="-465.831" rx="60.6372" ry="30.7407"/>
<text text-anchor="middle" x="639.619" y="-469.631" font-family="Times,serif" font-size="14.00">&lt;camera5&gt;</text>
<text text-anchor="middle" x="639.619" y="-454.631" font-family="Times,serif" font-size="14.00">camera</text>
</g>
<!-- n2 -->
<g id="node2" class="node"><title>n2</title>
<ellipse fill="none" stroke="black" cx="873.619" cy="-240.35" rx="56.6326" ry="26.7574"/>
<ellipse fill="none" stroke="black" cx="873.619" cy="-240.35" rx="60.6372" ry="30.7407"/>
<text text-anchor="middle" x="873.619" y="-244.15" font-family="Times,serif" font-size="14.00">&lt;high_res&gt;</text>
<text text-anchor="middle" x="873.619" y="-229.15" font-family="Times,serif" font-size="14.00">mode</text>
</g>
<!-- n1&#45;&gt;n2 -->
<g id="edge21" class="edge"><title>n1&#45;&gt;n2</title>
<path fill="none" stroke="black" stroke-dasharray="5,2" d="M695.182,-453.092C722.452,-445.617 754.885,-434.052 780.619,-416.96 836.412,-379.906 856.849,-366.838 880.619,-304.22 883.356,-297.01 884.064,-289.024 883.652,-281.231"/>
<polygon fill="black" stroke="black" points="887.118,-280.733 882.539,-271.179 880.16,-281.503 887.118,-280.733"/>
<text text-anchor="middle" x="916.619" y="-349.39" font-family="Times,serif" font-size="14.00"> static(supports)</text>
</g>
<!-- n3 -->
<g id="node3" class="node"><title>n3</title>
<ellipse fill="none" stroke="black" cx="240.619" cy="-353.09" rx="48.1667" ry="26.7407"/>
<text text-anchor="middle" x="240.619" y="-356.89" font-family="Times,serif" font-size="14.00">&lt;rover0&gt;</text>
<text text-anchor="middle" x="240.619" y="-341.89" font-family="Times,serif" font-size="14.00">rover</text>
</g>
<!-- n1&#45;&gt;n3 -->
<g id="edge10" class="edge"><title>n1&#45;&gt;n3</title>
<path fill="none" stroke="black" d="M587.046,-450.239C510.494,-428.993 369.174,-389.77 292.827,-368.581"/>
<polygon fill="black" stroke="black" points="293.52,-365.141 282.948,-365.839 291.648,-371.886 293.52,-365.141"/>
<text text-anchor="middle" x="511.119" y="-405.76" font-family="Times,serif" font-size="14.00"> static(on_board)</text>
</g>
<!-- n6 -->
<g id="node6" class="node"><title>n6</title>
<ellipse fill="none" stroke="black" cx="639.619" cy="-353.09" rx="67.7712" ry="26.7574"/>
<ellipse fill="none" stroke="black" cx="639.619" cy="-353.09" rx="71.7647" ry="30.7407"/>
<text text-anchor="middle" x="639.619" y="-356.89" font-family="Times,serif" font-size="14.00">&lt;objective12&gt;</text>
<text text-anchor="middle" x="639.619" y="-341.89" font-family="Times,serif" font-size="14.00">objective</text>
</g>
<!-- n1&#45;&gt;n6 -->
<g id="edge14" class="edge"><title>n1&#45;&gt;n6</title>
<path fill="none" stroke="black" stroke-dasharray="5,2" d="M639.619,-434.863C639.619,-422.429 639.619,-407.813 639.619,-394.458"/>
<polygon fill="black" stroke="black" points="643.119,-394.082 639.619,-384.082 636.119,-394.082 643.119,-394.082"/>
<text text-anchor="middle" x="708.119" y="-405.76" font-family="Times,serif" font-size="14.00"> static(calibration_target)</text>
</g>
<!-- n3&#45;&gt;n3 -->
<g id="edge1" class="edge"><title>n3&#45;&gt;n3</title>
<path fill="none" stroke="black" d="M285.093,-363.526C297.342,-363.022 306.702,-359.544 306.702,-353.09 306.702,-348.553 302.075,-345.486 295.069,-343.89"/>
<polygon fill="black" stroke="black" points="295.448,-340.41 285.093,-342.654 294.587,-347.357 295.448,-340.41"/>
<text text-anchor="middle" x="404.202" y="-371.89" font-family="Times,serif" font-size="14.00"> static(equipped_for_rock_analysis)</text>
<text text-anchor="middle" x="404.202" y="-356.89" font-family="Times,serif" font-size="14.00">static(equipped_for_imaging)</text>
<text text-anchor="middle" x="404.202" y="-341.89" font-family="Times,serif" font-size="14.00">init(available)</text>
<text text-anchor="middle" x="404.202" y="-326.89" font-family="Times,serif" font-size="14.00">static(equipped_for_soil_analysis)</text>
</g>
<!-- n9 -->
<g id="node9" class="node"><title>n9</title>
<ellipse fill="none" stroke="black" cx="374.619" cy="-240.35" rx="63.7795" ry="26.7407"/>
<text text-anchor="middle" x="374.619" y="-244.15" font-family="Times,serif" font-size="14.00">&lt;waypoint2&gt;</text>
<text text-anchor="middle" x="374.619" y="-229.15" font-family="Times,serif" font-size="14.00">waypoint</text>
</g>
<!-- n3&#45;&gt;n9 -->
<g id="edge22" class="edge"><title>n3&#45;&gt;n9</title>
<path fill="none" stroke="black" d="M266.773,-330.476C287.213,-313.584 315.854,-289.915 338.483,-271.213"/>
<polygon fill="black" stroke="black" points="340.735,-273.893 346.214,-264.825 336.276,-268.497 340.735,-273.893"/>
<text text-anchor="middle" x="337.119" y="-293.02" font-family="Times,serif" font-size="14.00"> init(at)</text>
</g>
<!-- n4 -->
<g id="node4" class="node"><title>n4</title>
<ellipse fill="none" stroke="black" cx="51.6188" cy="-131.61" rx="51.7379" ry="26.7407"/>
<text text-anchor="middle" x="51.6188" y="-135.41" font-family="Times,serif" font-size="14.00">&lt;general&gt;</text>
<text text-anchor="middle" x="51.6188" y="-120.41" font-family="Times,serif" font-size="14.00">lander</text>
</g>
<!-- n4&#45;&gt;n4 -->
<g id="edge2" class="edge"><title>n4&#45;&gt;n4</title>
<path fill="none" stroke="black" d="M100.096,-141.226C112.195,-140.554 121.238,-137.348 121.238,-131.61 121.238,-127.665 116.963,-124.917 110.361,-123.367"/>
<polygon fill="black" stroke="black" points="110.472,-119.85 100.096,-121.994 109.544,-126.789 110.472,-119.85"/>
<text text-anchor="middle" x="171.738" y="-127.91" font-family="Times,serif" font-size="14.00"> init(channel_free)</text>
</g>
<!-- n7 -->
<g id="node7" class="node"><title>n7</title>
<ellipse fill="none" stroke="black" cx="355.619" cy="-26.8701" rx="63.7795" ry="26.7407"/>
<text text-anchor="middle" x="355.619" y="-30.6701" font-family="Times,serif" font-size="14.00">&lt;waypoint0&gt;</text>
<text text-anchor="middle" x="355.619" y="-15.6701" font-family="Times,serif" font-size="14.00">waypoint</text>
</g>
<!-- n4&#45;&gt;n7 -->
<g id="edge9" class="edge"><title>n4&#45;&gt;n7</title>
<path fill="none" stroke="black" d="M79.8881,-108.929C97.6068,-96.3289 121.416,-81.1336 144.619,-71.7401 189.314,-53.646 242.481,-42.6518 284.264,-36.1946"/>
<polygon fill="black" stroke="black" points="284.983,-39.6262 294.356,-34.6884 283.949,-32.7029 284.983,-39.6262"/>
<text text-anchor="middle" x="190.619" y="-75.5401" font-family="Times,serif" font-size="14.00"> static(at_lander)</text>
</g>
<!-- n5 -->
<g id="node5" class="node"><title>n5</title>
<ellipse fill="none" stroke="black" cx="572.619" cy="-131.61" rx="63.7795" ry="26.7407"/>
<text text-anchor="middle" x="572.619" y="-135.41" font-family="Times,serif" font-size="14.00">&lt;waypoint1&gt;</text>
<text text-anchor="middle" x="572.619" y="-120.41" font-family="Times,serif" font-size="14.00">waypoint</text>
</g>
<!-- n5&#45;&gt;n5 -->
<g id="edge3" class="edge"><title>n5&#45;&gt;n5</title>
<path fill="none" stroke="black" d="M632.423,-141.045C645.102,-140.087 654.258,-136.942 654.258,-131.61 654.258,-127.861 649.732,-125.193 642.637,-123.607"/>
<polygon fill="black" stroke="black" points="642.812,-120.097 632.423,-122.175 641.841,-127.029 642.812,-120.097"/>
<text text-anchor="middle" x="710.758" y="-127.91" font-family="Times,serif" font-size="14.00"> init(at_soil_sample)</text>
</g>
<!-- n5&#45;&gt;n7 -->
<g id="edge8" class="edge"><title>n5&#45;&gt;n7</title>
<path fill="none" stroke="black" d="M526.614,-112.947C507.548,-105.318 485.325,-96.0235 465.619,-86.7401 444.22,-76.6597 421.061,-64.4668 401.538,-53.7981"/>
<polygon fill="black" stroke="black" points="403.006,-50.611 392.557,-48.8583 399.632,-56.7445 403.006,-50.611"/>
<text text-anchor="middle" x="504.619" y="-75.5401" font-family="Times,serif" font-size="14.00"> static(visible)</text>
</g>
<!-- n5&#45;&gt;n9 -->
<g id="edge17" class="edge"><title>n5&#45;&gt;n9</title>
<path fill="none" stroke="black" d="M522.75,-148.434C502.302,-155.774 478.757,-165.35 458.619,-176.48 441.827,-185.762 424.633,-198.048 410.211,-209.296"/>
<polygon fill="black" stroke="black" points="407.716,-206.807 402.063,-215.768 412.07,-212.289 407.716,-206.807"/>
<text text-anchor="middle" x="497.619" y="-180.28" font-family="Times,serif" font-size="14.00"> static(visible)</text>
</g>
<!-- n6&#45;&gt;n2 -->
<g id="edge12" class="edge"><title>n6&#45;&gt;n2</title>
<path fill="none" stroke="black" stroke-dasharray="5,2" d="M659.362,-323.292C669.194,-311.03 682.087,-297.642 696.619,-289.22 728.902,-270.512 742.564,-280.826 778.619,-271.22 790.104,-268.16 802.273,-264.59 813.928,-261.003"/>
<polygon fill="black" stroke="black" points="815.067,-264.315 823.572,-257.998 812.984,-257.632 815.067,-264.315"/>
<text text-anchor="middle" x="788.619" y="-293.02" font-family="Times,serif" font-size="14.00"> end(communicated_image_data)</text>
</g>
<!-- n6&#45;&gt;n5 -->
<g id="edge16" class="edge"><title>n6&#45;&gt;n5</title>
<path fill="none" stroke="black" stroke-dasharray="5,2" d="M647.022,-322.337C654.463,-285.619 661.61,-222.417 636.619,-176.48 632.99,-169.809 627.855,-163.949 622.054,-158.866"/>
<polygon fill="black" stroke="black" points="623.842,-155.82 613.81,-152.413 619.527,-161.332 623.842,-155.82"/>
<text text-anchor="middle" x="709.619" y="-236.65" font-family="Times,serif" font-size="14.00"> static(visible_from)</text>
</g>
<!-- n6&#45;&gt;n7 -->
<g id="edge13" class="edge"><title>n6&#45;&gt;n7</title>
<path fill="none" stroke="black" d="M577.49,-337.522C480.673,-314.778 304.495,-273.21 301.619,-271.22 261.76,-243.647 235.494,-223.405 247.619,-176.48 260.931,-124.96 272.236,-113.178 305.619,-71.7401 309.425,-67.016 313.774,-62.3835 318.283,-58.0038"/>
<polygon fill="black" stroke="black" points="320.996,-60.2624 325.956,-50.9004 316.24,-55.1258 320.996,-60.2624"/>
<text text-anchor="middle" x="303.619" y="-180.28" font-family="Times,serif" font-size="14.00"> static(visible_from)</text>
</g>
<!-- n6&#45;&gt;n9 -->
<g id="edge18" class="edge"><title>n6&#45;&gt;n9</title>
<path fill="none" stroke="black" stroke-dasharray="5,2" d="M589.151,-331C543.069,-311.744 475.164,-283.367 428.147,-263.719"/>
<polygon fill="black" stroke="black" points="429.317,-260.415 418.741,-259.788 426.618,-266.873 429.317,-260.415"/>
<text text-anchor="middle" x="579.619" y="-293.02" font-family="Times,serif" font-size="14.00"> static(visible_from)</text>
</g>
<!-- n7&#45;&gt;n5 -->
<g id="edge19" class="edge"><title>n7&#45;&gt;n5</title>
<path fill="none" stroke="black" d="M419.052,-29.2341C458.588,-33.0994 508.449,-43.81 543.619,-71.7401 551.366,-77.8928 557.195,-86.645 561.514,-95.5253"/>
<polygon fill="black" stroke="black" points="558.308,-96.9299 565.487,-104.722 564.734,-94.1541 558.308,-96.9299"/>
<text text-anchor="middle" x="595.619" y="-75.5401" font-family="Times,serif" font-size="14.00"> static(visible)</text>
</g>
<!-- n7&#45;&gt;n7 -->
<g id="edge4" class="edge"><title>n7&#45;&gt;n7</title>
<path fill="none" stroke="black" d="M415.423,-36.3053C428.102,-35.3472 437.258,-32.2021 437.258,-26.8701 437.258,-23.121 432.732,-20.4531 425.637,-18.8664"/>
<polygon fill="black" stroke="black" points="425.812,-15.3569 415.423,-17.4349 424.841,-22.2891 425.812,-15.3569"/>
<text text-anchor="middle" x="521.758" y="-30.6701" font-family="Times,serif" font-size="14.00"> end(communicated_soil_data)</text>
<text text-anchor="middle" x="521.758" y="-15.6701" font-family="Times,serif" font-size="14.00">init(at_soil_sample)</text>
</g>
<!-- n7&#45;&gt;n9 -->
<g id="edge11" class="edge"><title>n7&#45;&gt;n9</title>
<path fill="none" stroke="black" d="M367.564,-53.5126C381.053,-85.6029 400.088,-142.325 391.619,-191.48 390.931,-195.473 389.942,-199.574 388.784,-203.616"/>
<polygon fill="black" stroke="black" points="385.352,-202.855 385.626,-213.447 392.016,-204.996 385.352,-202.855"/>
<text text-anchor="middle" x="432.619" y="-127.91" font-family="Times,serif" font-size="14.00"> static(visible)</text>
</g>
<!-- n8 -->
<g id="node8" class="node"><title>n8</title>
<ellipse fill="none" stroke="black" cx="240.619" cy="-465.831" rx="67.3507" ry="26.7407"/>
<text text-anchor="middle" x="240.619" y="-469.631" font-family="Times,serif" font-size="14.00">&lt;rover0store&gt;</text>
<text text-anchor="middle" x="240.619" y="-454.631" font-family="Times,serif" font-size="14.00">store</text>
</g>
<!-- n8&#45;&gt;n3 -->
<g id="edge15" class="edge"><title>n8&#45;&gt;n3</title>
<path fill="none" stroke="black" d="M240.619,-438.867C240.619,-424.393 240.619,-406.143 240.619,-390.286"/>
<polygon fill="black" stroke="black" points="244.119,-390.275 240.619,-380.275 237.119,-390.275 244.119,-390.275"/>
<text text-anchor="middle" x="283.619" y="-405.76" font-family="Times,serif" font-size="14.00"> static(store_of)</text>
</g>
<!-- n8&#45;&gt;n8 -->
<g id="edge5" class="edge"><title>n8&#45;&gt;n8</title>
<path fill="none" stroke="black" d="M303.013,-475.991C316.241,-474.96 325.794,-471.573 325.794,-465.831 325.794,-461.658 320.751,-458.73 312.92,-457.044"/>
<polygon fill="black" stroke="black" points="313.399,-453.577 303.013,-455.67 312.437,-460.511 313.399,-453.577"/>
<text text-anchor="middle" x="358.794" y="-462.131" font-family="Times,serif" font-size="14.00"> init(empty)</text>
</g>
<!-- n9&#45;&gt;n5 -->
<g id="edge7" class="edge"><title>n9&#45;&gt;n5</title>
<path fill="none" stroke="black" d="M436.371,-233.238C470.161,-227.212 511.041,-215.244 540.619,-191.48 548.494,-185.153 554.708,-176.345 559.482,-167.467"/>
<polygon fill="black" stroke="black" points="562.719,-168.814 563.945,-158.291 556.424,-165.753 562.719,-168.814"/>
<text text-anchor="middle" x="593.619" y="-180.28" font-family="Times,serif" font-size="14.00"> static(visible)</text>
</g>
<!-- n9&#45;&gt;n7 -->
<g id="edge20" class="edge"><title>n9&#45;&gt;n7</title>
<path fill="none" stroke="black" d="M376.08,-213.389C375.418,-200.857 372.449,-186.422 363.619,-176.48 345.13,-155.665 320.238,-180.817 303.619,-158.48 281.408,-128.629 304.092,-88.0121 326.077,-60.0383"/>
<polygon fill="black" stroke="black" points="328.907,-62.1053 332.523,-52.1464 323.486,-57.6771 328.907,-62.1053"/>
<text text-anchor="middle" x="342.619" y="-127.91" font-family="Times,serif" font-size="14.00"> static(visible)</text>
</g>
<!-- n9&#45;&gt;n9 -->
<g id="edge6" class="edge"><title>n9&#45;&gt;n9</title>
<path fill="none" stroke="black" d="M433.695,-250.568C446.75,-249.608 456.258,-246.202 456.258,-240.35 456.258,-236.144 451.346,-233.202 443.736,-231.523"/>
<polygon fill="black" stroke="black" points="444.081,-228.038 433.695,-230.133 443.12,-234.972 444.081,-228.038"/>
<text text-anchor="middle" x="541.258" y="-259.15" font-family="Times,serif" font-size="14.00"> end(communicated_soil_data)</text>
<text text-anchor="middle" x="541.258" y="-244.15" font-family="Times,serif" font-size="14.00">init(at_soil_sample)</text>
<text text-anchor="middle" x="541.258" y="-229.15" font-family="Times,serif" font-size="14.00">end(communicated_rock_data)</text>
<text text-anchor="middle" x="541.258" y="-214.15" font-family="Times,serif" font-size="14.00">init(at_rock_sample)</text>
</g>
</g>
</svg>
