<?xml version="1.0" encoding="UTF-8" standalone="no"?>
<!DOCTYPE svg PUBLIC "-//W3C//DTD SVG 1.1//EN"
 "http://www.w3.org/Graphics/SVG/1.1/DTD/svg11.dtd">
<!-- Generated by graphviz version 2.38.0 (20140413.2041)
 -->
<!-- Title: Struc Pages: 1 -->
<svg width="5192pt" height="493pt"
 viewBox="0.00 0.00 5191.88 493.22" xmlns="http://www.w3.org/2000/svg" xmlns:xlink="http://www.w3.org/1999/xlink">
<g id="graph0" class="graph" transform="scale(1 1) rotate(0) translate(4 489.22)">
<title>Struc</title>
<polygon fill="white" stroke="none" points="-4,4 -4,-489.22 5187.88,-489.22 5187.88,4 -4,4"/>
<!-- n1 -->
<g id="node1" class="node"><title>n1</title>
<ellipse fill="none" stroke="black" cx="2793.88" cy="-458.35" rx="56.6372" ry="26.7407"/>
<text text-anchor="middle" x="2793.88" y="-462.15" font-family="Times,serif" font-size="14.00">&lt;camera1&gt;</text>
<text text-anchor="middle" x="2793.88" y="-447.15" font-family="Times,serif" font-size="14.00">camera</text>
</g>
<!-- n14 -->
<g id="node14" class="node"><title>n14</title>
<ellipse fill="none" stroke="black" cx="1034.88" cy="-350.48" rx="62.8651" ry="26.7407"/>
<text text-anchor="middle" x="1034.88" y="-354.28" font-family="Times,serif" font-size="14.00">&lt;objective2&gt;</text>
<text text-anchor="middle" x="1034.88" y="-339.28" font-family="Times,serif" font-size="14.00">objective</text>
</g>
<!-- n1&#45;&gt;n14 -->
<g id="edge57" class="edge"><title>n1&#45;&gt;n14</title>
<path fill="none" stroke="black" d="M2739.67,-450.504C2634.97,-437.616 2397.56,-410.012 2196.88,-398.48 2075.95,-391.531 1225.6,-404.51 1106.88,-380.48 1099.8,-379.047 1092.52,-376.941 1085.45,-374.508"/>
<polygon fill="black" stroke="black" points="1086.55,-371.186 1075.96,-371.02 1084.14,-377.756 1086.55,-371.186"/>
<text text-anchor="middle" x="2463.38" y="-402.28" font-family="Times,serif" font-size="14.00"> static(calibration_target)</text>
</g>
<!-- n20 -->
<g id="node20" class="node"><title>n20</title>
<ellipse fill="none" stroke="black" cx="3661.88" cy="-242.61" rx="48.1667" ry="26.7407"/>
<text text-anchor="middle" x="3661.88" y="-246.41" font-family="Times,serif" font-size="14.00">&lt;colour&gt;</text>
<text text-anchor="middle" x="3661.88" y="-231.41" font-family="Times,serif" font-size="14.00">mode</text>
</g>
<!-- n1&#45;&gt;n20 -->
<g id="edge22" class="edge"><title>n1&#45;&gt;n20</title>
<path fill="none" stroke="black" d="M2798.72,-431.552C2802.4,-419.438 2808.8,-406.031 2819.88,-398.48 2859.77,-371.301 3210.51,-401.642 3253.88,-380.48 3285.34,-365.135 3273.54,-336.062 3304.88,-320.48 3368.26,-288.967 3561.5,-337.718 3622.88,-302.48 3632.81,-296.779 3640.69,-287.401 3646.69,-277.788"/>
<polygon fill="black" stroke="black" points="3649.79,-279.418 3651.67,-268.993 3643.7,-275.966 3649.79,-279.418"/>
<text text-anchor="middle" x="3348.88" y="-346.78" font-family="Times,serif" font-size="14.00"> static(supports)</text>
</g>
<!-- n22 -->
<g id="node22" class="node"><title>n22</title>
<ellipse fill="none" stroke="black" cx="2896.88" cy="-242.61" rx="56.6372" ry="26.7407"/>
<text text-anchor="middle" x="2896.88" y="-246.41" font-family="Times,serif" font-size="14.00">&lt;high_res&gt;</text>
<text text-anchor="middle" x="2896.88" y="-231.41" font-family="Times,serif" font-size="14.00">mode</text>
</g>
<!-- n1&#45;&gt;n22 -->
<g id="edge69" class="edge"><title>n1&#45;&gt;n22</title>
<path fill="none" stroke="black" d="M2785.95,-431.537C2776.67,-395.906 2765.96,-331.116 2794.88,-287.48 2804.41,-273.108 2819.73,-263.423 2835.63,-256.905"/>
<polygon fill="black" stroke="black" points="2836.86,-260.181 2845.02,-253.422 2834.43,-253.617 2836.86,-260.181"/>
<text text-anchor="middle" x="2824.88" y="-346.78" font-family="Times,serif" font-size="14.00"> static(supports)</text>
</g>
<!-- n30 -->
<g id="node30" class="node"><title>n30</title>
<ellipse fill="none" stroke="black" cx="3930.88" cy="-350.48" rx="48.1667" ry="26.7407"/>
<text text-anchor="middle" x="3930.88" y="-354.28" font-family="Times,serif" font-size="14.00">&lt;rover0&gt;</text>
<text text-anchor="middle" x="3930.88" y="-339.28" font-family="Times,serif" font-size="14.00">rover</text>
</g>
<!-- n1&#45;&gt;n30 -->
<g id="edge43" class="edge"><title>n1&#45;&gt;n30</title>
<path fill="none" stroke="black" d="M2848.92,-451.9C2909.27,-445.316 3008.74,-432.675 3092.88,-413.48 3114.67,-408.509 3118.83,-402.125 3140.88,-398.48 3300.54,-372.091 3711.36,-417.549 3868.88,-380.48 3875.41,-378.944 3882.07,-376.676 3888.49,-374.073"/>
<polygon fill="black" stroke="black" points="3889.92,-377.271 3897.69,-370.066 3887.12,-370.854 3889.92,-377.271"/>
<text text-anchor="middle" x="3187.38" y="-402.28" font-family="Times,serif" font-size="14.00"> static(on_board)</text>
</g>
<!-- n2 -->
<g id="node2" class="node"><title>n2</title>
<ellipse fill="none" stroke="black" cx="3249.88" cy="-458.35" rx="56.6372" ry="26.7407"/>
<text text-anchor="middle" x="3249.88" y="-462.15" font-family="Times,serif" font-size="14.00">&lt;camera4&gt;</text>
<text text-anchor="middle" x="3249.88" y="-447.15" font-family="Times,serif" font-size="14.00">camera</text>
</g>
<!-- n2&#45;&gt;n14 -->
<g id="edge41" class="edge"><title>n2&#45;&gt;n14</title>
<path fill="none" stroke="black" d="M3193.16,-457.601C3131.39,-455.95 3030.87,-447.551 2951.88,-413.48 2942,-409.219 2943.03,-402.059 2932.88,-398.48 2837.21,-364.737 1206.38,-400.275 1106.88,-380.48 1099.79,-379.07 1092.52,-376.978 1085.44,-374.552"/>
<polygon fill="black" stroke="black" points="1086.54,-371.229 1075.95,-371.07 1084.13,-377.801 1086.54,-371.229"/>
<text text-anchor="middle" x="3020.38" y="-402.28" font-family="Times,serif" font-size="14.00"> static(calibration_target)</text>
</g>
<!-- n16 -->
<g id="node16" class="node"><title>n16</title>
<ellipse fill="none" stroke="black" cx="4730.88" cy="-242.61" rx="53.9813" ry="26.7407"/>
<text text-anchor="middle" x="4730.88" y="-246.41" font-family="Times,serif" font-size="14.00">&lt;low_res&gt;</text>
<text text-anchor="middle" x="4730.88" y="-231.41" font-family="Times,serif" font-size="14.00">mode</text>
</g>
<!-- n2&#45;&gt;n16 -->
<g id="edge67" class="edge"><title>n2&#45;&gt;n16</title>
<path fill="none" stroke="black" d="M3297.37,-443.273C3354.6,-426.342 3444.13,-399.987 3451.88,-398.48 3491.13,-390.855 3599.29,-404.985 3630.88,-380.48 3653.32,-363.071 3632.02,-339.758 3652.88,-320.48 3692.87,-283.519 3717.11,-296.112 3770.88,-287.48 3944.18,-259.66 4481.07,-247.936 4666.84,-244.642"/>
<polygon fill="black" stroke="black" points="4667.06,-248.139 4677,-244.464 4666.94,-241.14 4667.06,-248.139"/>
<text text-anchor="middle" x="3696.88" y="-346.78" font-family="Times,serif" font-size="14.00"> static(supports)</text>
</g>
<!-- n2&#45;&gt;n22 -->
<g id="edge15" class="edge"><title>n2&#45;&gt;n22</title>
<path fill="none" stroke="black" d="M3238.56,-431.851C3231.76,-419.656 3221.89,-406.089 3208.88,-398.48 3172.85,-377.404 3053.48,-407.761 3021.88,-380.48 2989.65,-352.657 3026.43,-319.949 2998.88,-287.48 2987.94,-274.577 2972.5,-265.364 2956.95,-258.828"/>
<polygon fill="black" stroke="black" points="2957.88,-255.435 2947.29,-255.096 2955.35,-261.964 2957.88,-255.435"/>
<text text-anchor="middle" x="3065.88" y="-346.78" font-family="Times,serif" font-size="14.00"> static(supports)</text>
</g>
<!-- n2&#45;&gt;n30 -->
<g id="edge73" class="edge"><title>n2&#45;&gt;n30</title>
<path fill="none" stroke="black" d="M3296.91,-443.076C3311.27,-439.004 3327.15,-434.781 3341.88,-431.48 3388.94,-420.938 3404.8,-433.033 3448.88,-413.48 3458.72,-409.118 3457.8,-402.236 3467.88,-398.48 3551.47,-367.343 3782.26,-401.786 3868.88,-380.48 3875.39,-378.878 3882.05,-376.573 3888.47,-373.953"/>
<polygon fill="black" stroke="black" points="3889.9,-377.148 3897.65,-369.934 3887.09,-370.735 3889.9,-377.148"/>
<text text-anchor="middle" x="3514.38" y="-402.28" font-family="Times,serif" font-size="14.00"> static(on_board)</text>
</g>
<!-- n3 -->
<g id="node3" class="node"><title>n3</title>
<ellipse fill="none" stroke="black" cx="3181.88" cy="-350.48" rx="62.8651" ry="26.7407"/>
<text text-anchor="middle" x="3181.88" y="-354.28" font-family="Times,serif" font-size="14.00">&lt;objective9&gt;</text>
<text text-anchor="middle" x="3181.88" y="-339.28" font-family="Times,serif" font-size="14.00">objective</text>
</g>
<!-- n4 -->
<g id="node4" class="node"><title>n4</title>
<ellipse fill="none" stroke="black" cx="1312.88" cy="-137.87" rx="63.7795" ry="26.7407"/>
<text text-anchor="middle" x="1312.88" y="-141.67" font-family="Times,serif" font-size="14.00">&lt;waypoint1&gt;</text>
<text text-anchor="middle" x="1312.88" y="-126.67" font-family="Times,serif" font-size="14.00">waypoint</text>
</g>
<!-- n3&#45;&gt;n4 -->
<g id="edge11" class="edge"><title>n3&#45;&gt;n4</title>
<path fill="none" stroke="black" d="M3223.02,-330.076C3231.75,-326.488 3241.01,-323.064 3249.88,-320.48 3298.48,-306.327 3391.33,-326.33 3358.88,-287.48 3244.23,-150.193 3140.61,-235.889 2962.88,-215.74 2357.12,-147.066 1619.58,-139.439 1386.87,-138.827"/>
<polygon fill="black" stroke="black" points="1386.84,-135.327 1376.83,-138.805 1386.82,-142.327 1386.84,-135.327"/>
<text text-anchor="middle" x="3395.88" y="-238.91" font-family="Times,serif" font-size="14.00"> static(visible_from)</text>
</g>
<!-- n3&#45;&gt;n22 -->
<g id="edge56" class="edge"><title>n3&#45;&gt;n22</title>
<path fill="none" stroke="black" d="M3178.45,-323.637C3175.41,-310.903 3169.68,-296.404 3158.88,-287.48 3129.8,-263.445 3030.89,-252.213 2963.27,-247.236"/>
<polygon fill="black" stroke="black" points="2963.34,-243.733 2953.12,-246.519 2962.85,-250.715 2963.34,-243.733"/>
<text text-anchor="middle" x="3262.88" y="-291.28" font-family="Times,serif" font-size="14.00"> end(communicated_image_data)</text>
</g>
<!-- n23 -->
<g id="node23" class="node"><title>n23</title>
<ellipse fill="none" stroke="black" cx="877.882" cy="-242.61" rx="63.7795" ry="26.7407"/>
<text text-anchor="middle" x="877.882" y="-246.41" font-family="Times,serif" font-size="14.00">&lt;waypoint0&gt;</text>
<text text-anchor="middle" x="877.882" y="-231.41" font-family="Times,serif" font-size="14.00">waypoint</text>
</g>
<!-- n3&#45;&gt;n23 -->
<g id="edge28" class="edge"><title>n3&#45;&gt;n23</title>
<path fill="none" stroke="black" d="M3136.49,-331.716C3126.15,-327.858 3115.18,-323.909 3104.88,-320.48 3077.66,-311.417 3068.39,-315.614 3042.88,-302.48 3033.32,-297.556 3034.03,-291.057 3023.88,-287.48 2974.6,-270.107 1195.06,-272.271 1142.88,-269.48 1076.86,-265.948 1001.89,-258.287 948.579,-252.214"/>
<polygon fill="black" stroke="black" points="948.884,-248.726 938.55,-251.061 948.085,-255.68 948.884,-248.726"/>
<text text-anchor="middle" x="3098.88" y="-291.28" font-family="Times,serif" font-size="14.00"> static(visible_from)</text>
</g>
<!-- n4&#45;&gt;n4 -->
<g id="edge1" class="edge"><title>n4&#45;&gt;n4</title>
<path fill="none" stroke="black" d="M1372.69,-147.305C1385.37,-146.347 1394.52,-143.202 1394.52,-137.87 1394.52,-134.121 1390,-131.453 1382.9,-129.866"/>
<polygon fill="black" stroke="black" points="1383.08,-126.357 1372.69,-128.435 1382.1,-133.289 1383.08,-126.357"/>
<text text-anchor="middle" x="1451.02" y="-134.17" font-family="Times,serif" font-size="14.00"> init(at_soil_sample)</text>
</g>
<!-- n5 -->
<g id="node5" class="node"><title>n5</title>
<ellipse fill="none" stroke="black" cx="1311.88" cy="-30" rx="63.7795" ry="26.7407"/>
<text text-anchor="middle" x="1311.88" y="-33.8" font-family="Times,serif" font-size="14.00">&lt;waypoint2&gt;</text>
<text text-anchor="middle" x="1311.88" y="-18.8" font-family="Times,serif" font-size="14.00">waypoint</text>
</g>
<!-- n4&#45;&gt;n5 -->
<g id="edge52" class="edge"><title>n4&#45;&gt;n5</title>
<path fill="none" stroke="black" d="M1279.63,-114.873C1272.85,-108.669 1266.65,-101.31 1262.88,-93 1257.6,-81.3481 1262.67,-69.9597 1271.25,-60.1884"/>
<polygon fill="black" stroke="black" points="1273.78,-62.6018 1278.37,-53.0539 1268.83,-57.6542 1273.78,-62.6018"/>
<text text-anchor="middle" x="1301.88" y="-81.8" font-family="Times,serif" font-size="14.00"> static(visible)</text>
</g>
<!-- n4&#45;&gt;n23 -->
<g id="edge13" class="edge"><title>n4&#45;&gt;n23</title>
<path fill="none" stroke="black" d="M1250.02,-142.594C1161.99,-148.485 1006.92,-161.512 954.882,-182.74 938.625,-189.372 922.828,-200.378 909.817,-211.091"/>
<polygon fill="black" stroke="black" points="907.43,-208.526 902.097,-217.681 911.975,-213.85 907.43,-208.526"/>
<text text-anchor="middle" x="993.882" y="-186.54" font-family="Times,serif" font-size="14.00"> static(visible)</text>
</g>
<!-- n5&#45;&gt;n4 -->
<g id="edge75" class="edge"><title>n5&#45;&gt;n4</title>
<path fill="none" stroke="black" d="M1330.89,-56.1399C1334.99,-62.8959 1338.74,-70.4363 1340.88,-78 1343.28,-86.4518 1341.65,-95.1908 1338.21,-103.266"/>
<polygon fill="black" stroke="black" points="1334.98,-101.895 1333.48,-112.383 1341.19,-105.119 1334.98,-101.895"/>
<text text-anchor="middle" x="1381.88" y="-81.8" font-family="Times,serif" font-size="14.00"> static(visible)</text>
</g>
<!-- n5&#45;&gt;n5 -->
<g id="edge2" class="edge"><title>n5&#45;&gt;n5</title>
<path fill="none" stroke="black" d="M1371.32,-39.8259C1384.19,-38.8651 1393.52,-35.5898 1393.52,-30 1393.52,-26.0696 1388.91,-23.2836 1381.7,-21.6418"/>
<polygon fill="black" stroke="black" points="1381.72,-18.1096 1371.32,-20.1741 1380.73,-25.0406 1381.72,-18.1096"/>
<text text-anchor="middle" x="1478.52" y="-48.8" font-family="Times,serif" font-size="14.00"> end(communicated_soil_data)</text>
<text text-anchor="middle" x="1478.52" y="-33.8" font-family="Times,serif" font-size="14.00">init(at_soil_sample)</text>
<text text-anchor="middle" x="1478.52" y="-18.8" font-family="Times,serif" font-size="14.00">end(communicated_rock_data)</text>
<text text-anchor="middle" x="1478.52" y="-3.8" font-family="Times,serif" font-size="14.00">init(at_rock_sample)</text>
</g>
<!-- n5&#45;&gt;n23 -->
<g id="edge62" class="edge"><title>n5&#45;&gt;n23</title>
<path fill="none" stroke="black" d="M1256.38,-43.2973C1177.22,-62.8324 1029.98,-106.736 925.882,-182.74 916.244,-189.777 907.422,-199.195 900.044,-208.431"/>
<polygon fill="black" stroke="black" points="897.221,-206.361 893.947,-216.437 902.79,-210.602 897.221,-206.361"/>
<text text-anchor="middle" x="1090.88" y="-134.17" font-family="Times,serif" font-size="14.00"> static(visible)</text>
</g>
<!-- n6 -->
<g id="node6" class="node"><title>n6</title>
<ellipse fill="none" stroke="black" cx="1948.88" cy="-350.48" rx="67.7647" ry="26.7407"/>
<text text-anchor="middle" x="1948.88" y="-354.28" font-family="Times,serif" font-size="14.00">&lt;objective10&gt;</text>
<text text-anchor="middle" x="1948.88" y="-339.28" font-family="Times,serif" font-size="14.00">objective</text>
</g>
<!-- n6&#45;&gt;n20 -->
<g id="edge26" class="edge"><title>n6&#45;&gt;n20</title>
<path fill="none" stroke="black" d="M1993.35,-329.93C2003.83,-326.114 2015.1,-322.632 2025.88,-320.48 2142.32,-297.247 2447.03,-339.385 2559.88,-302.48 2571.13,-298.802 2570.61,-291.08 2581.88,-287.48 2678.65,-256.585 3394.69,-278.321 3495.88,-269.48 3533.11,-266.227 3574.66,-259.75 3606.88,-254.091"/>
<polygon fill="black" stroke="black" points="3607.76,-257.488 3616.99,-252.287 3606.53,-250.597 3607.76,-257.488"/>
<text text-anchor="middle" x="2673.88" y="-291.28" font-family="Times,serif" font-size="14.00"> end(communicated_image_data)</text>
</g>
<!-- n6&#45;&gt;n22 -->
<g id="edge39" class="edge"><title>n6&#45;&gt;n22</title>
<path fill="none" stroke="black" d="M1965.79,-324.417C1976.42,-310.896 1991.42,-295.396 2008.88,-287.48 2082.95,-253.909 2636.78,-245.881 2830.34,-244.091"/>
<polygon fill="black" stroke="black" points="2830.42,-247.591 2840.38,-244.001 2830.35,-240.591 2830.42,-247.591"/>
<text text-anchor="middle" x="2100.88" y="-291.28" font-family="Times,serif" font-size="14.00"> end(communicated_image_data)</text>
</g>
<!-- n6&#45;&gt;n23 -->
<g id="edge72" class="edge"><title>n6&#45;&gt;n23</title>
<path fill="none" stroke="black" d="M1881.49,-346.974C1794.17,-342.668 1637.62,-331.338 1506.88,-302.48 1486.71,-298.027 1483.16,-291.43 1462.88,-287.48 1323.06,-260.246 1284.91,-280.403 1142.88,-269.48 1077.18,-264.427 1002.47,-256.979 949.164,-251.371"/>
<polygon fill="black" stroke="black" points="949.445,-247.881 939.132,-250.311 948.709,-254.842 949.445,-247.881"/>
<text text-anchor="middle" x="1562.88" y="-291.28" font-family="Times,serif" font-size="14.00"> static(visible_from)</text>
</g>
<!-- n7 -->
<g id="node7" class="node"><title>n7</title>
<ellipse fill="none" stroke="black" cx="361.882" cy="-350.48" rx="62.8651" ry="26.7407"/>
<text text-anchor="middle" x="361.882" y="-354.28" font-family="Times,serif" font-size="14.00">&lt;objective8&gt;</text>
<text text-anchor="middle" x="361.882" y="-339.28" font-family="Times,serif" font-size="14.00">objective</text>
</g>
<!-- n7&#45;&gt;n23 -->
<g id="edge19" class="edge"><title>n7&#45;&gt;n23</title>
<path fill="none" stroke="black" d="M372.23,-323.898C378.942,-310.74 389.041,-295.764 402.882,-287.48 436.491,-267.366 679.828,-253.022 804.564,-246.905"/>
<polygon fill="black" stroke="black" points="804.977,-250.389 814.796,-246.409 804.638,-243.397 804.977,-250.389"/>
<text text-anchor="middle" x="458.882" y="-291.28" font-family="Times,serif" font-size="14.00"> static(visible_from)</text>
</g>
<!-- n8 -->
<g id="node8" class="node"><title>n8</title>
<ellipse fill="none" stroke="black" cx="2528.88" cy="-350.48" rx="62.8651" ry="26.7407"/>
<text text-anchor="middle" x="2528.88" y="-354.28" font-family="Times,serif" font-size="14.00">&lt;objective0&gt;</text>
<text text-anchor="middle" x="2528.88" y="-339.28" font-family="Times,serif" font-size="14.00">objective</text>
</g>
<!-- n8&#45;&gt;n20 -->
<g id="edge14" class="edge"><title>n8&#45;&gt;n20</title>
<path fill="none" stroke="black" d="M2587.81,-340.476C2634.18,-333.773 2700.5,-325.026 2758.88,-320.48 3024.86,-299.77 3093.74,-332.018 3358.88,-302.48 3365.06,-301.792 3521.63,-271.142 3607.21,-254.348"/>
<polygon fill="black" stroke="black" points="3607.89,-257.782 3617.03,-252.421 3606.54,-250.913 3607.89,-257.782"/>
<text text-anchor="middle" x="3528.88" y="-291.28" font-family="Times,serif" font-size="14.00"> end(communicated_image_data)</text>
</g>
<!-- n8&#45;&gt;n23 -->
<g id="edge65" class="edge"><title>n8&#45;&gt;n23</title>
<path fill="none" stroke="black" d="M2468.44,-342.597C2409.75,-335.216 2318.41,-321.877 2240.88,-302.48 2220.84,-297.466 2217.24,-291.033 2196.88,-287.48 2081.5,-267.339 1259.82,-276.176 1142.88,-269.48 1076.87,-265.701 1001.9,-258.069 948.587,-252.069"/>
<polygon fill="black" stroke="black" points="948.888,-248.581 938.557,-250.931 948.099,-255.536 948.888,-248.581"/>
<text text-anchor="middle" x="2296.88" y="-291.28" font-family="Times,serif" font-size="14.00"> static(visible_from)</text>
</g>
<!-- n9 -->
<g id="node9" class="node"><title>n9</title>
<ellipse fill="none" stroke="black" cx="2206.88" cy="-458.35" rx="56.6372" ry="26.7407"/>
<text text-anchor="middle" x="2206.88" y="-462.15" font-family="Times,serif" font-size="14.00">&lt;camera3&gt;</text>
<text text-anchor="middle" x="2206.88" y="-447.15" font-family="Times,serif" font-size="14.00">camera</text>
</g>
<!-- n9&#45;&gt;n6 -->
<g id="edge35" class="edge"><title>n9&#45;&gt;n6</title>
<path fill="none" stroke="black" d="M2156.52,-445.98C2126.65,-438.439 2088.39,-427.376 2055.88,-413.48 2033.9,-404.083 2010.79,-391.128 1991.7,-379.49"/>
<polygon fill="black" stroke="black" points="1993.3,-376.363 1982.95,-374.079 1989.62,-382.317 1993.3,-376.363"/>
<text text-anchor="middle" x="2124.38" y="-402.28" font-family="Times,serif" font-size="14.00"> static(calibration_target)</text>
</g>
<!-- n9&#45;&gt;n22 -->
<g id="edge12" class="edge"><title>n9&#45;&gt;n22</title>
<path fill="none" stroke="black" d="M2199.88,-431.509C2191.45,-394.011 2182.79,-324.918 2220.88,-287.48 2263.67,-245.435 2667.61,-242.542 2829.88,-243.101"/>
<polygon fill="black" stroke="black" points="2830.2,-246.603 2840.22,-243.143 2830.23,-239.603 2830.2,-246.603"/>
<text text-anchor="middle" x="2244.88" y="-346.78" font-family="Times,serif" font-size="14.00"> static(supports)</text>
</g>
<!-- n9&#45;&gt;n30 -->
<g id="edge51" class="edge"><title>n9&#45;&gt;n30</title>
<path fill="none" stroke="black" d="M2261.39,-450.886C2370.85,-438.216 2625.26,-410.321 2839.88,-398.48 2954.06,-392.181 3757.48,-406.271 3868.88,-380.48 3875.42,-378.968 3882.08,-376.712 3888.51,-374.116"/>
<polygon fill="black" stroke="black" points="3889.93,-377.315 3897.7,-370.113 3887.13,-370.897 3889.93,-377.315"/>
<text text-anchor="middle" x="2894.38" y="-402.28" font-family="Times,serif" font-size="14.00"> static(on_board)</text>
</g>
<!-- n10 -->
<g id="node10" class="node"><title>n10</title>
<ellipse fill="none" stroke="black" cx="4331.88" cy="-458.35" rx="67.3507" ry="26.7407"/>
<text text-anchor="middle" x="4331.88" y="-462.15" font-family="Times,serif" font-size="14.00">&lt;rover0store&gt;</text>
<text text-anchor="middle" x="4331.88" y="-447.15" font-family="Times,serif" font-size="14.00">store</text>
</g>
<!-- n10&#45;&gt;n10 -->
<g id="edge3" class="edge"><title>n10&#45;&gt;n10</title>
<path fill="none" stroke="black" d="M4395.03,-467.728C4407.87,-466.707 4417.06,-463.581 4417.06,-458.35 4417.06,-454.673 4412.51,-452.035 4405.35,-450.438"/>
<polygon fill="black" stroke="black" points="4405.42,-446.913 4395.03,-448.972 4404.44,-453.844 4405.42,-446.913"/>
<text text-anchor="middle" x="4450.06" y="-454.65" font-family="Times,serif" font-size="14.00"> init(empty)</text>
</g>
<!-- n10&#45;&gt;n30 -->
<g id="edge63" class="edge"><title>n10&#45;&gt;n30</title>
<path fill="none" stroke="black" d="M4304.29,-433.672C4288.27,-421.205 4267.1,-406.813 4245.88,-398.48 4160.63,-365.003 4053.83,-355.171 3989.05,-352.401"/>
<polygon fill="black" stroke="black" points="3989.15,-348.902 3979.03,-352.014 3988.88,-355.897 3989.15,-348.902"/>
<text text-anchor="middle" x="4316.88" y="-402.28" font-family="Times,serif" font-size="14.00"> static(store_of)</text>
</g>
<!-- n11 -->
<g id="node11" class="node"><title>n11</title>
<ellipse fill="none" stroke="black" cx="2102.88" cy="-350.48" rx="67.7647" ry="26.7407"/>
<text text-anchor="middle" x="2102.88" y="-354.28" font-family="Times,serif" font-size="14.00">&lt;objective13&gt;</text>
<text text-anchor="middle" x="2102.88" y="-339.28" font-family="Times,serif" font-size="14.00">objective</text>
</g>
<!-- n11&#45;&gt;n4 -->
<g id="edge9" class="edge"><title>n11&#45;&gt;n4</title>
<path fill="none" stroke="black" d="M2057.94,-330.096C2047.58,-326.322 2036.48,-322.817 2025.88,-320.48 1919.69,-297.078 1886.3,-332.815 1781.88,-302.48 1768.33,-298.542 1766.64,-293.525 1753.88,-287.48 1678.66,-251.841 1659.46,-243.202 1580.88,-215.74 1511.95,-191.649 1431.19,-169.257 1376.48,-154.927"/>
<polygon fill="black" stroke="black" points="1377.14,-151.481 1366.58,-152.347 1375.37,-158.255 1377.14,-151.481"/>
<text text-anchor="middle" x="1770.88" y="-238.91" font-family="Times,serif" font-size="14.00"> static(visible_from)</text>
</g>
<!-- n11&#45;&gt;n20 -->
<g id="edge34" class="edge"><title>n11&#45;&gt;n20</title>
<path fill="none" stroke="black" d="M2148.6,-330.513C2160.24,-326.465 2172.86,-322.734 2184.88,-320.48 2312.72,-296.512 2640.77,-318.17 2769.88,-302.48 2801.47,-298.642 2808.29,-291.266 2839.88,-287.48 3129.48,-252.778 3205.42,-295.99 3495.88,-269.48 3532.97,-266.095 3574.36,-259.652 3606.53,-254.042"/>
<polygon fill="black" stroke="black" points="3607.39,-257.443 3616.63,-252.255 3606.17,-250.55 3607.39,-257.443"/>
<text text-anchor="middle" x="2931.88" y="-291.28" font-family="Times,serif" font-size="14.00"> end(communicated_image_data)</text>
</g>
<!-- n11&#45;&gt;n23 -->
<g id="edge20" class="edge"><title>n11&#45;&gt;n23</title>
<path fill="none" stroke="black" d="M2058.39,-330.033C2047.91,-326.213 2036.65,-322.703 2025.88,-320.48 1942.22,-303.214 1723.18,-328.733 1641.88,-302.48 1630.27,-298.73 1630.51,-291.178 1618.88,-287.48 1568.44,-271.443 1195.69,-273.053 1142.88,-269.48 1077.02,-265.024 1002.18,-257.49 948.875,-251.698"/>
<polygon fill="black" stroke="black" points="949.165,-248.209 938.844,-250.601 948.405,-255.168 949.165,-248.209"/>
<text text-anchor="middle" x="1697.88" y="-291.28" font-family="Times,serif" font-size="14.00"> static(visible_from)</text>
</g>
<!-- n12 -->
<g id="node12" class="node"><title>n12</title>
<ellipse fill="none" stroke="black" cx="3767.88" cy="-458.35" rx="56.6372" ry="26.7407"/>
<text text-anchor="middle" x="3767.88" y="-462.15" font-family="Times,serif" font-size="14.00">&lt;camera6&gt;</text>
<text text-anchor="middle" x="3767.88" y="-447.15" font-family="Times,serif" font-size="14.00">camera</text>
</g>
<!-- n12&#45;&gt;n3 -->
<g id="edge55" class="edge"><title>n12&#45;&gt;n3</title>
<path fill="none" stroke="black" d="M3714.37,-449.219C3677.74,-442.482 3628.62,-431.112 3587.88,-413.48 3576.68,-408.633 3576.47,-402.3 3564.88,-398.48 3435.49,-355.841 3392.14,-408.81 3258.88,-380.48 3250.84,-378.77 3242.51,-376.361 3234.45,-373.656"/>
<polygon fill="black" stroke="black" points="3235.36,-370.267 3224.77,-370.235 3233.03,-376.867 3235.36,-370.267"/>
<text text-anchor="middle" x="3656.38" y="-402.28" font-family="Times,serif" font-size="14.00"> static(calibration_target)</text>
</g>
<!-- n12&#45;&gt;n20 -->
<g id="edge33" class="edge"><title>n12&#45;&gt;n20</title>
<path fill="none" stroke="black" d="M3768.39,-431.284C3767.89,-402.493 3763.83,-355.569 3744.88,-320.48 3734.31,-300.907 3716.85,-283.607 3700.66,-270.4"/>
<polygon fill="black" stroke="black" points="3702.38,-267.301 3692.36,-263.876 3698.06,-272.805 3702.38,-267.301"/>
<text text-anchor="middle" x="3807.88" y="-346.78" font-family="Times,serif" font-size="14.00"> static(supports)</text>
</g>
<!-- n12&#45;&gt;n30 -->
<g id="edge24" class="edge"><title>n12&#45;&gt;n30</title>
<path fill="none" stroke="black" d="M3820.28,-448.1C3844.99,-441.661 3873.63,-430.973 3894.88,-413.48 3903.79,-406.152 3910.96,-396.009 3916.49,-386.047"/>
<polygon fill="black" stroke="black" points="3919.66,-387.531 3921.11,-377.036 3913.43,-384.338 3919.66,-387.531"/>
<text text-anchor="middle" x="3955.38" y="-402.28" font-family="Times,serif" font-size="14.00"> static(on_board)</text>
</g>
<!-- n13 -->
<g id="node13" class="node"><title>n13</title>
<ellipse fill="none" stroke="black" cx="4600.88" cy="-458.35" rx="56.6372" ry="26.7407"/>
<text text-anchor="middle" x="4600.88" y="-462.15" font-family="Times,serif" font-size="14.00">&lt;camera7&gt;</text>
<text text-anchor="middle" x="4600.88" y="-447.15" font-family="Times,serif" font-size="14.00">camera</text>
</g>
<!-- n13&#45;&gt;n16 -->
<g id="edge66" class="edge"><title>n13&#45;&gt;n16</title>
<path fill="none" stroke="black" d="M4654.74,-449.824C4743.36,-437.43 4910.38,-414.027 4911.88,-413.48 4924.92,-408.742 4957.17,-392.013 4964.88,-380.48 4988.09,-345.79 5004.69,-319.468 4977.88,-287.48 4954.95,-260.112 4860.05,-249.805 4794.79,-245.931"/>
<polygon fill="black" stroke="black" points="4794.77,-242.425 4784.59,-245.363 4794.38,-249.414 4794.77,-242.425"/>
<text text-anchor="middle" x="5034.88" y="-346.78" font-family="Times,serif" font-size="14.00"> static(supports)</text>
</g>
<!-- n19 -->
<g id="node19" class="node"><title>n19</title>
<ellipse fill="none" stroke="black" cx="4892.88" cy="-350.48" rx="62.8651" ry="26.7407"/>
<text text-anchor="middle" x="4892.88" y="-354.28" font-family="Times,serif" font-size="14.00">&lt;objective4&gt;</text>
<text text-anchor="middle" x="4892.88" y="-339.28" font-family="Times,serif" font-size="14.00">objective</text>
</g>
<!-- n13&#45;&gt;n19 -->
<g id="edge37" class="edge"><title>n13&#45;&gt;n19</title>
<path fill="none" stroke="black" d="M4646.76,-442.366C4671.72,-434.088 4703.09,-423.483 4730.88,-413.48 4766.83,-400.541 4806.94,-385.198 4838.25,-373.013"/>
<polygon fill="black" stroke="black" points="4839.63,-376.233 4847.67,-369.339 4837.09,-369.711 4839.63,-376.233"/>
<text text-anchor="middle" x="4839.38" y="-402.28" font-family="Times,serif" font-size="14.00"> static(calibration_target)</text>
</g>
<!-- n13&#45;&gt;n20 -->
<g id="edge64" class="edge"><title>n13&#45;&gt;n20</title>
<path fill="none" stroke="black" d="M4602.55,-431.159C4604.65,-388.455 4605.85,-306.652 4585.88,-287.48 4554.6,-257.447 3918.24,-246.863 3720.19,-244.289"/>
<polygon fill="black" stroke="black" points="3720.03,-240.786 3709.99,-244.158 3719.94,-247.786 3720.03,-240.786"/>
<text text-anchor="middle" x="4646.88" y="-346.78" font-family="Times,serif" font-size="14.00"> static(supports)</text>
</g>
<!-- n13&#45;&gt;n22 -->
<g id="edge44" class="edge"><title>n13&#45;&gt;n22</title>
<path fill="none" stroke="black" d="M4551.37,-445.25C4515.64,-436.494 4466.26,-424.34 4422.88,-413.48 4396.64,-406.91 4390.45,-403.597 4363.88,-398.48 4333.95,-392.714 4252.34,-398.68 4227.88,-380.48 4204.42,-363.022 4224.96,-337.074 4200.88,-320.48 4197.66,-318.258 3227.78,-262.561 2962.99,-247.394"/>
<polygon fill="black" stroke="black" points="2962.94,-243.885 2952.76,-246.808 2962.54,-250.874 2962.94,-243.885"/>
<text text-anchor="middle" x="4271.88" y="-346.78" font-family="Times,serif" font-size="14.00"> static(supports)</text>
</g>
<!-- n13&#45;&gt;n30 -->
<g id="edge70" class="edge"><title>n13&#45;&gt;n30</title>
<path fill="none" stroke="black" d="M4552.95,-443.998C4534.07,-439.259 4512.1,-434.385 4491.88,-431.48 4416.33,-420.623 4221.2,-437.883 4148.88,-413.48 4137.67,-409.697 4137.7,-403.272 4126.88,-398.48 4082.05,-378.626 4027.57,-366.425 3987.44,-359.448"/>
<polygon fill="black" stroke="black" points="3988.01,-355.994 3977.56,-357.785 3986.84,-362.896 3988.01,-355.994"/>
<text text-anchor="middle" x="4195.38" y="-402.28" font-family="Times,serif" font-size="14.00"> static(on_board)</text>
</g>
<!-- n14&#45;&gt;n23 -->
<g id="edge74" class="edge"><title>n14&#45;&gt;n23</title>
<path fill="none" stroke="black" d="M991.443,-330.89C982.107,-327.204 972.234,-323.534 962.882,-320.48 931.936,-310.376 914.73,-325.669 891.882,-302.48 885.788,-296.295 882.169,-287.966 880.063,-279.524"/>
<polygon fill="black" stroke="black" points="883.502,-278.871 878.228,-269.682 876.621,-280.154 883.502,-278.871"/>
<text text-anchor="middle" x="947.882" y="-291.28" font-family="Times,serif" font-size="14.00"> static(visible_from)</text>
</g>
<!-- n15 -->
<g id="node15" class="node"><title>n15</title>
<ellipse fill="none" stroke="black" cx="1178.88" cy="-350.48" rx="62.8651" ry="26.7407"/>
<text text-anchor="middle" x="1178.88" y="-354.28" font-family="Times,serif" font-size="14.00">&lt;objective3&gt;</text>
<text text-anchor="middle" x="1178.88" y="-339.28" font-family="Times,serif" font-size="14.00">objective</text>
</g>
<!-- n15&#45;&gt;n4 -->
<g id="edge18" class="edge"><title>n15&#45;&gt;n4</title>
<path fill="none" stroke="black" d="M1170.98,-323.354C1169.28,-316.617 1167.74,-309.332 1166.88,-302.48 1161.68,-261.066 1175.58,-247.313 1202.88,-215.74 1220.5,-195.372 1244.63,-177.727 1265.8,-164.498"/>
<polygon fill="black" stroke="black" points="1267.64,-167.477 1274.36,-159.286 1264,-161.498 1267.64,-167.477"/>
<text text-anchor="middle" x="1258.88" y="-238.91" font-family="Times,serif" font-size="14.00"> static(visible_from)</text>
</g>
<!-- n15&#45;&gt;n23 -->
<g id="edge23" class="edge"><title>n15&#45;&gt;n23</title>
<path fill="none" stroke="black" d="M1135.89,-330.848C1126.44,-327.122 1116.4,-323.447 1106.88,-320.48 1072.09,-309.637 1060.46,-316.659 1026.88,-302.48 1015.64,-297.732 1014.84,-292.86 1003.88,-287.48 983.51,-277.476 960.275,-268.704 939.352,-261.685"/>
<polygon fill="black" stroke="black" points="940.199,-258.279 929.606,-258.485 938.015,-264.93 940.199,-258.279"/>
<text text-anchor="middle" x="1082.88" y="-291.28" font-family="Times,serif" font-size="14.00"> static(visible_from)</text>
</g>
<!-- n17 -->
<g id="node17" class="node"><title>n17</title>
<ellipse fill="none" stroke="black" cx="3407.88" cy="-458.35" rx="56.6372" ry="26.7407"/>
<text text-anchor="middle" x="3407.88" y="-462.15" font-family="Times,serif" font-size="14.00">&lt;camera2&gt;</text>
<text text-anchor="middle" x="3407.88" y="-447.15" font-family="Times,serif" font-size="14.00">camera</text>
</g>
<!-- n17&#45;&gt;n11 -->
<g id="edge48" class="edge"><title>n17&#45;&gt;n11</title>
<path fill="none" stroke="black" d="M3360.19,-443.86C3317.8,-431.811 3261.77,-415.722 3256.88,-413.48 3245.79,-408.389 3245.55,-402.058 3233.88,-398.48 3122.43,-364.306 2299.6,-401.183 2184.88,-380.48 2176.14,-378.902 2167.08,-376.517 2158.31,-373.779"/>
<polygon fill="black" stroke="black" points="2159.17,-370.375 2148.58,-370.562 2156.97,-377.022 2159.17,-370.375"/>
<text text-anchor="middle" x="3325.38" y="-402.28" font-family="Times,serif" font-size="14.00"> static(calibration_target)</text>
</g>
<!-- n17&#45;&gt;n20 -->
<g id="edge47" class="edge"><title>n17&#45;&gt;n20</title>
<path fill="none" stroke="black" d="M3401.17,-431.628C3394.82,-400.674 3390.03,-349.28 3418.88,-320.48 3455.01,-284.417 3609.1,-335.672 3647.88,-302.48 3654.59,-296.736 3658.41,-288.413 3660.5,-279.825"/>
<polygon fill="black" stroke="black" points="3663.99,-280.212 3662.24,-269.762 3657.09,-279.019 3663.99,-280.212"/>
<text text-anchor="middle" x="3462.88" y="-346.78" font-family="Times,serif" font-size="14.00"> static(supports)</text>
</g>
<!-- n17&#45;&gt;n30 -->
<g id="edge10" class="edge"><title>n17&#45;&gt;n30</title>
<path fill="none" stroke="black" d="M3462.77,-451.41C3526.71,-444.124 3635.39,-430.605 3727.88,-413.48 3743.7,-410.551 3853.68,-385.75 3868.88,-380.48 3874.85,-378.411 3881.01,-375.951 3887.03,-373.352"/>
<polygon fill="black" stroke="black" points="3888.63,-376.471 3896.32,-369.188 3885.77,-370.083 3888.63,-376.471"/>
<text text-anchor="middle" x="3841.38" y="-402.28" font-family="Times,serif" font-size="14.00"> static(on_board)</text>
</g>
<!-- n18 -->
<g id="node18" class="node"><title>n18</title>
<ellipse fill="none" stroke="black" cx="505.882" cy="-350.48" rx="62.8651" ry="26.7407"/>
<text text-anchor="middle" x="505.882" y="-354.28" font-family="Times,serif" font-size="14.00">&lt;objective1&gt;</text>
<text text-anchor="middle" x="505.882" y="-339.28" font-family="Times,serif" font-size="14.00">objective</text>
</g>
<!-- n18&#45;&gt;n23 -->
<g id="edge32" class="edge"><title>n18&#45;&gt;n23</title>
<path fill="none" stroke="black" d="M510.042,-323.407C513.464,-310.61 519.667,-296.124 530.882,-287.48 572.33,-255.535 715.26,-246.719 804.234,-244.369"/>
<polygon fill="black" stroke="black" points="804.359,-247.867 814.271,-244.125 804.189,-240.869 804.359,-247.867"/>
<text text-anchor="middle" x="586.882" y="-291.28" font-family="Times,serif" font-size="14.00"> static(visible_from)</text>
</g>
<!-- n19&#45;&gt;n4 -->
<g id="edge49" class="edge"><title>n19&#45;&gt;n4</title>
<path fill="none" stroke="black" d="M4937.46,-331.156C4956.91,-322.166 4976.51,-311.384 4981.88,-302.48 4985.32,-296.771 4985.66,-292.971 4981.88,-287.48 4829.29,-65.9202 4702.37,-204.327 3901.88,-182.74 2906.02,-155.884 1694.21,-142.65 1386.59,-139.579"/>
<polygon fill="black" stroke="black" points="1386.49,-136.078 1376.46,-139.478 1386.42,-143.077 1386.49,-136.078"/>
<text text-anchor="middle" x="5021.88" y="-238.91" font-family="Times,serif" font-size="14.00"> static(visible_from)</text>
</g>
<!-- n19&#45;&gt;n5 -->
<g id="edge38" class="edge"><title>n19&#45;&gt;n5</title>
<path fill="none" stroke="black" d="M4936.4,-330.888C4944.53,-327.423 4952.97,-323.837 4960.88,-320.48 5014.61,-297.7 5049.61,-318.105 5081.88,-269.48 5095.09,-249.58 5098.26,-233.126 5081.88,-215.74 4906.11,-29.1435 3034.96,-89.7577 2778.88,-78 2244.8,-53.4778 1600.76,-37.5808 1385.75,-32.6429"/>
<polygon fill="black" stroke="black" points="1385.61,-29.1389 1375.53,-32.4091 1385.45,-36.1371 1385.61,-29.1389"/>
<text text-anchor="middle" x="5109.88" y="-186.54" font-family="Times,serif" font-size="14.00"> static(visible_from)</text>
</g>
<!-- n19&#45;&gt;n16 -->
<g id="edge45" class="edge"><title>n19&#45;&gt;n16</title>
<path fill="none" stroke="black" d="M4847.92,-331.665C4830.4,-323.832 4810.56,-313.824 4793.88,-302.48 4782.05,-294.429 4770.26,-284.178 4760.14,-274.495"/>
<polygon fill="black" stroke="black" points="4762.35,-271.752 4752.76,-267.246 4757.44,-276.748 4762.35,-271.752"/>
<text text-anchor="middle" x="4885.88" y="-291.28" font-family="Times,serif" font-size="14.00"> end(communicated_image_data)</text>
</g>
<!-- n19&#45;&gt;n23 -->
<g id="edge60" class="edge"><title>n19&#45;&gt;n23</title>
<path fill="none" stroke="black" d="M4850.45,-330.629C4839.41,-326.525 4827.38,-322.738 4815.88,-320.48 4685.98,-294.965 3757.25,-289.794 3624.88,-287.48 3073.4,-277.841 1693.7,-298.305 1142.88,-269.48 1076.86,-266.025 1001.89,-258.355 948.577,-252.259"/>
<polygon fill="black" stroke="black" points="948.883,-248.771 938.548,-251.101 948.081,-255.725 948.883,-248.771"/>
<text text-anchor="middle" x="4553.88" y="-291.28" font-family="Times,serif" font-size="14.00"> static(visible_from)</text>
</g>
<!-- n21 -->
<g id="node21" class="node"><title>n21</title>
<ellipse fill="none" stroke="black" cx="638.882" cy="-350.48" rx="51.7379" ry="26.7407"/>
<text text-anchor="middle" x="638.882" y="-354.28" font-family="Times,serif" font-size="14.00">&lt;general&gt;</text>
<text text-anchor="middle" x="638.882" y="-339.28" font-family="Times,serif" font-size="14.00">lander</text>
</g>
<!-- n21&#45;&gt;n21 -->
<g id="edge4" class="edge"><title>n21&#45;&gt;n21</title>
<path fill="none" stroke="black" d="M687.038,-360.484C699.297,-359.827 708.501,-356.492 708.501,-350.48 708.501,-346.253 703.951,-343.35 696.988,-341.77"/>
<polygon fill="black" stroke="black" points="697.405,-338.295 687.038,-340.476 696.503,-345.236 697.405,-338.295"/>
<text text-anchor="middle" x="759.001" y="-346.78" font-family="Times,serif" font-size="14.00"> init(channel_free)</text>
</g>
<!-- n21&#45;&gt;n23 -->
<g id="edge36" class="edge"><title>n21&#45;&gt;n23</title>
<path fill="none" stroke="black" d="M639.828,-323.613C641.654,-311.031 645.993,-296.677 655.882,-287.48 677.39,-267.478 749.507,-255.875 805.777,-249.684"/>
<polygon fill="black" stroke="black" points="806.152,-253.164 815.727,-248.627 805.413,-246.203 806.152,-253.164"/>
<text text-anchor="middle" x="701.882" y="-291.28" font-family="Times,serif" font-size="14.00"> static(at_lander)</text>
</g>
<!-- n23&#45;&gt;n4 -->
<g id="edge30" class="edge"><title>n23&#45;&gt;n4</title>
<path fill="none" stroke="black" d="M930.941,-227.763C961.029,-219.619 999.27,-208.778 1032.88,-197.74 1050.92,-191.816 1054.58,-187.8 1072.88,-182.74 1129.1,-167.194 1194.28,-155.679 1242.52,-148.357"/>
<polygon fill="black" stroke="black" points="1243.17,-151.798 1252.54,-146.858 1242.13,-144.875 1243.17,-151.798"/>
<text text-anchor="middle" x="1111.88" y="-186.54" font-family="Times,serif" font-size="14.00"> static(visible)</text>
</g>
<!-- n23&#45;&gt;n5 -->
<g id="edge40" class="edge"><title>n23&#45;&gt;n5</title>
<path fill="none" stroke="black" d="M836.915,-221.881C815.073,-208.951 790.22,-189.786 777.882,-164.74 767.328,-143.314 764.353,-130.683 777.882,-111 801.073,-77.2621 824.072,-87.5509 863.882,-78 993.307,-46.9495 1148.65,-36.4117 1238.25,-32.8359"/>
<polygon fill="black" stroke="black" points="1238.45,-36.3309 1248.31,-32.4527 1238.18,-29.336 1238.45,-36.3309"/>
<text text-anchor="middle" x="816.882" y="-134.17" font-family="Times,serif" font-size="14.00"> static(visible)</text>
</g>
<!-- n23&#45;&gt;n23 -->
<g id="edge5" class="edge"><title>n23&#45;&gt;n23</title>
<path fill="none" stroke="black" d="M937.687,-252.045C950.366,-251.087 959.522,-247.942 959.522,-242.61 959.522,-238.861 954.995,-236.193 947.9,-234.607"/>
<polygon fill="black" stroke="black" points="948.076,-231.097 937.687,-233.175 947.104,-238.029 948.076,-231.097"/>
<text text-anchor="middle" x="1044.02" y="-246.41" font-family="Times,serif" font-size="14.00"> end(communicated_soil_data)</text>
<text text-anchor="middle" x="1044.02" y="-231.41" font-family="Times,serif" font-size="14.00">init(at_soil_sample)</text>
</g>
<!-- n24 -->
<g id="node24" class="node"><title>n24</title>
<ellipse fill="none" stroke="black" cx="1476.88" cy="-350.48" rx="62.8651" ry="26.7407"/>
<text text-anchor="middle" x="1476.88" y="-354.28" font-family="Times,serif" font-size="14.00">&lt;objective5&gt;</text>
<text text-anchor="middle" x="1476.88" y="-339.28" font-family="Times,serif" font-size="14.00">objective</text>
</g>
<!-- n24&#45;&gt;n4 -->
<g id="edge46" class="edge"><title>n24&#45;&gt;n4</title>
<path fill="none" stroke="black" d="M1475.11,-323.603C1471.96,-294.686 1463.2,-247.736 1438.88,-215.74 1420.72,-191.848 1392.81,-173.728 1367.86,-161.099"/>
<polygon fill="black" stroke="black" points="1369.35,-157.932 1358.83,-156.694 1366.28,-164.224 1369.35,-157.932"/>
<text text-anchor="middle" x="1520.88" y="-238.91" font-family="Times,serif" font-size="14.00"> static(visible_from)</text>
</g>
<!-- n24&#45;&gt;n16 -->
<g id="edge42" class="edge"><title>n24&#45;&gt;n16</title>
<path fill="none" stroke="black" d="M1538.42,-344.275C1616.08,-337.865 1753.79,-327.023 1871.88,-320.48 1925.28,-317.522 2302.7,-320.962 2352.88,-302.48 2362.98,-298.762 2361.74,-291.077 2371.88,-287.48 2407.15,-274.972 3681.47,-270.208 3718.88,-269.48 4077.38,-262.503 4507.23,-250.216 4667,-245.514"/>
<polygon fill="black" stroke="black" points="4667.24,-249.008 4677.13,-245.215 4667.03,-242.011 4667.24,-249.008"/>
<text text-anchor="middle" x="2463.88" y="-291.28" font-family="Times,serif" font-size="14.00"> end(communicated_image_data)</text>
</g>
<!-- n24&#45;&gt;n23 -->
<g id="edge68" class="edge"><title>n24&#45;&gt;n23</title>
<path fill="none" stroke="black" d="M1432.93,-331.113C1423.72,-327.451 1414.02,-323.733 1404.88,-320.48 1379.45,-311.431 1372.55,-310.836 1346.88,-302.48 1327.24,-296.084 1323.06,-291.902 1302.88,-287.48 1285.94,-283.767 1066.74,-262.047 949.979,-250.626"/>
<polygon fill="black" stroke="black" points="949.989,-247.11 939.696,-249.62 949.308,-254.077 949.989,-247.11"/>
<text text-anchor="middle" x="1402.88" y="-291.28" font-family="Times,serif" font-size="14.00"> static(visible_from)</text>
</g>
<!-- n25 -->
<g id="node25" class="node"><title>n25</title>
<ellipse fill="none" stroke="black" cx="890.882" cy="-350.48" rx="62.8651" ry="26.7407"/>
<text text-anchor="middle" x="890.882" y="-354.28" font-family="Times,serif" font-size="14.00">&lt;objective6&gt;</text>
<text text-anchor="middle" x="890.882" y="-339.28" font-family="Times,serif" font-size="14.00">objective</text>
</g>
<!-- n25&#45;&gt;n23 -->
<g id="edge59" class="edge"><title>n25&#45;&gt;n23</title>
<path fill="none" stroke="black" d="M846.977,-330.983C837.76,-327.33 828.053,-323.649 818.882,-320.48 791.763,-311.108 774.112,-325.424 756.882,-302.48 738.21,-277.616 771.666,-262.692 808.091,-254.095"/>
<polygon fill="black" stroke="black" points="808.877,-257.505 817.892,-251.939 807.373,-250.669 808.877,-257.505"/>
<text text-anchor="middle" x="812.882" y="-291.28" font-family="Times,serif" font-size="14.00"> static(visible_from)</text>
</g>
<!-- n26 -->
<g id="node26" class="node"><title>n26</title>
<ellipse fill="none" stroke="black" cx="4852.88" cy="-458.35" rx="56.6372" ry="26.7407"/>
<text text-anchor="middle" x="4852.88" y="-462.15" font-family="Times,serif" font-size="14.00">&lt;camera0&gt;</text>
<text text-anchor="middle" x="4852.88" y="-447.15" font-family="Times,serif" font-size="14.00">camera</text>
</g>
<!-- n26&#45;&gt;n16 -->
<g id="edge7" class="edge"><title>n26&#45;&gt;n16</title>
<path fill="none" stroke="black" d="M4909.74,-456.874C4954.53,-453.953 5016.74,-444.022 5061.88,-413.48 5097.06,-389.678 5107.58,-355.727 5083.88,-320.48 5052.05,-273.134 4887.18,-254.26 4794.44,-247.301"/>
<polygon fill="black" stroke="black" points="4794.55,-243.8 4784.33,-246.568 4794.05,-250.782 4794.55,-243.8"/>
<text text-anchor="middle" x="5139.88" y="-346.78" font-family="Times,serif" font-size="14.00"> static(supports)</text>
</g>
<!-- n26&#45;&gt;n19 -->
<g id="edge17" class="edge"><title>n26&#45;&gt;n19</title>
<path fill="none" stroke="black" d="M4892.86,-439.136C4902.82,-432.549 4912.26,-424.059 4917.88,-413.48 4922.62,-404.564 4921.25,-394.548 4917.38,-385.208"/>
<polygon fill="black" stroke="black" points="4920.44,-383.506 4912.8,-376.161 4914.19,-386.664 4920.44,-383.506"/>
<text text-anchor="middle" x="4989.38" y="-402.28" font-family="Times,serif" font-size="14.00"> static(calibration_target)</text>
</g>
<!-- n26&#45;&gt;n20 -->
<g id="edge16" class="edge"><title>n26&#45;&gt;n20</title>
<path fill="none" stroke="black" d="M4807.03,-442.514C4789.81,-435.494 4770.81,-425.884 4755.88,-413.48 4717.87,-381.885 4733.41,-351.449 4694.88,-320.48 4661.35,-293.527 4646.07,-295.91 4603.88,-287.48 4433.58,-253.453 3898.62,-245.695 3720.34,-244.036"/>
<polygon fill="black" stroke="black" points="3720.15,-240.534 3710.12,-243.944 3720.09,-247.534 3720.15,-240.534"/>
<text text-anchor="middle" x="4773.88" y="-346.78" font-family="Times,serif" font-size="14.00"> static(supports)</text>
</g>
<!-- n26&#45;&gt;n30 -->
<g id="edge50" class="edge"><title>n26&#45;&gt;n30</title>
<path fill="none" stroke="black" d="M4797.46,-452.063C4752.37,-446.393 4687.77,-435.11 4634.88,-413.48 4623.59,-408.86 4623.5,-402.216 4611.88,-398.48 4525.91,-370.835 4295.94,-387.219 4205.88,-380.48 4130.17,-374.815 4043.04,-365.081 3987.51,-358.468"/>
<polygon fill="black" stroke="black" points="3987.86,-354.985 3977.52,-357.271 3987.03,-361.936 3987.86,-354.985"/>
<text text-anchor="middle" x="4681.38" y="-402.28" font-family="Times,serif" font-size="14.00"> static(on_board)</text>
</g>
<!-- n27 -->
<g id="node27" class="node"><title>n27</title>
<ellipse fill="none" stroke="black" cx="67.8823" cy="-350.48" rx="67.7647" ry="26.7407"/>
<text text-anchor="middle" x="67.8823" y="-354.28" font-family="Times,serif" font-size="14.00">&lt;objective11&gt;</text>
<text text-anchor="middle" x="67.8823" y="-339.28" font-family="Times,serif" font-size="14.00">objective</text>
</g>
<!-- n27&#45;&gt;n4 -->
<g id="edge21" class="edge"><title>n27&#45;&gt;n4</title>
<path fill="none" stroke="black" d="M78.5091,-323.775C85.2556,-310.75 95.2994,-295.94 108.882,-287.48 419.627,-93.9487 561.89,-221.805 925.882,-182.74 1018.14,-172.838 1041.7,-175.381 1133.88,-164.74 1170.35,-160.531 1210.84,-154.771 1244.07,-149.754"/>
<polygon fill="black" stroke="black" points="1244.78,-153.187 1254.14,-148.224 1243.73,-146.267 1244.78,-153.187"/>
<text text-anchor="middle" x="308.882" y="-238.91" font-family="Times,serif" font-size="14.00"> static(visible_from)</text>
</g>
<!-- n27&#45;&gt;n23 -->
<g id="edge31" class="edge"><title>n27&#45;&gt;n23</title>
<path fill="none" stroke="black" d="M87.4387,-324.697C99.7413,-311.09 116.859,-295.409 135.882,-287.48 172.44,-272.243 452.344,-271.805 491.882,-269.48 601.127,-263.058 727.674,-254.331 805.246,-248.835"/>
<polygon fill="black" stroke="black" points="805.665,-252.314 815.392,-248.115 805.169,-245.332 805.665,-252.314"/>
<text text-anchor="middle" x="191.882" y="-291.28" font-family="Times,serif" font-size="14.00"> static(visible_from)</text>
</g>
<!-- n28 -->
<g id="node28" class="node"><title>n28</title>
<ellipse fill="none" stroke="black" cx="4189.88" cy="-458.35" rx="56.6372" ry="26.7407"/>
<text text-anchor="middle" x="4189.88" y="-462.15" font-family="Times,serif" font-size="14.00">&lt;camera5&gt;</text>
<text text-anchor="middle" x="4189.88" y="-447.15" font-family="Times,serif" font-size="14.00">camera</text>
</g>
<!-- n28&#45;&gt;n16 -->
<g id="edge76" class="edge"><title>n28&#45;&gt;n16</title>
<path fill="none" stroke="black" d="M4230.98,-439.723C4239.13,-436.661 4247.7,-433.74 4255.88,-431.48 4302.79,-418.531 4317.91,-429.433 4363.88,-413.48 4392.63,-403.503 4399.12,-398.172 4423.88,-380.48 4456.14,-357.436 4454.03,-337.401 4489.88,-320.48 4540.24,-296.711 4560.77,-319.212 4613.88,-302.48 4639.88,-294.29 4667.19,-280.862 4688.87,-268.897"/>
<polygon fill="black" stroke="black" points="4690.8,-271.829 4697.8,-263.879 4687.37,-265.727 4690.8,-271.829"/>
<text text-anchor="middle" x="4533.88" y="-346.78" font-family="Times,serif" font-size="14.00"> static(supports)</text>
</g>
<!-- n28&#45;&gt;n19 -->
<g id="edge54" class="edge"><title>n28&#45;&gt;n19</title>
<path fill="none" stroke="black" d="M4230.52,-439.458C4238.79,-436.381 4247.51,-433.522 4255.88,-431.48 4330.13,-413.373 4352.05,-428.953 4426.88,-413.48 4448.77,-408.955 4452.88,-402.434 4474.88,-398.48 4624.26,-371.636 4667.34,-411.593 4815.88,-380.48 4823.93,-378.794 4832.26,-376.399 4840.33,-373.699"/>
<polygon fill="black" stroke="black" points="4841.74,-376.912 4850.01,-370.282 4839.41,-370.311 4841.74,-376.912"/>
<text text-anchor="middle" x="4543.38" y="-402.28" font-family="Times,serif" font-size="14.00"> static(calibration_target)</text>
</g>
<!-- n28&#45;&gt;n20 -->
<g id="edge58" class="edge"><title>n28&#45;&gt;n20</title>
<path fill="none" stroke="black" d="M4217.11,-434.632C4232.27,-422.759 4251.86,-408.63 4270.88,-398.48 4291.35,-387.556 4306.6,-399.505 4319.88,-380.48 4335.15,-358.613 4337.61,-340.4 4319.88,-320.48 4280.27,-275.968 3873.58,-253.148 3720.09,-246.07"/>
<polygon fill="black" stroke="black" points="3720.07,-242.565 3709.92,-245.607 3719.75,-249.558 3720.07,-242.565"/>
<text text-anchor="middle" x="4375.88" y="-346.78" font-family="Times,serif" font-size="14.00"> static(supports)</text>
</g>
<!-- n28&#45;&gt;n22 -->
<g id="edge71" class="edge"><title>n28&#45;&gt;n22</title>
<path fill="none" stroke="black" d="M4133.54,-454.431C4032.06,-448.721 3822.63,-434.744 3752.88,-413.48 3739.38,-409.363 3738.39,-402.587 3724.88,-398.48 3686,-386.656 3570.17,-410.599 3542.88,-380.48 3524.98,-360.718 3527.23,-342.071 3542.88,-320.48 3557.98,-299.656 3582.79,-323.304 3597.88,-302.48 3601.8,-297.083 3602.45,-292.339 3597.88,-287.48 3592.48,-281.724 3136.4,-256.536 2962.88,-247.151"/>
<polygon fill="black" stroke="black" points="2963.03,-243.654 2952.86,-246.609 2962.65,-250.644 2963.03,-243.654"/>
<text text-anchor="middle" x="3586.88" y="-346.78" font-family="Times,serif" font-size="14.00"> static(supports)</text>
</g>
<!-- n28&#45;&gt;n30 -->
<g id="edge8" class="edge"><title>n28&#45;&gt;n30</title>
<path fill="none" stroke="black" d="M4138.82,-446.645C4107.77,-439.248 4067.71,-428.103 4033.88,-413.48 4021.14,-407.973 3993.84,-391.452 3970.54,-376.848"/>
<polygon fill="black" stroke="black" points="3972.17,-373.741 3961.85,-371.372 3968.44,-379.663 3972.17,-373.741"/>
<text text-anchor="middle" x="4080.38" y="-402.28" font-family="Times,serif" font-size="14.00"> static(on_board)</text>
</g>
<!-- n29 -->
<g id="node29" class="node"><title>n29</title>
<ellipse fill="none" stroke="black" cx="217.882" cy="-350.48" rx="62.8651" ry="26.7407"/>
<text text-anchor="middle" x="217.882" y="-354.28" font-family="Times,serif" font-size="14.00">&lt;objective7&gt;</text>
<text text-anchor="middle" x="217.882" y="-339.28" font-family="Times,serif" font-size="14.00">objective</text>
</g>
<!-- n29&#45;&gt;n23 -->
<g id="edge61" class="edge"><title>n29&#45;&gt;n23</title>
<path fill="none" stroke="black" d="M232.465,-324.295C241.661,-310.912 254.83,-295.59 270.882,-287.48 276.787,-284.497 645.234,-259.313 805.141,-248.505"/>
<polygon fill="black" stroke="black" points="805.625,-251.98 815.366,-247.814 805.153,-244.996 805.625,-251.98"/>
<text text-anchor="middle" x="328.882" y="-291.28" font-family="Times,serif" font-size="14.00"> static(visible_from)</text>
</g>
<!-- n30&#45;&gt;n5 -->
<g id="edge29" class="edge"><title>n30&#45;&gt;n5</title>
<path fill="none" stroke="black" d="M3902.17,-328.906C3853.85,-294.697 3757.72,-228.596 3718.88,-215.74 3269.61,-67.0071 1739.82,-36.9205 1385.55,-31.8953"/>
<polygon fill="black" stroke="black" points="1385.46,-28.3938 1375.41,-31.7539 1385.36,-35.3932 1385.46,-28.3938"/>
<text text-anchor="middle" x="3675.38" y="-186.54" font-family="Times,serif" font-size="14.00"> init(at)</text>
</g>
<!-- n30&#45;&gt;n30 -->
<g id="edge6" class="edge"><title>n30&#45;&gt;n30</title>
<path fill="none" stroke="black" d="M3975.67,-360.53C3987.76,-360 3996.97,-356.65 3996.97,-350.48 3996.97,-346.238 3992.62,-343.329 3985.97,-341.753"/>
<polygon fill="black" stroke="black" points="3986.03,-338.233 3975.67,-340.43 3985.14,-345.176 3986.03,-338.233"/>
<text text-anchor="middle" x="4094.47" y="-369.28" font-family="Times,serif" font-size="14.00"> static(equipped_for_rock_analysis)</text>
<text text-anchor="middle" x="4094.47" y="-354.28" font-family="Times,serif" font-size="14.00">static(equipped_for_imaging)</text>
<text text-anchor="middle" x="4094.47" y="-339.28" font-family="Times,serif" font-size="14.00">init(available)</text>
<text text-anchor="middle" x="4094.47" y="-324.28" font-family="Times,serif" font-size="14.00">static(equipped_for_soil_analysis)</text>
</g>
<!-- n31 -->
<g id="node31" class="node"><title>n31</title>
<ellipse fill="none" stroke="black" cx="1327.88" cy="-350.48" rx="67.7647" ry="26.7407"/>
<text text-anchor="middle" x="1327.88" y="-354.28" font-family="Times,serif" font-size="14.00">&lt;objective12&gt;</text>
<text text-anchor="middle" x="1327.88" y="-339.28" font-family="Times,serif" font-size="14.00">objective</text>
</g>
<!-- n31&#45;&gt;n4 -->
<g id="edge27" class="edge"><title>n31&#45;&gt;n4</title>
<path fill="none" stroke="black" d="M1326.01,-323.232C1323.35,-285.823 1318.45,-217.047 1315.45,-174.895"/>
<polygon fill="black" stroke="black" points="1318.93,-174.513 1314.73,-164.787 1311.95,-175.011 1318.93,-174.513"/>
<text text-anchor="middle" x="1378.88" y="-238.91" font-family="Times,serif" font-size="14.00"> static(visible_from)</text>
</g>
<!-- n31&#45;&gt;n22 -->
<g id="edge53" class="edge"><title>n31&#45;&gt;n22</title>
<path fill="none" stroke="black" d="M1372.38,-330.066C1382.86,-326.244 1394.11,-322.725 1404.88,-320.48 1558.67,-288.414 1603.83,-333.226 1757.88,-302.48 1777.32,-298.601 1780.42,-291.253 1799.88,-287.48 1998.73,-248.929 2623.53,-244.152 2829.95,-243.641"/>
<polygon fill="black" stroke="black" points="2830.05,-247.141 2840.05,-243.618 2830.04,-240.141 2830.05,-247.141"/>
<text text-anchor="middle" x="1891.88" y="-291.28" font-family="Times,serif" font-size="14.00"> end(communicated_image_data)</text>
</g>
<!-- n31&#45;&gt;n23 -->
<g id="edge25" class="edge"><title>n31&#45;&gt;n23</title>
<path fill="none" stroke="black" d="M1280.87,-331.043C1271.02,-327.385 1260.65,-323.688 1250.88,-320.48 1222.81,-311.265 1215.1,-311.251 1186.88,-302.48 1167.15,-296.348 1162.92,-292.518 1142.88,-287.48 1077.98,-271.164 1002.57,-259.355 948.831,-252.127"/>
<polygon fill="black" stroke="black" points="949.092,-248.631 938.719,-250.787 948.172,-255.571 949.092,-248.631"/>
<text text-anchor="middle" x="1242.88" y="-291.28" font-family="Times,serif" font-size="14.00"> static(visible_from)</text>
</g>
</g>
</svg>
