<?xml version="1.0" encoding="UTF-8" standalone="no"?>
<!DOCTYPE svg PUBLIC "-//W3C//DTD SVG 1.1//EN"
 "http://www.w3.org/Graphics/SVG/1.1/DTD/svg11.dtd">
<!-- Generated by graphviz version 2.38.0 (20140413.2041)
 -->
<!-- Title: Struc Pages: 1 -->
<svg width="946pt" height="505pt"
 viewBox="0.00 0.00 946.44 504.70" xmlns="http://www.w3.org/2000/svg" xmlns:xlink="http://www.w3.org/1999/xlink">
<g id="graph0" class="graph" transform="scale(1 1) rotate(0) translate(4 500.701)">
<title>Struc</title>
<polygon fill="white" stroke="none" points="-4,4 -4,-500.701 942.443,-500.701 942.443,4 -4,4"/>
<!-- n1 -->
<g id="node1" class="node"><title>n1</title>
<ellipse fill="none" stroke="black" cx="585.443" cy="-465.831" rx="56.6326" ry="26.7574"/>
<ellipse fill="none" stroke="black" cx="585.443" cy="-465.831" rx="60.6372" ry="30.7407"/>
<text text-anchor="middle" x="585.443" y="-469.631" font-family="Times,serif" font-size="14.00">&lt;camera5&gt;</text>
<text text-anchor="middle" x="585.443" y="-454.631" font-family="Times,serif" font-size="14.00">camera</text>
</g>
<!-- n2 -->
<g id="node2" class="node"><title>n2</title>
<ellipse fill="none" stroke="black" cx="73.4432" cy="-353.09" rx="48.1667" ry="26.7407"/>
<text text-anchor="middle" x="73.4432" y="-356.89" font-family="Times,serif" font-size="14.00">&lt;rover0&gt;</text>
<text text-anchor="middle" x="73.4432" y="-341.89" font-family="Times,serif" font-size="14.00">rover</text>
</g>
<!-- n1&#45;&gt;n2 -->
<g id="edge14" class="edge"><title>n1&#45;&gt;n2</title>
<path fill="none" stroke="black" d="M530.164,-452.874C431.392,-431.511 225.787,-387.041 127.733,-365.833"/>
<polygon fill="black" stroke="black" points="128.251,-362.364 117.737,-363.671 126.771,-369.206 128.251,-362.364"/>
<text text-anchor="middle" x="406.943" y="-405.76" font-family="Times,serif" font-size="14.00"> static(on_board)</text>
</g>
<!-- n5 -->
<g id="node5" class="node"><title>n5</title>
<ellipse fill="none" stroke="black" cx="585.443" cy="-353.09" rx="67.7712" ry="26.7574"/>
<ellipse fill="none" stroke="black" cx="585.443" cy="-353.09" rx="71.7647" ry="30.7407"/>
<text text-anchor="middle" x="585.443" y="-356.89" font-family="Times,serif" font-size="14.00">&lt;objective11&gt;</text>
<text text-anchor="middle" x="585.443" y="-341.89" font-family="Times,serif" font-size="14.00">objective</text>
</g>
<!-- n1&#45;&gt;n5 -->
<g id="edge11" class="edge"><title>n1&#45;&gt;n5</title>
<path fill="none" stroke="black" stroke-dasharray="5,2" d="M585.443,-434.863C585.443,-422.429 585.443,-407.813 585.443,-394.458"/>
<polygon fill="black" stroke="black" points="588.943,-394.082 585.443,-384.082 581.943,-394.082 588.943,-394.082"/>
<text text-anchor="middle" x="653.943" y="-405.76" font-family="Times,serif" font-size="14.00"> static(calibration_target)</text>
</g>
<!-- n8 -->
<g id="node8" class="node"><title>n8</title>
<ellipse fill="none" stroke="black" cx="853.443" cy="-240.35" rx="56.6326" ry="26.7574"/>
<ellipse fill="none" stroke="black" cx="853.443" cy="-240.35" rx="60.6372" ry="30.7407"/>
<text text-anchor="middle" x="853.443" y="-244.15" font-family="Times,serif" font-size="14.00">&lt;high_res&gt;</text>
<text text-anchor="middle" x="853.443" y="-229.15" font-family="Times,serif" font-size="14.00">mode</text>
</g>
<!-- n1&#45;&gt;n8 -->
<g id="edge13" class="edge"><title>n1&#45;&gt;n8</title>
<path fill="none" stroke="black" stroke-dasharray="5,2" d="M639.326,-451.652C666.478,-443.762 699.308,-432.259 726.443,-416.96 794.241,-378.737 827.597,-374.78 860.443,-304.22 863.8,-297.01 864.697,-288.847 864.258,-280.849"/>
<polygon fill="black" stroke="black" points="867.73,-280.404 863.071,-270.888 860.779,-281.232 867.73,-280.404"/>
<text text-anchor="middle" x="894.443" y="-349.39" font-family="Times,serif" font-size="14.00"> static(supports)</text>
</g>
<!-- n2&#45;&gt;n2 -->
<g id="edge1" class="edge"><title>n2&#45;&gt;n2</title>
<path fill="none" stroke="black" d="M117.918,-363.526C130.166,-363.022 139.526,-359.544 139.526,-353.09 139.526,-348.553 134.899,-345.486 127.893,-343.89"/>
<polygon fill="black" stroke="black" points="128.272,-340.41 117.918,-342.654 127.412,-347.357 128.272,-340.41"/>
<text text-anchor="middle" x="237.026" y="-371.89" font-family="Times,serif" font-size="14.00"> static(equipped_for_rock_analysis)</text>
<text text-anchor="middle" x="237.026" y="-356.89" font-family="Times,serif" font-size="14.00">static(equipped_for_imaging)</text>
<text text-anchor="middle" x="237.026" y="-341.89" font-family="Times,serif" font-size="14.00">init(available)</text>
<text text-anchor="middle" x="237.026" y="-326.89" font-family="Times,serif" font-size="14.00">static(equipped_for_soil_analysis)</text>
</g>
<!-- n3 -->
<g id="node3" class="node"><title>n3</title>
<ellipse fill="none" stroke="black" cx="354.443" cy="-240.35" rx="63.7795" ry="26.7407"/>
<text text-anchor="middle" x="354.443" y="-244.15" font-family="Times,serif" font-size="14.00">&lt;waypoint2&gt;</text>
<text text-anchor="middle" x="354.443" y="-229.15" font-family="Times,serif" font-size="14.00">waypoint</text>
</g>
<!-- n2&#45;&gt;n3 -->
<g id="edge9" class="edge"><title>n2&#45;&gt;n3</title>
<path fill="none" stroke="black" d="M111.926,-336.925C160.42,-317.813 244.095,-284.838 299.358,-263.059"/>
<polygon fill="black" stroke="black" points="300.97,-266.186 308.991,-259.263 298.404,-259.673 300.97,-266.186"/>
<text text-anchor="middle" x="251.943" y="-293.02" font-family="Times,serif" font-size="14.00"> init(at)</text>
</g>
<!-- n3&#45;&gt;n3 -->
<g id="edge2" class="edge"><title>n3&#45;&gt;n3</title>
<path fill="none" stroke="black" d="M413.519,-250.568C426.575,-249.608 436.083,-246.202 436.083,-240.35 436.083,-236.144 431.171,-233.202 423.56,-231.523"/>
<polygon fill="black" stroke="black" points="423.905,-228.038 413.519,-230.133 422.945,-234.972 423.905,-228.038"/>
<text text-anchor="middle" x="521.083" y="-259.15" font-family="Times,serif" font-size="14.00"> end(communicated_soil_data)</text>
<text text-anchor="middle" x="521.083" y="-244.15" font-family="Times,serif" font-size="14.00">init(at_soil_sample)</text>
<text text-anchor="middle" x="521.083" y="-229.15" font-family="Times,serif" font-size="14.00">end(communicated_rock_data)</text>
<text text-anchor="middle" x="521.083" y="-214.15" font-family="Times,serif" font-size="14.00">init(at_rock_sample)</text>
</g>
<!-- n7 -->
<g id="node7" class="node"><title>n7</title>
<ellipse fill="none" stroke="black" cx="575.443" cy="-131.61" rx="63.7795" ry="26.7407"/>
<text text-anchor="middle" x="575.443" y="-135.41" font-family="Times,serif" font-size="14.00">&lt;waypoint1&gt;</text>
<text text-anchor="middle" x="575.443" y="-120.41" font-family="Times,serif" font-size="14.00">waypoint</text>
</g>
<!-- n3&#45;&gt;n7 -->
<g id="edge19" class="edge"><title>n3&#45;&gt;n7</title>
<path fill="none" stroke="black" d="M388.531,-217.505C400.648,-209.526 414.292,-200.294 426.443,-191.48 435.152,-185.163 435.985,-181.609 445.443,-176.48 447.206,-175.524 483.107,-163.428 516.732,-152.18"/>
<polygon fill="black" stroke="black" points="518.213,-155.375 526.588,-148.885 515.994,-148.736 518.213,-155.375"/>
<text text-anchor="middle" x="485.443" y="-180.28" font-family="Times,serif" font-size="14.00"> static(visible)</text>
</g>
<!-- n9 -->
<g id="node9" class="node"><title>n9</title>
<ellipse fill="none" stroke="black" cx="336.443" cy="-26.8701" rx="63.7795" ry="26.7407"/>
<text text-anchor="middle" x="336.443" y="-30.6701" font-family="Times,serif" font-size="14.00">&lt;waypoint0&gt;</text>
<text text-anchor="middle" x="336.443" y="-15.6701" font-family="Times,serif" font-size="14.00">waypoint</text>
</g>
<!-- n3&#45;&gt;n9 -->
<g id="edge18" class="edge"><title>n3&#45;&gt;n9</title>
<path fill="none" stroke="black" d="M368.2,-213.968C375.823,-198.44 384.529,-177.889 388.443,-158.48 393.165,-135.067 392.587,-128.262 388.443,-104.74 385.735,-89.3705 384.521,-85.0933 376.443,-71.7401 373.973,-67.6558 371.087,-63.6135 368.017,-59.7317"/>
<polygon fill="black" stroke="black" points="370.648,-57.4232 361.531,-52.0271 365.293,-61.9313 370.648,-57.4232"/>
<text text-anchor="middle" x="431.443" y="-127.91" font-family="Times,serif" font-size="14.00"> static(visible)</text>
</g>
<!-- n4 -->
<g id="node4" class="node"><title>n4</title>
<ellipse fill="none" stroke="black" cx="73.4432" cy="-465.831" rx="67.3507" ry="26.7407"/>
<text text-anchor="middle" x="73.4432" y="-469.631" font-family="Times,serif" font-size="14.00">&lt;rover0store&gt;</text>
<text text-anchor="middle" x="73.4432" y="-454.631" font-family="Times,serif" font-size="14.00">store</text>
</g>
<!-- n4&#45;&gt;n2 -->
<g id="edge17" class="edge"><title>n4&#45;&gt;n2</title>
<path fill="none" stroke="black" d="M73.4432,-438.867C73.4432,-424.393 73.4432,-406.143 73.4432,-390.286"/>
<polygon fill="black" stroke="black" points="76.9433,-390.275 73.4432,-380.275 69.9433,-390.275 76.9433,-390.275"/>
<text text-anchor="middle" x="116.443" y="-405.76" font-family="Times,serif" font-size="14.00"> static(store_of)</text>
</g>
<!-- n4&#45;&gt;n4 -->
<g id="edge3" class="edge"><title>n4&#45;&gt;n4</title>
<path fill="none" stroke="black" d="M135.838,-475.991C149.066,-474.96 158.618,-471.573 158.618,-465.831 158.618,-461.658 153.576,-458.73 145.744,-457.044"/>
<polygon fill="black" stroke="black" points="146.224,-453.577 135.838,-455.67 145.262,-460.511 146.224,-453.577"/>
<text text-anchor="middle" x="191.618" y="-462.131" font-family="Times,serif" font-size="14.00"> init(empty)</text>
</g>
<!-- n5&#45;&gt;n3 -->
<g id="edge16" class="edge"><title>n5&#45;&gt;n3</title>
<path fill="none" stroke="black" stroke-dasharray="5,2" d="M538.418,-329.547C499.583,-310.929 444.582,-284.562 404.845,-265.513"/>
<polygon fill="black" stroke="black" points="406.129,-262.247 395.599,-261.08 403.103,-268.559 406.129,-262.247"/>
<text text-anchor="middle" x="540.443" y="-293.02" font-family="Times,serif" font-size="14.00"> static(visible_from)</text>
</g>
<!-- n5&#45;&gt;n7 -->
<g id="edge7" class="edge"><title>n5&#45;&gt;n7</title>
<path fill="none" stroke="black" stroke-dasharray="5,2" d="M603.386,-322.959C622.977,-287.146 648.771,-225.138 626.443,-176.48 623.978,-171.108 620.494,-166.145 616.491,-161.64"/>
<polygon fill="black" stroke="black" points="618.897,-159.097 609.352,-154.499 613.947,-164.046 618.897,-159.097"/>
<text text-anchor="middle" x="690.443" y="-236.65" font-family="Times,serif" font-size="14.00"> static(visible_from)</text>
</g>
<!-- n5&#45;&gt;n8 -->
<g id="edge21" class="edge"><title>n5&#45;&gt;n8</title>
<path fill="none" stroke="black" stroke-dasharray="5,2" d="M621.902,-326.423C645.855,-309.64 673.329,-290.575 676.443,-289.22 710.658,-274.336 722.389,-280.826 758.443,-271.22 769.929,-268.16 782.097,-264.59 793.753,-261.003"/>
<polygon fill="black" stroke="black" points="794.891,-264.315 803.397,-257.998 792.808,-257.632 794.891,-264.315"/>
<text text-anchor="middle" x="768.443" y="-293.02" font-family="Times,serif" font-size="14.00"> end(communicated_image_data)</text>
</g>
<!-- n5&#45;&gt;n9 -->
<g id="edge22" class="edge"><title>n5&#45;&gt;n9</title>
<path fill="none" stroke="black" d="M517.077,-343.313C378.657,-323.982 73.2067,-272.869 12.4432,-191.48 -24.8442,-141.536 30.5916,-101.339 85.4432,-71.7401 140.098,-42.2475 210.294,-31.9088 262.548,-28.5857"/>
<polygon fill="black" stroke="black" points="262.963,-32.068 272.75,-28.011 262.569,-25.079 262.963,-32.068"/>
<text text-anchor="middle" x="68.4432" y="-180.28" font-family="Times,serif" font-size="14.00"> static(visible_from)</text>
</g>
<!-- n6 -->
<g id="node6" class="node"><title>n6</title>
<ellipse fill="none" stroke="black" cx="208.443" cy="-131.61" rx="51.7379" ry="26.7407"/>
<text text-anchor="middle" x="208.443" y="-135.41" font-family="Times,serif" font-size="14.00">&lt;general&gt;</text>
<text text-anchor="middle" x="208.443" y="-120.41" font-family="Times,serif" font-size="14.00">lander</text>
</g>
<!-- n6&#45;&gt;n6 -->
<g id="edge4" class="edge"><title>n6&#45;&gt;n6</title>
<path fill="none" stroke="black" d="M256.92,-141.226C269.019,-140.554 278.062,-137.348 278.062,-131.61 278.062,-127.665 273.788,-124.917 267.185,-123.367"/>
<polygon fill="black" stroke="black" points="267.296,-119.85 256.92,-121.994 266.368,-126.789 267.296,-119.85"/>
<text text-anchor="middle" x="328.562" y="-127.91" font-family="Times,serif" font-size="14.00"> init(channel_free)</text>
</g>
<!-- n6&#45;&gt;n9 -->
<g id="edge10" class="edge"><title>n6&#45;&gt;n9</title>
<path fill="none" stroke="black" d="M235.902,-108.57C254.579,-93.5788 279.5,-73.5763 299.857,-57.2362"/>
<polygon fill="black" stroke="black" points="302.09,-59.9321 307.698,-50.9429 297.708,-54.4731 302.09,-59.9321"/>
<text text-anchor="middle" x="326.443" y="-75.5401" font-family="Times,serif" font-size="14.00"> static(at_lander)</text>
</g>
<!-- n7&#45;&gt;n3 -->
<g id="edge15" class="edge"><title>n7&#45;&gt;n3</title>
<path fill="none" stroke="black" d="M560.206,-157.774C551.879,-169.578 540.584,-182.902 527.443,-191.48 496.936,-211.396 458.215,-223.105 425.143,-229.949"/>
<polygon fill="black" stroke="black" points="424.216,-226.564 415.076,-231.921 425.562,-233.434 424.216,-226.564"/>
<text text-anchor="middle" x="583.443" y="-180.28" font-family="Times,serif" font-size="14.00"> static(visible)</text>
</g>
<!-- n7&#45;&gt;n7 -->
<g id="edge5" class="edge"><title>n7&#45;&gt;n7</title>
<path fill="none" stroke="black" d="M635.248,-141.045C647.927,-140.087 657.083,-136.942 657.083,-131.61 657.083,-127.861 652.556,-125.193 645.461,-123.607"/>
<polygon fill="black" stroke="black" points="645.637,-120.097 635.248,-122.175 644.665,-127.029 645.637,-120.097"/>
<text text-anchor="middle" x="713.583" y="-127.91" font-family="Times,serif" font-size="14.00"> init(at_soil_sample)</text>
</g>
<!-- n7&#45;&gt;n9 -->
<g id="edge20" class="edge"><title>n7&#45;&gt;n9</title>
<path fill="none" stroke="black" d="M528.544,-113.441C507.835,-105.635 483.285,-96.0713 461.443,-86.7401 459.477,-85.9002 420.919,-67.7312 387.143,-51.7984"/>
<polygon fill="black" stroke="black" points="388.315,-48.4815 377.778,-47.3802 385.329,-54.8123 388.315,-48.4815"/>
<text text-anchor="middle" x="500.443" y="-75.5401" font-family="Times,serif" font-size="14.00"> static(visible)</text>
</g>
<!-- n9&#45;&gt;n3 -->
<g id="edge8" class="edge"><title>n9&#45;&gt;n3</title>
<path fill="none" stroke="black" d="M275.262,-34.5456C179.644,-47.4715 11.4184,-81.6999 69.4432,-158.48 71.1729,-160.769 209.043,-199.181 292.366,-222.23"/>
<polygon fill="black" stroke="black" points="291.673,-225.67 302.244,-224.961 293.539,-218.923 291.673,-225.67"/>
<text text-anchor="middle" x="108.443" y="-127.91" font-family="Times,serif" font-size="14.00"> static(visible)</text>
</g>
<!-- n9&#45;&gt;n7 -->
<g id="edge12" class="edge"><title>n9&#45;&gt;n7</title>
<path fill="none" stroke="black" d="M397.279,-35.0538C449.781,-42.2664 520.659,-54.7454 543.443,-71.7401 551.609,-77.8314 557.933,-86.6447 562.72,-95.6049"/>
<polygon fill="black" stroke="black" points="559.689,-97.3793 567.164,-104.887 566.003,-94.3565 559.689,-97.3793"/>
<text text-anchor="middle" x="595.443" y="-75.5401" font-family="Times,serif" font-size="14.00"> static(visible)</text>
</g>
<!-- n9&#45;&gt;n9 -->
<g id="edge6" class="edge"><title>n9&#45;&gt;n9</title>
<path fill="none" stroke="black" d="M396.248,-36.3053C408.927,-35.3472 418.083,-32.2021 418.083,-26.8701 418.083,-23.121 413.556,-20.4531 406.461,-18.8664"/>
<polygon fill="black" stroke="black" points="406.637,-15.3569 396.248,-17.4349 405.665,-22.2891 406.637,-15.3569"/>
<text text-anchor="middle" x="502.583" y="-30.6701" font-family="Times,serif" font-size="14.00"> end(communicated_soil_data)</text>
<text text-anchor="middle" x="502.583" y="-15.6701" font-family="Times,serif" font-size="14.00">init(at_soil_sample)</text>
</g>
</g>
</svg>
