<?xml version="1.0" encoding="UTF-8" standalone="no"?>
<!DOCTYPE svg PUBLIC "-//W3C//DTD SVG 1.1//EN"
 "http://www.w3.org/Graphics/SVG/1.1/DTD/svg11.dtd">
<!-- Generated by graphviz version 2.38.0 (20140413.2041)
 -->
<!-- Title: Struc Pages: 1 -->
<svg width="7239pt" height="532pt"
 viewBox="0.00 0.00 7239.17 531.96" xmlns="http://www.w3.org/2000/svg" xmlns:xlink="http://www.w3.org/1999/xlink">
<g id="graph0" class="graph" transform="scale(1 1) rotate(0) translate(4 527.96)">
<title>Struc</title>
<polygon fill="white" stroke="none" points="-4,4 -4,-527.96 7235.17,-527.96 7235.17,4 -4,4"/>
<!-- n1 -->
<g id="node1" class="node"><title>n1</title>
<ellipse fill="none" stroke="black" cx="3029.17" cy="-497.09" rx="56.6372" ry="26.7407"/>
<text text-anchor="middle" x="3029.17" y="-500.89" font-family="Times,serif" font-size="14.00">&lt;camera1&gt;</text>
<text text-anchor="middle" x="3029.17" y="-485.89" font-family="Times,serif" font-size="14.00">camera</text>
</g>
<!-- n24 -->
<g id="node24" class="node"><title>n24</title>
<ellipse fill="none" stroke="black" cx="2157.17" cy="-284.48" rx="48.1667" ry="26.7407"/>
<text text-anchor="middle" x="2157.17" y="-288.28" font-family="Times,serif" font-size="14.00">&lt;colour&gt;</text>
<text text-anchor="middle" x="2157.17" y="-273.28" font-family="Times,serif" font-size="14.00">mode</text>
</g>
<!-- n1&#45;&gt;n24 -->
<g id="edge30" class="edge"><title>n1&#45;&gt;n24</title>
<path fill="none" stroke="black" d="M2972.53,-496.379C2889.12,-494.514 2730.53,-482.082 2614.17,-419.22 2567.22,-393.86 2578.83,-356.465 2531.17,-332.48 2477.13,-305.288 2306.09,-292.859 2215.22,-288.051"/>
<polygon fill="black" stroke="black" points="2215.25,-284.548 2205.08,-287.529 2214.89,-291.539 2215.25,-284.548"/>
<text text-anchor="middle" x="2658.17" y="-388.65" font-family="Times,serif" font-size="14.00"> static(supports)</text>
</g>
<!-- n26 -->
<g id="node26" class="node"><title>n26</title>
<ellipse fill="none" stroke="black" cx="1229.17" cy="-284.48" rx="56.6372" ry="26.7407"/>
<text text-anchor="middle" x="1229.17" y="-288.28" font-family="Times,serif" font-size="14.00">&lt;high_res&gt;</text>
<text text-anchor="middle" x="1229.17" y="-273.28" font-family="Times,serif" font-size="14.00">mode</text>
</g>
<!-- n1&#45;&gt;n26 -->
<g id="edge102" class="edge"><title>n1&#45;&gt;n26</title>
<path fill="none" stroke="black" d="M2972.69,-493.832C2850.57,-489.001 2552.78,-477.515 2303.17,-470.22 2215.52,-467.659 1598.97,-474.536 1514.17,-452.22 1500.52,-448.628 1499.33,-442.326 1486.17,-437.22 1455.82,-425.447 1442.33,-437.161 1415.17,-419.22 1390.1,-402.664 1398.66,-382.879 1374.17,-365.48 1353.2,-350.585 1342.22,-358.893 1319.17,-347.48 1300.66,-338.316 1281.62,-325.737 1265.85,-314.303"/>
<polygon fill="black" stroke="black" points="1267.57,-311.223 1257.45,-308.098 1263.41,-316.854 1267.57,-311.223"/>
<text text-anchor="middle" x="1459.17" y="-388.65" font-family="Times,serif" font-size="14.00"> static(supports)</text>
</g>
<!-- n29 -->
<g id="node29" class="node"><title>n29</title>
<ellipse fill="none" stroke="black" cx="4189.17" cy="-392.35" rx="62.8651" ry="26.7407"/>
<text text-anchor="middle" x="4189.17" y="-396.15" font-family="Times,serif" font-size="14.00">&lt;objective4&gt;</text>
<text text-anchor="middle" x="4189.17" y="-381.15" font-family="Times,serif" font-size="14.00">objective</text>
</g>
<!-- n1&#45;&gt;n29 -->
<g id="edge68" class="edge"><title>n1&#45;&gt;n29</title>
<path fill="none" stroke="black" d="M3084.58,-491.324C3177.67,-483.307 3371.35,-466.592 3535.17,-452.22 3610.29,-445.63 3628.93,-442.217 3704.17,-437.22 3885.28,-425.194 3933.73,-452.449 4112.17,-419.22 4119.32,-417.889 4126.71,-416.045 4133.96,-413.948"/>
<polygon fill="black" stroke="black" points="4135.18,-417.234 4143.72,-410.956 4133.13,-410.541 4135.18,-417.234"/>
<text text-anchor="middle" x="3772.67" y="-441.02" font-family="Times,serif" font-size="14.00"> static(calibration_target)</text>
</g>
<!-- n38 -->
<g id="node38" class="node"><title>n38</title>
<ellipse fill="none" stroke="black" cx="3483.17" cy="-284.48" rx="48.1667" ry="26.7407"/>
<text text-anchor="middle" x="3483.17" y="-288.28" font-family="Times,serif" font-size="14.00">&lt;rover0&gt;</text>
<text text-anchor="middle" x="3483.17" y="-273.28" font-family="Times,serif" font-size="14.00">rover</text>
</g>
<!-- n1&#45;&gt;n38 -->
<g id="edge57" class="edge"><title>n1&#45;&gt;n38</title>
<path fill="none" stroke="black" d="M3085.79,-495.206C3196.87,-492.163 3437.1,-478.694 3489.17,-419.22 3515.1,-389.597 3516.38,-370.761 3507.17,-332.48 3506.1,-328.051 3504.55,-323.57 3502.73,-319.224"/>
<polygon fill="black" stroke="black" points="3505.82,-317.58 3498.42,-309.997 3499.48,-320.539 3505.82,-317.58"/>
<text text-anchor="middle" x="3559.67" y="-388.65" font-family="Times,serif" font-size="14.00"> static(on_board)</text>
</g>
<!-- n2 -->
<g id="node2" class="node"><title>n2</title>
<ellipse fill="none" stroke="black" cx="776.168" cy="-497.09" rx="56.6372" ry="26.7407"/>
<text text-anchor="middle" x="776.168" y="-500.89" font-family="Times,serif" font-size="14.00">&lt;camera4&gt;</text>
<text text-anchor="middle" x="776.168" y="-485.89" font-family="Times,serif" font-size="14.00">camera</text>
</g>
<!-- n20 -->
<g id="node20" class="node"><title>n20</title>
<ellipse fill="none" stroke="black" cx="174.168" cy="-284.48" rx="53.9813" ry="26.7407"/>
<text text-anchor="middle" x="174.168" y="-288.28" font-family="Times,serif" font-size="14.00">&lt;low_res&gt;</text>
<text text-anchor="middle" x="174.168" y="-273.28" font-family="Times,serif" font-size="14.00">mode</text>
</g>
<!-- n2&#45;&gt;n20 -->
<g id="edge96" class="edge"><title>n2&#45;&gt;n20</title>
<path fill="none" stroke="black" d="M719.538,-494.847C576.379,-490.896 203.686,-475.355 95.168,-419.22 52.6151,-397.208 3.07352,-371.287 31.168,-332.48 49.3317,-307.391 81.3296,-295.459 110.458,-289.879"/>
<polygon fill="black" stroke="black" points="111.339,-293.28 120.614,-288.159 110.17,-286.378 111.339,-293.28"/>
<text text-anchor="middle" x="139.168" y="-388.65" font-family="Times,serif" font-size="14.00"> static(supports)</text>
</g>
<!-- n23 -->
<g id="node23" class="node"><title>n23</title>
<ellipse fill="none" stroke="black" cx="624.168" cy="-392.35" rx="62.8651" ry="26.7407"/>
<text text-anchor="middle" x="624.168" y="-396.15" font-family="Times,serif" font-size="14.00">&lt;objective3&gt;</text>
<text text-anchor="middle" x="624.168" y="-381.15" font-family="Times,serif" font-size="14.00">objective</text>
</g>
<!-- n2&#45;&gt;n23 -->
<g id="edge51" class="edge"><title>n2&#45;&gt;n23</title>
<path fill="none" stroke="black" d="M744.304,-474.553C721.332,-459.025 690.126,-437.933 665.277,-421.137"/>
<polygon fill="black" stroke="black" points="667.022,-418.091 656.777,-415.391 663.102,-423.891 667.022,-418.091"/>
<text text-anchor="middle" x="778.668" y="-441.02" font-family="Times,serif" font-size="14.00"> static(calibration_target)</text>
</g>
<!-- n2&#45;&gt;n26 -->
<g id="edge17" class="edge"><title>n2&#45;&gt;n26</title>
<path fill="none" stroke="black" d="M813.65,-476.752C866.339,-449.954 965.668,-400.836 1053.17,-365.48 1076.23,-356.16 1083.23,-357.102 1106.17,-347.48 1132.64,-336.375 1161.34,-322.049 1184.35,-309.966"/>
<polygon fill="black" stroke="black" points="1185.99,-313.057 1193.2,-305.286 1182.72,-306.87 1185.99,-313.057"/>
<text text-anchor="middle" x="1098.17" y="-388.65" font-family="Times,serif" font-size="14.00"> static(supports)</text>
</g>
<!-- n2&#45;&gt;n38 -->
<g id="edge107" class="edge"><title>n2&#45;&gt;n38</title>
<path fill="none" stroke="black" d="M832.037,-492.779C916.802,-487.773 1082.98,-478.036 1224.17,-470.22 1501.02,-454.895 1570.06,-446.811 1847.17,-437.22 1877.88,-436.158 2927.15,-435.561 2953.17,-419.22 2975.8,-405.005 2957.7,-379.961 2980.17,-365.48 3022.42,-338.251 3387.16,-369.844 3432.17,-347.48 3444.9,-341.155 3455.58,-330.027 3463.83,-318.928"/>
<polygon fill="black" stroke="black" points="3466.83,-320.739 3469.65,-310.527 3461.08,-316.752 3466.83,-320.739"/>
<text text-anchor="middle" x="3026.67" y="-388.65" font-family="Times,serif" font-size="14.00"> static(on_board)</text>
</g>
<!-- n3 -->
<g id="node3" class="node"><title>n3</title>
<ellipse fill="none" stroke="black" cx="2114.17" cy="-392.35" rx="62.8651" ry="26.7407"/>
<text text-anchor="middle" x="2114.17" y="-396.15" font-family="Times,serif" font-size="14.00">&lt;objective8&gt;</text>
<text text-anchor="middle" x="2114.17" y="-381.15" font-family="Times,serif" font-size="14.00">objective</text>
</g>
<!-- n5 -->
<g id="node5" class="node"><title>n5</title>
<ellipse fill="none" stroke="black" cx="5435.17" cy="-284.48" rx="63.7795" ry="26.7407"/>
<text text-anchor="middle" x="5435.17" y="-288.28" font-family="Times,serif" font-size="14.00">&lt;waypoint1&gt;</text>
<text text-anchor="middle" x="5435.17" y="-273.28" font-family="Times,serif" font-size="14.00">waypoint</text>
</g>
<!-- n3&#45;&gt;n5 -->
<g id="edge12" class="edge"><title>n3&#45;&gt;n5</title>
<path fill="none" stroke="black" d="M2171.34,-380.997C2205.9,-375.237 2250.92,-368.615 2291.17,-365.48 2339.5,-361.716 3990.46,-363.614 4036.17,-347.48 4046.31,-343.899 4045.03,-336.079 4055.17,-332.48 4123.34,-308.284 5286.06,-327.779 5357.17,-314.48 5365.54,-312.915 5374.19,-310.533 5382.55,-307.794"/>
<polygon fill="black" stroke="black" points="5383.89,-311.031 5392.19,-304.442 5381.59,-304.42 5383.89,-311.031"/>
<text text-anchor="middle" x="4111.17" y="-336.28" font-family="Times,serif" font-size="14.00"> static(visible_from)</text>
</g>
<!-- n3&#45;&gt;n24 -->
<g id="edge99" class="edge"><title>n3&#45;&gt;n24</title>
<path fill="none" stroke="black" d="M2110.75,-365.38C2110.34,-354.844 2111.14,-342.76 2115.17,-332.48 2117.52,-326.462 2121.03,-320.719 2125.03,-315.444"/>
<polygon fill="black" stroke="black" points="2127.88,-317.483 2131.62,-307.569 2122.52,-312.99 2127.88,-317.483"/>
<text text-anchor="middle" x="2207.17" y="-336.28" font-family="Times,serif" font-size="14.00"> end(communicated_image_data)</text>
</g>
<!-- n28 -->
<g id="node28" class="node"><title>n28</title>
<ellipse fill="none" stroke="black" cx="5468.17" cy="-26.8701" rx="63.7795" ry="26.7407"/>
<text text-anchor="middle" x="5468.17" y="-30.6701" font-family="Times,serif" font-size="14.00">&lt;waypoint0&gt;</text>
<text text-anchor="middle" x="5468.17" y="-15.6701" font-family="Times,serif" font-size="14.00">waypoint</text>
</g>
<!-- n3&#45;&gt;n28 -->
<g id="edge37" class="edge"><title>n3&#45;&gt;n28</title>
<path fill="none" stroke="black" d="M2101.52,-365.809C2088.54,-335.515 2073.68,-285.256 2100.17,-254.48 2278.14,-47.7099 3042.33,-94.8703 3314.17,-71.7401 3731.13,-36.2613 5064.79,-29.2879 5394.11,-28.0941"/>
<polygon fill="black" stroke="black" points="5394.5,-31.5928 5404.48,-28.0572 5394.47,-24.5929 5394.5,-31.5928"/>
<text text-anchor="middle" x="2261.17" y="-205.91" font-family="Times,serif" font-size="14.00"> static(visible_from)</text>
</g>
<!-- n4 -->
<g id="node4" class="node"><title>n4</title>
<ellipse fill="none" stroke="black" cx="5124.17" cy="-392.35" rx="67.7647" ry="26.7407"/>
<text text-anchor="middle" x="5124.17" y="-396.15" font-family="Times,serif" font-size="14.00">&lt;objective25&gt;</text>
<text text-anchor="middle" x="5124.17" y="-381.15" font-family="Times,serif" font-size="14.00">objective</text>
</g>
<!-- n4&#45;&gt;n5 -->
<g id="edge65" class="edge"><title>n4&#45;&gt;n5</title>
<path fill="none" stroke="black" d="M5166.87,-371.226C5194.89,-358.662 5232.61,-342.943 5267.17,-332.48 5306.21,-320.661 5317.93,-325.623 5357.17,-314.48 5364.87,-312.292 5372.9,-309.691 5380.75,-306.958"/>
<polygon fill="black" stroke="black" points="5381.96,-310.242 5390.2,-303.58 5379.61,-303.651 5381.96,-310.242"/>
<text text-anchor="middle" x="5323.17" y="-336.28" font-family="Times,serif" font-size="14.00"> static(visible_from)</text>
</g>
<!-- n4&#45;&gt;n28 -->
<g id="edge90" class="edge"><title>n4&#45;&gt;n28</title>
<path fill="none" stroke="black" d="M5058.78,-384.693C5010.79,-378.299 4951.43,-366.711 4936.17,-347.48 4932.02,-342.258 4931.91,-337.61 4936.17,-332.48 4963.89,-299.076 4999.35,-342.891 5032.17,-314.48 5107.02,-249.688 5033.87,-171.279 5107.17,-104.74 5148.84,-66.9119 5303.3,-44.8036 5396.14,-34.6532"/>
<polygon fill="black" stroke="black" points="5396.74,-38.1087 5406.31,-33.5618 5396,-31.1487 5396.74,-38.1087"/>
<text text-anchor="middle" x="5127.17" y="-205.91" font-family="Times,serif" font-size="14.00"> static(visible_from)</text>
</g>
<!-- n5&#45;&gt;n5 -->
<g id="edge1" class="edge"><title>n5&#45;&gt;n5</title>
<path fill="none" stroke="black" d="M5494.61,-294.306C5507.48,-293.345 5516.81,-290.07 5516.81,-284.48 5516.81,-280.55 5512.19,-277.764 5504.98,-276.122"/>
<polygon fill="black" stroke="black" points="5505,-272.59 5494.61,-274.654 5504.02,-279.521 5505,-272.59"/>
<text text-anchor="middle" x="5573.31" y="-280.78" font-family="Times,serif" font-size="14.00"> init(at_soil_sample)</text>
</g>
<!-- n7 -->
<g id="node7" class="node"><title>n7</title>
<ellipse fill="none" stroke="black" cx="5180.17" cy="-134.74" rx="63.7795" ry="26.7407"/>
<text text-anchor="middle" x="5180.17" y="-138.54" font-family="Times,serif" font-size="14.00">&lt;waypoint2&gt;</text>
<text text-anchor="middle" x="5180.17" y="-123.54" font-family="Times,serif" font-size="14.00">waypoint</text>
</g>
<!-- n5&#45;&gt;n7 -->
<g id="edge77" class="edge"><title>n5&#45;&gt;n7</title>
<path fill="none" stroke="black" d="M5389.75,-265.376C5379.15,-261.493 5367.84,-257.619 5357.17,-254.48 5321.37,-243.953 5303.92,-260.267 5275.17,-236.48 5255.15,-219.918 5268.87,-202.637 5252.17,-182.74 5245.48,-174.77 5237.09,-167.655 5228.43,-161.52"/>
<polygon fill="black" stroke="black" points="5230.34,-158.591 5220.08,-155.943 5226.45,-164.41 5230.34,-158.591"/>
<text text-anchor="middle" x="5314.17" y="-205.91" font-family="Times,serif" font-size="14.00"> static(visible)</text>
</g>
<!-- n5&#45;&gt;n28 -->
<g id="edge14" class="edge"><title>n5&#45;&gt;n28</title>
<path fill="none" stroke="black" d="M5447.33,-257.606C5450.02,-250.864 5452.55,-243.514 5454.17,-236.48 5467.79,-177.121 5469.57,-105.962 5469.18,-63.9681"/>
<polygon fill="black" stroke="black" points="5472.68,-63.8949 5469.04,-53.9449 5465.68,-63.9929 5472.68,-63.8949"/>
<text text-anchor="middle" x="5508.17" y="-131.04" font-family="Times,serif" font-size="14.00"> static(visible)</text>
</g>
<!-- n6 -->
<g id="node6" class="node"><title>n6</title>
<ellipse fill="none" stroke="black" cx="4869.17" cy="-392.35" rx="67.7647" ry="26.7407"/>
<text text-anchor="middle" x="4869.17" y="-396.15" font-family="Times,serif" font-size="14.00">&lt;objective19&gt;</text>
<text text-anchor="middle" x="4869.17" y="-381.15" font-family="Times,serif" font-size="14.00">objective</text>
</g>
<!-- n6&#45;&gt;n5 -->
<g id="edge26" class="edge"><title>n6&#45;&gt;n5</title>
<path fill="none" stroke="black" d="M4929.72,-379.945C4969.39,-371.997 5022.22,-360.51 5068.17,-347.48 5087.64,-341.958 5091.35,-336.587 5111.17,-332.48 5218.51,-310.235 5250.05,-337.815 5357.17,-314.48 5365.39,-312.69 5373.9,-310.214 5382.15,-307.457"/>
<polygon fill="black" stroke="black" points="5383.4,-310.727 5391.68,-304.116 5381.09,-304.121 5383.4,-310.727"/>
<text text-anchor="middle" x="5167.17" y="-336.28" font-family="Times,serif" font-size="14.00"> static(visible_from)</text>
</g>
<!-- n6&#45;&gt;n7 -->
<g id="edge25" class="edge"><title>n6&#45;&gt;n7</title>
<path fill="none" stroke="black" d="M4882.87,-365.896C4890.05,-354.452 4899.75,-341.517 4911.17,-332.48 4983.07,-275.582 5015.93,-285.646 5102.17,-254.48 5127.15,-245.451 5141.35,-256.184 5159.17,-236.48 5174.85,-219.137 5179.99,-193.194 5181.26,-171.979"/>
<polygon fill="black" stroke="black" points="5184.77,-171.808 5181.61,-161.695 5177.77,-171.572 5184.77,-171.808"/>
<text text-anchor="middle" x="5159.17" y="-280.78" font-family="Times,serif" font-size="14.00"> static(visible_from)</text>
</g>
<!-- n6&#45;&gt;n28 -->
<g id="edge81" class="edge"><title>n6&#45;&gt;n28</title>
<path fill="none" stroke="black" d="M4815.46,-375.665C4775.49,-363.87 4727.6,-349.418 4726.17,-347.48 4718.67,-337.334 4693.86,-252.75 4759.17,-182.74 4845.42,-90.2809 5232.27,-47.6028 5395.33,-33.4821"/>
<polygon fill="black" stroke="black" points="5396.07,-36.9313 5405.74,-32.593 5395.48,-29.9567 5396.07,-36.9313"/>
<text text-anchor="middle" x="4815.17" y="-205.91" font-family="Times,serif" font-size="14.00"> static(visible_from)</text>
</g>
<!-- n7&#45;&gt;n5 -->
<g id="edge110" class="edge"><title>n7&#45;&gt;n5</title>
<path fill="none" stroke="black" d="M5242.87,-139.452C5278.84,-144.573 5322.76,-156.29 5353.17,-182.74 5372.77,-199.789 5360.42,-215.818 5376.17,-236.48 5381.14,-242.998 5387.2,-249.138 5393.53,-254.695"/>
<polygon fill="black" stroke="black" points="5391.69,-257.718 5401.62,-261.407 5396.16,-252.329 5391.69,-257.718"/>
<text text-anchor="middle" x="5415.17" y="-205.91" font-family="Times,serif" font-size="14.00"> static(visible)</text>
</g>
<!-- n7&#45;&gt;n7 -->
<g id="edge2" class="edge"><title>n7&#45;&gt;n7</title>
<path fill="none" stroke="black" d="M5239.61,-144.566C5252.48,-143.605 5261.81,-140.33 5261.81,-134.74 5261.81,-130.81 5257.19,-128.024 5249.98,-126.382"/>
<polygon fill="black" stroke="black" points="5250,-122.85 5239.61,-124.914 5249.02,-129.781 5250,-122.85"/>
<text text-anchor="middle" x="5346.81" y="-153.54" font-family="Times,serif" font-size="14.00"> end(communicated_soil_data)</text>
<text text-anchor="middle" x="5346.81" y="-138.54" font-family="Times,serif" font-size="14.00">init(at_soil_sample)</text>
<text text-anchor="middle" x="5346.81" y="-123.54" font-family="Times,serif" font-size="14.00">end(communicated_rock_data)</text>
<text text-anchor="middle" x="5346.81" y="-108.54" font-family="Times,serif" font-size="14.00">init(at_rock_sample)</text>
</g>
<!-- n7&#45;&gt;n28 -->
<g id="edge85" class="edge"><title>n7&#45;&gt;n28</title>
<path fill="none" stroke="black" d="M5231.97,-118.897C5261.07,-110.213 5297.91,-98.6416 5330.17,-86.7401 5359.22,-76.0209 5391.06,-62.5597 5416.82,-51.2159"/>
<polygon fill="black" stroke="black" points="5418.3,-54.3908 5426.02,-47.1414 5415.46,-47.9903 5418.3,-54.3908"/>
<text text-anchor="middle" x="5408.17" y="-75.5401" font-family="Times,serif" font-size="14.00"> static(visible)</text>
</g>
<!-- n8 -->
<g id="node8" class="node"><title>n8</title>
<ellipse fill="none" stroke="black" cx="1831.17" cy="-392.35" rx="62.8651" ry="26.7407"/>
<text text-anchor="middle" x="1831.17" y="-396.15" font-family="Times,serif" font-size="14.00">&lt;objective9&gt;</text>
<text text-anchor="middle" x="1831.17" y="-381.15" font-family="Times,serif" font-size="14.00">objective</text>
</g>
<!-- n8&#45;&gt;n24 -->
<g id="edge35" class="edge"><title>n8&#45;&gt;n24</title>
<path fill="none" stroke="black" d="M1837.03,-365.458C1841.03,-353.626 1847.59,-340.492 1858.17,-332.48 1895.07,-304.523 2022.84,-292.785 2098.89,-288.184"/>
<polygon fill="black" stroke="black" points="2099.49,-291.655 2109.27,-287.581 2099.08,-284.667 2099.49,-291.655"/>
<text text-anchor="middle" x="1950.17" y="-336.28" font-family="Times,serif" font-size="14.00"> end(communicated_image_data)</text>
</g>
<!-- n8&#45;&gt;n28 -->
<g id="edge106" class="edge"><title>n8&#45;&gt;n28</title>
<path fill="none" stroke="black" d="M1832.48,-365.231C1833.9,-354.555 1836.7,-342.409 1842.17,-332.48 1889.29,-246.872 1918.79,-232.031 2003.17,-182.74 2101.84,-125.099 2135.8,-125.544 2248.17,-104.74 2566.38,-45.8242 4942.03,-30.6034 5394.02,-28.2289"/>
<polygon fill="black" stroke="black" points="5394.36,-31.7273 5404.34,-28.1752 5394.32,-24.7274 5394.36,-31.7273"/>
<text text-anchor="middle" x="2059.17" y="-205.91" font-family="Times,serif" font-size="14.00"> static(visible_from)</text>
</g>
<!-- n9 -->
<g id="node9" class="node"><title>n9</title>
<ellipse fill="none" stroke="black" cx="1598.17" cy="-209.61" rx="62.8651" ry="26.7407"/>
<text text-anchor="middle" x="1598.17" y="-213.41" font-family="Times,serif" font-size="14.00">&lt;objective7&gt;</text>
<text text-anchor="middle" x="1598.17" y="-198.41" font-family="Times,serif" font-size="14.00">objective</text>
</g>
<!-- n9&#45;&gt;n28 -->
<g id="edge21" class="edge"><title>n9&#45;&gt;n28</title>
<path fill="none" stroke="black" d="M1616.05,-183.62C1634.19,-160.016 1664.36,-125.259 1698.17,-104.74 1742.53,-77.8173 1758.85,-79.4572 1810.17,-71.7401 1993.69,-44.1417 4892.23,-30.3656 5394.33,-28.1808"/>
<polygon fill="black" stroke="black" points="5394.38,-31.6808 5404.36,-28.1373 5394.35,-24.6808 5394.38,-31.6808"/>
<text text-anchor="middle" x="1754.17" y="-131.04" font-family="Times,serif" font-size="14.00"> static(visible_from)</text>
</g>
<!-- n10 -->
<g id="node10" class="node"><title>n10</title>
<ellipse fill="none" stroke="black" cx="5385.17" cy="-392.35" rx="67.7647" ry="26.7407"/>
<text text-anchor="middle" x="5385.17" y="-396.15" font-family="Times,serif" font-size="14.00">&lt;objective15&gt;</text>
<text text-anchor="middle" x="5385.17" y="-381.15" font-family="Times,serif" font-size="14.00">objective</text>
</g>
<!-- n10&#45;&gt;n5 -->
<g id="edge70" class="edge"><title>n10&#45;&gt;n5</title>
<path fill="none" stroke="black" d="M5381.37,-365.51C5380.87,-354.88 5381.71,-342.692 5386.17,-332.48 5388.8,-326.454 5392.61,-320.823 5396.96,-315.7"/>
<polygon fill="black" stroke="black" points="5399.83,-317.759 5404.15,-308.085 5394.74,-312.952 5399.83,-317.759"/>
<text text-anchor="middle" x="5442.17" y="-336.28" font-family="Times,serif" font-size="14.00"> static(visible_from)</text>
</g>
<!-- n10&#45;&gt;n7 -->
<g id="edge75" class="edge"><title>n10&#45;&gt;n7</title>
<path fill="none" stroke="black" d="M5370.6,-365.798C5362.53,-353.899 5351.44,-340.607 5338.17,-332.48 5304.12,-311.634 5280.71,-340.187 5250.17,-314.48 5227.66,-295.537 5202.91,-217.714 5189.71,-171.231"/>
<polygon fill="black" stroke="black" points="5193.06,-170.227 5186.99,-161.541 5186.32,-172.114 5193.06,-170.227"/>
<text text-anchor="middle" x="5306.17" y="-280.78" font-family="Times,serif" font-size="14.00"> static(visible_from)</text>
</g>
<!-- n10&#45;&gt;n28 -->
<g id="edge88" class="edge"><title>n10&#45;&gt;n28</title>
<path fill="none" stroke="black" d="M5435.89,-374.33C5447.98,-370.863 5460.93,-367.624 5473.17,-365.48 5505.51,-359.813 5745.67,-371.397 5768.17,-347.48 5772.74,-342.625 5770.44,-338.749 5768.17,-332.48 5749.26,-280.258 5715.7,-284.714 5688.17,-236.48 5657.35,-182.492 5683.44,-150.325 5641.17,-104.74 5612.67,-74.01 5569.64,-54.8216 5533.63,-43.3012"/>
<polygon fill="black" stroke="black" points="5534.26,-39.8345 5523.67,-40.252 5532.21,-46.5275 5534.26,-39.8345"/>
<text text-anchor="middle" x="5744.17" y="-205.91" font-family="Times,serif" font-size="14.00"> static(visible_from)</text>
</g>
<!-- n11 -->
<g id="node11" class="node"><title>n11</title>
<ellipse fill="none" stroke="black" cx="1308.17" cy="-392.35" rx="56.6372" ry="26.7407"/>
<text text-anchor="middle" x="1308.17" y="-396.15" font-family="Times,serif" font-size="14.00">&lt;camera8&gt;</text>
<text text-anchor="middle" x="1308.17" y="-381.15" font-family="Times,serif" font-size="14.00">camera</text>
</g>
<!-- n18 -->
<g id="node18" class="node"><title>n18</title>
<ellipse fill="none" stroke="black" cx="1419.17" cy="-209.61" rx="62.8651" ry="26.7407"/>
<text text-anchor="middle" x="1419.17" y="-213.41" font-family="Times,serif" font-size="14.00">&lt;objective1&gt;</text>
<text text-anchor="middle" x="1419.17" y="-198.41" font-family="Times,serif" font-size="14.00">objective</text>
</g>
<!-- n11&#45;&gt;n18 -->
<g id="edge95" class="edge"><title>n11&#45;&gt;n18</title>
<path fill="none" stroke="black" d="M1267.13,-373.837C1257.47,-370.437 1247.1,-367.351 1237.17,-365.48 1194.63,-357.464 488.423,-378.442 458.168,-347.48 453.509,-342.712 453.76,-337.482 458.168,-332.48 516.9,-265.83 1133.32,-226.181 1346.84,-214.365"/>
<polygon fill="black" stroke="black" points="1347.21,-217.85 1357,-213.807 1346.83,-210.86 1347.21,-217.85"/>
<text text-anchor="middle" x="526.668" y="-336.28" font-family="Times,serif" font-size="14.00"> static(calibration_target)</text>
</g>
<!-- n11&#45;&gt;n20 -->
<g id="edge53" class="edge"><title>n11&#45;&gt;n20</title>
<path fill="none" stroke="black" d="M1267.14,-373.814C1257.48,-370.415 1247.1,-367.335 1237.17,-365.48 1138.41,-347.033 429.178,-377.064 333.168,-347.48 321.505,-343.886 321.129,-337.847 310.168,-332.48 284.716,-320.018 255.116,-309.372 230.041,-301.379"/>
<polygon fill="black" stroke="black" points="230.904,-297.981 220.315,-298.338 228.815,-304.662 230.904,-297.981"/>
<text text-anchor="middle" x="377.168" y="-336.28" font-family="Times,serif" font-size="14.00"> static(supports)</text>
</g>
<!-- n11&#45;&gt;n24 -->
<g id="edge15" class="edge"><title>n11&#45;&gt;n24</title>
<path fill="none" stroke="black" d="M1313.94,-365.576C1318.04,-353.468 1324.9,-340.059 1336.17,-332.48 1399,-290.226 1921.52,-285.727 2098.68,-285.426"/>
<polygon fill="black" stroke="black" points="2098.86,-288.925 2108.85,-285.412 2098.85,-281.925 2098.86,-288.925"/>
<text text-anchor="middle" x="1380.17" y="-336.28" font-family="Times,serif" font-size="14.00"> static(supports)</text>
</g>
<!-- n11&#45;&gt;n26 -->
<g id="edge50" class="edge"><title>n11&#45;&gt;n26</title>
<path fill="none" stroke="black" d="M1264.35,-375.008C1255.39,-371.771 1245.99,-368.456 1237.17,-365.48 1211.59,-356.858 1195.18,-369.211 1179.17,-347.48 1170.69,-335.973 1177.21,-323.651 1188,-313.048"/>
<polygon fill="black" stroke="black" points="1190.4,-315.594 1195.59,-306.355 1185.77,-310.344 1190.4,-315.594"/>
<text text-anchor="middle" x="1223.17" y="-336.28" font-family="Times,serif" font-size="14.00"> static(supports)</text>
</g>
<!-- n11&#45;&gt;n38 -->
<g id="edge55" class="edge"><title>n11&#45;&gt;n38</title>
<path fill="none" stroke="black" d="M1349.19,-373.755C1358.85,-370.359 1369.23,-367.295 1379.17,-365.48 1462.24,-350.309 2819.55,-375.649 2899.17,-347.48 2909.31,-343.892 2908.16,-336.427 2918.17,-332.48 3009.23,-296.567 3299.88,-288.088 3424.99,-286.092"/>
<polygon fill="black" stroke="black" points="3425.19,-289.589 3435.14,-285.938 3425.09,-282.59 3425.19,-289.589"/>
<text text-anchor="middle" x="2964.67" y="-336.28" font-family="Times,serif" font-size="14.00"> static(on_board)</text>
</g>
<!-- n12 -->
<g id="node12" class="node"><title>n12</title>
<ellipse fill="none" stroke="black" cx="3645.17" cy="-497.09" rx="56.6372" ry="26.7407"/>
<text text-anchor="middle" x="3645.17" y="-500.89" font-family="Times,serif" font-size="14.00">&lt;camera3&gt;</text>
<text text-anchor="middle" x="3645.17" y="-485.89" font-family="Times,serif" font-size="14.00">camera</text>
</g>
<!-- n12&#45;&gt;n6 -->
<g id="edge23" class="edge"><title>n12&#45;&gt;n6</title>
<path fill="none" stroke="black" d="M3696.63,-485.775C3768.49,-471.879 3903.13,-447.682 4019.17,-437.22 4187.2,-422.07 4611.36,-444.49 4778.17,-419.22 4788.03,-417.726 4798.34,-415.484 4808.33,-412.933"/>
<polygon fill="black" stroke="black" points="4809.42,-416.264 4818.17,-410.296 4807.61,-409.502 4809.42,-416.264"/>
<text text-anchor="middle" x="4087.67" y="-441.02" font-family="Times,serif" font-size="14.00"> static(calibration_target)</text>
</g>
<!-- n12&#45;&gt;n26 -->
<g id="edge13" class="edge"><title>n12&#45;&gt;n26</title>
<path fill="none" stroke="black" d="M3588.97,-492.925C3489.47,-487.438 3275.74,-476.175 3095.17,-470.22 3008.45,-467.361 1608.1,-464.633 1534.17,-419.22 1510.67,-404.789 1525.18,-382.085 1503.17,-365.48 1476.84,-345.616 1461.94,-359.359 1431.17,-347.48 1418,-342.396 1416.29,-337.688 1403.17,-332.48 1366.64,-317.982 1324.07,-306.397 1290.18,-298.356"/>
<polygon fill="black" stroke="black" points="1290.94,-294.94 1280.41,-296.079 1289.36,-301.758 1290.94,-294.94"/>
<text text-anchor="middle" x="1578.17" y="-388.65" font-family="Times,serif" font-size="14.00"> static(supports)</text>
</g>
<!-- n12&#45;&gt;n38 -->
<g id="edge76" class="edge"><title>n12&#45;&gt;n38</title>
<path fill="none" stroke="black" d="M3645.98,-470.207C3645.58,-441.838 3640.98,-396.271 3618.17,-365.48 3608.22,-352.057 3599.64,-355.821 3585.17,-347.48 3564.55,-335.601 3541.91,-321.906 3523.21,-310.413"/>
<polygon fill="black" stroke="black" points="3524.99,-307.401 3514.64,-305.135 3521.32,-313.361 3524.99,-307.401"/>
<text text-anchor="middle" x="3687.67" y="-388.65" font-family="Times,serif" font-size="14.00"> static(on_board)</text>
</g>
<!-- n13 -->
<g id="node13" class="node"><title>n13</title>
<ellipse fill="none" stroke="black" cx="3828.17" cy="-392.35" rx="67.3507" ry="26.7407"/>
<text text-anchor="middle" x="3828.17" y="-396.15" font-family="Times,serif" font-size="14.00">&lt;rover0store&gt;</text>
<text text-anchor="middle" x="3828.17" y="-381.15" font-family="Times,serif" font-size="14.00">store</text>
</g>
<!-- n13&#45;&gt;n13 -->
<g id="edge3" class="edge"><title>n13&#45;&gt;n13</title>
<path fill="none" stroke="black" d="M3891.31,-401.728C3904.15,-400.707 3913.34,-397.581 3913.34,-392.35 3913.34,-388.673 3908.8,-386.035 3901.64,-384.438"/>
<polygon fill="black" stroke="black" points="3901.71,-380.913 3891.31,-382.972 3900.72,-387.844 3901.71,-380.913"/>
<text text-anchor="middle" x="3946.34" y="-388.65" font-family="Times,serif" font-size="14.00"> init(empty)</text>
</g>
<!-- n13&#45;&gt;n38 -->
<g id="edge87" class="edge"><title>n13&#45;&gt;n38</title>
<path fill="none" stroke="black" d="M3778.87,-374.025C3768.49,-370.825 3757.55,-367.775 3747.17,-365.48 3685.05,-351.745 3664.88,-369.413 3605.17,-347.48 3593.71,-343.273 3592.82,-338.444 3582.17,-332.48 3565.36,-323.066 3546.36,-313.747 3529.53,-305.92"/>
<polygon fill="black" stroke="black" points="3530.98,-302.734 3520.44,-301.734 3528.06,-309.094 3530.98,-302.734"/>
<text text-anchor="middle" x="3648.17" y="-336.28" font-family="Times,serif" font-size="14.00"> static(store_of)</text>
</g>
<!-- n14 -->
<g id="node14" class="node"><title>n14</title>
<ellipse fill="none" stroke="black" cx="6127.17" cy="-392.35" rx="67.7647" ry="26.7407"/>
<text text-anchor="middle" x="6127.17" y="-396.15" font-family="Times,serif" font-size="14.00">&lt;objective18&gt;</text>
<text text-anchor="middle" x="6127.17" y="-381.15" font-family="Times,serif" font-size="14.00">objective</text>
</g>
<!-- n14&#45;&gt;n5 -->
<g id="edge73" class="edge"><title>n14&#45;&gt;n5</title>
<path fill="none" stroke="black" d="M6078.28,-373.434C6039.68,-360.023 5984.17,-342.356 5934.17,-332.48 5784.94,-303.008 5606.83,-291.87 5508.87,-287.77"/>
<polygon fill="black" stroke="black" points="5508.91,-284.269 5498.78,-287.361 5508.63,-291.264 5508.91,-284.269"/>
<text text-anchor="middle" x="6050.17" y="-336.28" font-family="Times,serif" font-size="14.00"> static(visible_from)</text>
</g>
<!-- n14&#45;&gt;n7 -->
<g id="edge54" class="edge"><title>n14&#45;&gt;n7</title>
<path fill="none" stroke="black" d="M6126,-365.215C6124.06,-353.476 6119.69,-340.491 6110.17,-332.48 6081.94,-308.742 5979.81,-327.139 5945.17,-314.48 5886.81,-293.159 5870.58,-282.793 5829.17,-236.48 5811.22,-216.404 5823.82,-197.313 5801.17,-182.74 5769.45,-162.33 5499.77,-167.67 5462.17,-164.74 5390.07,-159.123 5307.84,-150.401 5250.86,-143.988"/>
<polygon fill="black" stroke="black" points="5251.2,-140.505 5240.88,-142.859 5250.42,-147.461 5251.2,-140.505"/>
<text text-anchor="middle" x="6001.17" y="-280.78" font-family="Times,serif" font-size="14.00"> static(visible_from)</text>
</g>
<!-- n14&#45;&gt;n28 -->
<g id="edge93" class="edge"><title>n14&#45;&gt;n28</title>
<path fill="none" stroke="black" d="M6195.32,-391.533C6275.94,-390.125 6403.02,-382.254 6433.17,-347.48 6452.85,-324.778 6451.83,-134.241 6428.17,-104.74 6373.04,-36.0004 5757.79,-28.3446 5542.23,-27.7842"/>
<polygon fill="black" stroke="black" points="5541.98,-24.2837 5531.97,-27.7621 5541.96,-31.2837 5541.98,-24.2837"/>
<text text-anchor="middle" x="6503.17" y="-205.91" font-family="Times,serif" font-size="14.00"> static(visible_from)</text>
</g>
<!-- n15 -->
<g id="node15" class="node"><title>n15</title>
<ellipse fill="none" stroke="black" cx="5550.17" cy="-392.35" rx="67.7647" ry="26.7407"/>
<text text-anchor="middle" x="5550.17" y="-396.15" font-family="Times,serif" font-size="14.00">&lt;objective12&gt;</text>
<text text-anchor="middle" x="5550.17" y="-381.15" font-family="Times,serif" font-size="14.00">objective</text>
</g>
<!-- n15&#45;&gt;n5 -->
<g id="edge9" class="edge"><title>n15&#45;&gt;n5</title>
<path fill="none" stroke="black" d="M5530.23,-366.535C5520.96,-355.611 5509.5,-342.917 5498.17,-332.48 5491.24,-326.1 5483.46,-319.743 5475.81,-313.861"/>
<polygon fill="black" stroke="black" points="5477.68,-310.894 5467.59,-307.686 5473.48,-316.491 5477.68,-310.894"/>
<text text-anchor="middle" x="5568.17" y="-336.28" font-family="Times,serif" font-size="14.00"> static(visible_from)</text>
</g>
<!-- n15&#45;&gt;n28 -->
<g id="edge27" class="edge"><title>n15&#45;&gt;n28</title>
<path fill="none" stroke="black" d="M5600.24,-374.064C5611,-370.823 5622.39,-367.746 5633.17,-365.48 5668.18,-358.124 5768.04,-372.947 5793.17,-347.48 5844.71,-295.249 5830.81,-251.113 5804.17,-182.74 5779.84,-120.313 5760.76,-104.241 5702.17,-71.7401 5652.99,-44.4571 5589.98,-33.7832 5541.74,-29.7701"/>
<polygon fill="black" stroke="black" points="5541.91,-26.2734 5531.68,-29.0112 5541.38,-33.2536 5541.91,-26.2734"/>
<text text-anchor="middle" x="5879.17" y="-205.91" font-family="Times,serif" font-size="14.00"> static(visible_from)</text>
</g>
<!-- n16 -->
<g id="node16" class="node"><title>n16</title>
<ellipse fill="none" stroke="black" cx="4015.17" cy="-497.09" rx="56.6372" ry="26.7407"/>
<text text-anchor="middle" x="4015.17" y="-500.89" font-family="Times,serif" font-size="14.00">&lt;camera6&gt;</text>
<text text-anchor="middle" x="4015.17" y="-485.89" font-family="Times,serif" font-size="14.00">camera</text>
</g>
<!-- n16&#45;&gt;n24 -->
<g id="edge45" class="edge"><title>n16&#45;&gt;n24</title>
<path fill="none" stroke="black" d="M3960.01,-490.85C3899.14,-485.193 3798.23,-476.193 3711.17,-470.22 3656.89,-466.497 2770.62,-458.681 2733.17,-419.22 2716.72,-401.897 2721.4,-386.265 2733.17,-365.48 2740.83,-351.949 2755.51,-361.011 2763.17,-347.48 2766.45,-341.679 2767.7,-337.373 2763.17,-332.48 2726.46,-292.82 2360.53,-286.537 2215.72,-285.609"/>
<polygon fill="black" stroke="black" points="2215.7,-282.109 2205.68,-285.551 2215.66,-289.109 2215.7,-282.109"/>
<text text-anchor="middle" x="2778.17" y="-388.65" font-family="Times,serif" font-size="14.00"> static(supports)</text>
</g>
<!-- n30 -->
<g id="node30" class="node"><title>n30</title>
<ellipse fill="none" stroke="black" cx="4338.17" cy="-392.35" rx="67.7647" ry="26.7407"/>
<text text-anchor="middle" x="4338.17" y="-396.15" font-family="Times,serif" font-size="14.00">&lt;objective17&gt;</text>
<text text-anchor="middle" x="4338.17" y="-381.15" font-family="Times,serif" font-size="14.00">objective</text>
</g>
<!-- n16&#45;&gt;n30 -->
<g id="edge20" class="edge"><title>n16&#45;&gt;n30</title>
<path fill="none" stroke="black" d="M4061.96,-481.792C4111.52,-466.573 4192,-441.643 4261.17,-419.22 4266.67,-417.437 4272.38,-415.562 4278.1,-413.669"/>
<polygon fill="black" stroke="black" points="4279.3,-416.957 4287.69,-410.481 4277.09,-410.315 4279.3,-416.957"/>
<text text-anchor="middle" x="4269.67" y="-441.02" font-family="Times,serif" font-size="14.00"> static(calibration_target)</text>
</g>
<!-- n16&#45;&gt;n38 -->
<g id="edge32" class="edge"><title>n16&#45;&gt;n38</title>
<path fill="none" stroke="black" d="M4018.15,-469.998C4019.99,-439.876 4017.67,-391.191 3988.17,-365.48 3965.59,-345.798 3747.96,-355.739 3719.17,-347.48 3705.6,-343.588 3704.4,-337.414 3691.17,-332.48 3641.23,-313.854 3581.68,-301.314 3539.12,-293.905"/>
<polygon fill="black" stroke="black" points="3539.67,-290.448 3529.23,-292.221 3538.5,-297.349 3539.67,-290.448"/>
<text text-anchor="middle" x="4062.67" y="-388.65" font-family="Times,serif" font-size="14.00"> static(on_board)</text>
</g>
<!-- n17 -->
<g id="node17" class="node"><title>n17</title>
<ellipse fill="none" stroke="black" cx="1290.17" cy="-497.09" rx="56.6372" ry="26.7407"/>
<text text-anchor="middle" x="1290.17" y="-500.89" font-family="Times,serif" font-size="14.00">&lt;camera7&gt;</text>
<text text-anchor="middle" x="1290.17" y="-485.89" font-family="Times,serif" font-size="14.00">camera</text>
</g>
<!-- n17&#45;&gt;n3 -->
<g id="edge103" class="edge"><title>n17&#45;&gt;n3</title>
<path fill="none" stroke="black" d="M1346.61,-494.136C1471.43,-488.967 1779.81,-471.537 2032.17,-419.22 2040.17,-417.561 2048.5,-415.429 2056.65,-413.102"/>
<polygon fill="black" stroke="black" points="2057.88,-416.387 2066.47,-410.185 2055.89,-409.677 2057.88,-416.387"/>
<text text-anchor="middle" x="2001.67" y="-441.02" font-family="Times,serif" font-size="14.00"> static(calibration_target)</text>
</g>
<!-- n17&#45;&gt;n20 -->
<g id="edge94" class="edge"><title>n17&#45;&gt;n20</title>
<path fill="none" stroke="black" d="M1237.31,-487.253C1155.03,-473.894 991.214,-448.881 851.168,-437.22 729.745,-427.11 421.887,-446.635 303.168,-419.22 246.229,-406.072 239.315,-381.682 183.168,-365.48 155.781,-357.578 74.8559,-369.004 56.168,-347.48 34.2786,-322.27 74.5394,-305.783 113.851,-296.194"/>
<polygon fill="black" stroke="black" points="114.828,-299.561 123.787,-293.904 113.256,-292.74 114.828,-299.561"/>
<text text-anchor="middle" x="347.168" y="-388.65" font-family="Times,serif" font-size="14.00"> static(supports)</text>
</g>
<!-- n17&#45;&gt;n24 -->
<g id="edge91" class="edge"><title>n17&#45;&gt;n24</title>
<path fill="none" stroke="black" d="M1345.54,-491.291C1486.98,-478.732 1853.87,-444.146 1903.17,-419.22 1932.55,-404.362 1925.38,-381.459 1954.17,-365.48 1989.07,-346.108 2004.64,-361.098 2042.17,-347.48 2068.29,-338.002 2095.74,-323.398 2117.27,-310.744"/>
<polygon fill="black" stroke="black" points="2119.33,-313.594 2126.12,-305.461 2115.74,-307.585 2119.33,-313.594"/>
<text text-anchor="middle" x="1998.17" y="-388.65" font-family="Times,serif" font-size="14.00"> static(supports)</text>
</g>
<!-- n17&#45;&gt;n26 -->
<g id="edge60" class="edge"><title>n17&#45;&gt;n26</title>
<path fill="none" stroke="black" d="M1242.14,-482.756C1211.08,-471.36 1173.03,-451.548 1154.17,-419.22 1134.33,-385.213 1147.1,-362.839 1172.17,-332.48 1177.63,-325.87 1184.12,-319.507 1190.74,-313.713"/>
<polygon fill="black" stroke="black" points="1193.1,-316.302 1198.51,-307.193 1188.6,-310.94 1193.1,-316.302"/>
<text text-anchor="middle" x="1198.17" y="-388.65" font-family="Times,serif" font-size="14.00"> static(supports)</text>
</g>
<!-- n17&#45;&gt;n38 -->
<g id="edge104" class="edge"><title>n17&#45;&gt;n38</title>
<path fill="none" stroke="black" d="M1347.02,-495.924C1476.61,-494.889 1803.61,-488.555 2074.17,-452.22 2105.7,-447.985 2112.56,-440.877 2144.17,-437.22 2195.67,-431.262 3030.93,-442.661 3077.17,-419.22 3103.96,-405.637 3091.61,-379.514 3118.17,-365.48 3184.87,-330.239 3395.48,-390.906 3457.17,-347.48 3466.14,-341.167 3472.02,-331.134 3475.88,-320.964"/>
<polygon fill="black" stroke="black" points="3479.27,-321.879 3479,-311.288 3472.6,-319.735 3479.27,-321.879"/>
<text text-anchor="middle" x="3164.67" y="-388.65" font-family="Times,serif" font-size="14.00"> static(on_board)</text>
</g>
<!-- n18&#45;&gt;n28 -->
<g id="edge109" class="edge"><title>n18&#45;&gt;n28</title>
<path fill="none" stroke="black" d="M1435.36,-183.533C1452.55,-159.16 1482.06,-123.202 1517.17,-104.74 1601.96,-60.1565 1634.7,-79.6555 1730.17,-71.7401 2107.46,-40.4583 4902.42,-29.7551 5394.34,-28.1052"/>
<polygon fill="black" stroke="black" points="5394.52,-31.6047 5404.51,-28.0712 5394.49,-24.6047 5394.52,-31.6047"/>
<text text-anchor="middle" x="1573.17" y="-131.04" font-family="Times,serif" font-size="14.00"> static(visible_from)</text>
</g>
<!-- n19 -->
<g id="node19" class="node"><title>n19</title>
<ellipse fill="none" stroke="black" cx="5921.17" cy="-392.35" rx="62.8651" ry="26.7407"/>
<text text-anchor="middle" x="5921.17" y="-396.15" font-family="Times,serif" font-size="14.00">&lt;objective2&gt;</text>
<text text-anchor="middle" x="5921.17" y="-381.15" font-family="Times,serif" font-size="14.00">objective</text>
</g>
<!-- n19&#45;&gt;n5 -->
<g id="edge19" class="edge"><title>n19&#45;&gt;n5</title>
<path fill="none" stroke="black" d="M5879.7,-372.022C5850.07,-358.972 5808.92,-342.38 5771.17,-332.48 5682.16,-309.136 5576.65,-296.78 5507.93,-290.695"/>
<polygon fill="black" stroke="black" points="5507.91,-287.18 5497.65,-289.807 5507.31,-294.154 5507.91,-287.18"/>
<text text-anchor="middle" x="5874.17" y="-336.28" font-family="Times,serif" font-size="14.00"> static(visible_from)</text>
</g>
<!-- n19&#45;&gt;n28 -->
<g id="edge31" class="edge"><title>n19&#45;&gt;n28</title>
<path fill="none" stroke="black" d="M5975.85,-378.908C5998.71,-374.091 6025.62,-368.92 6050.17,-365.48 6074.79,-362.03 6256.31,-365.751 6273.17,-347.48 6277.69,-342.58 6274.86,-338.928 6273.17,-332.48 6263.06,-293.983 6256.51,-283.403 6229.17,-254.48 6188.56,-211.525 6171.52,-205.986 6117.17,-182.74 6086.05,-169.43 6075.04,-176.126 6043.17,-164.74 5985.13,-144.011 5975.46,-127.448 5918.17,-104.74 5873.09,-86.8706 5861.53,-82.166 5814.17,-71.7401 5720.89,-51.205 5611.19,-39.32 5540.73,-33.2219"/>
<polygon fill="black" stroke="black" points="5540.89,-29.7225 5530.63,-32.3638 5540.29,-36.6974 5540.89,-29.7225"/>
<text text-anchor="middle" x="6267.17" y="-205.91" font-family="Times,serif" font-size="14.00"> static(visible_from)</text>
</g>
<!-- n21 -->
<g id="node21" class="node"><title>n21</title>
<ellipse fill="none" stroke="black" cx="2887.17" cy="-392.35" rx="56.6372" ry="26.7407"/>
<text text-anchor="middle" x="2887.17" y="-396.15" font-family="Times,serif" font-size="14.00">&lt;camera2&gt;</text>
<text text-anchor="middle" x="2887.17" y="-381.15" font-family="Times,serif" font-size="14.00">camera</text>
</g>
<!-- n21&#45;&gt;n24 -->
<g id="edge66" class="edge"><title>n21&#45;&gt;n24</title>
<path fill="none" stroke="black" d="M2851.36,-371.214C2838.59,-363.89 2824.15,-355.453 2811.17,-347.48 2800.77,-341.094 2799.73,-336.39 2788.17,-332.48 2683.07,-296.937 2351,-288.222 2215.55,-286.127"/>
<polygon fill="black" stroke="black" points="2215.42,-282.625 2205.37,-285.977 2215.32,-289.624 2215.42,-282.625"/>
<text text-anchor="middle" x="2855.17" y="-336.28" font-family="Times,serif" font-size="14.00"> static(supports)</text>
</g>
<!-- n21&#45;&gt;n38 -->
<g id="edge11" class="edge"><title>n21&#45;&gt;n38</title>
<path fill="none" stroke="black" d="M2928.62,-373.929C2938.17,-370.569 2948.4,-367.478 2958.17,-365.48 3103.38,-335.786 3145.43,-374.478 3291.17,-347.48 3294.79,-346.809 3376.72,-320.195 3432.37,-302.058"/>
<polygon fill="black" stroke="black" points="3433.67,-305.318 3442.09,-298.891 3431.5,-298.663 3433.67,-305.318"/>
<text text-anchor="middle" x="3386.67" y="-336.28" font-family="Times,serif" font-size="14.00"> static(on_board)</text>
</g>
<!-- n40 -->
<g id="node40" class="node"><title>n40</title>
<ellipse fill="none" stroke="black" cx="3178.17" cy="-209.61" rx="67.7647" ry="26.7407"/>
<text text-anchor="middle" x="3178.17" y="-213.41" font-family="Times,serif" font-size="14.00">&lt;objective24&gt;</text>
<text text-anchor="middle" x="3178.17" y="-198.41" font-family="Times,serif" font-size="14.00">objective</text>
</g>
<!-- n21&#45;&gt;n40 -->
<g id="edge98" class="edge"><title>n21&#45;&gt;n40</title>
<path fill="none" stroke="black" d="M2929.08,-374.155C2938.52,-370.826 2948.58,-367.69 2958.17,-365.48 2995.83,-356.799 3100.92,-371.538 3131.17,-347.48 3161.47,-323.385 3172.32,-278.712 3176.16,-246.96"/>
<polygon fill="black" stroke="black" points="3179.67,-247.042 3177.21,-236.736 3172.7,-246.326 3179.67,-247.042"/>
<text text-anchor="middle" x="3213.67" y="-336.28" font-family="Times,serif" font-size="14.00"> static(calibration_target)</text>
</g>
<!-- n22 -->
<g id="node22" class="node"><title>n22</title>
<ellipse fill="none" stroke="black" cx="6115.17" cy="-134.74" rx="62.8651" ry="26.7407"/>
<text text-anchor="middle" x="6115.17" y="-138.54" font-family="Times,serif" font-size="14.00">&lt;objective0&gt;</text>
<text text-anchor="middle" x="6115.17" y="-123.54" font-family="Times,serif" font-size="14.00">objective</text>
</g>
<!-- n22&#45;&gt;n28 -->
<g id="edge43" class="edge"><title>n22&#45;&gt;n28</title>
<path fill="none" stroke="black" d="M6092.64,-109.441C6078.44,-95.8209 6058.91,-79.9612 6038.17,-71.7401 5949.93,-36.7665 5675.36,-29.5642 5542.15,-28.158"/>
<polygon fill="black" stroke="black" points="5542.06,-24.6571 5532.03,-28.0595 5541.99,-31.6568 5542.06,-24.6571"/>
<text text-anchor="middle" x="6120.17" y="-75.5401" font-family="Times,serif" font-size="14.00"> static(visible_from)</text>
</g>
<!-- n23&#45;&gt;n5 -->
<g id="edge69" class="edge"><title>n23&#45;&gt;n5</title>
<path fill="none" stroke="black" d="M672.884,-375.183C687.008,-371.213 702.562,-367.519 717.168,-365.48 881.027,-342.61 3530.33,-361.625 3695.17,-347.48 3735.57,-344.013 3744.77,-336.056 3785.17,-332.48 3959.17,-317.076 5185.43,-346.389 5357.17,-314.48 5365.54,-312.925 5374.19,-310.548 5382.55,-307.812"/>
<polygon fill="black" stroke="black" points="5383.9,-311.049 5392.19,-304.461 5381.6,-304.437 5383.9,-311.049"/>
<text text-anchor="middle" x="3841.17" y="-336.28" font-family="Times,serif" font-size="14.00"> static(visible_from)</text>
</g>
<!-- n23&#45;&gt;n26 -->
<g id="edge38" class="edge"><title>n23&#45;&gt;n26</title>
<path fill="none" stroke="black" d="M605.447,-366.614C599.078,-355.056 595.506,-341.818 604.168,-332.48 641.513,-292.221 1008.57,-286.229 1162.15,-285.496"/>
<polygon fill="black" stroke="black" points="1162.4,-288.995 1172.39,-285.453 1162.37,-281.995 1162.4,-288.995"/>
<text text-anchor="middle" x="696.168" y="-336.28" font-family="Times,serif" font-size="14.00"> end(communicated_image_data)</text>
</g>
<!-- n23&#45;&gt;n28 -->
<g id="edge83" class="edge"><title>n23&#45;&gt;n28</title>
<path fill="none" stroke="black" d="M581.261,-372.642C573.068,-369.757 564.459,-367.176 556.168,-365.48 507.252,-355.473 151.8,-369.86 107.168,-347.48 32.5868,-310.084 -31.6154,-250.423 17.168,-182.74 114.015,-48.3724 669.695,-72.2324 681.168,-71.7401 1655.29,-29.9449 4864.97,-27.9108 5394.03,-27.8624"/>
<polygon fill="black" stroke="black" points="5394.21,-31.3625 5404.21,-27.8617 5394.21,-24.3625 5394.21,-31.3625"/>
<text text-anchor="middle" x="73.168" y="-205.91" font-family="Times,serif" font-size="14.00"> static(visible_from)</text>
</g>
<!-- n25 -->
<g id="node25" class="node"><title>n25</title>
<ellipse fill="none" stroke="black" cx="6248.17" cy="-134.74" rx="51.7379" ry="26.7407"/>
<text text-anchor="middle" x="6248.17" y="-138.54" font-family="Times,serif" font-size="14.00">&lt;general&gt;</text>
<text text-anchor="middle" x="6248.17" y="-123.54" font-family="Times,serif" font-size="14.00">lander</text>
</g>
<!-- n25&#45;&gt;n25 -->
<g id="edge4" class="edge"><title>n25&#45;&gt;n25</title>
<path fill="none" stroke="black" d="M6296.32,-144.744C6308.58,-144.086 6317.79,-140.752 6317.79,-134.74 6317.79,-130.513 6313.24,-127.61 6306.27,-126.03"/>
<polygon fill="black" stroke="black" points="6306.69,-122.555 6296.32,-124.736 6305.79,-129.496 6306.69,-122.555"/>
<text text-anchor="middle" x="6368.29" y="-131.04" font-family="Times,serif" font-size="14.00"> init(channel_free)</text>
</g>
<!-- n25&#45;&gt;n28 -->
<g id="edge52" class="edge"><title>n25&#45;&gt;n28</title>
<path fill="none" stroke="black" d="M6229.15,-109.665C6216.8,-95.9418 6199.44,-79.8979 6180.17,-71.7401 6122.54,-47.3471 5712.07,-34.1253 5541.85,-29.6403"/>
<polygon fill="black" stroke="black" points="5541.81,-26.1382 5531.72,-29.3764 5541.63,-33.1358 5541.81,-26.1382"/>
<text text-anchor="middle" x="6250.17" y="-75.5401" font-family="Times,serif" font-size="14.00"> static(at_lander)</text>
</g>
<!-- n27 -->
<g id="node27" class="node"><title>n27</title>
<ellipse fill="none" stroke="black" cx="6913.17" cy="-392.35" rx="67.7647" ry="26.7407"/>
<text text-anchor="middle" x="6913.17" y="-396.15" font-family="Times,serif" font-size="14.00">&lt;objective14&gt;</text>
<text text-anchor="middle" x="6913.17" y="-381.15" font-family="Times,serif" font-size="14.00">objective</text>
</g>
<!-- n27&#45;&gt;n5 -->
<g id="edge101" class="edge"><title>n27&#45;&gt;n5</title>
<path fill="none" stroke="black" d="M6850.71,-381.656C6816.37,-376.493 6772.97,-370.244 6734.17,-365.48 6655.25,-355.791 6635.05,-357.499 6556.17,-347.48 6512.46,-341.928 6502.05,-336.47 6458.17,-332.48 6187.61,-307.882 6118.5,-328.021 5847.17,-314.48 5727.89,-308.528 5589.43,-298.046 5507.23,-291.447"/>
<polygon fill="black" stroke="black" points="5507.49,-287.957 5497.24,-290.643 5506.93,-294.935 5507.49,-287.957"/>
<text text-anchor="middle" x="6612.17" y="-336.28" font-family="Times,serif" font-size="14.00"> static(visible_from)</text>
</g>
<!-- n27&#45;&gt;n28 -->
<g id="edge108" class="edge"><title>n27&#45;&gt;n28</title>
<path fill="none" stroke="black" d="M6925.06,-365.558C6943.38,-324.237 6977.7,-240.171 6990.17,-164.74 6996.99,-123.433 7010.04,-94.9164 6975.17,-71.7401 6914.98,-31.7356 5836.77,-28.105 5542.07,-27.8618"/>
<polygon fill="black" stroke="black" points="5541.92,-24.3618 5531.92,-27.8545 5541.92,-31.3618 5541.92,-24.3618"/>
<text text-anchor="middle" x="7043.17" y="-205.91" font-family="Times,serif" font-size="14.00"> static(visible_from)</text>
</g>
<!-- n28&#45;&gt;n5 -->
<g id="edge40" class="edge"><title>n28&#45;&gt;n5</title>
<path fill="none" stroke="black" d="M5502.98,-49.6621C5521,-63.0867 5541.26,-82.0627 5551.17,-104.74 5561.84,-129.177 5561.23,-140.044 5551.17,-164.74 5536.04,-201.867 5503.1,-233.706 5476.18,-255.042"/>
<polygon fill="black" stroke="black" points="5473.82,-252.44 5468.04,-261.32 5478.09,-257.982 5473.82,-252.44"/>
<text text-anchor="middle" x="5598.17" y="-131.04" font-family="Times,serif" font-size="14.00"> static(visible)</text>
</g>
<!-- n28&#45;&gt;n7 -->
<g id="edge56" class="edge"><title>n28&#45;&gt;n7</title>
<path fill="none" stroke="black" d="M5405.42,-32.155C5360.79,-37.1783 5300.45,-48.0822 5252.17,-71.7401 5236.74,-79.3023 5221.94,-90.9774 5209.82,-102.166"/>
<polygon fill="black" stroke="black" points="5207.06,-99.9568 5202.26,-109.399 5211.9,-105.014 5207.06,-99.9568"/>
<text text-anchor="middle" x="5291.17" y="-75.5401" font-family="Times,serif" font-size="14.00"> static(visible)</text>
</g>
<!-- n28&#45;&gt;n28 -->
<g id="edge5" class="edge"><title>n28&#45;&gt;n28</title>
<path fill="none" stroke="black" d="M5527.97,-36.3053C5540.65,-35.3472 5549.81,-32.2021 5549.81,-26.8701 5549.81,-23.121 5545.28,-20.4531 5538.19,-18.8664"/>
<polygon fill="black" stroke="black" points="5538.36,-15.3569 5527.97,-17.4349 5537.39,-22.2891 5538.36,-15.3569"/>
<text text-anchor="middle" x="5634.31" y="-30.6701" font-family="Times,serif" font-size="14.00"> end(communicated_soil_data)</text>
<text text-anchor="middle" x="5634.31" y="-15.6701" font-family="Times,serif" font-size="14.00">init(at_soil_sample)</text>
</g>
<!-- n29&#45;&gt;n5 -->
<g id="edge64" class="edge"><title>n29&#45;&gt;n5</title>
<path fill="none" stroke="black" d="M4236.25,-374.251C4265.77,-363.433 4299.47,-350.871 4306.17,-347.48 4317.06,-341.972 4317.5,-336.06 4329.17,-332.48 4438.38,-298.971 5244.91,-335.689 5357.17,-314.48 5365.53,-312.899 5374.18,-310.509 5382.54,-307.767"/>
<polygon fill="black" stroke="black" points="5383.89,-311.004 5392.18,-304.412 5381.59,-304.392 5383.89,-311.004"/>
<text text-anchor="middle" x="4385.17" y="-336.28" font-family="Times,serif" font-size="14.00"> static(visible_from)</text>
</g>
<!-- n29&#45;&gt;n28 -->
<g id="edge97" class="edge"><title>n29&#45;&gt;n28</title>
<path fill="none" stroke="black" d="M4143.91,-373.665C4133.92,-370.408 4123.3,-367.425 4113.17,-365.48 4074.93,-358.136 3789.99,-375.713 3763.17,-347.48 3758.65,-342.728 3763.41,-222.676 3803.17,-182.74 3896.43,-89.0707 3959.82,-126.667 4090.17,-104.74 4344.66,-61.9319 5146.51,-36.7396 5394.41,-29.8265"/>
<polygon fill="black" stroke="black" points="5394.84,-33.3158 5404.74,-29.5399 5394.65,-26.3185 5394.84,-33.3158"/>
<text text-anchor="middle" x="3859.17" y="-205.91" font-family="Times,serif" font-size="14.00"> static(visible_from)</text>
</g>
<!-- n30&#45;&gt;n5 -->
<g id="edge78" class="edge"><title>n30&#45;&gt;n5</title>
<path fill="none" stroke="black" d="M4402.41,-383.578C4470.46,-375.212 4581,-361.246 4676.17,-347.48 4718.04,-341.424 4728.05,-336.47 4770.17,-332.48 4900.09,-320.173 5229.09,-339.551 5357.17,-314.48 5365.52,-312.844 5374.17,-310.425 5382.52,-307.669"/>
<polygon fill="black" stroke="black" points="5383.87,-310.904 5392.16,-304.306 5381.57,-304.295 5383.87,-310.904"/>
<text text-anchor="middle" x="4826.17" y="-336.28" font-family="Times,serif" font-size="14.00"> static(visible_from)</text>
</g>
<!-- n30&#45;&gt;n7 -->
<g id="edge48" class="edge"><title>n30&#45;&gt;n7</title>
<path fill="none" stroke="black" d="M4406.14,-391.685C4487.74,-390.468 4617.47,-382.826 4648.17,-347.48 4658.06,-336.086 4643.3,-329.243 4640.17,-314.48 4634.63,-288.394 4622.13,-274.125 4640.17,-254.48 4671.84,-219.976 4811.2,-262.461 4850.17,-236.48 4872.58,-221.541 4856.29,-198.442 4878.17,-182.74 4913.86,-157.131 5029.7,-144.988 5107.1,-139.604"/>
<polygon fill="black" stroke="black" points="5107.53,-143.083 5117.28,-138.919 5107.06,-136.099 5107.53,-143.083"/>
<text text-anchor="middle" x="4696.17" y="-280.78" font-family="Times,serif" font-size="14.00"> static(visible_from)</text>
</g>
<!-- n30&#45;&gt;n26 -->
<g id="edge16" class="edge"><title>n30&#45;&gt;n26</title>
<path fill="none" stroke="black" d="M4291.12,-372.961C4281.36,-369.883 4271.04,-367.149 4261.17,-365.48 4079.18,-334.713 2783.47,-369.054 2600.17,-347.48 2570.29,-343.964 2564,-336.372 2534.17,-332.48 2503.2,-328.439 1558.01,-296.511 1295.95,-287.716"/>
<polygon fill="black" stroke="black" points="1295.93,-284.214 1285.82,-287.376 1295.7,-291.21 1295.93,-284.214"/>
<text text-anchor="middle" x="2692.17" y="-336.28" font-family="Times,serif" font-size="14.00"> end(communicated_image_data)</text>
</g>
<!-- n30&#45;&gt;n28 -->
<g id="edge63" class="edge"><title>n30&#45;&gt;n28</title>
<path fill="none" stroke="black" d="M4290.67,-373.029C4281.04,-369.988 4270.88,-367.251 4261.17,-365.48 4234.26,-360.574 3788.15,-367.171 3769.17,-347.48 3764.54,-342.681 3766.2,-338.45 3769.17,-332.48 3775.56,-319.625 3859.16,-260.555 3872.17,-254.48 4219.52,-92.2483 4334.32,-115.593 4715.17,-71.7401 4963.04,-43.199 5259.07,-32.8411 5394.26,-29.41"/>
<polygon fill="black" stroke="black" points="5394.58,-32.9031 5404.49,-29.1558 5394.41,-25.9053 5394.58,-32.9031"/>
<text text-anchor="middle" x="4100.17" y="-205.91" font-family="Times,serif" font-size="14.00"> static(visible_from)</text>
</g>
<!-- n31 -->
<g id="node31" class="node"><title>n31</title>
<ellipse fill="none" stroke="black" cx="6538.17" cy="-134.74" rx="62.8651" ry="26.7407"/>
<text text-anchor="middle" x="6538.17" y="-138.54" font-family="Times,serif" font-size="14.00">&lt;objective5&gt;</text>
<text text-anchor="middle" x="6538.17" y="-123.54" font-family="Times,serif" font-size="14.00">objective</text>
</g>
<!-- n31&#45;&gt;n28 -->
<g id="edge82" class="edge"><title>n31&#45;&gt;n28</title>
<path fill="none" stroke="black" d="M6516.07,-109.51C6501.87,-95.731 6482.2,-79.682 6461.17,-71.7401 6376.09,-39.6169 5757.83,-30.6506 5542.16,-28.4858"/>
<polygon fill="black" stroke="black" points="5541.92,-24.9834 5531.89,-28.3848 5541.85,-31.983 5541.92,-24.9834"/>
<text text-anchor="middle" x="6544.17" y="-75.5401" font-family="Times,serif" font-size="14.00"> static(visible_from)</text>
</g>
<!-- n32 -->
<g id="node32" class="node"><title>n32</title>
<ellipse fill="none" stroke="black" cx="2237.17" cy="-497.09" rx="56.6372" ry="26.7407"/>
<text text-anchor="middle" x="2237.17" y="-500.89" font-family="Times,serif" font-size="14.00">&lt;camera0&gt;</text>
<text text-anchor="middle" x="2237.17" y="-485.89" font-family="Times,serif" font-size="14.00">camera</text>
</g>
<!-- n32&#45;&gt;n3 -->
<g id="edge92" class="edge"><title>n32&#45;&gt;n3</title>
<path fill="none" stroke="black" d="M2198.79,-477.137C2186.47,-470.162 2173.17,-461.638 2162.17,-452.22 2153.35,-444.669 2144.92,-435.349 2137.65,-426.369"/>
<polygon fill="black" stroke="black" points="2140.24,-424.002 2131.33,-418.279 2134.73,-428.313 2140.24,-424.002"/>
<text text-anchor="middle" x="2230.67" y="-441.02" font-family="Times,serif" font-size="14.00"> static(calibration_target)</text>
</g>
<!-- n32&#45;&gt;n20 -->
<g id="edge7" class="edge"><title>n32&#45;&gt;n20</title>
<path fill="none" stroke="black" d="M2181.06,-493.409C2000.51,-484.811 1418.19,-457.317 936.168,-437.22 883.731,-435.034 513.71,-436.542 464.168,-419.22 426.138,-405.923 429.01,-379.303 391.168,-365.48 362.614,-355.05 138.944,-369.672 118.168,-347.48 107.044,-335.598 116.433,-322.22 130.489,-310.94"/>
<polygon fill="black" stroke="black" points="132.699,-313.659 138.677,-304.912 128.549,-308.022 132.699,-313.659"/>
<text text-anchor="middle" x="508.168" y="-388.65" font-family="Times,serif" font-size="14.00"> static(supports)</text>
</g>
<!-- n32&#45;&gt;n24 -->
<g id="edge18" class="edge"><title>n32&#45;&gt;n24</title>
<path fill="none" stroke="black" d="M2275.66,-477.298C2285.05,-470.739 2293.9,-462.409 2299.17,-452.22 2323.62,-404.955 2330.33,-375.62 2299.17,-332.48 2280.04,-306.003 2245.43,-294.198 2215.17,-289.039"/>
<polygon fill="black" stroke="black" points="2215.51,-285.551 2205.1,-287.532 2214.47,-292.474 2215.51,-285.551"/>
<text text-anchor="middle" x="2364.17" y="-388.65" font-family="Times,serif" font-size="14.00"> static(supports)</text>
</g>
<!-- n32&#45;&gt;n38 -->
<g id="edge71" class="edge"><title>n32&#45;&gt;n38</title>
<path fill="none" stroke="black" d="M2293.63,-493.793C2515.82,-484.555 3320.11,-449.169 3365.17,-419.22 3387.43,-404.424 3370.91,-381.684 3392.17,-365.48 3424.61,-340.751 3456.05,-378.817 3482.17,-347.48 3488.19,-340.253 3490.22,-330.735 3490.28,-321.333"/>
<polygon fill="black" stroke="black" points="3493.77,-321.057 3489.66,-311.289 3486.78,-321.484 3493.77,-321.057"/>
<text text-anchor="middle" x="3438.67" y="-388.65" font-family="Times,serif" font-size="14.00"> static(on_board)</text>
</g>
<!-- n33 -->
<g id="node33" class="node"><title>n33</title>
<ellipse fill="none" stroke="black" cx="4701.17" cy="-392.35" rx="67.7647" ry="26.7407"/>
<text text-anchor="middle" x="4701.17" y="-396.15" font-family="Times,serif" font-size="14.00">&lt;objective16&gt;</text>
<text text-anchor="middle" x="4701.17" y="-381.15" font-family="Times,serif" font-size="14.00">objective</text>
</g>
<!-- n33&#45;&gt;n5 -->
<g id="edge86" class="edge"><title>n33&#45;&gt;n5</title>
<path fill="none" stroke="black" d="M4754.37,-375.378C4766.73,-371.906 4779.86,-368.401 4792.17,-365.48 4833.55,-355.655 4844.53,-356.195 4886.17,-347.48 4915.61,-341.317 4922.36,-336.497 4952.17,-332.48 5130.73,-308.418 5180.59,-350.309 5357.17,-314.48 5365.41,-312.808 5373.94,-310.396 5382.2,-307.668"/>
<polygon fill="black" stroke="black" points="5383.44,-310.941 5391.73,-304.345 5381.14,-304.331 5383.44,-310.941"/>
<text text-anchor="middle" x="5008.17" y="-336.28" font-family="Times,serif" font-size="14.00"> static(visible_from)</text>
</g>
<!-- n33&#45;&gt;n7 -->
<g id="edge58" class="edge"><title>n33&#45;&gt;n7</title>
<path fill="none" stroke="black" d="M4716.75,-366.152C4736.97,-335.486 4775.04,-284.138 4820.17,-254.48 4841.66,-240.354 4850.85,-244.844 4875.17,-236.48 4941.74,-213.587 4957.33,-204.844 5024.17,-182.74 5055.04,-172.531 5089.64,-162.014 5118.39,-153.524"/>
<polygon fill="black" stroke="black" points="5119.7,-156.789 5128.31,-150.61 5117.72,-150.073 5119.7,-156.789"/>
<text text-anchor="middle" x="4877.17" y="-280.78" font-family="Times,serif" font-size="14.00"> static(visible_from)</text>
</g>
<!-- n33&#45;&gt;n26 -->
<g id="edge72" class="edge"><title>n33&#45;&gt;n26</title>
<path fill="none" stroke="black" d="M4640.03,-380.358C4597.48,-372.304 4539.56,-360.534 4489.17,-347.48 4467.53,-341.875 4463.25,-335.937 4441.17,-332.48 4312.67,-312.365 2230.2,-317.144 2100.17,-314.48 1799.74,-308.325 1441.22,-294.266 1295.57,-288.271"/>
<polygon fill="black" stroke="black" points="1295.59,-284.769 1285.45,-287.854 1295.3,-291.763 1295.59,-284.769"/>
<text text-anchor="middle" x="4581.17" y="-336.28" font-family="Times,serif" font-size="14.00"> end(communicated_image_data)</text>
</g>
<!-- n33&#45;&gt;n28 -->
<g id="edge24" class="edge"><title>n33&#45;&gt;n28</title>
<path fill="none" stroke="black" d="M4693.71,-365.52C4689.31,-354.132 4682.69,-341.351 4673.17,-332.48 4657.1,-317.517 4646.64,-324.628 4627.17,-314.48 4571.75,-285.593 4539.66,-291.582 4510.17,-236.48 4498.9,-215.422 4495.84,-201.851 4510.17,-182.74 4615.82,-41.805 5187.99,-27.7774 5394.11,-27.3683"/>
<polygon fill="black" stroke="black" points="5394.24,-30.8683 5404.23,-27.3587 5394.23,-23.8683 5394.24,-30.8683"/>
<text text-anchor="middle" x="4566.17" y="-205.91" font-family="Times,serif" font-size="14.00"> static(visible_from)</text>
</g>
<!-- n34 -->
<g id="node34" class="node"><title>n34</title>
<ellipse fill="none" stroke="black" cx="7118.17" cy="-392.35" rx="67.7647" ry="26.7407"/>
<text text-anchor="middle" x="7118.17" y="-396.15" font-family="Times,serif" font-size="14.00">&lt;objective10&gt;</text>
<text text-anchor="middle" x="7118.17" y="-381.15" font-family="Times,serif" font-size="14.00">objective</text>
</g>
<!-- n34&#45;&gt;n5 -->
<g id="edge29" class="edge"><title>n34&#45;&gt;n5</title>
<path fill="none" stroke="black" d="M7060.08,-378.366C7038.24,-373.813 7013.14,-368.971 6990.17,-365.48 6847.94,-343.872 6811.75,-341.397 6668.17,-332.48 6303.89,-309.857 6211.76,-331.298 5847.17,-314.48 5727.87,-308.977 5589.41,-298.359 5507.22,-291.612"/>
<polygon fill="black" stroke="black" points="5507.49,-288.122 5497.23,-290.788 5506.91,-295.098 5507.49,-288.122"/>
<text text-anchor="middle" x="6913.17" y="-336.28" font-family="Times,serif" font-size="14.00"> static(visible_from)</text>
</g>
<!-- n34&#45;&gt;n28 -->
<g id="edge41" class="edge"><title>n34&#45;&gt;n28</title>
<path fill="none" stroke="black" d="M7121.73,-365.291C7126.16,-324.428 7130.16,-243.658 7103.17,-182.74 7075.54,-120.373 7059.49,-99.4656 6997.17,-71.7401 6930.14,-41.9223 5839.3,-30.8922 5542.32,-28.4337"/>
<polygon fill="black" stroke="black" points="5542.12,-24.9321 5532.09,-28.3499 5542.06,-31.9318 5542.12,-24.9321"/>
<text text-anchor="middle" x="7175.17" y="-205.91" font-family="Times,serif" font-size="14.00"> static(visible_from)</text>
</g>
<!-- n35 -->
<g id="node35" class="node"><title>n35</title>
<ellipse fill="none" stroke="black" cx="1688.17" cy="-392.35" rx="56.6372" ry="26.7407"/>
<text text-anchor="middle" x="1688.17" y="-396.15" font-family="Times,serif" font-size="14.00">&lt;camera5&gt;</text>
<text text-anchor="middle" x="1688.17" y="-381.15" font-family="Times,serif" font-size="14.00">camera</text>
</g>
<!-- n35&#45;&gt;n9 -->
<g id="edge61" class="edge"><title>n35&#45;&gt;n9</title>
<path fill="none" stroke="black" d="M1642.62,-376.168C1620.52,-367.788 1597.41,-357.148 1591.17,-347.48 1571.84,-317.525 1577.53,-275.748 1585.58,-246.249"/>
<polygon fill="black" stroke="black" points="1589.02,-246.948 1588.49,-236.366 1582.31,-244.972 1589.02,-246.948"/>
<text text-anchor="middle" x="1659.67" y="-336.28" font-family="Times,serif" font-size="14.00"> static(calibration_target)</text>
</g>
<!-- n35&#45;&gt;n20 -->
<g id="edge111" class="edge"><title>n35&#45;&gt;n20</title>
<path fill="none" stroke="black" d="M1647.14,-373.831C1637.47,-370.431 1627.1,-367.347 1617.17,-365.48 1528.7,-348.849 891.878,-377.947 807.168,-347.48 797.044,-343.839 798.19,-336.394 788.168,-332.48 689.415,-293.911 375.143,-286.894 238.567,-285.689"/>
<polygon fill="black" stroke="black" points="238.289,-282.187 228.261,-285.606 238.233,-289.187 238.289,-282.187"/>
<text text-anchor="middle" x="851.168" y="-336.28" font-family="Times,serif" font-size="14.00"> static(supports)</text>
</g>
<!-- n35&#45;&gt;n24 -->
<g id="edge80" class="edge"><title>n35&#45;&gt;n24</title>
<path fill="none" stroke="black" d="M1708.57,-367.059C1720.51,-354.565 1736.66,-340.345 1754.17,-332.48 1814.38,-305.43 2002.43,-292.796 2098.86,-287.968"/>
<polygon fill="black" stroke="black" points="2099.21,-291.455 2109.03,-287.471 2098.87,-284.464 2099.21,-291.455"/>
<text text-anchor="middle" x="1798.17" y="-336.28" font-family="Times,serif" font-size="14.00"> static(supports)</text>
</g>
<!-- n35&#45;&gt;n26 -->
<g id="edge105" class="edge"><title>n35&#45;&gt;n26</title>
<path fill="none" stroke="black" d="M1646.25,-374.186C1636.81,-370.855 1626.75,-367.711 1617.17,-365.48 1544.89,-348.655 1521.06,-372.435 1451.17,-347.48 1439.67,-343.376 1439.39,-337.288 1428.17,-332.48 1384.85,-313.916 1332.95,-301.966 1293.01,-294.764"/>
<polygon fill="black" stroke="black" points="1293.58,-291.31 1283.13,-293.033 1292.38,-298.205 1293.58,-291.31"/>
<text text-anchor="middle" x="1495.17" y="-336.28" font-family="Times,serif" font-size="14.00"> static(supports)</text>
</g>
<!-- n35&#45;&gt;n38 -->
<g id="edge8" class="edge"><title>n35&#45;&gt;n38</title>
<path fill="none" stroke="black" d="M1729.19,-373.774C1738.85,-370.376 1749.23,-367.307 1759.17,-365.48 1896.44,-340.236 2881.67,-388.208 3015.17,-347.48 3026.84,-343.919 3026.67,-336.568 3038.17,-332.48 3108.12,-307.612 3321.68,-293.678 3425.41,-288.214"/>
<polygon fill="black" stroke="black" points="3425.59,-291.709 3435.4,-287.696 3425.23,-284.718 3425.59,-291.709"/>
<text text-anchor="middle" x="3084.67" y="-336.28" font-family="Times,serif" font-size="14.00"> static(on_board)</text>
</g>
<!-- n36 -->
<g id="node36" class="node"><title>n36</title>
<ellipse fill="none" stroke="black" cx="6726.17" cy="-134.74" rx="62.8651" ry="26.7407"/>
<text text-anchor="middle" x="6726.17" y="-138.54" font-family="Times,serif" font-size="14.00">&lt;objective6&gt;</text>
<text text-anchor="middle" x="6726.17" y="-123.54" font-family="Times,serif" font-size="14.00">objective</text>
</g>
<!-- n36&#45;&gt;n28 -->
<g id="edge84" class="edge"><title>n36&#45;&gt;n28</title>
<path fill="none" stroke="black" d="M6704.09,-109.457C6689.9,-95.6588 6670.23,-79.6081 6649.17,-71.7401 6545.96,-33.1849 5784.56,-28.4444 5542.1,-27.9172"/>
<polygon fill="black" stroke="black" points="5541.99,-24.4171 5531.98,-27.897 5541.97,-31.4171 5541.99,-24.4171"/>
<text text-anchor="middle" x="6732.17" y="-75.5401" font-family="Times,serif" font-size="14.00"> static(visible_from)</text>
</g>
<!-- n37 -->
<g id="node37" class="node"><title>n37</title>
<ellipse fill="none" stroke="black" cx="3288.17" cy="-392.35" rx="67.7647" ry="26.7407"/>
<text text-anchor="middle" x="3288.17" y="-396.15" font-family="Times,serif" font-size="14.00">&lt;objective13&gt;</text>
<text text-anchor="middle" x="3288.17" y="-381.15" font-family="Times,serif" font-size="14.00">objective</text>
</g>
<!-- n37&#45;&gt;n5 -->
<g id="edge74" class="edge"><title>n37&#45;&gt;n5</title>
<path fill="none" stroke="black" d="M3337.05,-373.451C3347.82,-370.207 3359.27,-367.284 3370.17,-365.48 3458,-350.943 4087.4,-377.619 4171.17,-347.48 4181.29,-343.838 4180.03,-336.087 4190.17,-332.48 4251.26,-310.743 5293.44,-326.452 5357.17,-314.48 5365.54,-312.908 5374.19,-310.523 5382.54,-307.782"/>
<polygon fill="black" stroke="black" points="5383.89,-311.019 5392.19,-304.429 5381.59,-304.408 5383.89,-311.019"/>
<text text-anchor="middle" x="4246.17" y="-336.28" font-family="Times,serif" font-size="14.00"> static(visible_from)</text>
</g>
<!-- n37&#45;&gt;n7 -->
<g id="edge100" class="edge"><title>n37&#45;&gt;n7</title>
<path fill="none" stroke="black" d="M3335.66,-373.008C3344.07,-370.195 3352.81,-367.546 3361.17,-365.48 3415.23,-352.115 3430.12,-355.914 3485.17,-347.48 3526.55,-341.139 3536.61,-337.554 3578.17,-332.48 3681.87,-319.82 4410.96,-261.842 4515.17,-254.48 4549.58,-252.049 4796.2,-255.222 4825.17,-236.48 4847.78,-221.851 4831.2,-198.314 4853.17,-182.74 4892.75,-154.682 5022.85,-143.182 5106.52,-138.609"/>
<polygon fill="black" stroke="black" points="5106.94,-142.092 5116.74,-138.072 5106.57,-135.102 5106.94,-142.092"/>
<text text-anchor="middle" x="4583.17" y="-280.78" font-family="Times,serif" font-size="14.00"> static(visible_from)</text>
</g>
<!-- n37&#45;&gt;n20 -->
<g id="edge59" class="edge"><title>n37&#45;&gt;n20</title>
<path fill="none" stroke="black" d="M3239.29,-373.437C3228.52,-370.194 3217.07,-367.275 3206.17,-365.48 3016.9,-334.308 2531.54,-383.672 2343.17,-347.48 2324.52,-343.898 2321.82,-336.015 2303.17,-332.48 2178.7,-308.894 1289.82,-317.337 1163.17,-314.48 813.99,-306.605 395.587,-292.945 238.196,-287.658"/>
<polygon fill="black" stroke="black" points="237.877,-284.145 227.764,-287.307 237.641,-291.141 237.877,-284.145"/>
<text text-anchor="middle" x="2435.17" y="-336.28" font-family="Times,serif" font-size="14.00"> end(communicated_image_data)</text>
</g>
<!-- n37&#45;&gt;n28 -->
<g id="edge49" class="edge"><title>n37&#45;&gt;n28</title>
<path fill="none" stroke="black" d="M3337.53,-373.759C3369.68,-362.205 3405.9,-348.958 3407.17,-347.48 3434.65,-315.475 3398.83,-286.611 3426.17,-254.48 3547.83,-111.489 3637.96,-145.782 3821.17,-104.74 4127.09,-36.2078 5115.29,-28.6754 5394.23,-27.9288"/>
<polygon fill="black" stroke="black" points="5394.25,-31.4289 5404.25,-27.9041 5394.24,-24.4289 5394.25,-31.4289"/>
<text text-anchor="middle" x="3561.17" y="-205.91" font-family="Times,serif" font-size="14.00"> static(visible_from)</text>
</g>
<!-- n38&#45;&gt;n7 -->
<g id="edge39" class="edge"><title>n38&#45;&gt;n7</title>
<path fill="none" stroke="black" d="M3531.22,-281.077C3636.35,-275.86 3894.7,-263.261 4111.17,-254.48 4139.77,-253.32 4602.55,-252.661 4626.17,-236.48 4647.6,-221.796 4628.13,-197.99 4649.17,-182.74 4685.37,-156.489 4969.61,-143.085 5106.7,-138.094"/>
<polygon fill="black" stroke="black" points="5106.84,-141.591 5116.71,-137.735 5106.59,-134.595 5106.84,-141.591"/>
<text text-anchor="middle" x="4669.67" y="-205.91" font-family="Times,serif" font-size="14.00"> init(at)</text>
</g>
<!-- n38&#45;&gt;n38 -->
<g id="edge6" class="edge"><title>n38&#45;&gt;n38</title>
<path fill="none" stroke="black" d="M3527.95,-294.53C3540.05,-294 3549.25,-290.65 3549.25,-284.48 3549.25,-280.238 3544.9,-277.329 3538.25,-275.753"/>
<polygon fill="black" stroke="black" points="3538.32,-272.233 3527.95,-274.43 3537.43,-279.176 3538.32,-272.233"/>
<text text-anchor="middle" x="3646.75" y="-303.28" font-family="Times,serif" font-size="14.00"> static(equipped_for_rock_analysis)</text>
<text text-anchor="middle" x="3646.75" y="-288.28" font-family="Times,serif" font-size="14.00">static(equipped_for_imaging)</text>
<text text-anchor="middle" x="3646.75" y="-273.28" font-family="Times,serif" font-size="14.00">init(available)</text>
<text text-anchor="middle" x="3646.75" y="-258.28" font-family="Times,serif" font-size="14.00">static(equipped_for_soil_analysis)</text>
</g>
<!-- n39 -->
<g id="node39" class="node"><title>n39</title>
<ellipse fill="none" stroke="black" cx="6503.17" cy="-392.35" rx="67.7647" ry="26.7407"/>
<text text-anchor="middle" x="6503.17" y="-396.15" font-family="Times,serif" font-size="14.00">&lt;objective23&gt;</text>
<text text-anchor="middle" x="6503.17" y="-381.15" font-family="Times,serif" font-size="14.00">objective</text>
</g>
<!-- n39&#45;&gt;n5 -->
<g id="edge10" class="edge"><title>n39&#45;&gt;n5</title>
<path fill="none" stroke="black" d="M6438.95,-383.56C6374.79,-375.52 6273.43,-362.117 6186.17,-347.48 6152.21,-341.785 6144.3,-336.998 6110.17,-332.48 5994.02,-317.106 5964.05,-322.593 5847.17,-314.48 5728.2,-306.222 5589.92,-296.454 5507.63,-290.624"/>
<polygon fill="black" stroke="black" points="5507.86,-287.131 5497.64,-289.915 5507.36,-294.113 5507.86,-287.131"/>
<text text-anchor="middle" x="6242.17" y="-336.28" font-family="Times,serif" font-size="14.00"> static(visible_from)</text>
</g>
<!-- n39&#45;&gt;n7 -->
<g id="edge42" class="edge"><title>n39&#45;&gt;n7</title>
<path fill="none" stroke="black" d="M6558.1,-376.227C6571.89,-369.689 6585.06,-360.451 6593.17,-347.48 6596.7,-341.827 6597.78,-337.293 6593.17,-332.48 6560.38,-298.281 6212.82,-327.153 6167.17,-314.48 6113.51,-299.584 6110.47,-270.612 6057.17,-254.48 6013.82,-241.361 5891.81,-261.656 5854.17,-236.48 5831.78,-221.509 5848.84,-197.272 5826.17,-182.74 5792.07,-160.89 5502.55,-167.812 5462.17,-164.74 5390.06,-159.254 5307.83,-150.512 5250.85,-144.059"/>
<polygon fill="black" stroke="black" points="5251.2,-140.577 5240.87,-142.923 5250.41,-147.532 5251.2,-140.577"/>
<text text-anchor="middle" x="6223.17" y="-280.78" font-family="Times,serif" font-size="14.00"> static(visible_from)</text>
</g>
<!-- n39&#45;&gt;n28 -->
<g id="edge28" class="edge"><title>n39&#45;&gt;n28</title>
<path fill="none" stroke="black" d="M6552.6,-373.721C6578.49,-363.995 6605.57,-352.831 6609.17,-347.48 6643.36,-296.621 6650.45,-111.909 6604.17,-71.7401 6564.05,-36.9277 5788.04,-29.6415 5542.2,-28.2044"/>
<polygon fill="black" stroke="black" points="5541.95,-24.7031 5531.93,-28.1461 5541.91,-31.703 5541.95,-24.7031"/>
<text text-anchor="middle" x="6693.17" y="-205.91" font-family="Times,serif" font-size="14.00"> static(visible_from)</text>
</g>
<!-- n40&#45;&gt;n28 -->
<g id="edge34" class="edge"><title>n40&#45;&gt;n28</title>
<path fill="none" stroke="black" d="M3196.75,-183.64C3215.55,-160.05 3246.71,-125.304 3281.17,-104.74 3325.73,-78.1458 3341.89,-79.6918 3393.17,-71.7401 3593.71,-40.6437 5048.24,-30.3037 5394.38,-28.2702"/>
<polygon fill="black" stroke="black" points="5394.56,-31.7693 5404.54,-28.211 5394.52,-24.7694 5394.56,-31.7693"/>
<text text-anchor="middle" x="3337.17" y="-131.04" font-family="Times,serif" font-size="14.00"> static(visible_from)</text>
</g>
<!-- n41 -->
<g id="node41" class="node"><title>n41</title>
<ellipse fill="none" stroke="black" cx="6913.17" cy="-134.74" rx="67.7647" ry="26.7407"/>
<text text-anchor="middle" x="6913.17" y="-138.54" font-family="Times,serif" font-size="14.00">&lt;objective20&gt;</text>
<text text-anchor="middle" x="6913.17" y="-123.54" font-family="Times,serif" font-size="14.00">objective</text>
</g>
<!-- n41&#45;&gt;n28 -->
<g id="edge62" class="edge"><title>n41&#45;&gt;n28</title>
<path fill="none" stroke="black" d="M6889.38,-109.403C6874.17,-95.5847 6853.21,-79.5323 6831.17,-71.7401 6709.67,-28.7921 5809.01,-27.1647 5542.35,-27.6385"/>
<polygon fill="black" stroke="black" points="5541.99,-24.1391 5532,-27.6585 5542.01,-31.139 5541.99,-24.1391"/>
<text text-anchor="middle" x="6915.17" y="-75.5401" font-family="Times,serif" font-size="14.00"> static(visible_from)</text>
</g>
<!-- n42 -->
<g id="node42" class="node"><title>n42</title>
<ellipse fill="none" stroke="black" cx="794.168" cy="-392.35" rx="67.7647" ry="26.7407"/>
<text text-anchor="middle" x="794.168" y="-396.15" font-family="Times,serif" font-size="14.00">&lt;objective21&gt;</text>
<text text-anchor="middle" x="794.168" y="-381.15" font-family="Times,serif" font-size="14.00">objective</text>
</g>
<!-- n42&#45;&gt;n5 -->
<g id="edge44" class="edge"><title>n42&#45;&gt;n5</title>
<path fill="none" stroke="black" d="M854.271,-379.65C885.185,-374.197 923.549,-368.3 958.168,-365.48 1039.65,-358.842 3824.02,-374.528 3901.17,-347.48 3911.32,-343.921 3910.03,-336.072 3920.17,-332.48 3995.43,-305.824 5278.68,-329.107 5357.17,-314.48 5365.54,-312.92 5374.19,-310.542 5382.55,-307.804"/>
<polygon fill="black" stroke="black" points="5383.89,-311.041 5392.19,-304.452 5381.6,-304.429 5383.89,-311.041"/>
<text text-anchor="middle" x="3976.17" y="-336.28" font-family="Times,serif" font-size="14.00"> static(visible_from)</text>
</g>
<!-- n42&#45;&gt;n20 -->
<g id="edge89" class="edge"><title>n42&#45;&gt;n20</title>
<path fill="none" stroke="black" d="M741.727,-375.167C727.116,-371.301 711.143,-367.664 696.168,-365.48 664.817,-360.908 148.215,-370.234 126.168,-347.48 115.892,-336.874 122.945,-324.124 134.485,-312.95"/>
<polygon fill="black" stroke="black" points="136.932,-315.459 142.136,-306.23 132.313,-310.2 136.932,-315.459"/>
<text text-anchor="middle" x="218.168" y="-336.28" font-family="Times,serif" font-size="14.00"> end(communicated_image_data)</text>
</g>
<!-- n42&#45;&gt;n26 -->
<g id="edge67" class="edge"><title>n42&#45;&gt;n26</title>
<path fill="none" stroke="black" d="M842.318,-373.378C860.474,-366.048 881.096,-357.046 899.168,-347.48 909.954,-341.771 910.768,-336.835 922.168,-332.48 1001.25,-302.269 1098.81,-291.436 1162.43,-287.576"/>
<polygon fill="black" stroke="black" points="1162.95,-291.053 1172.73,-286.994 1162.55,-284.064 1162.95,-291.053"/>
<text text-anchor="middle" x="1014.17" y="-336.28" font-family="Times,serif" font-size="14.00"> end(communicated_image_data)</text>
</g>
<!-- n42&#45;&gt;n28 -->
<g id="edge22" class="edge"><title>n42&#45;&gt;n28</title>
<path fill="none" stroke="black" d="M741.728,-375.162C727.117,-371.296 711.143,-367.661 696.168,-365.48 664.377,-360.85 142.813,-368.09 118.168,-347.48 101.147,-333.247 107.336,-258.827 111.168,-254.48 325.198,-11.6786 1233.26,-93.8957 1556.17,-71.7401 1952.28,-44.5618 4888.5,-30.4323 5394.13,-28.1887"/>
<polygon fill="black" stroke="black" points="5394.24,-31.6883 5404.23,-28.144 5394.21,-24.6884 5394.24,-31.6883"/>
<text text-anchor="middle" x="267.168" y="-205.91" font-family="Times,serif" font-size="14.00"> static(visible_from)</text>
</g>
<!-- n43 -->
<g id="node43" class="node"><title>n43</title>
<ellipse fill="none" stroke="black" cx="6657.17" cy="-392.35" rx="67.7647" ry="26.7407"/>
<text text-anchor="middle" x="6657.17" y="-396.15" font-family="Times,serif" font-size="14.00">&lt;objective22&gt;</text>
<text text-anchor="middle" x="6657.17" y="-381.15" font-family="Times,serif" font-size="14.00">objective</text>
</g>
<!-- n43&#45;&gt;n5 -->
<g id="edge46" class="edge"><title>n43&#45;&gt;n5</title>
<path fill="none" stroke="black" d="M6609.2,-373.207C6599.69,-370.19 6589.7,-367.418 6580.17,-365.48 6477.95,-344.712 6448.6,-367.162 6346.17,-347.48 6324.22,-343.263 6320.19,-336.292 6298.17,-332.48 6100.5,-298.267 6047.47,-325.524 5847.17,-314.48 5727.92,-307.905 5589.45,-297.611 5507.24,-291.219"/>
<polygon fill="black" stroke="black" points="5507.49,-287.729 5497.25,-290.44 5506.95,-294.707 5507.49,-287.729"/>
<text text-anchor="middle" x="6402.17" y="-336.28" font-family="Times,serif" font-size="14.00"> static(visible_from)</text>
</g>
<!-- n43&#45;&gt;n7 -->
<g id="edge79" class="edge"><title>n43&#45;&gt;n7</title>
<path fill="none" stroke="black" d="M6642.07,-365.971C6633.78,-354.115 6622.47,-340.808 6609.17,-332.48 6481.43,-252.499 6428.43,-275.292 6279.17,-254.48 6235.1,-248.337 5916.68,-260.403 5879.17,-236.48 5856.46,-221.999 5873.87,-197.236 5851.17,-182.74 5814.7,-159.451 5505.32,-167.955 5462.17,-164.74 5390.05,-159.368 5307.83,-150.61 5250.85,-144.122"/>
<polygon fill="black" stroke="black" points="5251.2,-140.639 5240.87,-142.979 5250.4,-147.594 5251.2,-140.639"/>
<text text-anchor="middle" x="6633.17" y="-280.78" font-family="Times,serif" font-size="14.00"> static(visible_from)</text>
</g>
<!-- n43&#45;&gt;n28 -->
<g id="edge47" class="edge"><title>n43&#45;&gt;n28</title>
<path fill="none" stroke="black" d="M6724.34,-388.378C6753.43,-383.335 6784.93,-372.01 6803.17,-347.48 6839.76,-298.272 6838.59,-111.808 6792.17,-71.7401 6744.63,-30.7093 5814.22,-27.7589 5542.23,-27.7763"/>
<polygon fill="black" stroke="black" points="5542.07,-24.2763 5532.07,-27.7784 5542.07,-31.2763 5542.07,-24.2763"/>
<text text-anchor="middle" x="6885.17" y="-205.91" font-family="Times,serif" font-size="14.00"> static(visible_from)</text>
</g>
<!-- n44 -->
<g id="node44" class="node"><title>n44</title>
<ellipse fill="none" stroke="black" cx="5710.17" cy="-392.35" rx="67.7647" ry="26.7407"/>
<text text-anchor="middle" x="5710.17" y="-396.15" font-family="Times,serif" font-size="14.00">&lt;objective11&gt;</text>
<text text-anchor="middle" x="5710.17" y="-381.15" font-family="Times,serif" font-size="14.00">objective</text>
</g>
<!-- n44&#45;&gt;n5 -->
<g id="edge36" class="edge"><title>n44&#45;&gt;n5</title>
<path fill="none" stroke="black" d="M5682.63,-367.48C5667.45,-355.423 5647.75,-341.481 5628.17,-332.48 5589.19,-314.568 5542.53,-302.967 5504.85,-295.772"/>
<polygon fill="black" stroke="black" points="5505.44,-292.323 5494.97,-293.948 5504.17,-299.207 5505.44,-292.323"/>
<text text-anchor="middle" x="5711.17" y="-336.28" font-family="Times,serif" font-size="14.00"> static(visible_from)</text>
</g>
<!-- n44&#45;&gt;n28 -->
<g id="edge33" class="edge"><title>n44&#45;&gt;n28</title>
<path fill="none" stroke="black" d="M5756.15,-372.408C5774.3,-364.815 5795.28,-355.887 5814.17,-347.48 5828.52,-341.093 5831.04,-336.723 5846.17,-332.48 5881.68,-322.518 5986.54,-341.939 6011.17,-314.48 6028.97,-294.628 6021.4,-279.108 6011.17,-254.48 5936.6,-74.9092 5672.72,-37.0927 5542.28,-29.5067"/>
<polygon fill="black" stroke="black" points="5542.16,-25.9951 5531.98,-28.9547 5541.78,-32.985 5542.16,-25.9951"/>
<text text-anchor="middle" x="6057.17" y="-205.91" font-family="Times,serif" font-size="14.00"> static(visible_from)</text>
</g>
</g>
</svg>
