<?xml version="1.0" encoding="UTF-8" standalone="no"?>
<!DOCTYPE svg PUBLIC "-//W3C//DTD SVG 1.1//EN"
 "http://www.w3.org/Graphics/SVG/1.1/DTD/svg11.dtd">
<!-- Generated by graphviz version 2.38.0 (20140413.2041)
 -->
<!-- Title: Struc Pages: 1 -->
<svg width="1147pt" height="511pt"
 viewBox="0.00 0.00 1146.70 510.96" xmlns="http://www.w3.org/2000/svg" xmlns:xlink="http://www.w3.org/1999/xlink">
<g id="graph0" class="graph" transform="scale(1 1) rotate(0) translate(4 506.96)">
<title>Struc</title>
<polygon fill="white" stroke="none" points="-4,4 -4,-506.96 1142.7,-506.96 1142.7,4 -4,4"/>
<!-- n1 -->
<g id="node1" class="node"><title>n1</title>
<ellipse fill="none" stroke="black" cx="64.6149" cy="-246.61" rx="63.7795" ry="26.7407"/>
<text text-anchor="middle" x="64.6149" y="-250.41" font-family="Times,serif" font-size="14.00">&lt;waypoint0&gt;</text>
<text text-anchor="middle" x="64.6149" y="-235.41" font-family="Times,serif" font-size="14.00">waypoint</text>
</g>
<!-- n1&#45;&gt;n1 -->
<g id="edge1" class="edge"><title>n1&#45;&gt;n1</title>
<path fill="none" stroke="black" d="M123.691,-256.828C136.746,-255.868 146.255,-252.462 146.255,-246.61 146.255,-242.404 141.343,-239.462 133.732,-237.783"/>
<polygon fill="black" stroke="black" points="134.077,-234.298 123.691,-236.393 133.117,-241.231 134.077,-234.298"/>
<text text-anchor="middle" x="230.755" y="-250.41" font-family="Times,serif" font-size="14.00"> end(communicated_soil_data)</text>
<text text-anchor="middle" x="230.755" y="-235.41" font-family="Times,serif" font-size="14.00">init(at_soil_sample)</text>
</g>
<!-- n2 -->
<g id="node2" class="node"><title>n2</title>
<ellipse fill="none" stroke="black" cx="268.615" cy="-137.87" rx="63.7795" ry="26.7407"/>
<text text-anchor="middle" x="268.615" y="-141.67" font-family="Times,serif" font-size="14.00">&lt;waypoint1&gt;</text>
<text text-anchor="middle" x="268.615" y="-126.67" font-family="Times,serif" font-size="14.00">waypoint</text>
</g>
<!-- n1&#45;&gt;n2 -->
<g id="edge9" class="edge"><title>n1&#45;&gt;n2</title>
<path fill="none" stroke="black" d="M125.085,-237.835C157.816,-231.296 197.577,-219.369 227.615,-197.74 236.653,-191.232 244.38,-182.088 250.608,-172.943"/>
<polygon fill="black" stroke="black" points="253.714,-174.58 256.115,-164.261 247.803,-170.831 253.714,-174.58"/>
<text text-anchor="middle" x="282.615" y="-186.54" font-family="Times,serif" font-size="14.00"> static(visible)</text>
</g>
<!-- n3 -->
<g id="node3" class="node"><title>n3</title>
<ellipse fill="none" stroke="black" cx="267.615" cy="-30" rx="63.7795" ry="26.7407"/>
<text text-anchor="middle" x="267.615" y="-33.8" font-family="Times,serif" font-size="14.00">&lt;waypoint2&gt;</text>
<text text-anchor="middle" x="267.615" y="-18.8" font-family="Times,serif" font-size="14.00">waypoint</text>
</g>
<!-- n1&#45;&gt;n3 -->
<g id="edge10" class="edge"><title>n1&#45;&gt;n3</title>
<path fill="none" stroke="black" d="M40.7738,-221.25C16.1719,-193.064 -15.4727,-146.043 8.61491,-111 30.4029,-79.3026 129.963,-55.4674 199.094,-42.3774"/>
<polygon fill="black" stroke="black" points="199.868,-45.7935 209.06,-40.5244 198.589,-38.9114 199.868,-45.7935"/>
<text text-anchor="middle" x="47.6149" y="-134.17" font-family="Times,serif" font-size="14.00"> static(visible)</text>
</g>
<!-- n2&#45;&gt;n1 -->
<g id="edge12" class="edge"><title>n2&#45;&gt;n1</title>
<path fill="none" stroke="black" d="M220.024,-155.381C188.707,-166.164 152.574,-178.927 145.615,-182.74 136.224,-187.887 117.769,-202.082 100.844,-215.684"/>
<polygon fill="black" stroke="black" points="98.2764,-213.26 92.7052,-222.272 102.68,-218.701 98.2764,-213.26"/>
<text text-anchor="middle" x="185.615" y="-186.54" font-family="Times,serif" font-size="14.00"> static(visible)</text>
</g>
<!-- n2&#45;&gt;n2 -->
<g id="edge2" class="edge"><title>n2&#45;&gt;n2</title>
<path fill="none" stroke="black" d="M328.419,-147.305C341.098,-146.347 350.255,-143.202 350.255,-137.87 350.255,-134.121 345.728,-131.453 338.633,-129.866"/>
<polygon fill="black" stroke="black" points="338.809,-126.357 328.419,-128.435 337.837,-133.289 338.809,-126.357"/>
<text text-anchor="middle" x="406.755" y="-134.17" font-family="Times,serif" font-size="14.00"> init(at_soil_sample)</text>
</g>
<!-- n2&#45;&gt;n3 -->
<g id="edge20" class="edge"><title>n2&#45;&gt;n3</title>
<path fill="none" stroke="black" d="M235.359,-114.873C228.582,-108.669 222.379,-101.31 218.615,-93 213.337,-81.3481 218.403,-69.9597 226.978,-60.1884"/>
<polygon fill="black" stroke="black" points="229.515,-62.6018 234.107,-53.0539 224.563,-57.6542 229.515,-62.6018"/>
<text text-anchor="middle" x="257.615" y="-81.8" font-family="Times,serif" font-size="14.00"> static(visible)</text>
</g>
<!-- n3&#45;&gt;n1 -->
<g id="edge14" class="edge"><title>n3&#45;&gt;n1</title>
<path fill="none" stroke="black" d="M218.306,-47.0811C185.885,-59.8742 144.616,-80.7046 117.615,-111 104.154,-126.103 86.6468,-175.504 75.5161,-210.055"/>
<polygon fill="black" stroke="black" points="72.1105,-209.215 72.4163,-219.806 78.7815,-211.336 72.1105,-209.215"/>
<text text-anchor="middle" x="156.615" y="-134.17" font-family="Times,serif" font-size="14.00"> static(visible)</text>
</g>
<!-- n3&#45;&gt;n2 -->
<g id="edge21" class="edge"><title>n3&#45;&gt;n2</title>
<path fill="none" stroke="black" d="M286.621,-56.1399C290.723,-62.8959 294.469,-70.4363 296.615,-78 299.013,-86.4518 297.382,-95.1908 293.945,-103.266"/>
<polygon fill="black" stroke="black" points="290.713,-101.895 289.214,-112.383 296.927,-105.119 290.713,-101.895"/>
<text text-anchor="middle" x="337.615" y="-81.8" font-family="Times,serif" font-size="14.00"> static(visible)</text>
</g>
<!-- n3&#45;&gt;n3 -->
<g id="edge3" class="edge"><title>n3&#45;&gt;n3</title>
<path fill="none" stroke="black" d="M327.056,-39.8259C339.923,-38.8651 349.255,-35.5898 349.255,-30 349.255,-26.0696 344.641,-23.2836 337.429,-21.6418"/>
<polygon fill="black" stroke="black" points="337.448,-18.1096 327.056,-20.1741 336.467,-25.0406 337.448,-18.1096"/>
<text text-anchor="middle" x="434.255" y="-48.8" font-family="Times,serif" font-size="14.00"> end(communicated_soil_data)</text>
<text text-anchor="middle" x="434.255" y="-33.8" font-family="Times,serif" font-size="14.00">init(at_soil_sample)</text>
<text text-anchor="middle" x="434.255" y="-18.8" font-family="Times,serif" font-size="14.00">end(communicated_rock_data)</text>
<text text-anchor="middle" x="434.255" y="-3.8" font-family="Times,serif" font-size="14.00">init(at_rock_sample)</text>
</g>
<!-- n4 -->
<g id="node4" class="node"><title>n4</title>
<ellipse fill="none" stroke="black" cx="723.615" cy="-472.09" rx="56.6326" ry="26.7574"/>
<ellipse fill="none" stroke="black" cx="723.615" cy="-472.09" rx="60.6372" ry="30.7407"/>
<text text-anchor="middle" x="723.615" y="-475.89" font-family="Times,serif" font-size="14.00">&lt;camera5&gt;</text>
<text text-anchor="middle" x="723.615" y="-460.89" font-family="Times,serif" font-size="14.00">camera</text>
</g>
<!-- n5 -->
<g id="node5" class="node"><title>n5</title>
<ellipse fill="none" stroke="black" cx="636.615" cy="-246.61" rx="56.6326" ry="26.7574"/>
<ellipse fill="none" stroke="black" cx="636.615" cy="-246.61" rx="60.6372" ry="30.7407"/>
<text text-anchor="middle" x="636.615" y="-250.41" font-family="Times,serif" font-size="14.00">&lt;high_res&gt;</text>
<text text-anchor="middle" x="636.615" y="-235.41" font-family="Times,serif" font-size="14.00">mode</text>
</g>
<!-- n4&#45;&gt;n5 -->
<g id="edge16" class="edge"><title>n4&#45;&gt;n5</title>
<path fill="none" stroke="black" stroke-dasharray="5,2" d="M728.786,-441.071C733.551,-404.082 736.356,-340.604 709.615,-295.48 704.678,-287.15 697.659,-279.996 689.904,-273.95"/>
<polygon fill="black" stroke="black" points="691.445,-270.753 681.264,-267.822 687.395,-276.462 691.445,-270.753"/>
<text text-anchor="middle" x="775.615" y="-355.65" font-family="Times,serif" font-size="14.00"> static(supports)</text>
</g>
<!-- n6 -->
<g id="node6" class="node"><title>n6</title>
<ellipse fill="none" stroke="black" cx="491.615" cy="-359.35" rx="67.7712" ry="26.7574"/>
<ellipse fill="none" stroke="black" cx="491.615" cy="-359.35" rx="71.7647" ry="30.7407"/>
<text text-anchor="middle" x="491.615" y="-363.15" font-family="Times,serif" font-size="14.00">&lt;objective13&gt;</text>
<text text-anchor="middle" x="491.615" y="-348.15" font-family="Times,serif" font-size="14.00">objective</text>
</g>
<!-- n4&#45;&gt;n6 -->
<g id="edge8" class="edge"><title>n4&#45;&gt;n6</title>
<path fill="none" stroke="black" stroke-dasharray="5,2" d="M668.658,-458.679C639.178,-450.801 602.807,-439.074 572.615,-423.22 557.475,-415.27 542.292,-404.434 529.23,-393.997"/>
<polygon fill="black" stroke="black" points="531.345,-391.206 521.39,-387.58 526.911,-396.622 531.345,-391.206"/>
<text text-anchor="middle" x="641.115" y="-412.02" font-family="Times,serif" font-size="14.00"> static(calibration_target)</text>
</g>
<!-- n9 -->
<g id="node9" class="node"><title>n9</title>
<ellipse fill="none" stroke="black" cx="877.615" cy="-359.35" rx="48.1667" ry="26.7407"/>
<text text-anchor="middle" x="877.615" y="-363.15" font-family="Times,serif" font-size="14.00">&lt;rover0&gt;</text>
<text text-anchor="middle" x="877.615" y="-348.15" font-family="Times,serif" font-size="14.00">rover</text>
</g>
<!-- n4&#45;&gt;n9 -->
<g id="edge13" class="edge"><title>n4&#45;&gt;n9</title>
<path fill="none" stroke="black" d="M745.195,-442.91C755.11,-431.198 767.56,-418.07 780.615,-408.22 783.074,-406.365 808.503,-393.832 832.705,-382.056"/>
<polygon fill="black" stroke="black" points="834.405,-385.122 841.87,-377.604 831.346,-378.825 834.405,-385.122"/>
<text text-anchor="middle" x="827.115" y="-412.02" font-family="Times,serif" font-size="14.00"> static(on_board)</text>
</g>
<!-- n6&#45;&gt;n1 -->
<g id="edge17" class="edge"><title>n6&#45;&gt;n1</title>
<path fill="none" stroke="black" d="M423.003,-349.741C368.791,-342.047 291.544,-329.094 225.615,-310.48 188.191,-299.914 147.398,-283.934 116.238,-270.73"/>
<polygon fill="black" stroke="black" points="117.462,-267.446 106.891,-266.73 114.708,-273.882 117.462,-267.446"/>
<text text-anchor="middle" x="281.615" y="-299.28" font-family="Times,serif" font-size="14.00"> static(visible_from)</text>
</g>
<!-- n6&#45;&gt;n2 -->
<g id="edge11" class="edge"><title>n6&#45;&gt;n2</title>
<path fill="none" stroke="black" stroke-dasharray="5,2" d="M443.458,-336.349C417.563,-322.515 386.71,-302.533 365.615,-277.48 336.176,-242.518 353.536,-218.927 325.615,-182.74 321.361,-177.227 316.256,-172.034 310.871,-167.283"/>
<polygon fill="black" stroke="black" points="312.788,-164.327 302.851,-160.653 308.329,-169.722 312.788,-164.327"/>
<text text-anchor="middle" x="421.615" y="-242.91" font-family="Times,serif" font-size="14.00"> static(visible_from)</text>
</g>
<!-- n6&#45;&gt;n3 -->
<g id="edge7" class="edge"><title>n6&#45;&gt;n3</title>
<path fill="none" stroke="black" stroke-dasharray="5,2" d="M498.668,-328.232C508.6,-277.866 520.564,-175.711 472.615,-111 441.36,-68.8185 384.591,-48.8707 338.705,-39.4413"/>
<polygon fill="black" stroke="black" points="339.276,-35.9871 328.794,-37.5309 337.951,-42.8605 339.276,-35.9871"/>
<text text-anchor="middle" x="561.615" y="-186.54" font-family="Times,serif" font-size="14.00"> static(visible_from)</text>
</g>
<!-- n6&#45;&gt;n5 -->
<g id="edge18" class="edge"><title>n6&#45;&gt;n5</title>
<path fill="none" stroke="black" stroke-dasharray="5,2" d="M502.654,-328.679C508.132,-317.131 515.728,-304.528 525.615,-295.48 539.527,-282.749 557.349,-273.057 574.622,-265.84"/>
<polygon fill="black" stroke="black" points="576.119,-269.012 584.133,-262.081 573.546,-262.502 576.119,-269.012"/>
<text text-anchor="middle" x="617.615" y="-299.28" font-family="Times,serif" font-size="14.00"> end(communicated_image_data)</text>
</g>
<!-- n7 -->
<g id="node7" class="node"><title>n7</title>
<ellipse fill="none" stroke="black" cx="877.615" cy="-472.09" rx="67.3507" ry="26.7407"/>
<text text-anchor="middle" x="877.615" y="-475.89" font-family="Times,serif" font-size="14.00">&lt;rover0store&gt;</text>
<text text-anchor="middle" x="877.615" y="-460.89" font-family="Times,serif" font-size="14.00">store</text>
</g>
<!-- n7&#45;&gt;n7 -->
<g id="edge4" class="edge"><title>n7&#45;&gt;n7</title>
<path fill="none" stroke="black" d="M940.009,-482.251C953.237,-481.22 962.79,-477.833 962.79,-472.09 962.79,-467.918 957.747,-464.99 949.916,-463.304"/>
<polygon fill="black" stroke="black" points="950.396,-459.837 940.009,-461.929 949.433,-466.771 950.396,-459.837"/>
<text text-anchor="middle" x="995.79" y="-468.39" font-family="Times,serif" font-size="14.00"> init(empty)</text>
</g>
<!-- n7&#45;&gt;n9 -->
<g id="edge22" class="edge"><title>n7&#45;&gt;n9</title>
<path fill="none" stroke="black" d="M877.615,-445.127C877.615,-430.653 877.615,-412.403 877.615,-396.546"/>
<polygon fill="black" stroke="black" points="881.115,-396.535 877.615,-386.535 874.115,-396.535 881.115,-396.535"/>
<text text-anchor="middle" x="920.615" y="-412.02" font-family="Times,serif" font-size="14.00"> static(store_of)</text>
</g>
<!-- n8 -->
<g id="node8" class="node"><title>n8</title>
<ellipse fill="none" stroke="black" cx="64.6149" cy="-359.35" rx="51.7379" ry="26.7407"/>
<text text-anchor="middle" x="64.6149" y="-363.15" font-family="Times,serif" font-size="14.00">&lt;general&gt;</text>
<text text-anchor="middle" x="64.6149" y="-348.15" font-family="Times,serif" font-size="14.00">lander</text>
</g>
<!-- n8&#45;&gt;n1 -->
<g id="edge15" class="edge"><title>n8&#45;&gt;n1</title>
<path fill="none" stroke="black" d="M64.6149,-332.387C64.6149,-317.913 64.6149,-299.662 64.6149,-283.806"/>
<polygon fill="black" stroke="black" points="68.115,-283.795 64.6149,-273.795 61.115,-283.795 68.115,-283.795"/>
<text text-anchor="middle" x="110.615" y="-299.28" font-family="Times,serif" font-size="14.00"> static(at_lander)</text>
</g>
<!-- n8&#45;&gt;n8 -->
<g id="edge5" class="edge"><title>n8&#45;&gt;n8</title>
<path fill="none" stroke="black" d="M112.447,-369.742C124.868,-369.103 134.234,-365.639 134.234,-359.35 134.234,-354.928 129.603,-351.903 122.536,-350.274"/>
<polygon fill="black" stroke="black" points="122.816,-346.781 112.447,-348.959 121.91,-353.723 122.816,-346.781"/>
<text text-anchor="middle" x="184.734" y="-355.65" font-family="Times,serif" font-size="14.00"> init(channel_free)</text>
</g>
<!-- n9&#45;&gt;n3 -->
<g id="edge19" class="edge"><title>n9&#45;&gt;n3</title>
<path fill="none" stroke="black" d="M853.542,-335.834C821.427,-306.382 762.15,-254.031 706.615,-215.74 603.773,-144.831 577.855,-123.745 461.615,-78 421.208,-62.0981 373.879,-50.503 336.085,-42.8084"/>
<polygon fill="black" stroke="black" points="336.684,-39.359 326.193,-40.8387 335.317,-46.2242 336.684,-39.359"/>
<text text-anchor="middle" x="700.115" y="-186.54" font-family="Times,serif" font-size="14.00"> init(at)</text>
</g>
<!-- n9&#45;&gt;n9 -->
<g id="edge6" class="edge"><title>n9&#45;&gt;n9</title>
<path fill="none" stroke="black" d="M922.089,-369.786C934.338,-369.282 943.698,-365.803 943.698,-359.35 943.698,-354.813 939.071,-351.746 932.065,-350.15"/>
<polygon fill="black" stroke="black" points="932.444,-346.67 922.089,-348.914 931.583,-353.617 932.444,-346.67"/>
<text text-anchor="middle" x="1041.2" y="-378.15" font-family="Times,serif" font-size="14.00"> static(equipped_for_rock_analysis)</text>
<text text-anchor="middle" x="1041.2" y="-363.15" font-family="Times,serif" font-size="14.00">static(equipped_for_imaging)</text>
<text text-anchor="middle" x="1041.2" y="-348.15" font-family="Times,serif" font-size="14.00">init(available)</text>
<text text-anchor="middle" x="1041.2" y="-333.15" font-family="Times,serif" font-size="14.00">static(equipped_for_soil_analysis)</text>
</g>
</g>
</svg>
