<?xml version="1.0" encoding="UTF-8" standalone="no"?>
<!DOCTYPE svg PUBLIC "-//W3C//DTD SVG 1.1//EN"
 "http://www.w3.org/Graphics/SVG/1.1/DTD/svg11.dtd">
<!-- Generated by graphviz version 2.38.0 (20140413.2041)
 -->
<!-- Title: Struc Pages: 1 -->
<svg width="6796pt" height="493pt"
 viewBox="0.00 0.00 6795.88 493.22" xmlns="http://www.w3.org/2000/svg" xmlns:xlink="http://www.w3.org/1999/xlink">
<g id="graph0" class="graph" transform="scale(1 1) rotate(0) translate(4 489.22)">
<title>Struc</title>
<polygon fill="white" stroke="none" points="-4,4 -4,-489.22 6791.88,-489.22 6791.88,4 -4,4"/>
<!-- n1 -->
<g id="node1" class="node"><title>n1</title>
<ellipse fill="none" stroke="black" cx="2573.88" cy="-458.35" rx="56.6372" ry="26.7407"/>
<text text-anchor="middle" x="2573.88" y="-462.15" font-family="Times,serif" font-size="14.00">&lt;camera1&gt;</text>
<text text-anchor="middle" x="2573.88" y="-447.15" font-family="Times,serif" font-size="14.00">camera</text>
</g>
<!-- n19 -->
<g id="node19" class="node"><title>n19</title>
<ellipse fill="none" stroke="black" cx="2576.88" cy="-350.48" rx="62.8651" ry="26.7407"/>
<text text-anchor="middle" x="2576.88" y="-354.28" font-family="Times,serif" font-size="14.00">&lt;objective4&gt;</text>
<text text-anchor="middle" x="2576.88" y="-339.28" font-family="Times,serif" font-size="14.00">objective</text>
</g>
<!-- n1&#45;&gt;n19 -->
<g id="edge55" class="edge"><title>n1&#45;&gt;n19</title>
<path fill="none" stroke="black" d="M2519.42,-450.765C2476.95,-443.263 2428.48,-428.001 2449.88,-398.48 2464.98,-377.656 2480.72,-389.29 2504.88,-380.48 2510.86,-378.299 2517.09,-375.936 2523.27,-373.531"/>
<polygon fill="black" stroke="black" points="2524.87,-376.661 2532.89,-369.738 2522.31,-370.148 2524.87,-376.661"/>
<text text-anchor="middle" x="2518.38" y="-402.28" font-family="Times,serif" font-size="14.00"> static(calibration_target)</text>
</g>
<!-- n24 -->
<g id="node24" class="node"><title>n24</title>
<ellipse fill="none" stroke="black" cx="2849.88" cy="-350.48" rx="48.1667" ry="26.7407"/>
<text text-anchor="middle" x="2849.88" y="-354.28" font-family="Times,serif" font-size="14.00">&lt;colour&gt;</text>
<text text-anchor="middle" x="2849.88" y="-339.28" font-family="Times,serif" font-size="14.00">mode</text>
</g>
<!-- n1&#45;&gt;n24 -->
<g id="edge28" class="edge"><title>n1&#45;&gt;n24</title>
<path fill="none" stroke="black" d="M2619.33,-442.195C2673.62,-423.948 2761.11,-394.066 2792.88,-380.48 2797.37,-378.562 2801.99,-376.448 2806.58,-374.262"/>
<polygon fill="black" stroke="black" points="2808.43,-377.253 2815.87,-369.713 2805.35,-370.965 2808.43,-377.253"/>
<text text-anchor="middle" x="2790.88" y="-402.28" font-family="Times,serif" font-size="14.00"> static(supports)</text>
</g>
<!-- n26 -->
<g id="node26" class="node"><title>n26</title>
<ellipse fill="none" stroke="black" cx="1604.88" cy="-242.61" rx="56.6372" ry="26.7407"/>
<text text-anchor="middle" x="1604.88" y="-246.41" font-family="Times,serif" font-size="14.00">&lt;high_res&gt;</text>
<text text-anchor="middle" x="1604.88" y="-231.41" font-family="Times,serif" font-size="14.00">mode</text>
</g>
<!-- n1&#45;&gt;n26 -->
<g id="edge95" class="edge"><title>n1&#45;&gt;n26</title>
<path fill="none" stroke="black" d="M2627.77,-449.773C2666.01,-444.464 2718.57,-437.306 2764.88,-431.48 2799.29,-427.153 2896.82,-439.375 2919.88,-413.48 2938.23,-392.876 2985.19,-391.994 2906.88,-320.48 2887.05,-302.372 2692.23,-307.68 2665.88,-302.48 2644.79,-298.316 2641.08,-291.093 2619.88,-287.48 2443.49,-257.422 1993.35,-282.435 1814.88,-269.48 1765.47,-265.893 1709.83,-258.904 1668.24,-253.094"/>
<polygon fill="black" stroke="black" points="1668.64,-249.617 1658.25,-251.684 1667.66,-256.548 1668.64,-249.617"/>
<text text-anchor="middle" x="2994.88" y="-346.78" font-family="Times,serif" font-size="14.00"> static(supports)</text>
</g>
<!-- n38 -->
<g id="node38" class="node"><title>n38</title>
<ellipse fill="none" stroke="black" cx="642.882" cy="-350.48" rx="48.1667" ry="26.7407"/>
<text text-anchor="middle" x="642.882" y="-354.28" font-family="Times,serif" font-size="14.00">&lt;rover0&gt;</text>
<text text-anchor="middle" x="642.882" y="-339.28" font-family="Times,serif" font-size="14.00">rover</text>
</g>
<!-- n1&#45;&gt;n38 -->
<g id="edge53" class="edge"><title>n1&#45;&gt;n38</title>
<path fill="none" stroke="black" d="M2517.44,-455.557C2289.6,-448.271 1448.54,-420.931 1421.88,-413.48 1408.66,-409.785 1408.1,-402.174 1394.88,-398.48 1292.72,-369.94 1023.69,-388.047 917.882,-380.48 842.148,-375.064 755.031,-365.272 699.5,-358.577"/>
<polygon fill="black" stroke="black" points="699.858,-355.095 689.509,-357.365 699.015,-362.044 699.858,-355.095"/>
<text text-anchor="middle" x="1468.38" y="-402.28" font-family="Times,serif" font-size="14.00"> static(on_board)</text>
</g>
<!-- n2 -->
<g id="node2" class="node"><title>n2</title>
<ellipse fill="none" stroke="black" cx="877.882" cy="-458.35" rx="56.6372" ry="26.7407"/>
<text text-anchor="middle" x="877.882" y="-462.15" font-family="Times,serif" font-size="14.00">&lt;camera4&gt;</text>
<text text-anchor="middle" x="877.882" y="-447.15" font-family="Times,serif" font-size="14.00">camera</text>
</g>
<!-- n2&#45;&gt;n19 -->
<g id="edge85" class="edge"><title>n2&#45;&gt;n19</title>
<path fill="none" stroke="black" d="M934.753,-458.185C1006.78,-457.5 1133.7,-450.425 1234.88,-413.48 1246.35,-409.294 1246.21,-402.042 1257.88,-398.48 1390.42,-358.038 2369.04,-407.829 2504.88,-380.48 2511.97,-379.054 2519.24,-376.953 2526.32,-374.522"/>
<polygon fill="black" stroke="black" points="2527.63,-377.77 2535.81,-371.035 2525.21,-371.199 2527.63,-377.77"/>
<text text-anchor="middle" x="1326.38" y="-402.28" font-family="Times,serif" font-size="14.00"> static(calibration_target)</text>
</g>
<!-- n20 -->
<g id="node20" class="node"><title>n20</title>
<ellipse fill="none" stroke="black" cx="614.882" cy="-242.61" rx="53.9813" ry="26.7407"/>
<text text-anchor="middle" x="614.882" y="-246.41" font-family="Times,serif" font-size="14.00">&lt;low_res&gt;</text>
<text text-anchor="middle" x="614.882" y="-231.41" font-family="Times,serif" font-size="14.00">mode</text>
</g>
<!-- n2&#45;&gt;n20 -->
<g id="edge88" class="edge"><title>n2&#45;&gt;n20</title>
<path fill="none" stroke="black" d="M824.901,-448.612C793.99,-443.544 754.24,-437.076 718.882,-431.48 666.917,-423.256 652.887,-426.386 601.882,-413.48 582.666,-408.618 578.742,-404.58 559.882,-398.48 532.581,-389.651 515.112,-403.424 497.882,-380.48 472.037,-346.064 491.128,-314.184 524.882,-287.48 536.512,-278.279 550.386,-270.339 563.716,-263.841"/>
<polygon fill="black" stroke="black" points="565.253,-266.986 572.824,-259.574 562.283,-260.647 565.253,-266.986"/>
<text text-anchor="middle" x="541.882" y="-346.78" font-family="Times,serif" font-size="14.00"> static(supports)</text>
</g>
<!-- n2&#45;&gt;n26 -->
<g id="edge15" class="edge"><title>n2&#45;&gt;n26</title>
<path fill="none" stroke="black" d="M933.125,-452.204C995.671,-445.766 1100.39,-433.139 1188.88,-413.48 1211.12,-408.541 1215.51,-402.724 1237.88,-398.48 1288.47,-388.887 1421.39,-400.377 1468.88,-380.48 1506.36,-364.776 1505.37,-344.865 1537.88,-320.48 1549.72,-311.603 1555.35,-312.869 1565.88,-302.48 1573.35,-295.119 1580.17,-286.109 1585.96,-277.371"/>
<polygon fill="black" stroke="black" points="1588.99,-279.119 1591.38,-268.796 1583.08,-275.378 1588.99,-279.119"/>
<text text-anchor="middle" x="1582.88" y="-346.78" font-family="Times,serif" font-size="14.00"> static(supports)</text>
</g>
<!-- n2&#45;&gt;n38 -->
<g id="edge98" class="edge"><title>n2&#45;&gt;n38</title>
<path fill="none" stroke="black" d="M825.802,-447.636C795.084,-440.674 756.054,-429.637 723.882,-413.48 713.933,-408.483 694.215,-393.437 676.726,-379.419"/>
<polygon fill="black" stroke="black" points="678.869,-376.651 668.89,-373.091 674.471,-382.097 678.869,-376.651"/>
<text text-anchor="middle" x="770.382" y="-402.28" font-family="Times,serif" font-size="14.00"> static(on_board)</text>
</g>
<!-- n3 -->
<g id="node3" class="node"><title>n3</title>
<ellipse fill="none" stroke="black" cx="3343.88" cy="-350.48" rx="67.7647" ry="26.7407"/>
<text text-anchor="middle" x="3343.88" y="-354.28" font-family="Times,serif" font-size="14.00">&lt;objective10&gt;</text>
<text text-anchor="middle" x="3343.88" y="-339.28" font-family="Times,serif" font-size="14.00">objective</text>
</g>
<!-- n28 -->
<g id="node28" class="node"><title>n28</title>
<ellipse fill="none" stroke="black" cx="3771.88" cy="-242.61" rx="63.7795" ry="26.7407"/>
<text text-anchor="middle" x="3771.88" y="-246.41" font-family="Times,serif" font-size="14.00">&lt;waypoint0&gt;</text>
<text text-anchor="middle" x="3771.88" y="-231.41" font-family="Times,serif" font-size="14.00">waypoint</text>
</g>
<!-- n3&#45;&gt;n28 -->
<g id="edge35" class="edge"><title>n3&#45;&gt;n28</title>
<path fill="none" stroke="black" d="M3360.74,-324.24C3371,-311.015 3385.31,-295.864 3401.88,-287.48 3452.23,-262.008 3605.79,-250.879 3698.51,-246.374"/>
<polygon fill="black" stroke="black" points="3698.84,-249.862 3708.67,-245.895 3698.51,-242.87 3698.84,-249.862"/>
<text text-anchor="middle" x="3457.88" y="-291.28" font-family="Times,serif" font-size="14.00"> static(visible_from)</text>
</g>
<!-- n4 -->
<g id="node4" class="node"><title>n4</title>
<ellipse fill="none" stroke="black" cx="3184.88" cy="-350.48" rx="67.7647" ry="26.7407"/>
<text text-anchor="middle" x="3184.88" y="-354.28" font-family="Times,serif" font-size="14.00">&lt;objective27&gt;</text>
<text text-anchor="middle" x="3184.88" y="-339.28" font-family="Times,serif" font-size="14.00">objective</text>
</g>
<!-- n4&#45;&gt;n28 -->
<g id="edge84" class="edge"><title>n4&#45;&gt;n28</title>
<path fill="none" stroke="black" d="M3208.83,-325.255C3223.87,-311.661 3244.42,-295.803 3265.88,-287.48 3342.67,-257.706 3576.83,-248.025 3697.79,-244.967"/>
<polygon fill="black" stroke="black" points="3698.17,-248.459 3708.08,-244.716 3697.99,-241.461 3698.17,-248.459"/>
<text text-anchor="middle" x="3321.88" y="-291.28" font-family="Times,serif" font-size="14.00"> static(visible_from)</text>
</g>
<!-- n5 -->
<g id="node5" class="node"><title>n5</title>
<ellipse fill="none" stroke="black" cx="4797.88" cy="-137.87" rx="63.7795" ry="26.7407"/>
<text text-anchor="middle" x="4797.88" y="-141.67" font-family="Times,serif" font-size="14.00">&lt;waypoint1&gt;</text>
<text text-anchor="middle" x="4797.88" y="-126.67" font-family="Times,serif" font-size="14.00">waypoint</text>
</g>
<!-- n5&#45;&gt;n5 -->
<g id="edge1" class="edge"><title>n5&#45;&gt;n5</title>
<path fill="none" stroke="black" d="M4857.69,-147.305C4870.37,-146.347 4879.52,-143.202 4879.52,-137.87 4879.52,-134.121 4875,-131.453 4867.9,-129.866"/>
<polygon fill="black" stroke="black" points="4868.08,-126.357 4857.69,-128.435 4867.1,-133.289 4868.08,-126.357"/>
<text text-anchor="middle" x="4936.02" y="-134.17" font-family="Times,serif" font-size="14.00"> init(at_soil_sample)</text>
</g>
<!-- n7 -->
<g id="node7" class="node"><title>n7</title>
<ellipse fill="none" stroke="black" cx="4696.88" cy="-30" rx="63.7795" ry="26.7407"/>
<text text-anchor="middle" x="4696.88" y="-33.8" font-family="Times,serif" font-size="14.00">&lt;waypoint2&gt;</text>
<text text-anchor="middle" x="4696.88" y="-18.8" font-family="Times,serif" font-size="14.00">waypoint</text>
</g>
<!-- n5&#45;&gt;n7 -->
<g id="edge72" class="edge"><title>n5&#45;&gt;n7</title>
<path fill="none" stroke="black" d="M4741.86,-124.844C4724.89,-118.321 4708.06,-108.314 4697.88,-93 4692.86,-85.4444 4691.03,-76.1437 4690.85,-67.0659"/>
<polygon fill="black" stroke="black" points="4694.35,-67.1481 4691.25,-57.0164 4687.35,-66.8687 4694.35,-67.1481"/>
<text text-anchor="middle" x="4736.88" y="-81.8" font-family="Times,serif" font-size="14.00"> static(visible)</text>
</g>
<!-- n5&#45;&gt;n28 -->
<g id="edge14" class="edge"><title>n5&#45;&gt;n28</title>
<path fill="none" stroke="black" d="M4737.66,-146.653C4643.95,-158.61 4457.5,-181.786 4298.88,-197.74 4136.82,-214.04 3946.29,-228.817 3844.57,-236.353"/>
<polygon fill="black" stroke="black" points="3844.13,-232.877 3834.41,-237.104 3844.64,-239.858 3844.13,-232.877"/>
<text text-anchor="middle" x="4475.88" y="-186.54" font-family="Times,serif" font-size="14.00"> static(visible)</text>
</g>
<!-- n6 -->
<g id="node6" class="node"><title>n6</title>
<ellipse fill="none" stroke="black" cx="67.8823" cy="-350.48" rx="67.7647" ry="26.7407"/>
<text text-anchor="middle" x="67.8823" y="-354.28" font-family="Times,serif" font-size="14.00">&lt;objective21&gt;</text>
<text text-anchor="middle" x="67.8823" y="-339.28" font-family="Times,serif" font-size="14.00">objective</text>
</g>
<!-- n6&#45;&gt;n5 -->
<g id="edge25" class="edge"><title>n6&#45;&gt;n5</title>
<path fill="none" stroke="black" d="M90.497,-324.865C121.661,-292.886 181.223,-238.465 244.882,-215.74 342.273,-180.973 609.552,-222.791 709.882,-197.74 724.732,-194.032 725.972,-186.196 740.882,-182.74 840.547,-159.638 4321.65,-168.522 4423.88,-164.74 4529.02,-160.851 4650.5,-151.559 4725.76,-145.237"/>
<polygon fill="black" stroke="black" points="4726.4,-148.696 4736.07,-144.366 4725.81,-141.721 4726.4,-148.696"/>
<text text-anchor="middle" x="300.882" y="-238.91" font-family="Times,serif" font-size="14.00"> static(visible_from)</text>
</g>
<!-- n6&#45;&gt;n7 -->
<g id="edge24" class="edge"><title>n6&#45;&gt;n7</title>
<path fill="none" stroke="black" d="M68.4402,-323.336C70.516,-287.707 79.0929,-223.665 112.882,-182.74 159.168,-126.68 189.652,-129.783 259.882,-111 466.459,-55.7513 526.219,-86.6067 739.882,-78 1537.81,-45.8584 4149.63,-33.3341 4622.98,-31.3035"/>
<polygon fill="black" stroke="black" points="4623.12,-34.8031 4633.1,-31.2603 4623.09,-27.8031 4623.12,-34.8031"/>
<text text-anchor="middle" x="168.882" y="-186.54" font-family="Times,serif" font-size="14.00"> static(visible_from)</text>
</g>
<!-- n6&#45;&gt;n28 -->
<g id="edge75" class="edge"><title>n6&#45;&gt;n28</title>
<path fill="none" stroke="black" d="M115.85,-331.244C127.519,-327.275 140.048,-323.397 151.882,-320.48 246.601,-297.133 271.63,-295.14 368.882,-287.48 686.35,-262.476 2916.55,-278.144 3234.88,-269.48 3401.03,-264.958 3595.86,-254.21 3699.08,-248.085"/>
<polygon fill="black" stroke="black" points="3699.31,-251.578 3709.08,-247.489 3698.89,-244.591 3699.31,-251.578"/>
<text text-anchor="middle" x="424.882" y="-291.28" font-family="Times,serif" font-size="14.00"> static(visible_from)</text>
</g>
<!-- n7&#45;&gt;n5 -->
<g id="edge102" class="edge"><title>n7&#45;&gt;n5</title>
<path fill="none" stroke="black" d="M4740.2,-49.8112C4753.06,-57.0913 4766.27,-66.4864 4775.88,-78 4781.51,-84.7411 4785.78,-93.0638 4788.98,-101.307"/>
<polygon fill="black" stroke="black" points="4785.7,-102.533 4792.27,-110.847 4792.32,-100.253 4785.7,-102.533"/>
<text text-anchor="middle" x="4824.88" y="-81.8" font-family="Times,serif" font-size="14.00"> static(visible)</text>
</g>
<!-- n7&#45;&gt;n7 -->
<g id="edge2" class="edge"><title>n7&#45;&gt;n7</title>
<path fill="none" stroke="black" d="M4756.32,-39.8259C4769.19,-38.8651 4778.52,-35.5898 4778.52,-30 4778.52,-26.0696 4773.91,-23.2836 4766.7,-21.6418"/>
<polygon fill="black" stroke="black" points="4766.72,-18.1096 4756.32,-20.1741 4765.73,-25.0406 4766.72,-18.1096"/>
<text text-anchor="middle" x="4863.52" y="-48.8" font-family="Times,serif" font-size="14.00"> end(communicated_soil_data)</text>
<text text-anchor="middle" x="4863.52" y="-33.8" font-family="Times,serif" font-size="14.00">init(at_soil_sample)</text>
<text text-anchor="middle" x="4863.52" y="-18.8" font-family="Times,serif" font-size="14.00">end(communicated_rock_data)</text>
<text text-anchor="middle" x="4863.52" y="-3.8" font-family="Times,serif" font-size="14.00">init(at_rock_sample)</text>
</g>
<!-- n7&#45;&gt;n28 -->
<g id="edge79" class="edge"><title>n7&#45;&gt;n28</title>
<path fill="none" stroke="black" d="M4641.79,-43.5445C4480.57,-80.251 4010.26,-187.335 3836.97,-226.79"/>
<polygon fill="black" stroke="black" points="3835.95,-223.433 3826.98,-229.066 3837.5,-230.259 3835.95,-223.433"/>
<text text-anchor="middle" x="4380.88" y="-134.17" font-family="Times,serif" font-size="14.00"> static(visible)</text>
</g>
<!-- n8 -->
<g id="node8" class="node"><title>n8</title>
<ellipse fill="none" stroke="black" cx="4859.88" cy="-350.48" rx="67.7647" ry="26.7407"/>
<text text-anchor="middle" x="4859.88" y="-354.28" font-family="Times,serif" font-size="14.00">&lt;objective11&gt;</text>
<text text-anchor="middle" x="4859.88" y="-339.28" font-family="Times,serif" font-size="14.00">objective</text>
</g>
<!-- n8&#45;&gt;n5 -->
<g id="edge16" class="edge"><title>n8&#45;&gt;n5</title>
<path fill="none" stroke="black" d="M4904.5,-330.007C4915.4,-322.987 4925.7,-313.901 4931.88,-302.48 4944,-280.1 4948.01,-263.979 4913.88,-215.74 4897.81,-193.018 4872.71,-175.179 4849.96,-162.43"/>
<polygon fill="black" stroke="black" points="4851.52,-159.292 4841.06,-157.622 4848.19,-165.452 4851.52,-159.292"/>
<text text-anchor="middle" x="4996.88" y="-238.91" font-family="Times,serif" font-size="14.00"> static(visible_from)</text>
</g>
<!-- n8&#45;&gt;n28 -->
<g id="edge97" class="edge"><title>n8&#45;&gt;n28</title>
<path fill="none" stroke="black" d="M4806.67,-333.686C4790.44,-329.128 4772.5,-324.346 4755.88,-320.48 4713.6,-310.641 4700.17,-318.647 4659.88,-302.48 4648.56,-297.935 4648.49,-291.253 4636.88,-287.48 4562.73,-263.377 4040.91,-249.533 3845.52,-245.146"/>
<polygon fill="black" stroke="black" points="3845.42,-241.643 3835.34,-244.92 3845.26,-248.642 3845.42,-241.643"/>
<text text-anchor="middle" x="4715.88" y="-291.28" font-family="Times,serif" font-size="14.00"> static(visible_from)</text>
</g>
<!-- n9 -->
<g id="node9" class="node"><title>n9</title>
<ellipse fill="none" stroke="black" cx="2432.88" cy="-350.48" rx="62.8651" ry="26.7407"/>
<text text-anchor="middle" x="2432.88" y="-354.28" font-family="Times,serif" font-size="14.00">&lt;objective9&gt;</text>
<text text-anchor="middle" x="2432.88" y="-339.28" font-family="Times,serif" font-size="14.00">objective</text>
</g>
<!-- n9&#45;&gt;n28 -->
<g id="edge20" class="edge"><title>n9&#45;&gt;n28</title>
<path fill="none" stroke="black" d="M2474.41,-330.115C2484.21,-326.291 2494.76,-322.759 2504.88,-320.48 2570.04,-305.813 2742.47,-326.264 2804.88,-302.48 2814.94,-298.649 2813.8,-291.23 2823.88,-287.48 2866.73,-271.548 3189.22,-271.58 3234.88,-269.48 3400.69,-261.856 3595.26,-252.341 3698.63,-247.241"/>
<polygon fill="black" stroke="black" points="3698.83,-250.735 3708.65,-246.746 3698.49,-243.744 3698.83,-250.735"/>
<text text-anchor="middle" x="2879.88" y="-291.28" font-family="Times,serif" font-size="14.00"> static(visible_from)</text>
</g>
<!-- n10 -->
<g id="node10" class="node"><title>n10</title>
<ellipse fill="none" stroke="black" cx="5015.88" cy="-350.48" rx="67.7647" ry="26.7407"/>
<text text-anchor="middle" x="5015.88" y="-354.28" font-family="Times,serif" font-size="14.00">&lt;objective17&gt;</text>
<text text-anchor="middle" x="5015.88" y="-339.28" font-family="Times,serif" font-size="14.00">objective</text>
</g>
<!-- n10&#45;&gt;n5 -->
<g id="edge63" class="edge"><title>n10&#45;&gt;n5</title>
<path fill="none" stroke="black" d="M5062.53,-330.73C5074.18,-323.685 5085.24,-314.405 5091.88,-302.48 5108.64,-272.407 5096.49,-249.282 5056.88,-215.74 5004.29,-171.201 4926.75,-152.466 4870.23,-144.587"/>
<polygon fill="black" stroke="black" points="4870.65,-141.113 4860.28,-143.281 4869.74,-148.053 4870.65,-141.113"/>
<text text-anchor="middle" x="5154.88" y="-238.91" font-family="Times,serif" font-size="14.00"> static(visible_from)</text>
</g>
<!-- n10&#45;&gt;n28 -->
<g id="edge82" class="edge"><title>n10&#45;&gt;n28</title>
<path fill="none" stroke="black" d="M4969.08,-330.912C4958.59,-327.14 4947.44,-323.43 4936.88,-320.48 4896.76,-309.266 4885.73,-310.673 4844.88,-302.48 4812.41,-295.967 4804.75,-291.552 4771.88,-287.48 4427.49,-244.818 4011.9,-242.019 3845.75,-242.852"/>
<polygon fill="black" stroke="black" points="3845.62,-239.352 3835.64,-242.909 3845.66,-246.352 3845.62,-239.352"/>
<text text-anchor="middle" x="4900.88" y="-291.28" font-family="Times,serif" font-size="14.00"> static(visible_from)</text>
</g>
<!-- n11 -->
<g id="node11" class="node"><title>n11</title>
<ellipse fill="none" stroke="black" cx="3492.88" cy="-350.48" rx="62.8651" ry="26.7407"/>
<text text-anchor="middle" x="3492.88" y="-354.28" font-family="Times,serif" font-size="14.00">&lt;objective1&gt;</text>
<text text-anchor="middle" x="3492.88" y="-339.28" font-family="Times,serif" font-size="14.00">objective</text>
</g>
<!-- n11&#45;&gt;n28 -->
<g id="edge86" class="edge"><title>n11&#45;&gt;n28</title>
<path fill="none" stroke="black" d="M3503.04,-323.764C3509.42,-310.903 3518.93,-296.248 3531.88,-287.48 3558.74,-269.3 3639.35,-257.172 3699.79,-250.361"/>
<polygon fill="black" stroke="black" points="3700.5,-253.803 3710.06,-249.232 3699.74,-246.845 3700.5,-253.803"/>
<text text-anchor="middle" x="3587.88" y="-291.28" font-family="Times,serif" font-size="14.00"> static(visible_from)</text>
</g>
<!-- n12 -->
<g id="node12" class="node"><title>n12</title>
<ellipse fill="none" stroke="black" cx="163.882" cy="-458.35" rx="56.6372" ry="26.7407"/>
<text text-anchor="middle" x="163.882" y="-462.15" font-family="Times,serif" font-size="14.00">&lt;camera3&gt;</text>
<text text-anchor="middle" x="163.882" y="-447.15" font-family="Times,serif" font-size="14.00">camera</text>
</g>
<!-- n12&#45;&gt;n6 -->
<g id="edge22" class="edge"><title>n12&#45;&gt;n6</title>
<path fill="none" stroke="black" d="M110.831,-448.839C72.2787,-441.445 24.8477,-429.417 12.8823,-413.48 4.16533,-401.87 10.8635,-389.781 22.1796,-379.394"/>
<polygon fill="black" stroke="black" points="24.6594,-381.886 30.1672,-372.835 20.2175,-376.476 24.6594,-381.886"/>
<text text-anchor="middle" x="81.3823" y="-402.28" font-family="Times,serif" font-size="14.00"> static(calibration_target)</text>
</g>
<!-- n12&#45;&gt;n26 -->
<g id="edge12" class="edge"><title>n12&#45;&gt;n26</title>
<path fill="none" stroke="black" d="M168.827,-431.485C172.419,-419.659 178.539,-406.523 188.882,-398.48 230.415,-366.184 256.886,-399.648 305.882,-380.48 350.308,-363.1 350.497,-337.965 394.882,-320.48 416.654,-311.904 579.579,-289.608 602.882,-287.48 924.311,-258.128 1006.68,-288.552 1328.88,-269.48 1401.36,-265.19 1484.26,-256.972 1540.13,-250.946"/>
<polygon fill="black" stroke="black" points="1540.68,-254.407 1550.24,-249.848 1539.92,-247.448 1540.68,-254.407"/>
<text text-anchor="middle" x="439.882" y="-346.78" font-family="Times,serif" font-size="14.00"> static(supports)</text>
</g>
<!-- n12&#45;&gt;n38 -->
<g id="edge71" class="edge"><title>n12&#45;&gt;n38</title>
<path fill="none" stroke="black" d="M212.918,-444.775C280.124,-427.542 392.744,-398.68 393.882,-398.48 476.127,-384.085 500.34,-402.488 580.882,-380.48 587.126,-378.774 593.52,-376.481 599.716,-373.928"/>
<polygon fill="black" stroke="black" points="601.491,-376.972 609.243,-369.75 598.679,-370.562 601.491,-376.972"/>
<text text-anchor="middle" x="440.382" y="-402.28" font-family="Times,serif" font-size="14.00"> static(on_board)</text>
</g>
<!-- n13 -->
<g id="node13" class="node"><title>n13</title>
<ellipse fill="none" stroke="black" cx="426.882" cy="-458.35" rx="67.3507" ry="26.7407"/>
<text text-anchor="middle" x="426.882" y="-462.15" font-family="Times,serif" font-size="14.00">&lt;rover0store&gt;</text>
<text text-anchor="middle" x="426.882" y="-447.15" font-family="Times,serif" font-size="14.00">store</text>
</g>
<!-- n13&#45;&gt;n13 -->
<g id="edge3" class="edge"><title>n13&#45;&gt;n13</title>
<path fill="none" stroke="black" d="M490.029,-467.728C502.865,-466.707 512.057,-463.581 512.057,-458.35 512.057,-454.673 507.513,-452.035 500.352,-450.438"/>
<polygon fill="black" stroke="black" points="500.421,-446.913 490.029,-448.972 499.437,-453.844 500.421,-446.913"/>
<text text-anchor="middle" x="545.057" y="-454.65" font-family="Times,serif" font-size="14.00"> init(empty)</text>
</g>
<!-- n13&#45;&gt;n38 -->
<g id="edge81" class="edge"><title>n13&#45;&gt;n38</title>
<path fill="none" stroke="black" d="M456.792,-434.129C473.441,-422.109 494.975,-408 515.882,-398.48 543.164,-386.058 552.763,-390.867 580.882,-380.48 586.734,-378.319 592.794,-375.824 598.729,-373.224"/>
<polygon fill="black" stroke="black" points="600.231,-376.386 607.907,-369.083 597.352,-370.005 600.231,-376.386"/>
<text text-anchor="middle" x="558.882" y="-402.28" font-family="Times,serif" font-size="14.00"> static(store_of)</text>
</g>
<!-- n14 -->
<g id="node14" class="node"><title>n14</title>
<ellipse fill="none" stroke="black" cx="1237.88" cy="-350.48" rx="67.7647" ry="26.7407"/>
<text text-anchor="middle" x="1237.88" y="-354.28" font-family="Times,serif" font-size="14.00">&lt;objective20&gt;</text>
<text text-anchor="middle" x="1237.88" y="-339.28" font-family="Times,serif" font-size="14.00">objective</text>
</g>
<!-- n14&#45;&gt;n5 -->
<g id="edge68" class="edge"><title>n14&#45;&gt;n5</title>
<path fill="none" stroke="black" d="M1194.61,-329.593C1185,-325.946 1174.74,-322.62 1164.88,-320.48 1125.09,-311.848 826.957,-331.969 798.882,-302.48 794.285,-297.652 794.675,-292.652 798.882,-287.48 906.187,-155.567 1386.99,-190.051 1556.88,-182.74 2193.42,-155.348 3787.21,-188.735 4423.88,-164.74 4529.02,-160.778 4650.5,-151.505 4725.76,-145.208"/>
<polygon fill="black" stroke="black" points="4726.4,-148.666 4736.07,-144.34 4725.81,-141.691 4726.4,-148.666"/>
<text text-anchor="middle" x="999.882" y="-238.91" font-family="Times,serif" font-size="14.00"> static(visible_from)</text>
</g>
<!-- n14&#45;&gt;n7 -->
<g id="edge50" class="edge"><title>n14&#45;&gt;n7</title>
<path fill="none" stroke="black" d="M1194.61,-329.586C1185.01,-325.939 1174.75,-322.615 1164.88,-320.48 1124.33,-311.702 820.506,-332.519 791.882,-302.48 771.615,-281.212 749.762,-278.378 816.882,-215.74 961.445,-80.8322 4098.64,-38.0488 4622.9,-31.831"/>
<polygon fill="black" stroke="black" points="4623.03,-35.3298 4632.99,-31.712 4622.94,-28.3302 4623.03,-35.3298"/>
<text text-anchor="middle" x="969.882" y="-186.54" font-family="Times,serif" font-size="14.00"> static(visible_from)</text>
</g>
<!-- n14&#45;&gt;n26 -->
<g id="edge44" class="edge"><title>n14&#45;&gt;n26</title>
<path fill="none" stroke="black" d="M1191.7,-330.539C1180.18,-326.544 1167.73,-322.83 1155.88,-320.48 1079.69,-305.367 753.911,-343.349 807.882,-287.48 828.005,-266.651 1299.98,-271.332 1328.88,-269.48 1401.34,-264.837 1484.24,-256.682 1540.12,-250.767"/>
<polygon fill="black" stroke="black" points="1540.66,-254.23 1550.23,-249.69 1539.92,-247.269 1540.66,-254.23"/>
<text text-anchor="middle" x="899.882" y="-291.28" font-family="Times,serif" font-size="14.00"> end(communicated_image_data)</text>
</g>
<!-- n14&#45;&gt;n28 -->
<g id="edge87" class="edge"><title>n14&#45;&gt;n28</title>
<path fill="none" stroke="black" d="M1240.63,-323.554C1243.47,-310.465 1249.23,-295.663 1260.88,-287.48 1283.32,-271.721 3207.48,-270.265 3234.88,-269.48 3401.02,-264.723 3595.85,-254.067 3699.08,-248.02"/>
<polygon fill="black" stroke="black" points="3699.3,-251.513 3709.08,-247.432 3698.89,-244.525 3699.3,-251.513"/>
<text text-anchor="middle" x="1316.88" y="-291.28" font-family="Times,serif" font-size="14.00"> static(visible_from)</text>
</g>
<!-- n15 -->
<g id="node15" class="node"><title>n15</title>
<ellipse fill="none" stroke="black" cx="1831.88" cy="-350.48" rx="67.7647" ry="26.7407"/>
<text text-anchor="middle" x="1831.88" y="-354.28" font-family="Times,serif" font-size="14.00">&lt;objective14&gt;</text>
<text text-anchor="middle" x="1831.88" y="-339.28" font-family="Times,serif" font-size="14.00">objective</text>
</g>
<!-- n15&#45;&gt;n5 -->
<g id="edge9" class="edge"><title>n15&#45;&gt;n5</title>
<path fill="none" stroke="black" d="M1833.42,-323.583C1835.58,-310.834 1840.39,-296.338 1850.88,-287.48 2041.31,-126.8 2159.11,-241.983 2406.88,-215.74 3298.63,-121.29 3527.87,-200.68 4423.88,-164.74 4528.85,-160.53 4650.13,-151.344 4725.43,-145.131"/>
<polygon fill="black" stroke="black" points="4726.06,-148.591 4735.74,-144.275 4725.48,-141.615 4726.06,-148.591"/>
<text text-anchor="middle" x="2462.88" y="-238.91" font-family="Times,serif" font-size="14.00"> static(visible_from)</text>
</g>
<!-- n15&#45;&gt;n26 -->
<g id="edge69" class="edge"><title>n15&#45;&gt;n26</title>
<path fill="none" stroke="black" d="M1782.46,-331.767C1769.98,-327.688 1756.53,-323.629 1743.88,-320.48 1697.94,-309.039 1677.73,-329.543 1638.88,-302.48 1630.24,-296.459 1623.49,-287.481 1618.36,-278.34"/>
<polygon fill="black" stroke="black" points="1621.4,-276.595 1613.77,-269.247 1615.16,-279.751 1621.4,-276.595"/>
<text text-anchor="middle" x="1730.88" y="-291.28" font-family="Times,serif" font-size="14.00"> end(communicated_image_data)</text>
</g>
<!-- n15&#45;&gt;n28 -->
<g id="edge26" class="edge"><title>n15&#45;&gt;n28</title>
<path fill="none" stroke="black" d="M1876.41,-330.191C1886.88,-326.363 1898.13,-322.811 1908.88,-320.48 2025.98,-295.091 2062.05,-333.138 2177.88,-302.48 2192.68,-298.564 2193.99,-291.031 2208.88,-287.48 2319.79,-261.032 3120.93,-273.224 3234.88,-269.48 3401,-264.023 3595.84,-253.641 3699.07,-247.825"/>
<polygon fill="black" stroke="black" points="3699.29,-251.319 3709.08,-247.26 3698.89,-244.33 3699.29,-251.319"/>
<text text-anchor="middle" x="2264.88" y="-291.28" font-family="Times,serif" font-size="14.00"> static(visible_from)</text>
</g>
<!-- n16 -->
<g id="node16" class="node"><title>n16</title>
<ellipse fill="none" stroke="black" cx="652.882" cy="-458.35" rx="56.6372" ry="26.7407"/>
<text text-anchor="middle" x="652.882" y="-462.15" font-family="Times,serif" font-size="14.00">&lt;camera6&gt;</text>
<text text-anchor="middle" x="652.882" y="-447.15" font-family="Times,serif" font-size="14.00">camera</text>
</g>
<!-- n16&#45;&gt;n24 -->
<g id="edge41" class="edge"><title>n16&#45;&gt;n24</title>
<path fill="none" stroke="black" d="M705.813,-448.869C738.945,-442.207 781.842,-431.052 816.882,-413.48 826.5,-408.657 825.735,-402.055 835.882,-398.48 938.43,-362.35 2687.27,-406.316 2792.88,-380.48 2798.27,-379.161 2803.74,-377.251 2809.03,-375.031"/>
<polygon fill="black" stroke="black" points="2810.71,-378.113 2818.34,-370.761 2807.79,-371.751 2810.71,-378.113"/>
<text text-anchor="middle" x="879.882" y="-402.28" font-family="Times,serif" font-size="14.00"> static(supports)</text>
</g>
<!-- n30 -->
<g id="node30" class="node"><title>n30</title>
<ellipse fill="none" stroke="black" cx="228.882" cy="-350.48" rx="67.7647" ry="26.7407"/>
<text text-anchor="middle" x="228.882" y="-354.28" font-family="Times,serif" font-size="14.00">&lt;objective19&gt;</text>
<text text-anchor="middle" x="228.882" y="-339.28" font-family="Times,serif" font-size="14.00">objective</text>
</g>
<!-- n16&#45;&gt;n30 -->
<g id="edge18" class="edge"><title>n16&#45;&gt;n30</title>
<path fill="none" stroke="black" d="M612.686,-439.199C604.311,-436.102 595.429,-433.301 586.882,-431.48 544.563,-422.465 227.762,-444.775 197.882,-413.48 189.896,-405.116 192.274,-394.296 198.359,-384.041"/>
<polygon fill="black" stroke="black" points="201.372,-385.838 204.197,-375.627 195.621,-381.848 201.372,-385.838"/>
<text text-anchor="middle" x="266.382" y="-402.28" font-family="Times,serif" font-size="14.00"> static(calibration_target)</text>
</g>
<!-- n16&#45;&gt;n38 -->
<g id="edge30" class="edge"><title>n16&#45;&gt;n38</title>
<path fill="none" stroke="black" d="M623.128,-435.06C616.94,-428.823 611.274,-421.523 607.882,-413.48 603.425,-402.909 606.8,-391.854 612.914,-382.055"/>
<polygon fill="black" stroke="black" points="615.85,-383.968 618.864,-373.811 610.174,-379.871 615.85,-383.968"/>
<text text-anchor="middle" x="654.382" y="-402.28" font-family="Times,serif" font-size="14.00"> static(on_board)</text>
</g>
<!-- n17 -->
<g id="node17" class="node"><title>n17</title>
<ellipse fill="none" stroke="black" cx="3636.88" cy="-350.48" rx="62.8651" ry="26.7407"/>
<text text-anchor="middle" x="3636.88" y="-354.28" font-family="Times,serif" font-size="14.00">&lt;objective0&gt;</text>
<text text-anchor="middle" x="3636.88" y="-339.28" font-family="Times,serif" font-size="14.00">objective</text>
</g>
<!-- n17&#45;&gt;n28 -->
<g id="edge13" class="edge"><title>n17&#45;&gt;n28</title>
<path fill="none" stroke="black" d="M3639.98,-323.604C3642.64,-311.327 3647.62,-297.243 3656.88,-287.48 3669.79,-273.878 3687.36,-264.447 3704.88,-257.925"/>
<polygon fill="black" stroke="black" points="3706.26,-261.152 3714.58,-254.593 3703.98,-254.532 3706.26,-261.152"/>
<text text-anchor="middle" x="3712.88" y="-291.28" font-family="Times,serif" font-size="14.00"> static(visible_from)</text>
</g>
<!-- n18 -->
<g id="node18" class="node"><title>n18</title>
<ellipse fill="none" stroke="black" cx="1980.88" cy="-350.48" rx="62.8651" ry="26.7407"/>
<text text-anchor="middle" x="1980.88" y="-354.28" font-family="Times,serif" font-size="14.00">&lt;objective3&gt;</text>
<text text-anchor="middle" x="1980.88" y="-339.28" font-family="Times,serif" font-size="14.00">objective</text>
</g>
<!-- n18&#45;&gt;n26 -->
<g id="edge51" class="edge"><title>n18&#45;&gt;n26</title>
<path fill="none" stroke="black" d="M1989.29,-323.717C1991.62,-311.317 1991.52,-297.093 1982.88,-287.48 1957.79,-259.552 1852.18,-273.776 1814.88,-269.48 1766,-263.851 1710.77,-257.029 1669.23,-251.805"/>
<polygon fill="black" stroke="black" points="1669.6,-248.324 1659.24,-250.547 1668.73,-255.269 1669.6,-248.324"/>
<text text-anchor="middle" x="2081.88" y="-291.28" font-family="Times,serif" font-size="14.00"> end(communicated_image_data)</text>
</g>
<!-- n18&#45;&gt;n28 -->
<g id="edge100" class="edge"><title>n18&#45;&gt;n28</title>
<path fill="none" stroke="black" d="M2022.42,-330.161C2032.22,-326.334 2042.77,-322.79 2052.88,-320.48 2171,-293.51 2206.08,-326.231 2324.88,-302.48 2345.14,-298.43 2348.54,-291.071 2368.88,-287.48 2463.66,-270.755 3138.7,-272.796 3234.88,-269.48 3400.99,-263.754 3595.84,-253.477 3699.07,-247.751"/>
<polygon fill="black" stroke="black" points="3699.28,-251.244 3709.07,-247.194 3698.89,-244.255 3699.28,-251.244"/>
<text text-anchor="middle" x="2424.88" y="-291.28" font-family="Times,serif" font-size="14.00"> static(visible_from)</text>
</g>
<!-- n19&#45;&gt;n28 -->
<g id="edge29" class="edge"><title>n19&#45;&gt;n28</title>
<path fill="none" stroke="black" d="M2618.41,-330.129C2628.21,-326.304 2638.76,-322.768 2648.88,-320.48 2712.08,-306.193 2879.36,-325.609 2939.88,-302.48 2949.93,-298.64 2948.82,-291.281 2958.88,-287.48 2976.06,-280.991 3501.56,-256.107 3698.4,-246.986"/>
<polygon fill="black" stroke="black" points="3698.82,-250.471 3708.64,-246.512 3698.49,-243.478 3698.82,-250.471"/>
<text text-anchor="middle" x="3014.88" y="-291.28" font-family="Times,serif" font-size="14.00"> static(visible_from)</text>
</g>
<!-- n21 -->
<g id="node21" class="node"><title>n21</title>
<ellipse fill="none" stroke="black" cx="2830.88" cy="-458.35" rx="56.6372" ry="26.7407"/>
<text text-anchor="middle" x="2830.88" y="-462.15" font-family="Times,serif" font-size="14.00">&lt;camera2&gt;</text>
<text text-anchor="middle" x="2830.88" y="-447.15" font-family="Times,serif" font-size="14.00">camera</text>
</g>
<!-- n21&#45;&gt;n4 -->
<g id="edge19" class="edge"><title>n21&#45;&gt;n4</title>
<path fill="none" stroke="black" d="M2887.3,-456.325C2969.37,-453.763 3116.4,-444.803 3157.88,-413.48 3166.54,-406.94 3172.47,-397.037 3176.51,-387.054"/>
<polygon fill="black" stroke="black" points="3179.83,-388.159 3179.83,-377.564 3173.22,-385.847 3179.83,-388.159"/>
<text text-anchor="middle" x="3239.38" y="-402.28" font-family="Times,serif" font-size="14.00"> static(calibration_target)</text>
</g>
<!-- n21&#45;&gt;n24 -->
<g id="edge60" class="edge"><title>n21&#45;&gt;n24</title>
<path fill="none" stroke="black" d="M2835.53,-431.452C2837.9,-418.25 2840.82,-401.982 2843.41,-387.572"/>
<polygon fill="black" stroke="black" points="2846.89,-387.94 2845.22,-377.479 2840,-386.703 2846.89,-387.94"/>
<text text-anchor="middle" x="2885.88" y="-402.28" font-family="Times,serif" font-size="14.00"> static(supports)</text>
</g>
<!-- n21&#45;&gt;n38 -->
<g id="edge11" class="edge"><title>n21&#45;&gt;n38</title>
<path fill="none" stroke="black" d="M2777.95,-448.586C2739.7,-442.645 2686.75,-435.217 2639.88,-431.48 2314.59,-405.542 2231.49,-435.004 1905.88,-413.48 1843.88,-409.382 1828.89,-402.476 1766.88,-398.48 1390.25,-374.211 1294.55,-404.292 917.882,-380.48 842.106,-375.69 754.998,-365.75 699.482,-358.852"/>
<polygon fill="black" stroke="black" points="699.851,-355.37 689.493,-357.601 698.981,-362.316 699.851,-355.37"/>
<text text-anchor="middle" x="1952.38" y="-402.28" font-family="Times,serif" font-size="14.00"> static(on_board)</text>
</g>
<!-- n22 -->
<g id="node22" class="node"><title>n22</title>
<ellipse fill="none" stroke="black" cx="3780.88" cy="-350.48" rx="62.8651" ry="26.7407"/>
<text text-anchor="middle" x="3780.88" y="-354.28" font-family="Times,serif" font-size="14.00">&lt;objective2&gt;</text>
<text text-anchor="middle" x="3780.88" y="-339.28" font-family="Times,serif" font-size="14.00">objective</text>
</g>
<!-- n22&#45;&gt;n28 -->
<g id="edge40" class="edge"><title>n22&#45;&gt;n28</title>
<path fill="none" stroke="black" d="M3775.69,-323.224C3774.56,-316.489 3773.51,-309.238 3772.88,-302.48 3772.21,-295.216 3771.83,-287.427 3771.64,-279.971"/>
<polygon fill="black" stroke="black" points="3775.13,-279.683 3771.48,-269.739 3768.13,-279.793 3775.13,-279.683"/>
<text text-anchor="middle" x="3828.88" y="-291.28" font-family="Times,serif" font-size="14.00"> static(visible_from)</text>
</g>
<!-- n23 -->
<g id="node23" class="node"><title>n23</title>
<ellipse fill="none" stroke="black" cx="5177.88" cy="-350.48" rx="62.8651" ry="26.7407"/>
<text text-anchor="middle" x="5177.88" y="-354.28" font-family="Times,serif" font-size="14.00">&lt;objective5&gt;</text>
<text text-anchor="middle" x="5177.88" y="-339.28" font-family="Times,serif" font-size="14.00">objective</text>
</g>
<!-- n23&#45;&gt;n5 -->
<g id="edge61" class="edge"><title>n23&#45;&gt;n5</title>
<path fill="none" stroke="black" d="M5222.17,-331.201C5233.93,-324.065 5245.21,-314.618 5251.88,-302.48 5260.51,-286.774 5235.13,-230.77 5214.88,-215.74 5161.39,-176.042 4975.13,-154.056 4870.56,-144.578"/>
<polygon fill="black" stroke="black" points="4870.66,-141.074 4860.39,-143.673 4870.04,-148.046 4870.66,-141.074"/>
<text text-anchor="middle" x="5304.88" y="-238.91" font-family="Times,serif" font-size="14.00"> static(visible_from)</text>
</g>
<!-- n23&#45;&gt;n28 -->
<g id="edge77" class="edge"><title>n23&#45;&gt;n28</title>
<path fill="none" stroke="black" d="M5131,-332.297C5118.7,-328.114 5105.37,-323.873 5092.88,-320.48 5054.36,-310.014 5043.54,-312.447 5004.88,-302.48 4983.24,-296.9 4978.91,-291.26 4956.88,-287.48 4847.93,-268.784 4087.61,-250.578 3845.65,-245.201"/>
<polygon fill="black" stroke="black" points="3845.62,-241.7 3835.55,-244.977 3845.47,-248.698 3845.62,-241.7"/>
<text text-anchor="middle" x="5060.88" y="-291.28" font-family="Times,serif" font-size="14.00"> static(visible_from)</text>
</g>
<!-- n25 -->
<g id="node25" class="node"><title>n25</title>
<ellipse fill="none" stroke="black" cx="3913.88" cy="-350.48" rx="51.7379" ry="26.7407"/>
<text text-anchor="middle" x="3913.88" y="-354.28" font-family="Times,serif" font-size="14.00">&lt;general&gt;</text>
<text text-anchor="middle" x="3913.88" y="-339.28" font-family="Times,serif" font-size="14.00">lander</text>
</g>
<!-- n25&#45;&gt;n25 -->
<g id="edge4" class="edge"><title>n25&#45;&gt;n25</title>
<path fill="none" stroke="black" d="M3962.04,-360.484C3974.3,-359.827 3983.5,-356.492 3983.5,-350.48 3983.5,-346.253 3978.95,-343.35 3971.99,-341.77"/>
<polygon fill="black" stroke="black" points="3972.41,-338.295 3962.04,-340.476 3971.5,-345.236 3972.41,-338.295"/>
<text text-anchor="middle" x="4034" y="-346.78" font-family="Times,serif" font-size="14.00"> init(channel_free)</text>
</g>
<!-- n25&#45;&gt;n28 -->
<g id="edge49" class="edge"><title>n25&#45;&gt;n28</title>
<path fill="none" stroke="black" d="M3906.84,-323.823C3902.32,-311.451 3895.3,-297.219 3884.88,-287.48 3871.46,-274.929 3854.04,-265.836 3836.92,-259.302"/>
<polygon fill="black" stroke="black" points="3838.06,-255.993 3827.47,-255.93 3835.71,-262.586 3838.06,-255.993"/>
<text text-anchor="middle" x="3942.88" y="-291.28" font-family="Times,serif" font-size="14.00"> static(at_lander)</text>
</g>
<!-- n27 -->
<g id="node27" class="node"><title>n27</title>
<ellipse fill="none" stroke="black" cx="5636.88" cy="-350.48" rx="67.7647" ry="26.7407"/>
<text text-anchor="middle" x="5636.88" y="-354.28" font-family="Times,serif" font-size="14.00">&lt;objective16&gt;</text>
<text text-anchor="middle" x="5636.88" y="-339.28" font-family="Times,serif" font-size="14.00">objective</text>
</g>
<!-- n27&#45;&gt;n5 -->
<g id="edge94" class="edge"><title>n27&#45;&gt;n5</title>
<path fill="none" stroke="black" d="M5640.36,-323.392C5642.49,-312.021 5645.8,-298.746 5650.88,-287.48 5654.94,-278.485 5660.85,-278.87 5663.88,-269.48 5671.23,-246.754 5679.3,-233.984 5663.88,-215.74 5613.16,-155.716 5071.87,-142.48 4871.72,-139.631"/>
<polygon fill="black" stroke="black" points="4871.65,-136.129 4861.6,-139.491 4871.55,-143.129 4871.65,-136.129"/>
<text text-anchor="middle" x="5728.88" y="-238.91" font-family="Times,serif" font-size="14.00"> static(visible_from)</text>
</g>
<!-- n27&#45;&gt;n7 -->
<g id="edge48" class="edge"><title>n27&#45;&gt;n7</title>
<path fill="none" stroke="black" d="M5646.23,-323.597C5652.47,-310.348 5662.09,-295.381 5675.88,-287.48 5703.86,-271.457 6233.44,-292.627 6255.88,-269.48 6272.51,-252.331 6271.75,-233.595 6255.88,-215.74 6252.73,-212.191 5072.44,-74.6834 4767.9,-39.2565"/>
<polygon fill="black" stroke="black" points="4768.2,-35.7681 4757.86,-38.0892 4767.39,-42.7213 4768.2,-35.7681"/>
<text text-anchor="middle" x="6170.88" y="-186.54" font-family="Times,serif" font-size="14.00"> static(visible_from)</text>
</g>
<!-- n27&#45;&gt;n28 -->
<g id="edge99" class="edge"><title>n27&#45;&gt;n28</title>
<path fill="none" stroke="black" d="M5590.56,-330.633C5550.62,-315.482 5491.01,-295.456 5436.88,-287.48 5426.9,-286.009 4166.54,-253.701 3845.58,-245.493"/>
<polygon fill="black" stroke="black" points="3845.54,-241.991 3835.46,-245.234 3845.36,-248.989 3845.54,-241.991"/>
<text text-anchor="middle" x="5560.88" y="-291.28" font-family="Times,serif" font-size="14.00"> static(visible_from)</text>
</g>
<!-- n28&#45;&gt;n5 -->
<g id="edge37" class="edge"><title>n28&#45;&gt;n5</title>
<path fill="none" stroke="black" d="M3831.14,-232.693C3916.31,-220.123 4078.33,-197.125 4216.88,-182.74 4399.34,-163.798 4614.83,-149.679 4725.01,-143.055"/>
<polygon fill="black" stroke="black" points="4725.24,-146.547 4735.02,-142.456 4724.83,-139.559 4725.24,-146.547"/>
<text text-anchor="middle" x="4255.88" y="-186.54" font-family="Times,serif" font-size="14.00"> static(visible)</text>
</g>
<!-- n28&#45;&gt;n7 -->
<g id="edge52" class="edge"><title>n28&#45;&gt;n7</title>
<path fill="none" stroke="black" d="M3730.91,-221.881C3709.07,-208.951 3684.22,-189.786 3671.88,-164.74 3661.33,-143.314 3658.35,-130.683 3671.88,-111 3725.59,-32.8621 4396.29,-29.3215 4622.76,-30.3756"/>
<polygon fill="black" stroke="black" points="4622.86,-33.876 4632.88,-30.4272 4622.9,-26.8761 4622.86,-33.876"/>
<text text-anchor="middle" x="3710.88" y="-134.17" font-family="Times,serif" font-size="14.00"> static(visible)</text>
</g>
<!-- n28&#45;&gt;n28 -->
<g id="edge5" class="edge"><title>n28&#45;&gt;n28</title>
<path fill="none" stroke="black" d="M3831.69,-252.045C3844.37,-251.087 3853.52,-247.942 3853.52,-242.61 3853.52,-238.861 3849,-236.193 3841.9,-234.607"/>
<polygon fill="black" stroke="black" points="3842.08,-231.097 3831.69,-233.175 3841.1,-238.029 3842.08,-231.097"/>
<text text-anchor="middle" x="3938.02" y="-246.41" font-family="Times,serif" font-size="14.00"> end(communicated_soil_data)</text>
<text text-anchor="middle" x="3938.02" y="-231.41" font-family="Times,serif" font-size="14.00">init(at_soil_sample)</text>
</g>
<!-- n29 -->
<g id="node29" class="node"><title>n29</title>
<ellipse fill="none" stroke="black" cx="4683.88" cy="-350.48" rx="62.8651" ry="26.7407"/>
<text text-anchor="middle" x="4683.88" y="-354.28" font-family="Times,serif" font-size="14.00">&lt;objective6&gt;</text>
<text text-anchor="middle" x="4683.88" y="-339.28" font-family="Times,serif" font-size="14.00">objective</text>
</g>
<!-- n29&#45;&gt;n5 -->
<g id="edge59" class="edge"><title>n29&#45;&gt;n5</title>
<path fill="none" stroke="black" d="M4733.13,-333.57C4748.9,-328.875 4766.52,-324.046 4782.88,-320.48 4810.09,-314.552 4888.66,-323.536 4906.88,-302.48 4911.24,-297.439 4911.2,-292.564 4906.88,-287.48 4875.12,-250.039 4829.65,-306.921 4797.88,-269.48 4775.9,-243.573 4779.65,-203.25 4786.54,-174.261"/>
<polygon fill="black" stroke="black" points="4789.94,-175.081 4789.07,-164.522 4783.17,-173.32 4789.94,-175.081"/>
<text text-anchor="middle" x="4853.88" y="-238.91" font-family="Times,serif" font-size="14.00"> static(visible_from)</text>
</g>
<!-- n29&#45;&gt;n26 -->
<g id="edge42" class="edge"><title>n29&#45;&gt;n26</title>
<path fill="none" stroke="black" d="M4641.04,-330.502C4630.11,-326.455 4618.23,-322.727 4606.88,-320.48 4478.64,-295.099 4144.63,-338.223 4018.88,-302.48 4006.05,-298.833 4005.75,-290.984 3992.88,-287.48 3934.5,-271.589 1875.25,-273.435 1814.88,-269.48 1765.44,-266.241 1709.8,-259.234 1668.22,-253.328"/>
<polygon fill="black" stroke="black" points="1668.63,-249.851 1658.24,-251.893 1667.64,-256.78 1668.63,-249.851"/>
<text text-anchor="middle" x="4110.88" y="-291.28" font-family="Times,serif" font-size="14.00"> end(communicated_image_data)</text>
</g>
<!-- n29&#45;&gt;n28 -->
<g id="edge89" class="edge"><title>n29&#45;&gt;n28</title>
<path fill="none" stroke="black" d="M4639.06,-331.357C4628.6,-327.475 4617.43,-323.606 4606.88,-320.48 4571.11,-309.877 4559.29,-316.907 4524.88,-302.48 4513.63,-297.762 4513.47,-291.307 4501.88,-287.48 4381.77,-247.816 4006.41,-243.319 3845.89,-243.274"/>
<polygon fill="black" stroke="black" points="3845.63,-239.774 3835.63,-243.278 3845.63,-246.774 3845.63,-239.774"/>
<text text-anchor="middle" x="4580.88" y="-291.28" font-family="Times,serif" font-size="14.00"> static(visible_from)</text>
</g>
<!-- n30&#45;&gt;n5 -->
<g id="edge73" class="edge"><title>n30&#45;&gt;n5</title>
<path fill="none" stroke="black" d="M265.902,-327.749C292.541,-311.942 329.207,-289.832 360.882,-269.48 396.608,-246.525 399.65,-229.328 439.882,-215.74 455.959,-210.31 1032.92,-183.244 1049.88,-182.74 1799.34,-160.482 3674.61,-192.624 4423.88,-164.74 4529.02,-160.827 4650.5,-151.541 4725.76,-145.228"/>
<polygon fill="black" stroke="black" points="4726.4,-148.687 4736.07,-144.357 4725.81,-141.711 4726.4,-148.687"/>
<text text-anchor="middle" x="499.882" y="-238.91" font-family="Times,serif" font-size="14.00"> static(visible_from)</text>
</g>
<!-- n30&#45;&gt;n7 -->
<g id="edge46" class="edge"><title>n30&#45;&gt;n7</title>
<path fill="none" stroke="black" d="M216.025,-323.978C203.317,-294.754 188.946,-246.892 212.882,-215.74 323.02,-72.4045 427.231,-138.555 605.882,-111 923.791,-61.9652 1007.36,-87.5787 1328.88,-78 2649.62,-38.6531 4262.7,-32.149 4623.16,-31.1643"/>
<polygon fill="black" stroke="black" points="4623.22,-34.6643 4633.21,-31.1374 4623.2,-27.6643 4623.22,-34.6643"/>
<text text-anchor="middle" x="296.882" y="-186.54" font-family="Times,serif" font-size="14.00"> static(visible_from)</text>
</g>
<!-- n30&#45;&gt;n28 -->
<g id="edge57" class="edge"><title>n30&#45;&gt;n28</title>
<path fill="none" stroke="black" d="M280.583,-332.941C296.854,-328.273 314.987,-323.617 331.882,-320.48 409.78,-306.018 607.752,-291.43 686.882,-287.48 1252.41,-259.249 2668.86,-285.107 3234.88,-269.48 3401.02,-264.893 3595.86,-254.171 3699.08,-248.067"/>
<polygon fill="black" stroke="black" points="3699.31,-251.56 3709.08,-247.473 3698.89,-244.572 3699.31,-251.56"/>
<text text-anchor="middle" x="742.882" y="-291.28" font-family="Times,serif" font-size="14.00"> static(visible_from)</text>
</g>
<!-- n31 -->
<g id="node31" class="node"><title>n31</title>
<ellipse fill="none" stroke="black" cx="5328.88" cy="-350.48" rx="62.8651" ry="26.7407"/>
<text text-anchor="middle" x="5328.88" y="-354.28" font-family="Times,serif" font-size="14.00">&lt;objective7&gt;</text>
<text text-anchor="middle" x="5328.88" y="-339.28" font-family="Times,serif" font-size="14.00">objective</text>
</g>
<!-- n31&#45;&gt;n5 -->
<g id="edge62" class="edge"><title>n31&#45;&gt;n5</title>
<path fill="none" stroke="black" d="M5377.11,-332.993C5390.77,-325.837 5404.04,-315.928 5411.88,-302.48 5415.24,-296.721 5413.79,-293.869 5411.88,-287.48 5409.16,-278.349 5372.87,-220.943 5364.88,-215.74 5284.99,-163.672 5006,-146.467 4871.5,-141.118"/>
<polygon fill="black" stroke="black" points="4871.42,-137.613 4861.29,-140.724 4871.15,-144.607 4871.42,-137.613"/>
<text text-anchor="middle" x="5458.88" y="-238.91" font-family="Times,serif" font-size="14.00"> static(visible_from)</text>
</g>
<!-- n31&#45;&gt;n28 -->
<g id="edge76" class="edge"><title>n31&#45;&gt;n28</title>
<path fill="none" stroke="black" d="M5283.72,-331.639C5272.74,-327.656 5260.97,-323.673 5249.88,-320.48 5212.77,-309.799 5202.24,-312.25 5164.88,-302.48 5143.26,-296.825 5138.92,-291.212 5116.88,-287.48 5053.95,-276.823 4118.08,-252.386 3845.72,-245.466"/>
<polygon fill="black" stroke="black" points="3845.63,-241.963 3835.54,-245.208 3845.45,-248.961 3845.63,-241.963"/>
<text text-anchor="middle" x="5220.88" y="-291.28" font-family="Times,serif" font-size="14.00"> static(visible_from)</text>
</g>
<!-- n32 -->
<g id="node32" class="node"><title>n32</title>
<ellipse fill="none" stroke="black" cx="1294.88" cy="-458.35" rx="56.6372" ry="26.7407"/>
<text text-anchor="middle" x="1294.88" y="-462.15" font-family="Times,serif" font-size="14.00">&lt;camera0&gt;</text>
<text text-anchor="middle" x="1294.88" y="-447.15" font-family="Times,serif" font-size="14.00">camera</text>
</g>
<!-- n32&#45;&gt;n9 -->
<g id="edge91" class="edge"><title>n32&#45;&gt;n9</title>
<path fill="none" stroke="black" d="M1345.35,-446.052C1410.64,-431.999 1528.08,-408.621 1629.88,-398.48 1791.58,-382.373 2201.75,-413.361 2360.88,-380.48 2367.96,-379.018 2375.23,-376.896 2382.3,-374.454"/>
<polygon fill="black" stroke="black" points="2383.62,-377.701 2391.79,-370.959 2381.2,-371.132 2383.62,-377.701"/>
<text text-anchor="middle" x="1698.38" y="-402.28" font-family="Times,serif" font-size="14.00"> static(calibration_target)</text>
</g>
<!-- n32&#45;&gt;n20 -->
<g id="edge7" class="edge"><title>n32&#45;&gt;n20</title>
<path fill="none" stroke="black" d="M1240.05,-451.191C1194.15,-444.949 1127.43,-433.32 1071.88,-413.48 1058.59,-408.732 1057.17,-403.249 1043.88,-398.48 1005.49,-384.7 987.905,-402.984 953.882,-380.48 926.944,-362.662 941.06,-336.266 912.882,-320.48 877.942,-300.906 580.486,-331.498 552.882,-302.48 541.296,-290.3 552.096,-277.374 567.743,-266.747"/>
<polygon fill="black" stroke="black" points="569.65,-269.683 576.275,-261.415 565.94,-263.747 569.65,-269.683"/>
<text text-anchor="middle" x="997.882" y="-346.78" font-family="Times,serif" font-size="14.00"> static(supports)</text>
</g>
<!-- n32&#45;&gt;n24 -->
<g id="edge17" class="edge"><title>n32&#45;&gt;n24</title>
<path fill="none" stroke="black" d="M1350.15,-452.052C1414.59,-446.079 1524.36,-436.543 1618.88,-431.48 1911.02,-415.832 1986.13,-445.918 2276.88,-413.48 2311.1,-409.663 2318.69,-402.529 2352.88,-398.48 2450.06,-386.972 2698.21,-405.237 2792.88,-380.48 2798.19,-379.093 2803.56,-377.163 2808.79,-374.95"/>
<polygon fill="black" stroke="black" points="2810.37,-378.078 2817.99,-370.717 2807.44,-371.719 2810.37,-378.078"/>
<text text-anchor="middle" x="2396.88" y="-402.28" font-family="Times,serif" font-size="14.00"> static(supports)</text>
</g>
<!-- n32&#45;&gt;n38 -->
<g id="edge64" class="edge"><title>n32&#45;&gt;n38</title>
<path fill="none" stroke="black" d="M1238.25,-457.804C1168.53,-456.649 1047.51,-449.012 950.882,-413.48 939.428,-409.268 939.257,-402.901 927.882,-398.48 852.922,-369.348 760.034,-358.271 701.098,-354.06"/>
<polygon fill="black" stroke="black" points="701.072,-350.551 690.86,-353.374 700.604,-357.535 701.072,-350.551"/>
<text text-anchor="middle" x="997.382" y="-402.28" font-family="Times,serif" font-size="14.00"> static(on_board)</text>
</g>
<!-- n33 -->
<g id="node33" class="node"><title>n33</title>
<ellipse fill="none" stroke="black" cx="5502.88" cy="-458.35" rx="67.7647" ry="26.7407"/>
<text text-anchor="middle" x="5502.88" y="-462.15" font-family="Times,serif" font-size="14.00">&lt;objective18&gt;</text>
<text text-anchor="middle" x="5502.88" y="-447.15" font-family="Times,serif" font-size="14.00">objective</text>
</g>
<!-- n33&#45;&gt;n5 -->
<g id="edge80" class="edge"><title>n33&#45;&gt;n5</title>
<path fill="none" stroke="black" d="M5570.96,-457.109C5783.84,-455.671 6426.6,-445.903 6490.88,-380.48 6552.57,-317.697 6563.32,-245.776 6501.88,-182.74 6473.03,-153.135 5195.63,-141.784 4871.86,-139.38"/>
<polygon fill="black" stroke="black" points="4871.68,-135.879 4861.65,-139.305 4871.63,-142.878 4871.68,-135.879"/>
<text text-anchor="middle" x="6596.88" y="-291.28" font-family="Times,serif" font-size="14.00"> static(visible_from)</text>
</g>
<!-- n33&#45;&gt;n7 -->
<g id="edge54" class="edge"><title>n33&#45;&gt;n7</title>
<path fill="none" stroke="black" d="M5570.62,-456.014C5756.4,-452.054 6271.33,-439.035 6438.88,-413.48 6546.52,-397.064 6675.88,-460.358 6675.88,-351.48 6675.88,-351.48 6675.88,-351.48 6675.88,-136.87 6675.88,-39.5314 5129.1,-31.5553 4770.5,-31.0141"/>
<polygon fill="black" stroke="black" points="4770.49,-27.5142 4760.49,-31.0005 4770.48,-34.5142 4770.49,-27.5142"/>
<text text-anchor="middle" x="6731.88" y="-238.91" font-family="Times,serif" font-size="14.00"> static(visible_from)</text>
</g>
<!-- n33&#45;&gt;n24 -->
<g id="edge92" class="edge"><title>n33&#45;&gt;n24</title>
<path fill="none" stroke="black" d="M5434.88,-457.048C5043.63,-455.198 3092.62,-444.443 2969.88,-413.48 2953.88,-409.443 2919.19,-391.1 2891.21,-375.404"/>
<polygon fill="black" stroke="black" points="2892.82,-372.294 2882.39,-370.423 2889.38,-378.389 2892.82,-372.294"/>
<text text-anchor="middle" x="3061.88" y="-402.28" font-family="Times,serif" font-size="14.00"> end(communicated_image_data)</text>
</g>
<!-- n33&#45;&gt;n28 -->
<g id="edge23" class="edge"><title>n33&#45;&gt;n28</title>
<path fill="none" stroke="black" d="M5434.9,-456.346C5221.41,-452.618 4574.14,-436.741 4499.88,-380.48 4464.8,-353.903 4501.14,-313.823 4465.88,-287.48 4417.1,-251.032 4014.17,-244.786 3845.59,-243.775"/>
<polygon fill="black" stroke="black" points="3845.58,-240.275 3835.56,-243.719 3845.54,-247.275 3845.58,-240.275"/>
<text text-anchor="middle" x="4555.88" y="-346.78" font-family="Times,serif" font-size="14.00"> static(visible_from)</text>
</g>
<!-- n34 -->
<g id="node34" class="node"><title>n34</title>
<ellipse fill="none" stroke="black" cx="4219.88" cy="-350.48" rx="67.7647" ry="26.7407"/>
<text text-anchor="middle" x="4219.88" y="-354.28" font-family="Times,serif" font-size="14.00">&lt;objective12&gt;</text>
<text text-anchor="middle" x="4219.88" y="-339.28" font-family="Times,serif" font-size="14.00">objective</text>
</g>
<!-- n34&#45;&gt;n28 -->
<g id="edge38" class="edge"><title>n34&#45;&gt;n28</title>
<path fill="none" stroke="black" d="M4221.11,-323.363C4220.22,-310.715 4216.78,-296.378 4206.88,-287.48 4180.62,-263.865 3962.59,-251.399 3845.53,-246.353"/>
<polygon fill="black" stroke="black" points="3845.36,-242.842 3835.22,-245.916 3845.06,-249.836 3845.36,-242.842"/>
<text text-anchor="middle" x="4272.88" y="-291.28" font-family="Times,serif" font-size="14.00"> static(visible_from)</text>
</g>
<!-- n35 -->
<g id="node35" class="node"><title>n35</title>
<ellipse fill="none" stroke="black" cx="1684.88" cy="-458.35" rx="56.6372" ry="26.7407"/>
<text text-anchor="middle" x="1684.88" y="-462.15" font-family="Times,serif" font-size="14.00">&lt;camera5&gt;</text>
<text text-anchor="middle" x="1684.88" y="-447.15" font-family="Times,serif" font-size="14.00">camera</text>
</g>
<!-- n35&#45;&gt;n20 -->
<g id="edge103" class="edge"><title>n35&#45;&gt;n20</title>
<path fill="none" stroke="black" d="M1629.12,-453.495C1525.17,-446.056 1305.59,-429.073 1230.88,-413.48 1209.83,-409.086 1205.78,-403.535 1184.88,-398.48 1135.88,-386.629 1113.72,-410.045 1072.88,-380.48 1048.57,-362.879 1067.21,-336.585 1041.88,-320.48 998.343,-292.797 613.651,-339.663 577.882,-302.48 569.694,-293.968 573.17,-283.363 580.59,-273.508"/>
<polygon fill="black" stroke="black" points="583.344,-275.674 587.238,-265.82 578.05,-271.095 583.344,-275.674"/>
<text text-anchor="middle" x="1116.88" y="-346.78" font-family="Times,serif" font-size="14.00"> static(supports)</text>
</g>
<!-- n35&#45;&gt;n24 -->
<g id="edge74" class="edge"><title>n35&#45;&gt;n24</title>
<path fill="none" stroke="black" d="M1741.44,-457.736C1913.14,-458.416 2426.41,-456.681 2586.88,-413.48 2600.89,-409.708 2601.97,-402.621 2615.88,-398.48 2691.67,-375.919 2717.02,-402.787 2792.88,-380.48 2798.08,-378.953 2803.36,-376.956 2808.51,-374.723"/>
<polygon fill="black" stroke="black" points="2809.99,-377.892 2817.58,-370.501 2807.04,-371.546 2809.99,-377.892"/>
<text text-anchor="middle" x="2659.88" y="-402.28" font-family="Times,serif" font-size="14.00"> static(supports)</text>
</g>
<!-- n35&#45;&gt;n26 -->
<g id="edge96" class="edge"><title>n35&#45;&gt;n26</title>
<path fill="none" stroke="black" d="M1680.17,-431.441C1677.9,-421.026 1674.81,-409.013 1670.88,-398.48 1654.08,-353.404 1638.4,-347.283 1620.88,-302.48 1618.01,-295.142 1615.46,-287.096 1613.28,-279.375"/>
<polygon fill="black" stroke="black" points="1616.6,-278.254 1610.64,-269.498 1609.84,-280.063 1616.6,-278.254"/>
<text text-anchor="middle" x="1707.88" y="-346.78" font-family="Times,serif" font-size="14.00"> static(supports)</text>
</g>
<!-- n36 -->
<g id="node36" class="node"><title>n36</title>
<ellipse fill="none" stroke="black" cx="2720.88" cy="-350.48" rx="62.8651" ry="26.7407"/>
<text text-anchor="middle" x="2720.88" y="-354.28" font-family="Times,serif" font-size="14.00">&lt;objective8&gt;</text>
<text text-anchor="middle" x="2720.88" y="-339.28" font-family="Times,serif" font-size="14.00">objective</text>
</g>
<!-- n35&#45;&gt;n36 -->
<g id="edge58" class="edge"><title>n35&#45;&gt;n36</title>
<path fill="none" stroke="black" d="M1737.95,-448.849C1822.67,-435.646 1993.82,-410.486 2139.88,-398.48 2252.68,-389.209 2538.17,-403.977 2648.88,-380.48 2655.95,-378.98 2663.22,-376.836 2670.29,-374.383"/>
<polygon fill="black" stroke="black" points="2671.61,-377.628 2679.77,-370.879 2669.18,-371.062 2671.61,-377.628"/>
<text text-anchor="middle" x="2208.38" y="-402.28" font-family="Times,serif" font-size="14.00"> static(calibration_target)</text>
</g>
<!-- n35&#45;&gt;n38 -->
<g id="edge8" class="edge"><title>n35&#45;&gt;n38</title>
<path fill="none" stroke="black" d="M1629.29,-452.693C1564.76,-447.338 1455.15,-438.397 1360.88,-431.48 1241.38,-422.712 1209.37,-437.013 1091.88,-413.48 1071.62,-409.422 1068.04,-403.03 1047.88,-398.48 1014.72,-390.994 803.272,-368.277 699.783,-357.404"/>
<polygon fill="black" stroke="black" points="700.125,-353.92 689.814,-356.358 699.394,-360.882 700.125,-353.92"/>
<text text-anchor="middle" x="1138.38" y="-402.28" font-family="Times,serif" font-size="14.00"> static(on_board)</text>
</g>
<!-- n36&#45;&gt;n28 -->
<g id="edge78" class="edge"><title>n36&#45;&gt;n28</title>
<path fill="none" stroke="black" d="M2762.42,-330.143C2772.22,-326.318 2782.76,-322.778 2792.88,-320.48 2915.35,-292.666 2951.4,-325.374 3074.88,-302.48 3096.86,-298.406 3100.91,-291.596 3122.88,-287.48 3328.62,-248.939 3576.65,-243.21 3697.88,-242.983"/>
<polygon fill="black" stroke="black" points="3698.16,-246.483 3708.15,-242.977 3698.15,-239.483 3698.16,-246.483"/>
<text text-anchor="middle" x="3178.88" y="-291.28" font-family="Times,serif" font-size="14.00"> static(visible_from)</text>
</g>
<!-- n37 -->
<g id="node37" class="node"><title>n37</title>
<ellipse fill="none" stroke="black" cx="5480.88" cy="-350.48" rx="67.7647" ry="26.7407"/>
<text text-anchor="middle" x="5480.88" y="-354.28" font-family="Times,serif" font-size="14.00">&lt;objective15&gt;</text>
<text text-anchor="middle" x="5480.88" y="-339.28" font-family="Times,serif" font-size="14.00">objective</text>
</g>
<!-- n37&#45;&gt;n5 -->
<g id="edge70" class="edge"><title>n37&#45;&gt;n5</title>
<path fill="none" stroke="black" d="M5534.12,-333.759C5548.92,-326.668 5563.28,-316.604 5571.88,-302.48 5575.35,-296.786 5574.59,-293.57 5571.88,-287.48 5567.02,-276.556 5559.71,-278.517 5551.88,-269.48 5533.05,-247.756 5540.08,-231.265 5515.88,-215.74 5410.64,-148.21 5033.4,-139.248 4872,-138.582"/>
<polygon fill="black" stroke="black" points="4871.7,-135.081 4861.68,-138.55 4871.67,-142.081 4871.7,-135.081"/>
<text text-anchor="middle" x="5607.88" y="-238.91" font-family="Times,serif" font-size="14.00"> static(visible_from)</text>
</g>
<!-- n37&#45;&gt;n28 -->
<g id="edge47" class="edge"><title>n37&#45;&gt;n28</title>
<path fill="none" stroke="black" d="M5433.38,-331.243C5422.76,-327.452 5411.5,-323.65 5400.88,-320.48 5367.62,-310.549 5358.36,-311.663 5324.88,-302.48 5303.33,-296.568 5298.93,-291.174 5276.88,-287.48 5241.23,-281.507 4143.04,-253.09 3845.57,-245.485"/>
<polygon fill="black" stroke="black" points="3845.42,-241.98 3835.33,-245.224 3845.24,-248.978 3845.42,-241.98"/>
<text text-anchor="middle" x="5380.88" y="-291.28" font-family="Times,serif" font-size="14.00"> static(visible_from)</text>
</g>
<!-- n38&#45;&gt;n7 -->
<g id="edge36" class="edge"><title>n38&#45;&gt;n7</title>
<path fill="none" stroke="black" d="M610.12,-330.758C603.495,-327.199 596.523,-323.611 589.882,-320.48 570.399,-311.294 556.959,-320.317 544.882,-302.48 532.147,-283.67 500.667,-273.115 551.882,-215.74 700.183,-49.6044 820.802,-137.788 1041.88,-111 1409.05,-66.5111 4137.64,-36.7157 4623.11,-31.7387"/>
<polygon fill="black" stroke="black" points="4623.19,-35.2381 4633.15,-31.636 4623.12,-28.2385 4623.19,-35.2381"/>
<text text-anchor="middle" x="603.382" y="-186.54" font-family="Times,serif" font-size="14.00"> init(at)</text>
</g>
<!-- n38&#45;&gt;n38 -->
<g id="edge6" class="edge"><title>n38&#45;&gt;n38</title>
<path fill="none" stroke="black" d="M687.667,-360.53C699.763,-360 708.966,-356.65 708.966,-350.48 708.966,-346.238 704.616,-343.329 697.967,-341.753"/>
<polygon fill="black" stroke="black" points="698.032,-338.233 687.667,-340.43 697.14,-345.176 698.032,-338.233"/>
<text text-anchor="middle" x="806.466" y="-369.28" font-family="Times,serif" font-size="14.00"> static(equipped_for_rock_analysis)</text>
<text text-anchor="middle" x="806.466" y="-354.28" font-family="Times,serif" font-size="14.00">static(equipped_for_imaging)</text>
<text text-anchor="middle" x="806.466" y="-339.28" font-family="Times,serif" font-size="14.00">init(available)</text>
<text text-anchor="middle" x="806.466" y="-324.28" font-family="Times,serif" font-size="14.00">static(equipped_for_soil_analysis)</text>
</g>
<!-- n39 -->
<g id="node39" class="node"><title>n39</title>
<ellipse fill="none" stroke="black" cx="2129.88" cy="-350.48" rx="67.7647" ry="26.7407"/>
<text text-anchor="middle" x="2129.88" y="-354.28" font-family="Times,serif" font-size="14.00">&lt;objective28&gt;</text>
<text text-anchor="middle" x="2129.88" y="-339.28" font-family="Times,serif" font-size="14.00">objective</text>
</g>
<!-- n39&#45;&gt;n5 -->
<g id="edge93" class="edge"><title>n39&#45;&gt;n5</title>
<path fill="none" stroke="black" d="M2174.82,-330.075C2185.18,-326.302 2196.28,-322.803 2206.88,-320.48 2317,-296.363 2351.59,-333.787 2459.88,-302.48 2473.44,-298.559 2475.27,-293.828 2487.88,-287.48 2554.61,-253.889 2567.33,-233.521 2639.88,-215.74 2832.49,-168.539 4225.77,-173.457 4423.88,-164.74 4528.83,-160.122 4650.12,-151.043 4725.42,-144.964"/>
<polygon fill="black" stroke="black" points="4726.05,-148.425 4735.73,-144.127 4725.48,-141.448 4726.05,-148.425"/>
<text text-anchor="middle" x="2695.88" y="-238.91" font-family="Times,serif" font-size="14.00"> static(visible_from)</text>
</g>
<!-- n39&#45;&gt;n28 -->
<g id="edge101" class="edge"><title>n39&#45;&gt;n28</title>
<path fill="none" stroke="black" d="M2174.4,-330.174C2184.88,-326.347 2196.13,-322.799 2206.88,-320.48 2327.91,-294.376 2362.27,-319.679 2484.88,-302.48 2515.96,-298.121 2522.73,-291.245 2553.88,-287.48 2704.18,-269.321 3083.6,-275.123 3234.88,-269.48 3400.97,-263.285 3595.83,-253.192 3699.07,-247.62"/>
<polygon fill="black" stroke="black" points="3699.27,-251.114 3709.07,-247.079 3698.9,-244.125 3699.27,-251.114"/>
<text text-anchor="middle" x="2609.88" y="-291.28" font-family="Times,serif" font-size="14.00"> static(visible_from)</text>
</g>
<!-- n40 -->
<g id="node40" class="node"><title>n40</title>
<ellipse fill="none" stroke="black" cx="5891.88" cy="-350.48" rx="67.7647" ry="26.7407"/>
<text text-anchor="middle" x="5891.88" y="-354.28" font-family="Times,serif" font-size="14.00">&lt;objective25&gt;</text>
<text text-anchor="middle" x="5891.88" y="-339.28" font-family="Times,serif" font-size="14.00">objective</text>
</g>
<!-- n40&#45;&gt;n5 -->
<g id="edge10" class="edge"><title>n40&#45;&gt;n5</title>
<path fill="none" stroke="black" d="M5927.73,-327.355C5942.47,-315.511 5953.82,-300.683 5942.88,-287.48 5915.47,-254.386 5886.33,-288.674 5847.88,-269.48 5816.15,-253.638 5820.62,-231.585 5788.88,-215.74 5718.46,-180.577 5693.02,-192.205 5614.88,-182.74 5342.05,-149.693 5014.94,-141.54 4871.45,-139.529"/>
<polygon fill="black" stroke="black" points="4871.48,-136.029 4861.43,-139.394 4871.39,-143.028 4871.48,-136.029"/>
<text text-anchor="middle" x="5903.88" y="-238.91" font-family="Times,serif" font-size="14.00"> static(visible_from)</text>
</g>
<!-- n40&#45;&gt;n7 -->
<g id="edge39" class="edge"><title>n40&#45;&gt;n7</title>
<path fill="none" stroke="black" d="M5937.82,-330.515C5947.93,-326.81 5958.67,-323.228 5968.88,-320.48 6002.06,-311.55 6251.68,-295.703 6273.88,-269.48 6289.32,-251.252 6284.45,-237.162 6273.88,-215.74 6271.22,-210.339 6236.46,-185.005 6230.88,-182.74 5977.13,-79.7286 5891.33,-138.782 5618.88,-111 5303.06,-78.7949 4925.51,-48.6466 4769.66,-36.5647"/>
<polygon fill="black" stroke="black" points="4769.51,-33.0429 4759.27,-35.7607 4768.97,-40.022 4769.51,-33.0429"/>
<text text-anchor="middle" x="6308.88" y="-186.54" font-family="Times,serif" font-size="14.00"> static(visible_from)</text>
</g>
<!-- n40&#45;&gt;n28 -->
<g id="edge27" class="edge"><title>n40&#45;&gt;n28</title>
<path fill="none" stroke="black" d="M5834.89,-335.79C5761.8,-318.334 5641.93,-290.084 5620.88,-287.48 5434.48,-264.417 4963.65,-273.899 4775.88,-269.48 4427.57,-261.283 4011.33,-250.121 3845.4,-245.617"/>
<polygon fill="black" stroke="black" points="3845.4,-242.116 3835.31,-245.343 3845.21,-249.113 3845.4,-242.116"/>
<text text-anchor="middle" x="5742.88" y="-291.28" font-family="Times,serif" font-size="14.00"> static(visible_from)</text>
</g>
<!-- n41 -->
<g id="node41" class="node"><title>n41</title>
<ellipse fill="none" stroke="black" cx="6045.88" cy="-350.48" rx="67.7647" ry="26.7407"/>
<text text-anchor="middle" x="6045.88" y="-354.28" font-family="Times,serif" font-size="14.00">&lt;objective26&gt;</text>
<text text-anchor="middle" x="6045.88" y="-339.28" font-family="Times,serif" font-size="14.00">objective</text>
</g>
<!-- n41&#45;&gt;n5 -->
<g id="edge67" class="edge"><title>n41&#45;&gt;n5</title>
<path fill="none" stroke="black" d="M6016.73,-325.979C6009.26,-318.978 6001.71,-310.908 5995.88,-302.48 5972.15,-268.146 5993.1,-241.014 5959.88,-215.74 5873.48,-150.003 5114.06,-140.462 4871.81,-139.094"/>
<polygon fill="black" stroke="black" points="4871.71,-135.594 4861.69,-139.04 4871.67,-142.594 4871.71,-135.594"/>
<text text-anchor="middle" x="6039.88" y="-238.91" font-family="Times,serif" font-size="14.00"> static(visible_from)</text>
</g>
<!-- n41&#45;&gt;n7 -->
<g id="edge66" class="edge"><title>n41&#45;&gt;n7</title>
<path fill="none" stroke="black" d="M6109.39,-340.821C6223.78,-322.721 6445.56,-274.73 6366.88,-182.74 6261.76,-59.825 5080.72,-35.9646 4770.92,-31.8083"/>
<polygon fill="black" stroke="black" points="4770.75,-28.3058 4760.71,-31.6741 4770.66,-35.3052 4770.75,-28.3058"/>
<text text-anchor="middle" x="6431.88" y="-186.54" font-family="Times,serif" font-size="14.00"> static(visible_from)</text>
</g>
<!-- n41&#45;&gt;n28 -->
<g id="edge33" class="edge"><title>n41&#45;&gt;n28</title>
<path fill="none" stroke="black" d="M5999.96,-330.455C5989.84,-326.754 5979.1,-323.188 5968.88,-320.48 5919.72,-307.452 5905.55,-313.424 5855.88,-302.48 5831.97,-297.212 5827.1,-291.058 5802.88,-287.48 5689.98,-270.801 4889.98,-271.95 4775.88,-269.48 4427.56,-261.94 4011.32,-250.41 3845.4,-245.712"/>
<polygon fill="black" stroke="black" points="3845.4,-242.211 3835.31,-245.426 3845.21,-249.208 3845.4,-242.211"/>
<text text-anchor="middle" x="5911.88" y="-291.28" font-family="Times,serif" font-size="14.00"> static(visible_from)</text>
</g>
<!-- n42 -->
<g id="node42" class="node"><title>n42</title>
<ellipse fill="none" stroke="black" cx="6413.88" cy="-350.48" rx="67.7647" ry="26.7407"/>
<text text-anchor="middle" x="6413.88" y="-354.28" font-family="Times,serif" font-size="14.00">&lt;objective22&gt;</text>
<text text-anchor="middle" x="6413.88" y="-339.28" font-family="Times,serif" font-size="14.00">objective</text>
</g>
<!-- n42&#45;&gt;n5 -->
<g id="edge90" class="edge"><title>n42&#45;&gt;n5</title>
<path fill="none" stroke="black" d="M6373.91,-328.634C6315.37,-298.992 6202.13,-245.02 6099.88,-215.74 5866.64,-148.947 5111.54,-140.113 4871.71,-139.008"/>
<polygon fill="black" stroke="black" points="4871.71,-135.508 4861.7,-138.965 4871.68,-142.508 4871.71,-135.508"/>
<text text-anchor="middle" x="6301.88" y="-238.91" font-family="Times,serif" font-size="14.00"> static(visible_from)</text>
</g>
<!-- n42&#45;&gt;n7 -->
<g id="edge31" class="edge"><title>n42&#45;&gt;n7</title>
<path fill="none" stroke="black" d="M6440.38,-325.462C6474.61,-291.495 6525.98,-228.472 6491.88,-182.74 6425.08,-93.1502 6360.43,-133.102 6250.88,-111 5962.31,-52.7784 5038.74,-35.7068 4770.55,-31.9181"/>
<polygon fill="black" stroke="black" points="4770.58,-28.4183 4760.53,-31.7785 4770.48,-35.4176 4770.58,-28.4183"/>
<text text-anchor="middle" x="6554.88" y="-186.54" font-family="Times,serif" font-size="14.00"> static(visible_from)</text>
</g>
<!-- n42&#45;&gt;n28 -->
<g id="edge56" class="edge"><title>n42&#45;&gt;n28</title>
<path fill="none" stroke="black" d="M6353.01,-338.496C6268.02,-323.72 6108.82,-298.074 5971.88,-287.48 5706.87,-266.979 5041.63,-274.904 4775.88,-269.48 4427.55,-262.371 4011.32,-250.599 3845.4,-245.774"/>
<polygon fill="black" stroke="black" points="3845.41,-242.273 3835.31,-245.48 3845.2,-249.27 3845.41,-242.273"/>
<text text-anchor="middle" x="6162.88" y="-291.28" font-family="Times,serif" font-size="14.00"> static(visible_from)</text>
</g>
<!-- n43 -->
<g id="node43" class="node"><title>n43</title>
<ellipse fill="none" stroke="black" cx="4373.88" cy="-350.48" rx="67.7647" ry="26.7407"/>
<text text-anchor="middle" x="4373.88" y="-354.28" font-family="Times,serif" font-size="14.00">&lt;objective23&gt;</text>
<text text-anchor="middle" x="4373.88" y="-339.28" font-family="Times,serif" font-size="14.00">objective</text>
</g>
<!-- n43&#45;&gt;n28 -->
<g id="edge21" class="edge"><title>n43&#45;&gt;n28</title>
<path fill="none" stroke="black" d="M4363.58,-323.822C4356.88,-310.64 4346.78,-295.667 4332.88,-287.48 4291.9,-263.341 3988.6,-250.54 3845.82,-245.797"/>
<polygon fill="black" stroke="black" points="3845.51,-242.285 3835.4,-245.456 3845.28,-249.281 3845.51,-242.285"/>
<text text-anchor="middle" x="4405.88" y="-291.28" font-family="Times,serif" font-size="14.00"> static(visible_from)</text>
</g>
<!-- n44 -->
<g id="node44" class="node"><title>n44</title>
<ellipse fill="none" stroke="black" cx="1391.88" cy="-350.48" rx="67.7647" ry="26.7407"/>
<text text-anchor="middle" x="1391.88" y="-354.28" font-family="Times,serif" font-size="14.00">&lt;objective24&gt;</text>
<text text-anchor="middle" x="1391.88" y="-339.28" font-family="Times,serif" font-size="14.00">objective</text>
</g>
<!-- n44&#45;&gt;n5 -->
<g id="edge43" class="edge"><title>n44&#45;&gt;n5</title>
<path fill="none" stroke="black" d="M1344.93,-330.873C1335.07,-327.227 1324.69,-323.578 1314.88,-320.48 1284.25,-310.805 1264.57,-327.866 1244.88,-302.48 1240.8,-297.212 1241.13,-292.991 1244.88,-287.48 1293.81,-215.606 1341.7,-233.167 1426.88,-215.74 1682.36,-163.473 2339.16,-187.694 2599.88,-182.74 3410.44,-167.34 3613.81,-196.726 4423.88,-164.74 4529.01,-160.589 4650.49,-151.366 4725.76,-145.131"/>
<polygon fill="black" stroke="black" points="4726.39,-148.59 4736.07,-144.272 4725.81,-141.614 4726.39,-148.59"/>
<text text-anchor="middle" x="1482.88" y="-238.91" font-family="Times,serif" font-size="14.00"> static(visible_from)</text>
</g>
<!-- n44&#45;&gt;n20 -->
<g id="edge65" class="edge"><title>n44&#45;&gt;n20</title>
<path fill="none" stroke="black" d="M1347.37,-330.137C1336.89,-326.311 1325.64,-322.774 1314.88,-320.48 1184.25,-292.628 1141.72,-344.36 1014.88,-302.48 1003.29,-298.654 1003.44,-291.393 991.882,-287.48 890.563,-253.185 857.936,-283.426 751.882,-269.48 726.054,-266.084 697.729,-260.971 673.571,-256.185"/>
<polygon fill="black" stroke="black" points="673.985,-252.698 663.492,-254.16 672.606,-259.561 673.985,-252.698"/>
<text text-anchor="middle" x="1106.88" y="-291.28" font-family="Times,serif" font-size="14.00"> end(communicated_image_data)</text>
</g>
<!-- n44&#45;&gt;n26 -->
<g id="edge83" class="edge"><title>n44&#45;&gt;n26</title>
<path fill="none" stroke="black" d="M1379.27,-323.826C1375.22,-311.603 1373.64,-297.501 1381.88,-287.48 1401.45,-263.691 1480.09,-252.601 1538.48,-247.569"/>
<polygon fill="black" stroke="black" points="1539.07,-251.032 1548.76,-246.727 1538.5,-244.055 1539.07,-251.032"/>
<text text-anchor="middle" x="1473.88" y="-291.28" font-family="Times,serif" font-size="14.00"> end(communicated_image_data)</text>
</g>
<!-- n44&#45;&gt;n28 -->
<g id="edge45" class="edge"><title>n44&#45;&gt;n28</title>
<path fill="none" stroke="black" d="M1441.02,-331.647C1455.02,-327.258 1470.4,-323.077 1484.88,-320.48 1634.7,-293.615 1677.88,-333.566 1826.88,-302.48 1845.47,-298.603 1848.22,-290.991 1866.88,-287.48 2016.27,-259.374 3082.94,-274.138 3234.88,-269.48 3401.01,-264.387 3595.85,-253.862 3699.08,-247.927"/>
<polygon fill="black" stroke="black" points="3699.3,-251.42 3709.08,-247.349 3698.89,-244.431 3699.3,-251.42"/>
<text text-anchor="middle" x="1922.88" y="-291.28" font-family="Times,serif" font-size="14.00"> static(visible_from)</text>
</g>
<!-- n45 -->
<g id="node45" class="node"><title>n45</title>
<ellipse fill="none" stroke="black" cx="2283.88" cy="-350.48" rx="67.7647" ry="26.7407"/>
<text text-anchor="middle" x="2283.88" y="-354.28" font-family="Times,serif" font-size="14.00">&lt;objective13&gt;</text>
<text text-anchor="middle" x="2283.88" y="-339.28" font-family="Times,serif" font-size="14.00">objective</text>
</g>
<!-- n45&#45;&gt;n5 -->
<g id="edge34" class="edge"><title>n45&#45;&gt;n5</title>
<path fill="none" stroke="black" d="M2328.4,-330.163C2338.88,-326.337 2350.13,-322.792 2360.88,-320.48 2484.53,-293.899 2523.25,-337.135 2644.88,-302.48 2658.46,-298.612 2659.33,-291.45 2672.88,-287.48 3047.21,-177.784 4034.55,-188.726 4423.88,-164.74 4528.58,-158.29 4649.69,-149.707 4725.04,-144.234"/>
<polygon fill="black" stroke="black" points="4725.65,-147.7 4735.37,-143.483 4725.14,-140.718 4725.65,-147.7"/>
<text text-anchor="middle" x="3219.88" y="-238.91" font-family="Times,serif" font-size="14.00"> static(visible_from)</text>
</g>
<!-- n45&#45;&gt;n28 -->
<g id="edge32" class="edge"><title>n45&#45;&gt;n28</title>
<path fill="none" stroke="black" d="M2328.39,-330.123C2338.87,-326.298 2350.12,-322.764 2360.88,-320.48 2428.17,-306.196 2605.59,-326.919 2669.88,-302.48 2679.94,-298.658 2678.78,-291.176 2688.88,-287.48 2745.89,-266.631 3174.23,-271.941 3234.88,-269.48 3400.95,-262.743 3595.81,-252.861 3699.06,-247.47"/>
<polygon fill="black" stroke="black" points="3699.26,-250.964 3709.06,-246.946 3698.9,-243.973 3699.26,-250.964"/>
<text text-anchor="middle" x="2744.88" y="-291.28" font-family="Times,serif" font-size="14.00"> static(visible_from)</text>
</g>
</g>
</svg>
