<?xml version="1.0" encoding="UTF-8" standalone="no"?>
<!DOCTYPE svg PUBLIC "-//W3C//DTD SVG 1.1//EN"
 "http://www.w3.org/Graphics/SVG/1.1/DTD/svg11.dtd">
<!-- Generated by graphviz version 2.38.0 (20140413.2041)
 -->
<!-- Title: Struc Pages: 1 -->
<svg width="7422pt" height="532pt"
 viewBox="0.00 0.00 7421.88 531.96" xmlns="http://www.w3.org/2000/svg" xmlns:xlink="http://www.w3.org/1999/xlink">
<g id="graph0" class="graph" transform="scale(1 1) rotate(0) translate(4 527.96)">
<title>Struc</title>
<polygon fill="white" stroke="none" points="-4,4 -4,-527.96 7417.88,-527.96 7417.88,4 -4,4"/>
<!-- n1 -->
<g id="node1" class="node"><title>n1</title>
<ellipse fill="none" stroke="black" cx="5604.88" cy="-497.09" rx="56.6372" ry="26.7407"/>
<text text-anchor="middle" x="5604.88" y="-500.89" font-family="Times,serif" font-size="14.00">&lt;camera1&gt;</text>
<text text-anchor="middle" x="5604.88" y="-485.89" font-family="Times,serif" font-size="14.00">camera</text>
</g>
<!-- n23 -->
<g id="node23" class="node"><title>n23</title>
<ellipse fill="none" stroke="black" cx="3056.88" cy="-392.35" rx="62.8651" ry="26.7407"/>
<text text-anchor="middle" x="3056.88" y="-396.15" font-family="Times,serif" font-size="14.00">&lt;objective4&gt;</text>
<text text-anchor="middle" x="3056.88" y="-381.15" font-family="Times,serif" font-size="14.00">objective</text>
</g>
<!-- n1&#45;&gt;n23 -->
<g id="edge27" class="edge"><title>n1&#45;&gt;n23</title>
<path fill="none" stroke="black" d="M5555.1,-484.301C5530.76,-479.039 5500.94,-473.334 5473.88,-470.22 5046.67,-421.071 4936.79,-447.391 4506.88,-437.22 4355.36,-433.635 3292.69,-442.275 3142.88,-419.22 3133.39,-417.759 3123.49,-415.504 3113.92,-412.92"/>
<polygon fill="black" stroke="black" points="3114.68,-409.497 3104.1,-410.129 3112.76,-416.23 3114.68,-409.497"/>
<text text-anchor="middle" x="5359.38" y="-441.02" font-family="Times,serif" font-size="14.00"> static(calibration_target)</text>
</g>
<!-- n24 -->
<g id="node24" class="node"><title>n24</title>
<ellipse fill="none" stroke="black" cx="6941.88" cy="-284.48" rx="48.1667" ry="26.7407"/>
<text text-anchor="middle" x="6941.88" y="-288.28" font-family="Times,serif" font-size="14.00">&lt;colour&gt;</text>
<text text-anchor="middle" x="6941.88" y="-273.28" font-family="Times,serif" font-size="14.00">mode</text>
</g>
<!-- n1&#45;&gt;n24 -->
<g id="edge29" class="edge"><title>n1&#45;&gt;n24</title>
<path fill="none" stroke="black" d="M5661.46,-495.296C5893.5,-491.895 6773.08,-477.57 7049.88,-452.22 7146.15,-443.404 7181.91,-468.835 7264.88,-419.22 7303.86,-395.914 7348.94,-366.519 7318.88,-332.48 7298.12,-308.969 7100.07,-294.448 6999.66,-288.538"/>
<polygon fill="black" stroke="black" points="6999.85,-285.044 6989.67,-287.96 6999.45,-292.032 6999.85,-285.044"/>
<text text-anchor="middle" x="7369.88" y="-388.65" font-family="Times,serif" font-size="14.00"> static(supports)</text>
</g>
<!-- n26 -->
<g id="node26" class="node"><title>n26</title>
<ellipse fill="none" stroke="black" cx="4166.88" cy="-284.48" rx="56.6372" ry="26.7407"/>
<text text-anchor="middle" x="4166.88" y="-288.28" font-family="Times,serif" font-size="14.00">&lt;high_res&gt;</text>
<text text-anchor="middle" x="4166.88" y="-273.28" font-family="Times,serif" font-size="14.00">mode</text>
</g>
<!-- n1&#45;&gt;n26 -->
<g id="edge100" class="edge"><title>n1&#45;&gt;n26</title>
<path fill="none" stroke="black" d="M5564.22,-478.305C5529.74,-464.192 5478.58,-445.508 5431.88,-437.22 5389.53,-429.705 4694.87,-441.165 4657.88,-419.22 4634.17,-405.152 4650.34,-379.969 4626.88,-365.48 4569.12,-329.803 4387.22,-365.942 4321.88,-347.48 4308.3,-343.641 4306.75,-338.277 4293.88,-332.48 4270.72,-322.048 4244.48,-312.049 4221.89,-303.975"/>
<polygon fill="black" stroke="black" points="4223.05,-300.672 4212.45,-300.638 4220.71,-307.272 4223.05,-300.672"/>
<text text-anchor="middle" x="4701.88" y="-388.65" font-family="Times,serif" font-size="14.00"> static(supports)</text>
</g>
<!-- n38 -->
<g id="node38" class="node"><title>n38</title>
<ellipse fill="none" stroke="black" cx="5507.88" cy="-284.48" rx="48.1667" ry="26.7407"/>
<text text-anchor="middle" x="5507.88" y="-288.28" font-family="Times,serif" font-size="14.00">&lt;rover0&gt;</text>
<text text-anchor="middle" x="5507.88" y="-273.28" font-family="Times,serif" font-size="14.00">rover</text>
</g>
<!-- n1&#45;&gt;n38 -->
<g id="edge56" class="edge"><title>n1&#45;&gt;n38</title>
<path fill="none" stroke="black" d="M5608.91,-470.229C5611.88,-441.016 5611.72,-393.858 5585.88,-365.48 5569.7,-347.708 5552.48,-363.859 5534.88,-347.48 5527.15,-340.28 5521.52,-330.48 5517.46,-320.797"/>
<polygon fill="black" stroke="black" points="5520.68,-319.409 5513.92,-311.255 5514.12,-321.848 5520.68,-319.409"/>
<text text-anchor="middle" x="5654.38" y="-388.65" font-family="Times,serif" font-size="14.00"> static(on_board)</text>
</g>
<!-- n2 -->
<g id="node2" class="node"><title>n2</title>
<ellipse fill="none" stroke="black" cx="4761.88" cy="-497.09" rx="56.6372" ry="26.7407"/>
<text text-anchor="middle" x="4761.88" y="-500.89" font-family="Times,serif" font-size="14.00">&lt;camera4&gt;</text>
<text text-anchor="middle" x="4761.88" y="-485.89" font-family="Times,serif" font-size="14.00">camera</text>
</g>
<!-- n20 -->
<g id="node20" class="node"><title>n20</title>
<ellipse fill="none" stroke="black" cx="5306.88" cy="-284.48" rx="53.9813" ry="26.7407"/>
<text text-anchor="middle" x="5306.88" y="-288.28" font-family="Times,serif" font-size="14.00">&lt;low_res&gt;</text>
<text text-anchor="middle" x="5306.88" y="-273.28" font-family="Times,serif" font-size="14.00">mode</text>
</g>
<!-- n2&#45;&gt;n20 -->
<g id="edge93" class="edge"><title>n2&#45;&gt;n20</title>
<path fill="none" stroke="black" d="M4797.77,-476.101C4860.77,-441.156 4986.73,-372.029 5008.88,-365.48 5095.74,-339.803 5126.29,-377.116 5211.88,-347.48 5223.9,-343.317 5247.99,-327.565 5268.9,-312.981"/>
<polygon fill="black" stroke="black" points="5271.16,-315.671 5277.32,-307.053 5267.13,-309.947 5271.16,-315.671"/>
<text text-anchor="middle" x="5052.88" y="-388.65" font-family="Times,serif" font-size="14.00"> static(supports)</text>
</g>
<!-- n2&#45;&gt;n23 -->
<g id="edge51" class="edge"><title>n2&#45;&gt;n23</title>
<path fill="none" stroke="black" d="M4707.23,-489.843C4579.68,-475.305 4269.53,-440.209 4221.88,-437.22 3982.54,-422.21 3379.84,-456.11 3142.88,-419.22 3133.51,-417.761 3123.73,-415.533 3114.27,-412.985"/>
<polygon fill="black" stroke="black" points="3115.13,-409.592 3104.56,-410.232 3113.22,-416.326 3115.13,-409.592"/>
<text text-anchor="middle" x="4434.38" y="-441.02" font-family="Times,serif" font-size="14.00"> static(calibration_target)</text>
</g>
<!-- n2&#45;&gt;n26 -->
<g id="edge16" class="edge"><title>n2&#45;&gt;n26</title>
<path fill="none" stroke="black" d="M4709.64,-486.308C4662.04,-475.573 4591.36,-454.924 4538.88,-419.22 4512.89,-401.536 4520.81,-379.921 4492.88,-365.48 4415.18,-325.301 4380.66,-372.637 4296.88,-347.48 4283.36,-343.42 4281.52,-338.77 4268.88,-332.48 4252.1,-324.129 4233.54,-315.422 4216.9,-307.804"/>
<polygon fill="black" stroke="black" points="4217.91,-304.416 4207.36,-303.456 4215.01,-310.786 4217.91,-304.416"/>
<text text-anchor="middle" x="4582.88" y="-388.65" font-family="Times,serif" font-size="14.00"> static(supports)</text>
</g>
<!-- n2&#45;&gt;n38 -->
<g id="edge104" class="edge"><title>n2&#45;&gt;n38</title>
<path fill="none" stroke="black" d="M4818.29,-495.053C4945.71,-491.689 5251.04,-477.59 5332.88,-419.22 5354.64,-403.7 5343.35,-386.48 5359.88,-365.48 5373.93,-347.642 5379.58,-344.439 5398.88,-332.48 5417.39,-321.013 5439.19,-311.006 5458.4,-303.207"/>
<polygon fill="black" stroke="black" points="5459.89,-306.384 5467.9,-299.447 5457.31,-299.876 5459.89,-306.384"/>
<text text-anchor="middle" x="5406.38" y="-388.65" font-family="Times,serif" font-size="14.00"> static(on_board)</text>
</g>
<!-- n3 -->
<g id="node3" class="node"><title>n3</title>
<ellipse fill="none" stroke="black" cx="1309.88" cy="-392.35" rx="62.8651" ry="26.7407"/>
<text text-anchor="middle" x="1309.88" y="-396.15" font-family="Times,serif" font-size="14.00">&lt;objective9&gt;</text>
<text text-anchor="middle" x="1309.88" y="-381.15" font-family="Times,serif" font-size="14.00">objective</text>
</g>
<!-- n5 -->
<g id="node5" class="node"><title>n5</title>
<ellipse fill="none" stroke="black" cx="1605.88" cy="-284.48" rx="63.7795" ry="26.7407"/>
<text text-anchor="middle" x="1605.88" y="-288.28" font-family="Times,serif" font-size="14.00">&lt;waypoint1&gt;</text>
<text text-anchor="middle" x="1605.88" y="-273.28" font-family="Times,serif" font-size="14.00">waypoint</text>
</g>
<!-- n3&#45;&gt;n5 -->
<g id="edge12" class="edge"><title>n3&#45;&gt;n5</title>
<path fill="none" stroke="black" d="M1315.35,-365.553C1319.16,-353.743 1325.5,-340.601 1335.88,-332.48 1365.89,-309.015 1463.99,-296.516 1533.26,-290.446"/>
<polygon fill="black" stroke="black" points="1533.6,-293.93 1543.26,-289.596 1533,-286.955 1533.6,-293.93"/>
<text text-anchor="middle" x="1391.88" y="-336.28" font-family="Times,serif" font-size="14.00"> static(visible_from)</text>
</g>
<!-- n3&#45;&gt;n24 -->
<g id="edge97" class="edge"><title>n3&#45;&gt;n24</title>
<path fill="none" stroke="black" d="M1353.79,-372.926C1362.92,-369.85 1372.6,-367.127 1381.88,-365.48 1462.21,-351.233 4241.89,-374.473 4318.88,-347.48 4329.04,-343.921 4327.73,-336.056 4337.88,-332.48 4388.58,-314.616 6219.15,-315.894 6272.88,-314.48 6499.07,-308.528 6768.01,-294.864 6883.96,-288.655"/>
<polygon fill="black" stroke="black" points="6884.24,-292.145 6894.04,-288.114 6883.87,-285.155 6884.24,-292.145"/>
<text text-anchor="middle" x="4429.88" y="-336.28" font-family="Times,serif" font-size="14.00"> end(communicated_image_data)</text>
</g>
<!-- n28 -->
<g id="node28" class="node"><title>n28</title>
<ellipse fill="none" stroke="black" cx="1940.88" cy="-26.8701" rx="63.7795" ry="26.7407"/>
<text text-anchor="middle" x="1940.88" y="-30.6701" font-family="Times,serif" font-size="14.00">&lt;waypoint0&gt;</text>
<text text-anchor="middle" x="1940.88" y="-15.6701" font-family="Times,serif" font-size="14.00">waypoint</text>
</g>
<!-- n3&#45;&gt;n28 -->
<g id="edge35" class="edge"><title>n3&#45;&gt;n28</title>
<path fill="none" stroke="black" d="M1265.55,-373.012C1256.53,-369.972 1247.01,-367.24 1237.88,-365.48 1210.53,-360.209 756.219,-367.525 736.882,-347.48 732.254,-342.682 733.606,-338.286 736.882,-332.48 777.454,-260.59 844.967,-301.456 895.882,-236.48 933.705,-188.213 899.189,-153.109 936.882,-104.74 954.171,-82.5545 963.99,-79.9808 990.882,-71.7401 1073.64,-46.379 1658.31,-33.1293 1867.05,-29.1668"/>
<polygon fill="black" stroke="black" points="1867.36,-32.6617 1877.29,-28.9741 1867.23,-25.6629 1867.36,-32.6617"/>
<text text-anchor="middle" x="971.882" y="-205.91" font-family="Times,serif" font-size="14.00"> static(visible_from)</text>
</g>
<!-- n4 -->
<g id="node4" class="node"><title>n4</title>
<ellipse fill="none" stroke="black" cx="641.882" cy="-392.35" rx="67.7647" ry="26.7407"/>
<text text-anchor="middle" x="641.882" y="-396.15" font-family="Times,serif" font-size="14.00">&lt;objective26&gt;</text>
<text text-anchor="middle" x="641.882" y="-381.15" font-family="Times,serif" font-size="14.00">objective</text>
</g>
<!-- n4&#45;&gt;n5 -->
<g id="edge64" class="edge"><title>n4&#45;&gt;n5</title>
<path fill="none" stroke="black" d="M680.791,-370.285C707.552,-356.899 744.361,-340.611 778.882,-332.48 920.844,-299.044 1357.02,-289.087 1532.06,-286.393"/>
<polygon fill="black" stroke="black" points="1532.26,-289.891 1542.21,-286.241 1532.15,-282.892 1532.26,-289.891"/>
<text text-anchor="middle" x="834.882" y="-336.28" font-family="Times,serif" font-size="14.00"> static(visible_from)</text>
</g>
<!-- n4&#45;&gt;n28 -->
<g id="edge88" class="edge"><title>n4&#45;&gt;n28</title>
<path fill="none" stroke="black" d="M629.569,-365.734C623.911,-355.023 616.716,-342.715 608.882,-332.48 560.538,-269.322 472.945,-252.647 510.882,-182.74 554.1,-103.103 595.445,-98.9117 681.882,-71.7401 794.617,-36.3021 1614.37,-29.4324 1866.98,-28.1522"/>
<polygon fill="black" stroke="black" points="1867.17,-31.6514 1877.16,-28.1021 1867.14,-24.6515 1867.17,-31.6514"/>
<text text-anchor="middle" x="566.882" y="-205.91" font-family="Times,serif" font-size="14.00"> static(visible_from)</text>
</g>
<!-- n5&#45;&gt;n5 -->
<g id="edge1" class="edge"><title>n5&#45;&gt;n5</title>
<path fill="none" stroke="black" d="M1665.32,-294.306C1678.19,-293.345 1687.52,-290.07 1687.52,-284.48 1687.52,-280.55 1682.91,-277.764 1675.7,-276.122"/>
<polygon fill="black" stroke="black" points="1675.72,-272.59 1665.32,-274.654 1674.73,-279.521 1675.72,-272.59"/>
<text text-anchor="middle" x="1744.02" y="-280.78" font-family="Times,serif" font-size="14.00"> init(at_soil_sample)</text>
</g>
<!-- n7 -->
<g id="node7" class="node"><title>n7</title>
<ellipse fill="none" stroke="black" cx="2481.88" cy="-134.74" rx="63.7795" ry="26.7407"/>
<text text-anchor="middle" x="2481.88" y="-138.54" font-family="Times,serif" font-size="14.00">&lt;waypoint2&gt;</text>
<text text-anchor="middle" x="2481.88" y="-123.54" font-family="Times,serif" font-size="14.00">waypoint</text>
</g>
<!-- n5&#45;&gt;n7 -->
<g id="edge75" class="edge"><title>n5&#45;&gt;n7</title>
<path fill="none" stroke="black" d="M1664.88,-274.266C1709.74,-267.635 1773.05,-259.08 1828.88,-254.48 1857.3,-252.139 2318.36,-252.6 2341.88,-236.48 2363.31,-221.795 2346.31,-200.904 2364.88,-182.74 2379.21,-168.73 2398.25,-158.73 2416.8,-151.663"/>
<polygon fill="black" stroke="black" points="2418.19,-154.885 2426.43,-148.229 2415.84,-148.292 2418.19,-154.885"/>
<text text-anchor="middle" x="2403.88" y="-205.91" font-family="Times,serif" font-size="14.00"> static(visible)</text>
</g>
<!-- n5&#45;&gt;n28 -->
<g id="edge14" class="edge"><title>n5&#45;&gt;n28</title>
<path fill="none" stroke="black" d="M1560.75,-265.384C1491.27,-234.904 1371.14,-170.218 1421.88,-104.74 1474.98,-36.2153 1736.05,-27.0945 1866.46,-26.9234"/>
<polygon fill="black" stroke="black" points="1866.76,-30.4234 1876.76,-26.9282 1866.76,-23.4234 1866.76,-30.4234"/>
<text text-anchor="middle" x="1460.88" y="-131.04" font-family="Times,serif" font-size="14.00"> static(visible)</text>
</g>
<!-- n6 -->
<g id="node6" class="node"><title>n6</title>
<ellipse fill="none" stroke="black" cx="1160.88" cy="-392.35" rx="67.7647" ry="26.7407"/>
<text text-anchor="middle" x="1160.88" y="-396.15" font-family="Times,serif" font-size="14.00">&lt;objective20&gt;</text>
<text text-anchor="middle" x="1160.88" y="-381.15" font-family="Times,serif" font-size="14.00">objective</text>
</g>
<!-- n6&#45;&gt;n5 -->
<g id="edge24" class="edge"><title>n6&#45;&gt;n5</title>
<path fill="none" stroke="black" d="M1174.77,-365.917C1182.79,-353.74 1194.05,-340.168 1207.88,-332.48 1261.92,-302.445 1432.73,-291.461 1532.14,-287.552"/>
<polygon fill="black" stroke="black" points="1532.56,-291.038 1542.42,-287.163 1532.3,-284.043 1532.56,-291.038"/>
<text text-anchor="middle" x="1263.88" y="-336.28" font-family="Times,serif" font-size="14.00"> static(visible_from)</text>
</g>
<!-- n6&#45;&gt;n7 -->
<g id="edge23" class="edge"><title>n6&#45;&gt;n7</title>
<path fill="none" stroke="black" d="M1208.36,-372.929C1218,-369.896 1228.16,-367.188 1237.88,-365.48 1321.51,-350.793 1922.7,-378.149 2001.88,-347.48 2060.64,-324.723 2050.43,-278.015 2108.88,-254.48 2145.93,-239.562 2438.43,-263.452 2467.88,-236.48 2485.31,-220.524 2488.34,-193.725 2487.27,-171.778"/>
<polygon fill="black" stroke="black" points="2490.76,-171.476 2486.49,-161.778 2483.78,-172.02 2490.76,-171.476"/>
<text text-anchor="middle" x="2164.88" y="-280.78" font-family="Times,serif" font-size="14.00"> static(visible_from)</text>
</g>
<!-- n6&#45;&gt;n28 -->
<g id="edge79" class="edge"><title>n6&#45;&gt;n28</title>
<path fill="none" stroke="black" d="M1113.36,-373.14C1103.73,-370.089 1093.58,-367.321 1083.88,-365.48 1045.3,-358.158 757.936,-375.949 730.882,-347.48 717.256,-333.141 699.449,-362.925 747.882,-254.48 751.906,-245.47 756.302,-245.221 760.882,-236.48 772.64,-214.041 762.642,-201.303 779.882,-182.74 793.425,-168.158 803.585,-174.582 820.882,-164.74 882.626,-129.606 883.736,-94.9369 950.882,-71.7401 1036.53,-42.1522 1651.68,-31.5522 1866.82,-28.7262"/>
<polygon fill="black" stroke="black" points="1867.11,-32.2228 1877.07,-28.5936 1867.02,-25.2234 1867.11,-32.2228"/>
<text text-anchor="middle" x="836.882" y="-205.91" font-family="Times,serif" font-size="14.00"> static(visible_from)</text>
</g>
<!-- n7&#45;&gt;n5 -->
<g id="edge107" class="edge"><title>n7&#45;&gt;n5</title>
<path fill="none" stroke="black" d="M2420.56,-141.977C2363.37,-148.963 2283.43,-162.093 2259.88,-182.74 2240.83,-199.441 2261.24,-221.406 2240.88,-236.48 2204.06,-263.746 1874.53,-250.522 1828.88,-254.48 1777.1,-258.97 1718.87,-266.633 1674.9,-272.954"/>
<polygon fill="black" stroke="black" points="1674.29,-269.506 1664.89,-274.405 1675.29,-276.434 1674.29,-269.506"/>
<text text-anchor="middle" x="2298.88" y="-205.91" font-family="Times,serif" font-size="14.00"> static(visible)</text>
</g>
<!-- n7&#45;&gt;n7 -->
<g id="edge2" class="edge"><title>n7&#45;&gt;n7</title>
<path fill="none" stroke="black" d="M2541.32,-144.566C2554.19,-143.605 2563.52,-140.33 2563.52,-134.74 2563.52,-130.81 2558.91,-128.024 2551.7,-126.382"/>
<polygon fill="black" stroke="black" points="2551.72,-122.85 2541.32,-124.914 2550.73,-129.781 2551.72,-122.85"/>
<text text-anchor="middle" x="2648.52" y="-153.54" font-family="Times,serif" font-size="14.00"> end(communicated_soil_data)</text>
<text text-anchor="middle" x="2648.52" y="-138.54" font-family="Times,serif" font-size="14.00">init(at_soil_sample)</text>
<text text-anchor="middle" x="2648.52" y="-123.54" font-family="Times,serif" font-size="14.00">end(communicated_rock_data)</text>
<text text-anchor="middle" x="2648.52" y="-108.54" font-family="Times,serif" font-size="14.00">init(at_rock_sample)</text>
</g>
<!-- n7&#45;&gt;n28 -->
<g id="edge83" class="edge"><title>n7&#45;&gt;n28</title>
<path fill="none" stroke="black" d="M2425.01,-122.61C2324.35,-102.912 2115.34,-62.0109 2007.88,-40.9814"/>
<polygon fill="black" stroke="black" points="2008.29,-37.4954 1997.81,-39.0096 2006.95,-44.3651 2008.29,-37.4954"/>
<text text-anchor="middle" x="2266.88" y="-75.5401" font-family="Times,serif" font-size="14.00"> static(visible)</text>
</g>
<!-- n8 -->
<g id="node8" class="node"><title>n8</title>
<ellipse fill="none" stroke="black" cx="743.882" cy="-134.74" rx="67.7647" ry="26.7407"/>
<text text-anchor="middle" x="743.882" y="-138.54" font-family="Times,serif" font-size="14.00">&lt;objective10&gt;</text>
<text text-anchor="middle" x="743.882" y="-123.54" font-family="Times,serif" font-size="14.00">objective</text>
</g>
<!-- n8&#45;&gt;n28 -->
<g id="edge103" class="edge"><title>n8&#45;&gt;n28</title>
<path fill="none" stroke="black" d="M732.505,-108.071C728.851,-95.5425 727.784,-81.1754 736.882,-71.7401 776.173,-30.9918 1610.12,-27.7889 1866.54,-27.7707"/>
<polygon fill="black" stroke="black" points="1866.86,-31.2706 1876.86,-27.7717 1866.86,-24.2706 1866.86,-31.2706"/>
<text text-anchor="middle" x="792.882" y="-75.5401" font-family="Times,serif" font-size="14.00"> static(visible_from)</text>
</g>
<!-- n9 -->
<g id="node9" class="node"><title>n9</title>
<ellipse fill="none" stroke="black" cx="6200.88" cy="-284.48" rx="62.8651" ry="26.7407"/>
<text text-anchor="middle" x="6200.88" y="-288.28" font-family="Times,serif" font-size="14.00">&lt;objective8&gt;</text>
<text text-anchor="middle" x="6200.88" y="-273.28" font-family="Times,serif" font-size="14.00">objective</text>
</g>
<!-- n9&#45;&gt;n28 -->
<g id="edge19" class="edge"><title>n9&#45;&gt;n28</title>
<path fill="none" stroke="black" d="M6144.25,-272.429C5951.53,-235.408 5303.02,-115.627 4760.88,-71.7401 4204.55,-26.7039 2402.56,-27.0894 2014.82,-27.7132"/>
<polygon fill="black" stroke="black" points="2014.57,-24.2135 2004.57,-27.7302 2014.58,-31.2135 2014.57,-24.2135"/>
<text text-anchor="middle" x="5561.88" y="-131.04" font-family="Times,serif" font-size="14.00"> static(visible_from)</text>
</g>
<!-- n10 -->
<g id="node10" class="node"><title>n10</title>
<ellipse fill="none" stroke="black" cx="3529.88" cy="-392.35" rx="67.7647" ry="26.7407"/>
<text text-anchor="middle" x="3529.88" y="-396.15" font-family="Times,serif" font-size="14.00">&lt;objective16&gt;</text>
<text text-anchor="middle" x="3529.88" y="-381.15" font-family="Times,serif" font-size="14.00">objective</text>
</g>
<!-- n10&#45;&gt;n5 -->
<g id="edge68" class="edge"><title>n10&#45;&gt;n5</title>
<path fill="none" stroke="black" d="M3480.98,-373.428C3471.73,-370.466 3462.08,-367.657 3452.88,-365.48 3397.41,-352.347 3382.28,-355.793 3325.88,-347.48 3282.29,-341.055 3271.8,-336.106 3227.88,-332.48 2918.02,-306.898 2139.01,-336.565 1828.88,-314.48 1777.04,-310.788 1718.81,-303.093 1674.85,-296.558"/>
<polygon fill="black" stroke="black" points="1675.26,-293.08 1664.85,-295.054 1674.22,-300.002 1675.26,-293.08"/>
<text text-anchor="middle" x="3381.88" y="-336.28" font-family="Times,serif" font-size="14.00"> static(visible_from)</text>
</g>
<!-- n10&#45;&gt;n7 -->
<g id="edge73" class="edge"><title>n10&#45;&gt;n7</title>
<path fill="none" stroke="black" d="M3489.85,-370.517C3468.02,-359.196 3440.51,-344.993 3415.88,-332.48 3399.93,-324.376 3393.82,-325.694 3379.88,-314.48 3345.16,-286.546 3341.3,-273.758 3316.88,-236.48 3302.13,-213.951 3311.68,-197.085 3288.88,-182.74 3263.2,-166.575 2773.15,-166.918 2742.88,-164.74 2678.08,-160.079 2604.55,-151.621 2552.09,-145.038"/>
<polygon fill="black" stroke="black" points="2552.25,-141.53 2541.89,-143.748 2551.37,-148.475 2552.25,-141.53"/>
<text text-anchor="middle" x="3435.88" y="-280.78" font-family="Times,serif" font-size="14.00"> static(visible_from)</text>
</g>
<!-- n10&#45;&gt;n26 -->
<g id="edge37" class="edge"><title>n10&#45;&gt;n26</title>
<path fill="none" stroke="black" d="M3590.63,-380.051C3622.5,-372.929 3661.71,-362.249 3694.88,-347.48 3706.03,-342.516 3706.38,-336.563 3717.88,-332.48 3786.66,-308.065 3993.01,-294.299 4100.36,-288.609"/>
<polygon fill="black" stroke="black" points="4100.62,-292.1 4110.43,-288.084 4100.26,-285.11 4100.62,-292.1"/>
<text text-anchor="middle" x="3809.88" y="-336.28" font-family="Times,serif" font-size="14.00"> end(communicated_image_data)</text>
</g>
<!-- n10&#45;&gt;n28 -->
<g id="edge86" class="edge"><title>n10&#45;&gt;n28</title>
<path fill="none" stroke="black" d="M3503.24,-367.521C3498.19,-361.527 3493.63,-354.72 3490.88,-347.48 3464.63,-278.435 3553.42,-244.49 3512.88,-182.74 3434.63,-63.5475 3352.86,-93.1008 3211.88,-71.7401 2978.77,-36.4181 2249.98,-29.4984 2014.83,-28.175"/>
<polygon fill="black" stroke="black" points="2014.69,-24.6743 2004.67,-28.1196 2014.65,-31.6742 2014.69,-24.6743"/>
<text text-anchor="middle" x="3579.88" y="-205.91" font-family="Times,serif" font-size="14.00"> static(visible_from)</text>
</g>
<!-- n11 -->
<g id="node11" class="node"><title>n11</title>
<ellipse fill="none" stroke="black" cx="1008.88" cy="-134.74" rx="62.8651" ry="26.7407"/>
<text text-anchor="middle" x="1008.88" y="-138.54" font-family="Times,serif" font-size="14.00">&lt;objective0&gt;</text>
<text text-anchor="middle" x="1008.88" y="-123.54" font-family="Times,serif" font-size="14.00">objective</text>
</g>
<!-- n11&#45;&gt;n28 -->
<g id="edge90" class="edge"><title>n11&#45;&gt;n28</title>
<path fill="none" stroke="black" d="M996.99,-108.125C993.107,-95.6106 991.815,-81.24 1000.88,-71.7401 1030.64,-40.5627 1650.17,-30.9751 1866.85,-28.5692"/>
<polygon fill="black" stroke="black" points="1867.21,-32.0656 1877.17,-28.4567 1867.13,-25.066 1867.21,-32.0656"/>
<text text-anchor="middle" x="1056.88" y="-75.5401" font-family="Times,serif" font-size="14.00"> static(visible_from)</text>
</g>
<!-- n12 -->
<g id="node12" class="node"><title>n12</title>
<ellipse fill="none" stroke="black" cx="4050.88" cy="-497.09" rx="56.6372" ry="26.7407"/>
<text text-anchor="middle" x="4050.88" y="-500.89" font-family="Times,serif" font-size="14.00">&lt;camera3&gt;</text>
<text text-anchor="middle" x="4050.88" y="-485.89" font-family="Times,serif" font-size="14.00">camera</text>
</g>
<!-- n12&#45;&gt;n6 -->
<g id="edge21" class="edge"><title>n12&#45;&gt;n6</title>
<path fill="none" stroke="black" d="M3994.23,-495.551C3620.73,-491.862 1518.23,-468.997 1237.88,-419.22 1231.35,-418.061 1224.62,-416.454 1217.99,-414.604"/>
<polygon fill="black" stroke="black" points="1218.95,-411.239 1208.37,-411.742 1216.95,-417.948 1218.95,-411.239"/>
<text text-anchor="middle" x="1779.38" y="-441.02" font-family="Times,serif" font-size="14.00"> static(calibration_target)</text>
</g>
<!-- n12&#45;&gt;n26 -->
<g id="edge13" class="edge"><title>n12&#45;&gt;n26</title>
<path fill="none" stroke="black" d="M4045.68,-470.174C4040.24,-435.476 4036.05,-373.543 4064.88,-332.48 4075.09,-317.941 4090.96,-307.797 4107.15,-300.762"/>
<polygon fill="black" stroke="black" points="4108.69,-303.917 4116.69,-296.969 4106.11,-297.413 4108.69,-303.917"/>
<text text-anchor="middle" x="4093.88" y="-388.65" font-family="Times,serif" font-size="14.00"> static(supports)</text>
</g>
<!-- n12&#45;&gt;n38 -->
<g id="edge74" class="edge"><title>n12&#45;&gt;n38</title>
<path fill="none" stroke="black" d="M4107.69,-496.436C4191.89,-495.688 4343.95,-489.091 4381.88,-452.22 4409.88,-425.001 4366.49,-391.189 4395.88,-365.48 4424.33,-340.601 5039.35,-357.164 5075.88,-347.48 5089.53,-343.863 5090.31,-336.377 5103.88,-332.48 5217.77,-299.77 5252.51,-330.704 5369.88,-314.48 5398.04,-310.589 5429.03,-304.263 5454.51,-298.511"/>
<polygon fill="black" stroke="black" points="5455.37,-301.903 5464.34,-296.258 5453.81,-295.08 5455.37,-301.903"/>
<text text-anchor="middle" x="4442.38" y="-388.65" font-family="Times,serif" font-size="14.00"> static(on_board)</text>
</g>
<!-- n13 -->
<g id="node13" class="node"><title>n13</title>
<ellipse fill="none" stroke="black" cx="5172.88" cy="-392.35" rx="67.3507" ry="26.7407"/>
<text text-anchor="middle" x="5172.88" y="-396.15" font-family="Times,serif" font-size="14.00">&lt;rover0store&gt;</text>
<text text-anchor="middle" x="5172.88" y="-381.15" font-family="Times,serif" font-size="14.00">store</text>
</g>
<!-- n13&#45;&gt;n13 -->
<g id="edge3" class="edge"><title>n13&#45;&gt;n13</title>
<path fill="none" stroke="black" d="M5236.03,-401.728C5248.87,-400.707 5258.06,-397.581 5258.06,-392.35 5258.06,-388.673 5253.51,-386.035 5246.35,-384.438"/>
<polygon fill="black" stroke="black" points="5246.42,-380.913 5236.03,-382.972 5245.44,-387.844 5246.42,-380.913"/>
<text text-anchor="middle" x="5291.06" y="-388.65" font-family="Times,serif" font-size="14.00"> init(empty)</text>
</g>
<!-- n13&#45;&gt;n38 -->
<g id="edge85" class="edge"><title>n13&#45;&gt;n38</title>
<path fill="none" stroke="black" d="M5205.92,-368.758C5229.87,-352.419 5258.33,-333.099 5259.88,-332.48 5305.91,-314.172 5321.19,-323.576 5369.88,-314.48 5397.61,-309.301 5428.33,-302.911 5453.73,-297.447"/>
<polygon fill="black" stroke="black" points="5454.51,-300.86 5463.55,-295.326 5453.03,-294.018 5454.51,-300.86"/>
<text text-anchor="middle" x="5302.88" y="-336.28" font-family="Times,serif" font-size="14.00"> static(store_of)</text>
</g>
<!-- n14 -->
<g id="node14" class="node"><title>n14</title>
<ellipse fill="none" stroke="black" cx="1458.88" cy="-392.35" rx="67.7647" ry="26.7407"/>
<text text-anchor="middle" x="1458.88" y="-396.15" font-family="Times,serif" font-size="14.00">&lt;objective19&gt;</text>
<text text-anchor="middle" x="1458.88" y="-381.15" font-family="Times,serif" font-size="14.00">objective</text>
</g>
<!-- n14&#45;&gt;n5 -->
<g id="edge70" class="edge"><title>n14&#45;&gt;n5</title>
<path fill="none" stroke="black" d="M1451.31,-365.489C1449.64,-354.362 1450.05,-341.8 1456.88,-332.48 1474.46,-308.509 1504.29,-296.448 1532.66,-290.493"/>
<polygon fill="black" stroke="black" points="1533.43,-293.91 1542.61,-288.632 1532.14,-287.03 1533.43,-293.91"/>
<text text-anchor="middle" x="1512.88" y="-336.28" font-family="Times,serif" font-size="14.00"> static(visible_from)</text>
</g>
<!-- n14&#45;&gt;n7 -->
<g id="edge54" class="edge"><title>n14&#45;&gt;n7</title>
<path fill="none" stroke="black" d="M1526.11,-387.896C1703.01,-378.726 2168.92,-354.027 2183.88,-347.48 2238.6,-323.543 2226.46,-279.08 2280.88,-254.48 2323.97,-235.006 2460.9,-271.298 2492.88,-236.48 2508.78,-219.178 2505.1,-192.512 2497.94,-170.962"/>
<polygon fill="black" stroke="black" points="2501.19,-169.657 2494.46,-161.472 2494.61,-172.065 2501.19,-169.657"/>
<text text-anchor="middle" x="2336.88" y="-280.78" font-family="Times,serif" font-size="14.00"> static(visible_from)</text>
</g>
<!-- n14&#45;&gt;n28 -->
<g id="edge91" class="edge"><title>n14&#45;&gt;n28</title>
<path fill="none" stroke="black" d="M1438.63,-366.629C1429.7,-355.958 1418.96,-343.435 1408.88,-332.48 1323.91,-240.101 1182.92,-215.542 1241.88,-104.74 1254.22,-81.5618 1266.04,-80.2493 1290.88,-71.7401 1395.5,-35.8992 1719.58,-29.2159 1866.78,-28.058"/>
<polygon fill="black" stroke="black" points="1867.1,-31.5559 1877.07,-27.9839 1867.05,-24.5561 1867.1,-31.5559"/>
<text text-anchor="middle" x="1340.88" y="-205.91" font-family="Times,serif" font-size="14.00"> static(visible_from)</text>
</g>
<!-- n15 -->
<g id="node15" class="node"><title>n15</title>
<ellipse fill="none" stroke="black" cx="471.882" cy="-392.35" rx="67.7647" ry="26.7407"/>
<text text-anchor="middle" x="471.882" y="-396.15" font-family="Times,serif" font-size="14.00">&lt;objective13&gt;</text>
<text text-anchor="middle" x="471.882" y="-381.15" font-family="Times,serif" font-size="14.00">objective</text>
</g>
<!-- n15&#45;&gt;n5 -->
<g id="edge9" class="edge"><title>n15&#45;&gt;n5</title>
<path fill="none" stroke="black" d="M512.255,-370.639C540.705,-357.134 580.132,-340.566 616.882,-332.48 791.175,-294.131 1333.37,-287.071 1532,-285.773"/>
<polygon fill="black" stroke="black" points="1532.06,-289.272 1542.04,-285.71 1532.02,-282.273 1532.06,-289.272"/>
<text text-anchor="middle" x="672.882" y="-336.28" font-family="Times,serif" font-size="14.00"> static(visible_from)</text>
</g>
<!-- n15&#45;&gt;n28 -->
<g id="edge25" class="edge"><title>n15&#45;&gt;n28</title>
<path fill="none" stroke="black" d="M416.414,-376.848C399.333,-372.744 380.41,-368.56 362.882,-365.48 328.512,-359.44 230.101,-373.532 206.882,-347.48 202.447,-342.503 204.06,-338.52 206.882,-332.48 243.142,-254.873 439.326,-138.894 517.882,-104.74 565.472,-84.0491 578.651,-80.0073 629.882,-71.7401 870.777,-32.8665 1627.03,-28.3337 1867.02,-27.8885"/>
<polygon fill="black" stroke="black" points="1867.05,-31.3886 1877.04,-27.8718 1867.04,-24.3886 1867.05,-31.3886"/>
<text text-anchor="middle" x="432.882" y="-205.91" font-family="Times,serif" font-size="14.00"> static(visible_from)</text>
</g>
<!-- n16 -->
<g id="node16" class="node"><title>n16</title>
<ellipse fill="none" stroke="black" cx="5407.88" cy="-497.09" rx="56.6372" ry="26.7407"/>
<text text-anchor="middle" x="5407.88" y="-500.89" font-family="Times,serif" font-size="14.00">&lt;camera6&gt;</text>
<text text-anchor="middle" x="5407.88" y="-485.89" font-family="Times,serif" font-size="14.00">camera</text>
</g>
<!-- n16&#45;&gt;n24 -->
<g id="edge44" class="edge"><title>n16&#45;&gt;n24</title>
<path fill="none" stroke="black" d="M5458,-484.435C5482.29,-479.237 5511.96,-473.548 5538.88,-470.22 5703.08,-449.923 6914.79,-472.74 7022.88,-347.48 7037.96,-330.004 7016.69,-314.251 6992.17,-302.997"/>
<polygon fill="black" stroke="black" points="6993.25,-299.652 6982.68,-298.91 6990.48,-306.081 6993.25,-299.652"/>
<text text-anchor="middle" x="7038.88" y="-388.65" font-family="Times,serif" font-size="14.00"> static(supports)</text>
</g>
<!-- n33 -->
<g id="node33" class="node"><title>n33</title>
<ellipse fill="none" stroke="black" cx="2344.88" cy="-392.35" rx="67.7647" ry="26.7407"/>
<text text-anchor="middle" x="2344.88" y="-396.15" font-family="Times,serif" font-size="14.00">&lt;objective17&gt;</text>
<text text-anchor="middle" x="2344.88" y="-381.15" font-family="Times,serif" font-size="14.00">objective</text>
</g>
<!-- n16&#45;&gt;n33 -->
<g id="edge50" class="edge"><title>n16&#45;&gt;n33</title>
<path fill="none" stroke="black" d="M5351.91,-493.148C5248.45,-487.809 5020.3,-476.499 4827.88,-470.22 4560.63,-461.5 2685.29,-465.199 2421.88,-419.22 2415.35,-418.08 2408.62,-416.485 2401.98,-414.642"/>
<polygon fill="black" stroke="black" points="2402.94,-411.276 2392.36,-411.787 2400.95,-417.987 2402.94,-411.276"/>
<text text-anchor="middle" x="3192.38" y="-441.02" font-family="Times,serif" font-size="14.00"> static(calibration_target)</text>
</g>
<!-- n16&#45;&gt;n38 -->
<g id="edge31" class="edge"><title>n16&#45;&gt;n38</title>
<path fill="none" stroke="black" d="M5409.3,-469.956C5411.04,-458.908 5414.63,-446.482 5421.88,-437.22 5432.67,-423.451 5445.22,-432.254 5456.88,-419.22 5481.71,-391.476 5494.95,-350.394 5501.66,-321.092"/>
<polygon fill="black" stroke="black" points="5505.09,-321.771 5503.76,-311.259 5498.24,-320.303 5505.09,-321.771"/>
<text text-anchor="middle" x="5535.38" y="-388.65" font-family="Times,serif" font-size="14.00"> static(on_board)</text>
</g>
<!-- n17 -->
<g id="node17" class="node"><title>n17</title>
<ellipse fill="none" stroke="black" cx="5785.88" cy="-392.35" rx="56.6372" ry="26.7407"/>
<text text-anchor="middle" x="5785.88" y="-396.15" font-family="Times,serif" font-size="14.00">&lt;camera7&gt;</text>
<text text-anchor="middle" x="5785.88" y="-381.15" font-family="Times,serif" font-size="14.00">camera</text>
</g>
<!-- n17&#45;&gt;n9 -->
<g id="edge40" class="edge"><title>n17&#45;&gt;n9</title>
<path fill="none" stroke="black" d="M5826.28,-373.498C5834.31,-370.456 5842.77,-367.6 5850.88,-365.48 5909.45,-350.173 5929.13,-368.533 5985.88,-347.48 5997.32,-343.236 5997.68,-337.334 6008.88,-332.48 6048.02,-315.515 6094.43,-303.943 6131.81,-296.528"/>
<polygon fill="black" stroke="black" points="6132.94,-299.874 6142.1,-294.545 6131.62,-293 6132.94,-299.874"/>
<text text-anchor="middle" x="6077.38" y="-336.28" font-family="Times,serif" font-size="14.00"> static(calibration_target)</text>
</g>
<!-- n17&#45;&gt;n20 -->
<g id="edge92" class="edge"><title>n17&#45;&gt;n20</title>
<path fill="none" stroke="black" d="M5744.41,-374.022C5734.86,-370.657 5724.64,-367.54 5714.88,-365.48 5597.64,-340.723 5562.18,-376.333 5445.88,-347.48 5412.62,-339.227 5377.38,-323.421 5350.7,-309.834"/>
<polygon fill="black" stroke="black" points="5352.13,-306.633 5341.64,-305.137 5348.91,-312.847 5352.13,-306.633"/>
<text text-anchor="middle" x="5489.88" y="-336.28" font-family="Times,serif" font-size="14.00"> static(supports)</text>
</g>
<!-- n17&#45;&gt;n24 -->
<g id="edge89" class="edge"><title>n17&#45;&gt;n24</title>
<path fill="none" stroke="black" d="M5825.82,-373.162C5833.97,-370.109 5842.58,-367.334 5850.88,-365.48 5914.98,-351.156 6084.52,-370.9 6145.88,-347.48 6155.93,-343.644 6154.83,-336.314 6164.88,-332.48 6231.36,-307.127 6714.27,-291.681 6883.49,-286.999"/>
<polygon fill="black" stroke="black" points="6883.8,-290.492 6893.7,-286.719 6883.61,-283.494 6883.8,-290.492"/>
<text text-anchor="middle" x="6208.88" y="-336.28" font-family="Times,serif" font-size="14.00"> static(supports)</text>
</g>
<!-- n17&#45;&gt;n26 -->
<g id="edge59" class="edge"><title>n17&#45;&gt;n26</title>
<path fill="none" stroke="black" d="M5744.85,-373.812C5735.19,-370.412 5724.81,-367.333 5714.88,-365.48 5513.87,-327.969 4997.47,-375.269 4794.88,-347.48 4768.5,-343.862 4763.13,-336.924 4736.88,-332.48 4556.44,-301.939 4340.38,-291.013 4233.51,-287.288"/>
<polygon fill="black" stroke="black" points="4233.62,-283.79 4223.51,-286.95 4233.38,-290.786 4233.62,-283.79"/>
<text text-anchor="middle" x="4838.88" y="-336.28" font-family="Times,serif" font-size="14.00"> static(supports)</text>
</g>
<!-- n17&#45;&gt;n38 -->
<g id="edge101" class="edge"><title>n17&#45;&gt;n38</title>
<path fill="none" stroke="black" d="M5743.96,-374.215C5734.52,-370.882 5724.46,-367.73 5714.88,-365.48 5645.22,-349.116 5617.09,-382.856 5554.88,-347.48 5543.21,-340.842 5533.51,-330.008 5526.02,-319.239"/>
<polygon fill="black" stroke="black" points="5528.86,-317.188 5520.49,-310.698 5522.99,-320.994 5528.86,-317.188"/>
<text text-anchor="middle" x="5601.38" y="-336.28" font-family="Times,serif" font-size="14.00"> static(on_board)</text>
</g>
<!-- n18 -->
<g id="node18" class="node"><title>n18</title>
<ellipse fill="none" stroke="black" cx="1313.88" cy="-134.74" rx="62.8651" ry="26.7407"/>
<text text-anchor="middle" x="1313.88" y="-138.54" font-family="Times,serif" font-size="14.00">&lt;objective2&gt;</text>
<text text-anchor="middle" x="1313.88" y="-123.54" font-family="Times,serif" font-size="14.00">objective</text>
</g>
<!-- n18&#45;&gt;n28 -->
<g id="edge106" class="edge"><title>n18&#45;&gt;n28</title>
<path fill="none" stroke="black" d="M1299.27,-108.314C1294.21,-95.8493 1291.8,-81.4664 1300.88,-71.7401 1338.82,-31.118 1706.72,-27.1727 1866.94,-27.4053"/>
<polygon fill="black" stroke="black" points="1867.18,-30.9057 1877.19,-27.4263 1867.2,-23.9057 1867.18,-30.9057"/>
<text text-anchor="middle" x="1356.88" y="-75.5401" font-family="Times,serif" font-size="14.00"> static(visible_from)</text>
</g>
<!-- n19 -->
<g id="node19" class="node"><title>n19</title>
<ellipse fill="none" stroke="black" cx="2012.88" cy="-392.35" rx="62.8651" ry="26.7407"/>
<text text-anchor="middle" x="2012.88" y="-396.15" font-family="Times,serif" font-size="14.00">&lt;objective3&gt;</text>
<text text-anchor="middle" x="2012.88" y="-381.15" font-family="Times,serif" font-size="14.00">objective</text>
</g>
<!-- n19&#45;&gt;n5 -->
<g id="edge18" class="edge"><title>n19&#45;&gt;n5</title>
<path fill="none" stroke="black" d="M1950.22,-389.36C1838.75,-385.168 1615.4,-373.581 1591.88,-347.48 1585.18,-340.041 1584.99,-330.085 1587.53,-320.331"/>
<polygon fill="black" stroke="black" points="1590.89,-321.341 1590.85,-310.746 1584.27,-319.05 1590.89,-321.341"/>
<text text-anchor="middle" x="1647.88" y="-336.28" font-family="Times,serif" font-size="14.00"> static(visible_from)</text>
</g>
<!-- n19&#45;&gt;n26 -->
<g id="edge71" class="edge"><title>n19&#45;&gt;n26</title>
<path fill="none" stroke="black" d="M2064.73,-377.078C2083.25,-372.564 2104.37,-368.077 2123.88,-365.48 2179.54,-358.074 2576.18,-366.836 2628.88,-347.48 2638.98,-343.771 2637.76,-336.128 2647.88,-332.48 2687.77,-318.103 3368.5,-315.793 3410.88,-314.48 3665.57,-306.592 3968.39,-294.005 4100.14,-288.371"/>
<polygon fill="black" stroke="black" points="4100.62,-291.854 4110.46,-287.929 4100.32,-284.861 4100.62,-291.854"/>
<text text-anchor="middle" x="2739.88" y="-336.28" font-family="Times,serif" font-size="14.00"> end(communicated_image_data)</text>
</g>
<!-- n19&#45;&gt;n28 -->
<g id="edge30" class="edge"><title>n19&#45;&gt;n28</title>
<path fill="none" stroke="black" d="M2014.03,-365.303C2013.85,-334.023 2008.37,-282.299 1976.88,-254.48 1937.13,-219.355 1893.45,-276.722 1858.88,-236.48 1765.38,-127.636 1963.65,-204.787 1998.88,-164.74 2026.41,-133.448 2009.68,-106.625 1986.88,-71.7401 1983.86,-67.1214 1980.27,-62.6334 1976.44,-58.4012"/>
<polygon fill="black" stroke="black" points="1978.83,-55.8411 1969.36,-51.0865 1973.8,-60.7077 1978.83,-55.8411"/>
<text text-anchor="middle" x="1914.88" y="-205.91" font-family="Times,serif" font-size="14.00"> static(visible_from)</text>
</g>
<!-- n21 -->
<g id="node21" class="node"><title>n21</title>
<ellipse fill="none" stroke="black" cx="7198.88" cy="-392.35" rx="56.6372" ry="26.7407"/>
<text text-anchor="middle" x="7198.88" y="-396.15" font-family="Times,serif" font-size="14.00">&lt;camera2&gt;</text>
<text text-anchor="middle" x="7198.88" y="-381.15" font-family="Times,serif" font-size="14.00">camera</text>
</g>
<!-- n21&#45;&gt;n24 -->
<g id="edge65" class="edge"><title>n21&#45;&gt;n24</title>
<path fill="none" stroke="black" d="M7155.01,-375.377C7121.12,-363.027 7079.82,-347.947 7078.88,-347.48 7067.97,-342.016 7066.68,-338.164 7055.88,-332.48 7035.28,-321.635 7011.6,-311.521 6991.18,-303.474"/>
<polygon fill="black" stroke="black" points="6992.34,-300.17 6981.75,-299.812 6989.81,-306.695 6992.34,-300.17"/>
<text text-anchor="middle" x="7122.88" y="-336.28" font-family="Times,serif" font-size="14.00"> static(supports)</text>
</g>
<!-- n21&#45;&gt;n38 -->
<g id="edge11" class="edge"><title>n21&#45;&gt;n38</title>
<path fill="none" stroke="black" d="M7157.42,-373.965C7147.87,-370.603 7137.65,-367.502 7127.88,-365.48 6994.91,-337.946 6954.29,-381.707 6822.88,-347.48 6808.07,-343.622 6806.75,-336.102 6791.88,-332.48 6720.28,-315.042 6202.53,-317.199 6128.88,-314.48 5921.74,-306.832 5675.89,-294.338 5565.99,-288.573"/>
<polygon fill="black" stroke="black" points="5565.96,-285.066 5555.79,-288.037 5565.59,-292.057 5565.96,-285.066"/>
<text text-anchor="middle" x="6869.38" y="-336.28" font-family="Times,serif" font-size="14.00"> static(on_board)</text>
</g>
<!-- n40 -->
<g id="node40" class="node"><title>n40</title>
<ellipse fill="none" stroke="black" cx="6812.88" cy="-209.61" rx="67.7647" ry="26.7407"/>
<text text-anchor="middle" x="6812.88" y="-213.41" font-family="Times,serif" font-size="14.00">&lt;objective25&gt;</text>
<text text-anchor="middle" x="6812.88" y="-198.41" font-family="Times,serif" font-size="14.00">objective</text>
</g>
<!-- n21&#45;&gt;n40 -->
<g id="edge96" class="edge"><title>n21&#45;&gt;n40</title>
<path fill="none" stroke="black" d="M7189.33,-365.779C7184.08,-354.446 7176.64,-341.636 7166.88,-332.48 7089.67,-259.998 6967.34,-230.413 6888.61,-218.481"/>
<polygon fill="black" stroke="black" points="6888.67,-214.954 6878.27,-216.978 6887.66,-221.881 6888.67,-214.954"/>
<text text-anchor="middle" x="7246.38" y="-336.28" font-family="Times,serif" font-size="14.00"> static(calibration_target)</text>
</g>
<!-- n22 -->
<g id="node22" class="node"><title>n22</title>
<ellipse fill="none" stroke="black" cx="1571.88" cy="-134.74" rx="62.8651" ry="26.7407"/>
<text text-anchor="middle" x="1571.88" y="-138.54" font-family="Times,serif" font-size="14.00">&lt;objective1&gt;</text>
<text text-anchor="middle" x="1571.88" y="-123.54" font-family="Times,serif" font-size="14.00">objective</text>
</g>
<!-- n22&#45;&gt;n28 -->
<g id="edge42" class="edge"><title>n22&#45;&gt;n28</title>
<path fill="none" stroke="black" d="M1557.46,-108.486C1552.45,-96.0665 1550.03,-81.6723 1558.88,-71.7401 1579.01,-49.1683 1762.06,-36.5698 1867.28,-31.1354"/>
<polygon fill="black" stroke="black" points="1867.72,-34.6179 1877.53,-30.6162 1867.36,-27.6269 1867.72,-34.6179"/>
<text text-anchor="middle" x="1614.88" y="-75.5401" font-family="Times,serif" font-size="14.00"> static(visible_from)</text>
</g>
<!-- n23&#45;&gt;n5 -->
<g id="edge67" class="edge"><title>n23&#45;&gt;n5</title>
<path fill="none" stroke="black" d="M2994.55,-388.249C2872.19,-381.984 2592.02,-366.757 2356.88,-347.48 2290.99,-342.078 2274.82,-337.379 2208.88,-332.48 2040.27,-319.951 1997.3,-329.395 1828.88,-314.48 1777.29,-309.911 1719.28,-302.29 1675.36,-296.006"/>
<polygon fill="black" stroke="black" points="1675.76,-292.528 1665.37,-294.564 1674.76,-299.456 1675.76,-292.528"/>
<text text-anchor="middle" x="2412.88" y="-336.28" font-family="Times,serif" font-size="14.00"> static(visible_from)</text>
</g>
<!-- n23&#45;&gt;n7 -->
<g id="edge53" class="edge"><title>n23&#45;&gt;n7</title>
<path fill="none" stroke="black" d="M2994.35,-388.708C2851.76,-382.38 2513.58,-365.537 2496.88,-347.48 2492.36,-342.586 2492.44,-337.448 2496.88,-332.48 2545.2,-278.501 2610.57,-368.46 2658.88,-314.48 2711.01,-256.243 2603.75,-192.078 2534.48,-158.735"/>
<polygon fill="black" stroke="black" points="2535.93,-155.55 2525.4,-154.433 2532.94,-161.877 2535.93,-155.55"/>
<text text-anchor="middle" x="2728.88" y="-280.78" font-family="Times,serif" font-size="14.00"> static(visible_from)</text>
</g>
<!-- n23&#45;&gt;n28 -->
<g id="edge81" class="edge"><title>n23&#45;&gt;n28</title>
<path fill="none" stroke="black" d="M3056.96,-365.346C3058.38,-353.782 3062.08,-340.904 3070.88,-332.48 3101.62,-303.075 3137.78,-347.265 3164.88,-314.48 3199.31,-272.836 3191.73,-107.107 3150.88,-71.7401 3107.85,-34.4832 2271.26,-28.8665 2014.91,-28.0201"/>
<polygon fill="black" stroke="black" points="2014.6,-24.5192 2004.59,-27.9876 2014.57,-31.5192 2014.6,-24.5192"/>
<text text-anchor="middle" x="3242.88" y="-205.91" font-family="Times,serif" font-size="14.00"> static(visible_from)</text>
</g>
<!-- n25 -->
<g id="node25" class="node"><title>n25</title>
<ellipse fill="none" stroke="black" cx="1818.88" cy="-134.74" rx="51.7379" ry="26.7407"/>
<text text-anchor="middle" x="1818.88" y="-138.54" font-family="Times,serif" font-size="14.00">&lt;general&gt;</text>
<text text-anchor="middle" x="1818.88" y="-123.54" font-family="Times,serif" font-size="14.00">lander</text>
</g>
<!-- n25&#45;&gt;n25 -->
<g id="edge4" class="edge"><title>n25&#45;&gt;n25</title>
<path fill="none" stroke="black" d="M1867.04,-144.744C1879.3,-144.086 1888.5,-140.752 1888.5,-134.74 1888.5,-130.513 1883.95,-127.61 1876.99,-126.03"/>
<polygon fill="black" stroke="black" points="1877.41,-122.555 1867.04,-124.736 1876.5,-129.496 1877.41,-122.555"/>
<text text-anchor="middle" x="1939" y="-131.04" font-family="Times,serif" font-size="14.00"> init(channel_free)</text>
</g>
<!-- n25&#45;&gt;n28 -->
<g id="edge52" class="edge"><title>n25&#45;&gt;n28</title>
<path fill="none" stroke="black" d="M1844.76,-111.288C1862.58,-95.817 1886.48,-75.0767 1905.99,-58.1474"/>
<polygon fill="black" stroke="black" points="1908.52,-60.5883 1913.78,-51.3907 1903.93,-55.3014 1908.52,-60.5883"/>
<text text-anchor="middle" x="1936.88" y="-75.5401" font-family="Times,serif" font-size="14.00"> static(at_lander)</text>
</g>
<!-- n27 -->
<g id="node27" class="node"><title>n27</title>
<ellipse fill="none" stroke="black" cx="285.882" cy="-392.35" rx="67.7647" ry="26.7407"/>
<text text-anchor="middle" x="285.882" y="-396.15" font-family="Times,serif" font-size="14.00">&lt;objective15&gt;</text>
<text text-anchor="middle" x="285.882" y="-381.15" font-family="Times,serif" font-size="14.00">objective</text>
</g>
<!-- n27&#45;&gt;n5 -->
<g id="edge99" class="edge"><title>n27&#45;&gt;n5</title>
<path fill="none" stroke="black" d="M329.61,-371.767C362.511,-358.047 409.099,-340.742 451.882,-332.48 659.975,-292.297 1311.29,-286.429 1531.94,-285.604"/>
<polygon fill="black" stroke="black" points="1532.13,-289.103 1542.12,-285.568 1532.11,-282.103 1532.13,-289.103"/>
<text text-anchor="middle" x="507.882" y="-336.28" font-family="Times,serif" font-size="14.00"> static(visible_from)</text>
</g>
<!-- n27&#45;&gt;n28 -->
<g id="edge105" class="edge"><title>n27&#45;&gt;n28</title>
<path fill="none" stroke="black" d="M234.549,-374.672C221.694,-368.135 209.21,-359.286 200.882,-347.48 158.504,-287.402 143.636,-242.911 185.882,-182.74 244.531,-99.2053 303.684,-132.576 401.882,-104.74 470.9,-85.1758 488.651,-80.2445 559.882,-71.7401 816.269,-41.1298 1618.07,-30.9782 1866.65,-28.5233"/>
<polygon fill="black" stroke="black" points="1867.05,-32.0197 1877.01,-28.4223 1866.98,-25.02 1867.05,-32.0197"/>
<text text-anchor="middle" x="241.882" y="-205.91" font-family="Times,serif" font-size="14.00"> static(visible_from)</text>
</g>
<!-- n28&#45;&gt;n5 -->
<g id="edge38" class="edge"><title>n28&#45;&gt;n5</title>
<path fill="none" stroke="black" d="M1877.88,-31.3102C1819.88,-37.6462 1734.77,-55.3911 1679.88,-104.74 1657.89,-124.51 1631.15,-201.644 1616.59,-247.877"/>
<polygon fill="black" stroke="black" points="1613.22,-246.932 1613.59,-257.52 1619.9,-249.012 1613.22,-246.932"/>
<text text-anchor="middle" x="1718.88" y="-131.04" font-family="Times,serif" font-size="14.00"> static(visible)</text>
</g>
<!-- n28&#45;&gt;n7 -->
<g id="edge55" class="edge"><title>n28&#45;&gt;n7</title>
<path fill="none" stroke="black" d="M2004.62,-27.9733C2086.69,-29.6109 2233.01,-37.6532 2352.88,-71.7401 2382.13,-80.0568 2412.89,-94.5886 2437.04,-107.494"/>
<polygon fill="black" stroke="black" points="2435.49,-110.638 2445.95,-112.344 2438.84,-104.49 2435.49,-110.638"/>
<text text-anchor="middle" x="2432.88" y="-75.5401" font-family="Times,serif" font-size="14.00"> static(visible)</text>
</g>
<!-- n28&#45;&gt;n28 -->
<g id="edge5" class="edge"><title>n28&#45;&gt;n28</title>
<path fill="none" stroke="black" d="M2000.69,-36.3053C2013.37,-35.3472 2022.52,-32.2021 2022.52,-26.8701 2022.52,-23.121 2018,-20.4531 2010.9,-18.8664"/>
<polygon fill="black" stroke="black" points="2011.08,-15.3569 2000.69,-17.4349 2010.1,-22.2891 2011.08,-15.3569"/>
<text text-anchor="middle" x="2107.02" y="-30.6701" font-family="Times,serif" font-size="14.00"> end(communicated_soil_data)</text>
<text text-anchor="middle" x="2107.02" y="-15.6701" font-family="Times,serif" font-size="14.00">init(at_soil_sample)</text>
</g>
<!-- n29 -->
<g id="node29" class="node"><title>n29</title>
<ellipse fill="none" stroke="black" cx="2195.88" cy="-392.35" rx="62.8651" ry="26.7407"/>
<text text-anchor="middle" x="2195.88" y="-396.15" font-family="Times,serif" font-size="14.00">&lt;objective5&gt;</text>
<text text-anchor="middle" x="2195.88" y="-381.15" font-family="Times,serif" font-size="14.00">objective</text>
</g>
<!-- n29&#45;&gt;n5 -->
<g id="edge63" class="edge"><title>n29&#45;&gt;n5</title>
<path fill="none" stroke="black" d="M2143.73,-377.17C2125.28,-372.693 2104.28,-368.206 2084.88,-365.48 2006,-354.396 1802.64,-372.089 1726.88,-347.48 1715.28,-343.71 1714.52,-338.465 1703.88,-332.48 1689.31,-324.281 1673.09,-316.127 1658.1,-308.969"/>
<polygon fill="black" stroke="black" points="1659.49,-305.755 1648.95,-304.649 1656.5,-312.084 1659.49,-305.755"/>
<text text-anchor="middle" x="1782.88" y="-336.28" font-family="Times,serif" font-size="14.00"> static(visible_from)</text>
</g>
<!-- n29&#45;&gt;n26 -->
<g id="edge45" class="edge"><title>n29&#45;&gt;n26</title>
<path fill="none" stroke="black" d="M2239.83,-373.112C2248.95,-370.022 2258.62,-367.246 2267.88,-365.48 2391.94,-341.84 2715.81,-386.611 2835.88,-347.48 2847.13,-343.813 2846.63,-336.152 2857.88,-332.48 2916.33,-313.406 3349.44,-316.658 3410.88,-314.48 3665.53,-305.452 3968.37,-293.453 4100.13,-288.171"/>
<polygon fill="black" stroke="black" points="4100.61,-291.655 4110.46,-287.757 4100.33,-284.66 4100.61,-291.655"/>
<text text-anchor="middle" x="2949.88" y="-336.28" font-family="Times,serif" font-size="14.00"> end(communicated_image_data)</text>
</g>
<!-- n29&#45;&gt;n28 -->
<g id="edge94" class="edge"><title>n29&#45;&gt;n28</title>
<path fill="none" stroke="black" d="M2242.11,-373.877C2250.62,-370.905 2259.48,-367.976 2267.88,-365.48 2301.16,-355.596 2322.35,-374.707 2343.88,-347.48 2348.02,-342.251 2348.29,-337.48 2343.88,-332.48 2322.7,-308.46 2227.92,-331.648 2200.88,-314.48 2174.24,-297.561 2189.69,-271.144 2162.88,-254.48 2130.81,-234.541 2019.13,-264.565 1993.88,-236.48 1977.91,-218.719 1982.61,-203.798 1993.88,-182.74 2000.69,-170.024 2014.08,-177.456 2020.88,-164.74 2033.47,-141.229 2026.53,-130.802 2020.88,-104.74 2017.47,-88.9945 2016.28,-84.0429 2005.88,-71.7401 2000.63,-65.5266 1994.29,-59.8232 1987.65,-54.7304"/>
<polygon fill="black" stroke="black" points="1989.3,-51.6106 1979.14,-48.6137 1985.22,-57.2937 1989.3,-51.6106"/>
<text text-anchor="middle" x="2050.88" y="-205.91" font-family="Times,serif" font-size="14.00"> static(visible_from)</text>
</g>
<!-- n30 -->
<g id="node30" class="node"><title>n30</title>
<ellipse fill="none" stroke="black" cx="3219.88" cy="-392.35" rx="67.7647" ry="26.7407"/>
<text text-anchor="middle" x="3219.88" y="-396.15" font-family="Times,serif" font-size="14.00">&lt;objective18&gt;</text>
<text text-anchor="middle" x="3219.88" y="-381.15" font-family="Times,serif" font-size="14.00">objective</text>
</g>
<!-- n30&#45;&gt;n5 -->
<g id="edge76" class="edge"><title>n30&#45;&gt;n5</title>
<path fill="none" stroke="black" d="M3168.88,-374.457C3155.97,-370.846 3142.03,-367.51 3128.88,-365.48 2859.95,-323.957 2784.65,-395.924 2516.88,-347.48 2496.55,-343.802 2493.22,-336.143 2472.88,-332.48 2331.98,-307.096 1971.61,-325.726 1828.88,-314.48 1777.07,-310.398 1718.84,-302.718 1674.87,-296.288"/>
<polygon fill="black" stroke="black" points="1675.27,-292.809 1664.87,-294.81 1674.25,-299.734 1675.27,-292.809"/>
<text text-anchor="middle" x="2572.88" y="-336.28" font-family="Times,serif" font-size="14.00"> static(visible_from)</text>
</g>
<!-- n30&#45;&gt;n7 -->
<g id="edge48" class="edge"><title>n30&#45;&gt;n7</title>
<path fill="none" stroke="black" d="M3218.93,-365.311C3217.06,-353.445 3212.68,-340.325 3202.88,-332.48 3176.99,-311.751 2936.86,-323.291 2904.88,-314.48 2848.92,-299.063 2841.13,-279.758 2788.88,-254.48 2719.09,-220.717 2702.28,-210.462 2629.88,-182.74 2601.85,-172.008 2570.21,-161.722 2543.4,-153.523"/>
<polygon fill="black" stroke="black" points="2544.35,-150.152 2533.76,-150.6 2542.32,-156.851 2544.35,-150.152"/>
<text text-anchor="middle" x="2960.88" y="-280.78" font-family="Times,serif" font-size="14.00"> static(visible_from)</text>
</g>
<!-- n30&#45;&gt;n26 -->
<g id="edge15" class="edge"><title>n30&#45;&gt;n26</title>
<path fill="none" stroke="black" d="M3269.25,-373.81C3278.99,-370.741 3289.2,-367.795 3298.88,-365.48 3350.05,-353.253 3363.93,-355.759 3415.88,-347.48 3456.36,-341.03 3466.17,-337.274 3506.88,-332.48 3723.32,-306.99 3981.45,-293.468 4100.59,-288.174"/>
<polygon fill="black" stroke="black" points="4100.82,-291.668 4110.65,-287.732 4100.51,-284.675 4100.82,-291.668"/>
<text text-anchor="middle" x="3598.88" y="-336.28" font-family="Times,serif" font-size="14.00"> end(communicated_image_data)</text>
</g>
<!-- n30&#45;&gt;n28 -->
<g id="edge62" class="edge"><title>n30&#45;&gt;n28</title>
<path fill="none" stroke="black" d="M3269.77,-374.038C3279.37,-370.983 3289.39,-367.984 3298.88,-365.48 3337.9,-355.183 3362.33,-378.717 3387.88,-347.48 3392.1,-342.32 3391.9,-337.803 3387.88,-332.48 3370.35,-309.232 3351.85,-325.469 3324.88,-314.48 3272.95,-293.319 3267.29,-271.585 3213.88,-254.48 3152.46,-234.807 3129.24,-261.718 3069.88,-236.48 2955.83,-187.983 2964.37,-104.656 2844.88,-71.7401 2689.35,-28.8942 2201.68,-26.5578 2014.78,-27.3107"/>
<polygon fill="black" stroke="black" points="2014.76,-23.8106 2004.78,-27.3551 2014.79,-30.8106 2014.76,-23.8106"/>
<text text-anchor="middle" x="3125.88" y="-205.91" font-family="Times,serif" font-size="14.00"> static(visible_from)</text>
</g>
<!-- n31 -->
<g id="node31" class="node"><title>n31</title>
<ellipse fill="none" stroke="black" cx="2814.88" cy="-134.74" rx="62.8651" ry="26.7407"/>
<text text-anchor="middle" x="2814.88" y="-138.54" font-family="Times,serif" font-size="14.00">&lt;objective6&gt;</text>
<text text-anchor="middle" x="2814.88" y="-123.54" font-family="Times,serif" font-size="14.00">objective</text>
</g>
<!-- n31&#45;&gt;n28 -->
<g id="edge80" class="edge"><title>n31&#45;&gt;n28</title>
<path fill="none" stroke="black" d="M2772.86,-114.692C2763.17,-110.9 2752.8,-107.303 2742.88,-104.74 2481.45,-37.1687 2158.26,-27.7946 2015.1,-27.2706"/>
<polygon fill="black" stroke="black" points="2014.71,-23.7698 2004.7,-27.2471 2014.69,-30.7698 2014.71,-23.7698"/>
<text text-anchor="middle" x="2713.88" y="-75.5401" font-family="Times,serif" font-size="14.00"> static(visible_from)</text>
</g>
<!-- n32 -->
<g id="node32" class="node"><title>n32</title>
<ellipse fill="none" stroke="black" cx="6471.88" cy="-392.35" rx="56.6372" ry="26.7407"/>
<text text-anchor="middle" x="6471.88" y="-396.15" font-family="Times,serif" font-size="14.00">&lt;camera0&gt;</text>
<text text-anchor="middle" x="6471.88" y="-381.15" font-family="Times,serif" font-size="14.00">camera</text>
</g>
<!-- n32&#45;&gt;n9 -->
<g id="edge95" class="edge"><title>n32&#45;&gt;n9</title>
<path fill="none" stroke="black" d="M6528.39,-389.443C6591.37,-385.356 6679.92,-372.547 6643.88,-332.48 6619.63,-305.522 6393.18,-292.838 6273.79,-287.983"/>
<polygon fill="black" stroke="black" points="6273.76,-284.479 6263.63,-287.578 6273.48,-291.473 6273.76,-284.479"/>
<text text-anchor="middle" x="6719.38" y="-336.28" font-family="Times,serif" font-size="14.00"> static(calibration_target)</text>
</g>
<!-- n32&#45;&gt;n20 -->
<g id="edge7" class="edge"><title>n32&#45;&gt;n20</title>
<path fill="none" stroke="black" d="M6415.69,-388.954C6279.93,-382.897 5941.67,-366.125 5893.88,-347.48 5883.86,-343.569 5884.97,-336.224 5874.88,-332.48 5786.47,-299.668 5544.5,-325.824 5450.88,-314.48 5422.15,-310.999 5390.59,-304.904 5364.35,-299.197"/>
<polygon fill="black" stroke="black" points="5365.1,-295.777 5354.58,-297.035 5363.59,-302.612 5365.1,-295.777"/>
<text text-anchor="middle" x="5937.88" y="-336.28" font-family="Times,serif" font-size="14.00"> static(supports)</text>
</g>
<!-- n32&#45;&gt;n24 -->
<g id="edge17" class="edge"><title>n32&#45;&gt;n24</title>
<path fill="none" stroke="black" d="M6528.33,-389.175C6641.87,-384.321 6889.64,-371.131 6919.88,-347.48 6928.11,-341.042 6933.27,-331.286 6936.5,-321.406"/>
<polygon fill="black" stroke="black" points="6939.92,-322.168 6939.13,-311.603 6933.16,-320.354 6939.92,-322.168"/>
<text text-anchor="middle" x="6974.88" y="-336.28" font-family="Times,serif" font-size="14.00"> static(supports)</text>
</g>
<!-- n32&#45;&gt;n38 -->
<g id="edge69" class="edge"><title>n32&#45;&gt;n38</title>
<path fill="none" stroke="black" d="M6416.92,-385.72C6376.4,-380.009 6320.75,-368.835 6275.88,-347.48 6266.17,-342.856 6266.93,-336.325 6256.88,-332.48 6224.76,-320.188 5735.92,-296.191 5565.75,-288.167"/>
<polygon fill="black" stroke="black" points="5565.88,-284.669 5555.73,-287.695 5565.55,-291.661 5565.88,-284.669"/>
<text text-anchor="middle" x="6322.38" y="-336.28" font-family="Times,serif" font-size="14.00"> static(on_board)</text>
</g>
<!-- n33&#45;&gt;n5 -->
<g id="edge84" class="edge"><title>n33&#45;&gt;n5</title>
<path fill="none" stroke="black" d="M2296.95,-373.035C2287.44,-370.034 2277.44,-367.311 2267.88,-365.48 2123.18,-337.768 2083.16,-365.08 1936.88,-347.48 1886.78,-341.452 1753.75,-315.364 1672.41,-299.01"/>
<polygon fill="black" stroke="black" points="1672.76,-295.51 1662.27,-296.967 1671.38,-302.372 1672.76,-295.51"/>
<text text-anchor="middle" x="1992.88" y="-336.28" font-family="Times,serif" font-size="14.00"> static(visible_from)</text>
</g>
<!-- n33&#45;&gt;n7 -->
<g id="edge57" class="edge"><title>n33&#45;&gt;n7</title>
<path fill="none" stroke="black" d="M2376.81,-368.551C2383.39,-362.42 2389.61,-355.295 2393.88,-347.48 2413.96,-310.743 2379.33,-284.14 2408.88,-254.48 2443.54,-219.696 2486.12,-273.921 2517.88,-236.48 2533.33,-218.267 2525.55,-205.36 2517.88,-182.74 2516.19,-177.757 2513.74,-172.888 2510.9,-168.286"/>
<polygon fill="black" stroke="black" points="2513.61,-166.049 2505.04,-159.807 2507.84,-170.025 2513.61,-166.049"/>
<text text-anchor="middle" x="2464.88" y="-280.78" font-family="Times,serif" font-size="14.00"> static(visible_from)</text>
</g>
<!-- n33&#45;&gt;n28 -->
<g id="edge22" class="edge"><title>n33&#45;&gt;n28</title>
<path fill="none" stroke="black" d="M2360.65,-366.061C2365.6,-354.653 2367.92,-341.701 2359.88,-332.48 2321.26,-288.186 2277.31,-347.773 2228.88,-314.48 2203.8,-297.239 2219.96,-273.095 2195.88,-254.48 2170.13,-234.569 2148.93,-258.422 2124.88,-236.48 2106.17,-219.405 2117.7,-205.15 2105.88,-182.74 2077.4,-128.715 2071.16,-111.588 2024.88,-71.7401 2015.73,-63.8567 2004.91,-56.8862 1994.14,-50.9534"/>
<polygon fill="black" stroke="black" points="1995.62,-47.7779 1985.14,-46.2167 1992.36,-53.972 1995.62,-47.7779"/>
<text text-anchor="middle" x="2180.88" y="-205.91" font-family="Times,serif" font-size="14.00"> static(visible_from)</text>
</g>
<!-- n34 -->
<g id="node34" class="node"><title>n34</title>
<ellipse fill="none" stroke="black" cx="67.8823" cy="-392.35" rx="67.7647" ry="26.7407"/>
<text text-anchor="middle" x="67.8823" y="-396.15" font-family="Times,serif" font-size="14.00">&lt;objective11&gt;</text>
<text text-anchor="middle" x="67.8823" y="-381.15" font-family="Times,serif" font-size="14.00">objective</text>
</g>
<!-- n34&#45;&gt;n5 -->
<g id="edge28" class="edge"><title>n34&#45;&gt;n5</title>
<path fill="none" stroke="black" d="M117.698,-373.925C160.204,-359.93 223.255,-341.221 279.882,-332.48 524.094,-294.785 1290.29,-287.261 1532.04,-285.813"/>
<polygon fill="black" stroke="black" points="1532.15,-289.313 1542.13,-285.754 1532.11,-282.313 1532.15,-289.313"/>
<text text-anchor="middle" x="335.882" y="-336.28" font-family="Times,serif" font-size="14.00"> static(visible_from)</text>
</g>
<!-- n34&#45;&gt;n28 -->
<g id="edge39" class="edge"><title>n34&#45;&gt;n28</title>
<path fill="none" stroke="black" d="M56.0089,-365.733C38.6082,-324.063 11.8407,-240.458 46.8823,-182.74 85.8779,-118.51 125.12,-127.019 196.882,-104.74 311.497,-69.1578 345.219,-80.866 464.882,-71.7401 1001.52,-30.8142 1650.62,-27.5092 1866.84,-27.6449"/>
<polygon fill="black" stroke="black" points="1867.11,-31.145 1877.11,-27.6542 1867.12,-24.145 1867.11,-31.145"/>
<text text-anchor="middle" x="102.882" y="-205.91" font-family="Times,serif" font-size="14.00"> static(visible_from)</text>
</g>
<!-- n35 -->
<g id="node35" class="node"><title>n35</title>
<ellipse fill="none" stroke="black" cx="5916.88" cy="-392.35" rx="56.6372" ry="26.7407"/>
<text text-anchor="middle" x="5916.88" y="-396.15" font-family="Times,serif" font-size="14.00">&lt;camera5&gt;</text>
<text text-anchor="middle" x="5916.88" y="-381.15" font-family="Times,serif" font-size="14.00">camera</text>
</g>
<!-- n35&#45;&gt;n9 -->
<g id="edge60" class="edge"><title>n35&#45;&gt;n9</title>
<path fill="none" stroke="black" d="M5973.3,-390.078C6089.41,-386.875 6346.48,-376.547 6372.88,-347.48 6406.39,-310.591 6334.1,-295.629 6273.18,-289.575"/>
<polygon fill="black" stroke="black" points="6273.41,-286.081 6263.13,-288.644 6272.77,-293.051 6273.41,-286.081"/>
<text text-anchor="middle" x="6448.38" y="-336.28" font-family="Times,serif" font-size="14.00"> static(calibration_target)</text>
</g>
<!-- n35&#45;&gt;n20 -->
<g id="edge108" class="edge"><title>n35&#45;&gt;n20</title>
<path fill="none" stroke="black" d="M5876.54,-373.267C5868.5,-370.245 5860.03,-367.455 5851.88,-365.48 5771.6,-346.013 5743.52,-378.325 5666.88,-347.48 5656.9,-343.463 5657.87,-336.468 5647.88,-332.48 5566.22,-299.893 5537.88,-327.177 5450.88,-314.48 5422.48,-310.335 5391.21,-304.228 5365.1,-298.687"/>
<polygon fill="black" stroke="black" points="5365.5,-295.193 5354.98,-296.516 5364.03,-302.037 5365.5,-295.193"/>
<text text-anchor="middle" x="5710.88" y="-336.28" font-family="Times,serif" font-size="14.00"> static(supports)</text>
</g>
<!-- n35&#45;&gt;n24 -->
<g id="edge78" class="edge"><title>n35&#45;&gt;n24</title>
<path fill="none" stroke="black" d="M5973.05,-388.48C6112.83,-381.164 6468.83,-361.415 6520.88,-347.48 6535.67,-343.522 6537.2,-336.788 6551.88,-332.48 6666.34,-298.911 6806.44,-289.273 6883.72,-286.535"/>
<polygon fill="black" stroke="black" points="6883.86,-290.033 6893.74,-286.207 6883.63,-283.036 6883.86,-290.033"/>
<text text-anchor="middle" x="6595.88" y="-336.28" font-family="Times,serif" font-size="14.00"> static(supports)</text>
</g>
<!-- n35&#45;&gt;n26 -->
<g id="edge102" class="edge"><title>n35&#45;&gt;n26</title>
<path fill="none" stroke="black" d="M5877.34,-373.059C5869.09,-369.972 5860.33,-367.211 5851.88,-365.48 5698.14,-333.973 5300.46,-374.592 5145.88,-347.48 5125.12,-343.838 5121.6,-336.379 5100.88,-332.48 4934.4,-301.15 4418.71,-289.667 4233.76,-286.493"/>
<polygon fill="black" stroke="black" points="4233.68,-282.991 4223.63,-286.322 4233.57,-289.99 4233.68,-282.991"/>
<text text-anchor="middle" x="5189.88" y="-336.28" font-family="Times,serif" font-size="14.00"> static(supports)</text>
</g>
<!-- n35&#45;&gt;n38 -->
<g id="edge8" class="edge"><title>n35&#45;&gt;n38</title>
<path fill="none" stroke="black" d="M5875.56,-373.994C5867.76,-370.978 5859.62,-368.003 5851.88,-365.48 5821.34,-355.521 5811.28,-360.426 5781.88,-347.48 5770.71,-342.562 5770.21,-337.024 5758.88,-332.48 5695.62,-307.102 5617.81,-295.254 5565.75,-289.839"/>
<polygon fill="black" stroke="black" points="5565.98,-286.345 5555.69,-288.839 5565.29,-293.311 5565.98,-286.345"/>
<text text-anchor="middle" x="5828.38" y="-336.28" font-family="Times,serif" font-size="14.00"> static(on_board)</text>
</g>
<!-- n36 -->
<g id="node36" class="node"><title>n36</title>
<ellipse fill="none" stroke="black" cx="3084.88" cy="-134.74" rx="62.8651" ry="26.7407"/>
<text text-anchor="middle" x="3084.88" y="-138.54" font-family="Times,serif" font-size="14.00">&lt;objective7&gt;</text>
<text text-anchor="middle" x="3084.88" y="-123.54" font-family="Times,serif" font-size="14.00">objective</text>
</g>
<!-- n36&#45;&gt;n28 -->
<g id="edge82" class="edge"><title>n36&#45;&gt;n28</title>
<path fill="none" stroke="black" d="M3062.79,-109.487C3048.6,-95.6995 3028.93,-79.6499 3007.88,-71.7401 2915.69,-37.0924 2241.45,-29.7377 2014.9,-28.2385"/>
<polygon fill="black" stroke="black" points="2014.8,-24.7379 2004.78,-28.1735 2014.75,-31.7378 2014.8,-24.7379"/>
<text text-anchor="middle" x="3090.88" y="-75.5401" font-family="Times,serif" font-size="14.00"> static(visible_from)</text>
</g>
<!-- n37 -->
<g id="node37" class="node"><title>n37</title>
<ellipse fill="none" stroke="black" cx="3375.88" cy="-392.35" rx="67.7647" ry="26.7407"/>
<text text-anchor="middle" x="3375.88" y="-396.15" font-family="Times,serif" font-size="14.00">&lt;objective14&gt;</text>
<text text-anchor="middle" x="3375.88" y="-381.15" font-family="Times,serif" font-size="14.00">objective</text>
</g>
<!-- n37&#45;&gt;n5 -->
<g id="edge72" class="edge"><title>n37&#45;&gt;n5</title>
<path fill="none" stroke="black" d="M3327.03,-373.526C3317.15,-370.443 3306.77,-367.564 3296.88,-365.48 3217.78,-348.803 3195.75,-359.969 3115.88,-347.48 3084.45,-342.565 3077.5,-336.066 3045.88,-332.48 2777.13,-301.997 2098.65,-333.952 1828.88,-314.48 1777.04,-310.738 1718.81,-303.046 1674.86,-296.523"/>
<polygon fill="black" stroke="black" points="1675.26,-293.045 1664.85,-295.023 1674.22,-299.968 1675.26,-293.045"/>
<text text-anchor="middle" x="3171.88" y="-336.28" font-family="Times,serif" font-size="14.00"> static(visible_from)</text>
</g>
<!-- n37&#45;&gt;n7 -->
<g id="edge98" class="edge"><title>n37&#45;&gt;n7</title>
<path fill="none" stroke="black" d="M3376.68,-365.282C3375.59,-353.557 3372.08,-340.566 3362.88,-332.48 3329.04,-302.724 3204.64,-325.273 3160.88,-314.48 3093.57,-297.876 3083.77,-272.719 3016.88,-254.48 2960.61,-239.136 2943.9,-248.774 2886.88,-236.48 2804.44,-218.704 2786.66,-203.396 2704.88,-182.74 2653.1,-169.66 2593.93,-157.307 2549.55,-148.55"/>
<polygon fill="black" stroke="black" points="2549.95,-145.061 2539.46,-146.571 2548.6,-151.93 2549.95,-145.061"/>
<text text-anchor="middle" x="3216.88" y="-280.78" font-family="Times,serif" font-size="14.00"> static(visible_from)</text>
</g>
<!-- n37&#45;&gt;n20 -->
<g id="edge58" class="edge"><title>n37&#45;&gt;n20</title>
<path fill="none" stroke="black" d="M3423.37,-372.984C3433.01,-369.946 3443.17,-367.222 3452.88,-365.48 3581.34,-342.451 3909.95,-359.681 4039.88,-347.48 4082.44,-343.484 4092.34,-336.677 4134.88,-332.48 4556.11,-290.922 5065.96,-285.865 5242.82,-285.432"/>
<polygon fill="black" stroke="black" points="5243,-288.932 5252.99,-285.412 5242.98,-281.932 5243,-288.932"/>
<text text-anchor="middle" x="4226.88" y="-336.28" font-family="Times,serif" font-size="14.00"> end(communicated_image_data)</text>
</g>
<!-- n37&#45;&gt;n28 -->
<g id="edge49" class="edge"><title>n37&#45;&gt;n28</title>
<path fill="none" stroke="black" d="M3395.09,-366.307C3413.98,-338.421 3437.72,-292.297 3420.88,-254.48 3416.02,-243.556 3407.84,-246.205 3400.88,-236.48 3385.76,-215.354 3395.43,-201.899 3377.88,-182.74 3307.38,-105.755 3271.66,-98.9738 3170.88,-71.7401 3059.68,-41.6892 2263.11,-31.1372 2014.68,-28.5568"/>
<polygon fill="black" stroke="black" points="2014.7,-25.0569 2004.67,-28.454 2014.63,-32.0566 2014.7,-25.0569"/>
<text text-anchor="middle" x="3456.88" y="-205.91" font-family="Times,serif" font-size="14.00"> static(visible_from)</text>
</g>
<!-- n38&#45;&gt;n7 -->
<g id="edge36" class="edge"><title>n38&#45;&gt;n7</title>
<path fill="none" stroke="black" d="M5465.04,-272.186C5437.97,-265.622 5402.13,-257.976 5369.88,-254.48 5341.81,-251.437 3360.38,-252.135 3336.88,-236.48 3315.26,-222.077 3335.34,-197.387 3313.88,-182.74 3287.67,-164.847 2774.54,-166.994 2742.88,-164.74 2678.08,-160.126 2604.55,-151.663 2552.09,-145.066"/>
<polygon fill="black" stroke="black" points="2552.25,-141.558 2541.88,-143.773 2551.37,-148.502 2552.25,-141.558"/>
<text text-anchor="middle" x="3357.38" y="-205.91" font-family="Times,serif" font-size="14.00"> init(at)</text>
</g>
<!-- n38&#45;&gt;n38 -->
<g id="edge6" class="edge"><title>n38&#45;&gt;n38</title>
<path fill="none" stroke="black" d="M5552.67,-294.53C5564.76,-294 5573.97,-290.65 5573.97,-284.48 5573.97,-280.238 5569.62,-277.329 5562.97,-275.753"/>
<polygon fill="black" stroke="black" points="5563.03,-272.233 5552.67,-274.43 5562.14,-279.176 5563.03,-272.233"/>
<text text-anchor="middle" x="5671.47" y="-303.28" font-family="Times,serif" font-size="14.00"> static(equipped_for_rock_analysis)</text>
<text text-anchor="middle" x="5671.47" y="-288.28" font-family="Times,serif" font-size="14.00">static(equipped_for_imaging)</text>
<text text-anchor="middle" x="5671.47" y="-273.28" font-family="Times,serif" font-size="14.00">init(available)</text>
<text text-anchor="middle" x="5671.47" y="-258.28" font-family="Times,serif" font-size="14.00">static(equipped_for_soil_analysis)</text>
</g>
<!-- n39 -->
<g id="node39" class="node"><title>n39</title>
<ellipse fill="none" stroke="black" cx="2498.88" cy="-392.35" rx="67.7647" ry="26.7407"/>
<text text-anchor="middle" x="2498.88" y="-396.15" font-family="Times,serif" font-size="14.00">&lt;objective24&gt;</text>
<text text-anchor="middle" x="2498.88" y="-381.15" font-family="Times,serif" font-size="14.00">objective</text>
</g>
<!-- n39&#45;&gt;n5 -->
<g id="edge10" class="edge"><title>n39&#45;&gt;n5</title>
<path fill="none" stroke="black" d="M2450.95,-373.043C2441.44,-370.041 2431.44,-367.315 2421.88,-365.48 2279.81,-338.198 2239.23,-373.253 2096.88,-347.48 2074.89,-343.498 2070.82,-336.751 2048.88,-332.48 1952.59,-313.735 1926.44,-324.809 1828.88,-314.48 1777.38,-309.027 1719.36,-301.438 1675.42,-295.391"/>
<polygon fill="black" stroke="black" points="1675.81,-291.91 1665.42,-294.007 1674.85,-298.844 1675.81,-291.91"/>
<text text-anchor="middle" x="2152.88" y="-336.28" font-family="Times,serif" font-size="14.00"> static(visible_from)</text>
</g>
<!-- n39&#45;&gt;n7 -->
<g id="edge41" class="edge"><title>n39&#45;&gt;n7</title>
<path fill="none" stroke="black" d="M2461.46,-369.727C2447.31,-358.793 2436.78,-345.18 2446.88,-332.48 2469.03,-304.638 2499.72,-339.638 2524.88,-314.48 2550.04,-289.323 2538.86,-271.829 2542.88,-236.48 2545.58,-212.749 2553.42,-204.172 2542.88,-182.74 2539.27,-175.402 2533.9,-168.887 2527.83,-163.221"/>
<polygon fill="black" stroke="black" points="2529.73,-160.251 2519.82,-156.5 2525.23,-165.611 2529.73,-160.251"/>
<text text-anchor="middle" x="2598.88" y="-280.78" font-family="Times,serif" font-size="14.00"> static(visible_from)</text>
</g>
<!-- n39&#45;&gt;n28 -->
<g id="edge26" class="edge"><title>n39&#45;&gt;n28</title>
<path fill="none" stroke="black" d="M2476.03,-367.035C2468,-355.576 2462.96,-342.301 2471.88,-332.48 2499.95,-301.578 2621.78,-333.623 2658.88,-314.48 2690.24,-298.3 2683.09,-276.23 2710.88,-254.48 2780.02,-200.361 2841.02,-239.612 2886.88,-164.74 2900.81,-142.001 2902.88,-126.076 2886.88,-104.74 2834.85,-35.3429 2228.48,-28.1006 2014.82,-27.7164"/>
<polygon fill="black" stroke="black" points="2014.65,-24.2163 2004.65,-27.7028 2014.64,-31.2163 2014.65,-24.2163"/>
<text text-anchor="middle" x="2929.88" y="-205.91" font-family="Times,serif" font-size="14.00"> static(visible_from)</text>
</g>
<!-- n40&#45;&gt;n28 -->
<g id="edge33" class="edge"><title>n40&#45;&gt;n28</title>
<path fill="none" stroke="black" d="M6749.75,-199.587C6565.66,-173.741 6013.21,-99.5147 5551.88,-71.7401 4828.11,-28.1648 2464.34,-27.5186 2015.01,-27.7995"/>
<polygon fill="black" stroke="black" points="2014.75,-24.2996 2004.75,-27.8063 2014.75,-31.2996 2014.75,-24.2996"/>
<text text-anchor="middle" x="6529.88" y="-131.04" font-family="Times,serif" font-size="14.00"> static(visible_from)</text>
</g>
<!-- n41 -->
<g id="node41" class="node"><title>n41</title>
<ellipse fill="none" stroke="black" cx="3630.88" cy="-134.74" rx="67.7647" ry="26.7407"/>
<text text-anchor="middle" x="3630.88" y="-138.54" font-family="Times,serif" font-size="14.00">&lt;objective21&gt;</text>
<text text-anchor="middle" x="3630.88" y="-123.54" font-family="Times,serif" font-size="14.00">objective</text>
</g>
<!-- n41&#45;&gt;n28 -->
<g id="edge61" class="edge"><title>n41&#45;&gt;n28</title>
<path fill="none" stroke="black" d="M3607.1,-109.365C3591.9,-95.532 3570.94,-79.4783 3548.88,-71.7401 3475.76,-46.093 2320.44,-31.9388 2014.66,-28.6296"/>
<polygon fill="black" stroke="black" points="2014.61,-25.129 2004.57,-28.5211 2014.53,-32.1286 2014.61,-25.129"/>
<text text-anchor="middle" x="3632.88" y="-75.5401" font-family="Times,serif" font-size="14.00"> static(visible_from)</text>
</g>
<!-- n42 -->
<g id="node42" class="node"><title>n42</title>
<ellipse fill="none" stroke="black" cx="4822.88" cy="-392.35" rx="67.7647" ry="26.7407"/>
<text text-anchor="middle" x="4822.88" y="-396.15" font-family="Times,serif" font-size="14.00">&lt;objective22&gt;</text>
<text text-anchor="middle" x="4822.88" y="-381.15" font-family="Times,serif" font-size="14.00">objective</text>
</g>
<!-- n42&#45;&gt;n5 -->
<g id="edge43" class="edge"><title>n42&#45;&gt;n5</title>
<path fill="none" stroke="black" d="M4774,-373.447C4763.23,-370.203 4751.78,-367.282 4740.88,-365.48 4651.3,-350.672 4010.35,-375.199 3923.88,-347.48 3912.61,-343.868 3913.18,-336.018 3901.88,-332.48 3846.93,-315.267 1886.33,-318.451 1828.88,-314.48 1777.03,-310.897 1718.8,-303.198 1674.85,-296.632"/>
<polygon fill="black" stroke="black" points="1675.26,-293.155 1664.85,-295.121 1674.21,-300.076 1675.26,-293.155"/>
<text text-anchor="middle" x="3979.88" y="-336.28" font-family="Times,serif" font-size="14.00"> static(visible_from)</text>
</g>
<!-- n42&#45;&gt;n20 -->
<g id="edge87" class="edge"><title>n42&#45;&gt;n20</title>
<path fill="none" stroke="black" d="M4852.45,-368.075C4870.14,-355.411 4893.64,-340.693 4916.88,-332.48 5026.73,-293.658 5163.64,-285.719 5242.58,-284.734"/>
<polygon fill="black" stroke="black" points="5242.88,-288.232 5252.85,-284.641 5242.82,-281.232 5242.88,-288.232"/>
<text text-anchor="middle" x="5008.88" y="-336.28" font-family="Times,serif" font-size="14.00"> end(communicated_image_data)</text>
</g>
<!-- n42&#45;&gt;n26 -->
<g id="edge66" class="edge"><title>n42&#45;&gt;n26</title>
<path fill="none" stroke="black" d="M4773.46,-373.903C4762.82,-370.672 4751.56,-367.64 4740.88,-365.48 4656.88,-348.491 4629.81,-375.714 4548.88,-347.48 4537.36,-343.46 4537.33,-336.711 4525.88,-332.48 4428.46,-296.473 4307.25,-287.367 4233.54,-285.436"/>
<polygon fill="black" stroke="black" points="4233.53,-281.935 4223.46,-285.209 4233.38,-288.933 4233.53,-281.935"/>
<text text-anchor="middle" x="4640.88" y="-336.28" font-family="Times,serif" font-size="14.00"> end(communicated_image_data)</text>
</g>
<!-- n42&#45;&gt;n28 -->
<g id="edge20" class="edge"><title>n42&#45;&gt;n28</title>
<path fill="none" stroke="black" d="M4790.67,-368.649C4769.92,-354.348 4744.68,-337.644 4732.88,-332.48 4296.32,-141.46 4165.05,-136.037 3692.88,-71.7401 3361.21,-26.5747 2305.42,-26.64 2015.28,-27.55"/>
<polygon fill="black" stroke="black" points="2014.87,-24.0512 2004.88,-27.584 2014.89,-31.0512 2014.87,-24.0512"/>
<text text-anchor="middle" x="4550.88" y="-205.91" font-family="Times,serif" font-size="14.00"> static(visible_from)</text>
</g>
<!-- n43 -->
<g id="node43" class="node"><title>n43</title>
<ellipse fill="none" stroke="black" cx="1006.88" cy="-392.35" rx="67.7647" ry="26.7407"/>
<text text-anchor="middle" x="1006.88" y="-396.15" font-family="Times,serif" font-size="14.00">&lt;objective23&gt;</text>
<text text-anchor="middle" x="1006.88" y="-381.15" font-family="Times,serif" font-size="14.00">objective</text>
</g>
<!-- n43&#45;&gt;n5 -->
<g id="edge46" class="edge"><title>n43&#45;&gt;n5</title>
<path fill="none" stroke="black" d="M1028.26,-366.563C1040.54,-354.085 1057.06,-340.037 1074.88,-332.48 1155.27,-298.403 1405.65,-289.027 1531.74,-286.452"/>
<polygon fill="black" stroke="black" points="1532.15,-289.945 1542.08,-286.25 1532.01,-282.946 1532.15,-289.945"/>
<text text-anchor="middle" x="1130.88" y="-336.28" font-family="Times,serif" font-size="14.00"> static(visible_from)</text>
</g>
<!-- n43&#45;&gt;n7 -->
<g id="edge77" class="edge"><title>n43&#45;&gt;n7</title>
<path fill="none" stroke="black" d="M1054.36,-372.904C1063.99,-369.872 1074.16,-367.171 1083.88,-365.48 1108.24,-361.244 1956.58,-365.141 1973.88,-347.48 1998.8,-322.056 1944.83,-335.435 1930.88,-314.48 1916.11,-292.28 1912.36,-273.665 1930.88,-254.48 1970.42,-213.528 2396.5,-269.476 2442.88,-236.48 2454.01,-228.563 2465.1,-197.04 2472.6,-171.337"/>
<polygon fill="black" stroke="black" points="2476.03,-172.054 2475.38,-161.479 2469.29,-170.15 2476.03,-172.054"/>
<text text-anchor="middle" x="1986.88" y="-280.78" font-family="Times,serif" font-size="14.00"> static(visible_from)</text>
</g>
<!-- n43&#45;&gt;n28 -->
<g id="edge47" class="edge"><title>n43&#45;&gt;n28</title>
<path fill="none" stroke="black" d="M950.409,-377.216C931.857,-372.957 911.073,-368.592 891.882,-365.48 852.419,-359.081 746.74,-368.74 712.882,-347.48 619.89,-289.09 598.572,-190.71 666.882,-104.74 685.815,-80.9124 697.547,-79.8426 726.882,-71.7401 836.294,-41.5205 1620.22,-31.1025 1866.82,-28.553"/>
<polygon fill="black" stroke="black" points="1867.15,-32.0499 1877.11,-28.448 1867.08,-25.0503 1867.15,-32.0499"/>
<text text-anchor="middle" x="685.882" y="-205.91" font-family="Times,serif" font-size="14.00"> static(visible_from)</text>
</g>
<!-- n44 -->
<g id="node44" class="node"><title>n44</title>
<ellipse fill="none" stroke="black" cx="814.882" cy="-392.35" rx="67.7647" ry="26.7407"/>
<text text-anchor="middle" x="814.882" y="-396.15" font-family="Times,serif" font-size="14.00">&lt;objective12&gt;</text>
<text text-anchor="middle" x="814.882" y="-381.15" font-family="Times,serif" font-size="14.00">objective</text>
</g>
<!-- n44&#45;&gt;n5 -->
<g id="edge34" class="edge"><title>n44&#45;&gt;n5</title>
<path fill="none" stroke="black" d="M850.79,-369.348C874.144,-356.204 905.755,-340.541 935.882,-332.48 992.268,-317.394 1370.32,-297.155 1532.37,-289.052"/>
<polygon fill="black" stroke="black" points="1532.91,-292.53 1542.72,-288.536 1532.56,-285.538 1532.91,-292.53"/>
<text text-anchor="middle" x="991.882" y="-336.28" font-family="Times,serif" font-size="14.00"> static(visible_from)</text>
</g>
<!-- n44&#45;&gt;n28 -->
<g id="edge32" class="edge"><title>n44&#45;&gt;n28</title>
<path fill="none" stroke="black" d="M761.329,-375.812C736.533,-365.769 715.254,-351.094 728.882,-332.48 812.334,-218.5 906.173,-300.922 1031.88,-236.48 1140.9,-180.594 1137.89,-113.993 1252.88,-71.7401 1363.8,-30.9846 1712.94,-27.0006 1866.81,-27.3096"/>
<polygon fill="black" stroke="black" points="1867.1,-30.8103 1877.11,-27.3373 1867.12,-23.8103 1867.1,-30.8103"/>
<text text-anchor="middle" x="1163.88" y="-205.91" font-family="Times,serif" font-size="14.00"> static(visible_from)</text>
</g>
</g>
</svg>
