<?xml version="1.0" encoding="UTF-8" standalone="no"?>
<!DOCTYPE svg PUBLIC "-//W3C//DTD SVG 1.1//EN"
 "http://www.w3.org/Graphics/SVG/1.1/DTD/svg11.dtd">
<!-- Generated by graphviz version 2.38.0 (20140413.2041)
 -->
<!-- Title: Struc Pages: 1 -->
<svg width="4795pt" height="493pt"
 viewBox="0.00 0.00 4795.18 493.22" xmlns="http://www.w3.org/2000/svg" xmlns:xlink="http://www.w3.org/1999/xlink">
<g id="graph0" class="graph" transform="scale(1 1) rotate(0) translate(4 489.22)">
<title>Struc</title>
<polygon fill="white" stroke="none" points="-4,4 -4,-489.22 4791.18,-489.22 4791.18,4 -4,4"/>
<!-- n1 -->
<g id="node1" class="node"><title>n1</title>
<ellipse fill="none" stroke="black" cx="1082.18" cy="-458.35" rx="56.6372" ry="26.7407"/>
<text text-anchor="middle" x="1082.18" y="-462.15" font-family="Times,serif" font-size="14.00">&lt;camera1&gt;</text>
<text text-anchor="middle" x="1082.18" y="-447.15" font-family="Times,serif" font-size="14.00">camera</text>
</g>
<!-- n14 -->
<g id="node14" class="node"><title>n14</title>
<ellipse fill="none" stroke="black" cx="3007.18" cy="-350.48" rx="62.8651" ry="26.7407"/>
<text text-anchor="middle" x="3007.18" y="-354.28" font-family="Times,serif" font-size="14.00">&lt;objective2&gt;</text>
<text text-anchor="middle" x="3007.18" y="-339.28" font-family="Times,serif" font-size="14.00">objective</text>
</g>
<!-- n1&#45;&gt;n14 -->
<g id="edge56" class="edge"><title>n1&#45;&gt;n14</title>
<path fill="none" stroke="black" d="M1136.56,-450.887C1201.72,-442.956 1314.13,-428.678 1410.18,-413.48 1446.77,-407.689 1455.3,-402.057 1492.18,-398.48 1651.77,-382.999 2777.95,-411.972 2935.18,-380.48 2942.26,-379.061 2949.54,-376.964 2956.61,-374.535"/>
<polygon fill="black" stroke="black" points="2957.92,-377.783 2966.1,-371.05 2955.51,-371.212 2957.92,-377.783"/>
<text text-anchor="middle" x="1560.68" y="-402.28" font-family="Times,serif" font-size="14.00"> static(calibration_target)</text>
</g>
<!-- n20 -->
<g id="node20" class="node"><title>n20</title>
<ellipse fill="none" stroke="black" cx="1509.18" cy="-242.61" rx="48.1667" ry="26.7407"/>
<text text-anchor="middle" x="1509.18" y="-246.41" font-family="Times,serif" font-size="14.00">&lt;colour&gt;</text>
<text text-anchor="middle" x="1509.18" y="-231.41" font-family="Times,serif" font-size="14.00">mode</text>
</g>
<!-- n1&#45;&gt;n20 -->
<g id="edge22" class="edge"><title>n1&#45;&gt;n20</title>
<path fill="none" stroke="black" d="M1138.77,-457.138C1200.72,-455.095 1301.93,-446.368 1382.18,-413.48 1405.12,-404.074 1410.93,-399.224 1427.18,-380.48 1446.97,-357.64 1443.81,-346.505 1459.18,-320.48 1467.87,-305.748 1478.08,-289.839 1486.99,-276.337"/>
<polygon fill="black" stroke="black" points="1490.02,-278.114 1492.64,-267.849 1484.19,-274.239 1490.02,-278.114"/>
<text text-anchor="middle" x="1503.18" y="-346.78" font-family="Times,serif" font-size="14.00"> static(supports)</text>
</g>
<!-- n22 -->
<g id="node22" class="node"><title>n22</title>
<ellipse fill="none" stroke="black" cx="738.175" cy="-242.61" rx="56.6372" ry="26.7407"/>
<text text-anchor="middle" x="738.175" y="-246.41" font-family="Times,serif" font-size="14.00">&lt;high_res&gt;</text>
<text text-anchor="middle" x="738.175" y="-231.41" font-family="Times,serif" font-size="14.00">mode</text>
</g>
<!-- n1&#45;&gt;n22 -->
<g id="edge68" class="edge"><title>n1&#45;&gt;n22</title>
<path fill="none" stroke="black" d="M1026,-454.601C838.444,-445.397 245.342,-416.103 241.175,-413.48 227.036,-404.581 227.303,-396.669 223.175,-380.48 216.586,-354.64 205.766,-340.68 223.175,-320.48 280.219,-254.29 544.781,-244.232 670.923,-243.274"/>
<polygon fill="black" stroke="black" points="671.247,-246.772 681.226,-243.214 671.206,-239.773 671.247,-246.772"/>
<text text-anchor="middle" x="267.175" y="-346.78" font-family="Times,serif" font-size="14.00"> static(supports)</text>
</g>
<!-- n30 -->
<g id="node30" class="node"><title>n30</title>
<ellipse fill="none" stroke="black" cx="368.175" cy="-350.48" rx="48.1667" ry="26.7407"/>
<text text-anchor="middle" x="368.175" y="-354.28" font-family="Times,serif" font-size="14.00">&lt;rover0&gt;</text>
<text text-anchor="middle" x="368.175" y="-339.28" font-family="Times,serif" font-size="14.00">rover</text>
</g>
<!-- n1&#45;&gt;n30 -->
<g id="edge43" class="edge"><title>n1&#45;&gt;n30</title>
<path fill="none" stroke="black" d="M1028.03,-450.557C975.669,-443.414 894.329,-430.8 825.175,-413.48 804.725,-408.358 800.76,-403.033 780.175,-398.48 746.331,-390.995 530.239,-368.173 425.261,-357.325"/>
<polygon fill="black" stroke="black" points="425.461,-353.827 415.154,-356.282 424.742,-360.79 425.461,-353.827"/>
<text text-anchor="middle" x="871.675" y="-402.28" font-family="Times,serif" font-size="14.00"> static(on_board)</text>
</g>
<!-- n2 -->
<g id="node2" class="node"><title>n2</title>
<ellipse fill="none" stroke="black" cx="1603.18" cy="-458.35" rx="56.6372" ry="26.7407"/>
<text text-anchor="middle" x="1603.18" y="-462.15" font-family="Times,serif" font-size="14.00">&lt;camera4&gt;</text>
<text text-anchor="middle" x="1603.18" y="-447.15" font-family="Times,serif" font-size="14.00">camera</text>
</g>
<!-- n2&#45;&gt;n14 -->
<g id="edge41" class="edge"><title>n2&#45;&gt;n14</title>
<path fill="none" stroke="black" d="M1643.08,-439.025C1651.23,-435.984 1659.86,-433.248 1668.18,-431.48 1702.63,-424.155 2900.74,-387.877 2935.18,-380.48 2942.24,-378.963 2949.51,-376.809 2956.58,-374.351"/>
<polygon fill="black" stroke="black" points="2957.89,-377.595 2966.06,-370.843 2955.47,-371.029 2957.89,-377.595"/>
<text text-anchor="middle" x="2588.68" y="-402.28" font-family="Times,serif" font-size="14.00"> static(calibration_target)</text>
</g>
<!-- n16 -->
<g id="node16" class="node"><title>n16</title>
<ellipse fill="none" stroke="black" cx="4372.18" cy="-242.61" rx="53.9813" ry="26.7407"/>
<text text-anchor="middle" x="4372.18" y="-246.41" font-family="Times,serif" font-size="14.00">&lt;low_res&gt;</text>
<text text-anchor="middle" x="4372.18" y="-231.41" font-family="Times,serif" font-size="14.00">mode</text>
</g>
<!-- n2&#45;&gt;n16 -->
<g id="edge66" class="edge"><title>n2&#45;&gt;n16</title>
<path fill="none" stroke="black" d="M1642.7,-439.01C1650.96,-435.927 1659.72,-433.18 1668.18,-431.48 1776.36,-409.724 2550.85,-415.8 2661.18,-413.48 2661.18,-413.48 4040.18,-380.48 4040.18,-380.48 4064.54,-364.31 4043.2,-337.216 4067.18,-320.48 4113.58,-288.094 4270.57,-327.795 4321.18,-302.48 4332.91,-296.609 4343.08,-286.728 4351.18,-276.721"/>
<polygon fill="black" stroke="black" points="4353.98,-278.828 4357.23,-268.744 4348.4,-274.601 4353.98,-278.828"/>
<text text-anchor="middle" x="4111.18" y="-346.78" font-family="Times,serif" font-size="14.00"> static(supports)</text>
</g>
<!-- n2&#45;&gt;n22 -->
<g id="edge15" class="edge"><title>n2&#45;&gt;n22</title>
<path fill="none" stroke="black" d="M1562.35,-439.627C1554.43,-436.61 1546.12,-433.73 1538.18,-431.48 1493.46,-418.821 1479.1,-428.645 1435.18,-413.48 1421.83,-408.873 1420.82,-402.086 1407.18,-398.48 1368.06,-388.147 707.427,-409.439 679.175,-380.48 650.396,-350.981 680.263,-305.211 706.942,-274.833"/>
<polygon fill="black" stroke="black" points="709.848,-276.839 713.974,-267.08 704.663,-272.136 709.848,-276.839"/>
<text text-anchor="middle" x="723.175" y="-346.78" font-family="Times,serif" font-size="14.00"> static(supports)</text>
</g>
<!-- n2&#45;&gt;n30 -->
<g id="edge72" class="edge"><title>n2&#45;&gt;n30</title>
<path fill="none" stroke="black" d="M1563.62,-439.137C1555.37,-436.045 1546.61,-433.262 1538.18,-431.48 1433.52,-409.382 1159.12,-445.871 1057.18,-413.48 1045.54,-409.785 1045.79,-402.226 1034.18,-398.48 951.392,-371.784 729.908,-387.044 643.175,-380.48 567.464,-374.751 480.341,-365.032 424.803,-358.44"/>
<polygon fill="black" stroke="black" points="425.155,-354.957 414.811,-357.247 424.325,-361.908 425.155,-354.957"/>
<text text-anchor="middle" x="1103.68" y="-402.28" font-family="Times,serif" font-size="14.00"> static(on_board)</text>
</g>
<!-- n3 -->
<g id="node3" class="node"><title>n3</title>
<ellipse fill="none" stroke="black" cx="1082.18" cy="-350.48" rx="62.8651" ry="26.7407"/>
<text text-anchor="middle" x="1082.18" y="-354.28" font-family="Times,serif" font-size="14.00">&lt;objective9&gt;</text>
<text text-anchor="middle" x="1082.18" y="-339.28" font-family="Times,serif" font-size="14.00">objective</text>
</g>
<!-- n4 -->
<g id="node4" class="node"><title>n4</title>
<ellipse fill="none" stroke="black" cx="2931.18" cy="-137.87" rx="63.7795" ry="26.7407"/>
<text text-anchor="middle" x="2931.18" y="-141.67" font-family="Times,serif" font-size="14.00">&lt;waypoint1&gt;</text>
<text text-anchor="middle" x="2931.18" y="-126.67" font-family="Times,serif" font-size="14.00">waypoint</text>
</g>
<!-- n3&#45;&gt;n4 -->
<g id="edge11" class="edge"><title>n3&#45;&gt;n4</title>
<path fill="none" stroke="black" d="M1126.22,-331.139C1145.45,-322.826 1168.14,-312.605 1188.18,-302.48 1257.59,-267.396 1265.5,-237.491 1340.18,-215.74 1486.71,-173.061 2563.62,-146.827 2857.35,-140.413"/>
<polygon fill="black" stroke="black" points="2857.54,-143.91 2867.47,-140.193 2857.39,-136.911 2857.54,-143.91"/>
<text text-anchor="middle" x="1396.18" y="-238.91" font-family="Times,serif" font-size="14.00"> static(visible_from)</text>
</g>
<!-- n3&#45;&gt;n22 -->
<g id="edge55" class="edge"><title>n3&#45;&gt;n22</title>
<path fill="none" stroke="black" d="M1038.84,-330.794C1028.02,-326.791 1016.32,-323.01 1005.18,-320.48 914.688,-299.936 881.311,-341.609 797.175,-302.48 784.21,-296.451 772.464,-286.305 762.927,-276.119"/>
<polygon fill="black" stroke="black" points="765.331,-273.555 756.081,-268.39 760.091,-278.196 765.331,-273.555"/>
<text text-anchor="middle" x="889.175" y="-291.28" font-family="Times,serif" font-size="14.00"> end(communicated_image_data)</text>
</g>
<!-- n23 -->
<g id="node23" class="node"><title>n23</title>
<ellipse fill="none" stroke="black" cx="3065.18" cy="-242.61" rx="63.7795" ry="26.7407"/>
<text text-anchor="middle" x="3065.18" y="-246.41" font-family="Times,serif" font-size="14.00">&lt;waypoint0&gt;</text>
<text text-anchor="middle" x="3065.18" y="-231.41" font-family="Times,serif" font-size="14.00">waypoint</text>
</g>
<!-- n3&#45;&gt;n23 -->
<g id="edge28" class="edge"><title>n3&#45;&gt;n23</title>
<path fill="none" stroke="black" d="M1123.72,-330.164C1133.52,-326.338 1144.06,-322.793 1154.18,-320.48 1271.42,-293.679 1304.49,-314.264 1424.18,-302.48 1475.47,-297.43 1487.76,-291.14 1539.18,-287.48 1699.67,-276.055 2828.49,-296.121 2987.18,-269.48 2994.51,-268.248 3002.1,-266.445 3009.52,-264.354"/>
<polygon fill="black" stroke="black" points="3010.59,-267.688 3019.16,-261.463 3008.58,-260.983 3010.59,-267.688"/>
<text text-anchor="middle" x="1595.18" y="-291.28" font-family="Times,serif" font-size="14.00"> static(visible_from)</text>
</g>
<!-- n4&#45;&gt;n4 -->
<g id="edge1" class="edge"><title>n4&#45;&gt;n4</title>
<path fill="none" stroke="black" d="M2990.98,-147.305C3003.66,-146.347 3012.81,-143.202 3012.81,-137.87 3012.81,-134.121 3008.29,-131.453 3001.19,-129.866"/>
<polygon fill="black" stroke="black" points="3001.37,-126.357 2990.98,-128.435 3000.4,-133.289 3001.37,-126.357"/>
<text text-anchor="middle" x="3069.31" y="-134.17" font-family="Times,serif" font-size="14.00"> init(at_soil_sample)</text>
</g>
<!-- n5 -->
<g id="node5" class="node"><title>n5</title>
<ellipse fill="none" stroke="black" cx="3110.18" cy="-30" rx="63.7795" ry="26.7407"/>
<text text-anchor="middle" x="3110.18" y="-33.8" font-family="Times,serif" font-size="14.00">&lt;waypoint2&gt;</text>
<text text-anchor="middle" x="3110.18" y="-18.8" font-family="Times,serif" font-size="14.00">waypoint</text>
</g>
<!-- n4&#45;&gt;n5 -->
<g id="edge52" class="edge"><title>n4&#45;&gt;n5</title>
<path fill="none" stroke="black" d="M2938.24,-111.024C2942.58,-99.4939 2949.26,-86.6003 2959.18,-78 2981.53,-58.6174 3011.82,-47.2246 3039.41,-40.5296"/>
<polygon fill="black" stroke="black" points="3040.44,-43.884 3049.43,-38.2695 3038.9,-37.0555 3040.44,-43.884"/>
<text text-anchor="middle" x="2998.18" y="-81.8" font-family="Times,serif" font-size="14.00"> static(visible)</text>
</g>
<!-- n4&#45;&gt;n23 -->
<g id="edge13" class="edge"><title>n4&#45;&gt;n23</title>
<path fill="none" stroke="black" d="M2929.97,-164.768C2930.75,-176.034 2933.57,-188.697 2941.18,-197.74 2943.57,-200.58 2975.53,-211.856 3006.4,-222.264"/>
<polygon fill="black" stroke="black" points="3005.32,-225.593 3015.91,-225.456 3007.54,-218.956 3005.32,-225.593"/>
<text text-anchor="middle" x="2980.18" y="-186.54" font-family="Times,serif" font-size="14.00"> static(visible)</text>
</g>
<!-- n5&#45;&gt;n4 -->
<g id="edge74" class="edge"><title>n5&#45;&gt;n4</title>
<path fill="none" stroke="black" d="M3086,-54.8814C3072.45,-67.3716 3054.77,-82.2538 3037.18,-93 3022.26,-102.111 3005.11,-110.132 2989.01,-116.739"/>
<polygon fill="black" stroke="black" points="2987.67,-113.505 2979.68,-120.463 2990.26,-120.007 2987.67,-113.505"/>
<text text-anchor="middle" x="3098.18" y="-81.8" font-family="Times,serif" font-size="14.00"> static(visible)</text>
</g>
<!-- n5&#45;&gt;n5 -->
<g id="edge2" class="edge"><title>n5&#45;&gt;n5</title>
<path fill="none" stroke="black" d="M3169.62,-39.8259C3182.48,-38.8651 3191.81,-35.5898 3191.81,-30 3191.81,-26.0696 3187.2,-23.2836 3179.99,-21.6418"/>
<polygon fill="black" stroke="black" points="3180.01,-18.1096 3169.62,-20.1741 3179.03,-25.0406 3180.01,-18.1096"/>
<text text-anchor="middle" x="3276.81" y="-48.8" font-family="Times,serif" font-size="14.00"> end(communicated_soil_data)</text>
<text text-anchor="middle" x="3276.81" y="-33.8" font-family="Times,serif" font-size="14.00">init(at_soil_sample)</text>
<text text-anchor="middle" x="3276.81" y="-18.8" font-family="Times,serif" font-size="14.00">end(communicated_rock_data)</text>
<text text-anchor="middle" x="3276.81" y="-3.8" font-family="Times,serif" font-size="14.00">init(at_rock_sample)</text>
</g>
<!-- n5&#45;&gt;n23 -->
<g id="edge61" class="edge"><title>n5&#45;&gt;n23</title>
<path fill="none" stroke="black" d="M3156.39,-48.6151C3183.16,-61.501 3214.58,-81.8599 3230.18,-111 3241.45,-132.058 3243.01,-144.598 3230.18,-164.74 3208.75,-198.356 3168.38,-217.508 3132.93,-228.288"/>
<polygon fill="black" stroke="black" points="3131.74,-224.99 3123.09,-231.111 3133.66,-231.719 3131.74,-224.99"/>
<text text-anchor="middle" x="3279.18" y="-134.17" font-family="Times,serif" font-size="14.00"> static(visible)</text>
</g>
<!-- n6 -->
<g id="node6" class="node"><title>n6</title>
<ellipse fill="none" stroke="black" cx="1231.18" cy="-350.48" rx="67.7647" ry="26.7407"/>
<text text-anchor="middle" x="1231.18" y="-354.28" font-family="Times,serif" font-size="14.00">&lt;objective10&gt;</text>
<text text-anchor="middle" x="1231.18" y="-339.28" font-family="Times,serif" font-size="14.00">objective</text>
</g>
<!-- n6&#45;&gt;n20 -->
<g id="edge26" class="edge"><title>n6&#45;&gt;n20</title>
<path fill="none" stroke="black" d="M1226.46,-323.636C1225.73,-311.215 1227.38,-296.997 1236.18,-287.48 1243.48,-279.572 1374.68,-261.196 1452.49,-250.912"/>
<polygon fill="black" stroke="black" points="1453.18,-254.352 1462.64,-249.577 1452.27,-247.412 1453.18,-254.352"/>
<text text-anchor="middle" x="1328.18" y="-291.28" font-family="Times,serif" font-size="14.00"> end(communicated_image_data)</text>
</g>
<!-- n6&#45;&gt;n22 -->
<g id="edge39" class="edge"><title>n6&#45;&gt;n22</title>
<path fill="none" stroke="black" d="M1185.25,-330.455C1175.14,-326.754 1164.39,-323.188 1154.18,-320.48 1105.02,-307.452 1091,-312.657 1041.18,-302.48 1014.24,-296.98 1008.05,-293.258 981.175,-287.48 920.526,-274.439 850.799,-262.124 801.635,-253.881"/>
<polygon fill="black" stroke="black" points="801.906,-250.378 791.467,-252.185 800.754,-257.283 801.906,-250.378"/>
<text text-anchor="middle" x="1133.18" y="-291.28" font-family="Times,serif" font-size="14.00"> end(communicated_image_data)</text>
</g>
<!-- n6&#45;&gt;n23 -->
<g id="edge71" class="edge"><title>n6&#45;&gt;n23</title>
<path fill="none" stroke="black" d="M1277.36,-330.546C1288.88,-326.551 1301.33,-322.836 1313.18,-320.48 1462.46,-290.799 1504.32,-322.713 1655.18,-302.48 1686.28,-298.309 1693,-291.055 1724.18,-287.48 1863.61,-271.494 2848.79,-292.844 2987.18,-269.48 2994.51,-268.242 3002.1,-266.434 3009.52,-264.341"/>
<polygon fill="black" stroke="black" points="3010.59,-267.675 3019.16,-261.449 3008.58,-260.971 3010.59,-267.675"/>
<text text-anchor="middle" x="1780.18" y="-291.28" font-family="Times,serif" font-size="14.00"> static(visible_from)</text>
</g>
<!-- n7 -->
<g id="node7" class="node"><title>n7</title>
<ellipse fill="none" stroke="black" cx="3151.18" cy="-350.48" rx="62.8651" ry="26.7407"/>
<text text-anchor="middle" x="3151.18" y="-354.28" font-family="Times,serif" font-size="14.00">&lt;objective8&gt;</text>
<text text-anchor="middle" x="3151.18" y="-339.28" font-family="Times,serif" font-size="14.00">objective</text>
</g>
<!-- n7&#45;&gt;n23 -->
<g id="edge19" class="edge"><title>n7&#45;&gt;n23</title>
<path fill="none" stroke="black" d="M3161.2,-323.655C3164.1,-311.818 3164.9,-298.093 3158.18,-287.48 3151.02,-276.186 3140.08,-267.746 3128.2,-261.455"/>
<polygon fill="black" stroke="black" points="3129.51,-258.201 3118.97,-257.053 3126.49,-264.518 3129.51,-258.201"/>
<text text-anchor="middle" x="3219.18" y="-291.28" font-family="Times,serif" font-size="14.00"> static(visible_from)</text>
</g>
<!-- n8 -->
<g id="node8" class="node"><title>n8</title>
<ellipse fill="none" stroke="black" cx="2312.18" cy="-350.48" rx="62.8651" ry="26.7407"/>
<text text-anchor="middle" x="2312.18" y="-354.28" font-family="Times,serif" font-size="14.00">&lt;objective0&gt;</text>
<text text-anchor="middle" x="2312.18" y="-339.28" font-family="Times,serif" font-size="14.00">objective</text>
</g>
<!-- n8&#45;&gt;n20 -->
<g id="edge14" class="edge"><title>n8&#45;&gt;n20</title>
<path fill="none" stroke="black" d="M2261.5,-334.437C2244.06,-329.577 2224.35,-324.429 2206.18,-320.48 2157.34,-309.871 2143.66,-314.586 2095.18,-302.48 2075.13,-297.476 2071.4,-291.679 2051.18,-287.48 1877.98,-251.531 1667.97,-244.704 1567.81,-243.627"/>
<polygon fill="black" stroke="black" points="1567.63,-240.126 1557.59,-243.534 1567.56,-247.125 1567.63,-240.126"/>
<text text-anchor="middle" x="2187.18" y="-291.28" font-family="Times,serif" font-size="14.00"> end(communicated_image_data)</text>
</g>
<!-- n8&#45;&gt;n23 -->
<g id="edge64" class="edge"><title>n8&#45;&gt;n23</title>
<path fill="none" stroke="black" d="M2358.97,-332.172C2406.57,-314.703 2475.13,-289.955 2488.18,-287.48 2706.21,-246.14 2768.77,-308.808 2987.18,-269.48 2994.42,-268.177 3001.9,-266.349 3009.25,-264.26"/>
<polygon fill="black" stroke="black" points="3010.57,-267.517 3019.13,-261.276 3008.54,-260.816 3010.57,-267.517"/>
<text text-anchor="middle" x="2544.18" y="-291.28" font-family="Times,serif" font-size="14.00"> static(visible_from)</text>
</g>
<!-- n9 -->
<g id="node9" class="node"><title>n9</title>
<ellipse fill="none" stroke="black" cx="293.175" cy="-458.35" rx="56.6372" ry="26.7407"/>
<text text-anchor="middle" x="293.175" y="-462.15" font-family="Times,serif" font-size="14.00">&lt;camera3&gt;</text>
<text text-anchor="middle" x="293.175" y="-447.15" font-family="Times,serif" font-size="14.00">camera</text>
</g>
<!-- n9&#45;&gt;n6 -->
<g id="edge35" class="edge"><title>n9&#45;&gt;n6</title>
<path fill="none" stroke="black" d="M342.838,-445.193C364.349,-440.305 389.89,-435.003 413.175,-431.48 503.17,-417.863 531.155,-443.229 617.175,-413.48 628.709,-409.492 628.54,-402.162 640.175,-398.48 749.142,-364.001 1042.11,-402.918 1154.18,-380.48 1161.76,-378.962 1169.58,-376.789 1177.2,-374.306"/>
<polygon fill="black" stroke="black" points="1178.39,-377.595 1186.7,-371.021 1176.11,-370.979 1178.39,-377.595"/>
<text text-anchor="middle" x="708.675" y="-402.28" font-family="Times,serif" font-size="14.00"> static(calibration_target)</text>
</g>
<!-- n9&#45;&gt;n22 -->
<g id="edge12" class="edge"><title>n9&#45;&gt;n22</title>
<path fill="none" stroke="black" d="M252.067,-439.763C243.918,-436.698 235.354,-433.766 227.175,-431.48 204.586,-425.168 138.55,-431.193 123.175,-413.48 114.496,-403.481 110.292,-336.038 122.175,-320.48 155.209,-277.231 519.588,-254.376 671.886,-246.656"/>
<polygon fill="black" stroke="black" points="672.229,-250.144 682.041,-246.148 671.879,-243.153 672.229,-250.144"/>
<text text-anchor="middle" x="166.175" y="-346.78" font-family="Times,serif" font-size="14.00"> static(supports)</text>
</g>
<!-- n9&#45;&gt;n30 -->
<g id="edge51" class="edge"><title>n9&#45;&gt;n30</title>
<path fill="none" stroke="black" d="M261.129,-435.958C248.491,-424.85 238.943,-411.013 248.175,-398.48 264.184,-376.75 281.003,-390.221 306.175,-380.48 311.993,-378.229 318.033,-375.681 323.958,-373.053"/>
<polygon fill="black" stroke="black" points="325.469,-376.211 333.127,-368.889 322.574,-369.838 325.469,-376.211"/>
<text text-anchor="middle" x="294.675" y="-402.28" font-family="Times,serif" font-size="14.00"> static(on_board)</text>
</g>
<!-- n10 -->
<g id="node10" class="node"><title>n10</title>
<ellipse fill="none" stroke="black" cx="67.1751" cy="-458.35" rx="67.3507" ry="26.7407"/>
<text text-anchor="middle" x="67.1751" y="-462.15" font-family="Times,serif" font-size="14.00">&lt;rover0store&gt;</text>
<text text-anchor="middle" x="67.1751" y="-447.15" font-family="Times,serif" font-size="14.00">store</text>
</g>
<!-- n10&#45;&gt;n10 -->
<g id="edge3" class="edge"><title>n10&#45;&gt;n10</title>
<path fill="none" stroke="black" d="M130.321,-467.728C143.158,-466.707 152.35,-463.581 152.35,-458.35 152.35,-454.673 147.806,-452.035 140.645,-450.438"/>
<polygon fill="black" stroke="black" points="140.714,-446.913 130.321,-448.972 139.73,-453.844 140.714,-446.913"/>
<text text-anchor="middle" x="185.35" y="-454.65" font-family="Times,serif" font-size="14.00"> init(empty)</text>
</g>
<!-- n10&#45;&gt;n30 -->
<g id="edge62" class="edge"><title>n10&#45;&gt;n30</title>
<path fill="none" stroke="black" d="M95.0114,-433.737C111.451,-421.127 133.279,-406.575 155.175,-398.48 218.568,-375.043 241.185,-399.033 306.175,-380.48 312.324,-378.725 318.628,-376.426 324.749,-373.89"/>
<polygon fill="black" stroke="black" points="326.421,-376.978 334.17,-369.753 323.606,-370.569 326.421,-376.978"/>
<text text-anchor="middle" x="198.175" y="-402.28" font-family="Times,serif" font-size="14.00"> static(store_of)</text>
</g>
<!-- n11 -->
<g id="node11" class="node"><title>n11</title>
<ellipse fill="none" stroke="black" cx="2129.18" cy="-350.48" rx="67.7647" ry="26.7407"/>
<text text-anchor="middle" x="2129.18" y="-354.28" font-family="Times,serif" font-size="14.00">&lt;objective13&gt;</text>
<text text-anchor="middle" x="2129.18" y="-339.28" font-family="Times,serif" font-size="14.00">objective</text>
</g>
<!-- n11&#45;&gt;n4 -->
<g id="edge9" class="edge"><title>n11&#45;&gt;n4</title>
<path fill="none" stroke="black" d="M2091.81,-327.725C2077.48,-316.46 2066.42,-302.039 2075.18,-287.48 2110.18,-229.243 2145.23,-235.709 2210.18,-215.74 2330.05,-178.883 2700.09,-152.833 2858.26,-143.094"/>
<polygon fill="black" stroke="black" points="2858.6,-146.58 2868.37,-142.476 2858.18,-139.593 2858.6,-146.58"/>
<text text-anchor="middle" x="2266.18" y="-238.91" font-family="Times,serif" font-size="14.00"> static(visible_from)</text>
</g>
<!-- n11&#45;&gt;n20 -->
<g id="edge34" class="edge"><title>n11&#45;&gt;n20</title>
<path fill="none" stroke="black" d="M2082.48,-330.773C2071.09,-326.821 2058.82,-323.069 2047.18,-320.48 1966.96,-302.651 1940.7,-329.705 1863.18,-302.48 1851.66,-298.437 1851.62,-291.72 1840.18,-287.48 1748.92,-253.669 1635,-245.337 1567.39,-243.607"/>
<polygon fill="black" stroke="black" points="1567.43,-240.107 1557.36,-243.39 1567.28,-247.106 1567.43,-240.107"/>
<text text-anchor="middle" x="1955.18" y="-291.28" font-family="Times,serif" font-size="14.00"> end(communicated_image_data)</text>
</g>
<!-- n11&#45;&gt;n23 -->
<g id="edge20" class="edge"><title>n11&#45;&gt;n23</title>
<path fill="none" stroke="black" d="M2181.97,-333.549C2211.72,-324.525 2249.55,-312.975 2283.18,-302.48 2304.11,-295.946 2308.56,-291.15 2330.18,-287.48 2618.16,-238.59 2699.47,-320 2987.18,-269.48 2994.5,-268.194 3002.08,-266.358 3009.51,-264.249"/>
<polygon fill="black" stroke="black" points="3010.58,-267.582 3019.14,-261.345 3008.56,-260.88 3010.58,-267.582"/>
<text text-anchor="middle" x="2386.18" y="-291.28" font-family="Times,serif" font-size="14.00"> static(visible_from)</text>
</g>
<!-- n12 -->
<g id="node12" class="node"><title>n12</title>
<ellipse fill="none" stroke="black" cx="479.175" cy="-458.35" rx="56.6372" ry="26.7407"/>
<text text-anchor="middle" x="479.175" y="-462.15" font-family="Times,serif" font-size="14.00">&lt;camera6&gt;</text>
<text text-anchor="middle" x="479.175" y="-447.15" font-family="Times,serif" font-size="14.00">camera</text>
</g>
<!-- n12&#45;&gt;n3 -->
<g id="edge54" class="edge"><title>n12&#45;&gt;n3</title>
<path fill="none" stroke="black" d="M472.325,-431.674C470.862,-420.039 471.792,-407.01 480.175,-398.48 500.632,-377.667 976.557,-386.199 1005.18,-380.48 1013.24,-378.868 1021.58,-376.514 1029.65,-373.833"/>
<polygon fill="black" stroke="black" points="1031.06,-377.048 1039.33,-370.429 1028.73,-370.444 1031.06,-377.048"/>
<text text-anchor="middle" x="548.675" y="-402.28" font-family="Times,serif" font-size="14.00"> static(calibration_target)</text>
</g>
<!-- n12&#45;&gt;n20 -->
<g id="edge33" class="edge"><title>n12&#45;&gt;n20</title>
<path fill="none" stroke="black" d="M535.421,-454.846C596.344,-450.816 695.74,-440.376 777.175,-413.48 790.581,-409.053 791.546,-402.161 805.175,-398.48 859.165,-383.898 1261.76,-411.681 1308.18,-380.48 1332.44,-364.166 1312.41,-338.829 1335.18,-320.48 1365.24,-296.25 1384.56,-317.395 1420.18,-302.48 1439.21,-294.511 1458.52,-282.333 1474.28,-271.117"/>
<polygon fill="black" stroke="black" points="1476.62,-273.74 1482.64,-265.018 1472.5,-268.085 1476.62,-273.74"/>
<text text-anchor="middle" x="1379.18" y="-346.78" font-family="Times,serif" font-size="14.00"> static(supports)</text>
</g>
<!-- n12&#45;&gt;n30 -->
<g id="edge24" class="edge"><title>n12&#45;&gt;n30</title>
<path fill="none" stroke="black" d="M425.034,-450.348C402.31,-444.436 377.994,-433.542 364.175,-413.48 358.929,-405.865 357.646,-396.396 358.259,-387.17"/>
<polygon fill="black" stroke="black" points="361.767,-387.349 359.647,-376.968 354.831,-386.405 361.767,-387.349"/>
<text text-anchor="middle" x="410.675" y="-402.28" font-family="Times,serif" font-size="14.00"> static(on_board)</text>
</g>
<!-- n13 -->
<g id="node13" class="node"><title>n13</title>
<ellipse fill="none" stroke="black" cx="1734.18" cy="-458.35" rx="56.6372" ry="26.7407"/>
<text text-anchor="middle" x="1734.18" y="-462.15" font-family="Times,serif" font-size="14.00">&lt;camera7&gt;</text>
<text text-anchor="middle" x="1734.18" y="-447.15" font-family="Times,serif" font-size="14.00">camera</text>
</g>
<!-- n13&#45;&gt;n16 -->
<g id="edge65" class="edge"><title>n13&#45;&gt;n16</title>
<path fill="none" stroke="black" d="M1779.53,-442.069C1794.24,-437.798 1810.74,-433.716 1826.18,-431.48 1954.48,-412.894 4049.11,-448.987 4159.18,-380.48 4184.83,-364.51 4166.2,-337.501 4191.18,-320.48 4248.48,-281.423 4290.35,-343.633 4346.18,-302.48 4354.12,-296.625 4359.67,-287.802 4363.55,-278.758"/>
<polygon fill="black" stroke="black" points="4366.83,-279.96 4367,-269.366 4360.26,-277.543 4366.83,-279.96"/>
<text text-anchor="middle" x="4235.18" y="-346.78" font-family="Times,serif" font-size="14.00"> static(supports)</text>
</g>
<!-- n19 -->
<g id="node19" class="node"><title>n19</title>
<ellipse fill="none" stroke="black" cx="4484.18" cy="-350.48" rx="62.8651" ry="26.7407"/>
<text text-anchor="middle" x="4484.18" y="-354.28" font-family="Times,serif" font-size="14.00">&lt;objective4&gt;</text>
<text text-anchor="middle" x="4484.18" y="-339.28" font-family="Times,serif" font-size="14.00">objective</text>
</g>
<!-- n13&#45;&gt;n19 -->
<g id="edge37" class="edge"><title>n13&#45;&gt;n19</title>
<path fill="none" stroke="black" d="M1779.52,-442.015C1794.23,-437.742 1810.73,-433.672 1826.18,-431.48 2078.54,-395.663 3869.36,-458.936 4120.18,-413.48 4139.27,-410.02 4142.21,-402.561 4161.18,-398.48 4268.35,-375.426 4300.11,-404.042 4407.18,-380.48 4415.11,-378.734 4423.32,-376.332 4431.29,-373.653"/>
<polygon fill="black" stroke="black" points="4432.6,-376.903 4440.86,-370.271 4430.26,-370.303 4432.6,-376.903"/>
<text text-anchor="middle" x="4229.68" y="-402.28" font-family="Times,serif" font-size="14.00"> static(calibration_target)</text>
</g>
<!-- n13&#45;&gt;n20 -->
<g id="edge63" class="edge"><title>n13&#45;&gt;n20</title>
<path fill="none" stroke="black" d="M1726.33,-431.435C1714.68,-393.77 1693.23,-327.592 1684.18,-320.48 1627.56,-275.998 1577.1,-350.191 1523.18,-302.48 1516.56,-296.626 1512.78,-288.266 1510.68,-279.677"/>
<polygon fill="black" stroke="black" points="1514.1,-278.877 1508.93,-269.627 1507.2,-280.079 1514.1,-278.877"/>
<text text-anchor="middle" x="1754.18" y="-346.78" font-family="Times,serif" font-size="14.00"> static(supports)</text>
</g>
<!-- n13&#45;&gt;n22 -->
<g id="edge44" class="edge"><title>n13&#45;&gt;n22</title>
<path fill="none" stroke="black" d="M1695.48,-438.631C1679.81,-430.955 1661.57,-421.908 1645.18,-413.48 1632.62,-407.025 1630.83,-402.068 1617.18,-398.48 1573.43,-386.985 842.288,-403.2 803.175,-380.48 776.284,-364.86 785.183,-345.834 767.175,-320.48 761.145,-311.99 756.837,-311.792 752.175,-302.48 748.644,-295.426 745.98,-287.444 743.978,-279.687"/>
<polygon fill="black" stroke="black" points="747.34,-278.69 741.71,-269.715 740.515,-280.242 747.34,-278.69"/>
<text text-anchor="middle" x="847.175" y="-346.78" font-family="Times,serif" font-size="14.00"> static(supports)</text>
</g>
<!-- n13&#45;&gt;n30 -->
<g id="edge69" class="edge"><title>n13&#45;&gt;n30</title>
<path fill="none" stroke="black" d="M1694.62,-439.13C1686.37,-436.038 1677.61,-433.257 1669.18,-431.48 1561.25,-408.755 1278.31,-446.821 1173.18,-413.48 1161.54,-409.791 1161.81,-402.165 1150.18,-398.48 1096.44,-381.462 699.405,-384.438 643.175,-380.48 567.435,-375.149 480.319,-365.336 424.791,-358.614"/>
<polygon fill="black" stroke="black" points="425.15,-355.132 414.8,-357.397 424.303,-362.081 425.15,-355.132"/>
<text text-anchor="middle" x="1219.68" y="-402.28" font-family="Times,serif" font-size="14.00"> static(on_board)</text>
</g>
<!-- n14&#45;&gt;n23 -->
<g id="edge73" class="edge"><title>n14&#45;&gt;n23</title>
<path fill="none" stroke="black" d="M3021.07,-324.122C3028.62,-310.342 3038.06,-293.104 3046.27,-278.118"/>
<polygon fill="black" stroke="black" points="3049.46,-279.58 3051.2,-269.129 3043.32,-276.217 3049.46,-279.58"/>
<text text-anchor="middle" x="3098.18" y="-291.28" font-family="Times,serif" font-size="14.00"> static(visible_from)</text>
</g>
<!-- n15 -->
<g id="node15" class="node"><title>n15</title>
<ellipse fill="none" stroke="black" cx="2522.18" cy="-350.48" rx="62.8651" ry="26.7407"/>
<text text-anchor="middle" x="2522.18" y="-354.28" font-family="Times,serif" font-size="14.00">&lt;objective3&gt;</text>
<text text-anchor="middle" x="2522.18" y="-339.28" font-family="Times,serif" font-size="14.00">objective</text>
</g>
<!-- n15&#45;&gt;n4 -->
<g id="edge18" class="edge"><title>n15&#45;&gt;n4</title>
<path fill="none" stroke="black" d="M2466.67,-337.785C2403.4,-324.388 2308.45,-304.066 2307.18,-302.48 2302.99,-297.287 2303.06,-292.728 2307.18,-287.48 2375.02,-200.874 2709.86,-159.429 2859.13,-145.024"/>
<polygon fill="black" stroke="black" points="2859.5,-148.505 2869.12,-144.074 2858.83,-141.536 2859.5,-148.505"/>
<text text-anchor="middle" x="2502.18" y="-238.91" font-family="Times,serif" font-size="14.00"> static(visible_from)</text>
</g>
<!-- n15&#45;&gt;n23 -->
<g id="edge23" class="edge"><title>n15&#45;&gt;n23</title>
<path fill="none" stroke="black" d="M2555.25,-327.498C2578.51,-313.296 2610.94,-295.94 2642.18,-287.48 2790.38,-247.339 2836.29,-297.903 2987.18,-269.48 2994.4,-268.118 3001.89,-266.256 3009.22,-264.149"/>
<polygon fill="black" stroke="black" points="3010.55,-267.403 3019.11,-261.149 3008.52,-260.705 3010.55,-267.403"/>
<text text-anchor="middle" x="2698.18" y="-291.28" font-family="Times,serif" font-size="14.00"> static(visible_from)</text>
</g>
<!-- n17 -->
<g id="node17" class="node"><title>n17</title>
<ellipse fill="none" stroke="black" cx="1472.18" cy="-458.35" rx="56.6372" ry="26.7407"/>
<text text-anchor="middle" x="1472.18" y="-462.15" font-family="Times,serif" font-size="14.00">&lt;camera2&gt;</text>
<text text-anchor="middle" x="1472.18" y="-447.15" font-family="Times,serif" font-size="14.00">camera</text>
</g>
<!-- n17&#45;&gt;n11 -->
<g id="edge48" class="edge"><title>n17&#45;&gt;n11</title>
<path fill="none" stroke="black" d="M1512.52,-439.284C1520.56,-436.261 1529.03,-433.466 1537.18,-431.48 1758.49,-377.504 1824.86,-430.148 2047.18,-380.48 2055.63,-378.59 2064.42,-376.09 2072.97,-373.348"/>
<polygon fill="black" stroke="black" points="2074.1,-376.659 2082.48,-370.17 2071.88,-370.019 2074.1,-376.659"/>
<text text-anchor="middle" x="2009.68" y="-402.28" font-family="Times,serif" font-size="14.00"> static(calibration_target)</text>
</g>
<!-- n17&#45;&gt;n20 -->
<g id="edge47" class="edge"><title>n17&#45;&gt;n20</title>
<path fill="none" stroke="black" d="M1514.34,-440.127C1521.91,-437.16 1529.75,-434.169 1537.18,-431.48 1561.36,-422.72 1577.08,-434.304 1592.18,-413.48 1603.11,-398.395 1586.53,-350.694 1551.18,-320.48 1532.26,-304.319 1512.66,-322.702 1498.18,-302.48 1493.17,-295.494 1492.54,-286.882 1493.99,-278.423"/>
<polygon fill="black" stroke="black" points="1497.4,-279.225 1496.5,-268.668 1490.62,-277.479 1497.4,-279.225"/>
<text text-anchor="middle" x="1636.18" y="-346.78" font-family="Times,serif" font-size="14.00"> static(supports)</text>
</g>
<!-- n17&#45;&gt;n30 -->
<g id="edge10" class="edge"><title>n17&#45;&gt;n30</title>
<path fill="none" stroke="black" d="M1416.54,-452.932C1281.45,-442.18 946.76,-415.394 941.175,-413.48 929.63,-409.524 929.753,-402.338 918.175,-398.48 860.074,-379.121 704.195,-385.693 643.175,-380.48 567.748,-374.037 480.905,-364.529 425.326,-358.176"/>
<polygon fill="black" stroke="black" points="425.656,-354.691 415.322,-357.028 424.858,-361.645 425.656,-354.691"/>
<text text-anchor="middle" x="987.675" y="-402.28" font-family="Times,serif" font-size="14.00"> static(on_board)</text>
</g>
<!-- n18 -->
<g id="node18" class="node"><title>n18</title>
<ellipse fill="none" stroke="black" cx="3295.18" cy="-350.48" rx="62.8651" ry="26.7407"/>
<text text-anchor="middle" x="3295.18" y="-354.28" font-family="Times,serif" font-size="14.00">&lt;objective1&gt;</text>
<text text-anchor="middle" x="3295.18" y="-339.28" font-family="Times,serif" font-size="14.00">objective</text>
</g>
<!-- n18&#45;&gt;n23 -->
<g id="edge32" class="edge"><title>n18&#45;&gt;n23</title>
<path fill="none" stroke="black" d="M3294.61,-323.361C3292.96,-310.87 3288.84,-296.672 3279.18,-287.48 3258.94,-268.238 3191.17,-256.617 3137.25,-250.216"/>
<polygon fill="black" stroke="black" points="3137.35,-246.705 3127.02,-249.043 3136.55,-253.659 3137.35,-246.705"/>
<text text-anchor="middle" x="3345.18" y="-291.28" font-family="Times,serif" font-size="14.00"> static(visible_from)</text>
</g>
<!-- n19&#45;&gt;n4 -->
<g id="edge49" class="edge"><title>n19&#45;&gt;n4</title>
<path fill="none" stroke="black" d="M4543.51,-341.069C4583.81,-332.614 4626.54,-316.534 4607.18,-287.48 4513.16,-146.407 4239.32,-257.891 3131.18,-164.74 3087.62,-161.079 3038.98,-154.836 3000.58,-149.4"/>
<polygon fill="black" stroke="black" points="3000.93,-145.916 2990.54,-147.965 2999.94,-152.845 3000.93,-145.916"/>
<text text-anchor="middle" x="4646.18" y="-238.91" font-family="Times,serif" font-size="14.00"> static(visible_from)</text>
</g>
<!-- n19&#45;&gt;n5 -->
<g id="edge38" class="edge"><title>n19&#45;&gt;n5</title>
<path fill="none" stroke="black" d="M4540.38,-338.287C4622.85,-319.488 4761.17,-277.473 4706.18,-215.74 4603.43,-100.413 3483.68,-46.3543 3183.73,-33.8779"/>
<polygon fill="black" stroke="black" points="3183.54,-30.3673 3173.41,-33.4516 3183.25,-37.3614 3183.54,-30.3673"/>
<text text-anchor="middle" x="4731.18" y="-186.54" font-family="Times,serif" font-size="14.00"> static(visible_from)</text>
</g>
<!-- n19&#45;&gt;n16 -->
<g id="edge45" class="edge"><title>n19&#45;&gt;n16</title>
<path fill="none" stroke="black" d="M4450.41,-327.689C4439.93,-320.249 4428.65,-311.513 4419.18,-302.48 4410.91,-294.604 4402.82,-285.255 4395.74,-276.353"/>
<polygon fill="black" stroke="black" points="4398.44,-274.123 4389.55,-268.359 4392.91,-278.409 4398.44,-274.123"/>
<text text-anchor="middle" x="4511.18" y="-291.28" font-family="Times,serif" font-size="14.00"> end(communicated_image_data)</text>
</g>
<!-- n19&#45;&gt;n23 -->
<g id="edge59" class="edge"><title>n19&#45;&gt;n23</title>
<path fill="none" stroke="black" d="M4440.31,-331.131C4429.61,-327.166 4418.1,-323.318 4407.18,-320.48 4401.17,-318.919 4192.36,-288.041 4186.18,-287.48 3943.49,-265.449 3881.68,-278.976 3638.18,-269.48 3458.64,-262.479 3247.54,-252.496 3138.56,-247.212"/>
<polygon fill="black" stroke="black" points="3138.49,-243.705 3128.33,-246.716 3138.15,-250.697 3138.49,-243.705"/>
<text text-anchor="middle" x="4340.18" y="-291.28" font-family="Times,serif" font-size="14.00"> static(visible_from)</text>
</g>
<!-- n21 -->
<g id="node21" class="node"><title>n21</title>
<ellipse fill="none" stroke="black" cx="3428.18" cy="-350.48" rx="51.7379" ry="26.7407"/>
<text text-anchor="middle" x="3428.18" y="-354.28" font-family="Times,serif" font-size="14.00">&lt;general&gt;</text>
<text text-anchor="middle" x="3428.18" y="-339.28" font-family="Times,serif" font-size="14.00">lander</text>
</g>
<!-- n21&#45;&gt;n21 -->
<g id="edge4" class="edge"><title>n21&#45;&gt;n21</title>
<path fill="none" stroke="black" d="M3476.33,-360.484C3488.59,-359.827 3497.79,-356.492 3497.79,-350.48 3497.79,-346.253 3493.24,-343.35 3486.28,-341.77"/>
<polygon fill="black" stroke="black" points="3486.7,-338.295 3476.33,-340.476 3485.8,-345.236 3486.7,-338.295"/>
<text text-anchor="middle" x="3548.29" y="-346.78" font-family="Times,serif" font-size="14.00"> init(channel_free)</text>
</g>
<!-- n21&#45;&gt;n23 -->
<g id="edge36" class="edge"><title>n21&#45;&gt;n23</title>
<path fill="none" stroke="black" d="M3424.88,-323.469C3421.87,-310.689 3416.14,-296.199 3405.18,-287.48 3365.24,-255.717 3226.28,-246.822 3138.86,-244.411"/>
<polygon fill="black" stroke="black" points="3138.81,-240.909 3128.72,-244.154 3138.63,-247.907 3138.81,-240.909"/>
<text text-anchor="middle" x="3463.18" y="-291.28" font-family="Times,serif" font-size="14.00"> static(at_lander)</text>
</g>
<!-- n23&#45;&gt;n4 -->
<g id="edge30" class="edge"><title>n23&#45;&gt;n4</title>
<path fill="none" stroke="black" d="M3049.2,-216.295C3041.18,-205.015 3030.73,-192.177 3019.18,-182.74 3009.27,-174.644 2997.61,-167.528 2986.09,-161.512"/>
<polygon fill="black" stroke="black" points="2987.42,-158.265 2976.91,-156.925 2984.29,-164.526 2987.42,-158.265"/>
<text text-anchor="middle" x="3073.18" y="-186.54" font-family="Times,serif" font-size="14.00"> static(visible)</text>
</g>
<!-- n23&#45;&gt;n5 -->
<g id="edge40" class="edge"><title>n23&#45;&gt;n5</title>
<path fill="none" stroke="black" d="M3096.12,-218.741C3111.6,-205.107 3128.44,-186.275 3135.18,-164.74 3146.7,-127.856 3152.28,-115.013 3141.18,-78 3139.84,-73.5617 3137.94,-69.1554 3135.73,-64.9215"/>
<polygon fill="black" stroke="black" points="3138.56,-62.8337 3130.48,-55.9827 3132.52,-66.3782 3138.56,-62.8337"/>
<text text-anchor="middle" x="3187.18" y="-134.17" font-family="Times,serif" font-size="14.00"> static(visible)</text>
</g>
<!-- n23&#45;&gt;n23 -->
<g id="edge5" class="edge"><title>n23&#45;&gt;n23</title>
<path fill="none" stroke="black" d="M3124.98,-252.045C3137.66,-251.087 3146.81,-247.942 3146.81,-242.61 3146.81,-238.861 3142.29,-236.193 3135.19,-234.607"/>
<polygon fill="black" stroke="black" points="3135.37,-231.097 3124.98,-233.175 3134.4,-238.029 3135.37,-231.097"/>
<text text-anchor="middle" x="3231.31" y="-246.41" font-family="Times,serif" font-size="14.00"> end(communicated_soil_data)</text>
<text text-anchor="middle" x="3231.31" y="-231.41" font-family="Times,serif" font-size="14.00">init(at_soil_sample)</text>
</g>
<!-- n24 -->
<g id="node24" class="node"><title>n24</title>
<ellipse fill="none" stroke="black" cx="3968.18" cy="-350.48" rx="62.8651" ry="26.7407"/>
<text text-anchor="middle" x="3968.18" y="-354.28" font-family="Times,serif" font-size="14.00">&lt;objective5&gt;</text>
<text text-anchor="middle" x="3968.18" y="-339.28" font-family="Times,serif" font-size="14.00">objective</text>
</g>
<!-- n24&#45;&gt;n4 -->
<g id="edge46" class="edge"><title>n24&#45;&gt;n4</title>
<path fill="none" stroke="black" d="M3968.78,-323.504C3967.64,-310.894 3963.98,-296.547 3954.18,-287.48 3936.52,-271.145 3230.54,-177.89 3001.87,-148.051"/>
<polygon fill="black" stroke="black" points="3002.03,-144.543 2991.66,-146.721 3001.13,-151.485 3002.03,-144.543"/>
<text text-anchor="middle" x="3917.18" y="-238.91" font-family="Times,serif" font-size="14.00"> static(visible_from)</text>
</g>
<!-- n24&#45;&gt;n16 -->
<g id="edge42" class="edge"><title>n24&#45;&gt;n16</title>
<path fill="none" stroke="black" d="M3976.04,-323.504C3981.32,-310.569 3989.66,-295.926 4002.18,-287.48 4050.76,-254.698 4215.95,-246.344 4308.32,-244.261"/>
<polygon fill="black" stroke="black" points="4308.47,-247.759 4318.39,-244.053 4308.32,-240.761 4308.47,-247.759"/>
<text text-anchor="middle" x="4094.18" y="-291.28" font-family="Times,serif" font-size="14.00"> end(communicated_image_data)</text>
</g>
<!-- n24&#45;&gt;n23 -->
<g id="edge67" class="edge"><title>n24&#45;&gt;n23</title>
<path fill="none" stroke="black" d="M3924.17,-331.261C3914.96,-327.587 3905.28,-323.828 3896.18,-320.48 3872.43,-311.75 3864.96,-313.48 3842.18,-302.48 3831.19,-297.174 3830.77,-291.296 3819.18,-287.48 3787.22,-276.962 3321.85,-255.11 3138.57,-246.859"/>
<polygon fill="black" stroke="black" points="3138.63,-243.359 3128.48,-246.406 3138.31,-250.352 3138.63,-243.359"/>
<text text-anchor="middle" x="3898.18" y="-291.28" font-family="Times,serif" font-size="14.00"> static(visible_from)</text>
</g>
<!-- n25 -->
<g id="node25" class="node"><title>n25</title>
<ellipse fill="none" stroke="black" cx="3680.18" cy="-350.48" rx="62.8651" ry="26.7407"/>
<text text-anchor="middle" x="3680.18" y="-354.28" font-family="Times,serif" font-size="14.00">&lt;objective6&gt;</text>
<text text-anchor="middle" x="3680.18" y="-339.28" font-family="Times,serif" font-size="14.00">objective</text>
</g>
<!-- n25&#45;&gt;n23 -->
<g id="edge58" class="edge"><title>n25&#45;&gt;n23</title>
<path fill="none" stroke="black" d="M3638.26,-330.188C3605.07,-315.833 3557.13,-297.123 3513.18,-287.48 3383.26,-258.978 3228.08,-248.984 3138.65,-245.486"/>
<polygon fill="black" stroke="black" points="3138.73,-241.987 3128.6,-245.11 3138.47,-248.982 3138.73,-241.987"/>
<text text-anchor="middle" x="3621.18" y="-291.28" font-family="Times,serif" font-size="14.00"> static(visible_from)</text>
</g>
<!-- n26 -->
<g id="node26" class="node"><title>n26</title>
<ellipse fill="none" stroke="black" cx="3952.18" cy="-458.35" rx="56.6372" ry="26.7407"/>
<text text-anchor="middle" x="3952.18" y="-462.15" font-family="Times,serif" font-size="14.00">&lt;camera0&gt;</text>
<text text-anchor="middle" x="3952.18" y="-447.15" font-family="Times,serif" font-size="14.00">camera</text>
</g>
<!-- n26&#45;&gt;n16 -->
<g id="edge7" class="edge"><title>n26&#45;&gt;n16</title>
<path fill="none" stroke="black" d="M4008.85,-457.926C4161.94,-458.89 4575.1,-457.364 4616.18,-413.48 4640.23,-387.783 4764.3,-460.483 4603.18,-287.48 4580.89,-263.548 4496,-252.388 4435.61,-247.387"/>
<polygon fill="black" stroke="black" points="4435.64,-243.879 4425.4,-246.58 4435.09,-250.857 4435.64,-243.879"/>
<text text-anchor="middle" x="4722.18" y="-346.78" font-family="Times,serif" font-size="14.00"> static(supports)</text>
</g>
<!-- n26&#45;&gt;n19 -->
<g id="edge17" class="edge"><title>n26&#45;&gt;n19</title>
<path fill="none" stroke="black" d="M4008.72,-455.899C4134.05,-452.199 4426.92,-440.715 4462.18,-413.48 4470.51,-407.038 4475.7,-397.188 4478.92,-387.223"/>
<polygon fill="black" stroke="black" points="4482.36,-387.903 4481.53,-377.341 4475.59,-386.114 4482.36,-387.903"/>
<text text-anchor="middle" x="4543.68" y="-402.28" font-family="Times,serif" font-size="14.00"> static(calibration_target)</text>
</g>
<!-- n26&#45;&gt;n20 -->
<g id="edge16" class="edge"><title>n26&#45;&gt;n20</title>
<path fill="none" stroke="black" d="M3896.75,-452.174C3766.48,-440.25 3430.56,-410.922 3149.18,-398.48 3116.29,-397.026 1992.16,-397.815 1964.18,-380.48 1938.66,-364.675 1957.15,-338.541 1933.18,-320.48 1900.59,-295.935 1881.76,-315.719 1843.18,-302.48 1829.07,-297.642 1827.4,-291.935 1813.18,-287.48 1730.02,-261.441 1629.17,-250.769 1567.08,-246.456"/>
<polygon fill="black" stroke="black" points="1567.3,-242.963 1557.09,-245.794 1566.83,-249.948 1567.3,-242.963"/>
<text text-anchor="middle" x="2008.18" y="-346.78" font-family="Times,serif" font-size="14.00"> static(supports)</text>
</g>
<!-- n26&#45;&gt;n30 -->
<g id="edge50" class="edge"><title>n26&#45;&gt;n30</title>
<path fill="none" stroke="black" d="M3896.21,-454.064C3716.74,-443.683 3139.46,-411.514 2661.18,-398.48 2212.88,-386.264 1090.91,-406.026 643.175,-380.48 567.371,-376.155 480.27,-366.106 424.763,-359.055"/>
<polygon fill="black" stroke="black" points="425.139,-355.575 414.776,-357.776 424.25,-362.518 425.139,-355.575"/>
<text text-anchor="middle" x="3098.68" y="-402.28" font-family="Times,serif" font-size="14.00"> static(on_board)</text>
</g>
<!-- n27 -->
<g id="node27" class="node"><title>n27</title>
<ellipse fill="none" stroke="black" cx="2704.18" cy="-350.48" rx="67.7647" ry="26.7407"/>
<text text-anchor="middle" x="2704.18" y="-354.28" font-family="Times,serif" font-size="14.00">&lt;objective11&gt;</text>
<text text-anchor="middle" x="2704.18" y="-339.28" font-family="Times,serif" font-size="14.00">objective</text>
</g>
<!-- n27&#45;&gt;n4 -->
<g id="edge21" class="edge"><title>n27&#45;&gt;n4</title>
<path fill="none" stroke="black" d="M2707.18,-323.457C2711.63,-285.737 2719.82,-219.892 2723.18,-215.74 2756.28,-174.709 2813.5,-155.579 2859.55,-146.66"/>
<polygon fill="black" stroke="black" points="2860.27,-150.085 2869.49,-144.857 2859.03,-143.198 2860.27,-150.085"/>
<text text-anchor="middle" x="2779.18" y="-238.91" font-family="Times,serif" font-size="14.00"> static(visible_from)</text>
</g>
<!-- n27&#45;&gt;n23 -->
<g id="edge31" class="edge"><title>n27&#45;&gt;n23</title>
<path fill="none" stroke="black" d="M2727.78,-325.27C2742.61,-311.681 2762.91,-295.823 2784.18,-287.48 2868.49,-254.4 2898.48,-287.86 2987.18,-269.48 2994.28,-268.007 3001.65,-266.098 3008.88,-263.984"/>
<polygon fill="black" stroke="black" points="3010.1,-267.272 3018.64,-260.997 3008.05,-260.579 3010.1,-267.272"/>
<text text-anchor="middle" x="2840.18" y="-291.28" font-family="Times,serif" font-size="14.00"> static(visible_from)</text>
</g>
<!-- n28 -->
<g id="node28" class="node"><title>n28</title>
<ellipse fill="none" stroke="black" cx="1892.18" cy="-458.35" rx="56.6372" ry="26.7407"/>
<text text-anchor="middle" x="1892.18" y="-462.15" font-family="Times,serif" font-size="14.00">&lt;camera5&gt;</text>
<text text-anchor="middle" x="1892.18" y="-447.15" font-family="Times,serif" font-size="14.00">camera</text>
</g>
<!-- n28&#45;&gt;n16 -->
<g id="edge75" class="edge"><title>n28&#45;&gt;n16</title>
<path fill="none" stroke="black" d="M1948.87,-456.982C2285.38,-454.706 4009.27,-441.696 4117.18,-413.48 4130.83,-409.909 4131.73,-402.797 4145.18,-398.48 4204.07,-379.567 4230.46,-412.838 4283.18,-380.48 4310.7,-363.584 4298.83,-340.5 4324.18,-320.48 4341.73,-306.615 4358.34,-320.801 4371.18,-302.48 4375.83,-295.828 4377.7,-287.634 4378.05,-279.497"/>
<polygon fill="black" stroke="black" points="4381.55,-279.246 4377.79,-269.339 4374.55,-279.426 4381.55,-279.246"/>
<text text-anchor="middle" x="4369.18" y="-346.78" font-family="Times,serif" font-size="14.00"> static(supports)</text>
</g>
<!-- n28&#45;&gt;n19 -->
<g id="edge53" class="edge"><title>n28&#45;&gt;n19</title>
<path fill="none" stroke="black" d="M1948.79,-456.818C2306.94,-453.392 4244.96,-433.929 4302.18,-413.48 4312.31,-409.859 4311.43,-403.037 4321.18,-398.48 4356.55,-381.942 4369.68,-391.394 4407.18,-380.48 4414.7,-378.291 4422.53,-375.708 4430.2,-373.002"/>
<polygon fill="black" stroke="black" points="4431.57,-376.226 4439.78,-369.528 4429.19,-369.645 4431.57,-376.226"/>
<text text-anchor="middle" x="4389.68" y="-402.28" font-family="Times,serif" font-size="14.00"> static(calibration_target)</text>
</g>
<!-- n28&#45;&gt;n20 -->
<g id="edge57" class="edge"><title>n28&#45;&gt;n20</title>
<path fill="none" stroke="black" d="M1890.65,-431.299C1888.89,-420.266 1885.32,-407.83 1878.18,-398.48 1868.03,-385.205 1857.19,-392.087 1845.18,-380.48 1810.64,-347.119 1829.92,-314.428 1790.18,-287.48 1754.78,-263.481 1638.62,-251.873 1567.2,-246.876"/>
<polygon fill="black" stroke="black" points="1567.22,-243.369 1557.01,-246.186 1566.75,-250.353 1567.22,-243.369"/>
<text text-anchor="middle" x="1889.18" y="-346.78" font-family="Times,serif" font-size="14.00"> static(supports)</text>
</g>
<!-- n28&#45;&gt;n22 -->
<g id="edge70" class="edge"><title>n28&#45;&gt;n22</title>
<path fill="none" stroke="black" d="M1845.68,-442.944C1831.2,-438.819 1815.12,-434.6 1800.18,-431.48 1743.08,-419.558 1725.64,-431.535 1670.18,-413.48 1656.75,-409.11 1655.82,-402.088 1642.18,-398.48 1603.49,-388.256 956.088,-401.716 922.175,-380.48 896.735,-364.55 915.512,-338.048 891.175,-320.48 849.585,-290.458 820.328,-330.21 777.175,-302.48 767.796,-296.453 760.159,-287.28 754.21,-277.955"/>
<polygon fill="black" stroke="black" points="757.086,-275.939 749.022,-269.067 751.04,-279.468 757.086,-275.939"/>
<text text-anchor="middle" x="966.175" y="-346.78" font-family="Times,serif" font-size="14.00"> static(supports)</text>
</g>
<!-- n28&#45;&gt;n30 -->
<g id="edge8" class="edge"><title>n28&#45;&gt;n30</title>
<path fill="none" stroke="black" d="M1846.79,-442.304C1832.08,-438.046 1815.58,-433.912 1800.18,-431.48 1597.64,-399.507 1542.72,-438.198 1339.18,-413.48 1306.29,-409.487 1299.08,-402.306 1266.18,-398.48 991.025,-366.483 919.559,-399.019 643.175,-380.48 567.418,-375.399 480.306,-365.527 424.783,-358.724"/>
<polygon fill="black" stroke="black" points="425.147,-355.242 414.793,-357.491 424.289,-362.19 425.147,-355.242"/>
<text text-anchor="middle" x="1385.68" y="-402.28" font-family="Times,serif" font-size="14.00"> static(on_board)</text>
</g>
<!-- n29 -->
<g id="node29" class="node"><title>n29</title>
<ellipse fill="none" stroke="black" cx="3824.18" cy="-350.48" rx="62.8651" ry="26.7407"/>
<text text-anchor="middle" x="3824.18" y="-354.28" font-family="Times,serif" font-size="14.00">&lt;objective7&gt;</text>
<text text-anchor="middle" x="3824.18" y="-339.28" font-family="Times,serif" font-size="14.00">objective</text>
</g>
<!-- n29&#45;&gt;n23 -->
<g id="edge60" class="edge"><title>n29&#45;&gt;n23</title>
<path fill="none" stroke="black" d="M3779.24,-331.364C3770.28,-327.755 3760.93,-323.994 3752.18,-320.48 3732.18,-312.456 3726.55,-311.886 3707.18,-302.48 3695.17,-296.655 3693.93,-291.387 3681.18,-287.48 3581.85,-257.061 3279.95,-247.557 3139.06,-244.734"/>
<polygon fill="black" stroke="black" points="3138.86,-241.23 3128.79,-244.535 3138.72,-248.228 3138.86,-241.23"/>
<text text-anchor="middle" x="3763.18" y="-291.28" font-family="Times,serif" font-size="14.00"> static(visible_from)</text>
</g>
<!-- n30&#45;&gt;n5 -->
<g id="edge29" class="edge"><title>n30&#45;&gt;n5</title>
<path fill="none" stroke="black" d="M401.035,-330.542C455.407,-300.253 568.412,-241.688 672.175,-215.74 1137.42,-99.3975 2680.75,-44.5086 3036.56,-33.2285"/>
<polygon fill="black" stroke="black" points="3036.85,-36.7211 3046.74,-32.9075 3036.63,-29.7246 3036.85,-36.7211"/>
<text text-anchor="middle" x="854.675" y="-186.54" font-family="Times,serif" font-size="14.00"> init(at)</text>
</g>
<!-- n30&#45;&gt;n30 -->
<g id="edge6" class="edge"><title>n30&#45;&gt;n30</title>
<path fill="none" stroke="black" d="M412.96,-360.53C425.056,-360 434.258,-356.65 434.258,-350.48 434.258,-346.238 429.909,-343.329 423.26,-341.753"/>
<polygon fill="black" stroke="black" points="423.325,-338.233 412.96,-340.43 422.433,-345.176 423.325,-338.233"/>
<text text-anchor="middle" x="531.758" y="-369.28" font-family="Times,serif" font-size="14.00"> static(equipped_for_rock_analysis)</text>
<text text-anchor="middle" x="531.758" y="-354.28" font-family="Times,serif" font-size="14.00">static(equipped_for_imaging)</text>
<text text-anchor="middle" x="531.758" y="-339.28" font-family="Times,serif" font-size="14.00">init(available)</text>
<text text-anchor="middle" x="531.758" y="-324.28" font-family="Times,serif" font-size="14.00">static(equipped_for_soil_analysis)</text>
</g>
<!-- n31 -->
<g id="node31" class="node"><title>n31</title>
<ellipse fill="none" stroke="black" cx="2858.18" cy="-350.48" rx="67.7647" ry="26.7407"/>
<text text-anchor="middle" x="2858.18" y="-354.28" font-family="Times,serif" font-size="14.00">&lt;objective12&gt;</text>
<text text-anchor="middle" x="2858.18" y="-339.28" font-family="Times,serif" font-size="14.00">objective</text>
</g>
<!-- n31&#45;&gt;n4 -->
<g id="edge27" class="edge"><title>n31&#45;&gt;n4</title>
<path fill="none" stroke="black" d="M2809.88,-331.442C2789,-322.572 2767.99,-311.809 2762.18,-302.48 2758.65,-296.824 2758.03,-292.703 2762.18,-287.48 2784.02,-259.946 2810.04,-289.132 2839.18,-269.48 2844.04,-266.196 2882.76,-210.056 2908.39,-172.457"/>
<polygon fill="black" stroke="black" points="2911.55,-174.045 2914.28,-163.809 2905.76,-170.105 2911.55,-174.045"/>
<text text-anchor="middle" x="2935.18" y="-238.91" font-family="Times,serif" font-size="14.00"> static(visible_from)</text>
</g>
<!-- n31&#45;&gt;n23 -->
<g id="edge25" class="edge"><title>n31&#45;&gt;n23</title>
<path fill="none" stroke="black" d="M2877.19,-324.528C2888.17,-311.724 2902.98,-296.884 2919.18,-287.48 2946.21,-271.78 2957.21,-278.405 2987.18,-269.48 2993.61,-267.565 3000.31,-265.48 3006.96,-263.352"/>
<polygon fill="black" stroke="black" points="3008.2,-266.629 3016.64,-260.22 3006.05,-259.969 3008.2,-266.629"/>
<text text-anchor="middle" x="2975.18" y="-291.28" font-family="Times,serif" font-size="14.00"> static(visible_from)</text>
</g>
</g>
</svg>
