<?xml version="1.0" encoding="UTF-8" standalone="no"?>
<!DOCTYPE svg PUBLIC "-//W3C//DTD SVG 1.1//EN"
 "http://www.w3.org/Graphics/SVG/1.1/DTD/svg11.dtd">
<!-- Generated by graphviz version 2.38.0 (20140413.2041)
 -->
<!-- Title: Struc Pages: 1 -->
<svg width="920pt" height="400pt"
 viewBox="0.00 0.00 919.70 399.96" xmlns="http://www.w3.org/2000/svg" xmlns:xlink="http://www.w3.org/1999/xlink">
<g id="graph0" class="graph" transform="scale(1 1) rotate(0) translate(4 395.96)">
<title>Struc</title>
<polygon fill="white" stroke="none" points="-4,4 -4,-395.96 915.702,-395.96 915.702,4 -4,4"/>
<!-- n1 -->
<g id="node1" class="node"><title>n1</title>
<ellipse fill="none" stroke="black" cx="418.083" cy="-248.35" rx="48.1667" ry="26.7407"/>
<text text-anchor="middle" x="418.083" y="-252.15" font-family="Times,serif" font-size="14.00">&lt;rover0&gt;</text>
<text text-anchor="middle" x="418.083" y="-237.15" font-family="Times,serif" font-size="14.00">rover</text>
</g>
<!-- n1&#45;&gt;n1 -->
<g id="edge1" class="edge"><title>n1&#45;&gt;n1</title>
<path fill="none" stroke="black" d="M462.558,-258.786C474.806,-258.282 484.167,-254.803 484.167,-248.35 484.167,-243.813 479.539,-240.746 472.534,-239.15"/>
<polygon fill="black" stroke="black" points="472.912,-235.67 462.558,-237.914 472.052,-242.617 472.912,-235.67"/>
<text text-anchor="middle" x="577.667" y="-259.65" font-family="Times,serif" font-size="14.00"> static(equipped_for_imaging)</text>
<text text-anchor="middle" x="577.667" y="-244.65" font-family="Times,serif" font-size="14.00">init(available)</text>
<text text-anchor="middle" x="577.667" y="-229.65" font-family="Times,serif" font-size="14.00">static(equipped_for_soil_analysis)</text>
</g>
<!-- n8 -->
<g id="node8" class="node"><title>n8</title>
<ellipse fill="none" stroke="black" cx="461.083" cy="-135.61" rx="63.7795" ry="26.7407"/>
<text text-anchor="middle" x="461.083" y="-139.41" font-family="Times,serif" font-size="14.00">&lt;waypoint0&gt;</text>
<text text-anchor="middle" x="461.083" y="-124.41" font-family="Times,serif" font-size="14.00">waypoint</text>
</g>
<!-- n1&#45;&gt;n8 -->
<g id="edge11" class="edge"><title>n1&#45;&gt;n8</title>
<path fill="none" stroke="black" d="M427.948,-221.944C433.698,-207.138 441.036,-188.24 447.344,-171.994"/>
<polygon fill="black" stroke="black" points="450.758,-172.87 451.115,-162.281 444.233,-170.336 450.758,-172.87"/>
<text text-anchor="middle" x="463.583" y="-188.28" font-family="Times,serif" font-size="14.00"> init(at)</text>
</g>
<!-- n2 -->
<g id="node2" class="node"><title>n2</title>
<ellipse fill="none" stroke="black" cx="200.083" cy="-361.09" rx="56.6326" ry="26.7574"/>
<ellipse fill="none" stroke="black" cx="200.083" cy="-361.09" rx="60.6372" ry="30.7407"/>
<text text-anchor="middle" x="200.083" y="-364.89" font-family="Times,serif" font-size="14.00">&lt;camera1&gt;</text>
<text text-anchor="middle" x="200.083" y="-349.89" font-family="Times,serif" font-size="14.00">camera</text>
</g>
<!-- n2&#45;&gt;n1 -->
<g id="edge8" class="edge"><title>n2&#45;&gt;n1</title>
<path fill="none" stroke="black" d="M253.277,-346.191C279.67,-338.175 311.505,-326.778 338.083,-312.22 347.519,-307.052 348.629,-303.875 357.083,-297.22 365.42,-290.658 374.405,-283.6 382.849,-276.972"/>
<polygon fill="black" stroke="black" points="385.034,-279.707 390.741,-270.78 380.713,-274.2 385.034,-279.707"/>
<text text-anchor="middle" x="403.583" y="-301.02" font-family="Times,serif" font-size="14.00"> static(on_board)</text>
</g>
<!-- n4 -->
<g id="node4" class="node"><title>n4</title>
<ellipse fill="none" stroke="black" cx="240.083" cy="-248.35" rx="67.7712" ry="26.7574"/>
<ellipse fill="none" stroke="black" cx="240.083" cy="-248.35" rx="71.7647" ry="30.7407"/>
<text text-anchor="middle" x="240.083" y="-252.15" font-family="Times,serif" font-size="14.00">&lt;objective10&gt;</text>
<text text-anchor="middle" x="240.083" y="-237.15" font-family="Times,serif" font-size="14.00">objective</text>
</g>
<!-- n2&#45;&gt;n4 -->
<g id="edge12" class="edge"><title>n2&#45;&gt;n4</title>
<path fill="none" stroke="black" stroke-dasharray="5,2" d="M196.584,-330.248C196.352,-319.549 197.305,-307.578 201.083,-297.22 202.55,-293.198 204.509,-289.266 206.77,-285.494"/>
<polygon fill="black" stroke="black" points="209.802,-287.258 212.505,-277.014 204.003,-283.337 209.802,-287.258"/>
<text text-anchor="middle" x="269.583" y="-301.02" font-family="Times,serif" font-size="14.00"> static(calibration_target)</text>
</g>
<!-- n5 -->
<g id="node5" class="node"><title>n5</title>
<ellipse fill="none" stroke="black" cx="52.0833" cy="-135.61" rx="48.1603" ry="26.7574"/>
<ellipse fill="none" stroke="black" cx="52.0833" cy="-135.61" rx="52.1667" ry="30.7407"/>
<text text-anchor="middle" x="52.0833" y="-139.41" font-family="Times,serif" font-size="14.00">&lt;colour&gt;</text>
<text text-anchor="middle" x="52.0833" y="-124.41" font-family="Times,serif" font-size="14.00">mode</text>
</g>
<!-- n2&#45;&gt;n5 -->
<g id="edge6" class="edge"><title>n2&#45;&gt;n5</title>
<path fill="none" stroke="black" stroke-dasharray="5,2" d="M152.44,-341.842C124.421,-328.649 90.7378,-308.049 71.0833,-279.22 50.6938,-249.314 47.2998,-207.568 48.1935,-176.97"/>
<polygon fill="black" stroke="black" points="51.7049,-176.8 48.6676,-166.65 44.7123,-176.479 51.7049,-176.8"/>
<text text-anchor="middle" x="115.083" y="-244.65" font-family="Times,serif" font-size="14.00"> static(supports)</text>
</g>
<!-- n3 -->
<g id="node3" class="node"><title>n3</title>
<ellipse fill="none" stroke="black" cx="741.083" cy="-248.35" rx="51.7379" ry="26.7407"/>
<text text-anchor="middle" x="741.083" y="-252.15" font-family="Times,serif" font-size="14.00">&lt;general&gt;</text>
<text text-anchor="middle" x="741.083" y="-237.15" font-family="Times,serif" font-size="14.00">lander</text>
</g>
<!-- n3&#45;&gt;n3 -->
<g id="edge2" class="edge"><title>n3&#45;&gt;n3</title>
<path fill="none" stroke="black" d="M788.915,-258.742C801.336,-258.103 810.702,-254.639 810.702,-248.35 810.702,-243.928 806.072,-240.903 799.005,-239.274"/>
<polygon fill="black" stroke="black" points="799.284,-235.781 788.915,-237.959 798.379,-242.723 799.284,-235.781"/>
<text text-anchor="middle" x="861.202" y="-244.65" font-family="Times,serif" font-size="14.00"> init(channel_free)</text>
</g>
<!-- n3&#45;&gt;n8 -->
<g id="edge5" class="edge"><title>n3&#45;&gt;n8</title>
<path fill="none" stroke="black" d="M704.915,-228.89C696.815,-224.966 688.213,-220.961 680.083,-217.48 626.454,-194.518 563.898,-171.811 519.408,-156.332"/>
<polygon fill="black" stroke="black" points="520.511,-153.01 509.917,-153.044 518.22,-159.625 520.511,-153.01"/>
<text text-anchor="middle" x="679.083" y="-188.28" font-family="Times,serif" font-size="14.00"> static(at_lander)</text>
</g>
<!-- n4&#45;&gt;n5 -->
<g id="edge14" class="edge"><title>n4&#45;&gt;n5</title>
<path fill="none" stroke="black" stroke-dasharray="5,2" d="M179.846,-231.227C131.437,-218.155 71.1518,-201.567 69.0833,-199.48 62.9046,-193.246 58.9099,-185.013 56.3428,-176.565"/>
<polygon fill="black" stroke="black" points="59.6982,-175.55 53.9397,-166.657 52.8954,-177.2 59.6982,-175.55"/>
<text text-anchor="middle" x="161.083" y="-188.28" font-family="Times,serif" font-size="14.00"> end(communicated_image_data)</text>
</g>
<!-- n6 -->
<g id="node6" class="node"><title>n6</title>
<ellipse fill="none" stroke="black" cx="360.083" cy="-26.8701" rx="63.7795" ry="26.7407"/>
<text text-anchor="middle" x="360.083" y="-30.6701" font-family="Times,serif" font-size="14.00">&lt;waypoint1&gt;</text>
<text text-anchor="middle" x="360.083" y="-15.6701" font-family="Times,serif" font-size="14.00">waypoint</text>
</g>
<!-- n4&#45;&gt;n6 -->
<g id="edge7" class="edge"><title>n4&#45;&gt;n6</title>
<path fill="none" stroke="black" stroke-dasharray="5,2" d="M248.322,-217.506C249.93,-211.543 251.582,-205.319 253.083,-199.48 263.873,-157.515 254.032,-142.039 276.083,-104.74 286.963,-86.3369 303.642,-69.7639 319.278,-56.7591"/>
<polygon fill="black" stroke="black" points="321.722,-59.2856 327.324,-50.2929 317.337,-53.8293 321.722,-59.2856"/>
<text text-anchor="middle" x="332.083" y="-131.91" font-family="Times,serif" font-size="14.00"> static(visible_from)</text>
</g>
<!-- n4&#45;&gt;n8 -->
<g id="edge15" class="edge"><title>n4&#45;&gt;n8</title>
<path fill="none" stroke="black" d="M269.755,-219.92C284.329,-207.644 302.685,-193.856 321.083,-184.48 346.648,-171.452 355.884,-175.619 383.083,-166.48 390.706,-163.919 398.686,-161.066 406.511,-158.168"/>
<polygon fill="black" stroke="black" points="407.812,-161.418 415.944,-154.626 405.352,-154.864 407.812,-161.418"/>
<text text-anchor="middle" x="377.083" y="-188.28" font-family="Times,serif" font-size="14.00"> static(visible_from)</text>
</g>
<!-- n6&#45;&gt;n8 -->
<g id="edge13" class="edge"><title>n6&#45;&gt;n8</title>
<path fill="none" stroke="black" d="M352.435,-53.634C350.702,-64.6141 350.901,-77.0886 357.083,-86.7401 360.289,-91.7454 383.207,-102.525 406.714,-112.59"/>
<polygon fill="black" stroke="black" points="405.489,-115.872 416.062,-116.545 408.217,-109.425 405.489,-115.872"/>
<text text-anchor="middle" x="396.083" y="-75.5401" font-family="Times,serif" font-size="14.00"> static(visible)</text>
</g>
<!-- n7 -->
<g id="node7" class="node"><title>n7</title>
<ellipse fill="none" stroke="black" cx="476.083" cy="-361.09" rx="67.3507" ry="26.7407"/>
<text text-anchor="middle" x="476.083" y="-364.89" font-family="Times,serif" font-size="14.00">&lt;rover0store&gt;</text>
<text text-anchor="middle" x="476.083" y="-349.89" font-family="Times,serif" font-size="14.00">store</text>
</g>
<!-- n7&#45;&gt;n1 -->
<g id="edge9" class="edge"><title>n7&#45;&gt;n1</title>
<path fill="none" stroke="black" d="M469.02,-334.251C465.338,-322.587 460.296,-308.848 454.083,-297.22 451.258,-291.932 447.879,-286.598 444.34,-281.507"/>
<polygon fill="black" stroke="black" points="447.018,-279.239 438.3,-273.219 441.361,-283.362 447.018,-279.239"/>
<text text-anchor="middle" x="504.083" y="-301.02" font-family="Times,serif" font-size="14.00"> static(store_of)</text>
</g>
<!-- n7&#45;&gt;n7 -->
<g id="edge3" class="edge"><title>n7&#45;&gt;n7</title>
<path fill="none" stroke="black" d="M538.478,-371.251C551.706,-370.22 561.258,-366.833 561.258,-361.09 561.258,-356.918 556.216,-353.99 548.384,-352.304"/>
<polygon fill="black" stroke="black" points="548.864,-348.837 538.478,-350.929 547.902,-355.771 548.864,-348.837"/>
<text text-anchor="middle" x="594.258" y="-357.39" font-family="Times,serif" font-size="14.00"> init(empty)</text>
</g>
<!-- n8&#45;&gt;n6 -->
<g id="edge10" class="edge"><title>n8&#45;&gt;n6</title>
<path fill="none" stroke="black" d="M456.462,-108.595C453.238,-96.3473 447.876,-82.1745 439.083,-71.7401 432.265,-63.6491 423.556,-56.7763 414.426,-51.0415"/>
<polygon fill="black" stroke="black" points="415.992,-47.9035 405.591,-45.8892 412.466,-53.9504 415.992,-47.9035"/>
<text text-anchor="middle" x="487.083" y="-75.5401" font-family="Times,serif" font-size="14.00"> static(visible)</text>
</g>
<!-- n8&#45;&gt;n8 -->
<g id="edge4" class="edge"><title>n8&#45;&gt;n8</title>
<path fill="none" stroke="black" d="M520.16,-145.828C533.215,-144.868 542.723,-141.462 542.723,-135.61 542.723,-131.404 537.811,-128.462 530.2,-126.783"/>
<polygon fill="black" stroke="black" points="530.545,-123.298 520.16,-125.393 529.585,-130.231 530.545,-123.298"/>
<text text-anchor="middle" x="627.223" y="-139.41" font-family="Times,serif" font-size="14.00"> end(communicated_soil_data)</text>
<text text-anchor="middle" x="627.223" y="-124.41" font-family="Times,serif" font-size="14.00">init(at_soil_sample)</text>
</g>
</g>
</svg>
