<?xml version="1.0" encoding="UTF-8" standalone="no"?>
<!DOCTYPE svg PUBLIC "-//W3C//DTD SVG 1.1//EN"
 "http://www.w3.org/Graphics/SVG/1.1/DTD/svg11.dtd">
<!-- Generated by graphviz version 2.38.0 (20140413.2041)
 -->
<!-- Title: Struc Pages: 1 -->
<svg width="5031pt" height="376pt"
 viewBox="0.00 0.00 5031.27 375.96" xmlns="http://www.w3.org/2000/svg" xmlns:xlink="http://www.w3.org/1999/xlink">
<g id="graph0" class="graph" transform="scale(1 1) rotate(0) translate(4 371.96)">
<title>Struc</title>
<polygon fill="white" stroke="none" points="-4,4 -4,-371.96 5027.27,-371.96 5027.27,4 -4,4"/>
<!-- n1 -->
<g id="node1" class="node"><title>n1</title>
<ellipse fill="none" stroke="black" cx="1532.27" cy="-236.35" rx="51.7379" ry="26.7407"/>
<text text-anchor="middle" x="1532.27" y="-240.15" font-family="Times,serif" font-size="14.00">&lt;general&gt;</text>
<text text-anchor="middle" x="1532.27" y="-225.15" font-family="Times,serif" font-size="14.00">lander</text>
</g>
<!-- n1&#45;&gt;n1 -->
<g id="edge1" class="edge"><title>n1&#45;&gt;n1</title>
<path fill="none" stroke="black" d="M1580.75,-245.966C1592.84,-245.294 1601.89,-242.089 1601.89,-236.35 1601.89,-232.405 1597.61,-229.657 1591.01,-228.107"/>
<polygon fill="black" stroke="black" points="1591.12,-224.59 1580.75,-226.734 1590.19,-231.529 1591.12,-224.59"/>
<text text-anchor="middle" x="1652.39" y="-232.65" font-family="Times,serif" font-size="14.00"> init(channel_free)</text>
</g>
<!-- n6 -->
<g id="node6" class="node"><title>n6</title>
<ellipse fill="none" stroke="black" cx="1924.27" cy="-131.61" rx="63.7795" ry="26.7407"/>
<text text-anchor="middle" x="1924.27" y="-135.41" font-family="Times,serif" font-size="14.00">&lt;waypoint0&gt;</text>
<text text-anchor="middle" x="1924.27" y="-120.41" font-family="Times,serif" font-size="14.00">waypoint</text>
</g>
<!-- n1&#45;&gt;n6 -->
<g id="edge45" class="edge"><title>n1&#45;&gt;n6</title>
<path fill="none" stroke="black" d="M1572.65,-219.594C1606.79,-206.704 1657.19,-188.675 1702.27,-176.48 1752.93,-162.773 1811.17,-151.425 1855.29,-143.707"/>
<polygon fill="black" stroke="black" points="1856.07,-147.123 1865.33,-141.97 1854.88,-140.225 1856.07,-147.123"/>
<text text-anchor="middle" x="1748.27" y="-180.28" font-family="Times,serif" font-size="14.00"> static(at_lander)</text>
</g>
<!-- n2 -->
<g id="node2" class="node"><title>n2</title>
<ellipse fill="none" stroke="black" cx="161.268" cy="-341.09" rx="56.6372" ry="26.7407"/>
<text text-anchor="middle" x="161.268" y="-344.89" font-family="Times,serif" font-size="14.00">&lt;camera2&gt;</text>
<text text-anchor="middle" x="161.268" y="-329.89" font-family="Times,serif" font-size="14.00">camera</text>
</g>
<!-- n18 -->
<g id="node18" class="node"><title>n18</title>
<ellipse fill="none" stroke="black" cx="2172.27" cy="-236.35" rx="48.1667" ry="26.7407"/>
<text text-anchor="middle" x="2172.27" y="-240.15" font-family="Times,serif" font-size="14.00">&lt;rover0&gt;</text>
<text text-anchor="middle" x="2172.27" y="-225.15" font-family="Times,serif" font-size="14.00">rover</text>
</g>
<!-- n2&#45;&gt;n18 -->
<g id="edge6" class="edge"><title>n2&#45;&gt;n18</title>
<path fill="none" stroke="black" d="M211.952,-328.965C279.416,-314.744 402.621,-290.817 509.268,-281.22 843.718,-251.124 1685.83,-293.484 2020.27,-263.22 2052.94,-260.264 2089.16,-254.209 2118.05,-248.701"/>
<polygon fill="black" stroke="black" points="2118.8,-252.122 2127.95,-246.781 2117.46,-245.25 2118.8,-252.122"/>
<text text-anchor="middle" x="555.768" y="-285.02" font-family="Times,serif" font-size="14.00"> static(on_board)</text>
</g>
<!-- n19 -->
<g id="node19" class="node"><title>n19</title>
<ellipse fill="none" stroke="black" cx="214.268" cy="-236.35" rx="62.8651" ry="26.7407"/>
<text text-anchor="middle" x="214.268" y="-240.15" font-family="Times,serif" font-size="14.00">&lt;objective9&gt;</text>
<text text-anchor="middle" x="214.268" y="-225.15" font-family="Times,serif" font-size="14.00">objective</text>
</g>
<!-- n2&#45;&gt;n19 -->
<g id="edge8" class="edge"><title>n2&#45;&gt;n19</title>
<path fill="none" stroke="black" d="M157.149,-314.105C156.596,-303.451 157.487,-291.284 162.268,-281.22 164.865,-275.753 168.507,-270.716 172.67,-266.157"/>
<polygon fill="black" stroke="black" points="175.356,-268.427 180.078,-258.943 170.472,-263.412 175.356,-268.427"/>
<text text-anchor="middle" x="230.768" y="-285.02" font-family="Times,serif" font-size="14.00"> static(calibration_target)</text>
</g>
<!-- n20 -->
<g id="node20" class="node"><title>n20</title>
<ellipse fill="none" stroke="black" cx="410.268" cy="-131.61" rx="53.9813" ry="26.7407"/>
<text text-anchor="middle" x="410.268" y="-135.41" font-family="Times,serif" font-size="14.00">&lt;low_res&gt;</text>
<text text-anchor="middle" x="410.268" y="-120.41" font-family="Times,serif" font-size="14.00">mode</text>
</g>
<!-- n2&#45;&gt;n20 -->
<g id="edge44" class="edge"><title>n2&#45;&gt;n20</title>
<path fill="none" stroke="black" d="M120.245,-322.509C96.2768,-309.832 68.0991,-290.187 54.268,-263.22 36.0664,-227.732 43.1946,-197.209 77.268,-176.48 99.8432,-162.746 257.4,-146.467 347.469,-138.132"/>
<polygon fill="black" stroke="black" points="347.932,-141.605 357.57,-137.205 347.292,-134.634 347.932,-141.605"/>
<text text-anchor="middle" x="98.268" y="-232.65" font-family="Times,serif" font-size="14.00"> static(supports)</text>
</g>
<!-- n3 -->
<g id="node3" class="node"><title>n3</title>
<ellipse fill="none" stroke="black" cx="1110.27" cy="-236.35" rx="62.8651" ry="26.7407"/>
<text text-anchor="middle" x="1110.27" y="-240.15" font-family="Times,serif" font-size="14.00">&lt;objective2&gt;</text>
<text text-anchor="middle" x="1110.27" y="-225.15" font-family="Times,serif" font-size="14.00">objective</text>
</g>
<!-- n5 -->
<g id="node5" class="node"><title>n5</title>
<ellipse fill="none" stroke="black" cx="1923.27" cy="-26.8701" rx="63.7795" ry="26.7407"/>
<text text-anchor="middle" x="1923.27" y="-30.6701" font-family="Times,serif" font-size="14.00">&lt;waypoint1&gt;</text>
<text text-anchor="middle" x="1923.27" y="-15.6701" font-family="Times,serif" font-size="14.00">waypoint</text>
</g>
<!-- n3&#45;&gt;n5 -->
<g id="edge22" class="edge"><title>n3&#45;&gt;n5</title>
<path fill="none" stroke="black" d="M1049.11,-229.738C972.611,-222.088 849.923,-207.496 836.268,-191.48 831.943,-186.407 833.312,-182.456 836.268,-176.48 859.574,-129.376 881.167,-123.479 930.268,-104.74 1098.28,-40.6195 1648.85,-29.9488 1849.37,-28.2014"/>
<polygon fill="black" stroke="black" points="1849.54,-31.7002 1859.51,-28.1181 1849.48,-24.7004 1849.54,-31.7002"/>
<text text-anchor="middle" x="986.268" y="-127.91" font-family="Times,serif" font-size="14.00"> static(visible_from)</text>
</g>
<!-- n3&#45;&gt;n6 -->
<g id="edge15" class="edge"><title>n3&#45;&gt;n6</title>
<path fill="none" stroke="black" d="M1170.95,-229.161C1239.21,-221.571 1345.38,-207.695 1382.27,-191.48 1392.12,-187.151 1391.26,-180.431 1401.27,-176.48 1481.02,-144.995 1726.19,-136.093 1850.45,-133.586"/>
<polygon fill="black" stroke="black" points="1850.7,-137.082 1860.63,-133.39 1850.57,-130.083 1850.7,-137.082"/>
<text text-anchor="middle" x="1457.27" y="-180.28" font-family="Times,serif" font-size="14.00"> static(visible_from)</text>
</g>
<!-- n4 -->
<g id="node4" class="node"><title>n4</title>
<ellipse fill="none" stroke="black" cx="4096.27" cy="-131.61" rx="56.6372" ry="26.7407"/>
<text text-anchor="middle" x="4096.27" y="-135.41" font-family="Times,serif" font-size="14.00">&lt;high_res&gt;</text>
<text text-anchor="middle" x="4096.27" y="-120.41" font-family="Times,serif" font-size="14.00">mode</text>
</g>
<!-- n5&#45;&gt;n6 -->
<g id="edge13" class="edge"><title>n5&#45;&gt;n6</title>
<path fill="none" stroke="black" d="M1943.15,-52.5809C1946.9,-58.5291 1950.27,-65.0951 1952.27,-71.7401 1954.8,-80.1534 1953.22,-88.8773 1949.79,-96.9498"/>
<polygon fill="black" stroke="black" points="1946.56,-95.582 1945.05,-106.069 1952.77,-98.8097 1946.56,-95.582"/>
<text text-anchor="middle" x="1993.27" y="-75.5401" font-family="Times,serif" font-size="14.00"> static(visible)</text>
</g>
<!-- n6&#45;&gt;n5 -->
<g id="edge30" class="edge"><title>n6&#45;&gt;n5</title>
<path fill="none" stroke="black" d="M1888.68,-109.287C1881.25,-103.021 1874.42,-95.4652 1870.27,-86.7401 1864.95,-75.5704 1869.91,-64.9818 1878.59,-55.945"/>
<polygon fill="black" stroke="black" points="1881.15,-58.3514 1886.22,-49.0488 1876.45,-53.1588 1881.15,-58.3514"/>
<text text-anchor="middle" x="1909.27" y="-75.5401" font-family="Times,serif" font-size="14.00"> static(visible)</text>
</g>
<!-- n6&#45;&gt;n6 -->
<g id="edge2" class="edge"><title>n6&#45;&gt;n6</title>
<path fill="none" stroke="black" d="M1984.07,-141.045C1996.75,-140.087 2005.91,-136.942 2005.91,-131.61 2005.91,-127.861 2001.38,-125.193 1994.29,-123.607"/>
<polygon fill="black" stroke="black" points="1994.46,-120.097 1984.07,-122.175 1993.49,-127.029 1994.46,-120.097"/>
<text text-anchor="middle" x="2090.41" y="-135.41" font-family="Times,serif" font-size="14.00"> end(communicated_soil_data)</text>
<text text-anchor="middle" x="2090.41" y="-120.41" font-family="Times,serif" font-size="14.00">init(at_soil_sample)</text>
</g>
<!-- n7 -->
<g id="node7" class="node"><title>n7</title>
<ellipse fill="none" stroke="black" cx="2871.27" cy="-236.35" rx="67.7647" ry="26.7407"/>
<text text-anchor="middle" x="2871.27" y="-240.15" font-family="Times,serif" font-size="14.00">&lt;objective11&gt;</text>
<text text-anchor="middle" x="2871.27" y="-225.15" font-family="Times,serif" font-size="14.00">objective</text>
</g>
<!-- n7&#45;&gt;n4 -->
<g id="edge36" class="edge"><title>n7&#45;&gt;n4</title>
<path fill="none" stroke="black" d="M2938.6,-232.089C3039.49,-226.554 3224.74,-213.703 3287.27,-191.48 3298.77,-187.393 3298.67,-180.282 3310.27,-176.48 3442.91,-132.992 3864.29,-130.973 4029.19,-131.933"/>
<polygon fill="black" stroke="black" points="4029.65,-135.436 4039.68,-132 4029.7,-128.436 4029.65,-135.436"/>
<text text-anchor="middle" x="3402.27" y="-180.28" font-family="Times,serif" font-size="14.00"> end(communicated_image_data)</text>
</g>
<!-- n7&#45;&gt;n5 -->
<g id="edge14" class="edge"><title>n7&#45;&gt;n5</title>
<path fill="none" stroke="black" d="M2871.3,-209.221C2869.92,-197.629 2866.2,-184.765 2857.27,-176.48 2732.18,-60.5218 2194.95,-34.8986 1996.93,-29.3595"/>
<polygon fill="black" stroke="black" points="1997.01,-25.8603 1986.91,-29.0884 1996.82,-32.8578 1997.01,-25.8603"/>
<text text-anchor="middle" x="2889.27" y="-127.91" font-family="Times,serif" font-size="14.00"> static(visible_from)</text>
</g>
<!-- n7&#45;&gt;n6 -->
<g id="edge41" class="edge"><title>n7&#45;&gt;n6</title>
<path fill="none" stroke="black" d="M2803.85,-232.429C2679.62,-226.624 2419.24,-212.366 2331.27,-191.48 2314,-187.381 2311.45,-180.898 2294.27,-176.48 2193.6,-150.604 2073.52,-139.928 1998.07,-135.565"/>
<polygon fill="black" stroke="black" points="1997.91,-132.05 1987.73,-134.99 1997.52,-139.039 1997.91,-132.05"/>
<text text-anchor="middle" x="2387.27" y="-180.28" font-family="Times,serif" font-size="14.00"> static(visible_from)</text>
</g>
<!-- n8 -->
<g id="node8" class="node"><title>n8</title>
<ellipse fill="none" stroke="black" cx="4531.27" cy="-341.09" rx="56.6372" ry="26.7407"/>
<text text-anchor="middle" x="4531.27" y="-344.89" font-family="Times,serif" font-size="14.00">&lt;camera0&gt;</text>
<text text-anchor="middle" x="4531.27" y="-329.89" font-family="Times,serif" font-size="14.00">camera</text>
</g>
<!-- n8&#45;&gt;n4 -->
<g id="edge34" class="edge"><title>n8&#45;&gt;n4</title>
<path fill="none" stroke="black" d="M4584.28,-331.227C4688.63,-311.72 4903.96,-260.045 4825.27,-176.48 4802.75,-152.567 4338.92,-138.62 4163.07,-134.176"/>
<polygon fill="black" stroke="black" points="4162.99,-130.673 4152.91,-133.921 4162.82,-137.67 4162.99,-130.673"/>
<text text-anchor="middle" x="4885.27" y="-232.65" font-family="Times,serif" font-size="14.00"> static(supports)</text>
</g>
<!-- n15 -->
<g id="node15" class="node"><title>n15</title>
<ellipse fill="none" stroke="black" cx="4531.27" cy="-236.35" rx="62.8651" ry="26.7407"/>
<text text-anchor="middle" x="4531.27" y="-240.15" font-family="Times,serif" font-size="14.00">&lt;objective5&gt;</text>
<text text-anchor="middle" x="4531.27" y="-225.15" font-family="Times,serif" font-size="14.00">objective</text>
</g>
<!-- n8&#45;&gt;n15 -->
<g id="edge40" class="edge"><title>n8&#45;&gt;n15</title>
<path fill="none" stroke="black" d="M4531.27,-314.165C4531.27,-301.875 4531.27,-286.987 4531.27,-273.602"/>
<polygon fill="black" stroke="black" points="4534.77,-273.268 4531.27,-263.268 4527.77,-273.268 4534.77,-273.268"/>
<text text-anchor="middle" x="4599.77" y="-285.02" font-family="Times,serif" font-size="14.00"> static(calibration_target)</text>
</g>
<!-- n8&#45;&gt;n18 -->
<g id="edge21" class="edge"><title>n8&#45;&gt;n18</title>
<path fill="none" stroke="black" d="M4474.99,-337.64C4153.88,-323.654 2556.06,-254.065 2230.31,-239.878"/>
<polygon fill="black" stroke="black" points="2230.29,-236.374 2220.15,-239.436 2229.99,-243.367 2230.29,-236.374"/>
<text text-anchor="middle" x="3538.77" y="-285.02" font-family="Times,serif" font-size="14.00"> static(on_board)</text>
</g>
<!-- n9 -->
<g id="node9" class="node"><title>n9</title>
<ellipse fill="none" stroke="black" cx="1943.27" cy="-236.35" rx="67.7647" ry="26.7407"/>
<text text-anchor="middle" x="1943.27" y="-240.15" font-family="Times,serif" font-size="14.00">&lt;objective12&gt;</text>
<text text-anchor="middle" x="1943.27" y="-225.15" font-family="Times,serif" font-size="14.00">objective</text>
</g>
<!-- n9&#45;&gt;n4 -->
<g id="edge25" class="edge"><title>n9&#45;&gt;n4</title>
<path fill="none" stroke="black" d="M2004.35,-224.405C2037.13,-218.977 2078.28,-212.873 2115.27,-209.48 2174.5,-204.048 2593.74,-209.966 2650.27,-191.48 2661.52,-187.802 2661.01,-180.142 2672.27,-176.48 2704.9,-165.86 3751.99,-140.664 4029.39,-134.162"/>
<polygon fill="black" stroke="black" points="4029.79,-137.654 4039.7,-133.921 4029.62,-130.656 4029.79,-137.654"/>
<text text-anchor="middle" x="2764.27" y="-180.28" font-family="Times,serif" font-size="14.00"> end(communicated_image_data)</text>
</g>
<!-- n9&#45;&gt;n6 -->
<g id="edge26" class="edge"><title>n9&#45;&gt;n6</title>
<path fill="none" stroke="black" d="M1930.96,-209.873C1928.63,-203.964 1926.53,-197.608 1925.27,-191.48 1923.76,-184.184 1923.04,-176.271 1922.76,-168.684"/>
<polygon fill="black" stroke="black" points="1926.26,-168.586 1922.64,-158.629 1919.26,-168.67 1926.26,-168.586"/>
<text text-anchor="middle" x="1981.27" y="-180.28" font-family="Times,serif" font-size="14.00"> static(visible_from)</text>
</g>
<!-- n24 -->
<g id="node24" class="node"><title>n24</title>
<ellipse fill="none" stroke="black" cx="1099.27" cy="-131.61" rx="48.1667" ry="26.7407"/>
<text text-anchor="middle" x="1099.27" y="-135.41" font-family="Times,serif" font-size="14.00">&lt;colour&gt;</text>
<text text-anchor="middle" x="1099.27" y="-120.41" font-family="Times,serif" font-size="14.00">mode</text>
</g>
<!-- n9&#45;&gt;n24 -->
<g id="edge7" class="edge"><title>n9&#45;&gt;n24</title>
<path fill="none" stroke="black" d="M1895.78,-216.954C1886.15,-213.918 1875.99,-211.203 1866.27,-209.48 1792.72,-196.442 1264.5,-216.919 1194.27,-191.48 1184.15,-187.816 1184.17,-182.519 1175.27,-176.48 1164.72,-169.328 1152.95,-162.167 1141.89,-155.765"/>
<polygon fill="black" stroke="black" points="1143.62,-152.725 1133.2,-150.809 1140.15,-158.805 1143.62,-152.725"/>
<text text-anchor="middle" x="1286.27" y="-180.28" font-family="Times,serif" font-size="14.00"> end(communicated_image_data)</text>
</g>
<!-- n10 -->
<g id="node10" class="node"><title>n10</title>
<ellipse fill="none" stroke="black" cx="797.268" cy="-341.09" rx="56.6372" ry="26.7407"/>
<text text-anchor="middle" x="797.268" y="-344.89" font-family="Times,serif" font-size="14.00">&lt;camera1&gt;</text>
<text text-anchor="middle" x="797.268" y="-329.89" font-family="Times,serif" font-size="14.00">camera</text>
</g>
<!-- n10&#45;&gt;n4 -->
<g id="edge35" class="edge"><title>n10&#45;&gt;n4</title>
<path fill="none" stroke="black" d="M853.924,-338.803C1034.94,-334.724 1615.59,-321.904 2096.27,-314.22 2759.79,-303.614 2926.11,-320.467 3589.27,-296.22 3764.04,-289.83 4264.8,-331.741 4369.27,-191.48 4395.2,-156.659 4251.23,-141.746 4162.39,-135.929"/>
<polygon fill="black" stroke="black" points="4162.58,-132.434 4152.38,-135.296 4162.14,-139.42 4162.58,-132.434"/>
<text text-anchor="middle" x="4396.27" y="-232.65" font-family="Times,serif" font-size="14.00"> static(supports)</text>
</g>
<!-- n11 -->
<g id="node11" class="node"><title>n11</title>
<ellipse fill="none" stroke="black" cx="482.268" cy="-236.35" rx="62.8651" ry="26.7407"/>
<text text-anchor="middle" x="482.268" y="-240.15" font-family="Times,serif" font-size="14.00">&lt;objective6&gt;</text>
<text text-anchor="middle" x="482.268" y="-225.15" font-family="Times,serif" font-size="14.00">objective</text>
</g>
<!-- n10&#45;&gt;n11 -->
<g id="edge37" class="edge"><title>n10&#45;&gt;n11</title>
<path fill="none" stroke="black" d="M749.092,-326.915C719.324,-318.57 680.415,-307.298 646.268,-296.22 609.89,-284.419 569.447,-269.917 537.824,-258.259"/>
<polygon fill="black" stroke="black" points="538.901,-254.926 528.308,-254.739 536.472,-261.491 538.901,-254.926"/>
<text text-anchor="middle" x="714.768" y="-285.02" font-family="Times,serif" font-size="14.00"> static(calibration_target)</text>
</g>
<!-- n10&#45;&gt;n18 -->
<g id="edge18" class="edge"><title>n10&#45;&gt;n18</title>
<path fill="none" stroke="black" d="M853.839,-338.663C1028.19,-333.81 1572.53,-315.246 2020.27,-263.22 2052.73,-259.448 2088.81,-253.389 2117.67,-248.082"/>
<polygon fill="black" stroke="black" points="2118.36,-251.513 2127.55,-246.242 2117.08,-244.631 2118.36,-251.513"/>
<text text-anchor="middle" x="1867.77" y="-285.02" font-family="Times,serif" font-size="14.00"> static(on_board)</text>
</g>
<!-- n10&#45;&gt;n20 -->
<g id="edge5" class="edge"><title>n10&#45;&gt;n20</title>
<path fill="none" stroke="black" d="M740.469,-340.071C660.711,-338.682 511.688,-331.082 390.268,-296.22 357.979,-286.95 347.608,-285.275 322.268,-263.22 300.583,-244.347 310.89,-224.32 286.268,-209.48 253.353,-189.642 139.99,-220.034 114.268,-191.48 109.806,-186.527 109.913,-181.528 114.268,-176.48 129.273,-159.087 264.841,-144.786 347.213,-137.608"/>
<polygon fill="black" stroke="black" points="347.566,-141.09 357.23,-136.747 346.967,-134.116 347.566,-141.09"/>
<text text-anchor="middle" x="366.268" y="-232.65" font-family="Times,serif" font-size="14.00"> static(supports)</text>
</g>
<!-- n10&#45;&gt;n24 -->
<g id="edge16" class="edge"><title>n10&#45;&gt;n24</title>
<path fill="none" stroke="black" d="M790.725,-314.349C783.287,-278.406 776.296,-213.446 811.268,-176.48 830.857,-155.774 910.084,-162.741 938.268,-158.48 973.225,-153.195 1012.39,-146.91 1043.34,-141.858"/>
<polygon fill="black" stroke="black" points="1044.2,-145.264 1053.5,-140.196 1043.07,-138.356 1044.2,-145.264"/>
<text text-anchor="middle" x="836.268" y="-232.65" font-family="Times,serif" font-size="14.00"> static(supports)</text>
</g>
<!-- n11&#45;&gt;n5 -->
<g id="edge19" class="edge"><title>n11&#45;&gt;n5</title>
<path fill="none" stroke="black" d="M438.965,-216.647C430.886,-213.8 422.418,-211.232 414.268,-209.48 381.62,-202.463 137.163,-215.79 114.268,-191.48 109.697,-186.627 110.968,-182.273 114.268,-176.48 145.214,-122.157 175.365,-122.638 235.268,-104.74 391.166,-58.1599 1544.6,-34.5826 1849.51,-29.1218"/>
<polygon fill="black" stroke="black" points="1849.63,-32.6203 1859.57,-28.9428 1849.51,-25.6214 1849.63,-32.6203"/>
<text text-anchor="middle" x="291.268" y="-127.91" font-family="Times,serif" font-size="14.00"> static(visible_from)</text>
</g>
<!-- n11&#45;&gt;n6 -->
<g id="edge38" class="edge"><title>n11&#45;&gt;n6</title>
<path fill="none" stroke="black" d="M462.324,-210.805C455.323,-199.154 451.206,-185.779 460.268,-176.48 473.765,-162.629 1136.94,-159.056 1156.27,-158.48 1411.32,-150.886 1713.96,-140.199 1850.71,-135.279"/>
<polygon fill="black" stroke="black" points="1851.19,-138.765 1861.06,-134.907 1850.94,-131.769 1851.19,-138.765"/>
<text text-anchor="middle" x="516.268" y="-180.28" font-family="Times,serif" font-size="14.00"> static(visible_from)</text>
</g>
<!-- n11&#45;&gt;n20 -->
<g id="edge47" class="edge"><title>n11&#45;&gt;n20</title>
<path fill="none" stroke="black" d="M436.377,-217.763C426.262,-214.5 415.508,-211.49 405.268,-209.48 374.35,-203.411 143.829,-214.456 122.268,-191.48 90.1739,-157.28 252.628,-141.843 346.811,-135.856"/>
<polygon fill="black" stroke="black" points="347.057,-139.347 356.822,-135.238 346.626,-132.36 347.057,-139.347"/>
<text text-anchor="middle" x="214.268" y="-180.28" font-family="Times,serif" font-size="14.00"> end(communicated_image_data)</text>
</g>
<!-- n12 -->
<g id="node12" class="node"><title>n12</title>
<ellipse fill="none" stroke="black" cx="3403.27" cy="-236.35" rx="62.8651" ry="26.7407"/>
<text text-anchor="middle" x="3403.27" y="-240.15" font-family="Times,serif" font-size="14.00">&lt;objective1&gt;</text>
<text text-anchor="middle" x="3403.27" y="-225.15" font-family="Times,serif" font-size="14.00">objective</text>
</g>
<!-- n12&#45;&gt;n4 -->
<g id="edge11" class="edge"><title>n12&#45;&gt;n4</title>
<path fill="none" stroke="black" d="M3465.59,-231.846C3554.21,-226.175 3711.74,-213.355 3764.27,-191.48 3774.2,-187.344 3773.37,-180.707 3783.27,-176.48 3863.26,-142.306 3964.2,-133.633 4029.47,-131.983"/>
<polygon fill="black" stroke="black" points="4029.71,-135.479 4039.63,-131.776 4029.57,-128.481 4029.71,-135.479"/>
<text text-anchor="middle" x="3875.27" y="-180.28" font-family="Times,serif" font-size="14.00"> end(communicated_image_data)</text>
</g>
<!-- n12&#45;&gt;n6 -->
<g id="edge9" class="edge"><title>n12&#45;&gt;n6</title>
<path fill="none" stroke="black" d="M3340.48,-234.507C3245.36,-232.179 3059.51,-223.518 2905.27,-191.48 2884.63,-187.193 2880.99,-180.344 2860.27,-176.48 2695.38,-145.744 2188.83,-136.06 1998.01,-133.455"/>
<polygon fill="black" stroke="black" points="1997.85,-129.953 1987.81,-133.319 1997.76,-136.952 1997.85,-129.953"/>
<text text-anchor="middle" x="2961.27" y="-180.28" font-family="Times,serif" font-size="14.00"> static(visible_from)</text>
</g>
<!-- n13 -->
<g id="node13" class="node"><title>n13</title>
<ellipse fill="none" stroke="black" cx="2172.27" cy="-341.09" rx="67.3507" ry="26.7407"/>
<text text-anchor="middle" x="2172.27" y="-344.89" font-family="Times,serif" font-size="14.00">&lt;rover0store&gt;</text>
<text text-anchor="middle" x="2172.27" y="-329.89" font-family="Times,serif" font-size="14.00">store</text>
</g>
<!-- n13&#45;&gt;n13 -->
<g id="edge3" class="edge"><title>n13&#45;&gt;n13</title>
<path fill="none" stroke="black" d="M2235.41,-350.468C2248.25,-349.447 2257.44,-346.321 2257.44,-341.09 2257.44,-337.413 2252.9,-334.775 2245.74,-333.179"/>
<polygon fill="black" stroke="black" points="2245.81,-329.653 2235.41,-331.712 2244.82,-336.584 2245.81,-329.653"/>
<text text-anchor="middle" x="2290.44" y="-337.39" font-family="Times,serif" font-size="14.00"> init(empty)</text>
</g>
<!-- n13&#45;&gt;n18 -->
<g id="edge29" class="edge"><title>n13&#45;&gt;n18</title>
<path fill="none" stroke="black" d="M2172.27,-314.165C2172.27,-301.875 2172.27,-286.987 2172.27,-273.602"/>
<polygon fill="black" stroke="black" points="2175.77,-273.268 2172.27,-263.268 2168.77,-273.268 2175.77,-273.268"/>
<text text-anchor="middle" x="2215.27" y="-285.02" font-family="Times,serif" font-size="14.00"> static(store_of)</text>
</g>
<!-- n14 -->
<g id="node14" class="node"><title>n14</title>
<ellipse fill="none" stroke="black" cx="653.268" cy="-236.35" rx="62.8651" ry="26.7407"/>
<text text-anchor="middle" x="653.268" y="-240.15" font-family="Times,serif" font-size="14.00">&lt;objective4&gt;</text>
<text text-anchor="middle" x="653.268" y="-225.15" font-family="Times,serif" font-size="14.00">objective</text>
</g>
<!-- n14&#45;&gt;n6 -->
<g id="edge49" class="edge"><title>n14&#45;&gt;n6</title>
<path fill="none" stroke="black" d="M707.031,-222.24C728.181,-217.532 752.751,-212.616 775.268,-209.48 833.728,-201.338 985.196,-212.717 1040.27,-191.48 1050.31,-187.609 1049.2,-180.265 1059.27,-176.48 1132.25,-149.051 1654.79,-137.271 1850.51,-133.787"/>
<polygon fill="black" stroke="black" points="1850.76,-137.283 1860.7,-133.608 1850.64,-130.284 1850.76,-137.283"/>
<text text-anchor="middle" x="1115.27" y="-180.28" font-family="Times,serif" font-size="14.00"> static(visible_from)</text>
</g>
<!-- n14&#45;&gt;n20 -->
<g id="edge28" class="edge"><title>n14&#45;&gt;n20</title>
<path fill="none" stroke="black" d="M625.146,-211.99C607.633,-197.815 586.544,-181.515 576.268,-176.48 543.297,-160.327 503.626,-149.562 471.334,-142.739"/>
<polygon fill="black" stroke="black" points="471.624,-139.227 461.127,-140.661 470.227,-146.086 471.624,-139.227"/>
<text text-anchor="middle" x="690.268" y="-180.28" font-family="Times,serif" font-size="14.00"> end(communicated_image_data)</text>
</g>
<!-- n15&#45;&gt;n4 -->
<g id="edge10" class="edge"><title>n15&#45;&gt;n4</title>
<path fill="none" stroke="black" d="M4486.65,-217.137C4469.65,-209.745 4450.29,-200.764 4433.27,-191.48 4422.55,-185.636 4421.7,-180.761 4410.27,-176.48 4328.68,-145.923 4227.94,-136.381 4162.93,-133.549"/>
<polygon fill="black" stroke="black" points="4162.94,-130.047 4152.81,-133.15 4162.66,-137.042 4162.94,-130.047"/>
<text text-anchor="middle" x="4525.27" y="-180.28" font-family="Times,serif" font-size="14.00"> end(communicated_image_data)</text>
</g>
<!-- n15&#45;&gt;n5 -->
<g id="edge23" class="edge"><title>n15&#45;&gt;n5</title>
<path fill="none" stroke="black" d="M4576.06,-217.208C4584.95,-214.191 4594.31,-211.419 4603.27,-209.48 4627.35,-204.27 4807.57,-209.594 4824.27,-191.48 4828.79,-186.579 4828.72,-181.442 4824.27,-176.48 4726.93,-68.0232 2439.65,-34.2592 1997.04,-28.7315"/>
<polygon fill="black" stroke="black" points="1996.98,-25.2305 1986.93,-28.6062 1996.89,-32.23 1996.98,-25.2305"/>
<text text-anchor="middle" x="4838.27" y="-127.91" font-family="Times,serif" font-size="14.00"> static(visible_from)</text>
</g>
<!-- n15&#45;&gt;n6 -->
<g id="edge12" class="edge"><title>n15&#45;&gt;n6</title>
<path fill="none" stroke="black" d="M4485.85,-217.55C4475.61,-214.256 4464.69,-211.287 4454.27,-209.48 4351.67,-191.692 3616.79,-222.109 3517.27,-191.48 3505.6,-187.891 3505.92,-180.121 3494.27,-176.48 3425.84,-155.094 2920.93,-160.482 2849.27,-158.48 2532.55,-149.632 2154.84,-139.063 1998.08,-134.676"/>
<polygon fill="black" stroke="black" points="1997.73,-131.165 1987.63,-134.384 1997.53,-138.162 1997.73,-131.165"/>
<text text-anchor="middle" x="3573.27" y="-180.28" font-family="Times,serif" font-size="14.00"> static(visible_from)</text>
</g>
<!-- n15&#45;&gt;n20 -->
<g id="edge39" class="edge"><title>n15&#45;&gt;n20</title>
<path fill="none" stroke="black" d="M4485.87,-217.459C4475.63,-214.169 4464.7,-211.226 4454.27,-209.48 4388.57,-198.485 2119.11,-213.563 2056.27,-191.48 2046.12,-187.914 2047.41,-180.083 2037.27,-176.48 1972.51,-153.468 868.941,-161.256 800.268,-158.48 684.767,-153.812 550.289,-143.901 473.234,-137.792"/>
<polygon fill="black" stroke="black" points="473.456,-134.299 463.21,-136.993 472.9,-141.277 473.456,-134.299"/>
<text text-anchor="middle" x="2148.27" y="-180.28" font-family="Times,serif" font-size="14.00"> end(communicated_image_data)</text>
</g>
<!-- n16 -->
<g id="node16" class="node"><title>n16</title>
<ellipse fill="none" stroke="black" cx="4057.27" cy="-236.35" rx="62.8651" ry="26.7407"/>
<text text-anchor="middle" x="4057.27" y="-240.15" font-family="Times,serif" font-size="14.00">&lt;objective8&gt;</text>
<text text-anchor="middle" x="4057.27" y="-225.15" font-family="Times,serif" font-size="14.00">objective</text>
</g>
<!-- n16&#45;&gt;n4 -->
<g id="edge50" class="edge"><title>n16&#45;&gt;n4</title>
<path fill="none" stroke="black" d="M4117.31,-228.294C4140.27,-222.336 4164.29,-211.423 4178.27,-191.48 4190.11,-174.593 4173.73,-160.791 4152.58,-150.806"/>
<polygon fill="black" stroke="black" points="4153.86,-147.545 4143.29,-146.763 4151.06,-153.963 4153.86,-147.545"/>
<text text-anchor="middle" x="4273.27" y="-180.28" font-family="Times,serif" font-size="14.00"> end(communicated_image_data)</text>
</g>
<!-- n16&#45;&gt;n6 -->
<g id="edge51" class="edge"><title>n16&#45;&gt;n6</title>
<path fill="none" stroke="black" d="M3998.09,-226.729C3954.99,-220.815 3895.14,-213.362 3842.27,-209.48 3767.89,-204.019 3241.39,-216.883 3171.27,-191.48 3161.15,-187.816 3162.37,-180.19 3152.27,-176.48 3125.07,-166.489 2258.89,-141.841 1997.94,-134.625"/>
<polygon fill="black" stroke="black" points="1997.9,-131.123 1987.81,-134.345 1997.71,-138.12 1997.9,-131.123"/>
<text text-anchor="middle" x="3227.27" y="-180.28" font-family="Times,serif" font-size="14.00"> static(visible_from)</text>
</g>
<!-- n17 -->
<g id="node17" class="node"><title>n17</title>
<ellipse fill="none" stroke="black" cx="1399.27" cy="-236.35" rx="62.8651" ry="26.7407"/>
<text text-anchor="middle" x="1399.27" y="-240.15" font-family="Times,serif" font-size="14.00">&lt;objective3&gt;</text>
<text text-anchor="middle" x="1399.27" y="-225.15" font-family="Times,serif" font-size="14.00">objective</text>
</g>
<!-- n17&#45;&gt;n4 -->
<g id="edge48" class="edge"><title>n17&#45;&gt;n4</title>
<path fill="none" stroke="black" d="M1443.19,-217.016C1452.32,-213.934 1461.99,-211.185 1471.27,-209.48 1577.51,-189.958 2341.56,-227.849 2443.27,-191.48 2453.4,-187.858 2452.15,-180.145 2462.27,-176.48 2480.99,-169.696 3724.46,-141.051 4029.34,-134.123"/>
<polygon fill="black" stroke="black" points="4029.87,-137.612 4039.79,-133.886 4029.71,-130.614 4029.87,-137.612"/>
<text text-anchor="middle" x="2554.27" y="-180.28" font-family="Times,serif" font-size="14.00"> end(communicated_image_data)</text>
</g>
<!-- n17&#45;&gt;n6 -->
<g id="edge46" class="edge"><title>n17&#45;&gt;n6</title>
<path fill="none" stroke="black" d="M1446.45,-218.422C1476.31,-207.602 1510.52,-194.968 1517.27,-191.48 1527.78,-186.045 1528.18,-180.604 1539.27,-176.48 1594.78,-155.841 1756.08,-142.839 1851.37,-136.733"/>
<polygon fill="black" stroke="black" points="1851.75,-140.215 1861.51,-136.093 1851.31,-133.229 1851.75,-140.215"/>
<text text-anchor="middle" x="1595.27" y="-180.28" font-family="Times,serif" font-size="14.00"> static(visible_from)</text>
</g>
<!-- n17&#45;&gt;n20 -->
<g id="edge52" class="edge"><title>n17&#45;&gt;n20</title>
<path fill="none" stroke="black" d="M1339.97,-227.251C1296.41,-221.552 1235.75,-214.14 1182.27,-209.48 1037.71,-196.885 1000.09,-210.741 856.268,-191.48 824.732,-187.257 817.66,-181.663 786.268,-176.48 676.807,-158.408 548.211,-145.094 473.313,-138.121"/>
<polygon fill="black" stroke="black" points="473.388,-134.614 463.108,-137.18 472.744,-141.584 473.388,-134.614"/>
<text text-anchor="middle" x="948.268" y="-180.28" font-family="Times,serif" font-size="14.00"> end(communicated_image_data)</text>
</g>
<!-- n18&#45;&gt;n6 -->
<g id="edge24" class="edge"><title>n18&#45;&gt;n6</title>
<path fill="none" stroke="black" d="M2211.61,-220.888C2235.71,-209.868 2259.29,-193.698 2244.27,-176.48 2212.97,-140.593 2082.34,-133.015 1997.97,-131.978"/>
<polygon fill="black" stroke="black" points="1997.95,-128.478 1987.92,-131.883 1997.88,-135.478 1997.95,-128.478"/>
<text text-anchor="middle" x="2269.77" y="-180.28" font-family="Times,serif" font-size="14.00"> init(at)</text>
</g>
<!-- n18&#45;&gt;n18 -->
<g id="edge4" class="edge"><title>n18&#45;&gt;n18</title>
<path fill="none" stroke="black" d="M2217.36,-246.015C2229.31,-245.462 2238.35,-242.241 2238.35,-236.35 2238.35,-232.3 2234.08,-229.512 2227.52,-227.986"/>
<polygon fill="black" stroke="black" points="2227.73,-224.483 2217.36,-226.686 2226.84,-231.427 2227.73,-224.483"/>
<text text-anchor="middle" x="2331.85" y="-247.65" font-family="Times,serif" font-size="14.00"> static(equipped_for_imaging)</text>
<text text-anchor="middle" x="2331.85" y="-232.65" font-family="Times,serif" font-size="14.00">init(available)</text>
<text text-anchor="middle" x="2331.85" y="-217.65" font-family="Times,serif" font-size="14.00">static(equipped_for_soil_analysis)</text>
</g>
<!-- n19&#45;&gt;n5 -->
<g id="edge17" class="edge"><title>n19&#45;&gt;n5</title>
<path fill="none" stroke="black" d="M168.185,-217.802C160.854,-215.015 153.354,-212.167 146.268,-209.48 86.2944,-186.744 47.7369,-211.242 11.268,-158.48 -2.31264,-138.832 -4.78694,-122.424 11.268,-104.74 74.1187,-35.5134 1505.5,-28.596 1849.45,-27.9341"/>
<polygon fill="black" stroke="black" points="1849.55,-31.434 1859.55,-27.9158 1849.54,-24.434 1849.55,-31.434"/>
<text text-anchor="middle" x="67.268" y="-127.91" font-family="Times,serif" font-size="14.00"> static(visible_from)</text>
</g>
<!-- n19&#45;&gt;n6 -->
<g id="edge20" class="edge"><title>n19&#45;&gt;n6</title>
<path fill="none" stroke="black" d="M255.204,-215.827C290.777,-198.899 336.984,-177.018 339.268,-176.48 427.654,-155.684 1065.5,-161.009 1156.27,-158.48 1411.34,-151.375 1713.97,-140.446 1850.71,-135.373"/>
<polygon fill="black" stroke="black" points="1851.19,-138.858 1861.06,-134.989 1850.93,-131.862 1851.19,-138.858"/>
<text text-anchor="middle" x="395.268" y="-180.28" font-family="Times,serif" font-size="14.00"> static(visible_from)</text>
</g>
<!-- n21 -->
<g id="node21" class="node"><title>n21</title>
<ellipse fill="none" stroke="black" cx="4675.27" cy="-236.35" rx="62.8651" ry="26.7407"/>
<text text-anchor="middle" x="4675.27" y="-240.15" font-family="Times,serif" font-size="14.00">&lt;objective0&gt;</text>
<text text-anchor="middle" x="4675.27" y="-225.15" font-family="Times,serif" font-size="14.00">objective</text>
</g>
<!-- n21&#45;&gt;n4 -->
<g id="edge42" class="edge"><title>n21&#45;&gt;n4</title>
<path fill="none" stroke="black" d="M4657.51,-210.258C4647.26,-197.855 4633.25,-183.972 4617.27,-176.48 4538.51,-139.553 4285.64,-133.329 4163.52,-132.533"/>
<polygon fill="black" stroke="black" points="4163.2,-129.031 4153.18,-132.477 4163.17,-136.031 4163.2,-129.031"/>
<text text-anchor="middle" x="4729.27" y="-180.28" font-family="Times,serif" font-size="14.00"> end(communicated_image_data)</text>
</g>
<!-- n21&#45;&gt;n5 -->
<g id="edge31" class="edge"><title>n21&#45;&gt;n5</title>
<path fill="none" stroke="black" d="M4731.55,-224.324C4814.97,-205.703 4955.74,-164.157 4898.27,-104.74 4846.24,-50.9565 2450.69,-31.5562 1997,-28.3615"/>
<polygon fill="black" stroke="black" points="1996.98,-24.8614 1986.96,-28.2912 1996.93,-31.8612 1996.98,-24.8614"/>
<text text-anchor="middle" x="4967.27" y="-127.91" font-family="Times,serif" font-size="14.00"> static(visible_from)</text>
</g>
<!-- n21&#45;&gt;n6 -->
<g id="edge43" class="edge"><title>n21&#45;&gt;n6</title>
<path fill="none" stroke="black" d="M4631.34,-217.019C4622.21,-213.936 4612.54,-211.186 4603.27,-209.48 4498.89,-190.282 3748.2,-227.23 3648.27,-191.48 3638.14,-187.856 3639.39,-180.126 3629.27,-176.48 3588.49,-161.793 2892.6,-159.586 2849.27,-158.48 2532.53,-150.396 2154.83,-139.414 1998.08,-134.797"/>
<polygon fill="black" stroke="black" points="1997.73,-131.285 1987.63,-134.489 1997.52,-138.282 1997.73,-131.285"/>
<text text-anchor="middle" x="3704.27" y="-180.28" font-family="Times,serif" font-size="14.00"> static(visible_from)</text>
</g>
<!-- n22 -->
<g id="node22" class="node"><title>n22</title>
<ellipse fill="none" stroke="black" cx="3770.27" cy="-236.35" rx="62.8651" ry="26.7407"/>
<text text-anchor="middle" x="3770.27" y="-240.15" font-family="Times,serif" font-size="14.00">&lt;objective7&gt;</text>
<text text-anchor="middle" x="3770.27" y="-225.15" font-family="Times,serif" font-size="14.00">objective</text>
</g>
<!-- n22&#45;&gt;n4 -->
<g id="edge33" class="edge"><title>n22&#45;&gt;n4</title>
<path fill="none" stroke="black" d="M3831.06,-229.345C3872.18,-223.567 3926.87,-212.469 3971.27,-191.48 3980.99,-186.882 3980.99,-181.922 3990.27,-176.48 4006.28,-167.09 4024.69,-158.722 4041.62,-151.877"/>
<polygon fill="black" stroke="black" points="4043.37,-154.949 4051.39,-148.026 4040.8,-148.437 4043.37,-154.949"/>
<text text-anchor="middle" x="4082.27" y="-180.28" font-family="Times,serif" font-size="14.00"> end(communicated_image_data)</text>
</g>
<!-- n22&#45;&gt;n6 -->
<g id="edge32" class="edge"><title>n22&#45;&gt;n6</title>
<path fill="none" stroke="black" d="M3709.59,-229.206C3650,-223.365 3556.46,-214.717 3475.27,-209.48 3378.72,-203.253 3132.42,-220.96 3040.27,-191.48 3028.64,-187.762 3028.89,-180.192 3017.27,-176.48 2968.8,-161.008 2235.46,-140.695 1997.92,-134.49"/>
<polygon fill="black" stroke="black" points="1997.75,-130.985 1987.66,-134.223 1997.56,-137.982 1997.75,-130.985"/>
<text text-anchor="middle" x="3096.27" y="-180.28" font-family="Times,serif" font-size="14.00"> static(visible_from)</text>
</g>
<!-- n23 -->
<g id="node23" class="node"><title>n23</title>
<ellipse fill="none" stroke="black" cx="1789.27" cy="-236.35" rx="67.7647" ry="26.7407"/>
<text text-anchor="middle" x="1789.27" y="-240.15" font-family="Times,serif" font-size="14.00">&lt;objective10&gt;</text>
<text text-anchor="middle" x="1789.27" y="-225.15" font-family="Times,serif" font-size="14.00">objective</text>
</g>
<!-- n23&#45;&gt;n6 -->
<g id="edge27" class="edge"><title>n23&#45;&gt;n6</title>
<path fill="none" stroke="black" d="M1792.04,-209.3C1794.44,-198.004 1798.92,-185.358 1807.27,-176.48 1820.43,-162.476 1838.49,-152.91 1856.49,-146.388"/>
<polygon fill="black" stroke="black" points="1858.07,-149.551 1866.45,-143.07 1855.86,-142.91 1858.07,-149.551"/>
<text text-anchor="middle" x="1863.27" y="-180.28" font-family="Times,serif" font-size="14.00"> static(visible_from)</text>
</g>
</g>
</svg>
