<?xml version="1.0" encoding="UTF-8" standalone="no"?>
<!DOCTYPE svg PUBLIC "-//W3C//DTD SVG 1.1//EN"
 "http://www.w3.org/Graphics/SVG/1.1/DTD/svg11.dtd">
<!-- Generated by graphviz version 2.38.0 (20140413.2041)
 -->
<!-- Title: Struc Pages: 1 -->
<svg width="943pt" height="400pt"
 viewBox="0.00 0.00 943.18 399.96" xmlns="http://www.w3.org/2000/svg" xmlns:xlink="http://www.w3.org/1999/xlink">
<g id="graph0" class="graph" transform="scale(1 1) rotate(0) translate(4 395.96)">
<title>Struc</title>
<polygon fill="white" stroke="none" points="-4,4 -4,-395.96 939.175,-395.96 939.175,4 -4,4"/>
<!-- n1 -->
<g id="node1" class="node"><title>n1</title>
<ellipse fill="none" stroke="black" cx="67.1751" cy="-361.09" rx="67.3507" ry="26.7407"/>
<text text-anchor="middle" x="67.1751" y="-364.89" font-family="Times,serif" font-size="14.00">&lt;rover0store&gt;</text>
<text text-anchor="middle" x="67.1751" y="-349.89" font-family="Times,serif" font-size="14.00">store</text>
</g>
<!-- n1&#45;&gt;n1 -->
<g id="edge1" class="edge"><title>n1&#45;&gt;n1</title>
<path fill="none" stroke="black" d="M129.57,-371.251C142.798,-370.22 152.35,-366.833 152.35,-361.09 152.35,-356.918 147.308,-353.99 139.476,-352.304"/>
<polygon fill="black" stroke="black" points="139.956,-348.837 129.57,-350.929 138.994,-355.771 139.956,-348.837"/>
<text text-anchor="middle" x="185.35" y="-357.39" font-family="Times,serif" font-size="14.00"> init(empty)</text>
</g>
<!-- n3 -->
<g id="node3" class="node"><title>n3</title>
<ellipse fill="none" stroke="black" cx="67.1751" cy="-248.35" rx="48.1667" ry="26.7407"/>
<text text-anchor="middle" x="67.1751" y="-252.15" font-family="Times,serif" font-size="14.00">&lt;rover0&gt;</text>
<text text-anchor="middle" x="67.1751" y="-237.15" font-family="Times,serif" font-size="14.00">rover</text>
</g>
<!-- n1&#45;&gt;n3 -->
<g id="edge5" class="edge"><title>n1&#45;&gt;n3</title>
<path fill="none" stroke="black" d="M67.1751,-334.127C67.1751,-319.653 67.1751,-301.403 67.1751,-285.546"/>
<polygon fill="black" stroke="black" points="70.6752,-285.535 67.1751,-275.535 63.6752,-285.535 70.6752,-285.535"/>
<text text-anchor="middle" x="110.175" y="-301.02" font-family="Times,serif" font-size="14.00"> static(store_of)</text>
</g>
<!-- n2 -->
<g id="node2" class="node"><title>n2</title>
<ellipse fill="none" stroke="black" cx="390.175" cy="-248.35" rx="51.7379" ry="26.7407"/>
<text text-anchor="middle" x="390.175" y="-252.15" font-family="Times,serif" font-size="14.00">&lt;general&gt;</text>
<text text-anchor="middle" x="390.175" y="-237.15" font-family="Times,serif" font-size="14.00">lander</text>
</g>
<!-- n2&#45;&gt;n2 -->
<g id="edge2" class="edge"><title>n2&#45;&gt;n2</title>
<path fill="none" stroke="black" d="M438.007,-258.742C450.428,-258.103 459.794,-254.639 459.794,-248.35 459.794,-243.928 455.164,-240.903 448.097,-239.274"/>
<polygon fill="black" stroke="black" points="448.376,-235.781 438.007,-237.959 447.471,-242.723 448.376,-235.781"/>
<text text-anchor="middle" x="510.294" y="-244.65" font-family="Times,serif" font-size="14.00"> init(channel_free)</text>
</g>
<!-- n7 -->
<g id="node7" class="node"><title>n7</title>
<ellipse fill="none" stroke="black" cx="347.175" cy="-135.61" rx="63.7795" ry="26.7407"/>
<text text-anchor="middle" x="347.175" y="-139.41" font-family="Times,serif" font-size="14.00">&lt;waypoint0&gt;</text>
<text text-anchor="middle" x="347.175" y="-124.41" font-family="Times,serif" font-size="14.00">waypoint</text>
</g>
<!-- n2&#45;&gt;n7 -->
<g id="edge10" class="edge"><title>n2&#45;&gt;n7</title>
<path fill="none" stroke="black" d="M380.31,-221.944C374.561,-207.138 367.223,-188.24 360.915,-171.994"/>
<polygon fill="black" stroke="black" points="364.026,-170.336 357.143,-162.281 357.5,-172.87 364.026,-170.336"/>
<text text-anchor="middle" x="418.175" y="-188.28" font-family="Times,serif" font-size="14.00"> static(at_lander)</text>
</g>
<!-- n3&#45;&gt;n3 -->
<g id="edge3" class="edge"><title>n3&#45;&gt;n3</title>
<path fill="none" stroke="black" d="M111.65,-258.786C123.898,-258.282 133.258,-254.803 133.258,-248.35 133.258,-243.813 128.631,-240.746 121.625,-239.15"/>
<polygon fill="black" stroke="black" points="122.004,-235.67 111.65,-237.914 121.144,-242.617 122.004,-235.67"/>
<text text-anchor="middle" x="226.758" y="-259.65" font-family="Times,serif" font-size="14.00"> static(equipped_for_imaging)</text>
<text text-anchor="middle" x="226.758" y="-244.65" font-family="Times,serif" font-size="14.00">init(available)</text>
<text text-anchor="middle" x="226.758" y="-229.65" font-family="Times,serif" font-size="14.00">static(equipped_for_soil_analysis)</text>
</g>
<!-- n3&#45;&gt;n7 -->
<g id="edge13" class="edge"><title>n3&#45;&gt;n7</title>
<path fill="none" stroke="black" d="M105.814,-232.069C154.074,-212.982 236.969,-180.197 291.926,-158.461"/>
<polygon fill="black" stroke="black" points="293.498,-161.603 301.51,-154.671 290.923,-155.094 293.498,-161.603"/>
<text text-anchor="middle" x="244.675" y="-188.28" font-family="Times,serif" font-size="14.00"> init(at)</text>
</g>
<!-- n4 -->
<g id="node4" class="node"><title>n4</title>
<ellipse fill="none" stroke="black" cx="651.175" cy="-248.35" rx="67.7712" ry="26.7574"/>
<ellipse fill="none" stroke="black" cx="651.175" cy="-248.35" rx="71.7647" ry="30.7407"/>
<text text-anchor="middle" x="651.175" y="-252.15" font-family="Times,serif" font-size="14.00">&lt;objective12&gt;</text>
<text text-anchor="middle" x="651.175" y="-237.15" font-family="Times,serif" font-size="14.00">objective</text>
</g>
<!-- n5 -->
<g id="node5" class="node"><title>n5</title>
<ellipse fill="none" stroke="black" cx="844.175" cy="-135.61" rx="53.9645" ry="26.7574"/>
<ellipse fill="none" stroke="black" cx="844.175" cy="-135.61" rx="57.9812" ry="30.7407"/>
<text text-anchor="middle" x="844.175" y="-139.41" font-family="Times,serif" font-size="14.00">&lt;low_res&gt;</text>
<text text-anchor="middle" x="844.175" y="-124.41" font-family="Times,serif" font-size="14.00">mode</text>
</g>
<!-- n4&#45;&gt;n5 -->
<g id="edge12" class="edge"><title>n4&#45;&gt;n5</title>
<path fill="none" stroke="black" stroke-dasharray="5,2" d="M652.729,-217.379C654.848,-205.643 659.254,-192.983 668.175,-184.48 695.184,-158.737 714.135,-176.14 750.175,-166.48 761.934,-163.328 774.411,-159.624 786.301,-155.916"/>
<polygon fill="black" stroke="black" points="787.641,-159.163 796.122,-152.813 785.532,-152.488 787.641,-159.163"/>
<text text-anchor="middle" x="760.175" y="-188.28" font-family="Times,serif" font-size="14.00"> end(communicated_image_data)</text>
</g>
<!-- n6 -->
<g id="node6" class="node"><title>n6</title>
<ellipse fill="none" stroke="black" cx="448.175" cy="-26.8701" rx="63.7795" ry="26.7407"/>
<text text-anchor="middle" x="448.175" y="-30.6701" font-family="Times,serif" font-size="14.00">&lt;waypoint1&gt;</text>
<text text-anchor="middle" x="448.175" y="-15.6701" font-family="Times,serif" font-size="14.00">waypoint</text>
</g>
<!-- n4&#45;&gt;n6 -->
<g id="edge9" class="edge"><title>n4&#45;&gt;n6</title>
<path fill="none" stroke="black" stroke-dasharray="5,2" d="M648.871,-217.245C645.012,-185.829 634.7,-136.772 607.175,-104.74 582.258,-75.7435 543.893,-56.7571 511.091,-44.9087"/>
<polygon fill="black" stroke="black" points="512.153,-41.5725 501.558,-41.6058 509.861,-48.1868 512.153,-41.5725"/>
<text text-anchor="middle" x="695.175" y="-131.91" font-family="Times,serif" font-size="14.00"> static(visible_from)</text>
</g>
<!-- n4&#45;&gt;n7 -->
<g id="edge15" class="edge"><title>n4&#45;&gt;n7</title>
<path fill="none" stroke="black" d="M598.207,-227.207C588.905,-223.845 579.287,-220.479 570.175,-217.48 542.92,-208.511 535.344,-208.708 508.175,-199.48 497.543,-195.869 444.305,-174.988 401.917,-158.267"/>
<polygon fill="black" stroke="black" points="403.096,-154.969 392.509,-154.553 400.526,-161.48 403.096,-154.969"/>
<text text-anchor="middle" x="564.175" y="-188.28" font-family="Times,serif" font-size="14.00"> static(visible_from)</text>
</g>
<!-- n6&#45;&gt;n7 -->
<g id="edge14" class="edge"><title>n6&#45;&gt;n7</title>
<path fill="none" stroke="black" d="M442.523,-53.8627C439.156,-64.8852 433.971,-77.3296 426.175,-86.7401 418.658,-95.8142 408.948,-103.623 398.923,-110.145"/>
<polygon fill="black" stroke="black" points="396.791,-107.347 390.08,-115.545 400.439,-113.321 396.791,-107.347"/>
<text text-anchor="middle" x="475.175" y="-75.5401" font-family="Times,serif" font-size="14.00"> static(visible)</text>
</g>
<!-- n7&#45;&gt;n6 -->
<g id="edge8" class="edge"><title>n7&#45;&gt;n6</title>
<path fill="none" stroke="black" d="M341.486,-108.54C340.288,-96.423 341.105,-82.3768 348.175,-71.7401 356.446,-59.2968 369.103,-50.3571 382.66,-43.9432"/>
<polygon fill="black" stroke="black" points="384.324,-47.0388 392.147,-39.8944 381.576,-40.6006 384.324,-47.0388"/>
<text text-anchor="middle" x="387.175" y="-75.5401" font-family="Times,serif" font-size="14.00"> static(visible)</text>
</g>
<!-- n7&#45;&gt;n7 -->
<g id="edge4" class="edge"><title>n7&#45;&gt;n7</title>
<path fill="none" stroke="black" d="M406.251,-145.828C419.307,-144.868 428.815,-141.462 428.815,-135.61 428.815,-131.404 423.903,-128.462 416.292,-126.783"/>
<polygon fill="black" stroke="black" points="416.637,-123.298 406.251,-125.393 415.677,-130.231 416.637,-123.298"/>
<text text-anchor="middle" x="513.315" y="-139.41" font-family="Times,serif" font-size="14.00"> end(communicated_soil_data)</text>
<text text-anchor="middle" x="513.315" y="-124.41" font-family="Times,serif" font-size="14.00">init(at_soil_sample)</text>
</g>
<!-- n8 -->
<g id="node8" class="node"><title>n8</title>
<ellipse fill="none" stroke="black" cx="651.175" cy="-361.09" rx="56.6326" ry="26.7574"/>
<ellipse fill="none" stroke="black" cx="651.175" cy="-361.09" rx="60.6372" ry="30.7407"/>
<text text-anchor="middle" x="651.175" y="-364.89" font-family="Times,serif" font-size="14.00">&lt;camera1&gt;</text>
<text text-anchor="middle" x="651.175" y="-349.89" font-family="Times,serif" font-size="14.00">camera</text>
</g>
<!-- n8&#45;&gt;n3 -->
<g id="edge6" class="edge"><title>n8&#45;&gt;n3</title>
<path fill="none" stroke="black" d="M594.914,-349.422C482.918,-328.185 233.328,-280.857 122.284,-259.8"/>
<polygon fill="black" stroke="black" points="122.774,-256.331 112.297,-257.906 121.47,-263.208 122.774,-256.331"/>
<text text-anchor="middle" x="440.675" y="-301.02" font-family="Times,serif" font-size="14.00"> static(on_board)</text>
</g>
<!-- n8&#45;&gt;n4 -->
<g id="edge7" class="edge"><title>n8&#45;&gt;n4</title>
<path fill="none" stroke="black" stroke-dasharray="5,2" d="M651.175,-330.123C651.175,-317.689 651.175,-303.073 651.175,-289.717"/>
<polygon fill="black" stroke="black" points="654.675,-289.342 651.175,-279.342 647.675,-289.342 654.675,-289.342"/>
<text text-anchor="middle" x="719.675" y="-301.02" font-family="Times,serif" font-size="14.00"> static(calibration_target)</text>
</g>
<!-- n8&#45;&gt;n5 -->
<g id="edge11" class="edge"><title>n8&#45;&gt;n5</title>
<path fill="none" stroke="black" stroke-dasharray="5,2" d="M708.611,-350.84C736.35,-343.988 768.637,-332.228 792.175,-312.22 835.423,-275.459 838.433,-254.552 852.175,-199.48 854.027,-192.057 854.283,-184.029 853.673,-176.271"/>
<polygon fill="black" stroke="black" points="857.141,-175.794 852.434,-166.303 850.195,-176.658 857.141,-175.794"/>
<text text-anchor="middle" x="891.175" y="-244.65" font-family="Times,serif" font-size="14.00"> static(supports)</text>
</g>
</g>
</svg>
