<?xml version="1.0" encoding="UTF-8" standalone="no"?>
<!DOCTYPE svg PUBLIC "-//W3C//DTD SVG 1.1//EN"
 "http://www.w3.org/Graphics/SVG/1.1/DTD/svg11.dtd">
<!-- Generated by graphviz version 2.38.0 (20140413.2041)
 -->
<!-- Title: Struc Pages: 1 -->
<svg width="5439pt" height="376pt"
 viewBox="0.00 0.00 5438.93 375.96" xmlns="http://www.w3.org/2000/svg" xmlns:xlink="http://www.w3.org/1999/xlink">
<g id="graph0" class="graph" transform="scale(1 1) rotate(0) translate(4 371.96)">
<title>Struc</title>
<polygon fill="white" stroke="none" points="-4,4 -4,-371.96 5434.93,-371.96 5434.93,4 -4,4"/>
<!-- n1 -->
<g id="node1" class="node"><title>n1</title>
<ellipse fill="none" stroke="black" cx="813.933" cy="-341.09" rx="56.6372" ry="26.7407"/>
<text text-anchor="middle" x="813.933" y="-344.89" font-family="Times,serif" font-size="14.00">&lt;camera0&gt;</text>
<text text-anchor="middle" x="813.933" y="-329.89" font-family="Times,serif" font-size="14.00">camera</text>
</g>
<!-- n4 -->
<g id="node4" class="node"><title>n4</title>
<ellipse fill="none" stroke="black" cx="1111.93" cy="-236.35" rx="48.1667" ry="26.7407"/>
<text text-anchor="middle" x="1111.93" y="-240.15" font-family="Times,serif" font-size="14.00">&lt;rover0&gt;</text>
<text text-anchor="middle" x="1111.93" y="-225.15" font-family="Times,serif" font-size="14.00">rover</text>
</g>
<!-- n1&#45;&gt;n4 -->
<g id="edge9" class="edge"><title>n1&#45;&gt;n4</title>
<path fill="none" stroke="black" d="M862.061,-326.55C911.123,-312.326 989.15,-288.539 1054.93,-263.22 1058.81,-261.727 1062.8,-260.103 1066.79,-258.42"/>
<polygon fill="black" stroke="black" points="1068.24,-261.607 1076.02,-254.419 1065.45,-255.185 1068.24,-261.607"/>
<text text-anchor="middle" x="1049.43" y="-285.02" font-family="Times,serif" font-size="14.00"> static(on_board)</text>
</g>
<!-- n5 -->
<g id="node5" class="node"><title>n5</title>
<ellipse fill="none" stroke="black" cx="1483.93" cy="-131.61" rx="56.6372" ry="26.7407"/>
<text text-anchor="middle" x="1483.93" y="-135.41" font-family="Times,serif" font-size="14.00">&lt;high_res&gt;</text>
<text text-anchor="middle" x="1483.93" y="-120.41" font-family="Times,serif" font-size="14.00">mode</text>
</g>
<!-- n1&#45;&gt;n5 -->
<g id="edge5" class="edge"><title>n1&#45;&gt;n5</title>
<path fill="none" stroke="black" d="M806.846,-314.272C798.539,-277.621 790.268,-211.121 827.933,-176.48 849.397,-156.739 1254.74,-140.556 1417.31,-134.834"/>
<polygon fill="black" stroke="black" points="1417.79,-138.319 1427.66,-134.472 1417.54,-131.323 1417.79,-138.319"/>
<text text-anchor="middle" x="850.933" y="-232.65" font-family="Times,serif" font-size="14.00"> static(supports)</text>
</g>
<!-- n22 -->
<g id="node22" class="node"><title>n22</title>
<ellipse fill="none" stroke="black" cx="661.933" cy="-236.35" rx="62.8651" ry="26.7407"/>
<text text-anchor="middle" x="661.933" y="-240.15" font-family="Times,serif" font-size="14.00">&lt;objective6&gt;</text>
<text text-anchor="middle" x="661.933" y="-225.15" font-family="Times,serif" font-size="14.00">objective</text>
</g>
<!-- n1&#45;&gt;n22 -->
<g id="edge11" class="edge"><title>n1&#45;&gt;n22</title>
<path fill="none" stroke="black" d="M760.956,-331.522C722.445,-324.097 675.033,-312.055 662.933,-296.22 658.001,-289.767 656.034,-281.649 655.667,-273.521"/>
<polygon fill="black" stroke="black" points="659.171,-273.439 655.955,-263.345 652.174,-273.242 659.171,-273.439"/>
<text text-anchor="middle" x="731.433" y="-285.02" font-family="Times,serif" font-size="14.00"> static(calibration_target)</text>
</g>
<!-- n2 -->
<g id="node2" class="node"><title>n2</title>
<ellipse fill="none" stroke="black" cx="2780.93" cy="-236.35" rx="51.7379" ry="26.7407"/>
<text text-anchor="middle" x="2780.93" y="-240.15" font-family="Times,serif" font-size="14.00">&lt;general&gt;</text>
<text text-anchor="middle" x="2780.93" y="-225.15" font-family="Times,serif" font-size="14.00">lander</text>
</g>
<!-- n2&#45;&gt;n2 -->
<g id="edge1" class="edge"><title>n2&#45;&gt;n2</title>
<path fill="none" stroke="black" d="M2829.41,-245.966C2841.51,-245.294 2850.55,-242.089 2850.55,-236.35 2850.55,-232.405 2846.28,-229.657 2839.67,-228.107"/>
<polygon fill="black" stroke="black" points="2839.79,-224.59 2829.41,-226.734 2838.86,-231.529 2839.79,-224.59"/>
<text text-anchor="middle" x="2901.05" y="-232.65" font-family="Times,serif" font-size="14.00"> init(channel_free)</text>
</g>
<!-- n7 -->
<g id="node7" class="node"><title>n7</title>
<ellipse fill="none" stroke="black" cx="2474.93" cy="-131.61" rx="63.7795" ry="26.7407"/>
<text text-anchor="middle" x="2474.93" y="-135.41" font-family="Times,serif" font-size="14.00">&lt;waypoint0&gt;</text>
<text text-anchor="middle" x="2474.93" y="-120.41" font-family="Times,serif" font-size="14.00">waypoint</text>
</g>
<!-- n2&#45;&gt;n7 -->
<g id="edge10" class="edge"><title>n2&#45;&gt;n7</title>
<path fill="none" stroke="black" d="M2773.84,-209.712C2769.23,-197.792 2761.97,-184.507 2750.93,-176.48 2719.37,-153.538 2618.52,-142.107 2547.91,-136.779"/>
<polygon fill="black" stroke="black" points="2547.95,-133.273 2537.72,-136.036 2547.44,-140.254 2547.95,-133.273"/>
<text text-anchor="middle" x="2810.93" y="-180.28" font-family="Times,serif" font-size="14.00"> static(at_lander)</text>
</g>
<!-- n3 -->
<g id="node3" class="node"><title>n3</title>
<ellipse fill="none" stroke="black" cx="62.9325" cy="-236.35" rx="62.8651" ry="26.7407"/>
<text text-anchor="middle" x="62.9325" y="-240.15" font-family="Times,serif" font-size="14.00">&lt;objective1&gt;</text>
<text text-anchor="middle" x="62.9325" y="-225.15" font-family="Times,serif" font-size="14.00">objective</text>
</g>
<!-- n3&#45;&gt;n5 -->
<g id="edge16" class="edge"><title>n3&#45;&gt;n5</title>
<path fill="none" stroke="black" d="M56.0338,-209.626C54.5604,-197.981 55.4944,-184.956 63.9325,-176.48 80.4186,-159.921 881.579,-159.252 904.933,-158.48 1090.77,-152.341 1310,-141.585 1417.59,-136.077"/>
<polygon fill="black" stroke="black" points="1417.84,-139.568 1427.65,-135.56 1417.48,-132.578 1417.84,-139.568"/>
<text text-anchor="middle" x="155.933" y="-180.28" font-family="Times,serif" font-size="14.00"> end(communicated_image_data)</text>
</g>
<!-- n3&#45;&gt;n7 -->
<g id="edge27" class="edge"><title>n3&#45;&gt;n7</title>
<path fill="none" stroke="black" d="M116.517,-222.088C181.582,-206.224 287.619,-181.205 327.933,-176.48 462.802,-160.674 1414.17,-161.378 1549.93,-158.48 1866.7,-151.718 2244.38,-140.021 2401.12,-135.006"/>
<polygon fill="black" stroke="black" points="2401.69,-138.49 2411.58,-134.671 2401.47,-131.493 2401.69,-138.49"/>
<text text-anchor="middle" x="383.933" y="-180.28" font-family="Times,serif" font-size="14.00"> static(visible_from)</text>
</g>
<!-- n18 -->
<g id="node18" class="node"><title>n18</title>
<ellipse fill="none" stroke="black" cx="2373.93" cy="-26.8701" rx="63.7795" ry="26.7407"/>
<text text-anchor="middle" x="2373.93" y="-30.6701" font-family="Times,serif" font-size="14.00">&lt;waypoint1&gt;</text>
<text text-anchor="middle" x="2373.93" y="-15.6701" font-family="Times,serif" font-size="14.00">waypoint</text>
</g>
<!-- n3&#45;&gt;n18 -->
<g id="edge34" class="edge"><title>n3&#45;&gt;n18</title>
<path fill="none" stroke="black" d="M50.5067,-210.007C46.8811,-198.721 45.6071,-185.886 52.9325,-176.48 201.54,14.3339 345.81,-90.5599 586.933,-71.7401 928.057,-45.1151 2007.39,-31.8083 2300.09,-28.6306"/>
<polygon fill="black" stroke="black" points="2300.21,-32.1296 2310.17,-28.5218 2300.13,-25.13 2300.21,-32.1296"/>
<text text-anchor="middle" x="178.933" y="-127.91" font-family="Times,serif" font-size="14.00"> static(visible_from)</text>
</g>
<!-- n4&#45;&gt;n4 -->
<g id="edge2" class="edge"><title>n4&#45;&gt;n4</title>
<path fill="none" stroke="black" d="M1157.03,-246.015C1168.97,-245.462 1178.02,-242.241 1178.02,-236.35 1178.02,-232.3 1173.74,-229.512 1167.19,-227.986"/>
<polygon fill="black" stroke="black" points="1167.39,-224.483 1157.03,-226.686 1166.5,-231.427 1167.39,-224.483"/>
<text text-anchor="middle" x="1271.52" y="-247.65" font-family="Times,serif" font-size="14.00"> static(equipped_for_imaging)</text>
<text text-anchor="middle" x="1271.52" y="-232.65" font-family="Times,serif" font-size="14.00">init(available)</text>
<text text-anchor="middle" x="1271.52" y="-217.65" font-family="Times,serif" font-size="14.00">static(equipped_for_soil_analysis)</text>
</g>
<!-- n4&#45;&gt;n7 -->
<g id="edge40" class="edge"><title>n4&#45;&gt;n7</title>
<path fill="none" stroke="black" d="M1159.19,-230.785C1267.55,-220.271 1525.32,-194.981 1533.93,-191.48 1543.9,-187.43 1542.86,-180.249 1552.93,-176.48 1631.39,-147.134 2196.77,-136.46 2401.32,-133.533"/>
<polygon fill="black" stroke="black" points="2401.42,-137.032 2411.37,-133.392 2401.32,-130.033 2401.42,-137.032"/>
<text text-anchor="middle" x="1573.43" y="-180.28" font-family="Times,serif" font-size="14.00"> init(at)</text>
</g>
<!-- n6 -->
<g id="node6" class="node"><title>n6</title>
<ellipse fill="none" stroke="black" cx="5268.93" cy="-236.35" rx="62.8651" ry="26.7407"/>
<text text-anchor="middle" x="5268.93" y="-240.15" font-family="Times,serif" font-size="14.00">&lt;objective7&gt;</text>
<text text-anchor="middle" x="5268.93" y="-225.15" font-family="Times,serif" font-size="14.00">objective</text>
</g>
<!-- n6&#45;&gt;n7 -->
<g id="edge31" class="edge"><title>n6&#45;&gt;n7</title>
<path fill="none" stroke="black" d="M5223.48,-217.728C5213.25,-214.423 5202.33,-211.405 5191.93,-209.48 5098.11,-192.113 4852.4,-224.656 4762.93,-191.48 4752.84,-187.739 4754.06,-180.107 4743.93,-176.48 4717.49,-167.013 2936.66,-139.586 2548.93,-133.722"/>
<polygon fill="black" stroke="black" points="2548.72,-130.218 2538.67,-133.567 2548.62,-137.218 2548.72,-130.218"/>
<text text-anchor="middle" x="4818.93" y="-180.28" font-family="Times,serif" font-size="14.00"> static(visible_from)</text>
</g>
<!-- n6&#45;&gt;n18 -->
<g id="edge22" class="edge"><title>n6&#45;&gt;n18</title>
<path fill="none" stroke="black" d="M5259.62,-209.518C5247,-178.683 5221.3,-128.332 5180.93,-104.74 5022.34,-12.0473 4952.41,-80.7599 4768.93,-71.7401 3854.55,-26.7885 2741.74,-26.7062 2447.93,-27.5652"/>
<polygon fill="black" stroke="black" points="2447.81,-24.0655 2437.82,-27.5961 2447.83,-31.0654 2447.81,-24.0655"/>
<text text-anchor="middle" x="5288.93" y="-127.91" font-family="Times,serif" font-size="14.00"> static(visible_from)</text>
</g>
<!-- n7&#45;&gt;n7 -->
<g id="edge3" class="edge"><title>n7&#45;&gt;n7</title>
<path fill="none" stroke="black" d="M2534.74,-141.045C2547.42,-140.087 2556.57,-136.942 2556.57,-131.61 2556.57,-127.861 2552.05,-125.193 2544.95,-123.607"/>
<polygon fill="black" stroke="black" points="2545.13,-120.097 2534.74,-122.175 2544.15,-127.029 2545.13,-120.097"/>
<text text-anchor="middle" x="2641.07" y="-135.41" font-family="Times,serif" font-size="14.00"> end(communicated_soil_data)</text>
<text text-anchor="middle" x="2641.07" y="-120.41" font-family="Times,serif" font-size="14.00">init(at_soil_sample)</text>
</g>
<!-- n7&#45;&gt;n18 -->
<g id="edge29" class="edge"><title>n7&#45;&gt;n18</title>
<path fill="none" stroke="black" d="M2418.91,-118.579C2401.95,-112.056 2385.12,-102.05 2374.93,-86.7401 2370.47,-80.0386 2368.66,-71.8893 2368.29,-63.8171"/>
<polygon fill="black" stroke="black" points="2371.79,-63.8199 2368.51,-53.7484 2364.8,-63.6724 2371.79,-63.8199"/>
<text text-anchor="middle" x="2413.93" y="-75.5401" font-family="Times,serif" font-size="14.00"> static(visible)</text>
</g>
<!-- n8 -->
<g id="node8" class="node"><title>n8</title>
<ellipse fill="none" stroke="black" cx="4128.93" cy="-236.35" rx="67.7647" ry="26.7407"/>
<text text-anchor="middle" x="4128.93" y="-240.15" font-family="Times,serif" font-size="14.00">&lt;objective14&gt;</text>
<text text-anchor="middle" x="4128.93" y="-225.15" font-family="Times,serif" font-size="14.00">objective</text>
</g>
<!-- n8&#45;&gt;n5 -->
<g id="edge44" class="edge"><title>n8&#45;&gt;n5</title>
<path fill="none" stroke="black" d="M4062.09,-231.664C3878.28,-221.503 3378.26,-193.701 3369.93,-191.48 3355.53,-187.638 3354.41,-180.044 3339.93,-176.48 3238.71,-151.558 2506.14,-160.948 2401.93,-158.48 2082.9,-150.924 1701.58,-139.37 1550.39,-134.688"/>
<polygon fill="black" stroke="black" points="1550.44,-131.188 1540.34,-134.376 1550.22,-138.184 1550.44,-131.188"/>
<text text-anchor="middle" x="3461.93" y="-180.28" font-family="Times,serif" font-size="14.00"> end(communicated_image_data)</text>
</g>
<!-- n8&#45;&gt;n7 -->
<g id="edge15" class="edge"><title>n8&#45;&gt;n7</title>
<path fill="none" stroke="black" d="M4125.85,-209.298C4123,-197.276 4117.5,-184.025 4106.93,-176.48 4042.82,-130.707 2858.92,-131.352 2548.79,-132.312"/>
<polygon fill="black" stroke="black" points="2548.55,-128.813 2538.56,-132.345 2548.58,-135.813 2548.55,-128.813"/>
<text text-anchor="middle" x="4173.93" y="-180.28" font-family="Times,serif" font-size="14.00"> static(visible_from)</text>
</g>
<!-- n16 -->
<g id="node16" class="node"><title>n16</title>
<ellipse fill="none" stroke="black" cx="4900.93" cy="-131.61" rx="48.1667" ry="26.7407"/>
<text text-anchor="middle" x="4900.93" y="-135.41" font-family="Times,serif" font-size="14.00">&lt;colour&gt;</text>
<text text-anchor="middle" x="4900.93" y="-120.41" font-family="Times,serif" font-size="14.00">mode</text>
</g>
<!-- n8&#45;&gt;n16 -->
<g id="edge50" class="edge"><title>n8&#45;&gt;n16</title>
<path fill="none" stroke="black" d="M4180.18,-218.516C4192.14,-215.084 4204.89,-211.814 4216.93,-209.48 4298.03,-193.76 4323.98,-218.831 4401.93,-191.48 4413.45,-187.44 4413.37,-180.377 4424.93,-176.48 4477.51,-158.764 4618.69,-163.622 4673.93,-158.48 4731.95,-153.08 4798.12,-145.36 4843.99,-139.76"/>
<polygon fill="black" stroke="black" points="4844.54,-143.219 4854.04,-138.527 4843.69,-136.271 4844.54,-143.219"/>
<text text-anchor="middle" x="4516.93" y="-180.28" font-family="Times,serif" font-size="14.00"> end(communicated_image_data)</text>
</g>
<!-- n9 -->
<g id="node9" class="node"><title>n9</title>
<ellipse fill="none" stroke="black" cx="3244.93" cy="-236.35" rx="62.8651" ry="26.7407"/>
<text text-anchor="middle" x="3244.93" y="-240.15" font-family="Times,serif" font-size="14.00">&lt;objective2&gt;</text>
<text text-anchor="middle" x="3244.93" y="-225.15" font-family="Times,serif" font-size="14.00">objective</text>
</g>
<!-- n9&#45;&gt;n7 -->
<g id="edge19" class="edge"><title>n9&#45;&gt;n7</title>
<path fill="none" stroke="black" d="M3235.4,-209.713C3229.45,-197.483 3220.5,-183.924 3207.93,-176.48 3152.24,-143.496 2723.64,-135.236 2548.81,-133.231"/>
<polygon fill="black" stroke="black" points="2548.71,-129.729 2538.67,-133.118 2548.63,-136.729 2548.71,-129.729"/>
<text text-anchor="middle" x="3279.93" y="-180.28" font-family="Times,serif" font-size="14.00"> static(visible_from)</text>
</g>
<!-- n10 -->
<g id="node10" class="node"><title>n10</title>
<ellipse fill="none" stroke="black" cx="5099.93" cy="-341.09" rx="56.6372" ry="26.7407"/>
<text text-anchor="middle" x="5099.93" y="-344.89" font-family="Times,serif" font-size="14.00">&lt;camera1&gt;</text>
<text text-anchor="middle" x="5099.93" y="-329.89" font-family="Times,serif" font-size="14.00">camera</text>
</g>
<!-- n10&#45;&gt;n4 -->
<g id="edge33" class="edge"><title>n10&#45;&gt;n4</title>
<path fill="none" stroke="black" d="M5043.34,-339.924C4584.62,-338.512 1487.13,-327.831 1293.93,-296.22 1246.7,-288.492 1194.97,-270.807 1158.77,-256.826"/>
<polygon fill="black" stroke="black" points="1160.04,-253.564 1149.45,-253.176 1157.49,-260.082 1160.04,-253.564"/>
<text text-anchor="middle" x="1340.43" y="-285.02" font-family="Times,serif" font-size="14.00"> static(on_board)</text>
</g>
<!-- n10&#45;&gt;n5 -->
<g id="edge51" class="edge"><title>n10&#45;&gt;n5</title>
<path fill="none" stroke="black" d="M5043.36,-340.011C4614.22,-339.262 1879.06,-331.805 1518.93,-263.22 1451.42,-250.362 1440.89,-224.986 1373.93,-209.48 1334.98,-200.461 1221.75,-221.13 1194.93,-191.48 1163.66,-156.901 1323.13,-141.728 1417.79,-135.85"/>
<polygon fill="black" stroke="black" points="1418.1,-139.338 1427.87,-135.244 1417.68,-132.351 1418.1,-139.338"/>
<text text-anchor="middle" x="1562.93" y="-232.65" font-family="Times,serif" font-size="14.00"> static(supports)</text>
</g>
<!-- n10&#45;&gt;n6 -->
<g id="edge37" class="edge"><title>n10&#45;&gt;n6</title>
<path fill="none" stroke="black" d="M5134.13,-319.299C5160.24,-303.427 5196.42,-281.43 5224.73,-264.222"/>
<polygon fill="black" stroke="black" points="5226.89,-267.003 5233.62,-258.818 5223.26,-261.022 5226.89,-267.003"/>
<text text-anchor="middle" x="5262.43" y="-285.02" font-family="Times,serif" font-size="14.00"> static(calibration_target)</text>
</g>
<!-- n10&#45;&gt;n16 -->
<g id="edge47" class="edge"><title>n10&#45;&gt;n16</title>
<path fill="none" stroke="black" d="M5155.98,-336.819C5217.37,-332.035 5310.41,-320.856 5334.93,-296.22 5347.73,-283.366 5341.77,-210.473 5340.93,-209.48 5328.61,-194.822 5073.32,-157.015 4957.36,-140.512"/>
<polygon fill="black" stroke="black" points="4957.65,-137.018 4947.26,-139.078 4956.67,-143.948 4957.65,-137.018"/>
<text text-anchor="middle" x="5386.93" y="-232.65" font-family="Times,serif" font-size="14.00"> static(supports)</text>
</g>
<!-- n21 -->
<g id="node21" class="node"><title>n21</title>
<ellipse fill="none" stroke="black" cx="4610.93" cy="-131.61" rx="53.9813" ry="26.7407"/>
<text text-anchor="middle" x="4610.93" y="-135.41" font-family="Times,serif" font-size="14.00">&lt;low_res&gt;</text>
<text text-anchor="middle" x="4610.93" y="-120.41" font-family="Times,serif" font-size="14.00">mode</text>
</g>
<!-- n10&#45;&gt;n21 -->
<g id="edge39" class="edge"><title>n10&#45;&gt;n21</title>
<path fill="none" stroke="black" d="M5100.24,-314.187C5100.14,-272.859 5097.31,-194.784 5077.93,-176.48 5058.98,-158.573 4869.89,-160.919 4843.93,-158.48 4785.8,-153.018 4719.64,-145.553 4672.71,-140.045"/>
<polygon fill="black" stroke="black" points="4673.05,-136.56 4662.7,-138.866 4672.23,-143.512 4673.05,-136.56"/>
<text text-anchor="middle" x="5141.93" y="-232.65" font-family="Times,serif" font-size="14.00"> static(supports)</text>
</g>
<!-- n11 -->
<g id="node11" class="node"><title>n11</title>
<ellipse fill="none" stroke="black" cx="2645.93" cy="-236.35" rx="62.8651" ry="26.7407"/>
<text text-anchor="middle" x="2645.93" y="-240.15" font-family="Times,serif" font-size="14.00">&lt;objective4&gt;</text>
<text text-anchor="middle" x="2645.93" y="-225.15" font-family="Times,serif" font-size="14.00">objective</text>
</g>
<!-- n11&#45;&gt;n5 -->
<g id="edge38" class="edge"><title>n11&#45;&gt;n5</title>
<path fill="none" stroke="black" d="M2584.29,-230.029C2541.13,-224.526 2483,-213.475 2435.93,-191.48 2426.19,-186.926 2427.01,-180.247 2416.93,-176.48 2336.5,-146.42 1750.43,-136.07 1550.53,-133.393"/>
<polygon fill="black" stroke="black" points="1550.5,-129.893 1540.45,-133.26 1550.41,-136.892 1550.5,-129.893"/>
<text text-anchor="middle" x="2527.93" y="-180.28" font-family="Times,serif" font-size="14.00"> end(communicated_image_data)</text>
</g>
<!-- n11&#45;&gt;n7 -->
<g id="edge46" class="edge"><title>n11&#45;&gt;n7</title>
<path fill="none" stroke="black" d="M2641.7,-209.526C2638.58,-198.001 2633.2,-185.105 2623.93,-176.48 2603.02,-157.004 2573.88,-146.135 2546.92,-140.085"/>
<polygon fill="black" stroke="black" points="2547.6,-136.652 2537.1,-138.067 2546.19,-143.509 2547.6,-136.652"/>
<text text-anchor="middle" x="2690.93" y="-180.28" font-family="Times,serif" font-size="14.00"> static(visible_from)</text>
</g>
<!-- n11&#45;&gt;n21 -->
<g id="edge36" class="edge"><title>n11&#45;&gt;n21</title>
<path fill="none" stroke="black" d="M2690.32,-217.28C2699.93,-214.091 2710.15,-211.234 2719.93,-209.48 2825.6,-190.528 3581.69,-217.117 3685.93,-191.48 3700.41,-187.92 3701.47,-180.104 3715.93,-176.48 3786.66,-158.756 4299.18,-163.408 4371.93,-158.48 4432.38,-154.386 4501.13,-146.616 4549.33,-140.656"/>
<polygon fill="black" stroke="black" points="4549.8,-144.124 4559.29,-139.413 4548.93,-137.178 4549.8,-144.124"/>
<text text-anchor="middle" x="3807.93" y="-180.28" font-family="Times,serif" font-size="14.00"> end(communicated_image_data)</text>
</g>
<!-- n12 -->
<g id="node12" class="node"><title>n12</title>
<ellipse fill="none" stroke="black" cx="429.933" cy="-236.35" rx="62.8651" ry="26.7407"/>
<text text-anchor="middle" x="429.933" y="-240.15" font-family="Times,serif" font-size="14.00">&lt;objective0&gt;</text>
<text text-anchor="middle" x="429.933" y="-225.15" font-family="Times,serif" font-size="14.00">objective</text>
</g>
<!-- n12&#45;&gt;n5 -->
<g id="edge6" class="edge"><title>n12&#45;&gt;n5</title>
<path fill="none" stroke="black" d="M434.765,-209.545C438.442,-197.43 444.848,-184.023 455.933,-176.48 476.572,-162.436 879.99,-159.537 904.933,-158.48 1090.7,-150.606 1309.97,-140.62 1417.58,-135.674"/>
<polygon fill="black" stroke="black" points="1417.81,-139.167 1427.64,-135.211 1417.49,-132.175 1417.81,-139.167"/>
<text text-anchor="middle" x="547.933" y="-180.28" font-family="Times,serif" font-size="14.00"> end(communicated_image_data)</text>
</g>
<!-- n12&#45;&gt;n7 -->
<g id="edge23" class="edge"><title>n12&#45;&gt;n7</title>
<path fill="none" stroke="black" d="M488.044,-225.813C530.553,-218.209 589.379,-206.377 639.933,-191.48 657.746,-186.231 660.709,-180.059 678.933,-176.48 773.917,-157.827 1453.16,-160.833 1549.93,-158.48 1866.68,-150.778 2244.37,-139.59 2401.12,-134.857"/>
<polygon fill="black" stroke="black" points="2401.68,-138.342 2411.57,-134.542 2401.47,-131.345 2401.68,-138.342"/>
<text text-anchor="middle" x="734.933" y="-180.28" font-family="Times,serif" font-size="14.00"> static(visible_from)</text>
</g>
<!-- n12&#45;&gt;n18 -->
<g id="edge24" class="edge"><title>n12&#45;&gt;n18</title>
<path fill="none" stroke="black" d="M430.153,-209.227C431.275,-198.431 433.961,-186.195 439.933,-176.48 468.011,-130.799 487.202,-124.791 536.933,-104.74 642.103,-62.3365 676.887,-80.6547 789.933,-71.7401 1370.32,-25.972 2073.58,-25.8937 2299.96,-27.2419"/>
<polygon fill="black" stroke="black" points="2300.03,-30.7423 2310.06,-27.3049 2300.08,-23.7425 2300.03,-30.7423"/>
<text text-anchor="middle" x="592.933" y="-127.91" font-family="Times,serif" font-size="14.00"> static(visible_from)</text>
</g>
<!-- n13 -->
<g id="node13" class="node"><title>n13</title>
<ellipse fill="none" stroke="black" cx="2132.93" cy="-236.35" rx="62.8651" ry="26.7407"/>
<text text-anchor="middle" x="2132.93" y="-240.15" font-family="Times,serif" font-size="14.00">&lt;objective8&gt;</text>
<text text-anchor="middle" x="2132.93" y="-225.15" font-family="Times,serif" font-size="14.00">objective</text>
</g>
<!-- n13&#45;&gt;n5 -->
<g id="edge49" class="edge"><title>n13&#45;&gt;n5</title>
<path fill="none" stroke="black" d="M2073.97,-226.858C2039.23,-220.322 1995.13,-209.305 1958.93,-191.48 1949.28,-186.727 1949.92,-180.492 1939.93,-176.48 1871.03,-148.793 1660.04,-138.156 1550.9,-134.427"/>
<polygon fill="black" stroke="black" points="1550.77,-130.921 1540.66,-134.087 1550.54,-137.917 1550.77,-130.921"/>
<text text-anchor="middle" x="2050.93" y="-180.28" font-family="Times,serif" font-size="14.00"> end(communicated_image_data)</text>
</g>
<!-- n13&#45;&gt;n7 -->
<g id="edge45" class="edge"><title>n13&#45;&gt;n7</title>
<path fill="none" stroke="black" d="M2188.11,-223.199C2216.82,-215.867 2252.06,-205.258 2281.93,-191.48 2293.01,-186.369 2293.77,-181.403 2304.93,-176.48 2337.15,-162.279 2374.9,-151.962 2406.63,-144.915"/>
<polygon fill="black" stroke="black" points="2407.67,-148.271 2416.71,-142.741 2406.19,-141.429 2407.67,-148.271"/>
<text text-anchor="middle" x="2360.93" y="-180.28" font-family="Times,serif" font-size="14.00"> static(visible_from)</text>
</g>
<!-- n14 -->
<g id="node14" class="node"><title>n14</title>
<ellipse fill="none" stroke="black" cx="1111.93" cy="-341.09" rx="67.3507" ry="26.7407"/>
<text text-anchor="middle" x="1111.93" y="-344.89" font-family="Times,serif" font-size="14.00">&lt;rover0store&gt;</text>
<text text-anchor="middle" x="1111.93" y="-329.89" font-family="Times,serif" font-size="14.00">store</text>
</g>
<!-- n14&#45;&gt;n4 -->
<g id="edge28" class="edge"><title>n14&#45;&gt;n4</title>
<path fill="none" stroke="black" d="M1111.93,-314.165C1111.93,-301.875 1111.93,-286.987 1111.93,-273.602"/>
<polygon fill="black" stroke="black" points="1115.43,-273.268 1111.93,-263.268 1108.43,-273.268 1115.43,-273.268"/>
<text text-anchor="middle" x="1154.93" y="-285.02" font-family="Times,serif" font-size="14.00"> static(store_of)</text>
</g>
<!-- n14&#45;&gt;n14 -->
<g id="edge4" class="edge"><title>n14&#45;&gt;n14</title>
<path fill="none" stroke="black" d="M1175.08,-350.468C1187.92,-349.447 1197.11,-346.321 1197.11,-341.09 1197.11,-337.413 1192.56,-334.775 1185.4,-333.179"/>
<polygon fill="black" stroke="black" points="1185.47,-329.653 1175.08,-331.712 1184.49,-336.584 1185.47,-329.653"/>
<text text-anchor="middle" x="1230.11" y="-337.39" font-family="Times,serif" font-size="14.00"> init(empty)</text>
</g>
<!-- n15 -->
<g id="node15" class="node"><title>n15</title>
<ellipse fill="none" stroke="black" cx="1683.93" cy="-236.35" rx="67.7647" ry="26.7407"/>
<text text-anchor="middle" x="1683.93" y="-240.15" font-family="Times,serif" font-size="14.00">&lt;objective13&gt;</text>
<text text-anchor="middle" x="1683.93" y="-225.15" font-family="Times,serif" font-size="14.00">objective</text>
</g>
<!-- n15&#45;&gt;n5 -->
<g id="edge13" class="edge"><title>n15&#45;&gt;n5</title>
<path fill="none" stroke="black" d="M1620.29,-226.577C1583.15,-221.497 1535.4,-215.029 1492.93,-209.48 1461.17,-205.331 1371.12,-215.5 1349.93,-191.48 1325.11,-163.34 1373.51,-148.077 1418.92,-140.197"/>
<polygon fill="black" stroke="black" points="1419.53,-143.644 1428.83,-138.58 1418.4,-136.735 1419.53,-143.644"/>
<text text-anchor="middle" x="1441.93" y="-180.28" font-family="Times,serif" font-size="14.00"> end(communicated_image_data)</text>
</g>
<!-- n15&#45;&gt;n7 -->
<g id="edge52" class="edge"><title>n15&#45;&gt;n7</title>
<path fill="none" stroke="black" d="M1737.96,-219.886C1759.48,-212.684 1784.04,-203.112 1804.93,-191.48 1814.33,-186.246 1813.89,-180.349 1823.93,-176.48 1927.35,-136.631 2253.02,-132.069 2400.76,-132.132"/>
<polygon fill="black" stroke="black" points="2401.08,-135.632 2411.08,-132.144 2401.09,-128.632 2401.08,-135.632"/>
<text text-anchor="middle" x="1879.93" y="-180.28" font-family="Times,serif" font-size="14.00"> static(visible_from)</text>
</g>
<!-- n17 -->
<g id="node17" class="node"><title>n17</title>
<ellipse fill="none" stroke="black" cx="1879.93" cy="-236.35" rx="62.8651" ry="26.7407"/>
<text text-anchor="middle" x="1879.93" y="-240.15" font-family="Times,serif" font-size="14.00">&lt;objective9&gt;</text>
<text text-anchor="middle" x="1879.93" y="-225.15" font-family="Times,serif" font-size="14.00">objective</text>
</g>
<!-- n17&#45;&gt;n5 -->
<g id="edge20" class="edge"><title>n17&#45;&gt;n5</title>
<path fill="none" stroke="black" d="M1825.62,-222.512C1805.39,-218.001 1782.18,-213.149 1760.93,-209.48 1699.11,-198.807 1679.8,-213.162 1620.93,-191.48 1609.48,-187.262 1608.8,-182.036 1597.93,-176.48 1579.28,-166.942 1558.04,-158.231 1538.99,-151.13"/>
<polygon fill="black" stroke="black" points="1540.14,-147.824 1529.55,-147.672 1537.74,-154.397 1540.14,-147.824"/>
<text text-anchor="middle" x="1712.93" y="-180.28" font-family="Times,serif" font-size="14.00"> end(communicated_image_data)</text>
</g>
<!-- n17&#45;&gt;n7 -->
<g id="edge7" class="edge"><title>n17&#45;&gt;n7</title>
<path fill="none" stroke="black" d="M1939.13,-227.226C2011.94,-216.982 2128.26,-199.718 2146.93,-191.48 2156.78,-187.137 2156.04,-180.716 2165.93,-176.48 2241.7,-144.031 2336.52,-134.655 2401,-132.389"/>
<polygon fill="black" stroke="black" points="2401.2,-135.885 2411.08,-132.084 2400.98,-128.888 2401.2,-135.885"/>
<text text-anchor="middle" x="2221.93" y="-180.28" font-family="Times,serif" font-size="14.00"> static(visible_from)</text>
</g>
<!-- n18&#45;&gt;n7 -->
<g id="edge42" class="edge"><title>n18&#45;&gt;n7</title>
<path fill="none" stroke="black" d="M2419.3,-46.0107C2431.5,-52.632 2443.82,-61.1584 2452.93,-71.7401 2458.71,-78.4561 2463.04,-86.8362 2466.26,-95.1484"/>
<polygon fill="black" stroke="black" points="2463,-96.4365 2469.54,-104.771 2469.62,-94.1769 2463,-96.4365"/>
<text text-anchor="middle" x="2501.93" y="-75.5401" font-family="Times,serif" font-size="14.00"> static(visible)</text>
</g>
<!-- n19 -->
<g id="node19" class="node"><title>n19</title>
<ellipse fill="none" stroke="black" cx="982.933" cy="-236.35" rx="62.8651" ry="26.7407"/>
<text text-anchor="middle" x="982.933" y="-240.15" font-family="Times,serif" font-size="14.00">&lt;objective3&gt;</text>
<text text-anchor="middle" x="982.933" y="-225.15" font-family="Times,serif" font-size="14.00">objective</text>
</g>
<!-- n19&#45;&gt;n5 -->
<g id="edge35" class="edge"><title>n19&#45;&gt;n5</title>
<path fill="none" stroke="black" d="M975.746,-209.631C974.172,-198.128 974.923,-185.222 982.933,-176.48 1011.68,-145.102 1287.24,-136.073 1416.99,-133.551"/>
<polygon fill="black" stroke="black" points="1417.27,-137.047 1427.2,-133.36 1417.14,-130.048 1417.27,-137.047"/>
<text text-anchor="middle" x="1074.93" y="-180.28" font-family="Times,serif" font-size="14.00"> end(communicated_image_data)</text>
</g>
<!-- n19&#45;&gt;n7 -->
<g id="edge48" class="edge"><title>n19&#45;&gt;n7</title>
<path fill="none" stroke="black" d="M1028.23,-217.594C1037,-214.58 1046.18,-211.71 1054.93,-209.48 1105.49,-196.601 1119.86,-202.133 1170.93,-191.48 1196.58,-186.131 1202.02,-180.298 1227.93,-176.48 1286.09,-167.914 2142.43,-142.326 2401.33,-134.748"/>
<polygon fill="black" stroke="black" points="2401.49,-138.245 2411.38,-134.454 2401.29,-131.248 2401.49,-138.245"/>
<text text-anchor="middle" x="1283.93" y="-180.28" font-family="Times,serif" font-size="14.00"> static(visible_from)</text>
</g>
<!-- n19&#45;&gt;n18 -->
<g id="edge17" class="edge"><title>n19&#45;&gt;n18</title>
<path fill="none" stroke="black" d="M933.89,-219.224C922.484,-215.759 910.34,-212.297 898.933,-209.48 856.788,-199.075 830.656,-224.885 802.933,-191.48 798.675,-186.35 798.564,-181.516 802.933,-176.48 902.176,-62.0774 2002.12,-34.4319 2299.95,-29.023"/>
<polygon fill="black" stroke="black" points="2300.26,-32.518 2310.2,-28.8399 2300.14,-25.5191 2300.26,-32.518"/>
<text text-anchor="middle" x="1103.93" y="-127.91" font-family="Times,serif" font-size="14.00"> static(visible_from)</text>
</g>
<!-- n20 -->
<g id="node20" class="node"><title>n20</title>
<ellipse fill="none" stroke="black" cx="4288.93" cy="-236.35" rx="62.8651" ry="26.7407"/>
<text text-anchor="middle" x="4288.93" y="-240.15" font-family="Times,serif" font-size="14.00">&lt;objective5&gt;</text>
<text text-anchor="middle" x="4288.93" y="-225.15" font-family="Times,serif" font-size="14.00">objective</text>
</g>
<!-- n20&#45;&gt;n5 -->
<g id="edge12" class="edge"><title>n20&#45;&gt;n5</title>
<path fill="none" stroke="black" d="M4241.58,-218.452C4230.05,-214.935 4217.66,-211.643 4205.93,-209.48 4143.09,-197.889 3978.62,-214.318 3918.93,-191.48 3908.88,-187.635 3910.07,-180.07 3899.93,-176.48 3860.7,-162.596 2443.54,-159.316 2401.93,-158.48 2082.88,-152.068 1701.57,-139.869 1550.39,-134.851"/>
<polygon fill="black" stroke="black" points="1550.44,-131.351 1540.33,-134.517 1550.21,-138.347 1550.44,-131.351"/>
<text text-anchor="middle" x="4010.93" y="-180.28" font-family="Times,serif" font-size="14.00"> end(communicated_image_data)</text>
</g>
<!-- n20&#45;&gt;n7 -->
<g id="edge25" class="edge"><title>n20&#45;&gt;n7</title>
<path fill="none" stroke="black" d="M4272.76,-210.204C4263.15,-197.621 4249.75,-183.586 4233.93,-176.48 4156.08,-141.512 2873.32,-134.163 2548.97,-132.861"/>
<polygon fill="black" stroke="black" points="2548.76,-129.36 2538.75,-132.821 2548.74,-136.36 2548.76,-129.36"/>
<text text-anchor="middle" x="4310.93" y="-180.28" font-family="Times,serif" font-size="14.00"> static(visible_from)</text>
</g>
<!-- n20&#45;&gt;n16 -->
<g id="edge43" class="edge"><title>n20&#45;&gt;n16</title>
<path fill="none" stroke="black" d="M4351.05,-231.612C4500.47,-222.503 4868.46,-199.335 4878.93,-191.48 4886.56,-185.758 4891.54,-177.082 4894.8,-168.136"/>
<polygon fill="black" stroke="black" points="4898.18,-169.033 4897.7,-158.45 4891.48,-167.027 4898.18,-169.033"/>
<text text-anchor="middle" x="4981.93" y="-180.28" font-family="Times,serif" font-size="14.00"> end(communicated_image_data)</text>
</g>
<!-- n22&#45;&gt;n7 -->
<g id="edge26" class="edge"><title>n22&#45;&gt;n7</title>
<path fill="none" stroke="black" d="M708.18,-217.913C748.012,-203.809 807.375,-184.952 860.933,-176.48 1012.22,-152.552 1396.83,-162.621 1549.93,-158.48 1866.65,-149.914 2244.36,-139.193 2401.12,-134.721"/>
<polygon fill="black" stroke="black" points="2401.67,-138.206 2411.57,-134.423 2401.47,-131.209 2401.67,-138.206"/>
<text text-anchor="middle" x="916.933" y="-180.28" font-family="Times,serif" font-size="14.00"> static(visible_from)</text>
</g>
<!-- n22&#45;&gt;n18 -->
<g id="edge21" class="edge"><title>n22&#45;&gt;n18</title>
<path fill="none" stroke="black" d="M645.877,-210.332C641.105,-199.723 638.255,-187.328 642.933,-176.48 661.325,-133.827 676.393,-123.394 718.933,-104.74 864.801,-40.7746 1997.22,-29.9522 2299.8,-28.1969"/>
<polygon fill="black" stroke="black" points="2300.23,-31.6946 2310.21,-28.1382 2300.19,-24.6947 2300.23,-31.6946"/>
<text text-anchor="middle" x="774.933" y="-127.91" font-family="Times,serif" font-size="14.00"> static(visible_from)</text>
</g>
<!-- n23 -->
<g id="node23" class="node"><title>n23</title>
<ellipse fill="none" stroke="black" cx="3095.93" cy="-236.35" rx="67.7647" ry="26.7407"/>
<text text-anchor="middle" x="3095.93" y="-240.15" font-family="Times,serif" font-size="14.00">&lt;objective11&gt;</text>
<text text-anchor="middle" x="3095.93" y="-225.15" font-family="Times,serif" font-size="14.00">objective</text>
</g>
<!-- n23&#45;&gt;n7 -->
<g id="edge14" class="edge"><title>n23&#45;&gt;n7</title>
<path fill="none" stroke="black" d="M3095.88,-209.436C3094.41,-197.599 3090.48,-184.467 3080.93,-176.48 3040.97,-143.042 2701.7,-135.086 2548.95,-133.197"/>
<polygon fill="black" stroke="black" points="2548.76,-129.695 2538.72,-133.076 2548.68,-136.694 2548.76,-129.695"/>
<text text-anchor="middle" x="3147.93" y="-180.28" font-family="Times,serif" font-size="14.00"> static(visible_from)</text>
</g>
<!-- n24 -->
<g id="node24" class="node"><title>n24</title>
<ellipse fill="none" stroke="black" cx="4812.93" cy="-236.35" rx="67.7647" ry="26.7407"/>
<text text-anchor="middle" x="4812.93" y="-240.15" font-family="Times,serif" font-size="14.00">&lt;objective10&gt;</text>
<text text-anchor="middle" x="4812.93" y="-225.15" font-family="Times,serif" font-size="14.00">objective</text>
</g>
<!-- n24&#45;&gt;n7 -->
<g id="edge8" class="edge"><title>n24&#45;&gt;n7</title>
<path fill="none" stroke="black" d="M4750.51,-225.646C4714.82,-218.777 4669.78,-207.831 4631.93,-191.48 4620.73,-186.64 4620.59,-180.078 4608.93,-176.48 4558.68,-160.978 2918.77,-138.463 2548.65,-133.571"/>
<polygon fill="black" stroke="black" points="2548.63,-130.071 2538.59,-133.438 2548.54,-137.07 2548.63,-130.071"/>
<text text-anchor="middle" x="4687.93" y="-180.28" font-family="Times,serif" font-size="14.00"> static(visible_from)</text>
</g>
<!-- n24&#45;&gt;n18 -->
<g id="edge41" class="edge"><title>n24&#45;&gt;n18</title>
<path fill="none" stroke="black" d="M4880.79,-233.754C4950.78,-230.506 5053.12,-220.733 5077.93,-191.48 5082.24,-186.396 5081.22,-182.279 5077.93,-176.48 5047.27,-122.433 5017.58,-122.168 4957.93,-104.74 4711.73,-32.8019 2844.8,-28.0451 2447.95,-27.851"/>
<polygon fill="black" stroke="black" points="2447.74,-24.351 2437.74,-27.8469 2447.74,-31.351 2447.74,-24.351"/>
<text text-anchor="middle" x="5120.93" y="-127.91" font-family="Times,serif" font-size="14.00"> static(visible_from)</text>
</g>
<!-- n25 -->
<g id="node25" class="node"><title>n25</title>
<ellipse fill="none" stroke="black" cx="3579.93" cy="-236.35" rx="67.7647" ry="26.7407"/>
<text text-anchor="middle" x="3579.93" y="-240.15" font-family="Times,serif" font-size="14.00">&lt;objective12&gt;</text>
<text text-anchor="middle" x="3579.93" y="-225.15" font-family="Times,serif" font-size="14.00">objective</text>
</g>
<!-- n25&#45;&gt;n5 -->
<g id="edge30" class="edge"><title>n25&#45;&gt;n5</title>
<path fill="none" stroke="black" d="M3515.17,-227.967C3461.99,-222.148 3384.67,-214.246 3316.93,-209.48 3222.86,-202.862 2984.53,-213.932 2892.93,-191.48 2877.68,-187.741 2876.21,-180.139 2860.93,-176.48 2844.82,-172.621 1824.35,-142.558 1550.78,-134.559"/>
<polygon fill="black" stroke="black" points="1550.7,-131.056 1540.61,-134.262 1550.5,-138.053 1550.7,-131.056"/>
<text text-anchor="middle" x="2984.93" y="-180.28" font-family="Times,serif" font-size="14.00"> end(communicated_image_data)</text>
</g>
<!-- n25&#45;&gt;n7 -->
<g id="edge32" class="edge"><title>n25&#45;&gt;n7</title>
<path fill="none" stroke="black" d="M3576.81,-209.359C3573.94,-197.352 3568.45,-184.096 3557.93,-176.48 3517.13,-146.928 2786.46,-136.117 2548.89,-133.374"/>
<polygon fill="black" stroke="black" points="2548.67,-129.871 2538.63,-133.257 2548.59,-136.87 2548.67,-129.871"/>
<text text-anchor="middle" x="3625.93" y="-180.28" font-family="Times,serif" font-size="14.00"> static(visible_from)</text>
</g>
<!-- n25&#45;&gt;n18 -->
<g id="edge18" class="edge"><title>n25&#45;&gt;n18</title>
<path fill="none" stroke="black" d="M3647.18,-232.043C3812.1,-223.776 4223.99,-202.11 4233.93,-191.48 4238.49,-186.611 4238.45,-181.378 4233.93,-176.48 4110.87,-43.1909 2779.04,-29.3784 2448.06,-28.0078"/>
<polygon fill="black" stroke="black" points="2447.65,-24.5062 2437.64,-27.9674 2447.62,-31.5062 2447.65,-24.5062"/>
<text text-anchor="middle" x="4261.93" y="-127.91" font-family="Times,serif" font-size="14.00"> static(visible_from)</text>
</g>
</g>
</svg>
