<?xml version="1.0" encoding="UTF-8" standalone="no"?>
<!DOCTYPE svg PUBLIC "-//W3C//DTD SVG 1.1//EN"
 "http://www.w3.org/Graphics/SVG/1.1/DTD/svg11.dtd">
<!-- Generated by graphviz version 2.38.0 (20140413.2041)
 -->
<!-- Title: Struc Pages: 1 -->
<svg width="4503pt" height="376pt"
 viewBox="0.00 0.00 4503.37 375.96" xmlns="http://www.w3.org/2000/svg" xmlns:xlink="http://www.w3.org/1999/xlink">
<g id="graph0" class="graph" transform="scale(1 1) rotate(0) translate(4 371.96)">
<title>Struc</title>
<polygon fill="white" stroke="none" points="-4,4 -4,-371.96 4499.37,-371.96 4499.37,4 -4,4"/>
<!-- n1 -->
<g id="node1" class="node"><title>n1</title>
<ellipse fill="none" stroke="black" cx="622.366" cy="-236.35" rx="62.8651" ry="26.7407"/>
<text text-anchor="middle" x="622.366" y="-240.15" font-family="Times,serif" font-size="14.00">&lt;objective0&gt;</text>
<text text-anchor="middle" x="622.366" y="-225.15" font-family="Times,serif" font-size="14.00">objective</text>
</g>
<!-- n3 -->
<g id="node3" class="node"><title>n3</title>
<ellipse fill="none" stroke="black" cx="796.366" cy="-131.61" rx="63.7795" ry="26.7407"/>
<text text-anchor="middle" x="796.366" y="-135.41" font-family="Times,serif" font-size="14.00">&lt;waypoint1&gt;</text>
<text text-anchor="middle" x="796.366" y="-120.41" font-family="Times,serif" font-size="14.00">waypoint</text>
</g>
<!-- n1&#45;&gt;n3 -->
<g id="edge47" class="edge"><title>n1&#45;&gt;n3</title>
<path fill="none" stroke="black" d="M623.475,-209.359C625.313,-197.796 629.436,-184.918 638.366,-176.48 666.434,-149.96 686.197,-168.952 723.366,-158.48 728.921,-156.915 734.665,-155.148 740.379,-153.29"/>
<polygon fill="black" stroke="black" points="741.554,-156.587 749.928,-150.097 739.334,-149.949 741.554,-156.587"/>
<text text-anchor="middle" x="694.366" y="-180.28" font-family="Times,serif" font-size="14.00"> static(visible_from)</text>
</g>
<!-- n18 -->
<g id="node18" class="node"><title>n18</title>
<ellipse fill="none" stroke="black" cx="2447.37" cy="-131.61" rx="56.6372" ry="26.7407"/>
<text text-anchor="middle" x="2447.37" y="-135.41" font-family="Times,serif" font-size="14.00">&lt;high_res&gt;</text>
<text text-anchor="middle" x="2447.37" y="-120.41" font-family="Times,serif" font-size="14.00">mode</text>
</g>
<!-- n1&#45;&gt;n18 -->
<g id="edge45" class="edge"><title>n1&#45;&gt;n18</title>
<path fill="none" stroke="black" d="M682.597,-228.284C735.844,-222.31 815.661,-214.02 885.366,-209.48 947.71,-205.42 1388.68,-212.912 1447.37,-191.48 1457.47,-187.789 1456.24,-180.108 1466.37,-176.48 1562.2,-142.151 2282.58,-178.626 2382.37,-158.48 2387.65,-157.414 2393.05,-155.939 2398.38,-154.231"/>
<polygon fill="black" stroke="black" points="2399.54,-157.533 2407.83,-150.941 2397.24,-150.922 2399.54,-157.533"/>
<text text-anchor="middle" x="1558.37" y="-180.28" font-family="Times,serif" font-size="14.00"> end(communicated_image_data)</text>
</g>
<!-- n19 -->
<g id="node19" class="node"><title>n19</title>
<ellipse fill="none" stroke="black" cx="1192.37" cy="-26.8701" rx="63.7795" ry="26.7407"/>
<text text-anchor="middle" x="1192.37" y="-30.6701" font-family="Times,serif" font-size="14.00">&lt;waypoint0&gt;</text>
<text text-anchor="middle" x="1192.37" y="-15.6701" font-family="Times,serif" font-size="14.00">waypoint</text>
</g>
<!-- n1&#45;&gt;n19 -->
<g id="edge46" class="edge"><title>n1&#45;&gt;n19</title>
<path fill="none" stroke="black" d="M608.123,-209.889C600.071,-197.861 588.898,-184.429 575.366,-176.48 533.407,-151.834 498.82,-195.61 467.366,-158.48 451.928,-140.256 452.031,-123.052 467.366,-104.74 508.723,-55.3531 942.749,-35.9031 1118.8,-30.0077"/>
<polygon fill="black" stroke="black" points="1119.12,-33.4988 1129,-29.6714 1118.89,-26.5026 1119.12,-33.4988"/>
<text text-anchor="middle" x="523.366" y="-127.91" font-family="Times,serif" font-size="14.00"> static(visible_from)</text>
</g>
<!-- n2 -->
<g id="node2" class="node"><title>n2</title>
<ellipse fill="none" stroke="black" cx="323.366" cy="-236.35" rx="62.8651" ry="26.7407"/>
<text text-anchor="middle" x="323.366" y="-240.15" font-family="Times,serif" font-size="14.00">&lt;objective3&gt;</text>
<text text-anchor="middle" x="323.366" y="-225.15" font-family="Times,serif" font-size="14.00">objective</text>
</g>
<!-- n2&#45;&gt;n3 -->
<g id="edge19" class="edge"><title>n2&#45;&gt;n3</title>
<path fill="none" stroke="black" d="M340.394,-210.363C350.434,-197.826 364.309,-183.786 380.366,-176.48 449.84,-144.871 648.508,-173.382 723.366,-158.48 729.424,-157.274 735.658,-155.668 741.811,-153.844"/>
<polygon fill="black" stroke="black" points="742.892,-157.173 751.374,-150.825 740.784,-150.498 742.892,-157.173"/>
<text text-anchor="middle" x="436.366" y="-180.28" font-family="Times,serif" font-size="14.00"> static(visible_from)</text>
</g>
<!-- n2&#45;&gt;n18 -->
<g id="edge12" class="edge"><title>n2&#45;&gt;n18</title>
<path fill="none" stroke="black" d="M367.296,-217.041C376.426,-213.956 386.094,-211.2 395.366,-209.48 575.449,-176.079 1039.52,-226.126 1219.37,-191.48 1238.01,-187.889 1240.71,-180.018 1259.37,-176.48 1504.58,-129.981 2137.63,-207.431 2382.37,-158.48 2387.65,-157.423 2393.06,-155.955 2398.38,-154.251"/>
<polygon fill="black" stroke="black" points="2399.54,-157.553 2407.84,-150.965 2397.24,-150.941 2399.54,-157.553"/>
<text text-anchor="middle" x="1351.37" y="-180.28" font-family="Times,serif" font-size="14.00"> end(communicated_image_data)</text>
</g>
<!-- n2&#45;&gt;n19 -->
<g id="edge11" class="edge"><title>n2&#45;&gt;n19</title>
<path fill="none" stroke="black" d="M267.363,-223.897C239.101,-216.828 204.862,-206.243 176.366,-191.48 155.287,-180.56 144.743,-179.831 134.366,-158.48 123.925,-136.999 118.539,-122.628 134.366,-104.74 199.344,-31.3032 888.474,-26.8529 1118.27,-27.4312"/>
<polygon fill="black" stroke="black" points="1118.52,-30.9319 1128.53,-27.4612 1118.55,-23.9319 1118.52,-30.9319"/>
<text text-anchor="middle" x="190.366" y="-127.91" font-family="Times,serif" font-size="14.00"> static(visible_from)</text>
</g>
<!-- n3&#45;&gt;n19 -->
<g id="edge9" class="edge"><title>n3&#45;&gt;n19</title>
<path fill="none" stroke="black" d="M784.047,-105.056C780.452,-93.5899 779.355,-80.6658 787.366,-71.7401 809.068,-47.56 1008.3,-35.489 1119.01,-30.6021"/>
<polygon fill="black" stroke="black" points="1119.27,-34.0941 1129.11,-30.1652 1118.97,-27.1006 1119.27,-34.0941"/>
<text text-anchor="middle" x="826.366" y="-75.5401" font-family="Times,serif" font-size="14.00"> static(visible)</text>
</g>
<!-- n4 -->
<g id="node4" class="node"><title>n4</title>
<ellipse fill="none" stroke="black" cx="1635.37" cy="-341.09" rx="56.6372" ry="26.7407"/>
<text text-anchor="middle" x="1635.37" y="-344.89" font-family="Times,serif" font-size="14.00">&lt;camera0&gt;</text>
<text text-anchor="middle" x="1635.37" y="-329.89" font-family="Times,serif" font-size="14.00">camera</text>
</g>
<!-- n9 -->
<g id="node9" class="node"><title>n9</title>
<ellipse fill="none" stroke="black" cx="467.366" cy="-236.35" rx="62.8651" ry="26.7407"/>
<text text-anchor="middle" x="467.366" y="-240.15" font-family="Times,serif" font-size="14.00">&lt;objective6&gt;</text>
<text text-anchor="middle" x="467.366" y="-225.15" font-family="Times,serif" font-size="14.00">objective</text>
</g>
<!-- n4&#45;&gt;n9 -->
<g id="edge39" class="edge"><title>n4&#45;&gt;n9</title>
<path fill="none" stroke="black" d="M1578.59,-340.665C1416.52,-341.324 938.434,-336.421 550.366,-263.22 541.853,-261.615 532.984,-259.428 524.348,-257.003"/>
<polygon fill="black" stroke="black" points="525.309,-253.637 514.728,-254.18 523.338,-260.354 525.309,-253.637"/>
<text text-anchor="middle" x="824.866" y="-285.02" font-family="Times,serif" font-size="14.00"> static(calibration_target)</text>
</g>
<!-- n4&#45;&gt;n18 -->
<g id="edge33" class="edge"><title>n4&#45;&gt;n18</title>
<path fill="none" stroke="black" d="M1675.57,-321.98C1683.95,-318.88 1692.83,-316.067 1701.37,-314.22 1738.67,-306.153 2014.74,-320.277 2044.37,-296.22 2075.33,-271.079 2040.96,-239.368 2067.37,-209.48 2093.38,-180.041 2111.11,-185.431 2149.37,-176.48 2250.5,-152.816 2281.19,-181.951 2382.37,-158.48 2387.41,-157.309 2392.58,-155.811 2397.69,-154.126"/>
<polygon fill="black" stroke="black" points="2399.14,-157.326 2407.4,-150.693 2396.81,-150.726 2399.14,-157.326"/>
<text text-anchor="middle" x="2111.37" y="-232.65" font-family="Times,serif" font-size="14.00"> static(supports)</text>
</g>
<!-- n25 -->
<g id="node25" class="node"><title>n25</title>
<ellipse fill="none" stroke="black" cx="1747.37" cy="-236.35" rx="48.1667" ry="26.7407"/>
<text text-anchor="middle" x="1747.37" y="-240.15" font-family="Times,serif" font-size="14.00">&lt;rover0&gt;</text>
<text text-anchor="middle" x="1747.37" y="-225.15" font-family="Times,serif" font-size="14.00">rover</text>
</g>
<!-- n4&#45;&gt;n25 -->
<g id="edge18" class="edge"><title>n4&#45;&gt;n25</title>
<path fill="none" stroke="black" d="M1643.88,-314.443C1648.57,-303.227 1655.31,-290.534 1664.37,-281.22 1674.05,-271.254 1686.49,-263.06 1698.78,-256.564"/>
<polygon fill="black" stroke="black" points="1700.7,-259.515 1708.1,-251.925 1697.59,-253.249 1700.7,-259.515"/>
<text text-anchor="middle" x="1710.87" y="-285.02" font-family="Times,serif" font-size="14.00"> static(on_board)</text>
</g>
<!-- n5 -->
<g id="node5" class="node"><title>n5</title>
<ellipse fill="none" stroke="black" cx="2227.37" cy="-236.35" rx="62.8651" ry="26.7407"/>
<text text-anchor="middle" x="2227.37" y="-240.15" font-family="Times,serif" font-size="14.00">&lt;objective7&gt;</text>
<text text-anchor="middle" x="2227.37" y="-225.15" font-family="Times,serif" font-size="14.00">objective</text>
</g>
<!-- n5&#45;&gt;n3 -->
<g id="edge16" class="edge"><title>n5&#45;&gt;n3</title>
<path fill="none" stroke="black" d="M2181.95,-217.534C2171.71,-214.241 2160.79,-211.276 2150.37,-209.48 1921.05,-169.96 1334.51,-218.326 1103.37,-191.48 1072.19,-187.86 1065.33,-181.574 1034.37,-176.48 963.755,-164.864 944.261,-173.827 874.366,-158.48 867.372,-156.945 860.123,-155.017 852.987,-152.91"/>
<polygon fill="black" stroke="black" points="853.948,-149.544 843.361,-149.945 851.888,-156.233 853.948,-149.544"/>
<text text-anchor="middle" x="1159.37" y="-180.28" font-family="Times,serif" font-size="14.00"> static(visible_from)</text>
</g>
<!-- n5&#45;&gt;n18 -->
<g id="edge38" class="edge"><title>n5&#45;&gt;n18</title>
<path fill="none" stroke="black" d="M2182.52,-217.373C2161.35,-206.362 2143.47,-191.531 2157.37,-176.48 2174.38,-158.053 2357.94,-164.181 2382.37,-158.48 2387.41,-157.303 2392.58,-155.799 2397.69,-154.111"/>
<polygon fill="black" stroke="black" points="2399.14,-157.311 2407.4,-150.675 2396.81,-150.712 2399.14,-157.311"/>
<text text-anchor="middle" x="2249.37" y="-180.28" font-family="Times,serif" font-size="14.00"> end(communicated_image_data)</text>
</g>
<!-- n5&#45;&gt;n19 -->
<g id="edge37" class="edge"><title>n5&#45;&gt;n19</title>
<path fill="none" stroke="black" d="M2184.49,-216.504C2176.29,-213.632 2167.67,-211.092 2159.37,-209.48 2134.38,-204.634 1261.6,-209.236 1243.37,-191.48 1236.45,-184.749 1242.19,-113.965 1239.37,-104.74 1234.67,-89.4294 1226.22,-74.071 1217.76,-61.1517"/>
<polygon fill="black" stroke="black" points="1220.47,-58.9194 1211.95,-52.6277 1214.69,-62.8621 1220.47,-58.9194"/>
<text text-anchor="middle" x="1296.37" y="-127.91" font-family="Times,serif" font-size="14.00"> static(visible_from)</text>
</g>
<!-- n6 -->
<g id="node6" class="node"><title>n6</title>
<ellipse fill="none" stroke="black" cx="651.366" cy="-131.61" rx="62.8651" ry="26.7407"/>
<text text-anchor="middle" x="651.366" y="-135.41" font-family="Times,serif" font-size="14.00">&lt;objective2&gt;</text>
<text text-anchor="middle" x="651.366" y="-120.41" font-family="Times,serif" font-size="14.00">objective</text>
</g>
<!-- n6&#45;&gt;n19 -->
<g id="edge6" class="edge"><title>n6&#45;&gt;n19</title>
<path fill="none" stroke="black" d="M651.499,-104.44C653.003,-92.6927 656.946,-79.7111 666.366,-71.7401 700.114,-43.184 981.864,-32.7515 1118.55,-29.3454"/>
<polygon fill="black" stroke="black" points="1119.02,-32.8352 1128.93,-29.0933 1118.85,-25.8372 1119.02,-32.8352"/>
<text text-anchor="middle" x="722.366" y="-75.5401" font-family="Times,serif" font-size="14.00"> static(visible_from)</text>
</g>
<!-- n7 -->
<g id="node7" class="node"><title>n7</title>
<ellipse fill="none" stroke="black" cx="1777.37" cy="-341.09" rx="67.3507" ry="26.7407"/>
<text text-anchor="middle" x="1777.37" y="-344.89" font-family="Times,serif" font-size="14.00">&lt;rover0store&gt;</text>
<text text-anchor="middle" x="1777.37" y="-329.89" font-family="Times,serif" font-size="14.00">store</text>
</g>
<!-- n7&#45;&gt;n7 -->
<g id="edge1" class="edge"><title>n7&#45;&gt;n7</title>
<path fill="none" stroke="black" d="M1840.51,-350.468C1853.35,-349.447 1862.54,-346.321 1862.54,-341.09 1862.54,-337.413 1858,-334.775 1850.84,-333.179"/>
<polygon fill="black" stroke="black" points="1850.91,-329.653 1840.51,-331.712 1849.92,-336.584 1850.91,-329.653"/>
<text text-anchor="middle" x="1895.54" y="-337.39" font-family="Times,serif" font-size="14.00"> init(empty)</text>
</g>
<!-- n7&#45;&gt;n25 -->
<g id="edge27" class="edge"><title>n7&#45;&gt;n25</title>
<path fill="none" stroke="black" d="M1769.8,-314.165C1766.14,-301.659 1761.71,-286.462 1757.75,-272.896"/>
<polygon fill="black" stroke="black" points="1760.99,-271.53 1754.83,-262.912 1754.27,-273.492 1760.99,-271.53"/>
<text text-anchor="middle" x="1807.37" y="-285.02" font-family="Times,serif" font-size="14.00"> static(store_of)</text>
</g>
<!-- n8 -->
<g id="node8" class="node"><title>n8</title>
<ellipse fill="none" stroke="black" cx="2371.37" cy="-236.35" rx="62.8651" ry="26.7407"/>
<text text-anchor="middle" x="2371.37" y="-240.15" font-family="Times,serif" font-size="14.00">&lt;objective5&gt;</text>
<text text-anchor="middle" x="2371.37" y="-225.15" font-family="Times,serif" font-size="14.00">objective</text>
</g>
<!-- n16 -->
<g id="node16" class="node"><title>n16</title>
<ellipse fill="none" stroke="black" cx="3775.37" cy="-131.61" rx="48.1667" ry="26.7407"/>
<text text-anchor="middle" x="3775.37" y="-135.41" font-family="Times,serif" font-size="14.00">&lt;colour&gt;</text>
<text text-anchor="middle" x="3775.37" y="-120.41" font-family="Times,serif" font-size="14.00">mode</text>
</g>
<!-- n8&#45;&gt;n16 -->
<g id="edge32" class="edge"><title>n8&#45;&gt;n16</title>
<path fill="none" stroke="black" d="M2427.42,-223.824C2456.25,-218.417 2492.05,-212.508 2524.37,-209.48 2730.83,-190.141 3252.78,-225.36 3457.37,-191.48 3479,-187.898 3482.86,-180.781 3504.37,-176.48 3595.79,-158.193 3622.82,-180.697 3713.37,-158.48 3718.82,-157.143 3724.41,-155.394 3729.9,-153.436"/>
<polygon fill="black" stroke="black" points="3731.52,-156.564 3739.61,-149.728 3729.02,-150.024 3731.52,-156.564"/>
<text text-anchor="middle" x="3596.37" y="-180.28" font-family="Times,serif" font-size="14.00"> end(communicated_image_data)</text>
</g>
<!-- n8&#45;&gt;n18 -->
<g id="edge48" class="edge"><title>n8&#45;&gt;n18</title>
<path fill="none" stroke="black" d="M2351.69,-210.783C2345.36,-199.786 2341.54,-186.965 2348.37,-176.48 2349.94,-174.055 2372.91,-163.81 2396.33,-153.831"/>
<polygon fill="black" stroke="black" points="2397.79,-157.015 2405.63,-149.89 2395.06,-150.57 2397.79,-157.015"/>
<text text-anchor="middle" x="2441.37" y="-180.28" font-family="Times,serif" font-size="14.00"> end(communicated_image_data)</text>
</g>
<!-- n8&#45;&gt;n19 -->
<g id="edge50" class="edge"><title>n8&#45;&gt;n19</title>
<path fill="none" stroke="black" d="M2349.6,-210.83C2336.69,-198.1 2319.2,-183.725 2300.37,-176.48 2212.14,-142.535 1969.26,-169.387 1875.37,-158.48 1645.59,-131.79 1377.14,-71.8818 1256.64,-43.4352"/>
<polygon fill="black" stroke="black" points="1257.37,-40.0113 1246.83,-41.1121 1255.76,-46.8228 1257.37,-40.0113"/>
<text text-anchor="middle" x="1931.37" y="-127.91" font-family="Times,serif" font-size="14.00"> static(visible_from)</text>
</g>
<!-- n9&#45;&gt;n3 -->
<g id="edge20" class="edge"><title>n9&#45;&gt;n3</title>
<path fill="none" stroke="black" d="M480.546,-210.043C488.353,-197.742 499.452,-184.018 513.366,-176.48 554.548,-154.169 677.587,-168.383 723.366,-158.48 729.175,-157.224 735.155,-155.63 741.072,-153.852"/>
<polygon fill="black" stroke="black" points="742.464,-157.082 750.932,-150.715 740.342,-150.412 742.464,-157.082"/>
<text text-anchor="middle" x="569.366" y="-180.28" font-family="Times,serif" font-size="14.00"> static(visible_from)</text>
</g>
<!-- n9&#45;&gt;n19 -->
<g id="edge8" class="edge"><title>n9&#45;&gt;n19</title>
<path fill="none" stroke="black" d="M422.571,-217.233C413.678,-214.214 404.32,-211.434 395.366,-209.48 372.269,-204.441 199.359,-208.889 183.366,-191.48 178.856,-186.571 179.309,-181.771 183.366,-176.48 202.128,-152.012 221.971,-170.498 250.366,-158.48 293.27,-140.322 296.924,-121.571 340.366,-104.74 481.65,-50.0024 938.955,-33.6877 1118.77,-29.3199"/>
<polygon fill="black" stroke="black" points="1119.02,-32.8153 1128.93,-29.0788 1118.85,-25.8172 1119.02,-32.8153"/>
<text text-anchor="middle" x="396.366" y="-127.91" font-family="Times,serif" font-size="14.00"> static(visible_from)</text>
</g>
<!-- n10 -->
<g id="node10" class="node"><title>n10</title>
<ellipse fill="none" stroke="black" cx="3064.37" cy="-236.35" rx="62.8651" ry="26.7407"/>
<text text-anchor="middle" x="3064.37" y="-240.15" font-family="Times,serif" font-size="14.00">&lt;objective9&gt;</text>
<text text-anchor="middle" x="3064.37" y="-225.15" font-family="Times,serif" font-size="14.00">objective</text>
</g>
<!-- n10&#45;&gt;n18 -->
<g id="edge51" class="edge"><title>n10&#45;&gt;n18</title>
<path fill="none" stroke="black" d="M3001.93,-232.914C2944.49,-228.957 2857.8,-218.594 2787.37,-191.48 2775.98,-187.096 2775.8,-180.753 2764.37,-176.48 2681.75,-145.597 2579.69,-136.147 2514.07,-133.423"/>
<polygon fill="black" stroke="black" points="2513.99,-129.917 2503.86,-133.041 2513.73,-136.913 2513.99,-129.917"/>
<text text-anchor="middle" x="2879.37" y="-180.28" font-family="Times,serif" font-size="14.00"> end(communicated_image_data)</text>
</g>
<!-- n10&#45;&gt;n19 -->
<g id="edge52" class="edge"><title>n10&#45;&gt;n19</title>
<path fill="none" stroke="black" d="M3121.19,-224.517C3149.18,-219.447 3183.46,-213.627 3214.37,-209.48 3235.05,-206.704 3387.33,-206.931 3401.37,-191.48 3405.85,-186.546 3405.57,-181.655 3401.37,-176.48 3376.74,-146.171 3347.74,-180.318 3315.37,-158.48 3291.53,-142.404 3304.47,-118.742 3279.37,-104.74 3189.76,-54.7696 1626.55,-33.0648 1266.09,-28.7119"/>
<polygon fill="black" stroke="black" points="1266.07,-25.2116 1256.03,-28.5912 1265.99,-32.2111 1266.07,-25.2116"/>
<text text-anchor="middle" x="3371.37" y="-127.91" font-family="Times,serif" font-size="14.00"> static(visible_from)</text>
</g>
<!-- n11 -->
<g id="node11" class="node"><title>n11</title>
<ellipse fill="none" stroke="black" cx="78.3659" cy="-236.35" rx="67.7647" ry="26.7407"/>
<text text-anchor="middle" x="78.3659" y="-240.15" font-family="Times,serif" font-size="14.00">&lt;objective10&gt;</text>
<text text-anchor="middle" x="78.3659" y="-225.15" font-family="Times,serif" font-size="14.00">objective</text>
</g>
<!-- n11&#45;&gt;n3 -->
<g id="edge14" class="edge"><title>n11&#45;&gt;n3</title>
<path fill="none" stroke="black" d="M121.876,-215.577C154.344,-201.857 200.191,-184.636 242.366,-176.48 452.402,-135.864 513.248,-198.67 723.366,-158.48 729.519,-157.303 735.851,-155.698 742.092,-153.859"/>
<polygon fill="black" stroke="black" points="743.301,-157.148 751.787,-150.804 741.197,-150.471 743.301,-157.148"/>
<text text-anchor="middle" x="298.366" y="-180.28" font-family="Times,serif" font-size="14.00"> static(visible_from)</text>
</g>
<!-- n11&#45;&gt;n19 -->
<g id="edge17" class="edge"><title>n11&#45;&gt;n19</title>
<path fill="none" stroke="black" d="M50.1645,-211.777C20.6728,-184.284 -17.8228,-138.327 9.36588,-104.74 53.6816,-49.9961 94.4932,-80.6059 164.366,-71.7401 349.111,-48.2988 914.83,-33.9407 1118.41,-29.4195"/>
<polygon fill="black" stroke="black" points="1118.77,-32.9124 1128.69,-29.1926 1118.62,-25.9141 1118.77,-32.9124"/>
<text text-anchor="middle" x="65.3659" y="-127.91" font-family="Times,serif" font-size="14.00"> static(visible_from)</text>
</g>
<!-- n12 -->
<g id="node12" class="node"><title>n12</title>
<ellipse fill="none" stroke="black" cx="4107.37" cy="-131.61" rx="53.9813" ry="26.7407"/>
<text text-anchor="middle" x="4107.37" y="-135.41" font-family="Times,serif" font-size="14.00">&lt;low_res&gt;</text>
<text text-anchor="middle" x="4107.37" y="-120.41" font-family="Times,serif" font-size="14.00">mode</text>
</g>
<!-- n13 -->
<g id="node13" class="node"><title>n13</title>
<ellipse fill="none" stroke="black" cx="957.366" cy="-236.35" rx="62.8651" ry="26.7407"/>
<text text-anchor="middle" x="957.366" y="-240.15" font-family="Times,serif" font-size="14.00">&lt;objective1&gt;</text>
<text text-anchor="middle" x="957.366" y="-225.15" font-family="Times,serif" font-size="14.00">objective</text>
</g>
<!-- n13&#45;&gt;n3 -->
<g id="edge29" class="edge"><title>n13&#45;&gt;n3</title>
<path fill="none" stroke="black" d="M895.892,-230.12C843.977,-224.277 775.429,-212.715 758.366,-191.48 751.412,-182.826 754.245,-172.86 760.772,-163.618"/>
<polygon fill="black" stroke="black" points="763.62,-165.666 767.305,-155.733 758.23,-161.2 763.62,-165.666"/>
<text text-anchor="middle" x="814.366" y="-180.28" font-family="Times,serif" font-size="14.00"> static(visible_from)</text>
</g>
<!-- n13&#45;&gt;n18 -->
<g id="edge41" class="edge"><title>n13&#45;&gt;n18</title>
<path fill="none" stroke="black" d="M1001.31,-217.091C1010.43,-214.002 1020.1,-211.232 1029.37,-209.48 1097.63,-196.573 1589.07,-215.207 1654.37,-191.48 1664.48,-187.806 1663.25,-180.137 1673.37,-176.48 1747.48,-149.693 2305.17,-174.297 2382.37,-158.48 2387.65,-157.398 2393.05,-155.914 2398.37,-154.2"/>
<polygon fill="black" stroke="black" points="2399.54,-157.501 2407.83,-150.903 2397.23,-150.891 2399.54,-157.501"/>
<text text-anchor="middle" x="1765.37" y="-180.28" font-family="Times,serif" font-size="14.00"> end(communicated_image_data)</text>
</g>
<!-- n13&#45;&gt;n19 -->
<g id="edge42" class="edge"><title>n13&#45;&gt;n19</title>
<path fill="none" stroke="black" d="M991.924,-213.669C1005.25,-202.604 1015.18,-188.893 1005.37,-176.48 983.834,-149.253 950.898,-185.707 929.366,-158.48 914.55,-139.746 915.041,-123.852 929.366,-104.74 935.535,-96.5095 1053.45,-64.3037 1129.28,-44.2816"/>
<polygon fill="black" stroke="black" points="1130.45,-47.5938 1139.22,-41.6617 1128.66,-40.8247 1130.45,-47.5938"/>
<text text-anchor="middle" x="986.366" y="-127.91" font-family="Times,serif" font-size="14.00"> static(visible_from)</text>
</g>
<!-- n14 -->
<g id="node14" class="node"><title>n14</title>
<ellipse fill="none" stroke="black" cx="3286.37" cy="-236.35" rx="62.8651" ry="26.7407"/>
<text text-anchor="middle" x="3286.37" y="-240.15" font-family="Times,serif" font-size="14.00">&lt;objective8&gt;</text>
<text text-anchor="middle" x="3286.37" y="-225.15" font-family="Times,serif" font-size="14.00">objective</text>
</g>
<!-- n14&#45;&gt;n18 -->
<g id="edge31" class="edge"><title>n14&#45;&gt;n18</title>
<path fill="none" stroke="black" d="M3229.12,-224.86C3201.19,-219.899 3167.08,-214.072 3136.37,-209.48 3073.45,-200.072 3054.08,-213.413 2994.37,-191.48 2982.91,-187.273 2982.91,-180.443 2971.37,-176.48 2888.62,-148.072 2636.06,-137.611 2514.34,-134.147"/>
<polygon fill="black" stroke="black" points="2514.13,-130.64 2504.04,-133.862 2513.94,-137.637 2514.13,-130.64"/>
<text text-anchor="middle" x="3086.37" y="-180.28" font-family="Times,serif" font-size="14.00"> end(communicated_image_data)</text>
</g>
<!-- n14&#45;&gt;n19 -->
<g id="edge30" class="edge"><title>n14&#45;&gt;n19</title>
<path fill="none" stroke="black" d="M3345.98,-227.694C3370.99,-221.649 3398.56,-210.834 3417.37,-191.48 3444.41,-163.646 3453.46,-133.464 3427.37,-104.74 3353.11,-22.9983 1645.01,-25.8379 1266.29,-27.4786"/>
<polygon fill="black" stroke="black" points="1266.25,-23.9786 1256.26,-27.5231 1266.28,-30.9785 1266.25,-23.9786"/>
<text text-anchor="middle" x="3499.37" y="-127.91" font-family="Times,serif" font-size="14.00"> static(visible_from)</text>
</g>
<!-- n15 -->
<g id="node15" class="node"><title>n15</title>
<ellipse fill="none" stroke="black" cx="2064.37" cy="-131.61" rx="67.7647" ry="26.7407"/>
<text text-anchor="middle" x="2064.37" y="-135.41" font-family="Times,serif" font-size="14.00">&lt;objective11&gt;</text>
<text text-anchor="middle" x="2064.37" y="-120.41" font-family="Times,serif" font-size="14.00">objective</text>
</g>
<!-- n15&#45;&gt;n19 -->
<g id="edge24" class="edge"><title>n15&#45;&gt;n19</title>
<path fill="none" stroke="black" d="M2017.54,-112.095C1980.84,-98.4533 1928.15,-80.7655 1880.37,-71.7401 1764.32,-49.8235 1418.36,-35.6274 1265.9,-30.2724"/>
<polygon fill="black" stroke="black" points="1265.82,-26.7676 1255.7,-29.9173 1265.58,-33.7633 1265.82,-26.7676"/>
<text text-anchor="middle" x="1993.37" y="-75.5401" font-family="Times,serif" font-size="14.00"> static(visible_from)</text>
</g>
<!-- n17 -->
<g id="node17" class="node"><title>n17</title>
<ellipse fill="none" stroke="black" cx="2202.37" cy="-131.61" rx="51.7379" ry="26.7407"/>
<text text-anchor="middle" x="2202.37" y="-135.41" font-family="Times,serif" font-size="14.00">&lt;general&gt;</text>
<text text-anchor="middle" x="2202.37" y="-120.41" font-family="Times,serif" font-size="14.00">lander</text>
</g>
<!-- n17&#45;&gt;n17 -->
<g id="edge2" class="edge"><title>n17&#45;&gt;n17</title>
<path fill="none" stroke="black" d="M2250.84,-141.226C2262.94,-140.554 2271.98,-137.348 2271.98,-131.61 2271.98,-127.665 2267.71,-124.917 2261.11,-123.367"/>
<polygon fill="black" stroke="black" points="2261.22,-119.85 2250.84,-121.994 2260.29,-126.789 2261.22,-119.85"/>
<text text-anchor="middle" x="2322.48" y="-127.91" font-family="Times,serif" font-size="14.00"> init(channel_free)</text>
</g>
<!-- n17&#45;&gt;n19 -->
<g id="edge43" class="edge"><title>n17&#45;&gt;n19</title>
<path fill="none" stroke="black" d="M2166.1,-112.204C2136.58,-98.2334 2093.4,-80.0568 2053.37,-71.7401 1903.95,-40.6989 1446.27,-31.2743 1266.23,-28.7242"/>
<polygon fill="black" stroke="black" points="1266.11,-25.2223 1256.06,-28.5834 1266.01,-32.2217 1266.11,-25.2223"/>
<text text-anchor="middle" x="2150.37" y="-75.5401" font-family="Times,serif" font-size="14.00"> static(at_lander)</text>
</g>
<!-- n19&#45;&gt;n3 -->
<g id="edge28" class="edge"><title>n19&#45;&gt;n3</title>
<path fill="none" stroke="black" d="M1128.67,-29.107C1065.76,-32.1459 967.699,-41.8237 888.366,-71.7401 876.947,-76.0463 875.627,-80.1327 865.366,-86.7401 856.952,-92.1584 847.939,-97.9195 839.296,-103.424"/>
<polygon fill="black" stroke="black" points="837.371,-100.5 830.811,-108.82 841.127,-106.407 837.371,-100.5"/>
<text text-anchor="middle" x="927.366" y="-75.5401" font-family="Times,serif" font-size="14.00"> static(visible)</text>
</g>
<!-- n19&#45;&gt;n19 -->
<g id="edge3" class="edge"><title>n19&#45;&gt;n19</title>
<path fill="none" stroke="black" d="M1252.17,-36.3053C1264.85,-35.3472 1274.01,-32.2021 1274.01,-26.8701 1274.01,-23.121 1269.48,-20.4531 1262.38,-18.8664"/>
<polygon fill="black" stroke="black" points="1262.56,-15.3569 1252.17,-17.4349 1261.59,-22.2891 1262.56,-15.3569"/>
<text text-anchor="middle" x="1358.51" y="-30.6701" font-family="Times,serif" font-size="14.00"> end(communicated_soil_data)</text>
<text text-anchor="middle" x="1358.51" y="-15.6701" font-family="Times,serif" font-size="14.00">init(at_soil_sample)</text>
</g>
<!-- n20 -->
<g id="node20" class="node"><title>n20</title>
<ellipse fill="none" stroke="black" cx="1106.37" cy="-236.35" rx="67.7647" ry="26.7407"/>
<text text-anchor="middle" x="1106.37" y="-240.15" font-family="Times,serif" font-size="14.00">&lt;objective12&gt;</text>
<text text-anchor="middle" x="1106.37" y="-225.15" font-family="Times,serif" font-size="14.00">objective</text>
</g>
<!-- n20&#45;&gt;n3 -->
<g id="edge10" class="edge"><title>n20&#45;&gt;n3</title>
<path fill="none" stroke="black" d="M1057.43,-217.578C1048.18,-214.602 1038.54,-211.749 1029.37,-209.48 980.85,-197.482 966.034,-206.496 918.366,-191.48 892.047,-183.189 864.225,-170.132 841.807,-158.418"/>
<polygon fill="black" stroke="black" points="843.34,-155.269 832.866,-153.669 840.056,-161.451 843.34,-155.269"/>
<text text-anchor="middle" x="974.366" y="-180.28" font-family="Times,serif" font-size="14.00"> static(visible_from)</text>
</g>
<!-- n20&#45;&gt;n18 -->
<g id="edge35" class="edge"><title>n20&#45;&gt;n18</title>
<path fill="none" stroke="black" d="M1173.59,-232.384C1352.51,-224.363 1829,-202.134 1861.37,-191.48 1872.96,-187.665 1872.73,-180.168 1884.37,-176.48 1989.93,-143.013 2274,-181.289 2382.37,-158.48 2387.64,-157.37 2393.04,-155.868 2398.36,-154.142"/>
<polygon fill="black" stroke="black" points="2399.53,-157.44 2407.81,-150.832 2397.22,-150.834 2399.53,-157.44"/>
<text text-anchor="middle" x="1976.37" y="-180.28" font-family="Times,serif" font-size="14.00"> end(communicated_image_data)</text>
</g>
<!-- n20&#45;&gt;n19 -->
<g id="edge40" class="edge"><title>n20&#45;&gt;n19</title>
<path fill="none" stroke="black" d="M1073.68,-212.428C1067.46,-206.387 1061.83,-199.331 1058.37,-191.48 1042.82,-156.204 1039.04,-138.1 1058.37,-104.74 1074.24,-77.3364 1103.98,-58.8585 1131.41,-46.9025"/>
<polygon fill="black" stroke="black" points="1133.09,-49.9963 1140.99,-42.9415 1130.42,-43.5272 1133.09,-49.9963"/>
<text text-anchor="middle" x="1114.37" y="-127.91" font-family="Times,serif" font-size="14.00"> static(visible_from)</text>
</g>
<!-- n21 -->
<g id="node21" class="node"><title>n21</title>
<ellipse fill="none" stroke="black" cx="2759.37" cy="-236.35" rx="67.7647" ry="26.7407"/>
<text text-anchor="middle" x="2759.37" y="-240.15" font-family="Times,serif" font-size="14.00">&lt;objective13&gt;</text>
<text text-anchor="middle" x="2759.37" y="-225.15" font-family="Times,serif" font-size="14.00">objective</text>
</g>
<!-- n21&#45;&gt;n18 -->
<g id="edge22" class="edge"><title>n21&#45;&gt;n18</title>
<path fill="none" stroke="black" d="M2700.04,-223.061C2656.62,-213.645 2601.72,-200.74 2580.37,-191.48 2569.17,-186.625 2568.2,-182.102 2557.37,-176.48 2539.81,-167.371 2519.92,-158.914 2501.93,-151.904"/>
<polygon fill="black" stroke="black" points="2502.74,-148.469 2492.15,-148.164 2500.24,-155.007 2502.74,-148.469"/>
<text text-anchor="middle" x="2672.37" y="-180.28" font-family="Times,serif" font-size="14.00"> end(communicated_image_data)</text>
</g>
<!-- n21&#45;&gt;n19 -->
<g id="edge23" class="edge"><title>n21&#45;&gt;n19</title>
<path fill="none" stroke="black" d="M2823.54,-227.092C2870.28,-221.355 2935.15,-213.962 2992.37,-209.48 3014.16,-207.773 3370.27,-207.285 3385.37,-191.48 3389.97,-186.66 3389.88,-181.384 3385.37,-176.48 3368.9,-158.601 3191.58,-160.566 3167.37,-158.48 2737.45,-121.45 2630.92,-100.404 2200.37,-71.7401 1850.92,-48.4752 1432.46,-34.7908 1265.94,-29.9131"/>
<polygon fill="black" stroke="black" points="1265.91,-26.4109 1255.81,-29.6182 1265.71,-33.4079 1265.91,-26.4109"/>
<text text-anchor="middle" x="3223.37" y="-127.91" font-family="Times,serif" font-size="14.00"> static(visible_from)</text>
</g>
<!-- n22 -->
<g id="node22" class="node"><title>n22</title>
<ellipse fill="none" stroke="black" cx="2546.37" cy="-341.09" rx="56.6372" ry="26.7407"/>
<text text-anchor="middle" x="2546.37" y="-344.89" font-family="Times,serif" font-size="14.00">&lt;camera1&gt;</text>
<text text-anchor="middle" x="2546.37" y="-329.89" font-family="Times,serif" font-size="14.00">camera</text>
</g>
<!-- n22&#45;&gt;n5 -->
<g id="edge36" class="edge"><title>n22&#45;&gt;n5</title>
<path fill="none" stroke="black" d="M2498.24,-326.75C2468.49,-318.345 2429.59,-307.066 2395.37,-296.22 2352.36,-282.589 2341.93,-278.182 2299.37,-263.22 2294.48,-261.503 2289.41,-259.708 2284.33,-257.899"/>
<polygon fill="black" stroke="black" points="2285.18,-254.486 2274.58,-254.421 2282.82,-261.079 2285.18,-254.486"/>
<text text-anchor="middle" x="2463.87" y="-285.02" font-family="Times,serif" font-size="14.00"> static(calibration_target)</text>
</g>
<!-- n22&#45;&gt;n12 -->
<g id="edge5" class="edge"><title>n22&#45;&gt;n12</title>
<path fill="none" stroke="black" d="M2603.27,-340.536C2853.89,-342.03 3851.9,-342.897 3964.37,-263.22 3998.57,-238.992 3971.57,-205.956 4001.37,-176.48 4014.69,-163.303 4032.53,-153.886 4049.78,-147.245"/>
<polygon fill="black" stroke="black" points="4051.04,-150.511 4059.26,-143.835 4048.67,-143.924 4051.04,-150.511"/>
<text text-anchor="middle" x="4029.37" y="-232.65" font-family="Times,serif" font-size="14.00"> static(supports)</text>
</g>
<!-- n22&#45;&gt;n16 -->
<g id="edge13" class="edge"><title>n22&#45;&gt;n16</title>
<path fill="none" stroke="black" d="M2603.04,-338.436C2849.08,-330.659 3816.05,-293.723 3899.37,-191.48 3922.08,-163.603 3874.93,-148.135 3832.39,-140.134"/>
<polygon fill="black" stroke="black" points="3832.74,-136.642 3822.29,-138.351 3831.52,-143.536 3832.74,-136.642"/>
<text text-anchor="middle" x="3916.37" y="-232.65" font-family="Times,serif" font-size="14.00"> static(supports)</text>
</g>
<!-- n22&#45;&gt;n18 -->
<g id="edge34" class="edge"><title>n22&#45;&gt;n18</title>
<path fill="none" stroke="black" d="M2551.34,-314.065C2556.45,-279.521 2560.2,-218.058 2532.37,-176.48 2525.3,-165.918 2514.86,-157.749 2503.69,-151.488"/>
<polygon fill="black" stroke="black" points="2505.13,-148.294 2494.63,-146.866 2501.95,-154.529 2505.13,-148.294"/>
<text text-anchor="middle" x="2599.37" y="-232.65" font-family="Times,serif" font-size="14.00"> static(supports)</text>
</g>
<!-- n22&#45;&gt;n25 -->
<g id="edge15" class="edge"><title>n22&#45;&gt;n25</title>
<path fill="none" stroke="black" d="M2492.08,-333.109C2347.16,-314.475 1952.19,-263.688 1804.29,-244.67"/>
<polygon fill="black" stroke="black" points="1804.44,-241.16 1794.07,-243.356 1803.55,-248.103 1804.44,-241.16"/>
<text text-anchor="middle" x="2241.87" y="-285.02" font-family="Times,serif" font-size="14.00"> static(on_board)</text>
</g>
<!-- n23 -->
<g id="node23" class="node"><title>n23</title>
<ellipse fill="none" stroke="black" cx="4227.37" cy="-236.35" rx="62.8651" ry="26.7407"/>
<text text-anchor="middle" x="4227.37" y="-240.15" font-family="Times,serif" font-size="14.00">&lt;objective4&gt;</text>
<text text-anchor="middle" x="4227.37" y="-225.15" font-family="Times,serif" font-size="14.00">objective</text>
</g>
<!-- n23&#45;&gt;n12 -->
<g id="edge53" class="edge"><title>n23&#45;&gt;n12</title>
<path fill="none" stroke="black" d="M4222.43,-209.476C4219.17,-198.215 4213.88,-185.549 4205.37,-176.48 4194.01,-164.381 4178.7,-155.391 4163.56,-148.812"/>
<polygon fill="black" stroke="black" points="4164.78,-145.528 4154.19,-145.021 4162.15,-152.017 4164.78,-145.528"/>
<text text-anchor="middle" x="4306.37" y="-180.28" font-family="Times,serif" font-size="14.00"> end(communicated_image_data)</text>
</g>
<!-- n23&#45;&gt;n18 -->
<g id="edge49" class="edge"><title>n23&#45;&gt;n18</title>
<path fill="none" stroke="black" d="M4172.99,-222.778C4108.92,-208.592 3999.06,-186.229 3903.37,-176.48 3732.65,-159.088 3302.89,-163.723 3131.37,-158.48 2904.86,-151.557 2636.27,-140.593 2513.98,-135.45"/>
<polygon fill="black" stroke="black" points="2513.8,-131.94 2503.66,-135.016 2513.5,-138.934 2513.8,-131.94"/>
<text text-anchor="middle" x="4102.37" y="-180.28" font-family="Times,serif" font-size="14.00"> end(communicated_image_data)</text>
</g>
<!-- n23&#45;&gt;n19 -->
<g id="edge44" class="edge"><title>n23&#45;&gt;n19</title>
<path fill="none" stroke="black" d="M4290.17,-234.444C4352.23,-231.161 4433.71,-218.982 4402.37,-176.48 4277.66,-7.38584 3836.05,-84.2571 3453.37,-71.7401 2593.84,-43.6267 1549.89,-31.5051 1266.38,-28.5912"/>
<polygon fill="black" stroke="black" points="1266.26,-25.0899 1256.22,-28.4874 1266.19,-32.0895 1266.26,-25.0899"/>
<text text-anchor="middle" x="4439.37" y="-127.91" font-family="Times,serif" font-size="14.00"> static(visible_from)</text>
</g>
<!-- n24 -->
<g id="node24" class="node"><title>n24</title>
<ellipse fill="none" stroke="black" cx="3474.37" cy="-236.35" rx="67.7647" ry="26.7407"/>
<text text-anchor="middle" x="3474.37" y="-240.15" font-family="Times,serif" font-size="14.00">&lt;objective14&gt;</text>
<text text-anchor="middle" x="3474.37" y="-225.15" font-family="Times,serif" font-size="14.00">objective</text>
</g>
<!-- n24&#45;&gt;n16 -->
<g id="edge7" class="edge"><title>n24&#45;&gt;n16</title>
<path fill="none" stroke="black" d="M3539.93,-229.384C3584.36,-223.624 3643.63,-212.53 3692.37,-191.48 3697.65,-189.197 3719.08,-173.97 3738.84,-159.576"/>
<polygon fill="black" stroke="black" points="3741.15,-162.226 3747.15,-153.499 3737.01,-156.575 3741.15,-162.226"/>
<text text-anchor="middle" x="3807.37" y="-180.28" font-family="Times,serif" font-size="14.00"> end(communicated_image_data)</text>
</g>
<!-- n24&#45;&gt;n18 -->
<g id="edge26" class="edge"><title>n24&#45;&gt;n18</title>
<path fill="none" stroke="black" d="M3417.76,-221.434C3358.48,-207.492 3262.5,-186.679 3178.37,-176.48 2934.74,-146.949 2642.92,-137.01 2514.09,-133.907"/>
<polygon fill="black" stroke="black" points="2514.06,-130.406 2503.98,-133.67 2513.9,-137.404 2514.06,-130.406"/>
<text text-anchor="middle" x="3361.37" y="-180.28" font-family="Times,serif" font-size="14.00"> end(communicated_image_data)</text>
</g>
<!-- n24&#45;&gt;n19 -->
<g id="edge25" class="edge"><title>n24&#45;&gt;n19</title>
<path fill="none" stroke="black" d="M3474.71,-209.278C3476.2,-197.84 3479.89,-185.086 3488.37,-176.48 3511.21,-153.291 3539.37,-184.172 3559.37,-158.48 3574.03,-139.63 3574.96,-122.833 3559.37,-104.74 3494.53,-29.5095 3437.32,-80.1054 3338.37,-71.7401 2923.05,-36.6319 1594.98,-29.3828 1266.42,-28.1123"/>
<polygon fill="black" stroke="black" points="1266.08,-24.6111 1256.07,-28.073 1266.06,-31.6111 1266.08,-24.6111"/>
<text text-anchor="middle" x="3627.37" y="-127.91" font-family="Times,serif" font-size="14.00"> static(visible_from)</text>
</g>
<!-- n25&#45;&gt;n19 -->
<g id="edge21" class="edge"><title>n25&#45;&gt;n19</title>
<path fill="none" stroke="black" d="M1699.24,-233.954C1550.1,-229.394 1104.39,-213.936 1083.37,-191.48 1078.81,-186.613 1079.16,-181.65 1083.37,-176.48 1108.3,-145.862 1142.97,-186.914 1170.37,-158.48 1194.17,-133.778 1197.7,-93.5128 1196.5,-64.2114"/>
<polygon fill="black" stroke="black" points="1199.98,-63.7293 1195.88,-53.9613 1192.99,-64.156 1199.98,-63.7293"/>
<text text-anchor="middle" x="1214.87" y="-127.91" font-family="Times,serif" font-size="14.00"> init(at)</text>
</g>
<!-- n25&#45;&gt;n25 -->
<g id="edge4" class="edge"><title>n25&#45;&gt;n25</title>
<path fill="none" stroke="black" d="M1792.46,-246.015C1804.4,-245.462 1813.45,-242.241 1813.45,-236.35 1813.45,-232.3 1809.17,-229.512 1802.62,-227.986"/>
<polygon fill="black" stroke="black" points="1802.82,-224.483 1792.46,-226.686 1801.94,-231.427 1802.82,-224.483"/>
<text text-anchor="middle" x="1906.95" y="-247.65" font-family="Times,serif" font-size="14.00"> static(equipped_for_imaging)</text>
<text text-anchor="middle" x="1906.95" y="-232.65" font-family="Times,serif" font-size="14.00">init(available)</text>
<text text-anchor="middle" x="1906.95" y="-217.65" font-family="Times,serif" font-size="14.00">static(equipped_for_soil_analysis)</text>
</g>
</g>
</svg>
