<?xml version="1.0" encoding="UTF-8" standalone="no"?>
<!DOCTYPE svg PUBLIC "-//W3C//DTD SVG 1.1//EN"
 "http://www.w3.org/Graphics/SVG/1.1/DTD/svg11.dtd">
<!-- Generated by graphviz version 2.38.0 (20140413.2041)
 -->
<!-- Title: Struc Pages: 1 -->
<svg width="4449pt" height="376pt"
 viewBox="0.00 0.00 4448.93 375.96" xmlns="http://www.w3.org/2000/svg" xmlns:xlink="http://www.w3.org/1999/xlink">
<g id="graph0" class="graph" transform="scale(1 1) rotate(0) translate(4 371.96)">
<title>Struc</title>
<polygon fill="white" stroke="none" points="-4,4 -4,-371.96 4444.93,-371.96 4444.93,4 -4,4"/>
<!-- n1 -->
<g id="node1" class="node"><title>n1</title>
<ellipse fill="none" stroke="black" cx="232.933" cy="-341.09" rx="56.6372" ry="26.7407"/>
<text text-anchor="middle" x="232.933" y="-344.89" font-family="Times,serif" font-size="14.00">&lt;camera2&gt;</text>
<text text-anchor="middle" x="232.933" y="-329.89" font-family="Times,serif" font-size="14.00">camera</text>
</g>
<!-- n12 -->
<g id="node12" class="node"><title>n12</title>
<ellipse fill="none" stroke="black" cx="364.933" cy="-131.61" rx="53.9813" ry="26.7407"/>
<text text-anchor="middle" x="364.933" y="-135.41" font-family="Times,serif" font-size="14.00">&lt;low_res&gt;</text>
<text text-anchor="middle" x="364.933" y="-120.41" font-family="Times,serif" font-size="14.00">mode</text>
</g>
<!-- n1&#45;&gt;n12 -->
<g id="edge45" class="edge"><title>n1&#45;&gt;n12</title>
<path fill="none" stroke="black" d="M231.839,-314.198C231.873,-286.235 235.56,-241.41 255.933,-209.48 270.711,-186.318 295.205,-168.113 317.235,-155.246"/>
<polygon fill="black" stroke="black" points="319.16,-158.179 326.168,-150.233 315.734,-152.075 319.16,-158.179"/>
<text text-anchor="middle" x="299.933" y="-232.65" font-family="Times,serif" font-size="14.00"> static(supports)</text>
</g>
<!-- n15 -->
<g id="node15" class="node"><title>n15</title>
<ellipse fill="none" stroke="black" cx="1007.93" cy="-236.35" rx="62.8651" ry="26.7407"/>
<text text-anchor="middle" x="1007.93" y="-240.15" font-family="Times,serif" font-size="14.00">&lt;objective9&gt;</text>
<text text-anchor="middle" x="1007.93" y="-225.15" font-family="Times,serif" font-size="14.00">objective</text>
</g>
<!-- n1&#45;&gt;n15 -->
<g id="edge23" class="edge"><title>n1&#45;&gt;n15</title>
<path fill="none" stroke="black" d="M237.722,-314.222C241.388,-302.09 247.797,-288.688 258.933,-281.22 290.181,-260.264 898.955,-270.169 935.933,-263.22 942.015,-262.077 948.268,-260.493 954.429,-258.667"/>
<polygon fill="black" stroke="black" points="955.526,-261.991 963.996,-255.626 953.405,-255.32 955.526,-261.991"/>
<text text-anchor="middle" x="327.433" y="-285.02" font-family="Times,serif" font-size="14.00"> static(calibration_target)</text>
</g>
<!-- n25 -->
<g id="node25" class="node"><title>n25</title>
<ellipse fill="none" stroke="black" cx="1290.93" cy="-236.35" rx="48.1667" ry="26.7407"/>
<text text-anchor="middle" x="1290.93" y="-240.15" font-family="Times,serif" font-size="14.00">&lt;rover0&gt;</text>
<text text-anchor="middle" x="1290.93" y="-225.15" font-family="Times,serif" font-size="14.00">rover</text>
</g>
<!-- n1&#45;&gt;n25 -->
<g id="edge6" class="edge"><title>n1&#45;&gt;n25</title>
<path fill="none" stroke="black" d="M288.525,-336.084C495.512,-321.132 1210.84,-269.15 1233.93,-263.22 1238.31,-262.095 1242.78,-260.652 1247.18,-259.024"/>
<polygon fill="black" stroke="black" points="1248.69,-262.189 1256.67,-255.216 1246.08,-255.693 1248.69,-262.189"/>
<text text-anchor="middle" x="1052.43" y="-285.02" font-family="Times,serif" font-size="14.00"> static(on_board)</text>
</g>
<!-- n2 -->
<g id="node2" class="node"><title>n2</title>
<ellipse fill="none" stroke="black" cx="62.9325" cy="-236.35" rx="62.8651" ry="26.7407"/>
<text text-anchor="middle" x="62.9325" y="-240.15" font-family="Times,serif" font-size="14.00">&lt;objective1&gt;</text>
<text text-anchor="middle" x="62.9325" y="-225.15" font-family="Times,serif" font-size="14.00">objective</text>
</g>
<!-- n3 -->
<g id="node3" class="node"><title>n3</title>
<ellipse fill="none" stroke="black" cx="1569.93" cy="-26.8701" rx="63.7795" ry="26.7407"/>
<text text-anchor="middle" x="1569.93" y="-30.6701" font-family="Times,serif" font-size="14.00">&lt;waypoint1&gt;</text>
<text text-anchor="middle" x="1569.93" y="-15.6701" font-family="Times,serif" font-size="14.00">waypoint</text>
</g>
<!-- n2&#45;&gt;n3 -->
<g id="edge26" class="edge"><title>n2&#45;&gt;n3</title>
<path fill="none" stroke="black" d="M51.9164,-209.838C48.9272,-198.904 47.9521,-186.396 53.9325,-176.48 89.2257,-117.961 124.079,-123.003 189.933,-104.74 439.095,-35.6414 1246.76,-28.4055 1496,-27.845"/>
<polygon fill="black" stroke="black" points="1496.04,-31.345 1506.03,-27.8254 1496.03,-24.3451 1496.04,-31.345"/>
<text text-anchor="middle" x="245.933" y="-127.91" font-family="Times,serif" font-size="14.00"> static(visible_from)</text>
</g>
<!-- n2&#45;&gt;n12 -->
<g id="edge43" class="edge"><title>n2&#45;&gt;n12</title>
<path fill="none" stroke="black" d="M56.4419,-209.479C55.1774,-198.082 56.1678,-185.306 63.9325,-176.48 71.7677,-167.574 216.91,-149.556 302.737,-139.606"/>
<polygon fill="black" stroke="black" points="303.364,-143.057 312.897,-138.433 302.561,-136.103 303.364,-143.057"/>
<text text-anchor="middle" x="155.933" y="-180.28" font-family="Times,serif" font-size="14.00"> end(communicated_image_data)</text>
</g>
<!-- n19 -->
<g id="node19" class="node"><title>n19</title>
<ellipse fill="none" stroke="black" cx="1670.93" cy="-131.61" rx="63.7795" ry="26.7407"/>
<text text-anchor="middle" x="1670.93" y="-135.41" font-family="Times,serif" font-size="14.00">&lt;waypoint0&gt;</text>
<text text-anchor="middle" x="1670.93" y="-120.41" font-family="Times,serif" font-size="14.00">waypoint</text>
</g>
<!-- n2&#45;&gt;n19 -->
<g id="edge15" class="edge"><title>n2&#45;&gt;n19</title>
<path fill="none" stroke="black" d="M117.84,-223.087C185.607,-208.623 304.568,-185.418 407.933,-176.48 765.797,-145.536 857.013,-172.677 1215.93,-158.48 1351.05,-153.135 1508.56,-143.396 1598.33,-137.513"/>
<polygon fill="black" stroke="black" points="1598.66,-140.999 1608.41,-136.85 1598.2,-134.014 1598.66,-140.999"/>
<text text-anchor="middle" x="463.933" y="-180.28" font-family="Times,serif" font-size="14.00"> static(visible_from)</text>
</g>
<!-- n3&#45;&gt;n19 -->
<g id="edge12" class="edge"><title>n3&#45;&gt;n19</title>
<path fill="none" stroke="black" d="M1564.51,-53.7484C1563.61,-64.7496 1564.59,-77.2091 1570.93,-86.7401 1579.21,-99.179 1591.87,-108.117 1605.43,-114.531"/>
<polygon fill="black" stroke="black" points="1604.34,-117.873 1614.91,-118.579 1607.09,-111.435 1604.34,-117.873"/>
<text text-anchor="middle" x="1609.93" y="-75.5401" font-family="Times,serif" font-size="14.00"> static(visible)</text>
</g>
<!-- n4 -->
<g id="node4" class="node"><title>n4</title>
<ellipse fill="none" stroke="black" cx="3608.93" cy="-341.09" rx="56.6372" ry="26.7407"/>
<text text-anchor="middle" x="3608.93" y="-344.89" font-family="Times,serif" font-size="14.00">&lt;camera0&gt;</text>
<text text-anchor="middle" x="3608.93" y="-329.89" font-family="Times,serif" font-size="14.00">camera</text>
</g>
<!-- n5 -->
<g id="node5" class="node"><title>n5</title>
<ellipse fill="none" stroke="black" cx="4127.93" cy="-236.35" rx="62.8651" ry="26.7407"/>
<text text-anchor="middle" x="4127.93" y="-240.15" font-family="Times,serif" font-size="14.00">&lt;objective5&gt;</text>
<text text-anchor="middle" x="4127.93" y="-225.15" font-family="Times,serif" font-size="14.00">objective</text>
</g>
<!-- n4&#45;&gt;n5 -->
<g id="edge21" class="edge"><title>n4&#45;&gt;n5</title>
<path fill="none" stroke="black" d="M3663.24,-333.353C3747.18,-322.335 3913.14,-298.134 4050.93,-263.22 4057.55,-261.545 4064.41,-259.579 4071.19,-257.492"/>
<polygon fill="black" stroke="black" points="4072.56,-260.729 4081.03,-254.367 4070.44,-254.057 4072.56,-260.729"/>
<text text-anchor="middle" x="4035.43" y="-285.02" font-family="Times,serif" font-size="14.00"> static(calibration_target)</text>
</g>
<!-- n18 -->
<g id="node18" class="node"><title>n18</title>
<ellipse fill="none" stroke="black" cx="3159.93" cy="-131.61" rx="56.6372" ry="26.7407"/>
<text text-anchor="middle" x="3159.93" y="-135.41" font-family="Times,serif" font-size="14.00">&lt;high_res&gt;</text>
<text text-anchor="middle" x="3159.93" y="-120.41" font-family="Times,serif" font-size="14.00">mode</text>
</g>
<!-- n4&#45;&gt;n18 -->
<g id="edge37" class="edge"><title>n4&#45;&gt;n18</title>
<path fill="none" stroke="black" d="M3598.39,-314.685C3584.36,-281.641 3559.61,-226.164 3544.93,-209.48 3527.35,-189.489 3519.88,-185.78 3494.93,-176.48 3406.19,-143.402 3296.13,-134.598 3226.94,-132.606"/>
<polygon fill="black" stroke="black" points="3226.7,-129.1 3216.62,-132.351 3226.53,-136.097 3226.7,-129.1"/>
<text text-anchor="middle" x="3617.93" y="-232.65" font-family="Times,serif" font-size="14.00"> static(supports)</text>
</g>
<!-- n4&#45;&gt;n25 -->
<g id="edge25" class="edge"><title>n4&#45;&gt;n25</title>
<path fill="none" stroke="black" d="M3554.43,-333.825C3503.43,-328.122 3425.1,-319.769 3356.93,-314.22 3113.74,-294.424 3052.76,-290.304 2808.93,-281.22 2251.04,-260.436 2110.33,-294.677 1552.93,-263.22 1482.13,-259.224 1400.91,-250.569 1347.91,-244.37"/>
<polygon fill="black" stroke="black" points="1348.04,-240.861 1337.7,-243.166 1347.22,-247.813 1348.04,-240.861"/>
<text text-anchor="middle" x="3166.43" y="-285.02" font-family="Times,serif" font-size="14.00"> static(on_board)</text>
</g>
<!-- n5&#45;&gt;n3 -->
<g id="edge22" class="edge"><title>n5&#45;&gt;n3</title>
<path fill="none" stroke="black" d="M4189.96,-231.234C4246.46,-226.039 4323.9,-214.791 4342.93,-191.48 4347.15,-186.316 4346.53,-182.093 4342.93,-176.48 4301.76,-112.227 4261.23,-122.153 4186.93,-104.74 3933.81,-45.4209 2042.98,-30.733 1643.8,-28.2804"/>
<polygon fill="black" stroke="black" points="1643.55,-24.779 1633.53,-28.218 1643.51,-31.7789 1643.55,-24.779"/>
<text text-anchor="middle" x="4384.93" y="-127.91" font-family="Times,serif" font-size="14.00"> static(visible_from)</text>
</g>
<!-- n16 -->
<g id="node16" class="node"><title>n16</title>
<ellipse fill="none" stroke="black" cx="4129.93" cy="-131.61" rx="48.1667" ry="26.7407"/>
<text text-anchor="middle" x="4129.93" y="-135.41" font-family="Times,serif" font-size="14.00">&lt;colour&gt;</text>
<text text-anchor="middle" x="4129.93" y="-120.41" font-family="Times,serif" font-size="14.00">mode</text>
</g>
<!-- n5&#45;&gt;n16 -->
<g id="edge14" class="edge"><title>n5&#45;&gt;n16</title>
<path fill="none" stroke="black" d="M4145.78,-210.409C4149.14,-204.472 4152.15,-197.97 4153.93,-191.48 4156.24,-183.064 4154.83,-174.232 4151.78,-166.042"/>
<polygon fill="black" stroke="black" points="4154.9,-164.443 4147.58,-156.788 4148.53,-167.34 4154.9,-164.443"/>
<text text-anchor="middle" x="4246.93" y="-180.28" font-family="Times,serif" font-size="14.00"> end(communicated_image_data)</text>
</g>
<!-- n5&#45;&gt;n18 -->
<g id="edge41" class="edge"><title>n5&#45;&gt;n18</title>
<path fill="none" stroke="black" d="M4080.55,-218.476C4070.82,-215.28 4060.59,-212.116 4050.93,-209.48 4013.68,-199.314 4003.69,-199.582 3965.93,-191.48 3935.25,-184.896 3928.05,-180.58 3896.93,-176.48 3731.5,-154.682 3688.49,-168.428 3521.93,-158.48 3418.37,-152.295 3298.28,-143.365 3225.76,-137.779"/>
<polygon fill="black" stroke="black" points="3225.65,-134.26 3215.41,-136.98 3225.11,-141.239 3225.65,-134.26"/>
<text text-anchor="middle" x="4057.93" y="-180.28" font-family="Times,serif" font-size="14.00"> end(communicated_image_data)</text>
</g>
<!-- n5&#45;&gt;n19 -->
<g id="edge40" class="edge"><title>n5&#45;&gt;n19</title>
<path fill="none" stroke="black" d="M4082.04,-217.787C4071.92,-214.522 4061.17,-211.506 4050.93,-209.48 3991.94,-197.808 3837.05,-213.081 3780.93,-191.48 3770.89,-187.615 3772.06,-180.115 3761.93,-176.48 3749.81,-172.128 2114.21,-140.984 1744.59,-133.998"/>
<polygon fill="black" stroke="black" points="1744.6,-130.498 1734.54,-133.809 1744.47,-137.497 1744.6,-130.498"/>
<text text-anchor="middle" x="3836.93" y="-180.28" font-family="Times,serif" font-size="14.00"> static(visible_from)</text>
</g>
<!-- n6 -->
<g id="node6" class="node"><title>n6</title>
<ellipse fill="none" stroke="black" cx="2433.93" cy="-236.35" rx="62.8651" ry="26.7407"/>
<text text-anchor="middle" x="2433.93" y="-240.15" font-family="Times,serif" font-size="14.00">&lt;objective0&gt;</text>
<text text-anchor="middle" x="2433.93" y="-225.15" font-family="Times,serif" font-size="14.00">objective</text>
</g>
<!-- n6&#45;&gt;n18 -->
<g id="edge10" class="edge"><title>n6&#45;&gt;n18</title>
<path fill="none" stroke="black" d="M2445.82,-209.955C2453,-197.629 2463.4,-183.911 2476.93,-176.48 2530.03,-147.334 2931.82,-136.786 3093.17,-133.7"/>
<polygon fill="black" stroke="black" points="3093.51,-137.194 3103.45,-133.508 3093.38,-130.196 3093.51,-137.194"/>
<text text-anchor="middle" x="2568.93" y="-180.28" font-family="Times,serif" font-size="14.00"> end(communicated_image_data)</text>
</g>
<!-- n6&#45;&gt;n19 -->
<g id="edge9" class="edge"><title>n6&#45;&gt;n19</title>
<path fill="none" stroke="black" d="M2376.23,-225.228C2346.85,-220.214 2310.53,-214.233 2277.93,-209.48 2214.55,-200.239 2195.07,-213.539 2134.93,-191.48 2123.47,-187.278 2123.44,-180.533 2111.93,-176.48 2046.02,-153.274 1851.63,-140.913 1744.26,-135.69"/>
<polygon fill="black" stroke="black" points="1744.3,-132.188 1734.15,-135.207 1743.97,-139.18 1744.3,-132.188"/>
<text text-anchor="middle" x="2190.93" y="-180.28" font-family="Times,serif" font-size="14.00"> static(visible_from)</text>
</g>
<!-- n7 -->
<g id="node7" class="node"><title>n7</title>
<ellipse fill="none" stroke="black" cx="1406.93" cy="-341.09" rx="67.3507" ry="26.7407"/>
<text text-anchor="middle" x="1406.93" y="-344.89" font-family="Times,serif" font-size="14.00">&lt;rover0store&gt;</text>
<text text-anchor="middle" x="1406.93" y="-329.89" font-family="Times,serif" font-size="14.00">store</text>
</g>
<!-- n7&#45;&gt;n7 -->
<g id="edge1" class="edge"><title>n7&#45;&gt;n7</title>
<path fill="none" stroke="black" d="M1470.08,-350.468C1482.92,-349.447 1492.11,-346.321 1492.11,-341.09 1492.11,-337.413 1487.56,-334.775 1480.4,-333.179"/>
<polygon fill="black" stroke="black" points="1480.47,-329.653 1470.08,-331.712 1479.49,-336.584 1480.47,-329.653"/>
<text text-anchor="middle" x="1525.11" y="-337.39" font-family="Times,serif" font-size="14.00"> init(empty)</text>
</g>
<!-- n7&#45;&gt;n25 -->
<g id="edge34" class="edge"><title>n7&#45;&gt;n25</title>
<path fill="none" stroke="black" d="M1397.53,-314.405C1392.45,-303.182 1385.28,-290.493 1375.93,-281.22 1365.69,-271.057 1352.6,-262.739 1339.78,-256.184"/>
<polygon fill="black" stroke="black" points="1341.07,-252.918 1330.54,-251.721 1338.03,-259.222 1341.07,-252.918"/>
<text text-anchor="middle" x="1430.93" y="-285.02" font-family="Times,serif" font-size="14.00"> static(store_of)</text>
</g>
<!-- n8 -->
<g id="node8" class="node"><title>n8</title>
<ellipse fill="none" stroke="black" cx="707.933" cy="-236.35" rx="62.8651" ry="26.7407"/>
<text text-anchor="middle" x="707.933" y="-240.15" font-family="Times,serif" font-size="14.00">&lt;objective3&gt;</text>
<text text-anchor="middle" x="707.933" y="-225.15" font-family="Times,serif" font-size="14.00">objective</text>
</g>
<!-- n8&#45;&gt;n12 -->
<g id="edge33" class="edge"><title>n8&#45;&gt;n12</title>
<path fill="none" stroke="black" d="M654.78,-221.745C611.851,-210.609 556.976,-195.989 546.933,-191.48 535.799,-186.482 535.058,-181.496 523.933,-176.48 492.387,-162.258 455.195,-151.688 424.716,-144.49"/>
<polygon fill="black" stroke="black" points="425.185,-141.007 414.655,-142.179 423.617,-147.829 425.185,-141.007"/>
<text text-anchor="middle" x="638.933" y="-180.28" font-family="Times,serif" font-size="14.00"> end(communicated_image_data)</text>
</g>
<!-- n8&#45;&gt;n19 -->
<g id="edge49" class="edge"><title>n8&#45;&gt;n19</title>
<path fill="none" stroke="black" d="M755.96,-218.939C767.627,-215.404 780.14,-211.982 791.933,-209.48 857.615,-195.543 875.791,-203.046 941.933,-191.48 971.138,-186.373 977.601,-180.805 1006.93,-176.48 1064.07,-168.055 1437.15,-146.021 1597.68,-136.782"/>
<polygon fill="black" stroke="black" points="1598.16,-140.261 1607.94,-136.192 1597.76,-133.272 1598.16,-140.261"/>
<text text-anchor="middle" x="1062.93" y="-180.28" font-family="Times,serif" font-size="14.00"> static(visible_from)</text>
</g>
<!-- n9 -->
<g id="node9" class="node"><title>n9</title>
<ellipse fill="none" stroke="black" cx="863.933" cy="-236.35" rx="62.8651" ry="26.7407"/>
<text text-anchor="middle" x="863.933" y="-240.15" font-family="Times,serif" font-size="14.00">&lt;objective4&gt;</text>
<text text-anchor="middle" x="863.933" y="-225.15" font-family="Times,serif" font-size="14.00">objective</text>
</g>
<!-- n9&#45;&gt;n3 -->
<g id="edge27" class="edge"><title>n9&#45;&gt;n3</title>
<path fill="none" stroke="black" d="M908.54,-217.278C919.73,-210.727 930.619,-202.22 937.933,-191.48 959.912,-159.203 923.824,-131.847 951.933,-104.74 990.589,-67.4607 1341.49,-41.7446 1496.68,-32.0982"/>
<polygon fill="black" stroke="black" points="1497.3,-35.5671 1507.06,-31.4588 1496.87,-28.5803 1497.3,-35.5671"/>
<text text-anchor="middle" x="1007.93" y="-127.91" font-family="Times,serif" font-size="14.00"> static(visible_from)</text>
</g>
<!-- n9&#45;&gt;n12 -->
<g id="edge42" class="edge"><title>n9&#45;&gt;n12</title>
<path fill="none" stroke="black" d="M816.181,-218.675C796.508,-211.201 773.733,-201.756 753.933,-191.48 743.1,-185.859 742.402,-180.649 730.933,-176.48 676.782,-156.8 517.74,-143.101 428.148,-136.706"/>
<polygon fill="black" stroke="black" points="428.331,-133.21 418.109,-135.999 427.839,-140.193 428.331,-133.21"/>
<text text-anchor="middle" x="845.933" y="-180.28" font-family="Times,serif" font-size="14.00"> end(communicated_image_data)</text>
</g>
<!-- n9&#45;&gt;n19 -->
<g id="edge11" class="edge"><title>n9&#45;&gt;n19</title>
<path fill="none" stroke="black" d="M908.745,-217.313C917.637,-214.287 926.989,-211.484 935.933,-209.48 1017.41,-191.222 1045.46,-222.615 1122.93,-191.48 1132.92,-187.468 1131.92,-180.426 1141.93,-176.48 1222.72,-144.634 1471.23,-135.901 1596.75,-133.51"/>
<polygon fill="black" stroke="black" points="1597.11,-137.004 1607.04,-133.323 1596.98,-130.005 1597.11,-137.004"/>
<text text-anchor="middle" x="1197.93" y="-180.28" font-family="Times,serif" font-size="14.00"> static(visible_from)</text>
</g>
<!-- n10 -->
<g id="node10" class="node"><title>n10</title>
<ellipse fill="none" stroke="black" cx="2995.93" cy="-236.35" rx="62.8651" ry="26.7407"/>
<text text-anchor="middle" x="2995.93" y="-240.15" font-family="Times,serif" font-size="14.00">&lt;objective7&gt;</text>
<text text-anchor="middle" x="2995.93" y="-225.15" font-family="Times,serif" font-size="14.00">objective</text>
</g>
<!-- n10&#45;&gt;n18 -->
<g id="edge50" class="edge"><title>n10&#45;&gt;n18</title>
<path fill="none" stroke="black" d="M3056.64,-228.919C3084.43,-223.143 3115.98,-212.199 3137.93,-191.48 3144.56,-185.223 3149.21,-176.78 3152.46,-168.243"/>
<polygon fill="black" stroke="black" points="3155.81,-169.269 3155.57,-158.677 3149.15,-167.106 3155.81,-169.269"/>
<text text-anchor="middle" x="3240.93" y="-180.28" font-family="Times,serif" font-size="14.00"> end(communicated_image_data)</text>
</g>
<!-- n10&#45;&gt;n19 -->
<g id="edge52" class="edge"><title>n10&#45;&gt;n19</title>
<path fill="none" stroke="black" d="M2936.27,-227.52C2899.87,-221.157 2853.16,-210.091 2814.93,-191.48 2805.26,-186.771 2806.03,-180.206 2795.93,-176.48 2697.97,-140.317 1979.63,-133.959 1744.91,-132.846"/>
<polygon fill="black" stroke="black" points="1744.78,-129.345 1734.77,-132.799 1744.75,-136.345 1744.78,-129.345"/>
<text text-anchor="middle" x="2870.93" y="-180.28" font-family="Times,serif" font-size="14.00"> static(visible_from)</text>
</g>
<!-- n11 -->
<g id="node11" class="node"><title>n11</title>
<ellipse fill="none" stroke="black" cx="3735.93" cy="-236.35" rx="62.8651" ry="26.7407"/>
<text text-anchor="middle" x="3735.93" y="-240.15" font-family="Times,serif" font-size="14.00">&lt;objective8&gt;</text>
<text text-anchor="middle" x="3735.93" y="-225.15" font-family="Times,serif" font-size="14.00">objective</text>
</g>
<!-- n11&#45;&gt;n3 -->
<g id="edge18" class="edge"><title>n11&#45;&gt;n3</title>
<path fill="none" stroke="black" d="M3690.73,-217.384C3682.56,-214.496 3674.05,-211.724 3665.93,-209.48 3624.09,-197.915 3611.99,-202.232 3569.93,-191.48 3549.1,-186.154 3544.62,-182.335 3523.93,-176.48 3392.85,-139.392 3360.8,-123.927 3225.93,-104.74 2913.69,-60.3189 1922.33,-35.6163 1643.52,-29.4274"/>
<polygon fill="black" stroke="black" points="1643.59,-25.9281 1633.51,-29.2064 1643.43,-32.9264 1643.59,-25.9281"/>
<text text-anchor="middle" x="3513.93" y="-127.91" font-family="Times,serif" font-size="14.00"> static(visible_from)</text>
</g>
<!-- n11&#45;&gt;n16 -->
<g id="edge46" class="edge"><title>n11&#45;&gt;n16</title>
<path fill="none" stroke="black" d="M3688.53,-218.551C3678.8,-215.35 3668.58,-212.164 3658.93,-209.48 3623.4,-199.594 3601.01,-220.247 3577.93,-191.48 3573.76,-186.28 3573.41,-181.377 3577.93,-176.48 3594.52,-158.524 3933.25,-141.406 4071.72,-135.13"/>
<polygon fill="black" stroke="black" points="4071.9,-138.626 4081.73,-134.68 4071.58,-131.633 4071.9,-138.626"/>
<text text-anchor="middle" x="3669.93" y="-180.28" font-family="Times,serif" font-size="14.00"> end(communicated_image_data)</text>
</g>
<!-- n11&#45;&gt;n19 -->
<g id="edge24" class="edge"><title>n11&#45;&gt;n19</title>
<path fill="none" stroke="black" d="M3690.02,-217.849C3679.91,-214.58 3669.16,-211.547 3658.93,-209.48 3553.65,-188.211 3524.45,-205.28 3417.93,-191.48 3381.62,-186.777 3373.34,-180.307 3336.93,-176.48 3021.61,-143.338 2025.11,-134.789 1744.89,-133.015"/>
<polygon fill="black" stroke="black" points="1744.85,-129.515 1734.83,-132.952 1744.81,-136.515 1744.85,-129.515"/>
<text text-anchor="middle" x="3473.93" y="-180.28" font-family="Times,serif" font-size="14.00"> static(visible_from)</text>
</g>
<!-- n13 -->
<g id="node13" class="node"><title>n13</title>
<ellipse fill="none" stroke="black" cx="1197.93" cy="-341.09" rx="56.6372" ry="26.7407"/>
<text text-anchor="middle" x="1197.93" y="-344.89" font-family="Times,serif" font-size="14.00">&lt;camera3&gt;</text>
<text text-anchor="middle" x="1197.93" y="-329.89" font-family="Times,serif" font-size="14.00">camera</text>
</g>
<!-- n13&#45;&gt;n12 -->
<g id="edge19" class="edge"><title>n13&#45;&gt;n12</title>
<path fill="none" stroke="black" d="M1141.62,-337.735C970.529,-330.152 464.767,-304.445 403.933,-263.22 373.835,-242.825 365.817,-199.869 364.216,-168.777"/>
<polygon fill="black" stroke="black" points="367.713,-168.621 363.897,-158.738 360.716,-168.844 367.713,-168.621"/>
<text text-anchor="middle" x="447.933" y="-232.65" font-family="Times,serif" font-size="14.00"> static(supports)</text>
</g>
<!-- n13&#45;&gt;n16 -->
<g id="edge16" class="edge"><title>n13&#45;&gt;n16</title>
<path fill="none" stroke="black" d="M1247.83,-328.279C1272.66,-322.942 1303.22,-317.179 1330.93,-314.22 1348.04,-312.394 3793.38,-272.402 3807.93,-263.22 3830.54,-248.956 3812.66,-224.263 3834.93,-209.48 3884.85,-176.346 4054.86,-225.844 4103.93,-191.48 4112.02,-185.82 4117.62,-177.059 4121.49,-168.009"/>
<polygon fill="black" stroke="black" points="4124.78,-169.186 4124.92,-158.592 4118.21,-166.787 4124.78,-169.186"/>
<text text-anchor="middle" x="3878.93" y="-232.65" font-family="Times,serif" font-size="14.00"> static(supports)</text>
</g>
<!-- n20 -->
<g id="node20" class="node"><title>n20</title>
<ellipse fill="none" stroke="black" cx="1156.93" cy="-236.35" rx="67.7647" ry="26.7407"/>
<text text-anchor="middle" x="1156.93" y="-240.15" font-family="Times,serif" font-size="14.00">&lt;objective10&gt;</text>
<text text-anchor="middle" x="1156.93" y="-225.15" font-family="Times,serif" font-size="14.00">objective</text>
</g>
<!-- n13&#45;&gt;n20 -->
<g id="edge51" class="edge"><title>n13&#45;&gt;n20</title>
<path fill="none" stroke="black" d="M1157.36,-321.995C1147.24,-315.41 1137.65,-306.891 1131.93,-296.22 1127.7,-288.328 1128.62,-279.565 1131.86,-271.265"/>
<polygon fill="black" stroke="black" points="1135.06,-272.676 1136.35,-262.16 1128.79,-269.577 1135.06,-272.676"/>
<text text-anchor="middle" x="1200.43" y="-285.02" font-family="Times,serif" font-size="14.00"> static(calibration_target)</text>
</g>
<!-- n13&#45;&gt;n25 -->
<g id="edge8" class="edge"><title>n13&#45;&gt;n25</title>
<path fill="none" stroke="black" d="M1237.6,-321.83C1248.92,-315.086 1260.47,-306.523 1268.93,-296.22 1274.51,-289.432 1278.75,-281.092 1281.95,-272.847"/>
<polygon fill="black" stroke="black" points="1285.29,-273.906 1285.24,-263.311 1278.67,-271.621 1285.29,-273.906"/>
<text text-anchor="middle" x="1325.43" y="-285.02" font-family="Times,serif" font-size="14.00"> static(on_board)</text>
</g>
<!-- n14 -->
<g id="node14" class="node"><title>n14</title>
<ellipse fill="none" stroke="black" cx="2205.93" cy="-236.35" rx="62.8651" ry="26.7407"/>
<text text-anchor="middle" x="2205.93" y="-240.15" font-family="Times,serif" font-size="14.00">&lt;objective6&gt;</text>
<text text-anchor="middle" x="2205.93" y="-225.15" font-family="Times,serif" font-size="14.00">objective</text>
</g>
<!-- n14&#45;&gt;n19 -->
<g id="edge36" class="edge"><title>n14&#45;&gt;n19</title>
<path fill="none" stroke="black" d="M2151.5,-222.649C2132.66,-218.345 2111.39,-213.591 2091.93,-209.48 2051.17,-200.869 2038.54,-207.149 1999.93,-191.48 1988.62,-186.891 1988.35,-180.781 1976.93,-176.48 1901.05,-147.904 1808.15,-137.778 1744.75,-134.277"/>
<polygon fill="black" stroke="black" points="1744.61,-130.765 1734.45,-133.752 1744.25,-137.756 1744.61,-130.765"/>
<text text-anchor="middle" x="2055.93" y="-180.28" font-family="Times,serif" font-size="14.00"> static(visible_from)</text>
</g>
<!-- n15&#45;&gt;n19 -->
<g id="edge30" class="edge"><title>n15&#45;&gt;n19</title>
<path fill="none" stroke="black" d="M1052.75,-217.348C1061.64,-214.319 1070.99,-211.506 1079.93,-209.48 1157.48,-191.906 1184.22,-221.308 1257.93,-191.48 1267.91,-187.444 1266.98,-180.567 1276.93,-176.48 1333.27,-153.348 1500.03,-141.232 1597.6,-135.957"/>
<polygon fill="black" stroke="black" points="1597.89,-139.447 1607.69,-135.422 1597.52,-132.456 1597.89,-139.447"/>
<text text-anchor="middle" x="1332.93" y="-180.28" font-family="Times,serif" font-size="14.00"> static(visible_from)</text>
</g>
<!-- n17 -->
<g id="node17" class="node"><title>n17</title>
<ellipse fill="none" stroke="black" cx="1613.93" cy="-236.35" rx="51.7379" ry="26.7407"/>
<text text-anchor="middle" x="1613.93" y="-240.15" font-family="Times,serif" font-size="14.00">&lt;general&gt;</text>
<text text-anchor="middle" x="1613.93" y="-225.15" font-family="Times,serif" font-size="14.00">lander</text>
</g>
<!-- n17&#45;&gt;n17 -->
<g id="edge2" class="edge"><title>n17&#45;&gt;n17</title>
<path fill="none" stroke="black" d="M1662.41,-245.966C1674.51,-245.294 1683.55,-242.089 1683.55,-236.35 1683.55,-232.405 1679.28,-229.657 1672.67,-228.107"/>
<polygon fill="black" stroke="black" points="1672.79,-224.59 1662.41,-226.734 1671.86,-231.529 1672.79,-224.59"/>
<text text-anchor="middle" x="1734.05" y="-232.65" font-family="Times,serif" font-size="14.00"> init(channel_free)</text>
</g>
<!-- n17&#45;&gt;n19 -->
<g id="edge47" class="edge"><title>n17&#45;&gt;n19</title>
<path fill="none" stroke="black" d="M1609.65,-209.571C1609.04,-198.832 1609.92,-186.547 1614.93,-176.48 1617.82,-170.675 1621.88,-165.406 1626.51,-160.697"/>
<polygon fill="black" stroke="black" points="1629.1,-163.07 1634.16,-153.762 1624.4,-157.883 1629.1,-163.07"/>
<text text-anchor="middle" x="1660.93" y="-180.28" font-family="Times,serif" font-size="14.00"> static(at_lander)</text>
</g>
<!-- n19&#45;&gt;n3 -->
<g id="edge35" class="edge"><title>n19&#45;&gt;n3</title>
<path fill="none" stroke="black" d="M1665.54,-104.771C1662.21,-93.6493 1656.98,-81.0841 1648.93,-71.7401 1642.03,-63.7212 1633.28,-56.8825 1624.14,-51.1588"/>
<polygon fill="black" stroke="black" points="1625.7,-48.0189 1615.3,-46.0107 1622.18,-54.0678 1625.7,-48.0189"/>
<text text-anchor="middle" x="1697.93" y="-75.5401" font-family="Times,serif" font-size="14.00"> static(visible)</text>
</g>
<!-- n19&#45;&gt;n19 -->
<g id="edge3" class="edge"><title>n19&#45;&gt;n19</title>
<path fill="none" stroke="black" d="M1730.74,-141.045C1743.42,-140.087 1752.57,-136.942 1752.57,-131.61 1752.57,-127.861 1748.05,-125.193 1740.95,-123.607"/>
<polygon fill="black" stroke="black" points="1741.13,-120.097 1730.74,-122.175 1740.15,-127.029 1741.13,-120.097"/>
<text text-anchor="middle" x="1837.07" y="-135.41" font-family="Times,serif" font-size="14.00"> end(communicated_soil_data)</text>
<text text-anchor="middle" x="1837.07" y="-120.41" font-family="Times,serif" font-size="14.00">init(at_soil_sample)</text>
</g>
<!-- n20&#45;&gt;n3 -->
<g id="edge13" class="edge"><title>n20&#45;&gt;n3</title>
<path fill="none" stroke="black" d="M1107.5,-217.734C1098.4,-214.776 1088.92,-211.89 1079.93,-209.48 1040.95,-199.034 1016.48,-222.717 990.933,-191.48 986.711,-186.32 986.79,-181.703 990.933,-176.48 1012.77,-148.946 1033.81,-166.906 1067.93,-158.48 1226.68,-119.28 1412.78,-69.9814 1507.57,-44.6296"/>
<polygon fill="black" stroke="black" points="1508.53,-47.9959 1517.28,-42.0296 1506.72,-41.2339 1508.53,-47.9959"/>
<text text-anchor="middle" x="1331.93" y="-127.91" font-family="Times,serif" font-size="14.00"> static(visible_from)</text>
</g>
<!-- n20&#45;&gt;n18 -->
<g id="edge39" class="edge"><title>n20&#45;&gt;n18</title>
<path fill="none" stroke="black" d="M1204.4,-216.885C1214.04,-213.855 1224.2,-211.16 1233.93,-209.48 1344.86,-190.33 2138.45,-221.564 2246.93,-191.48 2259.79,-187.915 2260.13,-180.248 2272.93,-176.48 2350.77,-153.563 2900.33,-138.672 3093.21,-134.103"/>
<polygon fill="black" stroke="black" points="3093.58,-137.596 3103.49,-133.861 3093.41,-130.597 3093.58,-137.596"/>
<text text-anchor="middle" x="2364.93" y="-180.28" font-family="Times,serif" font-size="14.00"> end(communicated_image_data)</text>
</g>
<!-- n20&#45;&gt;n19 -->
<g id="edge44" class="edge"><title>n20&#45;&gt;n19</title>
<path fill="none" stroke="black" d="M1205.37,-217.349C1214.75,-214.358 1224.57,-211.558 1233.93,-209.48 1303.36,-194.069 1327.17,-218.552 1392.93,-191.48 1402.88,-187.385 1402.1,-180.848 1411.93,-176.48 1470.96,-150.259 1543.94,-139.624 1597.38,-135.354"/>
<polygon fill="black" stroke="black" points="1597.74,-138.837 1607.45,-134.606 1597.22,-131.856 1597.74,-138.837"/>
<text text-anchor="middle" x="1467.93" y="-180.28" font-family="Times,serif" font-size="14.00"> static(visible_from)</text>
</g>
<!-- n21 -->
<g id="node21" class="node"><title>n21</title>
<ellipse fill="none" stroke="black" cx="1870.93" cy="-236.35" rx="67.7647" ry="26.7407"/>
<text text-anchor="middle" x="1870.93" y="-240.15" font-family="Times,serif" font-size="14.00">&lt;objective11&gt;</text>
<text text-anchor="middle" x="1870.93" y="-225.15" font-family="Times,serif" font-size="14.00">objective</text>
</g>
<!-- n21&#45;&gt;n19 -->
<g id="edge29" class="edge"><title>n21&#45;&gt;n19</title>
<path fill="none" stroke="black" d="M1820.93,-218.148C1811.97,-215.179 1802.69,-212.182 1793.93,-209.48 1765.7,-200.772 1755.44,-206.398 1729.93,-191.48 1717.99,-184.494 1706.74,-174.513 1697.32,-164.75"/>
<polygon fill="black" stroke="black" points="1699.86,-162.342 1690.5,-157.379 1694.73,-167.096 1699.86,-162.342"/>
<text text-anchor="middle" x="1785.93" y="-180.28" font-family="Times,serif" font-size="14.00"> static(visible_from)</text>
</g>
<!-- n22 -->
<g id="node22" class="node"><title>n22</title>
<ellipse fill="none" stroke="black" cx="3290.93" cy="-341.09" rx="56.6372" ry="26.7407"/>
<text text-anchor="middle" x="3290.93" y="-344.89" font-family="Times,serif" font-size="14.00">&lt;camera1&gt;</text>
<text text-anchor="middle" x="3290.93" y="-329.89" font-family="Times,serif" font-size="14.00">camera</text>
</g>
<!-- n22&#45;&gt;n12 -->
<g id="edge5" class="edge"><title>n22&#45;&gt;n12</title>
<path fill="none" stroke="black" d="M3234.04,-339.706C2984.72,-337.86 1963.66,-328.611 1125.93,-296.22 997.375,-291.25 665.876,-314.611 547.933,-263.22 516.309,-249.441 522.665,-225.147 491.933,-209.48 451.7,-188.97 427.623,-219.148 391.933,-191.48 384.232,-185.51 378.651,-176.837 374.637,-167.974"/>
<polygon fill="black" stroke="black" points="377.788,-166.425 370.87,-158.401 371.275,-168.988 377.788,-166.425"/>
<text text-anchor="middle" x="591.933" y="-232.65" font-family="Times,serif" font-size="14.00"> static(supports)</text>
</g>
<!-- n22&#45;&gt;n14 -->
<g id="edge7" class="edge"><title>n22&#45;&gt;n14</title>
<path fill="none" stroke="black" d="M3234.74,-337.047C3089.81,-328.85 2691.57,-304.122 2361.93,-263.22 2332.57,-259.577 2300.29,-254.417 2272.74,-249.663"/>
<polygon fill="black" stroke="black" points="2273.27,-246.203 2262.82,-247.933 2272.07,-253.099 2273.27,-246.203"/>
<text text-anchor="middle" x="2736.43" y="-285.02" font-family="Times,serif" font-size="14.00"> static(calibration_target)</text>
</g>
<!-- n22&#45;&gt;n16 -->
<g id="edge17" class="edge"><title>n22&#45;&gt;n16</title>
<path fill="none" stroke="black" d="M3333.77,-323.386C3371.98,-309.338 3429.78,-290.157 3481.93,-281.22 3530.71,-272.863 3883.03,-286.06 3926.93,-263.22 3953.58,-249.354 3941.79,-224.282 3967.93,-209.48 3999.26,-191.742 4104.71,-218.109 4128.93,-191.48 4134.61,-185.245 4136.73,-176.918 4137,-168.493"/>
<polygon fill="black" stroke="black" points="4140.48,-168.129 4136.52,-158.303 4133.49,-168.455 4140.48,-168.129"/>
<text text-anchor="middle" x="4011.93" y="-232.65" font-family="Times,serif" font-size="14.00"> static(supports)</text>
</g>
<!-- n22&#45;&gt;n18 -->
<g id="edge38" class="edge"><title>n22&#45;&gt;n18</title>
<path fill="none" stroke="black" d="M3319.41,-317.65C3352.46,-291.612 3408.61,-247.399 3456.93,-209.48 3471,-198.444 3491.68,-189.953 3479.93,-176.48 3447.78,-139.616 3310.82,-132.623 3226.84,-131.908"/>
<polygon fill="black" stroke="black" points="3226.64,-128.407 3216.62,-131.849 3226.6,-135.407 3226.64,-128.407"/>
<text text-anchor="middle" x="3500.93" y="-232.65" font-family="Times,serif" font-size="14.00"> static(supports)</text>
</g>
<!-- n22&#45;&gt;n25 -->
<g id="edge20" class="edge"><title>n22&#45;&gt;n25</title>
<path fill="none" stroke="black" d="M3234.23,-338.7C3016.48,-333.125 2213.08,-310.376 1552.93,-263.22 1482.19,-258.167 1400.96,-249.737 1347.94,-243.878"/>
<polygon fill="black" stroke="black" points="1348.05,-240.369 1337.72,-242.743 1347.27,-247.326 1348.05,-240.369"/>
<text text-anchor="middle" x="2125.43" y="-285.02" font-family="Times,serif" font-size="14.00"> static(on_board)</text>
</g>
<!-- n23 -->
<g id="node23" class="node"><title>n23</title>
<ellipse fill="none" stroke="black" cx="2019.93" cy="-236.35" rx="62.8651" ry="26.7407"/>
<text text-anchor="middle" x="2019.93" y="-240.15" font-family="Times,serif" font-size="14.00">&lt;objective2&gt;</text>
<text text-anchor="middle" x="2019.93" y="-225.15" font-family="Times,serif" font-size="14.00">objective</text>
</g>
<!-- n23&#45;&gt;n19 -->
<g id="edge48" class="edge"><title>n23&#45;&gt;n19</title>
<path fill="none" stroke="black" d="M1974.13,-217.88C1965.5,-214.874 1956.49,-211.933 1947.93,-209.48 1911.65,-199.076 1899.76,-206.031 1864.93,-191.48 1853.67,-186.776 1853.1,-181.395 1841.93,-176.48 1809.4,-162.167 1771.26,-151.82 1739.26,-144.783"/>
<polygon fill="black" stroke="black" points="1739.62,-141.279 1729.11,-142.613 1738.15,-148.125 1739.62,-141.279"/>
<text text-anchor="middle" x="1920.93" y="-180.28" font-family="Times,serif" font-size="14.00"> static(visible_from)</text>
</g>
<!-- n24 -->
<g id="node24" class="node"><title>n24</title>
<ellipse fill="none" stroke="black" cx="2764.93" cy="-236.35" rx="67.7647" ry="26.7407"/>
<text text-anchor="middle" x="2764.93" y="-240.15" font-family="Times,serif" font-size="14.00">&lt;objective12&gt;</text>
<text text-anchor="middle" x="2764.93" y="-225.15" font-family="Times,serif" font-size="14.00">objective</text>
</g>
<!-- n24&#45;&gt;n18 -->
<g id="edge32" class="edge"><title>n24&#45;&gt;n18</title>
<path fill="none" stroke="black" d="M2827.02,-225.234C2859.17,-218.459 2898.4,-207.734 2930.93,-191.48 2940.56,-186.672 2940.19,-181.035 2949.93,-176.48 2995.54,-155.169 3051.53,-144.132 3094.22,-138.461"/>
<polygon fill="black" stroke="black" points="3094.74,-141.924 3104.22,-137.198 3093.86,-134.979 3094.74,-141.924"/>
<text text-anchor="middle" x="3041.93" y="-180.28" font-family="Times,serif" font-size="14.00"> end(communicated_image_data)</text>
</g>
<!-- n24&#45;&gt;n19 -->
<g id="edge31" class="edge"><title>n24&#45;&gt;n19</title>
<path fill="none" stroke="black" d="M2725.02,-214.567C2711.81,-207.469 2697.12,-199.336 2683.93,-191.48 2673.45,-185.236 2672.55,-180.216 2660.93,-176.48 2574.67,-148.744 1959.91,-136.948 1744.93,-133.64"/>
<polygon fill="black" stroke="black" points="1744.75,-130.137 1734.7,-133.485 1744.64,-137.137 1744.75,-130.137"/>
<text text-anchor="middle" x="2739.93" y="-180.28" font-family="Times,serif" font-size="14.00"> static(visible_from)</text>
</g>
<!-- n25&#45;&gt;n19 -->
<g id="edge28" class="edge"><title>n25&#45;&gt;n19</title>
<path fill="none" stroke="black" d="M1337.93,-229.583C1386.23,-222.976 1463.31,-210.537 1527.93,-191.48 1532.64,-190.093 1578.56,-171.111 1617.11,-155.071"/>
<polygon fill="black" stroke="black" points="1618.84,-158.143 1626.72,-151.069 1616.15,-151.681 1618.84,-158.143"/>
<text text-anchor="middle" x="1587.43" y="-180.28" font-family="Times,serif" font-size="14.00"> init(at)</text>
</g>
<!-- n25&#45;&gt;n25 -->
<g id="edge4" class="edge"><title>n25&#45;&gt;n25</title>
<path fill="none" stroke="black" d="M1336.03,-246.015C1347.97,-245.462 1357.02,-242.241 1357.02,-236.35 1357.02,-232.3 1352.74,-229.512 1346.19,-227.986"/>
<polygon fill="black" stroke="black" points="1346.39,-224.483 1336.03,-226.686 1345.5,-231.427 1346.39,-224.483"/>
<text text-anchor="middle" x="1450.52" y="-247.65" font-family="Times,serif" font-size="14.00"> static(equipped_for_imaging)</text>
<text text-anchor="middle" x="1450.52" y="-232.65" font-family="Times,serif" font-size="14.00">init(available)</text>
<text text-anchor="middle" x="1450.52" y="-217.65" font-family="Times,serif" font-size="14.00">static(equipped_for_soil_analysis)</text>
</g>
</g>
</svg>
