<?xml version="1.0" encoding="UTF-8" standalone="no"?>
<!DOCTYPE svg PUBLIC "-//W3C//DTD SVG 1.1//EN"
 "http://www.w3.org/Graphics/SVG/1.1/DTD/svg11.dtd">
<!-- Generated by graphviz version 2.38.0 (20140413.2041)
 -->
<!-- Title: Struc Pages: 1 -->
<svg width="926pt" height="400pt"
 viewBox="0.00 0.00 926.19 399.96" xmlns="http://www.w3.org/2000/svg" xmlns:xlink="http://www.w3.org/1999/xlink">
<g id="graph0" class="graph" transform="scale(1 1) rotate(0) translate(4 395.96)">
<title>Struc</title>
<polygon fill="white" stroke="none" points="-4,4 -4,-395.96 922.187,-395.96 922.187,4 -4,4"/>
<!-- n1 -->
<g id="node1" class="node"><title>n1</title>
<ellipse fill="none" stroke="black" cx="469.569" cy="-135.61" rx="63.7795" ry="26.7407"/>
<text text-anchor="middle" x="469.569" y="-139.41" font-family="Times,serif" font-size="14.00">&lt;waypoint0&gt;</text>
<text text-anchor="middle" x="469.569" y="-124.41" font-family="Times,serif" font-size="14.00">waypoint</text>
</g>
<!-- n1&#45;&gt;n1 -->
<g id="edge1" class="edge"><title>n1&#45;&gt;n1</title>
<path fill="none" stroke="black" d="M528.645,-145.828C541.7,-144.868 551.208,-141.462 551.208,-135.61 551.208,-131.404 546.296,-128.462 538.686,-126.783"/>
<polygon fill="black" stroke="black" points="539.03,-123.298 528.645,-125.393 538.07,-130.231 539.03,-123.298"/>
<text text-anchor="middle" x="635.708" y="-139.41" font-family="Times,serif" font-size="14.00"> end(communicated_soil_data)</text>
<text text-anchor="middle" x="635.708" y="-124.41" font-family="Times,serif" font-size="14.00">init(at_soil_sample)</text>
</g>
<!-- n4 -->
<g id="node4" class="node"><title>n4</title>
<ellipse fill="none" stroke="black" cx="368.569" cy="-26.8701" rx="63.7795" ry="26.7407"/>
<text text-anchor="middle" x="368.569" y="-30.6701" font-family="Times,serif" font-size="14.00">&lt;waypoint1&gt;</text>
<text text-anchor="middle" x="368.569" y="-15.6701" font-family="Times,serif" font-size="14.00">waypoint</text>
</g>
<!-- n1&#45;&gt;n4 -->
<g id="edge6" class="edge"><title>n1&#45;&gt;n4</title>
<path fill="none" stroke="black" d="M464.948,-108.595C461.723,-96.3473 456.362,-82.1745 447.569,-71.7401 440.75,-63.6491 432.041,-56.7763 422.911,-51.0415"/>
<polygon fill="black" stroke="black" points="424.478,-47.9035 414.076,-45.8892 420.951,-53.9504 424.478,-47.9035"/>
<text text-anchor="middle" x="495.569" y="-75.5401" font-family="Times,serif" font-size="14.00"> static(visible)</text>
</g>
<!-- n2 -->
<g id="node2" class="node"><title>n2</title>
<ellipse fill="none" stroke="black" cx="198.569" cy="-361.09" rx="56.6326" ry="26.7574"/>
<ellipse fill="none" stroke="black" cx="198.569" cy="-361.09" rx="60.6372" ry="30.7407"/>
<text text-anchor="middle" x="198.569" y="-364.89" font-family="Times,serif" font-size="14.00">&lt;camera1&gt;</text>
<text text-anchor="middle" x="198.569" y="-349.89" font-family="Times,serif" font-size="14.00">camera</text>
</g>
<!-- n3 -->
<g id="node3" class="node"><title>n3</title>
<ellipse fill="none" stroke="black" cx="248.569" cy="-248.35" rx="67.7712" ry="26.7574"/>
<ellipse fill="none" stroke="black" cx="248.569" cy="-248.35" rx="71.7647" ry="30.7407"/>
<text text-anchor="middle" x="248.569" y="-252.15" font-family="Times,serif" font-size="14.00">&lt;objective13&gt;</text>
<text text-anchor="middle" x="248.569" y="-237.15" font-family="Times,serif" font-size="14.00">objective</text>
</g>
<!-- n2&#45;&gt;n3 -->
<g id="edge11" class="edge"><title>n2&#45;&gt;n3</title>
<path fill="none" stroke="black" stroke-dasharray="5,2" d="M194.43,-329.994C194.134,-319.27 195.209,-307.347 199.569,-297.22 201.66,-292.361 204.505,-287.745 207.777,-283.435"/>
<polygon fill="black" stroke="black" points="210.685,-285.418 214.512,-275.538 205.359,-280.876 210.685,-285.418"/>
<text text-anchor="middle" x="268.069" y="-301.02" font-family="Times,serif" font-size="14.00"> static(calibration_target)</text>
</g>
<!-- n5 -->
<g id="node5" class="node"><title>n5</title>
<ellipse fill="none" stroke="black" cx="424.569" cy="-248.35" rx="48.1667" ry="26.7407"/>
<text text-anchor="middle" x="424.569" y="-252.15" font-family="Times,serif" font-size="14.00">&lt;rover0&gt;</text>
<text text-anchor="middle" x="424.569" y="-237.15" font-family="Times,serif" font-size="14.00">rover</text>
</g>
<!-- n2&#45;&gt;n5 -->
<g id="edge7" class="edge"><title>n2&#45;&gt;n5</title>
<path fill="none" stroke="black" d="M251.762,-346.191C278.155,-338.175 309.99,-326.778 336.569,-312.22 346.005,-307.052 346.922,-303.623 355.569,-297.22 365.455,-289.899 376.319,-282.204 386.444,-275.177"/>
<polygon fill="black" stroke="black" points="388.494,-278.014 394.737,-269.453 384.518,-272.253 388.494,-278.014"/>
<text text-anchor="middle" x="402.069" y="-301.02" font-family="Times,serif" font-size="14.00"> static(on_board)</text>
</g>
<!-- n8 -->
<g id="node8" class="node"><title>n8</title>
<ellipse fill="none" stroke="black" cx="60.5685" cy="-135.61" rx="56.6326" ry="26.7574"/>
<ellipse fill="none" stroke="black" cx="60.5685" cy="-135.61" rx="60.6372" ry="30.7407"/>
<text text-anchor="middle" x="60.5685" y="-139.41" font-family="Times,serif" font-size="14.00">&lt;high_res&gt;</text>
<text text-anchor="middle" x="60.5685" y="-124.41" font-family="Times,serif" font-size="14.00">mode</text>
</g>
<!-- n2&#45;&gt;n8 -->
<g id="edge9" class="edge"><title>n2&#45;&gt;n8</title>
<path fill="none" stroke="black" stroke-dasharray="5,2" d="M153.394,-340.344C127.771,-326.814 97.3622,-306.384 79.5685,-279.22 59.7347,-248.942 56.2673,-207.246 56.9927,-176.76"/>
<polygon fill="black" stroke="black" points="60.5012,-176.614 57.4041,-166.482 53.5068,-176.334 60.5012,-176.614"/>
<text text-anchor="middle" x="123.569" y="-244.65" font-family="Times,serif" font-size="14.00"> static(supports)</text>
</g>
<!-- n3&#45;&gt;n1 -->
<g id="edge14" class="edge"><title>n3&#45;&gt;n1</title>
<path fill="none" stroke="black" d="M277.804,-219.87C292.183,-207.583 310.32,-193.8 328.569,-184.48 354.503,-171.235 363.945,-175.696 391.569,-166.48 399.196,-163.935 407.179,-161.092 415.006,-158.198"/>
<polygon fill="black" stroke="black" points="416.306,-161.448 424.441,-154.659 413.848,-154.894 416.306,-161.448"/>
<text text-anchor="middle" x="384.569" y="-188.28" font-family="Times,serif" font-size="14.00"> static(visible_from)</text>
</g>
<!-- n3&#45;&gt;n4 -->
<g id="edge13" class="edge"><title>n3&#45;&gt;n4</title>
<path fill="none" stroke="black" stroke-dasharray="5,2" d="M256.807,-217.506C258.415,-211.543 260.067,-205.319 261.569,-199.48 272.358,-157.515 262.517,-142.039 284.569,-104.74 295.449,-86.3369 312.127,-69.7639 327.764,-56.7591"/>
<polygon fill="black" stroke="black" points="330.207,-59.2856 335.809,-50.2929 325.822,-53.8293 330.207,-59.2856"/>
<text text-anchor="middle" x="340.569" y="-131.91" font-family="Times,serif" font-size="14.00"> static(visible_from)</text>
</g>
<!-- n3&#45;&gt;n8 -->
<g id="edge15" class="edge"><title>n3&#45;&gt;n8</title>
<path fill="none" stroke="black" stroke-dasharray="5,2" d="M188.331,-231.227C139.923,-218.155 79.637,-201.567 77.5685,-199.48 71.3899,-193.246 67.3952,-185.013 64.8281,-176.565"/>
<polygon fill="black" stroke="black" points="68.1834,-175.55 62.425,-166.657 61.3807,-177.2 68.1834,-175.55"/>
<text text-anchor="middle" x="169.569" y="-188.28" font-family="Times,serif" font-size="14.00"> end(communicated_image_data)</text>
</g>
<!-- n4&#45;&gt;n1 -->
<g id="edge12" class="edge"><title>n4&#45;&gt;n1</title>
<path fill="none" stroke="black" d="M360.92,-53.634C359.188,-64.6141 359.386,-77.0886 365.569,-86.7401 368.775,-91.7454 391.692,-102.525 415.2,-112.59"/>
<polygon fill="black" stroke="black" points="413.974,-115.872 424.548,-116.545 416.702,-109.425 413.974,-115.872"/>
<text text-anchor="middle" x="404.569" y="-75.5401" font-family="Times,serif" font-size="14.00"> static(visible)</text>
</g>
<!-- n5&#45;&gt;n1 -->
<g id="edge5" class="edge"><title>n5&#45;&gt;n1</title>
<path fill="none" stroke="black" d="M434.892,-221.944C440.909,-207.138 448.588,-188.24 455.19,-171.994"/>
<polygon fill="black" stroke="black" points="458.615,-172.863 459.137,-162.281 452.13,-170.228 458.615,-172.863"/>
<text text-anchor="middle" x="471.069" y="-188.28" font-family="Times,serif" font-size="14.00"> init(at)</text>
</g>
<!-- n5&#45;&gt;n5 -->
<g id="edge2" class="edge"><title>n5&#45;&gt;n5</title>
<path fill="none" stroke="black" d="M469.043,-258.786C481.292,-258.282 490.652,-254.803 490.652,-248.35 490.652,-243.813 486.024,-240.746 479.019,-239.15"/>
<polygon fill="black" stroke="black" points="479.397,-235.67 469.043,-237.914 478.537,-242.617 479.397,-235.67"/>
<text text-anchor="middle" x="584.152" y="-259.65" font-family="Times,serif" font-size="14.00"> static(equipped_for_imaging)</text>
<text text-anchor="middle" x="584.152" y="-244.65" font-family="Times,serif" font-size="14.00">init(available)</text>
<text text-anchor="middle" x="584.152" y="-229.65" font-family="Times,serif" font-size="14.00">static(equipped_for_soil_analysis)</text>
</g>
<!-- n6 -->
<g id="node6" class="node"><title>n6</title>
<ellipse fill="none" stroke="black" cx="474.569" cy="-361.09" rx="67.3507" ry="26.7407"/>
<text text-anchor="middle" x="474.569" y="-364.89" font-family="Times,serif" font-size="14.00">&lt;rover0store&gt;</text>
<text text-anchor="middle" x="474.569" y="-349.89" font-family="Times,serif" font-size="14.00">store</text>
</g>
<!-- n6&#45;&gt;n5 -->
<g id="edge10" class="edge"><title>n6&#45;&gt;n5</title>
<path fill="none" stroke="black" d="M466.776,-334.258C462.98,-322.722 458.051,-309.082 452.569,-297.22 450.402,-292.534 447.915,-287.71 445.336,-283.012"/>
<polygon fill="black" stroke="black" points="448.312,-281.164 440.325,-274.203 442.228,-284.626 448.312,-281.164"/>
<text text-anchor="middle" x="501.569" y="-301.02" font-family="Times,serif" font-size="14.00"> static(store_of)</text>
</g>
<!-- n6&#45;&gt;n6 -->
<g id="edge3" class="edge"><title>n6&#45;&gt;n6</title>
<path fill="none" stroke="black" d="M536.963,-371.251C550.191,-370.22 559.744,-366.833 559.744,-361.09 559.744,-356.918 554.701,-353.99 546.87,-352.304"/>
<polygon fill="black" stroke="black" points="547.349,-348.837 536.963,-350.929 546.387,-355.771 547.349,-348.837"/>
<text text-anchor="middle" x="592.744" y="-357.39" font-family="Times,serif" font-size="14.00"> init(empty)</text>
</g>
<!-- n7 -->
<g id="node7" class="node"><title>n7</title>
<ellipse fill="none" stroke="black" cx="747.569" cy="-248.35" rx="51.7379" ry="26.7407"/>
<text text-anchor="middle" x="747.569" y="-252.15" font-family="Times,serif" font-size="14.00">&lt;general&gt;</text>
<text text-anchor="middle" x="747.569" y="-237.15" font-family="Times,serif" font-size="14.00">lander</text>
</g>
<!-- n7&#45;&gt;n1 -->
<g id="edge8" class="edge"><title>n7&#45;&gt;n1</title>
<path fill="none" stroke="black" d="M711.392,-228.908C703.293,-224.983 694.693,-220.973 686.569,-217.48 633.515,-194.671 571.682,-171.998 527.623,-156.49"/>
<polygon fill="black" stroke="black" points="528.538,-153.102 517.943,-153.097 526.223,-159.708 528.538,-153.102"/>
<text text-anchor="middle" x="685.569" y="-188.28" font-family="Times,serif" font-size="14.00"> static(at_lander)</text>
</g>
<!-- n7&#45;&gt;n7 -->
<g id="edge4" class="edge"><title>n7&#45;&gt;n7</title>
<path fill="none" stroke="black" d="M795.401,-258.742C807.821,-258.103 817.187,-254.639 817.187,-248.35 817.187,-243.928 812.557,-240.903 805.49,-239.274"/>
<polygon fill="black" stroke="black" points="805.769,-235.781 795.401,-237.959 804.864,-242.723 805.769,-235.781"/>
<text text-anchor="middle" x="867.687" y="-244.65" font-family="Times,serif" font-size="14.00"> init(channel_free)</text>
</g>
</g>
</svg>
