<?xml version="1.0" encoding="UTF-8" standalone="no"?>
<!DOCTYPE svg PUBLIC "-//W3C//DTD SVG 1.1//EN"
 "http://www.w3.org/Graphics/SVG/1.1/DTD/svg11.dtd">
<!-- Generated by graphviz version 2.38.0 (20140413.2041)
 -->
<!-- Title: Struc Pages: 1 -->
<svg width="4580pt" height="376pt"
 viewBox="0.00 0.00 4579.57 375.96" xmlns="http://www.w3.org/2000/svg" xmlns:xlink="http://www.w3.org/1999/xlink">
<g id="graph0" class="graph" transform="scale(1 1) rotate(0) translate(4 371.96)">
<title>Struc</title>
<polygon fill="white" stroke="none" points="-4,4 -4,-371.96 4575.57,-371.96 4575.57,4 -4,4"/>
<!-- n1 -->
<g id="node1" class="node"><title>n1</title>
<ellipse fill="none" stroke="black" cx="56.5685" cy="-341.09" rx="56.6372" ry="26.7407"/>
<text text-anchor="middle" x="56.5685" y="-344.89" font-family="Times,serif" font-size="14.00">&lt;camera2&gt;</text>
<text text-anchor="middle" x="56.5685" y="-329.89" font-family="Times,serif" font-size="14.00">camera</text>
</g>
<!-- n12 -->
<g id="node12" class="node"><title>n12</title>
<ellipse fill="none" stroke="black" cx="161.569" cy="-131.61" rx="53.9813" ry="26.7407"/>
<text text-anchor="middle" x="161.569" y="-135.41" font-family="Times,serif" font-size="14.00">&lt;low_res&gt;</text>
<text text-anchor="middle" x="161.569" y="-120.41" font-family="Times,serif" font-size="14.00">mode</text>
</g>
<!-- n1&#45;&gt;n12 -->
<g id="edge44" class="edge"><title>n1&#45;&gt;n12</title>
<path fill="none" stroke="black" d="M53.0496,-314.151C50.5547,-286.547 50.2339,-242.401 67.5685,-209.48 78.8118,-188.128 98.7945,-170.501 117.453,-157.538"/>
<polygon fill="black" stroke="black" points="119.515,-160.37 125.897,-151.913 115.634,-154.545 119.515,-160.37"/>
<text text-anchor="middle" x="111.569" y="-232.65" font-family="Times,serif" font-size="14.00"> static(supports)</text>
</g>
<!-- n15 -->
<g id="node15" class="node"><title>n15</title>
<ellipse fill="none" stroke="black" cx="2728.57" cy="-236.35" rx="67.7647" ry="26.7407"/>
<text text-anchor="middle" x="2728.57" y="-240.15" font-family="Times,serif" font-size="14.00">&lt;objective10&gt;</text>
<text text-anchor="middle" x="2728.57" y="-225.15" font-family="Times,serif" font-size="14.00">objective</text>
</g>
<!-- n1&#45;&gt;n15 -->
<g id="edge19" class="edge"><title>n1&#45;&gt;n15</title>
<path fill="none" stroke="black" d="M113.27,-339.34C438.252,-334.89 2067.31,-310.534 2566.57,-263.22 2596.75,-260.361 2629.83,-255.407 2658.19,-250.595"/>
<polygon fill="black" stroke="black" points="2659.15,-253.981 2668.41,-248.833 2657.96,-247.083 2659.15,-253.981"/>
<text text-anchor="middle" x="2329.07" y="-285.02" font-family="Times,serif" font-size="14.00"> static(calibration_target)</text>
</g>
<!-- n25 -->
<g id="node25" class="node"><title>n25</title>
<ellipse fill="none" stroke="black" cx="3595.57" cy="-236.35" rx="48.1667" ry="26.7407"/>
<text text-anchor="middle" x="3595.57" y="-240.15" font-family="Times,serif" font-size="14.00">&lt;rover0&gt;</text>
<text text-anchor="middle" x="3595.57" y="-225.15" font-family="Times,serif" font-size="14.00">rover</text>
</g>
<!-- n1&#45;&gt;n25 -->
<g id="edge6" class="edge"><title>n1&#45;&gt;n25</title>
<path fill="none" stroke="black" d="M113.271,-339.245C374.495,-335.306 1488.2,-318.018 2401.57,-296.22 2464.74,-294.713 3477,-277.475 3538.57,-263.22 3542.98,-262.2 3547.46,-260.827 3551.87,-259.244"/>
<polygon fill="black" stroke="black" points="3553.35,-262.422 3561.37,-255.497 3550.79,-255.91 3553.35,-262.422"/>
<text text-anchor="middle" x="3146.07" y="-285.02" font-family="Times,serif" font-size="14.00"> static(on_board)</text>
</g>
<!-- n2 -->
<g id="node2" class="node"><title>n2</title>
<ellipse fill="none" stroke="black" cx="1217.57" cy="-236.35" rx="62.8651" ry="26.7407"/>
<text text-anchor="middle" x="1217.57" y="-240.15" font-family="Times,serif" font-size="14.00">&lt;objective2&gt;</text>
<text text-anchor="middle" x="1217.57" y="-225.15" font-family="Times,serif" font-size="14.00">objective</text>
</g>
<!-- n3 -->
<g id="node3" class="node"><title>n3</title>
<ellipse fill="none" stroke="black" cx="3177.57" cy="-26.8701" rx="63.7795" ry="26.7407"/>
<text text-anchor="middle" x="3177.57" y="-30.6701" font-family="Times,serif" font-size="14.00">&lt;waypoint1&gt;</text>
<text text-anchor="middle" x="3177.57" y="-15.6701" font-family="Times,serif" font-size="14.00">waypoint</text>
</g>
<!-- n2&#45;&gt;n3 -->
<g id="edge23" class="edge"><title>n2&#45;&gt;n3</title>
<path fill="none" stroke="black" d="M1171.13,-218.07C1145.87,-208.204 1119.05,-196.773 1115.57,-191.48 1111.9,-185.912 1111.3,-181.603 1115.57,-176.48 1228.36,-41.0542 1330.47,-124.776 1505.57,-104.74 2120.38,-34.3903 2869.35,-27.8896 3103.81,-27.6923"/>
<polygon fill="black" stroke="black" points="3103.93,-31.1924 3113.92,-27.6875 3103.92,-24.1924 3103.93,-31.1924"/>
<text text-anchor="middle" x="1561.57" y="-127.91" font-family="Times,serif" font-size="14.00"> static(visible_from)</text>
</g>
<!-- n18 -->
<g id="node18" class="node"><title>n18</title>
<ellipse fill="none" stroke="black" cx="1683.57" cy="-131.61" rx="56.6372" ry="26.7407"/>
<text text-anchor="middle" x="1683.57" y="-135.41" font-family="Times,serif" font-size="14.00">&lt;high_res&gt;</text>
<text text-anchor="middle" x="1683.57" y="-120.41" font-family="Times,serif" font-size="14.00">mode</text>
</g>
<!-- n2&#45;&gt;n18 -->
<g id="edge13" class="edge"><title>n2&#45;&gt;n18</title>
<path fill="none" stroke="black" d="M1169.81,-218.825C1149.15,-210.62 1128.37,-200.548 1122.57,-191.48 1118.98,-185.864 1118.04,-181.375 1122.57,-176.48 1139.16,-158.543 1472.47,-141.847 1617.32,-135.408"/>
<polygon fill="black" stroke="black" points="1617.58,-138.9 1627.41,-134.963 1617.27,-131.907 1617.58,-138.9"/>
<text text-anchor="middle" x="1214.57" y="-180.28" font-family="Times,serif" font-size="14.00"> end(communicated_image_data)</text>
</g>
<!-- n19 -->
<g id="node19" class="node"><title>n19</title>
<ellipse fill="none" stroke="black" cx="3178.57" cy="-131.61" rx="63.7795" ry="26.7407"/>
<text text-anchor="middle" x="3178.57" y="-135.41" font-family="Times,serif" font-size="14.00">&lt;waypoint0&gt;</text>
<text text-anchor="middle" x="3178.57" y="-120.41" font-family="Times,serif" font-size="14.00">waypoint</text>
</g>
<!-- n2&#45;&gt;n19 -->
<g id="edge12" class="edge"><title>n2&#45;&gt;n19</title>
<path fill="none" stroke="black" d="M1261.91,-217.024C1270.92,-213.983 1280.44,-211.248 1289.57,-209.48 1394.15,-189.232 1668.61,-228.298 1768.57,-191.48 1778.66,-187.761 1777.46,-180.168 1787.57,-176.48 1911.38,-131.299 2834.63,-131.266 3104.62,-132.242"/>
<polygon fill="black" stroke="black" points="3104.7,-135.742 3114.71,-132.28 3104.72,-128.742 3104.7,-135.742"/>
<text text-anchor="middle" x="1843.57" y="-180.28" font-family="Times,serif" font-size="14.00"> static(visible_from)</text>
</g>
<!-- n3&#45;&gt;n19 -->
<g id="edge10" class="edge"><title>n3&#45;&gt;n19</title>
<path fill="none" stroke="black" d="M3197.46,-52.5809C3201.2,-58.5291 3204.57,-65.0951 3206.57,-71.7401 3209.1,-80.1534 3207.52,-88.8773 3204.09,-96.9498"/>
<polygon fill="black" stroke="black" points="3200.86,-95.582 3199.35,-106.069 3207.07,-98.8097 3200.86,-95.582"/>
<text text-anchor="middle" x="3247.57" y="-75.5401" font-family="Times,serif" font-size="14.00"> static(visible)</text>
</g>
<!-- n4 -->
<g id="node4" class="node"><title>n4</title>
<ellipse fill="none" stroke="black" cx="3855.57" cy="-341.09" rx="56.6372" ry="26.7407"/>
<text text-anchor="middle" x="3855.57" y="-344.89" font-family="Times,serif" font-size="14.00">&lt;camera0&gt;</text>
<text text-anchor="middle" x="3855.57" y="-329.89" font-family="Times,serif" font-size="14.00">camera</text>
</g>
<!-- n5 -->
<g id="node5" class="node"><title>n5</title>
<ellipse fill="none" stroke="black" cx="4478.57" cy="-236.35" rx="62.8651" ry="26.7407"/>
<text text-anchor="middle" x="4478.57" y="-240.15" font-family="Times,serif" font-size="14.00">&lt;objective6&gt;</text>
<text text-anchor="middle" x="4478.57" y="-225.15" font-family="Times,serif" font-size="14.00">objective</text>
</g>
<!-- n4&#45;&gt;n5 -->
<g id="edge17" class="edge"><title>n4&#45;&gt;n5</title>
<path fill="none" stroke="black" d="M3911.42,-336.127C4011.75,-328.164 4228.63,-307.101 4406.57,-263.22 4412.19,-261.835 4417.98,-260.172 4423.72,-258.366"/>
<polygon fill="black" stroke="black" points="4424.89,-261.665 4433.3,-255.215 4422.71,-255.015 4424.89,-261.665"/>
<text text-anchor="middle" x="4386.07" y="-285.02" font-family="Times,serif" font-size="14.00"> static(calibration_target)</text>
</g>
<!-- n4&#45;&gt;n18 -->
<g id="edge35" class="edge"><title>n4&#45;&gt;n18</title>
<path fill="none" stroke="black" d="M3815.77,-321.846C3807.29,-318.713 3798.26,-315.922 3789.57,-314.22 3637.77,-284.515 2551.96,-305.688 2397.57,-296.22 2263.68,-288.01 2212.51,-332.361 2097.57,-263.22 2057.62,-239.188 2078.36,-200.779 2038.57,-176.48 1991.55,-147.77 1839.21,-137.784 1750.1,-134.358"/>
<polygon fill="black" stroke="black" points="1750.21,-130.86 1740.09,-133.99 1749.95,-137.855 1750.21,-130.86"/>
<text text-anchor="middle" x="2141.57" y="-232.65" font-family="Times,serif" font-size="14.00"> static(supports)</text>
</g>
<!-- n4&#45;&gt;n25 -->
<g id="edge22" class="edge"><title>n4&#45;&gt;n25</title>
<path fill="none" stroke="black" d="M3817.77,-320.969C3793.01,-308.811 3759.77,-293.167 3729.57,-281.22 3702.84,-270.647 3672.44,-260.544 3647.36,-252.704"/>
<polygon fill="black" stroke="black" points="3648.27,-249.32 3637.68,-249.706 3646.2,-256.006 3648.27,-249.32"/>
<text text-anchor="middle" x="3811.07" y="-285.02" font-family="Times,serif" font-size="14.00"> static(on_board)</text>
</g>
<!-- n5&#45;&gt;n3 -->
<g id="edge18" class="edge"><title>n5&#45;&gt;n3</title>
<path fill="none" stroke="black" d="M4478.01,-209.404C4476.93,-198.757 4474.56,-186.584 4469.57,-176.48 4449.98,-136.817 4440.71,-123.335 4400.57,-104.74 4296.5,-56.5283 3499.89,-34.9941 3251.38,-29.4038"/>
<polygon fill="black" stroke="black" points="3251.09,-25.8965 3241.01,-29.1727 3250.93,-32.8948 3251.09,-25.8965"/>
<text text-anchor="middle" x="4515.57" y="-127.91" font-family="Times,serif" font-size="14.00"> static(visible_from)</text>
</g>
<!-- n5&#45;&gt;n19 -->
<g id="edge39" class="edge"><title>n5&#45;&gt;n19</title>
<path fill="none" stroke="black" d="M4431.76,-218.15C4385.45,-201.196 4320.62,-177.649 4314.57,-176.48 4208.45,-155.994 3936.56,-162.629 3828.57,-158.48 3619.4,-150.444 3372.38,-140.484 3251.97,-135.598"/>
<polygon fill="black" stroke="black" points="3251.9,-132.092 3241.77,-135.184 3251.62,-139.086 3251.9,-132.092"/>
<text text-anchor="middle" x="4409.57" y="-180.28" font-family="Times,serif" font-size="14.00"> static(visible_from)</text>
</g>
<!-- n6 -->
<g id="node6" class="node"><title>n6</title>
<ellipse fill="none" stroke="black" cx="2920.57" cy="-236.35" rx="62.8651" ry="26.7407"/>
<text text-anchor="middle" x="2920.57" y="-240.15" font-family="Times,serif" font-size="14.00">&lt;objective1&gt;</text>
<text text-anchor="middle" x="2920.57" y="-225.15" font-family="Times,serif" font-size="14.00">objective</text>
</g>
<!-- n6&#45;&gt;n19 -->
<g id="edge7" class="edge"><title>n6&#45;&gt;n19</title>
<path fill="none" stroke="black" d="M2966.31,-217.669C2974.95,-214.684 2983.98,-211.804 2992.57,-209.48 3034.89,-198.03 3049.64,-209.595 3089.57,-191.48 3099.37,-187.035 3099.78,-182.679 3108.57,-176.48 3116.74,-170.716 3125.66,-164.836 3134.31,-159.332"/>
<polygon fill="black" stroke="black" points="3136.23,-162.259 3142.83,-153.971 3132.5,-156.334 3136.23,-162.259"/>
<text text-anchor="middle" x="3164.57" y="-180.28" font-family="Times,serif" font-size="14.00"> static(visible_from)</text>
</g>
<!-- n7 -->
<g id="node7" class="node"><title>n7</title>
<ellipse fill="none" stroke="black" cx="3629.57" cy="-341.09" rx="67.3507" ry="26.7407"/>
<text text-anchor="middle" x="3629.57" y="-344.89" font-family="Times,serif" font-size="14.00">&lt;rover0store&gt;</text>
<text text-anchor="middle" x="3629.57" y="-329.89" font-family="Times,serif" font-size="14.00">store</text>
</g>
<!-- n7&#45;&gt;n7 -->
<g id="edge1" class="edge"><title>n7&#45;&gt;n7</title>
<path fill="none" stroke="black" d="M3692.71,-350.468C3705.55,-349.447 3714.74,-346.321 3714.74,-341.09 3714.74,-337.413 3710.2,-334.775 3703.04,-333.179"/>
<polygon fill="black" stroke="black" points="3703.11,-329.653 3692.71,-331.712 3702.12,-336.584 3703.11,-329.653"/>
<text text-anchor="middle" x="3747.74" y="-337.39" font-family="Times,serif" font-size="14.00"> init(empty)</text>
</g>
<!-- n7&#45;&gt;n25 -->
<g id="edge30" class="edge"><title>n7&#45;&gt;n25</title>
<path fill="none" stroke="black" d="M3638.66,-314.178C3640.94,-303.651 3641.72,-291.558 3637.57,-281.22 3635.51,-276.083 3632.52,-271.208 3629.08,-266.704"/>
<polygon fill="black" stroke="black" points="3631.66,-264.337 3622.5,-259.019 3626.35,-268.891 3631.66,-264.337"/>
<text text-anchor="middle" x="3682.57" y="-285.02" font-family="Times,serif" font-size="14.00"> static(store_of)</text>
</g>
<!-- n8 -->
<g id="node8" class="node"><title>n8</title>
<ellipse fill="none" stroke="black" cx="3064.57" cy="-236.35" rx="62.8651" ry="26.7407"/>
<text text-anchor="middle" x="3064.57" y="-240.15" font-family="Times,serif" font-size="14.00">&lt;objective4&gt;</text>
<text text-anchor="middle" x="3064.57" y="-225.15" font-family="Times,serif" font-size="14.00">objective</text>
</g>
<!-- n8&#45;&gt;n19 -->
<g id="edge48" class="edge"><title>n8&#45;&gt;n19</title>
<path fill="none" stroke="black" d="M3110.34,-217.797C3118.98,-214.8 3128,-211.883 3136.57,-209.48 3175.01,-198.703 3199.33,-222.408 3224.57,-191.48 3232.41,-181.871 3227.98,-171.227 3219.34,-161.661"/>
<polygon fill="black" stroke="black" points="3221.67,-159.042 3212.05,-154.592 3216.8,-164.067 3221.67,-159.042"/>
<text text-anchor="middle" x="3285.57" y="-180.28" font-family="Times,serif" font-size="14.00"> static(visible_from)</text>
</g>
<!-- n9 -->
<g id="node9" class="node"><title>n9</title>
<ellipse fill="none" stroke="black" cx="394.569" cy="-236.35" rx="62.8651" ry="26.7407"/>
<text text-anchor="middle" x="394.569" y="-240.15" font-family="Times,serif" font-size="14.00">&lt;objective5&gt;</text>
<text text-anchor="middle" x="394.569" y="-225.15" font-family="Times,serif" font-size="14.00">objective</text>
</g>
<!-- n9&#45;&gt;n3 -->
<g id="edge24" class="edge"><title>n9&#45;&gt;n3</title>
<path fill="none" stroke="black" d="M390.054,-209.398C389.469,-198.509 390.633,-186.156 396.569,-176.48 431.075,-120.229 463.062,-122.678 526.569,-104.74 831.425,-18.6306 921.973,-82.6569 1238.57,-71.7401 1965.47,-46.6753 2846.17,-32.6751 3103.6,-28.9124"/>
<polygon fill="black" stroke="black" points="3104,-32.4071 3113.95,-28.7619 3103.9,-25.4079 3104,-32.4071"/>
<text text-anchor="middle" x="582.569" y="-127.91" font-family="Times,serif" font-size="14.00"> static(visible_from)</text>
</g>
<!-- n9&#45;&gt;n12 -->
<g id="edge40" class="edge"><title>n9&#45;&gt;n12</title>
<path fill="none" stroke="black" d="M338.893,-223.745C317.257,-219.256 292.262,-214.098 269.569,-209.48 229.596,-201.347 209.809,-218.857 179.569,-191.48 172.963,-185.5 168.75,-177.171 166.073,-168.657"/>
<polygon fill="black" stroke="black" points="169.406,-167.559 163.584,-158.707 162.616,-169.258 169.406,-167.559"/>
<text text-anchor="middle" x="271.569" y="-180.28" font-family="Times,serif" font-size="14.00"> end(communicated_image_data)</text>
</g>
<!-- n9&#45;&gt;n18 -->
<g id="edge8" class="edge"><title>n9&#45;&gt;n18</title>
<path fill="none" stroke="black" d="M394.926,-209.189C396.56,-197.294 400.728,-184.185 410.569,-176.48 427.611,-163.137 1167.94,-159.296 1189.57,-158.48 1342.96,-152.693 1522.97,-142.376 1617.65,-136.676"/>
<polygon fill="black" stroke="black" points="1617.89,-140.168 1627.66,-136.071 1617.47,-133.181 1617.89,-140.168"/>
<text text-anchor="middle" x="502.569" y="-180.28" font-family="Times,serif" font-size="14.00"> end(communicated_image_data)</text>
</g>
<!-- n9&#45;&gt;n19 -->
<g id="edge9" class="edge"><title>n9&#45;&gt;n19</title>
<path fill="none" stroke="black" d="M456.214,-230.377C531.859,-224.461 664.061,-214.728 777.569,-209.48 857.619,-205.779 1423.2,-218.704 1498.57,-191.48 1508.69,-187.825 1507.45,-180.143 1517.57,-176.48 1593,-149.173 2791.75,-136.196 3104.45,-133.265"/>
<polygon fill="black" stroke="black" points="3104.79,-136.762 3114.75,-133.169 3104.72,-129.763 3104.79,-136.762"/>
<text text-anchor="middle" x="1573.57" y="-180.28" font-family="Times,serif" font-size="14.00"> static(visible_from)</text>
</g>
<!-- n10 -->
<g id="node10" class="node"><title>n10</title>
<ellipse fill="none" stroke="black" cx="3208.57" cy="-236.35" rx="62.8651" ry="26.7407"/>
<text text-anchor="middle" x="3208.57" y="-240.15" font-family="Times,serif" font-size="14.00">&lt;objective8&gt;</text>
<text text-anchor="middle" x="3208.57" y="-225.15" font-family="Times,serif" font-size="14.00">objective</text>
</g>
<!-- n10&#45;&gt;n19 -->
<g id="edge49" class="edge"><title>n10&#45;&gt;n19</title>
<path fill="none" stroke="black" d="M3254.77,-217.818C3263.29,-214.852 3272.15,-211.941 3280.57,-209.48 3315.13,-199.373 3337.11,-219.631 3359.57,-191.48 3363.73,-186.269 3363.69,-181.72 3359.57,-176.48 3345.77,-158.937 3294.21,-147.557 3249.64,-140.794"/>
<polygon fill="black" stroke="black" points="3250.06,-137.32 3239.66,-139.339 3249.05,-144.246 3250.06,-137.32"/>
<text text-anchor="middle" x="3418.57" y="-180.28" font-family="Times,serif" font-size="14.00"> static(visible_from)</text>
</g>
<!-- n11 -->
<g id="node11" class="node"><title>n11</title>
<ellipse fill="none" stroke="black" cx="849.569" cy="-236.35" rx="62.8651" ry="26.7407"/>
<text text-anchor="middle" x="849.569" y="-240.15" font-family="Times,serif" font-size="14.00">&lt;objective9&gt;</text>
<text text-anchor="middle" x="849.569" y="-225.15" font-family="Times,serif" font-size="14.00">objective</text>
</g>
<!-- n11&#45;&gt;n3 -->
<g id="edge15" class="edge"><title>n11&#45;&gt;n3</title>
<path fill="none" stroke="black" d="M787.478,-231.944C727.887,-227.222 644.006,-216.266 623.569,-191.48 619.327,-186.337 619.296,-181.598 623.569,-176.48 737.909,-39.5031 841.316,-125.187 1018.57,-104.74 1435.54,-56.6404 2773.72,-33.8885 3103.56,-28.9285"/>
<polygon fill="black" stroke="black" points="3104,-32.4225 3113.95,-28.7732 3103.9,-25.4232 3104,-32.4225"/>
<text text-anchor="middle" x="1074.57" y="-127.91" font-family="Times,serif" font-size="14.00"> static(visible_from)</text>
</g>
<!-- n11&#45;&gt;n18 -->
<g id="edge20" class="edge"><title>n11&#45;&gt;n18</title>
<path fill="none" stroke="black" d="M842.751,-209.444C841.357,-197.9 842.335,-185.013 850.569,-176.48 850.569,-176.48 1419.62,-146.511 1617.06,-136.113"/>
<polygon fill="black" stroke="black" points="1617.49,-139.595 1627.29,-135.574 1617.12,-132.605 1617.49,-139.595"/>
<text text-anchor="middle" x="951.569" y="-180.28" font-family="Times,serif" font-size="14.00"> end(communicated_image_data)</text>
</g>
<!-- n11&#45;&gt;n19 -->
<g id="edge21" class="edge"><title>n11&#45;&gt;n19</title>
<path fill="none" stroke="black" d="M907.165,-225.214C941.681,-219.569 986.505,-212.99 1026.57,-209.48 1093.79,-203.591 1570.16,-214.551 1633.57,-191.48 1643.68,-187.801 1642.46,-180.154 1652.57,-176.48 1721.39,-151.476 2808.69,-136.948 3104.67,-133.444"/>
<polygon fill="black" stroke="black" points="3104.91,-136.941 3114.86,-133.324 3104.82,-129.942 3104.91,-136.941"/>
<text text-anchor="middle" x="1708.57" y="-180.28" font-family="Times,serif" font-size="14.00"> static(visible_from)</text>
</g>
<!-- n13 -->
<g id="node13" class="node"><title>n13</title>
<ellipse fill="none" stroke="black" cx="3466.57" cy="-236.35" rx="62.8651" ry="26.7407"/>
<text text-anchor="middle" x="3466.57" y="-240.15" font-family="Times,serif" font-size="14.00">&lt;objective0&gt;</text>
<text text-anchor="middle" x="3466.57" y="-225.15" font-family="Times,serif" font-size="14.00">objective</text>
</g>
<!-- n13&#45;&gt;n3 -->
<g id="edge32" class="edge"><title>n13&#45;&gt;n3</title>
<path fill="none" stroke="black" d="M3510.94,-217.204C3519.95,-214.147 3529.46,-211.361 3538.57,-209.48 3601.66,-196.45 3866.72,-226.859 3826.57,-176.48 3755.05,-86.7328 3404.03,-46.8026 3250.12,-33.4025"/>
<polygon fill="black" stroke="black" points="3250.09,-29.8873 3239.83,-32.5206 3249.49,-36.8617 3250.09,-29.8873"/>
<text text-anchor="middle" x="3862.57" y="-127.91" font-family="Times,serif" font-size="14.00"> static(visible_from)</text>
</g>
<!-- n13&#45;&gt;n18 -->
<g id="edge42" class="edge"><title>n13&#45;&gt;n18</title>
<path fill="none" stroke="black" d="M3422.23,-217.016C3413.22,-213.976 3403.7,-211.243 3394.57,-209.48 3286.93,-188.699 3004.46,-229.318 2901.57,-191.48 2891.47,-187.767 2892.67,-180.194 2882.57,-176.48 2776.38,-137.426 1986.79,-133.063 1750.3,-132.637"/>
<polygon fill="black" stroke="black" points="1750.13,-129.137 1740.13,-132.621 1750.12,-136.137 1750.13,-129.137"/>
<text text-anchor="middle" x="2993.57" y="-180.28" font-family="Times,serif" font-size="14.00"> end(communicated_image_data)</text>
</g>
<!-- n13&#45;&gt;n19 -->
<g id="edge43" class="edge"><title>n13&#45;&gt;n19</title>
<path fill="none" stroke="black" d="M3511.4,-217.414C3520.29,-214.379 3529.64,-211.547 3538.57,-209.48 3610.58,-192.812 3751.6,-230.886 3701.57,-176.48 3671.78,-144.092 3389.18,-135.604 3252.24,-133.388"/>
<polygon fill="black" stroke="black" points="3252.29,-129.888 3242.24,-133.233 3252.18,-136.888 3252.29,-129.888"/>
<text text-anchor="middle" x="3766.57" y="-180.28" font-family="Times,serif" font-size="14.00"> static(visible_from)</text>
</g>
<!-- n14 -->
<g id="node14" class="node"><title>n14</title>
<ellipse fill="none" stroke="black" cx="2257.57" cy="-236.35" rx="62.8651" ry="26.7407"/>
<text text-anchor="middle" x="2257.57" y="-240.15" font-family="Times,serif" font-size="14.00">&lt;objective7&gt;</text>
<text text-anchor="middle" x="2257.57" y="-225.15" font-family="Times,serif" font-size="14.00">objective</text>
</g>
<!-- n14&#45;&gt;n18 -->
<g id="edge34" class="edge"><title>n14&#45;&gt;n18</title>
<path fill="none" stroke="black" d="M2202.18,-223.198C2160.51,-213.671 2107.19,-200.553 2086.57,-191.48 2075.4,-186.565 2075.05,-180.624 2063.57,-176.48 2007.42,-156.213 1842.76,-142.778 1749.66,-136.573"/>
<polygon fill="black" stroke="black" points="1749.71,-133.069 1739.5,-135.906 1749.25,-140.054 1749.71,-133.069"/>
<text text-anchor="middle" x="2178.57" y="-180.28" font-family="Times,serif" font-size="14.00"> end(communicated_image_data)</text>
</g>
<!-- n14&#45;&gt;n19 -->
<g id="edge33" class="edge"><title>n14&#45;&gt;n19</title>
<path fill="none" stroke="black" d="M2265.06,-209.449C2269.98,-197.308 2277.75,-183.908 2289.57,-176.48 2357.69,-133.67 2903.29,-131.479 3104.44,-132.151"/>
<polygon fill="black" stroke="black" points="3104.6,-135.652 3114.62,-132.189 3104.63,-128.652 3104.6,-135.652"/>
<text text-anchor="middle" x="2345.57" y="-180.28" font-family="Times,serif" font-size="14.00"> static(visible_from)</text>
</g>
<!-- n15&#45;&gt;n19 -->
<g id="edge27" class="edge"><title>n15&#45;&gt;n19</title>
<path fill="none" stroke="black" d="M2740.52,-209.598C2747.52,-197.496 2757.56,-184.085 2770.57,-176.48 2825.57,-144.321 3002.87,-135.685 3104.73,-133.4"/>
<polygon fill="black" stroke="black" points="3105.03,-136.894 3114.95,-133.186 3104.88,-129.896 3105.03,-136.894"/>
<text text-anchor="middle" x="2826.57" y="-180.28" font-family="Times,serif" font-size="14.00"> static(visible_from)</text>
</g>
<!-- n16 -->
<g id="node16" class="node"><title>n16</title>
<ellipse fill="none" stroke="black" cx="3337.57" cy="-236.35" rx="48.1667" ry="26.7407"/>
<text text-anchor="middle" x="3337.57" y="-240.15" font-family="Times,serif" font-size="14.00">&lt;colour&gt;</text>
<text text-anchor="middle" x="3337.57" y="-225.15" font-family="Times,serif" font-size="14.00">mode</text>
</g>
<!-- n17 -->
<g id="node17" class="node"><title>n17</title>
<ellipse fill="none" stroke="black" cx="3918.57" cy="-236.35" rx="51.7379" ry="26.7407"/>
<text text-anchor="middle" x="3918.57" y="-240.15" font-family="Times,serif" font-size="14.00">&lt;general&gt;</text>
<text text-anchor="middle" x="3918.57" y="-225.15" font-family="Times,serif" font-size="14.00">lander</text>
</g>
<!-- n17&#45;&gt;n17 -->
<g id="edge2" class="edge"><title>n17&#45;&gt;n17</title>
<path fill="none" stroke="black" d="M3967.05,-245.966C3979.14,-245.294 3988.19,-242.089 3988.19,-236.35 3988.19,-232.405 3983.91,-229.657 3977.31,-228.107"/>
<polygon fill="black" stroke="black" points="3977.42,-224.59 3967.05,-226.734 3976.49,-231.529 3977.42,-224.59"/>
<text text-anchor="middle" x="4038.69" y="-232.65" font-family="Times,serif" font-size="14.00"> init(channel_free)</text>
</g>
<!-- n17&#45;&gt;n19 -->
<g id="edge45" class="edge"><title>n17&#45;&gt;n19</title>
<path fill="none" stroke="black" d="M3906.28,-209.936C3898.89,-197.605 3888.26,-183.888 3874.57,-176.48 3820.92,-147.452 3420.41,-136.94 3252.4,-133.781"/>
<polygon fill="black" stroke="black" points="3252.22,-130.277 3242.16,-133.592 3252.09,-137.276 3252.22,-130.277"/>
<text text-anchor="middle" x="3936.57" y="-180.28" font-family="Times,serif" font-size="14.00"> static(at_lander)</text>
</g>
<!-- n19&#45;&gt;n3 -->
<g id="edge31" class="edge"><title>n19&#45;&gt;n3</title>
<path fill="none" stroke="black" d="M3142.98,-109.287C3135.55,-103.021 3128.72,-95.4652 3124.57,-86.7401 3119.25,-75.5704 3124.22,-64.9818 3132.89,-55.945"/>
<polygon fill="black" stroke="black" points="3135.45,-58.3514 3140.52,-49.0488 3130.75,-53.1588 3135.45,-58.3514"/>
<text text-anchor="middle" x="3163.57" y="-75.5401" font-family="Times,serif" font-size="14.00"> static(visible)</text>
</g>
<!-- n19&#45;&gt;n19 -->
<g id="edge3" class="edge"><title>n19&#45;&gt;n19</title>
<path fill="none" stroke="black" d="M3238.37,-141.045C3251.05,-140.087 3260.21,-136.942 3260.21,-131.61 3260.21,-127.861 3255.68,-125.193 3248.59,-123.607"/>
<polygon fill="black" stroke="black" points="3248.76,-120.097 3238.37,-122.175 3247.79,-127.029 3248.76,-120.097"/>
<text text-anchor="middle" x="3344.71" y="-135.41" font-family="Times,serif" font-size="14.00"> end(communicated_soil_data)</text>
<text text-anchor="middle" x="3344.71" y="-120.41" font-family="Times,serif" font-size="14.00">init(at_soil_sample)</text>
</g>
<!-- n20 -->
<g id="node20" class="node"><title>n20</title>
<ellipse fill="none" stroke="black" cx="4329.57" cy="-236.35" rx="67.7647" ry="26.7407"/>
<text text-anchor="middle" x="4329.57" y="-240.15" font-family="Times,serif" font-size="14.00">&lt;objective11&gt;</text>
<text text-anchor="middle" x="4329.57" y="-225.15" font-family="Times,serif" font-size="14.00">objective</text>
</g>
<!-- n20&#45;&gt;n3 -->
<g id="edge11" class="edge"><title>n20&#45;&gt;n3</title>
<path fill="none" stroke="black" d="M4327.2,-209.464C4324.79,-197.782 4320.01,-184.772 4310.57,-176.48 4178.81,-60.7509 4096.15,-129.702 3922.57,-104.74 3677.03,-69.4306 3383.71,-44.0572 3250.18,-33.4204"/>
<polygon fill="black" stroke="black" points="3250.32,-29.9205 3240.08,-32.6192 3249.77,-36.8986 3250.32,-29.9205"/>
<text text-anchor="middle" x="4340.57" y="-127.91" font-family="Times,serif" font-size="14.00"> static(visible_from)</text>
</g>
<!-- n20&#45;&gt;n18 -->
<g id="edge37" class="edge"><title>n20&#45;&gt;n18</title>
<path fill="none" stroke="black" d="M4282.09,-216.935C4272.45,-213.901 4262.29,-211.192 4252.57,-209.48 4090.78,-181.002 3674.07,-226.466 3513.57,-191.48 3497.03,-187.876 3495.1,-180.085 3478.57,-176.48 3392.74,-157.768 2066.06,-137.991 1750.53,-133.536"/>
<polygon fill="black" stroke="black" points="1750.22,-130.032 1740.18,-133.391 1750.13,-137.031 1750.22,-130.032"/>
<text text-anchor="middle" x="3605.57" y="-180.28" font-family="Times,serif" font-size="14.00"> end(communicated_image_data)</text>
</g>
<!-- n20&#45;&gt;n19 -->
<g id="edge41" class="edge"><title>n20&#45;&gt;n19</title>
<path fill="none" stroke="black" d="M4279.04,-218.356C4270.22,-215.394 4261.13,-212.345 4252.57,-209.48 4228.58,-201.452 4222.12,-200.727 4198.57,-191.48 4183.57,-185.591 4181.23,-180.24 4165.57,-176.48 4143.39,-171.159 3476.52,-144.388 3251.73,-135.49"/>
<polygon fill="black" stroke="black" points="3251.81,-131.991 3241.68,-135.093 3251.53,-138.985 3251.81,-131.991"/>
<text text-anchor="middle" x="4254.57" y="-180.28" font-family="Times,serif" font-size="14.00"> static(visible_from)</text>
</g>
<!-- n21 -->
<g id="node21" class="node"><title>n21</title>
<ellipse fill="none" stroke="black" cx="4175.57" cy="-236.35" rx="67.7647" ry="26.7407"/>
<text text-anchor="middle" x="4175.57" y="-240.15" font-family="Times,serif" font-size="14.00">&lt;objective12&gt;</text>
<text text-anchor="middle" x="4175.57" y="-225.15" font-family="Times,serif" font-size="14.00">objective</text>
</g>
<!-- n21&#45;&gt;n19 -->
<g id="edge26" class="edge"><title>n21&#45;&gt;n19</title>
<path fill="none" stroke="black" d="M4128.26,-216.796C4090.54,-202.94 4036.02,-184.988 3986.57,-176.48 3846.65,-152.406 3423.99,-139 3252.28,-134.423"/>
<polygon fill="black" stroke="black" points="3252.17,-130.919 3242.08,-134.153 3251.98,-137.916 3252.17,-130.919"/>
<text text-anchor="middle" x="4105.57" y="-180.28" font-family="Times,serif" font-size="14.00"> static(visible_from)</text>
</g>
<!-- n22 -->
<g id="node22" class="node"><title>n22</title>
<ellipse fill="none" stroke="black" cx="3272.57" cy="-341.09" rx="56.6372" ry="26.7407"/>
<text text-anchor="middle" x="3272.57" y="-344.89" font-family="Times,serif" font-size="14.00">&lt;camera1&gt;</text>
<text text-anchor="middle" x="3272.57" y="-329.89" font-family="Times,serif" font-size="14.00">camera</text>
</g>
<!-- n22&#45;&gt;n5 -->
<g id="edge38" class="edge"><title>n22&#45;&gt;n5</title>
<path fill="none" stroke="black" d="M3327.83,-335.166C3370.39,-329.769 3429.81,-318.678 3477.57,-296.22 3487.3,-291.642 3486.44,-284.849 3496.57,-281.22 3591.77,-247.11 4307.11,-281.56 4406.57,-263.22 4412.65,-262.098 4418.91,-260.527 4425.07,-258.708"/>
<polygon fill="black" stroke="black" points="4426.17,-262.033 4434.64,-255.675 4424.05,-255.361 4426.17,-262.033"/>
<text text-anchor="middle" x="3565.07" y="-285.02" font-family="Times,serif" font-size="14.00"> static(calibration_target)</text>
</g>
<!-- n22&#45;&gt;n12 -->
<g id="edge5" class="edge"><title>n22&#45;&gt;n12</title>
<path fill="none" stroke="black" d="M3215.74,-339.302C2966.71,-335.768 1946.8,-320.497 1109.57,-296.22 720.567,-284.941 589.708,-422.362 234.569,-263.22 194.198,-245.13 183.482,-231.93 165.569,-191.48 162.489,-184.525 160.859,-176.653 160.097,-168.979"/>
<polygon fill="black" stroke="black" points="163.578,-168.54 159.542,-158.745 156.589,-168.92 163.578,-168.54"/>
<text text-anchor="middle" x="278.569" y="-232.65" font-family="Times,serif" font-size="14.00"> static(supports)</text>
</g>
<!-- n22&#45;&gt;n16 -->
<g id="edge14" class="edge"><title>n22&#45;&gt;n16</title>
<path fill="none" stroke="black" d="M3267.98,-314.15C3267.31,-303.385 3268.24,-291.123 3273.57,-281.22 3278.07,-272.856 3284.94,-265.772 3292.54,-259.897"/>
<polygon fill="black" stroke="black" points="3294.8,-262.588 3301,-253.993 3290.79,-256.848 3294.8,-262.588"/>
<text text-anchor="middle" x="3317.57" y="-285.02" font-family="Times,serif" font-size="14.00"> static(supports)</text>
</g>
<!-- n22&#45;&gt;n18 -->
<g id="edge36" class="edge"><title>n22&#45;&gt;n18</title>
<path fill="none" stroke="black" d="M3215.81,-340.32C2877.09,-341.417 1134.78,-343.156 1057.57,-263.22 1040.98,-246.041 1045.56,-230.127 1057.57,-209.48 1072.48,-183.842 1087.21,-185.165 1115.57,-176.48 1207.53,-148.317 1487.58,-137.626 1616.87,-134.114"/>
<polygon fill="black" stroke="black" points="1617.13,-137.608 1627.03,-133.844 1616.94,-130.61 1617.13,-137.608"/>
<text text-anchor="middle" x="1101.57" y="-232.65" font-family="Times,serif" font-size="14.00"> static(supports)</text>
</g>
<!-- n22&#45;&gt;n25 -->
<g id="edge16" class="edge"><title>n22&#45;&gt;n25</title>
<path fill="none" stroke="black" d="M3312.53,-321.654C3328.06,-314.165 3345.85,-305.175 3361.57,-296.22 3372.17,-290.178 3373.09,-285.372 3384.57,-281.22 3449.37,-257.777 3472.18,-281.681 3538.57,-263.22 3542.87,-262.025 3547.25,-260.548 3551.58,-258.911"/>
<polygon fill="black" stroke="black" points="3552.99,-262.119 3560.94,-255.116 3550.35,-255.633 3552.99,-262.119"/>
<text text-anchor="middle" x="3431.07" y="-285.02" font-family="Times,serif" font-size="14.00"> static(on_board)</text>
</g>
<!-- n23 -->
<g id="node23" class="node"><title>n23</title>
<ellipse fill="none" stroke="black" cx="1361.57" cy="-236.35" rx="62.8651" ry="26.7407"/>
<text text-anchor="middle" x="1361.57" y="-240.15" font-family="Times,serif" font-size="14.00">&lt;objective3&gt;</text>
<text text-anchor="middle" x="1361.57" y="-225.15" font-family="Times,serif" font-size="14.00">objective</text>
</g>
<!-- n23&#45;&gt;n12 -->
<g id="edge50" class="edge"><title>n23&#45;&gt;n12</title>
<path fill="none" stroke="black" d="M1317.63,-217.088C1308.5,-214 1298.84,-211.23 1289.57,-209.48 1151.07,-183.323 795.078,-211.546 655.569,-191.48 629.64,-187.751 624.406,-180.799 598.569,-176.48 491.755,-158.625 463.288,-169.642 355.569,-158.48 310.892,-153.851 260.629,-147.105 222.459,-141.662"/>
<polygon fill="black" stroke="black" points="222.925,-138.193 212.529,-140.237 221.93,-145.122 222.925,-138.193"/>
<text text-anchor="middle" x="747.569" y="-180.28" font-family="Times,serif" font-size="14.00"> end(communicated_image_data)</text>
</g>
<!-- n23&#45;&gt;n18 -->
<g id="edge47" class="edge"><title>n23&#45;&gt;n18</title>
<path fill="none" stroke="black" d="M1327.71,-213.653C1314.15,-202.339 1303.97,-188.41 1314.57,-176.48 1334.29,-154.271 1516.63,-141.311 1617.39,-135.788"/>
<polygon fill="black" stroke="black" points="1617.67,-139.277 1627.47,-135.245 1617.29,-132.288 1617.67,-139.277"/>
<text text-anchor="middle" x="1406.57" y="-180.28" font-family="Times,serif" font-size="14.00"> end(communicated_image_data)</text>
</g>
<!-- n23&#45;&gt;n19 -->
<g id="edge46" class="edge"><title>n23&#45;&gt;n19</title>
<path fill="none" stroke="black" d="M1424.47,-235.284C1526.22,-234.06 1732.8,-226.927 1903.57,-191.48 1923.8,-187.281 1927.25,-180.222 1947.57,-176.48 2171.4,-135.267 2874.04,-132.259 3104.53,-132.416"/>
<polygon fill="black" stroke="black" points="3104.81,-135.917 3114.82,-132.426 3104.82,-128.917 3104.81,-135.917"/>
<text text-anchor="middle" x="2003.57" y="-180.28" font-family="Times,serif" font-size="14.00"> static(visible_from)</text>
</g>
<!-- n24 -->
<g id="node24" class="node"><title>n24</title>
<ellipse fill="none" stroke="black" cx="2489.57" cy="-236.35" rx="67.7647" ry="26.7407"/>
<text text-anchor="middle" x="2489.57" y="-240.15" font-family="Times,serif" font-size="14.00">&lt;objective13&gt;</text>
<text text-anchor="middle" x="2489.57" y="-225.15" font-family="Times,serif" font-size="14.00">objective</text>
</g>
<!-- n24&#45;&gt;n18 -->
<g id="edge29" class="edge"><title>n24&#45;&gt;n18</title>
<path fill="none" stroke="black" d="M2455.5,-213.053C2445.43,-206.277 2434.46,-198.709 2424.57,-191.48 2415.88,-185.133 2415.62,-180.315 2405.57,-176.48 2345.34,-153.502 1917.27,-139.162 1750.16,-134.385"/>
<polygon fill="black" stroke="black" points="1750.11,-130.883 1740.01,-134.098 1749.91,-137.88 1750.11,-130.883"/>
<text text-anchor="middle" x="2516.57" y="-180.28" font-family="Times,serif" font-size="14.00"> end(communicated_image_data)</text>
</g>
<!-- n24&#45;&gt;n19 -->
<g id="edge28" class="edge"><title>n24&#45;&gt;n19</title>
<path fill="none" stroke="black" d="M2541.87,-219.028C2564.04,-211.514 2589.93,-201.943 2612.57,-191.48 2624.68,-185.883 2625.83,-180.45 2638.57,-176.48 2723.59,-149.976 2978.32,-138.678 3105.15,-134.592"/>
<polygon fill="black" stroke="black" points="3105.28,-138.09 3115.17,-134.276 3105.06,-131.094 3105.28,-138.09"/>
<text text-anchor="middle" x="2694.57" y="-180.28" font-family="Times,serif" font-size="14.00"> static(visible_from)</text>
</g>
<!-- n25&#45;&gt;n19 -->
<g id="edge25" class="edge"><title>n25&#45;&gt;n19</title>
<path fill="none" stroke="black" d="M3643.47,-233.217C3704.21,-229.391 3803.79,-218.992 3826.57,-191.48 3830.82,-186.345 3831.12,-181.351 3826.57,-176.48 3788.08,-135.293 3414.28,-131.684 3252.54,-132.076"/>
<polygon fill="black" stroke="black" points="3252.19,-128.577 3242.2,-132.108 3252.21,-135.577 3252.19,-128.577"/>
<text text-anchor="middle" x="3850.07" y="-180.28" font-family="Times,serif" font-size="14.00"> init(at)</text>
</g>
<!-- n25&#45;&gt;n25 -->
<g id="edge4" class="edge"><title>n25&#45;&gt;n25</title>
<path fill="none" stroke="black" d="M3640.66,-246.015C3652.61,-245.462 3661.65,-242.241 3661.65,-236.35 3661.65,-232.3 3657.38,-229.512 3650.82,-227.986"/>
<polygon fill="black" stroke="black" points="3651.03,-224.483 3640.66,-226.686 3650.14,-231.427 3651.03,-224.483"/>
<text text-anchor="middle" x="3755.15" y="-247.65" font-family="Times,serif" font-size="14.00"> static(equipped_for_imaging)</text>
<text text-anchor="middle" x="3755.15" y="-232.65" font-family="Times,serif" font-size="14.00">init(available)</text>
<text text-anchor="middle" x="3755.15" y="-217.65" font-family="Times,serif" font-size="14.00">static(equipped_for_soil_analysis)</text>
</g>
</g>
</svg>
