<?xml version="1.0" encoding="UTF-8" standalone="no"?>
<!DOCTYPE svg PUBLIC "-//W3C//DTD SVG 1.1//EN"
 "http://www.w3.org/Graphics/SVG/1.1/DTD/svg11.dtd">
<!-- Generated by graphviz version 2.38.0 (20140413.2041)
 -->
<!-- Title: Struc Pages: 1 -->
<svg width="887pt" height="400pt"
 viewBox="0.00 0.00 886.70 399.96" xmlns="http://www.w3.org/2000/svg" xmlns:xlink="http://www.w3.org/1999/xlink">
<g id="graph0" class="graph" transform="scale(1 1) rotate(0) translate(4 395.96)">
<title>Struc</title>
<polygon fill="white" stroke="none" points="-4,4 -4,-395.96 882.702,-395.96 882.702,4 -4,4"/>
<!-- n1 -->
<g id="node1" class="node"><title>n1</title>
<ellipse fill="none" stroke="black" cx="385.083" cy="-248.35" rx="48.1667" ry="26.7407"/>
<text text-anchor="middle" x="385.083" y="-252.15" font-family="Times,serif" font-size="14.00">&lt;rover0&gt;</text>
<text text-anchor="middle" x="385.083" y="-237.15" font-family="Times,serif" font-size="14.00">rover</text>
</g>
<!-- n1&#45;&gt;n1 -->
<g id="edge1" class="edge"><title>n1&#45;&gt;n1</title>
<path fill="none" stroke="black" d="M429.558,-258.786C441.806,-258.282 451.167,-254.803 451.167,-248.35 451.167,-243.813 446.539,-240.746 439.534,-239.15"/>
<polygon fill="black" stroke="black" points="439.912,-235.67 429.558,-237.914 439.052,-242.617 439.912,-235.67"/>
<text text-anchor="middle" x="544.667" y="-259.65" font-family="Times,serif" font-size="14.00"> static(equipped_for_imaging)</text>
<text text-anchor="middle" x="544.667" y="-244.65" font-family="Times,serif" font-size="14.00">init(available)</text>
<text text-anchor="middle" x="544.667" y="-229.65" font-family="Times,serif" font-size="14.00">static(equipped_for_soil_analysis)</text>
</g>
<!-- n8 -->
<g id="node8" class="node"><title>n8</title>
<ellipse fill="none" stroke="black" cx="461.083" cy="-135.61" rx="63.7795" ry="26.7407"/>
<text text-anchor="middle" x="461.083" y="-139.41" font-family="Times,serif" font-size="14.00">&lt;waypoint0&gt;</text>
<text text-anchor="middle" x="461.083" y="-124.41" font-family="Times,serif" font-size="14.00">waypoint</text>
</g>
<!-- n1&#45;&gt;n8 -->
<g id="edge11" class="edge"><title>n1&#45;&gt;n8</title>
<path fill="none" stroke="black" d="M405.029,-223.454C411.038,-215.934 417.512,-207.497 423.083,-199.48 429.426,-190.353 435.854,-180.154 441.574,-170.671"/>
<polygon fill="black" stroke="black" points="444.713,-172.241 446.816,-161.856 438.696,-168.663 444.713,-172.241"/>
<text text-anchor="middle" x="454.583" y="-188.28" font-family="Times,serif" font-size="14.00"> init(at)</text>
</g>
<!-- n2 -->
<g id="node2" class="node"><title>n2</title>
<ellipse fill="none" stroke="black" cx="124.083" cy="-361.09" rx="56.6326" ry="26.7574"/>
<ellipse fill="none" stroke="black" cx="124.083" cy="-361.09" rx="60.6372" ry="30.7407"/>
<text text-anchor="middle" x="124.083" y="-364.89" font-family="Times,serif" font-size="14.00">&lt;camera3&gt;</text>
<text text-anchor="middle" x="124.083" y="-349.89" font-family="Times,serif" font-size="14.00">camera</text>
</g>
<!-- n2&#45;&gt;n1 -->
<g id="edge8" class="edge"><title>n2&#45;&gt;n1</title>
<path fill="none" stroke="black" d="M175.192,-344.238C201.487,-335.613 233.86,-324.26 262.083,-312.22 289.541,-300.507 319.378,-285.321 342.787,-272.808"/>
<polygon fill="black" stroke="black" points="344.605,-275.804 351.75,-267.981 341.286,-269.641 344.605,-275.804"/>
<text text-anchor="middle" x="340.583" y="-301.02" font-family="Times,serif" font-size="14.00"> static(on_board)</text>
</g>
<!-- n4 -->
<g id="node4" class="node"><title>n4</title>
<ellipse fill="none" stroke="black" cx="237.083" cy="-248.35" rx="62.8691" ry="26.7574"/>
<ellipse fill="none" stroke="black" cx="237.083" cy="-248.35" rx="66.8651" ry="30.7407"/>
<text text-anchor="middle" x="237.083" y="-252.15" font-family="Times,serif" font-size="14.00">&lt;objective9&gt;</text>
<text text-anchor="middle" x="237.083" y="-237.15" font-family="Times,serif" font-size="14.00">objective</text>
</g>
<!-- n2&#45;&gt;n4 -->
<g id="edge12" class="edge"><title>n2&#45;&gt;n4</title>
<path fill="none" stroke="black" stroke-dasharray="5,2" d="M118.047,-330.206C117.376,-319.022 118.693,-306.736 125.083,-297.22 134.938,-282.546 150.3,-272.351 166.52,-265.274"/>
<polygon fill="black" stroke="black" points="168.132,-268.4 176.135,-261.458 165.549,-261.894 168.132,-268.4"/>
<text text-anchor="middle" x="193.583" y="-301.02" font-family="Times,serif" font-size="14.00"> static(calibration_target)</text>
</g>
<!-- n5 -->
<g id="node5" class="node"><title>n5</title>
<ellipse fill="none" stroke="black" cx="52.0833" cy="-135.61" rx="48.1603" ry="26.7574"/>
<ellipse fill="none" stroke="black" cx="52.0833" cy="-135.61" rx="52.1667" ry="30.7407"/>
<text text-anchor="middle" x="52.0833" y="-139.41" font-family="Times,serif" font-size="14.00">&lt;colour&gt;</text>
<text text-anchor="middle" x="52.0833" y="-124.41" font-family="Times,serif" font-size="14.00">mode</text>
</g>
<!-- n2&#45;&gt;n5 -->
<g id="edge6" class="edge"><title>n2&#45;&gt;n5</title>
<path fill="none" stroke="black" stroke-dasharray="5,2" d="M102.807,-331.863C92.4587,-316.908 80.6512,-297.824 73.0833,-279.22 59.4291,-245.655 61.0247,-235.378 56.0833,-199.48 55.0784,-192.18 54.3254,-184.368 53.7613,-176.819"/>
<polygon fill="black" stroke="black" points="57.2487,-176.51 53.1032,-166.76 50.2636,-176.967 57.2487,-176.51"/>
<text text-anchor="middle" x="117.083" y="-244.65" font-family="Times,serif" font-size="14.00"> static(supports)</text>
</g>
<!-- n3 -->
<g id="node3" class="node"><title>n3</title>
<ellipse fill="none" stroke="black" cx="708.083" cy="-248.35" rx="51.7379" ry="26.7407"/>
<text text-anchor="middle" x="708.083" y="-252.15" font-family="Times,serif" font-size="14.00">&lt;general&gt;</text>
<text text-anchor="middle" x="708.083" y="-237.15" font-family="Times,serif" font-size="14.00">lander</text>
</g>
<!-- n3&#45;&gt;n3 -->
<g id="edge2" class="edge"><title>n3&#45;&gt;n3</title>
<path fill="none" stroke="black" d="M755.915,-258.742C768.336,-258.103 777.702,-254.639 777.702,-248.35 777.702,-243.928 773.072,-240.903 766.005,-239.274"/>
<polygon fill="black" stroke="black" points="766.284,-235.781 755.915,-237.959 765.379,-242.723 766.284,-235.781"/>
<text text-anchor="middle" x="828.202" y="-244.65" font-family="Times,serif" font-size="14.00"> init(channel_free)</text>
</g>
<!-- n3&#45;&gt;n8 -->
<g id="edge5" class="edge"><title>n3&#45;&gt;n8</title>
<path fill="none" stroke="black" d="M671.763,-229.231C663.672,-225.288 655.112,-221.189 647.083,-217.48 602.921,-197.08 552.254,-175.146 514.965,-159.275"/>
<polygon fill="black" stroke="black" points="515.875,-155.859 505.303,-155.171 513.138,-162.302 515.875,-155.859"/>
<text text-anchor="middle" x="653.083" y="-188.28" font-family="Times,serif" font-size="14.00"> static(at_lander)</text>
</g>
<!-- n4&#45;&gt;n5 -->
<g id="edge14" class="edge"><title>n4&#45;&gt;n5</title>
<path fill="none" stroke="black" stroke-dasharray="5,2" d="M180.231,-231.853C132.299,-218.679 71.1467,-201.572 69.0833,-199.48 62.919,-193.232 58.93,-184.993 56.3638,-176.544"/>
<polygon fill="black" stroke="black" points="59.7192,-175.529 53.9599,-166.637 52.9166,-177.18 59.7192,-175.529"/>
<text text-anchor="middle" x="161.083" y="-188.28" font-family="Times,serif" font-size="14.00"> end(communicated_image_data)</text>
</g>
<!-- n6 -->
<g id="node6" class="node"><title>n6</title>
<ellipse fill="none" stroke="black" cx="360.083" cy="-26.8701" rx="63.7795" ry="26.7407"/>
<text text-anchor="middle" x="360.083" y="-30.6701" font-family="Times,serif" font-size="14.00">&lt;waypoint1&gt;</text>
<text text-anchor="middle" x="360.083" y="-15.6701" font-family="Times,serif" font-size="14.00">waypoint</text>
</g>
<!-- n4&#45;&gt;n6 -->
<g id="edge7" class="edge"><title>n4&#45;&gt;n6</title>
<path fill="none" stroke="black" stroke-dasharray="5,2" d="M247.461,-217.595C249.421,-211.625 251.386,-205.375 253.083,-199.48 265.073,-157.842 254.032,-142.039 276.083,-104.74 286.963,-86.3369 303.642,-69.7639 319.278,-56.7591"/>
<polygon fill="black" stroke="black" points="321.722,-59.2856 327.324,-50.2929 317.337,-53.8293 321.722,-59.2856"/>
<text text-anchor="middle" x="332.083" y="-131.91" font-family="Times,serif" font-size="14.00"> static(visible_from)</text>
</g>
<!-- n4&#45;&gt;n8 -->
<g id="edge15" class="edge"><title>n4&#45;&gt;n8</title>
<path fill="none" stroke="black" d="M261.928,-219.391C274.349,-206.999 290.295,-193.267 307.083,-184.48 337.838,-168.384 349.913,-176.71 383.083,-166.48 390.866,-164.08 398.988,-161.295 406.926,-158.41"/>
<polygon fill="black" stroke="black" points="408.326,-161.624 416.482,-154.861 405.889,-155.062 408.326,-161.624"/>
<text text-anchor="middle" x="363.083" y="-188.28" font-family="Times,serif" font-size="14.00"> static(visible_from)</text>
</g>
<!-- n6&#45;&gt;n8 -->
<g id="edge13" class="edge"><title>n6&#45;&gt;n8</title>
<path fill="none" stroke="black" d="M352.435,-53.634C350.702,-64.6141 350.901,-77.0886 357.083,-86.7401 360.289,-91.7454 383.207,-102.525 406.714,-112.59"/>
<polygon fill="black" stroke="black" points="405.489,-115.872 416.062,-116.545 408.217,-109.425 405.489,-115.872"/>
<text text-anchor="middle" x="396.083" y="-75.5401" font-family="Times,serif" font-size="14.00"> static(visible)</text>
</g>
<!-- n7 -->
<g id="node7" class="node"><title>n7</title>
<ellipse fill="none" stroke="black" cx="400.083" cy="-361.09" rx="67.3507" ry="26.7407"/>
<text text-anchor="middle" x="400.083" y="-364.89" font-family="Times,serif" font-size="14.00">&lt;rover0store&gt;</text>
<text text-anchor="middle" x="400.083" y="-349.89" font-family="Times,serif" font-size="14.00">store</text>
</g>
<!-- n7&#45;&gt;n1 -->
<g id="edge9" class="edge"><title>n7&#45;&gt;n1</title>
<path fill="none" stroke="black" d="M396.566,-334.127C394.592,-319.548 392.098,-301.138 389.939,-285.201"/>
<polygon fill="black" stroke="black" points="393.389,-284.591 388.578,-275.151 386.452,-285.531 393.389,-284.591"/>
<text text-anchor="middle" x="437.083" y="-301.02" font-family="Times,serif" font-size="14.00"> static(store_of)</text>
</g>
<!-- n7&#45;&gt;n7 -->
<g id="edge3" class="edge"><title>n7&#45;&gt;n7</title>
<path fill="none" stroke="black" d="M462.478,-371.251C475.706,-370.22 485.258,-366.833 485.258,-361.09 485.258,-356.918 480.216,-353.99 472.384,-352.304"/>
<polygon fill="black" stroke="black" points="472.864,-348.837 462.478,-350.929 471.902,-355.771 472.864,-348.837"/>
<text text-anchor="middle" x="518.258" y="-357.39" font-family="Times,serif" font-size="14.00"> init(empty)</text>
</g>
<!-- n8&#45;&gt;n6 -->
<g id="edge10" class="edge"><title>n8&#45;&gt;n6</title>
<path fill="none" stroke="black" d="M456.462,-108.595C453.238,-96.3473 447.876,-82.1745 439.083,-71.7401 432.265,-63.6491 423.556,-56.7763 414.426,-51.0415"/>
<polygon fill="black" stroke="black" points="415.992,-47.9035 405.591,-45.8892 412.466,-53.9504 415.992,-47.9035"/>
<text text-anchor="middle" x="487.083" y="-75.5401" font-family="Times,serif" font-size="14.00"> static(visible)</text>
</g>
<!-- n8&#45;&gt;n8 -->
<g id="edge4" class="edge"><title>n8&#45;&gt;n8</title>
<path fill="none" stroke="black" d="M520.16,-145.828C533.215,-144.868 542.723,-141.462 542.723,-135.61 542.723,-131.404 537.811,-128.462 530.2,-126.783"/>
<polygon fill="black" stroke="black" points="530.545,-123.298 520.16,-125.393 529.585,-130.231 530.545,-123.298"/>
<text text-anchor="middle" x="627.223" y="-139.41" font-family="Times,serif" font-size="14.00"> end(communicated_soil_data)</text>
<text text-anchor="middle" x="627.223" y="-124.41" font-family="Times,serif" font-size="14.00">init(at_soil_sample)</text>
</g>
</g>
</svg>
