<?xml version="1.0" encoding="UTF-8" standalone="no"?>
<!DOCTYPE svg PUBLIC "-//W3C//DTD SVG 1.1//EN"
 "http://www.w3.org/Graphics/SVG/1.1/DTD/svg11.dtd">
<!-- Generated by graphviz version 2.38.0 (20140413.2041)
 -->
<!-- Title: Struc Pages: 1 -->
<svg width="5292pt" height="376pt"
 viewBox="0.00 0.00 5291.74 375.96" xmlns="http://www.w3.org/2000/svg" xmlns:xlink="http://www.w3.org/1999/xlink">
<g id="graph0" class="graph" transform="scale(1 1) rotate(0) translate(4 371.96)">
<title>Struc</title>
<polygon fill="white" stroke="none" points="-4,4 -4,-371.96 5287.74,-371.96 5287.74,4 -4,4"/>
<!-- n1 -->
<g id="node1" class="node"><title>n1</title>
<ellipse fill="none" stroke="black" cx="2342.74" cy="-236.35" rx="51.7379" ry="26.7407"/>
<text text-anchor="middle" x="2342.74" y="-240.15" font-family="Times,serif" font-size="14.00">&lt;general&gt;</text>
<text text-anchor="middle" x="2342.74" y="-225.15" font-family="Times,serif" font-size="14.00">lander</text>
</g>
<!-- n1&#45;&gt;n1 -->
<g id="edge1" class="edge"><title>n1&#45;&gt;n1</title>
<path fill="none" stroke="black" d="M2391.22,-245.966C2403.32,-245.294 2412.36,-242.089 2412.36,-236.35 2412.36,-232.405 2408.09,-229.657 2401.48,-228.107"/>
<polygon fill="black" stroke="black" points="2401.59,-224.59 2391.22,-226.734 2400.67,-231.529 2401.59,-224.59"/>
<text text-anchor="middle" x="2462.86" y="-232.65" font-family="Times,serif" font-size="14.00"> init(channel_free)</text>
</g>
<!-- n6 -->
<g id="node6" class="node"><title>n6</title>
<ellipse fill="none" stroke="black" cx="2000.74" cy="-131.61" rx="63.7795" ry="26.7407"/>
<text text-anchor="middle" x="2000.74" y="-135.41" font-family="Times,serif" font-size="14.00">&lt;waypoint0&gt;</text>
<text text-anchor="middle" x="2000.74" y="-120.41" font-family="Times,serif" font-size="14.00">waypoint</text>
</g>
<!-- n1&#45;&gt;n6 -->
<g id="edge51" class="edge"><title>n1&#45;&gt;n6</title>
<path fill="none" stroke="black" d="M2339.22,-209.484C2336.25,-197.659 2330.8,-184.523 2320.74,-176.48 2283.86,-146.974 2156.93,-137.304 2074.45,-134.141"/>
<polygon fill="black" stroke="black" points="2074.49,-130.64 2064.37,-133.778 2074.24,-137.635 2074.49,-130.64"/>
<text text-anchor="middle" x="2378.74" y="-180.28" font-family="Times,serif" font-size="14.00"> static(at_lander)</text>
</g>
<!-- n2 -->
<g id="node2" class="node"><title>n2</title>
<ellipse fill="none" stroke="black" cx="4965.74" cy="-341.09" rx="56.6372" ry="26.7407"/>
<text text-anchor="middle" x="4965.74" y="-344.89" font-family="Times,serif" font-size="14.00">&lt;camera2&gt;</text>
<text text-anchor="middle" x="4965.74" y="-329.89" font-family="Times,serif" font-size="14.00">camera</text>
</g>
<!-- n18 -->
<g id="node18" class="node"><title>n18</title>
<ellipse fill="none" stroke="black" cx="2797.74" cy="-236.35" rx="48.1667" ry="26.7407"/>
<text text-anchor="middle" x="2797.74" y="-240.15" font-family="Times,serif" font-size="14.00">&lt;rover0&gt;</text>
<text text-anchor="middle" x="2797.74" y="-225.15" font-family="Times,serif" font-size="14.00">rover</text>
</g>
<!-- n2&#45;&gt;n18 -->
<g id="edge6" class="edge"><title>n2&#45;&gt;n18</title>
<path fill="none" stroke="black" d="M4910.16,-335.86C4764.89,-324.965 4361.86,-295.784 4025.74,-281.22 3693.51,-266.825 3610.03,-276.17 3277.74,-263.22 3125.18,-257.275 2945.53,-246.615 2855.42,-241.015"/>
<polygon fill="black" stroke="black" points="2855.61,-237.52 2845.41,-240.391 2855.17,-244.507 2855.61,-237.52"/>
<text text-anchor="middle" x="4356.24" y="-285.02" font-family="Times,serif" font-size="14.00"> static(on_board)</text>
</g>
<!-- n19 -->
<g id="node19" class="node"><title>n19</title>
<ellipse fill="none" stroke="black" cx="5134.74" cy="-236.35" rx="62.8651" ry="26.7407"/>
<text text-anchor="middle" x="5134.74" y="-240.15" font-family="Times,serif" font-size="14.00">&lt;objective8&gt;</text>
<text text-anchor="middle" x="5134.74" y="-225.15" font-family="Times,serif" font-size="14.00">objective</text>
</g>
<!-- n2&#45;&gt;n19 -->
<g id="edge8" class="edge"><title>n2&#45;&gt;n19</title>
<path fill="none" stroke="black" d="M4999.94,-319.299C5026.05,-303.427 5062.23,-281.43 5090.54,-264.222"/>
<polygon fill="black" stroke="black" points="5092.7,-267.003 5099.43,-258.818 5089.07,-261.022 5092.7,-267.003"/>
<text text-anchor="middle" x="5128.24" y="-285.02" font-family="Times,serif" font-size="14.00"> static(calibration_target)</text>
</g>
<!-- n20 -->
<g id="node20" class="node"><title>n20</title>
<ellipse fill="none" stroke="black" cx="3754.74" cy="-131.61" rx="53.9813" ry="26.7407"/>
<text text-anchor="middle" x="3754.74" y="-135.41" font-family="Times,serif" font-size="14.00">&lt;low_res&gt;</text>
<text text-anchor="middle" x="3754.74" y="-120.41" font-family="Times,serif" font-size="14.00">mode</text>
</g>
<!-- n2&#45;&gt;n20 -->
<g id="edge49" class="edge"><title>n2&#45;&gt;n20</title>
<path fill="none" stroke="black" d="M4969.92,-314.026C4973.09,-283.933 4972.81,-235.274 4943.74,-209.48 4912.37,-181.645 4607.91,-199.469 4566.74,-191.48 4546.87,-187.624 4543.59,-180.428 4523.74,-176.48 4389.47,-149.777 3978.04,-137.725 3818.71,-133.97"/>
<polygon fill="black" stroke="black" points="3818.66,-130.468 3808.58,-133.735 3818.5,-137.466 3818.66,-130.468"/>
<text text-anchor="middle" x="5012.74" y="-232.65" font-family="Times,serif" font-size="14.00"> static(supports)</text>
</g>
<!-- n3 -->
<g id="node3" class="node"><title>n3</title>
<ellipse fill="none" stroke="black" cx="1721.74" cy="-236.35" rx="62.8651" ry="26.7407"/>
<text text-anchor="middle" x="1721.74" y="-240.15" font-family="Times,serif" font-size="14.00">&lt;objective1&gt;</text>
<text text-anchor="middle" x="1721.74" y="-225.15" font-family="Times,serif" font-size="14.00">objective</text>
</g>
<!-- n4 -->
<g id="node4" class="node"><title>n4</title>
<ellipse fill="none" stroke="black" cx="415.741" cy="-131.61" rx="56.6372" ry="26.7407"/>
<text text-anchor="middle" x="415.741" y="-135.41" font-family="Times,serif" font-size="14.00">&lt;high_res&gt;</text>
<text text-anchor="middle" x="415.741" y="-120.41" font-family="Times,serif" font-size="14.00">mode</text>
</g>
<!-- n3&#45;&gt;n4 -->
<g id="edge16" class="edge"><title>n3&#45;&gt;n4</title>
<path fill="none" stroke="black" d="M1662.82,-226.41C1622.38,-220.626 1567.43,-213.458 1518.74,-209.48 1463.78,-204.99 1075.31,-208.15 1022.74,-191.48 1011.11,-187.791 1011.3,-180.394 999.741,-176.48 905.647,-144.624 614.931,-135.84 482.587,-133.466"/>
<polygon fill="black" stroke="black" points="482.631,-129.966 472.572,-133.293 482.51,-136.965 482.631,-129.966"/>
<text text-anchor="middle" x="1114.74" y="-180.28" font-family="Times,serif" font-size="14.00"> end(communicated_image_data)</text>
</g>
<!-- n5 -->
<g id="node5" class="node"><title>n5</title>
<ellipse fill="none" stroke="black" cx="1899.74" cy="-26.8701" rx="63.7795" ry="26.7407"/>
<text text-anchor="middle" x="1899.74" y="-30.6701" font-family="Times,serif" font-size="14.00">&lt;waypoint1&gt;</text>
<text text-anchor="middle" x="1899.74" y="-15.6701" font-family="Times,serif" font-size="14.00">waypoint</text>
</g>
<!-- n3&#45;&gt;n5 -->
<g id="edge27" class="edge"><title>n3&#45;&gt;n5</title>
<path fill="none" stroke="black" d="M1727.11,-209.514C1730.08,-198.767 1734.47,-186.49 1740.74,-176.48 1771.67,-127.132 1823,-83.3322 1858.95,-56.2907"/>
<polygon fill="black" stroke="black" points="1861.33,-58.8825 1867.28,-50.1159 1857.16,-53.2589 1861.33,-58.8825"/>
<text text-anchor="middle" x="1856.74" y="-127.91" font-family="Times,serif" font-size="14.00"> static(visible_from)</text>
</g>
<!-- n3&#45;&gt;n6 -->
<g id="edge15" class="edge"><title>n3&#45;&gt;n6</title>
<path fill="none" stroke="black" d="M1732.4,-209.724C1738.65,-197.806 1747.7,-184.52 1759.74,-176.48 1773.93,-167.002 1865.07,-152.163 1931.09,-142.412"/>
<polygon fill="black" stroke="black" points="1931.65,-145.866 1941.04,-140.952 1930.64,-138.94 1931.65,-145.866"/>
<text text-anchor="middle" x="1815.74" y="-180.28" font-family="Times,serif" font-size="14.00"> static(visible_from)</text>
</g>
<!-- n3&#45;&gt;n20 -->
<g id="edge47" class="edge"><title>n3&#45;&gt;n20</title>
<path fill="none" stroke="black" d="M1765.66,-216.999C1774.79,-213.917 1784.46,-211.173 1793.74,-209.48 1854.96,-198.308 2855.12,-212.361 2913.74,-191.48 2923.88,-187.87 2922.68,-180.278 2932.74,-176.48 3002.87,-150.018 3510.15,-137.464 3690.95,-133.795"/>
<polygon fill="black" stroke="black" points="3691.17,-137.291 3701.1,-133.592 3691.03,-130.293 3691.17,-137.291"/>
<text text-anchor="middle" x="3024.74" y="-180.28" font-family="Times,serif" font-size="14.00"> end(communicated_image_data)</text>
</g>
<!-- n24 -->
<g id="node24" class="node"><title>n24</title>
<ellipse fill="none" stroke="black" cx="4944.74" cy="-131.61" rx="48.1667" ry="26.7407"/>
<text text-anchor="middle" x="4944.74" y="-135.41" font-family="Times,serif" font-size="14.00">&lt;colour&gt;</text>
<text text-anchor="middle" x="4944.74" y="-120.41" font-family="Times,serif" font-size="14.00">mode</text>
</g>
<!-- n3&#45;&gt;n24 -->
<g id="edge40" class="edge"><title>n3&#45;&gt;n24</title>
<path fill="none" stroke="black" d="M1765.65,-216.939C1774.78,-213.862 1784.46,-211.135 1793.74,-209.48 1856.81,-198.241 4039.31,-212.725 4099.74,-191.48 4109.89,-187.912 4108.62,-180.137 4118.74,-176.48 4192.96,-149.657 4750.42,-168.114 4828.74,-158.48 4849.76,-155.894 4872.58,-151.222 4892.37,-146.553"/>
<polygon fill="black" stroke="black" points="4893.22,-149.949 4902.12,-144.197 4891.58,-143.144 4893.22,-149.949"/>
<text text-anchor="middle" x="4210.74" y="-180.28" font-family="Times,serif" font-size="14.00"> end(communicated_image_data)</text>
</g>
<!-- n5&#45;&gt;n6 -->
<g id="edge13" class="edge"><title>n5&#45;&gt;n6</title>
<path fill="none" stroke="black" d="M1894.31,-53.7484C1893.41,-64.7496 1894.4,-77.2091 1900.74,-86.7401 1909.02,-99.179 1921.68,-108.117 1935.24,-114.531"/>
<polygon fill="black" stroke="black" points="1934.15,-117.873 1944.72,-118.579 1936.9,-111.435 1934.15,-117.873"/>
<text text-anchor="middle" x="1939.74" y="-75.5401" font-family="Times,serif" font-size="14.00"> static(visible)</text>
</g>
<!-- n6&#45;&gt;n5 -->
<g id="edge35" class="edge"><title>n6&#45;&gt;n5</title>
<path fill="none" stroke="black" d="M1995.35,-104.771C1992.01,-93.6493 1986.78,-81.0841 1978.74,-71.7401 1971.84,-63.7212 1963.09,-56.8825 1953.95,-51.1588"/>
<polygon fill="black" stroke="black" points="1955.51,-48.0189 1945.11,-46.0107 1951.99,-54.0678 1955.51,-48.0189"/>
<text text-anchor="middle" x="2027.74" y="-75.5401" font-family="Times,serif" font-size="14.00"> static(visible)</text>
</g>
<!-- n6&#45;&gt;n6 -->
<g id="edge2" class="edge"><title>n6&#45;&gt;n6</title>
<path fill="none" stroke="black" d="M2060.55,-141.045C2073.22,-140.087 2082.38,-136.942 2082.38,-131.61 2082.38,-127.861 2077.85,-125.193 2070.76,-123.607"/>
<polygon fill="black" stroke="black" points="2070.93,-120.097 2060.55,-122.175 2069.96,-127.029 2070.93,-120.097"/>
<text text-anchor="middle" x="2166.88" y="-135.41" font-family="Times,serif" font-size="14.00"> end(communicated_soil_data)</text>
<text text-anchor="middle" x="2166.88" y="-120.41" font-family="Times,serif" font-size="14.00">init(at_soil_sample)</text>
</g>
<!-- n7 -->
<g id="node7" class="node"><title>n7</title>
<ellipse fill="none" stroke="black" cx="175.741" cy="-236.35" rx="67.7647" ry="26.7407"/>
<text text-anchor="middle" x="175.741" y="-240.15" font-family="Times,serif" font-size="14.00">&lt;objective10&gt;</text>
<text text-anchor="middle" x="175.741" y="-225.15" font-family="Times,serif" font-size="14.00">objective</text>
</g>
<!-- n7&#45;&gt;n4 -->
<g id="edge41" class="edge"><title>n7&#45;&gt;n4</title>
<path fill="none" stroke="black" d="M119.797,-220.972C90.884,-210.87 64.8525,-195.732 81.7413,-176.48 90.521,-166.472 255.836,-148.502 350.529,-138.963"/>
<polygon fill="black" stroke="black" points="350.987,-142.434 360.588,-137.954 350.289,-135.469 350.987,-142.434"/>
<text text-anchor="middle" x="173.741" y="-180.28" font-family="Times,serif" font-size="14.00"> end(communicated_image_data)</text>
</g>
<!-- n7&#45;&gt;n5 -->
<g id="edge14" class="edge"><title>n7&#45;&gt;n5</title>
<path fill="none" stroke="black" d="M127.105,-217.42C102.122,-207.722 76.1844,-196.689 72.7413,-191.48 69.0651,-185.919 69.0859,-182.055 72.7413,-176.48 116.586,-109.607 159.849,-122.828 237.741,-104.74 546.242,-33.1002 1545.74,-27.7893 1826.05,-27.7394"/>
<polygon fill="black" stroke="black" points="1826.11,-31.2393 1836.11,-27.7398 1826.11,-24.2393 1826.11,-31.2393"/>
<text text-anchor="middle" x="293.741" y="-127.91" font-family="Times,serif" font-size="14.00"> static(visible_from)</text>
</g>
<!-- n7&#45;&gt;n6 -->
<g id="edge48" class="edge"><title>n7&#45;&gt;n6</title>
<path fill="none" stroke="black" d="M224.647,-217.597C235.417,-214.344 246.859,-211.381 257.741,-209.48 453.604,-175.269 508.244,-221.831 704.741,-191.48 729.782,-187.612 734.658,-180.058 759.741,-176.48 991.651,-143.405 1580.18,-176.564 1813.74,-158.48 1853.15,-155.429 1896.93,-149.512 1932.21,-144.106"/>
<polygon fill="black" stroke="black" points="1933.06,-147.516 1942.4,-142.523 1931.98,-140.599 1933.06,-147.516"/>
<text text-anchor="middle" x="815.741" y="-180.28" font-family="Times,serif" font-size="14.00"> static(visible_from)</text>
</g>
<!-- n8 -->
<g id="node8" class="node"><title>n8</title>
<ellipse fill="none" stroke="black" cx="1446.74" cy="-341.09" rx="56.6372" ry="26.7407"/>
<text text-anchor="middle" x="1446.74" y="-344.89" font-family="Times,serif" font-size="14.00">&lt;camera0&gt;</text>
<text text-anchor="middle" x="1446.74" y="-329.89" font-family="Times,serif" font-size="14.00">camera</text>
</g>
<!-- n8&#45;&gt;n4 -->
<g id="edge38" class="edge"><title>n8&#45;&gt;n4</title>
<path fill="none" stroke="black" d="M1390.28,-339.295C1130.05,-335.352 57.0713,-315.932 10.7413,-263.22 -5.02662,-245.28 -1.55576,-229.956 10.7413,-209.48 26.8128,-182.72 42.9961,-185.948 72.7413,-176.48 122.971,-160.492 265.693,-145.795 350.375,-138.141"/>
<polygon fill="black" stroke="black" points="350.756,-141.621 360.404,-137.243 350.132,-134.649 350.756,-141.621"/>
<text text-anchor="middle" x="54.7413" y="-232.65" font-family="Times,serif" font-size="14.00"> static(supports)</text>
</g>
<!-- n11 -->
<g id="node11" class="node"><title>n11</title>
<ellipse fill="none" stroke="black" cx="1446.74" cy="-236.35" rx="62.8651" ry="26.7407"/>
<text text-anchor="middle" x="1446.74" y="-240.15" font-family="Times,serif" font-size="14.00">&lt;objective5&gt;</text>
<text text-anchor="middle" x="1446.74" y="-225.15" font-family="Times,serif" font-size="14.00">objective</text>
</g>
<!-- n8&#45;&gt;n11 -->
<g id="edge22" class="edge"><title>n8&#45;&gt;n11</title>
<path fill="none" stroke="black" d="M1446.74,-314.165C1446.74,-301.875 1446.74,-286.987 1446.74,-273.602"/>
<polygon fill="black" stroke="black" points="1450.24,-273.268 1446.74,-263.268 1443.24,-273.268 1450.24,-273.268"/>
<text text-anchor="middle" x="1515.24" y="-285.02" font-family="Times,serif" font-size="14.00"> static(calibration_target)</text>
</g>
<!-- n8&#45;&gt;n18 -->
<g id="edge26" class="edge"><title>n8&#45;&gt;n18</title>
<path fill="none" stroke="black" d="M1503.06,-338.003C1633.82,-332.939 1968.06,-318.734 2246.74,-296.22 2427.57,-281.612 2640.98,-256.581 2740.84,-244.41"/>
<polygon fill="black" stroke="black" points="2741.51,-247.854 2751.01,-243.167 2740.66,-240.906 2741.51,-247.854"/>
<text text-anchor="middle" x="2445.24" y="-285.02" font-family="Times,serif" font-size="14.00"> static(on_board)</text>
</g>
<!-- n9 -->
<g id="node9" class="node"><title>n9</title>
<ellipse fill="none" stroke="black" cx="861.741" cy="-236.35" rx="67.7647" ry="26.7407"/>
<text text-anchor="middle" x="861.741" y="-240.15" font-family="Times,serif" font-size="14.00">&lt;objective11&gt;</text>
<text text-anchor="middle" x="861.741" y="-225.15" font-family="Times,serif" font-size="14.00">objective</text>
</g>
<!-- n9&#45;&gt;n4 -->
<g id="edge30" class="edge"><title>n9&#45;&gt;n4</title>
<path fill="none" stroke="black" d="M797.522,-227.455C700.526,-215.478 527.182,-193.853 520.741,-191.48 509.289,-187.262 508.243,-182.698 497.741,-176.48 486.45,-169.795 474.063,-162.933 462.415,-156.68"/>
<polygon fill="black" stroke="black" points="463.738,-153.419 453.266,-151.811 460.45,-159.599 463.738,-153.419"/>
<text text-anchor="middle" x="612.741" y="-180.28" font-family="Times,serif" font-size="14.00"> end(communicated_image_data)</text>
</g>
<!-- n9&#45;&gt;n6 -->
<g id="edge31" class="edge"><title>n9&#45;&gt;n6</title>
<path fill="none" stroke="black" d="M866.508,-209.448C870.169,-197.308 876.579,-183.908 887.741,-176.48 909.159,-162.227 1788.09,-160.497 1813.74,-158.48 1853.14,-155.383 1896.92,-149.462 1932.21,-144.067"/>
<polygon fill="black" stroke="black" points="1933.05,-147.478 1942.4,-142.487 1931.98,-140.56 1933.05,-147.478"/>
<text text-anchor="middle" x="943.741" y="-180.28" font-family="Times,serif" font-size="14.00"> static(visible_from)</text>
</g>
<!-- n9&#45;&gt;n20 -->
<g id="edge25" class="edge"><title>n9&#45;&gt;n20</title>
<path fill="none" stroke="black" d="M928.525,-231.248C1026.39,-225.403 1214.54,-214.8 1374.74,-209.48 1437.21,-207.406 2440.86,-212.452 2499.74,-191.48 2509.88,-187.871 2508.64,-180.188 2518.74,-176.48 2628.91,-136.031 3452.35,-132.674 3690.44,-132.556"/>
<polygon fill="black" stroke="black" points="3690.67,-136.056 3700.67,-132.553 3690.67,-129.056 3690.67,-136.056"/>
<text text-anchor="middle" x="2610.74" y="-180.28" font-family="Times,serif" font-size="14.00"> end(communicated_image_data)</text>
</g>
<!-- n10 -->
<g id="node10" class="node"><title>n10</title>
<ellipse fill="none" stroke="black" cx="2881.74" cy="-341.09" rx="56.6372" ry="26.7407"/>
<text text-anchor="middle" x="2881.74" y="-344.89" font-family="Times,serif" font-size="14.00">&lt;camera1&gt;</text>
<text text-anchor="middle" x="2881.74" y="-329.89" font-family="Times,serif" font-size="14.00">camera</text>
</g>
<!-- n10&#45;&gt;n4 -->
<g id="edge39" class="edge"><title>n10&#45;&gt;n4</title>
<path fill="none" stroke="black" d="M2841.94,-321.847C2833.46,-318.714 2824.44,-315.923 2815.74,-314.22 2740.88,-299.563 1519.01,-297.951 1442.74,-296.22 1215.57,-291.064 638.282,-328.867 420.741,-263.22 362.708,-245.708 334.252,-244.43 304.741,-191.48 301.496,-185.657 300.926,-181.947 304.741,-176.48 318.02,-157.456 332.142,-166.949 353.741,-158.48 357.423,-157.037 361.217,-155.522 365.029,-153.98"/>
<polygon fill="black" stroke="black" points="366.555,-157.137 374.488,-150.115 363.907,-150.657 366.555,-157.137"/>
<text text-anchor="middle" x="464.741" y="-232.65" font-family="Times,serif" font-size="14.00"> static(supports)</text>
</g>
<!-- n10&#45;&gt;n11 -->
<g id="edge42" class="edge"><title>n10&#45;&gt;n11</title>
<path fill="none" stroke="black" d="M2841.93,-321.929C2833.45,-318.791 2824.43,-315.976 2815.74,-314.22 2661.04,-282.949 2263.38,-303.918 2105.74,-296.22 1902.79,-286.309 1851.93,-283.405 1649.74,-263.22 1605.19,-258.773 1555.3,-252.434 1516.13,-247.145"/>
<polygon fill="black" stroke="black" points="1516.54,-243.668 1506.16,-245.789 1515.6,-250.604 1516.54,-243.668"/>
<text text-anchor="middle" x="2174.24" y="-285.02" font-family="Times,serif" font-size="14.00"> static(calibration_target)</text>
</g>
<!-- n10&#45;&gt;n18 -->
<g id="edge21" class="edge"><title>n10&#45;&gt;n18</title>
<path fill="none" stroke="black" d="M2861.83,-315.742C2850.45,-301.824 2836.05,-284.205 2823.78,-269.198"/>
<polygon fill="black" stroke="black" points="2826.25,-266.695 2817.22,-261.169 2820.84,-271.126 2826.25,-266.695"/>
<text text-anchor="middle" x="2892.24" y="-285.02" font-family="Times,serif" font-size="14.00"> static(on_board)</text>
</g>
<!-- n10&#45;&gt;n20 -->
<g id="edge5" class="edge"><title>n10&#45;&gt;n20</title>
<path fill="none" stroke="black" d="M2938.42,-338.97C3121.26,-335.12 3688.24,-321.274 3766.74,-296.22 3852.72,-268.78 3986.31,-247.596 3930.74,-176.48 3916.64,-158.428 3861.71,-146.725 3816.93,-139.985"/>
<polygon fill="black" stroke="black" points="3817.36,-136.511 3806.96,-138.541 3816.36,-143.439 3817.36,-136.511"/>
<text text-anchor="middle" x="3987.74" y="-232.65" font-family="Times,serif" font-size="14.00"> static(supports)</text>
</g>
<!-- n10&#45;&gt;n24 -->
<g id="edge18" class="edge"><title>n10&#45;&gt;n24</title>
<path fill="none" stroke="black" d="M2938.28,-339.008C3217.81,-333.465 4445.28,-306.809 4609.74,-263.22 4661.57,-249.485 4666.11,-223.936 4717.74,-209.48 4763.48,-196.672 4894.74,-222.473 4930.74,-191.48 4937.44,-185.716 4941.24,-177.387 4943.34,-168.799"/>
<polygon fill="black" stroke="black" points="4946.82,-169.188 4945.08,-158.737 4939.92,-167.994 4946.82,-169.188"/>
<text text-anchor="middle" x="4762.74" y="-232.65" font-family="Times,serif" font-size="14.00"> static(supports)</text>
</g>
<!-- n11&#45;&gt;n5 -->
<g id="edge23" class="edge"><title>n11&#45;&gt;n5</title>
<path fill="none" stroke="black" d="M1383.87,-233.719C1267.45,-230.047 1027.84,-219.176 1002.74,-191.48 998.265,-186.54 998.43,-181.565 1002.74,-176.48 1108.49,-51.7702 1630.52,-31.5807 1825.82,-28.4161"/>
<polygon fill="black" stroke="black" points="1826.04,-31.9132 1835.99,-28.262 1825.94,-24.914 1826.04,-31.9132"/>
<text text-anchor="middle" x="1191.74" y="-127.91" font-family="Times,serif" font-size="14.00"> static(visible_from)</text>
</g>
<!-- n11&#45;&gt;n6 -->
<g id="edge44" class="edge"><title>n11&#45;&gt;n6</title>
<path fill="none" stroke="black" d="M1397.54,-219.522C1371.7,-208.751 1348.47,-193.415 1364.74,-176.48 1382.04,-158.478 1788.88,-160.693 1813.74,-158.48 1852.96,-154.99 1896.56,-149.078 1931.78,-143.786"/>
<polygon fill="black" stroke="black" points="1932.59,-147.202 1941.95,-142.24 1931.54,-140.282 1932.59,-147.202"/>
<text text-anchor="middle" x="1420.74" y="-180.28" font-family="Times,serif" font-size="14.00"> static(visible_from)</text>
</g>
<!-- n11&#45;&gt;n20 -->
<g id="edge53" class="edge"><title>n11&#45;&gt;n20</title>
<path fill="none" stroke="black" d="M1505.2,-226.173C1545.67,-220.244 1600.84,-213.002 1649.74,-209.48 1708.32,-205.262 2651.42,-211.213 2706.74,-191.48 2716.87,-187.865 2715.65,-180.224 2725.74,-176.48 2815.79,-143.053 3479.61,-134.833 3690.57,-133.055"/>
<polygon fill="black" stroke="black" points="3690.89,-136.553 3700.86,-132.97 3690.84,-129.553 3690.89,-136.553"/>
<text text-anchor="middle" x="2817.74" y="-180.28" font-family="Times,serif" font-size="14.00"> end(communicated_image_data)</text>
</g>
<!-- n12 -->
<g id="node12" class="node"><title>n12</title>
<ellipse fill="none" stroke="black" cx="2009.74" cy="-236.35" rx="62.8651" ry="26.7407"/>
<text text-anchor="middle" x="2009.74" y="-240.15" font-family="Times,serif" font-size="14.00">&lt;objective0&gt;</text>
<text text-anchor="middle" x="2009.74" y="-225.15" font-family="Times,serif" font-size="14.00">objective</text>
</g>
<!-- n12&#45;&gt;n4 -->
<g id="edge11" class="edge"><title>n12&#45;&gt;n4</title>
<path fill="none" stroke="black" d="M1965.39,-217.094C1956.38,-214.047 1946.86,-211.292 1937.74,-209.48 1771.47,-176.454 1725.12,-211.148 1556.74,-191.48 1520.81,-187.283 1512.7,-180.463 1476.74,-176.48 1251.31,-151.511 1193.36,-167.799 966.741,-158.48 791.726,-151.283 585.521,-141.164 482.04,-135.973"/>
<polygon fill="black" stroke="black" points="482.212,-132.477 472.049,-135.471 481.861,-139.468 482.212,-132.477"/>
<text text-anchor="middle" x="1648.74" y="-180.28" font-family="Times,serif" font-size="14.00"> end(communicated_image_data)</text>
</g>
<!-- n12&#45;&gt;n6 -->
<g id="edge9" class="edge"><title>n12&#45;&gt;n6</title>
<path fill="none" stroke="black" d="M2004.3,-209.468C2003.26,-203.581 2002.32,-197.335 2001.74,-191.48 2001.02,-184.221 2000.63,-176.433 2000.43,-168.977"/>
<polygon fill="black" stroke="black" points="2003.93,-168.69 2000.27,-158.745 1996.93,-168.799 2003.93,-168.69"/>
<text text-anchor="middle" x="2057.74" y="-180.28" font-family="Times,serif" font-size="14.00"> static(visible_from)</text>
</g>
<!-- n12&#45;&gt;n20 -->
<g id="edge36" class="edge"><title>n12&#45;&gt;n20</title>
<path fill="none" stroke="black" d="M2069.87,-228.353C2124.93,-222.252 2208.7,-213.732 2281.74,-209.48 2328.28,-206.771 3076.86,-207.242 3120.74,-191.48 3130.87,-187.843 3129.71,-180.368 3139.74,-176.48 3238.72,-138.119 3553.47,-132.866 3690.25,-132.446"/>
<polygon fill="black" stroke="black" points="3690.58,-135.945 3700.57,-132.422 3690.56,-128.945 3690.58,-135.945"/>
<text text-anchor="middle" x="3231.74" y="-180.28" font-family="Times,serif" font-size="14.00"> end(communicated_image_data)</text>
</g>
<!-- n13 -->
<g id="node13" class="node"><title>n13</title>
<ellipse fill="none" stroke="black" cx="2655.74" cy="-341.09" rx="67.3507" ry="26.7407"/>
<text text-anchor="middle" x="2655.74" y="-344.89" font-family="Times,serif" font-size="14.00">&lt;rover0store&gt;</text>
<text text-anchor="middle" x="2655.74" y="-329.89" font-family="Times,serif" font-size="14.00">store</text>
</g>
<!-- n13&#45;&gt;n13 -->
<g id="edge3" class="edge"><title>n13&#45;&gt;n13</title>
<path fill="none" stroke="black" d="M2718.89,-350.468C2731.72,-349.447 2740.92,-346.321 2740.92,-341.09 2740.92,-337.413 2736.37,-334.775 2729.21,-333.179"/>
<polygon fill="black" stroke="black" points="2729.28,-329.653 2718.89,-331.712 2728.3,-336.584 2729.28,-329.653"/>
<text text-anchor="middle" x="2773.92" y="-337.39" font-family="Times,serif" font-size="14.00"> init(empty)</text>
</g>
<!-- n13&#45;&gt;n18 -->
<g id="edge34" class="edge"><title>n13&#45;&gt;n18</title>
<path fill="none" stroke="black" d="M2687.26,-317.289C2709.09,-301.494 2738.22,-280.414 2761.09,-263.868"/>
<polygon fill="black" stroke="black" points="2763.16,-266.692 2769.21,-257.995 2759.05,-261.021 2763.16,-266.692"/>
<text text-anchor="middle" x="2778.74" y="-285.02" font-family="Times,serif" font-size="14.00"> static(store_of)</text>
</g>
<!-- n14 -->
<g id="node14" class="node"><title>n14</title>
<ellipse fill="none" stroke="black" cx="3725.74" cy="-236.35" rx="62.8651" ry="26.7407"/>
<text text-anchor="middle" x="3725.74" y="-240.15" font-family="Times,serif" font-size="14.00">&lt;objective3&gt;</text>
<text text-anchor="middle" x="3725.74" y="-225.15" font-family="Times,serif" font-size="14.00">objective</text>
</g>
<!-- n14&#45;&gt;n6 -->
<g id="edge54" class="edge"><title>n14&#45;&gt;n6</title>
<path fill="none" stroke="black" d="M3680.51,-217.667C3662.3,-210.141 3641.27,-200.927 3622.74,-191.48 3611.2,-185.594 3610.18,-180.11 3597.74,-176.48 3450.8,-133.598 2369.72,-132.051 2074.85,-132.437"/>
<polygon fill="black" stroke="black" points="2074.69,-128.938 2064.7,-132.452 2074.7,-135.938 2074.69,-128.938"/>
<text text-anchor="middle" x="3678.74" y="-180.28" font-family="Times,serif" font-size="14.00"> static(visible_from)</text>
</g>
<!-- n14&#45;&gt;n20 -->
<g id="edge33" class="edge"><title>n14&#45;&gt;n20</title>
<path fill="none" stroke="black" d="M3733.06,-209.425C3736.56,-197.014 3740.81,-181.952 3744.62,-168.464"/>
<polygon fill="black" stroke="black" points="3748.08,-169.102 3747.43,-158.528 3741.34,-167.201 3748.08,-169.102"/>
<text text-anchor="middle" x="3834.74" y="-180.28" font-family="Times,serif" font-size="14.00"> end(communicated_image_data)</text>
</g>
<!-- n15 -->
<g id="node15" class="node"><title>n15</title>
<ellipse fill="none" stroke="black" cx="4328.74" cy="-236.35" rx="62.8651" ry="26.7407"/>
<text text-anchor="middle" x="4328.74" y="-240.15" font-family="Times,serif" font-size="14.00">&lt;objective4&gt;</text>
<text text-anchor="middle" x="4328.74" y="-225.15" font-family="Times,serif" font-size="14.00">objective</text>
</g>
<!-- n15&#45;&gt;n4 -->
<g id="edge10" class="edge"><title>n15&#45;&gt;n4</title>
<path fill="none" stroke="black" d="M4268.39,-228.393C4211.17,-222.137 4122.73,-213.355 4045.74,-209.48 3992.67,-206.809 2182.86,-209.144 2132.74,-191.48 2122.59,-187.904 2123.88,-180.088 2113.74,-176.48 2053.7,-155.108 1030.44,-160.475 966.741,-158.48 791.609,-152.996 585.357,-142.136 481.928,-136.386"/>
<polygon fill="black" stroke="black" points="481.821,-132.875 471.641,-135.812 481.431,-139.864 481.821,-132.875"/>
<text text-anchor="middle" x="2224.74" y="-180.28" font-family="Times,serif" font-size="14.00"> end(communicated_image_data)</text>
</g>
<!-- n15&#45;&gt;n5 -->
<g id="edge28" class="edge"><title>n15&#45;&gt;n5</title>
<path fill="none" stroke="black" d="M4385.21,-224.466C4413.5,-219.322 4448.34,-213.453 4479.74,-209.48 4503.96,-206.416 4682.2,-209.438 4698.74,-191.48 4703.26,-186.577 4703.26,-181.382 4698.74,-176.48 4603.63,-73.309 2407.06,-35.4026 1973.63,-28.9154"/>
<polygon fill="black" stroke="black" points="1973.47,-25.4127 1963.42,-28.7635 1973.36,-32.4119 1973.47,-25.4127"/>
<text text-anchor="middle" x="4713.74" y="-127.91" font-family="Times,serif" font-size="14.00"> static(visible_from)</text>
</g>
<!-- n15&#45;&gt;n6 -->
<g id="edge12" class="edge"><title>n15&#45;&gt;n6</title>
<path fill="none" stroke="black" d="M4267.38,-229.869C4198.81,-223.187 4084.7,-210.392 3987.74,-191.48 3962.03,-186.465 3956.68,-180.136 3930.74,-176.48 3744.89,-150.284 2406.56,-136.343 2074.94,-133.267"/>
<polygon fill="black" stroke="black" points="2074.52,-129.763 2064.49,-133.171 2074.46,-136.763 2074.52,-129.763"/>
<text text-anchor="middle" x="4043.74" y="-180.28" font-family="Times,serif" font-size="14.00"> static(visible_from)</text>
</g>
<!-- n15&#45;&gt;n20 -->
<g id="edge46" class="edge"><title>n15&#45;&gt;n20</title>
<path fill="none" stroke="black" d="M4325.42,-209.232C4322.5,-197.347 4317.02,-184.233 4306.74,-176.48 4268.55,-147.67 3955.98,-137.139 3818.84,-133.88"/>
<polygon fill="black" stroke="black" points="3818.57,-130.372 3808.49,-133.64 3818.4,-137.371 3818.57,-130.372"/>
<text text-anchor="middle" x="4409.74" y="-180.28" font-family="Times,serif" font-size="14.00"> end(communicated_image_data)</text>
</g>
<!-- n15&#45;&gt;n24 -->
<g id="edge43" class="edge"><title>n15&#45;&gt;n24</title>
<path fill="none" stroke="black" d="M4386.82,-225.924C4421.31,-220.561 4465.94,-214.028 4505.74,-209.48 4602.33,-198.445 4631.77,-222.996 4723.74,-191.48 4735.29,-187.524 4735.49,-181.199 4746.74,-176.48 4781.15,-162.054 4792.31,-166.541 4828.74,-158.48 4848.99,-154.001 4871.21,-149.052 4890.74,-144.693"/>
<polygon fill="black" stroke="black" points="4891.69,-148.068 4900.68,-142.472 4890.16,-141.236 4891.69,-148.068"/>
<text text-anchor="middle" x="4838.74" y="-180.28" font-family="Times,serif" font-size="14.00"> end(communicated_image_data)</text>
</g>
<!-- n16 -->
<g id="node16" class="node"><title>n16</title>
<ellipse fill="none" stroke="black" cx="580.741" cy="-236.35" rx="62.8651" ry="26.7407"/>
<text text-anchor="middle" x="580.741" y="-240.15" font-family="Times,serif" font-size="14.00">&lt;objective7&gt;</text>
<text text-anchor="middle" x="580.741" y="-225.15" font-family="Times,serif" font-size="14.00">objective</text>
</g>
<!-- n16&#45;&gt;n4 -->
<g id="edge55" class="edge"><title>n16&#45;&gt;n4</title>
<path fill="none" stroke="black" d="M521.101,-227.527C444.473,-217.19 320.44,-199.369 313.741,-191.48 296.231,-170.859 324.069,-155.827 355.055,-146.117"/>
<polygon fill="black" stroke="black" points="356.119,-149.452 364.726,-143.273 354.145,-142.736 356.119,-149.452"/>
<text text-anchor="middle" x="405.741" y="-180.28" font-family="Times,serif" font-size="14.00"> end(communicated_image_data)</text>
</g>
<!-- n16&#45;&gt;n6 -->
<g id="edge56" class="edge"><title>n16&#45;&gt;n6</title>
<path fill="none" stroke="black" d="M639.522,-226.575C680.205,-220.826 735.65,-213.633 784.741,-209.48 878.27,-201.569 1115.02,-211.404 1206.74,-191.48 1224.08,-187.714 1226.38,-180.151 1243.74,-176.48 1367.73,-150.265 1687.46,-169.179 1813.74,-158.48 1852.98,-155.156 1896.57,-149.254 1931.79,-143.926"/>
<polygon fill="black" stroke="black" points="1932.61,-147.342 1941.96,-142.368 1931.55,-140.423 1932.61,-147.342"/>
<text text-anchor="middle" x="1299.74" y="-180.28" font-family="Times,serif" font-size="14.00"> static(visible_from)</text>
</g>
<!-- n17 -->
<g id="node17" class="node"><title>n17</title>
<ellipse fill="none" stroke="black" cx="3349.74" cy="-236.35" rx="62.8651" ry="26.7407"/>
<text text-anchor="middle" x="3349.74" y="-240.15" font-family="Times,serif" font-size="14.00">&lt;objective2&gt;</text>
<text text-anchor="middle" x="3349.74" y="-225.15" font-family="Times,serif" font-size="14.00">objective</text>
</g>
<!-- n17&#45;&gt;n6 -->
<g id="edge52" class="edge"><title>n17&#45;&gt;n6</title>
<path fill="none" stroke="black" d="M3346.64,-209.326C3343.78,-197.31 3338.29,-184.057 3327.74,-176.48 3276.63,-139.751 2346.56,-133.761 2074.75,-132.794"/>
<polygon fill="black" stroke="black" points="2074.61,-129.294 2064.6,-132.759 2074.58,-136.294 2074.61,-129.294"/>
<text text-anchor="middle" x="3395.74" y="-180.28" font-family="Times,serif" font-size="14.00"> static(visible_from)</text>
</g>
<!-- n18&#45;&gt;n6 -->
<g id="edge29" class="edge"><title>n18&#45;&gt;n6</title>
<path fill="none" stroke="black" d="M2749.8,-234.166C2683.15,-231.399 2559.35,-222.181 2458.74,-191.48 2444.48,-187.129 2443.06,-180.641 2428.74,-176.48 2308.12,-141.418 2161.29,-133.49 2074.72,-132.177"/>
<polygon fill="black" stroke="black" points="2074.52,-128.674 2064.47,-132.048 2074.43,-135.673 2074.52,-128.674"/>
<text text-anchor="middle" x="2479.24" y="-180.28" font-family="Times,serif" font-size="14.00"> init(at)</text>
</g>
<!-- n18&#45;&gt;n18 -->
<g id="edge4" class="edge"><title>n18&#45;&gt;n18</title>
<path fill="none" stroke="black" d="M2842.84,-246.015C2854.78,-245.462 2863.82,-242.241 2863.82,-236.35 2863.82,-232.3 2859.55,-229.512 2853,-227.986"/>
<polygon fill="black" stroke="black" points="2853.2,-224.483 2842.84,-226.686 2852.31,-231.427 2853.2,-224.483"/>
<text text-anchor="middle" x="2957.32" y="-247.65" font-family="Times,serif" font-size="14.00"> static(equipped_for_imaging)</text>
<text text-anchor="middle" x="2957.32" y="-232.65" font-family="Times,serif" font-size="14.00">init(available)</text>
<text text-anchor="middle" x="2957.32" y="-217.65" font-family="Times,serif" font-size="14.00">static(equipped_for_soil_analysis)</text>
</g>
<!-- n19&#45;&gt;n5 -->
<g id="edge19" class="edge"><title>n19&#45;&gt;n5</title>
<path fill="none" stroke="black" d="M5171.99,-214.41C5186.2,-203.644 5197,-189.975 5187.74,-176.48 5137.61,-103.421 5088.62,-122.12 5001.74,-104.74 4696.61,-43.7002 2415.34,-30.2252 1973.66,-28.1787"/>
<polygon fill="black" stroke="black" points="1973.59,-24.6784 1963.58,-28.1325 1973.56,-31.6784 1973.59,-24.6784"/>
<text text-anchor="middle" x="5227.74" y="-127.91" font-family="Times,serif" font-size="14.00"> static(visible_from)</text>
</g>
<!-- n19&#45;&gt;n6 -->
<g id="edge24" class="edge"><title>n19&#45;&gt;n6</title>
<path fill="none" stroke="black" d="M5089.3,-217.712C5079.06,-214.408 5068.14,-211.395 5057.74,-209.48 4860.89,-173.242 4807.04,-210.067 4607.74,-191.48 4562.12,-187.225 4551.41,-180.222 4505.74,-176.48 4443.6,-171.388 2482.45,-140.212 2074.58,-133.773"/>
<polygon fill="black" stroke="black" points="2074.44,-130.27 2064.39,-133.612 2074.33,-137.27 2074.44,-130.27"/>
<text text-anchor="middle" x="4663.74" y="-180.28" font-family="Times,serif" font-size="14.00"> static(visible_from)</text>
</g>
<!-- n19&#45;&gt;n24 -->
<g id="edge50" class="edge"><title>n19&#45;&gt;n24</title>
<path fill="none" stroke="black" d="M5086.28,-219.049C5076.82,-215.871 5066.97,-212.568 5057.74,-209.48 5033.75,-201.452 5025.27,-204.768 5003.74,-191.48 4991.77,-184.091 4980.38,-173.824 4970.86,-163.931"/>
<polygon fill="black" stroke="black" points="4973.33,-161.446 4963.97,-156.492 4968.2,-166.205 4973.33,-161.446"/>
<text text-anchor="middle" x="5095.74" y="-180.28" font-family="Times,serif" font-size="14.00"> end(communicated_image_data)</text>
</g>
<!-- n21 -->
<g id="node21" class="node"><title>n21</title>
<ellipse fill="none" stroke="black" cx="4354.74" cy="-341.09" rx="56.6372" ry="26.7407"/>
<text text-anchor="middle" x="4354.74" y="-344.89" font-family="Times,serif" font-size="14.00">&lt;camera3&gt;</text>
<text text-anchor="middle" x="4354.74" y="-329.89" font-family="Times,serif" font-size="14.00">camera</text>
</g>
<!-- n21&#45;&gt;n18 -->
<g id="edge7" class="edge"><title>n21&#45;&gt;n18</title>
<path fill="none" stroke="black" d="M4298.87,-336.404C4056.97,-320.442 3101.16,-257.371 2855.53,-241.164"/>
<polygon fill="black" stroke="black" points="2855.6,-237.66 2845.39,-240.494 2855.14,-244.645 2855.6,-237.66"/>
<text text-anchor="middle" x="3716.24" y="-285.02" font-family="Times,serif" font-size="14.00"> static(on_board)</text>
</g>
<!-- n21&#45;&gt;n20 -->
<g id="edge20" class="edge"><title>n21&#45;&gt;n20</title>
<path fill="none" stroke="black" d="M4393.98,-321.567C4453.56,-291.113 4554.94,-228.638 4505.74,-176.48 4482.32,-151.65 3996.19,-138.115 3818.8,-133.988"/>
<polygon fill="black" stroke="black" points="3818.65,-130.484 3808.58,-133.753 3818.49,-137.482 3818.65,-130.484"/>
<text text-anchor="middle" x="4561.74" y="-232.65" font-family="Times,serif" font-size="14.00"> static(supports)</text>
</g>
<!-- n23 -->
<g id="node23" class="node"><title>n23</title>
<ellipse fill="none" stroke="black" cx="3523.74" cy="-236.35" rx="62.8651" ry="26.7407"/>
<text text-anchor="middle" x="3523.74" y="-240.15" font-family="Times,serif" font-size="14.00">&lt;objective9&gt;</text>
<text text-anchor="middle" x="3523.74" y="-225.15" font-family="Times,serif" font-size="14.00">objective</text>
</g>
<!-- n21&#45;&gt;n23 -->
<g id="edge45" class="edge"><title>n21&#45;&gt;n23</title>
<path fill="none" stroke="black" d="M4299.09,-335.649C4180.19,-325.796 3892.72,-300.031 3653.74,-263.22 3632.53,-259.954 3609.53,-255.635 3588.85,-251.464"/>
<polygon fill="black" stroke="black" points="3589.4,-248.004 3578.9,-249.433 3588,-254.862 3589.4,-248.004"/>
<text text-anchor="middle" x="3953.24" y="-285.02" font-family="Times,serif" font-size="14.00"> static(calibration_target)</text>
</g>
<!-- n21&#45;&gt;n24 -->
<g id="edge17" class="edge"><title>n21&#45;&gt;n24</title>
<path fill="none" stroke="black" d="M4411.24,-338.504C4485.79,-335.287 4620.56,-325.563 4731.74,-296.22 4768.14,-286.615 4779.36,-285.444 4809.74,-263.22 4835.12,-244.659 4828.46,-225.115 4855.74,-209.48 4894.92,-187.023 4926.78,-226.125 4955.74,-191.48 4961.41,-184.699 4962.1,-175.931 4960.5,-167.242"/>
<polygon fill="black" stroke="black" points="4963.87,-166.297 4957.85,-157.576 4957.11,-168.145 4963.87,-166.297"/>
<text text-anchor="middle" x="4899.74" y="-232.65" font-family="Times,serif" font-size="14.00"> static(supports)</text>
</g>
<!-- n22 -->
<g id="node22" class="node"><title>n22</title>
<ellipse fill="none" stroke="black" cx="1865.74" cy="-236.35" rx="62.8651" ry="26.7407"/>
<text text-anchor="middle" x="1865.74" y="-240.15" font-family="Times,serif" font-size="14.00">&lt;objective6&gt;</text>
<text text-anchor="middle" x="1865.74" y="-225.15" font-family="Times,serif" font-size="14.00">objective</text>
</g>
<!-- n22&#45;&gt;n6 -->
<g id="edge37" class="edge"><title>n22&#45;&gt;n6</title>
<path fill="none" stroke="black" d="M1869,-209.291C1871.61,-197.993 1876.3,-185.349 1884.74,-176.48 1897.83,-162.729 1915.66,-153.246 1933.42,-146.723"/>
<polygon fill="black" stroke="black" points="1934.9,-149.917 1943.25,-143.395 1932.65,-143.287 1934.9,-149.917"/>
<text text-anchor="middle" x="1940.74" y="-180.28" font-family="Times,serif" font-size="14.00"> static(visible_from)</text>
</g>
<!-- n23&#45;&gt;n6 -->
<g id="edge32" class="edge"><title>n23&#45;&gt;n6</title>
<path fill="none" stroke="black" d="M3503.13,-210.756C3490.83,-198.002 3474.07,-183.629 3455.74,-176.48 3390.98,-151.225 2362.69,-136.975 2075.01,-133.469"/>
<polygon fill="black" stroke="black" points="2074.72,-129.966 2064.68,-133.344 2074.64,-136.965 2074.72,-129.966"/>
<text text-anchor="middle" x="3537.74" y="-180.28" font-family="Times,serif" font-size="14.00"> static(visible_from)</text>
</g>
</g>
</svg>
