<?xml version="1.0" encoding="UTF-8" standalone="no"?>
<!DOCTYPE svg PUBLIC "-//W3C//DTD SVG 1.1//EN"
 "http://www.w3.org/Graphics/SVG/1.1/DTD/svg11.dtd">
<!-- Generated by graphviz version 2.38.0 (20140413.2041)
 -->
<!-- Title: Struc Pages: 1 -->
<svg width="6198pt" height="376pt"
 viewBox="0.00 0.00 6197.93 375.96" xmlns="http://www.w3.org/2000/svg" xmlns:xlink="http://www.w3.org/1999/xlink">
<g id="graph0" class="graph" transform="scale(1 1) rotate(0) translate(4 371.96)">
<title>Struc</title>
<polygon fill="white" stroke="none" points="-4,4 -4,-371.96 6193.93,-371.96 6193.93,4 -4,4"/>
<!-- n1 -->
<g id="node1" class="node"><title>n1</title>
<ellipse fill="none" stroke="black" cx="2625.93" cy="-341.09" rx="67.3507" ry="26.7407"/>
<text text-anchor="middle" x="2625.93" y="-344.89" font-family="Times,serif" font-size="14.00">&lt;rover0store&gt;</text>
<text text-anchor="middle" x="2625.93" y="-329.89" font-family="Times,serif" font-size="14.00">store</text>
</g>
<!-- n1&#45;&gt;n1 -->
<g id="edge1" class="edge"><title>n1&#45;&gt;n1</title>
<path fill="none" stroke="black" d="M2689.08,-350.468C2701.92,-349.447 2711.11,-346.321 2711.11,-341.09 2711.11,-337.413 2706.56,-334.775 2699.4,-333.179"/>
<polygon fill="black" stroke="black" points="2699.47,-329.653 2689.08,-331.712 2698.49,-336.584 2699.47,-329.653"/>
<text text-anchor="middle" x="2744.11" y="-337.39" font-family="Times,serif" font-size="14.00"> init(empty)</text>
</g>
<!-- n8 -->
<g id="node8" class="node"><title>n8</title>
<ellipse fill="none" stroke="black" cx="2625.93" cy="-236.35" rx="48.1667" ry="26.7407"/>
<text text-anchor="middle" x="2625.93" y="-240.15" font-family="Times,serif" font-size="14.00">&lt;rover0&gt;</text>
<text text-anchor="middle" x="2625.93" y="-225.15" font-family="Times,serif" font-size="14.00">rover</text>
</g>
<!-- n1&#45;&gt;n8 -->
<g id="edge32" class="edge"><title>n1&#45;&gt;n8</title>
<path fill="none" stroke="black" d="M2625.93,-314.165C2625.93,-301.875 2625.93,-286.987 2625.93,-273.602"/>
<polygon fill="black" stroke="black" points="2629.43,-273.268 2625.93,-263.268 2622.43,-273.268 2629.43,-273.268"/>
<text text-anchor="middle" x="2668.93" y="-285.02" font-family="Times,serif" font-size="14.00"> static(store_of)</text>
</g>
<!-- n2 -->
<g id="node2" class="node"><title>n2</title>
<ellipse fill="none" stroke="black" cx="294.933" cy="-341.09" rx="56.6372" ry="26.7407"/>
<text text-anchor="middle" x="294.933" y="-344.89" font-family="Times,serif" font-size="14.00">&lt;camera0&gt;</text>
<text text-anchor="middle" x="294.933" y="-329.89" font-family="Times,serif" font-size="14.00">camera</text>
</g>
<!-- n2&#45;&gt;n8 -->
<g id="edge10" class="edge"><title>n2&#45;&gt;n8</title>
<path fill="none" stroke="black" d="M351.614,-339.144C650.592,-333.995 2046.89,-307.917 2476.93,-263.22 2508.45,-259.945 2543.36,-254.009 2571.47,-248.648"/>
<polygon fill="black" stroke="black" points="2572.34,-252.044 2581.49,-246.705 2571.01,-245.171 2572.34,-252.044"/>
<text text-anchor="middle" x="2257.43" y="-285.02" font-family="Times,serif" font-size="14.00"> static(on_board)</text>
</g>
<!-- n10 -->
<g id="node10" class="node"><title>n10</title>
<ellipse fill="none" stroke="black" cx="430.933" cy="-236.35" rx="62.8651" ry="26.7407"/>
<text text-anchor="middle" x="430.933" y="-240.15" font-family="Times,serif" font-size="14.00">&lt;objective5&gt;</text>
<text text-anchor="middle" x="430.933" y="-225.15" font-family="Times,serif" font-size="14.00">objective</text>
</g>
<!-- n2&#45;&gt;n10 -->
<g id="edge13" class="edge"><title>n2&#45;&gt;n10</title>
<path fill="none" stroke="black" d="M289.033,-314.155C287.996,-303.015 289.003,-290.461 295.933,-281.22 312.125,-259.627 328.249,-271.519 353.933,-263.22 360.009,-261.257 366.345,-259.179 372.658,-257.088"/>
<polygon fill="black" stroke="black" points="374.137,-260.285 382.52,-253.806 371.927,-253.643 374.137,-260.285"/>
<text text-anchor="middle" x="364.433" y="-285.02" font-family="Times,serif" font-size="14.00"> static(calibration_target)</text>
</g>
<!-- n11 -->
<g id="node11" class="node"><title>n11</title>
<ellipse fill="none" stroke="black" cx="1119.93" cy="-131.61" rx="56.6372" ry="26.7407"/>
<text text-anchor="middle" x="1119.93" y="-135.41" font-family="Times,serif" font-size="14.00">&lt;high_res&gt;</text>
<text text-anchor="middle" x="1119.93" y="-120.41" font-family="Times,serif" font-size="14.00">mode</text>
</g>
<!-- n2&#45;&gt;n11 -->
<g id="edge6" class="edge"><title>n2&#45;&gt;n11</title>
<path fill="none" stroke="black" d="M283.047,-314.69C266.792,-275.923 244.401,-203.634 288.933,-176.48 324.992,-154.493 1007.43,-166.313 1048.93,-158.48 1055.6,-157.221 1062.48,-155.415 1069.2,-153.333"/>
<polygon fill="black" stroke="black" points="1070.51,-156.587 1078.9,-150.119 1068.3,-149.942 1070.51,-156.587"/>
<text text-anchor="middle" x="310.933" y="-232.65" font-family="Times,serif" font-size="14.00"> static(supports)</text>
</g>
<!-- n3 -->
<g id="node3" class="node"><title>n3</title>
<ellipse fill="none" stroke="black" cx="3169.93" cy="-236.35" rx="51.7379" ry="26.7407"/>
<text text-anchor="middle" x="3169.93" y="-240.15" font-family="Times,serif" font-size="14.00">&lt;general&gt;</text>
<text text-anchor="middle" x="3169.93" y="-225.15" font-family="Times,serif" font-size="14.00">lander</text>
</g>
<!-- n3&#45;&gt;n3 -->
<g id="edge2" class="edge"><title>n3&#45;&gt;n3</title>
<path fill="none" stroke="black" d="M3218.41,-245.966C3230.51,-245.294 3239.55,-242.089 3239.55,-236.35 3239.55,-232.405 3235.28,-229.657 3228.67,-228.107"/>
<polygon fill="black" stroke="black" points="3228.79,-224.59 3218.41,-226.734 3227.86,-231.529 3228.79,-224.59"/>
<text text-anchor="middle" x="3290.05" y="-232.65" font-family="Times,serif" font-size="14.00"> init(channel_free)</text>
</g>
<!-- n13 -->
<g id="node13" class="node"><title>n13</title>
<ellipse fill="none" stroke="black" cx="2795.93" cy="-131.61" rx="63.7795" ry="26.7407"/>
<text text-anchor="middle" x="2795.93" y="-135.41" font-family="Times,serif" font-size="14.00">&lt;waypoint0&gt;</text>
<text text-anchor="middle" x="2795.93" y="-120.41" font-family="Times,serif" font-size="14.00">waypoint</text>
</g>
<!-- n3&#45;&gt;n13 -->
<g id="edge11" class="edge"><title>n3&#45;&gt;n13</title>
<path fill="none" stroke="black" d="M3166.45,-209.43C3163.5,-197.592 3158.04,-184.461 3147.93,-176.48 3106.17,-143.49 2960.35,-135.05 2870.01,-133.047"/>
<polygon fill="black" stroke="black" points="2869.89,-129.544 2859.83,-132.843 2869.75,-136.543 2869.89,-129.544"/>
<text text-anchor="middle" x="3205.93" y="-180.28" font-family="Times,serif" font-size="14.00"> static(at_lander)</text>
</g>
<!-- n4 -->
<g id="node4" class="node"><title>n4</title>
<ellipse fill="none" stroke="black" cx="2404.93" cy="-236.35" rx="62.8651" ry="26.7407"/>
<text text-anchor="middle" x="2404.93" y="-240.15" font-family="Times,serif" font-size="14.00">&lt;objective1&gt;</text>
<text text-anchor="middle" x="2404.93" y="-225.15" font-family="Times,serif" font-size="14.00">objective</text>
</g>
<!-- n5 -->
<g id="node5" class="node"><title>n5</title>
<ellipse fill="none" stroke="black" cx="4432.93" cy="-131.61" rx="48.1667" ry="26.7407"/>
<text text-anchor="middle" x="4432.93" y="-135.41" font-family="Times,serif" font-size="14.00">&lt;colour&gt;</text>
<text text-anchor="middle" x="4432.93" y="-120.41" font-family="Times,serif" font-size="14.00">mode</text>
</g>
<!-- n4&#45;&gt;n5 -->
<g id="edge43" class="edge"><title>n4&#45;&gt;n5</title>
<path fill="none" stroke="black" d="M2461.61,-224.369C2493.09,-218.786 2533.03,-212.546 2568.93,-209.48 2640.51,-203.368 3794.23,-215.513 3861.93,-191.48 3872.07,-187.881 3870.92,-180.409 3880.93,-176.48 3969.53,-141.731 4251.23,-134.491 4374.37,-132.994"/>
<polygon fill="black" stroke="black" points="4374.77,-136.49 4384.73,-132.877 4374.69,-129.49 4374.77,-136.49"/>
<text text-anchor="middle" x="3972.93" y="-180.28" font-family="Times,serif" font-size="14.00"> end(communicated_image_data)</text>
</g>
<!-- n7 -->
<g id="node7" class="node"><title>n7</title>
<ellipse fill="none" stroke="black" cx="2896.93" cy="-26.8701" rx="63.7795" ry="26.7407"/>
<text text-anchor="middle" x="2896.93" y="-30.6701" font-family="Times,serif" font-size="14.00">&lt;waypoint1&gt;</text>
<text text-anchor="middle" x="2896.93" y="-15.6701" font-family="Times,serif" font-size="14.00">waypoint</text>
</g>
<!-- n4&#45;&gt;n7 -->
<g id="edge41" class="edge"><title>n4&#45;&gt;n7</title>
<path fill="none" stroke="black" d="M2400.74,-209.4C2400.34,-198.256 2401.94,-185.705 2408.93,-176.48 2459.93,-109.209 2705.6,-59.7163 2827.72,-38.8295"/>
<polygon fill="black" stroke="black" points="2828.44,-42.2568 2837.72,-37.136 2827.28,-35.3551 2828.44,-42.2568"/>
<text text-anchor="middle" x="2600.93" y="-127.91" font-family="Times,serif" font-size="14.00"> static(visible_from)</text>
</g>
<!-- n4&#45;&gt;n11 -->
<g id="edge17" class="edge"><title>n4&#45;&gt;n11</title>
<path fill="none" stroke="black" d="M2342.43,-232.782C2120.98,-223.668 1386.69,-193.326 1380.93,-191.48 1369.31,-187.753 1369.27,-181.008 1357.93,-176.48 1302.2,-154.214 1234.57,-143.138 1185.66,-137.696"/>
<polygon fill="black" stroke="black" points="1185.84,-134.195 1175.52,-136.618 1185.1,-141.156 1185.84,-134.195"/>
<text text-anchor="middle" x="1472.93" y="-180.28" font-family="Times,serif" font-size="14.00"> end(communicated_image_data)</text>
</g>
<!-- n4&#45;&gt;n13 -->
<g id="edge31" class="edge"><title>n4&#45;&gt;n13</title>
<path fill="none" stroke="black" d="M2406.6,-209.217C2408.75,-197.479 2413.33,-184.493 2422.93,-176.48 2434.33,-166.965 2618.41,-148.775 2723.62,-139.076"/>
<polygon fill="black" stroke="black" points="2724.22,-142.535 2733.86,-138.136 2723.58,-135.565 2724.22,-142.535"/>
<text text-anchor="middle" x="2478.93" y="-180.28" font-family="Times,serif" font-size="14.00"> static(visible_from)</text>
</g>
<!-- n6 -->
<g id="node6" class="node"><title>n6</title>
<ellipse fill="none" stroke="black" cx="4297.93" cy="-236.35" rx="62.8651" ry="26.7407"/>
<text text-anchor="middle" x="4297.93" y="-240.15" font-family="Times,serif" font-size="14.00">&lt;objective9&gt;</text>
<text text-anchor="middle" x="4297.93" y="-225.15" font-family="Times,serif" font-size="14.00">objective</text>
</g>
<!-- n6&#45;&gt;n11 -->
<g id="edge21" class="edge"><title>n6&#45;&gt;n11</title>
<path fill="none" stroke="black" d="M4235.23,-233.044C4017.31,-224.979 3304.9,-198.164 3281.93,-191.48 3269.12,-187.752 3268.78,-180.061 3255.93,-176.48 3208.35,-163.22 2416.32,-159.493 2366.93,-158.48 1915.95,-149.237 1373.23,-137.907 1186.68,-134.007"/>
<polygon fill="black" stroke="black" points="1186.55,-130.503 1176.48,-133.793 1186.41,-137.502 1186.55,-130.503"/>
<text text-anchor="middle" x="3373.93" y="-180.28" font-family="Times,serif" font-size="14.00"> end(communicated_image_data)</text>
</g>
<!-- n6&#45;&gt;n13 -->
<g id="edge8" class="edge"><title>n6&#45;&gt;n13</title>
<path fill="none" stroke="black" d="M4294.87,-209.278C4292.01,-197.251 4286.52,-184.001 4275.93,-176.48 4257.77,-163.573 3496.21,-159.155 3473.93,-158.48 3253.77,-151.81 2993.49,-141.081 2869.17,-135.782"/>
<polygon fill="black" stroke="black" points="2869.16,-132.278 2859.02,-135.348 2868.86,-139.272 2869.16,-132.278"/>
<text text-anchor="middle" x="4342.93" y="-180.28" font-family="Times,serif" font-size="14.00"> static(visible_from)</text>
</g>
<!-- n14 -->
<g id="node14" class="node"><title>n14</title>
<ellipse fill="none" stroke="black" cx="5919.93" cy="-131.61" rx="53.9813" ry="26.7407"/>
<text text-anchor="middle" x="5919.93" y="-135.41" font-family="Times,serif" font-size="14.00">&lt;low_res&gt;</text>
<text text-anchor="middle" x="5919.93" y="-120.41" font-family="Times,serif" font-size="14.00">mode</text>
</g>
<!-- n6&#45;&gt;n14 -->
<g id="edge36" class="edge"><title>n6&#45;&gt;n14</title>
<path fill="none" stroke="black" d="M4359.92,-231.352C4520.29,-220.987 4937.43,-193.885 4951.93,-191.48 4977.35,-187.265 4982.43,-180.124 5007.93,-176.48 5367.04,-125.183 5464.86,-210.049 5823.93,-158.48 5837.68,-156.506 5852.27,-153.216 5865.82,-149.634"/>
<polygon fill="black" stroke="black" points="5866.75,-153.008 5875.47,-146.988 5864.9,-146.257 5866.75,-153.008"/>
<text text-anchor="middle" x="5099.93" y="-180.28" font-family="Times,serif" font-size="14.00"> end(communicated_image_data)</text>
</g>
<!-- n7&#45;&gt;n7 -->
<g id="edge3" class="edge"><title>n7&#45;&gt;n7</title>
<path fill="none" stroke="black" d="M2956.74,-36.3053C2969.42,-35.3472 2978.57,-32.2021 2978.57,-26.8701 2978.57,-23.121 2974.05,-20.4531 2966.95,-18.8664"/>
<polygon fill="black" stroke="black" points="2967.13,-15.3569 2956.74,-17.4349 2966.15,-22.2891 2967.13,-15.3569"/>
<text text-anchor="middle" x="3037.57" y="-23.1701" font-family="Times,serif" font-size="14.00"> init(at_rock_sample)</text>
</g>
<!-- n7&#45;&gt;n13 -->
<g id="edge48" class="edge"><title>n7&#45;&gt;n13</title>
<path fill="none" stroke="black" d="M2839.67,-38.8917C2821.64,-45.3512 2803.66,-55.5746 2792.93,-71.7401 2788.48,-78.4555 2787.05,-86.6101 2787.2,-94.683"/>
<polygon fill="black" stroke="black" points="2783.73,-95.1176 2788.14,-104.751 2790.7,-94.4694 2783.73,-95.1176"/>
<text text-anchor="middle" x="2831.93" y="-75.5401" font-family="Times,serif" font-size="14.00"> static(visible)</text>
</g>
<!-- n8&#45;&gt;n8 -->
<g id="edge4" class="edge"><title>n8&#45;&gt;n8</title>
<path fill="none" stroke="black" d="M2671.03,-246.015C2682.97,-245.462 2692.02,-242.241 2692.02,-236.35 2692.02,-232.3 2687.74,-229.512 2681.19,-227.986"/>
<polygon fill="black" stroke="black" points="2681.39,-224.483 2671.03,-226.686 2680.5,-231.427 2681.39,-224.483"/>
<text text-anchor="middle" x="2785.52" y="-247.65" font-family="Times,serif" font-size="14.00"> static(equipped_for_imaging)</text>
<text text-anchor="middle" x="2785.52" y="-232.65" font-family="Times,serif" font-size="14.00">init(available)</text>
<text text-anchor="middle" x="2785.52" y="-217.65" font-family="Times,serif" font-size="14.00">static(equipped_for_soil_analysis)</text>
</g>
<!-- n8&#45;&gt;n13 -->
<g id="edge46" class="edge"><title>n8&#45;&gt;n13</title>
<path fill="none" stroke="black" d="M2669.02,-224.324C2691.92,-217.206 2719.82,-206.446 2741.93,-191.48 2752.52,-184.313 2762.49,-174.674 2770.9,-165.272"/>
<polygon fill="black" stroke="black" points="2773.73,-167.356 2777.59,-157.49 2768.42,-162.794 2773.73,-167.356"/>
<text text-anchor="middle" x="2781.43" y="-180.28" font-family="Times,serif" font-size="14.00"> init(at)</text>
</g>
<!-- n9 -->
<g id="node9" class="node"><title>n9</title>
<ellipse fill="none" stroke="black" cx="62.9325" cy="-236.35" rx="62.8651" ry="26.7407"/>
<text text-anchor="middle" x="62.9325" y="-240.15" font-family="Times,serif" font-size="14.00">&lt;objective3&gt;</text>
<text text-anchor="middle" x="62.9325" y="-225.15" font-family="Times,serif" font-size="14.00">objective</text>
</g>
<!-- n9&#45;&gt;n7 -->
<g id="edge18" class="edge"><title>n9&#45;&gt;n7</title>
<path fill="none" stroke="black" d="M50.0341,-209.826C46.2118,-198.367 44.9106,-185.439 52.9325,-176.48 194.021,-18.9079 787.896,-85.835 998.933,-71.7401 1363.33,-47.4023 2519.13,-32.3263 2823.1,-28.7149"/>
<polygon fill="black" stroke="black" points="2823.17,-32.2144 2833.13,-28.5963 2823.08,-25.2149 2823.17,-32.2144"/>
<text text-anchor="middle" x="241.933" y="-127.91" font-family="Times,serif" font-size="14.00"> static(visible_from)</text>
</g>
<!-- n9&#45;&gt;n11 -->
<g id="edge42" class="edge"><title>n9&#45;&gt;n11</title>
<path fill="none" stroke="black" d="M56.022,-209.615C54.546,-197.966 55.4812,-184.942 63.9325,-176.48 83.2705,-157.117 1022.03,-163.483 1048.93,-158.48 1055.61,-157.239 1062.48,-155.444 1069.2,-153.368"/>
<polygon fill="black" stroke="black" points="1070.51,-156.622 1078.91,-150.158 1068.31,-149.977 1070.51,-156.622"/>
<text text-anchor="middle" x="155.933" y="-180.28" font-family="Times,serif" font-size="14.00"> end(communicated_image_data)</text>
</g>
<!-- n9&#45;&gt;n13 -->
<g id="edge54" class="edge"><title>n9&#45;&gt;n13</title>
<path fill="none" stroke="black" d="M120.11,-225.044C154.672,-219.302 199.687,-212.681 239.933,-209.48 313.319,-203.644 1495.55,-216.096 1564.93,-191.48 1575.07,-187.883 1573.8,-180.108 1583.93,-176.48 1632.11,-159.225 2453.83,-161.248 2504.93,-158.48 2579.94,-154.418 2665.56,-146.397 2724.41,-140.358"/>
<polygon fill="black" stroke="black" points="2725.12,-143.802 2734.71,-139.293 2724.4,-136.84 2725.12,-143.802"/>
<text text-anchor="middle" x="1639.93" y="-180.28" font-family="Times,serif" font-size="14.00"> static(visible_from)</text>
</g>
<!-- n10&#45;&gt;n11 -->
<g id="edge15" class="edge"><title>n10&#45;&gt;n11</title>
<path fill="none" stroke="black" d="M382.52,-218.894C373.054,-215.73 363.192,-212.472 353.933,-209.48 328.249,-201.182 311.941,-213.211 295.933,-191.48 291.978,-186.113 291.275,-181.25 295.933,-176.48 325.166,-146.54 1007.81,-166.246 1048.93,-158.48 1055.6,-157.221 1062.47,-155.414 1069.2,-153.332"/>
<polygon fill="black" stroke="black" points="1070.51,-156.586 1078.9,-150.117 1068.3,-149.941 1070.51,-156.586"/>
<text text-anchor="middle" x="387.933" y="-180.28" font-family="Times,serif" font-size="14.00"> end(communicated_image_data)</text>
</g>
<!-- n10&#45;&gt;n13 -->
<g id="edge29" class="edge"><title>n10&#45;&gt;n13</title>
<path fill="none" stroke="black" d="M479.661,-219.271C493.785,-215.302 509.336,-211.587 523.933,-209.48 588.604,-200.148 1638.37,-213.381 1699.93,-191.48 1710.07,-187.874 1708.81,-180.125 1718.93,-176.48 1760.03,-161.684 2461.32,-160.915 2504.93,-158.48 2579.94,-154.292 2665.56,-146.291 2724.4,-140.291"/>
<polygon fill="black" stroke="black" points="2725.11,-143.736 2734.7,-139.233 2724.4,-136.773 2725.11,-143.736"/>
<text text-anchor="middle" x="1774.93" y="-180.28" font-family="Times,serif" font-size="14.00"> static(visible_from)</text>
</g>
<!-- n12 -->
<g id="node12" class="node"><title>n12</title>
<ellipse fill="none" stroke="black" cx="1509.93" cy="-236.35" rx="62.8651" ry="26.7407"/>
<text text-anchor="middle" x="1509.93" y="-240.15" font-family="Times,serif" font-size="14.00">&lt;objective7&gt;</text>
<text text-anchor="middle" x="1509.93" y="-225.15" font-family="Times,serif" font-size="14.00">objective</text>
</g>
<!-- n12&#45;&gt;n5 -->
<g id="edge14" class="edge"><title>n12&#45;&gt;n5</title>
<path fill="none" stroke="black" d="M1563.34,-222.1C1585.9,-217.124 1612.54,-212.052 1636.93,-209.48 2072.32,-163.577 3172.01,-241.582 3606.93,-191.48 3637.25,-187.988 3643.71,-180.708 3673.93,-176.48 3933.31,-140.195 4246.58,-133.803 4374.38,-132.763"/>
<polygon fill="black" stroke="black" points="4374.74,-136.261 4384.71,-132.687 4374.69,-129.261 4374.74,-136.261"/>
<text text-anchor="middle" x="3765.93" y="-180.28" font-family="Times,serif" font-size="14.00"> end(communicated_image_data)</text>
</g>
<!-- n12&#45;&gt;n7 -->
<g id="edge23" class="edge"><title>n12&#45;&gt;n7</title>
<path fill="none" stroke="black" d="M1448.31,-230.816C1305.78,-220.277 965.015,-194.777 959.933,-191.48 926.903,-170.051 914.644,-133.122 941.933,-104.74 1008.28,-35.7301 2474.27,-28.6515 2822.98,-27.9447"/>
<polygon fill="black" stroke="black" points="2823.22,-31.4443 2833.21,-27.9251 2823.21,-24.4443 2823.22,-31.4443"/>
<text text-anchor="middle" x="997.933" y="-127.91" font-family="Times,serif" font-size="14.00"> static(visible_from)</text>
</g>
<!-- n12&#45;&gt;n11 -->
<g id="edge38" class="edge"><title>n12&#45;&gt;n11</title>
<path fill="none" stroke="black" d="M1448.18,-230.904C1306.72,-220.646 970.981,-195.869 966.933,-191.48 962.412,-186.58 962.754,-181.675 966.933,-176.48 990.317,-147.405 1013.1,-168.89 1048.93,-158.48 1054.97,-156.727 1061.23,-154.724 1067.42,-152.626"/>
<polygon fill="black" stroke="black" points="1068.76,-155.865 1077.06,-149.273 1066.46,-149.254 1068.76,-155.865"/>
<text text-anchor="middle" x="1058.93" y="-180.28" font-family="Times,serif" font-size="14.00"> end(communicated_image_data)</text>
</g>
<!-- n12&#45;&gt;n13 -->
<g id="edge35" class="edge"><title>n12&#45;&gt;n13</title>
<path fill="none" stroke="black" d="M1564,-222.318C1586.43,-217.44 1612.8,-212.382 1636.93,-209.48 1688.6,-203.266 2056.11,-209.489 2104.93,-191.48 2115.03,-187.757 2113.85,-180.248 2123.93,-176.48 2203.33,-146.8 2420.37,-164.234 2504.93,-158.48 2579.76,-153.389 2665.24,-145.548 2724.09,-139.832"/>
<polygon fill="black" stroke="black" points="2724.78,-143.281 2734.4,-138.827 2724.1,-136.314 2724.78,-143.281"/>
<text text-anchor="middle" x="2179.93" y="-180.28" font-family="Times,serif" font-size="14.00"> static(visible_from)</text>
</g>
<!-- n13&#45;&gt;n7 -->
<g id="edge33" class="edge"><title>n13&#45;&gt;n7</title>
<path fill="none" stroke="black" d="M2841.3,-112.47C2853.5,-105.848 2865.82,-97.3218 2874.93,-86.7401 2880.71,-80.0241 2885.04,-71.6441 2888.26,-63.3318"/>
<polygon fill="black" stroke="black" points="2891.62,-64.3033 2891.54,-53.7088 2885,-62.0437 2891.62,-64.3033"/>
<text text-anchor="middle" x="2923.93" y="-75.5401" font-family="Times,serif" font-size="14.00"> static(visible)</text>
</g>
<!-- n13&#45;&gt;n13 -->
<g id="edge5" class="edge"><title>n13&#45;&gt;n13</title>
<path fill="none" stroke="black" d="M2855.74,-141.045C2868.42,-140.087 2877.57,-136.942 2877.57,-131.61 2877.57,-127.861 2873.05,-125.193 2865.95,-123.607"/>
<polygon fill="black" stroke="black" points="2866.13,-120.097 2855.74,-122.175 2865.15,-127.029 2866.13,-120.097"/>
<text text-anchor="middle" x="2962.07" y="-135.41" font-family="Times,serif" font-size="14.00"> end(communicated_soil_data)</text>
<text text-anchor="middle" x="2962.07" y="-120.41" font-family="Times,serif" font-size="14.00">init(at_soil_sample)</text>
</g>
<!-- n15 -->
<g id="node15" class="node"><title>n15</title>
<ellipse fill="none" stroke="black" cx="2959.93" cy="-236.35" rx="62.8651" ry="26.7407"/>
<text text-anchor="middle" x="2959.93" y="-240.15" font-family="Times,serif" font-size="14.00">&lt;objective6&gt;</text>
<text text-anchor="middle" x="2959.93" y="-225.15" font-family="Times,serif" font-size="14.00">objective</text>
</g>
<!-- n15&#45;&gt;n7 -->
<g id="edge22" class="edge"><title>n15&#45;&gt;n7</title>
<path fill="none" stroke="black" d="M3015.93,-223.774C3043.77,-218.494 3077.99,-212.711 3108.93,-209.48 3136.47,-206.606 3586.27,-209.907 3606.93,-191.48 3619.28,-180.469 3615.32,-109.392 3611.93,-104.74 3574.6,-53.4223 3145.54,-35.1309 2970.55,-29.7762"/>
<polygon fill="black" stroke="black" points="2970.5,-26.2733 2960.4,-29.4715 2970.29,-33.2701 2970.5,-26.2733"/>
<text text-anchor="middle" x="3671.93" y="-127.91" font-family="Times,serif" font-size="14.00"> static(visible_from)</text>
</g>
<!-- n15&#45;&gt;n11 -->
<g id="edge37" class="edge"><title>n15&#45;&gt;n11</title>
<path fill="none" stroke="black" d="M2915.57,-217.142C2906.56,-214.091 2897.05,-211.322 2887.93,-209.48 2815.08,-194.758 2623.47,-217.739 2553.93,-191.48 2543.87,-187.679 2545.04,-180.166 2534.93,-176.48 2470.99,-153.166 1458.15,-137.351 1186.52,-133.514"/>
<polygon fill="black" stroke="black" points="1186.46,-130.013 1176.41,-133.372 1186.36,-137.012 1186.46,-130.013"/>
<text text-anchor="middle" x="2645.93" y="-180.28" font-family="Times,serif" font-size="14.00"> end(communicated_image_data)</text>
</g>
<!-- n15&#45;&gt;n13 -->
<g id="edge30" class="edge"><title>n15&#45;&gt;n13</title>
<path fill="none" stroke="black" d="M2913.18,-218.179C2904.8,-215.207 2896.13,-212.2 2887.93,-209.48 2861.91,-200.843 2850.28,-208.676 2828.93,-191.48 2821.01,-185.099 2814.66,-176.273 2809.74,-167.395"/>
<polygon fill="black" stroke="black" points="2812.74,-165.577 2805.11,-158.225 2806.49,-168.73 2812.74,-165.577"/>
<text text-anchor="middle" x="2884.93" y="-180.28" font-family="Times,serif" font-size="14.00"> static(visible_from)</text>
</g>
<!-- n16 -->
<g id="node16" class="node"><title>n16</title>
<ellipse fill="none" stroke="black" cx="5790.93" cy="-236.35" rx="62.8651" ry="26.7407"/>
<text text-anchor="middle" x="5790.93" y="-240.15" font-family="Times,serif" font-size="14.00">&lt;objective2&gt;</text>
<text text-anchor="middle" x="5790.93" y="-225.15" font-family="Times,serif" font-size="14.00">objective</text>
</g>
<!-- n16&#45;&gt;n13 -->
<g id="edge20" class="edge"><title>n16&#45;&gt;n13</title>
<path fill="none" stroke="black" d="M5730.93,-228.128C5684.55,-222.66 5618.72,-215.148 5560.93,-209.48 5513.22,-204.8 5390.53,-209.082 5345.93,-191.48 5335.92,-187.53 5337.08,-180.058 5326.93,-176.48 5278.39,-159.363 3525.39,-159.712 3473.93,-158.48 3253.73,-153.211 2993.47,-141.836 2869.17,-136.087"/>
<polygon fill="black" stroke="black" points="2869.16,-132.583 2859.01,-135.616 2868.84,-139.576 2869.16,-132.583"/>
<text text-anchor="middle" x="5401.93" y="-180.28" font-family="Times,serif" font-size="14.00"> static(visible_from)</text>
</g>
<!-- n16&#45;&gt;n14 -->
<g id="edge51" class="edge"><title>n16&#45;&gt;n14</title>
<path fill="none" stroke="black" d="M5852.82,-231.09C5879.84,-225.784 5909.13,-214.608 5925.93,-191.48 5930.83,-184.744 5932.02,-176.373 5931.37,-168.076"/>
<polygon fill="black" stroke="black" points="5934.81,-167.433 5929.78,-158.109 5927.9,-168.536 5934.81,-167.433"/>
<text text-anchor="middle" x="6022.93" y="-180.28" font-family="Times,serif" font-size="14.00"> end(communicated_image_data)</text>
</g>
<!-- n17 -->
<g id="node17" class="node"><title>n17</title>
<ellipse fill="none" stroke="black" cx="1076.93" cy="-236.35" rx="67.7647" ry="26.7407"/>
<text text-anchor="middle" x="1076.93" y="-240.15" font-family="Times,serif" font-size="14.00">&lt;objective11&gt;</text>
<text text-anchor="middle" x="1076.93" y="-225.15" font-family="Times,serif" font-size="14.00">objective</text>
</g>
<!-- n17&#45;&gt;n11 -->
<g id="edge28" class="edge"><title>n17&#45;&gt;n11</title>
<path fill="none" stroke="black" d="M1012.69,-227.527C921.251,-216.243 764.067,-196.226 759.933,-191.48 755.553,-186.453 755.367,-181.339 759.933,-176.48 781.964,-153.034 1017.44,-165.055 1048.93,-158.48 1055.49,-157.111 1062.26,-155.259 1068.89,-153.171"/>
<polygon fill="black" stroke="black" points="1070.09,-156.46 1078.47,-149.972 1067.87,-149.82 1070.09,-156.46"/>
<text text-anchor="middle" x="851.933" y="-180.28" font-family="Times,serif" font-size="14.00"> end(communicated_image_data)</text>
</g>
<!-- n17&#45;&gt;n13 -->
<g id="edge16" class="edge"><title>n17&#45;&gt;n13</title>
<path fill="none" stroke="black" d="M1143.09,-229.857C1215.45,-224.025 1334.87,-214.915 1437.93,-209.48 1497,-206.366 1914.39,-211.82 1969.93,-191.48 1980.04,-187.78 1978.83,-180.185 1988.93,-176.48 2042.79,-156.724 2447.67,-162.022 2504.93,-158.48 2579.91,-153.843 2665.53,-145.912 2724.39,-140.051"/>
<polygon fill="black" stroke="black" points="2725.09,-143.499 2734.69,-139.019 2724.39,-136.533 2725.09,-143.499"/>
<text text-anchor="middle" x="2044.93" y="-180.28" font-family="Times,serif" font-size="14.00"> static(visible_from)</text>
</g>
<!-- n18 -->
<g id="node18" class="node"><title>n18</title>
<ellipse fill="none" stroke="black" cx="2959.93" cy="-341.09" rx="56.6372" ry="26.7407"/>
<text text-anchor="middle" x="2959.93" y="-344.89" font-family="Times,serif" font-size="14.00">&lt;camera1&gt;</text>
<text text-anchor="middle" x="2959.93" y="-329.89" font-family="Times,serif" font-size="14.00">camera</text>
</g>
<!-- n18&#45;&gt;n5 -->
<g id="edge53" class="edge"><title>n18&#45;&gt;n5</title>
<path fill="none" stroke="black" d="M3016.52,-339.721C3312.41,-337.534 4674.75,-324.199 4851.93,-263.22 4903.65,-245.42 4926.95,-240.142 4951.93,-191.48 4954.98,-185.549 4956.44,-181.389 4951.93,-176.48 4921.25,-143.096 4620.07,-135.094 4491.08,-133.194"/>
<polygon fill="black" stroke="black" points="4491.04,-129.693 4480.99,-133.053 4490.94,-136.693 4491.04,-129.693"/>
<text text-anchor="middle" x="4984.93" y="-232.65" font-family="Times,serif" font-size="14.00"> static(supports)</text>
</g>
<!-- n18&#45;&gt;n8 -->
<g id="edge40" class="edge"><title>n18&#45;&gt;n8</title>
<path fill="none" stroke="black" d="M2913.14,-325.697C2851.02,-306.589 2741.7,-272.962 2677.34,-253.165"/>
<polygon fill="black" stroke="black" points="2678,-249.705 2667.41,-250.11 2675.94,-256.396 2678,-249.705"/>
<text text-anchor="middle" x="2859.43" y="-285.02" font-family="Times,serif" font-size="14.00"> static(on_board)</text>
</g>
<!-- n18&#45;&gt;n11 -->
<g id="edge57" class="edge"><title>n18&#45;&gt;n11</title>
<path fill="none" stroke="black" d="M2907.59,-330.578C2873.15,-324.747 2827.01,-317.745 2785.93,-314.22 2666.34,-303.958 734.889,-313.584 625.933,-263.22 582.445,-243.119 528.676,-210.966 561.933,-176.48 581.073,-156.632 1031,-164.384 1057.93,-158.48 1062.41,-157.498 1066.98,-156.208 1071.5,-154.727"/>
<polygon fill="black" stroke="black" points="1073.03,-157.895 1081.27,-151.227 1070.67,-151.305 1073.03,-157.895"/>
<text text-anchor="middle" x="669.933" y="-232.65" font-family="Times,serif" font-size="14.00"> static(supports)</text>
</g>
<!-- n18&#45;&gt;n14 -->
<g id="edge45" class="edge"><title>n18&#45;&gt;n14</title>
<path fill="none" stroke="black" d="M3016.52,-339.437C3396.65,-334.937 5571.96,-307.395 5862.93,-263.22 5979.75,-245.485 6047.54,-285.633 6118.93,-191.48 6122.96,-186.168 6123.11,-181.677 6118.93,-176.48 6102.05,-155.474 6034.79,-143.933 5983.09,-138.031"/>
<polygon fill="black" stroke="black" points="5983.29,-134.533 5972.97,-136.925 5982.53,-141.491 5983.29,-134.533"/>
<text text-anchor="middle" x="6145.93" y="-232.65" font-family="Times,serif" font-size="14.00"> static(supports)</text>
</g>
<!-- n18&#45;&gt;n15 -->
<g id="edge56" class="edge"><title>n18&#45;&gt;n15</title>
<path fill="none" stroke="black" d="M2959.93,-314.165C2959.93,-301.875 2959.93,-286.987 2959.93,-273.602"/>
<polygon fill="black" stroke="black" points="2963.43,-273.268 2959.93,-263.268 2956.43,-273.268 2963.43,-273.268"/>
<text text-anchor="middle" x="3028.43" y="-285.02" font-family="Times,serif" font-size="14.00"> static(calibration_target)</text>
</g>
<!-- n19 -->
<g id="node19" class="node"><title>n19</title>
<ellipse fill="none" stroke="black" cx="785.933" cy="-236.35" rx="62.8651" ry="26.7407"/>
<text text-anchor="middle" x="785.933" y="-240.15" font-family="Times,serif" font-size="14.00">&lt;objective4&gt;</text>
<text text-anchor="middle" x="785.933" y="-225.15" font-family="Times,serif" font-size="14.00">objective</text>
</g>
<!-- n19&#45;&gt;n11 -->
<g id="edge44" class="edge"><title>n19&#45;&gt;n11</title>
<path fill="none" stroke="black" d="M728.169,-225.529C665.627,-214.618 574.036,-197.718 568.933,-191.48 564.711,-186.32 564.308,-181.282 568.933,-176.48 587.445,-157.26 1022.74,-163.61 1048.93,-158.48 1055.51,-157.192 1062.28,-155.389 1068.92,-153.327"/>
<polygon fill="black" stroke="black" points="1070.11,-156.619 1078.5,-150.151 1067.91,-149.975 1070.11,-156.619"/>
<text text-anchor="middle" x="660.933" y="-180.28" font-family="Times,serif" font-size="14.00"> end(communicated_image_data)</text>
</g>
<!-- n19&#45;&gt;n13 -->
<g id="edge52" class="edge"><title>n19&#45;&gt;n13</title>
<path fill="none" stroke="black" d="M844.823,-226.643C887.725,-220.688 947.298,-213.22 999.933,-209.48 1046.22,-206.192 1791.27,-207.169 1834.93,-191.48 1845.06,-187.842 1843.82,-180.149 1853.93,-176.48 1921.96,-151.806 2432.69,-162.686 2504.93,-158.48 2579.93,-154.114 2665.55,-146.141 2724.4,-140.196"/>
<polygon fill="black" stroke="black" points="2725.11,-143.642 2734.7,-139.148 2724.4,-136.678 2725.11,-143.642"/>
<text text-anchor="middle" x="1909.93" y="-180.28" font-family="Times,serif" font-size="14.00"> static(visible_from)</text>
</g>
<!-- n20 -->
<g id="node20" class="node"><title>n20</title>
<ellipse fill="none" stroke="black" cx="4774.93" cy="-236.35" rx="67.7647" ry="26.7407"/>
<text text-anchor="middle" x="4774.93" y="-240.15" font-family="Times,serif" font-size="14.00">&lt;objective10&gt;</text>
<text text-anchor="middle" x="4774.93" y="-225.15" font-family="Times,serif" font-size="14.00">objective</text>
</g>
<!-- n20&#45;&gt;n5 -->
<g id="edge50" class="edge"><title>n20&#45;&gt;n5</title>
<path fill="none" stroke="black" d="M4771.41,-209.484C4768.45,-197.659 4762.99,-184.523 4752.93,-176.48 4713.67,-145.072 4572.39,-136.14 4491.28,-133.607"/>
<polygon fill="black" stroke="black" points="4491.32,-130.106 4481.22,-133.315 4491.11,-137.103 4491.32,-130.106"/>
<text text-anchor="middle" x="4855.93" y="-180.28" font-family="Times,serif" font-size="14.00"> end(communicated_image_data)</text>
</g>
<!-- n20&#45;&gt;n7 -->
<g id="edge47" class="edge"><title>n20&#45;&gt;n7</title>
<path fill="none" stroke="black" d="M4821.06,-216.526C4829.85,-213.651 4839.07,-211.105 4847.93,-209.48 4870.15,-205.406 5645.14,-207.629 5660.93,-191.48 5665.59,-186.714 5665.5,-181.336 5660.93,-176.48 5613.44,-125.984 3404.72,-45.7379 2970.56,-30.4363"/>
<polygon fill="black" stroke="black" points="2970.45,-26.9304 2960.33,-30.0763 2970.2,-33.926 2970.45,-26.9304"/>
<text text-anchor="middle" x="5607.93" y="-127.91" font-family="Times,serif" font-size="14.00"> static(visible_from)</text>
</g>
<!-- n20&#45;&gt;n13 -->
<g id="edge9" class="edge"><title>n20&#45;&gt;n13</title>
<path fill="none" stroke="black" d="M4707.28,-233.054C4637.51,-229.212 4526.18,-218.939 4433.93,-191.48 4419.26,-187.114 4417.82,-180.044 4402.93,-176.48 4302.53,-152.439 3577.13,-161.449 3473.93,-158.48 3253.76,-152.147 2993.49,-141.263 2869.17,-135.856"/>
<polygon fill="black" stroke="black" points="2869.16,-132.352 2859.01,-135.413 2868.85,-139.345 2869.16,-132.352"/>
<text text-anchor="middle" x="4489.93" y="-180.28" font-family="Times,serif" font-size="14.00"> static(visible_from)</text>
</g>
<!-- n21 -->
<g id="node21" class="node"><title>n21</title>
<ellipse fill="none" stroke="black" cx="3554.93" cy="-236.35" rx="62.8651" ry="26.7407"/>
<text text-anchor="middle" x="3554.93" y="-240.15" font-family="Times,serif" font-size="14.00">&lt;objective0&gt;</text>
<text text-anchor="middle" x="3554.93" y="-225.15" font-family="Times,serif" font-size="14.00">objective</text>
</g>
<!-- n21&#45;&gt;n5 -->
<g id="edge26" class="edge"><title>n21&#45;&gt;n5</title>
<path fill="none" stroke="black" d="M3617.69,-233.812C3735.92,-230.288 3987.11,-219.647 4068.93,-191.48 4080.47,-187.508 4080.48,-180.698 4091.93,-176.48 4186.63,-141.599 4304.98,-133.656 4374.44,-132.284"/>
<polygon fill="black" stroke="black" points="4374.79,-135.779 4384.74,-132.122 4374.68,-128.78 4374.79,-135.779"/>
<text text-anchor="middle" x="4183.93" y="-180.28" font-family="Times,serif" font-size="14.00"> end(communicated_image_data)</text>
</g>
<!-- n21&#45;&gt;n7 -->
<g id="edge25" class="edge"><title>n21&#45;&gt;n7</title>
<path fill="none" stroke="black" d="M3590.39,-214.101C3604.66,-202.91 3615.52,-188.955 3604.93,-176.48 3589.05,-157.76 3520.04,-163.097 3495.93,-158.48 3300.54,-121.069 3071.15,-68.6603 2961.57,-43.0983"/>
<polygon fill="black" stroke="black" points="2962.19,-39.6505 2951.66,-40.7841 2960.6,-46.467 2962.19,-39.6505"/>
<text text-anchor="middle" x="3551.93" y="-127.91" font-family="Times,serif" font-size="14.00"> static(visible_from)</text>
</g>
<!-- n21&#45;&gt;n11 -->
<g id="edge7" class="edge"><title>n21&#45;&gt;n11</title>
<path fill="none" stroke="black" d="M3495.86,-226.633C3454.97,-220.91 3399.25,-213.724 3349.93,-209.48 3263.49,-202.043 3041.22,-221.816 2959.93,-191.48 2949.85,-187.718 2951.05,-180.131 2940.93,-176.48 2919.89,-168.89 1512.39,-140.424 1186.69,-133.933"/>
<polygon fill="black" stroke="black" points="1186.53,-130.43 1176.47,-133.73 1186.39,-137.428 1186.53,-130.43"/>
<text text-anchor="middle" x="3051.93" y="-180.28" font-family="Times,serif" font-size="14.00"> end(communicated_image_data)</text>
</g>
<!-- n21&#45;&gt;n13 -->
<g id="edge24" class="edge"><title>n21&#45;&gt;n13</title>
<path fill="none" stroke="black" d="M3523.52,-213.011C3500.61,-196.816 3473.05,-177.566 3469.93,-176.48 3360.95,-138.495 3021.04,-132.988 2869.79,-132.47"/>
<polygon fill="black" stroke="black" points="2869.68,-128.97 2859.67,-132.442 2869.66,-135.97 2869.68,-128.97"/>
<text text-anchor="middle" x="3546.93" y="-180.28" font-family="Times,serif" font-size="14.00"> static(visible_from)</text>
</g>
<!-- n22 -->
<g id="node22" class="node"><title>n22</title>
<ellipse fill="none" stroke="black" cx="1708.93" cy="-236.35" rx="62.8651" ry="26.7407"/>
<text text-anchor="middle" x="1708.93" y="-240.15" font-family="Times,serif" font-size="14.00">&lt;objective8&gt;</text>
<text text-anchor="middle" x="1708.93" y="-225.15" font-family="Times,serif" font-size="14.00">objective</text>
</g>
<!-- n22&#45;&gt;n11 -->
<g id="edge55" class="edge"><title>n22&#45;&gt;n11</title>
<path fill="none" stroke="black" d="M1654.85,-222.386C1632.42,-217.519 1606.05,-212.45 1581.93,-209.48 1536.9,-203.934 1215.06,-210.656 1173.93,-191.48 1161.63,-185.746 1150.85,-175.795 1142.22,-165.689"/>
<polygon fill="black" stroke="black" points="1144.75,-163.25 1135.77,-157.628 1139.28,-167.623 1144.75,-163.25"/>
<text text-anchor="middle" x="1265.93" y="-180.28" font-family="Times,serif" font-size="14.00"> end(communicated_image_data)</text>
</g>
<!-- n22&#45;&gt;n13 -->
<g id="edge49" class="edge"><title>n22&#45;&gt;n13</title>
<path fill="none" stroke="black" d="M1771.91,-233.706C1871.8,-230.302 2072.41,-220.216 2239.93,-191.48 2265.75,-187.052 2271.12,-180.959 2296.93,-176.48 2388.36,-160.615 2412.5,-166.589 2504.93,-158.48 2579.53,-151.937 2664.87,-144.337 2723.75,-139.075"/>
<polygon fill="black" stroke="black" points="2724.41,-142.53 2734.06,-138.153 2723.79,-135.557 2724.41,-142.53"/>
<text text-anchor="middle" x="2352.93" y="-180.28" font-family="Times,serif" font-size="14.00"> static(visible_from)</text>
</g>
<!-- n23 -->
<g id="node23" class="node"><title>n23</title>
<ellipse fill="none" stroke="black" cx="5483.93" cy="-236.35" rx="67.7647" ry="26.7407"/>
<text text-anchor="middle" x="5483.93" y="-240.15" font-family="Times,serif" font-size="14.00">&lt;objective12&gt;</text>
<text text-anchor="middle" x="5483.93" y="-225.15" font-family="Times,serif" font-size="14.00">objective</text>
</g>
<!-- n23&#45;&gt;n5 -->
<g id="edge27" class="edge"><title>n23&#45;&gt;n5</title>
<path fill="none" stroke="black" d="M5480.8,-209.369C5477.93,-197.364 5472.44,-184.107 5461.93,-176.48 5422.49,-147.848 4703.59,-136.163 4491.41,-133.328"/>
<polygon fill="black" stroke="black" points="4491.15,-129.825 4481.11,-133.192 4491.06,-136.824 4491.15,-129.825"/>
<text text-anchor="middle" x="5564.93" y="-180.28" font-family="Times,serif" font-size="14.00"> end(communicated_image_data)</text>
</g>
<!-- n23&#45;&gt;n7 -->
<g id="edge19" class="edge"><title>n23&#45;&gt;n7</title>
<path fill="none" stroke="black" d="M5549.44,-229.046C5598.66,-222.797 5660.19,-211.231 5675.93,-191.48 5691.11,-172.438 5729.59,-161.46 5667.93,-104.74 5616.85,-57.7485 3406.51,-33.0161 2970.99,-28.5945"/>
<polygon fill="black" stroke="black" points="2970.77,-25.0922 2960.73,-28.4908 2970.7,-32.0918 2970.77,-25.0922"/>
<text text-anchor="middle" x="5756.93" y="-127.91" font-family="Times,serif" font-size="14.00"> static(visible_from)</text>
</g>
<!-- n23&#45;&gt;n11 -->
<g id="edge34" class="edge"><title>n23&#45;&gt;n11</title>
<path fill="none" stroke="black" d="M5417.36,-230.697C5334.9,-225.056 5190.12,-215.553 5065.93,-209.48 5010.3,-206.76 4617.22,-210.69 4564.93,-191.48 4554.83,-187.77 4556.08,-180.051 4545.93,-176.48 4488.83,-156.393 2427.46,-159.358 2366.93,-158.48 1915.9,-151.939 1373.21,-138.914 1186.67,-134.288"/>
<polygon fill="black" stroke="black" points="1186.56,-130.784 1176.48,-134.035 1186.39,-137.782 1186.56,-130.784"/>
<text text-anchor="middle" x="4656.93" y="-180.28" font-family="Times,serif" font-size="14.00"> end(communicated_image_data)</text>
</g>
<!-- n23&#45;&gt;n13 -->
<g id="edge39" class="edge"><title>n23&#45;&gt;n13</title>
<path fill="none" stroke="black" d="M5416.69,-232.119C5361.01,-227.642 5280.67,-216.961 5214.93,-191.48 5203.55,-187.07 5203.61,-180.019 5191.93,-176.48 5146.26,-162.642 3521.64,-159.64 3473.93,-158.48 3253.73,-153.127 2993.47,-141.791 2869.17,-136.069"/>
<polygon fill="black" stroke="black" points="2869.16,-132.565 2859.01,-135.6 2868.84,-139.558 2869.16,-132.565"/>
<text text-anchor="middle" x="5270.93" y="-180.28" font-family="Times,serif" font-size="14.00"> static(visible_from)</text>
</g>
<!-- n23&#45;&gt;n14 -->
<g id="edge12" class="edge"><title>n23&#45;&gt;n14</title>
<path fill="none" stroke="black" d="M5550.82,-231.45C5599.31,-226.612 5665.46,-215.771 5718.93,-191.48 5728.73,-187.03 5728.19,-181.037 5737.93,-176.48 5773.31,-159.942 5785.95,-167.564 5823.93,-158.48 5836.91,-155.376 5850.8,-151.788 5863.87,-148.292"/>
<polygon fill="black" stroke="black" points="5864.94,-151.63 5873.68,-145.645 5863.11,-144.871 5864.94,-151.63"/>
<text text-anchor="middle" x="5829.93" y="-180.28" font-family="Times,serif" font-size="14.00"> end(communicated_image_data)</text>
</g>
</g>
</svg>
