<?xml version="1.0" encoding="UTF-8" standalone="no"?>
<!DOCTYPE svg PUBLIC "-//W3C//DTD SVG 1.1//EN"
 "http://www.w3.org/Graphics/SVG/1.1/DTD/svg11.dtd">
<!-- Generated by graphviz version 2.38.0 (20140413.2041)
 -->
<!-- Title: Struc Pages: 1 -->
<svg width="3780pt" height="376pt"
 viewBox="0.00 0.00 3779.52 375.96" xmlns="http://www.w3.org/2000/svg" xmlns:xlink="http://www.w3.org/1999/xlink">
<g id="graph0" class="graph" transform="scale(1 1) rotate(0) translate(4 371.96)">
<title>Struc</title>
<polygon fill="white" stroke="none" points="-4,4 -4,-371.96 3775.52,-371.96 3775.52,4 -4,4"/>
<!-- n1 -->
<g id="node1" class="node"><title>n1</title>
<ellipse fill="none" stroke="black" cx="1952.52" cy="-236.35" rx="51.7379" ry="26.7407"/>
<text text-anchor="middle" x="1952.52" y="-240.15" font-family="Times,serif" font-size="14.00">&lt;general&gt;</text>
<text text-anchor="middle" x="1952.52" y="-225.15" font-family="Times,serif" font-size="14.00">lander</text>
</g>
<!-- n1&#45;&gt;n1 -->
<g id="edge1" class="edge"><title>n1&#45;&gt;n1</title>
<path fill="none" stroke="black" d="M2001,-245.966C2013.1,-245.294 2022.14,-242.089 2022.14,-236.35 2022.14,-232.405 2017.87,-229.657 2011.26,-228.107"/>
<polygon fill="black" stroke="black" points="2011.38,-224.59 2001,-226.734 2010.45,-231.529 2011.38,-224.59"/>
<text text-anchor="middle" x="2072.64" y="-232.65" font-family="Times,serif" font-size="14.00"> init(channel_free)</text>
</g>
<!-- n6 -->
<g id="node6" class="node"><title>n6</title>
<ellipse fill="none" stroke="black" cx="1783.52" cy="-131.61" rx="63.7795" ry="26.7407"/>
<text text-anchor="middle" x="1783.52" y="-135.41" font-family="Times,serif" font-size="14.00">&lt;waypoint0&gt;</text>
<text text-anchor="middle" x="1783.52" y="-120.41" font-family="Times,serif" font-size="14.00">waypoint</text>
</g>
<!-- n1&#45;&gt;n6 -->
<g id="edge46" class="edge"><title>n1&#45;&gt;n6</title>
<path fill="none" stroke="black" d="M1999.72,-225.091C2033.86,-215.513 2070.88,-199.263 2051.52,-176.48 2027.01,-147.628 1927.78,-137.711 1857.22,-134.326"/>
<polygon fill="black" stroke="black" points="1857.18,-130.821 1847.03,-133.873 1856.87,-137.814 1857.18,-130.821"/>
<text text-anchor="middle" x="2103.52" y="-180.28" font-family="Times,serif" font-size="14.00"> static(at_lander)</text>
</g>
<!-- n2 -->
<g id="node2" class="node"><title>n2</title>
<ellipse fill="none" stroke="black" cx="3573.52" cy="-341.09" rx="56.6372" ry="26.7407"/>
<text text-anchor="middle" x="3573.52" y="-344.89" font-family="Times,serif" font-size="14.00">&lt;camera2&gt;</text>
<text text-anchor="middle" x="3573.52" y="-329.89" font-family="Times,serif" font-size="14.00">camera</text>
</g>
<!-- n17 -->
<g id="node17" class="node"><title>n17</title>
<ellipse fill="none" stroke="black" cx="2447.52" cy="-236.35" rx="48.1667" ry="26.7407"/>
<text text-anchor="middle" x="2447.52" y="-240.15" font-family="Times,serif" font-size="14.00">&lt;rover0&gt;</text>
<text text-anchor="middle" x="2447.52" y="-225.15" font-family="Times,serif" font-size="14.00">rover</text>
</g>
<!-- n2&#45;&gt;n17 -->
<g id="edge9" class="edge"><title>n2&#45;&gt;n17</title>
<path fill="none" stroke="black" d="M3519.46,-332.601C3427.17,-320.083 3233.23,-294.935 3068.52,-281.22 2909.32,-267.964 2868.84,-275.073 2709.52,-263.22 2638.8,-257.959 2557.56,-249.572 2504.54,-243.781"/>
<polygon fill="black" stroke="black" points="2504.64,-240.272 2494.32,-242.659 2503.88,-247.23 2504.64,-240.272"/>
<text text-anchor="middle" x="3268.02" y="-285.02" font-family="Times,serif" font-size="14.00"> static(on_board)</text>
</g>
<!-- n18 -->
<g id="node18" class="node"><title>n18</title>
<ellipse fill="none" stroke="black" cx="3503.52" cy="-236.35" rx="62.8651" ry="26.7407"/>
<text text-anchor="middle" x="3503.52" y="-240.15" font-family="Times,serif" font-size="14.00">&lt;objective8&gt;</text>
<text text-anchor="middle" x="3503.52" y="-225.15" font-family="Times,serif" font-size="14.00">objective</text>
</g>
<!-- n2&#45;&gt;n18 -->
<g id="edge12" class="edge"><title>n2&#45;&gt;n18</title>
<path fill="none" stroke="black" d="M3566.77,-314.193C3563.25,-303.435 3558.24,-291.167 3551.52,-281.22 3548.36,-276.542 3544.61,-272.018 3540.61,-267.766"/>
<polygon fill="black" stroke="black" points="3542.78,-264.995 3533.22,-260.432 3537.85,-269.962 3542.78,-264.995"/>
<text text-anchor="middle" x="3627.02" y="-285.02" font-family="Times,serif" font-size="14.00"> static(calibration_target)</text>
</g>
<!-- n19 -->
<g id="node19" class="node"><title>n19</title>
<ellipse fill="none" stroke="black" cx="3239.52" cy="-131.61" rx="53.9813" ry="26.7407"/>
<text text-anchor="middle" x="3239.52" y="-135.41" font-family="Times,serif" font-size="14.00">&lt;low_res&gt;</text>
<text text-anchor="middle" x="3239.52" y="-120.41" font-family="Times,serif" font-size="14.00">mode</text>
</g>
<!-- n2&#45;&gt;n19 -->
<g id="edge45" class="edge"><title>n2&#45;&gt;n19</title>
<path fill="none" stroke="black" d="M3628.5,-334.51C3670.31,-327.707 3717.8,-312.907 3699.52,-281.22 3658.87,-210.738 3415.91,-161.77 3300.42,-142.16"/>
<polygon fill="black" stroke="black" points="3300.76,-138.669 3290.32,-140.465 3299.61,-145.572 3300.76,-138.669"/>
<text text-anchor="middle" x="3727.52" y="-232.65" font-family="Times,serif" font-size="14.00"> static(supports)</text>
</g>
<!-- n3 -->
<g id="node3" class="node"><title>n3</title>
<ellipse fill="none" stroke="black" cx="1239.52" cy="-236.35" rx="62.8651" ry="26.7407"/>
<text text-anchor="middle" x="1239.52" y="-240.15" font-family="Times,serif" font-size="14.00">&lt;objective1&gt;</text>
<text text-anchor="middle" x="1239.52" y="-225.15" font-family="Times,serif" font-size="14.00">objective</text>
</g>
<!-- n4 -->
<g id="node4" class="node"><title>n4</title>
<ellipse fill="none" stroke="black" cx="476.522" cy="-131.61" rx="56.6372" ry="26.7407"/>
<text text-anchor="middle" x="476.522" y="-135.41" font-family="Times,serif" font-size="14.00">&lt;high_res&gt;</text>
<text text-anchor="middle" x="476.522" y="-120.41" font-family="Times,serif" font-size="14.00">mode</text>
</g>
<!-- n3&#45;&gt;n4 -->
<g id="edge20" class="edge"><title>n3&#45;&gt;n4</title>
<path fill="none" stroke="black" d="M1176.38,-236.206C1102.88,-235.281 978.901,-227.709 879.522,-191.48 868.056,-187.3 868.001,-180.624 856.522,-176.48 800.378,-156.213 635.714,-142.778 542.617,-136.573"/>
<polygon fill="black" stroke="black" points="542.666,-133.069 532.458,-135.906 542.207,-140.054 542.666,-133.069"/>
<text text-anchor="middle" x="971.522" y="-180.28" font-family="Times,serif" font-size="14.00"> end(communicated_image_data)</text>
</g>
<!-- n5 -->
<g id="node5" class="node"><title>n5</title>
<ellipse fill="none" stroke="black" cx="1682.52" cy="-26.8701" rx="63.7795" ry="26.7407"/>
<text text-anchor="middle" x="1682.52" y="-30.6701" font-family="Times,serif" font-size="14.00">&lt;waypoint1&gt;</text>
<text text-anchor="middle" x="1682.52" y="-15.6701" font-family="Times,serif" font-size="14.00">waypoint</text>
</g>
<!-- n3&#45;&gt;n5 -->
<g id="edge30" class="edge"><title>n3&#45;&gt;n5</title>
<path fill="none" stroke="black" d="M1259.73,-210.884C1270.33,-199.251 1284.09,-185.87 1298.52,-176.48 1401.38,-109.564 1538.95,-65.5689 1618.44,-43.8432"/>
<polygon fill="black" stroke="black" points="1619.57,-47.1634 1628.31,-41.1778 1617.74,-40.4054 1619.57,-47.1634"/>
<text text-anchor="middle" x="1494.52" y="-127.91" font-family="Times,serif" font-size="14.00"> static(visible_from)</text>
</g>
<!-- n3&#45;&gt;n6 -->
<g id="edge19" class="edge"><title>n3&#45;&gt;n6</title>
<path fill="none" stroke="black" d="M1268.8,-212.372C1289.36,-196.331 1313.68,-177.592 1316.52,-176.48 1352.25,-162.492 1588.44,-145.325 1710.6,-137.24"/>
<polygon fill="black" stroke="black" points="1710.88,-140.729 1720.63,-136.58 1710.42,-133.744 1710.88,-140.729"/>
<text text-anchor="middle" x="1372.52" y="-180.28" font-family="Times,serif" font-size="14.00"> static(visible_from)</text>
</g>
<!-- n5&#45;&gt;n5 -->
<g id="edge2" class="edge"><title>n5&#45;&gt;n5</title>
<path fill="none" stroke="black" d="M1742.33,-36.3053C1755.01,-35.3472 1764.16,-32.2021 1764.16,-26.8701 1764.16,-23.121 1759.64,-20.4531 1752.54,-18.8664"/>
<polygon fill="black" stroke="black" points="1752.72,-15.3569 1742.33,-17.4349 1751.74,-22.2891 1752.72,-15.3569"/>
<text text-anchor="middle" x="1823.16" y="-23.1701" font-family="Times,serif" font-size="14.00"> init(at_rock_sample)</text>
</g>
<!-- n5&#45;&gt;n6 -->
<g id="edge17" class="edge"><title>n5&#45;&gt;n6</title>
<path fill="none" stroke="black" d="M1727.89,-46.0107C1740.09,-52.632 1752.41,-61.1584 1761.52,-71.7401 1767.3,-78.4561 1771.63,-86.8362 1774.85,-95.1484"/>
<polygon fill="black" stroke="black" points="1771.59,-96.4365 1778.13,-104.771 1778.21,-94.1769 1771.59,-96.4365"/>
<text text-anchor="middle" x="1810.52" y="-75.5401" font-family="Times,serif" font-size="14.00"> static(visible)</text>
</g>
<!-- n6&#45;&gt;n5 -->
<g id="edge36" class="edge"><title>n6&#45;&gt;n5</title>
<path fill="none" stroke="black" d="M1726.26,-119.588C1708.23,-113.129 1690.25,-102.906 1679.52,-86.7401 1675.07,-80.0248 1673.64,-71.8701 1673.79,-63.7972"/>
<polygon fill="black" stroke="black" points="1677.29,-64.0108 1674.73,-53.7297 1670.32,-63.3626 1677.29,-64.0108"/>
<text text-anchor="middle" x="1718.52" y="-75.5401" font-family="Times,serif" font-size="14.00"> static(visible)</text>
</g>
<!-- n6&#45;&gt;n6 -->
<g id="edge3" class="edge"><title>n6&#45;&gt;n6</title>
<path fill="none" stroke="black" d="M1843.33,-141.045C1856.01,-140.087 1865.16,-136.942 1865.16,-131.61 1865.16,-127.861 1860.64,-125.193 1853.54,-123.607"/>
<polygon fill="black" stroke="black" points="1853.72,-120.097 1843.33,-122.175 1852.74,-127.029 1853.72,-120.097"/>
<text text-anchor="middle" x="1949.66" y="-135.41" font-family="Times,serif" font-size="14.00"> end(communicated_soil_data)</text>
<text text-anchor="middle" x="1949.66" y="-120.41" font-family="Times,serif" font-size="14.00">init(at_soil_sample)</text>
</g>
<!-- n7 -->
<g id="node7" class="node"><title>n7</title>
<ellipse fill="none" stroke="black" cx="2786.52" cy="-236.35" rx="67.7647" ry="26.7407"/>
<text text-anchor="middle" x="2786.52" y="-240.15" font-family="Times,serif" font-size="14.00">&lt;objective10&gt;</text>
<text text-anchor="middle" x="2786.52" y="-225.15" font-family="Times,serif" font-size="14.00">objective</text>
</g>
<!-- n7&#45;&gt;n4 -->
<g id="edge40" class="edge"><title>n7&#45;&gt;n4</title>
<path fill="none" stroke="black" d="M2739.05,-216.892C2729.41,-213.861 2719.25,-211.164 2709.52,-209.48 2603.85,-191.19 1845.5,-227.594 1744.52,-191.48 1734.39,-187.857 1735.62,-180.187 1725.52,-176.48 1718.52,-173.911 801.542,-143.372 543.43,-134.822"/>
<polygon fill="black" stroke="black" points="543.191,-131.312 533.081,-134.479 542.96,-138.308 543.191,-131.312"/>
<text text-anchor="middle" x="1836.52" y="-180.28" font-family="Times,serif" font-size="14.00"> end(communicated_image_data)</text>
</g>
<!-- n7&#45;&gt;n5 -->
<g id="edge18" class="edge"><title>n7&#45;&gt;n5</title>
<path fill="none" stroke="black" d="M2743.76,-215.262C2711.41,-200.34 2669.57,-181.704 2651.52,-176.48 2325.37,-82.0952 1919.1,-44.5675 1755.64,-32.5993"/>
<polygon fill="black" stroke="black" points="1755.45,-29.0768 1745.23,-31.8476 1754.95,-36.0587 1755.45,-29.0768"/>
<text text-anchor="middle" x="2637.52" y="-127.91" font-family="Times,serif" font-size="14.00"> static(visible_from)</text>
</g>
<!-- n7&#45;&gt;n6 -->
<g id="edge44" class="edge"><title>n7&#45;&gt;n6</title>
<path fill="none" stroke="black" d="M2738.58,-217.071C2729.07,-214.066 2719.08,-211.333 2709.52,-209.48 2576.21,-183.63 2533.49,-233.993 2404.52,-191.48 2392.93,-187.66 2393.09,-180.384 2381.52,-176.48 2286.38,-144.363 1995.02,-135.739 1857.22,-133.438"/>
<polygon fill="black" stroke="black" points="1857.22,-129.938 1847.17,-133.277 1857.11,-136.937 1857.22,-129.938"/>
<text text-anchor="middle" x="2460.52" y="-180.28" font-family="Times,serif" font-size="14.00"> static(visible_from)</text>
</g>
<!-- n7&#45;&gt;n19 -->
<g id="edge7" class="edge"><title>n7&#45;&gt;n19</title>
<path fill="none" stroke="black" d="M2733.27,-219.632C2706.67,-209.162 2683.27,-194.111 2699.52,-176.48 2715.48,-159.172 3036.85,-142.1 3176.1,-135.484"/>
<polygon fill="black" stroke="black" points="3176.38,-138.975 3186.2,-135.007 3176.05,-131.983 3176.38,-138.975"/>
<text text-anchor="middle" x="2791.52" y="-180.28" font-family="Times,serif" font-size="14.00"> end(communicated_image_data)</text>
</g>
<!-- n8 -->
<g id="node8" class="node"><title>n8</title>
<ellipse fill="none" stroke="black" cx="422.522" cy="-341.09" rx="56.6372" ry="26.7407"/>
<text text-anchor="middle" x="422.522" y="-344.89" font-family="Times,serif" font-size="14.00">&lt;camera0&gt;</text>
<text text-anchor="middle" x="422.522" y="-329.89" font-family="Times,serif" font-size="14.00">camera</text>
</g>
<!-- n8&#45;&gt;n4 -->
<g id="edge38" class="edge"><title>n8&#45;&gt;n4</title>
<path fill="none" stroke="black" d="M367.402,-334.141C322.973,-326.119 263.184,-307.305 233.522,-263.22 220.189,-243.404 218.855,-228.33 233.522,-209.48 253.514,-183.788 274.172,-203.254 304.522,-191.48 317.684,-186.374 319.485,-181.897 332.522,-176.48 359.808,-165.144 391.078,-155.264 417.492,-147.766"/>
<polygon fill="black" stroke="black" points="418.67,-151.071 427.36,-145.01 416.787,-144.329 418.67,-151.071"/>
<text text-anchor="middle" x="277.522" y="-232.65" font-family="Times,serif" font-size="14.00"> static(supports)</text>
</g>
<!-- n10 -->
<g id="node10" class="node"><title>n10</title>
<ellipse fill="none" stroke="black" cx="608.522" cy="-236.35" rx="62.8651" ry="26.7407"/>
<text text-anchor="middle" x="608.522" y="-240.15" font-family="Times,serif" font-size="14.00">&lt;objective5&gt;</text>
<text text-anchor="middle" x="608.522" y="-225.15" font-family="Times,serif" font-size="14.00">objective</text>
</g>
<!-- n8&#45;&gt;n10 -->
<g id="edge26" class="edge"><title>n8&#45;&gt;n10</title>
<path fill="none" stroke="black" d="M416.114,-314.29C414.867,-302.909 415.848,-290.125 423.522,-281.22 439.406,-262.789 507.916,-269.113 531.522,-263.22 538.141,-261.568 545.008,-259.616 551.793,-257.538"/>
<polygon fill="black" stroke="black" points="553.159,-260.776 561.636,-254.421 551.046,-254.103 553.159,-260.776"/>
<text text-anchor="middle" x="492.022" y="-285.02" font-family="Times,serif" font-size="14.00"> static(calibration_target)</text>
</g>
<!-- n8&#45;&gt;n17 -->
<g id="edge29" class="edge"><title>n8&#45;&gt;n17</title>
<path fill="none" stroke="black" d="M478.918,-337.571C670.042,-329.071 1310.84,-300.883 1840.52,-281.22 1962.73,-276.684 2271.44,-291.026 2390.52,-263.22 2394.93,-262.192 2399.41,-260.814 2403.82,-259.227"/>
<polygon fill="black" stroke="black" points="2405.31,-262.403 2413.32,-255.475 2402.73,-255.893 2405.31,-262.403"/>
<text text-anchor="middle" x="2138.02" y="-285.02" font-family="Times,serif" font-size="14.00"> static(on_board)</text>
</g>
<!-- n9 -->
<g id="node9" class="node"><title>n9</title>
<ellipse fill="none" stroke="black" cx="2276.52" cy="-341.09" rx="56.6372" ry="26.7407"/>
<text text-anchor="middle" x="2276.52" y="-344.89" font-family="Times,serif" font-size="14.00">&lt;camera1&gt;</text>
<text text-anchor="middle" x="2276.52" y="-329.89" font-family="Times,serif" font-size="14.00">camera</text>
</g>
<!-- n9&#45;&gt;n4 -->
<g id="edge39" class="edge"><title>n9&#45;&gt;n4</title>
<path fill="none" stroke="black" d="M2219.95,-338.427C2048.06,-332.952 1516.88,-312.915 1079.52,-263.22 1024.85,-257.008 641.778,-208.716 589.522,-191.48 576.115,-187.058 574.018,-183.051 561.522,-176.48 549.104,-169.95 535.623,-162.951 523.135,-156.505"/>
<polygon fill="black" stroke="black" points="524.738,-153.394 514.246,-151.923 521.531,-159.616 524.738,-153.394"/>
<text text-anchor="middle" x="1123.52" y="-232.65" font-family="Times,serif" font-size="14.00"> static(supports)</text>
</g>
<!-- n9&#45;&gt;n10 -->
<g id="edge41" class="edge"><title>n9&#45;&gt;n10</title>
<path fill="none" stroke="black" d="M2220.36,-337.748C2098.92,-332.754 1802.78,-320.968 1554.52,-314.22 1527.56,-313.487 602.42,-315.472 583.522,-296.22 576.58,-289.148 577.517,-279.852 581.683,-270.742"/>
<polygon fill="black" stroke="black" points="584.874,-272.21 586.753,-261.783 578.782,-268.762 584.874,-272.21"/>
<text text-anchor="middle" x="652.022" y="-285.02" font-family="Times,serif" font-size="14.00"> static(calibration_target)</text>
</g>
<!-- n9&#45;&gt;n17 -->
<g id="edge25" class="edge"><title>n9&#45;&gt;n17</title>
<path fill="none" stroke="black" d="M2317.37,-322.173C2332.84,-314.818 2350.37,-305.784 2365.52,-296.22 2374.62,-290.477 2375.88,-287.631 2384.52,-281.22 2392.47,-275.327 2401.1,-269.163 2409.35,-263.381"/>
<polygon fill="black" stroke="black" points="2411.57,-266.106 2417.78,-257.521 2407.57,-260.36 2411.57,-266.106"/>
<text text-anchor="middle" x="2431.02" y="-285.02" font-family="Times,serif" font-size="14.00"> static(on_board)</text>
</g>
<!-- n9&#45;&gt;n19 -->
<g id="edge6" class="edge"><title>n9&#45;&gt;n19</title>
<path fill="none" stroke="black" d="M2328.02,-329.64C2357.1,-324.147 2394.2,-317.823 2427.52,-314.22 2567.83,-299.048 2928.1,-311.994 3060.52,-263.22 3102.11,-247.903 3103.6,-226.49 3144.52,-209.48 3178.58,-195.326 3199.25,-217.363 3225.52,-191.48 3231.76,-185.333 3235.42,-176.945 3237.52,-168.429"/>
<polygon fill="black" stroke="black" points="3240.98,-168.964 3239.33,-158.498 3234.09,-167.71 3240.98,-168.964"/>
<text text-anchor="middle" x="3190.52" y="-232.65" font-family="Times,serif" font-size="14.00"> static(supports)</text>
</g>
<!-- n23 -->
<g id="node23" class="node"><title>n23</title>
<ellipse fill="none" stroke="black" cx="2333.52" cy="-236.35" rx="48.1667" ry="26.7407"/>
<text text-anchor="middle" x="2333.52" y="-240.15" font-family="Times,serif" font-size="14.00">&lt;colour&gt;</text>
<text text-anchor="middle" x="2333.52" y="-225.15" font-family="Times,serif" font-size="14.00">mode</text>
</g>
<!-- n9&#45;&gt;n23 -->
<g id="edge22" class="edge"><title>n9&#45;&gt;n23</title>
<path fill="none" stroke="black" d="M2272.22,-314.017C2271.64,-303.349 2272.56,-291.196 2277.52,-281.22 2281.08,-274.067 2286.42,-267.728 2292.4,-262.248"/>
<polygon fill="black" stroke="black" points="2294.77,-264.835 2300.25,-255.77 2290.31,-259.437 2294.77,-264.835"/>
<text text-anchor="middle" x="2321.52" y="-285.02" font-family="Times,serif" font-size="14.00"> static(supports)</text>
</g>
<!-- n10&#45;&gt;n4 -->
<g id="edge43" class="edge"><title>n10&#45;&gt;n4</title>
<path fill="none" stroke="black" d="M562.136,-218.039C552.146,-214.799 541.568,-211.729 531.522,-209.48 497.899,-201.953 400.428,-217.219 377.522,-191.48 360.129,-171.935 386.375,-156.991 416.197,-147.05"/>
<polygon fill="black" stroke="black" points="417.454,-150.324 425.954,-143.999 415.365,-143.643 417.454,-150.324"/>
<text text-anchor="middle" x="469.522" y="-180.28" font-family="Times,serif" font-size="14.00"> end(communicated_image_data)</text>
</g>
<!-- n10&#45;&gt;n5 -->
<g id="edge27" class="edge"><title>n10&#45;&gt;n5</title>
<path fill="none" stroke="black" d="M565.613,-216.654C557.42,-213.768 548.812,-211.184 540.522,-209.48 517.102,-204.667 127.072,-208.737 110.522,-191.48 105.908,-186.669 106.741,-181.971 110.522,-176.48 161.25,-102.827 211.055,-123.384 298.522,-104.74 552.138,-50.6803 1359.59,-33.1624 1608.65,-28.9735"/>
<polygon fill="black" stroke="black" points="1608.74,-32.4726 1618.68,-28.8069 1608.63,-25.4735 1608.74,-32.4726"/>
<text text-anchor="middle" x="354.522" y="-127.91" font-family="Times,serif" font-size="14.00"> static(visible_from)</text>
</g>
<!-- n10&#45;&gt;n6 -->
<g id="edge42" class="edge"><title>n10&#45;&gt;n6</title>
<path fill="none" stroke="black" d="M658.091,-219.727C678.381,-212.419 701.699,-202.812 721.522,-191.48 730.863,-186.141 730.408,-180.147 740.522,-176.48 809.491,-151.478 1327.24,-161.953 1400.52,-158.48 1508.83,-153.348 1634.16,-144.29 1711.14,-138.369"/>
<polygon fill="black" stroke="black" points="1711.51,-141.851 1721.21,-137.591 1710.97,-134.872 1711.51,-141.851"/>
<text text-anchor="middle" x="796.522" y="-180.28" font-family="Times,serif" font-size="14.00"> static(visible_from)</text>
</g>
<!-- n11 -->
<g id="node11" class="node"><title>n11</title>
<ellipse fill="none" stroke="black" cx="1383.52" cy="-236.35" rx="62.8651" ry="26.7407"/>
<text text-anchor="middle" x="1383.52" y="-240.15" font-family="Times,serif" font-size="14.00">&lt;objective0&gt;</text>
<text text-anchor="middle" x="1383.52" y="-225.15" font-family="Times,serif" font-size="14.00">objective</text>
</g>
<!-- n11&#45;&gt;n4 -->
<g id="edge15" class="edge"><title>n11&#45;&gt;n4</title>
<path fill="none" stroke="black" d="M1338.72,-217.266C1329.83,-214.244 1320.47,-211.455 1311.52,-209.48 1223.94,-190.159 1198.44,-209.222 1110.52,-191.48 1089.03,-187.143 1085.05,-180.659 1063.52,-176.48 877.655,-140.394 653.364,-133.563 543.619,-132.542"/>
<polygon fill="black" stroke="black" points="543.388,-129.04 533.361,-132.461 543.333,-136.04 543.388,-129.04"/>
<text text-anchor="middle" x="1202.52" y="-180.28" font-family="Times,serif" font-size="14.00"> end(communicated_image_data)</text>
</g>
<!-- n11&#45;&gt;n6 -->
<g id="edge13" class="edge"><title>n11&#45;&gt;n6</title>
<path fill="none" stroke="black" d="M1408.73,-211.546C1424.51,-197.183 1443.64,-180.841 1453.52,-176.48 1498.25,-156.735 1628,-143.927 1710.85,-137.511"/>
<polygon fill="black" stroke="black" points="1711.26,-140.99 1720.96,-136.742 1710.73,-134.011 1711.26,-140.99"/>
<text text-anchor="middle" x="1509.52" y="-180.28" font-family="Times,serif" font-size="14.00"> static(visible_from)</text>
</g>
<!-- n12 -->
<g id="node12" class="node"><title>n12</title>
<ellipse fill="none" stroke="black" cx="2503.52" cy="-341.09" rx="67.3507" ry="26.7407"/>
<text text-anchor="middle" x="2503.52" y="-344.89" font-family="Times,serif" font-size="14.00">&lt;rover0store&gt;</text>
<text text-anchor="middle" x="2503.52" y="-329.89" font-family="Times,serif" font-size="14.00">store</text>
</g>
<!-- n12&#45;&gt;n12 -->
<g id="edge4" class="edge"><title>n12&#45;&gt;n12</title>
<path fill="none" stroke="black" d="M2566.67,-350.468C2579.51,-349.447 2588.7,-346.321 2588.7,-341.09 2588.7,-337.413 2584.15,-334.775 2576.99,-333.179"/>
<polygon fill="black" stroke="black" points="2577.06,-329.653 2566.67,-331.712 2576.08,-336.584 2577.06,-329.653"/>
<text text-anchor="middle" x="2621.7" y="-337.39" font-family="Times,serif" font-size="14.00"> init(empty)</text>
</g>
<!-- n12&#45;&gt;n17 -->
<g id="edge35" class="edge"><title>n12&#45;&gt;n17</title>
<path fill="none" stroke="black" d="M2495.72,-314.133C2492.07,-303.599 2487.26,-291.513 2481.52,-281.22 2479.3,-277.23 2476.73,-273.214 2474.03,-269.317"/>
<polygon fill="black" stroke="black" points="2476.69,-267.034 2467.96,-261.035 2471.05,-271.171 2476.69,-267.034"/>
<text text-anchor="middle" x="2531.52" y="-285.02" font-family="Times,serif" font-size="14.00"> static(store_of)</text>
</g>
<!-- n13 -->
<g id="node13" class="node"><title>n13</title>
<ellipse fill="none" stroke="black" cx="2204.52" cy="-236.35" rx="62.8651" ry="26.7407"/>
<text text-anchor="middle" x="2204.52" y="-240.15" font-family="Times,serif" font-size="14.00">&lt;objective3&gt;</text>
<text text-anchor="middle" x="2204.52" y="-225.15" font-family="Times,serif" font-size="14.00">objective</text>
</g>
<!-- n13&#45;&gt;n6 -->
<g id="edge48" class="edge"><title>n13&#45;&gt;n6</title>
<path fill="none" stroke="black" d="M2189.21,-210.198C2180.36,-197.94 2168.1,-184.207 2153.52,-176.48 2103.67,-150.051 1949.93,-139.27 1857.05,-135.083"/>
<polygon fill="black" stroke="black" points="1857.01,-131.578 1846.87,-134.64 1856.71,-138.572 1857.01,-131.578"/>
<text text-anchor="middle" x="2228.52" y="-180.28" font-family="Times,serif" font-size="14.00"> static(visible_from)</text>
</g>
<!-- n14 -->
<g id="node14" class="node"><title>n14</title>
<ellipse fill="none" stroke="black" cx="119.522" cy="-236.35" rx="62.8651" ry="26.7407"/>
<text text-anchor="middle" x="119.522" y="-240.15" font-family="Times,serif" font-size="14.00">&lt;objective4&gt;</text>
<text text-anchor="middle" x="119.522" y="-225.15" font-family="Times,serif" font-size="14.00">objective</text>
</g>
<!-- n14&#45;&gt;n4 -->
<g id="edge14" class="edge"><title>n14&#45;&gt;n4</title>
<path fill="none" stroke="black" d="M112.943,-209.4C111.66,-197.987 112.661,-185.22 120.522,-176.48 130.136,-165.794 311.109,-147.698 411.229,-138.443"/>
<polygon fill="black" stroke="black" points="411.611,-141.922 421.248,-137.521 410.969,-134.952 411.611,-141.922"/>
<text text-anchor="middle" x="212.522" y="-180.28" font-family="Times,serif" font-size="14.00"> end(communicated_image_data)</text>
</g>
<!-- n14&#45;&gt;n5 -->
<g id="edge31" class="edge"><title>n14&#45;&gt;n5</title>
<path fill="none" stroke="black" d="M75.8119,-216.946C51.8409,-204.311 24.2709,-185 10.5224,-158.48 -0.470649,-137.276 -5.6766,-122.292 10.5224,-104.74 65.42,-45.2579 1291.69,-31.0846 1608.41,-28.4111"/>
<polygon fill="black" stroke="black" points="1608.88,-31.9074 1618.85,-28.3244 1608.82,-24.9076 1608.88,-31.9074"/>
<text text-anchor="middle" x="66.5224" y="-127.91" font-family="Times,serif" font-size="14.00"> static(visible_from)</text>
</g>
<!-- n14&#45;&gt;n6 -->
<g id="edge16" class="edge"><title>n14&#45;&gt;n6</title>
<path fill="none" stroke="black" d="M165.586,-217.785C175.954,-214.477 187.004,-211.444 197.522,-209.48 358.492,-179.429 405.161,-224.626 565.522,-191.48 584.116,-187.637 586.88,-180.079 605.522,-176.48 692.277,-159.732 1312.26,-162.458 1400.52,-158.48 1508.84,-153.598 1634.17,-144.473 1711.14,-138.469"/>
<polygon fill="black" stroke="black" points="1711.52,-141.951 1721.21,-137.68 1710.97,-134.972 1711.52,-141.951"/>
<text text-anchor="middle" x="661.522" y="-180.28" font-family="Times,serif" font-size="14.00"> static(visible_from)</text>
</g>
<!-- n15 -->
<g id="node15" class="node"><title>n15</title>
<ellipse fill="none" stroke="black" cx="1675.52" cy="-236.35" rx="62.8651" ry="26.7407"/>
<text text-anchor="middle" x="1675.52" y="-240.15" font-family="Times,serif" font-size="14.00">&lt;objective7&gt;</text>
<text text-anchor="middle" x="1675.52" y="-225.15" font-family="Times,serif" font-size="14.00">objective</text>
</g>
<!-- n15&#45;&gt;n6 -->
<g id="edge49" class="edge"><title>n15&#45;&gt;n6</title>
<path fill="none" stroke="black" d="M1633.65,-215.878C1616.22,-205.067 1602.34,-190.913 1613.52,-176.48 1626.03,-160.341 1671.99,-149.08 1712.97,-142.011"/>
<polygon fill="black" stroke="black" points="1713.7,-145.439 1722.99,-140.348 1712.55,-138.534 1713.7,-145.439"/>
<text text-anchor="middle" x="1669.52" y="-180.28" font-family="Times,serif" font-size="14.00"> static(visible_from)</text>
</g>
<!-- n16 -->
<g id="node16" class="node"><title>n16</title>
<ellipse fill="none" stroke="black" cx="2988.52" cy="-236.35" rx="62.8651" ry="26.7407"/>
<text text-anchor="middle" x="2988.52" y="-240.15" font-family="Times,serif" font-size="14.00">&lt;objective2&gt;</text>
<text text-anchor="middle" x="2988.52" y="-225.15" font-family="Times,serif" font-size="14.00">objective</text>
</g>
<!-- n16&#45;&gt;n6 -->
<g id="edge47" class="edge"><title>n16&#45;&gt;n6</title>
<path fill="none" stroke="black" d="M2934.36,-222.403C2912.48,-217.629 2886.91,-212.624 2863.52,-209.48 2737.73,-192.577 2704.01,-210.475 2578.52,-191.48 2550.49,-187.237 2544.56,-180.677 2516.52,-176.48 2277.22,-140.661 1989.83,-133.84 1857.2,-132.708"/>
<polygon fill="black" stroke="black" points="1857.18,-129.208 1847.16,-132.631 1857.13,-136.208 1857.18,-129.208"/>
<text text-anchor="middle" x="2634.52" y="-180.28" font-family="Times,serif" font-size="14.00"> static(visible_from)</text>
</g>
<!-- n16&#45;&gt;n19 -->
<g id="edge50" class="edge"><title>n16&#45;&gt;n19</title>
<path fill="none" stroke="black" d="M3005.43,-210.198C3014.73,-198.248 3027.27,-184.793 3041.52,-176.48 3082.6,-152.527 3135.44,-141.637 3176.2,-136.694"/>
<polygon fill="black" stroke="black" points="3176.75,-140.155 3186.29,-135.561 3175.96,-133.199 3176.75,-140.155"/>
<text text-anchor="middle" x="3133.52" y="-180.28" font-family="Times,serif" font-size="14.00"> end(communicated_image_data)</text>
</g>
<!-- n17&#45;&gt;n6 -->
<g id="edge32" class="edge"><title>n17&#45;&gt;n6</title>
<path fill="none" stroke="black" d="M2411.6,-218.304C2404.67,-215.225 2397.41,-212.149 2390.52,-209.48 2368.31,-200.877 2311.87,-181.208 2288.52,-176.48 2137.32,-145.866 1956.4,-136.608 1857.36,-133.813"/>
<polygon fill="black" stroke="black" points="1857.25,-130.309 1847.16,-133.54 1857.06,-137.307 1857.25,-130.309"/>
<text text-anchor="middle" x="2359.02" y="-180.28" font-family="Times,serif" font-size="14.00"> init(at)</text>
</g>
<!-- n17&#45;&gt;n17 -->
<g id="edge5" class="edge"><title>n17&#45;&gt;n17</title>
<path fill="none" stroke="black" d="M2492.62,-246.015C2504.56,-245.462 2513.61,-242.241 2513.61,-236.35 2513.61,-232.3 2509.33,-229.512 2502.78,-227.986"/>
<polygon fill="black" stroke="black" points="2502.98,-224.483 2492.62,-226.686 2502.09,-231.427 2502.98,-224.483"/>
<text text-anchor="middle" x="2607.11" y="-247.65" font-family="Times,serif" font-size="14.00"> static(equipped_for_imaging)</text>
<text text-anchor="middle" x="2607.11" y="-232.65" font-family="Times,serif" font-size="14.00">init(available)</text>
<text text-anchor="middle" x="2607.11" y="-217.65" font-family="Times,serif" font-size="14.00">static(equipped_for_soil_analysis)</text>
</g>
<!-- n18&#45;&gt;n5 -->
<g id="edge23" class="edge"><title>n18&#45;&gt;n5</title>
<path fill="none" stroke="black" d="M3477.33,-211.641C3441.1,-180.518 3372.23,-127.211 3302.52,-104.74 3154.37,-56.9855 2053.45,-34.3758 1756.27,-29.1022"/>
<polygon fill="black" stroke="black" points="1756.1,-25.5988 1746.04,-28.9219 1755.97,-32.5977 1756.1,-25.5988"/>
<text text-anchor="middle" x="3462.52" y="-127.91" font-family="Times,serif" font-size="14.00"> static(visible_from)</text>
</g>
<!-- n18&#45;&gt;n6 -->
<g id="edge28" class="edge"><title>n18&#45;&gt;n6</title>
<path fill="none" stroke="black" d="M3447.93,-223.753C3420.53,-218.502 3386.92,-212.75 3356.52,-209.48 3257.24,-198.802 3002.94,-220.927 2907.52,-191.48 2895.5,-187.771 2895.54,-180.188 2883.52,-176.48 2834.57,-161.378 2095.81,-140.795 1857.22,-134.51"/>
<polygon fill="black" stroke="black" points="1857,-131.003 1846.92,-134.239 1856.82,-138 1857,-131.003"/>
<text text-anchor="middle" x="2963.52" y="-180.28" font-family="Times,serif" font-size="14.00"> static(visible_from)</text>
</g>
<!-- n20 -->
<g id="node20" class="node"><title>n20</title>
<ellipse fill="none" stroke="black" cx="3210.52" cy="-341.09" rx="56.6372" ry="26.7407"/>
<text text-anchor="middle" x="3210.52" y="-344.89" font-family="Times,serif" font-size="14.00">&lt;camera3&gt;</text>
<text text-anchor="middle" x="3210.52" y="-329.89" font-family="Times,serif" font-size="14.00">camera</text>
</g>
<!-- n20&#45;&gt;n17 -->
<g id="edge11" class="edge"><title>n20&#45;&gt;n17</title>
<path fill="none" stroke="black" d="M3159.27,-329.707C3094.55,-316.881 2979.66,-295.065 2880.52,-281.22 2862.2,-278.661 2618.4,-254.333 2504.91,-243.048"/>
<polygon fill="black" stroke="black" points="2504.97,-239.537 2494.67,-242.031 2504.28,-246.503 2504.97,-239.537"/>
<text text-anchor="middle" x="3018.02" y="-285.02" font-family="Times,serif" font-size="14.00"> static(on_board)</text>
</g>
<!-- n20&#45;&gt;n18 -->
<g id="edge8" class="edge"><title>n20&#45;&gt;n18</title>
<path fill="none" stroke="black" d="M3264.87,-333.169C3301.94,-326.973 3351.4,-315.751 3391.52,-296.22 3401.2,-291.511 3401.38,-286.885 3410.52,-281.22 3422.98,-273.507 3437,-266.23 3450.31,-259.904"/>
<polygon fill="black" stroke="black" points="3451.8,-263.074 3459.39,-255.682 3448.84,-256.728 3451.8,-263.074"/>
<text text-anchor="middle" x="3479.02" y="-285.02" font-family="Times,serif" font-size="14.00"> static(calibration_target)</text>
</g>
<!-- n20&#45;&gt;n19 -->
<g id="edge24" class="edge"><title>n20&#45;&gt;n19</title>
<path fill="none" stroke="black" d="M3219.77,-314.488C3229.79,-285.215 3245.07,-235.631 3250.52,-191.48 3251.45,-183.96 3250.96,-175.951 3249.78,-168.341"/>
<polygon fill="black" stroke="black" points="3253.17,-167.436 3247.82,-158.293 3246.3,-168.779 3253.17,-167.436"/>
<text text-anchor="middle" x="3292.52" y="-232.65" font-family="Times,serif" font-size="14.00"> static(supports)</text>
</g>
<!-- n20&#45;&gt;n23 -->
<g id="edge21" class="edge"><title>n20&#45;&gt;n23</title>
<path fill="none" stroke="black" d="M3155.3,-334.944C2971.66,-317.825 2392.85,-263.838 2390.52,-263.22 2386.21,-262.075 2381.82,-260.631 2377.48,-259.015"/>
<polygon fill="black" stroke="black" points="2378.7,-255.735 2368.12,-255.249 2376.09,-262.229 2378.7,-255.735"/>
<text text-anchor="middle" x="2772.52" y="-285.02" font-family="Times,serif" font-size="14.00"> static(supports)</text>
</g>
<!-- n21 -->
<g id="node21" class="node"><title>n21</title>
<ellipse fill="none" stroke="black" cx="1819.52" cy="-236.35" rx="62.8651" ry="26.7407"/>
<text text-anchor="middle" x="1819.52" y="-240.15" font-family="Times,serif" font-size="14.00">&lt;objective6&gt;</text>
<text text-anchor="middle" x="1819.52" y="-225.15" font-family="Times,serif" font-size="14.00">objective</text>
</g>
<!-- n21&#45;&gt;n6 -->
<g id="edge37" class="edge"><title>n21&#45;&gt;n6</title>
<path fill="none" stroke="black" d="M1866.82,-218.363C1896.84,-207.355 1930.44,-194.519 1932.52,-191.48 1936.29,-185.979 1936.52,-181.819 1932.52,-176.48 1914.9,-152.915 1885.22,-141.469 1856.97,-136.092"/>
<polygon fill="black" stroke="black" points="1857.5,-132.632 1847.06,-134.433 1856.34,-139.536 1857.5,-132.632"/>
<text text-anchor="middle" x="1991.52" y="-180.28" font-family="Times,serif" font-size="14.00"> static(visible_from)</text>
</g>
<!-- n22 -->
<g id="node22" class="node"><title>n22</title>
<ellipse fill="none" stroke="black" cx="1482.52" cy="-341.09" rx="62.8651" ry="26.7407"/>
<text text-anchor="middle" x="1482.52" y="-344.89" font-family="Times,serif" font-size="14.00">&lt;objective9&gt;</text>
<text text-anchor="middle" x="1482.52" y="-329.89" font-family="Times,serif" font-size="14.00">objective</text>
</g>
<!-- n22&#45;&gt;n4 -->
<g id="edge34" class="edge"><title>n22&#45;&gt;n4</title>
<path fill="none" stroke="black" d="M1419.47,-339.161C1204.78,-335.766 510.233,-322.825 413.522,-296.22 383.802,-288.045 368.303,-289.699 352.522,-263.22 340.295,-242.703 347.177,-232.759 352.522,-209.48 356.17,-193.594 356.625,-187.622 368.522,-176.48 382.108,-163.758 399.871,-154.515 417.057,-147.893"/>
<polygon fill="black" stroke="black" points="418.297,-151.166 426.515,-144.478 415.92,-144.582 418.297,-151.166"/>
<text text-anchor="middle" x="444.522" y="-232.65" font-family="Times,serif" font-size="14.00"> end(communicated_image_data)</text>
</g>
<!-- n22&#45;&gt;n6 -->
<g id="edge33" class="edge"><title>n22&#45;&gt;n6</title>
<path fill="none" stroke="black" d="M1476.16,-314.231C1470.68,-285.239 1467.06,-238.5 1491.52,-209.48 1513.34,-183.603 1533.17,-201.441 1565.52,-191.48 1583.67,-185.893 1587.38,-182.095 1605.52,-176.48 1642.33,-165.087 1684.12,-154.659 1717.96,-146.832"/>
<polygon fill="black" stroke="black" points="1718.77,-150.237 1727.74,-144.591 1717.21,-143.414 1718.77,-150.237"/>
<text text-anchor="middle" x="1547.52" y="-232.65" font-family="Times,serif" font-size="14.00"> static(visible_from)</text>
</g>
<!-- n22&#45;&gt;n23 -->
<g id="edge10" class="edge"><title>n22&#45;&gt;n23</title>
<path fill="none" stroke="black" d="M1543.28,-334.09C1652.03,-323.367 1887.11,-300.255 2085.52,-281.22 2170.4,-273.078 2194.12,-285.141 2276.52,-263.22 2280.83,-262.074 2285.23,-260.629 2289.57,-259.013"/>
<polygon fill="black" stroke="black" points="2290.96,-262.227 2298.93,-255.247 2288.34,-255.733 2290.96,-262.227"/>
<text text-anchor="middle" x="2177.52" y="-285.02" font-family="Times,serif" font-size="14.00"> end(communicated_image_data)</text>
</g>
</g>
</svg>
