<?xml version="1.0" encoding="UTF-8" standalone="no"?>
<!DOCTYPE svg PUBLIC "-//W3C//DTD SVG 1.1//EN"
 "http://www.w3.org/Graphics/SVG/1.1/DTD/svg11.dtd">
<!-- Generated by graphviz version 2.38.0 (20140413.2041)
 -->
<!-- Title: Struc Pages: 1 -->
<svg width="872pt" height="400pt"
 viewBox="0.00 0.00 872.17 399.96" xmlns="http://www.w3.org/2000/svg" xmlns:xlink="http://www.w3.org/1999/xlink">
<g id="graph0" class="graph" transform="scale(1 1) rotate(0) translate(4 395.96)">
<title>Struc</title>
<polygon fill="white" stroke="none" points="-4,4 -4,-395.96 868.167,-395.96 868.167,4 -4,4"/>
<!-- n1 -->
<g id="node1" class="node"><title>n1</title>
<ellipse fill="none" stroke="black" cx="237.083" cy="-361.09" rx="56.6326" ry="26.7574"/>
<ellipse fill="none" stroke="black" cx="237.083" cy="-361.09" rx="60.6372" ry="30.7407"/>
<text text-anchor="middle" x="237.083" y="-364.89" font-family="Times,serif" font-size="14.00">&lt;camera1&gt;</text>
<text text-anchor="middle" x="237.083" y="-349.89" font-family="Times,serif" font-size="14.00">camera</text>
</g>
<!-- n2 -->
<g id="node2" class="node"><title>n2</title>
<ellipse fill="none" stroke="black" cx="52.0833" cy="-135.61" rx="48.1603" ry="26.7574"/>
<ellipse fill="none" stroke="black" cx="52.0833" cy="-135.61" rx="52.1667" ry="30.7407"/>
<text text-anchor="middle" x="52.0833" y="-139.41" font-family="Times,serif" font-size="14.00">&lt;colour&gt;</text>
<text text-anchor="middle" x="52.0833" y="-124.41" font-family="Times,serif" font-size="14.00">mode</text>
</g>
<!-- n1&#45;&gt;n2 -->
<g id="edge7" class="edge"><title>n1&#45;&gt;n2</title>
<path fill="none" stroke="black" stroke-dasharray="5,2" d="M183.003,-346.803C146.537,-335.042 100.283,-314.168 73.0833,-279.22 50.5738,-250.299 46.9453,-207.798 47.9622,-176.719"/>
<polygon fill="black" stroke="black" points="51.4617,-176.815 48.4646,-166.653 44.4704,-176.466 51.4617,-176.815"/>
<text text-anchor="middle" x="117.083" y="-244.65" font-family="Times,serif" font-size="14.00"> static(supports)</text>
</g>
<!-- n4 -->
<g id="node4" class="node"><title>n4</title>
<ellipse fill="none" stroke="black" cx="237.083" cy="-248.35" rx="62.8691" ry="26.7574"/>
<ellipse fill="none" stroke="black" cx="237.083" cy="-248.35" rx="66.8651" ry="30.7407"/>
<text text-anchor="middle" x="237.083" y="-252.15" font-family="Times,serif" font-size="14.00">&lt;objective1&gt;</text>
<text text-anchor="middle" x="237.083" y="-237.15" font-family="Times,serif" font-size="14.00">objective</text>
</g>
<!-- n1&#45;&gt;n4 -->
<g id="edge15" class="edge"><title>n1&#45;&gt;n4</title>
<path fill="none" stroke="black" stroke-dasharray="5,2" d="M237.083,-330.123C237.083,-317.689 237.083,-303.073 237.083,-289.717"/>
<polygon fill="black" stroke="black" points="240.583,-289.342 237.083,-279.342 233.583,-289.342 240.583,-289.342"/>
<text text-anchor="middle" x="305.583" y="-301.02" font-family="Times,serif" font-size="14.00"> static(calibration_target)</text>
</g>
<!-- n8 -->
<g id="node8" class="node"><title>n8</title>
<ellipse fill="none" stroke="black" cx="611.083" cy="-248.35" rx="48.1667" ry="26.7407"/>
<text text-anchor="middle" x="611.083" y="-252.15" font-family="Times,serif" font-size="14.00">&lt;rover0&gt;</text>
<text text-anchor="middle" x="611.083" y="-237.15" font-family="Times,serif" font-size="14.00">rover</text>
</g>
<!-- n1&#45;&gt;n8 -->
<g id="edge13" class="edge"><title>n1&#45;&gt;n8</title>
<path fill="none" stroke="black" d="M293.563,-349.823C357.929,-337.18 465.655,-313.136 554.083,-279.22 558.978,-277.343 563.993,-275.15 568.92,-272.821"/>
<polygon fill="black" stroke="black" points="570.817,-275.788 578.232,-268.221 567.716,-269.512 570.817,-275.788"/>
<text text-anchor="middle" x="541.583" y="-301.02" font-family="Times,serif" font-size="14.00"> static(on_board)</text>
</g>
<!-- n3 -->
<g id="node3" class="node"><title>n3</title>
<ellipse fill="none" stroke="black" cx="461.083" cy="-135.61" rx="63.7795" ry="26.7407"/>
<text text-anchor="middle" x="461.083" y="-139.41" font-family="Times,serif" font-size="14.00">&lt;waypoint0&gt;</text>
<text text-anchor="middle" x="461.083" y="-124.41" font-family="Times,serif" font-size="14.00">waypoint</text>
</g>
<!-- n3&#45;&gt;n3 -->
<g id="edge1" class="edge"><title>n3&#45;&gt;n3</title>
<path fill="none" stroke="black" d="M520.16,-145.828C533.215,-144.868 542.723,-141.462 542.723,-135.61 542.723,-131.404 537.811,-128.462 530.2,-126.783"/>
<polygon fill="black" stroke="black" points="530.545,-123.298 520.16,-125.393 529.585,-130.231 530.545,-123.298"/>
<text text-anchor="middle" x="627.223" y="-139.41" font-family="Times,serif" font-size="14.00"> end(communicated_soil_data)</text>
<text text-anchor="middle" x="627.223" y="-124.41" font-family="Times,serif" font-size="14.00">init(at_soil_sample)</text>
</g>
<!-- n7 -->
<g id="node7" class="node"><title>n7</title>
<ellipse fill="none" stroke="black" cx="360.083" cy="-26.8701" rx="63.7795" ry="26.7407"/>
<text text-anchor="middle" x="360.083" y="-30.6701" font-family="Times,serif" font-size="14.00">&lt;waypoint1&gt;</text>
<text text-anchor="middle" x="360.083" y="-15.6701" font-family="Times,serif" font-size="14.00">waypoint</text>
</g>
<!-- n3&#45;&gt;n7 -->
<g id="edge8" class="edge"><title>n3&#45;&gt;n7</title>
<path fill="none" stroke="black" d="M456.462,-108.595C453.238,-96.3473 447.876,-82.1745 439.083,-71.7401 432.265,-63.6491 423.556,-56.7763 414.426,-51.0415"/>
<polygon fill="black" stroke="black" points="415.992,-47.9035 405.591,-45.8892 412.466,-53.9504 415.992,-47.9035"/>
<text text-anchor="middle" x="487.083" y="-75.5401" font-family="Times,serif" font-size="14.00"> static(visible)</text>
</g>
<!-- n4&#45;&gt;n2 -->
<g id="edge6" class="edge"><title>n4&#45;&gt;n2</title>
<path fill="none" stroke="black" stroke-dasharray="5,2" d="M180.231,-231.853C132.299,-218.679 71.1467,-201.572 69.0833,-199.48 62.919,-193.232 58.93,-184.993 56.3638,-176.544"/>
<polygon fill="black" stroke="black" points="59.7192,-175.529 53.9599,-166.637 52.9166,-177.18 59.7192,-175.529"/>
<text text-anchor="middle" x="161.083" y="-188.28" font-family="Times,serif" font-size="14.00"> end(communicated_image_data)</text>
</g>
<!-- n4&#45;&gt;n3 -->
<g id="edge9" class="edge"><title>n4&#45;&gt;n3</title>
<path fill="none" stroke="black" d="M261.928,-219.391C274.349,-206.999 290.295,-193.267 307.083,-184.48 337.838,-168.384 349.913,-176.71 383.083,-166.48 390.866,-164.08 398.988,-161.295 406.926,-158.41"/>
<polygon fill="black" stroke="black" points="408.326,-161.624 416.482,-154.861 405.889,-155.062 408.326,-161.624"/>
<text text-anchor="middle" x="363.083" y="-188.28" font-family="Times,serif" font-size="14.00"> static(visible_from)</text>
</g>
<!-- n4&#45;&gt;n7 -->
<g id="edge10" class="edge"><title>n4&#45;&gt;n7</title>
<path fill="none" stroke="black" stroke-dasharray="5,2" d="M247.461,-217.595C249.421,-211.625 251.386,-205.375 253.083,-199.48 265.073,-157.842 254.032,-142.039 276.083,-104.74 286.963,-86.3369 303.642,-69.7639 319.278,-56.7591"/>
<polygon fill="black" stroke="black" points="321.722,-59.2856 327.324,-50.2929 317.337,-53.8293 321.722,-59.2856"/>
<text text-anchor="middle" x="332.083" y="-131.91" font-family="Times,serif" font-size="14.00"> static(visible_from)</text>
</g>
<!-- n5 -->
<g id="node5" class="node"><title>n5</title>
<ellipse fill="none" stroke="black" cx="611.083" cy="-361.09" rx="67.3507" ry="26.7407"/>
<text text-anchor="middle" x="611.083" y="-364.89" font-family="Times,serif" font-size="14.00">&lt;rover0store&gt;</text>
<text text-anchor="middle" x="611.083" y="-349.89" font-family="Times,serif" font-size="14.00">store</text>
</g>
<!-- n5&#45;&gt;n5 -->
<g id="edge2" class="edge"><title>n5&#45;&gt;n5</title>
<path fill="none" stroke="black" d="M673.478,-371.251C686.706,-370.22 696.258,-366.833 696.258,-361.09 696.258,-356.918 691.216,-353.99 683.384,-352.304"/>
<polygon fill="black" stroke="black" points="683.864,-348.837 673.478,-350.929 682.902,-355.771 683.864,-348.837"/>
<text text-anchor="middle" x="729.258" y="-357.39" font-family="Times,serif" font-size="14.00"> init(empty)</text>
</g>
<!-- n5&#45;&gt;n8 -->
<g id="edge12" class="edge"><title>n5&#45;&gt;n8</title>
<path fill="none" stroke="black" d="M611.083,-334.127C611.083,-319.653 611.083,-301.403 611.083,-285.546"/>
<polygon fill="black" stroke="black" points="614.583,-285.535 611.083,-275.535 607.583,-285.535 614.583,-285.535"/>
<text text-anchor="middle" x="654.083" y="-301.02" font-family="Times,serif" font-size="14.00"> static(store_of)</text>
</g>
<!-- n6 -->
<g id="node6" class="node"><title>n6</title>
<ellipse fill="none" stroke="black" cx="374.083" cy="-248.35" rx="51.7379" ry="26.7407"/>
<text text-anchor="middle" x="374.083" y="-252.15" font-family="Times,serif" font-size="14.00">&lt;general&gt;</text>
<text text-anchor="middle" x="374.083" y="-237.15" font-family="Times,serif" font-size="14.00">lander</text>
</g>
<!-- n6&#45;&gt;n3 -->
<g id="edge14" class="edge"><title>n6&#45;&gt;n3</title>
<path fill="none" stroke="black" d="M399.519,-224.869C407.507,-217.208 416.064,-208.333 423.083,-199.48 430.049,-190.695 436.711,-180.53 442.457,-170.969"/>
<polygon fill="black" stroke="black" points="445.644,-172.452 447.666,-162.052 439.6,-168.921 445.644,-172.452"/>
<text text-anchor="middle" x="480.083" y="-188.28" font-family="Times,serif" font-size="14.00"> static(at_lander)</text>
</g>
<!-- n6&#45;&gt;n6 -->
<g id="edge3" class="edge"><title>n6&#45;&gt;n6</title>
<path fill="none" stroke="black" d="M421.915,-258.742C434.336,-258.103 443.702,-254.639 443.702,-248.35 443.702,-243.928 439.072,-240.903 432.005,-239.274"/>
<polygon fill="black" stroke="black" points="432.284,-235.781 421.915,-237.959 431.379,-242.723 432.284,-235.781"/>
<text text-anchor="middle" x="494.202" y="-244.65" font-family="Times,serif" font-size="14.00"> init(channel_free)</text>
</g>
<!-- n7&#45;&gt;n3 -->
<g id="edge16" class="edge"><title>n7&#45;&gt;n3</title>
<path fill="none" stroke="black" d="M352.435,-53.634C350.702,-64.6141 350.901,-77.0886 357.083,-86.7401 360.289,-91.7454 383.207,-102.525 406.714,-112.59"/>
<polygon fill="black" stroke="black" points="405.489,-115.872 416.062,-116.545 408.217,-109.425 405.489,-115.872"/>
<text text-anchor="middle" x="396.083" y="-75.5401" font-family="Times,serif" font-size="14.00"> static(visible)</text>
</g>
<!-- n7&#45;&gt;n7 -->
<g id="edge4" class="edge"><title>n7&#45;&gt;n7</title>
<path fill="none" stroke="black" d="M419.888,-36.3053C432.567,-35.3472 441.723,-32.2021 441.723,-26.8701 441.723,-23.121 437.196,-20.4531 430.101,-18.8664"/>
<polygon fill="black" stroke="black" points="430.277,-15.3569 419.888,-17.4349 429.305,-22.2891 430.277,-15.3569"/>
<text text-anchor="middle" x="500.723" y="-23.1701" font-family="Times,serif" font-size="14.00"> init(at_rock_sample)</text>
</g>
<!-- n8&#45;&gt;n3 -->
<g id="edge11" class="edge"><title>n8&#45;&gt;n3</title>
<path fill="none" stroke="black" d="M583.991,-225.739C568.384,-213.437 548.307,-197.859 530.083,-184.48 521.175,-177.94 511.493,-171.077 502.277,-164.654"/>
<polygon fill="black" stroke="black" points="504.191,-161.723 493.979,-158.902 500.203,-167.476 504.191,-161.723"/>
<text text-anchor="middle" x="568.583" y="-188.28" font-family="Times,serif" font-size="14.00"> init(at)</text>
</g>
<!-- n8&#45;&gt;n8 -->
<g id="edge5" class="edge"><title>n8&#45;&gt;n8</title>
<path fill="none" stroke="black" d="M655.558,-258.786C667.806,-258.282 677.167,-254.803 677.167,-248.35 677.167,-243.813 672.539,-240.746 665.534,-239.15"/>
<polygon fill="black" stroke="black" points="665.912,-235.67 655.558,-237.914 665.052,-242.617 665.912,-235.67"/>
<text text-anchor="middle" x="770.667" y="-259.65" font-family="Times,serif" font-size="14.00"> static(equipped_for_imaging)</text>
<text text-anchor="middle" x="770.667" y="-244.65" font-family="Times,serif" font-size="14.00">init(available)</text>
<text text-anchor="middle" x="770.667" y="-229.65" font-family="Times,serif" font-size="14.00">static(equipped_for_soil_analysis)</text>
</g>
</g>
</svg>
