<?xml version="1.0" encoding="UTF-8" standalone="no"?>
<!DOCTYPE svg PUBLIC "-//W3C//DTD SVG 1.1//EN"
 "http://www.w3.org/Graphics/SVG/1.1/DTD/svg11.dtd">
<!-- Generated by graphviz version 2.38.0 (20140413.2041)
 -->
<!-- Title: Struc Pages: 1 -->
<svg width="1786pt" height="376pt"
 viewBox="0.00 0.00 1785.74 375.96" xmlns="http://www.w3.org/2000/svg" xmlns:xlink="http://www.w3.org/1999/xlink">
<g id="graph0" class="graph" transform="scale(1 1) rotate(0) translate(4 371.96)">
<title>Struc</title>
<polygon fill="white" stroke="none" points="-4,4 -4,-371.96 1781.74,-371.96 1781.74,4 -4,4"/>
<!-- n1 -->
<g id="node1" class="node"><title>n1</title>
<ellipse fill="none" stroke="black" cx="779.564" cy="-236.35" rx="51.7379" ry="26.7407"/>
<text text-anchor="middle" x="779.564" y="-240.15" font-family="Times,serif" font-size="14.00">&lt;general&gt;</text>
<text text-anchor="middle" x="779.564" y="-225.15" font-family="Times,serif" font-size="14.00">lander</text>
</g>
<!-- n1&#45;&gt;n1 -->
<g id="edge1" class="edge"><title>n1&#45;&gt;n1</title>
<path fill="none" stroke="black" d="M828.041,-245.966C840.139,-245.294 849.182,-242.089 849.182,-236.35 849.182,-232.405 844.908,-229.657 838.305,-228.107"/>
<polygon fill="black" stroke="black" points="838.416,-224.59 828.041,-226.734 837.489,-231.529 838.416,-224.59"/>
<text text-anchor="middle" x="899.682" y="-232.65" font-family="Times,serif" font-size="14.00"> init(channel_free)</text>
</g>
<!-- n6 -->
<g id="node6" class="node"><title>n6</title>
<ellipse fill="none" stroke="black" cx="712.564" cy="-131.61" rx="63.7795" ry="26.7407"/>
<text text-anchor="middle" x="712.564" y="-135.41" font-family="Times,serif" font-size="14.00">&lt;waypoint0&gt;</text>
<text text-anchor="middle" x="712.564" y="-120.41" font-family="Times,serif" font-size="14.00">waypoint</text>
</g>
<!-- n1&#45;&gt;n6 -->
<g id="edge23" class="edge"><title>n1&#45;&gt;n6</title>
<path fill="none" stroke="black" d="M773.206,-209.516C769.855,-198.769 765.064,-186.492 758.564,-176.48 755.559,-171.852 751.973,-167.359 748.148,-163.123"/>
<polygon fill="black" stroke="black" points="750.543,-160.565 741.077,-155.806 745.509,-165.429 750.543,-160.565"/>
<text text-anchor="middle" x="812.564" y="-180.28" font-family="Times,serif" font-size="14.00"> static(at_lander)</text>
</g>
<!-- n2 -->
<g id="node2" class="node"><title>n2</title>
<ellipse fill="none" stroke="black" cx="98.5635" cy="-236.35" rx="62.8651" ry="26.7407"/>
<text text-anchor="middle" x="98.5635" y="-240.15" font-family="Times,serif" font-size="14.00">&lt;objective0&gt;</text>
<text text-anchor="middle" x="98.5635" y="-225.15" font-family="Times,serif" font-size="14.00">objective</text>
</g>
<!-- n5 -->
<g id="node5" class="node"><title>n5</title>
<ellipse fill="none" stroke="black" cx="611.564" cy="-26.8701" rx="63.7795" ry="26.7407"/>
<text text-anchor="middle" x="611.564" y="-30.6701" font-family="Times,serif" font-size="14.00">&lt;waypoint1&gt;</text>
<text text-anchor="middle" x="611.564" y="-15.6701" font-family="Times,serif" font-size="14.00">waypoint</text>
</g>
<!-- n2&#45;&gt;n5 -->
<g id="edge26" class="edge"><title>n2&#45;&gt;n5</title>
<path fill="none" stroke="black" d="M114.15,-210.067C135.668,-175.988 174.23,-118.037 195.564,-104.74 251.963,-69.5872 436.517,-45.7198 539.847,-34.7494"/>
<polygon fill="black" stroke="black" points="540.312,-38.2201 549.892,-33.6965 539.582,-31.2582 540.312,-38.2201"/>
<text text-anchor="middle" x="251.564" y="-127.91" font-family="Times,serif" font-size="14.00"> static(visible_from)</text>
</g>
<!-- n2&#45;&gt;n6 -->
<g id="edge25" class="edge"><title>n2&#45;&gt;n6</title>
<path fill="none" stroke="black" d="M144.479,-217.89C154.593,-214.619 165.34,-211.574 175.564,-209.48 273.844,-189.355 302.328,-211.823 400.564,-191.48 420.795,-187.291 424.522,-181.5 444.564,-176.48 510.408,-159.989 586.955,-148.172 641.342,-140.987"/>
<polygon fill="black" stroke="black" points="642.108,-144.417 651.572,-139.655 641.204,-137.475 642.108,-144.417"/>
<text text-anchor="middle" x="500.564" y="-180.28" font-family="Times,serif" font-size="14.00"> static(visible_from)</text>
</g>
<!-- n13 -->
<g id="node13" class="node"><title>n13</title>
<ellipse fill="none" stroke="black" cx="370.564" cy="-131.61" rx="53.9813" ry="26.7407"/>
<text text-anchor="middle" x="370.564" y="-135.41" font-family="Times,serif" font-size="14.00">&lt;low_res&gt;</text>
<text text-anchor="middle" x="370.564" y="-120.41" font-family="Times,serif" font-size="14.00">mode</text>
</g>
<!-- n2&#45;&gt;n13 -->
<g id="edge21" class="edge"><title>n2&#45;&gt;n13</title>
<path fill="none" stroke="black" d="M134.636,-214.289C156.629,-202.069 185.605,-187.053 212.564,-176.48 244.709,-163.873 281.861,-153.364 312.059,-145.796"/>
<polygon fill="black" stroke="black" points="313.144,-149.133 322.017,-143.343 311.47,-142.336 313.144,-149.133"/>
<text text-anchor="middle" x="304.564" y="-180.28" font-family="Times,serif" font-size="14.00"> end(communicated_image_data)</text>
</g>
<!-- n3 -->
<g id="node3" class="node"><title>n3</title>
<ellipse fill="none" stroke="black" cx="159.564" cy="-341.09" rx="62.8651" ry="26.7407"/>
<text text-anchor="middle" x="159.564" y="-344.89" font-family="Times,serif" font-size="14.00">&lt;objective3&gt;</text>
<text text-anchor="middle" x="159.564" y="-329.89" font-family="Times,serif" font-size="14.00">objective</text>
</g>
<!-- n4 -->
<g id="node4" class="node"><title>n4</title>
<ellipse fill="none" stroke="black" cx="384.564" cy="-236.35" rx="56.6372" ry="26.7407"/>
<text text-anchor="middle" x="384.564" y="-240.15" font-family="Times,serif" font-size="14.00">&lt;high_res&gt;</text>
<text text-anchor="middle" x="384.564" y="-225.15" font-family="Times,serif" font-size="14.00">mode</text>
</g>
<!-- n3&#45;&gt;n4 -->
<g id="edge16" class="edge"><title>n3&#45;&gt;n4</title>
<path fill="none" stroke="black" d="M168.38,-314.349C173.793,-302.404 181.956,-289.127 193.564,-281.22 238.136,-250.86 261.299,-276.519 313.564,-263.22 319.738,-261.649 326.125,-259.743 332.421,-257.686"/>
<polygon fill="black" stroke="black" points="333.86,-260.893 342.197,-254.355 331.603,-254.267 333.86,-260.893"/>
<text text-anchor="middle" x="285.564" y="-285.02" font-family="Times,serif" font-size="14.00"> end(communicated_image_data)</text>
</g>
<!-- n3&#45;&gt;n5 -->
<g id="edge28" class="edge"><title>n3&#45;&gt;n5</title>
<path fill="none" stroke="black" d="M111.492,-323.711C82.6277,-311.448 47.5491,-291.817 26.5635,-263.22 3.37056,-231.616 -9.68195,-210.049 10.5635,-176.48 45.8567,-117.961 84.1206,-132.508 146.564,-104.74 185.492,-87.4291 195.12,-81.6167 236.564,-71.7401 339.692,-47.1631 462.194,-36.13 538.425,-31.3371"/>
<polygon fill="black" stroke="black" points="538.638,-34.8307 548.407,-30.7286 538.212,-27.8437 538.638,-34.8307"/>
<text text-anchor="middle" x="66.5635" y="-180.28" font-family="Times,serif" font-size="14.00"> static(visible_from)</text>
</g>
<!-- n3&#45;&gt;n6 -->
<g id="edge15" class="edge"><title>n3&#45;&gt;n6</title>
<path fill="none" stroke="black" d="M165.156,-314.221C173.196,-279.754 188.998,-221.683 206.564,-209.48 238.544,-187.264 518.447,-199.45 556.564,-191.48 592.87,-183.889 631.913,-169.149 661.858,-156.318"/>
<polygon fill="black" stroke="black" points="663.474,-159.432 671.246,-152.23 660.68,-153.014 663.474,-159.432"/>
<text text-anchor="middle" x="262.564" y="-232.65" font-family="Times,serif" font-size="14.00"> static(visible_from)</text>
</g>
<!-- n5&#45;&gt;n5 -->
<g id="edge2" class="edge"><title>n5&#45;&gt;n5</title>
<path fill="none" stroke="black" d="M671.368,-36.3053C684.047,-35.3472 693.203,-32.2021 693.203,-26.8701 693.203,-23.121 688.677,-20.4531 681.581,-18.8664"/>
<polygon fill="black" stroke="black" points="681.757,-15.3569 671.368,-17.4349 680.785,-22.2891 681.757,-15.3569"/>
<text text-anchor="middle" x="752.203" y="-23.1701" font-family="Times,serif" font-size="14.00"> init(at_rock_sample)</text>
</g>
<!-- n5&#45;&gt;n6 -->
<g id="edge12" class="edge"><title>n5&#45;&gt;n6</title>
<path fill="none" stroke="black" d="M603.769,-53.7297C602.009,-64.7274 602.227,-77.1894 608.564,-86.7401 617.362,-100.001 631.044,-109.263 645.626,-115.729"/>
<polygon fill="black" stroke="black" points="644.711,-119.132 655.296,-119.588 647.306,-112.631 644.711,-119.132"/>
<text text-anchor="middle" x="647.564" y="-75.5401" font-family="Times,serif" font-size="14.00"> static(visible)</text>
</g>
<!-- n6&#45;&gt;n5 -->
<g id="edge8" class="edge"><title>n6&#45;&gt;n5</title>
<path fill="none" stroke="black" d="M707.168,-104.771C703.836,-93.6493 698.607,-81.0841 690.564,-71.7401 683.66,-63.7212 674.911,-56.8825 665.768,-51.1588"/>
<polygon fill="black" stroke="black" points="667.331,-48.0189 656.928,-46.0107 663.808,-54.0678 667.331,-48.0189"/>
<text text-anchor="middle" x="739.564" y="-75.5401" font-family="Times,serif" font-size="14.00"> static(visible)</text>
</g>
<!-- n6&#45;&gt;n6 -->
<g id="edge3" class="edge"><title>n6&#45;&gt;n6</title>
<path fill="none" stroke="black" d="M772.368,-141.045C785.047,-140.087 794.203,-136.942 794.203,-131.61 794.203,-127.861 789.677,-125.193 782.581,-123.607"/>
<polygon fill="black" stroke="black" points="782.757,-120.097 772.368,-122.175 781.785,-127.029 782.757,-120.097"/>
<text text-anchor="middle" x="878.703" y="-135.41" font-family="Times,serif" font-size="14.00"> end(communicated_soil_data)</text>
<text text-anchor="middle" x="878.703" y="-120.41" font-family="Times,serif" font-size="14.00">init(at_soil_sample)</text>
</g>
<!-- n7 -->
<g id="node7" class="node"><title>n7</title>
<ellipse fill="none" stroke="black" cx="646.564" cy="-341.09" rx="56.6372" ry="26.7407"/>
<text text-anchor="middle" x="646.564" y="-344.89" font-family="Times,serif" font-size="14.00">&lt;camera0&gt;</text>
<text text-anchor="middle" x="646.564" y="-329.89" font-family="Times,serif" font-size="14.00">camera</text>
</g>
<!-- n7&#45;&gt;n4 -->
<g id="edge11" class="edge"><title>n7&#45;&gt;n4</title>
<path fill="none" stroke="black" d="M590.577,-336.949C526.739,-332.223 427.691,-321.037 400.564,-296.22 394.048,-290.26 390.08,-281.938 387.69,-273.424"/>
<polygon fill="black" stroke="black" points="391.074,-272.514 385.552,-263.472 384.231,-273.984 391.074,-272.514"/>
<text text-anchor="middle" x="444.564" y="-285.02" font-family="Times,serif" font-size="14.00"> static(supports)</text>
</g>
<!-- n9 -->
<g id="node9" class="node"><title>n9</title>
<ellipse fill="none" stroke="black" cx="646.564" cy="-236.35" rx="62.8651" ry="26.7407"/>
<text text-anchor="middle" x="646.564" y="-240.15" font-family="Times,serif" font-size="14.00">&lt;objective2&gt;</text>
<text text-anchor="middle" x="646.564" y="-225.15" font-family="Times,serif" font-size="14.00">objective</text>
</g>
<!-- n7&#45;&gt;n9 -->
<g id="edge14" class="edge"><title>n7&#45;&gt;n9</title>
<path fill="none" stroke="black" d="M646.564,-314.165C646.564,-301.875 646.564,-286.987 646.564,-273.602"/>
<polygon fill="black" stroke="black" points="650.064,-273.268 646.564,-263.268 643.064,-273.268 650.064,-273.268"/>
<text text-anchor="middle" x="715.064" y="-285.02" font-family="Times,serif" font-size="14.00"> static(calibration_target)</text>
</g>
<!-- n12 -->
<g id="node12" class="node"><title>n12</title>
<ellipse fill="none" stroke="black" cx="1160.56" cy="-236.35" rx="48.1667" ry="26.7407"/>
<text text-anchor="middle" x="1160.56" y="-240.15" font-family="Times,serif" font-size="14.00">&lt;rover0&gt;</text>
<text text-anchor="middle" x="1160.56" y="-225.15" font-family="Times,serif" font-size="14.00">rover</text>
</g>
<!-- n7&#45;&gt;n12 -->
<g id="edge27" class="edge"><title>n7&#45;&gt;n12</title>
<path fill="none" stroke="black" d="M693.044,-325.542C708.078,-321.31 724.91,-317.066 740.564,-314.22 827.066,-298.494 850.685,-309.717 937.564,-296.22 968.146,-291.47 975.228,-287.35 1005.56,-281.22 1048.97,-272.449 1061.31,-276.47 1103.56,-263.22 1107.65,-261.94 1111.82,-260.442 1115.96,-258.822"/>
<polygon fill="black" stroke="black" points="1117.61,-261.929 1125.51,-254.871 1114.94,-255.461 1117.61,-261.929"/>
<text text-anchor="middle" x="1052.06" y="-285.02" font-family="Times,serif" font-size="14.00"> static(on_board)</text>
</g>
<!-- n8 -->
<g id="node8" class="node"><title>n8</title>
<ellipse fill="none" stroke="black" cx="806.564" cy="-341.09" rx="56.6372" ry="26.7407"/>
<text text-anchor="middle" x="806.564" y="-344.89" font-family="Times,serif" font-size="14.00">&lt;camera1&gt;</text>
<text text-anchor="middle" x="806.564" y="-329.89" font-family="Times,serif" font-size="14.00">camera</text>
</g>
<!-- n8&#45;&gt;n4 -->
<g id="edge13" class="edge"><title>n8&#45;&gt;n4</title>
<path fill="none" stroke="black" d="M760.087,-325.525C745.053,-321.292 728.22,-317.052 712.564,-314.22 624.305,-298.257 596.309,-325.59 511.564,-296.22 500.032,-292.224 499.34,-286.948 488.564,-281.22 472.435,-272.648 454.265,-264.502 437.677,-257.609"/>
<polygon fill="black" stroke="black" points="438.702,-254.247 428.121,-253.701 436.052,-260.726 438.702,-254.247"/>
<text text-anchor="middle" x="555.564" y="-285.02" font-family="Times,serif" font-size="14.00"> static(supports)</text>
</g>
<!-- n8&#45;&gt;n9 -->
<g id="edge19" class="edge"><title>n8&#45;&gt;n9</title>
<path fill="none" stroke="black" d="M802.409,-314.183C799.306,-302.639 793.913,-289.752 784.564,-281.22 762.105,-260.725 747.559,-272.368 718.564,-263.22 713.338,-261.572 707.928,-259.783 702.527,-257.942"/>
<polygon fill="black" stroke="black" points="703.454,-254.559 692.859,-254.59 701.161,-261.172 703.454,-254.559"/>
<text text-anchor="middle" x="865.064" y="-285.02" font-family="Times,serif" font-size="14.00"> static(calibration_target)</text>
</g>
<!-- n8&#45;&gt;n12 -->
<g id="edge22" class="edge"><title>n8&#45;&gt;n12</title>
<path fill="none" stroke="black" d="M862.333,-336.058C936.119,-330.006 1061.63,-317.012 1102.56,-296.22 1115.31,-289.748 1126.91,-279.4 1136.34,-269.171"/>
<polygon fill="black" stroke="black" points="1139.15,-271.27 1143.11,-261.439 1133.89,-266.66 1139.15,-271.27"/>
<text text-anchor="middle" x="1170.06" y="-285.02" font-family="Times,serif" font-size="14.00"> static(on_board)</text>
</g>
<!-- n8&#45;&gt;n13 -->
<g id="edge6" class="edge"><title>n8&#45;&gt;n13</title>
<path fill="none" stroke="black" d="M758.302,-326.64C743.628,-322.596 727.448,-318.182 712.564,-314.22 681.521,-305.958 673.312,-305.519 642.564,-296.22 623.19,-290.361 619.191,-286.165 599.564,-281.22 550.249,-268.796 529.399,-290.632 486.564,-263.22 462.349,-247.725 470.735,-229.963 450.564,-209.48 440.702,-199.466 435.157,-200.716 424.564,-191.48 415.09,-183.221 405.556,-173.431 397.193,-164.231"/>
<polygon fill="black" stroke="black" points="399.736,-161.823 390.469,-156.687 394.51,-166.481 399.736,-161.823"/>
<text text-anchor="middle" x="530.564" y="-232.65" font-family="Times,serif" font-size="14.00"> static(supports)</text>
</g>
<!-- n15 -->
<g id="node15" class="node"><title>n15</title>
<ellipse fill="none" stroke="black" cx="1564.56" cy="-131.61" rx="48.1667" ry="26.7407"/>
<text text-anchor="middle" x="1564.56" y="-135.41" font-family="Times,serif" font-size="14.00">&lt;colour&gt;</text>
<text text-anchor="middle" x="1564.56" y="-120.41" font-family="Times,serif" font-size="14.00">mode</text>
</g>
<!-- n8&#45;&gt;n15 -->
<g id="edge18" class="edge"><title>n8&#45;&gt;n15</title>
<path fill="none" stroke="black" d="M863.102,-338.234C1030.49,-332.212 1515.1,-310.793 1566.56,-263.22 1592,-239.708 1586.37,-197.76 1577.69,-167.744"/>
<polygon fill="black" stroke="black" points="1580.99,-166.57 1574.67,-158.066 1574.31,-168.655 1580.99,-166.57"/>
<text text-anchor="middle" x="1628.56" y="-232.65" font-family="Times,serif" font-size="14.00"> static(supports)</text>
</g>
<!-- n9&#45;&gt;n6 -->
<g id="edge9" class="edge"><title>n9&#45;&gt;n6</title>
<path fill="none" stroke="black" d="M641.381,-209.416C640.505,-198.652 641.252,-186.389 646.564,-176.48 650.357,-169.403 655.851,-163.273 662.073,-158.026"/>
<polygon fill="black" stroke="black" points="664.392,-160.661 670.27,-151.847 660.178,-155.071 664.392,-160.661"/>
<text text-anchor="middle" x="702.564" y="-180.28" font-family="Times,serif" font-size="14.00"> static(visible_from)</text>
</g>
<!-- n10 -->
<g id="node10" class="node"><title>n10</title>
<ellipse fill="none" stroke="black" cx="1626.56" cy="-341.09" rx="67.3507" ry="26.7407"/>
<text text-anchor="middle" x="1626.56" y="-344.89" font-family="Times,serif" font-size="14.00">&lt;rover0store&gt;</text>
<text text-anchor="middle" x="1626.56" y="-329.89" font-family="Times,serif" font-size="14.00">store</text>
</g>
<!-- n10&#45;&gt;n10 -->
<g id="edge4" class="edge"><title>n10&#45;&gt;n10</title>
<path fill="none" stroke="black" d="M1689.71,-350.468C1702.55,-349.447 1711.74,-346.321 1711.74,-341.09 1711.74,-337.413 1707.19,-334.775 1700.03,-333.179"/>
<polygon fill="black" stroke="black" points="1700.1,-329.653 1689.71,-331.712 1699.12,-336.584 1700.1,-329.653"/>
<text text-anchor="middle" x="1744.74" y="-337.39" font-family="Times,serif" font-size="14.00"> init(empty)</text>
</g>
<!-- n10&#45;&gt;n12 -->
<g id="edge7" class="edge"><title>n10&#45;&gt;n12</title>
<path fill="none" stroke="black" d="M1568.49,-327.286C1477.57,-307.241 1302.91,-268.734 1214.57,-249.257"/>
<polygon fill="black" stroke="black" points="1215.27,-245.827 1204.75,-247.092 1213.76,-252.663 1215.27,-245.827"/>
<text text-anchor="middle" x="1464.56" y="-285.02" font-family="Times,serif" font-size="14.00"> static(store_of)</text>
</g>
<!-- n11 -->
<g id="node11" class="node"><title>n11</title>
<ellipse fill="none" stroke="black" cx="1031.56" cy="-236.35" rx="62.8651" ry="26.7407"/>
<text text-anchor="middle" x="1031.56" y="-240.15" font-family="Times,serif" font-size="14.00">&lt;objective4&gt;</text>
<text text-anchor="middle" x="1031.56" y="-225.15" font-family="Times,serif" font-size="14.00">objective</text>
</g>
<!-- n11&#45;&gt;n6 -->
<g id="edge24" class="edge"><title>n11&#45;&gt;n6</title>
<path fill="none" stroke="black" d="M984.741,-218.396C976.366,-215.401 967.713,-212.33 959.564,-209.48 916.579,-194.447 905.983,-190.208 862.564,-176.48 833.647,-167.338 801.387,-157.816 774.215,-149.988"/>
<polygon fill="black" stroke="black" points="775.027,-146.58 764.45,-147.185 773.096,-153.309 775.027,-146.58"/>
<text text-anchor="middle" x="964.564" y="-180.28" font-family="Times,serif" font-size="14.00"> static(visible_from)</text>
</g>
<!-- n12&#45;&gt;n6 -->
<g id="edge29" class="edge"><title>n12&#45;&gt;n6</title>
<path fill="none" stroke="black" d="M1126.32,-217.31C1099.39,-203.924 1060.54,-186.348 1024.56,-176.48 944.197,-154.438 848.987,-143.094 785.063,-137.521"/>
<polygon fill="black" stroke="black" points="785.339,-134.032 775.079,-136.676 784.748,-141.007 785.339,-134.032"/>
<text text-anchor="middle" x="1088.06" y="-180.28" font-family="Times,serif" font-size="14.00"> init(at)</text>
</g>
<!-- n12&#45;&gt;n12 -->
<g id="edge5" class="edge"><title>n12&#45;&gt;n12</title>
<path fill="none" stroke="black" d="M1205.66,-246.015C1217.6,-245.462 1226.65,-242.241 1226.65,-236.35 1226.65,-232.3 1222.37,-229.512 1215.82,-227.986"/>
<polygon fill="black" stroke="black" points="1216.02,-224.483 1205.66,-226.686 1215.13,-231.427 1216.02,-224.483"/>
<text text-anchor="middle" x="1320.15" y="-247.65" font-family="Times,serif" font-size="14.00"> static(equipped_for_imaging)</text>
<text text-anchor="middle" x="1320.15" y="-232.65" font-family="Times,serif" font-size="14.00">init(available)</text>
<text text-anchor="middle" x="1320.15" y="-217.65" font-family="Times,serif" font-size="14.00">static(equipped_for_soil_analysis)</text>
</g>
<!-- n14 -->
<g id="node14" class="node"><title>n14</title>
<ellipse fill="none" stroke="black" cx="1494.56" cy="-236.35" rx="62.8651" ry="26.7407"/>
<text text-anchor="middle" x="1494.56" y="-240.15" font-family="Times,serif" font-size="14.00">&lt;objective1&gt;</text>
<text text-anchor="middle" x="1494.56" y="-225.15" font-family="Times,serif" font-size="14.00">objective</text>
</g>
<!-- n14&#45;&gt;n5 -->
<g id="edge10" class="edge"><title>n14&#45;&gt;n5</title>
<path fill="none" stroke="black" d="M1451.94,-216.324C1422.29,-203.662 1381.59,-187.409 1344.56,-176.48 1105.46,-105.906 812.704,-57.6003 681.266,-37.8581"/>
<polygon fill="black" stroke="black" points="681.733,-34.3891 671.326,-36.3734 680.699,-41.3123 681.733,-34.3891"/>
<text text-anchor="middle" x="1336.56" y="-127.91" font-family="Times,serif" font-size="14.00"> static(visible_from)</text>
</g>
<!-- n14&#45;&gt;n6 -->
<g id="edge20" class="edge"><title>n14&#45;&gt;n6</title>
<path fill="none" stroke="black" d="M1449.75,-217.303C1440.86,-214.278 1431.51,-211.478 1422.56,-209.48 1339.78,-190.994 1316.88,-200.742 1232.56,-191.48 1179.14,-185.612 1165.95,-182.744 1112.56,-176.48 997.617,-162.994 863.931,-148.59 783.896,-140.105"/>
<polygon fill="black" stroke="black" points="784.24,-136.622 773.927,-139.049 783.503,-143.583 784.24,-136.622"/>
<text text-anchor="middle" x="1288.56" y="-180.28" font-family="Times,serif" font-size="14.00"> static(visible_from)</text>
</g>
<!-- n14&#45;&gt;n15 -->
<g id="edge17" class="edge"><title>n14&#45;&gt;n15</title>
<path fill="none" stroke="black" d="M1448.93,-217.764C1424.57,-207.921 1398.91,-196.621 1395.56,-191.48 1391.93,-185.892 1391.41,-181.692 1395.56,-176.48 1418.02,-148.33 1439.69,-167.458 1474.56,-158.48 1486.99,-155.282 1500.3,-151.598 1512.78,-148.031"/>
<polygon fill="black" stroke="black" points="1513.93,-151.34 1522.57,-145.207 1511.99,-144.614 1513.93,-151.34"/>
<text text-anchor="middle" x="1487.56" y="-180.28" font-family="Times,serif" font-size="14.00"> end(communicated_image_data)</text>
</g>
</g>
</svg>
