<?xml version="1.0" encoding="UTF-8" standalone="no"?>
<!DOCTYPE svg PUBLIC "-//W3C//DTD SVG 1.1//EN"
 "http://www.w3.org/Graphics/SVG/1.1/DTD/svg11.dtd">
<!-- Generated by graphviz version 2.38.0 (20140413.2041)
 -->
<!-- Title: Struc Pages: 1 -->
<svg width="2723pt" height="376pt"
 viewBox="0.00 0.00 2723.46 375.96" xmlns="http://www.w3.org/2000/svg" xmlns:xlink="http://www.w3.org/1999/xlink">
<g id="graph0" class="graph" transform="scale(1 1) rotate(0) translate(4 371.96)">
<title>Struc</title>
<polygon fill="white" stroke="none" points="-4,4 -4,-371.96 2719.46,-371.96 2719.46,4 -4,4"/>
<!-- n1 -->
<g id="node1" class="node"><title>n1</title>
<ellipse fill="none" stroke="black" cx="1067.46" cy="-236.35" rx="51.7379" ry="26.7407"/>
<text text-anchor="middle" x="1067.46" y="-240.15" font-family="Times,serif" font-size="14.00">&lt;general&gt;</text>
<text text-anchor="middle" x="1067.46" y="-225.15" font-family="Times,serif" font-size="14.00">lander</text>
</g>
<!-- n1&#45;&gt;n1 -->
<g id="edge1" class="edge"><title>n1&#45;&gt;n1</title>
<path fill="none" stroke="black" d="M1115.94,-245.966C1128.04,-245.294 1137.08,-242.089 1137.08,-236.35 1137.08,-232.405 1132.8,-229.657 1126.2,-228.107"/>
<polygon fill="black" stroke="black" points="1126.31,-224.59 1115.94,-226.734 1125.38,-231.529 1126.31,-224.59"/>
<text text-anchor="middle" x="1187.58" y="-232.65" font-family="Times,serif" font-size="14.00"> init(channel_free)</text>
</g>
<!-- n6 -->
<g id="node6" class="node"><title>n6</title>
<ellipse fill="none" stroke="black" cx="865.459" cy="-131.61" rx="63.7795" ry="26.7407"/>
<text text-anchor="middle" x="865.459" y="-135.41" font-family="Times,serif" font-size="14.00">&lt;waypoint0&gt;</text>
<text text-anchor="middle" x="865.459" y="-120.41" font-family="Times,serif" font-size="14.00">waypoint</text>
</g>
<!-- n1&#45;&gt;n6 -->
<g id="edge25" class="edge"><title>n1&#45;&gt;n6</title>
<path fill="none" stroke="black" d="M1030.34,-217.464C1022.6,-214.346 1014.38,-211.47 1006.46,-209.48 963.824,-198.77 839.096,-223.948 809.459,-191.48 799.694,-180.782 806.773,-169.194 818.755,-159.152"/>
<polygon fill="black" stroke="black" points="820.871,-161.94 826.742,-153.12 816.652,-156.354 820.871,-161.94"/>
<text text-anchor="middle" x="855.459" y="-180.28" font-family="Times,serif" font-size="14.00"> static(at_lander)</text>
</g>
<!-- n2 -->
<g id="node2" class="node"><title>n2</title>
<ellipse fill="none" stroke="black" cx="318.459" cy="-236.35" rx="62.8651" ry="26.7407"/>
<text text-anchor="middle" x="318.459" y="-240.15" font-family="Times,serif" font-size="14.00">&lt;objective0&gt;</text>
<text text-anchor="middle" x="318.459" y="-225.15" font-family="Times,serif" font-size="14.00">objective</text>
</g>
<!-- n4 -->
<g id="node4" class="node"><title>n4</title>
<ellipse fill="none" stroke="black" cx="1866.46" cy="-131.61" rx="56.6372" ry="26.7407"/>
<text text-anchor="middle" x="1866.46" y="-135.41" font-family="Times,serif" font-size="14.00">&lt;high_res&gt;</text>
<text text-anchor="middle" x="1866.46" y="-120.41" font-family="Times,serif" font-size="14.00">mode</text>
</g>
<!-- n2&#45;&gt;n4 -->
<g id="edge27" class="edge"><title>n2&#45;&gt;n4</title>
<path fill="none" stroke="black" d="M370.565,-221.186C389.858,-216.563 412.012,-211.979 432.459,-209.48 531.631,-197.363 1237.41,-225.19 1331.46,-191.48 1341.59,-187.85 1340.45,-180.436 1350.46,-176.48 1391.26,-160.346 1669.88,-143.308 1799.9,-136.127"/>
<polygon fill="black" stroke="black" points="1800.33,-139.608 1810.13,-135.565 1799.95,-132.619 1800.33,-139.608"/>
<text text-anchor="middle" x="1442.46" y="-180.28" font-family="Times,serif" font-size="14.00"> end(communicated_image_data)</text>
</g>
<!-- n5 -->
<g id="node5" class="node"><title>n5</title>
<ellipse fill="none" stroke="black" cx="966.459" cy="-26.8701" rx="63.7795" ry="26.7407"/>
<text text-anchor="middle" x="966.459" y="-30.6701" font-family="Times,serif" font-size="14.00">&lt;waypoint1&gt;</text>
<text text-anchor="middle" x="966.459" y="-15.6701" font-family="Times,serif" font-size="14.00">waypoint</text>
</g>
<!-- n2&#45;&gt;n5 -->
<g id="edge29" class="edge"><title>n2&#45;&gt;n5</title>
<path fill="none" stroke="black" d="M275.109,-216.86C267.035,-213.991 258.581,-211.361 250.459,-209.48 165.237,-189.745 135.92,-223.364 54.4594,-191.48 14.391,-175.797 -17.7201,-136.363 11.4594,-104.74 70.8347,-40.3935 678.554,-29.8939 892.463,-28.1939"/>
<polygon fill="black" stroke="black" points="892.678,-31.6925 902.651,-28.1173 892.625,-24.6927 892.678,-31.6925"/>
<text text-anchor="middle" x="67.4594" y="-127.91" font-family="Times,serif" font-size="14.00"> static(visible_from)</text>
</g>
<!-- n2&#45;&gt;n6 -->
<g id="edge28" class="edge"><title>n2&#45;&gt;n6</title>
<path fill="none" stroke="black" d="M370.807,-221.423C396.039,-213.908 426.406,-203.666 452.459,-191.48 463.853,-186.151 464.582,-180.621 476.459,-176.48 533.037,-156.756 696.22,-143.39 792.315,-136.982"/>
<polygon fill="black" stroke="black" points="792.795,-140.458 802.543,-136.309 792.335,-133.473 792.795,-140.458"/>
<text text-anchor="middle" x="532.459" y="-180.28" font-family="Times,serif" font-size="14.00"> static(visible_from)</text>
</g>
<!-- n13 -->
<g id="node13" class="node"><title>n13</title>
<ellipse fill="none" stroke="black" cx="186.459" cy="-131.61" rx="53.9813" ry="26.7407"/>
<text text-anchor="middle" x="186.459" y="-135.41" font-family="Times,serif" font-size="14.00">&lt;low_res&gt;</text>
<text text-anchor="middle" x="186.459" y="-120.41" font-family="Times,serif" font-size="14.00">mode</text>
</g>
<!-- n2&#45;&gt;n13 -->
<g id="edge23" class="edge"><title>n2&#45;&gt;n13</title>
<path fill="none" stroke="black" d="M259.155,-227.182C185.26,-216.719 67.8354,-199.037 61.4594,-191.48 57.1602,-186.385 57.5185,-181.857 61.4594,-176.48 77.1636,-155.052 93.3672,-167.207 118.459,-158.48 123.962,-156.566 129.689,-154.502 135.382,-152.404"/>
<polygon fill="black" stroke="black" points="136.735,-155.635 144.883,-148.862 134.29,-149.076 136.735,-155.635"/>
<text text-anchor="middle" x="153.459" y="-180.28" font-family="Times,serif" font-size="14.00"> end(communicated_image_data)</text>
</g>
<!-- n3 -->
<g id="node3" class="node"><title>n3</title>
<ellipse fill="none" stroke="black" cx="1320.46" cy="-236.35" rx="62.8651" ry="26.7407"/>
<text text-anchor="middle" x="1320.46" y="-240.15" font-family="Times,serif" font-size="14.00">&lt;objective3&gt;</text>
<text text-anchor="middle" x="1320.46" y="-225.15" font-family="Times,serif" font-size="14.00">objective</text>
</g>
<!-- n3&#45;&gt;n4 -->
<g id="edge17" class="edge"><title>n3&#45;&gt;n4</title>
<path fill="none" stroke="black" d="M1379.48,-226.539C1423.76,-219.193 1485.59,-207.366 1538.46,-191.48 1555.45,-186.374 1558.35,-181.169 1575.46,-176.48 1651.39,-155.68 1741.34,-144.025 1800.92,-138.043"/>
<polygon fill="black" stroke="black" points="1801.34,-141.519 1810.95,-137.061 1800.66,-134.552 1801.34,-141.519"/>
<text text-anchor="middle" x="1667.46" y="-180.28" font-family="Times,serif" font-size="14.00"> end(communicated_image_data)</text>
</g>
<!-- n3&#45;&gt;n5 -->
<g id="edge32" class="edge"><title>n3&#45;&gt;n5</title>
<path fill="none" stroke="black" d="M1319.36,-209.292C1317.69,-198.127 1314.07,-185.59 1306.46,-176.48 1237.28,-93.6905 1113.09,-55.6204 1035.49,-39.1913"/>
<polygon fill="black" stroke="black" points="1035.82,-35.6876 1025.32,-37.1072 1034.42,-42.5449 1035.82,-35.6876"/>
<text text-anchor="middle" x="1344.46" y="-127.91" font-family="Times,serif" font-size="14.00"> static(visible_from)</text>
</g>
<!-- n3&#45;&gt;n6 -->
<g id="edge16" class="edge"><title>n3&#45;&gt;n6</title>
<path fill="none" stroke="black" d="M1275.85,-217.29C1266.6,-214.186 1256.82,-211.359 1247.46,-209.48 1176.98,-195.33 990.101,-220.793 924.459,-191.48 911.404,-185.65 899.637,-175.55 890.108,-165.345"/>
<polygon fill="black" stroke="black" points="892.512,-162.778 883.274,-157.589 887.26,-167.406 892.512,-162.778"/>
<text text-anchor="middle" x="980.459" y="-180.28" font-family="Times,serif" font-size="14.00"> static(visible_from)</text>
</g>
<!-- n5&#45;&gt;n5 -->
<g id="edge2" class="edge"><title>n5&#45;&gt;n5</title>
<path fill="none" stroke="black" d="M1026.26,-36.3053C1038.94,-35.3472 1048.1,-32.2021 1048.1,-26.8701 1048.1,-23.121 1043.57,-20.4531 1036.48,-18.8664"/>
<polygon fill="black" stroke="black" points="1036.65,-15.3569 1026.26,-17.4349 1035.68,-22.2891 1036.65,-15.3569"/>
<text text-anchor="middle" x="1107.1" y="-23.1701" font-family="Times,serif" font-size="14.00"> init(at_rock_sample)</text>
</g>
<!-- n5&#45;&gt;n6 -->
<g id="edge13" class="edge"><title>n5&#45;&gt;n6</title>
<path fill="none" stroke="black" d="M961.064,-53.7088C957.732,-64.831 952.503,-77.3962 944.459,-86.7401 937.556,-94.759 928.807,-101.598 919.664,-107.321"/>
<polygon fill="black" stroke="black" points="917.704,-104.412 910.824,-112.47 921.227,-110.461 917.704,-104.412"/>
<text text-anchor="middle" x="993.459" y="-75.5401" font-family="Times,serif" font-size="14.00"> static(visible)</text>
</g>
<!-- n6&#45;&gt;n5 -->
<g id="edge8" class="edge"><title>n6&#45;&gt;n5</title>
<path fill="none" stroke="black" d="M860.032,-104.732C859.132,-93.7306 860.117,-81.2711 866.459,-71.7401 874.737,-59.3012 887.396,-50.3633 900.954,-43.9497"/>
<polygon fill="black" stroke="black" points="902.617,-47.0452 910.441,-39.9007 899.87,-40.607 902.617,-47.0452"/>
<text text-anchor="middle" x="905.459" y="-75.5401" font-family="Times,serif" font-size="14.00"> static(visible)</text>
</g>
<!-- n6&#45;&gt;n6 -->
<g id="edge3" class="edge"><title>n6&#45;&gt;n6</title>
<path fill="none" stroke="black" d="M925.264,-141.045C937.943,-140.087 947.099,-136.942 947.099,-131.61 947.099,-127.861 942.572,-125.193 935.477,-123.607"/>
<polygon fill="black" stroke="black" points="935.653,-120.097 925.264,-122.175 934.681,-127.029 935.653,-120.097"/>
<text text-anchor="middle" x="1031.6" y="-135.41" font-family="Times,serif" font-size="14.00"> end(communicated_soil_data)</text>
<text text-anchor="middle" x="1031.6" y="-120.41" font-family="Times,serif" font-size="14.00">init(at_soil_sample)</text>
</g>
<!-- n7 -->
<g id="node7" class="node"><title>n7</title>
<ellipse fill="none" stroke="black" cx="860.459" cy="-341.09" rx="56.6372" ry="26.7407"/>
<text text-anchor="middle" x="860.459" y="-344.89" font-family="Times,serif" font-size="14.00">&lt;camera0&gt;</text>
<text text-anchor="middle" x="860.459" y="-329.89" font-family="Times,serif" font-size="14.00">camera</text>
</g>
<!-- n7&#45;&gt;n4 -->
<g id="edge12" class="edge"><title>n7&#45;&gt;n4</title>
<path fill="none" stroke="black" d="M900.264,-321.886C908.745,-318.75 917.768,-315.948 926.459,-314.22 1134.65,-272.84 1673.84,-340.373 1881.46,-296.22 1918.28,-288.39 1934.97,-291.811 1959.46,-263.22 1985.07,-233.315 1999.6,-209.038 1977.46,-176.48 1966.35,-160.138 1948.11,-149.884 1929.59,-143.449"/>
<polygon fill="black" stroke="black" points="1930.51,-140.069 1919.92,-140.42 1928.42,-146.749 1930.51,-140.069"/>
<text text-anchor="middle" x="2032.46" y="-232.65" font-family="Times,serif" font-size="14.00"> static(supports)</text>
</g>
<!-- n9 -->
<g id="node9" class="node"><title>n9</title>
<ellipse fill="none" stroke="black" cx="504.459" cy="-236.35" rx="62.8651" ry="26.7407"/>
<text text-anchor="middle" x="504.459" y="-240.15" font-family="Times,serif" font-size="14.00">&lt;objective2&gt;</text>
<text text-anchor="middle" x="504.459" y="-225.15" font-family="Times,serif" font-size="14.00">objective</text>
</g>
<!-- n7&#45;&gt;n9 -->
<g id="edge15" class="edge"><title>n7&#45;&gt;n9</title>
<path fill="none" stroke="black" d="M820.129,-321.959C812.09,-318.942 803.611,-316.166 795.459,-314.22 708.649,-293.503 679.834,-325.308 595.459,-296.22 576.097,-289.545 556.749,-277.904 540.904,-266.727"/>
<polygon fill="black" stroke="black" points="542.628,-263.653 532.483,-260.599 538.51,-269.313 542.628,-263.653"/>
<text text-anchor="middle" x="663.959" y="-285.02" font-family="Times,serif" font-size="14.00"> static(calibration_target)</text>
</g>
<!-- n12 -->
<g id="node12" class="node"><title>n12</title>
<ellipse fill="none" stroke="black" cx="744.459" cy="-236.35" rx="48.1667" ry="26.7407"/>
<text text-anchor="middle" x="744.459" y="-240.15" font-family="Times,serif" font-size="14.00">&lt;rover0&gt;</text>
<text text-anchor="middle" x="744.459" y="-225.15" font-family="Times,serif" font-size="14.00">rover</text>
</g>
<!-- n7&#45;&gt;n12 -->
<g id="edge30" class="edge"><title>n7&#45;&gt;n12</title>
<path fill="none" stroke="black" d="M853.98,-314.302C850.108,-303.058 844.195,-290.382 835.459,-281.22 824.439,-269.662 809.746,-260.776 795.387,-254.124"/>
<polygon fill="black" stroke="black" points="796.608,-250.838 786.041,-250.069 793.822,-257.26 796.608,-250.838"/>
<text text-anchor="middle" x="892.959" y="-285.02" font-family="Times,serif" font-size="14.00"> static(on_board)</text>
</g>
<!-- n8 -->
<g id="node8" class="node"><title>n8</title>
<ellipse fill="none" stroke="black" cx="729.459" cy="-341.09" rx="56.6372" ry="26.7407"/>
<text text-anchor="middle" x="729.459" y="-344.89" font-family="Times,serif" font-size="14.00">&lt;camera1&gt;</text>
<text text-anchor="middle" x="729.459" y="-329.89" font-family="Times,serif" font-size="14.00">camera</text>
</g>
<!-- n8&#45;&gt;n4 -->
<g id="edge14" class="edge"><title>n8&#45;&gt;n4</title>
<path fill="none" stroke="black" d="M769.379,-321.822C777.526,-318.776 786.151,-316.024 794.459,-314.22 908.063,-289.558 1741.56,-325.915 1839.46,-263.22 1862.14,-248.696 1846.01,-225.77 1867.46,-209.48 1898.21,-186.124 1928.15,-221.481 1952.46,-191.48 1966.39,-174.293 1947.39,-160.094 1923.75,-149.95"/>
<polygon fill="black" stroke="black" points="1924.74,-146.576 1914.15,-146.127 1922.15,-153.079 1924.74,-146.576"/>
<text text-anchor="middle" x="1911.46" y="-232.65" font-family="Times,serif" font-size="14.00"> static(supports)</text>
</g>
<!-- n8&#45;&gt;n9 -->
<g id="edge20" class="edge"><title>n8&#45;&gt;n9</title>
<path fill="none" stroke="black" d="M672.637,-340.371C593.644,-339.41 456.791,-332.398 425.459,-296.22 412.681,-281.466 426.992,-268.168 446.781,-257.959"/>
<polygon fill="black" stroke="black" points="448.333,-261.097 455.856,-253.636 445.322,-254.777 448.333,-261.097"/>
<text text-anchor="middle" x="493.959" y="-285.02" font-family="Times,serif" font-size="14.00"> static(calibration_target)</text>
</g>
<!-- n8&#45;&gt;n12 -->
<g id="edge24" class="edge"><title>n8&#45;&gt;n12</title>
<path fill="none" stroke="black" d="M733.245,-314.165C735.057,-301.754 737.256,-286.692 739.225,-273.204"/>
<polygon fill="black" stroke="black" points="742.694,-273.668 740.675,-263.268 735.767,-272.657 742.694,-273.668"/>
<text text-anchor="middle" x="784.959" y="-285.02" font-family="Times,serif" font-size="14.00"> static(on_board)</text>
</g>
<!-- n8&#45;&gt;n13 -->
<g id="edge6" class="edge"><title>n8&#45;&gt;n13</title>
<path fill="none" stroke="black" d="M672.597,-341.062C567.405,-341.011 336.894,-332.19 158.459,-263.22 106.083,-242.976 80.5622,-241.197 54.4594,-191.48 51.3603,-185.578 50.4338,-181.794 54.4594,-176.48 72.3018,-152.927 90.4007,-167.743 118.459,-158.48 124.069,-156.629 129.898,-154.59 135.679,-152.495"/>
<polygon fill="black" stroke="black" points="137.147,-155.684 145.317,-148.938 134.724,-149.117 137.147,-155.684"/>
<text text-anchor="middle" x="202.459" y="-232.65" font-family="Times,serif" font-size="14.00"> static(supports)</text>
</g>
<!-- n15 -->
<g id="node15" class="node"><title>n15</title>
<ellipse fill="none" stroke="black" cx="2438.46" cy="-131.61" rx="48.1667" ry="26.7407"/>
<text text-anchor="middle" x="2438.46" y="-135.41" font-family="Times,serif" font-size="14.00">&lt;colour&gt;</text>
<text text-anchor="middle" x="2438.46" y="-120.41" font-family="Times,serif" font-size="14.00">mode</text>
</g>
<!-- n8&#45;&gt;n15 -->
<g id="edge19" class="edge"><title>n8&#45;&gt;n15</title>
<path fill="none" stroke="black" d="M768.99,-321.76C777.243,-318.677 786.007,-315.927 794.459,-314.22 894.243,-294.075 1608.72,-299.759 1710.46,-296.22 2004.43,-285.996 2081.45,-312.381 2371.46,-263.22 2482.9,-244.329 2547.74,-281.981 2615.46,-191.48 2639.49,-159.367 2606.23,-193.873 2491.46,-158.48 2488.13,-157.453 2484.75,-156.242 2481.39,-154.914"/>
<polygon fill="black" stroke="black" points="2482.61,-151.629 2472.04,-150.917 2479.86,-158.066 2482.61,-151.629"/>
<text text-anchor="middle" x="2644.46" y="-232.65" font-family="Times,serif" font-size="14.00"> static(supports)</text>
</g>
<!-- n9&#45;&gt;n6 -->
<g id="edge9" class="edge"><title>n9&#45;&gt;n6</title>
<path fill="none" stroke="black" d="M542.974,-215.018C571.601,-200.181 608.369,-181.778 624.459,-176.48 679.991,-158.196 745.378,-146.899 794.023,-140.356"/>
<polygon fill="black" stroke="black" points="794.678,-143.801 804.139,-139.032 793.769,-136.86 794.678,-143.801"/>
<text text-anchor="middle" x="680.459" y="-180.28" font-family="Times,serif" font-size="14.00"> static(visible_from)</text>
</g>
<!-- n9&#45;&gt;n13 -->
<g id="edge10" class="edge"><title>n9&#45;&gt;n13</title>
<path fill="none" stroke="black" d="M450.704,-222.261C431.733,-217.878 410.209,-213.172 390.459,-209.48 336.584,-199.408 319.265,-212.043 268.459,-191.48 263.271,-189.38 242.841,-174.716 223.673,-160.55"/>
<polygon fill="black" stroke="black" points="225.7,-157.696 215.584,-154.548 221.529,-163.318 225.7,-157.696"/>
<text text-anchor="middle" x="360.459" y="-180.28" font-family="Times,serif" font-size="14.00"> end(communicated_image_data)</text>
</g>
<!-- n10 -->
<g id="node10" class="node"><title>n10</title>
<ellipse fill="none" stroke="black" cx="1002.46" cy="-341.09" rx="67.3507" ry="26.7407"/>
<text text-anchor="middle" x="1002.46" y="-344.89" font-family="Times,serif" font-size="14.00">&lt;rover0store&gt;</text>
<text text-anchor="middle" x="1002.46" y="-329.89" font-family="Times,serif" font-size="14.00">store</text>
</g>
<!-- n10&#45;&gt;n10 -->
<g id="edge4" class="edge"><title>n10&#45;&gt;n10</title>
<path fill="none" stroke="black" d="M1065.61,-350.468C1078.44,-349.447 1087.63,-346.321 1087.63,-341.09 1087.63,-337.413 1083.09,-334.775 1075.93,-333.179"/>
<polygon fill="black" stroke="black" points="1076,-329.653 1065.61,-331.712 1075.01,-336.584 1076,-329.653"/>
<text text-anchor="middle" x="1120.63" y="-337.39" font-family="Times,serif" font-size="14.00"> init(empty)</text>
</g>
<!-- n10&#45;&gt;n12 -->
<g id="edge7" class="edge"><title>n10&#45;&gt;n12</title>
<path fill="none" stroke="black" d="M983.356,-315.254C972.84,-303.236 958.819,-289.624 943.459,-281.22 899.683,-257.269 843.737,-246.393 802.319,-241.455"/>
<polygon fill="black" stroke="black" points="802.444,-237.948 792.119,-240.323 801.672,-244.905 802.444,-237.948"/>
<text text-anchor="middle" x="1007.46" y="-285.02" font-family="Times,serif" font-size="14.00"> static(store_of)</text>
</g>
<!-- n11 -->
<g id="node11" class="node"><title>n11</title>
<ellipse fill="none" stroke="black" cx="1767.46" cy="-236.35" rx="62.8651" ry="26.7407"/>
<text text-anchor="middle" x="1767.46" y="-240.15" font-family="Times,serif" font-size="14.00">&lt;objective4&gt;</text>
<text text-anchor="middle" x="1767.46" y="-225.15" font-family="Times,serif" font-size="14.00">objective</text>
</g>
<!-- n11&#45;&gt;n4 -->
<g id="edge31" class="edge"><title>n11&#45;&gt;n4</title>
<path fill="none" stroke="black" d="M1762.07,-209.494C1761.17,-198.497 1762.15,-186.035 1768.46,-176.48 1777.26,-163.144 1791.16,-153.82 1805.75,-147.317"/>
<polygon fill="black" stroke="black" points="1807.42,-150.417 1815.39,-143.437 1804.81,-143.923 1807.42,-150.417"/>
<text text-anchor="middle" x="1860.46" y="-180.28" font-family="Times,serif" font-size="14.00"> end(communicated_image_data)</text>
</g>
<!-- n11&#45;&gt;n6 -->
<g id="edge26" class="edge"><title>n11&#45;&gt;n6</title>
<path fill="none" stroke="black" d="M1705.77,-230.812C1631.46,-225.411 1502.86,-216.272 1392.46,-209.48 1318.49,-204.93 1129.9,-214.507 1059.46,-191.48 1047.86,-187.688 1047.63,-181.395 1036.46,-176.48 1003.93,-162.167 965.789,-151.82 933.791,-144.783"/>
<polygon fill="black" stroke="black" points="934.143,-141.279 923.633,-142.613 932.681,-148.125 934.143,-141.279"/>
<text text-anchor="middle" x="1115.46" y="-180.28" font-family="Times,serif" font-size="14.00"> static(visible_from)</text>
</g>
<!-- n11&#45;&gt;n15 -->
<g id="edge33" class="edge"><title>n11&#45;&gt;n15</title>
<path fill="none" stroke="black" d="M1813.52,-217.79C1823.89,-214.481 1834.94,-211.447 1845.46,-209.48 1925.07,-194.596 2133.63,-219.923 2209.46,-191.48 2219.53,-187.702 2218.71,-181.035 2228.46,-176.48 2277.04,-153.782 2337.39,-142.739 2380.91,-137.421"/>
<polygon fill="black" stroke="black" points="2381.51,-140.875 2391.04,-136.249 2380.7,-133.922 2381.51,-140.875"/>
<text text-anchor="middle" x="2320.46" y="-180.28" font-family="Times,serif" font-size="14.00"> end(communicated_image_data)</text>
</g>
<!-- n12&#45;&gt;n6 -->
<g id="edge34" class="edge"><title>n12&#45;&gt;n6</title>
<path fill="none" stroke="black" d="M738.776,-209.573C737.781,-198.463 738.761,-185.89 745.459,-176.48 757.234,-159.939 775.931,-149.618 795.093,-143.184"/>
<polygon fill="black" stroke="black" points="796.256,-146.489 804.815,-140.244 794.23,-139.789 796.256,-146.489"/>
<text text-anchor="middle" x="765.959" y="-180.28" font-family="Times,serif" font-size="14.00"> init(at)</text>
</g>
<!-- n12&#45;&gt;n12 -->
<g id="edge5" class="edge"><title>n12&#45;&gt;n12</title>
<path fill="none" stroke="black" d="M789.554,-246.015C801.497,-245.462 810.543,-242.241 810.543,-236.35 810.543,-232.3 806.267,-229.512 799.714,-227.986"/>
<polygon fill="black" stroke="black" points="799.917,-224.483 789.554,-226.686 799.029,-231.427 799.917,-224.483"/>
<text text-anchor="middle" x="904.043" y="-247.65" font-family="Times,serif" font-size="14.00"> static(equipped_for_imaging)</text>
<text text-anchor="middle" x="904.043" y="-232.65" font-family="Times,serif" font-size="14.00">init(available)</text>
<text text-anchor="middle" x="904.043" y="-217.65" font-family="Times,serif" font-size="14.00">static(equipped_for_soil_analysis)</text>
</g>
<!-- n14 -->
<g id="node14" class="node"><title>n14</title>
<ellipse fill="none" stroke="black" cx="2299.46" cy="-236.35" rx="62.8651" ry="26.7407"/>
<text text-anchor="middle" x="2299.46" y="-240.15" font-family="Times,serif" font-size="14.00">&lt;objective1&gt;</text>
<text text-anchor="middle" x="2299.46" y="-225.15" font-family="Times,serif" font-size="14.00">objective</text>
</g>
<!-- n14&#45;&gt;n4 -->
<g id="edge21" class="edge"><title>n14&#45;&gt;n4</title>
<path fill="none" stroke="black" d="M2238.89,-228.636C2170.37,-220.519 2063.38,-206.116 2025.46,-191.48 2014.07,-187.086 2013.48,-181.733 2002.46,-176.48 1978.05,-164.842 1949.78,-155.162 1925.35,-147.883"/>
<polygon fill="black" stroke="black" points="1926.08,-144.448 1915.5,-145.012 1924.12,-151.169 1926.08,-144.448"/>
<text text-anchor="middle" x="2117.46" y="-180.28" font-family="Times,serif" font-size="14.00"> end(communicated_image_data)</text>
</g>
<!-- n14&#45;&gt;n5 -->
<g id="edge11" class="edge"><title>n14&#45;&gt;n5</title>
<path fill="none" stroke="black" d="M2362.36,-234.698C2461.69,-232.301 2641.13,-221.743 2615.46,-176.48 2584.8,-122.433 2554.92,-122.778 2495.46,-104.74 2355.55,-62.2989 1326.62,-36.0273 1040.25,-29.4826"/>
<polygon fill="black" stroke="black" points="1040.05,-25.9774 1029.97,-29.2491 1039.89,-32.9756 1040.05,-25.9774"/>
<text text-anchor="middle" x="2659.46" y="-127.91" font-family="Times,serif" font-size="14.00"> static(visible_from)</text>
</g>
<!-- n14&#45;&gt;n6 -->
<g id="edge22" class="edge"><title>n14&#45;&gt;n6</title>
<path fill="none" stroke="black" d="M2240.48,-226.698C2197.14,-220.728 2136.77,-213.219 2083.46,-209.48 1891.89,-196.045 1408.99,-222.428 1219.46,-191.48 1197.4,-187.878 1193.26,-181.415 1171.46,-176.48 1092.25,-158.548 999.763,-146.487 937.372,-139.622"/>
<polygon fill="black" stroke="black" points="937.558,-136.121 927.239,-138.523 936.804,-143.081 937.558,-136.121"/>
<text text-anchor="middle" x="1275.46" y="-180.28" font-family="Times,serif" font-size="14.00"> static(visible_from)</text>
</g>
<!-- n14&#45;&gt;n15 -->
<g id="edge18" class="edge"><title>n14&#45;&gt;n15</title>
<path fill="none" stroke="black" d="M2356.15,-224.572C2377.36,-218.067 2400.21,-207.749 2416.46,-191.48 2422.9,-185.03 2427.48,-176.519 2430.73,-167.98"/>
<polygon fill="black" stroke="black" points="2434.07,-169.028 2433.86,-158.435 2427.42,-166.847 2434.07,-169.028"/>
<text text-anchor="middle" x="2519.46" y="-180.28" font-family="Times,serif" font-size="14.00"> end(communicated_image_data)</text>
</g>
</g>
</svg>
