<?xml version="1.0" encoding="UTF-8" standalone="no"?>
<!DOCTYPE svg PUBLIC "-//W3C//DTD SVG 1.1//EN"
 "http://www.w3.org/Graphics/SVG/1.1/DTD/svg11.dtd">
<!-- Generated by graphviz version 2.38.0 (20140413.2041)
 -->
<!-- Title: Struc Pages: 1 -->
<svg width="2493pt" height="376pt"
 viewBox="0.00 0.00 2492.87 375.96" xmlns="http://www.w3.org/2000/svg" xmlns:xlink="http://www.w3.org/1999/xlink">
<g id="graph0" class="graph" transform="scale(1 1) rotate(0) translate(4 371.96)">
<title>Struc</title>
<polygon fill="white" stroke="none" points="-4,4 -4,-371.96 2488.87,-371.96 2488.87,4 -4,4"/>
<!-- n1 -->
<g id="node1" class="node"><title>n1</title>
<ellipse fill="none" stroke="black" cx="1296.87" cy="-236.35" rx="51.7379" ry="26.7407"/>
<text text-anchor="middle" x="1296.87" y="-240.15" font-family="Times,serif" font-size="14.00">&lt;general&gt;</text>
<text text-anchor="middle" x="1296.87" y="-225.15" font-family="Times,serif" font-size="14.00">lander</text>
</g>
<!-- n1&#45;&gt;n1 -->
<g id="edge1" class="edge"><title>n1&#45;&gt;n1</title>
<path fill="none" stroke="black" d="M1345.35,-245.966C1357.45,-245.294 1366.49,-242.089 1366.49,-236.35 1366.49,-232.405 1362.22,-229.657 1355.62,-228.107"/>
<polygon fill="black" stroke="black" points="1355.73,-224.59 1345.35,-226.734 1354.8,-231.529 1355.73,-224.59"/>
<text text-anchor="middle" x="1416.99" y="-232.65" font-family="Times,serif" font-size="14.00"> init(channel_free)</text>
</g>
<!-- n6 -->
<g id="node6" class="node"><title>n6</title>
<ellipse fill="none" stroke="black" cx="1372.87" cy="-131.61" rx="63.7795" ry="26.7407"/>
<text text-anchor="middle" x="1372.87" y="-135.41" font-family="Times,serif" font-size="14.00">&lt;waypoint0&gt;</text>
<text text-anchor="middle" x="1372.87" y="-120.41" font-family="Times,serif" font-size="14.00">waypoint</text>
</g>
<!-- n1&#45;&gt;n6 -->
<g id="edge25" class="edge"><title>n1&#45;&gt;n6</title>
<path fill="none" stroke="black" d="M1314.88,-211.002C1324.87,-197.51 1337.42,-180.541 1348.29,-165.844"/>
<polygon fill="black" stroke="black" points="1351.33,-167.618 1354.46,-157.497 1345.7,-163.455 1351.33,-167.618"/>
<text text-anchor="middle" x="1385.87" y="-180.28" font-family="Times,serif" font-size="14.00"> static(at_lander)</text>
</g>
<!-- n2 -->
<g id="node2" class="node"><title>n2</title>
<ellipse fill="none" stroke="black" cx="301.874" cy="-236.35" rx="62.8651" ry="26.7407"/>
<text text-anchor="middle" x="301.874" y="-240.15" font-family="Times,serif" font-size="14.00">&lt;objective0&gt;</text>
<text text-anchor="middle" x="301.874" y="-225.15" font-family="Times,serif" font-size="14.00">objective</text>
</g>
<!-- n4 -->
<g id="node4" class="node"><title>n4</title>
<ellipse fill="none" stroke="black" cx="676.874" cy="-131.61" rx="56.6372" ry="26.7407"/>
<text text-anchor="middle" x="676.874" y="-135.41" font-family="Times,serif" font-size="14.00">&lt;high_res&gt;</text>
<text text-anchor="middle" x="676.874" y="-120.41" font-family="Times,serif" font-size="14.00">mode</text>
</g>
<!-- n2&#45;&gt;n4 -->
<g id="edge27" class="edge"><title>n2&#45;&gt;n4</title>
<path fill="none" stroke="black" d="M353.591,-221.015C377.648,-213.532 406.306,-203.435 430.874,-191.48 441.848,-186.141 442.568,-181.076 453.874,-176.48 504.678,-155.83 566.05,-144.671 611.538,-138.785"/>
<polygon fill="black" stroke="black" points="612.083,-142.244 621.575,-137.538 611.22,-135.297 612.083,-142.244"/>
<text text-anchor="middle" x="545.874" y="-180.28" font-family="Times,serif" font-size="14.00"> end(communicated_image_data)</text>
</g>
<!-- n5 -->
<g id="node5" class="node"><title>n5</title>
<ellipse fill="none" stroke="black" cx="1271.87" cy="-26.8701" rx="63.7795" ry="26.7407"/>
<text text-anchor="middle" x="1271.87" y="-30.6701" font-family="Times,serif" font-size="14.00">&lt;waypoint1&gt;</text>
<text text-anchor="middle" x="1271.87" y="-15.6701" font-family="Times,serif" font-size="14.00">waypoint</text>
</g>
<!-- n2&#45;&gt;n5 -->
<g id="edge29" class="edge"><title>n2&#45;&gt;n5</title>
<path fill="none" stroke="black" d="M258.527,-216.845C250.452,-213.978 241.998,-211.352 233.874,-209.48 190.173,-199.413 70.376,-216.071 32.8738,-191.48 -0.051533,-169.891 -12.1036,-133.418 14.8738,-104.74 55.62,-61.426 935.224,-36.2085 1198.24,-29.6168"/>
<polygon fill="black" stroke="black" points="1198.53,-33.1105 1208.44,-29.3625 1198.36,-26.1127 1198.53,-33.1105"/>
<text text-anchor="middle" x="70.8738" y="-127.91" font-family="Times,serif" font-size="14.00"> static(visible_from)</text>
</g>
<!-- n2&#45;&gt;n6 -->
<g id="edge28" class="edge"><title>n2&#45;&gt;n6</title>
<path fill="none" stroke="black" d="M362.554,-228.801C430.709,-221.149 544.53,-207.475 641.874,-191.48 675.417,-185.969 683.102,-180.356 716.874,-176.48 844.543,-161.829 1168.35,-180.942 1294.87,-158.48 1302.12,-157.194 1309.61,-155.377 1316.95,-153.294"/>
<polygon fill="black" stroke="black" points="1318.27,-156.552 1326.84,-150.315 1316.25,-149.85 1318.27,-156.552"/>
<text text-anchor="middle" x="772.874" y="-180.28" font-family="Times,serif" font-size="14.00"> static(visible_from)</text>
</g>
<!-- n13 -->
<g id="node13" class="node"><title>n13</title>
<ellipse fill="none" stroke="black" cx="189.874" cy="-131.61" rx="53.9813" ry="26.7407"/>
<text text-anchor="middle" x="189.874" y="-135.41" font-family="Times,serif" font-size="14.00">&lt;low_res&gt;</text>
<text text-anchor="middle" x="189.874" y="-120.41" font-family="Times,serif" font-size="14.00">mode</text>
</g>
<!-- n2&#45;&gt;n13 -->
<g id="edge23" class="edge"><title>n2&#45;&gt;n13</title>
<path fill="none" stroke="black" d="M240.856,-229.273C167.548,-221.345 52.7425,-206.683 39.8738,-191.48 35.5666,-186.392 35.6956,-181.675 39.8738,-176.48 63.2587,-147.405 86.1176,-169.143 121.874,-158.48 127.612,-156.769 133.557,-154.805 139.435,-152.739"/>
<polygon fill="black" stroke="black" points="141.007,-155.892 149.216,-149.195 138.622,-149.311 141.007,-155.892"/>
<text text-anchor="middle" x="131.874" y="-180.28" font-family="Times,serif" font-size="14.00"> end(communicated_image_data)</text>
</g>
<!-- n3 -->
<g id="node3" class="node"><title>n3</title>
<ellipse fill="none" stroke="black" cx="1163.87" cy="-236.35" rx="62.8651" ry="26.7407"/>
<text text-anchor="middle" x="1163.87" y="-240.15" font-family="Times,serif" font-size="14.00">&lt;objective3&gt;</text>
<text text-anchor="middle" x="1163.87" y="-225.15" font-family="Times,serif" font-size="14.00">objective</text>
</g>
<!-- n3&#45;&gt;n4 -->
<g id="edge17" class="edge"><title>n3&#45;&gt;n4</title>
<path fill="none" stroke="black" d="M1109.54,-222.339C1055.66,-209.435 981.065,-191.563 980.874,-191.48 969.665,-186.654 969.268,-180.852 957.874,-176.48 887.75,-149.573 801.747,-139.153 743.494,-135.127"/>
<polygon fill="black" stroke="black" points="743.516,-131.621 733.311,-134.469 743.065,-138.607 743.516,-131.621"/>
<text text-anchor="middle" x="1072.87" y="-180.28" font-family="Times,serif" font-size="14.00"> end(communicated_image_data)</text>
</g>
<!-- n3&#45;&gt;n5 -->
<g id="edge31" class="edge"><title>n3&#45;&gt;n5</title>
<path fill="none" stroke="black" d="M1163.86,-209.433C1164.89,-181.847 1169.61,-137.717 1187.87,-104.74 1198.23,-86.0372 1214.83,-69.4177 1230.54,-56.4592"/>
<polygon fill="black" stroke="black" points="1232.99,-58.9851 1238.65,-50.0248 1228.64,-53.5037 1232.99,-58.9851"/>
<text text-anchor="middle" x="1243.87" y="-127.91" font-family="Times,serif" font-size="14.00"> static(visible_from)</text>
</g>
<!-- n3&#45;&gt;n6 -->
<g id="edge16" class="edge"><title>n3&#45;&gt;n6</title>
<path fill="none" stroke="black" d="M1179.97,-210.213C1188.87,-198.267 1200.95,-184.811 1214.87,-176.48 1246.15,-157.771 1259.76,-168.229 1294.87,-158.48 1301.43,-156.66 1308.25,-154.619 1315.01,-152.505"/>
<polygon fill="black" stroke="black" points="1316.37,-155.744 1324.84,-149.369 1314.25,-149.076 1316.37,-155.744"/>
<text text-anchor="middle" x="1270.87" y="-180.28" font-family="Times,serif" font-size="14.00"> static(visible_from)</text>
</g>
<!-- n5&#45;&gt;n5 -->
<g id="edge2" class="edge"><title>n5&#45;&gt;n5</title>
<path fill="none" stroke="black" d="M1331.68,-36.3053C1344.36,-35.3472 1353.51,-32.2021 1353.51,-26.8701 1353.51,-23.121 1348.99,-20.4531 1341.89,-18.8664"/>
<polygon fill="black" stroke="black" points="1342.07,-15.3569 1331.68,-17.4349 1341.1,-22.2891 1342.07,-15.3569"/>
<text text-anchor="middle" x="1412.51" y="-23.1701" font-family="Times,serif" font-size="14.00"> init(at_rock_sample)</text>
</g>
<!-- n5&#45;&gt;n6 -->
<g id="edge13" class="edge"><title>n5&#45;&gt;n6</title>
<path fill="none" stroke="black" d="M1317.24,-46.0107C1329.44,-52.632 1341.76,-61.1584 1350.87,-71.7401 1356.66,-78.4561 1360.98,-86.8362 1364.2,-95.1484"/>
<polygon fill="black" stroke="black" points="1360.94,-96.4365 1367.48,-104.771 1367.56,-94.1769 1360.94,-96.4365"/>
<text text-anchor="middle" x="1399.87" y="-75.5401" font-family="Times,serif" font-size="14.00"> static(visible)</text>
</g>
<!-- n6&#45;&gt;n5 -->
<g id="edge8" class="edge"><title>n6&#45;&gt;n5</title>
<path fill="none" stroke="black" d="M1323.53,-114.639C1301.54,-106.441 1279.18,-96.2098 1272.87,-86.7401 1268.41,-80.0386 1266.6,-71.8893 1266.23,-63.8171"/>
<polygon fill="black" stroke="black" points="1269.73,-63.8199 1266.45,-53.7484 1262.74,-63.6724 1269.73,-63.8199"/>
<text text-anchor="middle" x="1311.87" y="-75.5401" font-family="Times,serif" font-size="14.00"> static(visible)</text>
</g>
<!-- n6&#45;&gt;n6 -->
<g id="edge3" class="edge"><title>n6&#45;&gt;n6</title>
<path fill="none" stroke="black" d="M1432.68,-141.045C1445.36,-140.087 1454.51,-136.942 1454.51,-131.61 1454.51,-127.861 1449.99,-125.193 1442.89,-123.607"/>
<polygon fill="black" stroke="black" points="1443.07,-120.097 1432.68,-122.175 1442.1,-127.029 1443.07,-120.097"/>
<text text-anchor="middle" x="1539.01" y="-135.41" font-family="Times,serif" font-size="14.00"> end(communicated_soil_data)</text>
<text text-anchor="middle" x="1539.01" y="-120.41" font-family="Times,serif" font-size="14.00">init(at_soil_sample)</text>
</g>
<!-- n7 -->
<g id="node7" class="node"><title>n7</title>
<ellipse fill="none" stroke="black" cx="996.874" cy="-341.09" rx="56.6372" ry="26.7407"/>
<text text-anchor="middle" x="996.874" y="-344.89" font-family="Times,serif" font-size="14.00">&lt;camera0&gt;</text>
<text text-anchor="middle" x="996.874" y="-329.89" font-family="Times,serif" font-size="14.00">camera</text>
</g>
<!-- n7&#45;&gt;n4 -->
<g id="edge12" class="edge"><title>n7&#45;&gt;n4</title>
<path fill="none" stroke="black" d="M994.111,-314.215C992.126,-303.46 988.719,-291.189 982.874,-281.22 959.05,-240.59 947.999,-228.417 904.874,-209.48 861.178,-190.293 727.046,-222.61 690.874,-191.48 684.178,-185.717 680.37,-177.388 678.276,-168.801"/>
<polygon fill="black" stroke="black" points="681.689,-167.995 676.534,-158.739 674.791,-169.189 681.689,-167.995"/>
<text text-anchor="middle" x="1015.87" y="-232.65" font-family="Times,serif" font-size="14.00"> static(supports)</text>
</g>
<!-- n9 -->
<g id="node9" class="node"><title>n9</title>
<ellipse fill="none" stroke="black" cx="832.874" cy="-236.35" rx="62.8651" ry="26.7407"/>
<text text-anchor="middle" x="832.874" y="-240.15" font-family="Times,serif" font-size="14.00">&lt;objective2&gt;</text>
<text text-anchor="middle" x="832.874" y="-225.15" font-family="Times,serif" font-size="14.00">objective</text>
</g>
<!-- n7&#45;&gt;n9 -->
<g id="edge15" class="edge"><title>n7&#45;&gt;n9</title>
<path fill="none" stroke="black" d="M940.774,-337.493C908.694,-333.03 870.134,-322.122 845.874,-296.22 840.024,-289.975 836.585,-281.714 834.613,-273.362"/>
<polygon fill="black" stroke="black" points="838.019,-272.52 832.872,-263.259 831.121,-273.708 838.019,-272.52"/>
<text text-anchor="middle" x="914.374" y="-285.02" font-family="Times,serif" font-size="14.00"> static(calibration_target)</text>
</g>
<!-- n12 -->
<g id="node12" class="node"><title>n12</title>
<ellipse fill="none" stroke="black" cx="1533.87" cy="-236.35" rx="48.1667" ry="26.7407"/>
<text text-anchor="middle" x="1533.87" y="-240.15" font-family="Times,serif" font-size="14.00">&lt;rover0&gt;</text>
<text text-anchor="middle" x="1533.87" y="-225.15" font-family="Times,serif" font-size="14.00">rover</text>
</g>
<!-- n7&#45;&gt;n12 -->
<g id="edge30" class="edge"><title>n7&#45;&gt;n12</title>
<path fill="none" stroke="black" d="M1052.66,-336.018C1143.28,-328.33 1327.37,-308.23 1476.87,-263.22 1480.97,-261.987 1485.16,-260.521 1489.31,-258.923"/>
<polygon fill="black" stroke="black" points="1490.94,-262.035 1498.86,-255.002 1488.28,-255.559 1490.94,-262.035"/>
<text text-anchor="middle" x="1447.37" y="-285.02" font-family="Times,serif" font-size="14.00"> static(on_board)</text>
</g>
<!-- n8 -->
<g id="node8" class="node"><title>n8</title>
<ellipse fill="none" stroke="black" cx="684.874" cy="-341.09" rx="56.6372" ry="26.7407"/>
<text text-anchor="middle" x="684.874" y="-344.89" font-family="Times,serif" font-size="14.00">&lt;camera1&gt;</text>
<text text-anchor="middle" x="684.874" y="-329.89" font-family="Times,serif" font-size="14.00">camera</text>
</g>
<!-- n8&#45;&gt;n4 -->
<g id="edge14" class="edge"><title>n8&#45;&gt;n4</title>
<path fill="none" stroke="black" d="M678.066,-314.29C670.434,-282.039 659.865,-225.152 665.874,-176.48 666.205,-173.797 666.646,-171.041 667.162,-168.282"/>
<polygon fill="black" stroke="black" points="670.608,-168.905 669.291,-158.392 663.765,-167.432 670.608,-168.905"/>
<text text-anchor="middle" x="712.874" y="-232.65" font-family="Times,serif" font-size="14.00"> static(supports)</text>
</g>
<!-- n8&#45;&gt;n9 -->
<g id="edge20" class="edge"><title>n8&#45;&gt;n9</title>
<path fill="none" stroke="black" d="M678.927,-314.12C677.881,-302.972 678.894,-290.424 685.874,-281.22 686.589,-280.277 731.91,-266.833 772.037,-255.074"/>
<polygon fill="black" stroke="black" points="773.215,-258.376 781.829,-252.208 771.249,-251.658 773.215,-258.376"/>
<text text-anchor="middle" x="755.374" y="-285.02" font-family="Times,serif" font-size="14.00"> static(calibration_target)</text>
</g>
<!-- n8&#45;&gt;n12 -->
<g id="edge24" class="edge"><title>n8&#45;&gt;n12</title>
<path fill="none" stroke="black" d="M740.072,-334.253C789.927,-328.989 865.31,-321.048 930.874,-314.22 1073.08,-299.41 1108.49,-294.23 1250.87,-281.22 1351.22,-272.052 1379.31,-288.42 1476.87,-263.22 1481.25,-262.089 1485.72,-260.642 1490.12,-259.011"/>
<polygon fill="black" stroke="black" points="1491.63,-262.175 1499.61,-255.2 1489.02,-255.68 1491.63,-262.175"/>
<text text-anchor="middle" x="1297.37" y="-285.02" font-family="Times,serif" font-size="14.00"> static(on_board)</text>
</g>
<!-- n8&#45;&gt;n13 -->
<g id="edge6" class="edge"><title>n8&#45;&gt;n13</title>
<path fill="none" stroke="black" d="M628.153,-340.137C527.091,-338.481 310.646,-327.009 141.874,-263.22 87.6239,-242.716 60.3904,-242.532 32.8738,-191.48 3.89087,-137.707 71.6275,-173.013 121.874,-158.48 127.626,-156.817 133.58,-154.882 139.463,-152.834"/>
<polygon fill="black" stroke="black" points="141.028,-155.99 149.249,-149.307 138.655,-149.405 141.028,-155.99"/>
<text text-anchor="middle" x="185.874" y="-232.65" font-family="Times,serif" font-size="14.00"> static(supports)</text>
</g>
<!-- n15 -->
<g id="node15" class="node"><title>n15</title>
<ellipse fill="none" stroke="black" cx="2209.87" cy="-131.61" rx="48.1667" ry="26.7407"/>
<text text-anchor="middle" x="2209.87" y="-135.41" font-family="Times,serif" font-size="14.00">&lt;colour&gt;</text>
<text text-anchor="middle" x="2209.87" y="-120.41" font-family="Times,serif" font-size="14.00">mode</text>
</g>
<!-- n8&#45;&gt;n15 -->
<g id="edge19" class="edge"><title>n8&#45;&gt;n15</title>
<path fill="none" stroke="black" d="M738.999,-333.159C788.773,-327.08 864.667,-318.555 930.874,-314.22 1215.6,-295.58 1935.83,-327.312 2213.87,-263.22 2294.19,-244.708 2339.24,-260.111 2384.87,-191.48 2406.42,-159.078 2355.37,-187.121 2262.87,-158.48 2259.55,-157.45 2256.17,-156.236 2252.81,-154.906"/>
<polygon fill="black" stroke="black" points="2254.02,-151.62 2243.45,-150.905 2251.27,-158.056 2254.02,-151.62"/>
<text text-anchor="middle" x="2415.87" y="-232.65" font-family="Times,serif" font-size="14.00"> static(supports)</text>
</g>
<!-- n9&#45;&gt;n6 -->
<g id="edge9" class="edge"><title>n9&#45;&gt;n6</title>
<path fill="none" stroke="black" d="M829.976,-209.26C830.2,-197.531 832.855,-184.542 841.874,-176.48 860.652,-159.695 1270.09,-162.989 1294.87,-158.48 1302.11,-157.163 1309.6,-155.327 1316.94,-153.235"/>
<polygon fill="black" stroke="black" points="1318.26,-156.491 1326.82,-150.247 1316.24,-149.791 1318.26,-156.491"/>
<text text-anchor="middle" x="897.874" y="-180.28" font-family="Times,serif" font-size="14.00"> static(visible_from)</text>
</g>
<!-- n9&#45;&gt;n13 -->
<g id="edge10" class="edge"><title>n9&#45;&gt;n13</title>
<path fill="none" stroke="black" d="M784.405,-218.914C771.388,-215.148 757.219,-211.626 743.874,-209.48 688.877,-200.639 293.345,-215.048 242.874,-191.48 235.974,-188.258 225.126,-176.808 215.037,-164.85"/>
<polygon fill="black" stroke="black" points="217.627,-162.49 208.565,-157.001 212.226,-166.943 217.627,-162.49"/>
<text text-anchor="middle" x="334.874" y="-180.28" font-family="Times,serif" font-size="14.00"> end(communicated_image_data)</text>
</g>
<!-- n10 -->
<g id="node10" class="node"><title>n10</title>
<ellipse fill="none" stroke="black" cx="1533.87" cy="-341.09" rx="67.3507" ry="26.7407"/>
<text text-anchor="middle" x="1533.87" y="-344.89" font-family="Times,serif" font-size="14.00">&lt;rover0store&gt;</text>
<text text-anchor="middle" x="1533.87" y="-329.89" font-family="Times,serif" font-size="14.00">store</text>
</g>
<!-- n10&#45;&gt;n10 -->
<g id="edge4" class="edge"><title>n10&#45;&gt;n10</title>
<path fill="none" stroke="black" d="M1597.02,-350.468C1609.86,-349.447 1619.05,-346.321 1619.05,-341.09 1619.05,-337.413 1614.5,-334.775 1607.34,-333.179"/>
<polygon fill="black" stroke="black" points="1607.41,-329.653 1597.02,-331.712 1606.43,-336.584 1607.41,-329.653"/>
<text text-anchor="middle" x="1652.05" y="-337.39" font-family="Times,serif" font-size="14.00"> init(empty)</text>
</g>
<!-- n10&#45;&gt;n12 -->
<g id="edge7" class="edge"><title>n10&#45;&gt;n12</title>
<path fill="none" stroke="black" d="M1533.87,-314.165C1533.87,-301.875 1533.87,-286.987 1533.87,-273.602"/>
<polygon fill="black" stroke="black" points="1537.37,-273.268 1533.87,-263.268 1530.37,-273.268 1537.37,-273.268"/>
<text text-anchor="middle" x="1576.87" y="-285.02" font-family="Times,serif" font-size="14.00"> static(store_of)</text>
</g>
<!-- n11 -->
<g id="node11" class="node"><title>n11</title>
<ellipse fill="none" stroke="black" cx="1867.87" cy="-236.35" rx="62.8651" ry="26.7407"/>
<text text-anchor="middle" x="1867.87" y="-240.15" font-family="Times,serif" font-size="14.00">&lt;objective4&gt;</text>
<text text-anchor="middle" x="1867.87" y="-225.15" font-family="Times,serif" font-size="14.00">objective</text>
</g>
<!-- n11&#45;&gt;n6 -->
<g id="edge26" class="edge"><title>n11&#45;&gt;n6</title>
<path fill="none" stroke="black" d="M1821.06,-218.375C1812.68,-215.382 1804.03,-212.318 1795.87,-209.48 1774.17,-201.928 1720.25,-181.708 1697.87,-176.48 1612.35,-156.502 1511.9,-144.672 1445.56,-138.424"/>
<polygon fill="black" stroke="black" points="1445.49,-134.903 1435.21,-137.469 1444.85,-141.874 1445.49,-134.903"/>
<text text-anchor="middle" x="1800.87" y="-180.28" font-family="Times,serif" font-size="14.00"> static(visible_from)</text>
</g>
<!-- n11&#45;&gt;n15 -->
<g id="edge32" class="edge"><title>n11&#45;&gt;n15</title>
<path fill="none" stroke="black" d="M1861.32,-209.419C1860.04,-198.01 1861.04,-185.241 1868.87,-176.48 1887.41,-155.766 2059.5,-141.97 2151.88,-135.991"/>
<polygon fill="black" stroke="black" points="2152.16,-139.48 2161.92,-135.352 2151.72,-132.495 2152.16,-139.48"/>
<text text-anchor="middle" x="1960.87" y="-180.28" font-family="Times,serif" font-size="14.00"> end(communicated_image_data)</text>
</g>
<!-- n12&#45;&gt;n6 -->
<g id="edge33" class="edge"><title>n12&#45;&gt;n6</title>
<path fill="none" stroke="black" d="M1579.7,-228.007C1620.27,-219.574 1669.77,-203.329 1646.87,-176.48 1621.63,-146.868 1519.12,-137.159 1446.93,-134.026"/>
<polygon fill="black" stroke="black" points="1446.64,-130.512 1436.51,-133.61 1446.36,-137.506 1446.64,-130.512"/>
<text text-anchor="middle" x="1673.37" y="-180.28" font-family="Times,serif" font-size="14.00"> init(at)</text>
</g>
<!-- n12&#45;&gt;n12 -->
<g id="edge5" class="edge"><title>n12&#45;&gt;n12</title>
<path fill="none" stroke="black" d="M1578.97,-246.015C1590.91,-245.462 1599.96,-242.241 1599.96,-236.35 1599.96,-232.3 1595.68,-229.512 1589.13,-227.986"/>
<polygon fill="black" stroke="black" points="1589.33,-224.483 1578.97,-226.686 1588.44,-231.427 1589.33,-224.483"/>
<text text-anchor="middle" x="1693.46" y="-247.65" font-family="Times,serif" font-size="14.00"> static(equipped_for_imaging)</text>
<text text-anchor="middle" x="1693.46" y="-232.65" font-family="Times,serif" font-size="14.00">init(available)</text>
<text text-anchor="middle" x="1693.46" y="-217.65" font-family="Times,serif" font-size="14.00">static(equipped_for_soil_analysis)</text>
</g>
<!-- n14 -->
<g id="node14" class="node"><title>n14</title>
<ellipse fill="none" stroke="black" cx="2141.87" cy="-236.35" rx="62.8651" ry="26.7407"/>
<text text-anchor="middle" x="2141.87" y="-240.15" font-family="Times,serif" font-size="14.00">&lt;objective1&gt;</text>
<text text-anchor="middle" x="2141.87" y="-225.15" font-family="Times,serif" font-size="14.00">objective</text>
</g>
<!-- n14&#45;&gt;n4 -->
<g id="edge21" class="edge"><title>n14&#45;&gt;n4</title>
<path fill="none" stroke="black" d="M2083.24,-226.424C2043,-220.647 1988.32,-213.481 1939.87,-209.48 1833.27,-200.677 1560.82,-223.871 1458.87,-191.48 1447.24,-187.785 1447.47,-180.294 1435.87,-176.48 1427.68,-173.784 926.161,-146.206 742.953,-136.206"/>
<polygon fill="black" stroke="black" points="743.085,-132.709 732.909,-135.658 742.704,-139.698 743.085,-132.709"/>
<text text-anchor="middle" x="1550.87" y="-180.28" font-family="Times,serif" font-size="14.00"> end(communicated_image_data)</text>
</g>
<!-- n14&#45;&gt;n5 -->
<g id="edge11" class="edge"><title>n14&#45;&gt;n5</title>
<path fill="none" stroke="black" d="M2204.44,-232.895C2268.66,-228.904 2362.3,-218.496 2384.87,-191.48 2389.15,-186.365 2388.14,-182.291 2384.87,-176.48 2354.79,-122.983 2325.29,-123.562 2266.87,-104.74 2095.36,-49.4817 1545.66,-33.2715 1345.58,-29.1357"/>
<polygon fill="black" stroke="black" points="1345.54,-25.6342 1335.47,-28.9308 1345.4,-32.6327 1345.54,-25.6342"/>
<text text-anchor="middle" x="2428.87" y="-127.91" font-family="Times,serif" font-size="14.00"> static(visible_from)</text>
</g>
<!-- n14&#45;&gt;n6 -->
<g id="edge22" class="edge"><title>n14&#45;&gt;n6</title>
<path fill="none" stroke="black" d="M2106.13,-213.99C2094.99,-207.057 2082.78,-199.166 2071.87,-191.48 2063.08,-185.281 2062.92,-180.334 2052.87,-176.48 1943.96,-134.692 1599.28,-131.253 1446.74,-131.877"/>
<polygon fill="black" stroke="black" points="1446.52,-128.378 1436.53,-131.926 1446.55,-135.378 1446.52,-128.378"/>
<text text-anchor="middle" x="2127.87" y="-180.28" font-family="Times,serif" font-size="14.00"> static(visible_from)</text>
</g>
<!-- n14&#45;&gt;n15 -->
<g id="edge18" class="edge"><title>n14&#45;&gt;n15</title>
<path fill="none" stroke="black" d="M2170.31,-212.103C2176.69,-205.896 2183.01,-198.849 2187.87,-191.48 2192.57,-184.359 2196.46,-176.095 2199.58,-168.05"/>
<polygon fill="black" stroke="black" points="2202.95,-169.034 2203.02,-158.439 2196.35,-166.675 2202.95,-169.034"/>
<text text-anchor="middle" x="2288.87" y="-180.28" font-family="Times,serif" font-size="14.00"> end(communicated_image_data)</text>
</g>
</g>
</svg>
