<?xml version="1.0" encoding="UTF-8" standalone="no"?>
<!DOCTYPE svg PUBLIC "-//W3C//DTD SVG 1.1//EN"
 "http://www.w3.org/Graphics/SVG/1.1/DTD/svg11.dtd">
<!-- Generated by graphviz version 2.38.0 (20140413.2041)
 -->
<!-- Title: Struc Pages: 1 -->
<svg width="1230pt" height="400pt"
 viewBox="0.00 0.00 1229.79 399.96" xmlns="http://www.w3.org/2000/svg" xmlns:xlink="http://www.w3.org/1999/xlink">
<g id="graph0" class="graph" transform="scale(1 1) rotate(0) translate(4 395.96)">
<title>Struc</title>
<polygon fill="white" stroke="none" points="-4,4 -4,-395.96 1225.79,-395.96 1225.79,4 -4,4"/>
<!-- n1 -->
<g id="node1" class="node"><title>n1</title>
<ellipse fill="none" stroke="black" cx="561.175" cy="-248.35" rx="67.7712" ry="26.7574"/>
<ellipse fill="none" stroke="black" cx="561.175" cy="-248.35" rx="71.7647" ry="30.7407"/>
<text text-anchor="middle" x="561.175" y="-252.15" font-family="Times,serif" font-size="14.00">&lt;objective10&gt;</text>
<text text-anchor="middle" x="561.175" y="-237.15" font-family="Times,serif" font-size="14.00">objective</text>
</g>
<!-- n3 -->
<g id="node3" class="node"><title>n3</title>
<ellipse fill="none" stroke="black" cx="373.175" cy="-135.61" rx="48.1603" ry="26.7574"/>
<ellipse fill="none" stroke="black" cx="373.175" cy="-135.61" rx="52.1667" ry="30.7407"/>
<text text-anchor="middle" x="373.175" y="-139.41" font-family="Times,serif" font-size="14.00">&lt;colour&gt;</text>
<text text-anchor="middle" x="373.175" y="-124.41" font-family="Times,serif" font-size="14.00">mode</text>
</g>
<!-- n1&#45;&gt;n3 -->
<g id="edge13" class="edge"><title>n1&#45;&gt;n3</title>
<path fill="none" stroke="black" stroke-dasharray="5,2" d="M500.938,-231.227C452.529,-218.155 392.244,-201.567 390.175,-199.48 383.996,-193.246 380.002,-185.013 377.435,-176.565"/>
<polygon fill="black" stroke="black" points="380.79,-175.55 375.032,-166.657 373.987,-177.2 380.79,-175.55"/>
<text text-anchor="middle" x="482.175" y="-188.28" font-family="Times,serif" font-size="14.00"> end(communicated_image_data)</text>
</g>
<!-- n5 -->
<g id="node5" class="node"><title>n5</title>
<ellipse fill="none" stroke="black" cx="782.175" cy="-135.61" rx="63.7795" ry="26.7407"/>
<text text-anchor="middle" x="782.175" y="-139.41" font-family="Times,serif" font-size="14.00">&lt;waypoint1&gt;</text>
<text text-anchor="middle" x="782.175" y="-124.41" font-family="Times,serif" font-size="14.00">waypoint</text>
</g>
<!-- n1&#45;&gt;n5 -->
<g id="edge6" class="edge"><title>n1&#45;&gt;n5</title>
<path fill="none" stroke="black" stroke-dasharray="5,2" d="M606.966,-224.405C643.681,-206.008 695.11,-180.237 732.752,-161.375"/>
<polygon fill="black" stroke="black" points="734.635,-164.347 742.008,-156.738 731.499,-158.088 734.635,-164.347"/>
<text text-anchor="middle" x="740.175" y="-188.28" font-family="Times,serif" font-size="14.00"> static(visible_from)</text>
</g>
<!-- n6 -->
<g id="node6" class="node"><title>n6</title>
<ellipse fill="none" stroke="black" cx="681.175" cy="-26.8701" rx="63.7795" ry="26.7407"/>
<text text-anchor="middle" x="681.175" y="-30.6701" font-family="Times,serif" font-size="14.00">&lt;waypoint0&gt;</text>
<text text-anchor="middle" x="681.175" y="-15.6701" font-family="Times,serif" font-size="14.00">waypoint</text>
</g>
<!-- n1&#45;&gt;n6 -->
<g id="edge11" class="edge"><title>n1&#45;&gt;n6</title>
<path fill="none" stroke="black" d="M569.413,-217.506C571.022,-211.543 572.674,-205.319 574.175,-199.48 584.965,-157.515 575.124,-142.039 597.175,-104.74 608.055,-86.3369 624.734,-69.7639 640.37,-56.7591"/>
<polygon fill="black" stroke="black" points="642.814,-59.2856 648.416,-50.2929 638.428,-53.8293 642.814,-59.2856"/>
<text text-anchor="middle" x="653.175" y="-131.91" font-family="Times,serif" font-size="14.00"> static(visible_from)</text>
</g>
<!-- n2 -->
<g id="node2" class="node"><title>n2</title>
<ellipse fill="none" stroke="black" cx="356.175" cy="-361.09" rx="56.6326" ry="26.7574"/>
<ellipse fill="none" stroke="black" cx="356.175" cy="-361.09" rx="60.6372" ry="30.7407"/>
<text text-anchor="middle" x="356.175" y="-364.89" font-family="Times,serif" font-size="14.00">&lt;camera1&gt;</text>
<text text-anchor="middle" x="356.175" y="-349.89" font-family="Times,serif" font-size="14.00">camera</text>
</g>
<!-- n2&#45;&gt;n1 -->
<g id="edge14" class="edge"><title>n2&#45;&gt;n1</title>
<path fill="none" stroke="black" stroke-dasharray="5,2" d="M397.167,-337.947C429.131,-320.68 473.757,-296.573 508.39,-277.864"/>
<polygon fill="black" stroke="black" points="510.285,-280.819 517.42,-272.987 506.958,-274.66 510.285,-280.819"/>
<text text-anchor="middle" x="538.675" y="-301.02" font-family="Times,serif" font-size="14.00"> static(calibration_target)</text>
</g>
<!-- n2&#45;&gt;n3 -->
<g id="edge8" class="edge"><title>n2&#45;&gt;n3</title>
<path fill="none" stroke="black" stroke-dasharray="5,2" d="M358.468,-329.951C361.48,-290.353 366.779,-220.696 370.126,-176.689"/>
<polygon fill="black" stroke="black" points="373.623,-176.865 370.892,-166.628 366.643,-176.334 373.623,-176.865"/>
<text text-anchor="middle" x="410.175" y="-244.65" font-family="Times,serif" font-size="14.00"> static(supports)</text>
</g>
<!-- n7 -->
<g id="node7" class="node"><title>n7</title>
<ellipse fill="none" stroke="black" cx="67.1751" cy="-248.35" rx="48.1667" ry="26.7407"/>
<text text-anchor="middle" x="67.1751" y="-252.15" font-family="Times,serif" font-size="14.00">&lt;rover0&gt;</text>
<text text-anchor="middle" x="67.1751" y="-237.15" font-family="Times,serif" font-size="14.00">rover</text>
</g>
<!-- n2&#45;&gt;n7 -->
<g id="edge16" class="edge"><title>n2&#45;&gt;n7</title>
<path fill="none" stroke="black" d="M308.453,-341.804C255.176,-321.389 169.414,-288.527 115.781,-267.975"/>
<polygon fill="black" stroke="black" points="116.746,-264.597 106.156,-264.287 114.241,-271.133 116.746,-264.597"/>
<text text-anchor="middle" x="275.675" y="-301.02" font-family="Times,serif" font-size="14.00"> static(on_board)</text>
</g>
<!-- n4 -->
<g id="node4" class="node"><title>n4</title>
<ellipse fill="none" stroke="black" cx="1051.18" cy="-135.61" rx="51.7379" ry="26.7407"/>
<text text-anchor="middle" x="1051.18" y="-139.41" font-family="Times,serif" font-size="14.00">&lt;general&gt;</text>
<text text-anchor="middle" x="1051.18" y="-124.41" font-family="Times,serif" font-size="14.00">lander</text>
</g>
<!-- n4&#45;&gt;n4 -->
<g id="edge1" class="edge"><title>n4&#45;&gt;n4</title>
<path fill="none" stroke="black" d="M1099.01,-146.002C1111.43,-145.363 1120.79,-141.899 1120.79,-135.61 1120.79,-131.188 1116.16,-128.163 1109.1,-126.534"/>
<polygon fill="black" stroke="black" points="1109.38,-123.041 1099.01,-125.218 1108.47,-129.982 1109.38,-123.041"/>
<text text-anchor="middle" x="1171.29" y="-131.91" font-family="Times,serif" font-size="14.00"> init(channel_free)</text>
</g>
<!-- n4&#45;&gt;n6 -->
<g id="edge9" class="edge"><title>n4&#45;&gt;n6</title>
<path fill="none" stroke="black" d="M1016.21,-115.603C1008.13,-111.666 999.475,-107.793 991.175,-104.74 909.916,-74.8489 812.454,-52.8234 748.785,-40.1889"/>
<polygon fill="black" stroke="black" points="749.352,-36.7333 738.865,-38.242 748.003,-43.6023 749.352,-36.7333"/>
<text text-anchor="middle" x="979.175" y="-75.5401" font-family="Times,serif" font-size="14.00"> static(at_lander)</text>
</g>
<!-- n5&#45;&gt;n5 -->
<g id="edge2" class="edge"><title>n5&#45;&gt;n5</title>
<path fill="none" stroke="black" d="M841.251,-145.828C854.307,-144.868 863.815,-141.462 863.815,-135.61 863.815,-131.404 858.903,-128.462 851.292,-126.783"/>
<polygon fill="black" stroke="black" points="851.637,-123.298 841.251,-125.393 850.677,-130.231 851.637,-123.298"/>
<text text-anchor="middle" x="922.815" y="-131.91" font-family="Times,serif" font-size="14.00"> init(at_rock_sample)</text>
</g>
<!-- n5&#45;&gt;n6 -->
<g id="edge7" class="edge"><title>n5&#45;&gt;n6</title>
<path fill="none" stroke="black" d="M777.554,-108.595C774.329,-96.3473 768.968,-82.1745 760.175,-71.7401 753.357,-63.6491 744.648,-56.7763 735.517,-51.0415"/>
<polygon fill="black" stroke="black" points="737.084,-47.9035 726.683,-45.8892 733.558,-53.9504 737.084,-47.9035"/>
<text text-anchor="middle" x="807.175" y="-75.5401" font-family="Times,serif" font-size="14.00"> static(visible)</text>
</g>
<!-- n6&#45;&gt;n5 -->
<g id="edge12" class="edge"><title>n6&#45;&gt;n5</title>
<path fill="none" stroke="black" d="M673.527,-53.634C671.794,-64.6141 671.993,-77.0886 678.175,-86.7401 681.381,-91.7454 704.299,-102.525 727.806,-112.59"/>
<polygon fill="black" stroke="black" points="726.581,-115.872 737.154,-116.545 729.308,-109.425 726.581,-115.872"/>
<text text-anchor="middle" x="717.175" y="-75.5401" font-family="Times,serif" font-size="14.00"> static(visible)</text>
</g>
<!-- n6&#45;&gt;n6 -->
<g id="edge3" class="edge"><title>n6&#45;&gt;n6</title>
<path fill="none" stroke="black" d="M740.98,-36.3053C753.659,-35.3472 762.815,-32.2021 762.815,-26.8701 762.815,-23.121 758.288,-20.4531 751.193,-18.8664"/>
<polygon fill="black" stroke="black" points="751.369,-15.3569 740.98,-17.4349 750.397,-22.2891 751.369,-15.3569"/>
<text text-anchor="middle" x="847.315" y="-30.6701" font-family="Times,serif" font-size="14.00"> end(communicated_soil_data)</text>
<text text-anchor="middle" x="847.315" y="-15.6701" font-family="Times,serif" font-size="14.00">init(at_soil_sample)</text>
</g>
<!-- n7&#45;&gt;n6 -->
<g id="edge15" class="edge"><title>n7&#45;&gt;n6</title>
<path fill="none" stroke="black" d="M91.4774,-225.072C127.742,-193.132 199.464,-134.867 271.175,-104.74 383.021,-57.7531 524.045,-39.3442 608.172,-32.2319"/>
<polygon fill="black" stroke="black" points="608.713,-35.6996 618.396,-31.3997 608.145,-28.7227 608.713,-35.6996"/>
<text text-anchor="middle" x="291.675" y="-131.91" font-family="Times,serif" font-size="14.00"> init(at)</text>
</g>
<!-- n7&#45;&gt;n7 -->
<g id="edge4" class="edge"><title>n7&#45;&gt;n7</title>
<path fill="none" stroke="black" d="M111.65,-258.786C123.898,-258.282 133.258,-254.803 133.258,-248.35 133.258,-243.813 128.631,-240.746 121.625,-239.15"/>
<polygon fill="black" stroke="black" points="122.004,-235.67 111.65,-237.914 121.144,-242.617 122.004,-235.67"/>
<text text-anchor="middle" x="226.758" y="-259.65" font-family="Times,serif" font-size="14.00"> static(equipped_for_imaging)</text>
<text text-anchor="middle" x="226.758" y="-244.65" font-family="Times,serif" font-size="14.00">init(available)</text>
<text text-anchor="middle" x="226.758" y="-229.65" font-family="Times,serif" font-size="14.00">static(equipped_for_soil_analysis)</text>
</g>
<!-- n8 -->
<g id="node8" class="node"><title>n8</title>
<ellipse fill="none" stroke="black" cx="67.1751" cy="-361.09" rx="67.3507" ry="26.7407"/>
<text text-anchor="middle" x="67.1751" y="-364.89" font-family="Times,serif" font-size="14.00">&lt;rover0store&gt;</text>
<text text-anchor="middle" x="67.1751" y="-349.89" font-family="Times,serif" font-size="14.00">store</text>
</g>
<!-- n8&#45;&gt;n7 -->
<g id="edge10" class="edge"><title>n8&#45;&gt;n7</title>
<path fill="none" stroke="black" d="M67.1751,-334.127C67.1751,-319.653 67.1751,-301.403 67.1751,-285.546"/>
<polygon fill="black" stroke="black" points="70.6752,-285.535 67.1751,-275.535 63.6752,-285.535 70.6752,-285.535"/>
<text text-anchor="middle" x="110.175" y="-301.02" font-family="Times,serif" font-size="14.00"> static(store_of)</text>
</g>
<!-- n8&#45;&gt;n8 -->
<g id="edge5" class="edge"><title>n8&#45;&gt;n8</title>
<path fill="none" stroke="black" d="M129.57,-371.251C142.798,-370.22 152.35,-366.833 152.35,-361.09 152.35,-356.918 147.308,-353.99 139.476,-352.304"/>
<polygon fill="black" stroke="black" points="139.956,-348.837 129.57,-350.929 138.994,-355.771 139.956,-348.837"/>
<text text-anchor="middle" x="185.35" y="-357.39" font-family="Times,serif" font-size="14.00"> init(empty)</text>
</g>
</g>
</svg>
