<?xml version="1.0" encoding="UTF-8" standalone="no"?>
<!DOCTYPE svg PUBLIC "-//W3C//DTD SVG 1.1//EN"
 "http://www.w3.org/Graphics/SVG/1.1/DTD/svg11.dtd">
<!-- Generated by graphviz version 2.38.0 (20140413.2041)
 -->
<!-- Title: Struc Pages: 1 -->
<svg width="5215pt" height="376pt"
 viewBox="0.00 0.00 5214.61 375.96" xmlns="http://www.w3.org/2000/svg" xmlns:xlink="http://www.w3.org/1999/xlink">
<g id="graph0" class="graph" transform="scale(1 1) rotate(0) translate(4 371.96)">
<title>Struc</title>
<polygon fill="white" stroke="none" points="-4,4 -4,-371.96 5210.61,-371.96 5210.61,4 -4,4"/>
<!-- n1 -->
<g id="node1" class="node"><title>n1</title>
<ellipse fill="none" stroke="black" cx="4017.61" cy="-236.35" rx="51.7379" ry="26.7407"/>
<text text-anchor="middle" x="4017.61" y="-240.15" font-family="Times,serif" font-size="14.00">&lt;general&gt;</text>
<text text-anchor="middle" x="4017.61" y="-225.15" font-family="Times,serif" font-size="14.00">lander</text>
</g>
<!-- n1&#45;&gt;n1 -->
<g id="edge1" class="edge"><title>n1&#45;&gt;n1</title>
<path fill="none" stroke="black" d="M4066.09,-245.966C4078.19,-245.294 4087.23,-242.089 4087.23,-236.35 4087.23,-232.405 4082.96,-229.657 4076.36,-228.107"/>
<polygon fill="black" stroke="black" points="4076.47,-224.59 4066.09,-226.734 4075.54,-231.529 4076.47,-224.59"/>
<text text-anchor="middle" x="4137.73" y="-232.65" font-family="Times,serif" font-size="14.00"> init(channel_free)</text>
</g>
<!-- n6 -->
<g id="node6" class="node"><title>n6</title>
<ellipse fill="none" stroke="black" cx="4063.61" cy="-131.61" rx="63.7795" ry="26.7407"/>
<text text-anchor="middle" x="4063.61" y="-135.41" font-family="Times,serif" font-size="14.00">&lt;waypoint0&gt;</text>
<text text-anchor="middle" x="4063.61" y="-120.41" font-family="Times,serif" font-size="14.00">waypoint</text>
</g>
<!-- n1&#45;&gt;n6 -->
<g id="edge50" class="edge"><title>n1&#45;&gt;n6</title>
<path fill="none" stroke="black" d="M4066.81,-227.681C4102.95,-222.194 4153.27,-214.858 4197.61,-209.48 4217.79,-207.034 4365.97,-206.54 4379.61,-191.48 4413.61,-153.958 4240.65,-140.051 4137.04,-135.133"/>
<polygon fill="black" stroke="black" points="4137.08,-131.632 4126.93,-134.672 4136.76,-138.624 4137.08,-131.632"/>
<text text-anchor="middle" x="4430.61" y="-180.28" font-family="Times,serif" font-size="14.00"> static(at_lander)</text>
</g>
<!-- n2 -->
<g id="node2" class="node"><title>n2</title>
<ellipse fill="none" stroke="black" cx="3740.61" cy="-341.09" rx="56.6372" ry="26.7407"/>
<text text-anchor="middle" x="3740.61" y="-344.89" font-family="Times,serif" font-size="14.00">&lt;camera2&gt;</text>
<text text-anchor="middle" x="3740.61" y="-329.89" font-family="Times,serif" font-size="14.00">camera</text>
</g>
<!-- n15 -->
<g id="node15" class="node"><title>n15</title>
<ellipse fill="none" stroke="black" cx="3740.61" cy="-236.35" rx="62.8651" ry="26.7407"/>
<text text-anchor="middle" x="3740.61" y="-240.15" font-family="Times,serif" font-size="14.00">&lt;objective8&gt;</text>
<text text-anchor="middle" x="3740.61" y="-225.15" font-family="Times,serif" font-size="14.00">objective</text>
</g>
<!-- n2&#45;&gt;n15 -->
<g id="edge27" class="edge"><title>n2&#45;&gt;n15</title>
<path fill="none" stroke="black" d="M3740.61,-314.165C3740.61,-301.875 3740.61,-286.987 3740.61,-273.602"/>
<polygon fill="black" stroke="black" points="3744.11,-273.268 3740.61,-263.268 3737.11,-273.268 3744.11,-273.268"/>
<text text-anchor="middle" x="3809.11" y="-285.02" font-family="Times,serif" font-size="14.00"> static(calibration_target)</text>
</g>
<!-- n17 -->
<g id="node17" class="node"><title>n17</title>
<ellipse fill="none" stroke="black" cx="4254.61" cy="-236.35" rx="48.1667" ry="26.7407"/>
<text text-anchor="middle" x="4254.61" y="-240.15" font-family="Times,serif" font-size="14.00">&lt;rover0&gt;</text>
<text text-anchor="middle" x="4254.61" y="-225.15" font-family="Times,serif" font-size="14.00">rover</text>
</g>
<!-- n2&#45;&gt;n17 -->
<g id="edge8" class="edge"><title>n2&#45;&gt;n17</title>
<path fill="none" stroke="black" d="M3796.19,-335.426C3883.31,-327.08 4056.61,-306.276 4197.61,-263.22 4201.71,-261.971 4205.89,-260.494 4210.04,-258.888"/>
<polygon fill="black" stroke="black" points="4211.67,-261.999 4219.59,-254.957 4209.01,-255.525 4211.67,-261.999"/>
<text text-anchor="middle" x="4171.11" y="-285.02" font-family="Times,serif" font-size="14.00"> static(on_board)</text>
</g>
<!-- n19 -->
<g id="node19" class="node"><title>n19</title>
<ellipse fill="none" stroke="black" cx="1025.61" cy="-131.61" rx="53.9813" ry="26.7407"/>
<text text-anchor="middle" x="1025.61" y="-135.41" font-family="Times,serif" font-size="14.00">&lt;low_res&gt;</text>
<text text-anchor="middle" x="1025.61" y="-120.41" font-family="Times,serif" font-size="14.00">mode</text>
</g>
<!-- n2&#45;&gt;n19 -->
<g id="edge49" class="edge"><title>n2&#45;&gt;n19</title>
<path fill="none" stroke="black" d="M3686.6,-332.757C3586.21,-319.505 3363.92,-291.952 3175.61,-281.22 2976.59,-269.879 1579.85,-284.166 1381.61,-263.22 1222.4,-246.399 1133.04,-312.828 1028.61,-191.48 1023.16,-185.138 1020.88,-176.843 1020.31,-168.488"/>
<polygon fill="black" stroke="black" points="1023.81,-168.413 1020.36,-158.396 1016.81,-168.379 1023.81,-168.413"/>
<text text-anchor="middle" x="1425.61" y="-232.65" font-family="Times,serif" font-size="14.00"> static(supports)</text>
</g>
<!-- n3 -->
<g id="node3" class="node"><title>n3</title>
<ellipse fill="none" stroke="black" cx="602.614" cy="-236.35" rx="62.8651" ry="26.7407"/>
<text text-anchor="middle" x="602.614" y="-240.15" font-family="Times,serif" font-size="14.00">&lt;objective2&gt;</text>
<text text-anchor="middle" x="602.614" y="-225.15" font-family="Times,serif" font-size="14.00">objective</text>
</g>
<!-- n5 -->
<g id="node5" class="node"><title>n5</title>
<ellipse fill="none" stroke="black" cx="4062.61" cy="-26.8701" rx="63.7795" ry="26.7407"/>
<text text-anchor="middle" x="4062.61" y="-30.6701" font-family="Times,serif" font-size="14.00">&lt;waypoint1&gt;</text>
<text text-anchor="middle" x="4062.61" y="-15.6701" font-family="Times,serif" font-size="14.00">waypoint</text>
</g>
<!-- n3&#45;&gt;n5 -->
<g id="edge24" class="edge"><title>n3&#45;&gt;n5</title>
<path fill="none" stroke="black" d="M546.613,-223.995C519.021,-218.802 485.188,-213.028 454.614,-209.48 260.513,-186.957 -101.161,-251.708 27.6139,-104.74 101.183,-20.7772 165.266,-79.7346 276.614,-71.7401 659.283,-44.2654 3492.67,-30.417 3988.63,-28.1915"/>
<polygon fill="black" stroke="black" points="3988.9,-31.6904 3998.89,-28.1456 3988.87,-24.6905 3988.9,-31.6904"/>
<text text-anchor="middle" x="83.6139" y="-127.91" font-family="Times,serif" font-size="14.00"> static(visible_from)</text>
</g>
<!-- n3&#45;&gt;n6 -->
<g id="edge17" class="edge"><title>n3&#45;&gt;n6</title>
<path fill="none" stroke="black" d="M656.352,-222.337C679.645,-217.301 707.323,-212.12 732.614,-209.48 818.486,-200.516 2205.22,-220.268 2286.61,-191.48 2296.76,-187.893 2295.47,-180.073 2305.61,-176.48 2380.61,-149.915 3658.14,-162.129 3737.61,-158.48 3825.23,-154.458 3925.82,-145.869 3991.82,-139.69"/>
<polygon fill="black" stroke="black" points="3992.48,-143.143 4002.1,-138.72 3991.82,-136.174 3992.48,-143.143"/>
<text text-anchor="middle" x="2361.61" y="-180.28" font-family="Times,serif" font-size="14.00"> static(visible_from)</text>
</g>
<!-- n3&#45;&gt;n19 -->
<g id="edge45" class="edge"><title>n3&#45;&gt;n19</title>
<path fill="none" stroke="black" d="M602.356,-209.316C603.673,-197.599 607.39,-184.604 616.614,-176.48 641.988,-154.131 853.67,-140.84 962.108,-135.436"/>
<polygon fill="black" stroke="black" points="962.454,-138.923 972.27,-134.937 962.111,-131.931 962.454,-138.923"/>
<text text-anchor="middle" x="708.614" y="-180.28" font-family="Times,serif" font-size="14.00"> end(communicated_image_data)</text>
</g>
<!-- n4 -->
<g id="node4" class="node"><title>n4</title>
<ellipse fill="none" stroke="black" cx="2470.61" cy="-131.61" rx="56.6372" ry="26.7407"/>
<text text-anchor="middle" x="2470.61" y="-135.41" font-family="Times,serif" font-size="14.00">&lt;high_res&gt;</text>
<text text-anchor="middle" x="2470.61" y="-120.41" font-family="Times,serif" font-size="14.00">mode</text>
</g>
<!-- n5&#45;&gt;n5 -->
<g id="edge2" class="edge"><title>n5&#45;&gt;n5</title>
<path fill="none" stroke="black" d="M4122.42,-36.3053C4135.1,-35.3472 4144.25,-32.2021 4144.25,-26.8701 4144.25,-23.121 4139.73,-20.4531 4132.63,-18.8664"/>
<polygon fill="black" stroke="black" points="4132.81,-15.3569 4122.42,-17.4349 4131.84,-22.2891 4132.81,-15.3569"/>
<text text-anchor="middle" x="4203.25" y="-23.1701" font-family="Times,serif" font-size="14.00"> init(at_rock_sample)</text>
</g>
<!-- n5&#45;&gt;n6 -->
<g id="edge15" class="edge"><title>n5&#45;&gt;n6</title>
<path fill="none" stroke="black" d="M4082.5,-52.5809C4086.25,-58.5291 4089.62,-65.0951 4091.61,-71.7401 4094.14,-80.1534 4092.56,-88.8773 4089.14,-96.9498"/>
<polygon fill="black" stroke="black" points="4085.9,-95.582 4084.4,-106.069 4092.11,-98.8097 4085.9,-95.582"/>
<text text-anchor="middle" x="4132.61" y="-75.5401" font-family="Times,serif" font-size="14.00"> static(visible)</text>
</g>
<!-- n6&#45;&gt;n5 -->
<g id="edge34" class="edge"><title>n6&#45;&gt;n5</title>
<path fill="none" stroke="black" d="M4028.03,-109.287C4020.6,-103.021 4013.77,-95.4652 4009.61,-86.7401 4004.3,-75.5704 4009.26,-64.9818 4017.94,-55.945"/>
<polygon fill="black" stroke="black" points="4020.49,-58.3514 4025.56,-49.0488 4015.8,-53.1588 4020.49,-58.3514"/>
<text text-anchor="middle" x="4048.61" y="-75.5401" font-family="Times,serif" font-size="14.00"> static(visible)</text>
</g>
<!-- n6&#45;&gt;n6 -->
<g id="edge3" class="edge"><title>n6&#45;&gt;n6</title>
<path fill="none" stroke="black" d="M4123.42,-141.045C4136.1,-140.087 4145.25,-136.942 4145.25,-131.61 4145.25,-127.861 4140.73,-125.193 4133.63,-123.607"/>
<polygon fill="black" stroke="black" points="4133.81,-120.097 4123.42,-122.175 4132.84,-127.029 4133.81,-120.097"/>
<text text-anchor="middle" x="4229.75" y="-135.41" font-family="Times,serif" font-size="14.00"> end(communicated_soil_data)</text>
<text text-anchor="middle" x="4229.75" y="-120.41" font-family="Times,serif" font-size="14.00">init(at_soil_sample)</text>
</g>
<!-- n7 -->
<g id="node7" class="node"><title>n7</title>
<ellipse fill="none" stroke="black" cx="809.614" cy="-236.35" rx="67.7647" ry="26.7407"/>
<text text-anchor="middle" x="809.614" y="-240.15" font-family="Times,serif" font-size="14.00">&lt;objective11&gt;</text>
<text text-anchor="middle" x="809.614" y="-225.15" font-family="Times,serif" font-size="14.00">objective</text>
</g>
<!-- n7&#45;&gt;n4 -->
<g id="edge42" class="edge"><title>n7&#45;&gt;n4</title>
<path fill="none" stroke="black" d="M875.188,-229.088C935.736,-223.446 1028.19,-215.186 1108.61,-209.48 1180.77,-204.362 1365.96,-217.084 1433.61,-191.48 1443.68,-187.672 1442.53,-180.227 1452.61,-176.48 1541.23,-143.562 2191.57,-135.03 2403.82,-133.111"/>
<polygon fill="black" stroke="black" points="2403.92,-136.61 2413.89,-133.022 2403.86,-129.61 2403.92,-136.61"/>
<text text-anchor="middle" x="1544.61" y="-180.28" font-family="Times,serif" font-size="14.00"> end(communicated_image_data)</text>
</g>
<!-- n7&#45;&gt;n5 -->
<g id="edge16" class="edge"><title>n7&#45;&gt;n5</title>
<path fill="none" stroke="black" d="M751.769,-222.249C727.992,-217.391 700.105,-212.367 674.614,-209.48 449.875,-184.029 18.2729,-266.244 176.614,-104.74 245.944,-34.025 3457.59,-28.3623 3988.62,-27.9094"/>
<polygon fill="black" stroke="black" points="3988.84,-31.4093 3998.83,-27.901 3988.83,-24.4093 3988.84,-31.4093"/>
<text text-anchor="middle" x="232.614" y="-127.91" font-family="Times,serif" font-size="14.00"> static(visible_from)</text>
</g>
<!-- n7&#45;&gt;n6 -->
<g id="edge46" class="edge"><title>n7&#45;&gt;n6</title>
<path fill="none" stroke="black" d="M874.555,-228.362C935.058,-222.177 1027.82,-213.524 1108.61,-209.48 1181.47,-205.834 2352.86,-215.877 2421.61,-191.48 2431.75,-187.882 2430.47,-180.079 2440.61,-176.48 2508.53,-152.375 3665.63,-161.832 3737.61,-158.48 3825.23,-154.4 3925.82,-145.824 3991.81,-139.663"/>
<polygon fill="black" stroke="black" points="3992.47,-143.117 4002.1,-138.696 3991.82,-136.147 3992.47,-143.117"/>
<text text-anchor="middle" x="2496.61" y="-180.28" font-family="Times,serif" font-size="14.00"> static(visible_from)</text>
</g>
<!-- n7&#45;&gt;n19 -->
<g id="edge7" class="edge"><title>n7&#45;&gt;n19</title>
<path fill="none" stroke="black" d="M803.322,-209.379C802.154,-198.098 803.167,-185.443 810.614,-176.48 829.693,-153.516 906.01,-142.226 962.32,-136.924"/>
<polygon fill="black" stroke="black" points="962.937,-140.383 972.584,-136.002 962.311,-133.411 962.937,-140.383"/>
<text text-anchor="middle" x="902.614" y="-180.28" font-family="Times,serif" font-size="14.00"> end(communicated_image_data)</text>
</g>
<!-- n23 -->
<g id="node23" class="node"><title>n23</title>
<ellipse fill="none" stroke="black" cx="345.614" cy="-131.61" rx="48.1667" ry="26.7407"/>
<text text-anchor="middle" x="345.614" y="-135.41" font-family="Times,serif" font-size="14.00">&lt;colour&gt;</text>
<text text-anchor="middle" x="345.614" y="-120.41" font-family="Times,serif" font-size="14.00">mode</text>
</g>
<!-- n7&#45;&gt;n23 -->
<g id="edge12" class="edge"><title>n7&#45;&gt;n23</title>
<path fill="none" stroke="black" d="M751.768,-222.26C727.991,-217.404 700.103,-212.378 674.614,-209.48 647.824,-206.434 208.323,-210.896 189.614,-191.48 165.412,-166.363 195.131,-185.101 283.614,-158.48 288.849,-156.905 294.246,-155.039 299.57,-153.042"/>
<polygon fill="black" stroke="black" points="300.987,-156.246 309.023,-149.34 298.435,-149.728 300.987,-156.246"/>
<text text-anchor="middle" x="281.614" y="-180.28" font-family="Times,serif" font-size="14.00"> end(communicated_image_data)</text>
</g>
<!-- n8 -->
<g id="node8" class="node"><title>n8</title>
<ellipse fill="none" stroke="black" cx="3037.61" cy="-341.09" rx="56.6372" ry="26.7407"/>
<text text-anchor="middle" x="3037.61" y="-344.89" font-family="Times,serif" font-size="14.00">&lt;camera0&gt;</text>
<text text-anchor="middle" x="3037.61" y="-329.89" font-family="Times,serif" font-size="14.00">camera</text>
</g>
<!-- n8&#45;&gt;n4 -->
<g id="edge40" class="edge"><title>n8&#45;&gt;n4</title>
<path fill="none" stroke="black" d="M2980.91,-339.408C2904.75,-337.235 2775.2,-328.715 2742.61,-296.22 2730.71,-284.349 2734.94,-212.746 2737.61,-209.48 2763.17,-178.243 2801.06,-222.717 2826.61,-191.48 2830.83,-186.32 2831.03,-181.474 2826.61,-176.48 2807.76,-155.164 2634.35,-141.923 2536.69,-136.092"/>
<polygon fill="black" stroke="black" points="2536.81,-132.593 2526.62,-135.501 2536.4,-139.581 2536.81,-132.593"/>
<text text-anchor="middle" x="2781.61" y="-232.65" font-family="Times,serif" font-size="14.00"> static(supports)</text>
</g>
<!-- n14 -->
<g id="node14" class="node"><title>n14</title>
<ellipse fill="none" stroke="black" cx="3041.61" cy="-236.35" rx="62.8651" ry="26.7407"/>
<text text-anchor="middle" x="3041.61" y="-240.15" font-family="Times,serif" font-size="14.00">&lt;objective5&gt;</text>
<text text-anchor="middle" x="3041.61" y="-225.15" font-family="Times,serif" font-size="14.00">objective</text>
</g>
<!-- n8&#45;&gt;n14 -->
<g id="edge44" class="edge"><title>n8&#45;&gt;n14</title>
<path fill="none" stroke="black" d="M3038.62,-314.165C3039.1,-301.875 3039.68,-286.987 3040.2,-273.602"/>
<polygon fill="black" stroke="black" points="3043.71,-273.396 3040.6,-263.268 3036.72,-273.124 3043.71,-273.396"/>
<text text-anchor="middle" x="3109.11" y="-285.02" font-family="Times,serif" font-size="14.00"> static(calibration_target)</text>
</g>
<!-- n8&#45;&gt;n17 -->
<g id="edge23" class="edge"><title>n8&#45;&gt;n17</title>
<path fill="none" stroke="black" d="M3092.25,-333.592C3198.35,-321.238 3439.77,-294.419 3643.61,-281.22 3766.53,-273.261 4077.66,-291.214 4197.61,-263.22 4202.02,-262.192 4206.5,-260.815 4210.91,-259.228"/>
<polygon fill="black" stroke="black" points="4212.4,-262.405 4220.41,-255.476 4209.83,-255.894 4212.4,-262.405"/>
<text text-anchor="middle" x="3690.11" y="-285.02" font-family="Times,serif" font-size="14.00"> static(on_board)</text>
</g>
<!-- n9 -->
<g id="node9" class="node"><title>n9</title>
<ellipse fill="none" stroke="black" cx="2068.61" cy="-341.09" rx="56.6372" ry="26.7407"/>
<text text-anchor="middle" x="2068.61" y="-344.89" font-family="Times,serif" font-size="14.00">&lt;camera1&gt;</text>
<text text-anchor="middle" x="2068.61" y="-329.89" font-family="Times,serif" font-size="14.00">camera</text>
</g>
<!-- n9&#45;&gt;n4 -->
<g id="edge41" class="edge"><title>n9&#45;&gt;n4</title>
<path fill="none" stroke="black" d="M2063.19,-314.332C2056.86,-276.126 2052.19,-205.803 2095.61,-176.48 2144.44,-143.509 2309.6,-135.211 2403.64,-133.193"/>
<polygon fill="black" stroke="black" points="2403.98,-136.687 2413.9,-132.991 2403.84,-129.688 2403.98,-136.687"/>
<text text-anchor="middle" x="2113.61" y="-232.65" font-family="Times,serif" font-size="14.00"> static(supports)</text>
</g>
<!-- n9&#45;&gt;n14 -->
<g id="edge35" class="edge"><title>n9&#45;&gt;n14</title>
<path fill="none" stroke="black" d="M2124.12,-335.379C2319.95,-318.753 2967.01,-263.789 2969.61,-263.22 2975.35,-261.968 2981.25,-260.376 2987.09,-258.6"/>
<polygon fill="black" stroke="black" points="2988.37,-261.864 2996.82,-255.465 2986.23,-255.201 2988.37,-261.864"/>
<text text-anchor="middle" x="2819.11" y="-285.02" font-family="Times,serif" font-size="14.00"> static(calibration_target)</text>
</g>
<!-- n9&#45;&gt;n17 -->
<g id="edge20" class="edge"><title>n9&#45;&gt;n17</title>
<path fill="none" stroke="black" d="M2125.01,-338.793C2285.68,-334.826 2743.71,-321.557 2891.61,-296.22 2914.9,-292.231 2919.25,-284.756 2942.61,-281.22 3080.5,-260.353 4061.52,-293.682 4197.61,-263.22 4202.09,-262.219 4206.64,-260.844 4211.12,-259.247"/>
<polygon fill="black" stroke="black" points="4212.72,-262.375 4220.74,-255.453 4210.16,-255.863 4212.72,-262.375"/>
<text text-anchor="middle" x="2989.11" y="-285.02" font-family="Times,serif" font-size="14.00"> static(on_board)</text>
</g>
<!-- n9&#45;&gt;n19 -->
<g id="edge6" class="edge"><title>n9&#45;&gt;n19</title>
<path fill="none" stroke="black" d="M2011.8,-340.486C1708.73,-341.973 291.941,-340.873 177.614,-191.48 173.562,-186.186 173.023,-181.315 177.614,-176.48 184.365,-169.371 765.934,-143.764 961.944,-135.327"/>
<polygon fill="black" stroke="black" points="962.249,-138.817 972.089,-134.891 961.948,-131.824 962.249,-138.817"/>
<text text-anchor="middle" x="406.614" y="-232.65" font-family="Times,serif" font-size="14.00"> static(supports)</text>
</g>
<!-- n9&#45;&gt;n23 -->
<g id="edge18" class="edge"><title>n9&#45;&gt;n23</title>
<path fill="none" stroke="black" d="M2011.94,-340.095C1697.46,-339.846 178.632,-334.924 112.614,-263.22 96.436,-245.649 100.606,-230.127 112.614,-209.48 152.484,-140.923 207.321,-180.141 283.614,-158.48 288.943,-156.967 294.43,-155.125 299.831,-153.128"/>
<polygon fill="black" stroke="black" points="301.358,-156.289 309.41,-149.403 298.821,-149.765 301.358,-156.289"/>
<text text-anchor="middle" x="156.614" y="-232.65" font-family="Times,serif" font-size="14.00"> static(supports)</text>
</g>
<!-- n10 -->
<g id="node10" class="node"><title>n10</title>
<ellipse fill="none" stroke="black" cx="5017.61" cy="-236.35" rx="62.8651" ry="26.7407"/>
<text text-anchor="middle" x="5017.61" y="-240.15" font-family="Times,serif" font-size="14.00">&lt;objective6&gt;</text>
<text text-anchor="middle" x="5017.61" y="-225.15" font-family="Times,serif" font-size="14.00">objective</text>
</g>
<!-- n10&#45;&gt;n5 -->
<g id="edge21" class="edge"><title>n10&#45;&gt;n5</title>
<path fill="none" stroke="black" d="M5044.99,-211.976C5074.45,-184.052 5113.46,-137.06 5084.61,-104.74 5021.74,-34.3095 4360.67,-27.8253 4136.49,-27.6666"/>
<polygon fill="black" stroke="black" points="4136.47,-24.1667 4126.46,-27.6635 4136.46,-31.1667 4136.47,-24.1667"/>
<text text-anchor="middle" x="5150.61" y="-127.91" font-family="Times,serif" font-size="14.00"> static(visible_from)</text>
</g>
<!-- n10&#45;&gt;n6 -->
<g id="edge43" class="edge"><title>n10&#45;&gt;n6</title>
<path fill="none" stroke="black" d="M4970.19,-218.658C4928.67,-204.819 4866.42,-185.938 4810.61,-176.48 4682.7,-154.803 4299.64,-140.246 4137.46,-134.894"/>
<polygon fill="black" stroke="black" points="4137.21,-131.384 4127.1,-134.555 4136.98,-138.381 4137.21,-131.384"/>
<text text-anchor="middle" x="4930.61" y="-180.28" font-family="Times,serif" font-size="14.00"> static(visible_from)</text>
</g>
<!-- n11 -->
<g id="node11" class="node"><title>n11</title>
<ellipse fill="none" stroke="black" cx="2237.61" cy="-236.35" rx="62.8651" ry="26.7407"/>
<text text-anchor="middle" x="2237.61" y="-240.15" font-family="Times,serif" font-size="14.00">&lt;objective1&gt;</text>
<text text-anchor="middle" x="2237.61" y="-225.15" font-family="Times,serif" font-size="14.00">objective</text>
</g>
<!-- n11&#45;&gt;n4 -->
<g id="edge13" class="edge"><title>n11&#45;&gt;n4</title>
<path fill="none" stroke="black" d="M2189.2,-218.894C2179.73,-215.73 2169.87,-212.472 2160.61,-209.48 2134.93,-201.182 2118.62,-213.211 2102.61,-191.48 2098.66,-186.113 2098.19,-181.465 2102.61,-176.48 2122.26,-154.356 2303.64,-141.377 2404.21,-135.823"/>
<polygon fill="black" stroke="black" points="2404.48,-139.313 2414.28,-135.277 2404.1,-132.324 2404.48,-139.313"/>
<text text-anchor="middle" x="2194.61" y="-180.28" font-family="Times,serif" font-size="14.00"> end(communicated_image_data)</text>
</g>
<!-- n11&#45;&gt;n6 -->
<g id="edge10" class="edge"><title>n11&#45;&gt;n6</title>
<path fill="none" stroke="black" d="M2300.08,-232.417C2388,-227.586 2553,-215.946 2691.61,-191.48 2717.83,-186.852 2723.23,-180.081 2749.61,-176.48 2967.19,-146.785 3518.28,-169.171 3737.61,-158.48 3825.22,-154.21 3925.81,-145.673 3991.81,-139.573"/>
<polygon fill="black" stroke="black" points="3992.47,-143.028 4002.1,-138.616 3991.82,-136.058 3992.47,-143.028"/>
<text text-anchor="middle" x="2805.61" y="-180.28" font-family="Times,serif" font-size="14.00"> static(visible_from)</text>
</g>
<!-- n11&#45;&gt;n19 -->
<g id="edge36" class="edge"><title>n11&#45;&gt;n19</title>
<path fill="none" stroke="black" d="M2192.2,-217.554C2181.96,-214.26 2171.03,-211.29 2160.61,-209.48 2060.86,-192.158 1346.37,-221.286 1249.61,-191.48 1237.95,-187.887 1237.87,-181.192 1226.61,-176.48 1181.96,-157.792 1128.26,-146.596 1087.6,-140.197"/>
<polygon fill="black" stroke="black" points="1087.97,-136.713 1077.56,-138.672 1086.92,-143.634 1087.97,-136.713"/>
<text text-anchor="middle" x="1341.61" y="-180.28" font-family="Times,serif" font-size="14.00"> end(communicated_image_data)</text>
</g>
<!-- n12 -->
<g id="node12" class="node"><title>n12</title>
<ellipse fill="none" stroke="black" cx="4254.61" cy="-341.09" rx="67.3507" ry="26.7407"/>
<text text-anchor="middle" x="4254.61" y="-344.89" font-family="Times,serif" font-size="14.00">&lt;rover0store&gt;</text>
<text text-anchor="middle" x="4254.61" y="-329.89" font-family="Times,serif" font-size="14.00">store</text>
</g>
<!-- n12&#45;&gt;n12 -->
<g id="edge4" class="edge"><title>n12&#45;&gt;n12</title>
<path fill="none" stroke="black" d="M4317.76,-350.468C4330.6,-349.447 4339.79,-346.321 4339.79,-341.09 4339.79,-337.413 4335.24,-334.775 4328.08,-333.179"/>
<polygon fill="black" stroke="black" points="4328.15,-329.653 4317.76,-331.712 4327.17,-336.584 4328.15,-329.653"/>
<text text-anchor="middle" x="4372.79" y="-337.39" font-family="Times,serif" font-size="14.00"> init(empty)</text>
</g>
<!-- n12&#45;&gt;n17 -->
<g id="edge33" class="edge"><title>n12&#45;&gt;n17</title>
<path fill="none" stroke="black" d="M4254.61,-314.165C4254.61,-301.875 4254.61,-286.987 4254.61,-273.602"/>
<polygon fill="black" stroke="black" points="4258.11,-273.268 4254.61,-263.268 4251.11,-273.268 4258.11,-273.268"/>
<text text-anchor="middle" x="4297.61" y="-285.02" font-family="Times,serif" font-size="14.00"> static(store_of)</text>
</g>
<!-- n13 -->
<g id="node13" class="node"><title>n13</title>
<ellipse fill="none" stroke="black" cx="2897.61" cy="-236.35" rx="62.8651" ry="26.7407"/>
<text text-anchor="middle" x="2897.61" y="-240.15" font-family="Times,serif" font-size="14.00">&lt;objective4&gt;</text>
<text text-anchor="middle" x="2897.61" y="-225.15" font-family="Times,serif" font-size="14.00">objective</text>
</g>
<!-- n13&#45;&gt;n6 -->
<g id="edge52" class="edge"><title>n13&#45;&gt;n6</title>
<path fill="none" stroke="black" d="M2874.65,-211.029C2866.43,-199.432 2861.25,-186.039 2870.61,-176.48 2887.47,-159.271 3713.56,-159.684 3737.61,-158.48 3825.21,-154.099 3925.8,-145.585 3991.81,-139.521"/>
<polygon fill="black" stroke="black" points="3992.46,-142.976 4002.1,-138.57 3991.82,-136.005 3992.46,-142.976"/>
<text text-anchor="middle" x="2926.61" y="-180.28" font-family="Times,serif" font-size="14.00"> static(visible_from)</text>
</g>
<!-- n13&#45;&gt;n19 -->
<g id="edge32" class="edge"><title>n13&#45;&gt;n19</title>
<path fill="none" stroke="black" d="M2852.2,-217.555C2841.96,-214.26 2831.03,-211.29 2820.61,-209.48 2621.55,-174.908 2112.08,-216.671 1911.61,-191.48 1882.63,-187.838 1876.54,-180.608 1847.61,-176.48 1567.43,-136.49 1228.81,-132.118 1089.85,-132.189"/>
<polygon fill="black" stroke="black" points="1089.79,-128.689 1079.79,-132.202 1089.8,-135.689 1089.79,-128.689"/>
<text text-anchor="middle" x="2003.61" y="-180.28" font-family="Times,serif" font-size="14.00"> end(communicated_image_data)</text>
</g>
<!-- n14&#45;&gt;n4 -->
<g id="edge11" class="edge"><title>n14&#45;&gt;n4</title>
<path fill="none" stroke="black" d="M3025.03,-210.277C3015.39,-197.88 3002.09,-183.996 2986.61,-176.48 2909.21,-138.889 2659.06,-132.986 2537.78,-132.4"/>
<polygon fill="black" stroke="black" points="2537.52,-128.9 2527.51,-132.362 2537.5,-135.899 2537.52,-128.9"/>
<text text-anchor="middle" x="3098.61" y="-180.28" font-family="Times,serif" font-size="14.00"> end(communicated_image_data)</text>
</g>
<!-- n14&#45;&gt;n5 -->
<g id="edge28" class="edge"><title>n14&#45;&gt;n5</title>
<path fill="none" stroke="black" d="M3102.42,-229.245C3159.3,-223.653 3246.66,-215.374 3322.61,-209.48 3385.88,-204.571 3546.58,-208.862 3607.61,-191.48 3621.19,-187.613 3622.69,-182.151 3635.61,-176.48 3762.67,-120.75 3917.83,-71.1333 4001.72,-45.7548"/>
<polygon fill="black" stroke="black" points="4002.77,-49.0916 4011.34,-42.8555 4000.76,-42.3892 4002.77,-49.0916"/>
<text text-anchor="middle" x="3878.61" y="-127.91" font-family="Times,serif" font-size="14.00"> static(visible_from)</text>
</g>
<!-- n14&#45;&gt;n6 -->
<g id="edge14" class="edge"><title>n14&#45;&gt;n6</title>
<path fill="none" stroke="black" d="M3102.41,-229.155C3159.29,-223.501 3246.65,-215.181 3322.61,-209.48 3391.43,-204.316 3567.07,-213.053 3632.61,-191.48 3644.21,-187.665 3644.12,-180.579 3655.61,-176.48 3715.46,-155.141 3889.99,-142.24 3990.33,-136.379"/>
<polygon fill="black" stroke="black" points="3990.62,-139.868 4000.4,-135.8 3990.21,-132.88 3990.62,-139.868"/>
<text text-anchor="middle" x="3711.61" y="-180.28" font-family="Times,serif" font-size="14.00"> static(visible_from)</text>
</g>
<!-- n15&#45;&gt;n6 -->
<g id="edge53" class="edge"><title>n15&#45;&gt;n6</title>
<path fill="none" stroke="black" d="M3784.99,-217.19C3794,-214.135 3803.51,-211.352 3812.61,-209.48 3845,-202.823 4086.95,-215.554 4109.61,-191.48 4118.34,-182.208 4113.61,-171.39 4104.46,-161.575"/>
<polygon fill="black" stroke="black" points="4106.81,-158.981 4097.14,-154.642 4102,-164.061 4106.81,-158.981"/>
<text text-anchor="middle" x="4170.61" y="-180.28" font-family="Times,serif" font-size="14.00"> static(visible_from)</text>
</g>
<!-- n16 -->
<g id="node16" class="node"><title>n16</title>
<ellipse fill="none" stroke="black" cx="4740.61" cy="-236.35" rx="62.8651" ry="26.7407"/>
<text text-anchor="middle" x="4740.61" y="-240.15" font-family="Times,serif" font-size="14.00">&lt;objective3&gt;</text>
<text text-anchor="middle" x="4740.61" y="-225.15" font-family="Times,serif" font-size="14.00">objective</text>
</g>
<!-- n16&#45;&gt;n6 -->
<g id="edge51" class="edge"><title>n16&#45;&gt;n6</title>
<path fill="none" stroke="black" d="M4717.65,-211.047C4704.11,-198.384 4685.88,-184.005 4666.61,-176.48 4572.12,-139.578 4276.57,-133.391 4137.43,-132.575"/>
<polygon fill="black" stroke="black" points="4137.3,-129.074 4127.29,-132.523 4137.27,-136.074 4137.3,-129.074"/>
<text text-anchor="middle" x="4750.61" y="-180.28" font-family="Times,serif" font-size="14.00"> static(visible_from)</text>
</g>
<!-- n17&#45;&gt;n6 -->
<g id="edge29" class="edge"><title>n17&#45;&gt;n6</title>
<path fill="none" stroke="black" d="M4302.51,-232.988C4362.04,-228.934 4458.49,-218.309 4480.61,-191.48 4484.86,-186.337 4485.07,-181.435 4480.61,-176.48 4458.1,-151.47 4250.53,-139.701 4137,-135.094"/>
<polygon fill="black" stroke="black" points="4137.12,-131.596 4126.98,-134.696 4136.84,-138.59 4137.12,-131.596"/>
<text text-anchor="middle" x="4505.11" y="-180.28" font-family="Times,serif" font-size="14.00"> init(at)</text>
</g>
<!-- n17&#45;&gt;n17 -->
<g id="edge5" class="edge"><title>n17&#45;&gt;n17</title>
<path fill="none" stroke="black" d="M4299.71,-246.015C4311.65,-245.462 4320.7,-242.241 4320.7,-236.35 4320.7,-232.3 4316.42,-229.512 4309.87,-227.986"/>
<polygon fill="black" stroke="black" points="4310.07,-224.483 4299.71,-226.686 4309.18,-231.427 4310.07,-224.483"/>
<text text-anchor="middle" x="4414.2" y="-247.65" font-family="Times,serif" font-size="14.00"> static(equipped_for_imaging)</text>
<text text-anchor="middle" x="4414.2" y="-232.65" font-family="Times,serif" font-size="14.00">init(available)</text>
<text text-anchor="middle" x="4414.2" y="-217.65" font-family="Times,serif" font-size="14.00">static(equipped_for_soil_analysis)</text>
</g>
<!-- n18 -->
<g id="node18" class="node"><title>n18</title>
<ellipse fill="none" stroke="black" cx="4588.61" cy="-236.35" rx="62.8651" ry="26.7407"/>
<text text-anchor="middle" x="4588.61" y="-240.15" font-family="Times,serif" font-size="14.00">&lt;objective9&gt;</text>
<text text-anchor="middle" x="4588.61" y="-225.15" font-family="Times,serif" font-size="14.00">objective</text>
</g>
<!-- n18&#45;&gt;n5 -->
<g id="edge19" class="edge"><title>n18&#45;&gt;n5</title>
<path fill="none" stroke="black" d="M4635.05,-218.118C4645.93,-214.704 4657.56,-211.542 4668.61,-209.48 4703.62,-202.948 4964.15,-217.359 4988.61,-191.48 4993.19,-186.636 4992.46,-181.923 4988.61,-176.48 4890.66,-37.9758 4338.65,-26.4871 4136.66,-27.0058"/>
<polygon fill="black" stroke="black" points="4136.43,-23.5065 4126.44,-27.0431 4136.46,-30.5065 4136.43,-23.5065"/>
<text text-anchor="middle" x="5024.61" y="-127.91" font-family="Times,serif" font-size="14.00"> static(visible_from)</text>
</g>
<!-- n18&#45;&gt;n6 -->
<g id="edge22" class="edge"><title>n18&#45;&gt;n6</title>
<path fill="none" stroke="black" d="M4570.43,-210.318C4559.97,-197.932 4545.72,-184.046 4529.61,-176.48 4462.03,-144.74 4251.36,-135.963 4137.84,-133.536"/>
<polygon fill="black" stroke="black" points="4137.57,-130.03 4127.5,-133.327 4137.43,-137.029 4137.57,-130.03"/>
<text text-anchor="middle" x="4606.61" y="-180.28" font-family="Times,serif" font-size="14.00"> static(visible_from)</text>
</g>
<!-- n18&#45;&gt;n19 -->
<g id="edge26" class="edge"><title>n18&#45;&gt;n19</title>
<path fill="none" stroke="black" d="M4544.68,-217.061C4535.55,-213.975 4525.88,-211.213 4516.61,-209.48 4436.86,-194.572 3862.93,-219.032 3786.61,-191.48 3776.49,-187.827 3777.75,-180.076 3767.61,-176.48 3731.93,-163.826 2442.47,-159.085 2404.61,-158.48 1897.73,-150.379 1286.09,-137.984 1089.64,-133.938"/>
<polygon fill="black" stroke="black" points="1089.57,-130.436 1079.5,-133.729 1089.42,-137.434 1089.57,-130.436"/>
<text text-anchor="middle" x="3878.61" y="-180.28" font-family="Times,serif" font-size="14.00"> end(communicated_image_data)</text>
</g>
<!-- n20 -->
<g id="node20" class="node"><title>n20</title>
<ellipse fill="none" stroke="black" cx="3884.61" cy="-236.35" rx="62.8651" ry="26.7407"/>
<text text-anchor="middle" x="3884.61" y="-240.15" font-family="Times,serif" font-size="14.00">&lt;objective0&gt;</text>
<text text-anchor="middle" x="3884.61" y="-225.15" font-family="Times,serif" font-size="14.00">objective</text>
</g>
<!-- n20&#45;&gt;n4 -->
<g id="edge47" class="edge"><title>n20&#45;&gt;n4</title>
<path fill="none" stroke="black" d="M3840.26,-217.106C3831.25,-214.058 3821.73,-211.299 3812.61,-209.48 3652.03,-177.444 3605.46,-222.199 3444.61,-191.48 3424.32,-187.604 3420.91,-180.338 3400.61,-176.48 3234.93,-144.986 2721.4,-135.686 2537.21,-133.325"/>
<polygon fill="black" stroke="black" points="2537.17,-129.824 2527.12,-133.198 2537.08,-136.823 2537.17,-129.824"/>
<text text-anchor="middle" x="3536.61" y="-180.28" font-family="Times,serif" font-size="14.00"> end(communicated_image_data)</text>
</g>
<!-- n20&#45;&gt;n5 -->
<g id="edge37" class="edge"><title>n20&#45;&gt;n5</title>
<path fill="none" stroke="black" d="M3928.55,-217.066C3937.68,-213.979 3947.34,-211.216 3956.61,-209.48 3995.4,-202.217 4639.07,-219.732 4666.61,-191.48 4744.37,-111.732 4310.1,-54.7743 4134.13,-35.2581"/>
<polygon fill="black" stroke="black" points="4134.25,-31.7503 4123.93,-34.1365 4133.48,-38.7084 4134.25,-31.7503"/>
<text text-anchor="middle" x="4725.61" y="-127.91" font-family="Times,serif" font-size="14.00"> static(visible_from)</text>
</g>
<!-- n20&#45;&gt;n6 -->
<g id="edge48" class="edge"><title>n20&#45;&gt;n6</title>
<path fill="none" stroke="black" d="M3928.99,-217.204C3938,-214.147 3947.51,-211.361 3956.61,-209.48 3988.01,-202.995 4222.66,-214.848 4244.61,-191.48 4280.59,-153.189 4202.06,-139.753 4137.38,-135.069"/>
<polygon fill="black" stroke="black" points="4137.35,-131.559 4127.14,-134.389 4136.89,-138.544 4137.35,-131.559"/>
<text text-anchor="middle" x="4309.61" y="-180.28" font-family="Times,serif" font-size="14.00"> static(visible_from)</text>
</g>
<!-- n21 -->
<g id="node21" class="node"><title>n21</title>
<ellipse fill="none" stroke="black" cx="1541.61" cy="-236.35" rx="62.8651" ry="26.7407"/>
<text text-anchor="middle" x="1541.61" y="-240.15" font-family="Times,serif" font-size="14.00">&lt;objective7&gt;</text>
<text text-anchor="middle" x="1541.61" y="-225.15" font-family="Times,serif" font-size="14.00">objective</text>
</g>
<!-- n21&#45;&gt;n4 -->
<g id="edge39" class="edge"><title>n21&#45;&gt;n4</title>
<path fill="none" stroke="black" d="M1586.7,-217.187C1603.87,-209.801 1623.43,-200.811 1640.61,-191.48 1651.34,-185.656 1652.01,-180.274 1663.61,-176.48 1733.03,-153.776 2223.34,-138.984 2404,-134.252"/>
<polygon fill="black" stroke="black" points="2404.26,-137.747 2414.16,-133.988 2404.07,-130.749 2404.26,-137.747"/>
<text text-anchor="middle" x="1755.61" y="-180.28" font-family="Times,serif" font-size="14.00"> end(communicated_image_data)</text>
</g>
<!-- n21&#45;&gt;n6 -->
<g id="edge38" class="edge"><title>n21&#45;&gt;n6</title>
<path fill="none" stroke="black" d="M1603.79,-231.846C1699.09,-226.548 1886.99,-216.385 2046.61,-209.48 2103.26,-207.03 2503.38,-211.018 2556.61,-191.48 2566.71,-187.773 2565.48,-180.087 2575.61,-176.48 2636.44,-154.834 3673.12,-161.535 3737.61,-158.48 3825.22,-154.33 3925.81,-145.768 3991.81,-139.63"/>
<polygon fill="black" stroke="black" points="3992.47,-143.084 4002.1,-138.667 3991.82,-136.114 3992.47,-143.084"/>
<text text-anchor="middle" x="2631.61" y="-180.28" font-family="Times,serif" font-size="14.00"> static(visible_from)</text>
</g>
<!-- n21&#45;&gt;n19 -->
<g id="edge9" class="edge"><title>n21&#45;&gt;n19</title>
<path fill="none" stroke="black" d="M1480.04,-230.386C1347.51,-219.644 1046.8,-194.926 1042.61,-191.48 1035.57,-185.684 1031.34,-177.167 1028.83,-168.402"/>
<polygon fill="black" stroke="black" points="1032.22,-167.55 1026.66,-158.533 1025.39,-169.051 1032.22,-167.55"/>
<text text-anchor="middle" x="1134.61" y="-180.28" font-family="Times,serif" font-size="14.00"> end(communicated_image_data)</text>
</g>
<!-- n21&#45;&gt;n23 -->
<g id="edge25" class="edge"><title>n21&#45;&gt;n23</title>
<path fill="none" stroke="black" d="M1480.83,-229.356C1416.69,-223.282 1312.65,-214.136 1222.61,-209.48 1178.05,-207.176 461.573,-206.664 419.614,-191.48 402.867,-185.42 387.025,-173.924 374.328,-162.688"/>
<polygon fill="black" stroke="black" points="376.569,-159.993 366.849,-155.776 371.818,-165.134 376.569,-159.993"/>
<text text-anchor="middle" x="511.614" y="-180.28" font-family="Times,serif" font-size="14.00"> end(communicated_image_data)</text>
</g>
<!-- n22 -->
<g id="node22" class="node"><title>n22</title>
<ellipse fill="none" stroke="black" cx="3399.61" cy="-236.35" rx="67.7647" ry="26.7407"/>
<text text-anchor="middle" x="3399.61" y="-240.15" font-family="Times,serif" font-size="14.00">&lt;objective10&gt;</text>
<text text-anchor="middle" x="3399.61" y="-225.15" font-family="Times,serif" font-size="14.00">objective</text>
</g>
<!-- n22&#45;&gt;n4 -->
<g id="edge31" class="edge"><title>n22&#45;&gt;n4</title>
<path fill="none" stroke="black" d="M3336.92,-225.819C3300.77,-218.986 3255.02,-208.019 3216.61,-191.48 3205.4,-186.654 3205.2,-180.311 3193.61,-176.48 3073.1,-136.645 2693.11,-132.355 2537.77,-132.322"/>
<polygon fill="black" stroke="black" points="2537.43,-128.822 2527.43,-132.326 2537.43,-135.822 2537.43,-128.822"/>
<text text-anchor="middle" x="3308.61" y="-180.28" font-family="Times,serif" font-size="14.00"> end(communicated_image_data)</text>
</g>
<!-- n22&#45;&gt;n6 -->
<g id="edge30" class="edge"><title>n22&#45;&gt;n6</title>
<path fill="none" stroke="black" d="M3464.51,-228.428C3518.96,-222.784 3598.8,-214.889 3668.61,-209.48 3736.53,-204.219 3910.95,-215.701 3974.61,-191.48 3984.67,-187.655 3984.82,-182.679 3993.61,-176.48 4001.79,-170.716 4010.71,-164.836 4019.35,-159.332"/>
<polygon fill="black" stroke="black" points="4021.28,-162.259 4027.88,-153.971 4017.55,-156.334 4021.28,-162.259"/>
<text text-anchor="middle" x="4049.61" y="-180.28" font-family="Times,serif" font-size="14.00"> static(visible_from)</text>
</g>
</g>
</svg>
