<?xml version="1.0" encoding="UTF-8" standalone="no"?>
<!DOCTYPE svg PUBLIC "-//W3C//DTD SVG 1.1//EN"
 "http://www.w3.org/Graphics/SVG/1.1/DTD/svg11.dtd">
<!-- Generated by graphviz version 2.38.0 (20140413.2041)
 -->
<!-- Title: Struc Pages: 1 -->
<svg width="925pt" height="400pt"
 viewBox="0.00 0.00 925.36 399.96" xmlns="http://www.w3.org/2000/svg" xmlns:xlink="http://www.w3.org/1999/xlink">
<g id="graph0" class="graph" transform="scale(1 1) rotate(0) translate(4 395.96)">
<title>Struc</title>
<polygon fill="white" stroke="none" points="-4,4 -4,-395.96 921.359,-395.96 921.359,4 -4,4"/>
<!-- n1 -->
<g id="node1" class="node"><title>n1</title>
<ellipse fill="none" stroke="black" cx="245.74" cy="-248.35" rx="67.7712" ry="26.7574"/>
<ellipse fill="none" stroke="black" cx="245.74" cy="-248.35" rx="71.7647" ry="30.7407"/>
<text text-anchor="middle" x="245.74" y="-252.15" font-family="Times,serif" font-size="14.00">&lt;objective10&gt;</text>
<text text-anchor="middle" x="245.74" y="-237.15" font-family="Times,serif" font-size="14.00">objective</text>
</g>
<!-- n5 -->
<g id="node5" class="node"><title>n5</title>
<ellipse fill="none" stroke="black" cx="57.7401" cy="-135.61" rx="53.9645" ry="26.7574"/>
<ellipse fill="none" stroke="black" cx="57.7401" cy="-135.61" rx="57.9812" ry="30.7407"/>
<text text-anchor="middle" x="57.7401" y="-139.41" font-family="Times,serif" font-size="14.00">&lt;low_res&gt;</text>
<text text-anchor="middle" x="57.7401" y="-124.41" font-family="Times,serif" font-size="14.00">mode</text>
</g>
<!-- n1&#45;&gt;n5 -->
<g id="edge10" class="edge"><title>n1&#45;&gt;n5</title>
<path fill="none" stroke="black" stroke-dasharray="5,2" d="M185.503,-231.227C137.094,-218.155 76.8086,-201.567 74.7401,-199.48 68.5614,-193.246 64.5667,-185.013 61.9996,-176.565"/>
<polygon fill="black" stroke="black" points="65.355,-175.55 59.5966,-166.657 58.5522,-177.2 65.355,-175.55"/>
<text text-anchor="middle" x="166.74" y="-188.28" font-family="Times,serif" font-size="14.00"> end(communicated_image_data)</text>
</g>
<!-- n7 -->
<g id="node7" class="node"><title>n7</title>
<ellipse fill="none" stroke="black" cx="466.74" cy="-135.61" rx="63.7795" ry="26.7407"/>
<text text-anchor="middle" x="466.74" y="-139.41" font-family="Times,serif" font-size="14.00">&lt;waypoint0&gt;</text>
<text text-anchor="middle" x="466.74" y="-124.41" font-family="Times,serif" font-size="14.00">waypoint</text>
</g>
<!-- n1&#45;&gt;n7 -->
<g id="edge12" class="edge"><title>n1&#45;&gt;n7</title>
<path fill="none" stroke="black" d="M275.411,-219.92C289.986,-207.644 308.342,-193.856 326.74,-184.48 352.305,-171.452 361.541,-175.619 388.74,-166.48 396.362,-163.919 404.342,-161.066 412.168,-158.168"/>
<polygon fill="black" stroke="black" points="413.469,-161.418 421.601,-154.626 411.009,-154.864 413.469,-161.418"/>
<text text-anchor="middle" x="382.74" y="-188.28" font-family="Times,serif" font-size="14.00"> static(visible_from)</text>
</g>
<!-- n8 -->
<g id="node8" class="node"><title>n8</title>
<ellipse fill="none" stroke="black" cx="365.74" cy="-26.8701" rx="63.7795" ry="26.7407"/>
<text text-anchor="middle" x="365.74" y="-30.6701" font-family="Times,serif" font-size="14.00">&lt;waypoint1&gt;</text>
<text text-anchor="middle" x="365.74" y="-15.6701" font-family="Times,serif" font-size="14.00">waypoint</text>
</g>
<!-- n1&#45;&gt;n8 -->
<g id="edge8" class="edge"><title>n1&#45;&gt;n8</title>
<path fill="none" stroke="black" stroke-dasharray="5,2" d="M253.978,-217.506C255.587,-211.543 257.239,-205.319 258.74,-199.48 269.53,-157.515 259.689,-142.039 281.74,-104.74 292.62,-86.3369 309.299,-69.7639 324.935,-56.7591"/>
<polygon fill="black" stroke="black" points="327.379,-59.2856 332.981,-50.2929 322.993,-53.8293 327.379,-59.2856"/>
<text text-anchor="middle" x="337.74" y="-131.91" font-family="Times,serif" font-size="14.00"> static(visible_from)</text>
</g>
<!-- n2 -->
<g id="node2" class="node"><title>n2</title>
<ellipse fill="none" stroke="black" cx="205.74" cy="-361.09" rx="56.6326" ry="26.7574"/>
<ellipse fill="none" stroke="black" cx="205.74" cy="-361.09" rx="60.6372" ry="30.7407"/>
<text text-anchor="middle" x="205.74" y="-364.89" font-family="Times,serif" font-size="14.00">&lt;camera2&gt;</text>
<text text-anchor="middle" x="205.74" y="-349.89" font-family="Times,serif" font-size="14.00">camera</text>
</g>
<!-- n2&#45;&gt;n1 -->
<g id="edge14" class="edge"><title>n2&#45;&gt;n1</title>
<path fill="none" stroke="black" stroke-dasharray="5,2" d="M202.241,-330.248C202.009,-319.549 202.962,-307.578 206.74,-297.22 208.207,-293.198 210.166,-289.266 212.427,-285.494"/>
<polygon fill="black" stroke="black" points="215.459,-287.258 218.162,-277.014 209.66,-283.337 215.459,-287.258"/>
<text text-anchor="middle" x="275.24" y="-301.02" font-family="Times,serif" font-size="14.00"> static(calibration_target)</text>
</g>
<!-- n3 -->
<g id="node3" class="node"><title>n3</title>
<ellipse fill="none" stroke="black" cx="423.74" cy="-248.35" rx="48.1667" ry="26.7407"/>
<text text-anchor="middle" x="423.74" y="-252.15" font-family="Times,serif" font-size="14.00">&lt;rover0&gt;</text>
<text text-anchor="middle" x="423.74" y="-237.15" font-family="Times,serif" font-size="14.00">rover</text>
</g>
<!-- n2&#45;&gt;n3 -->
<g id="edge13" class="edge"><title>n2&#45;&gt;n3</title>
<path fill="none" stroke="black" d="M258.934,-346.191C285.327,-338.175 317.162,-326.778 343.74,-312.22 353.176,-307.052 354.286,-303.875 362.74,-297.22 371.077,-290.658 380.062,-283.6 388.506,-276.972"/>
<polygon fill="black" stroke="black" points="390.691,-279.707 396.398,-270.78 386.37,-274.2 390.691,-279.707"/>
<text text-anchor="middle" x="409.24" y="-301.02" font-family="Times,serif" font-size="14.00"> static(on_board)</text>
</g>
<!-- n2&#45;&gt;n5 -->
<g id="edge16" class="edge"><title>n2&#45;&gt;n5</title>
<path fill="none" stroke="black" stroke-dasharray="5,2" d="M158.097,-341.842C130.078,-328.649 96.3947,-308.049 76.7401,-279.22 56.3506,-249.314 52.9567,-207.568 53.8504,-176.97"/>
<polygon fill="black" stroke="black" points="57.3618,-176.8 54.3245,-166.65 50.3692,-176.479 57.3618,-176.8"/>
<text text-anchor="middle" x="120.74" y="-244.65" font-family="Times,serif" font-size="14.00"> static(supports)</text>
</g>
<!-- n3&#45;&gt;n3 -->
<g id="edge1" class="edge"><title>n3&#45;&gt;n3</title>
<path fill="none" stroke="black" d="M468.215,-258.786C480.463,-258.282 489.823,-254.803 489.823,-248.35 489.823,-243.813 485.196,-240.746 478.19,-239.15"/>
<polygon fill="black" stroke="black" points="478.569,-235.67 468.215,-237.914 477.708,-242.617 478.569,-235.67"/>
<text text-anchor="middle" x="583.323" y="-259.65" font-family="Times,serif" font-size="14.00"> static(equipped_for_imaging)</text>
<text text-anchor="middle" x="583.323" y="-244.65" font-family="Times,serif" font-size="14.00">init(available)</text>
<text text-anchor="middle" x="583.323" y="-229.65" font-family="Times,serif" font-size="14.00">static(equipped_for_soil_analysis)</text>
</g>
<!-- n3&#45;&gt;n7 -->
<g id="edge6" class="edge"><title>n3&#45;&gt;n7</title>
<path fill="none" stroke="black" d="M433.605,-221.944C439.355,-207.138 446.692,-188.24 453.001,-171.994"/>
<polygon fill="black" stroke="black" points="456.415,-172.87 456.772,-162.281 449.89,-170.336 456.415,-172.87"/>
<text text-anchor="middle" x="469.24" y="-188.28" font-family="Times,serif" font-size="14.00"> init(at)</text>
</g>
<!-- n4 -->
<g id="node4" class="node"><title>n4</title>
<ellipse fill="none" stroke="black" cx="746.74" cy="-248.35" rx="51.7379" ry="26.7407"/>
<text text-anchor="middle" x="746.74" y="-252.15" font-family="Times,serif" font-size="14.00">&lt;general&gt;</text>
<text text-anchor="middle" x="746.74" y="-237.15" font-family="Times,serif" font-size="14.00">lander</text>
</g>
<!-- n4&#45;&gt;n4 -->
<g id="edge2" class="edge"><title>n4&#45;&gt;n4</title>
<path fill="none" stroke="black" d="M794.572,-258.742C806.993,-258.103 816.359,-254.639 816.359,-248.35 816.359,-243.928 811.729,-240.903 804.662,-239.274"/>
<polygon fill="black" stroke="black" points="804.941,-235.781 794.572,-237.959 804.036,-242.723 804.941,-235.781"/>
<text text-anchor="middle" x="866.859" y="-244.65" font-family="Times,serif" font-size="14.00"> init(channel_free)</text>
</g>
<!-- n4&#45;&gt;n7 -->
<g id="edge15" class="edge"><title>n4&#45;&gt;n7</title>
<path fill="none" stroke="black" d="M710.572,-228.89C702.472,-224.966 693.87,-220.961 685.74,-217.48 632.11,-194.518 569.555,-171.811 525.065,-156.332"/>
<polygon fill="black" stroke="black" points="526.168,-153.01 515.574,-153.044 523.877,-159.625 526.168,-153.01"/>
<text text-anchor="middle" x="684.74" y="-188.28" font-family="Times,serif" font-size="14.00"> static(at_lander)</text>
</g>
<!-- n6 -->
<g id="node6" class="node"><title>n6</title>
<ellipse fill="none" stroke="black" cx="481.74" cy="-361.09" rx="67.3507" ry="26.7407"/>
<text text-anchor="middle" x="481.74" y="-364.89" font-family="Times,serif" font-size="14.00">&lt;rover0store&gt;</text>
<text text-anchor="middle" x="481.74" y="-349.89" font-family="Times,serif" font-size="14.00">store</text>
</g>
<!-- n6&#45;&gt;n3 -->
<g id="edge9" class="edge"><title>n6&#45;&gt;n3</title>
<path fill="none" stroke="black" d="M474.677,-334.251C470.995,-322.587 465.953,-308.848 459.74,-297.22 456.915,-291.932 453.536,-286.598 449.996,-281.507"/>
<polygon fill="black" stroke="black" points="452.675,-279.239 443.957,-273.219 447.017,-283.362 452.675,-279.239"/>
<text text-anchor="middle" x="509.74" y="-301.02" font-family="Times,serif" font-size="14.00"> static(store_of)</text>
</g>
<!-- n6&#45;&gt;n6 -->
<g id="edge3" class="edge"><title>n6&#45;&gt;n6</title>
<path fill="none" stroke="black" d="M544.135,-371.251C557.363,-370.22 566.915,-366.833 566.915,-361.09 566.915,-356.918 561.873,-353.99 554.041,-352.304"/>
<polygon fill="black" stroke="black" points="554.521,-348.837 544.135,-350.929 553.559,-355.771 554.521,-348.837"/>
<text text-anchor="middle" x="599.915" y="-357.39" font-family="Times,serif" font-size="14.00"> init(empty)</text>
</g>
<!-- n7&#45;&gt;n7 -->
<g id="edge4" class="edge"><title>n7&#45;&gt;n7</title>
<path fill="none" stroke="black" d="M525.816,-145.828C538.872,-144.868 548.38,-141.462 548.38,-135.61 548.38,-131.404 543.468,-128.462 535.857,-126.783"/>
<polygon fill="black" stroke="black" points="536.202,-123.298 525.816,-125.393 535.242,-130.231 536.202,-123.298"/>
<text text-anchor="middle" x="607.38" y="-131.91" font-family="Times,serif" font-size="14.00"> init(at_rock_sample)</text>
</g>
<!-- n7&#45;&gt;n8 -->
<g id="edge11" class="edge"><title>n7&#45;&gt;n8</title>
<path fill="none" stroke="black" d="M462.119,-108.595C458.894,-96.3473 453.533,-82.1745 444.74,-71.7401 437.922,-63.6491 429.213,-56.7763 420.082,-51.0415"/>
<polygon fill="black" stroke="black" points="421.649,-47.9035 411.248,-45.8892 418.123,-53.9504 421.649,-47.9035"/>
<text text-anchor="middle" x="492.74" y="-75.5401" font-family="Times,serif" font-size="14.00"> static(visible)</text>
</g>
<!-- n8&#45;&gt;n7 -->
<g id="edge7" class="edge"><title>n8&#45;&gt;n7</title>
<path fill="none" stroke="black" d="M360.463,-53.6501C359.591,-64.6332 360.556,-77.1056 366.74,-86.7401 372.305,-95.4098 390.701,-105.199 410.225,-113.656"/>
<polygon fill="black" stroke="black" points="408.963,-116.922 419.539,-117.564 411.672,-110.467 408.963,-116.922"/>
<text text-anchor="middle" x="405.74" y="-75.5401" font-family="Times,serif" font-size="14.00"> static(visible)</text>
</g>
<!-- n8&#45;&gt;n8 -->
<g id="edge5" class="edge"><title>n8&#45;&gt;n8</title>
<path fill="none" stroke="black" d="M425.545,-36.3053C438.224,-35.3472 447.38,-32.2021 447.38,-26.8701 447.38,-23.121 442.853,-20.4531 435.758,-18.8664"/>
<polygon fill="black" stroke="black" points="435.934,-15.3569 425.545,-17.4349 434.962,-22.2891 435.934,-15.3569"/>
<text text-anchor="middle" x="531.88" y="-38.1701" font-family="Times,serif" font-size="14.00"> end(communicated_soil_data)</text>
<text text-anchor="middle" x="531.88" y="-23.1701" font-family="Times,serif" font-size="14.00">init(at_soil_sample)</text>
<text text-anchor="middle" x="531.88" y="-8.17006" font-family="Times,serif" font-size="14.00">init(at_rock_sample)</text>
</g>
</g>
</svg>
