<?xml version="1.0" encoding="UTF-8" standalone="no"?>
<!DOCTYPE svg PUBLIC "-//W3C//DTD SVG 1.1//EN"
 "http://www.w3.org/Graphics/SVG/1.1/DTD/svg11.dtd">
<!-- Generated by graphviz version 2.38.0 (20140413.2041)
 -->
<!-- Title: Struc Pages: 1 -->
<svg width="3778pt" height="376pt"
 viewBox="0.00 0.00 3777.93 375.96" xmlns="http://www.w3.org/2000/svg" xmlns:xlink="http://www.w3.org/1999/xlink">
<g id="graph0" class="graph" transform="scale(1 1) rotate(0) translate(4 371.96)">
<title>Struc</title>
<polygon fill="white" stroke="none" points="-4,4 -4,-371.96 3773.93,-371.96 3773.93,4 -4,4"/>
<!-- n1 -->
<g id="node1" class="node"><title>n1</title>
<ellipse fill="none" stroke="black" cx="1105.93" cy="-341.09" rx="56.6372" ry="26.7407"/>
<text text-anchor="middle" x="1105.93" y="-344.89" font-family="Times,serif" font-size="14.00">&lt;camera0&gt;</text>
<text text-anchor="middle" x="1105.93" y="-329.89" font-family="Times,serif" font-size="14.00">camera</text>
</g>
<!-- n6 -->
<g id="node6" class="node"><title>n6</title>
<ellipse fill="none" stroke="black" cx="1492.93" cy="-236.35" rx="48.1667" ry="26.7407"/>
<text text-anchor="middle" x="1492.93" y="-240.15" font-family="Times,serif" font-size="14.00">&lt;rover0&gt;</text>
<text text-anchor="middle" x="1492.93" y="-225.15" font-family="Times,serif" font-size="14.00">rover</text>
</g>
<!-- n1&#45;&gt;n6 -->
<g id="edge11" class="edge"><title>n1&#45;&gt;n6</title>
<path fill="none" stroke="black" d="M1155.38,-327.873C1182.24,-320.375 1215.65,-309.632 1243.93,-296.22 1254.96,-290.991 1255.44,-285.313 1266.93,-281.22 1338.09,-255.887 1363.05,-283.083 1435.93,-263.22 1440.24,-262.047 1444.63,-260.585 1448.96,-258.957"/>
<polygon fill="black" stroke="black" points="1450.36,-262.168 1458.32,-255.176 1447.73,-255.679 1450.36,-262.168"/>
<text text-anchor="middle" x="1313.43" y="-285.02" font-family="Times,serif" font-size="14.00"> static(on_board)</text>
</g>
<!-- n7 -->
<g id="node7" class="node"><title>n7</title>
<ellipse fill="none" stroke="black" cx="377.933" cy="-236.35" rx="56.6372" ry="26.7407"/>
<text text-anchor="middle" x="377.933" y="-240.15" font-family="Times,serif" font-size="14.00">&lt;high_res&gt;</text>
<text text-anchor="middle" x="377.933" y="-225.15" font-family="Times,serif" font-size="14.00">mode</text>
</g>
<!-- n1&#45;&gt;n7 -->
<g id="edge6" class="edge"><title>n1&#45;&gt;n7</title>
<path fill="none" stroke="black" d="M1049.75,-337.428C973.744,-332.991 834.276,-321.891 717.933,-296.22 697.346,-291.678 693.59,-285.429 672.933,-281.22 575.066,-261.283 546.514,-284.509 448.933,-263.22 442.624,-261.844 436.116,-260.041 429.72,-258.025"/>
<polygon fill="black" stroke="black" points="430.398,-254.562 419.804,-254.715 428.181,-261.202 430.398,-254.562"/>
<text text-anchor="middle" x="761.933" y="-285.02" font-family="Times,serif" font-size="14.00"> static(supports)</text>
</g>
<!-- n20 -->
<g id="node20" class="node"><title>n20</title>
<ellipse fill="none" stroke="black" cx="1363.93" cy="-236.35" rx="62.8651" ry="26.7407"/>
<text text-anchor="middle" x="1363.93" y="-240.15" font-family="Times,serif" font-size="14.00">&lt;objective7&gt;</text>
<text text-anchor="middle" x="1363.93" y="-225.15" font-family="Times,serif" font-size="14.00">objective</text>
</g>
<!-- n1&#45;&gt;n20 -->
<g id="edge53" class="edge"><title>n1&#45;&gt;n20</title>
<path fill="none" stroke="black" d="M1099.3,-314.355C1097.94,-302.849 1098.9,-289.944 1106.93,-281.22 1134.16,-251.644 1247.63,-271.675 1286.93,-263.22 1293.69,-261.766 1300.69,-259.919 1307.59,-257.883"/>
<polygon fill="black" stroke="black" points="1309.06,-261.092 1317.57,-254.79 1306.99,-254.405 1309.06,-261.092"/>
<text text-anchor="middle" x="1175.43" y="-285.02" font-family="Times,serif" font-size="14.00"> static(calibration_target)</text>
</g>
<!-- n2 -->
<g id="node2" class="node"><title>n2</title>
<ellipse fill="none" stroke="black" cx="1815.93" cy="-236.35" rx="51.7379" ry="26.7407"/>
<text text-anchor="middle" x="1815.93" y="-240.15" font-family="Times,serif" font-size="14.00">&lt;general&gt;</text>
<text text-anchor="middle" x="1815.93" y="-225.15" font-family="Times,serif" font-size="14.00">lander</text>
</g>
<!-- n2&#45;&gt;n2 -->
<g id="edge1" class="edge"><title>n2&#45;&gt;n2</title>
<path fill="none" stroke="black" d="M1864.41,-245.966C1876.51,-245.294 1885.55,-242.089 1885.55,-236.35 1885.55,-232.405 1881.28,-229.657 1874.67,-228.107"/>
<polygon fill="black" stroke="black" points="1874.79,-224.59 1864.41,-226.734 1873.86,-231.529 1874.79,-224.59"/>
<text text-anchor="middle" x="1936.05" y="-232.65" font-family="Times,serif" font-size="14.00"> init(channel_free)</text>
</g>
<!-- n10 -->
<g id="node10" class="node"><title>n10</title>
<ellipse fill="none" stroke="black" cx="2193.93" cy="-131.61" rx="63.7795" ry="26.7407"/>
<text text-anchor="middle" x="2193.93" y="-135.41" font-family="Times,serif" font-size="14.00">&lt;waypoint0&gt;</text>
<text text-anchor="middle" x="2193.93" y="-120.41" font-family="Times,serif" font-size="14.00">waypoint</text>
</g>
<!-- n2&#45;&gt;n10 -->
<g id="edge12" class="edge"><title>n2&#45;&gt;n10</title>
<path fill="none" stroke="black" d="M1855.28,-218.683C1886.9,-205.783 1932.68,-188.197 1973.93,-176.48 2023.81,-162.314 2081.31,-151.017 2125.01,-143.437"/>
<polygon fill="black" stroke="black" points="2125.7,-146.871 2134.96,-141.734 2124.52,-139.971 2125.7,-146.871"/>
<text text-anchor="middle" x="2019.93" y="-180.28" font-family="Times,serif" font-size="14.00"> static(at_lander)</text>
</g>
<!-- n3 -->
<g id="node3" class="node"><title>n3</title>
<ellipse fill="none" stroke="black" cx="912.933" cy="-236.35" rx="67.7647" ry="26.7407"/>
<text text-anchor="middle" x="912.933" y="-240.15" font-family="Times,serif" font-size="14.00">&lt;objective16&gt;</text>
<text text-anchor="middle" x="912.933" y="-225.15" font-family="Times,serif" font-size="14.00">objective</text>
</g>
<!-- n3&#45;&gt;n10 -->
<g id="edge21" class="edge"><title>n3&#45;&gt;n10</title>
<path fill="none" stroke="black" d="M961.905,-217.708C971.144,-214.719 980.78,-211.828 989.933,-209.48 1033.67,-198.259 1046.22,-202.798 1089.93,-191.48 1109.93,-186.302 1113.62,-180.28 1133.93,-176.48 1230.05,-158.497 1896.12,-140.161 2120.41,-134.432"/>
<polygon fill="black" stroke="black" points="2120.52,-137.93 2130.43,-134.177 2120.35,-130.933 2120.52,-137.93"/>
<text text-anchor="middle" x="1189.93" y="-180.28" font-family="Times,serif" font-size="14.00"> static(visible_from)</text>
</g>
<!-- n21 -->
<g id="node21" class="node"><title>n21</title>
<ellipse fill="none" stroke="black" cx="2192.93" cy="-26.8701" rx="63.7795" ry="26.7407"/>
<text text-anchor="middle" x="2192.93" y="-30.6701" font-family="Times,serif" font-size="14.00">&lt;waypoint1&gt;</text>
<text text-anchor="middle" x="2192.93" y="-15.6701" font-family="Times,serif" font-size="14.00">waypoint</text>
</g>
<!-- n3&#45;&gt;n21 -->
<g id="edge15" class="edge"><title>n3&#45;&gt;n21</title>
<path fill="none" stroke="black" d="M927.145,-209.949C934.868,-198.234 945.407,-185.057 957.933,-176.48 1052.25,-111.895 1092.47,-125.225 1204.93,-104.74 1542.73,-43.2116 1954.3,-30.8985 2119.32,-28.4597"/>
<polygon fill="black" stroke="black" points="2119.41,-31.9589 2129.36,-28.3192 2119.31,-24.9596 2119.41,-31.9589"/>
<text text-anchor="middle" x="1260.93" y="-127.91" font-family="Times,serif" font-size="14.00"> static(visible_from)</text>
</g>
<!-- n4 -->
<g id="node4" class="node"><title>n4</title>
<ellipse fill="none" stroke="black" cx="2056.93" cy="-341.09" rx="56.6372" ry="26.7407"/>
<text text-anchor="middle" x="2056.93" y="-344.89" font-family="Times,serif" font-size="14.00">&lt;camera3&gt;</text>
<text text-anchor="middle" x="2056.93" y="-329.89" font-family="Times,serif" font-size="14.00">camera</text>
</g>
<!-- n4&#45;&gt;n6 -->
<g id="edge13" class="edge"><title>n4&#45;&gt;n6</title>
<path fill="none" stroke="black" d="M2032.79,-316.75C2017.92,-303.895 1997.77,-289.008 1976.93,-281.22 1930.57,-263.893 1804.23,-267.652 1754.93,-263.22 1684.51,-256.889 1603.53,-248.764 1550.47,-243.324"/>
<polygon fill="black" stroke="black" points="1550.55,-239.813 1540.24,-242.273 1549.83,-246.777 1550.55,-239.813"/>
<text text-anchor="middle" x="2052.43" y="-285.02" font-family="Times,serif" font-size="14.00"> static(on_board)</text>
</g>
<!-- n9 -->
<g id="node9" class="node"><title>n9</title>
<ellipse fill="none" stroke="black" cx="2806.93" cy="-236.35" rx="67.7647" ry="26.7407"/>
<text text-anchor="middle" x="2806.93" y="-240.15" font-family="Times,serif" font-size="14.00">&lt;objective13&gt;</text>
<text text-anchor="middle" x="2806.93" y="-225.15" font-family="Times,serif" font-size="14.00">objective</text>
</g>
<!-- n4&#45;&gt;n9 -->
<g id="edge7" class="edge"><title>n4&#45;&gt;n9</title>
<path fill="none" stroke="black" d="M2098.25,-322.61C2133.58,-308.581 2186.13,-289.854 2233.93,-281.22 2451.01,-242.014 2512.91,-302.756 2729.93,-263.22 2736.46,-262.032 2743.18,-260.407 2749.82,-258.545"/>
<polygon fill="black" stroke="black" points="2750.86,-261.888 2759.44,-255.673 2748.85,-255.181 2750.86,-261.888"/>
<text text-anchor="middle" x="2302.43" y="-285.02" font-family="Times,serif" font-size="14.00"> static(calibration_target)</text>
</g>
<!-- n19 -->
<g id="node19" class="node"><title>n19</title>
<ellipse fill="none" stroke="black" cx="2940.93" cy="-236.35" rx="48.1667" ry="26.7407"/>
<text text-anchor="middle" x="2940.93" y="-240.15" font-family="Times,serif" font-size="14.00">&lt;colour&gt;</text>
<text text-anchor="middle" x="2940.93" y="-225.15" font-family="Times,serif" font-size="14.00">mode</text>
</g>
<!-- n4&#45;&gt;n19 -->
<g id="edge41" class="edge"><title>n4&#45;&gt;n19</title>
<path fill="none" stroke="black" d="M2110.88,-332.517C2218.91,-317.389 2454.69,-284.588 2491.93,-281.22 2578.78,-273.365 2799.15,-283.607 2883.93,-263.22 2888.33,-262.163 2892.81,-260.765 2897.22,-259.166"/>
<polygon fill="black" stroke="black" points="2898.71,-262.339 2906.71,-255.397 2896.13,-255.833 2898.71,-262.339"/>
<text text-anchor="middle" x="2535.93" y="-285.02" font-family="Times,serif" font-size="14.00"> static(supports)</text>
</g>
<!-- n25 -->
<g id="node25" class="node"><title>n25</title>
<ellipse fill="none" stroke="black" cx="434.933" cy="-131.61" rx="53.9813" ry="26.7407"/>
<text text-anchor="middle" x="434.933" y="-135.41" font-family="Times,serif" font-size="14.00">&lt;low_res&gt;</text>
<text text-anchor="middle" x="434.933" y="-120.41" font-family="Times,serif" font-size="14.00">mode</text>
</g>
<!-- n4&#45;&gt;n25 -->
<g id="edge36" class="edge"><title>n4&#45;&gt;n25</title>
<path fill="none" stroke="black" d="M2002.08,-334.406C1941.8,-328.386 1842.07,-319.094 1755.93,-314.22 1463.4,-297.668 1389.61,-310.007 1096.93,-296.22 1069.51,-294.929 625.117,-280.677 603.933,-263.22 573.153,-237.857 608.669,-205.139 580.933,-176.48 559.363,-154.194 526.949,-143.118 498.137,-137.66"/>
<polygon fill="black" stroke="black" points="498.566,-134.183 488.12,-135.954 497.391,-141.083 498.566,-134.183"/>
<text text-anchor="middle" x="647.933" y="-232.65" font-family="Times,serif" font-size="14.00"> static(supports)</text>
</g>
<!-- n5 -->
<g id="node5" class="node"><title>n5</title>
<ellipse fill="none" stroke="black" cx="1066.93" cy="-236.35" rx="67.7647" ry="26.7407"/>
<text text-anchor="middle" x="1066.93" y="-240.15" font-family="Times,serif" font-size="14.00">&lt;objective15&gt;</text>
<text text-anchor="middle" x="1066.93" y="-225.15" font-family="Times,serif" font-size="14.00">objective</text>
</g>
<!-- n5&#45;&gt;n10 -->
<g id="edge18" class="edge"><title>n5&#45;&gt;n10</title>
<path fill="none" stroke="black" d="M1117.38,-218.309C1127.75,-215.126 1138.64,-212.01 1148.93,-209.48 1193.21,-198.598 1207.54,-208.271 1249.93,-191.48 1261.28,-186.986 1261.32,-180.235 1272.93,-176.48 1352.5,-150.75 1915.87,-137.794 2120.17,-133.903"/>
<polygon fill="black" stroke="black" points="2120.27,-137.401 2130.2,-133.713 2120.14,-130.403 2120.27,-137.401"/>
<text text-anchor="middle" x="1328.93" y="-180.28" font-family="Times,serif" font-size="14.00"> static(visible_from)</text>
</g>
<!-- n5&#45;&gt;n21 -->
<g id="edge31" class="edge"><title>n5&#45;&gt;n21</title>
<path fill="none" stroke="black" d="M1118.38,-218.489C1128.47,-215.36 1139,-212.218 1148.93,-209.48 1182.4,-200.252 1192.47,-203.779 1224.93,-191.48 1238.13,-186.478 1239.55,-180.979 1252.93,-176.48 1564.02,-71.9018 1958.29,-40.1411 2119.36,-31.1585"/>
<polygon fill="black" stroke="black" points="2119.83,-34.6379 2129.62,-30.5992 2119.45,-27.6483 2119.83,-34.6379"/>
<text text-anchor="middle" x="1575.93" y="-127.91" font-family="Times,serif" font-size="14.00"> static(visible_from)</text>
</g>
<!-- n6&#45;&gt;n6 -->
<g id="edge2" class="edge"><title>n6&#45;&gt;n6</title>
<path fill="none" stroke="black" d="M1538.03,-246.015C1549.97,-245.462 1559.02,-242.241 1559.02,-236.35 1559.02,-232.3 1554.74,-229.512 1548.19,-227.986"/>
<polygon fill="black" stroke="black" points="1548.39,-224.483 1538.03,-226.686 1547.5,-231.427 1548.39,-224.483"/>
<text text-anchor="middle" x="1652.52" y="-247.65" font-family="Times,serif" font-size="14.00"> static(equipped_for_imaging)</text>
<text text-anchor="middle" x="1652.52" y="-232.65" font-family="Times,serif" font-size="14.00">init(available)</text>
<text text-anchor="middle" x="1652.52" y="-217.65" font-family="Times,serif" font-size="14.00">static(equipped_for_soil_analysis)</text>
</g>
<!-- n6&#45;&gt;n10 -->
<g id="edge44" class="edge"><title>n6&#45;&gt;n10</title>
<path fill="none" stroke="black" d="M1539.08,-228.297C1612.35,-217.127 1759.81,-194.758 1884.93,-176.48 1966.95,-164.499 2061.29,-151.171 2123.94,-142.384"/>
<polygon fill="black" stroke="black" points="2124.68,-145.814 2134.1,-140.96 2123.71,-138.882 2124.68,-145.814"/>
<text text-anchor="middle" x="1905.43" y="-180.28" font-family="Times,serif" font-size="14.00"> init(at)</text>
</g>
<!-- n8 -->
<g id="node8" class="node"><title>n8</title>
<ellipse fill="none" stroke="black" cx="763.933" cy="-236.35" rx="62.8651" ry="26.7407"/>
<text text-anchor="middle" x="763.933" y="-240.15" font-family="Times,serif" font-size="14.00">&lt;objective5&gt;</text>
<text text-anchor="middle" x="763.933" y="-225.15" font-family="Times,serif" font-size="14.00">objective</text>
</g>
<!-- n8&#45;&gt;n10 -->
<g id="edge35" class="edge"><title>n8&#45;&gt;n10</title>
<path fill="none" stroke="black" d="M810.161,-217.892C818.677,-214.919 827.532,-211.986 835.933,-209.48 896.365,-191.457 911.447,-184.989 973.933,-176.48 1030.8,-168.737 1864.97,-142.686 2120.25,-134.855"/>
<polygon fill="black" stroke="black" points="2120.64,-138.345 2130.53,-134.54 2120.43,-131.348 2120.64,-138.345"/>
<text text-anchor="middle" x="1029.93" y="-180.28" font-family="Times,serif" font-size="14.00"> static(visible_from)</text>
</g>
<!-- n8&#45;&gt;n21 -->
<g id="edge26" class="edge"><title>n8&#45;&gt;n21</title>
<path fill="none" stroke="black" d="M792.269,-212.095C799.346,-205.731 806.691,-198.612 812.933,-191.48 843.639,-156.396 831.555,-128.052 871.933,-104.74 980.036,-42.3278 1856.78,-30.4835 2119.07,-28.3297"/>
<polygon fill="black" stroke="black" points="2119.28,-31.8282 2129.25,-28.2484 2119.22,-24.8284 2119.28,-31.8282"/>
<text text-anchor="middle" x="927.933" y="-127.91" font-family="Times,serif" font-size="14.00"> static(visible_from)</text>
</g>
<!-- n8&#45;&gt;n25 -->
<g id="edge20" class="edge"><title>n8&#45;&gt;n25</title>
<path fill="none" stroke="black" d="M715.52,-218.894C706.054,-215.73 696.192,-212.472 686.933,-209.48 661.249,-201.182 653.359,-202.962 628.933,-191.48 617.888,-186.289 617.103,-181.395 605.933,-176.48 570.721,-160.987 528.931,-150.14 495.478,-143.108"/>
<polygon fill="black" stroke="black" points="495.878,-139.618 485.38,-141.047 494.478,-146.476 495.878,-139.618"/>
<text text-anchor="middle" x="720.933" y="-180.28" font-family="Times,serif" font-size="14.00"> end(communicated_image_data)</text>
</g>
<!-- n9&#45;&gt;n10 -->
<g id="edge27" class="edge"><title>n9&#45;&gt;n10</title>
<path fill="none" stroke="black" d="M2766.12,-214.876C2737.86,-201.658 2699,-185.332 2662.93,-176.48 2526.29,-142.943 2361.47,-134.669 2268.08,-132.849"/>
<polygon fill="black" stroke="black" points="2267.94,-129.347 2257.88,-132.671 2267.82,-136.346 2267.94,-129.347"/>
<text text-anchor="middle" x="2763.93" y="-180.28" font-family="Times,serif" font-size="14.00"> static(visible_from)</text>
</g>
<!-- n10&#45;&gt;n10 -->
<g id="edge3" class="edge"><title>n10&#45;&gt;n10</title>
<path fill="none" stroke="black" d="M2253.74,-141.045C2266.42,-140.087 2275.57,-136.942 2275.57,-131.61 2275.57,-127.861 2271.05,-125.193 2263.95,-123.607"/>
<polygon fill="black" stroke="black" points="2264.13,-120.097 2253.74,-122.175 2263.15,-127.029 2264.13,-120.097"/>
<text text-anchor="middle" x="2334.57" y="-127.91" font-family="Times,serif" font-size="14.00"> init(at_rock_sample)</text>
</g>
<!-- n10&#45;&gt;n21 -->
<g id="edge33" class="edge"><title>n10&#45;&gt;n21</title>
<path fill="none" stroke="black" d="M2160.68,-108.613C2153.9,-102.409 2147.7,-95.0504 2143.93,-86.7401 2139.09,-76.0466 2143.41,-65.7275 2151.16,-56.7963"/>
<polygon fill="black" stroke="black" points="2153.73,-59.1789 2158.34,-49.6428 2148.79,-54.2186 2153.73,-59.1789"/>
<text text-anchor="middle" x="2182.93" y="-75.5401" font-family="Times,serif" font-size="14.00"> static(visible)</text>
</g>
<!-- n11 -->
<g id="node11" class="node"><title>n11</title>
<ellipse fill="none" stroke="black" cx="2216.93" cy="-236.35" rx="67.7647" ry="26.7407"/>
<text text-anchor="middle" x="2216.93" y="-240.15" font-family="Times,serif" font-size="14.00">&lt;objective12&gt;</text>
<text text-anchor="middle" x="2216.93" y="-225.15" font-family="Times,serif" font-size="14.00">objective</text>
</g>
<!-- n11&#45;&gt;n10 -->
<g id="edge17" class="edge"><title>n11&#45;&gt;n10</title>
<path fill="none" stroke="black" d="M2201.89,-210.111C2199.04,-204.19 2196.48,-197.769 2194.93,-191.48 2193.16,-184.246 2192.31,-176.36 2192.01,-168.779"/>
<polygon fill="black" stroke="black" points="2195.51,-168.683 2191.9,-158.721 2188.51,-168.759 2195.51,-168.683"/>
<text text-anchor="middle" x="2250.93" y="-180.28" font-family="Times,serif" font-size="14.00"> static(visible_from)</text>
</g>
<!-- n12 -->
<g id="node12" class="node"><title>n12</title>
<ellipse fill="none" stroke="black" cx="2067.93" cy="-236.35" rx="62.8651" ry="26.7407"/>
<text text-anchor="middle" x="2067.93" y="-240.15" font-family="Times,serif" font-size="14.00">&lt;objective0&gt;</text>
<text text-anchor="middle" x="2067.93" y="-225.15" font-family="Times,serif" font-size="14.00">objective</text>
</g>
<!-- n12&#45;&gt;n10 -->
<g id="edge24" class="edge"><title>n12&#45;&gt;n10</title>
<path fill="none" stroke="black" d="M2066.33,-209.256C2066.95,-198.084 2069.57,-185.551 2076.93,-176.48 2089.1,-161.49 2106.95,-151.62 2125.06,-145.122"/>
<polygon fill="black" stroke="black" points="2126.4,-148.367 2134.82,-141.935 2124.23,-141.713 2126.4,-148.367"/>
<text text-anchor="middle" x="2132.93" y="-180.28" font-family="Times,serif" font-size="14.00"> static(visible_from)</text>
</g>
<!-- n13 -->
<g id="node13" class="node"><title>n13</title>
<ellipse fill="none" stroke="black" cx="257.933" cy="-341.09" rx="56.6372" ry="26.7407"/>
<text text-anchor="middle" x="257.933" y="-344.89" font-family="Times,serif" font-size="14.00">&lt;camera1&gt;</text>
<text text-anchor="middle" x="257.933" y="-329.89" font-family="Times,serif" font-size="14.00">camera</text>
</g>
<!-- n13&#45;&gt;n6 -->
<g id="edge39" class="edge"><title>n13&#45;&gt;n6</title>
<path fill="none" stroke="black" d="M312.314,-333.371C391.598,-323.371 531.919,-304.829 553.933,-296.22 564.954,-291.91 564.661,-284.827 575.933,-281.22 666.963,-252.094 1342.73,-284.404 1435.93,-263.22 1440.34,-262.218 1444.83,-260.857 1449.24,-259.282"/>
<polygon fill="black" stroke="black" points="1450.72,-262.461 1458.75,-255.545 1448.16,-255.947 1450.72,-262.461"/>
<text text-anchor="middle" x="622.433" y="-285.02" font-family="Times,serif" font-size="14.00"> static(on_board)</text>
</g>
<!-- n13&#45;&gt;n7 -->
<g id="edge54" class="edge"><title>n13&#45;&gt;n7</title>
<path fill="none" stroke="black" d="M252.261,-314.322C251.268,-303.213 252.247,-290.639 258.933,-281.22 259.204,-280.838 292.964,-268.41 324.452,-256.881"/>
<polygon fill="black" stroke="black" points="325.924,-260.07 334.112,-253.346 323.518,-253.496 325.924,-260.07"/>
<text text-anchor="middle" x="303.933" y="-285.02" font-family="Times,serif" font-size="14.00"> static(supports)</text>
</g>
<!-- n13&#45;&gt;n19 -->
<g id="edge50" class="edge"><title>n13&#45;&gt;n19</title>
<path fill="none" stroke="black" d="M311.3,-331.984C353.656,-325.922 414.438,-318.045 467.933,-314.22 566.811,-307.151 1264.67,-323.644 1359.93,-296.22 1372.38,-292.636 1372.47,-284.754 1384.93,-281.22 1545.19,-235.795 2721.34,-299.413 2883.93,-263.22 2888.41,-262.224 2892.96,-260.853 2897.44,-259.258"/>
<polygon fill="black" stroke="black" points="2899.04,-262.387 2907.06,-255.467 2896.48,-255.874 2899.04,-262.387"/>
<text text-anchor="middle" x="1428.93" y="-285.02" font-family="Times,serif" font-size="14.00"> static(supports)</text>
</g>
<!-- n13&#45;&gt;n25 -->
<g id="edge43" class="edge"><title>n13&#45;&gt;n25</title>
<path fill="none" stroke="black" d="M240.325,-315.332C222.799,-287.351 201.493,-241.537 223.933,-209.48 233.291,-196.111 320.662,-167.349 379.999,-149.047"/>
<polygon fill="black" stroke="black" points="381.096,-152.371 389.63,-146.092 379.043,-145.679 381.096,-152.371"/>
<text text-anchor="middle" x="267.933" y="-232.65" font-family="Times,serif" font-size="14.00"> static(supports)</text>
</g>
<!-- n28 -->
<g id="node28" class="node"><title>n28</title>
<ellipse fill="none" stroke="black" cx="62.9325" cy="-236.35" rx="62.8651" ry="26.7407"/>
<text text-anchor="middle" x="62.9325" y="-240.15" font-family="Times,serif" font-size="14.00">&lt;objective8&gt;</text>
<text text-anchor="middle" x="62.9325" y="-225.15" font-family="Times,serif" font-size="14.00">objective</text>
</g>
<!-- n13&#45;&gt;n28 -->
<g id="edge34" class="edge"><title>n13&#45;&gt;n28</title>
<path fill="none" stroke="black" d="M202.459,-335.087C151.45,-329.21 81.1972,-317.453 63.9325,-296.22 58.7059,-289.793 56.6884,-281.534 56.372,-273.249"/>
<polygon fill="black" stroke="black" points="59.8699,-273.368 56.7283,-263.25 52.8743,-273.119 59.8699,-273.368"/>
<text text-anchor="middle" x="132.433" y="-285.02" font-family="Times,serif" font-size="14.00"> static(calibration_target)</text>
</g>
<!-- n14 -->
<g id="node14" class="node"><title>n14</title>
<ellipse fill="none" stroke="black" cx="539.933" cy="-341.09" rx="62.8651" ry="26.7407"/>
<text text-anchor="middle" x="539.933" y="-344.89" font-family="Times,serif" font-size="14.00">&lt;objective2&gt;</text>
<text text-anchor="middle" x="539.933" y="-329.89" font-family="Times,serif" font-size="14.00">objective</text>
</g>
<!-- n14&#45;&gt;n7 -->
<g id="edge42" class="edge"><title>n14&#45;&gt;n7</title>
<path fill="none" stroke="black" d="M480.292,-332.495C436.937,-325.606 383.56,-313.81 369.933,-296.22 364.768,-289.554 363.718,-281.141 364.682,-272.777"/>
<polygon fill="black" stroke="black" points="368.164,-273.216 366.714,-262.72 361.303,-271.829 368.164,-273.216"/>
<text text-anchor="middle" x="461.933" y="-285.02" font-family="Times,serif" font-size="14.00"> end(communicated_image_data)</text>
</g>
<!-- n14&#45;&gt;n10 -->
<g id="edge49" class="edge"><title>n14&#45;&gt;n10</title>
<path fill="none" stroke="black" d="M590.671,-325.129C615.006,-317.41 644.358,-307.294 669.933,-296.22 682.888,-290.611 684.312,-284.933 697.933,-281.22 745.783,-268.179 1100.66,-287.451 1143.93,-263.22 1169.02,-249.175 1155.19,-224.114 1179.93,-209.48 1219.29,-186.201 1339.4,-195.771 1384.93,-191.48 1451.2,-185.236 1467.61,-182.022 1533.93,-176.48 1746.87,-158.69 1998.95,-143.584 2120.77,-136.659"/>
<polygon fill="black" stroke="black" points="2121.3,-140.135 2131.09,-136.075 2120.91,-133.146 2121.3,-140.135"/>
<text text-anchor="middle" x="1235.93" y="-232.65" font-family="Times,serif" font-size="14.00"> static(visible_from)</text>
</g>
<!-- n15 -->
<g id="node15" class="node"><title>n15</title>
<ellipse fill="none" stroke="black" cx="1689.93" cy="-341.09" rx="56.6372" ry="26.7407"/>
<text text-anchor="middle" x="1689.93" y="-344.89" font-family="Times,serif" font-size="14.00">&lt;camera2&gt;</text>
<text text-anchor="middle" x="1689.93" y="-329.89" font-family="Times,serif" font-size="14.00">camera</text>
</g>
<!-- n15&#45;&gt;n6 -->
<g id="edge14" class="edge"><title>n15&#45;&gt;n6</title>
<path fill="none" stroke="black" d="M1652.88,-320.766C1619.73,-303.477 1571.12,-278.126 1536.2,-259.914"/>
<polygon fill="black" stroke="black" points="1537.67,-256.734 1527.18,-255.213 1534.43,-262.941 1537.67,-256.734"/>
<text text-anchor="middle" x="1650.43" y="-285.02" font-family="Times,serif" font-size="14.00"> static(on_board)</text>
</g>
<!-- n15&#45;&gt;n11 -->
<g id="edge30" class="edge"><title>n15&#45;&gt;n11</title>
<path fill="none" stroke="black" d="M1728.35,-321.125C1758.05,-307.435 1800.59,-289.892 1839.93,-281.22 1970.37,-252.467 2008.81,-288.713 2139.93,-263.22 2146.2,-262.002 2152.66,-260.405 2159.05,-258.601"/>
<polygon fill="black" stroke="black" points="2160.41,-261.846 2168.99,-255.623 2158.4,-255.141 2160.41,-261.846"/>
<text text-anchor="middle" x="1908.43" y="-285.02" font-family="Times,serif" font-size="14.00"> static(calibration_target)</text>
</g>
<!-- n15&#45;&gt;n25 -->
<g id="edge22" class="edge"><title>n15&#45;&gt;n25</title>
<path fill="none" stroke="black" d="M1650.12,-321.912C1641.64,-318.775 1632.62,-315.965 1623.93,-314.22 1451.77,-279.648 1003.75,-340.905 833.933,-296.22 820.28,-292.628 819.524,-285.039 805.933,-281.22 737.151,-261.894 544.66,-302.425 484.933,-263.22 453.748,-242.751 441.985,-199.81 437.564,-168.742"/>
<polygon fill="black" stroke="black" points="441.025,-168.208 436.329,-158.71 434.078,-169.063 441.025,-168.208"/>
<text text-anchor="middle" x="528.933" y="-232.65" font-family="Times,serif" font-size="14.00"> static(supports)</text>
</g>
<!-- n16 -->
<g id="node16" class="node"><title>n16</title>
<ellipse fill="none" stroke="black" cx="2513.93" cy="-236.35" rx="62.8651" ry="26.7407"/>
<text text-anchor="middle" x="2513.93" y="-240.15" font-family="Times,serif" font-size="14.00">&lt;objective6&gt;</text>
<text text-anchor="middle" x="2513.93" y="-225.15" font-family="Times,serif" font-size="14.00">objective</text>
</g>
<!-- n16&#45;&gt;n10 -->
<g id="edge48" class="edge"><title>n16&#45;&gt;n10</title>
<path fill="none" stroke="black" d="M2465.49,-218.983C2456.03,-215.811 2446.17,-212.527 2436.93,-209.48 2391.68,-194.559 2380.35,-190.891 2334.93,-176.48 2308.4,-168.06 2279.01,-158.891 2253.95,-151.122"/>
<polygon fill="black" stroke="black" points="2254.81,-147.723 2244.22,-148.107 2252.74,-154.41 2254.81,-147.723"/>
<text text-anchor="middle" x="2436.93" y="-180.28" font-family="Times,serif" font-size="14.00"> static(visible_from)</text>
</g>
<!-- n17 -->
<g id="node17" class="node"><title>n17</title>
<ellipse fill="none" stroke="black" cx="1463.93" cy="-341.09" rx="67.3507" ry="26.7407"/>
<text text-anchor="middle" x="1463.93" y="-344.89" font-family="Times,serif" font-size="14.00">&lt;rover0store&gt;</text>
<text text-anchor="middle" x="1463.93" y="-329.89" font-family="Times,serif" font-size="14.00">store</text>
</g>
<!-- n17&#45;&gt;n6 -->
<g id="edge32" class="edge"><title>n17&#45;&gt;n6</title>
<path fill="none" stroke="black" d="M1471.25,-314.165C1474.75,-301.754 1479.01,-286.692 1482.81,-273.204"/>
<polygon fill="black" stroke="black" points="1486.27,-273.842 1485.62,-263.268 1479.53,-271.941 1486.27,-273.842"/>
<text text-anchor="middle" x="1523.93" y="-285.02" font-family="Times,serif" font-size="14.00"> static(store_of)</text>
</g>
<!-- n17&#45;&gt;n17 -->
<g id="edge4" class="edge"><title>n17&#45;&gt;n17</title>
<path fill="none" stroke="black" d="M1527.08,-350.468C1539.92,-349.447 1549.11,-346.321 1549.11,-341.09 1549.11,-337.413 1544.56,-334.775 1537.4,-333.179"/>
<polygon fill="black" stroke="black" points="1537.47,-329.653 1527.08,-331.712 1536.49,-336.584 1537.47,-329.653"/>
<text text-anchor="middle" x="1582.11" y="-337.39" font-family="Times,serif" font-size="14.00"> init(empty)</text>
</g>
<!-- n18 -->
<g id="node18" class="node"><title>n18</title>
<ellipse fill="none" stroke="black" cx="2924.93" cy="-341.09" rx="67.7647" ry="26.7407"/>
<text text-anchor="middle" x="2924.93" y="-344.89" font-family="Times,serif" font-size="14.00">&lt;objective11&gt;</text>
<text text-anchor="middle" x="2924.93" y="-329.89" font-family="Times,serif" font-size="14.00">objective</text>
</g>
<!-- n18&#45;&gt;n10 -->
<g id="edge55" class="edge"><title>n18&#45;&gt;n10</title>
<path fill="none" stroke="black" d="M2977.93,-324.234C2990.94,-317.705 3003.32,-308.655 3010.93,-296.22 3024.46,-274.13 3045.17,-254.608 2997.93,-209.48 2976.21,-188.726 2893.07,-198.801 2863.93,-191.48 2845.52,-186.854 2842.49,-180.515 2823.93,-176.48 2719.8,-153.834 2410.57,-140.285 2267.75,-135.075"/>
<polygon fill="black" stroke="black" points="2267.47,-131.563 2257.35,-134.7 2267.22,-138.558 2267.47,-131.563"/>
<text text-anchor="middle" x="3083.93" y="-232.65" font-family="Times,serif" font-size="14.00"> static(visible_from)</text>
</g>
<!-- n18&#45;&gt;n19 -->
<g id="edge40" class="edge"><title>n18&#45;&gt;n19</title>
<path fill="none" stroke="black" d="M2866.99,-326.799C2837.78,-317.23 2811.5,-302.272 2826.93,-281.22 2842.64,-259.792 2859.13,-272.727 2883.93,-263.22 2887.81,-261.733 2891.81,-260.112 2895.79,-258.432"/>
<polygon fill="black" stroke="black" points="2897.24,-261.62 2905.03,-254.436 2894.46,-255.196 2897.24,-261.62"/>
<text text-anchor="middle" x="2918.93" y="-285.02" font-family="Times,serif" font-size="14.00"> end(communicated_image_data)</text>
</g>
<!-- n20&#45;&gt;n10 -->
<g id="edge9" class="edge"><title>n20&#45;&gt;n10</title>
<path fill="none" stroke="black" d="M1409.2,-217.483C1417.97,-214.48 1427.16,-211.642 1435.93,-209.48 1681.42,-148.977 1982.9,-135.969 2119.9,-133.262"/>
<polygon fill="black" stroke="black" points="2120.34,-136.754 2130.27,-133.07 2120.21,-129.756 2120.34,-136.754"/>
<text text-anchor="middle" x="1655.93" y="-180.28" font-family="Times,serif" font-size="14.00"> static(visible_from)</text>
</g>
<!-- n21&#45;&gt;n10 -->
<g id="edge46" class="edge"><title>n21&#45;&gt;n10</title>
<path fill="none" stroke="black" d="M2212.82,-52.5809C2216.57,-58.5291 2219.93,-65.0951 2221.93,-71.7401 2224.46,-80.1534 2222.88,-88.8773 2219.45,-96.9498"/>
<polygon fill="black" stroke="black" points="2216.22,-95.582 2214.72,-106.069 2222.43,-98.8097 2216.22,-95.582"/>
<text text-anchor="middle" x="2262.93" y="-75.5401" font-family="Times,serif" font-size="14.00"> static(visible)</text>
</g>
<!-- n21&#45;&gt;n21 -->
<g id="edge5" class="edge"><title>n21&#45;&gt;n21</title>
<path fill="none" stroke="black" d="M2252.74,-36.3053C2265.42,-35.3472 2274.57,-32.2021 2274.57,-26.8701 2274.57,-23.121 2270.05,-20.4531 2262.95,-18.8664"/>
<polygon fill="black" stroke="black" points="2263.13,-15.3569 2252.74,-17.4349 2262.15,-22.2891 2263.13,-15.3569"/>
<text text-anchor="middle" x="2359.07" y="-38.1701" font-family="Times,serif" font-size="14.00"> end(communicated_soil_data)</text>
<text text-anchor="middle" x="2359.07" y="-23.1701" font-family="Times,serif" font-size="14.00">init(at_soil_sample)</text>
<text text-anchor="middle" x="2359.07" y="-8.17006" font-family="Times,serif" font-size="14.00">init(at_rock_sample)</text>
</g>
<!-- n22 -->
<g id="node22" class="node"><title>n22</title>
<ellipse fill="none" stroke="black" cx="3515.93" cy="-236.35" rx="62.8651" ry="26.7407"/>
<text text-anchor="middle" x="3515.93" y="-240.15" font-family="Times,serif" font-size="14.00">&lt;objective1&gt;</text>
<text text-anchor="middle" x="3515.93" y="-225.15" font-family="Times,serif" font-size="14.00">objective</text>
</g>
<!-- n22&#45;&gt;n10 -->
<g id="edge52" class="edge"><title>n22&#45;&gt;n10</title>
<path fill="none" stroke="black" d="M3471.11,-217.378C3462.21,-214.347 3452.87,-211.525 3443.93,-209.48 3307.58,-178.273 3270.41,-187.089 3130.93,-176.48 2809.77,-152.052 2425.57,-139.184 2267.44,-134.595"/>
<polygon fill="black" stroke="black" points="2267.45,-131.094 2257.35,-134.304 2267.25,-138.091 2267.45,-131.094"/>
<text text-anchor="middle" x="3404.93" y="-180.28" font-family="Times,serif" font-size="14.00"> static(visible_from)</text>
</g>
<!-- n22&#45;&gt;n21 -->
<g id="edge19" class="edge"><title>n22&#45;&gt;n21</title>
<path fill="none" stroke="black" d="M3515.72,-209.425C3513.98,-179.464 3506.27,-130.933 3475.93,-104.74 3402.1,-40.9842 3356.04,-81.0932 3258.93,-71.7401 2887.45,-35.9585 2440.38,-29.3255 2266.82,-28.1232"/>
<polygon fill="black" stroke="black" points="2266.8,-24.623 2256.78,-28.0576 2266.76,-31.6229 2266.8,-24.623"/>
<text text-anchor="middle" x="3563.93" y="-127.91" font-family="Times,serif" font-size="14.00"> static(visible_from)</text>
</g>
<!-- n23 -->
<g id="node23" class="node"><title>n23</title>
<ellipse fill="none" stroke="black" cx="2469.93" cy="-341.09" rx="62.8651" ry="26.7407"/>
<text text-anchor="middle" x="2469.93" y="-344.89" font-family="Times,serif" font-size="14.00">&lt;objective3&gt;</text>
<text text-anchor="middle" x="2469.93" y="-329.89" font-family="Times,serif" font-size="14.00">objective</text>
</g>
<!-- n23&#45;&gt;n10 -->
<g id="edge28" class="edge"><title>n23&#45;&gt;n10</title>
<path fill="none" stroke="black" d="M2418.54,-325.293C2387.65,-313.607 2350.46,-294.027 2329.93,-263.22 2307.82,-230.029 2333.52,-206.205 2306.93,-176.48 2294.74,-162.85 2277.8,-153.418 2260.75,-146.905"/>
<polygon fill="black" stroke="black" points="2261.88,-143.595 2251.29,-143.579 2259.56,-150.198 2261.88,-143.595"/>
<text text-anchor="middle" x="2385.93" y="-232.65" font-family="Times,serif" font-size="14.00"> static(visible_from)</text>
</g>
<!-- n23&#45;&gt;n19 -->
<g id="edge47" class="edge"><title>n23&#45;&gt;n19</title>
<path fill="none" stroke="black" d="M2512.78,-321.184C2545.55,-307.618 2592.22,-290.209 2634.93,-281.22 2743.51,-258.369 2776.4,-290.576 2883.93,-263.22 2888.32,-262.105 2892.78,-260.669 2897.19,-259.045"/>
<polygon fill="black" stroke="black" points="2898.69,-262.211 2906.67,-255.243 2896.09,-255.713 2898.69,-262.211"/>
<text text-anchor="middle" x="2726.93" y="-285.02" font-family="Times,serif" font-size="14.00"> end(communicated_image_data)</text>
</g>
<!-- n24 -->
<g id="node24" class="node"><title>n24</title>
<ellipse fill="none" stroke="black" cx="3669.93" cy="-236.35" rx="67.7647" ry="26.7407"/>
<text text-anchor="middle" x="3669.93" y="-240.15" font-family="Times,serif" font-size="14.00">&lt;objective14&gt;</text>
<text text-anchor="middle" x="3669.93" y="-225.15" font-family="Times,serif" font-size="14.00">objective</text>
</g>
<!-- n24&#45;&gt;n10 -->
<g id="edge8" class="edge"><title>n24&#45;&gt;n10</title>
<path fill="none" stroke="black" d="M3621.44,-217.509C3580.4,-203.363 3519.68,-184.66 3464.93,-176.48 3346.88,-158.842 2521.31,-139.698 2267.8,-134.179"/>
<polygon fill="black" stroke="black" points="2267.66,-130.675 2257.59,-133.957 2267.51,-137.674 2267.66,-130.675"/>
<text text-anchor="middle" x="3589.93" y="-180.28" font-family="Times,serif" font-size="14.00"> static(visible_from)</text>
</g>
<!-- n24&#45;&gt;n21 -->
<g id="edge38" class="edge"><title>n24&#45;&gt;n21</title>
<path fill="none" stroke="black" d="M3668.61,-209.423C3665.58,-179.225 3655.72,-130.233 3623.93,-104.74 3534.78,-33.2477 3482.82,-81.2134 3368.93,-71.7401 2953.29,-37.1658 2452.73,-29.836 2266.99,-28.2851"/>
<polygon fill="black" stroke="black" points="2266.82,-24.7837 2256.79,-28.2032 2266.77,-31.7835 2266.82,-24.7837"/>
<text text-anchor="middle" x="3713.93" y="-127.91" font-family="Times,serif" font-size="14.00"> static(visible_from)</text>
</g>
<!-- n26 -->
<g id="node26" class="node"><title>n26</title>
<ellipse fill="none" stroke="black" cx="3217.93" cy="-236.35" rx="62.8651" ry="26.7407"/>
<text text-anchor="middle" x="3217.93" y="-240.15" font-family="Times,serif" font-size="14.00">&lt;objective4&gt;</text>
<text text-anchor="middle" x="3217.93" y="-225.15" font-family="Times,serif" font-size="14.00">objective</text>
</g>
<!-- n26&#45;&gt;n10 -->
<g id="edge29" class="edge"><title>n26&#45;&gt;n10</title>
<path fill="none" stroke="black" d="M3172.03,-217.813C3161.92,-214.547 3151.17,-211.523 3140.93,-209.48 3028.65,-187.066 2992.48,-227.924 2883.93,-191.48 2872.36,-187.596 2872.51,-180.34 2860.93,-176.48 2752.78,-140.423 2417.72,-133.872 2267.78,-132.775"/>
<polygon fill="black" stroke="black" points="2267.77,-129.274 2257.74,-132.707 2267.72,-136.274 2267.77,-129.274"/>
<text text-anchor="middle" x="2939.93" y="-180.28" font-family="Times,serif" font-size="14.00"> static(visible_from)</text>
</g>
<!-- n26&#45;&gt;n21 -->
<g id="edge25" class="edge"><title>n26&#45;&gt;n21</title>
<path fill="none" stroke="black" d="M3252.3,-213.819C3266.09,-202.55 3276.5,-188.612 3265.93,-176.48 3232.75,-138.381 2498.95,-59.5039 2264.36,-35.1758"/>
<polygon fill="black" stroke="black" points="2264.54,-31.6758 2254.23,-34.1273 2263.82,-38.6386 2264.54,-31.6758"/>
<text text-anchor="middle" x="3266.93" y="-127.91" font-family="Times,serif" font-size="14.00"> static(visible_from)</text>
</g>
<!-- n27 -->
<g id="node27" class="node"><title>n27</title>
<ellipse fill="none" stroke="black" cx="2657.93" cy="-236.35" rx="62.8651" ry="26.7407"/>
<text text-anchor="middle" x="2657.93" y="-240.15" font-family="Times,serif" font-size="14.00">&lt;objective9&gt;</text>
<text text-anchor="middle" x="2657.93" y="-225.15" font-family="Times,serif" font-size="14.00">objective</text>
</g>
<!-- n27&#45;&gt;n10 -->
<g id="edge16" class="edge"><title>n27&#45;&gt;n10</title>
<path fill="none" stroke="black" d="M2614.63,-216.738C2582.65,-203.682 2537.76,-186.783 2496.93,-176.48 2419.19,-156.863 2327.86,-145.132 2265.94,-138.805"/>
<polygon fill="black" stroke="black" points="2266.19,-135.312 2255.89,-137.798 2265.49,-142.277 2266.19,-135.312"/>
<text text-anchor="middle" x="2602.93" y="-180.28" font-family="Times,serif" font-size="14.00"> static(visible_from)</text>
</g>
<!-- n28&#45;&gt;n10 -->
<g id="edge10" class="edge"><title>n28&#45;&gt;n10</title>
<path fill="none" stroke="black" d="M118.097,-223.285C141.147,-218.528 168.258,-213.299 192.933,-209.48 324.182,-189.168 357.407,-185.204 489.933,-176.48 873.63,-151.223 970.533,-168.406 1354.93,-158.48 1637.86,-151.175 1974.39,-140.064 2120.35,-135.127"/>
<polygon fill="black" stroke="black" points="2120.65,-138.619 2130.53,-134.782 2120.41,-131.623 2120.65,-138.619"/>
<text text-anchor="middle" x="545.933" y="-180.28" font-family="Times,serif" font-size="14.00"> static(visible_from)</text>
</g>
<!-- n28&#45;&gt;n21 -->
<g id="edge45" class="edge"><title>n28&#45;&gt;n21</title>
<path fill="none" stroke="black" d="M51.3098,-209.68C48.1251,-198.59 47.1646,-186.004 53.9325,-176.48 110.092,-97.4543 164.764,-123.235 259.933,-104.74 625.85,-33.6275 1810.56,-28.0427 2118.98,-27.8143"/>
<polygon fill="black" stroke="black" points="2119.15,-31.3143 2129.14,-27.8085 2119.14,-24.3143 2119.15,-31.3143"/>
<text text-anchor="middle" x="315.933" y="-127.91" font-family="Times,serif" font-size="14.00"> static(visible_from)</text>
</g>
<!-- n28&#45;&gt;n25 -->
<g id="edge51" class="edge"><title>n28&#45;&gt;n25</title>
<path fill="none" stroke="black" d="M56.334,-209.382C55.0468,-197.966 56.0492,-185.2 63.9325,-176.48 74.1402,-165.189 268.922,-146.863 372.058,-137.895"/>
<polygon fill="black" stroke="black" points="372.385,-141.379 382.046,-137.03 371.782,-134.406 372.385,-141.379"/>
<text text-anchor="middle" x="155.933" y="-180.28" font-family="Times,serif" font-size="14.00"> end(communicated_image_data)</text>
</g>
<!-- n29 -->
<g id="node29" class="node"><title>n29</title>
<ellipse fill="none" stroke="black" cx="3366.93" cy="-236.35" rx="67.7647" ry="26.7407"/>
<text text-anchor="middle" x="3366.93" y="-240.15" font-family="Times,serif" font-size="14.00">&lt;objective10&gt;</text>
<text text-anchor="middle" x="3366.93" y="-225.15" font-family="Times,serif" font-size="14.00">objective</text>
</g>
<!-- n29&#45;&gt;n10 -->
<g id="edge37" class="edge"><title>n29&#45;&gt;n10</title>
<path fill="none" stroke="black" d="M3318.98,-217.127C3309.47,-214.117 3299.48,-211.368 3289.93,-209.48 3171.52,-186.064 3133.43,-229.693 3018.93,-191.48 3007.36,-187.617 3007.53,-180.276 2995.93,-176.48 2927.89,-154.213 2452.89,-139.439 2267.66,-134.466"/>
<polygon fill="black" stroke="black" points="2267.56,-130.963 2257.47,-134.195 2267.37,-137.96 2267.56,-130.963"/>
<text text-anchor="middle" x="3074.93" y="-180.28" font-family="Times,serif" font-size="14.00"> static(visible_from)</text>
</g>
<!-- n29&#45;&gt;n21 -->
<g id="edge23" class="edge"><title>n29&#45;&gt;n21</title>
<path fill="none" stroke="black" d="M3367.1,-209.249C3365.75,-178.881 3358.42,-129.722 3326.93,-104.74 3244.15,-39.0707 2506.05,-29.4783 2267.17,-28.0966"/>
<polygon fill="black" stroke="black" points="2266.87,-24.595 2256.85,-28.0403 2266.83,-31.5949 2266.87,-24.595"/>
<text text-anchor="middle" x="3415.93" y="-127.91" font-family="Times,serif" font-size="14.00"> static(visible_from)</text>
</g>
</g>
</svg>
