<?xml version="1.0" encoding="UTF-8" standalone="no"?>
<!DOCTYPE svg PUBLIC "-//W3C//DTD SVG 1.1//EN"
 "http://www.w3.org/Graphics/SVG/1.1/DTD/svg11.dtd">
<!-- Generated by graphviz version 2.38.0 (20140413.2041)
 -->
<!-- Title: Struc Pages: 1 -->
<svg width="1146pt" height="400pt"
 viewBox="0.00 0.00 1145.79 399.96" xmlns="http://www.w3.org/2000/svg" xmlns:xlink="http://www.w3.org/1999/xlink">
<g id="graph0" class="graph" transform="scale(1 1) rotate(0) translate(4 395.96)">
<title>Struc</title>
<polygon fill="white" stroke="none" points="-4,4 -4,-395.96 1141.79,-395.96 1141.79,4 -4,4"/>
<!-- n1 -->
<g id="node1" class="node"><title>n1</title>
<ellipse fill="none" stroke="black" cx="498.175" cy="-135.61" rx="63.7795" ry="26.7407"/>
<text text-anchor="middle" x="498.175" y="-139.41" font-family="Times,serif" font-size="14.00">&lt;waypoint1&gt;</text>
<text text-anchor="middle" x="498.175" y="-124.41" font-family="Times,serif" font-size="14.00">waypoint</text>
</g>
<!-- n1&#45;&gt;n1 -->
<g id="edge1" class="edge"><title>n1&#45;&gt;n1</title>
<path fill="none" stroke="black" d="M557.251,-145.828C570.307,-144.868 579.815,-141.462 579.815,-135.61 579.815,-131.404 574.903,-128.462 567.292,-126.783"/>
<polygon fill="black" stroke="black" points="567.637,-123.298 557.251,-125.393 566.677,-130.231 567.637,-123.298"/>
<text text-anchor="middle" x="664.315" y="-146.91" font-family="Times,serif" font-size="14.00"> end(communicated_soil_data)</text>
<text text-anchor="middle" x="664.315" y="-131.91" font-family="Times,serif" font-size="14.00">init(at_soil_sample)</text>
<text text-anchor="middle" x="664.315" y="-116.91" font-family="Times,serif" font-size="14.00">init(at_rock_sample)</text>
</g>
<!-- n6 -->
<g id="node6" class="node"><title>n6</title>
<ellipse fill="none" stroke="black" cx="599.175" cy="-26.8701" rx="63.7795" ry="26.7407"/>
<text text-anchor="middle" x="599.175" y="-30.6701" font-family="Times,serif" font-size="14.00">&lt;waypoint0&gt;</text>
<text text-anchor="middle" x="599.175" y="-15.6701" font-family="Times,serif" font-size="14.00">waypoint</text>
</g>
<!-- n1&#45;&gt;n6 -->
<g id="edge14" class="edge"><title>n1&#45;&gt;n6</title>
<path fill="none" stroke="black" d="M490.285,-108.865C488.127,-96.6815 488.046,-82.4845 495.175,-71.7401 503.974,-58.4793 517.656,-49.2171 532.238,-42.751"/>
<polygon fill="black" stroke="black" points="533.918,-45.8491 541.908,-38.8917 531.323,-39.3478 533.918,-45.8491"/>
<text text-anchor="middle" x="534.175" y="-75.5401" font-family="Times,serif" font-size="14.00"> static(visible)</text>
</g>
<!-- n2 -->
<g id="node2" class="node"><title>n2</title>
<ellipse fill="none" stroke="black" cx="67.1751" cy="-248.35" rx="48.1667" ry="26.7407"/>
<text text-anchor="middle" x="67.1751" y="-252.15" font-family="Times,serif" font-size="14.00">&lt;rover0&gt;</text>
<text text-anchor="middle" x="67.1751" y="-237.15" font-family="Times,serif" font-size="14.00">rover</text>
</g>
<!-- n2&#45;&gt;n2 -->
<g id="edge2" class="edge"><title>n2&#45;&gt;n2</title>
<path fill="none" stroke="black" d="M111.65,-258.786C123.898,-258.282 133.258,-254.803 133.258,-248.35 133.258,-243.813 128.631,-240.746 121.625,-239.15"/>
<polygon fill="black" stroke="black" points="122.004,-235.67 111.65,-237.914 121.144,-242.617 122.004,-235.67"/>
<text text-anchor="middle" x="226.758" y="-259.65" font-family="Times,serif" font-size="14.00"> static(equipped_for_imaging)</text>
<text text-anchor="middle" x="226.758" y="-244.65" font-family="Times,serif" font-size="14.00">init(available)</text>
<text text-anchor="middle" x="226.758" y="-229.65" font-family="Times,serif" font-size="14.00">static(equipped_for_soil_analysis)</text>
</g>
<!-- n2&#45;&gt;n6 -->
<g id="edge12" class="edge"><title>n2&#45;&gt;n6</title>
<path fill="none" stroke="black" d="M88.9579,-224.144C120.345,-192.161 181.545,-135.058 245.175,-104.74 336.544,-61.2059 452.932,-42.0283 526.776,-33.7884"/>
<polygon fill="black" stroke="black" points="527.339,-37.2481 536.906,-32.6969 526.589,-30.2884 527.339,-37.2481"/>
<text text-anchor="middle" x="265.675" y="-131.91" font-family="Times,serif" font-size="14.00"> init(at)</text>
</g>
<!-- n3 -->
<g id="node3" class="node"><title>n3</title>
<ellipse fill="none" stroke="black" cx="356.175" cy="-135.61" rx="56.6326" ry="26.7574"/>
<ellipse fill="none" stroke="black" cx="356.175" cy="-135.61" rx="60.6372" ry="30.7407"/>
<text text-anchor="middle" x="356.175" y="-139.41" font-family="Times,serif" font-size="14.00">&lt;high_res&gt;</text>
<text text-anchor="middle" x="356.175" y="-124.41" font-family="Times,serif" font-size="14.00">mode</text>
</g>
<!-- n4 -->
<g id="node4" class="node"><title>n4</title>
<ellipse fill="none" stroke="black" cx="67.1751" cy="-361.09" rx="67.3507" ry="26.7407"/>
<text text-anchor="middle" x="67.1751" y="-364.89" font-family="Times,serif" font-size="14.00">&lt;rover0store&gt;</text>
<text text-anchor="middle" x="67.1751" y="-349.89" font-family="Times,serif" font-size="14.00">store</text>
</g>
<!-- n4&#45;&gt;n2 -->
<g id="edge9" class="edge"><title>n4&#45;&gt;n2</title>
<path fill="none" stroke="black" d="M67.1751,-334.127C67.1751,-319.653 67.1751,-301.403 67.1751,-285.546"/>
<polygon fill="black" stroke="black" points="70.6752,-285.535 67.1751,-275.535 63.6752,-285.535 70.6752,-285.535"/>
<text text-anchor="middle" x="110.175" y="-301.02" font-family="Times,serif" font-size="14.00"> static(store_of)</text>
</g>
<!-- n4&#45;&gt;n4 -->
<g id="edge3" class="edge"><title>n4&#45;&gt;n4</title>
<path fill="none" stroke="black" d="M129.57,-371.251C142.798,-370.22 152.35,-366.833 152.35,-361.09 152.35,-356.918 147.308,-353.99 139.476,-352.304"/>
<polygon fill="black" stroke="black" points="139.956,-348.837 129.57,-350.929 138.994,-355.771 139.956,-348.837"/>
<text text-anchor="middle" x="185.35" y="-357.39" font-family="Times,serif" font-size="14.00"> init(empty)</text>
</g>
<!-- n5 -->
<g id="node5" class="node"><title>n5</title>
<ellipse fill="none" stroke="black" cx="565.175" cy="-248.35" rx="67.7712" ry="26.7574"/>
<ellipse fill="none" stroke="black" cx="565.175" cy="-248.35" rx="71.7647" ry="30.7407"/>
<text text-anchor="middle" x="565.175" y="-252.15" font-family="Times,serif" font-size="14.00">&lt;objective13&gt;</text>
<text text-anchor="middle" x="565.175" y="-237.15" font-family="Times,serif" font-size="14.00">objective</text>
</g>
<!-- n5&#45;&gt;n1 -->
<g id="edge7" class="edge"><title>n5&#45;&gt;n1</title>
<path fill="none" stroke="black" stroke-dasharray="5,2" d="M576.787,-217.796C579.27,-206.778 579.717,-194.52 574.175,-184.48 568.867,-174.864 560.727,-166.916 551.714,-160.445"/>
<polygon fill="black" stroke="black" points="553.534,-157.453 543.248,-154.913 549.705,-163.313 553.534,-157.453"/>
<text text-anchor="middle" x="635.175" y="-188.28" font-family="Times,serif" font-size="14.00"> static(visible_from)</text>
</g>
<!-- n5&#45;&gt;n3 -->
<g id="edge10" class="edge"><title>n5&#45;&gt;n3</title>
<path fill="none" stroke="black" stroke-dasharray="5,2" d="M504.199,-231.678C453.267,-218.49 388.564,-201.466 386.175,-199.48 378.582,-193.169 372.781,-184.489 368.401,-175.593"/>
<polygon fill="black" stroke="black" points="371.561,-174.084 364.335,-166.335 365.151,-176.898 371.561,-174.084"/>
<text text-anchor="middle" x="478.175" y="-188.28" font-family="Times,serif" font-size="14.00"> end(communicated_image_data)</text>
</g>
<!-- n5&#45;&gt;n6 -->
<g id="edge11" class="edge"><title>n5&#45;&gt;n6</title>
<path fill="none" stroke="black" d="M633.847,-238.984C678.165,-229.523 732.221,-209.374 758.175,-166.48 772.38,-143.003 772.756,-127.985 758.175,-104.74 737.859,-72.353 699.613,-53.279 665.722,-42.2327"/>
<polygon fill="black" stroke="black" points="666.422,-38.7861 655.835,-39.1911 664.364,-45.4767 666.422,-38.7861"/>
<text text-anchor="middle" x="825.175" y="-131.91" font-family="Times,serif" font-size="14.00"> static(visible_from)</text>
</g>
<!-- n6&#45;&gt;n1 -->
<g id="edge6" class="edge"><title>n6&#45;&gt;n1</title>
<path fill="none" stroke="black" d="M593.523,-53.8627C590.156,-64.8852 584.971,-77.3296 577.175,-86.7401 569.658,-95.8142 559.948,-103.623 549.923,-110.145"/>
<polygon fill="black" stroke="black" points="547.791,-107.347 541.08,-115.545 551.439,-113.321 547.791,-107.347"/>
<text text-anchor="middle" x="626.175" y="-75.5401" font-family="Times,serif" font-size="14.00"> static(visible)</text>
</g>
<!-- n6&#45;&gt;n6 -->
<g id="edge4" class="edge"><title>n6&#45;&gt;n6</title>
<path fill="none" stroke="black" d="M658.98,-36.3053C671.659,-35.3472 680.815,-32.2021 680.815,-26.8701 680.815,-23.121 676.288,-20.4531 669.193,-18.8664"/>
<polygon fill="black" stroke="black" points="669.369,-15.3569 658.98,-17.4349 668.397,-22.2891 669.369,-15.3569"/>
<text text-anchor="middle" x="739.815" y="-23.1701" font-family="Times,serif" font-size="14.00"> init(at_rock_sample)</text>
</g>
<!-- n7 -->
<g id="node7" class="node"><title>n7</title>
<ellipse fill="none" stroke="black" cx="967.175" cy="-135.61" rx="51.7379" ry="26.7407"/>
<text text-anchor="middle" x="967.175" y="-139.41" font-family="Times,serif" font-size="14.00">&lt;general&gt;</text>
<text text-anchor="middle" x="967.175" y="-124.41" font-family="Times,serif" font-size="14.00">lander</text>
</g>
<!-- n7&#45;&gt;n6 -->
<g id="edge16" class="edge"><title>n7&#45;&gt;n6</title>
<path fill="none" stroke="black" d="M929.79,-116.813C920.524,-112.646 910.56,-108.369 901.175,-104.74 823.141,-74.5678 729.183,-52.7981 667.015,-40.2892"/>
<polygon fill="black" stroke="black" points="667.426,-36.8026 656.936,-38.2864 666.062,-43.6684 667.426,-36.8026"/>
<text text-anchor="middle" x="891.175" y="-75.5401" font-family="Times,serif" font-size="14.00"> static(at_lander)</text>
</g>
<!-- n7&#45;&gt;n7 -->
<g id="edge5" class="edge"><title>n7&#45;&gt;n7</title>
<path fill="none" stroke="black" d="M1015.01,-146.002C1027.43,-145.363 1036.79,-141.899 1036.79,-135.61 1036.79,-131.188 1032.16,-128.163 1025.1,-126.534"/>
<polygon fill="black" stroke="black" points="1025.38,-123.041 1015.01,-125.218 1024.47,-129.982 1025.38,-123.041"/>
<text text-anchor="middle" x="1087.29" y="-131.91" font-family="Times,serif" font-size="14.00"> init(channel_free)</text>
</g>
<!-- n8 -->
<g id="node8" class="node"><title>n8</title>
<ellipse fill="none" stroke="black" cx="356.175" cy="-361.09" rx="56.6326" ry="26.7574"/>
<ellipse fill="none" stroke="black" cx="356.175" cy="-361.09" rx="60.6372" ry="30.7407"/>
<text text-anchor="middle" x="356.175" y="-364.89" font-family="Times,serif" font-size="14.00">&lt;camera1&gt;</text>
<text text-anchor="middle" x="356.175" y="-349.89" font-family="Times,serif" font-size="14.00">camera</text>
</g>
<!-- n8&#45;&gt;n2 -->
<g id="edge13" class="edge"><title>n8&#45;&gt;n2</title>
<path fill="none" stroke="black" d="M308.453,-341.804C255.176,-321.389 169.414,-288.527 115.781,-267.975"/>
<polygon fill="black" stroke="black" points="116.746,-264.597 106.156,-264.287 114.241,-271.133 116.746,-264.597"/>
<text text-anchor="middle" x="275.675" y="-301.02" font-family="Times,serif" font-size="14.00"> static(on_board)</text>
</g>
<!-- n8&#45;&gt;n3 -->
<g id="edge15" class="edge"><title>n8&#45;&gt;n3</title>
<path fill="none" stroke="black" stroke-dasharray="5,2" d="M356.175,-329.951C356.175,-290.353 356.175,-220.696 356.175,-176.689"/>
<polygon fill="black" stroke="black" points="359.675,-176.628 356.175,-166.628 352.675,-176.628 359.675,-176.628"/>
<text text-anchor="middle" x="400.175" y="-244.65" font-family="Times,serif" font-size="14.00"> static(supports)</text>
</g>
<!-- n8&#45;&gt;n5 -->
<g id="edge8" class="edge"><title>n8&#45;&gt;n5</title>
<path fill="none" stroke="black" stroke-dasharray="5,2" d="M397.467,-338.212C430.119,-320.911 475.959,-296.622 511.464,-277.81"/>
<polygon fill="black" stroke="black" points="513.52,-280.681 520.718,-272.906 510.243,-274.496 513.52,-280.681"/>
<text text-anchor="middle" x="542.675" y="-301.02" font-family="Times,serif" font-size="14.00"> static(calibration_target)</text>
</g>
</g>
</svg>
