<?xml version="1.0" encoding="UTF-8" standalone="no"?>
<!DOCTYPE svg PUBLIC "-//W3C//DTD SVG 1.1//EN"
 "http://www.w3.org/Graphics/SVG/1.1/DTD/svg11.dtd">
<!-- Generated by graphviz version 2.38.0 (20140413.2041)
 -->
<!-- Title: Struc Pages: 1 -->
<svg width="4987pt" height="376pt"
 viewBox="0.00 0.00 4987.08 375.96" xmlns="http://www.w3.org/2000/svg" xmlns:xlink="http://www.w3.org/1999/xlink">
<g id="graph0" class="graph" transform="scale(1 1) rotate(0) translate(4 371.96)">
<title>Struc</title>
<polygon fill="white" stroke="none" points="-4,4 -4,-371.96 4983.08,-371.96 4983.08,4 -4,4"/>
<!-- n1 -->
<g id="node1" class="node"><title>n1</title>
<ellipse fill="none" stroke="black" cx="3224.08" cy="-341.09" rx="56.6372" ry="26.7407"/>
<text text-anchor="middle" x="3224.08" y="-344.89" font-family="Times,serif" font-size="14.00">&lt;camera2&gt;</text>
<text text-anchor="middle" x="3224.08" y="-329.89" font-family="Times,serif" font-size="14.00">camera</text>
</g>
<!-- n15 -->
<g id="node15" class="node"><title>n15</title>
<ellipse fill="none" stroke="black" cx="1440.08" cy="-131.61" rx="53.9813" ry="26.7407"/>
<text text-anchor="middle" x="1440.08" y="-135.41" font-family="Times,serif" font-size="14.00">&lt;low_res&gt;</text>
<text text-anchor="middle" x="1440.08" y="-120.41" font-family="Times,serif" font-size="14.00">mode</text>
</g>
<!-- n1&#45;&gt;n15 -->
<g id="edge50" class="edge"><title>n1&#45;&gt;n15</title>
<path fill="none" stroke="black" d="M3184.29,-321.844C3175.81,-318.712 3166.78,-315.921 3158.08,-314.22 3003.66,-284.019 1899.15,-305.558 1742.08,-296.22 1672.93,-292.109 1478.41,-314.735 1432.08,-263.22 1409.19,-237.758 1416.03,-197.001 1425.52,-167.787"/>
<polygon fill="black" stroke="black" points="1428.96,-168.574 1428.95,-157.979 1422.35,-166.266 1428.96,-168.574"/>
<text text-anchor="middle" x="1476.08" y="-232.65" font-family="Times,serif" font-size="14.00"> static(supports)</text>
</g>
<!-- n28 -->
<g id="node28" class="node"><title>n28</title>
<ellipse fill="none" stroke="black" cx="4288.08" cy="-236.35" rx="67.7647" ry="26.7407"/>
<text text-anchor="middle" x="4288.08" y="-240.15" font-family="Times,serif" font-size="14.00">&lt;objective13&gt;</text>
<text text-anchor="middle" x="4288.08" y="-225.15" font-family="Times,serif" font-size="14.00">objective</text>
</g>
<!-- n1&#45;&gt;n28 -->
<g id="edge17" class="edge"><title>n1&#45;&gt;n28</title>
<path fill="none" stroke="black" d="M3280.68,-340.524C3432.82,-340.654 3862.67,-334.182 4211.08,-263.22 4217.34,-261.946 4223.79,-260.313 4230.18,-258.488"/>
<polygon fill="black" stroke="black" points="4231.55,-261.729 4240.11,-255.487 4229.53,-255.028 4231.55,-261.729"/>
<text text-anchor="middle" x="4173.58" y="-285.02" font-family="Times,serif" font-size="14.00"> static(calibration_target)</text>
</g>
<!-- n29 -->
<g id="node29" class="node"><title>n29</title>
<ellipse fill="none" stroke="black" cx="3112.08" cy="-236.35" rx="48.1667" ry="26.7407"/>
<text text-anchor="middle" x="3112.08" y="-240.15" font-family="Times,serif" font-size="14.00">&lt;rover0&gt;</text>
<text text-anchor="middle" x="3112.08" y="-225.15" font-family="Times,serif" font-size="14.00">rover</text>
</g>
<!-- n1&#45;&gt;n29 -->
<g id="edge8" class="edge"><title>n1&#45;&gt;n29</title>
<path fill="none" stroke="black" d="M3198.67,-316.777C3182.55,-301.991 3161.55,-282.731 3144.27,-266.88"/>
<polygon fill="black" stroke="black" points="3146.36,-264.046 3136.63,-259.865 3141.63,-269.204 3146.36,-264.046"/>
<text text-anchor="middle" x="3221.58" y="-285.02" font-family="Times,serif" font-size="14.00"> static(on_board)</text>
</g>
<!-- n2 -->
<g id="node2" class="node"><title>n2</title>
<ellipse fill="none" stroke="black" cx="586.083" cy="-236.35" rx="62.8651" ry="26.7407"/>
<text text-anchor="middle" x="586.083" y="-240.15" font-family="Times,serif" font-size="14.00">&lt;objective2&gt;</text>
<text text-anchor="middle" x="586.083" y="-225.15" font-family="Times,serif" font-size="14.00">objective</text>
</g>
<!-- n4 -->
<g id="node4" class="node"><title>n4</title>
<ellipse fill="none" stroke="black" cx="2942.08" cy="-26.8701" rx="63.7795" ry="26.7407"/>
<text text-anchor="middle" x="2942.08" y="-30.6701" font-family="Times,serif" font-size="14.00">&lt;waypoint1&gt;</text>
<text text-anchor="middle" x="2942.08" y="-15.6701" font-family="Times,serif" font-size="14.00">waypoint</text>
</g>
<!-- n2&#45;&gt;n4 -->
<g id="edge26" class="edge"><title>n2&#45;&gt;n4</title>
<path fill="none" stroke="black" d="M558.764,-211.617C553.588,-205.618 548.913,-198.784 546.083,-191.48 536.914,-167.816 516.634,-138.416 552.083,-104.74 638.042,-23.0811 2474.24,-25.9515 2868.11,-27.5128"/>
<polygon fill="black" stroke="black" points="2868.23,-31.0133 2878.25,-27.554 2868.26,-24.0133 2868.23,-31.0133"/>
<text text-anchor="middle" x="608.083" y="-127.91" font-family="Times,serif" font-size="14.00"> static(visible_from)</text>
</g>
<!-- n2&#45;&gt;n15 -->
<g id="edge47" class="edge"><title>n2&#45;&gt;n15</title>
<path fill="none" stroke="black" d="M644.634,-226.138C682.819,-220.467 733.794,-213.532 779.083,-209.48 867.266,-201.592 1092.81,-218.619 1177.08,-191.48 1188.7,-187.739 1188.75,-181 1200.08,-176.48 1257.39,-153.636 1327.17,-142.585 1376.68,-137.303"/>
<polygon fill="black" stroke="black" points="1377.33,-140.755 1386.93,-136.261 1376.62,-133.791 1377.33,-140.755"/>
<text text-anchor="middle" x="1292.08" y="-180.28" font-family="Times,serif" font-size="14.00"> end(communicated_image_data)</text>
</g>
<!-- n19 -->
<g id="node19" class="node"><title>n19</title>
<ellipse fill="none" stroke="black" cx="48.0833" cy="-131.61" rx="48.1667" ry="26.7407"/>
<text text-anchor="middle" x="48.0833" y="-135.41" font-family="Times,serif" font-size="14.00">&lt;colour&gt;</text>
<text text-anchor="middle" x="48.0833" y="-120.41" font-family="Times,serif" font-size="14.00">mode</text>
</g>
<!-- n2&#45;&gt;n19 -->
<g id="edge42" class="edge"><title>n2&#45;&gt;n19</title>
<path fill="none" stroke="black" d="M541.724,-217.129C532.712,-214.079 523.198,-211.314 514.083,-209.48 363.557,-179.197 317.758,-229.834 169.083,-191.48 140.726,-184.165 111.126,-169.897 88.3007,-157.241"/>
<polygon fill="black" stroke="black" points="90.0139,-154.189 79.5877,-152.306 86.564,-160.279 90.0139,-154.189"/>
<text text-anchor="middle" x="261.083" y="-180.28" font-family="Times,serif" font-size="14.00"> end(communicated_image_data)</text>
</g>
<!-- n21 -->
<g id="node21" class="node"><title>n21</title>
<ellipse fill="none" stroke="black" cx="730.083" cy="-131.61" rx="56.6372" ry="26.7407"/>
<text text-anchor="middle" x="730.083" y="-135.41" font-family="Times,serif" font-size="14.00">&lt;high_res&gt;</text>
<text text-anchor="middle" x="730.083" y="-120.41" font-family="Times,serif" font-size="14.00">mode</text>
</g>
<!-- n2&#45;&gt;n21 -->
<g id="edge15" class="edge"><title>n2&#45;&gt;n21</title>
<path fill="none" stroke="black" d="M560.481,-211.51C551.504,-200.294 545.553,-187.086 554.083,-176.48 577.468,-147.405 599.861,-167.434 636.083,-158.48 647.894,-155.561 660.482,-152.242 672.48,-148.977"/>
<polygon fill="black" stroke="black" points="673.673,-152.279 682.39,-146.258 671.82,-145.529 673.673,-152.279"/>
<text text-anchor="middle" x="646.083" y="-180.28" font-family="Times,serif" font-size="14.00"> end(communicated_image_data)</text>
</g>
<!-- n22 -->
<g id="node22" class="node"><title>n22</title>
<ellipse fill="none" stroke="black" cx="3443.08" cy="-131.61" rx="63.7795" ry="26.7407"/>
<text text-anchor="middle" x="3443.08" y="-135.41" font-family="Times,serif" font-size="14.00">&lt;waypoint0&gt;</text>
<text text-anchor="middle" x="3443.08" y="-120.41" font-family="Times,serif" font-size="14.00">waypoint</text>
</g>
<!-- n2&#45;&gt;n22 -->
<g id="edge14" class="edge"><title>n2&#45;&gt;n22</title>
<path fill="none" stroke="black" d="M644.171,-225.735C682.386,-219.862 733.569,-212.852 779.083,-209.48 847.182,-204.435 1943.74,-214.347 2008.08,-191.48 2018.22,-187.877 2016.94,-180.077 2027.08,-176.48 2097.15,-151.628 3291.78,-170.826 3365.08,-158.48 3372.42,-157.245 3380,-155.439 3387.43,-153.347"/>
<polygon fill="black" stroke="black" points="3388.5,-156.681 3397.07,-150.455 3386.49,-149.976 3388.5,-156.681"/>
<text text-anchor="middle" x="2083.08" y="-180.28" font-family="Times,serif" font-size="14.00"> static(visible_from)</text>
</g>
<!-- n3 -->
<g id="node3" class="node"><title>n3</title>
<ellipse fill="none" stroke="black" cx="437.083" cy="-236.35" rx="67.7647" ry="26.7407"/>
<text text-anchor="middle" x="437.083" y="-240.15" font-family="Times,serif" font-size="14.00">&lt;objective15&gt;</text>
<text text-anchor="middle" x="437.083" y="-225.15" font-family="Times,serif" font-size="14.00">objective</text>
</g>
<!-- n3&#45;&gt;n4 -->
<g id="edge10" class="edge"><title>n3&#45;&gt;n4</title>
<path fill="none" stroke="black" d="M383.713,-219.616C362.943,-210.189 345.675,-196.145 353.083,-176.48 396.425,-61.4416 486.694,-83.2879 609.083,-71.7401 1063.01,-28.9106 2522.44,-27.4821 2868.15,-27.7612"/>
<polygon fill="black" stroke="black" points="2868.29,-31.2613 2878.3,-27.7702 2868.3,-24.2613 2868.29,-31.2613"/>
<text text-anchor="middle" x="461.083" y="-127.91" font-family="Times,serif" font-size="14.00"> static(visible_from)</text>
</g>
<!-- n3&#45;&gt;n21 -->
<g id="edge27" class="edge"><title>n3&#45;&gt;n21</title>
<path fill="none" stroke="black" d="M388.459,-217.387C366.205,-206.548 347.657,-191.885 362.083,-176.48 382.938,-154.21 605.998,-163.554 636.083,-158.48 648.463,-156.392 661.56,-153.343 673.919,-150.064"/>
<polygon fill="black" stroke="black" points="674.926,-153.417 683.645,-147.399 673.076,-146.666 674.926,-153.417"/>
<text text-anchor="middle" x="454.083" y="-180.28" font-family="Times,serif" font-size="14.00"> end(communicated_image_data)</text>
</g>
<!-- n3&#45;&gt;n22 -->
<g id="edge31" class="edge"><title>n3&#45;&gt;n22</title>
<path fill="none" stroke="black" d="M484.136,-216.98C493.894,-213.9 504.213,-211.162 514.083,-209.48 662.076,-184.271 1720.01,-230.105 1865.08,-191.48 1878.35,-187.948 1878.82,-180.005 1892.08,-176.48 2050.28,-134.456 3203.66,-185.564 3365.08,-158.48 3372.42,-157.249 3380.01,-155.446 3387.43,-153.355"/>
<polygon fill="black" stroke="black" points="3388.5,-156.69 3397.07,-150.465 3386.49,-149.985 3388.5,-156.69"/>
<text text-anchor="middle" x="1948.08" y="-180.28" font-family="Times,serif" font-size="14.00"> static(visible_from)</text>
</g>
<!-- n4&#45;&gt;n4 -->
<g id="edge1" class="edge"><title>n4&#45;&gt;n4</title>
<path fill="none" stroke="black" d="M3001.89,-36.3053C3014.57,-35.3472 3023.72,-32.2021 3023.72,-26.8701 3023.72,-23.121 3019.2,-20.4531 3012.1,-18.8664"/>
<polygon fill="black" stroke="black" points="3012.28,-15.3569 3001.89,-17.4349 3011.31,-22.2891 3012.28,-15.3569"/>
<text text-anchor="middle" x="3108.22" y="-38.1701" font-family="Times,serif" font-size="14.00"> end(communicated_soil_data)</text>
<text text-anchor="middle" x="3108.22" y="-23.1701" font-family="Times,serif" font-size="14.00">init(at_soil_sample)</text>
<text text-anchor="middle" x="3108.22" y="-8.17006" font-family="Times,serif" font-size="14.00">init(at_rock_sample)</text>
</g>
<!-- n4&#45;&gt;n22 -->
<g id="edge12" class="edge"><title>n4&#45;&gt;n22</title>
<path fill="none" stroke="black" d="M3005.61,-29.3381C3110.3,-32.569 3313.95,-42.5093 3379.08,-71.7401 3392.83,-77.9082 3405.58,-88.2116 3416.03,-98.4896"/>
<polygon fill="black" stroke="black" points="3413.74,-101.157 3423.21,-105.91 3418.77,-96.2895 3413.74,-101.157"/>
<text text-anchor="middle" x="3441.08" y="-75.5401" font-family="Times,serif" font-size="14.00"> static(visible)</text>
</g>
<!-- n5 -->
<g id="node5" class="node"><title>n5</title>
<ellipse fill="none" stroke="black" cx="1746.08" cy="-341.09" rx="56.6372" ry="26.7407"/>
<text text-anchor="middle" x="1746.08" y="-344.89" font-family="Times,serif" font-size="14.00">&lt;camera0&gt;</text>
<text text-anchor="middle" x="1746.08" y="-329.89" font-family="Times,serif" font-size="14.00">camera</text>
</g>
<!-- n13 -->
<g id="node13" class="node"><title>n13</title>
<ellipse fill="none" stroke="black" cx="1746.08" cy="-236.35" rx="62.8651" ry="26.7407"/>
<text text-anchor="middle" x="1746.08" y="-240.15" font-family="Times,serif" font-size="14.00">&lt;objective8&gt;</text>
<text text-anchor="middle" x="1746.08" y="-225.15" font-family="Times,serif" font-size="14.00">objective</text>
</g>
<!-- n5&#45;&gt;n13 -->
<g id="edge37" class="edge"><title>n5&#45;&gt;n13</title>
<path fill="none" stroke="black" d="M1746.08,-314.165C1746.08,-301.875 1746.08,-286.987 1746.08,-273.602"/>
<polygon fill="black" stroke="black" points="1749.58,-273.268 1746.08,-263.268 1742.58,-273.268 1749.58,-273.268"/>
<text text-anchor="middle" x="1814.58" y="-285.02" font-family="Times,serif" font-size="14.00"> static(calibration_target)</text>
</g>
<!-- n5&#45;&gt;n21 -->
<g id="edge40" class="edge"><title>n5&#45;&gt;n21</title>
<path fill="none" stroke="black" d="M1690.05,-337.095C1507.22,-327.064 935.363,-293.579 858.083,-263.22 809.823,-244.262 800.61,-230.164 766.083,-191.48 759.452,-184.051 753.332,-175.239 748.089,-166.726"/>
<polygon fill="black" stroke="black" points="751.056,-164.867 742.96,-158.034 745.028,-168.425 751.056,-164.867"/>
<text text-anchor="middle" x="902.083" y="-232.65" font-family="Times,serif" font-size="14.00"> static(supports)</text>
</g>
<!-- n5&#45;&gt;n29 -->
<g id="edge25" class="edge"><title>n5&#45;&gt;n29</title>
<path fill="none" stroke="black" d="M1802.33,-338.002C2037.11,-329.122 2932.36,-293.559 3055.08,-263.22 3059.47,-262.135 3063.94,-260.718 3068.35,-259.107"/>
<polygon fill="black" stroke="black" points="3069.85,-262.277 3077.85,-255.322 3067.26,-255.775 3069.85,-262.277"/>
<text text-anchor="middle" x="2938.58" y="-285.02" font-family="Times,serif" font-size="14.00"> static(on_board)</text>
</g>
<!-- n6 -->
<g id="node6" class="node"><title>n6</title>
<ellipse fill="none" stroke="black" cx="2690.08" cy="-236.35" rx="67.7647" ry="26.7407"/>
<text text-anchor="middle" x="2690.08" y="-240.15" font-family="Times,serif" font-size="14.00">&lt;objective16&gt;</text>
<text text-anchor="middle" x="2690.08" y="-225.15" font-family="Times,serif" font-size="14.00">objective</text>
</g>
<!-- n6&#45;&gt;n4 -->
<g id="edge16" class="edge"><title>n6&#45;&gt;n4</title>
<path fill="none" stroke="black" d="M2743.24,-219.558C2757.17,-212.989 2770.86,-203.902 2780.08,-191.48 2803.36,-160.126 2771.21,-136.388 2794.08,-104.74 2814.67,-76.2615 2849,-57.5085 2879.42,-45.6602"/>
<polygon fill="black" stroke="black" points="2880.98,-48.8147 2889.13,-42.0524 2878.54,-42.2526 2880.98,-48.8147"/>
<text text-anchor="middle" x="2850.08" y="-127.91" font-family="Times,serif" font-size="14.00"> static(visible_from)</text>
</g>
<!-- n6&#45;&gt;n22 -->
<g id="edge55" class="edge"><title>n6&#45;&gt;n22</title>
<path fill="none" stroke="black" d="M2738.07,-217.313C2747.58,-214.287 2757.56,-211.484 2767.08,-209.48 2853.55,-191.285 2883.01,-224.213 2965.08,-191.48 2975.08,-187.495 2974.01,-180.248 2984.08,-176.48 3063.48,-146.8 3281.75,-173.966 3365.08,-158.48 3372.32,-157.136 3379.8,-155.284 3387.14,-153.183"/>
<polygon fill="black" stroke="black" points="3388.47,-156.438 3397.02,-150.188 3386.44,-149.739 3388.47,-156.438"/>
<text text-anchor="middle" x="3040.08" y="-180.28" font-family="Times,serif" font-size="14.00"> static(visible_from)</text>
</g>
<!-- n7 -->
<g id="node7" class="node"><title>n7</title>
<ellipse fill="none" stroke="black" cx="3451.08" cy="-236.35" rx="67.7647" ry="26.7407"/>
<text text-anchor="middle" x="3451.08" y="-240.15" font-family="Times,serif" font-size="14.00">&lt;objective14&gt;</text>
<text text-anchor="middle" x="3451.08" y="-225.15" font-family="Times,serif" font-size="14.00">objective</text>
</g>
<!-- n7&#45;&gt;n22 -->
<g id="edge20" class="edge"><title>n7&#45;&gt;n22</title>
<path fill="none" stroke="black" d="M3458.06,-209.49C3459.94,-199.19 3460.99,-187.247 3459.08,-176.48 3458.58,-173.636 3457.91,-170.734 3457.12,-167.845"/>
<polygon fill="black" stroke="black" points="3460.43,-166.678 3454.1,-158.178 3453.74,-168.766 3460.43,-166.678"/>
<text text-anchor="middle" x="3517.08" y="-180.28" font-family="Times,serif" font-size="14.00"> static(visible_from)</text>
</g>
<!-- n8 -->
<g id="node8" class="node"><title>n8</title>
<ellipse fill="none" stroke="black" cx="2839.08" cy="-236.35" rx="62.8651" ry="26.7407"/>
<text text-anchor="middle" x="2839.08" y="-240.15" font-family="Times,serif" font-size="14.00">&lt;objective6&gt;</text>
<text text-anchor="middle" x="2839.08" y="-225.15" font-family="Times,serif" font-size="14.00">objective</text>
</g>
<!-- n8&#45;&gt;n4 -->
<g id="edge22" class="edge"><title>n8&#45;&gt;n4</title>
<path fill="none" stroke="black" d="M2828.88,-209.575C2826.2,-198.334 2825.81,-185.656 2833.08,-176.48 2854.92,-148.946 2885.1,-183.199 2910.08,-158.48 2934.91,-133.912 2941.65,-93.4448 2942.96,-64.0568"/>
<polygon fill="black" stroke="black" points="2946.47,-63.8665 2943.22,-53.7809 2939.47,-63.6888 2946.47,-63.8665"/>
<text text-anchor="middle" x="2994.08" y="-127.91" font-family="Times,serif" font-size="14.00"> static(visible_from)</text>
</g>
<!-- n8&#45;&gt;n22 -->
<g id="edge44" class="edge"><title>n8&#45;&gt;n22</title>
<path fill="none" stroke="black" d="M2883.89,-217.306C2892.79,-214.281 2902.14,-211.48 2911.08,-209.48 2993.43,-191.07 3017.59,-209.215 3100.08,-191.48 3120.28,-187.138 3123.85,-180.684 3144.08,-176.48 3240.57,-156.428 3268.52,-178.132 3365.08,-158.48 3372.2,-157.033 3379.56,-155.139 3386.8,-153.033"/>
<polygon fill="black" stroke="black" points="3388.01,-156.322 3396.55,-150.053 3385.97,-149.628 3388.01,-156.322"/>
<text text-anchor="middle" x="3200.08" y="-180.28" font-family="Times,serif" font-size="14.00"> static(visible_from)</text>
</g>
<!-- n9 -->
<g id="node9" class="node"><title>n9</title>
<ellipse fill="none" stroke="black" cx="3600.08" cy="-236.35" rx="62.8651" ry="26.7407"/>
<text text-anchor="middle" x="3600.08" y="-240.15" font-family="Times,serif" font-size="14.00">&lt;objective1&gt;</text>
<text text-anchor="middle" x="3600.08" y="-225.15" font-family="Times,serif" font-size="14.00">objective</text>
</g>
<!-- n9&#45;&gt;n22 -->
<g id="edge9" class="edge"><title>n9&#45;&gt;n22</title>
<path fill="none" stroke="black" d="M3595.18,-209.336C3591.83,-197.91 3586.25,-185.149 3577.08,-176.48 3559.65,-160 3535.93,-149.708 3513.29,-143.282"/>
<polygon fill="black" stroke="black" points="3513.89,-139.822 3503.33,-140.676 3512.12,-146.594 3513.89,-139.822"/>
<text text-anchor="middle" x="3644.08" y="-180.28" font-family="Times,serif" font-size="14.00"> static(visible_from)</text>
</g>
<!-- n10 -->
<g id="node10" class="node"><title>n10</title>
<ellipse fill="none" stroke="black" cx="2998.08" cy="-341.09" rx="67.3507" ry="26.7407"/>
<text text-anchor="middle" x="2998.08" y="-344.89" font-family="Times,serif" font-size="14.00">&lt;rover0store&gt;</text>
<text text-anchor="middle" x="2998.08" y="-329.89" font-family="Times,serif" font-size="14.00">store</text>
</g>
<!-- n10&#45;&gt;n10 -->
<g id="edge2" class="edge"><title>n10&#45;&gt;n10</title>
<path fill="none" stroke="black" d="M3061.23,-350.468C3074.07,-349.447 3083.26,-346.321 3083.26,-341.09 3083.26,-337.413 3078.71,-334.775 3071.55,-333.179"/>
<polygon fill="black" stroke="black" points="3071.62,-329.653 3061.23,-331.712 3070.64,-336.584 3071.62,-329.653"/>
<text text-anchor="middle" x="3116.26" y="-337.39" font-family="Times,serif" font-size="14.00"> init(empty)</text>
</g>
<!-- n10&#45;&gt;n29 -->
<g id="edge34" class="edge"><title>n10&#45;&gt;n29</title>
<path fill="none" stroke="black" d="M3024.52,-316.262C3040.95,-301.457 3062.19,-282.319 3079.63,-266.598"/>
<polygon fill="black" stroke="black" points="3082.26,-268.938 3087.35,-259.643 3077.58,-263.738 3082.26,-268.938"/>
<text text-anchor="middle" x="3105.08" y="-285.02" font-family="Times,serif" font-size="14.00"> static(store_of)</text>
</g>
<!-- n11 -->
<g id="node11" class="node"><title>n11</title>
<ellipse fill="none" stroke="black" cx="1018.08" cy="-236.35" rx="62.8651" ry="26.7407"/>
<text text-anchor="middle" x="1018.08" y="-240.15" font-family="Times,serif" font-size="14.00">&lt;objective4&gt;</text>
<text text-anchor="middle" x="1018.08" y="-225.15" font-family="Times,serif" font-size="14.00">objective</text>
</g>
<!-- n11&#45;&gt;n21 -->
<g id="edge54" class="edge"><title>n11&#45;&gt;n21</title>
<path fill="none" stroke="black" d="M962.79,-223.443C941.092,-218.892 915.954,-213.769 893.083,-209.48 845.686,-200.592 828.666,-214.113 786.083,-191.48 774.092,-185.107 763.201,-175.203 754.278,-165.324"/>
<polygon fill="black" stroke="black" points="756.721,-162.796 747.56,-157.475 751.403,-167.348 756.721,-162.796"/>
<text text-anchor="middle" x="878.083" y="-180.28" font-family="Times,serif" font-size="14.00"> end(communicated_image_data)</text>
</g>
<!-- n11&#45;&gt;n22 -->
<g id="edge56" class="edge"><title>n11&#45;&gt;n22</title>
<path fill="none" stroke="black" d="M1077.07,-226.681C1120.4,-220.704 1180.77,-213.191 1234.08,-209.48 1284.47,-205.973 2095.53,-208.517 2143.08,-191.48 2153.21,-187.851 2151.95,-180.085 2162.08,-176.48 2225.06,-154.087 3299.18,-169.631 3365.08,-158.48 3372.42,-157.239 3380,-155.43 3387.43,-153.336"/>
<polygon fill="black" stroke="black" points="3388.5,-156.67 3397.07,-150.443 3386.48,-149.966 3388.5,-156.67"/>
<text text-anchor="middle" x="2218.08" y="-180.28" font-family="Times,serif" font-size="14.00"> static(visible_from)</text>
</g>
<!-- n12 -->
<g id="node12" class="node"><title>n12</title>
<ellipse fill="none" stroke="black" cx="2541.08" cy="-236.35" rx="62.8651" ry="26.7407"/>
<text text-anchor="middle" x="2541.08" y="-240.15" font-family="Times,serif" font-size="14.00">&lt;objective5&gt;</text>
<text text-anchor="middle" x="2541.08" y="-225.15" font-family="Times,serif" font-size="14.00">objective</text>
</g>
<!-- n12&#45;&gt;n4 -->
<g id="edge28" class="edge"><title>n12&#45;&gt;n4</title>
<path fill="none" stroke="black" d="M2586.33,-217.396C2595.1,-214.401 2604.3,-211.588 2613.08,-209.48 2644.01,-202.058 2734.05,-215.344 2755.08,-191.48 2759.49,-186.479 2759.28,-181.66 2755.08,-176.48 2730.77,-146.48 2694.4,-188.481 2670.08,-158.48 2655.05,-139.924 2655.67,-123.788 2670.08,-104.74 2694.47,-72.5034 2800.12,-49.922 2872.34,-37.9198"/>
<polygon fill="black" stroke="black" points="2872.99,-41.3601 2882.3,-36.2966 2871.87,-34.4514 2872.99,-41.3601"/>
<text text-anchor="middle" x="2726.08" y="-127.91" font-family="Times,serif" font-size="14.00"> static(visible_from)</text>
</g>
<!-- n12&#45;&gt;n15 -->
<g id="edge45" class="edge"><title>n12&#45;&gt;n15</title>
<path fill="none" stroke="black" d="M2494.77,-218.116C2476.18,-210.656 2454.77,-201.37 2436.08,-191.48 2425.3,-185.771 2424.74,-180.092 2413.08,-176.48 2330.28,-150.821 1719.51,-165.249 1633.08,-158.48 1588.72,-155.006 1538.96,-148.265 1501.07,-142.536"/>
<polygon fill="black" stroke="black" points="1501.13,-139.004 1490.72,-140.95 1500.07,-145.923 1501.13,-139.004"/>
<text text-anchor="middle" x="2528.08" y="-180.28" font-family="Times,serif" font-size="14.00"> end(communicated_image_data)</text>
</g>
<!-- n12&#45;&gt;n22 -->
<g id="edge11" class="edge"><title>n12&#45;&gt;n22</title>
<path fill="none" stroke="black" d="M2585.91,-217.381C2594.8,-214.35 2604.15,-211.527 2613.08,-209.48 2687.14,-192.513 2708.13,-203.921 2783.08,-191.48 2812.76,-186.555 2819.25,-180.355 2849.08,-176.48 3076.64,-146.921 3139.22,-199.012 3365.08,-158.48 3372.32,-157.181 3379.81,-155.355 3387.15,-153.269"/>
<polygon fill="black" stroke="black" points="3388.48,-156.525 3397.04,-150.286 3386.45,-149.824 3388.48,-156.525"/>
<text text-anchor="middle" x="2905.08" y="-180.28" font-family="Times,serif" font-size="14.00"> static(visible_from)</text>
</g>
<!-- n13&#45;&gt;n15 -->
<g id="edge52" class="edge"><title>n13&#45;&gt;n15</title>
<path fill="none" stroke="black" d="M1713.75,-212.948C1694.56,-200.575 1669.31,-185.857 1645.08,-176.48 1598.67,-158.519 1543.36,-147.229 1501.9,-140.609"/>
<polygon fill="black" stroke="black" points="1502.35,-137.138 1491.93,-139.065 1501.28,-144.055 1502.35,-137.138"/>
<text text-anchor="middle" x="1769.08" y="-180.28" font-family="Times,serif" font-size="14.00"> end(communicated_image_data)</text>
</g>
<!-- n13&#45;&gt;n22 -->
<g id="edge57" class="edge"><title>n13&#45;&gt;n22</title>
<path fill="none" stroke="black" d="M1808.92,-234.691C1930.7,-232.676 2194.23,-224.515 2278.08,-191.48 2288.09,-187.537 2286.95,-180.094 2297.08,-176.48 2352.98,-156.547 3306.58,-168.435 3365.08,-158.48 3372.42,-157.232 3380,-155.419 3387.43,-153.323"/>
<polygon fill="black" stroke="black" points="3388.49,-156.657 3397.06,-150.428 3386.48,-149.953 3388.49,-156.657"/>
<text text-anchor="middle" x="2353.08" y="-180.28" font-family="Times,serif" font-size="14.00"> static(visible_from)</text>
</g>
<!-- n14 -->
<g id="node14" class="node"><title>n14</title>
<ellipse fill="none" stroke="black" cx="2983.08" cy="-236.35" rx="62.8651" ry="26.7407"/>
<text text-anchor="middle" x="2983.08" y="-240.15" font-family="Times,serif" font-size="14.00">&lt;objective9&gt;</text>
<text text-anchor="middle" x="2983.08" y="-225.15" font-family="Times,serif" font-size="14.00">objective</text>
</g>
<!-- n14&#45;&gt;n4 -->
<g id="edge19" class="edge"><title>n14&#45;&gt;n4</title>
<path fill="none" stroke="black" d="M3027.9,-217.34C3036.79,-214.312 3046.14,-211.501 3055.08,-209.48 3094.29,-200.617 3208.11,-221.286 3235.08,-191.48 3239.56,-186.537 3238.57,-182.161 3235.08,-176.48 3186.22,-96.915 3080.04,-58.3396 3009.83,-40.8661"/>
<polygon fill="black" stroke="black" points="3010.28,-37.3754 2999.74,-38.4388 3008.65,-44.1812 3010.28,-37.3754"/>
<text text-anchor="middle" x="3278.08" y="-127.91" font-family="Times,serif" font-size="14.00"> static(visible_from)</text>
</g>
<!-- n14&#45;&gt;n22 -->
<g id="edge24" class="edge"><title>n14&#45;&gt;n22</title>
<path fill="none" stroke="black" d="M3027.88,-217.253C3036.78,-214.233 3046.13,-211.447 3055.08,-209.48 3144.41,-189.854 3175.08,-225.23 3260.08,-191.48 3270.08,-187.51 3269.34,-181.037 3279.08,-176.48 3314.46,-159.942 3327.38,-168.643 3365.08,-158.48 3371.65,-156.709 3378.49,-154.7 3385.25,-152.602"/>
<polygon fill="black" stroke="black" points="3386.6,-155.845 3395.08,-149.484 3384.49,-149.172 3386.6,-155.845"/>
<text text-anchor="middle" x="3335.08" y="-180.28" font-family="Times,serif" font-size="14.00"> static(visible_from)</text>
</g>
<!-- n16 -->
<g id="node16" class="node"><title>n16</title>
<ellipse fill="none" stroke="black" cx="4735.08" cy="-236.35" rx="62.8651" ry="26.7407"/>
<text text-anchor="middle" x="4735.08" y="-240.15" font-family="Times,serif" font-size="14.00">&lt;objective0&gt;</text>
<text text-anchor="middle" x="4735.08" y="-225.15" font-family="Times,serif" font-size="14.00">objective</text>
</g>
<!-- n16&#45;&gt;n4 -->
<g id="edge38" class="edge"><title>n16&#45;&gt;n4</title>
<path fill="none" stroke="black" d="M4734.05,-209.415C4732.16,-197.573 4727.79,-184.443 4718.08,-176.48 4505.34,-1.90048 3758.35,-94.4795 3484.08,-71.7401 3315.87,-57.7935 3118.24,-41.9286 3014.34,-33.628"/>
<polygon fill="black" stroke="black" points="3014.52,-30.1316 3004.27,-32.8243 3013.96,-37.1094 3014.52,-30.1316"/>
<text text-anchor="middle" x="4742.08" y="-127.91" font-family="Times,serif" font-size="14.00"> static(visible_from)</text>
</g>
<!-- n16&#45;&gt;n22 -->
<g id="edge49" class="edge"><title>n16&#45;&gt;n22</title>
<path fill="none" stroke="black" d="M4688.31,-218.246C4679.93,-215.267 4671.26,-212.24 4663.08,-209.48 4637.91,-200.987 4630.1,-202.841 4606.08,-191.48 4595.05,-186.261 4594.71,-180.182 4583.08,-176.48 4482.14,-144.347 3753.71,-135.282 3517.1,-133.171"/>
<polygon fill="black" stroke="black" points="3516.91,-129.67 3506.88,-133.082 3516.85,-136.669 3516.91,-129.67"/>
<text text-anchor="middle" x="4662.08" y="-180.28" font-family="Times,serif" font-size="14.00"> static(visible_from)</text>
</g>
<!-- n17 -->
<g id="node17" class="node"><title>n17</title>
<ellipse fill="none" stroke="black" cx="3744.08" cy="-236.35" rx="62.8651" ry="26.7407"/>
<text text-anchor="middle" x="3744.08" y="-240.15" font-family="Times,serif" font-size="14.00">&lt;objective7&gt;</text>
<text text-anchor="middle" x="3744.08" y="-225.15" font-family="Times,serif" font-size="14.00">objective</text>
</g>
<!-- n17&#45;&gt;n22 -->
<g id="edge39" class="edge"><title>n17&#45;&gt;n22</title>
<path fill="none" stroke="black" d="M3732.61,-209.636C3725.97,-197.697 3716.46,-184.418 3704.08,-176.48 3673.55,-156.897 3581.39,-144.782 3515.24,-138.373"/>
<polygon fill="black" stroke="black" points="3515.56,-134.887 3505.27,-137.43 3514.9,-141.856 3515.56,-134.887"/>
<text text-anchor="middle" x="3776.08" y="-180.28" font-family="Times,serif" font-size="14.00"> static(visible_from)</text>
</g>
<!-- n18 -->
<g id="node18" class="node"><title>n18</title>
<ellipse fill="none" stroke="black" cx="3893.08" cy="-236.35" rx="67.7647" ry="26.7407"/>
<text text-anchor="middle" x="3893.08" y="-240.15" font-family="Times,serif" font-size="14.00">&lt;objective10&gt;</text>
<text text-anchor="middle" x="3893.08" y="-225.15" font-family="Times,serif" font-size="14.00">objective</text>
</g>
<!-- n18&#45;&gt;n22 -->
<g id="edge32" class="edge"><title>n18&#45;&gt;n22</title>
<path fill="none" stroke="black" d="M3875.39,-210.134C3865.34,-197.857 3851.66,-184.129 3836.08,-176.48 3781.55,-149.708 3614.58,-138.985 3516.7,-134.917"/>
<polygon fill="black" stroke="black" points="3516.71,-131.414 3506.58,-134.509 3516.43,-138.409 3516.71,-131.414"/>
<text text-anchor="middle" x="3912.08" y="-180.28" font-family="Times,serif" font-size="14.00"> static(visible_from)</text>
</g>
<!-- n20 -->
<g id="node20" class="node"><title>n20</title>
<ellipse fill="none" stroke="black" cx="4031.08" cy="-236.35" rx="51.7379" ry="26.7407"/>
<text text-anchor="middle" x="4031.08" y="-240.15" font-family="Times,serif" font-size="14.00">&lt;general&gt;</text>
<text text-anchor="middle" x="4031.08" y="-225.15" font-family="Times,serif" font-size="14.00">lander</text>
</g>
<!-- n20&#45;&gt;n20 -->
<g id="edge3" class="edge"><title>n20&#45;&gt;n20</title>
<path fill="none" stroke="black" d="M4079.56,-245.966C4091.66,-245.294 4100.7,-242.089 4100.7,-236.35 4100.7,-232.405 4096.43,-229.657 4089.83,-228.107"/>
<polygon fill="black" stroke="black" points="4089.94,-224.59 4079.56,-226.734 4089.01,-231.529 4089.94,-224.59"/>
<text text-anchor="middle" x="4151.2" y="-232.65" font-family="Times,serif" font-size="14.00"> init(channel_free)</text>
</g>
<!-- n20&#45;&gt;n22 -->
<g id="edge51" class="edge"><title>n20&#45;&gt;n22</title>
<path fill="none" stroke="black" d="M4013.44,-210.849C4002.95,-198.292 3988.5,-184.078 3972.08,-176.48 3893.18,-139.957 3643.19,-133.441 3517.19,-132.539"/>
<polygon fill="black" stroke="black" points="3516.89,-129.037 3506.86,-132.476 3516.84,-136.037 3516.89,-129.037"/>
<text text-anchor="middle" x="4038.08" y="-180.28" font-family="Times,serif" font-size="14.00"> static(at_lander)</text>
</g>
<!-- n22&#45;&gt;n4 -->
<g id="edge35" class="edge"><title>n22&#45;&gt;n4</title>
<path fill="none" stroke="black" d="M3394.55,-114C3384.82,-110.817 3374.65,-107.591 3365.08,-104.74 3335.12,-95.815 3326.59,-97.0814 3297.08,-86.7401 3281.5,-81.2768 3278.98,-76.2356 3263.08,-71.7401 3179.98,-48.2346 3081.1,-37.1439 3015.25,-32.0314"/>
<polygon fill="black" stroke="black" points="3015.21,-28.5184 3004.98,-31.2612 3014.69,-35.4988 3015.21,-28.5184"/>
<text text-anchor="middle" x="3336.08" y="-75.5401" font-family="Times,serif" font-size="14.00"> static(visible)</text>
</g>
<!-- n22&#45;&gt;n22 -->
<g id="edge4" class="edge"><title>n22&#45;&gt;n22</title>
<path fill="none" stroke="black" d="M3502.89,-141.045C3515.57,-140.087 3524.72,-136.942 3524.72,-131.61 3524.72,-127.861 3520.2,-125.193 3513.1,-123.607"/>
<polygon fill="black" stroke="black" points="3513.28,-120.097 3502.89,-122.175 3512.31,-127.029 3513.28,-120.097"/>
<text text-anchor="middle" x="3583.72" y="-127.91" font-family="Times,serif" font-size="14.00"> init(at_rock_sample)</text>
</g>
<!-- n23 -->
<g id="node23" class="node"><title>n23</title>
<ellipse fill="none" stroke="black" cx="1597.08" cy="-236.35" rx="67.7647" ry="26.7407"/>
<text text-anchor="middle" x="1597.08" y="-240.15" font-family="Times,serif" font-size="14.00">&lt;objective11&gt;</text>
<text text-anchor="middle" x="1597.08" y="-225.15" font-family="Times,serif" font-size="14.00">objective</text>
</g>
<!-- n23&#45;&gt;n4 -->
<g id="edge13" class="edge"><title>n23&#45;&gt;n4</title>
<path fill="none" stroke="black" d="M1620.07,-210.767C1633.18,-198.348 1650.65,-184.292 1669.08,-176.48 1888.37,-83.5594 2631.04,-42.1265 2868.46,-31.0463"/>
<polygon fill="black" stroke="black" points="2868.88,-34.5306 2878.71,-30.5722 2868.56,-27.5381 2868.88,-34.5306"/>
<text text-anchor="middle" x="2044.08" y="-127.91" font-family="Times,serif" font-size="14.00"> static(visible_from)</text>
</g>
<!-- n23&#45;&gt;n15 -->
<g id="edge7" class="edge"><title>n23&#45;&gt;n15</title>
<path fill="none" stroke="black" d="M1545.04,-218.891C1535.1,-215.758 1524.77,-212.512 1515.08,-209.48 1489.32,-201.42 1475.98,-210.753 1457.08,-191.48 1450.93,-185.201 1446.97,-176.84 1444.44,-168.395"/>
<polygon fill="black" stroke="black" points="1447.82,-167.468 1442.08,-158.564 1441.01,-169.105 1447.82,-167.468"/>
<text text-anchor="middle" x="1549.08" y="-180.28" font-family="Times,serif" font-size="14.00"> end(communicated_image_data)</text>
</g>
<!-- n23&#45;&gt;n21 -->
<g id="edge43" class="edge"><title>n23&#45;&gt;n21</title>
<path fill="none" stroke="black" d="M1548.19,-217.548C1537.42,-214.298 1525.97,-211.348 1515.08,-209.48 1457.45,-199.592 1043.99,-211.601 989.083,-191.48 978.981,-187.778 979.887,-180.912 970.083,-176.48 914.656,-151.425 845.891,-140.675 796.194,-136.065"/>
<polygon fill="black" stroke="black" points="796.47,-132.576 786.205,-135.197 795.864,-139.55 796.47,-132.576"/>
<text text-anchor="middle" x="1081.08" y="-180.28" font-family="Times,serif" font-size="14.00"> end(communicated_image_data)</text>
</g>
<!-- n23&#45;&gt;n22 -->
<g id="edge48" class="edge"><title>n23&#45;&gt;n22</title>
<path fill="none" stroke="black" d="M1644.56,-216.894C1654.19,-213.864 1664.36,-211.166 1674.08,-209.48 1881.26,-173.581 2412.64,-225.804 2620.08,-191.48 2641.72,-187.901 2645.46,-180.133 2667.08,-176.48 2820.08,-150.634 3212.24,-185.192 3365.08,-158.48 3372.41,-157.199 3379.99,-155.367 3387.42,-153.261"/>
<polygon fill="black" stroke="black" points="3388.49,-156.593 3397.05,-150.357 3386.47,-149.891 3388.49,-156.593"/>
<text text-anchor="middle" x="2723.08" y="-180.28" font-family="Times,serif" font-size="14.00"> static(visible_from)</text>
</g>
<!-- n24 -->
<g id="node24" class="node"><title>n24</title>
<ellipse fill="none" stroke="black" cx="4442.08" cy="-236.35" rx="67.7647" ry="26.7407"/>
<text text-anchor="middle" x="4442.08" y="-240.15" font-family="Times,serif" font-size="14.00">&lt;objective12&gt;</text>
<text text-anchor="middle" x="4442.08" y="-225.15" font-family="Times,serif" font-size="14.00">objective</text>
</g>
<!-- n24&#45;&gt;n22 -->
<g id="edge30" class="edge"><title>n24&#45;&gt;n22</title>
<path fill="none" stroke="black" d="M4397.3,-216.08C4363.35,-202.423 4315.15,-185.059 4271.08,-176.48 4127.78,-148.586 3691.76,-137.354 3516.84,-133.891"/>
<polygon fill="black" stroke="black" points="3516.77,-130.389 3506.71,-133.694 3516.63,-137.388 3516.77,-130.389"/>
<text text-anchor="middle" x="4384.08" y="-180.28" font-family="Times,serif" font-size="14.00"> static(visible_from)</text>
</g>
<!-- n25 -->
<g id="node25" class="node"><title>n25</title>
<ellipse fill="none" stroke="black" cx="1213.08" cy="-341.09" rx="56.6372" ry="26.7407"/>
<text text-anchor="middle" x="1213.08" y="-344.89" font-family="Times,serif" font-size="14.00">&lt;camera1&gt;</text>
<text text-anchor="middle" x="1213.08" y="-329.89" font-family="Times,serif" font-size="14.00">camera</text>
</g>
<!-- n25&#45;&gt;n13 -->
<g id="edge46" class="edge"><title>n25&#45;&gt;n13</title>
<path fill="none" stroke="black" d="M1268.04,-334.168C1355.14,-324.059 1529.81,-300.841 1674.08,-263.22 1679.68,-261.76 1685.46,-260.048 1691.19,-258.212"/>
<polygon fill="black" stroke="black" points="1692.38,-261.506 1700.76,-255.027 1690.17,-254.864 1692.38,-261.506"/>
<text text-anchor="middle" x="1655.58" y="-285.02" font-family="Times,serif" font-size="14.00"> static(calibration_target)</text>
</g>
<!-- n25&#45;&gt;n15 -->
<g id="edge6" class="edge"><title>n25&#45;&gt;n15</title>
<path fill="none" stroke="black" d="M1225.63,-314.821C1241.75,-285.03 1272.55,-236.201 1313.08,-209.48 1340.26,-191.563 1355.98,-207.919 1384.08,-191.48 1395.71,-184.679 1406.45,-174.763 1415.35,-165.001"/>
<polygon fill="black" stroke="black" points="1418.16,-167.109 1422.08,-157.267 1412.88,-162.515 1418.16,-167.109"/>
<text text-anchor="middle" x="1357.08" y="-232.65" font-family="Times,serif" font-size="14.00"> static(supports)</text>
</g>
<!-- n25&#45;&gt;n19 -->
<g id="edge18" class="edge"><title>n25&#45;&gt;n19</title>
<path fill="none" stroke="black" d="M1156.51,-338.763C984.7,-334.511 470.664,-320.088 305.083,-296.22 243.521,-287.346 222.723,-294.707 169.083,-263.22 127.474,-238.795 91.6207,-195.598 69.9739,-165.602"/>
<polygon fill="black" stroke="black" points="72.6183,-163.279 63.9869,-157.135 66.903,-167.321 72.6183,-163.279"/>
<text text-anchor="middle" x="213.083" y="-232.65" font-family="Times,serif" font-size="14.00"> static(supports)</text>
</g>
<!-- n25&#45;&gt;n21 -->
<g id="edge41" class="edge"><title>n25&#45;&gt;n21</title>
<path fill="none" stroke="black" d="M1156.41,-339.819C962.196,-338.308 332.139,-328.382 272.083,-263.22 255.897,-245.657 258.756,-229.301 272.083,-209.48 293.774,-177.222 315.192,-185.161 353.083,-176.48 475.933,-148.337 511.785,-179.311 636.083,-158.48 648.597,-156.383 661.842,-153.296 674.317,-149.979"/>
<polygon fill="black" stroke="black" points="675.412,-153.307 684.128,-147.283 673.558,-146.557 675.412,-153.307"/>
<text text-anchor="middle" x="316.083" y="-232.65" font-family="Times,serif" font-size="14.00"> static(supports)</text>
</g>
<!-- n25&#45;&gt;n29 -->
<g id="edge21" class="edge"><title>n25&#45;&gt;n29</title>
<path fill="none" stroke="black" d="M1269.14,-336.654C1356.79,-331.354 1531.64,-321.084 1680.08,-314.22 1699.17,-313.338 3036.48,-267.606 3055.08,-263.22 3059.49,-262.182 3063.96,-260.798 3068.38,-259.207"/>
<polygon fill="black" stroke="black" points="3069.86,-262.382 3077.88,-255.449 3067.29,-255.873 3069.86,-262.382"/>
<text text-anchor="middle" x="2654.58" y="-285.02" font-family="Times,serif" font-size="14.00"> static(on_board)</text>
</g>
<!-- n26 -->
<g id="node26" class="node"><title>n26</title>
<ellipse fill="none" stroke="black" cx="4889.08" cy="-236.35" rx="67.7647" ry="26.7407"/>
<text text-anchor="middle" x="4889.08" y="-240.15" font-family="Times,serif" font-size="14.00">&lt;objective17&gt;</text>
<text text-anchor="middle" x="4889.08" y="-225.15" font-family="Times,serif" font-size="14.00">objective</text>
</g>
<!-- n26&#45;&gt;n4 -->
<g id="edge23" class="edge"><title>n26&#45;&gt;n4</title>
<path fill="none" stroke="black" d="M4887.74,-209.251C4886.31,-198.578 4883.51,-186.429 4878.08,-176.48 4855.84,-135.705 4844.89,-122.783 4802.08,-104.74 4635.63,-34.5714 3341.28,-28.3344 3016.04,-27.8802"/>
<polygon fill="black" stroke="black" points="3015.8,-24.3799 3005.79,-27.8673 3015.79,-31.3799 3015.8,-24.3799"/>
<text text-anchor="middle" x="4923.08" y="-127.91" font-family="Times,serif" font-size="14.00"> static(visible_from)</text>
</g>
<!-- n26&#45;&gt;n22 -->
<g id="edge36" class="edge"><title>n26&#45;&gt;n22</title>
<path fill="none" stroke="black" d="M4839.75,-217.759C4791.61,-200.624 4725.15,-177.059 4722.08,-176.48 4488.81,-132.439 3753.76,-131.356 3517.2,-132.2"/>
<polygon fill="black" stroke="black" points="3516.97,-128.701 3506.99,-132.239 3517,-135.701 3516.97,-128.701"/>
<text text-anchor="middle" x="4820.08" y="-180.28" font-family="Times,serif" font-size="14.00"> static(visible_from)</text>
</g>
<!-- n27 -->
<g id="node27" class="node"><title>n27</title>
<ellipse fill="none" stroke="black" cx="4591.08" cy="-236.35" rx="62.8651" ry="26.7407"/>
<text text-anchor="middle" x="4591.08" y="-240.15" font-family="Times,serif" font-size="14.00">&lt;objective3&gt;</text>
<text text-anchor="middle" x="4591.08" y="-225.15" font-family="Times,serif" font-size="14.00">objective</text>
</g>
<!-- n27&#45;&gt;n22 -->
<g id="edge53" class="edge"><title>n27&#45;&gt;n22</title>
<path fill="none" stroke="black" d="M4544.02,-218.339C4511.97,-206.719 4474.7,-193.135 4471.08,-191.48 4458.6,-185.773 4457.29,-180.214 4444.08,-176.48 4355.82,-151.533 3733.49,-137.914 3517.06,-133.891"/>
<polygon fill="black" stroke="black" points="3516.82,-130.386 3506.75,-133.701 3516.69,-137.385 3516.82,-130.386"/>
<text text-anchor="middle" x="4527.08" y="-180.28" font-family="Times,serif" font-size="14.00"> static(visible_from)</text>
</g>
<!-- n28&#45;&gt;n22 -->
<g id="edge33" class="edge"><title>n28&#45;&gt;n22</title>
<path fill="none" stroke="black" d="M4239.54,-217.456C4199.51,-203.581 4140.92,-185.28 4088.08,-176.48 3883.15,-142.352 3637.35,-134.642 3516.93,-132.988"/>
<polygon fill="black" stroke="black" points="3516.77,-129.486 3506.73,-132.859 3516.68,-136.485 3516.77,-129.486"/>
<text text-anchor="middle" x="4211.08" y="-180.28" font-family="Times,serif" font-size="14.00"> static(visible_from)</text>
</g>
<!-- n29&#45;&gt;n22 -->
<g id="edge29" class="edge"><title>n29&#45;&gt;n22</title>
<path fill="none" stroke="black" d="M3159.8,-232.088C3229.7,-226.622 3355.88,-213.941 3395.08,-191.48 3405.79,-185.345 3415.09,-175.828 3422.57,-166.222"/>
<polygon fill="black" stroke="black" points="3425.61,-167.985 3428.67,-157.84 3419.95,-163.866 3425.61,-167.985"/>
<text text-anchor="middle" x="3433.58" y="-180.28" font-family="Times,serif" font-size="14.00"> init(at)</text>
</g>
<!-- n29&#45;&gt;n29 -->
<g id="edge5" class="edge"><title>n29&#45;&gt;n29</title>
<path fill="none" stroke="black" d="M3157.18,-246.015C3169.12,-245.462 3178.17,-242.241 3178.17,-236.35 3178.17,-232.3 3173.89,-229.512 3167.34,-227.986"/>
<polygon fill="black" stroke="black" points="3167.54,-224.483 3157.18,-226.686 3166.65,-231.427 3167.54,-224.483"/>
<text text-anchor="middle" x="3271.67" y="-247.65" font-family="Times,serif" font-size="14.00"> static(equipped_for_imaging)</text>
<text text-anchor="middle" x="3271.67" y="-232.65" font-family="Times,serif" font-size="14.00">init(available)</text>
<text text-anchor="middle" x="3271.67" y="-217.65" font-family="Times,serif" font-size="14.00">static(equipped_for_soil_analysis)</text>
</g>
</g>
</svg>
