<?xml version="1.0" encoding="UTF-8" standalone="no"?>
<!DOCTYPE svg PUBLIC "-//W3C//DTD SVG 1.1//EN"
 "http://www.w3.org/Graphics/SVG/1.1/DTD/svg11.dtd">
<!-- Generated by graphviz version 2.38.0 (20140413.2041)
 -->
<!-- Title: Struc Pages: 1 -->
<svg width="4863pt" height="271pt"
 viewBox="0.00 0.00 4862.73 271.22" xmlns="http://www.w3.org/2000/svg" xmlns:xlink="http://www.w3.org/1999/xlink">
<g id="graph0" class="graph" transform="scale(1 1) rotate(0) translate(4 267.22)">
<title>Struc</title>
<polygon fill="white" stroke="none" points="-4,4 -4,-267.22 4858.73,-267.22 4858.73,4 -4,4"/>
<!-- n1 -->
<g id="node1" class="node"><title>n1</title>
<ellipse fill="none" stroke="black" cx="915.733" cy="-236.35" rx="62.8651" ry="26.7407"/>
<text text-anchor="middle" x="915.733" y="-240.15" font-family="Times,serif" font-size="14.00">&lt;objective0&gt;</text>
<text text-anchor="middle" x="915.733" y="-225.15" font-family="Times,serif" font-size="14.00">objective</text>
</g>
<!-- n4 -->
<g id="node4" class="node"><title>n4</title>
<ellipse fill="none" stroke="black" cx="1249.73" cy="-131.61" rx="63.7795" ry="26.7407"/>
<text text-anchor="middle" x="1249.73" y="-135.41" font-family="Times,serif" font-size="14.00">&lt;waypoint1&gt;</text>
<text text-anchor="middle" x="1249.73" y="-120.41" font-family="Times,serif" font-size="14.00">waypoint</text>
</g>
<!-- n1&#45;&gt;n4 -->
<g id="edge54" class="edge"><title>n1&#45;&gt;n4</title>
<path fill="none" stroke="black" d="M934.042,-210.602C944.722,-198.135 959.313,-184.085 975.733,-176.48 1055.11,-139.717 1086.1,-176.366 1171.73,-158.48 1178.84,-156.996 1186.2,-155.08 1193.43,-152.963"/>
<polygon fill="black" stroke="black" points="1194.65,-156.25 1203.19,-149.972 1192.6,-149.558 1194.65,-156.25"/>
<text text-anchor="middle" x="1031.73" y="-180.28" font-family="Times,serif" font-size="14.00"> static(visible_from)</text>
</g>
<!-- n22 -->
<g id="node22" class="node"><title>n22</title>
<ellipse fill="none" stroke="black" cx="1684.73" cy="-26.8701" rx="63.7795" ry="26.7407"/>
<text text-anchor="middle" x="1684.73" y="-30.6701" font-family="Times,serif" font-size="14.00">&lt;waypoint0&gt;</text>
<text text-anchor="middle" x="1684.73" y="-15.6701" font-family="Times,serif" font-size="14.00">waypoint</text>
</g>
<!-- n1&#45;&gt;n22 -->
<g id="edge53" class="edge"><title>n1&#45;&gt;n22</title>
<path fill="none" stroke="black" d="M911.009,-209.312C907.301,-179.935 906.476,-132.625 932.733,-104.74 978.707,-55.9149 1430.7,-36.0519 1611.02,-30.0288"/>
<polygon fill="black" stroke="black" points="1611.32,-33.5206 1621.2,-29.6936 1611.09,-26.5244 1611.32,-33.5206"/>
<text text-anchor="middle" x="988.733" y="-127.91" font-family="Times,serif" font-size="14.00"> static(visible_from)</text>
</g>
<!-- n2 -->
<g id="node2" class="node"><title>n2</title>
<ellipse fill="none" stroke="black" cx="555.733" cy="-236.35" rx="62.8651" ry="26.7407"/>
<text text-anchor="middle" x="555.733" y="-240.15" font-family="Times,serif" font-size="14.00">&lt;objective3&gt;</text>
<text text-anchor="middle" x="555.733" y="-225.15" font-family="Times,serif" font-size="14.00">objective</text>
</g>
<!-- n2&#45;&gt;n4 -->
<g id="edge27" class="edge"><title>n2&#45;&gt;n4</title>
<path fill="none" stroke="black" d="M608.788,-221.807C665.351,-207.96 757.743,-187.031 838.733,-176.48 985.707,-157.333 1026.1,-186.054 1171.73,-158.48 1178.86,-157.13 1186.24,-155.295 1193.49,-153.22"/>
<polygon fill="black" stroke="black" points="1194.69,-156.513 1203.25,-150.267 1192.66,-149.813 1194.69,-156.513"/>
<text text-anchor="middle" x="894.733" y="-180.28" font-family="Times,serif" font-size="14.00"> static(visible_from)</text>
</g>
<!-- n2&#45;&gt;n22 -->
<g id="edge16" class="edge"><title>n2&#45;&gt;n22</title>
<path fill="none" stroke="black" d="M523.685,-213.187C488.601,-186.254 441.037,-140.038 470.733,-104.74 525.909,-39.1542 575.518,-80.9269 660.733,-71.7401 1015.28,-33.5172 1442.26,-28.2538 1610.99,-27.7704"/>
<polygon fill="black" stroke="black" points="1611.02,-31.2705 1621.01,-27.7465 1611,-24.2705 1611.02,-31.2705"/>
<text text-anchor="middle" x="526.733" y="-127.91" font-family="Times,serif" font-size="14.00"> static(visible_from)</text>
</g>
<!-- n3 -->
<g id="node3" class="node"><title>n3</title>
<ellipse fill="none" stroke="black" cx="2199.73" cy="-236.35" rx="67.7647" ry="26.7407"/>
<text text-anchor="middle" x="2199.73" y="-240.15" font-family="Times,serif" font-size="14.00">&lt;objective16&gt;</text>
<text text-anchor="middle" x="2199.73" y="-225.15" font-family="Times,serif" font-size="14.00">objective</text>
</g>
<!-- n3&#45;&gt;n4 -->
<g id="edge9" class="edge"><title>n3&#45;&gt;n4</title>
<path fill="none" stroke="black" d="M2133.61,-229.52C2009.23,-218.501 1751.11,-195.371 1731.73,-191.48 1709.82,-187.08 1705.63,-180.96 1683.73,-176.48 1674.97,-174.687 1442.61,-151.632 1321.57,-139.685"/>
<polygon fill="black" stroke="black" points="1321.57,-136.169 1311.28,-138.67 1320.89,-143.135 1321.57,-136.169"/>
<text text-anchor="middle" x="1787.73" y="-180.28" font-family="Times,serif" font-size="14.00"> static(visible_from)</text>
</g>
<!-- n21 -->
<g id="node21" class="node"><title>n21</title>
<ellipse fill="none" stroke="black" cx="3951.73" cy="-26.8701" rx="56.6372" ry="26.7407"/>
<text text-anchor="middle" x="3951.73" y="-30.6701" font-family="Times,serif" font-size="14.00">&lt;high_res&gt;</text>
<text text-anchor="middle" x="3951.73" y="-15.6701" font-family="Times,serif" font-size="14.00">mode</text>
</g>
<!-- n3&#45;&gt;n21 -->
<g id="edge28" class="edge"><title>n3&#45;&gt;n21</title>
<path fill="none" stroke="black" d="M2265.84,-229.873C2411.07,-217.399 2748.58,-185.837 2792.73,-158.48 2817.17,-143.338 2804.46,-120.142 2828.73,-104.74 2833.9,-101.459 3040.64,-72.3475 3046.73,-71.7401 3359.14,-40.6045 3734.5,-31.3522 3884.77,-28.7863"/>
<polygon fill="black" stroke="black" points="3885.25,-32.2788 3895.19,-28.613 3885.14,-25.2798 3885.25,-32.2788"/>
<text text-anchor="middle" x="2922.73" y="-127.91" font-family="Times,serif" font-size="14.00"> end(communicated_image_data)</text>
</g>
<!-- n3&#45;&gt;n22 -->
<g id="edge32" class="edge"><title>n3&#45;&gt;n22</title>
<path fill="none" stroke="black" d="M2200.05,-209.253C2198.74,-197.522 2195.02,-184.534 2185.73,-176.48 2152.69,-147.822 2028.9,-177.958 1989.73,-158.48 1960.79,-144.086 1968.09,-121.953 1940.73,-104.74 1883.42,-68.6798 1808.27,-48.7533 1754.24,-38.284"/>
<polygon fill="black" stroke="black" points="1754.88,-34.8431 1744.4,-36.4374 1753.59,-41.7228 1754.88,-34.8431"/>
<text text-anchor="middle" x="2045.73" y="-127.91" font-family="Times,serif" font-size="14.00"> static(visible_from)</text>
</g>
<!-- n4&#45;&gt;n4 -->
<g id="edge1" class="edge"><title>n4&#45;&gt;n4</title>
<path fill="none" stroke="black" d="M1309.54,-141.045C1322.22,-140.087 1331.37,-136.942 1331.37,-131.61 1331.37,-127.861 1326.85,-125.193 1319.75,-123.607"/>
<polygon fill="black" stroke="black" points="1319.93,-120.097 1309.54,-122.175 1318.95,-127.029 1319.93,-120.097"/>
<text text-anchor="middle" x="1415.87" y="-142.91" font-family="Times,serif" font-size="14.00"> end(communicated_soil_data)</text>
<text text-anchor="middle" x="1415.87" y="-127.91" font-family="Times,serif" font-size="14.00">init(at_soil_sample)</text>
<text text-anchor="middle" x="1415.87" y="-112.91" font-family="Times,serif" font-size="14.00">init(at_rock_sample)</text>
</g>
<!-- n4&#45;&gt;n22 -->
<g id="edge12" class="edge"><title>n4&#45;&gt;n22</title>
<path fill="none" stroke="black" d="M1272.04,-106.352C1284.99,-93.868 1302.35,-79.647 1320.73,-71.7401 1371.48,-49.9195 1520.73,-37.5217 1611.59,-31.7997"/>
<polygon fill="black" stroke="black" points="1612.06,-35.2774 1621.83,-31.1677 1611.63,-28.2907 1612.06,-35.2774"/>
<text text-anchor="middle" x="1359.73" y="-75.5401" font-family="Times,serif" font-size="14.00"> static(visible)</text>
</g>
<!-- n5 -->
<g id="node5" class="node"><title>n5</title>
<ellipse fill="none" stroke="black" cx="4603.73" cy="-236.35" rx="56.6372" ry="26.7407"/>
<text text-anchor="middle" x="4603.73" y="-240.15" font-family="Times,serif" font-size="14.00">&lt;camera0&gt;</text>
<text text-anchor="middle" x="4603.73" y="-225.15" font-family="Times,serif" font-size="14.00">camera</text>
</g>
<!-- n17 -->
<g id="node17" class="node"><title>n17</title>
<ellipse fill="none" stroke="black" cx="4653.73" cy="-131.61" rx="62.8651" ry="26.7407"/>
<text text-anchor="middle" x="4653.73" y="-135.41" font-family="Times,serif" font-size="14.00">&lt;objective8&gt;</text>
<text text-anchor="middle" x="4653.73" y="-120.41" font-family="Times,serif" font-size="14.00">objective</text>
</g>
<!-- n5&#45;&gt;n17 -->
<g id="edge14" class="edge"><title>n5&#45;&gt;n17</title>
<path fill="none" stroke="black" d="M4599.76,-209.433C4599.23,-198.79 4600.1,-186.614 4604.73,-176.48 4607.08,-171.353 4610.34,-166.571 4614.08,-162.193"/>
<polygon fill="black" stroke="black" points="4616.82,-164.393 4621.23,-154.76 4611.77,-159.54 4616.82,-164.393"/>
<text text-anchor="middle" x="4673.23" y="-180.28" font-family="Times,serif" font-size="14.00"> static(calibration_target)</text>
</g>
<!-- n5&#45;&gt;n21 -->
<g id="edge44" class="edge"><title>n5&#45;&gt;n21</title>
<path fill="none" stroke="black" d="M4659.88,-232.681C4689.31,-228.074 4723.03,-217.047 4741.73,-191.48 4773.15,-148.526 4778.31,-110.4 4741.73,-71.7401 4717.04,-45.634 4204.69,-32.8918 4018.56,-29.1111"/>
<polygon fill="black" stroke="black" points="4018.43,-25.6079 4008.36,-28.9063 4018.29,-32.6064 4018.43,-25.6079"/>
<text text-anchor="middle" x="4810.73" y="-127.91" font-family="Times,serif" font-size="14.00"> static(supports)</text>
</g>
<!-- n29 -->
<g id="node29" class="node"><title>n29</title>
<ellipse fill="none" stroke="black" cx="3195.73" cy="-131.61" rx="48.1667" ry="26.7407"/>
<text text-anchor="middle" x="3195.73" y="-135.41" font-family="Times,serif" font-size="14.00">&lt;rover0&gt;</text>
<text text-anchor="middle" x="3195.73" y="-120.41" font-family="Times,serif" font-size="14.00">rover</text>
</g>
<!-- n5&#45;&gt;n29 -->
<g id="edge26" class="edge"><title>n5&#45;&gt;n29</title>
<path fill="none" stroke="black" d="M4549.54,-228.203C4500.57,-222.068 4426.46,-213.585 4361.73,-209.48 4312.21,-206.34 3515.44,-208.226 3468.73,-191.48 3458.61,-187.85 3459.56,-180.864 3449.73,-176.48 3386.71,-148.361 3307.44,-138.2 3254.37,-134.565"/>
<polygon fill="black" stroke="black" points="3254.32,-131.055 3244.12,-133.922 3253.88,-138.041 3254.32,-131.055"/>
<text text-anchor="middle" x="3515.23" y="-180.28" font-family="Times,serif" font-size="14.00"> static(on_board)</text>
</g>
<!-- n6 -->
<g id="node6" class="node"><title>n6</title>
<ellipse fill="none" stroke="black" cx="1522.73" cy="-236.35" rx="67.7647" ry="26.7407"/>
<text text-anchor="middle" x="1522.73" y="-240.15" font-family="Times,serif" font-size="14.00">&lt;objective17&gt;</text>
<text text-anchor="middle" x="1522.73" y="-225.15" font-family="Times,serif" font-size="14.00">objective</text>
</g>
<!-- n6&#45;&gt;n4 -->
<g id="edge18" class="edge"><title>n6&#45;&gt;n4</title>
<path fill="none" stroke="black" d="M1462.34,-223.868C1430.92,-216.72 1392.37,-206.072 1359.73,-191.48 1348.59,-186.499 1347.31,-182.57 1336.73,-176.48 1325.05,-169.753 1312.21,-162.964 1300.07,-156.802"/>
<polygon fill="black" stroke="black" points="1301.46,-153.582 1290.95,-152.224 1298.32,-159.838 1301.46,-153.582"/>
<text text-anchor="middle" x="1415.73" y="-180.28" font-family="Times,serif" font-size="14.00"> static(visible_from)</text>
</g>
<!-- n6&#45;&gt;n22 -->
<g id="edge55" class="edge"><title>n6&#45;&gt;n22</title>
<path fill="none" stroke="black" d="M1579.65,-221.613C1598.75,-214.905 1619.14,-205.219 1634.73,-191.48 1671.19,-159.349 1681.47,-101.457 1684.14,-63.8589"/>
<polygon fill="black" stroke="black" points="1687.64,-64.0122 1684.71,-53.8305 1680.65,-63.6169 1687.64,-64.0122"/>
<text text-anchor="middle" x="1734.73" y="-127.91" font-family="Times,serif" font-size="14.00"> static(visible_from)</text>
</g>
<!-- n7 -->
<g id="node7" class="node"><title>n7</title>
<ellipse fill="none" stroke="black" cx="3534.73" cy="-131.61" rx="67.7647" ry="26.7407"/>
<text text-anchor="middle" x="3534.73" y="-135.41" font-family="Times,serif" font-size="14.00">&lt;objective15&gt;</text>
<text text-anchor="middle" x="3534.73" y="-120.41" font-family="Times,serif" font-size="14.00">objective</text>
</g>
<!-- n7&#45;&gt;n21 -->
<g id="edge13" class="edge"><title>n7&#45;&gt;n21</title>
<path fill="none" stroke="black" d="M3486.28,-112.647C3476.91,-109.653 3467.09,-106.842 3457.73,-104.74 3390.28,-89.5867 3258.54,-122.251 3305.73,-71.7401 3344.67,-30.0729 3727.76,-26.8975 3884.95,-27.372"/>
<polygon fill="black" stroke="black" points="3884.96,-30.872 3894.97,-27.4082 3884.99,-23.872 3884.96,-30.872"/>
<text text-anchor="middle" x="3397.73" y="-75.5401" font-family="Times,serif" font-size="14.00"> end(communicated_image_data)</text>
</g>
<!-- n7&#45;&gt;n22 -->
<g id="edge21" class="edge"><title>n7&#45;&gt;n22</title>
<path fill="none" stroke="black" d="M3486.78,-112.376C3477.27,-109.367 3467.28,-106.621 3457.73,-104.74 3336.69,-80.8945 3303.61,-97.8142 3180.73,-86.7401 3122.81,-81.5194 3108.74,-76.0106 3050.73,-71.7401 2558.27,-35.4833 1963.75,-29.1832 1758.55,-28.0949"/>
<polygon fill="black" stroke="black" points="1758.51,-24.5948 1748.49,-28.0442 1758.48,-31.5947 1758.51,-24.5948"/>
<text text-anchor="middle" x="3236.73" y="-75.5401" font-family="Times,serif" font-size="14.00"> static(visible_from)</text>
</g>
<!-- n8 -->
<g id="node8" class="node"><title>n8</title>
<ellipse fill="none" stroke="black" cx="1298.73" cy="-236.35" rx="62.8651" ry="26.7407"/>
<text text-anchor="middle" x="1298.73" y="-240.15" font-family="Times,serif" font-size="14.00">&lt;objective7&gt;</text>
<text text-anchor="middle" x="1298.73" y="-225.15" font-family="Times,serif" font-size="14.00">objective</text>
</g>
<!-- n8&#45;&gt;n4 -->
<g id="edge23" class="edge"><title>n8&#45;&gt;n4</title>
<path fill="none" stroke="black" d="M1252.59,-217.771C1241.53,-211.253 1231.09,-202.641 1224.73,-191.48 1220.26,-183.629 1221.16,-174.821 1224.46,-166.457"/>
<polygon fill="black" stroke="black" points="1227.71,-167.787 1229.06,-157.278 1221.45,-164.653 1227.71,-167.787"/>
<text text-anchor="middle" x="1280.73" y="-180.28" font-family="Times,serif" font-size="14.00"> static(visible_from)</text>
</g>
<!-- n8&#45;&gt;n22 -->
<g id="edge46" class="edge"><title>n8&#45;&gt;n22</title>
<path fill="none" stroke="black" d="M1355.49,-224.503C1382.72,-219.519 1415.85,-213.776 1445.73,-209.48 1481.37,-204.358 1582.73,-218.314 1606.73,-191.48 1611.18,-186.511 1610.74,-181.811 1606.73,-176.48 1589.5,-153.536 1561.96,-181.424 1544.73,-158.48 1530.39,-139.382 1532.57,-125.295 1544.73,-104.74 1561.61,-76.2254 1593.23,-57.5823 1622.16,-45.808"/>
<polygon fill="black" stroke="black" points="1623.77,-48.938 1631.84,-42.0739 1621.25,-42.4069 1623.77,-48.938"/>
<text text-anchor="middle" x="1600.73" y="-127.91" font-family="Times,serif" font-size="14.00"> static(visible_from)</text>
</g>
<!-- n9 -->
<g id="node9" class="node"><title>n9</title>
<ellipse fill="none" stroke="black" cx="4289.73" cy="-236.35" rx="62.8651" ry="26.7407"/>
<text text-anchor="middle" x="4289.73" y="-240.15" font-family="Times,serif" font-size="14.00">&lt;objective2&gt;</text>
<text text-anchor="middle" x="4289.73" y="-225.15" font-family="Times,serif" font-size="14.00">objective</text>
</g>
<!-- n19 -->
<g id="node19" class="node"><title>n19</title>
<ellipse fill="none" stroke="black" cx="3888.73" cy="-131.61" rx="48.1667" ry="26.7407"/>
<text text-anchor="middle" x="3888.73" y="-135.41" font-family="Times,serif" font-size="14.00">&lt;colour&gt;</text>
<text text-anchor="middle" x="3888.73" y="-120.41" font-family="Times,serif" font-size="14.00">mode</text>
</g>
<!-- n9&#45;&gt;n19 -->
<g id="edge40" class="edge"><title>n9&#45;&gt;n19</title>
<path fill="none" stroke="black" d="M4233.52,-224.222C4193.72,-216.019 4139.19,-204.129 4091.73,-191.48 4070.14,-185.724 4065.43,-181.842 4043.73,-176.48 4000.74,-165.856 3987.99,-171.73 3945.73,-158.48 3941.65,-157.2 3937.47,-155.701 3933.33,-154.082"/>
<polygon fill="black" stroke="black" points="3934.36,-150.721 3923.78,-150.131 3931.68,-157.189 3934.36,-150.721"/>
<text text-anchor="middle" x="4183.73" y="-180.28" font-family="Times,serif" font-size="14.00"> end(communicated_image_data)</text>
</g>
<!-- n9&#45;&gt;n21 -->
<g id="edge10" class="edge"><title>n9&#45;&gt;n21</title>
<path fill="none" stroke="black" d="M4318.55,-212.446C4349.37,-185.189 4390.32,-139.057 4362.73,-104.74 4320.53,-52.2457 4123.55,-35.4641 4018.36,-30.2036"/>
<polygon fill="black" stroke="black" points="4018.32,-26.6978 4008.16,-29.7155 4017.98,-33.6898 4018.32,-26.6978"/>
<text text-anchor="middle" x="4463.73" y="-127.91" font-family="Times,serif" font-size="14.00"> end(communicated_image_data)</text>
</g>
<!-- n9&#45;&gt;n22 -->
<g id="edge7" class="edge"><title>n9&#45;&gt;n22</title>
<path fill="none" stroke="black" d="M4289.97,-209.339C4288.65,-197.628 4284.93,-184.631 4275.73,-176.48 4222.5,-129.318 4175.07,-199.161 4116.73,-158.48 4094.81,-143.19 4110.6,-121.445 4089.73,-104.74 4042.53,-66.9466 4017.68,-79.7076 3957.73,-71.7401 3736,-42.2684 2124.56,-30.5916 1758.55,-28.3045"/>
<polygon fill="black" stroke="black" points="1758.36,-24.8033 1748.34,-28.2411 1758.32,-31.8032 1758.36,-24.8033"/>
<text text-anchor="middle" x="4172.73" y="-127.91" font-family="Times,serif" font-size="14.00"> static(visible_from)</text>
</g>
<!-- n10 -->
<g id="node10" class="node"><title>n10</title>
<ellipse fill="none" stroke="black" cx="3090.73" cy="-236.35" rx="67.3507" ry="26.7407"/>
<text text-anchor="middle" x="3090.73" y="-240.15" font-family="Times,serif" font-size="14.00">&lt;rover0store&gt;</text>
<text text-anchor="middle" x="3090.73" y="-225.15" font-family="Times,serif" font-size="14.00">store</text>
</g>
<!-- n10&#45;&gt;n10 -->
<g id="edge2" class="edge"><title>n10&#45;&gt;n10</title>
<path fill="none" stroke="black" d="M3153.88,-245.728C3166.72,-244.707 3175.91,-241.581 3175.91,-236.35 3175.91,-232.673 3171.36,-230.035 3164.2,-228.438"/>
<polygon fill="black" stroke="black" points="3164.27,-224.913 3153.88,-226.972 3163.29,-231.844 3164.27,-224.913"/>
<text text-anchor="middle" x="3208.91" y="-232.65" font-family="Times,serif" font-size="14.00"> init(empty)</text>
</g>
<!-- n10&#45;&gt;n29 -->
<g id="edge37" class="edge"><title>n10&#45;&gt;n29</title>
<path fill="none" stroke="black" d="M3091.99,-209.423C3093.69,-198.284 3097.29,-185.729 3104.73,-176.48 3106.45,-174.343 3128.23,-163.815 3150.05,-153.608"/>
<polygon fill="black" stroke="black" points="3151.76,-156.674 3159.34,-149.279 3148.8,-150.329 3151.76,-156.674"/>
<text text-anchor="middle" x="3148.73" y="-180.28" font-family="Times,serif" font-size="14.00"> static(store_of)</text>
</g>
<!-- n11 -->
<g id="node11" class="node"><title>n11</title>
<ellipse fill="none" stroke="black" cx="2623.73" cy="-236.35" rx="62.8651" ry="26.7407"/>
<text text-anchor="middle" x="2623.73" y="-240.15" font-family="Times,serif" font-size="14.00">&lt;objective5&gt;</text>
<text text-anchor="middle" x="2623.73" y="-225.15" font-family="Times,serif" font-size="14.00">objective</text>
</g>
<!-- n15 -->
<g id="node15" class="node"><title>n15</title>
<ellipse fill="none" stroke="black" cx="3075.73" cy="-131.61" rx="53.9813" ry="26.7407"/>
<text text-anchor="middle" x="3075.73" y="-135.41" font-family="Times,serif" font-size="14.00">&lt;low_res&gt;</text>
<text text-anchor="middle" x="3075.73" y="-120.41" font-family="Times,serif" font-size="14.00">mode</text>
</g>
<!-- n11&#45;&gt;n15 -->
<g id="edge36" class="edge"><title>n11&#45;&gt;n15</title>
<path fill="none" stroke="black" d="M2679.29,-223.548C2736.87,-211.403 2829.5,-192.105 2909.73,-176.48 2953.2,-168.016 2965.08,-170.403 3007.73,-158.48 3013.5,-156.868 3019.46,-154.966 3025.35,-152.936"/>
<polygon fill="black" stroke="black" points="3026.91,-156.096 3035.14,-149.429 3024.55,-149.506 3026.91,-156.096"/>
<text text-anchor="middle" x="3001.73" y="-180.28" font-family="Times,serif" font-size="14.00"> end(communicated_image_data)</text>
</g>
<!-- n11&#45;&gt;n22 -->
<g id="edge56" class="edge"><title>n11&#45;&gt;n22</title>
<path fill="none" stroke="black" d="M2564.75,-226.728C2513.23,-216.93 2438.34,-197.013 2383.73,-158.48 2359.19,-141.159 2368.48,-120.219 2342.73,-104.74 2245.71,-46.4125 1908.83,-32.3349 1758.34,-28.9434"/>
<polygon fill="black" stroke="black" points="1758.34,-25.4427 1748.27,-28.7261 1758.19,-32.441 1758.34,-25.4427"/>
<text text-anchor="middle" x="2439.73" y="-127.91" font-family="Times,serif" font-size="14.00"> static(visible_from)</text>
</g>
<!-- n12 -->
<g id="node12" class="node"><title>n12</title>
<ellipse fill="none" stroke="black" cx="1067.73" cy="-236.35" rx="62.8651" ry="26.7407"/>
<text text-anchor="middle" x="1067.73" y="-240.15" font-family="Times,serif" font-size="14.00">&lt;objective6&gt;</text>
<text text-anchor="middle" x="1067.73" y="-225.15" font-family="Times,serif" font-size="14.00">objective</text>
</g>
<!-- n12&#45;&gt;n4 -->
<g id="edge29" class="edge"><title>n12&#45;&gt;n4</title>
<path fill="none" stroke="black" d="M1078.86,-209.865C1085.17,-198.13 1094.15,-184.959 1105.73,-176.48 1130.27,-158.52 1142.63,-167.269 1171.73,-158.48 1178.16,-156.541 1184.85,-154.441 1191.5,-152.304"/>
<polygon fill="black" stroke="black" points="1192.75,-155.58 1201.18,-149.163 1190.59,-148.922 1192.75,-155.58"/>
<text text-anchor="middle" x="1161.73" y="-180.28" font-family="Times,serif" font-size="14.00"> static(visible_from)</text>
</g>
<!-- n12&#45;&gt;n22 -->
<g id="edge11" class="edge"><title>n12&#45;&gt;n22</title>
<path fill="none" stroke="black" d="M1057.99,-209.61C1048.82,-180.509 1039.86,-133.456 1064.73,-104.74 1100.09,-63.9277 1455.57,-40.0971 1611.77,-31.5231"/>
<polygon fill="black" stroke="black" points="1611.96,-35.0176 1621.76,-30.9804 1611.59,-28.0279 1611.96,-35.0176"/>
<text text-anchor="middle" x="1120.73" y="-127.91" font-family="Times,serif" font-size="14.00"> static(visible_from)</text>
</g>
<!-- n13 -->
<g id="node13" class="node"><title>n13</title>
<ellipse fill="none" stroke="black" cx="4017.73" cy="-131.61" rx="62.8651" ry="26.7407"/>
<text text-anchor="middle" x="4017.73" y="-135.41" font-family="Times,serif" font-size="14.00">&lt;objective9&gt;</text>
<text text-anchor="middle" x="4017.73" y="-120.41" font-family="Times,serif" font-size="14.00">objective</text>
</g>
<!-- n13&#45;&gt;n22 -->
<g id="edge57" class="edge"><title>n13&#45;&gt;n22</title>
<path fill="none" stroke="black" d="M3973.34,-112.534C3964.33,-109.472 3954.83,-106.666 3945.73,-104.74 3746.94,-62.6616 3692.69,-81.5449 3489.73,-71.7401 2818.01,-39.2899 2004.44,-30.4182 1758.56,-28.3959"/>
<polygon fill="black" stroke="black" points="1758.35,-24.8941 1748.32,-28.3129 1758.29,-31.8939 1758.35,-24.8941"/>
<text text-anchor="middle" x="3897.73" y="-75.5401" font-family="Times,serif" font-size="14.00"> static(visible_from)</text>
</g>
<!-- n14 -->
<g id="node14" class="node"><title>n14</title>
<ellipse fill="none" stroke="black" cx="329.733" cy="-236.35" rx="67.7647" ry="26.7407"/>
<text text-anchor="middle" x="329.733" y="-240.15" font-family="Times,serif" font-size="14.00">&lt;objective10&gt;</text>
<text text-anchor="middle" x="329.733" y="-225.15" font-family="Times,serif" font-size="14.00">objective</text>
</g>
<!-- n14&#45;&gt;n4 -->
<g id="edge20" class="edge"><title>n14&#45;&gt;n4</title>
<path fill="none" stroke="black" d="M386.756,-221.651C448.092,-207.566 548.688,-186.342 636.733,-176.48 873.167,-149.997 937.535,-200.357 1171.73,-158.48 1178.97,-157.185 1186.46,-155.363 1193.81,-153.277"/>
<polygon fill="black" stroke="black" points="1195.13,-156.534 1203.69,-150.295 1193.11,-149.832 1195.13,-156.534"/>
<text text-anchor="middle" x="692.733" y="-180.28" font-family="Times,serif" font-size="14.00"> static(visible_from)</text>
</g>
<!-- n14&#45;&gt;n22 -->
<g id="edge25" class="edge"><title>n14&#45;&gt;n22</title>
<path fill="none" stroke="black" d="M324.992,-209.533C321.228,-180.359 320.198,-133.239 345.733,-104.74 388.393,-57.1287 422.379,-80.2827 485.733,-71.7401 704.795,-42.202 1384.74,-31.488 1610.8,-28.6882"/>
<polygon fill="black" stroke="black" points="1610.95,-32.1868 1620.9,-28.5647 1610.86,-25.1873 1610.95,-32.1868"/>
<text text-anchor="middle" x="401.733" y="-127.91" font-family="Times,serif" font-size="14.00"> static(visible_from)</text>
</g>
<!-- n16 -->
<g id="node16" class="node"><title>n16</title>
<ellipse fill="none" stroke="black" cx="3322.73" cy="-236.35" rx="62.8651" ry="26.7407"/>
<text text-anchor="middle" x="3322.73" y="-240.15" font-family="Times,serif" font-size="14.00">&lt;objective1&gt;</text>
<text text-anchor="middle" x="3322.73" y="-225.15" font-family="Times,serif" font-size="14.00">objective</text>
</g>
<!-- n16&#45;&gt;n4 -->
<g id="edge41" class="edge"><title>n16&#45;&gt;n4</title>
<path fill="none" stroke="black" d="M3278.81,-217.013C3269.68,-213.93 3260.01,-211.182 3250.73,-209.48 3141.76,-189.481 2364.47,-194.952 2253.73,-191.48 2089.43,-186.329 1678.7,-170.137 1514.73,-158.48 1448.89,-153.8 1374.05,-146.291 1320.73,-140.566"/>
<polygon fill="black" stroke="black" points="1321.02,-137.077 1310.7,-139.483 1320.27,-144.037 1321.02,-137.077"/>
<text text-anchor="middle" x="2309.73" y="-180.28" font-family="Times,serif" font-size="14.00"> static(visible_from)</text>
</g>
<!-- n16&#45;&gt;n19 -->
<g id="edge17" class="edge"><title>n16&#45;&gt;n19</title>
<path fill="none" stroke="black" d="M3382.7,-228.042C3432.37,-221.155 3504.48,-209.218 3565.73,-191.48 3582.78,-186.544 3585.47,-180.572 3602.73,-176.48 3699.92,-153.451 3729.67,-182.002 3826.73,-158.48 3832.19,-157.158 3837.78,-155.419 3843.27,-153.466"/>
<polygon fill="black" stroke="black" points="3844.89,-156.596 3852.99,-149.765 3842.4,-150.055 3844.89,-156.596"/>
<text text-anchor="middle" x="3694.73" y="-180.28" font-family="Times,serif" font-size="14.00"> end(communicated_image_data)</text>
</g>
<!-- n16&#45;&gt;n21 -->
<g id="edge49" class="edge"><title>n16&#45;&gt;n21</title>
<path fill="none" stroke="black" d="M3322.3,-209.446C3323.55,-197.612 3327.26,-184.479 3336.73,-176.48 3383.52,-136.964 3558.68,-189.067 3611.73,-158.48 3636.64,-144.122 3624.24,-121.306 3647.73,-104.74 3718.79,-54.6407 3819.5,-37.1334 3885.21,-31.0511"/>
<polygon fill="black" stroke="black" points="3885.79,-34.5148 3895.45,-30.1698 3885.19,-27.5406 3885.79,-34.5148"/>
<text text-anchor="middle" x="3739.73" y="-127.91" font-family="Times,serif" font-size="14.00"> end(communicated_image_data)</text>
</g>
<!-- n16&#45;&gt;n22 -->
<g id="edge50" class="edge"><title>n16&#45;&gt;n22</title>
<path fill="none" stroke="black" d="M3278.39,-217.066C3269.37,-214.021 3259.86,-211.274 3250.73,-209.48 3069.58,-173.863 3019.83,-205.29 2835.73,-191.48 2698.01,-181.149 2642.49,-233.821 2526.73,-158.48 2503.62,-143.439 2518.44,-120.382 2495.73,-104.74 2419.37,-52.1396 2381.84,-82.4364 2289.73,-71.7401 2098.58,-49.5408 1872.06,-36.6808 1758.06,-31.1382"/>
<polygon fill="black" stroke="black" points="1758.2,-27.6413 1748.05,-30.6563 1757.87,-34.6332 1758.2,-27.6413"/>
<text text-anchor="middle" x="2582.73" y="-127.91" font-family="Times,serif" font-size="14.00"> static(visible_from)</text>
</g>
<!-- n17&#45;&gt;n21 -->
<g id="edge43" class="edge"><title>n17&#45;&gt;n21</title>
<path fill="none" stroke="black" d="M4609.57,-112.085C4593.04,-104.723 4574.27,-95.843 4557.73,-86.7401 4547.04,-80.8542 4546.29,-75.6544 4534.73,-71.7401 4440.89,-39.9643 4151.16,-31.1401 4018.86,-28.7411"/>
<polygon fill="black" stroke="black" points="4018.53,-25.2348 4008.47,-28.56 4018.4,-32.2337 4018.53,-25.2348"/>
<text text-anchor="middle" x="4649.73" y="-75.5401" font-family="Times,serif" font-size="14.00"> end(communicated_image_data)</text>
</g>
<!-- n17&#45;&gt;n22 -->
<g id="edge42" class="edge"><title>n17&#45;&gt;n22</title>
<path fill="none" stroke="black" d="M4607.83,-113.103C4597.71,-109.835 4586.96,-106.803 4576.73,-104.74 4479.31,-85.0942 4230.01,-76.2997 4130.73,-71.7401 3195.17,-28.7721 2056.51,-27.277 1758.78,-27.6883"/>
<polygon fill="black" stroke="black" points="1758.55,-24.1886 1748.55,-27.7037 1758.56,-31.1885 1758.55,-24.1886"/>
<text text-anchor="middle" x="4471.73" y="-75.5401" font-family="Times,serif" font-size="14.00"> static(visible_from)</text>
</g>
<!-- n18 -->
<g id="node18" class="node"><title>n18</title>
<ellipse fill="none" stroke="black" cx="2715.73" cy="-131.61" rx="67.7647" ry="26.7407"/>
<text text-anchor="middle" x="2715.73" y="-135.41" font-family="Times,serif" font-size="14.00">&lt;objective11&gt;</text>
<text text-anchor="middle" x="2715.73" y="-120.41" font-family="Times,serif" font-size="14.00">objective</text>
</g>
<!-- n18&#45;&gt;n21 -->
<g id="edge35" class="edge"><title>n18&#45;&gt;n21</title>
<path fill="none" stroke="black" d="M2691.61,-106.454C2682.92,-94.8981 2677.31,-81.4918 2686.73,-71.7401 2728.64,-28.3573 3629.34,-27.1208 3884.76,-27.647"/>
<polygon fill="black" stroke="black" points="3885,-31.1475 3895,-27.6698 3885.01,-24.1475 3885,-31.1475"/>
<text text-anchor="middle" x="2778.73" y="-75.5401" font-family="Times,serif" font-size="14.00"> end(communicated_image_data)</text>
</g>
<!-- n18&#45;&gt;n22 -->
<g id="edge33" class="edge"><title>n18&#45;&gt;n22</title>
<path fill="none" stroke="black" d="M2664.76,-113.753C2654.53,-110.59 2643.83,-107.435 2633.73,-104.74 2597.68,-95.1174 2586.14,-101.167 2551.73,-86.7401 2540.48,-82.0215 2540.34,-75.5202 2528.73,-71.7401 2456.61,-48.2443 1950.25,-34.0811 1758.28,-29.5049"/>
<polygon fill="black" stroke="black" points="1758.36,-26.0059 1748.28,-29.2684 1758.2,-33.004 1758.36,-26.0059"/>
<text text-anchor="middle" x="2607.73" y="-75.5401" font-family="Times,serif" font-size="14.00"> static(visible_from)</text>
</g>
<!-- n20 -->
<g id="node20" class="node"><title>n20</title>
<ellipse fill="none" stroke="black" cx="2162.73" cy="-131.61" rx="51.7379" ry="26.7407"/>
<text text-anchor="middle" x="2162.73" y="-135.41" font-family="Times,serif" font-size="14.00">&lt;general&gt;</text>
<text text-anchor="middle" x="2162.73" y="-120.41" font-family="Times,serif" font-size="14.00">lander</text>
</g>
<!-- n20&#45;&gt;n20 -->
<g id="edge3" class="edge"><title>n20&#45;&gt;n20</title>
<path fill="none" stroke="black" d="M2211.21,-141.226C2223.31,-140.554 2232.35,-137.348 2232.35,-131.61 2232.35,-127.665 2228.08,-124.917 2221.47,-123.367"/>
<polygon fill="black" stroke="black" points="2221.59,-119.85 2211.21,-121.994 2220.66,-126.789 2221.59,-119.85"/>
<text text-anchor="middle" x="2282.85" y="-127.91" font-family="Times,serif" font-size="14.00"> init(channel_free)</text>
</g>
<!-- n20&#45;&gt;n22 -->
<g id="edge51" class="edge"><title>n20&#45;&gt;n22</title>
<path fill="none" stroke="black" d="M2122.74,-114.486C2114.19,-111.166 2105.19,-107.764 2096.73,-104.74 2051.87,-88.7054 2041.16,-82.4513 1994.73,-71.7401 1914.21,-53.1622 1819.99,-41.1776 1756.74,-34.5074"/>
<polygon fill="black" stroke="black" points="1756.79,-30.9929 1746.48,-33.4426 1756.06,-37.9556 1756.79,-30.9929"/>
<text text-anchor="middle" x="2092.73" y="-75.5401" font-family="Times,serif" font-size="14.00"> static(at_lander)</text>
</g>
<!-- n22&#45;&gt;n4 -->
<g id="edge38" class="edge"><title>n22&#45;&gt;n4</title>
<path fill="none" stroke="black" d="M1625.08,-36.4896C1576.22,-44.0937 1505.5,-56.3519 1444.73,-71.7401 1423.89,-77.0187 1419.27,-80.3693 1398.73,-86.7401 1370.06,-95.6341 1338.15,-105.089 1311.23,-112.935"/>
<polygon fill="black" stroke="black" points="1310.19,-109.595 1301.56,-115.749 1312.14,-116.317 1310.19,-109.595"/>
<text text-anchor="middle" x="1483.73" y="-75.5401" font-family="Times,serif" font-size="14.00"> static(visible)</text>
</g>
<!-- n22&#45;&gt;n22 -->
<g id="edge4" class="edge"><title>n22&#45;&gt;n22</title>
<path fill="none" stroke="black" d="M1744.54,-36.3053C1757.22,-35.3472 1766.37,-32.2021 1766.37,-26.8701 1766.37,-23.121 1761.85,-20.4531 1754.75,-18.8664"/>
<polygon fill="black" stroke="black" points="1754.93,-15.3569 1744.54,-17.4349 1753.95,-22.2891 1754.93,-15.3569"/>
<text text-anchor="middle" x="1825.37" y="-23.1701" font-family="Times,serif" font-size="14.00"> init(at_rock_sample)</text>
</g>
<!-- n23 -->
<g id="node23" class="node"><title>n23</title>
<ellipse fill="none" stroke="black" cx="1832.73" cy="-236.35" rx="67.7647" ry="26.7407"/>
<text text-anchor="middle" x="1832.73" y="-240.15" font-family="Times,serif" font-size="14.00">&lt;objective12&gt;</text>
<text text-anchor="middle" x="1832.73" y="-225.15" font-family="Times,serif" font-size="14.00">objective</text>
</g>
<!-- n23&#45;&gt;n4 -->
<g id="edge15" class="edge"><title>n23&#45;&gt;n4</title>
<path fill="none" stroke="black" d="M1770.73,-225.184C1717.82,-216.448 1639.73,-203.41 1571.73,-191.48 1483.8,-176.053 1382.53,-157.391 1317.41,-145.273"/>
<polygon fill="black" stroke="black" points="1317.75,-141.776 1307.27,-143.386 1316.46,-148.658 1317.75,-141.776"/>
<text text-anchor="middle" x="1627.73" y="-180.28" font-family="Times,serif" font-size="14.00"> static(visible_from)</text>
</g>
<!-- n23&#45;&gt;n19 -->
<g id="edge8" class="edge"><title>n23&#45;&gt;n19</title>
<path fill="none" stroke="black" d="M1898.05,-229.022C1956.8,-223.45 2045.49,-215.334 2122.73,-209.48 2357.63,-191.68 2416.34,-185.62 2651.73,-176.48 2782.21,-171.414 3698.9,-185.099 3826.73,-158.48 3832.44,-157.292 3838.28,-155.582 3843.98,-153.599"/>
<polygon fill="black" stroke="black" points="3845.29,-156.849 3853.41,-150.049 3842.82,-150.298 3845.29,-156.849"/>
<text text-anchor="middle" x="2752.73" y="-180.28" font-family="Times,serif" font-size="14.00"> end(communicated_image_data)</text>
</g>
<!-- n23&#45;&gt;n22 -->
<g id="edge48" class="edge"><title>n23&#45;&gt;n22</title>
<path fill="none" stroke="black" d="M1831.89,-209.237C1829.8,-181.082 1822.91,-136.092 1800.73,-104.74 1784.66,-82.0178 1759.56,-64.1787 1736.81,-51.4295"/>
<polygon fill="black" stroke="black" points="1738.37,-48.2918 1727.91,-46.622 1735.04,-54.4518 1738.37,-48.2918"/>
<text text-anchor="middle" x="1880.73" y="-127.91" font-family="Times,serif" font-size="14.00"> static(visible_from)</text>
</g>
<!-- n24 -->
<g id="node24" class="node"><title>n24</title>
<ellipse fill="none" stroke="black" cx="198.733" cy="-131.61" rx="67.7647" ry="26.7407"/>
<text text-anchor="middle" x="198.733" y="-135.41" font-family="Times,serif" font-size="14.00">&lt;objective13&gt;</text>
<text text-anchor="middle" x="198.733" y="-120.41" font-family="Times,serif" font-size="14.00">objective</text>
</g>
<!-- n24&#45;&gt;n22 -->
<g id="edge31" class="edge"><title>n24&#45;&gt;n22</title>
<path fill="none" stroke="black" d="M188.517,-105.005C185.698,-93.3866 185.373,-80.35 193.733,-71.7401 218.666,-46.063 1312.99,-32.0125 1610.66,-28.661"/>
<polygon fill="black" stroke="black" points="1610.95,-32.1581 1620.91,-28.5463 1610.87,-25.1585 1610.95,-32.1581"/>
<text text-anchor="middle" x="249.733" y="-75.5401" font-family="Times,serif" font-size="14.00"> static(visible_from)</text>
</g>
<!-- n25 -->
<g id="node25" class="node"><title>n25</title>
<ellipse fill="none" stroke="black" cx="3794.73" cy="-236.35" rx="56.6372" ry="26.7407"/>
<text text-anchor="middle" x="3794.73" y="-240.15" font-family="Times,serif" font-size="14.00">&lt;camera1&gt;</text>
<text text-anchor="middle" x="3794.73" y="-225.15" font-family="Times,serif" font-size="14.00">camera</text>
</g>
<!-- n25&#45;&gt;n13 -->
<g id="edge47" class="edge"><title>n25&#45;&gt;n13</title>
<path fill="none" stroke="black" d="M3834.69,-216.914C3850.22,-209.425 3868.02,-200.435 3883.73,-191.48 3894.34,-185.438 3895.89,-182.085 3906.73,-176.48 3923.66,-167.728 3942.75,-159.603 3960.27,-152.783"/>
<polygon fill="black" stroke="black" points="3961.72,-155.974 3969.81,-149.133 3959.22,-149.436 3961.72,-155.974"/>
<text text-anchor="middle" x="3975.23" y="-180.28" font-family="Times,serif" font-size="14.00"> static(calibration_target)</text>
</g>
<!-- n25&#45;&gt;n15 -->
<g id="edge6" class="edge"><title>n25&#45;&gt;n15</title>
<path fill="none" stroke="black" d="M3738.97,-231.728C3599.22,-222.567 3243.45,-198.692 3218.73,-191.48 3205.18,-187.526 3203.67,-182.14 3190.73,-176.48 3168.33,-166.675 3161.61,-167.129 3138.73,-158.48 3134.33,-156.817 3129.78,-155.046 3125.23,-153.241"/>
<polygon fill="black" stroke="black" points="3126.51,-149.986 3115.93,-149.511 3123.91,-156.483 3126.51,-149.986"/>
<text text-anchor="middle" x="3262.73" y="-180.28" font-family="Times,serif" font-size="14.00"> static(supports)</text>
</g>
<!-- n25&#45;&gt;n19 -->
<g id="edge19" class="edge"><title>n25&#45;&gt;n19</title>
<path fill="none" stroke="black" d="M3789.43,-209.553C3788.55,-198.567 3789.52,-186.097 3795.73,-176.48 3798.7,-171.888 3820.12,-161.645 3841.66,-152.211"/>
<polygon fill="black" stroke="black" points="3843.05,-155.421 3850.84,-148.237 3840.27,-148.997 3843.05,-155.421"/>
<text text-anchor="middle" x="3839.73" y="-180.28" font-family="Times,serif" font-size="14.00"> static(supports)</text>
</g>
<!-- n25&#45;&gt;n21 -->
<g id="edge45" class="edge"><title>n25&#45;&gt;n21</title>
<path fill="none" stroke="black" d="M3851.15,-234.078C3967.26,-230.875 4224.33,-220.547 4250.73,-191.48 4268.39,-172.044 4294.17,-167.494 4232.73,-104.74 4176.68,-47.4827 4082.38,-31.6538 4018.65,-27.9053"/>
<polygon fill="black" stroke="black" points="4018.46,-24.3917 4008.3,-27.3865 4018.11,-31.3829 4018.46,-24.3917"/>
<text text-anchor="middle" x="4314.73" y="-127.91" font-family="Times,serif" font-size="14.00"> static(supports)</text>
</g>
<!-- n25&#45;&gt;n29 -->
<g id="edge22" class="edge"><title>n25&#45;&gt;n29</title>
<path fill="none" stroke="black" d="M3738,-234.191C3653.79,-231.457 3491.19,-222.281 3356.73,-191.48 3334.87,-186.472 3282.94,-166.954 3243.93,-151.747"/>
<polygon fill="black" stroke="black" points="3244.9,-148.37 3234.31,-147.986 3242.35,-154.889 3244.9,-148.37"/>
<text text-anchor="middle" x="3403.23" y="-180.28" font-family="Times,serif" font-size="14.00"> static(on_board)</text>
</g>
<!-- n26 -->
<g id="node26" class="node"><title>n26</title>
<ellipse fill="none" stroke="black" cx="96.7328" cy="-236.35" rx="67.7647" ry="26.7407"/>
<text text-anchor="middle" x="96.7328" y="-240.15" font-family="Times,serif" font-size="14.00">&lt;objective18&gt;</text>
<text text-anchor="middle" x="96.7328" y="-225.15" font-family="Times,serif" font-size="14.00">objective</text>
</g>
<!-- n26&#45;&gt;n4 -->
<g id="edge24" class="edge"><title>n26&#45;&gt;n4</title>
<path fill="none" stroke="black" d="M154.399,-222.021C218.712,-207.817 326.031,-186.081 419.733,-176.48 586.021,-159.442 1007.04,-187.105 1171.73,-158.48 1179.06,-157.206 1186.64,-155.378 1194.07,-153.274"/>
<polygon fill="black" stroke="black" points="1195.14,-156.607 1203.7,-150.372 1193.12,-149.904 1195.14,-156.607"/>
<text text-anchor="middle" x="475.733" y="-180.28" font-family="Times,serif" font-size="14.00"> static(visible_from)</text>
</g>
<!-- n26&#45;&gt;n22 -->
<g id="edge39" class="edge"><title>n26&#45;&gt;n22</title>
<path fill="none" stroke="black" d="M59.8385,-213.607C41.0731,-200.314 20.088,-181.448 9.73282,-158.48 -0.0840922,-136.706 -5.50154,-123.135 9.73282,-104.74 61.4683,-42.2705 1293.03,-30.3086 1610.59,-28.2599"/>
<polygon fill="black" stroke="black" points="1611.07,-31.757 1621.05,-28.1939 1611.03,-24.7571 1611.07,-31.757"/>
<text text-anchor="middle" x="65.7328" y="-127.91" font-family="Times,serif" font-size="14.00"> static(visible_from)</text>
</g>
<!-- n27 -->
<g id="node27" class="node"><title>n27</title>
<ellipse fill="none" stroke="black" cx="654.733" cy="-131.61" rx="62.8651" ry="26.7407"/>
<text text-anchor="middle" x="654.733" y="-135.41" font-family="Times,serif" font-size="14.00">&lt;objective4&gt;</text>
<text text-anchor="middle" x="654.733" y="-120.41" font-family="Times,serif" font-size="14.00">objective</text>
</g>
<!-- n27&#45;&gt;n22 -->
<g id="edge52" class="edge"><title>n27&#45;&gt;n22</title>
<path fill="none" stroke="black" d="M657.412,-104.664C660.075,-92.6679 665.343,-79.4082 675.733,-71.7401 713.225,-44.0692 1384.38,-32.1012 1610.82,-28.839"/>
<polygon fill="black" stroke="black" points="1611,-32.337 1620.94,-28.6948 1610.9,-25.3377 1611,-32.337"/>
<text text-anchor="middle" x="731.733" y="-75.5401" font-family="Times,serif" font-size="14.00"> static(visible_from)</text>
</g>
<!-- n28 -->
<g id="node28" class="node"><title>n28</title>
<ellipse fill="none" stroke="black" cx="803.733" cy="-131.61" rx="67.7647" ry="26.7407"/>
<text text-anchor="middle" x="803.733" y="-135.41" font-family="Times,serif" font-size="14.00">&lt;objective14&gt;</text>
<text text-anchor="middle" x="803.733" y="-120.41" font-family="Times,serif" font-size="14.00">objective</text>
</g>
<!-- n28&#45;&gt;n22 -->
<g id="edge34" class="edge"><title>n28&#45;&gt;n22</title>
<path fill="none" stroke="black" d="M792.941,-104.793C789.979,-93.2691 789.517,-80.3725 797.733,-71.7401 825.597,-42.4639 1403.03,-31.7134 1610.95,-28.7828"/>
<polygon fill="black" stroke="black" points="1611.21,-32.2796 1621.16,-28.641 1611.11,-25.2803 1611.21,-32.2796"/>
<text text-anchor="middle" x="853.733" y="-75.5401" font-family="Times,serif" font-size="14.00"> static(visible_from)</text>
</g>
<!-- n29&#45;&gt;n22 -->
<g id="edge30" class="edge"><title>n29&#45;&gt;n22</title>
<path fill="none" stroke="black" d="M3161.09,-112.88C3153.85,-109.751 3146.16,-106.83 3138.73,-104.74 3109.85,-96.6135 2900.64,-74.1302 2870.73,-71.7401 2450.95,-38.193 1945.49,-30.2493 1758.73,-28.4098"/>
<polygon fill="black" stroke="black" points="1758.52,-24.9077 1748.48,-28.3119 1758.45,-31.9074 1758.52,-24.9077"/>
<text text-anchor="middle" x="3026.23" y="-75.5401" font-family="Times,serif" font-size="14.00"> init(at)</text>
</g>
<!-- n29&#45;&gt;n29 -->
<g id="edge5" class="edge"><title>n29&#45;&gt;n29</title>
<path fill="none" stroke="black" d="M3240.83,-141.274C3252.77,-140.722 3261.82,-137.501 3261.82,-131.61 3261.82,-127.56 3257.54,-124.772 3250.99,-123.246"/>
<polygon fill="black" stroke="black" points="3251.19,-119.743 3240.83,-121.946 3250.3,-126.687 3251.19,-119.743"/>
<text text-anchor="middle" x="3355.32" y="-142.91" font-family="Times,serif" font-size="14.00"> static(equipped_for_imaging)</text>
<text text-anchor="middle" x="3355.32" y="-127.91" font-family="Times,serif" font-size="14.00">init(available)</text>
<text text-anchor="middle" x="3355.32" y="-112.91" font-family="Times,serif" font-size="14.00">static(equipped_for_soil_analysis)</text>
</g>
</g>
</svg>
