<?xml version="1.0" encoding="UTF-8" standalone="no"?>
<!DOCTYPE svg PUBLIC "-//W3C//DTD SVG 1.1//EN"
 "http://www.w3.org/Graphics/SVG/1.1/DTD/svg11.dtd">
<!-- Generated by graphviz version 2.38.0 (20140413.2041)
 -->
<!-- Title: Struc Pages: 1 -->
<svg width="928pt" height="400pt"
 viewBox="0.00 0.00 928.19 399.96" xmlns="http://www.w3.org/2000/svg" xmlns:xlink="http://www.w3.org/1999/xlink">
<g id="graph0" class="graph" transform="scale(1 1) rotate(0) translate(4 395.96)">
<title>Struc</title>
<polygon fill="white" stroke="none" points="-4,4 -4,-395.96 924.187,-395.96 924.187,4 -4,4"/>
<!-- n1 -->
<g id="node1" class="node"><title>n1</title>
<ellipse fill="none" stroke="black" cx="208.569" cy="-361.09" rx="56.6326" ry="26.7574"/>
<ellipse fill="none" stroke="black" cx="208.569" cy="-361.09" rx="60.6372" ry="30.7407"/>
<text text-anchor="middle" x="208.569" y="-364.89" font-family="Times,serif" font-size="14.00">&lt;camera1&gt;</text>
<text text-anchor="middle" x="208.569" y="-349.89" font-family="Times,serif" font-size="14.00">camera</text>
</g>
<!-- n2 -->
<g id="node2" class="node"><title>n2</title>
<ellipse fill="none" stroke="black" cx="426.569" cy="-248.35" rx="48.1667" ry="26.7407"/>
<text text-anchor="middle" x="426.569" y="-252.15" font-family="Times,serif" font-size="14.00">&lt;rover0&gt;</text>
<text text-anchor="middle" x="426.569" y="-237.15" font-family="Times,serif" font-size="14.00">rover</text>
</g>
<!-- n1&#45;&gt;n2 -->
<g id="edge12" class="edge"><title>n1&#45;&gt;n2</title>
<path fill="none" stroke="black" d="M261.762,-346.191C288.155,-338.175 319.99,-326.778 346.569,-312.22 356.005,-307.052 357.114,-303.875 365.569,-297.22 373.905,-290.658 382.891,-283.6 391.335,-276.972"/>
<polygon fill="black" stroke="black" points="393.519,-279.707 399.226,-270.78 389.198,-274.2 393.519,-279.707"/>
<text text-anchor="middle" x="412.069" y="-301.02" font-family="Times,serif" font-size="14.00"> static(on_board)</text>
</g>
<!-- n3 -->
<g id="node3" class="node"><title>n3</title>
<ellipse fill="none" stroke="black" cx="60.5685" cy="-135.61" rx="56.6326" ry="26.7574"/>
<ellipse fill="none" stroke="black" cx="60.5685" cy="-135.61" rx="60.6372" ry="30.7407"/>
<text text-anchor="middle" x="60.5685" y="-139.41" font-family="Times,serif" font-size="14.00">&lt;high_res&gt;</text>
<text text-anchor="middle" x="60.5685" y="-124.41" font-family="Times,serif" font-size="14.00">mode</text>
</g>
<!-- n1&#45;&gt;n3 -->
<g id="edge10" class="edge"><title>n1&#45;&gt;n3</title>
<path fill="none" stroke="black" stroke-dasharray="5,2" d="M160.925,-341.842C132.906,-328.649 99.2231,-308.049 79.5685,-279.22 59.1791,-249.314 55.7851,-207.568 56.6788,-176.97"/>
<polygon fill="black" stroke="black" points="60.1902,-176.8 57.1529,-166.65 53.1976,-176.479 60.1902,-176.8"/>
<text text-anchor="middle" x="123.569" y="-244.65" font-family="Times,serif" font-size="14.00"> static(supports)</text>
</g>
<!-- n8 -->
<g id="node8" class="node"><title>n8</title>
<ellipse fill="none" stroke="black" cx="248.569" cy="-248.35" rx="67.7712" ry="26.7574"/>
<ellipse fill="none" stroke="black" cx="248.569" cy="-248.35" rx="71.7647" ry="30.7407"/>
<text text-anchor="middle" x="248.569" y="-252.15" font-family="Times,serif" font-size="14.00">&lt;objective14&gt;</text>
<text text-anchor="middle" x="248.569" y="-237.15" font-family="Times,serif" font-size="14.00">objective</text>
</g>
<!-- n1&#45;&gt;n8 -->
<g id="edge7" class="edge"><title>n1&#45;&gt;n8</title>
<path fill="none" stroke="black" stroke-dasharray="5,2" d="M205.069,-330.248C204.838,-319.549 205.79,-307.578 209.569,-297.22 211.036,-293.198 212.994,-289.266 215.255,-285.494"/>
<polygon fill="black" stroke="black" points="218.287,-287.258 220.99,-277.014 212.489,-283.337 218.287,-287.258"/>
<text text-anchor="middle" x="278.069" y="-301.02" font-family="Times,serif" font-size="14.00"> static(calibration_target)</text>
</g>
<!-- n2&#45;&gt;n2 -->
<g id="edge1" class="edge"><title>n2&#45;&gt;n2</title>
<path fill="none" stroke="black" d="M471.043,-258.786C483.292,-258.282 492.652,-254.803 492.652,-248.35 492.652,-243.813 488.024,-240.746 481.019,-239.15"/>
<polygon fill="black" stroke="black" points="481.397,-235.67 471.043,-237.914 480.537,-242.617 481.397,-235.67"/>
<text text-anchor="middle" x="586.152" y="-259.65" font-family="Times,serif" font-size="14.00"> static(equipped_for_imaging)</text>
<text text-anchor="middle" x="586.152" y="-244.65" font-family="Times,serif" font-size="14.00">init(available)</text>
<text text-anchor="middle" x="586.152" y="-229.65" font-family="Times,serif" font-size="14.00">static(equipped_for_soil_analysis)</text>
</g>
<!-- n6 -->
<g id="node6" class="node"><title>n6</title>
<ellipse fill="none" stroke="black" cx="469.569" cy="-135.61" rx="63.7795" ry="26.7407"/>
<text text-anchor="middle" x="469.569" y="-139.41" font-family="Times,serif" font-size="14.00">&lt;waypoint0&gt;</text>
<text text-anchor="middle" x="469.569" y="-124.41" font-family="Times,serif" font-size="14.00">waypoint</text>
</g>
<!-- n2&#45;&gt;n6 -->
<g id="edge13" class="edge"><title>n2&#45;&gt;n6</title>
<path fill="none" stroke="black" d="M436.434,-221.944C442.183,-207.138 449.521,-188.24 455.829,-171.994"/>
<polygon fill="black" stroke="black" points="459.243,-172.87 459.6,-162.281 452.718,-170.336 459.243,-172.87"/>
<text text-anchor="middle" x="472.069" y="-188.28" font-family="Times,serif" font-size="14.00"> init(at)</text>
</g>
<!-- n4 -->
<g id="node4" class="node"><title>n4</title>
<ellipse fill="none" stroke="black" cx="484.569" cy="-361.09" rx="67.3507" ry="26.7407"/>
<text text-anchor="middle" x="484.569" y="-364.89" font-family="Times,serif" font-size="14.00">&lt;rover0store&gt;</text>
<text text-anchor="middle" x="484.569" y="-349.89" font-family="Times,serif" font-size="14.00">store</text>
</g>
<!-- n4&#45;&gt;n2 -->
<g id="edge8" class="edge"><title>n4&#45;&gt;n2</title>
<path fill="none" stroke="black" d="M477.505,-334.251C473.823,-322.587 468.781,-308.848 462.569,-297.22 459.743,-291.932 456.364,-286.598 452.825,-281.507"/>
<polygon fill="black" stroke="black" points="455.503,-279.239 446.785,-273.219 449.846,-283.362 455.503,-279.239"/>
<text text-anchor="middle" x="512.569" y="-301.02" font-family="Times,serif" font-size="14.00"> static(store_of)</text>
</g>
<!-- n4&#45;&gt;n4 -->
<g id="edge2" class="edge"><title>n4&#45;&gt;n4</title>
<path fill="none" stroke="black" d="M546.963,-371.251C560.191,-370.22 569.744,-366.833 569.744,-361.09 569.744,-356.918 564.701,-353.99 556.87,-352.304"/>
<polygon fill="black" stroke="black" points="557.349,-348.837 546.963,-350.929 556.387,-355.771 557.349,-348.837"/>
<text text-anchor="middle" x="602.744" y="-357.39" font-family="Times,serif" font-size="14.00"> init(empty)</text>
</g>
<!-- n5 -->
<g id="node5" class="node"><title>n5</title>
<ellipse fill="none" stroke="black" cx="368.569" cy="-26.8701" rx="63.7795" ry="26.7407"/>
<text text-anchor="middle" x="368.569" y="-30.6701" font-family="Times,serif" font-size="14.00">&lt;waypoint1&gt;</text>
<text text-anchor="middle" x="368.569" y="-15.6701" font-family="Times,serif" font-size="14.00">waypoint</text>
</g>
<!-- n5&#45;&gt;n5 -->
<g id="edge3" class="edge"><title>n5&#45;&gt;n5</title>
<path fill="none" stroke="black" d="M428.373,-36.3053C441.052,-35.3472 450.208,-32.2021 450.208,-26.8701 450.208,-23.121 445.682,-20.4531 438.586,-18.8664"/>
<polygon fill="black" stroke="black" points="438.762,-15.3569 428.373,-17.4349 437.79,-22.2891 438.762,-15.3569"/>
<text text-anchor="middle" x="534.708" y="-38.1701" font-family="Times,serif" font-size="14.00"> end(communicated_soil_data)</text>
<text text-anchor="middle" x="534.708" y="-23.1701" font-family="Times,serif" font-size="14.00">init(at_soil_sample)</text>
<text text-anchor="middle" x="534.708" y="-8.17006" font-family="Times,serif" font-size="14.00">init(at_rock_sample)</text>
</g>
<!-- n5&#45;&gt;n6 -->
<g id="edge11" class="edge"><title>n5&#45;&gt;n6</title>
<path fill="none" stroke="black" d="M360.92,-53.634C359.188,-64.6141 359.386,-77.0886 365.569,-86.7401 368.775,-91.7454 391.692,-102.525 415.2,-112.59"/>
<polygon fill="black" stroke="black" points="413.974,-115.872 424.548,-116.545 416.702,-109.425 413.974,-115.872"/>
<text text-anchor="middle" x="404.569" y="-75.5401" font-family="Times,serif" font-size="14.00"> static(visible)</text>
</g>
<!-- n6&#45;&gt;n5 -->
<g id="edge9" class="edge"><title>n6&#45;&gt;n5</title>
<path fill="none" stroke="black" d="M464.948,-108.595C461.723,-96.3473 456.362,-82.1745 447.569,-71.7401 440.75,-63.6491 432.041,-56.7763 422.911,-51.0415"/>
<polygon fill="black" stroke="black" points="424.478,-47.9035 414.076,-45.8892 420.951,-53.9504 424.478,-47.9035"/>
<text text-anchor="middle" x="495.569" y="-75.5401" font-family="Times,serif" font-size="14.00"> static(visible)</text>
</g>
<!-- n6&#45;&gt;n6 -->
<g id="edge4" class="edge"><title>n6&#45;&gt;n6</title>
<path fill="none" stroke="black" d="M528.645,-145.828C541.7,-144.868 551.208,-141.462 551.208,-135.61 551.208,-131.404 546.296,-128.462 538.686,-126.783"/>
<polygon fill="black" stroke="black" points="539.03,-123.298 528.645,-125.393 538.07,-130.231 539.03,-123.298"/>
<text text-anchor="middle" x="610.208" y="-131.91" font-family="Times,serif" font-size="14.00"> init(at_rock_sample)</text>
</g>
<!-- n7 -->
<g id="node7" class="node"><title>n7</title>
<ellipse fill="none" stroke="black" cx="749.569" cy="-248.35" rx="51.7379" ry="26.7407"/>
<text text-anchor="middle" x="749.569" y="-252.15" font-family="Times,serif" font-size="14.00">&lt;general&gt;</text>
<text text-anchor="middle" x="749.569" y="-237.15" font-family="Times,serif" font-size="14.00">lander</text>
</g>
<!-- n7&#45;&gt;n6 -->
<g id="edge16" class="edge"><title>n7&#45;&gt;n6</title>
<path fill="none" stroke="black" d="M713.4,-228.89C705.301,-224.966 696.699,-220.961 688.569,-217.48 634.939,-194.518 572.383,-171.811 527.893,-156.332"/>
<polygon fill="black" stroke="black" points="528.997,-153.01 518.402,-153.044 526.705,-159.625 528.997,-153.01"/>
<text text-anchor="middle" x="687.569" y="-188.28" font-family="Times,serif" font-size="14.00"> static(at_lander)</text>
</g>
<!-- n7&#45;&gt;n7 -->
<g id="edge5" class="edge"><title>n7&#45;&gt;n7</title>
<path fill="none" stroke="black" d="M797.401,-258.742C809.821,-258.103 819.187,-254.639 819.187,-248.35 819.187,-243.928 814.557,-240.903 807.49,-239.274"/>
<polygon fill="black" stroke="black" points="807.769,-235.781 797.401,-237.959 806.864,-242.723 807.769,-235.781"/>
<text text-anchor="middle" x="869.687" y="-244.65" font-family="Times,serif" font-size="14.00"> init(channel_free)</text>
</g>
<!-- n8&#45;&gt;n3 -->
<g id="edge15" class="edge"><title>n8&#45;&gt;n3</title>
<path fill="none" stroke="black" stroke-dasharray="5,2" d="M188.331,-231.227C139.923,-218.155 79.637,-201.567 77.5685,-199.48 71.3899,-193.246 67.3952,-185.013 64.8281,-176.565"/>
<polygon fill="black" stroke="black" points="68.1834,-175.55 62.425,-166.657 61.3807,-177.2 68.1834,-175.55"/>
<text text-anchor="middle" x="169.569" y="-188.28" font-family="Times,serif" font-size="14.00"> end(communicated_image_data)</text>
</g>
<!-- n8&#45;&gt;n5 -->
<g id="edge6" class="edge"><title>n8&#45;&gt;n5</title>
<path fill="none" stroke="black" stroke-dasharray="5,2" d="M256.807,-217.506C258.415,-211.543 260.067,-205.319 261.569,-199.48 272.358,-157.515 262.517,-142.039 284.569,-104.74 295.449,-86.3369 312.127,-69.7639 327.764,-56.7591"/>
<polygon fill="black" stroke="black" points="330.207,-59.2856 335.809,-50.2929 325.822,-53.8293 330.207,-59.2856"/>
<text text-anchor="middle" x="340.569" y="-131.91" font-family="Times,serif" font-size="14.00"> static(visible_from)</text>
</g>
<!-- n8&#45;&gt;n6 -->
<g id="edge14" class="edge"><title>n8&#45;&gt;n6</title>
<path fill="none" stroke="black" d="M278.24,-219.92C292.814,-207.644 311.17,-193.856 329.569,-184.48 355.134,-171.452 364.369,-175.619 391.569,-166.48 399.191,-163.919 407.171,-161.066 414.996,-158.168"/>
<polygon fill="black" stroke="black" points="416.298,-161.418 424.43,-154.626 413.837,-154.864 416.298,-161.418"/>
<text text-anchor="middle" x="385.569" y="-188.28" font-family="Times,serif" font-size="14.00"> static(visible_from)</text>
</g>
</g>
</svg>
