<?xml version="1.0" encoding="UTF-8" standalone="no"?>
<!DOCTYPE svg PUBLIC "-//W3C//DTD SVG 1.1//EN"
 "http://www.w3.org/Graphics/SVG/1.1/DTD/svg11.dtd">
<!-- Generated by graphviz version 2.38.0 (20140413.2041)
 -->
<!-- Title: Struc Pages: 1 -->
<svg width="5132pt" height="376pt"
 viewBox="0.00 0.00 5132.02 375.96" xmlns="http://www.w3.org/2000/svg" xmlns:xlink="http://www.w3.org/1999/xlink">
<g id="graph0" class="graph" transform="scale(1 1) rotate(0) translate(4 371.96)">
<title>Struc</title>
<polygon fill="white" stroke="none" points="-4,4 -4,-371.96 5128.02,-371.96 5128.02,4 -4,4"/>
<!-- n1 -->
<g id="node1" class="node"><title>n1</title>
<ellipse fill="none" stroke="black" cx="62.9325" cy="-236.35" rx="62.8651" ry="26.7407"/>
<text text-anchor="middle" x="62.9325" y="-240.15" font-family="Times,serif" font-size="14.00">&lt;objective0&gt;</text>
<text text-anchor="middle" x="62.9325" y="-225.15" font-family="Times,serif" font-size="14.00">objective</text>
</g>
<!-- n4 -->
<g id="node4" class="node"><title>n4</title>
<ellipse fill="none" stroke="black" cx="859.933" cy="-131.61" rx="63.7795" ry="26.7407"/>
<text text-anchor="middle" x="859.933" y="-135.41" font-family="Times,serif" font-size="14.00">&lt;waypoint1&gt;</text>
<text text-anchor="middle" x="859.933" y="-120.41" font-family="Times,serif" font-size="14.00">waypoint</text>
</g>
<!-- n1&#45;&gt;n4 -->
<g id="edge55" class="edge"><title>n1&#45;&gt;n4</title>
<path fill="none" stroke="black" d="M94.7833,-212.777C115.437,-199.499 143.517,-183.899 170.933,-176.48 302.054,-141 648.167,-182.111 781.933,-158.48 789.177,-157.2 796.667,-155.387 804.011,-153.306"/>
<polygon fill="black" stroke="black" points="805.331,-156.564 813.896,-150.328 803.312,-149.861 805.331,-156.564"/>
<text text-anchor="middle" x="226.933" y="-180.28" font-family="Times,serif" font-size="14.00"> static(visible_from)</text>
</g>
<!-- n22 -->
<g id="node22" class="node"><title>n22</title>
<ellipse fill="none" stroke="black" cx="1738.93" cy="-26.8701" rx="63.7795" ry="26.7407"/>
<text text-anchor="middle" x="1738.93" y="-30.6701" font-family="Times,serif" font-size="14.00">&lt;waypoint0&gt;</text>
<text text-anchor="middle" x="1738.93" y="-15.6701" font-family="Times,serif" font-size="14.00">waypoint</text>
</g>
<!-- n1&#45;&gt;n22 -->
<g id="edge54" class="edge"><title>n1&#45;&gt;n22</title>
<path fill="none" stroke="black" d="M66.4676,-209.406C71.9846,-179.428 85.5962,-130.88 117.933,-104.74 179.145,-55.257 213.687,-80.2925 291.933,-71.7401 562.232,-42.1961 1409.33,-31.2539 1665.09,-28.5743"/>
<polygon fill="black" stroke="black" points="1665.42,-32.0712 1675.38,-28.4677 1665.35,-25.0716 1665.42,-32.0712"/>
<text text-anchor="middle" x="173.933" y="-127.91" font-family="Times,serif" font-size="14.00"> static(visible_from)</text>
</g>
<!-- n2 -->
<g id="node2" class="node"><title>n2</title>
<ellipse fill="none" stroke="black" cx="378.933" cy="-236.35" rx="62.8651" ry="26.7407"/>
<text text-anchor="middle" x="378.933" y="-240.15" font-family="Times,serif" font-size="14.00">&lt;objective3&gt;</text>
<text text-anchor="middle" x="378.933" y="-225.15" font-family="Times,serif" font-size="14.00">objective</text>
</g>
<!-- n2&#45;&gt;n4 -->
<g id="edge27" class="edge"><title>n2&#45;&gt;n4</title>
<path fill="none" stroke="black" d="M407.5,-212.135C425.217,-199.151 449.085,-184.089 472.933,-176.48 603.989,-134.665 646.822,-184.355 781.933,-158.48 789.061,-157.115 796.437,-155.271 803.68,-153.192"/>
<polygon fill="black" stroke="black" points="804.885,-156.484 813.44,-150.234 802.854,-149.785 804.885,-156.484"/>
<text text-anchor="middle" x="528.933" y="-180.28" font-family="Times,serif" font-size="14.00"> static(visible_from)</text>
</g>
<!-- n2&#45;&gt;n22 -->
<g id="edge16" class="edge"><title>n2&#45;&gt;n22</title>
<path fill="none" stroke="black" d="M378.163,-209.331C378.779,-179.744 384.553,-132.02 412.933,-104.74 462.457,-57.1342 495.784,-80.3891 563.933,-71.7401 778.355,-44.5269 1442.04,-32.3167 1665.01,-28.9094"/>
<polygon fill="black" stroke="black" points="1665.35,-32.4049 1675.29,-28.7538 1665.24,-25.4057 1665.35,-32.4049"/>
<text text-anchor="middle" x="468.933" y="-127.91" font-family="Times,serif" font-size="14.00"> static(visible_from)</text>
</g>
<!-- n3 -->
<g id="node3" class="node"><title>n3</title>
<ellipse fill="none" stroke="black" cx="1377.93" cy="-236.35" rx="67.7647" ry="26.7407"/>
<text text-anchor="middle" x="1377.93" y="-240.15" font-family="Times,serif" font-size="14.00">&lt;objective16&gt;</text>
<text text-anchor="middle" x="1377.93" y="-225.15" font-family="Times,serif" font-size="14.00">objective</text>
</g>
<!-- n3&#45;&gt;n4 -->
<g id="edge9" class="edge"><title>n3&#45;&gt;n4</title>
<path fill="none" stroke="black" d="M1319.05,-222.768C1280.06,-214.29 1227.84,-202.654 1181.93,-191.48 1156.48,-185.285 1150.55,-181.959 1124.93,-176.48 1059.17,-162.416 983.41,-150.276 929.781,-142.356"/>
<polygon fill="black" stroke="black" points="930.098,-138.865 919.696,-140.877 929.083,-145.791 930.098,-138.865"/>
<text text-anchor="middle" x="1237.93" y="-180.28" font-family="Times,serif" font-size="14.00"> static(visible_from)</text>
</g>
<!-- n21 -->
<g id="node21" class="node"><title>n21</title>
<ellipse fill="none" stroke="black" cx="3173.93" cy="-131.61" rx="56.6372" ry="26.7407"/>
<text text-anchor="middle" x="3173.93" y="-135.41" font-family="Times,serif" font-size="14.00">&lt;high_res&gt;</text>
<text text-anchor="middle" x="3173.93" y="-120.41" font-family="Times,serif" font-size="14.00">mode</text>
</g>
<!-- n3&#45;&gt;n21 -->
<g id="edge28" class="edge"><title>n3&#45;&gt;n21</title>
<path fill="none" stroke="black" d="M1425.44,-217.102C1435.08,-214.054 1445.23,-211.297 1454.93,-209.48 1540.43,-193.475 1763.43,-219.024 1845.93,-191.48 1857.16,-187.733 1856.67,-180.103 1867.93,-176.48 1947.71,-150.825 2538.18,-161.442 2621.93,-158.48 2797.54,-152.27 3004.41,-141.704 3107.93,-136.194"/>
<polygon fill="black" stroke="black" points="3108.13,-139.689 3117.93,-135.661 3107.75,-132.699 3108.13,-139.689"/>
<text text-anchor="middle" x="1959.93" y="-180.28" font-family="Times,serif" font-size="14.00"> end(communicated_image_data)</text>
</g>
<!-- n3&#45;&gt;n22 -->
<g id="edge33" class="edge"><title>n3&#45;&gt;n22</title>
<path fill="none" stroke="black" d="M1411.16,-212.746C1418.01,-206.608 1424.48,-199.43 1428.93,-191.48 1448,-157.404 1416.65,-133.62 1442.93,-104.74 1472.9,-71.8115 1590.65,-49.0348 1668.3,-37.2417"/>
<polygon fill="black" stroke="black" points="1669.13,-40.6567 1678.51,-35.7198 1668.1,-33.7332 1669.13,-40.6567"/>
<text text-anchor="middle" x="1498.93" y="-127.91" font-family="Times,serif" font-size="14.00"> static(visible_from)</text>
</g>
<!-- n4&#45;&gt;n4 -->
<g id="edge1" class="edge"><title>n4&#45;&gt;n4</title>
<path fill="none" stroke="black" d="M919.737,-141.045C932.416,-140.087 941.572,-136.942 941.572,-131.61 941.572,-127.861 937.046,-125.193 929.95,-123.607"/>
<polygon fill="black" stroke="black" points="930.126,-120.097 919.737,-122.175 929.154,-127.029 930.126,-120.097"/>
<text text-anchor="middle" x="1026.07" y="-142.91" font-family="Times,serif" font-size="14.00"> end(communicated_soil_data)</text>
<text text-anchor="middle" x="1026.07" y="-127.91" font-family="Times,serif" font-size="14.00">init(at_soil_sample)</text>
<text text-anchor="middle" x="1026.07" y="-112.91" font-family="Times,serif" font-size="14.00">init(at_rock_sample)</text>
</g>
<!-- n4&#45;&gt;n22 -->
<g id="edge12" class="edge"><title>n4&#45;&gt;n22</title>
<path fill="none" stroke="black" d="M873.827,-105.093C882.013,-92.7343 893.587,-79.0228 907.933,-71.7401 974.422,-37.9866 1474.12,-30.1427 1665.06,-28.3708"/>
<polygon fill="black" stroke="black" points="1665.32,-31.8688 1675.29,-28.2791 1665.25,-24.8691 1665.32,-31.8688"/>
<text text-anchor="middle" x="946.933" y="-75.5401" font-family="Times,serif" font-size="14.00"> static(visible)</text>
</g>
<!-- n5 -->
<g id="node5" class="node"><title>n5</title>
<ellipse fill="none" stroke="black" cx="3688.93" cy="-341.09" rx="56.6372" ry="26.7407"/>
<text text-anchor="middle" x="3688.93" y="-344.89" font-family="Times,serif" font-size="14.00">&lt;camera0&gt;</text>
<text text-anchor="middle" x="3688.93" y="-329.89" font-family="Times,serif" font-size="14.00">camera</text>
</g>
<!-- n17 -->
<g id="node17" class="node"><title>n17</title>
<ellipse fill="none" stroke="black" cx="3688.93" cy="-236.35" rx="62.8651" ry="26.7407"/>
<text text-anchor="middle" x="3688.93" y="-240.15" font-family="Times,serif" font-size="14.00">&lt;objective8&gt;</text>
<text text-anchor="middle" x="3688.93" y="-225.15" font-family="Times,serif" font-size="14.00">objective</text>
</g>
<!-- n5&#45;&gt;n17 -->
<g id="edge14" class="edge"><title>n5&#45;&gt;n17</title>
<path fill="none" stroke="black" d="M3688.93,-314.165C3688.93,-301.875 3688.93,-286.987 3688.93,-273.602"/>
<polygon fill="black" stroke="black" points="3692.43,-273.268 3688.93,-263.268 3685.43,-273.268 3692.43,-273.268"/>
<text text-anchor="middle" x="3757.43" y="-285.02" font-family="Times,serif" font-size="14.00"> static(calibration_target)</text>
</g>
<!-- n5&#45;&gt;n21 -->
<g id="edge45" class="edge"><title>n5&#45;&gt;n21</title>
<path fill="none" stroke="black" d="M3634.43,-333.696C3553.18,-323.094 3405.79,-299.393 3367.93,-263.22 3338.92,-235.505 3372.81,-203.259 3342.93,-176.48 3308,-145.17 3284.08,-171.222 3238.93,-158.48 3234.09,-157.113 3229.11,-155.511 3224.17,-153.785"/>
<polygon fill="black" stroke="black" points="3225.34,-150.489 3214.75,-150.344 3222.94,-157.064 3225.34,-150.489"/>
<text text-anchor="middle" x="3411.93" y="-232.65" font-family="Times,serif" font-size="14.00"> static(supports)</text>
</g>
<!-- n29 -->
<g id="node29" class="node"><title>n29</title>
<ellipse fill="none" stroke="black" cx="4870.93" cy="-131.61" rx="48.1667" ry="26.7407"/>
<text text-anchor="middle" x="4870.93" y="-135.41" font-family="Times,serif" font-size="14.00">&lt;rover0&gt;</text>
<text text-anchor="middle" x="4870.93" y="-120.41" font-family="Times,serif" font-size="14.00">rover</text>
</g>
<!-- n5&#45;&gt;n29 -->
<g id="edge26" class="edge"><title>n5&#45;&gt;n29</title>
<path fill="none" stroke="black" d="M3745.38,-338.925C3991.35,-333.577 4959.15,-309.637 5002.93,-263.22 5029.4,-235.159 5023.79,-206.791 4999.93,-176.48 4982.82,-154.737 4954.41,-143.705 4928.6,-138.135"/>
<polygon fill="black" stroke="black" points="4928.98,-134.642 4918.5,-136.193 4927.66,-141.517 4928.98,-134.642"/>
<text text-anchor="middle" x="5067.43" y="-232.65" font-family="Times,serif" font-size="14.00"> static(on_board)</text>
</g>
<!-- n6 -->
<g id="node6" class="node"><title>n6</title>
<ellipse fill="none" stroke="black" cx="216.933" cy="-236.35" rx="67.7647" ry="26.7407"/>
<text text-anchor="middle" x="216.933" y="-240.15" font-family="Times,serif" font-size="14.00">&lt;objective17&gt;</text>
<text text-anchor="middle" x="216.933" y="-225.15" font-family="Times,serif" font-size="14.00">objective</text>
</g>
<!-- n6&#45;&gt;n4 -->
<g id="edge18" class="edge"><title>n6&#45;&gt;n4</title>
<path fill="none" stroke="black" d="M248.946,-212.57C269.362,-199.393 296.968,-183.976 323.933,-176.48 422.068,-149.201 681.718,-176.692 781.933,-158.48 789.17,-157.165 796.657,-155.33 803.998,-153.238"/>
<polygon fill="black" stroke="black" points="805.323,-156.494 813.883,-150.251 803.298,-149.794 805.323,-156.494"/>
<text text-anchor="middle" x="379.933" y="-180.28" font-family="Times,serif" font-size="14.00"> static(visible_from)</text>
</g>
<!-- n6&#45;&gt;n22 -->
<g id="edge57" class="edge"><title>n6&#45;&gt;n22</title>
<path fill="none" stroke="black" d="M219.893,-209.504C224.742,-179.619 237.259,-131.161 268.933,-104.74 326.026,-57.1141 359.083,-80.3508 432.933,-71.7401 674.12,-43.6183 1425.14,-31.8521 1664.71,-28.752"/>
<polygon fill="black" stroke="black" points="1665.09,-32.2475 1675.05,-28.6195 1665,-25.248 1665.09,-32.2475"/>
<text text-anchor="middle" x="324.933" y="-127.91" font-family="Times,serif" font-size="14.00"> static(visible_from)</text>
</g>
<!-- n7 -->
<g id="node7" class="node"><title>n7</title>
<ellipse fill="none" stroke="black" cx="2211.93" cy="-236.35" rx="67.7647" ry="26.7407"/>
<text text-anchor="middle" x="2211.93" y="-240.15" font-family="Times,serif" font-size="14.00">&lt;objective15&gt;</text>
<text text-anchor="middle" x="2211.93" y="-225.15" font-family="Times,serif" font-size="14.00">objective</text>
</g>
<!-- n7&#45;&gt;n21 -->
<g id="edge13" class="edge"><title>n7&#45;&gt;n21</title>
<path fill="none" stroke="black" d="M2275.96,-226.962C2320.25,-221.385 2380.6,-214.24 2433.93,-209.48 2498.25,-203.741 2662.64,-211.788 2723.93,-191.48 2735.52,-187.642 2735.43,-180.552 2746.93,-176.48 2811.63,-153.585 3004.24,-140.927 3107.23,-135.626"/>
<polygon fill="black" stroke="black" points="3107.71,-139.106 3117.52,-135.106 3107.35,-132.115 3107.71,-139.106"/>
<text text-anchor="middle" x="2838.93" y="-180.28" font-family="Times,serif" font-size="14.00"> end(communicated_image_data)</text>
</g>
<!-- n7&#45;&gt;n22 -->
<g id="edge21" class="edge"><title>n7&#45;&gt;n22</title>
<path fill="none" stroke="black" d="M2158.58,-219.732C2134.51,-212.114 2105.93,-202.268 2080.93,-191.48 2067.97,-185.885 2065.54,-182.835 2052.93,-176.48 1961.37,-130.322 1852.92,-79.9244 1790.41,-51.279"/>
<polygon fill="black" stroke="black" points="1791.71,-48.022 1781.16,-47.0429 1788.79,-54.3871 1791.71,-48.022"/>
<text text-anchor="middle" x="2071.93" y="-127.91" font-family="Times,serif" font-size="14.00"> static(visible_from)</text>
</g>
<!-- n8 -->
<g id="node8" class="node"><title>n8</title>
<ellipse fill="none" stroke="black" cx="538.933" cy="-236.35" rx="62.8651" ry="26.7407"/>
<text text-anchor="middle" x="538.933" y="-240.15" font-family="Times,serif" font-size="14.00">&lt;objective7&gt;</text>
<text text-anchor="middle" x="538.933" y="-225.15" font-family="Times,serif" font-size="14.00">objective</text>
</g>
<!-- n8&#45;&gt;n4 -->
<g id="edge23" class="edge"><title>n8&#45;&gt;n4</title>
<path fill="none" stroke="black" d="M562.364,-211.302C576.141,-198.719 594.611,-184.335 613.933,-176.48 683.498,-148.201 708.543,-174.391 781.933,-158.48 788.93,-156.963 796.182,-155.047 803.319,-152.946"/>
<polygon fill="black" stroke="black" points="804.416,-156.27 812.946,-149.986 802.359,-149.579 804.416,-156.27"/>
<text text-anchor="middle" x="669.933" y="-180.28" font-family="Times,serif" font-size="14.00"> static(visible_from)</text>
</g>
<!-- n8&#45;&gt;n22 -->
<g id="edge47" class="edge"><title>n8&#45;&gt;n22</title>
<path fill="none" stroke="black" d="M532.162,-209.373C526.272,-180.274 522.115,-133.436 546.933,-104.74 593.858,-50.4793 633.747,-80.6236 704.933,-71.7401 891.004,-48.5196 1461.03,-34.0005 1665.21,-29.43"/>
<polygon fill="black" stroke="black" points="1665.32,-32.9287 1675.24,-29.2071 1665.16,-25.9304 1665.32,-32.9287"/>
<text text-anchor="middle" x="602.933" y="-127.91" font-family="Times,serif" font-size="14.00"> static(visible_from)</text>
</g>
<!-- n9 -->
<g id="node9" class="node"><title>n9</title>
<ellipse fill="none" stroke="black" cx="2505.93" cy="-236.35" rx="62.8651" ry="26.7407"/>
<text text-anchor="middle" x="2505.93" y="-240.15" font-family="Times,serif" font-size="14.00">&lt;objective2&gt;</text>
<text text-anchor="middle" x="2505.93" y="-225.15" font-family="Times,serif" font-size="14.00">objective</text>
</g>
<!-- n19 -->
<g id="node19" class="node"><title>n19</title>
<ellipse fill="none" stroke="black" cx="2306.93" cy="-131.61" rx="48.1667" ry="26.7407"/>
<text text-anchor="middle" x="2306.93" y="-135.41" font-family="Times,serif" font-size="14.00">&lt;colour&gt;</text>
<text text-anchor="middle" x="2306.93" y="-120.41" font-family="Times,serif" font-size="14.00">mode</text>
</g>
<!-- n9&#45;&gt;n19 -->
<g id="edge41" class="edge"><title>n9&#45;&gt;n19</title>
<path fill="none" stroke="black" d="M2444.6,-229.978C2393.03,-224.05 2325.05,-212.443 2307.93,-191.48 2302.69,-185.064 2300.67,-176.81 2300.35,-168.524"/>
<polygon fill="black" stroke="black" points="2303.85,-168.643 2300.71,-158.524 2296.85,-168.393 2303.85,-168.643"/>
<text text-anchor="middle" x="2399.93" y="-180.28" font-family="Times,serif" font-size="14.00"> end(communicated_image_data)</text>
</g>
<!-- n9&#45;&gt;n21 -->
<g id="edge10" class="edge"><title>n9&#45;&gt;n21</title>
<path fill="none" stroke="black" d="M2568.74,-234.236C2718.95,-231.112 3090.1,-220.519 3137.93,-191.48 3147.32,-185.779 3154.6,-176.61 3160.08,-167.187"/>
<polygon fill="black" stroke="black" points="3163.26,-168.665 3164.79,-158.181 3157.06,-165.42 3163.26,-168.665"/>
<text text-anchor="middle" x="3246.93" y="-180.28" font-family="Times,serif" font-size="14.00"> end(communicated_image_data)</text>
</g>
<!-- n9&#45;&gt;n22 -->
<g id="edge7" class="edge"><title>n9&#45;&gt;n22</title>
<path fill="none" stroke="black" d="M2504.36,-209.338C2502.59,-198.312 2499.02,-185.87 2491.93,-176.48 2452.64,-124.434 2425.91,-125.045 2363.93,-104.74 2172.13,-41.8994 1931.92,-29.7173 1812.87,-27.8094"/>
<polygon fill="black" stroke="black" points="1812.83,-24.3085 1802.78,-27.6678 1812.73,-31.3078 1812.83,-24.3085"/>
<text text-anchor="middle" x="2532.93" y="-127.91" font-family="Times,serif" font-size="14.00"> static(visible_from)</text>
</g>
<!-- n10 -->
<g id="node10" class="node"><title>n10</title>
<ellipse fill="none" stroke="black" cx="4842.93" cy="-236.35" rx="67.3507" ry="26.7407"/>
<text text-anchor="middle" x="4842.93" y="-240.15" font-family="Times,serif" font-size="14.00">&lt;rover0store&gt;</text>
<text text-anchor="middle" x="4842.93" y="-225.15" font-family="Times,serif" font-size="14.00">store</text>
</g>
<!-- n10&#45;&gt;n10 -->
<g id="edge2" class="edge"><title>n10&#45;&gt;n10</title>
<path fill="none" stroke="black" d="M4906.08,-245.728C4918.92,-244.707 4928.11,-241.581 4928.11,-236.35 4928.11,-232.673 4923.56,-230.035 4916.4,-228.438"/>
<polygon fill="black" stroke="black" points="4916.47,-224.913 4906.08,-226.972 4915.49,-231.844 4916.47,-224.913"/>
<text text-anchor="middle" x="4961.11" y="-232.65" font-family="Times,serif" font-size="14.00"> init(empty)</text>
</g>
<!-- n10&#45;&gt;n29 -->
<g id="edge38" class="edge"><title>n10&#45;&gt;n29</title>
<path fill="none" stroke="black" d="M4884.97,-215.174C4893.77,-208.874 4901.91,-201.014 4906.93,-191.48 4911.98,-181.905 4908.98,-171.756 4902.98,-162.631"/>
<polygon fill="black" stroke="black" points="4905.66,-160.368 4896.78,-154.585 4900.12,-164.642 4905.66,-160.368"/>
<text text-anchor="middle" x="4952.93" y="-180.28" font-family="Times,serif" font-size="14.00"> static(store_of)</text>
</g>
<!-- n11 -->
<g id="node11" class="node"><title>n11</title>
<ellipse fill="none" stroke="black" cx="4317.93" cy="-236.35" rx="62.8651" ry="26.7407"/>
<text text-anchor="middle" x="4317.93" y="-240.15" font-family="Times,serif" font-size="14.00">&lt;objective5&gt;</text>
<text text-anchor="middle" x="4317.93" y="-225.15" font-family="Times,serif" font-size="14.00">objective</text>
</g>
<!-- n15 -->
<g id="node15" class="node"><title>n15</title>
<ellipse fill="none" stroke="black" cx="4493.93" cy="-131.61" rx="53.9813" ry="26.7407"/>
<text text-anchor="middle" x="4493.93" y="-135.41" font-family="Times,serif" font-size="14.00">&lt;low_res&gt;</text>
<text text-anchor="middle" x="4493.93" y="-120.41" font-family="Times,serif" font-size="14.00">mode</text>
</g>
<!-- n11&#45;&gt;n15 -->
<g id="edge37" class="edge"><title>n11&#45;&gt;n15</title>
<path fill="none" stroke="black" d="M4318.08,-209.414C4319.51,-197.864 4323.2,-184.98 4331.93,-176.48 4359.92,-149.245 4380.27,-168.791 4417.93,-158.48 4425.67,-156.361 4433.78,-153.886 4441.69,-151.323"/>
<polygon fill="black" stroke="black" points="4442.82,-154.637 4451.21,-148.17 4440.62,-147.992 4442.82,-154.637"/>
<text text-anchor="middle" x="4423.93" y="-180.28" font-family="Times,serif" font-size="14.00"> end(communicated_image_data)</text>
</g>
<!-- n11&#45;&gt;n22 -->
<g id="edge58" class="edge"><title>n11&#45;&gt;n22</title>
<path fill="none" stroke="black" d="M4315.86,-209.494C4312.23,-180.505 4302.26,-133.769 4274.93,-104.74 4247.72,-75.8351 4230.85,-79.555 4191.93,-71.7401 3954.05,-23.9748 2196.27,-26.4837 1812.71,-27.6123"/>
<polygon fill="black" stroke="black" points="1812.55,-24.1127 1802.56,-27.6428 1812.58,-31.1127 1812.55,-24.1127"/>
<text text-anchor="middle" x="4360.93" y="-127.91" font-family="Times,serif" font-size="14.00"> static(visible_from)</text>
</g>
<!-- n12 -->
<g id="node12" class="node"><title>n12</title>
<ellipse fill="none" stroke="black" cx="897.933" cy="-236.35" rx="62.8651" ry="26.7407"/>
<text text-anchor="middle" x="897.933" y="-240.15" font-family="Times,serif" font-size="14.00">&lt;objective6&gt;</text>
<text text-anchor="middle" x="897.933" y="-225.15" font-family="Times,serif" font-size="14.00">objective</text>
</g>
<!-- n12&#45;&gt;n4 -->
<g id="edge29" class="edge"><title>n12&#45;&gt;n4</title>
<path fill="none" stroke="black" d="M873.485,-211.175C868.82,-205.199 864.574,-198.487 861.933,-191.48 859.254,-184.375 857.96,-176.44 857.475,-168.753"/>
<polygon fill="black" stroke="black" points="860.969,-168.449 857.258,-158.526 853.971,-168.598 860.969,-168.449"/>
<text text-anchor="middle" x="917.933" y="-180.28" font-family="Times,serif" font-size="14.00"> static(visible_from)</text>
</g>
<!-- n12&#45;&gt;n22 -->
<g id="edge11" class="edge"><title>n12&#45;&gt;n22</title>
<path fill="none" stroke="black" d="M934.484,-214.247C962.948,-197.879 998.244,-177.757 1001.93,-176.48 1052.07,-159.127 1077.01,-189.662 1119.93,-158.48 1141.56,-142.769 1125.35,-120.515 1146.93,-104.74 1227.94,-45.5146 1525.15,-31.9051 1665.11,-28.7889"/>
<polygon fill="black" stroke="black" points="1665.39,-32.2838 1675.32,-28.5741 1665.25,-25.2854 1665.39,-32.2838"/>
<text text-anchor="middle" x="1202.93" y="-127.91" font-family="Times,serif" font-size="14.00"> static(visible_from)</text>
</g>
<!-- n13 -->
<g id="node13" class="node"><title>n13</title>
<ellipse fill="none" stroke="black" cx="4636.93" cy="-131.61" rx="62.8651" ry="26.7407"/>
<text text-anchor="middle" x="4636.93" y="-135.41" font-family="Times,serif" font-size="14.00">&lt;objective9&gt;</text>
<text text-anchor="middle" x="4636.93" y="-120.41" font-family="Times,serif" font-size="14.00">objective</text>
</g>
<!-- n13&#45;&gt;n22 -->
<g id="edge59" class="edge"><title>n13&#45;&gt;n22</title>
<path fill="none" stroke="black" d="M4589.51,-113.754C4578.89,-110.406 4567.61,-107.176 4556.93,-104.74 4451.53,-80.6808 4423.73,-80.0082 4315.93,-71.7401 3810.37,-32.9621 2180.26,-28.461 1812.93,-27.9386"/>
<polygon fill="black" stroke="black" points="1812.69,-24.4384 1802.68,-27.9246 1812.68,-31.4384 1812.69,-24.4384"/>
<text text-anchor="middle" x="4521.93" y="-75.5401" font-family="Times,serif" font-size="14.00"> static(visible_from)</text>
</g>
<!-- n14 -->
<g id="node14" class="node"><title>n14</title>
<ellipse fill="none" stroke="black" cx="702.933" cy="-236.35" rx="67.7647" ry="26.7407"/>
<text text-anchor="middle" x="702.933" y="-240.15" font-family="Times,serif" font-size="14.00">&lt;objective10&gt;</text>
<text text-anchor="middle" x="702.933" y="-225.15" font-family="Times,serif" font-size="14.00">objective</text>
</g>
<!-- n14&#45;&gt;n4 -->
<g id="edge20" class="edge"><title>n14&#45;&gt;n4</title>
<path fill="none" stroke="black" d="M715.628,-209.737C722.396,-198.258 731.665,-185.34 742.933,-176.48 748.176,-172.357 775.39,-162.069 802.251,-152.491"/>
<polygon fill="black" stroke="black" points="803.443,-155.782 811.701,-149.145 801.107,-149.184 803.443,-155.782"/>
<text text-anchor="middle" x="798.933" y="-180.28" font-family="Times,serif" font-size="14.00"> static(visible_from)</text>
</g>
<!-- n14&#45;&gt;n22 -->
<g id="edge25" class="edge"><title>n14&#45;&gt;n22</title>
<path fill="none" stroke="black" d="M686.305,-210.157C669.583,-181.346 649.612,-134.35 674.933,-104.74 739.057,-29.7518 1433.7,-26.342 1664.71,-27.3051"/>
<polygon fill="black" stroke="black" points="1665.01,-30.8064 1675.03,-27.3523 1665.04,-23.8065 1665.01,-30.8064"/>
<text text-anchor="middle" x="730.933" y="-127.91" font-family="Times,serif" font-size="14.00"> static(visible_from)</text>
</g>
<!-- n16 -->
<g id="node16" class="node"><title>n16</title>
<ellipse fill="none" stroke="black" cx="1844.93" cy="-236.35" rx="62.8651" ry="26.7407"/>
<text text-anchor="middle" x="1844.93" y="-240.15" font-family="Times,serif" font-size="14.00">&lt;objective1&gt;</text>
<text text-anchor="middle" x="1844.93" y="-225.15" font-family="Times,serif" font-size="14.00">objective</text>
</g>
<!-- n16&#45;&gt;n4 -->
<g id="edge42" class="edge"><title>n16&#45;&gt;n4</title>
<path fill="none" stroke="black" d="M1784.01,-229.051C1700.29,-220.138 1554.13,-203.585 1501.93,-191.48 1481.81,-186.813 1478.22,-180.408 1457.93,-176.48 1312.42,-148.302 1272.72,-169.683 1124.93,-158.48 1059.11,-153.491 984.269,-146.018 930.948,-140.385"/>
<polygon fill="black" stroke="black" points="931.228,-136.896 920.915,-139.32 930.489,-143.856 931.228,-136.896"/>
<text text-anchor="middle" x="1557.93" y="-180.28" font-family="Times,serif" font-size="14.00"> static(visible_from)</text>
</g>
<!-- n16&#45;&gt;n19 -->
<g id="edge17" class="edge"><title>n16&#45;&gt;n19</title>
<path fill="none" stroke="black" d="M1901.52,-224.354C1944.09,-215.893 2003.83,-203.628 2055.93,-191.48 2081.86,-185.435 2088.06,-182.765 2113.93,-176.48 2160.68,-165.126 2214.01,-153.071 2252.75,-144.477"/>
<polygon fill="black" stroke="black" points="2253.76,-147.838 2262.77,-142.259 2252.25,-141.003 2253.76,-147.838"/>
<text text-anchor="middle" x="2205.93" y="-180.28" font-family="Times,serif" font-size="14.00"> end(communicated_image_data)</text>
</g>
<!-- n16&#45;&gt;n21 -->
<g id="edge50" class="edge"><title>n16&#45;&gt;n21</title>
<path fill="none" stroke="black" d="M1905.7,-229.232C1964.34,-223.493 2055.64,-214.992 2134.93,-209.48 2295.19,-198.341 2338.63,-224.071 2495.93,-191.48 2514.52,-187.628 2517.38,-180.507 2535.93,-176.48 2643.37,-153.163 2966.4,-139.668 3107.16,-134.752"/>
<polygon fill="black" stroke="black" points="3107.51,-138.243 3117.38,-134.399 3107.26,-131.247 3107.51,-138.243"/>
<text text-anchor="middle" x="2627.93" y="-180.28" font-family="Times,serif" font-size="14.00"> end(communicated_image_data)</text>
</g>
<!-- n16&#45;&gt;n22 -->
<g id="edge51" class="edge"><title>n16&#45;&gt;n22</title>
<path fill="none" stroke="black" d="M1783.52,-230.435C1730.43,-224.759 1659.51,-213.262 1641.93,-191.48 1613.04,-155.676 1670.11,-196.423 1706.93,-158.48 1731.19,-133.488 1738.04,-93.2713 1739.54,-64.0602"/>
<polygon fill="black" stroke="black" points="1743.04,-63.9529 1739.87,-53.8448 1736.05,-63.7262 1743.04,-63.9529"/>
<text text-anchor="middle" x="1789.93" y="-127.91" font-family="Times,serif" font-size="14.00"> static(visible_from)</text>
</g>
<!-- n17&#45;&gt;n21 -->
<g id="edge44" class="edge"><title>n17&#45;&gt;n21</title>
<path fill="none" stroke="black" d="M3657.02,-212.996C3636.34,-199.803 3608.26,-184.215 3580.93,-176.48 3434.48,-135.027 3387.62,-191.055 3238.93,-158.48 3233.87,-157.371 3228.69,-155.914 3223.58,-154.255"/>
<polygon fill="black" stroke="black" points="3224.45,-150.854 3213.86,-150.854 3222.14,-157.461 3224.45,-150.854"/>
<text text-anchor="middle" x="3710.93" y="-180.28" font-family="Times,serif" font-size="14.00"> end(communicated_image_data)</text>
</g>
<!-- n17&#45;&gt;n22 -->
<g id="edge43" class="edge"><title>n17&#45;&gt;n22</title>
<path fill="none" stroke="black" d="M3748.76,-227.581C3770.78,-221.497 3793.58,-210.683 3806.93,-191.48 3819.99,-172.692 3843.45,-164.436 3795.93,-104.74 3771.21,-73.68 3751.84,-79.6394 3712.93,-71.7401 3524.4,-33.4588 2148.6,-28.5812 1812.73,-27.9605"/>
<polygon fill="black" stroke="black" points="1812.64,-24.4604 1802.63,-27.9425 1812.63,-31.4604 1812.64,-24.4604"/>
<text text-anchor="middle" x="3880.93" y="-127.91" font-family="Times,serif" font-size="14.00"> static(visible_from)</text>
</g>
<!-- n18 -->
<g id="node18" class="node"><title>n18</title>
<ellipse fill="none" stroke="black" cx="3954.93" cy="-236.35" rx="67.7647" ry="26.7407"/>
<text text-anchor="middle" x="3954.93" y="-240.15" font-family="Times,serif" font-size="14.00">&lt;objective11&gt;</text>
<text text-anchor="middle" x="3954.93" y="-225.15" font-family="Times,serif" font-size="14.00">objective</text>
</g>
<!-- n18&#45;&gt;n21 -->
<g id="edge36" class="edge"><title>n18&#45;&gt;n21</title>
<path fill="none" stroke="black" d="M3910.62,-215.756C3874.87,-200.32 3827.3,-180.719 3806.93,-176.48 3559.66,-125.033 3486.2,-209.952 3238.93,-158.48 3233.66,-157.382 3228.26,-155.887 3222.93,-154.166"/>
<polygon fill="black" stroke="black" points="3224.07,-150.857 3213.48,-150.861 3221.76,-157.465 3224.07,-150.857"/>
<text text-anchor="middle" x="3942.93" y="-180.28" font-family="Times,serif" font-size="14.00"> end(communicated_image_data)</text>
</g>
<!-- n18&#45;&gt;n22 -->
<g id="edge34" class="edge"><title>n18&#45;&gt;n22</title>
<path fill="none" stroke="black" d="M4008.13,-219.626C4030.75,-209.876 4049.72,-195.541 4038.93,-176.48 4031.27,-162.949 4021.73,-167.319 4008.93,-158.48 3977.24,-136.583 3976.04,-120.591 3940.93,-104.74 3866.01,-70.9128 3840.73,-79.9915 3758.93,-71.7401 3370.49,-32.5536 2130.32,-28.3454 1813.29,-27.9144"/>
<polygon fill="black" stroke="black" points="1812.85,-24.4139 1802.85,-27.9011 1812.84,-31.4139 1812.85,-24.4139"/>
<text text-anchor="middle" x="4064.93" y="-127.91" font-family="Times,serif" font-size="14.00"> static(visible_from)</text>
</g>
<!-- n20 -->
<g id="node20" class="node"><title>n20</title>
<ellipse fill="none" stroke="black" cx="3299.93" cy="-131.61" rx="51.7379" ry="26.7407"/>
<text text-anchor="middle" x="3299.93" y="-135.41" font-family="Times,serif" font-size="14.00">&lt;general&gt;</text>
<text text-anchor="middle" x="3299.93" y="-120.41" font-family="Times,serif" font-size="14.00">lander</text>
</g>
<!-- n20&#45;&gt;n20 -->
<g id="edge3" class="edge"><title>n20&#45;&gt;n20</title>
<path fill="none" stroke="black" d="M3348.41,-141.226C3360.51,-140.554 3369.55,-137.348 3369.55,-131.61 3369.55,-127.665 3365.28,-124.917 3358.67,-123.367"/>
<polygon fill="black" stroke="black" points="3358.79,-119.85 3348.41,-121.994 3357.86,-126.789 3358.79,-119.85"/>
<text text-anchor="middle" x="3420.05" y="-127.91" font-family="Times,serif" font-size="14.00"> init(channel_free)</text>
</g>
<!-- n20&#45;&gt;n22 -->
<g id="edge52" class="edge"><title>n20&#45;&gt;n22</title>
<path fill="none" stroke="black" d="M3263.51,-112.472C3255.88,-109.374 3247.78,-106.569 3239.93,-104.74 2963.94,-40.3722 2075.6,-29.8938 1812.82,-28.1963"/>
<polygon fill="black" stroke="black" points="1812.65,-24.6953 1802.62,-28.1329 1812.6,-31.6951 1812.65,-24.6953"/>
<text text-anchor="middle" x="3164.93" y="-75.5401" font-family="Times,serif" font-size="14.00"> static(at_lander)</text>
</g>
<!-- n22&#45;&gt;n4 -->
<g id="edge39" class="edge"><title>n22&#45;&gt;n4</title>
<path fill="none" stroke="black" d="M1675.16,-27.1163C1553.52,-26.7441 1280.35,-31.0413 1054.93,-71.7401 1007.13,-80.3706 954.486,-96.6881 915.958,-109.959"/>
<polygon fill="black" stroke="black" points="914.77,-106.666 906.478,-113.26 917.073,-113.277 914.77,-106.666"/>
<text text-anchor="middle" x="1093.93" y="-75.5401" font-family="Times,serif" font-size="14.00"> static(visible)</text>
</g>
<!-- n22&#45;&gt;n22 -->
<g id="edge4" class="edge"><title>n22&#45;&gt;n22</title>
<path fill="none" stroke="black" d="M1798.74,-36.3053C1811.42,-35.3472 1820.57,-32.2021 1820.57,-26.8701 1820.57,-23.121 1816.05,-20.4531 1808.95,-18.8664"/>
<polygon fill="black" stroke="black" points="1809.13,-15.3569 1798.74,-17.4349 1808.15,-22.2891 1809.13,-15.3569"/>
<text text-anchor="middle" x="1879.57" y="-23.1701" font-family="Times,serif" font-size="14.00"> init(at_rock_sample)</text>
</g>
<!-- n23 -->
<g id="node23" class="node"><title>n23</title>
<ellipse fill="none" stroke="black" cx="1531.93" cy="-236.35" rx="67.7647" ry="26.7407"/>
<text text-anchor="middle" x="1531.93" y="-240.15" font-family="Times,serif" font-size="14.00">&lt;objective12&gt;</text>
<text text-anchor="middle" x="1531.93" y="-225.15" font-family="Times,serif" font-size="14.00">objective</text>
</g>
<!-- n23&#45;&gt;n4 -->
<g id="edge15" class="edge"><title>n23&#45;&gt;n4</title>
<path fill="none" stroke="black" d="M1483,-217.557C1473.75,-214.583 1464.11,-211.736 1454.93,-209.48 1405.55,-197.34 1391.44,-203.095 1341.93,-191.48 1320.17,-186.376 1315.83,-180.96 1293.93,-176.48 1285.17,-174.687 1052.81,-151.632 931.77,-139.685"/>
<polygon fill="black" stroke="black" points="931.774,-136.169 921.478,-138.67 931.086,-143.135 931.774,-136.169"/>
<text text-anchor="middle" x="1397.93" y="-180.28" font-family="Times,serif" font-size="14.00"> static(visible_from)</text>
</g>
<!-- n23&#45;&gt;n19 -->
<g id="edge8" class="edge"><title>n23&#45;&gt;n19</title>
<path fill="none" stroke="black" d="M1572.61,-214.833C1603.69,-199.553 1644.14,-180.644 1661.93,-176.48 1774.73,-150.084 2067.92,-172.361 2182.93,-158.48 2206.3,-155.66 2231.81,-150.674 2253.58,-145.828"/>
<polygon fill="black" stroke="black" points="2254.65,-149.176 2263.62,-143.545 2253.09,-142.35 2254.65,-149.176"/>
<text text-anchor="middle" x="1753.93" y="-180.28" font-family="Times,serif" font-size="14.00"> end(communicated_image_data)</text>
</g>
<!-- n23&#45;&gt;n22 -->
<g id="edge49" class="edge"><title>n23&#45;&gt;n22</title>
<path fill="none" stroke="black" d="M1495.78,-213.557C1482.12,-202.582 1472.02,-188.982 1481.93,-176.48 1503.77,-148.946 1530.57,-179.233 1558.93,-158.48 1581.37,-142.065 1570.71,-123.818 1590.93,-104.74 1616.87,-80.2655 1652.11,-61.5474 1681.7,-48.7121"/>
<polygon fill="black" stroke="black" points="1683.23,-51.8634 1691.08,-44.7517 1680.51,-45.4138 1683.23,-51.8634"/>
<text text-anchor="middle" x="1646.93" y="-127.91" font-family="Times,serif" font-size="14.00"> static(visible_from)</text>
</g>
<!-- n24 -->
<g id="node24" class="node"><title>n24</title>
<ellipse fill="none" stroke="black" cx="3718.93" cy="-131.61" rx="67.7647" ry="26.7407"/>
<text text-anchor="middle" x="3718.93" y="-135.41" font-family="Times,serif" font-size="14.00">&lt;objective13&gt;</text>
<text text-anchor="middle" x="3718.93" y="-120.41" font-family="Times,serif" font-size="14.00">objective</text>
</g>
<!-- n24&#45;&gt;n22 -->
<g id="edge32" class="edge"><title>n24&#45;&gt;n22</title>
<path fill="none" stroke="black" d="M3672.58,-111.709C3635.91,-97.7614 3583.05,-79.8537 3534.93,-71.7401 3363.68,-42.8661 2131.01,-31.0276 1813.41,-28.4376"/>
<polygon fill="black" stroke="black" points="1812.98,-24.934 1802.95,-28.3529 1812.92,-31.9338 1812.98,-24.934"/>
<text text-anchor="middle" x="3652.93" y="-75.5401" font-family="Times,serif" font-size="14.00"> static(visible_from)</text>
</g>
<!-- n25 -->
<g id="node25" class="node"><title>n25</title>
<ellipse fill="none" stroke="black" cx="4541.93" cy="-236.35" rx="56.6372" ry="26.7407"/>
<text text-anchor="middle" x="4541.93" y="-240.15" font-family="Times,serif" font-size="14.00">&lt;camera1&gt;</text>
<text text-anchor="middle" x="4541.93" y="-225.15" font-family="Times,serif" font-size="14.00">camera</text>
</g>
<!-- n25&#45;&gt;n13 -->
<g id="edge48" class="edge"><title>n25&#45;&gt;n13</title>
<path fill="none" stroke="black" d="M4584.56,-218.447C4597.12,-211.687 4609.9,-202.773 4618.93,-191.48 4624.25,-184.836 4628,-176.629 4630.64,-168.475"/>
<polygon fill="black" stroke="black" points="4634.07,-169.235 4633.35,-158.664 4627.32,-167.372 4634.07,-169.235"/>
<text text-anchor="middle" x="4696.43" y="-180.28" font-family="Times,serif" font-size="14.00"> static(calibration_target)</text>
</g>
<!-- n25&#45;&gt;n15 -->
<g id="edge6" class="edge"><title>n25&#45;&gt;n15</title>
<path fill="none" stroke="black" d="M4533.48,-209.731C4529.73,-199.248 4525.02,-187.11 4519.93,-176.48 4518.35,-173.171 4516.6,-169.784 4514.77,-166.43"/>
<polygon fill="black" stroke="black" points="4517.81,-164.69 4509.84,-157.709 4511.72,-168.136 4517.81,-164.69"/>
<text text-anchor="middle" x="4570.93" y="-180.28" font-family="Times,serif" font-size="14.00"> static(supports)</text>
</g>
<!-- n25&#45;&gt;n19 -->
<g id="edge19" class="edge"><title>n25&#45;&gt;n19</title>
<path fill="none" stroke="black" d="M4490.42,-225.139C4461.08,-219.686 4423.58,-213.324 4389.93,-209.48 4255.02,-194.065 4218.35,-216.736 4084.93,-191.48 4063.8,-187.481 4060.15,-179.978 4038.93,-176.48 3868.44,-148.373 2656.19,-172.005 2483.93,-158.48 2442.93,-155.261 2396.99,-148.45 2362.18,-142.624"/>
<polygon fill="black" stroke="black" points="2362.66,-139.156 2352.22,-140.932 2361.49,-146.057 2362.66,-139.156"/>
<text text-anchor="middle" x="4128.93" y="-180.28" font-family="Times,serif" font-size="14.00"> static(supports)</text>
</g>
<!-- n25&#45;&gt;n21 -->
<g id="edge46" class="edge"><title>n25&#45;&gt;n21</title>
<path fill="none" stroke="black" d="M4489.64,-225.708C4460.37,-220.499 4423.2,-214.19 4389.93,-209.48 4319.52,-199.51 4300.75,-205.04 4230.93,-191.48 4206.48,-186.731 4201.58,-180.081 4176.93,-176.48 3970.64,-146.342 3443.3,-199.692 3238.93,-158.48 3233.65,-157.415 3228.24,-155.941 3222.92,-154.234"/>
<polygon fill="black" stroke="black" points="3224.06,-150.924 3213.46,-150.944 3221.76,-157.535 3224.06,-150.924"/>
<text text-anchor="middle" x="4274.93" y="-180.28" font-family="Times,serif" font-size="14.00"> static(supports)</text>
</g>
<!-- n25&#45;&gt;n29 -->
<g id="edge22" class="edge"><title>n25&#45;&gt;n29</title>
<path fill="none" stroke="black" d="M4596.98,-229.901C4643.83,-224.051 4712.34,-212.601 4768.93,-191.48 4791.26,-183.149 4814.39,-170.203 4832.98,-158.57"/>
<polygon fill="black" stroke="black" points="4834.9,-161.496 4841.44,-153.165 4831.13,-155.596 4834.9,-161.496"/>
<text text-anchor="middle" x="4848.43" y="-180.28" font-family="Times,serif" font-size="14.00"> static(on_board)</text>
</g>
<!-- n26 -->
<g id="node26" class="node"><title>n26</title>
<ellipse fill="none" stroke="black" cx="1084.93" cy="-236.35" rx="67.7647" ry="26.7407"/>
<text text-anchor="middle" x="1084.93" y="-240.15" font-family="Times,serif" font-size="14.00">&lt;objective18&gt;</text>
<text text-anchor="middle" x="1084.93" y="-225.15" font-family="Times,serif" font-size="14.00">objective</text>
</g>
<!-- n26&#45;&gt;n4 -->
<g id="edge24" class="edge"><title>n26&#45;&gt;n4</title>
<path fill="none" stroke="black" d="M1048.48,-213.55C1028.1,-201.81 1002.03,-187.516 977.933,-176.48 958.893,-167.761 937.577,-159.423 918.354,-152.403"/>
<polygon fill="black" stroke="black" points="919.406,-149.061 908.812,-148.962 917.032,-155.646 919.406,-149.061"/>
<text text-anchor="middle" x="1064.93" y="-180.28" font-family="Times,serif" font-size="14.00"> static(visible_from)</text>
</g>
<!-- n26&#45;&gt;n22 -->
<g id="edge40" class="edge"><title>n26&#45;&gt;n22</title>
<path fill="none" stroke="black" d="M1110,-211.239C1124.17,-198.959 1142.83,-184.885 1161.93,-176.48 1203.67,-158.115 1222.58,-179.711 1262.93,-158.48 1292.62,-142.86 1286.54,-120.913 1315.93,-104.74 1376.5,-71.4123 1400.01,-84.6015 1467.93,-71.7401 1536.26,-58.8012 1614.74,-46.3594 1669.6,-38.0518"/>
<polygon fill="black" stroke="black" points="1670.2,-41.5018 1679.56,-36.5496 1669.15,-34.5801 1670.2,-41.5018"/>
<text text-anchor="middle" x="1371.93" y="-127.91" font-family="Times,serif" font-size="14.00"> static(visible_from)</text>
</g>
<!-- n27 -->
<g id="node27" class="node"><title>n27</title>
<ellipse fill="none" stroke="black" cx="3527.93" cy="-236.35" rx="62.8651" ry="26.7407"/>
<text text-anchor="middle" x="3527.93" y="-240.15" font-family="Times,serif" font-size="14.00">&lt;objective4&gt;</text>
<text text-anchor="middle" x="3527.93" y="-225.15" font-family="Times,serif" font-size="14.00">objective</text>
</g>
<!-- n27&#45;&gt;n19 -->
<g id="edge30" class="edge"><title>n27&#45;&gt;n19</title>
<path fill="none" stroke="black" d="M3482.49,-217.681C3472.26,-214.379 3461.34,-211.374 3450.93,-209.48 3341.33,-189.533 3054.5,-229.901 2949.93,-191.48 2939.83,-187.77 2941.02,-180.213 2930.93,-176.48 2884.31,-159.237 2533.43,-163.081 2483.93,-158.48 2443.12,-154.687 2397.35,-147.929 2362.58,-142.272"/>
<polygon fill="black" stroke="black" points="2363.05,-138.803 2352.62,-140.633 2361.92,-145.71 2363.05,-138.803"/>
<text text-anchor="middle" x="3041.93" y="-180.28" font-family="Times,serif" font-size="14.00"> end(communicated_image_data)</text>
</g>
<!-- n27&#45;&gt;n21 -->
<g id="edge56" class="edge"><title>n27&#45;&gt;n21</title>
<path fill="none" stroke="black" d="M3479.52,-218.894C3470.05,-215.73 3460.19,-212.472 3450.93,-209.48 3425.25,-201.182 3417.36,-202.962 3392.93,-191.48 3381.89,-186.289 3381.37,-180.748 3369.93,-176.48 3314.87,-155.93 3295.76,-173.456 3238.93,-158.48 3233.99,-157.179 3228.92,-155.607 3223.9,-153.889"/>
<polygon fill="black" stroke="black" points="3224.93,-150.541 3214.34,-150.437 3222.56,-157.125 3224.93,-150.541"/>
<text text-anchor="middle" x="3484.93" y="-180.28" font-family="Times,serif" font-size="14.00"> end(communicated_image_data)</text>
</g>
<!-- n27&#45;&gt;n22 -->
<g id="edge53" class="edge"><title>n27&#45;&gt;n22</title>
<path fill="none" stroke="black" d="M3563.05,-213.743C3576.11,-202.926 3585.83,-189.408 3576.93,-176.48 3564.26,-158.051 3548.47,-170.992 3529.93,-158.48 3502.89,-140.233 3508.98,-119.592 3479.93,-104.74 3374.26,-50.7066 3333.27,-80.8466 3214.93,-71.7401 2678.32,-30.4458 2029.2,-27.3766 1812.98,-27.6091"/>
<polygon fill="black" stroke="black" points="1812.7,-24.1094 1802.7,-27.623 1812.71,-31.1094 1812.7,-24.1094"/>
<text text-anchor="middle" x="3585.93" y="-127.91" font-family="Times,serif" font-size="14.00"> static(visible_from)</text>
</g>
<!-- n28 -->
<g id="node28" class="node"><title>n28</title>
<ellipse fill="none" stroke="black" cx="4197.93" cy="-131.61" rx="67.7647" ry="26.7407"/>
<text text-anchor="middle" x="4197.93" y="-135.41" font-family="Times,serif" font-size="14.00">&lt;objective14&gt;</text>
<text text-anchor="middle" x="4197.93" y="-120.41" font-family="Times,serif" font-size="14.00">objective</text>
</g>
<!-- n28&#45;&gt;n22 -->
<g id="edge35" class="edge"><title>n28&#45;&gt;n22</title>
<path fill="none" stroke="black" d="M4151.97,-111.784C4115.29,-97.7779 4062.24,-79.7575 4013.93,-71.7401 3793.07,-35.0842 2179.4,-28.9468 1812.86,-28.022"/>
<polygon fill="black" stroke="black" points="1812.64,-24.5216 1802.63,-27.9968 1812.62,-31.5216 1812.64,-24.5216"/>
<text text-anchor="middle" x="4131.93" y="-75.5401" font-family="Times,serif" font-size="14.00"> static(visible_from)</text>
</g>
<!-- n29&#45;&gt;n22 -->
<g id="edge31" class="edge"><title>n29&#45;&gt;n22</title>
<path fill="none" stroke="black" d="M4827.75,-119.198C4771.6,-104.963 4670.25,-81.333 4581.93,-71.7401 4299.89,-41.1058 2231.78,-30.1137 1812.83,-28.1901"/>
<polygon fill="black" stroke="black" points="1812.67,-24.6894 1802.66,-28.1437 1812.64,-31.6893 1812.67,-24.6894"/>
<text text-anchor="middle" x="4699.43" y="-75.5401" font-family="Times,serif" font-size="14.00"> init(at)</text>
</g>
<!-- n29&#45;&gt;n29 -->
<g id="edge5" class="edge"><title>n29&#45;&gt;n29</title>
<path fill="none" stroke="black" d="M4916.03,-141.274C4927.97,-140.722 4937.02,-137.501 4937.02,-131.61 4937.02,-127.56 4932.74,-124.772 4926.19,-123.246"/>
<polygon fill="black" stroke="black" points="4926.39,-119.743 4916.03,-121.946 4925.5,-126.687 4926.39,-119.743"/>
<text text-anchor="middle" x="5030.52" y="-142.91" font-family="Times,serif" font-size="14.00"> static(equipped_for_imaging)</text>
<text text-anchor="middle" x="5030.52" y="-127.91" font-family="Times,serif" font-size="14.00">init(available)</text>
<text text-anchor="middle" x="5030.52" y="-112.91" font-family="Times,serif" font-size="14.00">static(equipped_for_soil_analysis)</text>
</g>
</g>
</svg>
