<?xml version="1.0" encoding="UTF-8" standalone="no"?>
<!DOCTYPE svg PUBLIC "-//W3C//DTD SVG 1.1//EN"
 "http://www.w3.org/Graphics/SVG/1.1/DTD/svg11.dtd">
<!-- Generated by graphviz version 2.38.0 (20140413.2041)
 -->
<!-- Title: Struc Pages: 1 -->
<svg width="896pt" height="400pt"
 viewBox="0.00 0.00 895.62 399.96" xmlns="http://www.w3.org/2000/svg" xmlns:xlink="http://www.w3.org/1999/xlink">
<g id="graph0" class="graph" transform="scale(1 1) rotate(0) translate(4 395.96)">
<title>Struc</title>
<polygon fill="white" stroke="none" points="-4,4 -4,-395.96 891.619,-395.96 891.619,4 -4,4"/>
<!-- n1 -->
<g id="node1" class="node"><title>n1</title>
<ellipse fill="none" stroke="black" cx="369.619" cy="-135.61" rx="48.1603" ry="26.7574"/>
<ellipse fill="none" stroke="black" cx="369.619" cy="-135.61" rx="52.1667" ry="30.7407"/>
<text text-anchor="middle" x="369.619" y="-139.41" font-family="Times,serif" font-size="14.00">&lt;colour&gt;</text>
<text text-anchor="middle" x="369.619" y="-124.41" font-family="Times,serif" font-size="14.00">mode</text>
</g>
<!-- n2 -->
<g id="node2" class="node"><title>n2</title>
<ellipse fill="none" stroke="black" cx="51.6188" cy="-135.61" rx="51.7379" ry="26.7407"/>
<text text-anchor="middle" x="51.6188" y="-139.41" font-family="Times,serif" font-size="14.00">&lt;general&gt;</text>
<text text-anchor="middle" x="51.6188" y="-124.41" font-family="Times,serif" font-size="14.00">lander</text>
</g>
<!-- n2&#45;&gt;n2 -->
<g id="edge1" class="edge"><title>n2&#45;&gt;n2</title>
<path fill="none" stroke="black" d="M99.4508,-146.002C111.872,-145.363 121.238,-141.899 121.238,-135.61 121.238,-131.188 116.607,-128.163 109.54,-126.534"/>
<polygon fill="black" stroke="black" points="109.82,-123.041 99.4508,-125.218 108.914,-129.982 109.82,-123.041"/>
<text text-anchor="middle" x="171.738" y="-131.91" font-family="Times,serif" font-size="14.00"> init(channel_free)</text>
</g>
<!-- n8 -->
<g id="node8" class="node"><title>n8</title>
<ellipse fill="none" stroke="black" cx="402.619" cy="-26.8701" rx="63.7795" ry="26.7407"/>
<text text-anchor="middle" x="402.619" y="-30.6701" font-family="Times,serif" font-size="14.00">&lt;waypoint0&gt;</text>
<text text-anchor="middle" x="402.619" y="-15.6701" font-family="Times,serif" font-size="14.00">waypoint</text>
</g>
<!-- n2&#45;&gt;n8 -->
<g id="edge8" class="edge"><title>n2&#45;&gt;n8</title>
<path fill="none" stroke="black" d="M79.6685,-113.037C99.1216,-99.1419 126.189,-81.847 152.619,-71.7401 209.897,-49.8367 278.778,-38.783 329.721,-33.2557"/>
<polygon fill="black" stroke="black" points="330.4,-36.7041 339.985,-32.1903 329.677,-29.7415 330.4,-36.7041"/>
<text text-anchor="middle" x="198.619" y="-75.5401" font-family="Times,serif" font-size="14.00"> static(at_lander)</text>
</g>
<!-- n3 -->
<g id="node3" class="node"><title>n3</title>
<ellipse fill="none" stroke="black" cx="80.6188" cy="-248.35" rx="48.1667" ry="26.7407"/>
<text text-anchor="middle" x="80.6188" y="-252.15" font-family="Times,serif" font-size="14.00">&lt;rover0&gt;</text>
<text text-anchor="middle" x="80.6188" y="-237.15" font-family="Times,serif" font-size="14.00">rover</text>
</g>
<!-- n3&#45;&gt;n3 -->
<g id="edge2" class="edge"><title>n3&#45;&gt;n3</title>
<path fill="none" stroke="black" d="M125.093,-258.786C137.342,-258.282 146.702,-254.803 146.702,-248.35 146.702,-243.813 142.075,-240.746 135.069,-239.15"/>
<polygon fill="black" stroke="black" points="135.448,-235.67 125.093,-237.914 134.587,-242.617 135.448,-235.67"/>
<text text-anchor="middle" x="240.202" y="-259.65" font-family="Times,serif" font-size="14.00"> static(equipped_for_imaging)</text>
<text text-anchor="middle" x="240.202" y="-244.65" font-family="Times,serif" font-size="14.00">init(available)</text>
<text text-anchor="middle" x="240.202" y="-229.65" font-family="Times,serif" font-size="14.00">static(equipped_for_soil_analysis)</text>
</g>
<!-- n3&#45;&gt;n8 -->
<g id="edge10" class="edge"><title>n3&#45;&gt;n8</title>
<path fill="none" stroke="black" d="M120.331,-233.164C153.188,-219.889 199.511,-197.446 231.619,-166.48 254.482,-144.43 245.043,-127.085 267.619,-104.74 290.682,-81.9129 321.885,-63.5632 348.483,-50.5245"/>
<polygon fill="black" stroke="black" points="350.162,-53.6018 357.679,-46.1354 347.146,-47.2845 350.162,-53.6018"/>
<text text-anchor="middle" x="288.119" y="-131.91" font-family="Times,serif" font-size="14.00"> init(at)</text>
</g>
<!-- n4 -->
<g id="node4" class="node"><title>n4</title>
<ellipse fill="none" stroke="black" cx="575.619" cy="-248.35" rx="62.8691" ry="26.7574"/>
<ellipse fill="none" stroke="black" cx="575.619" cy="-248.35" rx="66.8651" ry="30.7407"/>
<text text-anchor="middle" x="575.619" y="-252.15" font-family="Times,serif" font-size="14.00">&lt;objective2&gt;</text>
<text text-anchor="middle" x="575.619" y="-237.15" font-family="Times,serif" font-size="14.00">objective</text>
</g>
<!-- n4&#45;&gt;n1 -->
<g id="edge13" class="edge"><title>n4&#45;&gt;n1</title>
<path fill="none" stroke="black" stroke-dasharray="5,2" d="M518.084,-232.304C467.66,-219.025 402.004,-201.471 399.619,-199.48 392.039,-193.153 386.243,-184.467 381.863,-175.571"/>
<polygon fill="black" stroke="black" points="385.023,-174.062 377.797,-166.314 378.614,-176.877 385.023,-174.062"/>
<text text-anchor="middle" x="491.619" y="-188.28" font-family="Times,serif" font-size="14.00"> end(communicated_image_data)</text>
</g>
<!-- n5 -->
<g id="node5" class="node"><title>n5</title>
<ellipse fill="none" stroke="black" cx="503.619" cy="-135.61" rx="63.7795" ry="26.7407"/>
<text text-anchor="middle" x="503.619" y="-139.41" font-family="Times,serif" font-size="14.00">&lt;waypoint1&gt;</text>
<text text-anchor="middle" x="503.619" y="-124.41" font-family="Times,serif" font-size="14.00">waypoint</text>
</g>
<!-- n4&#45;&gt;n5 -->
<g id="edge16" class="edge"><title>n4&#45;&gt;n5</title>
<path fill="none" stroke="black" stroke-dasharray="5,2" d="M589.337,-218.063C592.516,-206.957 593.481,-194.568 587.619,-184.48 581.297,-173.601 571.475,-164.989 560.745,-158.249"/>
<polygon fill="black" stroke="black" points="562.412,-155.17 551.995,-153.237 558.933,-161.244 562.412,-155.17"/>
<text text-anchor="middle" x="648.619" y="-188.28" font-family="Times,serif" font-size="14.00"> static(visible_from)</text>
</g>
<!-- n4&#45;&gt;n8 -->
<g id="edge6" class="edge"><title>n4&#45;&gt;n8</title>
<path fill="none" stroke="black" d="M639.937,-239.545C684.024,-230.323 738.848,-210.23 763.619,-166.48 777.138,-142.602 780.884,-126.068 763.619,-104.74 728.074,-60.83 570.234,-40.9403 475.427,-32.8131"/>
<polygon fill="black" stroke="black" points="475.58,-29.3138 465.324,-31.971 474.999,-36.2896 475.58,-29.3138"/>
<text text-anchor="middle" x="831.619" y="-131.91" font-family="Times,serif" font-size="14.00"> static(visible_from)</text>
</g>
<!-- n5&#45;&gt;n5 -->
<g id="edge3" class="edge"><title>n5&#45;&gt;n5</title>
<path fill="none" stroke="black" d="M562.695,-145.828C575.75,-144.868 585.258,-141.462 585.258,-135.61 585.258,-131.404 580.346,-128.462 572.736,-126.783"/>
<polygon fill="black" stroke="black" points="573.081,-123.298 562.695,-125.393 572.12,-130.231 573.081,-123.298"/>
<text text-anchor="middle" x="669.758" y="-146.91" font-family="Times,serif" font-size="14.00"> end(communicated_soil_data)</text>
<text text-anchor="middle" x="669.758" y="-131.91" font-family="Times,serif" font-size="14.00">init(at_soil_sample)</text>
<text text-anchor="middle" x="669.758" y="-116.91" font-family="Times,serif" font-size="14.00">init(at_rock_sample)</text>
</g>
<!-- n5&#45;&gt;n8 -->
<g id="edge9" class="edge"><title>n5&#45;&gt;n8</title>
<path fill="none" stroke="black" d="M459.505,-116.054C434.337,-105.028 407.102,-92.1664 403.619,-86.7401 399.27,-79.9658 397.503,-71.7886 397.139,-63.7125"/>
<polygon fill="black" stroke="black" points="400.64,-63.7185 397.342,-53.6501 393.641,-63.5777 400.64,-63.7185"/>
<text text-anchor="middle" x="442.619" y="-75.5401" font-family="Times,serif" font-size="14.00"> static(visible)</text>
</g>
<!-- n6 -->
<g id="node6" class="node"><title>n6</title>
<ellipse fill="none" stroke="black" cx="80.6188" cy="-361.09" rx="67.3507" ry="26.7407"/>
<text text-anchor="middle" x="80.6188" y="-364.89" font-family="Times,serif" font-size="14.00">&lt;rover0store&gt;</text>
<text text-anchor="middle" x="80.6188" y="-349.89" font-family="Times,serif" font-size="14.00">store</text>
</g>
<!-- n6&#45;&gt;n3 -->
<g id="edge12" class="edge"><title>n6&#45;&gt;n3</title>
<path fill="none" stroke="black" d="M80.6188,-334.127C80.6188,-319.653 80.6188,-301.403 80.6188,-285.546"/>
<polygon fill="black" stroke="black" points="84.1189,-285.535 80.6188,-275.535 77.1189,-285.535 84.1189,-285.535"/>
<text text-anchor="middle" x="123.619" y="-301.02" font-family="Times,serif" font-size="14.00"> static(store_of)</text>
</g>
<!-- n6&#45;&gt;n6 -->
<g id="edge4" class="edge"><title>n6&#45;&gt;n6</title>
<path fill="none" stroke="black" d="M143.013,-371.251C156.241,-370.22 165.794,-366.833 165.794,-361.09 165.794,-356.918 160.751,-353.99 152.92,-352.304"/>
<polygon fill="black" stroke="black" points="153.399,-348.837 143.013,-350.929 152.437,-355.771 153.399,-348.837"/>
<text text-anchor="middle" x="198.794" y="-357.39" font-family="Times,serif" font-size="14.00"> init(empty)</text>
</g>
<!-- n7 -->
<g id="node7" class="node"><title>n7</title>
<ellipse fill="none" stroke="black" cx="369.619" cy="-361.09" rx="56.6326" ry="26.7574"/>
<ellipse fill="none" stroke="black" cx="369.619" cy="-361.09" rx="60.6372" ry="30.7407"/>
<text text-anchor="middle" x="369.619" y="-364.89" font-family="Times,serif" font-size="14.00">&lt;camera3&gt;</text>
<text text-anchor="middle" x="369.619" y="-349.89" font-family="Times,serif" font-size="14.00">camera</text>
</g>
<!-- n7&#45;&gt;n1 -->
<g id="edge11" class="edge"><title>n7&#45;&gt;n1</title>
<path fill="none" stroke="black" stroke-dasharray="5,2" d="M369.619,-329.951C369.619,-290.353 369.619,-220.696 369.619,-176.689"/>
<polygon fill="black" stroke="black" points="373.119,-176.628 369.619,-166.628 366.119,-176.628 373.119,-176.628"/>
<text text-anchor="middle" x="413.619" y="-244.65" font-family="Times,serif" font-size="14.00"> static(supports)</text>
</g>
<!-- n7&#45;&gt;n3 -->
<g id="edge7" class="edge"><title>n7&#45;&gt;n3</title>
<path fill="none" stroke="black" d="M321.896,-341.804C268.619,-321.389 182.858,-288.527 129.225,-267.975"/>
<polygon fill="black" stroke="black" points="130.19,-264.597 119.599,-264.287 127.685,-271.133 130.19,-264.597"/>
<text text-anchor="middle" x="289.119" y="-301.02" font-family="Times,serif" font-size="14.00"> static(on_board)</text>
</g>
<!-- n7&#45;&gt;n4 -->
<g id="edge15" class="edge"><title>n7&#45;&gt;n4</title>
<path fill="none" stroke="black" stroke-dasharray="5,2" d="M410.318,-338.212C442.824,-320.737 488.591,-296.134 523.729,-277.245"/>
<polygon fill="black" stroke="black" points="525.726,-280.145 532.877,-272.327 522.412,-273.979 525.726,-280.145"/>
<text text-anchor="middle" x="554.119" y="-301.02" font-family="Times,serif" font-size="14.00"> static(calibration_target)</text>
</g>
<!-- n8&#45;&gt;n5 -->
<g id="edge14" class="edge"><title>n8&#45;&gt;n5</title>
<path fill="none" stroke="black" d="M448.126,-45.8892C460.332,-52.5078 472.621,-61.0633 481.619,-71.7401 488.145,-79.4844 492.781,-89.288 496.056,-98.8355"/>
<polygon fill="black" stroke="black" points="492.76,-100.031 498.998,-108.595 499.462,-98.0106 492.76,-100.031"/>
<text text-anchor="middle" x="529.619" y="-75.5401" font-family="Times,serif" font-size="14.00"> static(visible)</text>
</g>
<!-- n8&#45;&gt;n8 -->
<g id="edge5" class="edge"><title>n8&#45;&gt;n8</title>
<path fill="none" stroke="black" d="M462.423,-36.3053C475.102,-35.3472 484.258,-32.2021 484.258,-26.8701 484.258,-23.121 479.732,-20.4531 472.637,-18.8664"/>
<polygon fill="black" stroke="black" points="472.812,-15.3569 462.423,-17.4349 471.841,-22.2891 472.812,-15.3569"/>
<text text-anchor="middle" x="543.258" y="-23.1701" font-family="Times,serif" font-size="14.00"> init(at_rock_sample)</text>
</g>
</g>
</svg>
