<?xml version="1.0" encoding="UTF-8" standalone="no"?>
<!DOCTYPE svg PUBLIC "-//W3C//DTD SVG 1.1//EN"
 "http://www.w3.org/Graphics/SVG/1.1/DTD/svg11.dtd">
<!-- Generated by graphviz version 2.38.0 (20140413.2041)
 -->
<!-- Title: Struc Pages: 1 -->
<svg width="2879pt" height="376pt"
 viewBox="0.00 0.00 2878.57 375.96" xmlns="http://www.w3.org/2000/svg" xmlns:xlink="http://www.w3.org/1999/xlink">
<g id="graph0" class="graph" transform="scale(1 1) rotate(0) translate(4 371.96)">
<title>Struc</title>
<polygon fill="white" stroke="none" points="-4,4 -4,-371.96 2874.57,-371.96 2874.57,4 -4,4"/>
<!-- n1 -->
<g id="node1" class="node"><title>n1</title>
<ellipse fill="none" stroke="black" cx="741.569" cy="-236.35" rx="51.7379" ry="26.7407"/>
<text text-anchor="middle" x="741.569" y="-240.15" font-family="Times,serif" font-size="14.00">&lt;general&gt;</text>
<text text-anchor="middle" x="741.569" y="-225.15" font-family="Times,serif" font-size="14.00">lander</text>
</g>
<!-- n1&#45;&gt;n1 -->
<g id="edge1" class="edge"><title>n1&#45;&gt;n1</title>
<path fill="none" stroke="black" d="M790.046,-245.966C802.144,-245.294 811.187,-242.089 811.187,-236.35 811.187,-232.405 806.913,-229.657 800.31,-228.107"/>
<polygon fill="black" stroke="black" points="800.421,-224.59 790.046,-226.734 799.494,-231.529 800.421,-224.59"/>
<text text-anchor="middle" x="861.687" y="-232.65" font-family="Times,serif" font-size="14.00"> init(channel_free)</text>
</g>
<!-- n6 -->
<g id="node6" class="node"><title>n6</title>
<ellipse fill="none" stroke="black" cx="873.569" cy="-131.61" rx="63.7795" ry="26.7407"/>
<text text-anchor="middle" x="873.569" y="-135.41" font-family="Times,serif" font-size="14.00">&lt;waypoint0&gt;</text>
<text text-anchor="middle" x="873.569" y="-120.41" font-family="Times,serif" font-size="14.00">waypoint</text>
</g>
<!-- n1&#45;&gt;n6 -->
<g id="edge35" class="edge"><title>n1&#45;&gt;n6</title>
<path fill="none" stroke="black" d="M766.956,-212.653C779.782,-201.455 795.734,-187.929 810.569,-176.48 817.394,-171.213 824.792,-165.806 832.039,-160.667"/>
<polygon fill="black" stroke="black" points="834.254,-163.388 840.432,-154.781 830.234,-157.657 834.254,-163.388"/>
<text text-anchor="middle" x="856.569" y="-180.28" font-family="Times,serif" font-size="14.00"> static(at_lander)</text>
</g>
<!-- n2 -->
<g id="node2" class="node"><title>n2</title>
<ellipse fill="none" stroke="black" cx="2312.57" cy="-341.09" rx="56.6372" ry="26.7407"/>
<text text-anchor="middle" x="2312.57" y="-344.89" font-family="Times,serif" font-size="14.00">&lt;camera2&gt;</text>
<text text-anchor="middle" x="2312.57" y="-329.89" font-family="Times,serif" font-size="14.00">camera</text>
</g>
<!-- n11 -->
<g id="node11" class="node"><title>n11</title>
<ellipse fill="none" stroke="black" cx="2448.57" cy="-236.35" rx="62.8651" ry="26.7407"/>
<text text-anchor="middle" x="2448.57" y="-240.15" font-family="Times,serif" font-size="14.00">&lt;objective3&gt;</text>
<text text-anchor="middle" x="2448.57" y="-225.15" font-family="Times,serif" font-size="14.00">objective</text>
</g>
<!-- n2&#45;&gt;n11 -->
<g id="edge28" class="edge"><title>n2&#45;&gt;n11</title>
<path fill="none" stroke="black" d="M2306.67,-314.155C2305.63,-303.015 2306.64,-290.461 2313.57,-281.22 2329.76,-259.627 2345.89,-271.519 2371.57,-263.22 2377.64,-261.257 2383.98,-259.179 2390.29,-257.088"/>
<polygon fill="black" stroke="black" points="2391.77,-260.285 2400.16,-253.806 2389.56,-253.643 2391.77,-260.285"/>
<text text-anchor="middle" x="2382.07" y="-285.02" font-family="Times,serif" font-size="14.00"> static(calibration_target)</text>
</g>
<!-- n14 -->
<g id="node14" class="node"><title>n14</title>
<ellipse fill="none" stroke="black" cx="978.569" cy="-236.35" rx="48.1667" ry="26.7407"/>
<text text-anchor="middle" x="978.569" y="-240.15" font-family="Times,serif" font-size="14.00">&lt;rover0&gt;</text>
<text text-anchor="middle" x="978.569" y="-225.15" font-family="Times,serif" font-size="14.00">rover</text>
</g>
<!-- n2&#45;&gt;n14 -->
<g id="edge7" class="edge"><title>n2&#45;&gt;n14</title>
<path fill="none" stroke="black" d="M2256.31,-338.126C2124.9,-333.298 1787.63,-319.519 1506.57,-296.22 1334.51,-281.958 1131.79,-257.079 1035.22,-244.734"/>
<polygon fill="black" stroke="black" points="1035.46,-241.236 1025.1,-243.436 1034.57,-248.179 1035.46,-241.236"/>
<text text-anchor="middle" x="1553.07" y="-285.02" font-family="Times,serif" font-size="14.00"> static(on_board)</text>
</g>
<!-- n15 -->
<g id="node15" class="node"><title>n15</title>
<ellipse fill="none" stroke="black" cx="2329.57" cy="-131.61" rx="53.9813" ry="26.7407"/>
<text text-anchor="middle" x="2329.57" y="-135.41" font-family="Times,serif" font-size="14.00">&lt;low_res&gt;</text>
<text text-anchor="middle" x="2329.57" y="-120.41" font-family="Times,serif" font-size="14.00">mode</text>
</g>
<!-- n2&#45;&gt;n15 -->
<g id="edge34" class="edge"><title>n2&#45;&gt;n15</title>
<path fill="none" stroke="black" d="M2360.93,-327.087C2387.77,-319.284 2421.51,-308.501 2450.57,-296.22 2463.57,-290.725 2465.09,-285.414 2478.57,-281.22 2512.94,-270.527 2610.76,-284.807 2639.57,-263.22 2672.21,-238.761 2696.5,-207.114 2669.57,-176.48 2651.62,-156.07 2486.2,-142.452 2392.89,-136.324"/>
<polygon fill="black" stroke="black" points="2392.91,-132.819 2382.71,-135.666 2392.46,-139.804 2392.91,-132.819"/>
<text text-anchor="middle" x="2724.57" y="-232.65" font-family="Times,serif" font-size="14.00"> static(supports)</text>
</g>
<!-- n3 -->
<g id="node3" class="node"><title>n3</title>
<ellipse fill="none" stroke="black" cx="1312.57" cy="-236.35" rx="62.8651" ry="26.7407"/>
<text text-anchor="middle" x="1312.57" y="-240.15" font-family="Times,serif" font-size="14.00">&lt;objective1&gt;</text>
<text text-anchor="middle" x="1312.57" y="-225.15" font-family="Times,serif" font-size="14.00">objective</text>
</g>
<!-- n4 -->
<g id="node4" class="node"><title>n4</title>
<ellipse fill="none" stroke="black" cx="77.5685" cy="-131.61" rx="56.6372" ry="26.7407"/>
<text text-anchor="middle" x="77.5685" y="-135.41" font-family="Times,serif" font-size="14.00">&lt;high_res&gt;</text>
<text text-anchor="middle" x="77.5685" y="-120.41" font-family="Times,serif" font-size="14.00">mode</text>
</g>
<!-- n3&#45;&gt;n4 -->
<g id="edge14" class="edge"><title>n3&#45;&gt;n4</title>
<path fill="none" stroke="black" d="M1268.64,-217.024C1259.51,-213.941 1249.84,-211.19 1240.57,-209.48 1040.13,-172.533 523.749,-229.812 323.569,-191.48 304.921,-187.909 301.793,-181.806 283.569,-176.48 236.067,-162.599 181.214,-151.134 140.06,-143.41"/>
<polygon fill="black" stroke="black" points="140.642,-139.958 130.172,-141.576 139.366,-146.841 140.642,-139.958"/>
<text text-anchor="middle" x="415.569" y="-180.28" font-family="Times,serif" font-size="14.00"> end(communicated_image_data)</text>
</g>
<!-- n5 -->
<g id="node5" class="node"><title>n5</title>
<ellipse fill="none" stroke="black" cx="872.569" cy="-26.8701" rx="63.7795" ry="26.7407"/>
<text text-anchor="middle" x="872.569" y="-30.6701" font-family="Times,serif" font-size="14.00">&lt;waypoint1&gt;</text>
<text text-anchor="middle" x="872.569" y="-15.6701" font-family="Times,serif" font-size="14.00">waypoint</text>
</g>
<!-- n3&#45;&gt;n5 -->
<g id="edge20" class="edge"><title>n3&#45;&gt;n5</title>
<path fill="none" stroke="black" d="M1267.25,-217.684C1258.48,-214.662 1249.31,-211.766 1240.57,-209.48 1193.91,-197.279 1173.29,-218.827 1133.57,-191.48 1096.73,-166.119 1116.91,-133.382 1082.57,-104.74 1041.96,-70.8742 985.118,-51.2851 940.813,-40.3675"/>
<polygon fill="black" stroke="black" points="941.526,-36.9395 930.988,-38.0367 939.91,-43.7505 941.526,-36.9395"/>
<text text-anchor="middle" x="1166.57" y="-127.91" font-family="Times,serif" font-size="14.00"> static(visible_from)</text>
</g>
<!-- n3&#45;&gt;n6 -->
<g id="edge13" class="edge"><title>n3&#45;&gt;n6</title>
<path fill="none" stroke="black" d="M1268.18,-217.258C1259.17,-214.197 1249.67,-211.395 1240.57,-209.48 1128.52,-185.899 1092.12,-227.924 983.569,-191.48 971.999,-187.596 971.144,-182.57 960.569,-176.48 948.887,-169.753 936.048,-162.964 923.904,-156.802"/>
<polygon fill="black" stroke="black" points="925.291,-153.582 914.784,-152.224 922.151,-159.838 925.291,-153.582"/>
<text text-anchor="middle" x="1039.57" y="-180.28" font-family="Times,serif" font-size="14.00"> static(visible_from)</text>
</g>
<!-- n3&#45;&gt;n15 -->
<g id="edge33" class="edge"><title>n3&#45;&gt;n15</title>
<path fill="none" stroke="black" d="M1371.95,-227.27C1415.94,-221.544 1477.4,-214.088 1531.57,-209.48 1608.06,-202.974 1803.82,-216.014 1876.57,-191.48 1887.78,-187.698 1887.45,-180.537 1898.57,-176.48 1964.4,-152.455 2162.77,-140.161 2265.84,-135.25"/>
<polygon fill="black" stroke="black" points="2266.28,-138.733 2276.11,-134.77 2265.96,-131.741 2266.28,-138.733"/>
<text text-anchor="middle" x="1990.57" y="-180.28" font-family="Times,serif" font-size="14.00"> end(communicated_image_data)</text>
</g>
<!-- n17 -->
<g id="node17" class="node"><title>n17</title>
<ellipse fill="none" stroke="black" cx="1894.57" cy="-131.61" rx="48.1667" ry="26.7407"/>
<text text-anchor="middle" x="1894.57" y="-135.41" font-family="Times,serif" font-size="14.00">&lt;colour&gt;</text>
<text text-anchor="middle" x="1894.57" y="-120.41" font-family="Times,serif" font-size="14.00">mode</text>
</g>
<!-- n3&#45;&gt;n17 -->
<g id="edge31" class="edge"><title>n3&#45;&gt;n17</title>
<path fill="none" stroke="black" d="M1266.83,-217.669C1258.18,-214.684 1249.16,-211.804 1240.57,-209.48 1196.61,-197.588 1112.32,-209.606 1143.57,-176.48 1167.25,-151.371 1664.08,-137.813 1836.36,-133.853"/>
<polygon fill="black" stroke="black" points="1836.59,-137.349 1846.5,-133.622 1836.43,-130.351 1836.59,-137.349"/>
<text text-anchor="middle" x="1235.57" y="-180.28" font-family="Times,serif" font-size="14.00"> end(communicated_image_data)</text>
</g>
<!-- n5&#45;&gt;n5 -->
<g id="edge2" class="edge"><title>n5&#45;&gt;n5</title>
<path fill="none" stroke="black" d="M932.373,-36.3053C945.052,-35.3472 954.208,-32.2021 954.208,-26.8701 954.208,-23.121 949.682,-20.4531 942.586,-18.8664"/>
<polygon fill="black" stroke="black" points="942.762,-15.3569 932.373,-17.4349 941.79,-22.2891 942.762,-15.3569"/>
<text text-anchor="middle" x="1038.71" y="-38.1701" font-family="Times,serif" font-size="14.00"> end(communicated_soil_data)</text>
<text text-anchor="middle" x="1038.71" y="-23.1701" font-family="Times,serif" font-size="14.00">init(at_soil_sample)</text>
<text text-anchor="middle" x="1038.71" y="-8.17006" font-family="Times,serif" font-size="14.00">init(at_rock_sample)</text>
</g>
<!-- n5&#45;&gt;n6 -->
<g id="edge12" class="edge"><title>n5&#45;&gt;n6</title>
<path fill="none" stroke="black" d="M892.455,-52.5809C896.203,-58.5291 899.571,-65.0951 901.569,-71.7401 904.098,-80.1534 902.519,-88.8773 899.091,-96.9498"/>
<polygon fill="black" stroke="black" points="895.857,-95.582 894.352,-106.069 902.069,-98.8097 895.857,-95.582"/>
<text text-anchor="middle" x="942.569" y="-75.5401" font-family="Times,serif" font-size="14.00"> static(visible)</text>
</g>
<!-- n6&#45;&gt;n5 -->
<g id="edge26" class="edge"><title>n6&#45;&gt;n5</title>
<path fill="none" stroke="black" d="M837.982,-109.287C830.553,-103.021 823.722,-95.4652 819.569,-86.7401 814.252,-75.5704 819.215,-64.9818 827.891,-55.945"/>
<polygon fill="black" stroke="black" points="830.448,-58.3514 835.519,-49.0488 825.753,-53.1588 830.448,-58.3514"/>
<text text-anchor="middle" x="858.569" y="-75.5401" font-family="Times,serif" font-size="14.00"> static(visible)</text>
</g>
<!-- n6&#45;&gt;n6 -->
<g id="edge3" class="edge"><title>n6&#45;&gt;n6</title>
<path fill="none" stroke="black" d="M933.373,-141.045C946.052,-140.087 955.208,-136.942 955.208,-131.61 955.208,-127.861 950.682,-125.193 943.586,-123.607"/>
<polygon fill="black" stroke="black" points="943.762,-120.097 933.373,-122.175 942.79,-127.029 943.762,-120.097"/>
<text text-anchor="middle" x="1014.21" y="-127.91" font-family="Times,serif" font-size="14.00"> init(at_rock_sample)</text>
</g>
<!-- n7 -->
<g id="node7" class="node"><title>n7</title>
<ellipse fill="none" stroke="black" cx="56.5685" cy="-341.09" rx="56.6372" ry="26.7407"/>
<text text-anchor="middle" x="56.5685" y="-344.89" font-family="Times,serif" font-size="14.00">&lt;camera0&gt;</text>
<text text-anchor="middle" x="56.5685" y="-329.89" font-family="Times,serif" font-size="14.00">camera</text>
</g>
<!-- n7&#45;&gt;n4 -->
<g id="edge29" class="edge"><title>n7&#45;&gt;n4</title>
<path fill="none" stroke="black" d="M50.8077,-314.284C44.5812,-281.542 37.2142,-223.657 50.5685,-176.48 51.5231,-173.108 52.8181,-169.74 54.3269,-166.455"/>
<polygon fill="black" stroke="black" points="57.4908,-167.958 59.0402,-157.477 51.293,-164.704 57.4908,-167.958"/>
<text text-anchor="middle" x="88.5685" y="-232.65" font-family="Times,serif" font-size="14.00"> static(supports)</text>
</g>
<!-- n13 -->
<g id="node13" class="node"><title>n13</title>
<ellipse fill="none" stroke="black" cx="1603.57" cy="-236.35" rx="62.8651" ry="26.7407"/>
<text text-anchor="middle" x="1603.57" y="-240.15" font-family="Times,serif" font-size="14.00">&lt;objective2&gt;</text>
<text text-anchor="middle" x="1603.57" y="-225.15" font-family="Times,serif" font-size="14.00">objective</text>
</g>
<!-- n7&#45;&gt;n13 -->
<g id="edge37" class="edge"><title>n7&#45;&gt;n13</title>
<path fill="none" stroke="black" d="M96.7567,-321.9C105.132,-318.806 114.017,-316.016 122.569,-314.22 259.91,-285.381 1244.67,-274.294 1384.57,-263.22 1434.74,-259.249 1491.14,-252.534 1534.13,-246.941"/>
<polygon fill="black" stroke="black" points="1534.74,-250.391 1544.2,-245.62 1533.83,-243.45 1534.74,-250.391"/>
<text text-anchor="middle" x="855.069" y="-285.02" font-family="Times,serif" font-size="14.00"> static(calibration_target)</text>
</g>
<!-- n7&#45;&gt;n14 -->
<g id="edge19" class="edge"><title>n7&#45;&gt;n14</title>
<path fill="none" stroke="black" d="M61.7836,-314.171C65.653,-302.026 72.2905,-288.628 83.5685,-281.22 122.491,-255.657 876.163,-273.554 921.569,-263.22 925.979,-262.217 930.463,-260.855 934.878,-259.279"/>
<polygon fill="black" stroke="black" points="936.358,-262.458 944.383,-255.541 933.796,-255.944 936.358,-262.458"/>
<text text-anchor="middle" x="130.069" y="-285.02" font-family="Times,serif" font-size="14.00"> static(on_board)</text>
</g>
<!-- n8 -->
<g id="node8" class="node"><title>n8</title>
<ellipse fill="none" stroke="black" cx="1603.57" cy="-341.09" rx="56.6372" ry="26.7407"/>
<text text-anchor="middle" x="1603.57" y="-344.89" font-family="Times,serif" font-size="14.00">&lt;camera1&gt;</text>
<text text-anchor="middle" x="1603.57" y="-329.89" font-family="Times,serif" font-size="14.00">camera</text>
</g>
<!-- n8&#45;&gt;n4 -->
<g id="edge30" class="edge"><title>n8&#45;&gt;n4</title>
<path fill="none" stroke="black" d="M1547.13,-337.913C1309.43,-328.595 396.347,-291.282 270.569,-263.22 207.942,-249.248 196.87,-231.413 136.569,-209.48 112.397,-200.689 97.3619,-211.78 81.5685,-191.48 76.5707,-185.056 74.2898,-176.949 73.5209,-168.822"/>
<polygon fill="black" stroke="black" points="77.0153,-168.552 73.2648,-158.643 70.0175,-168.728 77.0153,-168.552"/>
<text text-anchor="middle" x="314.569" y="-232.65" font-family="Times,serif" font-size="14.00"> static(supports)</text>
</g>
<!-- n8&#45;&gt;n13 -->
<g id="edge39" class="edge"><title>n8&#45;&gt;n13</title>
<path fill="none" stroke="black" d="M1603.57,-314.165C1603.57,-301.875 1603.57,-286.987 1603.57,-273.602"/>
<polygon fill="black" stroke="black" points="1607.07,-273.268 1603.57,-263.268 1600.07,-273.268 1607.07,-273.268"/>
<text text-anchor="middle" x="1672.07" y="-285.02" font-family="Times,serif" font-size="14.00"> static(calibration_target)</text>
</g>
<!-- n8&#45;&gt;n14 -->
<g id="edge18" class="edge"><title>n8&#45;&gt;n14</title>
<path fill="none" stroke="black" d="M1547.46,-337.665C1465.36,-333.365 1307.97,-322.267 1176.57,-296.22 1125.17,-286.031 1067.94,-268.295 1028.28,-254.946"/>
<polygon fill="black" stroke="black" points="1029.18,-251.557 1018.59,-251.654 1026.93,-258.185 1029.18,-251.557"/>
<text text-anchor="middle" x="1223.07" y="-285.02" font-family="Times,serif" font-size="14.00"> static(on_board)</text>
</g>
<!-- n8&#45;&gt;n15 -->
<g id="edge6" class="edge"><title>n8&#45;&gt;n15</title>
<path fill="none" stroke="black" d="M1660.07,-339.478C1753.38,-337.502 1945.14,-329.354 2103.57,-296.22 2148.55,-286.812 2160.05,-282.931 2201.57,-263.22 2204.95,-261.616 2313.39,-194.523 2315.57,-191.48 2320.34,-184.813 2323.51,-176.74 2325.6,-168.737"/>
<polygon fill="black" stroke="black" points="2329.06,-169.257 2327.72,-158.749 2322.22,-167.805 2329.06,-169.257"/>
<text text-anchor="middle" x="2332.57" y="-232.65" font-family="Times,serif" font-size="14.00"> static(supports)</text>
</g>
<!-- n8&#45;&gt;n17 -->
<g id="edge16" class="edge"><title>n8&#45;&gt;n17</title>
<path fill="none" stroke="black" d="M1660.19,-339.107C1781.02,-336.422 2055.5,-326.968 2083.57,-296.22 2119.45,-256.914 2116.67,-218.149 2083.57,-176.48 2067.3,-156 2001.21,-144.224 1951.74,-138.127"/>
<polygon fill="black" stroke="black" points="1952.12,-134.648 1941.77,-136.947 1951.29,-141.599 1952.12,-134.648"/>
<text text-anchor="middle" x="2153.57" y="-232.65" font-family="Times,serif" font-size="14.00"> static(supports)</text>
</g>
<!-- n9 -->
<g id="node9" class="node"><title>n9</title>
<ellipse fill="none" stroke="black" cx="608.569" cy="-236.35" rx="62.8651" ry="26.7407"/>
<text text-anchor="middle" x="608.569" y="-240.15" font-family="Times,serif" font-size="14.00">&lt;objective0&gt;</text>
<text text-anchor="middle" x="608.569" y="-225.15" font-family="Times,serif" font-size="14.00">objective</text>
</g>
<!-- n9&#45;&gt;n6 -->
<g id="edge9" class="edge"><title>n9&#45;&gt;n6</title>
<path fill="none" stroke="black" d="M631.059,-211.2C643.636,-199.064 660.242,-185.136 677.569,-176.48 716.226,-157.17 763.387,-146.274 801.76,-140.172"/>
<polygon fill="black" stroke="black" points="802.46,-143.606 811.824,-138.649 801.413,-136.685 802.46,-143.606"/>
<text text-anchor="middle" x="733.569" y="-180.28" font-family="Times,serif" font-size="14.00"> static(visible_from)</text>
</g>
<!-- n10 -->
<g id="node10" class="node"><title>n10</title>
<ellipse fill="none" stroke="black" cx="198.569" cy="-341.09" rx="67.3507" ry="26.7407"/>
<text text-anchor="middle" x="198.569" y="-344.89" font-family="Times,serif" font-size="14.00">&lt;rover0store&gt;</text>
<text text-anchor="middle" x="198.569" y="-329.89" font-family="Times,serif" font-size="14.00">store</text>
</g>
<!-- n10&#45;&gt;n10 -->
<g id="edge4" class="edge"><title>n10&#45;&gt;n10</title>
<path fill="none" stroke="black" d="M261.715,-350.468C274.552,-349.447 283.744,-346.321 283.744,-341.09 283.744,-337.413 279.199,-334.775 272.039,-333.179"/>
<polygon fill="black" stroke="black" points="272.108,-329.653 261.715,-331.712 271.123,-336.584 272.108,-329.653"/>
<text text-anchor="middle" x="316.744" y="-337.39" font-family="Times,serif" font-size="14.00"> init(empty)</text>
</g>
<!-- n10&#45;&gt;n14 -->
<g id="edge25" class="edge"><title>n10&#45;&gt;n14</title>
<path fill="none" stroke="black" d="M184.259,-314.595C179.819,-303.002 178.045,-289.955 186.569,-281.22 215.095,-251.987 881.755,-272.344 921.569,-263.22 925.978,-262.21 930.46,-260.844 934.875,-259.265"/>
<polygon fill="black" stroke="black" points="936.356,-262.444 944.379,-255.524 933.792,-255.93 936.356,-262.444"/>
<text text-anchor="middle" x="229.569" y="-285.02" font-family="Times,serif" font-size="14.00"> static(store_of)</text>
</g>
<!-- n11&#45;&gt;n6 -->
<g id="edge38" class="edge"><title>n11&#45;&gt;n6</title>
<path fill="none" stroke="black" d="M2409.18,-215.204C2378.23,-199.789 2337.46,-180.507 2319.57,-176.48 2186.01,-146.421 1224.16,-167.708 1087.57,-158.48 1039.1,-155.206 984.772,-148.602 942.98,-142.886"/>
<polygon fill="black" stroke="black" points="943.294,-139.396 932.909,-141.492 942.335,-146.33 943.294,-139.396"/>
<text text-anchor="middle" x="2413.57" y="-180.28" font-family="Times,serif" font-size="14.00"> static(visible_from)</text>
</g>
<!-- n11&#45;&gt;n15 -->
<g id="edge24" class="edge"><title>n11&#45;&gt;n15</title>
<path fill="none" stroke="black" d="M2472.82,-211.348C2481.13,-200.222 2486.54,-187.136 2478.57,-176.48 2458.98,-150.29 2424.5,-139.069 2393.65,-134.512"/>
<polygon fill="black" stroke="black" points="2393.71,-130.992 2383.35,-133.21 2392.83,-137.937 2393.71,-130.992"/>
<text text-anchor="middle" x="2573.57" y="-180.28" font-family="Times,serif" font-size="14.00"> end(communicated_image_data)</text>
</g>
<!-- n12 -->
<g id="node12" class="node"><title>n12</title>
<ellipse fill="none" stroke="black" cx="430.569" cy="-236.35" rx="62.8651" ry="26.7407"/>
<text text-anchor="middle" x="430.569" y="-240.15" font-family="Times,serif" font-size="14.00">&lt;objective4&gt;</text>
<text text-anchor="middle" x="430.569" y="-225.15" font-family="Times,serif" font-size="14.00">objective</text>
</g>
<!-- n12&#45;&gt;n4 -->
<g id="edge10" class="edge"><title>n12&#45;&gt;n4</title>
<path fill="none" stroke="black" d="M374.321,-224.117C347.786,-219.108 315.635,-213.454 286.569,-209.48 244.329,-203.706 128.611,-218.42 95.5685,-191.48 88.4669,-185.69 84.1031,-177.175 81.4398,-168.411"/>
<polygon fill="black" stroke="black" points="84.8124,-167.463 79.1002,-158.54 78.0011,-169.078 84.8124,-167.463"/>
<text text-anchor="middle" x="187.569" y="-180.28" font-family="Times,serif" font-size="14.00"> end(communicated_image_data)</text>
</g>
<!-- n12&#45;&gt;n5 -->
<g id="edge21" class="edge"><title>n12&#45;&gt;n5</title>
<path fill="none" stroke="black" d="M371.105,-227.41C330.03,-219.361 286.32,-204.041 307.569,-176.48 367.835,-98.3122 663.041,-53.1035 801.116,-35.9201"/>
<polygon fill="black" stroke="black" points="801.682,-39.3769 811.18,-34.6826 800.828,-32.4292 801.682,-39.3769"/>
<text text-anchor="middle" x="497.569" y="-127.91" font-family="Times,serif" font-size="14.00"> static(visible_from)</text>
</g>
<!-- n12&#45;&gt;n6 -->
<g id="edge11" class="edge"><title>n12&#45;&gt;n6</title>
<path fill="none" stroke="black" d="M468.526,-214.901C482.12,-207.548 497.547,-199.172 511.569,-191.48 523.604,-184.878 525.532,-180.781 538.569,-176.48 625.329,-147.858 730.523,-137.825 799.605,-134.356"/>
<polygon fill="black" stroke="black" points="800.125,-137.836 809.951,-133.872 799.798,-130.843 800.125,-137.836"/>
<text text-anchor="middle" x="594.569" y="-180.28" font-family="Times,serif" font-size="14.00"> static(visible_from)</text>
</g>
<!-- n12&#45;&gt;n15 -->
<g id="edge32" class="edge"><title>n12&#45;&gt;n15</title>
<path fill="none" stroke="black" d="M481.628,-220.484C498.919,-216.096 518.441,-211.839 536.569,-209.48 638.616,-196.2 1365.26,-224.97 1462.57,-191.48 1473.07,-187.864 1472.1,-180.195 1482.57,-176.48 1531.72,-159.043 1899.49,-161.261 1951.57,-158.48 2062.45,-152.559 2191.46,-143.198 2266.48,-137.508"/>
<polygon fill="black" stroke="black" points="2266.99,-140.979 2276.7,-136.731 2266.46,-134 2266.99,-140.979"/>
<text text-anchor="middle" x="1574.57" y="-180.28" font-family="Times,serif" font-size="14.00"> end(communicated_image_data)</text>
</g>
<!-- n13&#45;&gt;n6 -->
<g id="edge36" class="edge"><title>n13&#45;&gt;n6</title>
<path fill="none" stroke="black" d="M1541.37,-231.606C1488.96,-226.814 1412.8,-215.96 1350.57,-191.48 1339.21,-187.013 1339.13,-180.393 1327.57,-176.48 1276.91,-159.333 1140.8,-163.691 1087.57,-158.48 1039.57,-153.781 985.664,-147.257 943.963,-141.937"/>
<polygon fill="black" stroke="black" points="944.271,-138.448 933.907,-140.647 943.38,-145.391 944.271,-138.448"/>
<text text-anchor="middle" x="1406.57" y="-180.28" font-family="Times,serif" font-size="14.00"> static(visible_from)</text>
</g>
<!-- n13&#45;&gt;n15 -->
<g id="edge40" class="edge"><title>n13&#45;&gt;n15</title>
<path fill="none" stroke="black" d="M1666.39,-234.261C1759.2,-231.615 1938.01,-222.549 2086.57,-191.48 2107.2,-187.165 2111.25,-182.101 2131.57,-176.48 2177.61,-163.742 2230.47,-152.183 2269.99,-144.131"/>
<polygon fill="black" stroke="black" points="2270.88,-147.521 2279.99,-142.109 2269.49,-140.66 2270.88,-147.521"/>
<text text-anchor="middle" x="2223.57" y="-180.28" font-family="Times,serif" font-size="14.00"> end(communicated_image_data)</text>
</g>
<!-- n13&#45;&gt;n17 -->
<g id="edge22" class="edge"><title>n13&#45;&gt;n17</title>
<path fill="none" stroke="black" d="M1636.55,-213.436C1661.55,-196.837 1691.77,-176.817 1692.57,-176.48 1739.46,-156.704 1796.38,-145.376 1837.84,-139.205"/>
<polygon fill="black" stroke="black" points="1838.36,-142.666 1847.76,-137.782 1837.37,-135.737 1838.36,-142.666"/>
<text text-anchor="middle" x="1784.57" y="-180.28" font-family="Times,serif" font-size="14.00"> end(communicated_image_data)</text>
</g>
<!-- n14&#45;&gt;n6 -->
<g id="edge23" class="edge"><title>n14&#45;&gt;n6</title>
<path fill="none" stroke="black" d="M948.208,-215.172C938.607,-208.177 928.245,-199.952 919.569,-191.48 911.621,-183.721 903.844,-174.565 897.012,-165.816"/>
<polygon fill="black" stroke="black" points="899.613,-163.455 890.776,-157.611 894.04,-167.69 899.613,-163.455"/>
<text text-anchor="middle" x="940.069" y="-180.28" font-family="Times,serif" font-size="14.00"> init(at)</text>
</g>
<!-- n14&#45;&gt;n14 -->
<g id="edge5" class="edge"><title>n14&#45;&gt;n14</title>
<path fill="none" stroke="black" d="M1023.66,-246.015C1035.61,-245.462 1044.65,-242.241 1044.65,-236.35 1044.65,-232.3 1040.38,-229.512 1033.82,-227.986"/>
<polygon fill="black" stroke="black" points="1034.03,-224.483 1023.66,-226.686 1033.14,-231.427 1034.03,-224.483"/>
<text text-anchor="middle" x="1138.15" y="-247.65" font-family="Times,serif" font-size="14.00"> static(equipped_for_imaging)</text>
<text text-anchor="middle" x="1138.15" y="-232.65" font-family="Times,serif" font-size="14.00">init(available)</text>
<text text-anchor="middle" x="1138.15" y="-217.65" font-family="Times,serif" font-size="14.00">static(equipped_for_soil_analysis)</text>
</g>
<!-- n16 -->
<g id="node16" class="node"><title>n16</title>
<ellipse fill="none" stroke="black" cx="2573.57" cy="-341.09" rx="56.6372" ry="26.7407"/>
<text text-anchor="middle" x="2573.57" y="-344.89" font-family="Times,serif" font-size="14.00">&lt;camera3&gt;</text>
<text text-anchor="middle" x="2573.57" y="-329.89" font-family="Times,serif" font-size="14.00">camera</text>
</g>
<!-- n16&#45;&gt;n11 -->
<g id="edge27" class="edge"><title>n16&#45;&gt;n11</title>
<path fill="none" stroke="black" d="M2535.3,-321.007C2522.98,-314.023 2509.66,-305.527 2498.57,-296.22 2489.43,-288.555 2480.61,-279.11 2472.98,-270.047"/>
<polygon fill="black" stroke="black" points="2475.64,-267.773 2466.61,-262.235 2470.22,-272.197 2475.64,-267.773"/>
<text text-anchor="middle" x="2567.07" y="-285.02" font-family="Times,serif" font-size="14.00"> static(calibration_target)</text>
</g>
<!-- n16&#45;&gt;n14 -->
<g id="edge8" class="edge"><title>n16&#45;&gt;n14</title>
<path fill="none" stroke="black" d="M2520.31,-331.857C2481.19,-326.093 2426.69,-318.657 2378.57,-314.22 2097.6,-288.312 2026.46,-293.589 1744.57,-281.22 1520.64,-271.395 1464.21,-278.24 1240.57,-263.22 1169.81,-258.468 1088.58,-249.973 1035.57,-244.018"/>
<polygon fill="black" stroke="black" points="1035.68,-240.509 1025.35,-242.863 1034.89,-247.465 1035.68,-240.509"/>
<text text-anchor="middle" x="2184.07" y="-285.02" font-family="Times,serif" font-size="14.00"> static(on_board)</text>
</g>
<!-- n16&#45;&gt;n15 -->
<g id="edge17" class="edge"><title>n16&#45;&gt;n15</title>
<path fill="none" stroke="black" d="M2629.19,-335.397C2676.12,-328.164 2740.63,-309.801 2772.57,-263.22 2786.08,-243.522 2786.06,-229.19 2772.57,-209.48 2730.61,-148.187 2506.22,-135.543 2393.82,-133.09"/>
<polygon fill="black" stroke="black" points="2393.7,-129.587 2383.63,-132.888 2393.56,-136.585 2393.7,-129.587"/>
<text text-anchor="middle" x="2826.57" y="-232.65" font-family="Times,serif" font-size="14.00"> static(supports)</text>
</g>
<!-- n16&#45;&gt;n17 -->
<g id="edge15" class="edge"><title>n16&#45;&gt;n17</title>
<path fill="none" stroke="black" d="M2613.58,-321.695C2632.08,-310.657 2647.58,-295.94 2635.57,-281.22 2610.33,-250.293 2579.26,-287.491 2547.57,-263.22 2526.35,-246.97 2538.03,-229.714 2520.57,-209.48 2503.89,-190.159 2497.6,-185.086 2473.57,-176.48 2461.39,-172.119 2096.29,-146.533 1952.22,-136.574"/>
<polygon fill="black" stroke="black" points="1952.46,-133.082 1942.24,-135.885 1951.97,-140.066 1952.46,-133.082"/>
<text text-anchor="middle" x="2591.57" y="-232.65" font-family="Times,serif" font-size="14.00"> static(supports)</text>
</g>
</g>
</svg>
